<?xml version="1.0" encoding="utf-8" standalone="no"?>
<!DOCTYPE svg PUBLIC "-//W3C//DTD SVG 1.1//EN"
  "http://www.w3.org/Graphics/SVG/1.1/DTD/svg11.dtd">
<svg xmlns:xlink="http://www.w3.org/1999/xlink" width="460.8pt" height="345.6pt" viewBox="0 0 460.8 345.6" xmlns="http://www.w3.org/2000/svg" version="1.1">
 <metadata>
  <rdf:RDF xmlns:dc="http://purl.org/dc/elements/1.1/" xmlns:cc="http://creativecommons.org/ns#" xmlns:rdf="http://www.w3.org/1999/02/22-rdf-syntax-ns#">
   <cc:Work>
    <dc:type rdf:resource="http://purl.org/dc/dcmitype/StillImage"/>
    <dc:date>2023-11-09T23:43:59.102655</dc:date>
    <dc:format>image/svg+xml</dc:format>
    <dc:creator>
     <cc:Agent>
      <dc:title>Matplotlib v3.6.3, https://matplotlib.org/</dc:title>
     </cc:Agent>
    </dc:creator>
   </cc:Work>
  </rdf:RDF>
 </metadata>
 <defs>
  <style type="text/css">*{stroke-linejoin: round; stroke-linecap: butt}</style>
 </defs>
 <g id="figure_1">
  <g id="patch_1">
   <path d="M 0 345.6 
L 460.8 345.6 
L 460.8 0 
L 0 0 
z
" style="fill: #ffffff"/>
  </g>
  <g id="axes_1">
   <g id="patch_2">
    <path d="M 51.05 279.561175 
L 450 279.561175 
L 450 25.44 
L 51.05 25.44 
z
" style="fill: #ffffff"/>
   </g>
   <g id="matplotlib.axis_1">
    <g id="xtick_1">
     <g id="line2d_1">
      <path d="M 95.41756 279.561175 
L 95.41756 25.44 
" clip-path="url(#p4550b4f038)" style="fill: none; stroke: #b0b0b0; stroke-width: 0.8; stroke-linecap: square"/>
     </g>
     <g id="line2d_2">
      <defs>
       <path id="me5273798f0" d="M 0 0 
L 0 3.5 
" style="stroke: #000000; stroke-width: 0.8"/>
      </defs>
      <g>
       <use xlink:href="#me5273798f0" x="95.41756" y="279.561175" style="stroke: #000000; stroke-width: 0.8"/>
      </g>
     </g>
     <g id="text_1">
      <!-- 2023-11-02 -->
      <g transform="translate(52.853047 333.028035) rotate(-45) scale(0.1 -0.1)">
       <defs>
        <path id="DejaVuSans-32" d="M 1228 531 
L 3431 531 
L 3431 0 
L 469 0 
L 469 531 
Q 828 903 1448 1529 
Q 2069 2156 2228 2338 
Q 2531 2678 2651 2914 
Q 2772 3150 2772 3378 
Q 2772 3750 2511 3984 
Q 2250 4219 1831 4219 
Q 1534 4219 1204 4116 
Q 875 4013 500 3803 
L 500 4441 
Q 881 4594 1212 4672 
Q 1544 4750 1819 4750 
Q 2544 4750 2975 4387 
Q 3406 4025 3406 3419 
Q 3406 3131 3298 2873 
Q 3191 2616 2906 2266 
Q 2828 2175 2409 1742 
Q 1991 1309 1228 531 
z
" transform="scale(0.015625)"/>
        <path id="DejaVuSans-30" d="M 2034 4250 
Q 1547 4250 1301 3770 
Q 1056 3291 1056 2328 
Q 1056 1369 1301 889 
Q 1547 409 2034 409 
Q 2525 409 2770 889 
Q 3016 1369 3016 2328 
Q 3016 3291 2770 3770 
Q 2525 4250 2034 4250 
z
M 2034 4750 
Q 2819 4750 3233 4129 
Q 3647 3509 3647 2328 
Q 3647 1150 3233 529 
Q 2819 -91 2034 -91 
Q 1250 -91 836 529 
Q 422 1150 422 2328 
Q 422 3509 836 4129 
Q 1250 4750 2034 4750 
z
" transform="scale(0.015625)"/>
        <path id="DejaVuSans-33" d="M 2597 2516 
Q 3050 2419 3304 2112 
Q 3559 1806 3559 1356 
Q 3559 666 3084 287 
Q 2609 -91 1734 -91 
Q 1441 -91 1130 -33 
Q 819 25 488 141 
L 488 750 
Q 750 597 1062 519 
Q 1375 441 1716 441 
Q 2309 441 2620 675 
Q 2931 909 2931 1356 
Q 2931 1769 2642 2001 
Q 2353 2234 1838 2234 
L 1294 2234 
L 1294 2753 
L 1863 2753 
Q 2328 2753 2575 2939 
Q 2822 3125 2822 3475 
Q 2822 3834 2567 4026 
Q 2313 4219 1838 4219 
Q 1578 4219 1281 4162 
Q 984 4106 628 3988 
L 628 4550 
Q 988 4650 1302 4700 
Q 1616 4750 1894 4750 
Q 2613 4750 3031 4423 
Q 3450 4097 3450 3541 
Q 3450 3153 3228 2886 
Q 3006 2619 2597 2516 
z
" transform="scale(0.015625)"/>
        <path id="DejaVuSans-2d" d="M 313 2009 
L 1997 2009 
L 1997 1497 
L 313 1497 
L 313 2009 
z
" transform="scale(0.015625)"/>
        <path id="DejaVuSans-31" d="M 794 531 
L 1825 531 
L 1825 4091 
L 703 3866 
L 703 4441 
L 1819 4666 
L 2450 4666 
L 2450 531 
L 3481 531 
L 3481 0 
L 794 0 
L 794 531 
z
" transform="scale(0.015625)"/>
       </defs>
       <use xlink:href="#DejaVuSans-32"/>
       <use xlink:href="#DejaVuSans-30" x="63.623047"/>
       <use xlink:href="#DejaVuSans-32" x="127.246094"/>
       <use xlink:href="#DejaVuSans-33" x="190.869141"/>
       <use xlink:href="#DejaVuSans-2d" x="254.492188"/>
       <use xlink:href="#DejaVuSans-31" x="290.576172"/>
       <use xlink:href="#DejaVuSans-31" x="354.199219"/>
       <use xlink:href="#DejaVuSans-2d" x="417.822266"/>
       <use xlink:href="#DejaVuSans-30" x="453.90625"/>
       <use xlink:href="#DejaVuSans-32" x="517.529297"/>
      </g>
     </g>
    </g>
    <g id="xtick_2">
     <g id="line2d_3">
      <path d="M 139.808737 279.561175 
L 139.808737 25.44 
" clip-path="url(#p4550b4f038)" style="fill: none; stroke: #b0b0b0; stroke-width: 0.8; stroke-linecap: square"/>
     </g>
     <g id="line2d_4">
      <g>
       <use xlink:href="#me5273798f0" x="139.808737" y="279.561175" style="stroke: #000000; stroke-width: 0.8"/>
      </g>
     </g>
     <g id="text_2">
      <!-- 2023-11-03 -->
      <g transform="translate(97.244224 333.028035) rotate(-45) scale(0.1 -0.1)">
       <use xlink:href="#DejaVuSans-32"/>
       <use xlink:href="#DejaVuSans-30" x="63.623047"/>
       <use xlink:href="#DejaVuSans-32" x="127.246094"/>
       <use xlink:href="#DejaVuSans-33" x="190.869141"/>
       <use xlink:href="#DejaVuSans-2d" x="254.492188"/>
       <use xlink:href="#DejaVuSans-31" x="290.576172"/>
       <use xlink:href="#DejaVuSans-31" x="354.199219"/>
       <use xlink:href="#DejaVuSans-2d" x="417.822266"/>
       <use xlink:href="#DejaVuSans-30" x="453.90625"/>
       <use xlink:href="#DejaVuSans-33" x="517.529297"/>
      </g>
     </g>
    </g>
    <g id="xtick_3">
     <g id="line2d_5">
      <path d="M 184.199914 279.561175 
L 184.199914 25.44 
" clip-path="url(#p4550b4f038)" style="fill: none; stroke: #b0b0b0; stroke-width: 0.8; stroke-linecap: square"/>
     </g>
     <g id="line2d_6">
      <g>
       <use xlink:href="#me5273798f0" x="184.199914" y="279.561175" style="stroke: #000000; stroke-width: 0.8"/>
      </g>
     </g>
     <g id="text_3">
      <!-- 2023-11-04 -->
      <g transform="translate(141.6354 333.028035) rotate(-45) scale(0.1 -0.1)">
       <defs>
        <path id="DejaVuSans-34" d="M 2419 4116 
L 825 1625 
L 2419 1625 
L 2419 4116 
z
M 2253 4666 
L 3047 4666 
L 3047 1625 
L 3713 1625 
L 3713 1100 
L 3047 1100 
L 3047 0 
L 2419 0 
L 2419 1100 
L 313 1100 
L 313 1709 
L 2253 4666 
z
" transform="scale(0.015625)"/>
       </defs>
       <use xlink:href="#DejaVuSans-32"/>
       <use xlink:href="#DejaVuSans-30" x="63.623047"/>
       <use xlink:href="#DejaVuSans-32" x="127.246094"/>
       <use xlink:href="#DejaVuSans-33" x="190.869141"/>
       <use xlink:href="#DejaVuSans-2d" x="254.492188"/>
       <use xlink:href="#DejaVuSans-31" x="290.576172"/>
       <use xlink:href="#DejaVuSans-31" x="354.199219"/>
       <use xlink:href="#DejaVuSans-2d" x="417.822266"/>
       <use xlink:href="#DejaVuSans-30" x="453.90625"/>
       <use xlink:href="#DejaVuSans-34" x="517.529297"/>
      </g>
     </g>
    </g>
    <g id="xtick_4">
     <g id="line2d_7">
      <path d="M 228.591091 279.561175 
L 228.591091 25.44 
" clip-path="url(#p4550b4f038)" style="fill: none; stroke: #b0b0b0; stroke-width: 0.8; stroke-linecap: square"/>
     </g>
     <g id="line2d_8">
      <g>
       <use xlink:href="#me5273798f0" x="228.591091" y="279.561175" style="stroke: #000000; stroke-width: 0.8"/>
      </g>
     </g>
     <g id="text_4">
      <!-- 2023-11-05 -->
      <g transform="translate(186.026577 333.028035) rotate(-45) scale(0.1 -0.1)">
       <defs>
        <path id="DejaVuSans-35" d="M 691 4666 
L 3169 4666 
L 3169 4134 
L 1269 4134 
L 1269 2991 
Q 1406 3038 1543 3061 
Q 1681 3084 1819 3084 
Q 2600 3084 3056 2656 
Q 3513 2228 3513 1497 
Q 3513 744 3044 326 
Q 2575 -91 1722 -91 
Q 1428 -91 1123 -41 
Q 819 9 494 109 
L 494 744 
Q 775 591 1075 516 
Q 1375 441 1709 441 
Q 2250 441 2565 725 
Q 2881 1009 2881 1497 
Q 2881 1984 2565 2268 
Q 2250 2553 1709 2553 
Q 1456 2553 1204 2497 
Q 953 2441 691 2322 
L 691 4666 
z
" transform="scale(0.015625)"/>
       </defs>
       <use xlink:href="#DejaVuSans-32"/>
       <use xlink:href="#DejaVuSans-30" x="63.623047"/>
       <use xlink:href="#DejaVuSans-32" x="127.246094"/>
       <use xlink:href="#DejaVuSans-33" x="190.869141"/>
       <use xlink:href="#DejaVuSans-2d" x="254.492188"/>
       <use xlink:href="#DejaVuSans-31" x="290.576172"/>
       <use xlink:href="#DejaVuSans-31" x="354.199219"/>
       <use xlink:href="#DejaVuSans-2d" x="417.822266"/>
       <use xlink:href="#DejaVuSans-30" x="453.90625"/>
       <use xlink:href="#DejaVuSans-35" x="517.529297"/>
      </g>
     </g>
    </g>
    <g id="xtick_5">
     <g id="line2d_9">
      <path d="M 272.982268 279.561175 
L 272.982268 25.44 
" clip-path="url(#p4550b4f038)" style="fill: none; stroke: #b0b0b0; stroke-width: 0.8; stroke-linecap: square"/>
     </g>
     <g id="line2d_10">
      <g>
       <use xlink:href="#me5273798f0" x="272.982268" y="279.561175" style="stroke: #000000; stroke-width: 0.8"/>
      </g>
     </g>
     <g id="text_5">
      <!-- 2023-11-06 -->
      <g transform="translate(230.417754 333.028035) rotate(-45) scale(0.1 -0.1)">
       <defs>
        <path id="DejaVuSans-36" d="M 2113 2584 
Q 1688 2584 1439 2293 
Q 1191 2003 1191 1497 
Q 1191 994 1439 701 
Q 1688 409 2113 409 
Q 2538 409 2786 701 
Q 3034 994 3034 1497 
Q 3034 2003 2786 2293 
Q 2538 2584 2113 2584 
z
M 3366 4563 
L 3366 3988 
Q 3128 4100 2886 4159 
Q 2644 4219 2406 4219 
Q 1781 4219 1451 3797 
Q 1122 3375 1075 2522 
Q 1259 2794 1537 2939 
Q 1816 3084 2150 3084 
Q 2853 3084 3261 2657 
Q 3669 2231 3669 1497 
Q 3669 778 3244 343 
Q 2819 -91 2113 -91 
Q 1303 -91 875 529 
Q 447 1150 447 2328 
Q 447 3434 972 4092 
Q 1497 4750 2381 4750 
Q 2619 4750 2861 4703 
Q 3103 4656 3366 4563 
z
" transform="scale(0.015625)"/>
       </defs>
       <use xlink:href="#DejaVuSans-32"/>
       <use xlink:href="#DejaVuSans-30" x="63.623047"/>
       <use xlink:href="#DejaVuSans-32" x="127.246094"/>
       <use xlink:href="#DejaVuSans-33" x="190.869141"/>
       <use xlink:href="#DejaVuSans-2d" x="254.492188"/>
       <use xlink:href="#DejaVuSans-31" x="290.576172"/>
       <use xlink:href="#DejaVuSans-31" x="354.199219"/>
       <use xlink:href="#DejaVuSans-2d" x="417.822266"/>
       <use xlink:href="#DejaVuSans-30" x="453.90625"/>
       <use xlink:href="#DejaVuSans-36" x="517.529297"/>
      </g>
     </g>
    </g>
    <g id="xtick_6">
     <g id="line2d_11">
      <path d="M 317.373445 279.561175 
L 317.373445 25.44 
" clip-path="url(#p4550b4f038)" style="fill: none; stroke: #b0b0b0; stroke-width: 0.8; stroke-linecap: square"/>
     </g>
     <g id="line2d_12">
      <g>
       <use xlink:href="#me5273798f0" x="317.373445" y="279.561175" style="stroke: #000000; stroke-width: 0.8"/>
      </g>
     </g>
     <g id="text_6">
      <!-- 2023-11-07 -->
      <g transform="translate(274.808931 333.028035) rotate(-45) scale(0.1 -0.1)">
       <defs>
        <path id="DejaVuSans-37" d="M 525 4666 
L 3525 4666 
L 3525 4397 
L 1831 0 
L 1172 0 
L 2766 4134 
L 525 4134 
L 525 4666 
z
" transform="scale(0.015625)"/>
       </defs>
       <use xlink:href="#DejaVuSans-32"/>
       <use xlink:href="#DejaVuSans-30" x="63.623047"/>
       <use xlink:href="#DejaVuSans-32" x="127.246094"/>
       <use xlink:href="#DejaVuSans-33" x="190.869141"/>
       <use xlink:href="#DejaVuSans-2d" x="254.492188"/>
       <use xlink:href="#DejaVuSans-31" x="290.576172"/>
       <use xlink:href="#DejaVuSans-31" x="354.199219"/>
       <use xlink:href="#DejaVuSans-2d" x="417.822266"/>
       <use xlink:href="#DejaVuSans-30" x="453.90625"/>
       <use xlink:href="#DejaVuSans-37" x="517.529297"/>
      </g>
     </g>
    </g>
    <g id="xtick_7">
     <g id="line2d_13">
      <path d="M 361.764621 279.561175 
L 361.764621 25.44 
" clip-path="url(#p4550b4f038)" style="fill: none; stroke: #b0b0b0; stroke-width: 0.8; stroke-linecap: square"/>
     </g>
     <g id="line2d_14">
      <g>
       <use xlink:href="#me5273798f0" x="361.764621" y="279.561175" style="stroke: #000000; stroke-width: 0.8"/>
      </g>
     </g>
     <g id="text_7">
      <!-- 2023-11-08 -->
      <g transform="translate(319.200108 333.028035) rotate(-45) scale(0.1 -0.1)">
       <defs>
        <path id="DejaVuSans-38" d="M 2034 2216 
Q 1584 2216 1326 1975 
Q 1069 1734 1069 1313 
Q 1069 891 1326 650 
Q 1584 409 2034 409 
Q 2484 409 2743 651 
Q 3003 894 3003 1313 
Q 3003 1734 2745 1975 
Q 2488 2216 2034 2216 
z
M 1403 2484 
Q 997 2584 770 2862 
Q 544 3141 544 3541 
Q 544 4100 942 4425 
Q 1341 4750 2034 4750 
Q 2731 4750 3128 4425 
Q 3525 4100 3525 3541 
Q 3525 3141 3298 2862 
Q 3072 2584 2669 2484 
Q 3125 2378 3379 2068 
Q 3634 1759 3634 1313 
Q 3634 634 3220 271 
Q 2806 -91 2034 -91 
Q 1263 -91 848 271 
Q 434 634 434 1313 
Q 434 1759 690 2068 
Q 947 2378 1403 2484 
z
M 1172 3481 
Q 1172 3119 1398 2916 
Q 1625 2713 2034 2713 
Q 2441 2713 2670 2916 
Q 2900 3119 2900 3481 
Q 2900 3844 2670 4047 
Q 2441 4250 2034 4250 
Q 1625 4250 1398 4047 
Q 1172 3844 1172 3481 
z
" transform="scale(0.015625)"/>
       </defs>
       <use xlink:href="#DejaVuSans-32"/>
       <use xlink:href="#DejaVuSans-30" x="63.623047"/>
       <use xlink:href="#DejaVuSans-32" x="127.246094"/>
       <use xlink:href="#DejaVuSans-33" x="190.869141"/>
       <use xlink:href="#DejaVuSans-2d" x="254.492188"/>
       <use xlink:href="#DejaVuSans-31" x="290.576172"/>
       <use xlink:href="#DejaVuSans-31" x="354.199219"/>
       <use xlink:href="#DejaVuSans-2d" x="417.822266"/>
       <use xlink:href="#DejaVuSans-30" x="453.90625"/>
       <use xlink:href="#DejaVuSans-38" x="517.529297"/>
      </g>
     </g>
    </g>
    <g id="xtick_8">
     <g id="line2d_15">
      <path d="M 406.155798 279.561175 
L 406.155798 25.44 
" clip-path="url(#p4550b4f038)" style="fill: none; stroke: #b0b0b0; stroke-width: 0.8; stroke-linecap: square"/>
     </g>
     <g id="line2d_16">
      <g>
       <use xlink:href="#me5273798f0" x="406.155798" y="279.561175" style="stroke: #000000; stroke-width: 0.8"/>
      </g>
     </g>
     <g id="text_8">
      <!-- 2023-11-09 -->
      <g transform="translate(363.591285 333.028035) rotate(-45) scale(0.1 -0.1)">
       <defs>
        <path id="DejaVuSans-39" d="M 703 97 
L 703 672 
Q 941 559 1184 500 
Q 1428 441 1663 441 
Q 2288 441 2617 861 
Q 2947 1281 2994 2138 
Q 2813 1869 2534 1725 
Q 2256 1581 1919 1581 
Q 1219 1581 811 2004 
Q 403 2428 403 3163 
Q 403 3881 828 4315 
Q 1253 4750 1959 4750 
Q 2769 4750 3195 4129 
Q 3622 3509 3622 2328 
Q 3622 1225 3098 567 
Q 2575 -91 1691 -91 
Q 1453 -91 1209 -44 
Q 966 3 703 97 
z
M 1959 2075 
Q 2384 2075 2632 2365 
Q 2881 2656 2881 3163 
Q 2881 3666 2632 3958 
Q 2384 4250 1959 4250 
Q 1534 4250 1286 3958 
Q 1038 3666 1038 3163 
Q 1038 2656 1286 2365 
Q 1534 2075 1959 2075 
z
" transform="scale(0.015625)"/>
       </defs>
       <use xlink:href="#DejaVuSans-32"/>
       <use xlink:href="#DejaVuSans-30" x="63.623047"/>
       <use xlink:href="#DejaVuSans-32" x="127.246094"/>
       <use xlink:href="#DejaVuSans-33" x="190.869141"/>
       <use xlink:href="#DejaVuSans-2d" x="254.492188"/>
       <use xlink:href="#DejaVuSans-31" x="290.576172"/>
       <use xlink:href="#DejaVuSans-31" x="354.199219"/>
       <use xlink:href="#DejaVuSans-2d" x="417.822266"/>
       <use xlink:href="#DejaVuSans-30" x="453.90625"/>
       <use xlink:href="#DejaVuSans-39" x="517.529297"/>
      </g>
     </g>
    </g>
   </g>
   <g id="matplotlib.axis_2">
    <g id="ytick_1">
     <g id="line2d_17">
      <path d="M 51.05 279.561175 
L 450 279.561175 
" clip-path="url(#p4550b4f038)" style="fill: none; stroke: #b0b0b0; stroke-width: 0.8; stroke-linecap: square"/>
     </g>
     <g id="line2d_18">
      <defs>
       <path id="m4ad8f7e8a1" d="M 0 0 
L -3.5 0 
" style="stroke: #000000; stroke-width: 0.8"/>
      </defs>
      <g>
       <use xlink:href="#m4ad8f7e8a1" x="51.05" y="279.561175" style="stroke: #000000; stroke-width: 0.8"/>
      </g>
     </g>
     <g id="text_9">
      <!-- 0 -->
      <g transform="translate(37.6875 283.360394) scale(0.1 -0.1)">
       <use xlink:href="#DejaVuSans-30"/>
      </g>
     </g>
    </g>
    <g id="ytick_2">
     <g id="line2d_19">
      <path d="M 51.05 228.73694 
L 450 228.73694 
" clip-path="url(#p4550b4f038)" style="fill: none; stroke: #b0b0b0; stroke-width: 0.8; stroke-linecap: square"/>
     </g>
     <g id="line2d_20">
      <g>
       <use xlink:href="#m4ad8f7e8a1" x="51.05" y="228.73694" style="stroke: #000000; stroke-width: 0.8"/>
      </g>
     </g>
     <g id="text_10">
      <!-- 20 -->
      <g transform="translate(31.325 232.536159) scale(0.1 -0.1)">
       <use xlink:href="#DejaVuSans-32"/>
       <use xlink:href="#DejaVuSans-30" x="63.623047"/>
      </g>
     </g>
    </g>
    <g id="ytick_3">
     <g id="line2d_21">
      <path d="M 51.05 177.912705 
L 450 177.912705 
" clip-path="url(#p4550b4f038)" style="fill: none; stroke: #b0b0b0; stroke-width: 0.8; stroke-linecap: square"/>
     </g>
     <g id="line2d_22">
      <g>
       <use xlink:href="#m4ad8f7e8a1" x="51.05" y="177.912705" style="stroke: #000000; stroke-width: 0.8"/>
      </g>
     </g>
     <g id="text_11">
      <!-- 40 -->
      <g transform="translate(31.325 181.711924) scale(0.1 -0.1)">
       <use xlink:href="#DejaVuSans-34"/>
       <use xlink:href="#DejaVuSans-30" x="63.623047"/>
      </g>
     </g>
    </g>
    <g id="ytick_4">
     <g id="line2d_23">
      <path d="M 51.05 127.08847 
L 450 127.08847 
" clip-path="url(#p4550b4f038)" style="fill: none; stroke: #b0b0b0; stroke-width: 0.8; stroke-linecap: square"/>
     </g>
     <g id="line2d_24">
      <g>
       <use xlink:href="#m4ad8f7e8a1" x="51.05" y="127.08847" style="stroke: #000000; stroke-width: 0.8"/>
      </g>
     </g>
     <g id="text_12">
      <!-- 60 -->
      <g transform="translate(31.325 130.887689) scale(0.1 -0.1)">
       <use xlink:href="#DejaVuSans-36"/>
       <use xlink:href="#DejaVuSans-30" x="63.623047"/>
      </g>
     </g>
    </g>
    <g id="ytick_5">
     <g id="line2d_25">
      <path d="M 51.05 76.264235 
L 450 76.264235 
" clip-path="url(#p4550b4f038)" style="fill: none; stroke: #b0b0b0; stroke-width: 0.8; stroke-linecap: square"/>
     </g>
     <g id="line2d_26">
      <g>
       <use xlink:href="#m4ad8f7e8a1" x="51.05" y="76.264235" style="stroke: #000000; stroke-width: 0.8"/>
      </g>
     </g>
     <g id="text_13">
      <!-- 80 -->
      <g transform="translate(31.325 80.063454) scale(0.1 -0.1)">
       <use xlink:href="#DejaVuSans-38"/>
       <use xlink:href="#DejaVuSans-30" x="63.623047"/>
      </g>
     </g>
    </g>
    <g id="ytick_6">
     <g id="line2d_27">
      <path d="M 51.05 25.44 
L 450 25.44 
" clip-path="url(#p4550b4f038)" style="fill: none; stroke: #b0b0b0; stroke-width: 0.8; stroke-linecap: square"/>
     </g>
     <g id="line2d_28">
      <g>
       <use xlink:href="#m4ad8f7e8a1" x="51.05" y="25.44" style="stroke: #000000; stroke-width: 0.8"/>
      </g>
     </g>
     <g id="text_14">
      <!-- 100 -->
      <g transform="translate(24.9625 29.239219) scale(0.1 -0.1)">
       <use xlink:href="#DejaVuSans-31"/>
       <use xlink:href="#DejaVuSans-30" x="63.623047"/>
       <use xlink:href="#DejaVuSans-30" x="127.246094"/>
      </g>
     </g>
    </g>
    <g id="text_15">
     <!-- Humidity [%RH] -->
     <g transform="translate(18.882812 192.647463) rotate(-90) scale(0.1 -0.1)">
      <defs>
       <path id="DejaVuSans-48" d="M 628 4666 
L 1259 4666 
L 1259 2753 
L 3553 2753 
L 3553 4666 
L 4184 4666 
L 4184 0 
L 3553 0 
L 3553 2222 
L 1259 2222 
L 1259 0 
L 628 0 
L 628 4666 
z
" transform="scale(0.015625)"/>
       <path id="DejaVuSans-75" d="M 544 1381 
L 544 3500 
L 1119 3500 
L 1119 1403 
Q 1119 906 1312 657 
Q 1506 409 1894 409 
Q 2359 409 2629 706 
Q 2900 1003 2900 1516 
L 2900 3500 
L 3475 3500 
L 3475 0 
L 2900 0 
L 2900 538 
Q 2691 219 2414 64 
Q 2138 -91 1772 -91 
Q 1169 -91 856 284 
Q 544 659 544 1381 
z
M 1991 3584 
L 1991 3584 
z
" transform="scale(0.015625)"/>
       <path id="DejaVuSans-6d" d="M 3328 2828 
Q 3544 3216 3844 3400 
Q 4144 3584 4550 3584 
Q 5097 3584 5394 3201 
Q 5691 2819 5691 2113 
L 5691 0 
L 5113 0 
L 5113 2094 
Q 5113 2597 4934 2840 
Q 4756 3084 4391 3084 
Q 3944 3084 3684 2787 
Q 3425 2491 3425 1978 
L 3425 0 
L 2847 0 
L 2847 2094 
Q 2847 2600 2669 2842 
Q 2491 3084 2119 3084 
Q 1678 3084 1418 2786 
Q 1159 2488 1159 1978 
L 1159 0 
L 581 0 
L 581 3500 
L 1159 3500 
L 1159 2956 
Q 1356 3278 1631 3431 
Q 1906 3584 2284 3584 
Q 2666 3584 2933 3390 
Q 3200 3197 3328 2828 
z
" transform="scale(0.015625)"/>
       <path id="DejaVuSans-69" d="M 603 3500 
L 1178 3500 
L 1178 0 
L 603 0 
L 603 3500 
z
M 603 4863 
L 1178 4863 
L 1178 4134 
L 603 4134 
L 603 4863 
z
" transform="scale(0.015625)"/>
       <path id="DejaVuSans-64" d="M 2906 2969 
L 2906 4863 
L 3481 4863 
L 3481 0 
L 2906 0 
L 2906 525 
Q 2725 213 2448 61 
Q 2172 -91 1784 -91 
Q 1150 -91 751 415 
Q 353 922 353 1747 
Q 353 2572 751 3078 
Q 1150 3584 1784 3584 
Q 2172 3584 2448 3432 
Q 2725 3281 2906 2969 
z
M 947 1747 
Q 947 1113 1208 752 
Q 1469 391 1925 391 
Q 2381 391 2643 752 
Q 2906 1113 2906 1747 
Q 2906 2381 2643 2742 
Q 2381 3103 1925 3103 
Q 1469 3103 1208 2742 
Q 947 2381 947 1747 
z
" transform="scale(0.015625)"/>
       <path id="DejaVuSans-74" d="M 1172 4494 
L 1172 3500 
L 2356 3500 
L 2356 3053 
L 1172 3053 
L 1172 1153 
Q 1172 725 1289 603 
Q 1406 481 1766 481 
L 2356 481 
L 2356 0 
L 1766 0 
Q 1100 0 847 248 
Q 594 497 594 1153 
L 594 3053 
L 172 3053 
L 172 3500 
L 594 3500 
L 594 4494 
L 1172 4494 
z
" transform="scale(0.015625)"/>
       <path id="DejaVuSans-79" d="M 2059 -325 
Q 1816 -950 1584 -1140 
Q 1353 -1331 966 -1331 
L 506 -1331 
L 506 -850 
L 844 -850 
Q 1081 -850 1212 -737 
Q 1344 -625 1503 -206 
L 1606 56 
L 191 3500 
L 800 3500 
L 1894 763 
L 2988 3500 
L 3597 3500 
L 2059 -325 
z
" transform="scale(0.015625)"/>
       <path id="DejaVuSans-20" transform="scale(0.015625)"/>
       <path id="DejaVuSans-5b" d="M 550 4863 
L 1875 4863 
L 1875 4416 
L 1125 4416 
L 1125 -397 
L 1875 -397 
L 1875 -844 
L 550 -844 
L 550 4863 
z
" transform="scale(0.015625)"/>
       <path id="DejaVuSans-25" d="M 4653 2053 
Q 4381 2053 4226 1822 
Q 4072 1591 4072 1178 
Q 4072 772 4226 539 
Q 4381 306 4653 306 
Q 4919 306 5073 539 
Q 5228 772 5228 1178 
Q 5228 1588 5073 1820 
Q 4919 2053 4653 2053 
z
M 4653 2450 
Q 5147 2450 5437 2106 
Q 5728 1763 5728 1178 
Q 5728 594 5436 251 
Q 5144 -91 4653 -91 
Q 4153 -91 3862 251 
Q 3572 594 3572 1178 
Q 3572 1766 3864 2108 
Q 4156 2450 4653 2450 
z
M 1428 4353 
Q 1159 4353 1004 4120 
Q 850 3888 850 3481 
Q 850 3069 1003 2837 
Q 1156 2606 1428 2606 
Q 1700 2606 1854 2837 
Q 2009 3069 2009 3481 
Q 2009 3884 1853 4118 
Q 1697 4353 1428 4353 
z
M 4250 4750 
L 4750 4750 
L 1831 -91 
L 1331 -91 
L 4250 4750 
z
M 1428 4750 
Q 1922 4750 2215 4408 
Q 2509 4066 2509 3481 
Q 2509 2891 2217 2550 
Q 1925 2209 1428 2209 
Q 931 2209 642 2551 
Q 353 2894 353 3481 
Q 353 4063 643 4406 
Q 934 4750 1428 4750 
z
" transform="scale(0.015625)"/>
       <path id="DejaVuSans-52" d="M 2841 2188 
Q 3044 2119 3236 1894 
Q 3428 1669 3622 1275 
L 4263 0 
L 3584 0 
L 2988 1197 
Q 2756 1666 2539 1819 
Q 2322 1972 1947 1972 
L 1259 1972 
L 1259 0 
L 628 0 
L 628 4666 
L 2053 4666 
Q 2853 4666 3247 4331 
Q 3641 3997 3641 3322 
Q 3641 2881 3436 2590 
Q 3231 2300 2841 2188 
z
M 1259 4147 
L 1259 2491 
L 2053 2491 
Q 2509 2491 2742 2702 
Q 2975 2913 2975 3322 
Q 2975 3731 2742 3939 
Q 2509 4147 2053 4147 
L 1259 4147 
z
" transform="scale(0.015625)"/>
       <path id="DejaVuSans-5d" d="M 1947 4863 
L 1947 -844 
L 622 -844 
L 622 -397 
L 1369 -397 
L 1369 4416 
L 622 4416 
L 622 4863 
L 1947 4863 
z
" transform="scale(0.015625)"/>
      </defs>
      <use xlink:href="#DejaVuSans-48"/>
      <use xlink:href="#DejaVuSans-75" x="75.195312"/>
      <use xlink:href="#DejaVuSans-6d" x="138.574219"/>
      <use xlink:href="#DejaVuSans-69" x="235.986328"/>
      <use xlink:href="#DejaVuSans-64" x="263.769531"/>
      <use xlink:href="#DejaVuSans-69" x="327.246094"/>
      <use xlink:href="#DejaVuSans-74" x="355.029297"/>
      <use xlink:href="#DejaVuSans-79" x="394.238281"/>
      <use xlink:href="#DejaVuSans-20" x="453.417969"/>
      <use xlink:href="#DejaVuSans-5b" x="485.205078"/>
      <use xlink:href="#DejaVuSans-25" x="524.21875"/>
      <use xlink:href="#DejaVuSans-52" x="619.238281"/>
      <use xlink:href="#DejaVuSans-48" x="688.720703"/>
      <use xlink:href="#DejaVuSans-5d" x="763.916016"/>
     </g>
    </g>
   </g>
   <g id="line2d_29">
    <path d="M 51.05 58.475753 
L 51.173205 58.475753 
L 51.321175 53.393329 
L 51.370499 53.393329 
L 51.493863 50.852118 
L 51.666436 50.852118 
L 51.789918 48.310906 
L 52.258312 48.310906 
L 52.357258 50.852118 
L 52.480343 50.852118 
L 52.603577 53.393329 
L 52.727019 53.393329 
L 52.850484 55.934541 
L 53.31875 55.934541 
L 53.442068 58.475753 
L 53.688683 58.475753 
L 53.787331 61.016965 
L 53.910777 58.475753 
L 54.72447 58.475753 
L 54.847916 61.016965 
L 54.995919 55.934541 
L 55.045195 55.934541 
L 55.168672 53.393329 
L 55.242495 53.393329 
L 55.365671 55.934541 
L 55.883695 55.934541 
L 56.006872 58.475753 
L 56.056198 58.475753 
L 56.204164 61.016965 
L 56.376974 61.016965 
L 56.500107 63.558176 
L 56.697398 63.558176 
L 56.820841 61.016965 
L 56.944015 63.558176 
L 57.486873 63.558176 
L 57.659342 55.934541 
L 57.905969 55.934541 
L 58.02912 58.475753 
L 58.152569 58.475753 
L 58.275737 61.016965 
L 58.325061 61.016965 
L 58.448419 63.558176 
L 58.473029 63.558176 
L 58.596457 66.099388 
L 58.892282 66.099388 
L 59.040401 61.016965 
L 59.089697 61.016965 
L 59.212877 63.558176 
L 59.582934 63.558176 
L 59.706108 61.016965 
L 60.051368 61.016965 
L 60.174827 58.475753 
L 60.44595 58.475753 
L 60.618715 66.099388 
L 60.668037 66.099388 
L 60.815969 71.181812 
L 60.84054 71.181812 
L 60.96398 73.723023 
L 61.037832 73.723023 
L 61.136477 76.264235 
L 61.284445 73.723023 
L 61.383093 76.264235 
L 61.531064 71.181812 
L 61.851802 71.181812 
L 61.974971 73.723023 
L 62.345049 73.723023 
L 62.4682 76.264235 
L 63.010756 76.264235 
L 63.208048 71.181812 
L 63.232829 71.181812 
L 63.356018 68.6406 
L 63.454664 68.6406 
L 63.651956 63.558176 
L 63.701278 63.558176 
L 63.824728 61.016965 
L 64.021948 61.016965 
L 64.145189 58.475753 
L 64.638419 58.475753 
L 64.76188 61.016965 
L 64.885345 63.558176 
L 65.230299 63.558176 
L 65.328943 66.099388 
L 65.402972 66.099388 
L 65.551051 71.181812 
L 65.60038 71.181812 
L 65.748381 76.264235 
L 65.846835 76.264235 
L 65.994965 86.429082 
L 66.019469 83.88787 
L 66.192251 76.264235 
L 66.611349 76.264235 
L 66.709993 86.429082 
L 66.882785 114.382411 
L 66.907289 114.382411 
L 67.129395 127.08847 
L 67.153897 127.08847 
L 67.301868 122.006047 
L 67.425338 122.006047 
L 67.523985 124.547258 
L 67.54848 122.006047 
L 67.597803 124.547258 
L 67.844419 139.794529 
L 67.89374 139.794529 
L 67.943063 142.335741 
L 67.967827 139.794529 
L 68.066536 134.712105 
L 68.091032 137.253317 
L 68.263777 144.876952 
L 68.288322 142.335741 
L 68.31312 142.335741 
L 68.41181 139.794529 
L 68.55977 147.418164 
L 68.682908 144.876952 
L 68.70774 144.876952 
L 68.781553 147.418164 
L 68.806279 144.876952 
L 68.85558 144.876952 
L 69.126809 127.08847 
L 69.176134 127.08847 
L 69.324101 122.006047 
L 69.373423 122.006047 
L 69.521699 127.08847 
L 70.162588 127.08847 
L 70.310555 122.006047 
L 70.359876 122.006047 
L 70.483205 124.547258 
L 70.53259 124.547258 
L 70.655818 127.08847 
L 70.803785 127.08847 
L 70.9026 129.629682 
L 71.099719 124.547258 
L 71.149042 124.547258 
L 71.272511 122.006047 
L 71.395649 122.006047 
L 71.519096 124.547258 
L 71.592947 124.547258 
L 71.740913 119.464835 
L 71.76573 119.464835 
L 71.790238 122.006047 
L 71.864229 119.464835 
L 72.110972 119.464835 
L 72.258928 124.547258 
L 72.480754 124.547258 
L 72.604263 122.006047 
L 72.678049 127.08847 
L 72.72737 124.547258 
L 72.776929 124.547258 
L 72.900154 127.08847 
L 73.023308 127.08847 
L 73.146735 144.876952 
L 73.196129 139.794529 
L 73.220889 139.794529 
L 73.294684 132.170894 
L 73.344108 137.253317 
L 73.368567 137.253317 
L 73.393431 139.794529 
L 73.467212 137.253317 
L 73.565854 137.253317 
L 73.787937 124.547258 
L 73.812469 124.547258 
L 73.837297 127.08847 
L 73.911112 124.547258 
L 74.034594 124.547258 
L 74.157973 122.006047 
L 74.207055 122.006047 
L 74.231845 119.464835 
L 74.305699 122.006047 
L 74.330533 122.006047 
L 74.453664 124.547258 
L 74.502988 124.547258 
L 74.601883 122.006047 
L 74.848247 122.006047 
L 74.873 119.464835 
L 74.946891 122.006047 
L 75.021071 122.006047 
L 75.144182 124.547258 
L 75.242828 124.547258 
L 75.366271 122.006047 
L 75.390795 122.006047 
L 75.489441 124.547258 
L 75.637411 124.547258 
L 75.760867 122.006047 
L 76.081317 122.006047 
L 76.303433 134.712105 
L 76.377256 134.712105 
L 76.476128 129.629682 
L 76.500597 132.170894 
L 76.599378 132.170894 
L 76.747244 127.08847 
L 76.895347 127.08847 
L 77.018446 124.547258 
L 77.265062 124.547258 
L 77.364 122.006047 
L 77.437758 122.006047 
L 77.487188 124.547258 
L 77.536508 122.006047 
L 78.276345 122.006047 
L 78.42429 116.923623 
L 78.44881 116.923623 
L 78.596778 111.8412 
L 78.744746 111.8412 
L 79.040684 101.676353 
L 79.385944 101.676353 
L 79.50943 99.135141 
L 79.608074 99.135141 
L 79.731206 96.593929 
L 79.780529 96.593929 
L 79.879174 94.052717 
L 80.002654 96.593929 
L 80.12579 96.593929 
L 80.273759 94.052717 
L 80.569694 94.052717 
L 80.693104 76.264235 
L 80.81631 73.723023 
L 80.890472 73.723023 
L 81.038469 68.6406 
L 81.210896 68.6406 
L 81.334276 66.099388 
L 81.852098 66.099388 
L 81.97563 63.558176 
L 82.074133 63.558176 
L 82.197361 61.016965 
L 82.443978 61.016965 
L 82.641269 55.934541 
L 82.690594 55.934541 
L 82.814055 53.393329 
L 83.03585 53.393329 
L 83.159348 55.934541 
L 84.170281 55.934541 
L 84.293793 53.393329 
L 84.589738 53.393329 
L 84.712831 50.852118 
L 85.304704 50.852118 
L 85.428231 48.310906 
L 86.365319 48.310906 
L 86.488454 45.769694 
L 86.636662 45.769694 
L 86.784393 43.228482 
L 87.031005 43.228482 
L 87.154362 40.687271 
L 87.401122 40.687271 
L 87.524234 38.146059 
L 88.658661 38.146059 
L 88.782165 35.604847 
L 89.472541 35.604847 
L 89.595796 33.063635 
L 90.607071 33.063635 
L 90.73022 30.522424 
L 91.815322 30.522424 
L 91.93882 27.981212 
L 125.527727 27.981212 
L 125.700212 35.604847 
L 125.77437 35.604847 
L 125.8975 38.146059 
L 125.92234 38.146059 
L 126.07019 43.228482 
L 126.514055 43.228482 
L 126.637351 45.769694 
L 126.834642 45.769694 
L 126.93359 48.310906 
L 127.500646 48.310906 
L 127.623813 45.769694 
L 128.043163 45.769694 
L 128.166367 43.228482 
L 128.758248 43.228482 
L 128.906213 40.687271 
L 130.385909 40.687271 
L 130.509333 43.228482 
L 130.829819 43.228482 
L 130.95331 40.687271 
L 132.260188 40.687271 
L 132.383686 38.146059 
L 132.802741 38.146059 
L 132.926252 35.604847 
L 133.246656 35.604847 
L 133.370148 33.063635 
L 133.66603 33.063635 
L 133.789207 30.522424 
L 134.529049 30.522424 
L 134.652533 27.981212 
L 135.540283 27.981212 
L 135.663479 30.522424 
L 135.860769 30.522424 
L 136.008741 33.063635 
L 136.058063 33.063635 
L 136.181525 35.604847 
L 136.280087 35.604847 
L 136.403324 38.146059 
L 136.52684 38.146059 
L 136.64994 40.687271 
L 136.822772 40.687271 
L 136.945878 43.228482 
L 137.439107 43.228482 
L 137.562613 45.769694 
L 138.104974 45.769694 
L 138.228277 43.228482 
L 138.351699 43.228482 
L 138.474892 40.687271 
L 138.647702 40.687271 
L 138.770829 38.146059 
L 139.017703 38.146059 
L 139.140924 35.604847 
L 139.387565 35.604847 
L 139.510673 38.146059 
L 139.535433 38.146059 
L 139.683457 43.228482 
L 139.757289 43.228482 
L 139.88077 45.769694 
L 140.201199 45.769694 
L 140.32472 43.228482 
L 140.497137 43.228482 
L 140.620636 40.687271 
L 140.842716 40.687271 
L 140.990366 38.146059 
L 141.335911 38.146059 
L 141.459126 35.604847 
L 141.903031 35.604847 
L 142.026151 33.063635 
L 142.790778 33.063635 
L 142.913967 30.522424 
L 143.33337 30.522424 
L 143.45652 33.063635 
L 143.555166 33.063635 
L 143.678508 35.604847 
L 143.80178 35.604847 
L 143.900426 38.146059 
L 144.097971 38.146059 
L 144.221141 40.687271 
L 145.72538 40.687271 
L 145.848868 38.146059 
L 146.243456 38.146059 
L 146.366579 35.604847 
L 146.588676 35.604847 
L 146.71184 38.146059 
L 147.007778 38.146059 
L 147.131276 40.687271 
L 147.599655 40.687271 
L 147.723146 43.228482 
L 148.660265 43.228482 
L 148.783413 40.687271 
L 149.621902 40.687271 
L 149.819191 45.769694 
L 149.84407 45.769694 
L 149.991919 50.852118 
L 150.164454 50.852118 
L 150.287892 48.310906 
L 150.485269 48.310906 
L 150.608695 45.769694 
L 150.75633 45.769694 
L 150.879824 48.310906 
L 151.052581 48.310906 
L 151.175785 45.769694 
L 151.86629 45.769694 
L 151.989628 43.228482 
L 152.975867 43.228482 
L 153.099344 40.687271 
L 153.345988 40.687271 
L 153.469097 43.228482 
L 154.30781 43.228482 
L 154.431034 45.769694 
L 154.480365 45.769694 
L 154.603529 43.228482 
L 154.94879 43.228482 
L 155.072273 45.769694 
L 155.121545 45.769694 
L 155.195405 48.310906 
L 155.318849 45.769694 
L 155.392699 48.310906 
L 155.417584 45.769694 
L 155.7627 45.769694 
L 155.885928 43.228482 
L 156.231189 43.228482 
L 156.354643 40.687271 
L 156.626073 40.687271 
L 156.749279 43.228482 
L 157.069914 43.228482 
L 157.217652 45.769694 
L 157.365619 45.769694 
L 157.489124 48.310906 
L 157.809527 48.310906 
L 157.933053 45.769694 
L 159.437199 45.769694 
L 159.56067 48.310906 
L 161.878888 48.310906 
L 162.001997 50.852118 
L 162.149964 50.852118 
L 162.297932 48.310906 
L 162.64345 48.310906 
L 162.791164 50.852118 
L 162.815995 50.852118 
L 162.939133 48.310906 
L 163.087105 48.310906 
L 163.284394 53.393329 
L 163.45719 53.393329 
L 163.580627 50.852118 
L 163.777624 50.852118 
L 163.925593 55.934541 
L 163.974918 55.934541 
L 164.122886 61.016965 
L 164.221531 61.016965 
L 164.344988 63.558176 
L 164.468146 63.558176 
L 164.591584 66.099388 
L 164.616115 63.558176 
L 164.690241 66.099388 
L 164.813407 66.099388 
L 164.936903 68.6406 
L 165.158667 68.6406 
L 165.282186 66.099388 
L 165.35596 66.099388 
L 165.503929 71.181812 
L 165.528735 71.181812 
L 165.651895 68.6406 
L 165.947837 68.6406 
L 166.095807 63.558176 
L 166.145128 63.558176 
L 166.268649 61.016965 
L 166.490391 61.016965 
L 166.613814 58.475753 
L 167.328883 58.475753 
L 167.45237 55.934541 
L 167.723469 55.934541 
L 167.871435 58.475753 
L 167.92076 58.475753 
L 168.044239 61.016965 
L 168.241365 61.016965 
L 168.290798 58.475753 
L 168.340189 61.016965 
L 168.512637 61.016965 
L 168.636142 63.558176 
L 168.784095 63.558176 
L 168.90722 61.016965 
L 169.15414 61.016965 
L 169.301805 55.934541 
L 169.499098 55.934541 
L 169.598079 53.393329 
L 169.745714 53.393329 
L 169.869224 50.852118 
L 170.337587 50.852118 
L 170.461114 48.310906 
L 170.707665 48.310906 
L 170.880142 55.934541 
L 170.97904 55.934541 
L 171.126755 58.475753 
L 171.151558 58.475753 
L 171.274727 55.934541 
L 171.32405 55.934541 
L 171.422698 53.393329 
L 171.767958 53.393329 
L 171.866605 50.852118 
L 172.039381 58.475753 
L 172.138086 58.475753 
L 172.310511 66.099388 
L 172.483303 66.099388 
L 172.606451 68.6406 
L 172.803741 68.6406 
L 172.877734 71.181812 
L 172.902389 68.6406 
L 173.519116 68.6406 
L 173.642238 66.099388 
L 173.667093 66.099388 
L 173.790504 63.558176 
L 173.963017 63.558176 
L 173.987502 61.016965 
L 174.06167 63.558176 
L 174.308177 63.558176 
L 174.431408 61.016965 
L 174.530054 61.016965 
L 174.653457 63.558176 
L 175.023289 63.558176 
L 175.146693 66.099388 
L 175.689212 66.099388 
L 175.812458 63.558176 
L 176.009752 63.558176 
L 176.133075 61.016965 
L 176.207044 61.016965 
L 176.379783 68.6406 
L 176.502985 68.6406 
L 176.626372 71.181812 
L 176.774381 71.181812 
L 176.897568 68.6406 
L 177.04577 68.6406 
L 177.168969 71.181812 
L 177.242833 71.181812 
L 177.366275 73.723023 
L 177.41557 73.723023 
L 177.538774 76.264235 
L 177.612907 76.264235 
L 177.686743 78.805447 
L 177.711542 76.264235 
L 178.081331 76.264235 
L 178.179978 73.723023 
L 178.303371 76.264235 
L 178.352696 76.264235 
L 178.500671 71.181812 
L 178.969151 71.181812 
L 179.092568 68.6406 
L 179.413056 68.6406 
L 179.511701 66.099388 
L 179.635141 68.6406 
L 179.955614 68.6406 
L 180.079067 71.181812 
L 180.448846 71.181812 
L 180.596818 76.264235 
L 180.621532 76.264235 
L 180.745116 73.723023 
L 180.818877 73.723023 
L 180.966877 78.805447 
L 181.016238 78.805447 
L 181.164189 83.88787 
L 181.188875 83.88787 
L 181.336667 86.429082 
L 181.361511 86.429082 
L 181.484634 83.88787 
L 181.533958 83.88787 
L 181.632606 81.346659 
L 181.829898 86.429082 
L 181.95341 86.429082 
L 182.076512 88.970294 
L 182.101384 88.970294 
L 182.126046 91.511506 
L 182.1999 88.970294 
L 182.224485 88.970294 
L 182.347988 86.429082 
L 182.421778 86.429082 
L 182.619295 76.264235 
L 183.06322 76.264235 
L 183.210952 73.723023 
L 183.3096 73.723023 
L 183.433077 71.181812 
L 183.901477 71.181812 
L 184.000393 73.723023 
L 184.098771 73.723023 
L 184.222279 76.264235 
L 184.271586 76.264235 
L 184.493357 88.970294 
L 184.616852 88.970294 
L 184.739976 91.511506 
L 184.887944 91.511506 
L 185.035913 88.970294 
L 185.085236 88.970294 
L 185.208761 91.511506 
L 185.3074 91.511506 
L 185.479827 83.88787 
L 185.529148 83.88787 
L 185.67712 78.805447 
L 185.751319 78.805447 
L 185.874675 76.264235 
L 185.899109 76.264235 
L 186.096578 86.429082 
L 186.145813 86.429082 
L 186.268999 88.970294 
L 186.416972 88.970294 
L 186.540384 91.511506 
L 186.614265 91.511506 
L 186.737711 94.052717 
L 186.885705 94.052717 
L 187.008854 91.511506 
L 187.156823 96.593929 
L 187.452765 96.593929 
L 187.576224 99.135141 
L 187.748704 99.135141 
L 187.773424 101.676353 
L 187.84735 99.135141 
L 187.945998 99.135141 
L 188.069461 101.676353 
L 188.143291 101.676353 
L 188.291259 106.758776 
L 188.340586 106.758776 
L 188.488558 111.8412 
L 188.685849 111.8412 
L 188.907938 99.135141 
L 189.080432 99.135141 
L 189.228406 101.676353 
L 189.376377 101.676353 
L 189.524342 96.593929 
L 189.647753 96.593929 
L 189.77096 94.052717 
L 189.918932 94.052717 
L 190.017578 91.511506 
L 190.28903 91.511506 
L 190.437017 96.593929 
L 190.634333 96.593929 
L 190.757429 94.052717 
L 190.93026 94.052717 
L 191.05337 96.593929 
L 191.152017 94.052717 
L 191.299988 99.135141 
L 191.448132 99.135141 
L 191.571447 101.676353 
L 191.89212 101.676353 
L 192.187807 111.8412 
L 192.311261 109.299988 
L 192.335777 109.299988 
L 192.53307 99.135141 
L 192.582395 99.135141 
L 192.681043 96.593929 
L 192.804486 99.135141 
L 192.829182 99.135141 
L 192.952511 101.676353 
L 192.976978 101.676353 
L 193.14976 109.299988 
L 193.273178 109.299988 
L 193.42089 111.8412 
L 193.519538 111.8412 
L 193.593703 114.382411 
L 193.618188 111.8412 
L 193.66751 111.8412 
L 193.790828 109.299988 
L 193.864801 109.299988 
L 193.889661 106.758776 
L 193.963447 109.299988 
L 194.012771 109.299988 
L 194.160743 114.382411 
L 194.506006 114.382411 
L 194.629457 116.923623 
L 194.653978 116.923623 
L 194.900593 109.299988 
L 195.024125 111.8412 
L 195.048561 111.8412 
L 195.14751 114.382411 
L 195.295179 111.8412 
L 195.320052 111.8412 
L 195.443149 109.299988 
L 195.689767 109.299988 
L 195.788415 111.8412 
L 195.961241 104.217564 
L 196.133681 104.217564 
L 196.257172 101.676353 
L 196.306478 101.676353 
L 196.429619 99.135141 
L 196.602307 99.135141 
L 196.65174 101.676353 
L 196.701074 99.135141 
L 196.799721 99.135141 
L 196.972176 91.511506 
L 197.07082 88.970294 
L 197.194264 91.511506 
L 197.218793 91.511506 
L 197.342286 94.052717 
L 197.440928 94.052717 
L 197.564059 96.593929 
L 197.588898 96.593929 
L 197.712025 99.135141 
L 197.835519 99.135141 
L 197.958943 101.676353 
L 198.945114 101.676353 
L 199.068606 99.135141 
L 199.142407 99.135141 
L 199.265901 96.593929 
L 199.389024 96.593929 
L 199.512432 94.052717 
L 199.586318 94.052717 
L 199.88226 114.382411 
L 199.90708 114.382411 
L 200.301658 144.876952 
L 200.326167 144.876952 
L 200.44965 147.418164 
L 200.59761 147.418164 
L 200.720749 144.876952 
L 200.794917 144.876952 
L 200.819393 142.335741 
L 200.893552 144.876952 
L 200.942891 144.876952 
L 201.066009 147.418164 
L 201.213982 147.418164 
L 201.337443 152.500588 
L 201.361947 149.959376 
L 201.436085 152.500588 
L 201.460595 152.500588 
L 201.534759 157.583011 
L 201.559531 155.041799 
L 201.682714 152.500588 
L 201.707212 152.500588 
L 201.855181 147.418164 
L 201.904503 147.418164 
L 202.274599 175.371493 
L 202.299086 175.371493 
L 202.496696 185.53634 
L 202.521054 185.53634 
L 202.693668 177.912705 
L 202.74299 177.912705 
L 202.890958 185.53634 
L 203.063771 177.912705 
L 203.310364 177.912705 
L 203.433494 175.371493 
L 203.458211 175.371493 
L 203.482831 177.912705 
L 203.557019 175.371493 
L 203.606336 175.371493 
L 203.655652 172.830282 
L 203.704955 175.371493 
L 203.778767 175.371493 
L 203.828089 172.830282 
L 203.877611 175.371493 
L 203.976061 175.371493 
L 204.099426 177.912705 
L 204.148876 177.912705 
L 204.321604 170.28907 
L 204.567931 162.665435 
L 204.691382 162.665435 
L 204.81468 165.206646 
L 204.839234 165.206646 
L 204.938028 167.747858 
L 205.06116 165.206646 
L 205.233974 165.206646 
L 205.406421 157.583011 
L 205.505068 157.583011 
L 205.677925 167.747858 
L 205.899648 155.041799 
L 205.924488 157.583011 
L 206.047874 147.418164 
L 206.121706 147.418164 
L 206.294233 139.794529 
L 206.540848 139.794529 
L 206.639788 142.335741 
L 206.861652 134.712105 
L 206.984757 137.253317 
L 207.132986 132.170894 
L 207.305556 132.170894 
L 207.330014 129.629682 
L 207.404175 132.170894 
L 207.7246 132.170894 
L 207.872569 127.08847 
L 207.897415 127.08847 
L 208.119183 142.335741 
L 208.267153 137.253317 
L 208.29196 137.253317 
L 208.439962 142.335741 
L 208.514012 142.335741 
L 208.587876 147.418164 
L 208.612414 144.876952 
L 208.933157 144.876952 
L 209.105644 137.253317 
L 209.204289 137.253317 
L 209.352258 132.170894 
L 209.377094 132.170894 
L 209.525036 137.253317 
L 209.623742 137.253317 
L 209.746837 144.876952 
L 209.771712 142.335741 
L 209.796164 142.335741 
L 209.919469 137.253317 
L 210.042779 149.959376 
L 210.067653 149.959376 
L 210.092101 147.418164 
L 210.166293 149.959376 
L 210.289392 152.500588 
L 210.536007 152.500588 
L 210.832206 132.170894 
L 210.955435 132.170894 
L 211.029236 129.629682 
L 211.05408 132.170894 
L 211.152675 132.170894 
L 211.276126 127.08847 
L 211.54732 127.08847 
L 211.670436 129.629682 
L 211.769069 129.629682 
L 211.892599 127.08847 
L 211.917048 127.08847 
L 212.040544 129.629682 
L 212.114342 129.629682 
L 212.237648 127.08847 
L 212.459604 127.08847 
L 212.583123 124.547258 
L 212.657217 124.547258 
L 212.804863 127.08847 
L 212.928372 127.08847 
L 213.051478 124.547258 
L 213.273638 124.547258 
L 213.372257 122.006047 
L 213.495384 124.547258 
L 213.643355 119.464835 
L 213.692679 119.464835 
L 213.865475 111.8412 
L 214.161396 111.8412 
L 214.260061 114.382411 
L 214.407961 109.299988 
L 214.531475 109.299988 
L 214.654661 111.8412 
L 214.679139 109.299988 
L 214.753258 111.8412 
L 214.901244 111.8412 
L 215.049124 106.758776 
L 215.345061 106.758776 
L 215.492989 101.676353 
L 215.616279 101.676353 
L 215.739804 99.135141 
L 215.764247 99.135141 
L 215.789081 101.676353 
L 215.862891 99.135141 
L 215.912507 99.135141 
L 216.085014 94.052717 
L 216.208156 96.593929 
L 216.257478 96.593929 
L 216.356126 99.135141 
L 216.430149 99.135141 
L 216.553418 96.593929 
L 216.60274 96.593929 
L 216.726213 99.135141 
L 216.849602 99.135141 
L 216.997325 94.052717 
L 217.022091 94.052717 
L 217.170124 88.970294 
L 217.24394 88.970294 
L 217.39191 83.88787 
L 217.490557 83.88787 
L 217.614054 81.346659 
L 217.638529 81.346659 
L 217.737174 78.805447 
L 217.885141 78.805447 
L 218.008602 76.264235 
L 218.748331 76.264235 
L 218.871605 73.723023 
L 218.920929 73.723023 
L 219.044423 71.181812 
L 219.266188 71.181812 
L 219.389687 68.6406 
L 220.277514 68.6406 
L 220.400625 66.099388 
L 220.597918 66.099388 
L 220.72141 63.558176 
L 220.770749 63.558176 
L 220.893859 61.016965 
L 221.140473 61.016965 
L 221.263988 58.475753 
L 221.633703 58.475753 
L 221.781676 55.934541 
L 222.521523 55.934541 
L 222.645002 53.393329 
L 222.768138 53.393329 
L 222.867081 55.934541 
L 223.039596 55.934541 
L 223.162723 53.393329 
L 223.853249 53.393329 
L 223.976766 55.934541 
L 224.247837 55.934541 
L 224.395803 58.475753 
L 224.445127 58.475753 
L 224.568582 55.934541 
L 226.220768 55.934541 
L 226.344163 53.393329 
L 226.886792 53.393329 
L 227.00994 50.852118 
L 228.810433 50.852118 
L 228.93383 48.310906 
L 231.202422 48.310906 
L 231.301069 45.769694 
L 231.424581 48.310906 
L 231.473894 48.310906 
L 231.59701 45.769694 
L 232.756267 45.769694 
L 232.879414 48.310906 
L 233.471293 48.310906 
L 233.570135 45.769694 
L 234.901673 45.769694 
L 235.025035 48.310906 
L 235.888454 48.310906 
L 236.036106 45.769694 
L 242.201522 45.769694 
L 242.325029 43.228482 
L 245.308883 43.228482 
L 245.432417 45.769694 
L 245.654147 45.769694 
L 245.802117 48.310906 
L 246.862771 48.310906 
L 246.985874 50.852118 
L 247.281811 50.852118 
L 247.405296 53.393329 
L 247.429784 53.393329 
L 247.528688 55.934541 
L 247.676399 55.934541 
L 247.701146 53.393329 
L 247.775046 55.934541 
L 248.16963 55.934541 
L 248.293121 58.475753 
L 248.317597 58.475753 
L 248.441091 61.016965 
L 248.53965 61.016965 
L 248.662857 63.558176 
L 248.737006 63.558176 
L 248.884954 68.6406 
L 249.106767 68.6406 
L 249.230259 71.181812 
L 249.526179 71.181812 
L 249.649321 68.6406 
L 249.747966 68.6406 
L 249.77285 71.181812 
L 249.846871 68.6406 
L 249.994581 68.6406 
L 250.142548 91.511506 
L 250.167429 91.511506 
L 250.290518 96.593929 
L 250.340127 96.593929 
L 250.561983 109.299988 
L 250.635779 109.299988 
L 250.734423 104.217564 
L 250.759286 106.758776 
L 250.784075 106.758776 
L 250.833068 109.299988 
L 250.882393 106.758776 
L 250.907234 106.758776 
L 250.981037 101.676353 
L 251.03036 104.217564 
L 251.2032 111.8412 
L 251.227652 111.8412 
L 251.548401 124.547258 
L 251.647054 122.006047 
L 251.819523 129.629682 
L 251.918426 129.629682 
L 252.312753 91.511506 
L 252.337609 101.676353 
L 252.436255 99.135141 
L 252.559366 101.676353 
L 252.781533 101.676353 
L 252.95395 109.299988 
L 252.978844 109.299988 
L 253.151239 101.676353 
L 253.176 101.676353 
L 253.471994 124.547258 
L 253.521386 122.006047 
L 253.545821 124.547258 
L 253.669295 124.547258 
L 253.817264 119.464835 
L 253.866606 119.464835 
L 254.039356 111.8412 
L 254.113158 111.8412 
L 254.137694 109.299988 
L 254.162505 114.382411 
L 254.18702 114.382411 
L 254.236344 114.382411 
L 254.359786 106.758776 
L 254.38431 109.299988 
L 254.483225 109.299988 
L 254.680246 104.217564 
L 254.705078 104.217564 
L 254.754419 106.758776 
L 254.778893 104.217564 
L 254.926863 99.135141 
L 255.24763 99.135141 
L 255.518736 81.346659 
L 255.568061 81.346659 
L 255.716028 76.264235 
L 255.839483 94.052717 
L 255.913321 91.511506 
L 255.938049 94.052717 
L 256.11061 94.052717 
L 256.234122 76.264235 
L 256.801422 76.264235 
L 256.949102 73.723023 
L 257.343687 73.723023 
L 257.467138 71.181812 
L 257.540978 71.181812 
L 257.664419 68.6406 
L 257.911066 68.6406 
L 258.034208 66.099388 
L 258.502977 66.099388 
L 258.626084 63.558176 
L 258.946861 63.558176 
L 259.069993 61.016965 
L 259.292117 61.016965 
L 259.415252 58.475753 
L 259.513899 58.475753 
L 259.612541 55.934541 
L 259.735988 58.475753 
L 260.130552 58.475753 
L 260.253743 61.016965 
L 260.377271 61.016965 
L 260.500673 58.475753 
L 260.944262 58.475753 
L 261.092236 61.016965 
L 261.610321 61.016965 
L 261.733437 58.475753 
L 261.782757 58.475753 
L 261.856921 55.934541 
L 261.881402 58.475753 
L 262.029373 58.475753 
L 262.152856 61.016965 
L 262.275986 61.016965 
L 262.399303 63.558176 
L 263.065155 63.558176 
L 263.18862 61.016965 
L 263.805003 61.016965 
L 263.928505 63.558176 
L 265.309543 63.558176 
L 265.432664 61.016965 
L 265.531312 61.016965 
L 265.580634 58.475753 
L 265.63025 61.016965 
L 265.876573 61.016965 
L 266.000065 63.558176 
L 266.221829 63.558176 
L 266.320476 61.016965 
L 266.443941 63.558176 
L 266.468446 63.558176 
L 266.591802 61.016965 
L 266.81371 61.016965 
L 266.937179 58.475753 
L 266.96168 58.475753 
L 267.109648 55.934541 
L 267.356267 55.934541 
L 267.45516 53.393329 
L 267.60288 53.393329 
L 267.701523 50.852118 
L 268.071613 50.852118 
L 268.194756 48.310906 
L 268.687986 48.310906 
L 268.811472 45.769694 
L 268.983925 45.769694 
L 269.082571 48.310906 
L 269.353847 48.310906 
L 269.477156 50.852118 
L 269.67445 50.852118 
L 269.822417 55.934541 
L 270.019711 55.934541 
L 270.143162 58.475753 
L 270.340436 58.475753 
L 270.463618 55.934541 
L 270.956851 55.934541 
L 271.080324 58.475753 
L 271.351433 58.475753 
L 271.474862 61.016965 
L 271.746017 61.016965 
L 271.869485 63.558176 
L 272.09128 63.558176 
L 272.239249 66.099388 
L 272.485863 66.099388 
L 272.609186 68.6406 
L 273.472327 68.6406 
L 273.620298 71.181812 
L 273.842439 71.181812 
L 273.965793 73.723023 
L 274.237011 73.723023 
L 274.360144 71.181812 
L 275.24796 71.181812 
L 275.297283 73.723023 
L 275.346896 71.181812 
L 275.568722 71.181812 
L 275.691867 68.6406 
L 275.98781 68.6406 
L 276.111249 71.181812 
L 276.407145 71.181812 
L 276.530364 73.723023 
L 276.579685 73.723023 
L 276.703165 76.264235 
L 277.048451 76.264235 
L 277.171563 78.805447 
L 277.368854 78.805447 
L 277.54162 86.429082 
L 277.763443 86.429082 
L 277.862085 88.970294 
L 277.985577 86.429082 
L 278.108705 86.429082 
L 278.256674 83.88787 
L 278.330842 83.88787 
L 278.453965 86.429082 
L 278.50329 86.429082 
L 278.700581 76.264235 
L 278.848551 76.264235 
L 278.971993 73.723023 
L 279.267953 73.723023 
L 279.391107 76.264235 
L 279.687048 76.264235 
L 279.810524 73.723023 
L 279.95851 73.723023 
L 280.081631 76.264235 
L 280.155727 76.264235 
L 280.278924 78.805447 
L 280.353078 78.805447 
L 280.525541 86.429082 
L 280.673508 86.429082 
L 280.79704 83.88787 
L 280.969446 83.88787 
L 281.092863 81.346659 
L 281.290251 81.346659 
L 281.438049 76.264235 
L 281.659975 76.264235 
L 281.68483 73.723023 
L 281.758619 76.264235 
L 281.906589 76.264235 
L 281.955913 73.723023 
L 282.005236 76.264235 
L 282.94238 76.264235 
L 283.065866 73.723023 
L 283.460429 73.723023 
L 283.58358 71.181812 
L 283.608445 71.181812 
L 283.75623 76.264235 
L 284.076813 76.264235 
L 284.224784 81.346659 
L 284.323426 81.346659 
L 284.471399 86.429082 
L 284.52072 86.429082 
L 284.619367 88.970294 
L 284.816662 88.970294 
L 284.940133 86.429082 
L 285.088106 86.429082 
L 285.260568 78.805447 
L 285.309891 78.805447 
L 285.433393 76.264235 
L 285.729305 76.264235 
L 285.753807 78.805447 
L 285.827979 76.264235 
L 286.271864 76.264235 
L 286.395005 73.723023 
L 286.419775 73.723023 
L 286.542973 71.181812 
L 287.134855 71.181812 
L 287.159701 73.723023 
L 287.2335 71.181812 
L 287.30767 71.181812 
L 287.43107 73.723023 
L 287.578765 76.264235 
L 287.677413 76.264235 
L 287.874707 86.429082 
L 287.998163 86.429082 
L 288.146108 91.511506 
L 288.219965 91.511506 
L 288.343426 88.970294 
L 288.368268 88.970294 
L 288.63938 106.758776 
L 288.713198 106.758776 
L 288.738044 104.217564 
L 288.787358 106.758776 
L 289.058459 124.547258 
L 289.231239 124.547258 
L 289.354397 127.08847 
L 289.379188 127.08847 
L 289.502363 129.629682 
L 289.527084 127.08847 
L 289.650333 147.418164 
L 289.675166 149.959376 
L 289.798301 137.253317 
L 289.897201 137.253317 
L 289.921778 134.712105 
L 289.995594 147.418164 
L 290.044916 142.335741 
L 290.119047 142.335741 
L 290.242199 139.794529 
L 290.266915 139.794529 
L 290.488823 152.500588 
L 290.636791 152.500588 
L 290.710779 160.124223 
L 290.834082 157.583011 
L 291.006885 152.500588 
L 291.031371 152.500588 
L 291.179344 157.583011 
L 291.277986 157.583011 
L 291.35212 152.500588 
L 291.401366 155.041799 
L 291.425956 155.041799 
L 291.450826 152.500588 
L 291.500064 157.583011 
L 291.524602 157.583011 
L 291.549455 155.041799 
L 291.623519 157.583011 
L 291.697374 157.583011 
L 291.746716 152.500588 
L 291.796068 157.583011 
L 291.820536 157.583011 
L 291.993347 149.959376 
L 292.091804 149.959376 
L 292.21512 152.500588 
L 292.239948 152.500588 
L 292.462028 167.747858 
L 292.609698 160.124223 
L 292.708344 165.206646 
L 292.7332 162.665435 
L 292.806991 162.665435 
L 292.831885 165.206646 
L 292.881165 162.665435 
L 293.004547 157.583011 
L 293.177053 165.206646 
L 293.201576 162.665435 
L 293.275648 165.206646 
L 293.423666 165.206646 
L 293.645481 157.583011 
L 293.76002 157.583011 
L 293.793445 160.124223 
L 293.843029 157.583011 
L 294.040062 152.500588 
L 294.286671 152.500588 
L 294.385317 149.959376 
L 295.075838 137.253317 
L 295.174483 139.794529 
L 295.199343 137.253317 
L 295.224116 139.794529 
L 295.371778 142.335741 
L 295.4211 142.335741 
L 295.495256 147.418164 
L 295.544553 144.876952 
L 295.71729 144.876952 
L 295.889812 160.124223 
L 296.012972 149.959376 
L 296.062295 149.959376 
L 296.185591 147.418164 
L 296.333743 147.418164 
L 296.407555 144.876952 
L 296.432417 147.418164 
L 296.481666 147.418164 
L 296.555524 149.959376 
L 296.580266 147.418164 
L 296.605029 147.418164 
L 296.703492 142.335741 
L 296.728322 144.876952 
L 296.752814 144.876952 
L 296.876293 152.500588 
L 297.048749 162.665435 
L 297.122754 162.665435 
L 297.270776 167.747858 
L 297.320105 167.747858 
L 297.369508 170.28907 
L 297.394008 167.747858 
L 297.51749 165.206646 
L 297.591297 170.28907 
L 297.640621 167.747858 
L 297.689945 167.747858 
L 297.837912 172.830282 
L 297.961372 170.28907 
L 297.985879 170.28907 
L 298.133847 165.206646 
L 298.158687 167.747858 
L 298.281816 152.500588 
L 298.429786 152.500588 
L 298.57775 149.959376 
L 298.627071 149.959376 
L 298.775044 144.876952 
L 298.89852 144.876952 
L 298.923316 147.418164 
L 298.997074 144.876952 
L 299.021657 144.876952 
L 299.09585 142.335741 
L 299.120304 144.876952 
L 299.145141 144.876952 
L 299.293052 149.959376 
L 299.317592 149.959376 
L 299.366916 147.418164 
L 299.41651 149.959376 
L 299.440938 152.500588 
L 299.514884 149.959376 
L 299.539734 149.959376 
L 299.613529 152.500588 
L 299.638377 149.959376 
L 299.662854 149.959376 
L 299.786364 147.418164 
L 299.934235 147.418164 
L 300.082273 152.500588 
L 300.106757 152.500588 
L 300.254725 147.418164 
L 300.353373 147.418164 
L 300.501339 142.335741 
L 300.526185 142.335741 
L 300.67409 147.418164 
L 300.698629 147.418164 
L 300.821963 142.335741 
L 301.01942 142.335741 
L 301.117979 139.794529 
L 301.191857 142.335741 
L 301.216701 139.794529 
L 301.487797 122.006047 
L 301.512669 122.006047 
L 301.635767 106.758776 
L 301.759126 106.758776 
L 301.833057 104.217564 
L 304.373339 96.593929 
L 304.521366 91.511506 
L 304.817253 91.511506 
L 304.940404 88.970294 
L 305.236344 88.970294 
L 305.359704 91.511506 
L 305.482959 91.511506 
L 305.606354 94.052717 
L 305.754411 88.970294 
L 305.852994 88.970294 
L 306.025502 81.346659 
L 306.173476 81.346659 
L 306.272122 78.805447 
L 306.395584 81.346659 
L 306.494081 81.346659 
L 306.592895 78.805447 
L 306.814674 78.805447 
L 306.913616 76.264235 
L 307.086114 76.264235 
L 307.23398 81.346659 
L 307.258584 81.346659 
L 307.35723 83.88787 
L 307.825944 83.88787 
L 307.949108 86.429082 
L 308.688958 86.429082 
L 308.836926 81.346659 
L 308.911049 81.346659 
L 309.058996 76.264235 
L 309.601514 76.264235 
L 309.700221 78.805447 
L 309.823388 76.264235 
L 309.872946 76.264235 
L 309.996137 78.805447 
L 310.045452 78.805447 
L 310.168651 76.264235 
L 310.193428 76.264235 
L 310.316875 73.723023 
L 310.637334 73.723023 
L 310.760524 76.264235 
L 311.056464 76.264235 
L 311.179913 73.723023 
L 311.697663 73.723023 
L 311.845634 76.264235 
L 312.684126 76.264235 
L 312.807493 78.805447 
L 313.276003 78.805447 
L 313.399439 81.346659 
L 313.473297 81.346659 
L 313.522621 83.88787 
L 313.572204 81.346659 
L 313.719911 83.88787 
L 313.991386 83.88787 
L 314.163819 76.264235 
L 314.237925 76.264235 
L 314.361111 78.805447 
L 314.484594 76.264235 
L 314.879103 76.264235 
L 315.002311 78.805447 
L 315.027033 78.805447 
L 315.100959 81.346659 
L 315.125799 78.805447 
L 315.199604 78.805447 
L 315.32304 76.264235 
L 316.3095 76.264235 
L 316.432684 73.723023 
L 316.851923 73.723023 
L 316.975239 76.264235 
L 317.098651 73.723023 
L 318.060347 73.723023 
L 318.134491 71.181812 
L 318.158992 73.723023 
L 318.726247 73.723023 
L 318.849518 76.264235 
L 319.490718 76.264235 
L 319.564874 73.723023 
L 319.589631 76.264235 
L 319.98395 76.264235 
L 320.10727 78.805447 
L 320.279886 78.805447 
L 320.403372 76.264235 
L 320.822443 76.264235 
L 320.945939 73.723023 
L 321.04443 73.723023 
L 321.1677 76.264235 
L 322.30213 76.264235 
L 322.401046 73.723023 
L 322.524273 76.264235 
L 322.622885 76.264235 
L 322.746039 73.723023 
L 322.770868 73.723023 
L 322.894008 71.181812 
L 323.04198 71.181812 
L 323.16545 68.6406 
L 323.214789 68.6406 
L 323.338138 66.099388 
L 323.412039 66.099388 
L 323.535208 63.558176 
L 323.782094 63.558176 
L 323.905287 61.016965 
L 324.225729 61.016965 
L 324.373701 58.475753 
L 324.497165 58.475753 
L 324.620318 55.934541 
L 324.669641 55.934541 
L 324.719186 58.475753 
L 324.768288 55.934541 
L 324.842441 55.934541 
L 324.965574 58.475753 
L 325.212192 58.475753 
L 325.335665 61.016965 
L 325.53295 61.016965 
L 325.656316 58.475753 
L 326.914 58.475753 
L 327.037358 55.934541 
L 327.086471 55.934541 
L 327.209965 53.393329 
L 327.900439 53.393329 
L 328.048358 58.475753 
L 328.714134 58.475753 
L 328.837602 61.016965 
L 329.182849 61.016965 
L 329.306011 58.475753 
L 329.429438 58.475753 
L 329.552628 55.934541 
L 329.79946 55.934541 
L 329.947213 53.393329 
L 330.415973 53.393329 
L 330.53909 50.852118 
L 330.613178 50.852118 
L 330.736644 53.393329 
L 330.958474 53.393329 
L 331.081646 50.852118 
L 332.783493 50.852118 
L 332.906601 48.310906 
L 335.323423 48.310906 
L 335.446828 50.852118 
L 336.729356 50.852118 
L 336.852448 53.393329 
L 337.394998 53.393329 
L 337.518454 55.934541 
L 337.986871 55.934541 
L 338.110334 58.475753 
L 338.578752 58.475753 
L 338.702168 55.934541 
L 339.294114 55.934541 
L 339.417243 58.475753 
L 339.614539 58.475753 
L 339.738037 55.934541 
L 340.206418 55.934541 
L 340.329845 53.393329 
L 340.403709 53.393329 
L 340.527058 50.852118 
L 340.798293 50.852118 
L 340.921716 53.393329 
L 341.735431 53.393329 
L 341.834079 55.934541 
L 342.056126 55.934541 
L 342.17934 58.475753 
L 342.549419 58.475753 
L 342.697408 63.558176 
L 342.845244 63.558176 
L 342.968511 61.016965 
L 343.017832 61.016965 
L 343.141293 78.805447 
L 343.1658 78.805447 
L 343.387877 91.511506 
L 343.437189 91.511506 
L 343.560388 88.970294 
L 343.757678 88.970294 
L 343.782405 86.429082 
L 343.831837 88.970294 
L 344.029103 99.135141 
L 344.250908 99.135141 
L 344.398877 94.052717 
L 344.620951 94.052717 
L 344.744134 91.511506 
L 344.793461 91.511506 
L 344.941427 96.593929 
L 345.040073 96.593929 
L 345.163432 99.135141 
L 345.237366 99.135141 
L 345.336012 101.676353 
L 345.459389 99.135141 
L 345.483979 99.135141 
L 345.533301 101.676353 
L 345.706049 83.88787 
L 345.730594 83.88787 
L 345.903357 76.264235 
L 346.002 76.264235 
L 346.125178 73.723023 
L 346.298002 73.723023 
L 346.421119 71.181812 
L 346.445941 71.181812 
L 346.569089 68.6406 
L 346.69258 68.6406 
L 346.8157 66.099388 
L 346.914349 66.099388 
L 347.037753 63.558176 
L 347.383122 63.558176 
L 347.506223 61.016965 
L 347.555546 61.016965 
L 347.678909 63.558176 
L 347.752841 63.558176 
L 347.851485 61.016965 
L 347.925479 61.016965 
L 348.048777 58.475753 
L 348.320201 58.475753 
L 348.443362 55.934541 
L 348.912061 55.934541 
L 349.035239 53.393329 
L 349.405329 53.393329 
L 349.52847 50.852118 
L 351.230214 50.852118 
L 351.353413 53.393329 
L 351.600245 53.393329 
L 351.747997 55.934541 
L 351.994615 55.934541 
L 352.142582 61.016965 
L 352.266029 61.016965 
L 352.413944 66.099388 
L 353.079719 66.099388 
L 353.203204 68.6406 
L 353.424982 68.6406 
L 353.572951 71.181812 
L 354.288294 71.181812 
L 354.411719 73.723023 
L 354.534948 71.181812 
L 354.732197 71.181812 
L 354.855639 73.723023 
L 355.299534 73.723023 
L 355.373307 71.181812 
L 355.397908 73.723023 
L 355.965274 73.723023 
L 356.088432 76.264235 
L 356.137754 76.264235 
L 356.187079 78.805447 
L 356.236685 76.264235 
L 356.630988 76.264235 
L 356.75433 73.723023 
L 357.099701 73.723023 
L 357.222864 71.181812 
L 357.888788 71.181812 
L 358.01204 68.6406 
L 358.184787 68.6406 
L 358.30798 66.099388 
L 358.480791 66.099388 
L 358.60392 68.6406 
L 358.702566 68.6406 
L 358.82606 71.181812 
L 359.072522 71.181812 
L 359.195799 73.723023 
L 359.319296 73.723023 
L 359.442415 71.181812 
L 359.812492 71.181812 
L 359.93565 73.723023 
L 360.08362 71.181812 
L 360.429043 71.181812 
L 360.552416 68.6406 
L 360.675498 68.6406 
L 360.798959 66.099388 
L 361.168732 66.099388 
L 361.292203 68.6406 
L 361.464668 68.6406 
L 361.588127 71.181812 
L 361.957903 71.181812 
L 362.081401 73.723023 
L 362.377306 73.723023 
L 362.50046 71.181812 
L 363.16643 71.181812 
L 363.289631 68.6406 
L 363.388276 68.6406 
L 363.511757 66.099388 
L 363.782862 66.099388 
L 363.906344 63.558176 
L 364.078801 63.558176 
L 364.202191 61.016965 
L 364.670678 61.016965 
L 364.79419 63.558176 
L 364.843465 63.558176 
L 364.966617 66.099388 
L 365.238052 66.099388 
L 365.361203 68.6406 
L 365.435357 68.6406 
L 365.509172 66.099388 
L 365.657143 68.6406 
L 366.224542 68.6406 
L 366.347665 71.181812 
L 367.063006 71.181812 
L 367.186161 73.723023 
L 367.457527 73.723023 
L 367.580744 76.264235 
L 367.75355 76.264235 
L 367.901388 81.346659 
L 367.950817 81.346659 
L 368.073975 83.88787 
L 368.468561 83.88787 
L 368.592031 86.429082 
L 368.739938 86.429082 
L 368.887972 81.346659 
L 368.961791 81.346659 
L 369.085224 78.805447 
L 369.109761 78.805447 
L 369.208407 76.264235 
L 369.307052 76.264235 
L 369.43055 73.723023 
L 370.1211 73.723023 
L 370.244203 76.264235 
L 370.811559 76.264235 
L 370.934729 73.723023 
L 371.304818 73.723023 
L 371.427963 76.264235 
L 371.526609 76.264235 
L 371.699396 83.88787 
L 372.167815 83.88787 
L 372.2913 81.346659 
L 372.315786 81.346659 
L 372.463755 76.264235 
L 372.735198 76.264235 
L 372.932482 86.429082 
L 373.179114 86.429082 
L 373.302252 88.970294 
L 373.376403 88.970294 
L 373.499545 91.511506 
L 373.524317 91.511506 
L 373.647517 94.052717 
L 373.696842 94.052717 
L 373.844808 99.135141 
L 374.14075 99.135141 
L 374.264185 101.676353 
L 374.338044 101.676353 
L 374.486015 104.217564 
L 374.535335 104.217564 
L 374.683308 109.299988 
L 374.97925 109.299988 
L 375.102677 111.8412 
L 375.176544 111.8412 
L 375.324512 116.923623 
L 375.373835 116.923623 
L 375.423161 114.382411 
L 375.472483 116.923623 
L 375.497271 116.923623 
L 375.620452 114.382411 
L 375.669778 114.382411 
L 375.793107 116.923623 
L 375.84254 116.923623 
L 375.965712 119.464835 
L 376.064361 119.464835 
L 376.187789 122.006047 
L 376.212565 122.006047 
L 376.360305 124.547258 
L 376.779705 124.547258 
L 376.902863 127.08847 
L 376.977005 127.08847 
L 377.124958 132.170894 
L 377.248125 132.170894 
L 377.396093 137.253317 
L 377.44542 137.253317 
L 377.470203 139.794529 
L 377.544064 137.253317 
L 377.593625 137.253317 
L 377.667434 134.712105 
L 377.692034 137.253317 
L 377.716867 137.253317 
L 377.864836 132.170894 
L 377.938652 132.170894 
L 378.086807 137.253317 
L 378.1113 137.253317 
L 378.234592 139.794529 
L 378.283914 139.794529 
L 378.431887 144.876952 
L 378.506031 144.876952 
L 378.53076 142.335741 
L 378.604598 144.876952 
L 378.801965 144.876952 
L 378.925115 149.959376 
L 379.048462 147.418164 
L 379.073084 147.418164 
L 379.221049 152.500588 
L 379.270368 152.500588 
L 379.443166 139.794529 
L 379.46789 142.335741 
L 379.492311 142.335741 
L 379.664945 149.959376 
L 379.689683 149.959376 
L 379.81291 152.500588 
L 379.9856 152.500588 
L 380.035033 149.959376 
L 380.158378 175.371493 
L 380.281634 157.583011 
L 380.306141 155.041799 
L 380.429464 172.830282 
L 380.478897 172.830282 
L 380.602078 182.995129 
L 380.626858 180.453917 
L 380.750046 177.912705 
L 380.922758 190.618764 
L 380.947337 190.618764 
L 381.070723 193.159976 
L 381.095305 190.618764 
L 381.169361 193.159976 
L 381.218772 193.159976 
L 381.34214 190.618764 
L 381.366624 190.618764 
L 381.465355 195.701188 
L 381.489891 193.159976 
L 381.514739 193.159976 
L 381.637859 195.701188 
L 381.711986 195.701188 
L 381.736504 193.159976 
L 381.810487 195.701188 
L 381.85992 195.701188 
L 381.983116 193.159976 
L 382.032437 198.242399 
L 382.081757 195.701188 
L 382.22996 190.618764 
L 382.328376 190.618764 
L 382.451763 195.701188 
L 382.47634 195.701188 
L 382.673632 182.995129 
L 382.723238 182.995129 
L 382.79707 177.912705 
L 382.8216 182.995129 
L 382.895772 190.618764 
L 382.920245 185.53634 
L 382.969568 185.53634 
L 383.142381 177.912705 
L 383.167061 177.912705 
L 383.339613 190.618764 
L 383.364153 188.077552 
L 383.388984 188.077552 
L 383.512125 177.912705 
L 383.53691 180.453917 
L 383.684811 190.618764 
L 383.857383 198.242399 
L 383.980807 195.701188 
L 384.054677 198.242399 
L 384.104259 193.159976 
L 384.153321 198.242399 
L 384.251967 198.242399 
L 384.399934 193.159976 
L 384.449259 195.701188 
L 384.498581 193.159976 
L 384.597226 188.077552 
L 384.621971 195.701188 
L 384.695874 193.159976 
L 384.843842 188.077552 
L 384.86864 188.077552 
L 384.99181 195.701188 
L 385.065836 195.701188 
L 385.263244 185.53634 
L 385.386391 193.159976 
L 385.435714 193.159976 
L 385.583684 195.701188 
L 385.707153 185.53634 
L 385.904432 195.701188 
L 385.929203 195.701188 
L 386.0524 188.077552 
L 386.07691 193.159976 
L 386.126233 193.159976 
L 386.249621 195.701188 
L 386.298934 195.701188 
L 386.348326 193.159976 
L 386.372847 195.701188 
L 386.446862 200.783611 
L 386.545622 190.618764 
L 386.570139 193.159976 
L 386.594942 193.159976 
L 386.693577 190.618764 
L 386.767427 193.159976 
L 386.792273 190.618764 
L 386.816749 190.618764 
L 386.96472 185.53634 
L 386.98952 185.53634 
L 387.16201 177.912705 
L 387.408626 177.912705 
L 387.532075 175.371493 
L 387.58138 177.912705 
L 387.630748 175.371493 
L 387.680082 175.371493 
L 387.803466 172.830282 
L 387.827892 172.830282 
L 387.852534 170.28907 
L 387.926661 172.830282 
L 388.0005 172.830282 
L 388.123917 170.28907 
L 388.1733 170.28907 
L 388.247392 167.747858 
L 388.395084 170.28907 
L 388.592376 170.28907 
L 388.617136 172.830282 
L 388.69102 170.28907 
L 388.937637 162.665435 
L 388.962491 162.665435 
L 389.184409 144.876952 
L 389.208918 147.418164 
L 389.233574 147.418164 
L 389.357004 149.959376 
L 389.480192 149.959376 
L 389.628436 144.876952 
L 389.899604 144.876952 
L 390.022743 147.418164 
L 390.170713 142.335741 
L 390.220036 142.335741 
L 390.368004 137.253317 
L 390.491442 137.253317 
L 390.614622 134.712105 
L 390.639378 134.712105 
L 390.738102 137.253317 
L 390.886099 132.170894 
L 390.910558 134.712105 
L 390.984722 132.170894 
L 391.009206 132.170894 
L 391.058526 129.629682 
L 391.107852 132.170894 
L 391.132675 132.170894 
L 391.231314 127.08847 
L 391.255822 129.629682 
L 391.379258 132.170894 
L 391.453114 132.170894 
L 391.699729 139.794529 
L 392.217729 139.794529 
L 392.267093 142.335741 
L 392.316392 139.794529 
L 392.365719 139.794529 
L 392.488901 137.253317 
L 392.661677 137.253317 
L 392.735519 134.712105 
L 392.760352 137.253317 
L 392.834166 137.253317 
L 392.883644 134.712105 
L 392.932808 137.253317 
L 393.450824 137.253317 
L 393.574011 134.712105 
L 393.697469 134.712105 
L 393.820863 137.253317 
L 393.968597 137.253317 
L 394.09205 134.712105 
L 394.511146 134.712105 
L 394.634536 137.253317 
L 395.103022 137.253317 
L 395.17714 134.712105 
L 395.300314 134.712105 
L 395.423796 132.170894 
L 395.719603 132.170894 
L 395.86763 127.08847 
L 396.139072 127.08847 
L 396.262261 124.547258 
L 396.533391 124.547258 
L 396.656759 127.08847 
L 396.878652 127.08847 
L 396.927975 124.547258 
L 396.977296 127.08847 
L 397.446036 127.08847 
L 397.569177 129.629682 
L 397.618501 129.629682 
L 397.692648 127.08847 
L 397.717144 129.629682 
L 397.815794 129.629682 
L 397.939266 132.170894 
L 397.96376 132.170894 
L 398.11173 129.629682 
L 398.185898 129.629682 
L 398.2597 132.170894 
L 398.284484 129.629682 
L 398.827131 129.629682 
L 398.950222 132.170894 
L 399.024371 132.170894 
L 399.147516 134.712105 
L 399.196839 134.712105 
L 399.295487 132.170894 
L 399.418802 134.712105 
L 399.616234 134.712105 
L 399.764228 129.629682 
L 399.8135 129.629682 
L 399.93669 127.08847 
L 399.961455 127.08847 
L 400.084658 124.547258 
L 400.331561 124.547258 
L 400.454753 122.006047 
L 400.652024 122.006047 
L 400.676537 124.547258 
L 400.750681 122.006047 
L 401.16977 122.006047 
L 401.317741 116.923623 
L 401.909621 116.923623 
L 402.033078 119.464835 
L 402.477007 119.464835 
L 402.600147 116.923623 
L 402.748117 116.923623 
L 402.871537 114.382411 
L 403.142704 114.382411 
L 403.290671 119.464835 
L 403.389317 119.464835 
L 403.487964 122.006047 
L 403.611305 119.464835 
L 403.931874 119.464835 
L 404.030775 116.923623 
L 404.079848 116.923623 
L 404.153968 119.464835 
L 404.178496 116.923623 
L 404.30199 116.923623 
L 404.449933 122.006047 
L 404.992329 122.006047 
L 405.140416 116.923623 
L 405.239101 116.923623 
L 405.362252 119.464835 
L 406.102102 119.464835 
L 406.176209 116.923623 
L 406.200748 119.464835 
L 406.447364 119.464835 
L 406.570845 122.006047 
L 406.669509 122.006047 
L 406.866648 111.8412 
L 406.916065 111.8412 
L 407.039245 109.299988 
L 407.4586 109.299988 
L 407.581805 111.8412 
L 407.65593 111.8412 
L 407.779092 114.382411 
L 407.853227 114.382411 
L 407.976392 116.923623 
L 408.173683 116.923623 
L 408.297106 114.382411 
L 408.4203 116.923623 
L 408.642337 116.923623 
L 408.765565 114.382411 
L 409.184833 114.382411 
L 409.308121 116.923623 
L 409.332963 116.923623 
L 409.45609 119.464835 
L 409.554735 119.464835 
L 409.702709 114.382411 
L 410.023477 114.382411 
L 410.14662 116.923623 
L 410.442559 116.923623 
L 410.565858 114.382411 
L 410.861957 114.382411 
L 410.985119 111.8412 
L 411.182408 111.8412 
L 411.30587 109.299988 
L 411.527672 109.299988 
L 411.700452 101.676353 
L 411.724967 101.676353 
L 411.848439 99.135141 
L 411.971585 99.135141 
L 412.020907 96.593929 
L 412.070232 99.135141 
L 412.366172 99.135141 
L 412.440178 101.676353 
L 412.46482 99.135141 
L 412.612788 99.135141 
L 412.760759 101.676353 
L 413.007374 101.676353 
L 413.130898 99.135141 
L 413.303315 99.135141 
L 413.451287 101.676353 
L 413.500609 101.676353 
L 413.624078 99.135141 
L 413.747227 99.135141 
L 413.870633 101.676353 
L 414.363916 101.676353 
L 414.487078 104.217564 
L 414.5364 104.217564 
L 414.659826 101.676353 
L 415.153103 101.676353 
L 415.27625 99.135141 
L 416.410687 99.135141 
L 416.534157 96.593929 
L 416.657305 96.593929 
L 416.780796 94.052717 
L 416.903923 94.052717 
L 417.052141 99.135141 
L 417.101213 99.135141 
L 417.224679 96.593929 
L 417.545122 96.593929 
L 417.668604 99.135141 
L 417.767222 99.135141 
L 417.865879 96.593929 
L 417.989238 99.135141 
L 418.359145 99.135141 
L 418.482268 96.593929 
L 418.655041 96.593929 
L 418.77821 94.052717 
L 418.827534 94.052717 
L 418.950864 96.593929 
L 418.975504 96.593929 
L 419.098927 99.135141 
L 419.246896 99.135141 
L 419.370327 101.676353 
L 419.690744 101.676353 
L 419.813999 99.135141 
L 419.912644 99.135141 
L 420.036144 96.593929 
L 420.134725 96.593929 
L 420.257909 99.135141 
L 420.430691 99.135141 
L 420.553851 101.676353 
L 420.627985 101.676353 
L 420.751145 99.135141 
L 421.170518 99.135141 
L 421.293699 96.593929 
L 421.58964 96.593929 
L 421.638962 94.052717 
L 421.688508 96.593929 
L 421.811745 96.593929 
L 421.934904 99.135141 
L 422.082869 99.135141 
L 422.206205 101.676353 
L 422.255637 101.676353 
L 422.378813 104.217564 
L 422.403638 104.217564 
L 422.576107 111.8412 
L 422.625704 111.8412 
L 422.822724 116.923623 
L 422.847489 116.923623 
L 422.995518 122.006047 
L 423.143368 122.006047 
L 423.291423 127.08847 
L 423.85851 127.08847 
L 424.08053 139.794529 
L 424.129913 139.794529 
L 424.302415 129.629682 
L 424.450384 137.253317 
L 424.696998 137.253317 
L 424.820372 139.794529 
L 425.042259 139.794529 
L 425.067065 137.253317 
L 425.140904 139.794529 
L 425.26441 139.794529 
L 425.387519 144.876952 
L 425.683457 134.712105 
L 425.831428 134.712105 
L 425.930072 132.170894 
L 426.053515 134.712105 
L 426.078043 134.712105 
L 426.250847 127.08847 
L 426.423304 127.08847 
L 426.546728 124.547258 
L 426.965862 124.547258 
L 427.089323 127.08847 
L 427.237275 127.08847 
L 427.360443 129.629682 
L 427.40977 129.629682 
L 427.533193 127.08847 
L 427.705709 139.794529 
L 427.853679 137.253317 
L 427.878507 137.253317 
L 427.927715 139.794529 
L 427.977152 137.253317 
L 428.100294 134.712105 
L 428.149617 134.712105 
L 428.322441 139.794529 
L 428.470415 134.712105 
L 428.569017 137.253317 
L 428.69217 134.712105 
L 428.716902 134.712105 
L 428.741495 132.170894 
L 428.815674 134.712105 
L 428.840142 134.712105 
L 428.98811 139.794529 
L 429.062263 137.253317 
L 429.086755 139.794529 
L 429.358221 139.794529 
L 429.382692 142.335741 
L 429.456861 139.794529 
L 429.580227 137.253317 
L 429.629309 137.253317 
L 429.752734 134.712105 
L 429.826601 134.712105 
L 429.974569 139.794529 
L 430.097925 137.253317 
L 430.147336 137.253317 
L 430.270507 139.794529 
L 430.319832 139.794529 
L 430.443287 137.253317 
L 430.4678 137.253317 
L 430.763739 127.08847 
L 431.503584 127.08847 
L 431.627058 124.547258 
L 432.933952 124.547258 
L 433.057325 122.006047 
L 433.205281 122.006047 
L 433.328534 119.464835 
L 433.37786 119.464835 
L 433.501272 116.923623 
L 433.575155 116.923623 
L 433.599894 119.464835 
L 433.673801 116.923623 
L 433.821769 116.923623 
L 433.945153 114.382411 
L 433.96974 114.382411 
L 434.11771 109.299988 
L 434.26568 109.299988 
L 434.389035 106.758776 
L 434.561619 106.758776 
L 434.660264 109.299988 
L 434.709575 109.299988 
L 434.734291 106.758776 
L 434.808228 109.299988 
L 434.857553 109.299988 
L 434.980971 111.8412 
L 435.128926 111.8412 
L 435.252137 109.299988 
L 435.375565 109.299988 
L 435.548075 101.676353 
L 436.139955 101.676353 
L 436.263409 104.217564 
L 436.386568 104.217564 
L 436.534694 99.135141 
L 436.58386 99.135141 
L 436.731829 94.052717 
L 436.8798 94.052717 
L 436.978449 96.593929 
L 437.077094 96.593929 
L 437.200487 94.052717 
L 437.225062 94.052717 
L 437.348435 96.593929 
L 437.693769 96.593929 
L 437.816941 94.052717 
L 438.162202 94.052717 
L 438.285671 91.511506 
L 438.581538 91.511506 
L 438.655434 88.970294 
L 438.680176 91.511506 
L 438.902049 91.511506 
L 439.050019 86.429082 
L 439.272095 86.429082 
L 439.420069 81.346659 
L 439.814522 81.346659 
L 439.937834 78.805447 
L 440.061304 78.805447 
L 440.184449 81.346659 
L 440.751682 81.346659 
L 440.874974 78.805447 
L 441.12159 78.805447 
L 441.244976 81.346659 
L 441.318882 81.346659 
L 441.442322 83.88787 
L 441.491633 83.88787 
L 441.614821 81.346659 
L 441.910761 81.346659 
L 442.034192 78.805447 
L 442.132705 78.805447 
L 442.256024 76.264235 
L 443.341133 76.264235 
L 443.464604 73.723023 
L 444.228952 73.723023 
L 444.352398 71.181812 
L 445.116768 71.181812 
L 445.240181 68.6406 
L 445.73343 68.6406 
L 445.856616 66.099388 
L 445.881345 66.099388 
L 446.004587 68.6406 
L 446.127984 68.6406 
L 446.251203 66.099388 
L 446.818503 66.099388 
L 446.941727 63.558176 
L 448.051661 63.558176 
L 448.174808 61.016965 
L 450 61.016965 
L 450 61.016965 
" clip-path="url(#p4550b4f038)" style="fill: none; stroke: #ff7f0e; stroke-width: 1.5; stroke-linecap: square"/>
   </g>
   <g id="patch_3">
    <path d="M 51.05 279.561175 
L 51.05 25.44 
" style="fill: none; stroke: #000000; stroke-width: 0.8; stroke-linejoin: miter; stroke-linecap: square"/>
   </g>
   <g id="patch_4">
    <path d="M 450 279.561175 
L 450 25.44 
" style="fill: none; stroke: #000000; stroke-width: 0.8; stroke-linejoin: miter; stroke-linecap: square"/>
   </g>
   <g id="patch_5">
    <path d="M 51.05 279.561175 
L 450 279.561175 
" style="fill: none; stroke: #000000; stroke-width: 0.8; stroke-linejoin: miter; stroke-linecap: square"/>
   </g>
   <g id="patch_6">
    <path d="M 51.05 25.44 
L 450 25.44 
" style="fill: none; stroke: #000000; stroke-width: 0.8; stroke-linejoin: miter; stroke-linecap: square"/>
   </g>
   <g id="text_16">
    <!-- November 2023 -->
    <g transform="translate(202.133125 19.44) scale(0.12 -0.12)">
     <defs>
      <path id="DejaVuSans-4e" d="M 628 4666 
L 1478 4666 
L 3547 763 
L 3547 4666 
L 4159 4666 
L 4159 0 
L 3309 0 
L 1241 3903 
L 1241 0 
L 628 0 
L 628 4666 
z
" transform="scale(0.015625)"/>
      <path id="DejaVuSans-6f" d="M 1959 3097 
Q 1497 3097 1228 2736 
Q 959 2375 959 1747 
Q 959 1119 1226 758 
Q 1494 397 1959 397 
Q 2419 397 2687 759 
Q 2956 1122 2956 1747 
Q 2956 2369 2687 2733 
Q 2419 3097 1959 3097 
z
M 1959 3584 
Q 2709 3584 3137 3096 
Q 3566 2609 3566 1747 
Q 3566 888 3137 398 
Q 2709 -91 1959 -91 
Q 1206 -91 779 398 
Q 353 888 353 1747 
Q 353 2609 779 3096 
Q 1206 3584 1959 3584 
z
" transform="scale(0.015625)"/>
      <path id="DejaVuSans-76" d="M 191 3500 
L 800 3500 
L 1894 563 
L 2988 3500 
L 3597 3500 
L 2284 0 
L 1503 0 
L 191 3500 
z
" transform="scale(0.015625)"/>
      <path id="DejaVuSans-65" d="M 3597 1894 
L 3597 1613 
L 953 1613 
Q 991 1019 1311 708 
Q 1631 397 2203 397 
Q 2534 397 2845 478 
Q 3156 559 3463 722 
L 3463 178 
Q 3153 47 2828 -22 
Q 2503 -91 2169 -91 
Q 1331 -91 842 396 
Q 353 884 353 1716 
Q 353 2575 817 3079 
Q 1281 3584 2069 3584 
Q 2775 3584 3186 3129 
Q 3597 2675 3597 1894 
z
M 3022 2063 
Q 3016 2534 2758 2815 
Q 2500 3097 2075 3097 
Q 1594 3097 1305 2825 
Q 1016 2553 972 2059 
L 3022 2063 
z
" transform="scale(0.015625)"/>
      <path id="DejaVuSans-62" d="M 3116 1747 
Q 3116 2381 2855 2742 
Q 2594 3103 2138 3103 
Q 1681 3103 1420 2742 
Q 1159 2381 1159 1747 
Q 1159 1113 1420 752 
Q 1681 391 2138 391 
Q 2594 391 2855 752 
Q 3116 1113 3116 1747 
z
M 1159 2969 
Q 1341 3281 1617 3432 
Q 1894 3584 2278 3584 
Q 2916 3584 3314 3078 
Q 3713 2572 3713 1747 
Q 3713 922 3314 415 
Q 2916 -91 2278 -91 
Q 1894 -91 1617 61 
Q 1341 213 1159 525 
L 1159 0 
L 581 0 
L 581 4863 
L 1159 4863 
L 1159 2969 
z
" transform="scale(0.015625)"/>
      <path id="DejaVuSans-72" d="M 2631 2963 
Q 2534 3019 2420 3045 
Q 2306 3072 2169 3072 
Q 1681 3072 1420 2755 
Q 1159 2438 1159 1844 
L 1159 0 
L 581 0 
L 581 3500 
L 1159 3500 
L 1159 2956 
Q 1341 3275 1631 3429 
Q 1922 3584 2338 3584 
Q 2397 3584 2469 3576 
Q 2541 3569 2628 3553 
L 2631 2963 
z
" transform="scale(0.015625)"/>
     </defs>
     <use xlink:href="#DejaVuSans-4e"/>
     <use xlink:href="#DejaVuSans-6f" x="74.804688"/>
     <use xlink:href="#DejaVuSans-76" x="135.986328"/>
     <use xlink:href="#DejaVuSans-65" x="195.166016"/>
     <use xlink:href="#DejaVuSans-6d" x="256.689453"/>
     <use xlink:href="#DejaVuSans-62" x="354.101562"/>
     <use xlink:href="#DejaVuSans-65" x="417.578125"/>
     <use xlink:href="#DejaVuSans-72" x="479.101562"/>
     <use xlink:href="#DejaVuSans-20" x="520.214844"/>
     <use xlink:href="#DejaVuSans-32" x="552.001953"/>
     <use xlink:href="#DejaVuSans-30" x="615.625"/>
     <use xlink:href="#DejaVuSans-32" x="679.248047"/>
     <use xlink:href="#DejaVuSans-33" x="742.871094"/>
    </g>
   </g>
  </g>
 </g>
 <defs>
  <clipPath id="p4550b4f038">
   <rect x="51.05" y="25.44" width="398.95" height="254.121175"/>
  </clipPath>
 </defs>
</svg>
