<?xml version="1.0" encoding="utf-8" standalone="no"?>
<!DOCTYPE svg PUBLIC "-//W3C//DTD SVG 1.1//EN"
  "http://www.w3.org/Graphics/SVG/1.1/DTD/svg11.dtd">
<svg xmlns:xlink="http://www.w3.org/1999/xlink" width="460.8pt" height="345.6pt" viewBox="0 0 460.8 345.6" xmlns="http://www.w3.org/2000/svg" version="1.1">
 <metadata>
  <rdf:RDF xmlns:dc="http://purl.org/dc/elements/1.1/" xmlns:cc="http://creativecommons.org/ns#" xmlns:rdf="http://www.w3.org/1999/02/22-rdf-syntax-ns#">
   <cc:Work>
    <dc:type rdf:resource="http://purl.org/dc/dcmitype/StillImage"/>
    <dc:date>2023-11-06T19:14:24.865476</dc:date>
    <dc:format>image/svg+xml</dc:format>
    <dc:creator>
     <cc:Agent>
      <dc:title>Matplotlib v3.6.3, https://matplotlib.org/</dc:title>
     </cc:Agent>
    </dc:creator>
   </cc:Work>
  </rdf:RDF>
 </metadata>
 <defs>
  <style type="text/css">*{stroke-linejoin: round; stroke-linecap: butt}</style>
 </defs>
 <g id="figure_1">
  <g id="patch_1">
   <path d="M 0 345.6 
L 460.8 345.6 
L 460.8 0 
L 0 0 
z
" style="fill: #ffffff"/>
  </g>
  <g id="axes_1">
   <g id="patch_2">
    <path d="M 46.46 279.561175 
L 450 279.561175 
L 450 25.44 
L 46.46 25.44 
z
" style="fill: #ffffff"/>
   </g>
   <g id="matplotlib.axis_1">
    <g id="xtick_1">
     <g id="line2d_1">
      <path d="M 115.992861 279.561175 
L 115.992861 25.44 
" clip-path="url(#pe8b0883323)" style="fill: none; stroke: #b0b0b0; stroke-width: 0.8; stroke-linecap: square"/>
     </g>
     <g id="line2d_2">
      <defs>
       <path id="mce927590fb" d="M 0 0 
L 0 3.5 
" style="stroke: #000000; stroke-width: 0.8"/>
      </defs>
      <g>
       <use xlink:href="#mce927590fb" x="115.992861" y="279.561175" style="stroke: #000000; stroke-width: 0.8"/>
      </g>
     </g>
     <g id="text_1">
      <!-- 2023-11-02 -->
      <g transform="translate(73.428348 333.028035) rotate(-45) scale(0.1 -0.1)">
       <defs>
        <path id="DejaVuSans-32" d="M 1228 531 
L 3431 531 
L 3431 0 
L 469 0 
L 469 531 
Q 828 903 1448 1529 
Q 2069 2156 2228 2338 
Q 2531 2678 2651 2914 
Q 2772 3150 2772 3378 
Q 2772 3750 2511 3984 
Q 2250 4219 1831 4219 
Q 1534 4219 1204 4116 
Q 875 4013 500 3803 
L 500 4441 
Q 881 4594 1212 4672 
Q 1544 4750 1819 4750 
Q 2544 4750 2975 4387 
Q 3406 4025 3406 3419 
Q 3406 3131 3298 2873 
Q 3191 2616 2906 2266 
Q 2828 2175 2409 1742 
Q 1991 1309 1228 531 
z
" transform="scale(0.015625)"/>
        <path id="DejaVuSans-30" d="M 2034 4250 
Q 1547 4250 1301 3770 
Q 1056 3291 1056 2328 
Q 1056 1369 1301 889 
Q 1547 409 2034 409 
Q 2525 409 2770 889 
Q 3016 1369 3016 2328 
Q 3016 3291 2770 3770 
Q 2525 4250 2034 4250 
z
M 2034 4750 
Q 2819 4750 3233 4129 
Q 3647 3509 3647 2328 
Q 3647 1150 3233 529 
Q 2819 -91 2034 -91 
Q 1250 -91 836 529 
Q 422 1150 422 2328 
Q 422 3509 836 4129 
Q 1250 4750 2034 4750 
z
" transform="scale(0.015625)"/>
        <path id="DejaVuSans-33" d="M 2597 2516 
Q 3050 2419 3304 2112 
Q 3559 1806 3559 1356 
Q 3559 666 3084 287 
Q 2609 -91 1734 -91 
Q 1441 -91 1130 -33 
Q 819 25 488 141 
L 488 750 
Q 750 597 1062 519 
Q 1375 441 1716 441 
Q 2309 441 2620 675 
Q 2931 909 2931 1356 
Q 2931 1769 2642 2001 
Q 2353 2234 1838 2234 
L 1294 2234 
L 1294 2753 
L 1863 2753 
Q 2328 2753 2575 2939 
Q 2822 3125 2822 3475 
Q 2822 3834 2567 4026 
Q 2313 4219 1838 4219 
Q 1578 4219 1281 4162 
Q 984 4106 628 3988 
L 628 4550 
Q 988 4650 1302 4700 
Q 1616 4750 1894 4750 
Q 2613 4750 3031 4423 
Q 3450 4097 3450 3541 
Q 3450 3153 3228 2886 
Q 3006 2619 2597 2516 
z
" transform="scale(0.015625)"/>
        <path id="DejaVuSans-2d" d="M 313 2009 
L 1997 2009 
L 1997 1497 
L 313 1497 
L 313 2009 
z
" transform="scale(0.015625)"/>
        <path id="DejaVuSans-31" d="M 794 531 
L 1825 531 
L 1825 4091 
L 703 3866 
L 703 4441 
L 1819 4666 
L 2450 4666 
L 2450 531 
L 3481 531 
L 3481 0 
L 794 0 
L 794 531 
z
" transform="scale(0.015625)"/>
       </defs>
       <use xlink:href="#DejaVuSans-32"/>
       <use xlink:href="#DejaVuSans-30" x="63.623047"/>
       <use xlink:href="#DejaVuSans-32" x="127.246094"/>
       <use xlink:href="#DejaVuSans-33" x="190.869141"/>
       <use xlink:href="#DejaVuSans-2d" x="254.492188"/>
       <use xlink:href="#DejaVuSans-31" x="290.576172"/>
       <use xlink:href="#DejaVuSans-31" x="354.199219"/>
       <use xlink:href="#DejaVuSans-2d" x="417.822266"/>
       <use xlink:href="#DejaVuSans-30" x="453.90625"/>
       <use xlink:href="#DejaVuSans-32" x="517.529297"/>
      </g>
     </g>
    </g>
    <g id="xtick_2">
     <g id="line2d_3">
      <path d="M 185.562734 279.561175 
L 185.562734 25.44 
" clip-path="url(#pe8b0883323)" style="fill: none; stroke: #b0b0b0; stroke-width: 0.8; stroke-linecap: square"/>
     </g>
     <g id="line2d_4">
      <g>
       <use xlink:href="#mce927590fb" x="185.562734" y="279.561175" style="stroke: #000000; stroke-width: 0.8"/>
      </g>
     </g>
     <g id="text_2">
      <!-- 2023-11-03 -->
      <g transform="translate(142.998221 333.028035) rotate(-45) scale(0.1 -0.1)">
       <use xlink:href="#DejaVuSans-32"/>
       <use xlink:href="#DejaVuSans-30" x="63.623047"/>
       <use xlink:href="#DejaVuSans-32" x="127.246094"/>
       <use xlink:href="#DejaVuSans-33" x="190.869141"/>
       <use xlink:href="#DejaVuSans-2d" x="254.492188"/>
       <use xlink:href="#DejaVuSans-31" x="290.576172"/>
       <use xlink:href="#DejaVuSans-31" x="354.199219"/>
       <use xlink:href="#DejaVuSans-2d" x="417.822266"/>
       <use xlink:href="#DejaVuSans-30" x="453.90625"/>
       <use xlink:href="#DejaVuSans-33" x="517.529297"/>
      </g>
     </g>
    </g>
    <g id="xtick_3">
     <g id="line2d_5">
      <path d="M 255.132608 279.561175 
L 255.132608 25.44 
" clip-path="url(#pe8b0883323)" style="fill: none; stroke: #b0b0b0; stroke-width: 0.8; stroke-linecap: square"/>
     </g>
     <g id="line2d_6">
      <g>
       <use xlink:href="#mce927590fb" x="255.132608" y="279.561175" style="stroke: #000000; stroke-width: 0.8"/>
      </g>
     </g>
     <g id="text_3">
      <!-- 2023-11-04 -->
      <g transform="translate(212.568094 333.028035) rotate(-45) scale(0.1 -0.1)">
       <defs>
        <path id="DejaVuSans-34" d="M 2419 4116 
L 825 1625 
L 2419 1625 
L 2419 4116 
z
M 2253 4666 
L 3047 4666 
L 3047 1625 
L 3713 1625 
L 3713 1100 
L 3047 1100 
L 3047 0 
L 2419 0 
L 2419 1100 
L 313 1100 
L 313 1709 
L 2253 4666 
z
" transform="scale(0.015625)"/>
       </defs>
       <use xlink:href="#DejaVuSans-32"/>
       <use xlink:href="#DejaVuSans-30" x="63.623047"/>
       <use xlink:href="#DejaVuSans-32" x="127.246094"/>
       <use xlink:href="#DejaVuSans-33" x="190.869141"/>
       <use xlink:href="#DejaVuSans-2d" x="254.492188"/>
       <use xlink:href="#DejaVuSans-31" x="290.576172"/>
       <use xlink:href="#DejaVuSans-31" x="354.199219"/>
       <use xlink:href="#DejaVuSans-2d" x="417.822266"/>
       <use xlink:href="#DejaVuSans-30" x="453.90625"/>
       <use xlink:href="#DejaVuSans-34" x="517.529297"/>
      </g>
     </g>
    </g>
    <g id="xtick_4">
     <g id="line2d_7">
      <path d="M 324.702481 279.561175 
L 324.702481 25.44 
" clip-path="url(#pe8b0883323)" style="fill: none; stroke: #b0b0b0; stroke-width: 0.8; stroke-linecap: square"/>
     </g>
     <g id="line2d_8">
      <g>
       <use xlink:href="#mce927590fb" x="324.702481" y="279.561175" style="stroke: #000000; stroke-width: 0.8"/>
      </g>
     </g>
     <g id="text_4">
      <!-- 2023-11-05 -->
      <g transform="translate(282.137967 333.028035) rotate(-45) scale(0.1 -0.1)">
       <defs>
        <path id="DejaVuSans-35" d="M 691 4666 
L 3169 4666 
L 3169 4134 
L 1269 4134 
L 1269 2991 
Q 1406 3038 1543 3061 
Q 1681 3084 1819 3084 
Q 2600 3084 3056 2656 
Q 3513 2228 3513 1497 
Q 3513 744 3044 326 
Q 2575 -91 1722 -91 
Q 1428 -91 1123 -41 
Q 819 9 494 109 
L 494 744 
Q 775 591 1075 516 
Q 1375 441 1709 441 
Q 2250 441 2565 725 
Q 2881 1009 2881 1497 
Q 2881 1984 2565 2268 
Q 2250 2553 1709 2553 
Q 1456 2553 1204 2497 
Q 953 2441 691 2322 
L 691 4666 
z
" transform="scale(0.015625)"/>
       </defs>
       <use xlink:href="#DejaVuSans-32"/>
       <use xlink:href="#DejaVuSans-30" x="63.623047"/>
       <use xlink:href="#DejaVuSans-32" x="127.246094"/>
       <use xlink:href="#DejaVuSans-33" x="190.869141"/>
       <use xlink:href="#DejaVuSans-2d" x="254.492188"/>
       <use xlink:href="#DejaVuSans-31" x="290.576172"/>
       <use xlink:href="#DejaVuSans-31" x="354.199219"/>
       <use xlink:href="#DejaVuSans-2d" x="417.822266"/>
       <use xlink:href="#DejaVuSans-30" x="453.90625"/>
       <use xlink:href="#DejaVuSans-35" x="517.529297"/>
      </g>
     </g>
    </g>
    <g id="xtick_5">
     <g id="line2d_9">
      <path d="M 394.272354 279.561175 
L 394.272354 25.44 
" clip-path="url(#pe8b0883323)" style="fill: none; stroke: #b0b0b0; stroke-width: 0.8; stroke-linecap: square"/>
     </g>
     <g id="line2d_10">
      <g>
       <use xlink:href="#mce927590fb" x="394.272354" y="279.561175" style="stroke: #000000; stroke-width: 0.8"/>
      </g>
     </g>
     <g id="text_5">
      <!-- 2023-11-06 -->
      <g transform="translate(351.70784 333.028035) rotate(-45) scale(0.1 -0.1)">
       <defs>
        <path id="DejaVuSans-36" d="M 2113 2584 
Q 1688 2584 1439 2293 
Q 1191 2003 1191 1497 
Q 1191 994 1439 701 
Q 1688 409 2113 409 
Q 2538 409 2786 701 
Q 3034 994 3034 1497 
Q 3034 2003 2786 2293 
Q 2538 2584 2113 2584 
z
M 3366 4563 
L 3366 3988 
Q 3128 4100 2886 4159 
Q 2644 4219 2406 4219 
Q 1781 4219 1451 3797 
Q 1122 3375 1075 2522 
Q 1259 2794 1537 2939 
Q 1816 3084 2150 3084 
Q 2853 3084 3261 2657 
Q 3669 2231 3669 1497 
Q 3669 778 3244 343 
Q 2819 -91 2113 -91 
Q 1303 -91 875 529 
Q 447 1150 447 2328 
Q 447 3434 972 4092 
Q 1497 4750 2381 4750 
Q 2619 4750 2861 4703 
Q 3103 4656 3366 4563 
z
" transform="scale(0.015625)"/>
       </defs>
       <use xlink:href="#DejaVuSans-32"/>
       <use xlink:href="#DejaVuSans-30" x="63.623047"/>
       <use xlink:href="#DejaVuSans-32" x="127.246094"/>
       <use xlink:href="#DejaVuSans-33" x="190.869141"/>
       <use xlink:href="#DejaVuSans-2d" x="254.492188"/>
       <use xlink:href="#DejaVuSans-31" x="290.576172"/>
       <use xlink:href="#DejaVuSans-31" x="354.199219"/>
       <use xlink:href="#DejaVuSans-2d" x="417.822266"/>
       <use xlink:href="#DejaVuSans-30" x="453.90625"/>
       <use xlink:href="#DejaVuSans-36" x="517.529297"/>
      </g>
     </g>
    </g>
   </g>
   <g id="matplotlib.axis_2">
    <g id="ytick_1">
     <g id="line2d_11">
      <path d="M 46.46 253.008963 
L 450 253.008963 
" clip-path="url(#pe8b0883323)" style="fill: none; stroke: #b0b0b0; stroke-width: 0.8; stroke-linecap: square"/>
     </g>
     <g id="line2d_12">
      <defs>
       <path id="m31b8c33a98" d="M 0 0 
L -3.5 0 
" style="stroke: #000000; stroke-width: 0.8"/>
      </defs>
      <g>
       <use xlink:href="#m31b8c33a98" x="46.46" y="253.008963" style="stroke: #000000; stroke-width: 0.8"/>
      </g>
     </g>
     <g id="text_6">
      <!-- 0 -->
      <g transform="translate(33.0975 256.808182) scale(0.1 -0.1)">
       <use xlink:href="#DejaVuSans-30"/>
      </g>
     </g>
    </g>
    <g id="ytick_2">
     <g id="line2d_13">
      <path d="M 46.46 223.006463 
L 450 223.006463 
" clip-path="url(#pe8b0883323)" style="fill: none; stroke: #b0b0b0; stroke-width: 0.8; stroke-linecap: square"/>
     </g>
     <g id="line2d_14">
      <g>
       <use xlink:href="#m31b8c33a98" x="46.46" y="223.006463" style="stroke: #000000; stroke-width: 0.8"/>
      </g>
     </g>
     <g id="text_7">
      <!-- 2 -->
      <g transform="translate(33.0975 226.805682) scale(0.1 -0.1)">
       <use xlink:href="#DejaVuSans-32"/>
      </g>
     </g>
    </g>
    <g id="ytick_3">
     <g id="line2d_15">
      <path d="M 46.46 193.003963 
L 450 193.003963 
" clip-path="url(#pe8b0883323)" style="fill: none; stroke: #b0b0b0; stroke-width: 0.8; stroke-linecap: square"/>
     </g>
     <g id="line2d_16">
      <g>
       <use xlink:href="#m31b8c33a98" x="46.46" y="193.003963" style="stroke: #000000; stroke-width: 0.8"/>
      </g>
     </g>
     <g id="text_8">
      <!-- 4 -->
      <g transform="translate(33.0975 196.803182) scale(0.1 -0.1)">
       <use xlink:href="#DejaVuSans-34"/>
      </g>
     </g>
    </g>
    <g id="ytick_4">
     <g id="line2d_17">
      <path d="M 46.46 163.001463 
L 450 163.001463 
" clip-path="url(#pe8b0883323)" style="fill: none; stroke: #b0b0b0; stroke-width: 0.8; stroke-linecap: square"/>
     </g>
     <g id="line2d_18">
      <g>
       <use xlink:href="#m31b8c33a98" x="46.46" y="163.001463" style="stroke: #000000; stroke-width: 0.8"/>
      </g>
     </g>
     <g id="text_9">
      <!-- 6 -->
      <g transform="translate(33.0975 166.800681) scale(0.1 -0.1)">
       <use xlink:href="#DejaVuSans-36"/>
      </g>
     </g>
    </g>
    <g id="ytick_5">
     <g id="line2d_19">
      <path d="M 46.46 132.998963 
L 450 132.998963 
" clip-path="url(#pe8b0883323)" style="fill: none; stroke: #b0b0b0; stroke-width: 0.8; stroke-linecap: square"/>
     </g>
     <g id="line2d_20">
      <g>
       <use xlink:href="#m31b8c33a98" x="46.46" y="132.998963" style="stroke: #000000; stroke-width: 0.8"/>
      </g>
     </g>
     <g id="text_10">
      <!-- 8 -->
      <g transform="translate(33.0975 136.798181) scale(0.1 -0.1)">
       <defs>
        <path id="DejaVuSans-38" d="M 2034 2216 
Q 1584 2216 1326 1975 
Q 1069 1734 1069 1313 
Q 1069 891 1326 650 
Q 1584 409 2034 409 
Q 2484 409 2743 651 
Q 3003 894 3003 1313 
Q 3003 1734 2745 1975 
Q 2488 2216 2034 2216 
z
M 1403 2484 
Q 997 2584 770 2862 
Q 544 3141 544 3541 
Q 544 4100 942 4425 
Q 1341 4750 2034 4750 
Q 2731 4750 3128 4425 
Q 3525 4100 3525 3541 
Q 3525 3141 3298 2862 
Q 3072 2584 2669 2484 
Q 3125 2378 3379 2068 
Q 3634 1759 3634 1313 
Q 3634 634 3220 271 
Q 2806 -91 2034 -91 
Q 1263 -91 848 271 
Q 434 634 434 1313 
Q 434 1759 690 2068 
Q 947 2378 1403 2484 
z
M 1172 3481 
Q 1172 3119 1398 2916 
Q 1625 2713 2034 2713 
Q 2441 2713 2670 2916 
Q 2900 3119 2900 3481 
Q 2900 3844 2670 4047 
Q 2441 4250 2034 4250 
Q 1625 4250 1398 4047 
Q 1172 3844 1172 3481 
z
" transform="scale(0.015625)"/>
       </defs>
       <use xlink:href="#DejaVuSans-38"/>
      </g>
     </g>
    </g>
    <g id="ytick_6">
     <g id="line2d_21">
      <path d="M 46.46 102.996463 
L 450 102.996463 
" clip-path="url(#pe8b0883323)" style="fill: none; stroke: #b0b0b0; stroke-width: 0.8; stroke-linecap: square"/>
     </g>
     <g id="line2d_22">
      <g>
       <use xlink:href="#m31b8c33a98" x="46.46" y="102.996463" style="stroke: #000000; stroke-width: 0.8"/>
      </g>
     </g>
     <g id="text_11">
      <!-- 10 -->
      <g transform="translate(26.735 106.795681) scale(0.1 -0.1)">
       <use xlink:href="#DejaVuSans-31"/>
       <use xlink:href="#DejaVuSans-30" x="63.623047"/>
      </g>
     </g>
    </g>
    <g id="ytick_7">
     <g id="line2d_23">
      <path d="M 46.46 72.993963 
L 450 72.993963 
" clip-path="url(#pe8b0883323)" style="fill: none; stroke: #b0b0b0; stroke-width: 0.8; stroke-linecap: square"/>
     </g>
     <g id="line2d_24">
      <g>
       <use xlink:href="#m31b8c33a98" x="46.46" y="72.993963" style="stroke: #000000; stroke-width: 0.8"/>
      </g>
     </g>
     <g id="text_12">
      <!-- 12 -->
      <g transform="translate(26.735 76.793181) scale(0.1 -0.1)">
       <use xlink:href="#DejaVuSans-31"/>
       <use xlink:href="#DejaVuSans-32" x="63.623047"/>
      </g>
     </g>
    </g>
    <g id="ytick_8">
     <g id="line2d_25">
      <path d="M 46.46 42.991463 
L 450 42.991463 
" clip-path="url(#pe8b0883323)" style="fill: none; stroke: #b0b0b0; stroke-width: 0.8; stroke-linecap: square"/>
     </g>
     <g id="line2d_26">
      <g>
       <use xlink:href="#m31b8c33a98" x="46.46" y="42.991463" style="stroke: #000000; stroke-width: 0.8"/>
      </g>
     </g>
     <g id="text_13">
      <!-- 14 -->
      <g transform="translate(26.735 46.790681) scale(0.1 -0.1)">
       <use xlink:href="#DejaVuSans-31"/>
       <use xlink:href="#DejaVuSans-34" x="63.623047"/>
      </g>
     </g>
    </g>
    <g id="text_14">
     <!-- Temperature [°C] -->
     <g transform="translate(20.655313 199.072463) rotate(-90) scale(0.1 -0.1)">
      <defs>
       <path id="DejaVuSans-54" d="M -19 4666 
L 3928 4666 
L 3928 4134 
L 2272 4134 
L 2272 0 
L 1638 0 
L 1638 4134 
L -19 4134 
L -19 4666 
z
" transform="scale(0.015625)"/>
       <path id="DejaVuSans-65" d="M 3597 1894 
L 3597 1613 
L 953 1613 
Q 991 1019 1311 708 
Q 1631 397 2203 397 
Q 2534 397 2845 478 
Q 3156 559 3463 722 
L 3463 178 
Q 3153 47 2828 -22 
Q 2503 -91 2169 -91 
Q 1331 -91 842 396 
Q 353 884 353 1716 
Q 353 2575 817 3079 
Q 1281 3584 2069 3584 
Q 2775 3584 3186 3129 
Q 3597 2675 3597 1894 
z
M 3022 2063 
Q 3016 2534 2758 2815 
Q 2500 3097 2075 3097 
Q 1594 3097 1305 2825 
Q 1016 2553 972 2059 
L 3022 2063 
z
" transform="scale(0.015625)"/>
       <path id="DejaVuSans-6d" d="M 3328 2828 
Q 3544 3216 3844 3400 
Q 4144 3584 4550 3584 
Q 5097 3584 5394 3201 
Q 5691 2819 5691 2113 
L 5691 0 
L 5113 0 
L 5113 2094 
Q 5113 2597 4934 2840 
Q 4756 3084 4391 3084 
Q 3944 3084 3684 2787 
Q 3425 2491 3425 1978 
L 3425 0 
L 2847 0 
L 2847 2094 
Q 2847 2600 2669 2842 
Q 2491 3084 2119 3084 
Q 1678 3084 1418 2786 
Q 1159 2488 1159 1978 
L 1159 0 
L 581 0 
L 581 3500 
L 1159 3500 
L 1159 2956 
Q 1356 3278 1631 3431 
Q 1906 3584 2284 3584 
Q 2666 3584 2933 3390 
Q 3200 3197 3328 2828 
z
" transform="scale(0.015625)"/>
       <path id="DejaVuSans-70" d="M 1159 525 
L 1159 -1331 
L 581 -1331 
L 581 3500 
L 1159 3500 
L 1159 2969 
Q 1341 3281 1617 3432 
Q 1894 3584 2278 3584 
Q 2916 3584 3314 3078 
Q 3713 2572 3713 1747 
Q 3713 922 3314 415 
Q 2916 -91 2278 -91 
Q 1894 -91 1617 61 
Q 1341 213 1159 525 
z
M 3116 1747 
Q 3116 2381 2855 2742 
Q 2594 3103 2138 3103 
Q 1681 3103 1420 2742 
Q 1159 2381 1159 1747 
Q 1159 1113 1420 752 
Q 1681 391 2138 391 
Q 2594 391 2855 752 
Q 3116 1113 3116 1747 
z
" transform="scale(0.015625)"/>
       <path id="DejaVuSans-72" d="M 2631 2963 
Q 2534 3019 2420 3045 
Q 2306 3072 2169 3072 
Q 1681 3072 1420 2755 
Q 1159 2438 1159 1844 
L 1159 0 
L 581 0 
L 581 3500 
L 1159 3500 
L 1159 2956 
Q 1341 3275 1631 3429 
Q 1922 3584 2338 3584 
Q 2397 3584 2469 3576 
Q 2541 3569 2628 3553 
L 2631 2963 
z
" transform="scale(0.015625)"/>
       <path id="DejaVuSans-61" d="M 2194 1759 
Q 1497 1759 1228 1600 
Q 959 1441 959 1056 
Q 959 750 1161 570 
Q 1363 391 1709 391 
Q 2188 391 2477 730 
Q 2766 1069 2766 1631 
L 2766 1759 
L 2194 1759 
z
M 3341 1997 
L 3341 0 
L 2766 0 
L 2766 531 
Q 2569 213 2275 61 
Q 1981 -91 1556 -91 
Q 1019 -91 701 211 
Q 384 513 384 1019 
Q 384 1609 779 1909 
Q 1175 2209 1959 2209 
L 2766 2209 
L 2766 2266 
Q 2766 2663 2505 2880 
Q 2244 3097 1772 3097 
Q 1472 3097 1187 3025 
Q 903 2953 641 2809 
L 641 3341 
Q 956 3463 1253 3523 
Q 1550 3584 1831 3584 
Q 2591 3584 2966 3190 
Q 3341 2797 3341 1997 
z
" transform="scale(0.015625)"/>
       <path id="DejaVuSans-74" d="M 1172 4494 
L 1172 3500 
L 2356 3500 
L 2356 3053 
L 1172 3053 
L 1172 1153 
Q 1172 725 1289 603 
Q 1406 481 1766 481 
L 2356 481 
L 2356 0 
L 1766 0 
Q 1100 0 847 248 
Q 594 497 594 1153 
L 594 3053 
L 172 3053 
L 172 3500 
L 594 3500 
L 594 4494 
L 1172 4494 
z
" transform="scale(0.015625)"/>
       <path id="DejaVuSans-75" d="M 544 1381 
L 544 3500 
L 1119 3500 
L 1119 1403 
Q 1119 906 1312 657 
Q 1506 409 1894 409 
Q 2359 409 2629 706 
Q 2900 1003 2900 1516 
L 2900 3500 
L 3475 3500 
L 3475 0 
L 2900 0 
L 2900 538 
Q 2691 219 2414 64 
Q 2138 -91 1772 -91 
Q 1169 -91 856 284 
Q 544 659 544 1381 
z
M 1991 3584 
L 1991 3584 
z
" transform="scale(0.015625)"/>
       <path id="DejaVuSans-20" transform="scale(0.015625)"/>
       <path id="DejaVuSans-5b" d="M 550 4863 
L 1875 4863 
L 1875 4416 
L 1125 4416 
L 1125 -397 
L 1875 -397 
L 1875 -844 
L 550 -844 
L 550 4863 
z
" transform="scale(0.015625)"/>
       <path id="DejaVuSans-c2" d="M 2188 4044 
L 1331 1722 
L 3047 1722 
L 2188 4044 
z
M 1831 4666 
L 2547 4666 
L 4325 0 
L 3669 0 
L 3244 1197 
L 1141 1197 
L 716 0 
L 50 0 
L 1831 4666 
z
M 1894 5941 
L 2481 5941 
L 3141 5110 
L 2706 5110 
L 2188 5666 
L 1669 5110 
L 1234 5110 
L 1894 5941 
z
" transform="scale(0.015625)"/>
       <path id="DejaVuSans-b0" d="M 1600 4347 
Q 1350 4347 1178 4173 
Q 1006 4000 1006 3750 
Q 1006 3503 1178 3333 
Q 1350 3163 1600 3163 
Q 1850 3163 2022 3333 
Q 2194 3503 2194 3750 
Q 2194 3997 2020 4172 
Q 1847 4347 1600 4347 
z
M 1600 4750 
Q 1800 4750 1984 4673 
Q 2169 4597 2303 4453 
Q 2447 4313 2519 4134 
Q 2591 3956 2591 3750 
Q 2591 3338 2302 3052 
Q 2013 2766 1594 2766 
Q 1172 2766 890 3047 
Q 609 3328 609 3750 
Q 609 4169 896 4459 
Q 1184 4750 1600 4750 
z
" transform="scale(0.015625)"/>
       <path id="DejaVuSans-43" d="M 4122 4306 
L 4122 3641 
Q 3803 3938 3442 4084 
Q 3081 4231 2675 4231 
Q 1875 4231 1450 3742 
Q 1025 3253 1025 2328 
Q 1025 1406 1450 917 
Q 1875 428 2675 428 
Q 3081 428 3442 575 
Q 3803 722 4122 1019 
L 4122 359 
Q 3791 134 3420 21 
Q 3050 -91 2638 -91 
Q 1578 -91 968 557 
Q 359 1206 359 2328 
Q 359 3453 968 4101 
Q 1578 4750 2638 4750 
Q 3056 4750 3426 4639 
Q 3797 4528 4122 4306 
z
" transform="scale(0.015625)"/>
       <path id="DejaVuSans-5d" d="M 1947 4863 
L 1947 -844 
L 622 -844 
L 622 -397 
L 1369 -397 
L 1369 4416 
L 622 4416 
L 622 4863 
L 1947 4863 
z
" transform="scale(0.015625)"/>
      </defs>
      <use xlink:href="#DejaVuSans-54"/>
      <use xlink:href="#DejaVuSans-65" x="44.083984"/>
      <use xlink:href="#DejaVuSans-6d" x="105.607422"/>
      <use xlink:href="#DejaVuSans-70" x="203.019531"/>
      <use xlink:href="#DejaVuSans-65" x="266.496094"/>
      <use xlink:href="#DejaVuSans-72" x="328.019531"/>
      <use xlink:href="#DejaVuSans-61" x="369.132812"/>
      <use xlink:href="#DejaVuSans-74" x="430.412109"/>
      <use xlink:href="#DejaVuSans-75" x="469.621094"/>
      <use xlink:href="#DejaVuSans-72" x="533"/>
      <use xlink:href="#DejaVuSans-65" x="571.863281"/>
      <use xlink:href="#DejaVuSans-20" x="633.386719"/>
      <use xlink:href="#DejaVuSans-5b" x="665.173828"/>
      <use xlink:href="#DejaVuSans-c2" x="704.1875"/>
      <use xlink:href="#DejaVuSans-b0" x="772.595703"/>
      <use xlink:href="#DejaVuSans-43" x="822.595703"/>
      <use xlink:href="#DejaVuSans-5d" x="892.419922"/>
     </g>
    </g>
   </g>
   <g id="line2d_27">
    <path d="M 46.46 188.503588 
L 46.498492 188.503588 
L 46.653087 191.503838 
L 46.962287 191.503838 
L 47.040073 193.003963 
L 47.34878 193.003963 
L 47.46499 194.504088 
L 47.580679 193.003963 
L 48.121773 193.003963 
L 48.276369 190.003713 
L 48.315167 190.003713 
L 48.469838 187.003463 
L 48.508735 187.003463 
L 48.662865 188.503588 
L 48.894766 188.503588 
L 49.010976 190.003713 
L 49.397412 190.003713 
L 49.474669 191.503838 
L 49.590458 190.003713 
L 49.822354 190.003713 
L 49.938495 191.503838 
L 50.402271 191.503838 
L 50.518046 190.003713 
L 50.866072 190.003713 
L 50.981846 191.503838 
L 51.136441 191.503838 
L 51.252559 193.003963 
L 51.561777 193.003963 
L 51.677534 194.504088 
L 51.716398 193.003963 
L 51.754836 194.504088 
L 51.948347 194.504088 
L 52.064032 196.004213 
L 52.141785 194.504088 
L 52.257398 194.504088 
L 52.373232 193.003963 
L 52.412096 193.003963 
L 52.527826 194.504088 
L 52.566681 194.504088 
L 52.682426 196.004213 
L 52.837023 196.004213 
L 52.991626 194.504088 
L 53.068926 194.504088 
L 53.107816 193.003963 
L 53.146226 194.504088 
L 53.532718 194.504088 
L 53.61049 196.004213 
L 54.073814 196.004213 
L 54.189942 194.504088 
L 54.962967 194.504088 
L 55.117369 197.504338 
L 55.194841 197.504338 
L 55.310604 199.004463 
L 56.0063 199.004463 
L 56.122441 197.504338 
L 56.392791 197.504338 
L 56.47009 199.004463 
L 56.54787 199.004463 
L 56.701985 202.004713 
L 56.972753 202.004713 
L 57.127322 199.004463 
L 57.668476 199.004463 
L 57.784179 197.504338 
L 58.209501 197.504338 
L 58.325271 199.004463 
L 58.364142 199.004463 
L 58.479868 200.504588 
L 58.557173 200.504588 
L 58.63447 199.004463 
L 58.789064 200.504588 
L 58.866365 200.504588 
L 58.98256 202.004713 
L 59.137106 199.004463 
L 59.252865 199.004463 
L 59.40794 202.004713 
L 59.484761 202.004713 
L 59.639361 205.004963 
L 59.71666 205.004963 
L 59.832818 206.505088 
L 60.103149 206.505088 
L 60.335051 203.504838 
L 60.373914 203.504838 
L 60.489649 202.004713 
L 60.528504 202.004713 
L 60.683103 205.004963 
L 61.069609 205.004963 
L 61.224208 202.004713 
L 61.262644 202.004713 
L 61.41724 199.004463 
L 61.456095 199.004463 
L 61.571841 197.504338 
L 61.649128 197.504338 
L 61.765231 196.004213 
L 61.803739 196.004213 
L 61.919888 194.504088 
L 61.958333 194.504088 
L 62.074544 196.004213 
L 62.190232 196.004213 
L 62.267532 197.504338 
L 62.345291 197.504338 
L 62.460958 199.004463 
L 62.731327 199.004463 
L 62.885928 202.004713 
L 62.92483 202.004713 
L 63.04097 203.504838 
L 63.117823 203.504838 
L 63.27242 200.504588 
L 63.311282 200.504588 
L 63.465882 197.504338 
L 63.736217 197.504338 
L 63.890815 199.004463 
L 64.084229 199.004463 
L 64.122712 200.504588 
L 64.161607 199.004463 
L 64.238887 199.004463 
L 64.393484 196.004213 
L 64.470777 196.004213 
L 64.586508 197.504338 
L 64.664039 197.504338 
L 64.77997 199.004463 
L 64.973008 199.004463 
L 65.127607 202.004713 
L 65.204902 202.004713 
L 65.398397 206.505088 
L 65.591397 206.505088 
L 65.707576 208.005213 
L 65.784872 208.005213 
L 65.900595 211.005463 
L 66.016549 211.005463 
L 66.132489 212.505588 
L 66.480559 212.505588 
L 66.596291 214.005713 
L 66.635161 214.005713 
L 66.750888 215.505838 
L 66.905485 215.505838 
L 67.021556 214.005713 
L 67.098965 214.005713 
L 67.214682 215.505838 
L 67.369284 215.505838 
L 67.678478 211.005463 
L 67.79469 212.505588 
L 67.949265 209.505338 
L 68.258363 209.505338 
L 68.374174 211.005463 
L 68.644954 211.005463 
L 68.760668 209.505338 
L 68.953985 209.505338 
L 69.147169 205.004963 
L 69.263362 205.004963 
L 69.456364 200.504588 
L 69.495309 200.504588 
L 69.611409 199.004463 
L 69.727077 199.004463 
L 69.920159 194.504088 
L 70.113618 199.004463 
L 70.307137 199.004463 
L 70.500132 188.503588 
L 71.427758 123.998213 
L 71.543439 122.498088 
L 71.582277 122.498088 
L 71.736936 116.497588 
L 71.891421 119.497838 
L 72.045955 116.497588 
L 72.084531 116.497588 
L 72.200748 117.997713 
L 72.278037 117.997713 
L 72.471026 108.996963 
L 72.66445 104.496588 
L 72.702923 104.496588 
L 72.973626 96.995963 
L 73.012115 96.995963 
L 73.166714 93.995713 
L 73.282669 93.995713 
L 73.398609 96.995963 
L 73.669437 89.495338 
L 73.824018 89.495338 
L 74.210442 71.493838 
L 74.248898 72.993963 
L 74.558087 104.496588 
L 74.635387 105.996713 
L 74.713009 105.996713 
L 74.867285 108.996963 
L 75.408855 84.994963 
L 75.524481 81.994713 
L 75.640275 84.994963 
L 75.756509 83.494838 
L 75.79487 83.494838 
L 76.413256 104.496588 
L 76.490553 104.496588 
L 76.645151 95.495838 
L 76.877382 84.994963 
L 77.070424 80.494588 
L 77.108949 80.494588 
L 77.225148 81.994713 
L 77.340845 81.994713 
L 77.998155 104.496588 
L 78.152729 101.496338 
L 78.191123 101.496338 
L 78.268423 102.996463 
L 78.345711 102.996463 
L 78.732216 114.997463 
L 78.771097 114.997463 
L 78.886808 113.497338 
L 78.964111 113.497338 
L 79.118709 111.997213 
L 79.15754 111.997213 
L 79.621388 96.995963 
L 79.737438 96.995963 
L 79.891693 99.996213 
L 79.93061 98.496088 
L 79.968991 99.996213 
L 80.007923 99.996213 
L 80.278186 90.995463 
L 80.317087 92.495588 
L 80.355488 90.995463 
L 80.394449 90.995463 
L 80.664682 77.494338 
L 80.896579 71.493838 
L 80.973881 71.493838 
L 81.24441 78.994463 
L 81.399337 75.994213 
L 81.437669 75.994213 
L 81.669561 86.495088 
L 81.70852 86.495088 
L 81.901922 92.495588 
L 82.017502 92.495588 
L 82.133352 90.995463 
L 82.287946 90.995463 
L 82.40409 92.495588 
L 82.442547 92.495588 
L 82.674826 86.495088 
L 82.713127 86.495088 
L 82.867949 83.494838 
L 83.177136 92.495588 
L 83.215534 92.495588 
L 83.331751 93.995713 
L 83.370523 93.995713 
L 83.524726 95.495838 
L 83.640939 93.995713 
L 83.679325 95.495838 
L 83.718248 93.995713 
L 83.756623 93.995713 
L 83.911219 90.995463 
L 84.065817 90.995463 
L 84.220413 95.495838 
L 84.336575 93.995713 
L 84.375011 93.995713 
L 84.568471 89.495338 
L 84.606905 89.495338 
L 84.761504 93.995713 
L 84.993402 93.995713 
L 85.186882 89.495338 
L 85.264047 89.495338 
L 85.418755 86.495088 
L 85.457192 86.495088 
L 85.76639 77.494338 
L 86.230183 77.494338 
L 86.30784 75.994213 
L 86.423658 77.494338 
L 86.462081 77.494338 
L 86.810159 87.995213 
L 86.848567 87.995213 
L 87.00368 90.995463 
L 87.119281 90.995463 
L 87.23506 92.495588 
L 87.466959 95.495838 
L 87.660504 95.495838 
L 87.776152 93.995713 
L 87.892374 93.995713 
L 88.008048 92.495588 
L 88.124314 92.495588 
L 88.239943 90.995463 
L 88.394542 90.995463 
L 88.549139 92.495588 
L 88.588001 92.495588 
L 88.703737 93.995713 
L 88.742659 93.995713 
L 88.858336 95.495838 
L 88.897235 95.495838 
L 89.012934 96.995963 
L 89.129141 96.995963 
L 89.283623 99.996213 
L 89.322126 99.996213 
L 89.824805 116.497588 
L 90.056719 116.497588 
L 90.172414 114.997463 
L 90.481607 114.997463 
L 90.674871 119.497838 
L 90.713504 119.497838 
L 90.868105 122.498088 
L 90.98432 122.498088 
L 91.100004 123.998213 
L 91.486498 123.998213 
L 91.60274 125.498338 
L 91.680086 125.498338 
L 91.834613 128.498588 
L 91.950291 128.498588 
L 92.105349 131.498838 
L 92.14359 131.498838 
L 92.298434 134.499088 
L 92.375756 134.499088 
L 92.568683 138.999463 
L 92.607483 138.999463 
L 92.762261 141.999713 
L 92.800944 141.999713 
L 92.916687 143.499838 
L 92.994125 143.499838 
L 93.109775 144.999963 
L 93.187075 144.999963 
L 93.303206 146.500088 
L 93.418971 146.500088 
L 93.49674 148.000213 
L 93.68978 148.000213 
L 93.805467 149.500338 
L 93.921531 149.500338 
L 94.037364 151.000463 
L 94.423866 151.000463 
L 94.540169 152.500588 
L 94.96539 152.500588 
L 95.042261 154.000713 
L 95.081036 152.500588 
L 95.119559 154.000713 
L 95.892553 154.000713 
L 96.008766 155.500838 
L 96.434141 155.500838 
L 96.549756 154.000713 
L 96.66554 154.000713 
L 96.742842 152.500588 
L 96.781785 154.000713 
L 96.820136 152.500588 
L 96.936399 152.500588 
L 97.052036 154.000713 
L 97.400189 154.000713 
L 97.515828 155.500838 
L 97.554758 155.500838 
L 97.670427 154.000713 
L 97.941001 154.000713 
L 97.979623 152.500588 
L 98.018472 154.000713 
L 98.443414 154.000713 
L 98.559687 152.500588 
L 98.907211 152.500588 
L 99.023494 154.000713 
L 99.17811 154.000713 
L 99.293703 155.500838 
L 99.641787 155.500838 
L 99.757495 154.000713 
L 99.912094 154.000713 
L 100.028306 155.500838 
L 100.375888 155.500838 
L 100.492164 154.000713 
L 101.033275 154.000713 
L 101.148877 155.500838 
L 101.303472 155.500838 
L 101.419629 154.000713 
L 101.689969 154.000713 
L 101.806185 155.500838 
L 102.153763 155.500838 
L 102.231433 157.000963 
L 102.772152 157.000963 
L 102.888369 158.501088 
L 104.550028 158.501088 
L 104.666216 160.001213 
L 105.593866 160.001213 
L 105.709507 161.501338 
L 106.405196 161.501338 
L 106.521459 160.001213 
L 107.333173 160.001213 
L 107.448916 161.501338 
L 107.758171 161.501338 
L 107.873872 160.001213 
L 108.724158 160.001213 
L 108.878755 161.501338 
L 108.994951 160.001213 
L 110.540979 160.001213 
L 110.656628 161.501338 
L 111.04312 161.501338 
L 111.159357 160.001213 
L 111.816113 160.001213 
L 111.932431 161.501338 
L 112.086943 161.501338 
L 112.202609 160.001213 
L 113.052898 160.001213 
L 113.168846 161.501338 
L 114.096664 161.501338 
L 114.212385 163.001463 
L 117.265905 163.001463 
L 117.381638 164.501588 
L 117.459335 164.501588 
L 117.613539 163.001463 
L 117.729731 163.001463 
L 117.845436 164.501588 
L 117.884318 164.501588 
L 118.000034 163.001463 
L 119.082226 163.001463 
L 119.198368 161.501338 
L 119.236824 161.501338 
L 119.35303 163.001463 
L 122.947192 163.001463 
L 123.063429 161.501338 
L 132.416534 161.501338 
L 132.532259 163.001463 
L 133.537145 163.001463 
L 133.653421 161.501338 
L 134.117115 161.501338 
L 134.232832 163.001463 
L 134.812909 163.001463 
L 134.92896 164.501588 
L 137.170188 164.501588 
L 137.286458 166.001713 
L 137.556683 166.001713 
L 137.67295 164.501588 
L 139.179958 164.501588 
L 139.334557 166.001713 
L 139.450819 166.001713 
L 139.566451 164.501588 
L 139.682728 164.501588 
L 139.721052 166.001713 
L 139.76004 164.501588 
L 142.62004 164.501588 
L 142.735715 166.001713 
L 142.890759 166.001713 
L 143.044912 164.501588 
L 145.5574 164.501588 
L 145.673069 166.001713 
L 145.712025 166.001713 
L 145.750366 164.501588 
L 145.904962 166.001713 
L 145.982263 166.001713 
L 146.098404 164.501588 
L 146.600653 164.501588 
L 146.716913 163.001463 
L 147.721808 163.001463 
L 147.837437 161.501338 
L 148.262787 161.501338 
L 148.378535 160.001213 
L 149.345111 160.001213 
L 149.46114 158.501088 
L 150.311006 158.501088 
L 150.427179 160.001213 
L 150.542908 160.001213 
L 150.659124 158.501088 
L 151.547796 158.501088 
L 151.663766 160.001213 
L 152.321178 160.001213 
L 152.475392 161.501338 
L 153.673852 161.501338 
L 153.789896 160.001213 
L 154.137544 160.001213 
L 154.253277 161.501338 
L 154.562478 161.501338 
L 154.678642 160.001213 
L 155.258568 160.001213 
L 155.374229 161.501338 
L 158.96851 161.501338 
L 159.084639 163.001463 
L 161.673975 163.001463 
L 161.751633 164.501588 
L 162.253918 164.501588 
L 162.369663 166.001713 
L 162.446962 166.001713 
L 162.601558 167.501838 
L 162.795027 167.501838 
L 162.94967 170.502088 
L 162.988051 170.502088 
L 163.374545 182.503088 
L 163.451846 182.503088 
L 163.606441 185.503338 
L 163.64542 185.503338 
L 163.799966 188.503588 
L 163.877327 188.503588 
L 164.031677 191.503838 
L 164.14754 191.503838 
L 164.263776 193.003963 
L 164.41834 193.003963 
L 164.572911 196.004213 
L 164.727302 196.004213 
L 164.843226 197.504338 
L 164.920531 197.504338 
L 165.036799 199.004463 
L 165.075129 199.004463 
L 165.191375 200.504588 
L 165.268601 200.504588 
L 165.384797 202.004713 
L 165.538919 203.504838 
L 165.61622 203.504838 
L 165.732437 205.004963 
L 165.925422 205.004963 
L 166.041573 206.505088 
L 166.234612 206.505088 
L 166.350806 208.005213 
L 167.123721 208.005213 
L 167.239507 209.505338 
L 167.316807 209.505338 
L 167.433088 208.005213 
L 167.780602 208.005213 
L 167.896858 206.505088 
L 168.167096 206.505088 
L 168.244403 205.004963 
L 168.59237 205.004963 
L 168.708196 203.504838 
L 168.978988 203.504838 
L 169.09469 202.004713 
L 169.442806 202.004713 
L 169.558485 200.504588 
L 169.597363 200.504588 
L 169.713085 199.004463 
L 169.983861 199.004463 
L 170.099581 197.504338 
L 170.331477 197.504338 
L 170.44761 196.004213 
L 170.717978 196.004213 
L 170.834225 194.504088 
L 170.872579 194.504088 
L 170.988705 193.003963 
L 171.877462 193.003963 
L 171.99342 191.503838 
L 172.109363 191.503838 
L 172.225648 190.003713 
L 172.302872 190.003713 
L 172.418562 188.503588 
L 172.727761 188.503588 
L 172.843987 187.003463 
L 173.036953 187.003463 
L 173.15324 185.503338 
L 173.346147 185.503338 
L 173.500748 184.003213 
L 174.814837 184.003213 
L 174.969438 182.503088 
L 175.085705 182.503088 
L 175.201333 181.002963 
L 175.665129 181.002963 
L 175.781377 179.502838 
L 175.858642 179.502838 
L 175.974322 178.002713 
L 176.283973 178.002713 
L 176.438118 176.502588 
L 177.984101 176.502588 
L 178.100377 178.002713 
L 178.254921 178.002713 
L 178.370591 176.502588 
L 178.873211 176.502588 
L 178.988988 175.002463 
L 179.10517 175.002463 
L 179.221354 176.502588 
L 179.337009 176.502588 
L 179.452777 175.002463 
L 180.032632 175.002463 
L 180.148468 173.502338 
L 180.380367 173.502338 
L 180.496651 175.002463 
L 180.534966 175.002463 
L 180.612266 173.502338 
L 180.766858 173.502338 
L 180.960399 169.001963 
L 181.114934 169.001963 
L 181.230655 170.502088 
L 181.269618 170.502088 
L 181.38569 172.002213 
L 181.733395 172.002213 
L 181.926347 167.501838 
L 182.080948 167.501838 
L 182.23555 169.001963 
L 182.351821 169.001963 
L 182.467443 170.502088 
L 182.544742 170.502088 
L 182.661011 172.002213 
L 182.738288 172.002213 
L 182.854302 173.502338 
L 183.047498 173.502338 
L 183.163135 175.002463 
L 184.477216 175.002463 
L 184.593425 173.502338 
L 184.709116 173.502338 
L 184.863715 170.502088 
L 184.902673 170.502088 
L 185.018819 169.001963 
L 185.095608 169.001963 
L 185.250208 166.001713 
L 185.28914 166.001713 
L 185.404808 164.501588 
L 185.675625 164.501588 
L 185.791301 166.001713 
L 185.945903 166.001713 
L 186.062152 167.501838 
L 186.100497 166.001713 
L 186.139469 167.501838 
L 186.487477 167.501838 
L 186.603131 169.001963 
L 186.75779 169.001963 
L 186.87349 170.502088 
L 186.989761 170.502088 
L 187.10539 172.002213 
L 187.376226 172.002213 
L 187.491884 173.502338 
L 191.16395 173.502338 
L 191.279541 172.002213 
L 191.395728 173.502338 
L 191.782294 173.502338 
L 191.897935 175.002463 
L 192.748225 175.002463 
L 192.864489 176.502588 
L 192.902819 176.502588 
L 192.980123 175.002463 
L 194.139605 175.002463 
L 194.255859 176.502588 
L 194.449226 176.502588 
L 194.603405 175.002463 
L 194.758 175.002463 
L 194.874173 173.502338 
L 194.951489 173.502338 
L 195.067194 175.002463 
L 195.801795 175.002463 
L 195.917904 173.502338 
L 196.111016 173.502338 
L 196.149385 172.002213 
L 196.188258 173.502338 
L 196.265594 173.502338 
L 196.342874 172.002213 
L 196.420206 173.502338 
L 196.535878 172.002213 
L 197.03862 172.002213 
L 197.154272 173.502338 
L 197.772665 173.502338 
L 197.888823 175.002463 
L 198.197942 175.002463 
L 198.313758 176.502588 
L 198.468361 176.502588 
L 198.584576 178.002713 
L 199.203018 178.002713 
L 199.318653 179.502838 
L 199.937044 179.502838 
L 200.053299 181.002963 
L 201.096531 181.002963 
L 201.251122 184.003213 
L 201.328423 184.003213 
L 201.483022 187.003463 
L 201.521821 187.003463 
L 201.637619 188.503588 
L 201.676559 188.503588 
L 201.792219 190.003713 
L 201.869519 190.003713 
L 201.985671 191.503838 
L 202.333313 191.503838 
L 202.410613 193.003963 
L 202.642512 193.003963 
L 202.797109 196.004213 
L 202.913347 196.004213 
L 203.029003 197.504338 
L 203.067915 197.504338 
L 203.184091 199.004463 
L 203.338202 199.004463 
L 203.454418 200.504588 
L 203.53162 200.504588 
L 203.647394 202.004713 
L 203.840949 202.004713 
L 203.95659 203.504838 
L 204.420388 203.504838 
L 204.536527 202.004713 
L 204.884181 202.004713 
L 205.000336 200.504588 
L 205.193377 200.504588 
L 205.309562 202.004713 
L 205.579875 202.004713 
L 205.696008 200.504588 
L 207.783136 200.504588 
L 207.898843 202.004713 
L 208.053442 202.004713 
L 208.169693 203.504838 
L 209.058331 203.504838 
L 209.174544 202.004713 
L 209.251804 202.004713 
L 209.290233 203.504838 
L 209.329143 202.004713 
L 209.560974 202.004713 
L 209.676728 200.504588 
L 209.792719 200.504588 
L 209.908624 199.004463 
L 209.947587 199.004463 
L 210.063224 197.504338 
L 210.102229 197.504338 
L 210.256791 194.504088 
L 210.33408 194.504088 
L 210.450156 193.003963 
L 210.527018 193.003963 
L 210.681614 190.003713 
L 210.797818 190.003713 
L 210.913512 188.503588 
L 211.686502 188.503588 
L 211.80272 190.003713 
L 212.459495 190.003713 
L 212.575711 191.503838 
L 213.464387 191.503838 
L 213.618985 188.503588 
L 213.773581 188.503588 
L 213.889846 187.003463 
L 214.160083 187.003463 
L 214.198875 185.503338 
L 214.237379 187.003463 
L 214.469277 187.003463 
L 214.585484 185.503338 
L 214.623879 185.503338 
L 214.740131 184.003213 
L 215.049322 184.003213 
L 215.164978 182.503088 
L 215.358458 182.503088 
L 215.474178 181.002963 
L 215.706073 181.002963 
L 215.822236 179.502838 
L 216.054063 179.502838 
L 216.131413 178.002713 
L 216.169868 179.502838 
L 216.208789 178.002713 
L 216.440561 178.002713 
L 216.556366 176.502588 
L 216.672503 176.502588 
L 216.749835 175.002463 
L 216.865559 176.502588 
L 216.942861 176.502588 
L 217.483949 185.503338 
L 217.522887 185.503338 
L 217.638549 187.003463 
L 218.87534 187.003463 
L 218.99161 188.503588 
L 219.107235 188.503588 
L 219.261836 187.003463 
L 219.532701 187.003463 
L 219.64833 185.503338 
L 219.725628 185.503338 
L 219.841803 184.003213 
L 219.880719 184.003213 
L 220.034821 182.503088 
L 220.073751 182.503088 
L 220.18942 181.002963 
L 220.498619 181.002963 
L 220.575916 179.502838 
L 220.653637 179.502838 
L 220.691904 178.002713 
L 220.730512 179.502838 
L 221.001407 179.502838 
L 221.117009 181.002963 
L 221.542429 181.002963 
L 221.696936 178.002713 
L 221.928934 178.002713 
L 222.044603 176.502588 
L 222.121882 176.502588 
L 222.315381 181.002963 
L 222.508395 181.002963 
L 222.701888 176.502588 
L 222.740288 176.502588 
L 222.894891 173.502338 
L 222.933712 173.502338 
L 223.088367 170.502088 
L 223.397597 170.502088 
L 223.513703 169.001963 
L 223.745176 166.001713 
L 223.784074 166.001713 
L 223.899772 164.501588 
L 224.015958 164.501588 
L 224.131673 163.001463 
L 224.17058 163.001463 
L 224.286692 161.501338 
L 224.51817 161.501338 
L 224.634286 160.001213 
L 224.827361 160.001213 
L 224.943608 161.501338 
L 224.982446 161.501338 
L 225.136558 160.001213 
L 225.213858 160.001213 
L 225.330134 158.501088 
L 225.754946 158.501088 
L 225.871127 157.000963 
L 225.948444 157.000963 
L 226.064144 155.500838 
L 226.218747 158.501088 
L 226.296046 158.501088 
L 226.451094 161.501338 
L 226.489308 161.501338 
L 226.605242 163.001463 
L 226.759842 163.001463 
L 226.837139 161.501338 
L 226.953429 163.001463 
L 226.991737 163.001463 
L 227.14682 166.001713 
L 227.494497 166.001713 
L 227.571664 164.501588 
L 227.687428 166.001713 
L 227.842026 166.001713 
L 228.151222 170.502088 
L 228.228522 170.502088 
L 228.267513 169.001963 
L 228.305823 170.502088 
L 228.42208 170.502088 
L 228.537725 172.002213 
L 228.576692 172.002213 
L 228.731118 169.001963 
L 228.885849 169.001963 
L 229.001519 167.501838 
L 229.156114 167.501838 
L 229.272279 169.001963 
L 229.310715 169.001963 
L 229.542608 172.002213 
L 229.61991 172.002213 
L 229.736097 173.502338 
L 230.238305 173.502338 
L 230.354557 175.002463 
L 230.586462 175.002463 
L 230.702096 176.502588 
L 231.050243 176.502588 
L 231.165891 178.002713 
L 231.397789 178.002713 
L 231.475087 179.502838 
L 232.132444 179.502838 
L 232.248604 181.002963 
L 232.596225 181.002963 
L 232.711868 182.503088 
L 232.789167 182.503088 
L 232.905452 184.003213 
L 232.943768 184.003213 
L 233.098367 185.503338 
L 233.137269 185.503338 
L 233.252963 187.003463 
L 233.484863 187.003463 
L 233.601153 188.503588 
L 233.832893 188.503588 
L 233.948655 190.003713 
L 234.064978 190.003713 
L 234.180555 191.503838 
L 234.296723 191.503838 
L 234.412848 193.003963 
L 234.528517 193.003963 
L 234.644347 194.504088 
L 234.683217 194.504088 
L 234.798951 196.004213 
L 234.876248 196.004213 
L 234.992445 197.504338 
L 235.069826 197.504338 
L 235.185974 199.004463 
L 235.224141 199.004463 
L 235.340047 200.504588 
L 235.494642 200.504588 
L 235.610925 202.004713 
L 235.688243 202.004713 
L 235.80384 203.504838 
L 236.34493 203.504838 
L 236.49953 200.504588 
L 236.576825 200.504588 
L 236.808726 203.504838 
L 237.040627 203.504838 
L 237.156831 205.004963 
L 237.234051 205.004963 
L 237.350209 206.505088 
L 237.388482 206.505088 
L 237.504419 208.005213 
L 237.58172 208.005213 
L 237.697963 209.505338 
L 237.736315 209.505338 
L 237.85246 211.005463 
L 238.045912 211.005463 
L 238.200116 212.505588 
L 238.239047 212.505588 
L 238.393655 215.505838 
L 238.432014 215.505838 
L 238.586613 218.506088 
L 238.663907 218.506088 
L 238.741213 220.006213 
L 239.436907 220.006213 
L 239.51466 221.506338 
L 239.630273 221.506338 
L 239.746103 223.006463 
L 239.784872 223.006463 
L 239.9007 221.506338 
L 239.939643 221.506338 
L 240.055297 220.006213 
L 240.094021 220.006213 
L 240.209896 218.506088 
L 240.403305 218.506088 
L 240.519092 220.006213 
L 240.750996 220.006213 
L 240.867123 218.506088 
L 241.292089 218.506088 
L 241.44669 221.506338 
L 241.562804 221.506338 
L 241.679091 223.006463 
L 241.833186 224.506588 
L 241.987783 224.506588 
L 242.103931 226.006713 
L 242.142381 226.006713 
L 242.258489 227.506838 
L 242.296982 227.506838 
L 242.374279 226.006713 
L 242.490254 226.006713 
L 242.683476 221.506338 
L 242.722303 221.506338 
L 242.876894 218.506088 
L 242.992674 220.006213 
L 243.069976 220.006213 
L 243.147717 221.506338 
L 243.263348 221.506338 
L 243.379175 223.006463 
L 243.417994 223.006463 
L 243.533774 224.506588 
L 244.229468 224.506588 
L 244.345614 223.006463 
L 244.422926 223.006463 
L 244.538668 221.506338 
L 244.616494 223.006463 
L 244.770565 221.506338 
L 244.964028 221.506338 
L 245.118537 224.506588 
L 245.234361 224.506588 
L 245.31166 226.006713 
L 245.427693 226.006713 
L 245.543562 227.506838 
L 246.007358 227.506838 
L 246.393852 233.507338 
L 246.625753 233.507338 
L 246.741864 232.007213 
L 246.857648 233.507338 
L 246.896409 233.507338 
L 247.012245 235.007463 
L 247.166846 235.007463 
L 247.282977 236.507588 
L 247.398744 236.507588 
L 247.476041 238.007713 
L 247.630641 236.507588 
L 247.707947 236.507588 
L 247.74679 238.007713 
L 247.785237 236.507588 
L 248.094442 236.507588 
L 248.210599 235.007463 
L 248.712839 235.007463 
L 248.829016 236.507588 
L 249.292828 236.507588 
L 249.447427 233.507338 
L 249.524566 233.507338 
L 249.679336 236.507588 
L 249.872326 236.507588 
L 250.06579 232.007213 
L 250.722617 232.007213 
L 250.838791 233.507338 
L 250.99336 233.507338 
L 251.109121 235.007463 
L 251.263716 236.507588 
L 251.37994 235.007463 
L 251.766466 235.007463 
L 251.882441 233.507338 
L 252.114011 236.507588 
L 252.152948 236.507588 
L 252.307541 239.507838 
L 252.345911 239.507838 
L 252.50051 242.508088 
L 252.539413 242.508088 
L 252.655461 244.008213 
L 252.732415 244.008213 
L 252.848695 245.508338 
L 252.887007 245.508338 
L 253.003292 247.008463 
L 253.157781 247.008463 
L 253.273502 248.508588 
L 253.35118 248.508588 
L 253.582705 251.508838 
L 253.930821 251.508838 
L 254.046504 250.008713 
L 254.239996 250.008713 
L 254.355704 248.508588 
L 254.394602 248.508588 
L 254.510301 250.008713 
L 254.626529 250.008713 
L 254.781085 247.008463 
L 254.896795 247.008463 
L 255.013031 245.508338 
L 255.0514 245.508338 
L 255.167658 244.008213 
L 255.360594 244.008213 
L 255.476718 242.508088 
L 255.51552 242.508088 
L 255.669788 241.007963 
L 255.94065 241.007963 
L 256.095263 244.008213 
L 256.288657 244.008213 
L 256.404339 245.508338 
L 256.829286 245.508338 
L 256.984304 248.508588 
L 257.099962 248.508588 
L 257.254658 251.508838 
L 257.409359 251.508838 
L 257.524988 253.008963 
L 257.679586 253.008963 
L 257.795587 254.509088 
L 257.988782 250.008713 
L 258.06608 250.008713 
L 258.220685 247.008463 
L 258.297982 247.008463 
L 258.375278 248.508588 
L 258.414135 247.008463 
L 258.452983 248.508588 
L 258.529879 248.508588 
L 258.646104 247.008463 
L 258.839077 247.008463 
L 258.955328 248.508588 
L 259.302878 248.508588 
L 259.41907 250.008713 
L 259.53478 250.008713 
L 259.689377 247.008463 
L 260.230477 247.008463 
L 260.346664 245.508338 
L 260.771576 245.508338 
L 260.887816 247.008463 
L 260.965071 247.008463 
L 261.080774 248.508588 
L 261.235368 248.508588 
L 261.390381 245.508338 
L 261.738067 245.508338 
L 261.853772 244.008213 
L 262.047259 244.008213 
L 262.162967 245.508338 
L 262.201731 245.508338 
L 262.356421 248.508588 
L 262.394864 248.508588 
L 262.549464 251.508838 
L 262.781357 251.508838 
L 262.935963 250.008713 
L 262.974841 250.008713 
L 263.090561 251.508838 
L 263.167862 251.508838 
L 263.322455 254.509088 
L 263.399754 254.509088 
L 263.516051 256.009213 
L 263.670463 256.009213 
L 263.786256 257.509338 
L 264.211744 257.509338 
L 264.327353 259.009463 
L 264.366089 259.009463 
L 264.48195 257.509338 
L 264.752788 257.509338 
L 264.868452 256.009213 
L 264.907398 256.009213 
L 264.945752 254.509088 
L 265.10035 256.009213 
L 265.254947 256.009213 
L 265.409548 259.009463 
L 265.641446 259.009463 
L 265.719111 257.509338 
L 266.066847 257.509338 
L 266.259846 253.008963 
L 266.337143 253.008963 
L 266.414444 251.508838 
L 266.53043 251.508838 
L 266.569041 253.008963 
L 266.60786 251.508838 
L 266.917035 251.508838 
L 267.032843 253.008963 
L 267.264741 253.008963 
L 267.380915 251.508838 
L 267.419337 253.008963 
L 267.458221 251.508838 
L 267.844715 251.508838 
L 267.999148 254.509088 
L 268.037738 254.509088 
L 268.269635 260.509588 
L 268.463062 260.509588 
L 268.617696 257.509338 
L 268.733428 257.509338 
L 268.927011 253.008963 
L 269.004339 253.008963 
L 269.119929 251.508838 
L 269.197231 251.508838 
L 269.313517 253.008963 
L 269.429131 253.008963 
L 269.545293 251.508838 
L 269.661025 251.508838 
L 269.777292 253.008963 
L 269.892932 253.008963 
L 270.047527 256.009213 
L 270.240963 256.009213 
L 270.356724 257.509338 
L 270.395564 257.509338 
L 270.55023 254.509088 
L 270.704838 254.509088 
L 270.820922 253.008963 
L 271.28432 253.008963 
L 271.400539 251.508838 
L 271.516221 251.508838 
L 271.67082 253.008963 
L 271.748119 253.008963 
L 271.902717 256.009213 
L 271.980013 256.009213 
L 272.096316 254.509088 
L 272.366516 254.509088 
L 272.482663 256.009213 
L 272.521112 256.009213 
L 272.637391 257.509338 
L 272.753011 257.509338 
L 272.8692 259.009463 
L 273.062191 259.009463 
L 273.178397 257.509338 
L 273.371411 257.509338 
L 273.564964 262.009713 
L 273.60331 262.009713 
L 273.758359 265.009963 
L 273.912508 265.009963 
L 274.028747 266.510088 
L 274.067109 266.510088 
L 274.183271 265.009963 
L 274.22171 265.009963 
L 274.337938 263.509838 
L 274.453912 263.509838 
L 274.608204 265.009963 
L 274.685505 265.009963 
L 274.840106 268.010213 
L 275.342738 268.010213 
L 275.458504 266.510088 
L 275.497359 266.510088 
L 275.652053 263.509838 
L 275.767699 265.009963 
L 275.806396 265.009963 
L 275.922795 263.509838 
L 276.154199 260.509588 
L 276.540699 260.509588 
L 276.618 259.009463 
L 276.733982 259.009463 
L 276.811452 260.509588 
L 276.9272 259.009463 
L 276.966143 259.009463 
L 277.081795 260.509588 
L 277.236394 260.509588 
L 277.35263 262.009713 
L 277.468297 262.009713 
L 277.584544 263.509838 
L 277.661858 263.509838 
L 277.777494 262.009713 
L 277.893634 263.509838 
L 278.74403 263.509838 
L 278.898321 260.509588 
L 278.936987 260.509588 
L 279.246186 247.008463 
L 279.980807 173.502338 
L 280.174201 166.001713 
L 280.289917 166.001713 
L 280.444456 163.001463 
L 280.482979 163.001463 
L 280.521925 161.501338 
L 280.946769 190.003713 
L 281.140303 185.503338 
L 281.333265 185.503338 
L 281.44947 184.003213 
L 281.526823 184.003213 
L 281.681165 175.002463 
L 282.145143 141.999713 
L 282.492753 167.501838 
L 282.531659 166.001713 
L 282.763606 154.000713 
L 282.995389 141.999713 
L 283.034287 141.999713 
L 283.729533 117.997713 
L 283.922976 122.498088 
L 284.077646 122.498088 
L 284.193325 120.997963 
L 284.42522 131.498838 
L 284.502943 129.998713 
L 284.579818 129.998713 
L 284.696054 128.498588 
L 284.734417 128.498588 
L 284.92785 123.998213 
L 284.966313 123.998213 
L 285.159826 117.997713 
L 285.39169 129.998713 
L 285.5074 129.998713 
L 285.623648 128.498588 
L 285.739293 128.498588 
L 286.125794 116.497588 
L 286.164696 116.497588 
L 286.589584 129.998713 
L 286.744184 129.998713 
L 286.860386 131.498838 
L 286.937702 131.498838 
L 287.47856 108.996963 
L 287.517167 110.497088 
L 287.633389 113.497338 
L 287.710695 111.997213 
L 288.097197 123.998213 
L 288.174184 123.998213 
L 288.561003 107.496838 
L 288.599351 108.996963 
L 289.102011 140.499588 
L 289.17937 140.499588 
L 289.681536 157.000963 
L 289.720373 157.000963 
L 289.874961 154.000713 
L 289.913432 154.000713 
L 290.029663 152.500588 
L 290.06803 152.500588 
L 290.300388 158.501088 
L 290.454524 158.501088 
L 290.648095 154.000713 
L 290.686424 154.000713 
L 290.841024 157.000963 
L 290.918323 157.000963 
L 291.073329 160.001213 
L 291.18909 158.501088 
L 291.227513 158.501088 
L 291.34378 160.001213 
L 291.498336 160.001213 
L 291.614009 161.501338 
L 291.652848 161.501338 
L 291.807244 164.501588 
L 291.923204 164.501588 
L 292.039446 166.001713 
L 292.116754 166.001713 
L 292.541597 152.500588 
L 292.65781 155.500838 
L 293.082692 141.999713 
L 293.237673 141.999713 
L 293.623786 154.000713 
L 293.662501 154.000713 
L 293.817253 157.000963 
L 293.855679 157.000963 
L 293.933369 158.501088 
L 294.242177 154.000713 
L 294.319475 154.000713 
L 294.62867 143.499838 
L 294.706386 143.499838 
L 294.822151 141.999713 
L 295.015164 141.999713 
L 295.247062 148.000213 
L 295.285984 148.000213 
L 295.827129 129.998713 
L 295.865456 129.998713 
L 296.058988 134.499088 
L 296.2134 134.499088 
L 296.48384 141.999713 
L 296.561142 141.999713 
L 296.79304 148.000213 
L 296.94764 149.500338 
L 297.024937 149.500338 
L 297.141098 151.000463 
L 297.450357 151.000463 
L 297.566459 148.000213 
L 297.682111 148.000213 
L 297.797928 146.500088 
L 297.836801 146.500088 
L 297.952527 144.999963 
L 298.261722 144.999963 
L 298.41632 146.500088 
L 298.609816 146.500088 
L 298.725514 148.000213 
L 298.764456 148.000213 
L 298.880112 149.500338 
L 298.996198 149.500338 
L 299.150829 152.500588 
L 299.228173 152.500588 
L 299.343906 154.000713 
L 299.614786 154.000713 
L 299.653099 152.500588 
L 299.692063 154.000713 
L 300.039597 164.501588 
L 300.271496 167.501838 
L 300.387733 167.501838 
L 300.58069 172.002213 
L 300.657988 172.002213 
L 300.774185 173.502338 
L 300.812585 173.502338 
L 300.967182 176.502588 
L 301.005987 176.502588 
L 301.121785 178.002713 
L 301.199507 178.002713 
L 301.353682 179.502838 
L 301.430982 179.502838 
L 301.547211 181.002963 
L 301.585582 181.002963 
L 301.740178 184.003213 
L 301.856394 184.003213 
L 301.972542 185.503338 
L 302.088256 185.503338 
L 302.203972 187.003463 
L 302.281269 187.003463 
L 302.397511 188.503588 
L 302.435866 188.503588 
L 302.55217 190.003713 
L 302.590464 190.003713 
L 302.706409 191.503838 
L 303.788897 191.503838 
L 303.904556 193.003963 
L 304.368349 193.003963 
L 304.484576 194.504088 
L 305.721255 194.504088 
L 305.837034 193.003963 
L 305.914331 194.504088 
L 306.03058 193.003963 
L 306.494247 193.003963 
L 306.610023 194.504088 
L 306.803536 194.504088 
L 306.91922 196.004213 
L 306.958142 196.004213 
L 307.073823 197.504338 
L 307.112564 197.504338 
L 307.228417 199.004463 
L 307.305719 199.004463 
L 307.422007 200.504588 
L 307.499263 200.504588 
L 307.614917 202.004713 
L 307.885622 202.004713 
L 308.001416 203.504838 
L 308.387906 203.504838 
L 308.465591 205.004963 
L 308.851707 205.004963 
L 308.967963 206.505088 
L 309.238577 206.505088 
L 309.354375 208.005213 
L 309.50895 208.005213 
L 309.624696 209.505338 
L 310.39769 209.505338 
L 310.513892 211.005463 
L 312.020975 211.005463 
L 312.098691 212.505588 
L 312.252874 211.005463 
L 312.330173 211.005463 
L 312.446438 212.505588 
L 312.948567 212.505588 
L 313.064824 211.005463 
L 313.374006 211.005463 
L 313.489664 212.505588 
L 313.798859 212.505588 
L 313.953462 214.005713 
L 314.842717 214.005713 
L 314.958354 212.505588 
L 315.190252 212.505588 
L 315.306449 214.005713 
L 316.234049 214.005713 
L 316.349739 215.505838 
L 316.620492 215.505838 
L 316.736233 217.005963 
L 316.852529 217.005963 
L 316.96813 218.506088 
L 317.045429 218.506088 
L 317.16163 220.006213 
L 317.200483 220.006213 
L 317.354635 221.506338 
L 317.431932 221.506338 
L 317.548169 223.006463 
L 317.586531 223.006463 
L 317.741133 226.006713 
L 317.895732 226.006713 
L 318.05033 227.506838 
L 318.630335 227.506838 
L 318.746022 229.006963 
L 318.823325 229.006963 
L 318.977919 232.007213 
L 319.132518 232.007213 
L 319.248756 233.507338 
L 319.287119 233.507338 
L 319.364795 235.007463 
L 319.480459 235.007463 
L 319.596315 236.507588 
L 319.712403 236.507588 
L 319.828215 238.007713 
L 319.905514 238.007713 
L 320.021789 239.507838 
L 320.330907 239.507838 
L 320.446612 241.007963 
L 321.026646 241.007963 
L 321.142305 242.508088 
L 322.881807 242.508088 
L 322.997496 244.008213 
L 323.615893 244.008213 
L 323.69319 242.508088 
L 324.775388 242.508088 
L 324.891584 241.007963 
L 326.708377 241.007963 
L 326.824029 239.507838 
L 328.176561 239.507838 
L 328.292767 238.007713 
L 328.370085 238.007713 
L 328.485763 236.507588 
L 328.64036 236.507588 
L 328.756525 238.007713 
L 329.568358 238.007713 
L 329.722556 236.507588 
L 330.650147 236.507588 
L 330.76635 238.007713 
L 331.191247 238.007713 
L 331.307524 239.507838 
L 331.616676 239.507838 
L 331.732342 241.007963 
L 332.312223 241.007963 
L 332.505641 236.507588 
L 332.891829 236.507588 
L 333.00806 238.007713 
L 333.394523 238.007713 
L 333.510228 236.507588 
L 333.858336 236.507588 
L 333.974447 238.007713 
L 334.128626 238.007713 
L 334.244871 239.507838 
L 334.322123 239.507838 
L 334.437829 241.007963 
L 334.670187 241.007963 
L 334.82432 242.508088 
L 335.365419 242.508088 
L 335.520014 244.008213 
L 335.597316 244.008213 
L 335.713593 245.508338 
L 336.138911 245.508338 
L 336.293015 244.008213 
L 336.331943 244.008213 
L 336.447611 242.508088 
L 336.60221 242.508088 
L 336.718482 244.008213 
L 337.414169 244.008213 
L 337.529807 245.508338 
L 337.916303 245.508338 
L 338.032599 247.008463 
L 339.539595 247.008463 
L 339.655869 245.508338 
L 340.042392 245.508338 
L 340.157992 244.008213 
L 341.12452 244.008213 
L 341.2406 242.508088 
L 341.433698 242.508088 
L 341.549384 241.007963 
L 342.786174 241.007963 
L 342.902392 239.507838 
L 343.327272 239.507838 
L 343.404573 241.007963 
L 344.061909 241.007963 
L 344.139183 242.508088 
L 344.564062 242.508088 
L 344.680187 241.007963 
L 344.873262 241.007963 
L 345.027857 239.507838 
L 345.723556 239.507838 
L 345.839824 238.007713 
L 346.071718 238.007713 
L 346.187353 236.507588 
L 346.341949 236.507588 
L 346.496551 235.007463 
L 346.767451 235.007463 
L 346.883047 233.507338 
L 346.960349 233.507338 
L 347.037648 232.007213 
L 347.269546 232.007213 
L 347.38576 230.507088 
L 348.081571 230.507088 
L 348.197141 229.006963 
L 348.467958 229.006963 
L 348.584025 227.506838 
L 348.660936 227.506838 
L 348.815534 224.506588 
L 348.85433 224.506588 
L 348.970131 223.006463 
L 349.04743 223.006463 
L 349.163655 224.506588 
L 349.356625 224.506588 
L 349.472843 223.006463 
L 349.704757 223.006463 
L 349.820426 221.506338 
L 349.859344 221.506338 
L 349.975026 220.006213 
L 350.129622 218.506088 
L 350.323205 218.506088 
L 350.438821 217.005963 
L 350.477774 217.005963 
L 350.593419 215.505838 
L 350.941529 215.505838 
L 351.096214 218.506088 
L 351.520998 218.506088 
L 351.67561 215.505838 
L 351.714519 215.505838 
L 351.869114 212.505588 
L 351.907508 212.505588 
L 352.062107 209.505338 
L 352.178296 209.505338 
L 352.294002 208.005213 
L 352.680501 208.005213 
L 352.8351 205.004963 
L 352.912652 205.004963 
L 353.144298 202.004713 
L 353.221597 202.004713 
L 353.337866 203.504838 
L 353.453495 203.504838 
L 353.608093 200.504588 
L 353.685911 200.504588 
L 353.839987 197.504338 
L 353.95622 197.504338 
L 354.110795 200.504588 
L 354.188111 200.504588 
L 354.303791 199.004463 
L 354.342701 199.004463 
L 354.458385 197.504338 
L 354.535685 197.504338 
L 354.651767 196.004213 
L 354.844882 196.004213 
L 354.961139 194.504088 
L 354.999476 194.504088 
L 355.19278 190.003713 
L 355.23138 190.003713 
L 355.424902 185.503338 
L 355.579512 185.503338 
L 355.695172 184.003213 
L 355.734121 184.003213 
L 355.850231 182.503088 
L 355.927066 182.503088 
L 356.081663 185.503338 
L 356.1206 185.503338 
L 356.236265 184.003213 
L 356.352349 184.003213 
L 356.46816 182.503088 
L 356.545464 182.503088 
L 356.777358 176.502588 
L 357.048194 169.001963 
L 357.086558 169.001963 
L 357.241151 172.002213 
L 357.395753 173.502338 
L 357.51196 173.502338 
L 357.627649 172.002213 
L 357.898544 172.002213 
L 357.975824 167.501838 
L 358.40064 129.998713 
L 358.4395 129.998713 
L 358.903297 114.997463 
L 358.98066 114.997463 
L 359.250926 123.998213 
L 359.405521 117.997713 
L 359.444487 119.497838 
L 359.483335 119.497838 
L 359.598919 123.998213 
L 360.101211 101.496338 
L 360.410412 84.994963 
L 360.487706 84.994963 
L 360.719598 90.995463 
L 360.951822 80.494588 
L 361.145049 89.495338 
L 361.724482 148.000213 
L 361.763248 148.000213 
L 361.87908 141.999713 
L 362.265573 108.996963 
L 362.30457 107.496838 
L 362.342873 108.996963 
L 362.497466 110.497088 
L 362.536341 110.497088 
L 362.652068 104.496588 
L 362.691045 105.996713 
L 362.806664 107.496838 
L 363.000133 107.496838 
L 363.077561 102.996463 
L 363.386669 78.994463 
L 363.464014 72.993963 
L 363.502357 74.494088 
L 363.811546 90.995463 
L 364.198037 96.995963 
L 364.236951 96.995963 
L 364.429938 101.496338 
L 364.623206 101.496338 
L 364.661834 102.996463 
L 364.700677 101.496338 
L 364.778013 101.496338 
L 364.932648 105.996713 
L 365.048329 104.496588 
L 365.125626 104.496588 
L 365.975915 134.499088 
L 366.053191 134.499088 
L 366.091927 132.998963 
L 366.130508 134.499088 
L 366.169397 134.499088 
L 366.285111 135.999213 
L 366.32398 135.999213 
L 366.555885 141.999713 
L 366.787549 141.999713 
L 366.9424 144.999963 
L 366.980801 144.999963 
L 367.135401 141.999713 
L 367.212695 141.999713 
L 367.367294 138.999463 
L 367.445116 138.999463 
L 367.59919 137.499338 
L 367.676489 137.499338 
L 367.870063 141.999713 
L 367.947338 141.999713 
L 368.062987 143.499838 
L 368.140286 141.999713 
L 368.372181 141.999713 
L 368.526779 144.999963 
L 368.565748 144.999963 
L 368.720339 148.000213 
L 368.758672 148.000213 
L 368.874904 149.500338 
L 368.913725 149.500338 
L 369.067869 151.000463 
L 369.222468 151.000463 
L 369.33863 152.500588 
L 369.41599 152.500588 
L 369.531662 154.000713 
L 369.918159 154.000713 
L 370.034349 155.500838 
L 370.150055 155.500838 
L 370.266214 157.000963 
L 370.65276 157.000963 
L 370.768447 158.501088 
L 371.078041 158.501088 
L 371.232243 160.001213 
L 371.27115 160.001213 
L 371.38684 161.501338 
L 371.54144 161.501338 
L 371.657758 163.001463 
L 371.773335 163.001463 
L 371.927935 164.501588 
L 372.005235 164.501588 
L 372.121462 166.001713 
L 372.23713 166.001713 
L 372.391732 169.001963 
L 372.507926 169.001963 
L 372.623624 170.502088 
L 372.778222 170.502088 
L 372.894267 172.002213 
L 373.203585 172.002213 
L 373.319311 173.502338 
L 373.473917 173.502338 
L 373.590142 175.002463 
L 373.783108 175.002463 
L 373.899363 176.502588 
L 374.13114 176.502588 
L 374.246904 178.002713 
L 374.711193 178.002713 
L 374.865298 179.502838 
L 375.522388 179.502838 
L 375.63829 178.002713 
L 375.792887 178.002713 
L 375.909152 179.502838 
L 375.986469 179.502838 
L 376.102085 178.002713 
L 376.488578 178.002713 
L 376.604759 179.502838 
L 376.64318 179.502838 
L 376.759421 181.002963 
L 376.797778 181.002963 
L 376.875072 182.503088 
L 377.02967 182.503088 
L 377.18427 179.502838 
L 378.498356 179.502838 
L 378.614637 181.002963 
L 379.348646 181.002963 
L 379.46494 179.502838 
L 379.735141 179.502838 
L 379.812918 178.002713 
L 379.967036 178.002713 
L 380.083293 176.502588 
L 380.740032 176.502588 
L 380.856286 175.002463 
L 380.933637 175.002463 
L 381.010764 173.502338 
L 381.126528 175.002463 
L 381.513021 175.002463 
L 381.629172 176.502588 
L 381.861192 176.502588 
L 381.977288 178.002713 
L 382.32499 178.002713 
L 382.440611 179.502838 
L 382.479603 179.502838 
L 382.595213 181.002963 
L 382.788496 181.002963 
L 382.904404 179.502838 
L 383.097825 179.502838 
L 383.213605 181.002963 
L 383.368201 181.002963 
L 383.445971 182.503088 
L 383.600097 182.503088 
L 383.716318 184.003213 
L 383.948252 184.003213 
L 384.102859 187.003463 
L 384.141189 187.003463 
L 384.373088 190.003713 
L 384.411947 190.003713 
L 384.527688 191.503838 
L 384.566409 191.503838 
L 384.682282 193.003963 
L 384.798488 193.003963 
L 384.914679 194.504088 
L 384.952839 194.504088 
L 385.107724 197.504338 
L 386.460168 197.504338 
L 386.576373 196.004213 
L 386.769363 196.004213 
L 386.885617 194.504088 
L 387.581242 194.504088 
L 387.696955 193.003963 
L 388.006149 193.003963 
L 388.122345 191.503838 
L 388.160748 191.503838 
L 388.469946 187.003463 
L 388.740735 187.003463 
L 388.856439 185.503338 
L 389.165636 185.503338 
L 389.243326 184.003213 
L 389.629433 184.003213 
L 389.745647 185.503338 
L 390.634322 185.503338 
L 390.711987 187.003463 
L 391.252713 187.003463 
L 391.368898 185.503338 
L 391.40731 185.503338 
L 391.639207 188.503588 
L 391.755405 188.503588 
L 391.871108 187.003463 
L 392.103003 187.003463 
L 392.218939 188.503588 
L 392.721397 188.503588 
L 392.798697 187.003463 
L 392.875997 188.503588 
L 393.185195 188.503588 
L 393.301363 190.003713 
L 393.494388 190.003713 
L 393.57169 188.503588 
L 393.687659 188.503588 
L 393.842322 191.503838 
L 394.345091 191.503838 
L 394.499279 193.003963 
L 394.615555 193.003963 
L 394.731177 194.504088 
L 395.001978 194.504088 
L 395.118145 193.003963 
L 395.581471 193.003963 
L 395.697665 194.504088 
L 395.967968 194.504088 
L 396.084124 196.004213 
L 396.122564 196.004213 
L 396.238787 197.504338 
L 396.277163 197.504338 
L 396.431762 200.504588 
L 396.509061 200.504588 
L 396.66366 202.004713 
L 396.702455 202.004713 
L 396.818259 200.504588 
L 396.896016 200.504588 
L 397.050157 197.504338 
L 397.398183 197.504338 
L 397.552889 200.504588 
L 397.66855 200.504588 
L 397.784804 199.004463 
L 397.939331 199.004463 
L 398.093806 202.004713 
L 398.132347 202.004713 
L 398.286946 205.004963 
L 398.441541 205.004963 
L 398.557766 206.505088 
L 398.78943 206.505088 
L 398.944276 203.504838 
L 399.562521 203.504838 
L 399.717256 200.504588 
L 399.75563 200.504588 
L 399.871866 199.004463 
L 400.064827 199.004463 
L 400.142128 200.504588 
L 400.219407 200.504588 
L 400.335614 199.004463 
L 400.451322 199.004463 
L 400.567492 200.504588 
L 400.799461 200.504588 
L 400.876701 199.004463 
L 400.992416 200.504588 
L 401.186018 200.504588 
L 401.340583 197.504338 
L 401.688111 197.504338 
L 401.726856 199.004463 
L 401.765414 197.504338 
L 401.920006 197.504338 
L 402.074609 200.504588 
L 402.190768 200.504588 
L 402.306509 202.004713 
L 402.499949 202.004713 
L 402.615702 203.504838 
L 402.654643 203.504838 
L 402.770299 202.004713 
L 402.886543 202.004713 
L 403.079934 206.505088 
L 403.465996 212.505588 
L 403.582285 212.505588 
L 403.697894 214.005713 
L 404.007088 214.005713 
L 404.16169 211.005463 
L 404.47089 211.005463 
L 404.625486 214.005713 
L 404.741654 214.005713 
L 404.857382 215.505838 
L 404.973601 215.505838 
L 405.089286 214.005713 
L 405.243881 214.005713 
L 405.475778 211.005463 
L 405.669312 211.005463 
L 405.784975 212.505588 
L 405.823891 212.505588 
L 406.017226 208.005213 
L 406.21044 208.005213 
L 406.365017 211.005463 
L 406.557969 211.005463 
L 406.712981 214.005713 
L 406.828635 214.005713 
L 406.944463 215.505838 
L 407.292629 215.505838 
L 407.408262 218.506088 
L 407.562863 218.506088 
L 407.679129 220.006213 
L 407.756446 220.006213 
L 407.872061 221.506338 
L 407.988334 221.506338 
L 408.103957 220.006213 
L 408.451993 220.006213 
L 408.60671 217.005963 
L 408.722355 217.005963 
L 408.838604 218.506088 
L 408.876954 218.506088 
L 409.031549 220.006213 
L 409.456993 220.006213 
L 409.611575 223.006463 
L 409.766069 223.006463 
L 409.881846 224.506588 
L 409.920635 224.506588 
L 410.036444 226.006713 
L 410.075374 226.006713 
L 410.229889 229.006963 
L 410.345997 229.006963 
L 410.500237 227.506838 
L 410.925703 227.506838 
L 411.157312 221.506338 
L 411.35053 221.506338 
L 411.50513 224.506588 
L 411.582431 224.506588 
L 411.737026 221.506338 
L 412.278125 221.506338 
L 412.394303 220.006213 
L 412.664622 220.006213 
L 412.819222 223.006463 
L 412.89652 223.006463 
L 413.012725 224.506588 
L 413.244629 224.506588 
L 413.399125 227.506838 
L 413.824113 227.506838 
L 413.901412 226.006713 
L 413.978712 227.506838 
L 414.094748 227.506838 
L 414.210615 229.006963 
L 414.558812 229.006963 
L 414.674405 230.507088 
L 414.983604 230.507088 
L 415.099815 232.007213 
L 415.138202 232.007213 
L 415.25447 233.507338 
L 415.3701 233.507338 
L 415.447842 235.007463 
L 415.601998 233.507338 
L 415.679302 233.507338 
L 415.795372 235.007463 
L 415.872771 235.007463 
L 415.988499 233.507338 
L 416.143097 233.507338 
L 416.297698 232.007213 
L 416.56847 232.007213 
L 416.684192 233.507338 
L 416.916524 227.506838 
L 417.070689 226.006713 
L 417.379889 226.006713 
L 417.534487 223.006463 
L 417.57346 223.006463 
L 417.689067 221.506338 
L 417.843687 221.506338 
L 417.998283 218.506088 
L 418.269071 218.506088 
L 418.771276 196.004213 
L 419.19652 170.502088 
L 419.312372 169.001963 
L 419.351314 169.001963 
L 419.621564 155.500838 
L 419.776162 148.000213 
L 420.008061 148.000213 
L 420.317257 138.999463 
L 420.394554 138.999463 
L 420.549613 143.499838 
L 420.626449 141.999713 
L 420.70375 143.499838 
L 421.012944 132.998963 
L 421.206474 137.499338 
L 421.360861 129.998713 
L 421.670112 104.496588 
L 421.940531 92.495588 
L 422.018197 93.995713 
L 422.056486 93.995713 
L 422.249725 95.495838 
L 422.365764 93.995713 
L 422.713911 83.494838 
L 422.790821 84.994963 
L 423.022712 98.496088 
L 423.216287 93.995713 
L 423.331908 93.995713 
L 423.409203 90.995463 
L 423.6411 101.496338 
L 423.872997 107.496838 
L 424.18266 92.495588 
L 424.452999 78.994463 
L 424.56869 72.993963 
L 424.607492 74.494088 
L 424.878301 89.495338 
L 425.109773 86.495088 
L 425.18707 86.495088 
L 425.264374 84.994963 
L 425.418966 87.995213 
L 425.457914 87.995213 
L 425.844324 74.494088 
L 425.921631 75.994213 
L 426.076149 72.993963 
L 426.114657 72.993963 
L 426.308123 77.494338 
L 426.501154 78.994463 
L 426.578448 77.494338 
L 426.655751 78.994463 
L 426.849294 78.994463 
L 427.042242 84.994963 
L 427.158411 83.494838 
L 427.313065 86.495088 
L 427.351431 86.495088 
L 427.428736 83.494838 
L 427.467678 84.994963 
L 427.622299 89.495338 
L 427.737913 87.995213 
L 427.815223 90.995463 
L 428.859059 93.995713 
L 429.47741 72.993963 
L 429.515801 72.993963 
L 429.631979 77.494338 
L 429.979597 60.992963 
L 430.095813 56.492588 
L 430.404968 81.994713 
L 430.482214 81.994713 
L 430.520685 80.494588 
L 430.559606 81.994713 
L 430.598436 81.994713 
L 430.7915 86.495088 
L 430.868797 86.495088 
L 431.100621 80.494588 
L 431.255148 84.994963 
L 431.370968 78.994463 
L 431.602863 63.993213 
L 431.912054 45.991713 
L 431.950916 45.991713 
L 432.143951 38.491088 
L 432.26017 39.991213 
L 432.298551 38.491088 
L 432.337315 39.991213 
L 432.414623 39.991213 
L 432.607739 44.491588 
L 432.685038 44.491588 
L 432.762801 41.491338 
L 432.878432 41.491338 
L 432.994237 36.990963 
L 433.033153 38.491088 
L 433.419617 56.492588 
L 433.574056 62.493088 
L 433.651526 62.493088 
L 434.424556 89.495338 
L 434.462901 89.495338 
L 434.772102 80.494588 
L 434.811047 80.494588 
L 434.888317 78.994463 
L 435.003998 80.494588 
L 435.081298 80.494588 
L 435.274821 72.993963 
L 435.313195 71.493838 
L 435.351935 72.993963 
L 435.467791 74.494088 
L 435.545087 74.494088 
L 435.622387 71.493838 
L 436.008879 77.494338 
L 436.047821 77.494338 
L 436.279746 71.493838 
L 436.356873 71.493838 
L 436.472671 69.993713 
L 436.51149 69.993713 
L 436.781866 77.494338 
L 437.013761 77.494338 
L 437.670991 105.996713 
L 437.941343 119.497838 
L 438.250542 128.498588 
L 438.327836 128.498588 
L 438.560063 134.499088 
L 438.868932 138.999463 
L 438.907868 138.999463 
L 439.062383 141.999713 
L 439.139657 141.999713 
L 439.255431 144.999963 
L 439.371459 144.999963 
L 439.487325 146.500088 
L 443.352276 164.501588 
L 443.468455 166.001713 
L 443.545658 166.001713 
L 443.661469 167.501838 
L 443.81639 167.501838 
L 443.970669 169.001963 
L 444.511762 169.001963 
L 444.666356 170.502088 
L 444.782597 170.502088 
L 444.898256 169.001963 
L 445.053228 169.001963 
L 445.169052 170.502088 
L 445.246288 170.502088 
L 445.362049 172.002213 
L 445.478263 170.502088 
L 445.671239 170.502088 
L 445.787371 172.002213 
L 445.825839 172.002213 
L 445.941975 173.502338 
L 445.980438 173.502338 
L 446.135039 175.002463 
L 446.173894 175.002463 
L 446.366935 179.502838 
L 446.48303 179.502838 
L 446.598832 181.002963 
L 446.676132 181.002963 
L 446.830724 182.503088 
L 446.908025 182.503088 
L 447.02422 184.003213 
L 447.256088 184.003213 
L 447.41059 187.003463 
L 447.603717 187.003463 
L 447.758314 184.003213 
L 447.951654 184.003213 
L 448.067509 182.503088 
L 448.22257 182.503088 
L 448.260799 184.003213 
L 448.72481 185.503338 
L 448.840501 184.003213 
L 449.033935 184.003213 
L 449.072402 185.503338 
L 449.343204 185.503338 
L 449.458897 184.003213 
L 449.729697 184.003213 
L 449.845394 185.503338 
L 449.96138 185.503338 
L 450 187.003463 
L 450 187.003463 
" clip-path="url(#pe8b0883323)" style="fill: none; stroke: #1f77b4; stroke-width: 1.5; stroke-linecap: square"/>
   </g>
   <g id="patch_3">
    <path d="M 46.46 279.561175 
L 46.46 25.44 
" style="fill: none; stroke: #000000; stroke-width: 0.8; stroke-linejoin: miter; stroke-linecap: square"/>
   </g>
   <g id="patch_4">
    <path d="M 450 279.561175 
L 450 25.44 
" style="fill: none; stroke: #000000; stroke-width: 0.8; stroke-linejoin: miter; stroke-linecap: square"/>
   </g>
   <g id="patch_5">
    <path d="M 46.46 279.561175 
L 450 279.561175 
" style="fill: none; stroke: #000000; stroke-width: 0.8; stroke-linejoin: miter; stroke-linecap: square"/>
   </g>
   <g id="patch_6">
    <path d="M 46.46 25.44 
L 450 25.44 
" style="fill: none; stroke: #000000; stroke-width: 0.8; stroke-linejoin: miter; stroke-linecap: square"/>
   </g>
   <g id="text_15">
    <!-- November 2023 -->
    <g transform="translate(199.838125 19.44) scale(0.12 -0.12)">
     <defs>
      <path id="DejaVuSans-4e" d="M 628 4666 
L 1478 4666 
L 3547 763 
L 3547 4666 
L 4159 4666 
L 4159 0 
L 3309 0 
L 1241 3903 
L 1241 0 
L 628 0 
L 628 4666 
z
" transform="scale(0.015625)"/>
      <path id="DejaVuSans-6f" d="M 1959 3097 
Q 1497 3097 1228 2736 
Q 959 2375 959 1747 
Q 959 1119 1226 758 
Q 1494 397 1959 397 
Q 2419 397 2687 759 
Q 2956 1122 2956 1747 
Q 2956 2369 2687 2733 
Q 2419 3097 1959 3097 
z
M 1959 3584 
Q 2709 3584 3137 3096 
Q 3566 2609 3566 1747 
Q 3566 888 3137 398 
Q 2709 -91 1959 -91 
Q 1206 -91 779 398 
Q 353 888 353 1747 
Q 353 2609 779 3096 
Q 1206 3584 1959 3584 
z
" transform="scale(0.015625)"/>
      <path id="DejaVuSans-76" d="M 191 3500 
L 800 3500 
L 1894 563 
L 2988 3500 
L 3597 3500 
L 2284 0 
L 1503 0 
L 191 3500 
z
" transform="scale(0.015625)"/>
      <path id="DejaVuSans-62" d="M 3116 1747 
Q 3116 2381 2855 2742 
Q 2594 3103 2138 3103 
Q 1681 3103 1420 2742 
Q 1159 2381 1159 1747 
Q 1159 1113 1420 752 
Q 1681 391 2138 391 
Q 2594 391 2855 752 
Q 3116 1113 3116 1747 
z
M 1159 2969 
Q 1341 3281 1617 3432 
Q 1894 3584 2278 3584 
Q 2916 3584 3314 3078 
Q 3713 2572 3713 1747 
Q 3713 922 3314 415 
Q 2916 -91 2278 -91 
Q 1894 -91 1617 61 
Q 1341 213 1159 525 
L 1159 0 
L 581 0 
L 581 4863 
L 1159 4863 
L 1159 2969 
z
" transform="scale(0.015625)"/>
     </defs>
     <use xlink:href="#DejaVuSans-4e"/>
     <use xlink:href="#DejaVuSans-6f" x="74.804688"/>
     <use xlink:href="#DejaVuSans-76" x="135.986328"/>
     <use xlink:href="#DejaVuSans-65" x="195.166016"/>
     <use xlink:href="#DejaVuSans-6d" x="256.689453"/>
     <use xlink:href="#DejaVuSans-62" x="354.101562"/>
     <use xlink:href="#DejaVuSans-65" x="417.578125"/>
     <use xlink:href="#DejaVuSans-72" x="479.101562"/>
     <use xlink:href="#DejaVuSans-20" x="520.214844"/>
     <use xlink:href="#DejaVuSans-32" x="552.001953"/>
     <use xlink:href="#DejaVuSans-30" x="615.625"/>
     <use xlink:href="#DejaVuSans-32" x="679.248047"/>
     <use xlink:href="#DejaVuSans-33" x="742.871094"/>
    </g>
   </g>
  </g>
 </g>
 <defs>
  <clipPath id="pe8b0883323">
   <rect x="46.46" y="25.44" width="403.54" height="254.121175"/>
  </clipPath>
 </defs>
</svg>
