<?xml version="1.0" encoding="utf-8" standalone="no"?>
<!DOCTYPE svg PUBLIC "-//W3C//DTD SVG 1.1//EN"
  "http://www.w3.org/Graphics/SVG/1.1/DTD/svg11.dtd">
<svg xmlns:xlink="http://www.w3.org/1999/xlink" width="460.8pt" height="345.6pt" viewBox="0 0 460.8 345.6" xmlns="http://www.w3.org/2000/svg" version="1.1">
 <metadata>
  <rdf:RDF xmlns:dc="http://purl.org/dc/elements/1.1/" xmlns:cc="http://creativecommons.org/ns#" xmlns:rdf="http://www.w3.org/1999/02/22-rdf-syntax-ns#">
   <cc:Work>
    <dc:type rdf:resource="http://purl.org/dc/dcmitype/StillImage"/>
    <dc:date>2023-11-07T19:32:00.980420</dc:date>
    <dc:format>image/svg+xml</dc:format>
    <dc:creator>
     <cc:Agent>
      <dc:title>Matplotlib v3.6.3, https://matplotlib.org/</dc:title>
     </cc:Agent>
    </dc:creator>
   </cc:Work>
  </rdf:RDF>
 </metadata>
 <defs>
  <style type="text/css">*{stroke-linejoin: round; stroke-linecap: butt}</style>
 </defs>
 <g id="figure_1">
  <g id="patch_1">
   <path d="M 0 345.6 
L 460.8 345.6 
L 460.8 0 
L 0 0 
z
" style="fill: #ffffff"/>
  </g>
  <g id="axes_1">
   <g id="patch_2">
    <path d="M 51.05 279.561175 
L 450 279.561175 
L 450 25.44 
L 51.05 25.44 
z
" style="fill: #ffffff"/>
   </g>
   <g id="matplotlib.axis_1">
    <g id="xtick_1">
     <g id="line2d_1">
      <path d="M 109.578434 279.561175 
L 109.578434 25.44 
" clip-path="url(#p30693fe4ca)" style="fill: none; stroke: #b0b0b0; stroke-width: 0.8; stroke-linecap: square"/>
     </g>
     <g id="line2d_2">
      <defs>
       <path id="m08a5ebbce8" d="M 0 0 
L 0 3.5 
" style="stroke: #000000; stroke-width: 0.8"/>
      </defs>
      <g>
       <use xlink:href="#m08a5ebbce8" x="109.578434" y="279.561175" style="stroke: #000000; stroke-width: 0.8"/>
      </g>
     </g>
     <g id="text_1">
      <!-- 2023-11-02 -->
      <g transform="translate(67.01392 333.028035) rotate(-45) scale(0.1 -0.1)">
       <defs>
        <path id="DejaVuSans-32" d="M 1228 531 
L 3431 531 
L 3431 0 
L 469 0 
L 469 531 
Q 828 903 1448 1529 
Q 2069 2156 2228 2338 
Q 2531 2678 2651 2914 
Q 2772 3150 2772 3378 
Q 2772 3750 2511 3984 
Q 2250 4219 1831 4219 
Q 1534 4219 1204 4116 
Q 875 4013 500 3803 
L 500 4441 
Q 881 4594 1212 4672 
Q 1544 4750 1819 4750 
Q 2544 4750 2975 4387 
Q 3406 4025 3406 3419 
Q 3406 3131 3298 2873 
Q 3191 2616 2906 2266 
Q 2828 2175 2409 1742 
Q 1991 1309 1228 531 
z
" transform="scale(0.015625)"/>
        <path id="DejaVuSans-30" d="M 2034 4250 
Q 1547 4250 1301 3770 
Q 1056 3291 1056 2328 
Q 1056 1369 1301 889 
Q 1547 409 2034 409 
Q 2525 409 2770 889 
Q 3016 1369 3016 2328 
Q 3016 3291 2770 3770 
Q 2525 4250 2034 4250 
z
M 2034 4750 
Q 2819 4750 3233 4129 
Q 3647 3509 3647 2328 
Q 3647 1150 3233 529 
Q 2819 -91 2034 -91 
Q 1250 -91 836 529 
Q 422 1150 422 2328 
Q 422 3509 836 4129 
Q 1250 4750 2034 4750 
z
" transform="scale(0.015625)"/>
        <path id="DejaVuSans-33" d="M 2597 2516 
Q 3050 2419 3304 2112 
Q 3559 1806 3559 1356 
Q 3559 666 3084 287 
Q 2609 -91 1734 -91 
Q 1441 -91 1130 -33 
Q 819 25 488 141 
L 488 750 
Q 750 597 1062 519 
Q 1375 441 1716 441 
Q 2309 441 2620 675 
Q 2931 909 2931 1356 
Q 2931 1769 2642 2001 
Q 2353 2234 1838 2234 
L 1294 2234 
L 1294 2753 
L 1863 2753 
Q 2328 2753 2575 2939 
Q 2822 3125 2822 3475 
Q 2822 3834 2567 4026 
Q 2313 4219 1838 4219 
Q 1578 4219 1281 4162 
Q 984 4106 628 3988 
L 628 4550 
Q 988 4650 1302 4700 
Q 1616 4750 1894 4750 
Q 2613 4750 3031 4423 
Q 3450 4097 3450 3541 
Q 3450 3153 3228 2886 
Q 3006 2619 2597 2516 
z
" transform="scale(0.015625)"/>
        <path id="DejaVuSans-2d" d="M 313 2009 
L 1997 2009 
L 1997 1497 
L 313 1497 
L 313 2009 
z
" transform="scale(0.015625)"/>
        <path id="DejaVuSans-31" d="M 794 531 
L 1825 531 
L 1825 4091 
L 703 3866 
L 703 4441 
L 1819 4666 
L 2450 4666 
L 2450 531 
L 3481 531 
L 3481 0 
L 794 0 
L 794 531 
z
" transform="scale(0.015625)"/>
       </defs>
       <use xlink:href="#DejaVuSans-32"/>
       <use xlink:href="#DejaVuSans-30" x="63.623047"/>
       <use xlink:href="#DejaVuSans-32" x="127.246094"/>
       <use xlink:href="#DejaVuSans-33" x="190.869141"/>
       <use xlink:href="#DejaVuSans-2d" x="254.492188"/>
       <use xlink:href="#DejaVuSans-31" x="290.576172"/>
       <use xlink:href="#DejaVuSans-31" x="354.199219"/>
       <use xlink:href="#DejaVuSans-2d" x="417.822266"/>
       <use xlink:href="#DejaVuSans-30" x="453.90625"/>
       <use xlink:href="#DejaVuSans-32" x="517.529297"/>
      </g>
     </g>
    </g>
    <g id="xtick_2">
     <g id="line2d_3">
      <path d="M 168.138022 279.561175 
L 168.138022 25.44 
" clip-path="url(#p30693fe4ca)" style="fill: none; stroke: #b0b0b0; stroke-width: 0.8; stroke-linecap: square"/>
     </g>
     <g id="line2d_4">
      <g>
       <use xlink:href="#m08a5ebbce8" x="168.138022" y="279.561175" style="stroke: #000000; stroke-width: 0.8"/>
      </g>
     </g>
     <g id="text_2">
      <!-- 2023-11-03 -->
      <g transform="translate(125.573508 333.028035) rotate(-45) scale(0.1 -0.1)">
       <use xlink:href="#DejaVuSans-32"/>
       <use xlink:href="#DejaVuSans-30" x="63.623047"/>
       <use xlink:href="#DejaVuSans-32" x="127.246094"/>
       <use xlink:href="#DejaVuSans-33" x="190.869141"/>
       <use xlink:href="#DejaVuSans-2d" x="254.492188"/>
       <use xlink:href="#DejaVuSans-31" x="290.576172"/>
       <use xlink:href="#DejaVuSans-31" x="354.199219"/>
       <use xlink:href="#DejaVuSans-2d" x="417.822266"/>
       <use xlink:href="#DejaVuSans-30" x="453.90625"/>
       <use xlink:href="#DejaVuSans-33" x="517.529297"/>
      </g>
     </g>
    </g>
    <g id="xtick_3">
     <g id="line2d_5">
      <path d="M 226.697609 279.561175 
L 226.697609 25.44 
" clip-path="url(#p30693fe4ca)" style="fill: none; stroke: #b0b0b0; stroke-width: 0.8; stroke-linecap: square"/>
     </g>
     <g id="line2d_6">
      <g>
       <use xlink:href="#m08a5ebbce8" x="226.697609" y="279.561175" style="stroke: #000000; stroke-width: 0.8"/>
      </g>
     </g>
     <g id="text_3">
      <!-- 2023-11-04 -->
      <g transform="translate(184.133096 333.028035) rotate(-45) scale(0.1 -0.1)">
       <defs>
        <path id="DejaVuSans-34" d="M 2419 4116 
L 825 1625 
L 2419 1625 
L 2419 4116 
z
M 2253 4666 
L 3047 4666 
L 3047 1625 
L 3713 1625 
L 3713 1100 
L 3047 1100 
L 3047 0 
L 2419 0 
L 2419 1100 
L 313 1100 
L 313 1709 
L 2253 4666 
z
" transform="scale(0.015625)"/>
       </defs>
       <use xlink:href="#DejaVuSans-32"/>
       <use xlink:href="#DejaVuSans-30" x="63.623047"/>
       <use xlink:href="#DejaVuSans-32" x="127.246094"/>
       <use xlink:href="#DejaVuSans-33" x="190.869141"/>
       <use xlink:href="#DejaVuSans-2d" x="254.492188"/>
       <use xlink:href="#DejaVuSans-31" x="290.576172"/>
       <use xlink:href="#DejaVuSans-31" x="354.199219"/>
       <use xlink:href="#DejaVuSans-2d" x="417.822266"/>
       <use xlink:href="#DejaVuSans-30" x="453.90625"/>
       <use xlink:href="#DejaVuSans-34" x="517.529297"/>
      </g>
     </g>
    </g>
    <g id="xtick_4">
     <g id="line2d_7">
      <path d="M 285.257197 279.561175 
L 285.257197 25.44 
" clip-path="url(#p30693fe4ca)" style="fill: none; stroke: #b0b0b0; stroke-width: 0.8; stroke-linecap: square"/>
     </g>
     <g id="line2d_8">
      <g>
       <use xlink:href="#m08a5ebbce8" x="285.257197" y="279.561175" style="stroke: #000000; stroke-width: 0.8"/>
      </g>
     </g>
     <g id="text_4">
      <!-- 2023-11-05 -->
      <g transform="translate(242.692684 333.028035) rotate(-45) scale(0.1 -0.1)">
       <defs>
        <path id="DejaVuSans-35" d="M 691 4666 
L 3169 4666 
L 3169 4134 
L 1269 4134 
L 1269 2991 
Q 1406 3038 1543 3061 
Q 1681 3084 1819 3084 
Q 2600 3084 3056 2656 
Q 3513 2228 3513 1497 
Q 3513 744 3044 326 
Q 2575 -91 1722 -91 
Q 1428 -91 1123 -41 
Q 819 9 494 109 
L 494 744 
Q 775 591 1075 516 
Q 1375 441 1709 441 
Q 2250 441 2565 725 
Q 2881 1009 2881 1497 
Q 2881 1984 2565 2268 
Q 2250 2553 1709 2553 
Q 1456 2553 1204 2497 
Q 953 2441 691 2322 
L 691 4666 
z
" transform="scale(0.015625)"/>
       </defs>
       <use xlink:href="#DejaVuSans-32"/>
       <use xlink:href="#DejaVuSans-30" x="63.623047"/>
       <use xlink:href="#DejaVuSans-32" x="127.246094"/>
       <use xlink:href="#DejaVuSans-33" x="190.869141"/>
       <use xlink:href="#DejaVuSans-2d" x="254.492188"/>
       <use xlink:href="#DejaVuSans-31" x="290.576172"/>
       <use xlink:href="#DejaVuSans-31" x="354.199219"/>
       <use xlink:href="#DejaVuSans-2d" x="417.822266"/>
       <use xlink:href="#DejaVuSans-30" x="453.90625"/>
       <use xlink:href="#DejaVuSans-35" x="517.529297"/>
      </g>
     </g>
    </g>
    <g id="xtick_5">
     <g id="line2d_9">
      <path d="M 343.816785 279.561175 
L 343.816785 25.44 
" clip-path="url(#p30693fe4ca)" style="fill: none; stroke: #b0b0b0; stroke-width: 0.8; stroke-linecap: square"/>
     </g>
     <g id="line2d_10">
      <g>
       <use xlink:href="#m08a5ebbce8" x="343.816785" y="279.561175" style="stroke: #000000; stroke-width: 0.8"/>
      </g>
     </g>
     <g id="text_5">
      <!-- 2023-11-06 -->
      <g transform="translate(301.252272 333.028035) rotate(-45) scale(0.1 -0.1)">
       <defs>
        <path id="DejaVuSans-36" d="M 2113 2584 
Q 1688 2584 1439 2293 
Q 1191 2003 1191 1497 
Q 1191 994 1439 701 
Q 1688 409 2113 409 
Q 2538 409 2786 701 
Q 3034 994 3034 1497 
Q 3034 2003 2786 2293 
Q 2538 2584 2113 2584 
z
M 3366 4563 
L 3366 3988 
Q 3128 4100 2886 4159 
Q 2644 4219 2406 4219 
Q 1781 4219 1451 3797 
Q 1122 3375 1075 2522 
Q 1259 2794 1537 2939 
Q 1816 3084 2150 3084 
Q 2853 3084 3261 2657 
Q 3669 2231 3669 1497 
Q 3669 778 3244 343 
Q 2819 -91 2113 -91 
Q 1303 -91 875 529 
Q 447 1150 447 2328 
Q 447 3434 972 4092 
Q 1497 4750 2381 4750 
Q 2619 4750 2861 4703 
Q 3103 4656 3366 4563 
z
" transform="scale(0.015625)"/>
       </defs>
       <use xlink:href="#DejaVuSans-32"/>
       <use xlink:href="#DejaVuSans-30" x="63.623047"/>
       <use xlink:href="#DejaVuSans-32" x="127.246094"/>
       <use xlink:href="#DejaVuSans-33" x="190.869141"/>
       <use xlink:href="#DejaVuSans-2d" x="254.492188"/>
       <use xlink:href="#DejaVuSans-31" x="290.576172"/>
       <use xlink:href="#DejaVuSans-31" x="354.199219"/>
       <use xlink:href="#DejaVuSans-2d" x="417.822266"/>
       <use xlink:href="#DejaVuSans-30" x="453.90625"/>
       <use xlink:href="#DejaVuSans-36" x="517.529297"/>
      </g>
     </g>
    </g>
    <g id="xtick_6">
     <g id="line2d_11">
      <path d="M 402.376373 279.561175 
L 402.376373 25.44 
" clip-path="url(#p30693fe4ca)" style="fill: none; stroke: #b0b0b0; stroke-width: 0.8; stroke-linecap: square"/>
     </g>
     <g id="line2d_12">
      <g>
       <use xlink:href="#m08a5ebbce8" x="402.376373" y="279.561175" style="stroke: #000000; stroke-width: 0.8"/>
      </g>
     </g>
     <g id="text_6">
      <!-- 2023-11-07 -->
      <g transform="translate(359.811859 333.028035) rotate(-45) scale(0.1 -0.1)">
       <defs>
        <path id="DejaVuSans-37" d="M 525 4666 
L 3525 4666 
L 3525 4397 
L 1831 0 
L 1172 0 
L 2766 4134 
L 525 4134 
L 525 4666 
z
" transform="scale(0.015625)"/>
       </defs>
       <use xlink:href="#DejaVuSans-32"/>
       <use xlink:href="#DejaVuSans-30" x="63.623047"/>
       <use xlink:href="#DejaVuSans-32" x="127.246094"/>
       <use xlink:href="#DejaVuSans-33" x="190.869141"/>
       <use xlink:href="#DejaVuSans-2d" x="254.492188"/>
       <use xlink:href="#DejaVuSans-31" x="290.576172"/>
       <use xlink:href="#DejaVuSans-31" x="354.199219"/>
       <use xlink:href="#DejaVuSans-2d" x="417.822266"/>
       <use xlink:href="#DejaVuSans-30" x="453.90625"/>
       <use xlink:href="#DejaVuSans-37" x="517.529297"/>
      </g>
     </g>
    </g>
   </g>
   <g id="matplotlib.axis_2">
    <g id="ytick_1">
     <g id="line2d_13">
      <path d="M 51.05 279.561175 
L 450 279.561175 
" clip-path="url(#p30693fe4ca)" style="fill: none; stroke: #b0b0b0; stroke-width: 0.8; stroke-linecap: square"/>
     </g>
     <g id="line2d_14">
      <defs>
       <path id="m206d649d02" d="M 0 0 
L -3.5 0 
" style="stroke: #000000; stroke-width: 0.8"/>
      </defs>
      <g>
       <use xlink:href="#m206d649d02" x="51.05" y="279.561175" style="stroke: #000000; stroke-width: 0.8"/>
      </g>
     </g>
     <g id="text_7">
      <!-- 0 -->
      <g transform="translate(37.6875 283.360394) scale(0.1 -0.1)">
       <use xlink:href="#DejaVuSans-30"/>
      </g>
     </g>
    </g>
    <g id="ytick_2">
     <g id="line2d_15">
      <path d="M 51.05 228.73694 
L 450 228.73694 
" clip-path="url(#p30693fe4ca)" style="fill: none; stroke: #b0b0b0; stroke-width: 0.8; stroke-linecap: square"/>
     </g>
     <g id="line2d_16">
      <g>
       <use xlink:href="#m206d649d02" x="51.05" y="228.73694" style="stroke: #000000; stroke-width: 0.8"/>
      </g>
     </g>
     <g id="text_8">
      <!-- 20 -->
      <g transform="translate(31.325 232.536159) scale(0.1 -0.1)">
       <use xlink:href="#DejaVuSans-32"/>
       <use xlink:href="#DejaVuSans-30" x="63.623047"/>
      </g>
     </g>
    </g>
    <g id="ytick_3">
     <g id="line2d_17">
      <path d="M 51.05 177.912705 
L 450 177.912705 
" clip-path="url(#p30693fe4ca)" style="fill: none; stroke: #b0b0b0; stroke-width: 0.8; stroke-linecap: square"/>
     </g>
     <g id="line2d_18">
      <g>
       <use xlink:href="#m206d649d02" x="51.05" y="177.912705" style="stroke: #000000; stroke-width: 0.8"/>
      </g>
     </g>
     <g id="text_9">
      <!-- 40 -->
      <g transform="translate(31.325 181.711924) scale(0.1 -0.1)">
       <use xlink:href="#DejaVuSans-34"/>
       <use xlink:href="#DejaVuSans-30" x="63.623047"/>
      </g>
     </g>
    </g>
    <g id="ytick_4">
     <g id="line2d_19">
      <path d="M 51.05 127.08847 
L 450 127.08847 
" clip-path="url(#p30693fe4ca)" style="fill: none; stroke: #b0b0b0; stroke-width: 0.8; stroke-linecap: square"/>
     </g>
     <g id="line2d_20">
      <g>
       <use xlink:href="#m206d649d02" x="51.05" y="127.08847" style="stroke: #000000; stroke-width: 0.8"/>
      </g>
     </g>
     <g id="text_10">
      <!-- 60 -->
      <g transform="translate(31.325 130.887689) scale(0.1 -0.1)">
       <use xlink:href="#DejaVuSans-36"/>
       <use xlink:href="#DejaVuSans-30" x="63.623047"/>
      </g>
     </g>
    </g>
    <g id="ytick_5">
     <g id="line2d_21">
      <path d="M 51.05 76.264235 
L 450 76.264235 
" clip-path="url(#p30693fe4ca)" style="fill: none; stroke: #b0b0b0; stroke-width: 0.8; stroke-linecap: square"/>
     </g>
     <g id="line2d_22">
      <g>
       <use xlink:href="#m206d649d02" x="51.05" y="76.264235" style="stroke: #000000; stroke-width: 0.8"/>
      </g>
     </g>
     <g id="text_11">
      <!-- 80 -->
      <g transform="translate(31.325 80.063454) scale(0.1 -0.1)">
       <defs>
        <path id="DejaVuSans-38" d="M 2034 2216 
Q 1584 2216 1326 1975 
Q 1069 1734 1069 1313 
Q 1069 891 1326 650 
Q 1584 409 2034 409 
Q 2484 409 2743 651 
Q 3003 894 3003 1313 
Q 3003 1734 2745 1975 
Q 2488 2216 2034 2216 
z
M 1403 2484 
Q 997 2584 770 2862 
Q 544 3141 544 3541 
Q 544 4100 942 4425 
Q 1341 4750 2034 4750 
Q 2731 4750 3128 4425 
Q 3525 4100 3525 3541 
Q 3525 3141 3298 2862 
Q 3072 2584 2669 2484 
Q 3125 2378 3379 2068 
Q 3634 1759 3634 1313 
Q 3634 634 3220 271 
Q 2806 -91 2034 -91 
Q 1263 -91 848 271 
Q 434 634 434 1313 
Q 434 1759 690 2068 
Q 947 2378 1403 2484 
z
M 1172 3481 
Q 1172 3119 1398 2916 
Q 1625 2713 2034 2713 
Q 2441 2713 2670 2916 
Q 2900 3119 2900 3481 
Q 2900 3844 2670 4047 
Q 2441 4250 2034 4250 
Q 1625 4250 1398 4047 
Q 1172 3844 1172 3481 
z
" transform="scale(0.015625)"/>
       </defs>
       <use xlink:href="#DejaVuSans-38"/>
       <use xlink:href="#DejaVuSans-30" x="63.623047"/>
      </g>
     </g>
    </g>
    <g id="ytick_6">
     <g id="line2d_23">
      <path d="M 51.05 25.44 
L 450 25.44 
" clip-path="url(#p30693fe4ca)" style="fill: none; stroke: #b0b0b0; stroke-width: 0.8; stroke-linecap: square"/>
     </g>
     <g id="line2d_24">
      <g>
       <use xlink:href="#m206d649d02" x="51.05" y="25.44" style="stroke: #000000; stroke-width: 0.8"/>
      </g>
     </g>
     <g id="text_12">
      <!-- 100 -->
      <g transform="translate(24.9625 29.239219) scale(0.1 -0.1)">
       <use xlink:href="#DejaVuSans-31"/>
       <use xlink:href="#DejaVuSans-30" x="63.623047"/>
       <use xlink:href="#DejaVuSans-30" x="127.246094"/>
      </g>
     </g>
    </g>
    <g id="text_13">
     <!-- Humidity [%RH] -->
     <g transform="translate(18.882812 192.647463) rotate(-90) scale(0.1 -0.1)">
      <defs>
       <path id="DejaVuSans-48" d="M 628 4666 
L 1259 4666 
L 1259 2753 
L 3553 2753 
L 3553 4666 
L 4184 4666 
L 4184 0 
L 3553 0 
L 3553 2222 
L 1259 2222 
L 1259 0 
L 628 0 
L 628 4666 
z
" transform="scale(0.015625)"/>
       <path id="DejaVuSans-75" d="M 544 1381 
L 544 3500 
L 1119 3500 
L 1119 1403 
Q 1119 906 1312 657 
Q 1506 409 1894 409 
Q 2359 409 2629 706 
Q 2900 1003 2900 1516 
L 2900 3500 
L 3475 3500 
L 3475 0 
L 2900 0 
L 2900 538 
Q 2691 219 2414 64 
Q 2138 -91 1772 -91 
Q 1169 -91 856 284 
Q 544 659 544 1381 
z
M 1991 3584 
L 1991 3584 
z
" transform="scale(0.015625)"/>
       <path id="DejaVuSans-6d" d="M 3328 2828 
Q 3544 3216 3844 3400 
Q 4144 3584 4550 3584 
Q 5097 3584 5394 3201 
Q 5691 2819 5691 2113 
L 5691 0 
L 5113 0 
L 5113 2094 
Q 5113 2597 4934 2840 
Q 4756 3084 4391 3084 
Q 3944 3084 3684 2787 
Q 3425 2491 3425 1978 
L 3425 0 
L 2847 0 
L 2847 2094 
Q 2847 2600 2669 2842 
Q 2491 3084 2119 3084 
Q 1678 3084 1418 2786 
Q 1159 2488 1159 1978 
L 1159 0 
L 581 0 
L 581 3500 
L 1159 3500 
L 1159 2956 
Q 1356 3278 1631 3431 
Q 1906 3584 2284 3584 
Q 2666 3584 2933 3390 
Q 3200 3197 3328 2828 
z
" transform="scale(0.015625)"/>
       <path id="DejaVuSans-69" d="M 603 3500 
L 1178 3500 
L 1178 0 
L 603 0 
L 603 3500 
z
M 603 4863 
L 1178 4863 
L 1178 4134 
L 603 4134 
L 603 4863 
z
" transform="scale(0.015625)"/>
       <path id="DejaVuSans-64" d="M 2906 2969 
L 2906 4863 
L 3481 4863 
L 3481 0 
L 2906 0 
L 2906 525 
Q 2725 213 2448 61 
Q 2172 -91 1784 -91 
Q 1150 -91 751 415 
Q 353 922 353 1747 
Q 353 2572 751 3078 
Q 1150 3584 1784 3584 
Q 2172 3584 2448 3432 
Q 2725 3281 2906 2969 
z
M 947 1747 
Q 947 1113 1208 752 
Q 1469 391 1925 391 
Q 2381 391 2643 752 
Q 2906 1113 2906 1747 
Q 2906 2381 2643 2742 
Q 2381 3103 1925 3103 
Q 1469 3103 1208 2742 
Q 947 2381 947 1747 
z
" transform="scale(0.015625)"/>
       <path id="DejaVuSans-74" d="M 1172 4494 
L 1172 3500 
L 2356 3500 
L 2356 3053 
L 1172 3053 
L 1172 1153 
Q 1172 725 1289 603 
Q 1406 481 1766 481 
L 2356 481 
L 2356 0 
L 1766 0 
Q 1100 0 847 248 
Q 594 497 594 1153 
L 594 3053 
L 172 3053 
L 172 3500 
L 594 3500 
L 594 4494 
L 1172 4494 
z
" transform="scale(0.015625)"/>
       <path id="DejaVuSans-79" d="M 2059 -325 
Q 1816 -950 1584 -1140 
Q 1353 -1331 966 -1331 
L 506 -1331 
L 506 -850 
L 844 -850 
Q 1081 -850 1212 -737 
Q 1344 -625 1503 -206 
L 1606 56 
L 191 3500 
L 800 3500 
L 1894 763 
L 2988 3500 
L 3597 3500 
L 2059 -325 
z
" transform="scale(0.015625)"/>
       <path id="DejaVuSans-20" transform="scale(0.015625)"/>
       <path id="DejaVuSans-5b" d="M 550 4863 
L 1875 4863 
L 1875 4416 
L 1125 4416 
L 1125 -397 
L 1875 -397 
L 1875 -844 
L 550 -844 
L 550 4863 
z
" transform="scale(0.015625)"/>
       <path id="DejaVuSans-25" d="M 4653 2053 
Q 4381 2053 4226 1822 
Q 4072 1591 4072 1178 
Q 4072 772 4226 539 
Q 4381 306 4653 306 
Q 4919 306 5073 539 
Q 5228 772 5228 1178 
Q 5228 1588 5073 1820 
Q 4919 2053 4653 2053 
z
M 4653 2450 
Q 5147 2450 5437 2106 
Q 5728 1763 5728 1178 
Q 5728 594 5436 251 
Q 5144 -91 4653 -91 
Q 4153 -91 3862 251 
Q 3572 594 3572 1178 
Q 3572 1766 3864 2108 
Q 4156 2450 4653 2450 
z
M 1428 4353 
Q 1159 4353 1004 4120 
Q 850 3888 850 3481 
Q 850 3069 1003 2837 
Q 1156 2606 1428 2606 
Q 1700 2606 1854 2837 
Q 2009 3069 2009 3481 
Q 2009 3884 1853 4118 
Q 1697 4353 1428 4353 
z
M 4250 4750 
L 4750 4750 
L 1831 -91 
L 1331 -91 
L 4250 4750 
z
M 1428 4750 
Q 1922 4750 2215 4408 
Q 2509 4066 2509 3481 
Q 2509 2891 2217 2550 
Q 1925 2209 1428 2209 
Q 931 2209 642 2551 
Q 353 2894 353 3481 
Q 353 4063 643 4406 
Q 934 4750 1428 4750 
z
" transform="scale(0.015625)"/>
       <path id="DejaVuSans-52" d="M 2841 2188 
Q 3044 2119 3236 1894 
Q 3428 1669 3622 1275 
L 4263 0 
L 3584 0 
L 2988 1197 
Q 2756 1666 2539 1819 
Q 2322 1972 1947 1972 
L 1259 1972 
L 1259 0 
L 628 0 
L 628 4666 
L 2053 4666 
Q 2853 4666 3247 4331 
Q 3641 3997 3641 3322 
Q 3641 2881 3436 2590 
Q 3231 2300 2841 2188 
z
M 1259 4147 
L 1259 2491 
L 2053 2491 
Q 2509 2491 2742 2702 
Q 2975 2913 2975 3322 
Q 2975 3731 2742 3939 
Q 2509 4147 2053 4147 
L 1259 4147 
z
" transform="scale(0.015625)"/>
       <path id="DejaVuSans-5d" d="M 1947 4863 
L 1947 -844 
L 622 -844 
L 622 -397 
L 1369 -397 
L 1369 4416 
L 622 4416 
L 622 4863 
L 1947 4863 
z
" transform="scale(0.015625)"/>
      </defs>
      <use xlink:href="#DejaVuSans-48"/>
      <use xlink:href="#DejaVuSans-75" x="75.195312"/>
      <use xlink:href="#DejaVuSans-6d" x="138.574219"/>
      <use xlink:href="#DejaVuSans-69" x="235.986328"/>
      <use xlink:href="#DejaVuSans-64" x="263.769531"/>
      <use xlink:href="#DejaVuSans-69" x="327.246094"/>
      <use xlink:href="#DejaVuSans-74" x="355.029297"/>
      <use xlink:href="#DejaVuSans-79" x="394.238281"/>
      <use xlink:href="#DejaVuSans-20" x="453.417969"/>
      <use xlink:href="#DejaVuSans-5b" x="485.205078"/>
      <use xlink:href="#DejaVuSans-25" x="524.21875"/>
      <use xlink:href="#DejaVuSans-52" x="619.238281"/>
      <use xlink:href="#DejaVuSans-48" x="688.720703"/>
      <use xlink:href="#DejaVuSans-5d" x="763.916016"/>
     </g>
    </g>
   </g>
   <g id="line2d_25">
    <path d="M 51.05 58.475753 
L 51.212529 58.475753 
L 51.375409 53.393329 
L 51.472794 53.393329 
L 51.602927 50.852118 
L 51.863185 50.852118 
L 51.993317 48.310906 
L 52.643971 48.310906 
L 52.774498 50.852118 
L 52.936868 50.852118 
L 53.067116 53.393329 
L 53.262276 53.393329 
L 53.359697 55.934541 
L 54.042871 55.934541 
L 54.173156 58.475753 
L 54.530876 58.475753 
L 54.661009 61.016965 
L 54.791138 58.475753 
L 55.897257 58.475753 
L 56.02739 61.016965 
L 56.060104 61.016965 
L 56.222586 55.934541 
L 56.320349 55.934541 
L 56.417781 53.393329 
L 56.580621 53.393329 
L 56.710727 55.934541 
L 57.426474 55.934541 
L 57.556584 58.475753 
L 57.654035 58.475753 
L 57.816813 61.016965 
L 58.077194 61.016965 
L 58.207269 63.558176 
L 58.499888 63.558176 
L 58.63002 61.016965 
L 58.66273 61.016965 
L 58.79284 63.558176 
L 59.541341 63.558176 
L 59.703767 58.475753 
L 59.736135 58.475753 
L 59.866263 55.934541 
L 60.094201 55.934541 
L 60.224254 58.475753 
L 60.419508 58.475753 
L 60.549616 61.016965 
L 60.647056 61.016965 
L 60.777402 63.558176 
L 60.84225 63.558176 
L 60.972382 66.099388 
L 61.395317 66.099388 
L 61.557973 61.016965 
L 61.655742 61.016965 
L 61.785887 63.558176 
L 62.306405 63.558176 
L 62.436532 61.016965 
L 62.924351 61.016965 
L 63.054483 58.475753 
L 63.444873 58.475753 
L 63.607711 63.558176 
L 63.640073 63.558176 
L 63.770207 68.6406 
L 63.835263 68.6406 
L 63.998088 73.723023 
L 64.225666 73.723023 
L 64.355796 76.264235 
L 64.51861 73.723023 
L 64.550991 73.723023 
L 64.681124 76.264235 
L 64.843961 71.181812 
L 65.299432 71.181812 
L 65.42956 73.723023 
L 65.950111 73.723023 
L 66.080246 76.264235 
L 66.828292 76.264235 
L 67.056217 71.181812 
L 67.121245 71.181812 
L 67.251411 68.6406 
L 67.413882 68.6406 
L 67.641799 63.558176 
L 67.739209 63.558176 
L 67.869341 61.016965 
L 68.162228 61.016965 
L 68.292466 58.475753 
L 68.975459 58.475753 
L 69.105591 61.016965 
L 69.138326 61.016965 
L 69.301197 63.558176 
L 69.75625 63.558176 
L 69.886379 66.099388 
L 69.984036 66.099388 
L 70.146646 71.181812 
L 70.244451 71.181812 
L 70.406907 76.264235 
L 70.569567 76.264235 
L 70.764976 86.429082 
L 70.992498 76.264235 
L 71.578092 76.264235 
L 71.708221 86.429082 
L 71.903418 111.8412 
L 72.196369 127.08847 
L 72.293806 127.08847 
L 72.423941 124.547258 
L 72.456587 124.547258 
L 72.586664 122.006047 
L 72.651884 122.006047 
L 72.782016 124.547258 
L 72.81433 122.006047 
L 72.879395 124.547258 
L 73.009515 127.08847 
L 73.04212 127.08847 
L 73.334852 142.335741 
L 73.497734 134.712105 
L 73.725244 144.876952 
L 73.757929 144.876952 
L 73.920437 139.794529 
L 73.95321 139.794529 
L 74.148394 147.418164 
L 74.278395 144.876952 
L 74.343592 144.876952 
L 74.440964 147.418164 
L 74.766287 127.08847 
L 74.961484 127.08847 
L 75.124215 122.006047 
L 75.221743 122.006047 
L 75.351873 124.547258 
L 75.384651 124.547258 
L 75.51467 127.08847 
L 76.262786 127.08847 
L 76.425683 122.006047 
L 76.523044 122.006047 
L 76.653459 124.547258 
L 76.750883 124.547258 
L 76.881146 127.08847 
L 77.108636 127.08847 
L 77.23899 129.629682 
L 77.466721 124.547258 
L 77.564089 124.547258 
L 77.694221 122.006047 
L 77.889407 122.006047 
L 78.019544 124.547258 
L 78.149675 124.547258 
L 78.312552 119.464835 
L 78.377607 119.464835 
L 78.409937 122.006047 
L 78.475302 119.464835 
L 78.83304 119.464835 
L 78.963192 122.006047 
L 78.995523 122.006047 
L 79.125652 124.547258 
L 79.320846 124.547258 
L 79.450979 122.006047 
L 79.483775 122.006047 
L 79.581112 127.08847 
L 79.613906 124.547258 
L 79.711552 124.547258 
L 79.841372 127.08847 
L 80.036568 127.08847 
L 80.19939 144.876952 
L 80.231764 142.335741 
L 80.39456 132.170894 
L 80.426959 134.712105 
L 80.524824 139.794529 
L 80.557089 137.253317 
L 80.752279 137.253317 
L 80.980092 127.08847 
L 81.012543 127.08847 
L 81.142671 124.547258 
L 81.370627 124.547258 
L 81.467997 122.006047 
L 81.598134 122.006047 
L 81.630836 119.464835 
L 81.695944 122.006047 
L 81.761023 122.006047 
L 81.891109 124.547258 
L 81.98852 124.547258 
L 82.11898 122.006047 
L 82.443976 122.006047 
L 82.47663 119.464835 
L 82.541847 122.006047 
L 82.67196 122.006047 
L 82.801899 124.547258 
L 82.964496 124.547258 
L 83.094627 122.006047 
L 83.15969 122.006047 
L 83.289821 124.547258 
L 83.485018 124.547258 
L 83.615148 122.006047 
L 84.070607 122.006047 
L 84.331098 134.712105 
L 84.461002 134.712105 
L 84.591431 129.629682 
L 84.721261 132.170894 
L 84.754019 132.170894 
L 84.916455 127.08847 
L 85.144453 127.08847 
L 85.274452 124.547258 
L 85.63217 124.547258 
L 85.762686 122.006047 
L 85.859986 122.006047 
L 85.925193 124.547258 
L 85.957494 122.006047 
L 86.966226 122.006047 
L 87.128669 116.923623 
L 87.193737 116.923623 
L 87.356564 111.8412 
L 87.584127 111.8412 
L 87.942177 101.676353 
L 88.429978 101.676353 
L 88.560106 99.135141 
L 88.723005 99.135141 
L 88.8207 96.593929 
L 88.950503 96.593929 
L 89.080633 94.052717 
L 89.210765 96.593929 
L 89.405961 96.593929 
L 89.568812 94.052717 
L 89.991547 94.052717 
L 90.121683 76.264235 
L 90.154347 76.264235 
L 90.284586 73.723023 
L 90.414709 73.723023 
L 90.544838 71.181812 
L 90.577138 71.181812 
L 90.707271 68.6406 
L 90.837403 68.6406 
L 90.967531 66.099388 
L 91.683258 66.099388 
L 91.813392 63.558176 
L 91.976161 63.558176 
L 92.106451 61.016965 
L 92.464049 61.016965 
L 92.626905 58.475753 
L 92.659246 58.475753 
L 92.822152 53.393329 
L 93.244831 53.393329 
L 93.374966 55.934541 
L 94.74134 55.934541 
L 94.871467 53.393329 
L 95.294676 53.393329 
L 95.424823 50.852118 
L 96.237839 50.852118 
L 96.36797 48.310906 
L 97.636973 48.310906 
L 97.767146 45.769694 
L 97.99492 45.769694 
L 98.157535 43.228482 
L 98.515127 43.228482 
L 98.64525 40.687271 
L 99.003374 40.687271 
L 99.13352 38.146059 
L 100.662285 38.146059 
L 100.792416 35.604847 
L 101.735932 35.604847 
L 101.866282 33.063635 
L 103.232572 33.063635 
L 103.362701 30.522424 
L 104.826462 30.522424 
L 104.956593 27.981212 
L 149.298916 27.981212 
L 149.49412 35.604847 
L 149.62428 35.604847 
L 149.75443 38.146059 
L 149.819478 38.146059 
L 149.916842 40.687271 
L 149.981913 40.687271 
L 150.112044 43.228482 
L 150.600052 43.228482 
L 150.730408 45.769694 
L 151.022961 45.769694 
L 151.15349 48.310906 
L 151.901535 48.310906 
L 152.031632 45.769694 
L 152.617208 45.769694 
L 152.747457 43.228482 
L 153.560528 43.228482 
L 153.723339 40.687271 
L 155.707693 40.687271 
L 155.837827 43.228482 
L 156.293286 43.228482 
L 156.423418 40.687271 
L 158.180188 40.687271 
L 158.31032 38.146059 
L 158.89591 38.146059 
L 159.026043 35.604847 
L 159.481509 35.604847 
L 159.611636 33.063635 
L 160.034735 33.063635 
L 160.164873 30.522424 
L 161.173206 30.522424 
L 161.303339 27.981212 
L 162.507197 27.981212 
L 162.637403 30.522424 
L 162.929974 30.522424 
L 163.092867 33.063635 
L 163.190238 33.063635 
L 163.320372 35.604847 
L 163.483126 35.604847 
L 163.613345 38.146059 
L 163.808635 38.146059 
L 163.938627 40.687271 
L 164.199021 40.687271 
L 164.329054 43.228482 
L 165.012072 43.228482 
L 165.142205 45.769694 
L 165.890465 45.769694 
L 166.020852 43.228482 
L 166.215938 43.228482 
L 166.346138 40.687271 
L 166.606416 40.687271 
L 166.736529 38.146059 
L 167.094512 38.146059 
L 167.2243 35.604847 
L 167.582423 35.604847 
L 167.712275 38.146059 
L 167.777486 38.146059 
L 167.940023 43.228482 
L 168.070153 43.228482 
L 168.200283 45.769694 
L 168.655746 45.769694 
L 168.785876 43.228482 
L 169.046139 43.228482 
L 169.176265 40.687271 
L 169.502017 40.687271 
L 169.664506 38.146059 
L 170.152626 38.146059 
L 170.282384 35.604847 
L 170.900755 35.604847 
L 171.030833 33.063635 
L 172.071846 33.063635 
L 172.202057 30.522424 
L 172.787617 30.522424 
L 172.917784 33.063635 
L 173.080205 33.063635 
L 173.210694 35.604847 
L 173.405531 35.604847 
L 173.535662 38.146059 
L 173.796257 38.146059 
L 173.926058 40.687271 
L 175.94309 40.687271 
L 176.073222 38.146059 
L 176.626521 38.146059 
L 176.756625 35.604847 
L 177.081926 35.604847 
L 177.212072 38.146059 
L 177.634794 38.146059 
L 177.764924 40.687271 
L 178.415581 40.687271 
L 178.545709 43.228482 
L 179.814707 43.228482 
L 179.944617 40.687271 
L 181.083271 40.687271 
L 181.246099 43.228482 
L 181.278705 43.228482 
L 181.441354 48.310906 
L 181.50642 48.310906 
L 181.636604 50.852118 
L 181.798991 50.852118 
L 181.929122 48.310906 
L 182.2222 48.310906 
L 182.319516 45.769694 
L 182.579777 45.769694 
L 182.709909 48.310906 
L 182.970583 48.310906 
L 183.100304 45.769694 
L 184.044005 45.769694 
L 184.14135 43.228482 
L 185.507727 43.228482 
L 185.637858 40.687271 
L 185.995981 40.687271 
L 186.125979 43.228482 
L 187.264789 43.228482 
L 187.394628 45.769694 
L 187.492419 45.769694 
L 187.622484 43.228482 
L 188.110352 43.228482 
L 188.24048 45.769694 
L 188.338245 45.769694 
L 188.43568 48.310906 
L 188.598524 45.769694 
L 188.695944 48.310906 
L 188.826074 45.769694 
L 189.184039 45.769694 
L 189.314268 43.228482 
L 189.802057 43.228482 
L 189.932188 40.687271 
L 190.322976 40.687271 
L 190.452712 43.228482 
L 190.908479 43.228482 
L 191.071017 45.769694 
L 191.298565 45.769694 
L 191.4287 48.310906 
L 191.884156 48.310906 
L 192.014291 45.769694 
L 194.031334 45.769694 
L 194.161466 48.310906 
L 197.252341 48.310906 
L 197.382479 50.852118 
L 197.609938 50.852118 
L 197.772779 48.310906 
L 198.26093 48.310906 
L 198.423489 50.852118 
L 198.488547 50.852118 
L 198.618684 48.310906 
L 198.846187 48.310906 
L 199.009052 50.852118 
L 199.041378 50.852118 
L 199.171512 53.393329 
L 199.334393 53.393329 
L 199.464515 50.852118 
L 199.7571 50.852118 
L 199.920004 55.934541 
L 200.017366 55.934541 
L 200.147491 58.475753 
L 200.180116 58.475753 
L 200.310365 61.016965 
L 200.342691 61.016965 
L 200.472819 63.558176 
L 200.668018 63.558176 
L 200.830854 66.099388 
L 200.863214 63.558176 
L 200.928282 66.099388 
L 201.123477 66.099388 
L 201.253606 68.6406 
L 201.578934 68.6406 
L 201.709065 66.099388 
L 201.839197 66.099388 
L 202.001927 71.181812 
L 202.067117 71.181812 
L 202.197186 68.6406 
L 202.619985 68.6406 
L 202.782912 63.558176 
L 202.880246 63.558176 
L 203.010377 61.016965 
L 203.335706 61.016965 
L 203.465836 58.475753 
L 204.441822 58.475753 
L 204.571956 55.934541 
L 204.962348 55.934541 
L 205.125222 58.475753 
L 205.222609 58.475753 
L 205.35274 61.016965 
L 205.645542 61.016965 
L 205.710752 58.475753 
L 205.743136 61.016965 
L 206.003396 61.016965 
L 206.133525 63.558176 
L 206.361496 63.558176 
L 206.491566 61.016965 
L 206.849649 61.016965 
L 206.97938 58.475753 
L 207.012172 58.475753 
L 207.142326 55.934541 
L 207.304707 55.934541 
L 207.43528 53.393329 
L 207.630037 53.393329 
L 207.760166 50.852118 
L 208.410819 50.852118 
L 208.540953 48.310906 
L 208.899016 48.310906 
L 209.061476 53.393329 
L 209.094303 53.393329 
L 209.224442 55.934541 
L 209.257006 55.934541 
L 209.419579 58.475753 
L 209.484586 58.475753 
L 209.614738 55.934541 
L 209.712133 55.934541 
L 209.842266 53.393329 
L 210.297723 53.393329 
L 210.427856 50.852118 
L 210.590644 55.934541 
L 210.623052 55.934541 
L 210.753181 58.475753 
L 210.785987 58.475753 
L 210.948378 63.558176 
L 210.981157 63.558176 
L 211.078507 66.099388 
L 211.241387 66.099388 
L 211.371579 68.6406 
L 211.6641 68.6406 
L 211.761709 71.181812 
L 211.892129 68.6406 
L 212.607802 68.6406 
L 212.737972 66.099388 
L 212.803009 66.099388 
L 212.900354 63.558176 
L 213.193384 63.558176 
L 213.225684 61.016965 
L 213.290744 63.558176 
L 213.64871 63.558176 
L 213.778841 61.016965 
L 213.941403 61.016965 
L 214.071532 63.558176 
L 214.592064 63.558176 
L 214.722193 66.099388 
L 215.470531 66.099388 
L 215.600756 63.558176 
L 215.893379 63.558176 
L 216.023916 61.016965 
L 216.15364 61.016965 
L 216.31644 66.099388 
L 216.34884 66.099388 
L 216.478969 68.6406 
L 216.544038 68.6406 
L 216.674171 71.181812 
L 216.902055 71.181812 
L 217.032182 68.6406 
L 217.260065 68.6406 
L 217.389894 71.181812 
L 217.520025 71.181812 
L 217.650158 73.723023 
L 217.747894 73.723023 
L 217.8458 76.264235 
L 218.008215 76.264235 
L 218.105617 78.805447 
L 218.235749 76.264235 
L 218.626148 76.264235 
L 218.75628 73.723023 
L 218.886411 76.264235 
L 218.984125 76.264235 
L 219.114149 73.723023 
L 219.14667 73.723023 
L 219.276803 71.181812 
L 219.797334 71.181812 
L 219.927464 68.6406 
L 220.382921 68.6406 
L 220.513051 66.099388 
L 220.643185 68.6406 
L 221.098648 68.6406 
L 221.228782 71.181812 
L 221.749306 71.181812 
L 221.912179 76.264235 
L 221.97711 76.264235 
L 222.107385 73.723023 
L 222.237441 73.723023 
L 222.367654 76.264235 
L 222.399962 76.264235 
L 222.562862 81.346659 
L 222.627929 81.346659 
L 222.790357 86.429082 
L 222.953269 86.429082 
L 223.083342 83.88787 
L 223.180756 83.88787 
L 223.310889 81.346659 
L 223.473714 83.88787 
L 223.506082 83.88787 
L 223.636216 86.429082 
L 223.734084 86.429082 
L 223.864201 88.970294 
L 223.929287 88.970294 
L 223.961822 91.511506 
L 224.026611 88.970294 
L 224.091679 88.970294 
L 224.221812 86.429082 
L 224.351942 86.429082 
L 224.547139 78.805447 
L 224.709989 76.264235 
L 225.198114 76.264235 
L 225.360687 73.723023 
L 225.523133 73.723023 
L 225.653261 71.181812 
L 226.30392 71.181812 
L 226.434408 73.723023 
L 226.564184 73.723023 
L 226.694317 76.264235 
L 226.792157 76.264235 
L 226.98726 83.88787 
L 227.019921 83.88787 
L 227.182539 88.970294 
L 227.247622 88.970294 
L 227.37777 91.511506 
L 227.605239 91.511506 
L 227.768074 88.970294 
L 227.865501 88.970294 
L 227.995631 91.511506 
L 228.158573 91.511506 
L 228.320967 86.429082 
L 228.353606 86.429082 
L 228.548881 78.805447 
L 228.744179 78.805447 
L 228.841497 76.264235 
L 228.93914 76.264235 
L 229.10176 81.346659 
L 229.134575 81.346659 
L 229.329783 88.970294 
L 229.62229 88.970294 
L 229.752421 91.511506 
L 229.882553 91.511506 
L 230.012685 94.052717 
L 230.240629 94.052717 
L 230.37077 91.511506 
L 230.403084 91.511506 
L 230.533214 94.052717 
L 230.565965 94.052717 
L 230.663345 96.593929 
L 230.988678 96.593929 
L 231.118806 99.135141 
L 231.379073 99.135141 
L 231.411683 101.676353 
L 231.476878 99.135141 
L 231.639337 99.135141 
L 231.76947 101.676353 
L 231.899601 101.676353 
L 232.062343 106.758776 
L 232.159868 106.758776 
L 232.322732 111.8412 
L 232.615328 111.8412 
L 232.843259 101.676353 
L 232.875592 101.676353 
L 233.005722 99.135141 
L 233.135851 99.135141 
L 233.298714 101.676353 
L 233.526253 101.676353 
L 233.656378 99.135141 
L 233.689083 99.135141 
L 233.819035 96.593929 
L 233.884245 96.593929 
L 234.014494 94.052717 
L 234.241977 94.052717 
L 234.372108 91.511506 
L 234.730199 91.511506 
L 234.892637 96.593929 
L 235.185713 96.593929 
L 235.315824 94.052717 
L 235.576092 94.052717 
L 235.706056 96.593929 
L 235.738495 96.593929 
L 235.868628 94.052717 
L 236.03151 99.135141 
L 236.259254 99.135141 
L 236.389156 101.676353 
L 236.84495 101.676353 
L 237.202689 111.8412 
L 237.235012 111.8412 
L 237.365144 109.299988 
L 237.43021 109.299988 
L 237.625411 101.676353 
L 237.658129 101.676353 
L 237.820604 96.593929 
L 237.885675 96.593929 
L 238.015804 99.135141 
L 238.081097 99.135141 
L 238.211003 101.676353 
L 238.276065 101.676353 
L 238.471266 109.299988 
L 238.666803 109.299988 
L 238.82931 111.8412 
L 238.991795 111.8412 
L 239.089631 114.382411 
L 239.25206 109.299988 
L 239.447255 109.299988 
L 239.48005 106.758776 
L 239.545016 109.299988 
L 239.642453 109.299988 
L 239.772588 111.8412 
L 239.805344 111.8412 
L 239.903056 114.382411 
L 240.293116 114.382411 
L 240.42325 116.923623 
L 240.488315 116.923623 
L 240.651159 114.382411 
L 240.683513 114.382411 
L 240.813643 109.299988 
L 240.943774 111.8412 
L 241.008839 111.8412 
L 241.139369 114.382411 
L 241.301806 111.8412 
L 241.366982 111.8412 
L 241.497028 109.299988 
L 241.854699 109.299988 
L 241.984832 111.8412 
L 242.147748 106.758776 
L 242.18003 106.758776 
L 242.31016 104.217564 
L 242.440297 104.217564 
L 242.570428 101.676353 
L 242.668248 101.676353 
L 242.798403 99.135141 
L 243.058496 99.135141 
L 243.123707 101.676353 
L 243.156021 99.135141 
L 243.31892 99.135141 
L 243.514132 91.511506 
L 243.546417 91.511506 
L 243.676546 88.970294 
L 243.806683 91.511506 
L 243.871747 91.511506 
L 244.001882 94.052717 
L 244.164781 94.052717 
L 244.294769 96.593929 
L 244.359979 96.593929 
L 244.457343 99.135141 
L 244.490129 96.593929 
L 244.555219 99.135141 
L 244.685315 99.135141 
L 244.782675 101.676353 
L 246.149061 101.676353 
L 246.279193 99.135141 
L 246.409324 99.135141 
L 246.539458 96.593929 
L 246.734654 96.593929 
L 246.864788 94.052717 
L 246.994919 94.052717 
L 247.35285 114.382411 
L 247.41806 114.382411 
L 247.873467 142.335741 
L 247.905841 142.335741 
L 248.035974 147.418164 
L 248.068756 144.876952 
L 248.133802 147.418164 
L 248.328988 147.418164 
L 248.458999 144.876952 
L 248.589268 144.876952 
L 248.621557 142.335741 
L 248.686626 144.876952 
L 248.784472 144.876952 
L 248.914617 147.418164 
L 249.142088 147.418164 
L 249.304954 152.500588 
L 249.337279 149.959376 
L 249.402345 152.500588 
L 249.467413 152.500588 
L 249.565248 157.583011 
L 249.597926 155.041799 
L 249.727677 152.500588 
L 249.792743 152.500588 
L 249.955664 147.418164 
L 250.053003 147.418164 
L 250.508462 175.371493 
L 250.573527 175.371493 
L 250.703658 177.912705 
L 250.736418 177.912705 
L 250.86634 185.53634 
L 250.898849 182.995129 
L 250.931549 182.995129 
L 251.094048 177.912705 
L 251.159112 177.912705 
L 251.354307 185.53634 
L 251.549503 177.912705 
L 251.907576 177.912705 
L 252.004957 175.371493 
L 252.102611 175.371493 
L 252.13509 177.912705 
L 252.200153 175.371493 
L 252.298013 175.371493 
L 252.363069 172.830282 
L 252.395348 175.371493 
L 252.52548 175.371493 
L 252.590544 172.830282 
L 252.623262 175.371493 
L 252.785744 175.371493 
L 252.91587 177.912705 
L 253.013717 177.912705 
L 253.208909 170.28907 
L 253.241575 170.28907 
L 253.534145 162.665435 
L 253.729376 162.665435 
L 253.826786 165.206646 
L 253.924419 165.206646 
L 254.054744 167.747858 
L 254.184789 165.206646 
L 254.445148 165.206646 
L 254.607569 160.124223 
L 254.640335 160.124223 
L 254.770491 157.583011 
L 254.802767 157.583011 
L 255.030796 167.747858 
L 255.225904 160.124223 
L 255.258222 160.124223 
L 255.518822 147.418164 
L 255.616219 147.418164 
L 255.778747 142.335741 
L 255.811437 142.335741 
L 255.94156 139.794529 
L 256.16914 139.794529 
L 256.299658 142.335741 
L 256.592335 134.712105 
L 256.72242 137.253317 
L 256.754731 137.253317 
L 256.884857 134.712105 
L 257.047712 132.170894 
L 257.17792 132.170894 
L 257.210185 129.629682 
L 257.275252 132.170894 
L 257.730712 132.170894 
L 257.86084 129.629682 
L 257.893478 129.629682 
L 257.958684 127.08847 
L 257.99097 129.629682 
L 258.088784 129.629682 
L 258.251235 142.335741 
L 258.316301 139.794529 
L 258.446432 137.253317 
L 258.479157 137.253317 
L 258.641628 142.335741 
L 258.772082 142.335741 
L 258.869521 147.418164 
L 258.901891 144.876952 
L 259.325006 144.876952 
L 259.487476 139.794529 
L 259.520223 139.794529 
L 259.650347 137.253317 
L 259.682675 137.253317 
L 259.845552 132.170894 
L 259.910635 132.170894 
L 260.073068 137.253317 
L 260.236007 137.253317 
L 260.39839 144.876952 
L 260.593944 137.253317 
L 260.62612 137.253317 
L 260.756517 149.959376 
L 260.821601 149.959376 
L 260.853853 147.418164 
L 260.918918 149.959376 
L 260.951724 149.959376 
L 261.081866 152.500588 
L 261.43944 152.500588 
L 261.764768 134.712105 
L 261.927589 132.170894 
L 261.992738 132.170894 
L 262.090094 129.629682 
L 262.220228 132.170894 
L 262.252932 132.170894 
L 262.415784 127.08847 
L 262.773535 127.08847 
L 262.90366 129.629682 
L 263.066061 129.629682 
L 263.196207 127.08847 
L 263.26127 127.08847 
L 263.391404 129.629682 
L 263.521535 129.629682 
L 263.652022 127.08847 
L 263.976995 127.08847 
L 264.107125 124.547258 
L 264.23768 124.547258 
L 264.400148 127.08847 
L 264.595381 127.08847 
L 264.725508 124.547258 
L 265.050846 124.547258 
L 265.180941 122.006047 
L 265.310964 124.547258 
L 265.343367 124.547258 
L 265.473858 122.006047 
L 265.83158 111.8412 
L 266.221951 111.8412 
L 266.352107 114.382411 
L 266.514548 109.299988 
L 266.710149 109.299988 
L 266.742273 111.8412 
L 266.807471 109.299988 
L 266.839877 109.299988 
L 266.970009 111.8412 
L 267.197938 111.8412 
L 267.295621 109.299988 
L 267.360404 109.299988 
L 267.490538 106.758776 
L 267.783409 106.758776 
L 267.946278 101.676353 
L 268.141191 101.676353 
L 268.271321 99.135141 
L 268.336387 99.135141 
L 268.369148 101.676353 
L 268.434245 99.135141 
L 268.531967 99.135141 
L 268.759534 94.052717 
L 268.889638 96.593929 
L 268.987043 96.593929 
L 269.117177 99.135141 
L 269.214826 99.135141 
L 269.34513 96.593929 
L 269.442503 96.593929 
L 269.572633 99.135141 
L 269.768157 99.135141 
L 269.93064 94.052717 
L 269.995699 94.052717 
L 270.158226 88.970294 
L 270.288356 88.970294 
L 270.418491 86.429082 
L 270.451101 86.429082 
L 270.581363 83.88787 
L 270.613687 83.88787 
L 270.743818 81.346659 
L 270.808887 81.346659 
L 270.939016 78.805447 
L 271.134211 78.805447 
L 271.264347 76.264235 
L 272.272907 76.264235 
L 272.403233 73.723023 
L 272.500593 73.723023 
L 272.630723 71.181812 
L 272.956049 71.181812 
L 273.08618 68.6406 
L 274.290161 68.6406 
L 274.42029 66.099388 
L 274.712829 66.099388 
L 274.842959 63.558176 
L 274.940823 63.558176 
L 275.070954 61.016965 
L 275.428552 61.016965 
L 275.558682 58.475753 
L 276.079208 58.475753 
L 276.242149 55.934541 
L 277.250395 55.934541 
L 277.380522 53.393329 
L 277.575723 53.393329 
L 277.706245 55.934541 
L 277.933822 55.934541 
L 278.063967 53.393329 
L 279.007169 53.393329 
L 279.137302 55.934541 
L 279.5277 55.934541 
L 279.690559 58.475753 
L 279.787959 58.475753 
L 279.918095 55.934541 
L 282.130335 55.934541 
L 282.260464 53.393329 
L 283.008934 53.393329 
L 283.139111 50.852118 
L 285.546547 50.852118 
L 285.643897 48.310906 
L 288.701991 48.310906 
L 288.832124 45.769694 
L 288.962256 48.310906 
L 289.06011 48.310906 
L 289.190206 45.769694 
L 290.751781 45.769694 
L 290.88199 48.310906 
L 291.695022 48.310906 
L 291.825412 45.769694 
L 293.581939 45.769694 
L 293.712069 48.310906 
L 294.883673 48.310906 
L 295.046155 45.769694 
L 303.211694 45.769694 
L 303.341825 43.228482 
L 307.310837 43.228482 
L 307.44097 45.769694 
L 307.766299 45.769694 
L 307.929171 48.310906 
L 309.360682 48.310906 
L 309.490793 50.852118 
L 309.913468 50.852118 
L 310.043602 53.393329 
L 310.10867 53.393329 
L 310.23914 55.934541 
L 310.433997 55.934541 
L 310.466642 53.393329 
L 310.53177 55.934541 
L 311.084654 55.934541 
L 311.214782 58.475753 
L 311.279847 58.475753 
L 311.40998 61.016965 
L 311.572774 61.016965 
L 311.703014 63.558176 
L 311.83312 63.558176 
L 311.995569 68.6406 
L 312.320899 68.6406 
L 312.451031 71.181812 
L 312.874174 71.181812 
L 313.004305 68.6406 
L 313.166751 68.6406 
L 313.199577 71.181812 
L 313.264627 68.6406 
L 313.492078 68.6406 
L 313.62221 86.429082 
L 313.817403 94.052717 
L 313.850183 94.052717 
L 314.012597 99.135141 
L 314.045316 99.135141 
L 314.27286 109.299988 
L 314.337927 109.299988 
L 314.468056 104.217564 
L 314.598186 109.299988 
L 314.793383 101.676353 
L 315.021358 111.8412 
L 315.118711 111.8412 
L 315.281588 114.382411 
L 315.313911 114.382411 
L 315.541834 124.547258 
L 315.671973 122.006047 
L 315.834428 127.08847 
L 315.867116 127.08847 
L 315.997362 129.629682 
L 316.02996 129.629682 
L 316.224814 122.006047 
L 316.257551 122.006047 
L 316.289882 119.464835 
L 316.420013 99.135141 
L 316.550144 91.511506 
L 316.582933 101.676353 
L 316.680277 99.135141 
L 316.713065 99.135141 
L 316.843163 101.676353 
L 317.168546 101.676353 
L 317.363721 109.299988 
L 317.428834 109.299988 
L 317.623707 101.676353 
L 317.688916 101.676353 
L 318.079383 124.547258 
L 318.144539 122.006047 
L 318.176774 124.547258 
L 318.339656 124.547258 
L 318.502098 119.464835 
L 318.599944 119.464835 
L 318.762362 111.8412 
L 318.925188 111.8412 
L 318.957555 109.299988 
L 318.990286 114.382411 
L 319.087691 114.382411 
L 319.250533 106.758776 
L 319.380681 109.299988 
L 319.41337 109.299988 
L 319.640977 104.217564 
L 319.706032 104.217564 
L 319.771121 106.758776 
L 319.803407 104.217564 
L 319.966191 99.135141 
L 320.421751 99.135141 
L 320.454063 96.593929 
L 320.584191 81.346659 
L 320.844455 81.346659 
L 321.007402 76.264235 
L 321.03965 76.264235 
L 321.169781 94.052717 
L 321.202507 94.052717 
L 321.299912 91.511506 
L 321.430042 94.052717 
L 321.56017 94.052717 
L 321.690307 76.264235 
L 322.47147 76.264235 
L 322.633992 73.723023 
L 323.186811 73.723023 
L 323.31694 71.181812 
L 323.447071 71.181812 
L 323.577204 68.6406 
L 323.935282 68.6406 
L 324.065395 66.099388 
L 324.716114 66.099388 
L 324.846242 63.558176 
L 325.301672 63.558176 
L 325.431786 61.016965 
L 325.757124 61.016965 
L 325.887226 58.475753 
L 326.049693 58.475753 
L 326.179818 55.934541 
L 326.309956 58.475753 
L 326.863165 58.475753 
L 326.993406 61.016965 
L 327.188629 61.016965 
L 327.318739 58.475753 
L 327.936588 58.475753 
L 328.099441 61.016965 
L 328.815234 61.016965 
L 328.945304 58.475753 
L 329.042707 58.475753 
L 329.140542 55.934541 
L 329.270504 58.475753 
L 329.368036 58.475753 
L 329.498166 61.016965 
L 329.693361 61.016965 
L 329.823927 63.558176 
L 330.734411 63.558176 
L 330.864542 61.016965 
L 331.710397 61.016965 
L 331.840529 63.558176 
L 333.695143 63.558176 
L 333.825303 61.016965 
L 333.987695 61.016965 
L 334.052759 58.475753 
L 334.215598 61.016965 
L 334.443153 61.016965 
L 334.573285 63.558176 
L 334.898606 63.558176 
L 335.028738 61.016965 
L 335.15887 63.558176 
L 335.223936 63.558176 
L 335.354059 61.016965 
L 335.679398 61.016965 
L 335.809526 58.475753 
L 335.874596 58.475753 
L 336.037408 55.934541 
L 336.395124 55.934541 
L 336.525581 53.393329 
L 336.720449 53.393329 
L 336.850576 50.852118 
L 337.338788 50.852118 
L 337.468889 48.310906 
L 338.15189 48.310906 
L 338.282024 45.769694 
L 338.542284 45.769694 
L 338.672416 48.310906 
L 339.030276 48.310906 
L 339.160613 50.852118 
L 339.453205 50.852118 
L 339.583663 53.393329 
L 339.746179 55.934541 
L 339.908664 55.934541 
L 340.038797 58.475753 
L 340.331756 58.475753 
L 340.461936 55.934541 
L 341.144912 55.934541 
L 341.27504 58.475753 
L 341.665434 58.475753 
L 341.795566 61.016965 
L 342.185958 61.016965 
L 342.316093 63.558176 
L 342.641419 63.558176 
L 342.804303 66.099388 
L 343.161942 66.099388 
L 343.29242 68.6406 
L 344.463257 68.6406 
L 344.626109 71.181812 
L 344.951499 71.181812 
L 345.081641 73.723023 
L 345.472007 73.723023 
L 345.602064 71.181812 
L 346.805623 71.181812 
L 346.870688 73.723023 
L 346.903418 71.181812 
L 347.228763 71.181812 
L 347.358907 68.6406 
L 347.781611 68.6406 
L 347.91174 71.181812 
L 348.334787 71.181812 
L 348.465083 73.723023 
L 348.562396 73.723023 
L 348.692529 76.264235 
L 349.18078 76.264235 
L 349.310898 78.805447 
L 349.603446 78.805447 
L 349.76638 83.88787 
L 349.798645 83.88787 
L 349.928776 86.429082 
L 350.123977 86.429082 
L 350.254103 88.970294 
L 350.384238 86.429082 
L 350.579437 86.429082 
L 350.742263 83.88787 
L 350.872474 83.88787 
L 351.002653 86.429082 
L 351.099962 86.429082 
L 351.327796 76.264235 
L 351.555421 76.264235 
L 351.685552 73.723023 
L 352.108684 73.723023 
L 352.238814 76.264235 
L 352.661542 76.264235 
L 352.791669 73.723023 
L 353.019648 73.723023 
L 353.149607 76.264235 
L 353.27981 76.264235 
L 353.410035 78.805447 
L 353.54015 78.805447 
L 353.735137 86.429082 
L 353.962853 86.429082 
L 354.092983 83.88787 
L 354.353246 83.88787 
L 354.483378 81.346659 
L 354.776443 81.346659 
L 354.939239 76.264235 
L 355.264172 76.264235 
L 355.29696 73.723023 
L 355.362043 76.264235 
L 355.589499 76.264235 
L 355.654565 73.723023 
L 355.687365 76.264235 
L 356.955884 76.264235 
L 357.086015 73.723023 
L 357.63928 73.723023 
L 357.76942 71.181812 
L 357.834538 71.181812 
L 357.93222 73.723023 
L 357.99734 73.723023 
L 358.127068 76.264235 
L 358.452397 76.264235 
L 358.582913 81.346659 
L 358.777722 81.346659 
L 358.940603 86.429082 
L 359.037985 86.429082 
L 359.168118 88.970294 
L 359.428385 88.970294 
L 359.558518 86.429082 
L 359.786466 86.429082 
L 359.981648 78.805447 
L 360.079038 78.805447 
L 360.209171 76.264235 
L 360.632317 76.264235 
L 360.664639 78.805447 
L 360.729704 76.264235 
L 361.348046 76.264235 
L 361.478225 73.723023 
L 361.543166 73.723023 
L 361.640993 71.181812 
L 362.486479 71.181812 
L 362.519256 73.723023 
L 362.584268 71.181812 
L 362.714452 71.181812 
L 362.844547 73.723023 
L 362.877238 73.723023 
L 363.039762 76.264235 
L 363.202206 76.264235 
L 363.3974 83.88787 
L 363.430206 83.88787 
L 363.560121 86.429082 
L 363.625331 86.429082 
L 363.787795 91.511506 
L 363.917926 91.511506 
L 364.048056 88.970294 
L 364.113563 88.970294 
L 364.438452 106.758776 
L 364.568584 106.758776 
L 364.601361 104.217564 
L 364.666415 106.758776 
L 364.991769 124.547258 
L 365.25197 124.547258 
L 365.381929 127.08847 
L 365.44714 127.08847 
L 365.577303 129.629682 
L 365.609629 129.629682 
L 365.642241 127.08847 
L 365.772553 147.418164 
L 365.804827 147.418164 
L 365.837585 149.959376 
L 365.935346 137.253317 
L 366.130487 137.253317 
L 366.162909 134.712105 
L 366.260285 147.418164 
L 366.293025 144.876952 
L 366.455479 139.794529 
L 366.618204 139.794529 
L 366.878512 152.500588 
L 367.106134 152.500588 
L 367.203738 160.124223 
L 367.366395 157.583011 
L 367.464069 152.500588 
L 367.626654 152.500588 
L 367.691722 157.583011 
L 367.757118 155.041799 
L 367.919693 157.583011 
L 367.951981 157.583011 
L 368.049776 152.500588 
L 368.082113 155.041799 
L 368.147178 155.041799 
L 368.179986 152.500588 
L 368.212244 155.041799 
L 368.342371 157.583011 
L 368.505226 157.583011 
L 368.570316 152.500588 
L 368.602634 155.041799 
L 368.667697 157.583011 
L 368.700463 155.041799 
L 368.830565 152.500588 
L 368.862894 152.500588 
L 368.993419 149.959376 
L 369.025547 149.959376 
L 369.155967 152.500588 
L 369.220974 152.500588 
L 369.513935 167.747858 
L 369.708737 160.124223 
L 369.838869 165.206646 
L 369.969001 162.665435 
L 370.00184 165.206646 
L 370.066848 162.665435 
L 370.229612 157.583011 
L 370.42446 165.206646 
L 370.457177 165.206646 
L 370.489526 162.665435 
L 370.554592 165.206646 
L 370.782501 165.206646 
L 371.075113 157.583011 
L 371.22621 157.583011 
L 371.270304 160.124223 
L 371.335713 157.583011 
L 371.563312 152.500588 
L 371.920953 152.500588 
L 372.051085 149.959376 
L 372.962 137.253317 
L 373.09213 139.794529 
L 373.124924 137.253317 
L 373.157604 139.794529 
L 373.320089 142.335741 
L 373.41746 142.335741 
L 373.515284 147.418164 
L 373.547592 144.876952 
L 373.808185 144.876952 
L 373.937984 152.500588 
L 373.970743 152.500588 
L 374.035772 160.124223 
L 374.068109 152.500588 
L 374.165899 152.500588 
L 374.328373 147.418164 
L 374.621393 147.418164 
L 374.718763 144.876952 
L 374.881559 149.959376 
L 374.91396 149.959376 
L 375.109155 142.335741 
L 375.402193 157.583011 
L 375.434481 157.583011 
L 375.564609 162.665435 
L 375.662233 162.665435 
L 375.82487 167.747858 
L 375.922573 167.747858 
L 375.987745 170.28907 
L 376.020065 167.747858 
L 376.052813 165.206646 
L 376.117755 167.747858 
L 376.150191 167.747858 
L 376.182958 165.206646 
L 376.215647 167.747858 
L 376.280322 170.28907 
L 376.312979 167.747858 
L 376.410456 167.747858 
L 376.573344 172.830282 
L 376.60565 172.830282 
L 376.735779 170.28907 
L 376.800843 170.28907 
L 376.996039 165.206646 
L 377.028807 167.747858 
L 377.15893 152.500588 
L 377.386434 152.500588 
L 377.549233 149.959376 
L 377.646686 149.959376 
L 377.744493 144.876952 
L 377.776821 147.418164 
L 377.809616 147.418164 
L 377.939734 144.876952 
L 378.004775 144.876952 
L 378.037484 147.418164 
L 378.102148 144.876952 
L 378.167213 144.876952 
L 378.265086 142.335741 
L 378.460199 149.959376 
L 378.557602 149.959376 
L 378.622669 147.418164 
L 378.720317 152.500588 
L 378.785527 149.959376 
L 378.850645 149.959376 
L 378.947994 152.500588 
L 379.110895 147.418164 
L 379.37106 147.418164 
L 379.533583 152.500588 
L 379.598646 152.500588 
L 379.761502 147.418164 
L 379.923974 147.418164 
L 380.086728 142.335741 
L 380.151944 142.335741 
L 380.31436 147.418164 
L 380.379427 147.418164 
L 380.509901 142.335741 
L 380.802605 142.335741 
L 380.932621 139.794529 
L 381.030079 142.335741 
L 381.388182 122.006047 
L 381.453286 122.006047 
L 381.583288 106.758776 
L 381.778404 106.758776 
L 381.875933 104.217564 
L 385.194275 96.593929 
L 385.227 96.593929 
L 385.357137 94.052717 
L 385.389468 94.052717 
L 385.51987 91.511506 
L 385.8126 91.511506 
L 385.942739 88.970294 
L 386.365453 88.970294 
L 386.495581 91.511506 
L 386.69078 91.511506 
L 386.82091 94.052717 
L 386.85356 94.052717 
L 387.016486 88.970294 
L 387.17892 88.970294 
L 387.341431 83.88787 
L 387.504271 81.346659 
L 387.601691 81.346659 
L 387.731821 78.805447 
L 387.861957 81.346659 
L 388.024624 81.346659 
L 388.154976 78.805447 
L 388.447541 78.805447 
L 388.578063 76.264235 
L 388.805617 76.264235 
L 388.968067 81.346659 
L 389.033134 81.346659 
L 389.163265 83.88787 
L 389.78158 83.88787 
L 389.911675 86.429082 
L 390.920043 86.429082 
L 391.050173 83.88787 
L 391.082852 83.88787 
L 391.245663 78.805447 
L 391.343082 78.805447 
L 391.473193 76.264235 
L 392.123861 76.264235 
L 392.254074 78.805447 
L 392.384193 76.264235 
L 392.481927 76.264235 
L 392.611747 78.805447 
L 392.709492 78.805447 
L 392.839677 76.264235 
L 392.904698 76.264235 
L 393.034832 73.723023 
L 393.490286 73.723023 
L 393.620455 76.264235 
L 394.043191 76.264235 
L 394.173318 73.723023 
L 394.889042 73.723023 
L 395.051861 76.264235 
L 396.190357 76.264235 
L 396.32049 78.805447 
L 396.971144 78.805447 
L 397.101278 81.346659 
L 397.231409 81.346659 
L 397.296475 83.88787 
L 397.329189 81.346659 
L 397.361884 81.346659 
L 397.524413 83.88787 
L 397.914857 83.88787 
L 398.077258 78.805447 
L 398.109986 78.805447 
L 398.240084 76.264235 
L 398.370271 78.805447 
L 398.402588 78.805447 
L 398.532721 76.264235 
L 399.085908 76.264235 
L 399.18371 78.805447 
L 399.281054 78.805447 
L 399.378574 81.346659 
L 399.541402 76.264235 
L 400.972848 76.264235 
L 401.102862 73.723023 
L 401.688397 73.723023 
L 401.818731 76.264235 
L 401.851072 76.264235 
L 401.981201 73.723023 
L 403.282516 73.723023 
L 403.380324 71.181812 
L 403.478066 73.723023 
L 404.160952 73.723023 
L 404.291204 76.264235 
L 405.16942 76.264235 
L 405.267245 73.723023 
L 405.397228 76.264235 
L 405.820078 76.264235 
L 405.95053 78.805447 
L 406.210469 78.805447 
L 406.340599 76.264235 
L 406.926194 76.264235 
L 407.056323 73.723023 
L 407.219034 73.723023 
L 407.349273 76.264235 
L 408.878156 76.264235 
L 409.008643 73.723023 
L 409.138423 76.264235 
L 409.301286 76.264235 
L 409.431384 73.723023 
L 409.496501 73.723023 
L 409.594122 71.181812 
L 409.854146 71.181812 
L 409.984273 68.6406 
L 410.08211 68.6406 
L 410.179471 66.099388 
L 410.342317 66.099388 
L 410.472457 63.558176 
L 410.830482 63.558176 
L 410.960256 61.016965 
L 411.415713 61.016965 
L 411.578595 58.475753 
L 411.773784 58.475753 
L 411.90383 55.934541 
L 412.00131 55.934541 
L 412.066668 58.475753 
L 412.098919 55.934541 
L 412.229263 55.934541 
L 412.359341 58.475753 
L 412.717028 58.475753 
L 412.847161 61.016965 
L 413.140163 61.016965 
L 413.23755 58.475753 
L 414.962005 58.475753 
L 415.059391 55.934541 
L 415.189524 55.934541 
L 415.319653 53.393329 
L 416.263287 53.393329 
L 416.425771 58.475753 
L 417.33669 58.475753 
L 417.466821 61.016965 
L 417.955006 61.016965 
L 418.085155 58.475753 
L 418.280299 58.475753 
L 418.410454 55.934541 
L 418.768422 55.934541 
L 418.931025 53.393329 
L 419.581708 53.393329 
L 419.711784 50.852118 
L 419.841856 50.852118 
L 419.972063 53.393329 
L 420.297361 53.393329 
L 420.427509 50.852118 
L 422.704874 50.852118 
L 422.834983 48.310906 
L 426.055479 48.310906 
L 426.185614 50.852118 
L 427.910146 50.852118 
L 428.040082 53.393329 
L 428.788242 53.393329 
L 428.918373 55.934541 
L 429.569024 55.934541 
L 429.699159 58.475753 
L 430.349816 58.475753 
L 430.479948 55.934541 
L 431.293502 55.934541 
L 431.423484 58.475753 
L 431.716198 58.475753 
L 431.846327 55.934541 
L 432.496987 55.934541 
L 432.627116 53.393329 
L 432.757249 53.393329 
L 432.88776 50.852118 
L 433.277772 50.852118 
L 433.407903 53.393329 
L 434.514018 53.393329 
L 434.644153 55.934541 
L 434.93707 55.934541 
L 435.067285 58.475753 
L 435.587808 58.475753 
L 435.750271 63.558176 
L 435.978052 63.558176 
L 436.108351 61.016965 
L 436.205725 61.016965 
L 436.335859 76.264235 
L 436.596119 88.970294 
L 436.628796 88.970294 
L 436.758929 91.511506 
L 436.889121 88.970294 
L 437.18171 88.970294 
L 437.214329 86.429082 
L 437.279538 88.970294 
L 437.507035 99.135141 
L 437.832364 99.135141 
L 437.995168 94.052717 
L 438.320515 94.052717 
L 438.450607 91.511506 
L 438.548085 91.511506 
L 438.710919 96.593929 
L 438.873409 96.593929 
L 439.003535 99.135141 
L 439.133672 99.135141 
L 439.263804 101.676353 
L 439.393932 99.135141 
L 439.458997 99.135141 
L 439.524062 101.676353 
L 439.686885 86.429082 
L 439.719258 86.429082 
L 439.94721 76.264235 
L 440.142356 76.264235 
L 440.272418 73.723023 
L 440.532833 73.723023 
L 440.662927 71.181812 
L 440.72799 71.181812 
L 440.85795 68.6406 
L 441.053349 68.6406 
L 441.18352 66.099388 
L 441.345901 66.099388 
L 441.476031 63.558176 
L 441.964293 63.558176 
L 442.094224 61.016965 
L 442.19175 61.016965 
L 442.321883 63.558176 
L 442.452016 63.558176 
L 442.582144 61.016965 
L 442.679755 61.016965 
L 442.81006 58.475753 
L 443.200462 58.475753 
L 443.330497 55.934541 
L 443.981226 55.934541 
L 444.111377 53.393329 
L 444.631931 53.393329 
L 444.762042 50.852118 
L 447.039269 50.852118 
L 447.169446 53.393329 
L 447.527402 53.393329 
L 447.689919 55.934541 
L 448.047645 55.934541 
L 448.177761 58.475753 
L 448.210366 58.475753 
L 448.340534 61.016965 
L 448.405686 61.016965 
L 448.535812 63.558176 
L 448.568163 63.558176 
L 448.698294 66.099388 
L 449.479082 66.099388 
L 449.609217 68.6406 
L 449.934544 68.6406 
L 450 71.181812 
L 450 71.181812 
" clip-path="url(#p30693fe4ca)" style="fill: none; stroke: #ff7f0e; stroke-width: 1.5; stroke-linecap: square"/>
   </g>
   <g id="patch_3">
    <path d="M 51.05 279.561175 
L 51.05 25.44 
" style="fill: none; stroke: #000000; stroke-width: 0.8; stroke-linejoin: miter; stroke-linecap: square"/>
   </g>
   <g id="patch_4">
    <path d="M 450 279.561175 
L 450 25.44 
" style="fill: none; stroke: #000000; stroke-width: 0.8; stroke-linejoin: miter; stroke-linecap: square"/>
   </g>
   <g id="patch_5">
    <path d="M 51.05 279.561175 
L 450 279.561175 
" style="fill: none; stroke: #000000; stroke-width: 0.8; stroke-linejoin: miter; stroke-linecap: square"/>
   </g>
   <g id="patch_6">
    <path d="M 51.05 25.44 
L 450 25.44 
" style="fill: none; stroke: #000000; stroke-width: 0.8; stroke-linejoin: miter; stroke-linecap: square"/>
   </g>
   <g id="text_14">
    <!-- November 2023 -->
    <g transform="translate(202.133125 19.44) scale(0.12 -0.12)">
     <defs>
      <path id="DejaVuSans-4e" d="M 628 4666 
L 1478 4666 
L 3547 763 
L 3547 4666 
L 4159 4666 
L 4159 0 
L 3309 0 
L 1241 3903 
L 1241 0 
L 628 0 
L 628 4666 
z
" transform="scale(0.015625)"/>
      <path id="DejaVuSans-6f" d="M 1959 3097 
Q 1497 3097 1228 2736 
Q 959 2375 959 1747 
Q 959 1119 1226 758 
Q 1494 397 1959 397 
Q 2419 397 2687 759 
Q 2956 1122 2956 1747 
Q 2956 2369 2687 2733 
Q 2419 3097 1959 3097 
z
M 1959 3584 
Q 2709 3584 3137 3096 
Q 3566 2609 3566 1747 
Q 3566 888 3137 398 
Q 2709 -91 1959 -91 
Q 1206 -91 779 398 
Q 353 888 353 1747 
Q 353 2609 779 3096 
Q 1206 3584 1959 3584 
z
" transform="scale(0.015625)"/>
      <path id="DejaVuSans-76" d="M 191 3500 
L 800 3500 
L 1894 563 
L 2988 3500 
L 3597 3500 
L 2284 0 
L 1503 0 
L 191 3500 
z
" transform="scale(0.015625)"/>
      <path id="DejaVuSans-65" d="M 3597 1894 
L 3597 1613 
L 953 1613 
Q 991 1019 1311 708 
Q 1631 397 2203 397 
Q 2534 397 2845 478 
Q 3156 559 3463 722 
L 3463 178 
Q 3153 47 2828 -22 
Q 2503 -91 2169 -91 
Q 1331 -91 842 396 
Q 353 884 353 1716 
Q 353 2575 817 3079 
Q 1281 3584 2069 3584 
Q 2775 3584 3186 3129 
Q 3597 2675 3597 1894 
z
M 3022 2063 
Q 3016 2534 2758 2815 
Q 2500 3097 2075 3097 
Q 1594 3097 1305 2825 
Q 1016 2553 972 2059 
L 3022 2063 
z
" transform="scale(0.015625)"/>
      <path id="DejaVuSans-62" d="M 3116 1747 
Q 3116 2381 2855 2742 
Q 2594 3103 2138 3103 
Q 1681 3103 1420 2742 
Q 1159 2381 1159 1747 
Q 1159 1113 1420 752 
Q 1681 391 2138 391 
Q 2594 391 2855 752 
Q 3116 1113 3116 1747 
z
M 1159 2969 
Q 1341 3281 1617 3432 
Q 1894 3584 2278 3584 
Q 2916 3584 3314 3078 
Q 3713 2572 3713 1747 
Q 3713 922 3314 415 
Q 2916 -91 2278 -91 
Q 1894 -91 1617 61 
Q 1341 213 1159 525 
L 1159 0 
L 581 0 
L 581 4863 
L 1159 4863 
L 1159 2969 
z
" transform="scale(0.015625)"/>
      <path id="DejaVuSans-72" d="M 2631 2963 
Q 2534 3019 2420 3045 
Q 2306 3072 2169 3072 
Q 1681 3072 1420 2755 
Q 1159 2438 1159 1844 
L 1159 0 
L 581 0 
L 581 3500 
L 1159 3500 
L 1159 2956 
Q 1341 3275 1631 3429 
Q 1922 3584 2338 3584 
Q 2397 3584 2469 3576 
Q 2541 3569 2628 3553 
L 2631 2963 
z
" transform="scale(0.015625)"/>
     </defs>
     <use xlink:href="#DejaVuSans-4e"/>
     <use xlink:href="#DejaVuSans-6f" x="74.804688"/>
     <use xlink:href="#DejaVuSans-76" x="135.986328"/>
     <use xlink:href="#DejaVuSans-65" x="195.166016"/>
     <use xlink:href="#DejaVuSans-6d" x="256.689453"/>
     <use xlink:href="#DejaVuSans-62" x="354.101562"/>
     <use xlink:href="#DejaVuSans-65" x="417.578125"/>
     <use xlink:href="#DejaVuSans-72" x="479.101562"/>
     <use xlink:href="#DejaVuSans-20" x="520.214844"/>
     <use xlink:href="#DejaVuSans-32" x="552.001953"/>
     <use xlink:href="#DejaVuSans-30" x="615.625"/>
     <use xlink:href="#DejaVuSans-32" x="679.248047"/>
     <use xlink:href="#DejaVuSans-33" x="742.871094"/>
    </g>
   </g>
  </g>
 </g>
 <defs>
  <clipPath id="p30693fe4ca">
   <rect x="51.05" y="25.44" width="398.95" height="254.121175"/>
  </clipPath>
 </defs>
</svg>
