<?xml version="1.0" encoding="utf-8" standalone="no"?>
<!DOCTYPE svg PUBLIC "-//W3C//DTD SVG 1.1//EN"
  "http://www.w3.org/Graphics/SVG/1.1/DTD/svg11.dtd">
<svg xmlns:xlink="http://www.w3.org/1999/xlink" width="432pt" height="288pt" viewBox="0 0 432 288" xmlns="http://www.w3.org/2000/svg" version="1.1">
 <metadata>
  <rdf:RDF xmlns:dc="http://purl.org/dc/elements/1.1/" xmlns:cc="http://creativecommons.org/ns#" xmlns:rdf="http://www.w3.org/1999/02/22-rdf-syntax-ns#">
   <cc:Work>
    <dc:type rdf:resource="http://purl.org/dc/dcmitype/StillImage"/>
    <dc:date>2023-11-12T10:18:36.671132</dc:date>
    <dc:format>image/svg+xml</dc:format>
    <dc:creator>
     <cc:Agent>
      <dc:title>Matplotlib v3.6.3, https://matplotlib.org/</dc:title>
     </cc:Agent>
    </dc:creator>
   </cc:Work>
  </rdf:RDF>
 </metadata>
 <defs>
  <style type="text/css">*{stroke-linejoin: round; stroke-linecap: butt}</style>
 </defs>
 <g id="figure_1">
  <g id="patch_1">
   <path d="M 0 288 
L 432 288 
L 432 0 
L 0 0 
z
" style="fill: #ffffff"/>
  </g>
  <g id="axes_1">
   <g id="patch_2">
    <path d="M 50.925 221.939962 
L 421.2 221.939962 
L 421.2 26.8 
L 50.925 26.8 
z
" style="fill: #ffffff"/>
   </g>
   <g id="matplotlib.axis_1">
    <g id="xtick_1">
     <g id="line2d_1">
      <path d="M 115.707796 221.939962 
L 115.707796 26.8 
" clip-path="url(#pfd68766d30)" style="fill: none; stroke: #b0b0b0; stroke-width: 0.8; stroke-linecap: square"/>
     </g>
     <g id="line2d_2">
      <defs>
       <path id="mb94229e052" d="M 0 0 
L 0 3.5 
" style="stroke: #000000; stroke-width: 0.8"/>
      </defs>
      <g>
       <use xlink:href="#mb94229e052" x="115.707796" y="221.939962" style="stroke: #000000; stroke-width: 0.8"/>
      </g>
     </g>
     <g id="text_1">
      <!-- 2023-11-03 -->
      <g transform="translate(73.143283 275.406821) rotate(-45) scale(0.1 -0.1)">
       <defs>
        <path id="DejaVuSans-32" d="M 1228 531 
L 3431 531 
L 3431 0 
L 469 0 
L 469 531 
Q 828 903 1448 1529 
Q 2069 2156 2228 2338 
Q 2531 2678 2651 2914 
Q 2772 3150 2772 3378 
Q 2772 3750 2511 3984 
Q 2250 4219 1831 4219 
Q 1534 4219 1204 4116 
Q 875 4013 500 3803 
L 500 4441 
Q 881 4594 1212 4672 
Q 1544 4750 1819 4750 
Q 2544 4750 2975 4387 
Q 3406 4025 3406 3419 
Q 3406 3131 3298 2873 
Q 3191 2616 2906 2266 
Q 2828 2175 2409 1742 
Q 1991 1309 1228 531 
z
" transform="scale(0.015625)"/>
        <path id="DejaVuSans-30" d="M 2034 4250 
Q 1547 4250 1301 3770 
Q 1056 3291 1056 2328 
Q 1056 1369 1301 889 
Q 1547 409 2034 409 
Q 2525 409 2770 889 
Q 3016 1369 3016 2328 
Q 3016 3291 2770 3770 
Q 2525 4250 2034 4250 
z
M 2034 4750 
Q 2819 4750 3233 4129 
Q 3647 3509 3647 2328 
Q 3647 1150 3233 529 
Q 2819 -91 2034 -91 
Q 1250 -91 836 529 
Q 422 1150 422 2328 
Q 422 3509 836 4129 
Q 1250 4750 2034 4750 
z
" transform="scale(0.015625)"/>
        <path id="DejaVuSans-33" d="M 2597 2516 
Q 3050 2419 3304 2112 
Q 3559 1806 3559 1356 
Q 3559 666 3084 287 
Q 2609 -91 1734 -91 
Q 1441 -91 1130 -33 
Q 819 25 488 141 
L 488 750 
Q 750 597 1062 519 
Q 1375 441 1716 441 
Q 2309 441 2620 675 
Q 2931 909 2931 1356 
Q 2931 1769 2642 2001 
Q 2353 2234 1838 2234 
L 1294 2234 
L 1294 2753 
L 1863 2753 
Q 2328 2753 2575 2939 
Q 2822 3125 2822 3475 
Q 2822 3834 2567 4026 
Q 2313 4219 1838 4219 
Q 1578 4219 1281 4162 
Q 984 4106 628 3988 
L 628 4550 
Q 988 4650 1302 4700 
Q 1616 4750 1894 4750 
Q 2613 4750 3031 4423 
Q 3450 4097 3450 3541 
Q 3450 3153 3228 2886 
Q 3006 2619 2597 2516 
z
" transform="scale(0.015625)"/>
        <path id="DejaVuSans-2d" d="M 313 2009 
L 1997 2009 
L 1997 1497 
L 313 1497 
L 313 2009 
z
" transform="scale(0.015625)"/>
        <path id="DejaVuSans-31" d="M 794 531 
L 1825 531 
L 1825 4091 
L 703 3866 
L 703 4441 
L 1819 4666 
L 2450 4666 
L 2450 531 
L 3481 531 
L 3481 0 
L 794 0 
L 794 531 
z
" transform="scale(0.015625)"/>
       </defs>
       <use xlink:href="#DejaVuSans-32"/>
       <use xlink:href="#DejaVuSans-30" x="63.623047"/>
       <use xlink:href="#DejaVuSans-32" x="127.246094"/>
       <use xlink:href="#DejaVuSans-33" x="190.869141"/>
       <use xlink:href="#DejaVuSans-2d" x="254.492188"/>
       <use xlink:href="#DejaVuSans-31" x="290.576172"/>
       <use xlink:href="#DejaVuSans-31" x="354.199219"/>
       <use xlink:href="#DejaVuSans-2d" x="417.822266"/>
       <use xlink:href="#DejaVuSans-30" x="453.90625"/>
       <use xlink:href="#DejaVuSans-33" x="517.529297"/>
      </g>
     </g>
    </g>
    <g id="xtick_2">
     <g id="line2d_3">
      <path d="M 180.50783 221.939962 
L 180.50783 26.8 
" clip-path="url(#pfd68766d30)" style="fill: none; stroke: #b0b0b0; stroke-width: 0.8; stroke-linecap: square"/>
     </g>
     <g id="line2d_4">
      <g>
       <use xlink:href="#mb94229e052" x="180.50783" y="221.939962" style="stroke: #000000; stroke-width: 0.8"/>
      </g>
     </g>
     <g id="text_2">
      <!-- 2023-11-05 -->
      <g transform="translate(137.943316 275.406821) rotate(-45) scale(0.1 -0.1)">
       <defs>
        <path id="DejaVuSans-35" d="M 691 4666 
L 3169 4666 
L 3169 4134 
L 1269 4134 
L 1269 2991 
Q 1406 3038 1543 3061 
Q 1681 3084 1819 3084 
Q 2600 3084 3056 2656 
Q 3513 2228 3513 1497 
Q 3513 744 3044 326 
Q 2575 -91 1722 -91 
Q 1428 -91 1123 -41 
Q 819 9 494 109 
L 494 744 
Q 775 591 1075 516 
Q 1375 441 1709 441 
Q 2250 441 2565 725 
Q 2881 1009 2881 1497 
Q 2881 1984 2565 2268 
Q 2250 2553 1709 2553 
Q 1456 2553 1204 2497 
Q 953 2441 691 2322 
L 691 4666 
z
" transform="scale(0.015625)"/>
       </defs>
       <use xlink:href="#DejaVuSans-32"/>
       <use xlink:href="#DejaVuSans-30" x="63.623047"/>
       <use xlink:href="#DejaVuSans-32" x="127.246094"/>
       <use xlink:href="#DejaVuSans-33" x="190.869141"/>
       <use xlink:href="#DejaVuSans-2d" x="254.492188"/>
       <use xlink:href="#DejaVuSans-31" x="290.576172"/>
       <use xlink:href="#DejaVuSans-31" x="354.199219"/>
       <use xlink:href="#DejaVuSans-2d" x="417.822266"/>
       <use xlink:href="#DejaVuSans-30" x="453.90625"/>
       <use xlink:href="#DejaVuSans-35" x="517.529297"/>
      </g>
     </g>
    </g>
    <g id="xtick_3">
     <g id="line2d_5">
      <path d="M 245.307863 221.939962 
L 245.307863 26.8 
" clip-path="url(#pfd68766d30)" style="fill: none; stroke: #b0b0b0; stroke-width: 0.8; stroke-linecap: square"/>
     </g>
     <g id="line2d_6">
      <g>
       <use xlink:href="#mb94229e052" x="245.307863" y="221.939962" style="stroke: #000000; stroke-width: 0.8"/>
      </g>
     </g>
     <g id="text_3">
      <!-- 2023-11-07 -->
      <g transform="translate(202.743349 275.406821) rotate(-45) scale(0.1 -0.1)">
       <defs>
        <path id="DejaVuSans-37" d="M 525 4666 
L 3525 4666 
L 3525 4397 
L 1831 0 
L 1172 0 
L 2766 4134 
L 525 4134 
L 525 4666 
z
" transform="scale(0.015625)"/>
       </defs>
       <use xlink:href="#DejaVuSans-32"/>
       <use xlink:href="#DejaVuSans-30" x="63.623047"/>
       <use xlink:href="#DejaVuSans-32" x="127.246094"/>
       <use xlink:href="#DejaVuSans-33" x="190.869141"/>
       <use xlink:href="#DejaVuSans-2d" x="254.492188"/>
       <use xlink:href="#DejaVuSans-31" x="290.576172"/>
       <use xlink:href="#DejaVuSans-31" x="354.199219"/>
       <use xlink:href="#DejaVuSans-2d" x="417.822266"/>
       <use xlink:href="#DejaVuSans-30" x="453.90625"/>
       <use xlink:href="#DejaVuSans-37" x="517.529297"/>
      </g>
     </g>
    </g>
    <g id="xtick_4">
     <g id="line2d_7">
      <path d="M 310.107896 221.939962 
L 310.107896 26.8 
" clip-path="url(#pfd68766d30)" style="fill: none; stroke: #b0b0b0; stroke-width: 0.8; stroke-linecap: square"/>
     </g>
     <g id="line2d_8">
      <g>
       <use xlink:href="#mb94229e052" x="310.107896" y="221.939962" style="stroke: #000000; stroke-width: 0.8"/>
      </g>
     </g>
     <g id="text_4">
      <!-- 2023-11-09 -->
      <g transform="translate(267.543383 275.406821) rotate(-45) scale(0.1 -0.1)">
       <defs>
        <path id="DejaVuSans-39" d="M 703 97 
L 703 672 
Q 941 559 1184 500 
Q 1428 441 1663 441 
Q 2288 441 2617 861 
Q 2947 1281 2994 2138 
Q 2813 1869 2534 1725 
Q 2256 1581 1919 1581 
Q 1219 1581 811 2004 
Q 403 2428 403 3163 
Q 403 3881 828 4315 
Q 1253 4750 1959 4750 
Q 2769 4750 3195 4129 
Q 3622 3509 3622 2328 
Q 3622 1225 3098 567 
Q 2575 -91 1691 -91 
Q 1453 -91 1209 -44 
Q 966 3 703 97 
z
M 1959 2075 
Q 2384 2075 2632 2365 
Q 2881 2656 2881 3163 
Q 2881 3666 2632 3958 
Q 2384 4250 1959 4250 
Q 1534 4250 1286 3958 
Q 1038 3666 1038 3163 
Q 1038 2656 1286 2365 
Q 1534 2075 1959 2075 
z
" transform="scale(0.015625)"/>
       </defs>
       <use xlink:href="#DejaVuSans-32"/>
       <use xlink:href="#DejaVuSans-30" x="63.623047"/>
       <use xlink:href="#DejaVuSans-32" x="127.246094"/>
       <use xlink:href="#DejaVuSans-33" x="190.869141"/>
       <use xlink:href="#DejaVuSans-2d" x="254.492188"/>
       <use xlink:href="#DejaVuSans-31" x="290.576172"/>
       <use xlink:href="#DejaVuSans-31" x="354.199219"/>
       <use xlink:href="#DejaVuSans-2d" x="417.822266"/>
       <use xlink:href="#DejaVuSans-30" x="453.90625"/>
       <use xlink:href="#DejaVuSans-39" x="517.529297"/>
      </g>
     </g>
    </g>
    <g id="xtick_5">
     <g id="line2d_9">
      <path d="M 374.90793 221.939962 
L 374.90793 26.8 
" clip-path="url(#pfd68766d30)" style="fill: none; stroke: #b0b0b0; stroke-width: 0.8; stroke-linecap: square"/>
     </g>
     <g id="line2d_10">
      <g>
       <use xlink:href="#mb94229e052" x="374.90793" y="221.939962" style="stroke: #000000; stroke-width: 0.8"/>
      </g>
     </g>
     <g id="text_5">
      <!-- 2023-11-11 -->
      <g transform="translate(332.343416 275.406821) rotate(-45) scale(0.1 -0.1)">
       <use xlink:href="#DejaVuSans-32"/>
       <use xlink:href="#DejaVuSans-30" x="63.623047"/>
       <use xlink:href="#DejaVuSans-32" x="127.246094"/>
       <use xlink:href="#DejaVuSans-33" x="190.869141"/>
       <use xlink:href="#DejaVuSans-2d" x="254.492188"/>
       <use xlink:href="#DejaVuSans-31" x="290.576172"/>
       <use xlink:href="#DejaVuSans-31" x="354.199219"/>
       <use xlink:href="#DejaVuSans-2d" x="417.822266"/>
       <use xlink:href="#DejaVuSans-31" x="453.90625"/>
       <use xlink:href="#DejaVuSans-31" x="517.529297"/>
      </g>
     </g>
    </g>
   </g>
   <g id="matplotlib.axis_2">
    <g id="ytick_1">
     <g id="line2d_11">
      <path d="M 50.925 221.939962 
L 421.2 221.939962 
" clip-path="url(#pfd68766d30)" style="fill: none; stroke: #b0b0b0; stroke-width: 0.8; stroke-linecap: square"/>
     </g>
     <g id="line2d_12">
      <defs>
       <path id="m22814f7763" d="M 0 0 
L -3.5 0 
" style="stroke: #000000; stroke-width: 0.8"/>
      </defs>
      <g>
       <use xlink:href="#m22814f7763" x="50.925" y="221.939962" style="stroke: #000000; stroke-width: 0.8"/>
      </g>
     </g>
     <g id="text_6">
      <!-- 0 -->
      <g transform="translate(37.5625 225.739181) scale(0.1 -0.1)">
       <use xlink:href="#DejaVuSans-30"/>
      </g>
     </g>
    </g>
    <g id="ytick_2">
     <g id="line2d_13">
      <path d="M 50.925 182.91197 
L 421.2 182.91197 
" clip-path="url(#pfd68766d30)" style="fill: none; stroke: #b0b0b0; stroke-width: 0.8; stroke-linecap: square"/>
     </g>
     <g id="line2d_14">
      <g>
       <use xlink:href="#m22814f7763" x="50.925" y="182.91197" style="stroke: #000000; stroke-width: 0.8"/>
      </g>
     </g>
     <g id="text_7">
      <!-- 20 -->
      <g transform="translate(31.2 186.711188) scale(0.1 -0.1)">
       <use xlink:href="#DejaVuSans-32"/>
       <use xlink:href="#DejaVuSans-30" x="63.623047"/>
      </g>
     </g>
    </g>
    <g id="ytick_3">
     <g id="line2d_15">
      <path d="M 50.925 143.883977 
L 421.2 143.883977 
" clip-path="url(#pfd68766d30)" style="fill: none; stroke: #b0b0b0; stroke-width: 0.8; stroke-linecap: square"/>
     </g>
     <g id="line2d_16">
      <g>
       <use xlink:href="#m22814f7763" x="50.925" y="143.883977" style="stroke: #000000; stroke-width: 0.8"/>
      </g>
     </g>
     <g id="text_8">
      <!-- 40 -->
      <g transform="translate(31.2 147.683196) scale(0.1 -0.1)">
       <defs>
        <path id="DejaVuSans-34" d="M 2419 4116 
L 825 1625 
L 2419 1625 
L 2419 4116 
z
M 2253 4666 
L 3047 4666 
L 3047 1625 
L 3713 1625 
L 3713 1100 
L 3047 1100 
L 3047 0 
L 2419 0 
L 2419 1100 
L 313 1100 
L 313 1709 
L 2253 4666 
z
" transform="scale(0.015625)"/>
       </defs>
       <use xlink:href="#DejaVuSans-34"/>
       <use xlink:href="#DejaVuSans-30" x="63.623047"/>
      </g>
     </g>
    </g>
    <g id="ytick_4">
     <g id="line2d_17">
      <path d="M 50.925 104.855985 
L 421.2 104.855985 
" clip-path="url(#pfd68766d30)" style="fill: none; stroke: #b0b0b0; stroke-width: 0.8; stroke-linecap: square"/>
     </g>
     <g id="line2d_18">
      <g>
       <use xlink:href="#m22814f7763" x="50.925" y="104.855985" style="stroke: #000000; stroke-width: 0.8"/>
      </g>
     </g>
     <g id="text_9">
      <!-- 60 -->
      <g transform="translate(31.2 108.655204) scale(0.1 -0.1)">
       <defs>
        <path id="DejaVuSans-36" d="M 2113 2584 
Q 1688 2584 1439 2293 
Q 1191 2003 1191 1497 
Q 1191 994 1439 701 
Q 1688 409 2113 409 
Q 2538 409 2786 701 
Q 3034 994 3034 1497 
Q 3034 2003 2786 2293 
Q 2538 2584 2113 2584 
z
M 3366 4563 
L 3366 3988 
Q 3128 4100 2886 4159 
Q 2644 4219 2406 4219 
Q 1781 4219 1451 3797 
Q 1122 3375 1075 2522 
Q 1259 2794 1537 2939 
Q 1816 3084 2150 3084 
Q 2853 3084 3261 2657 
Q 3669 2231 3669 1497 
Q 3669 778 3244 343 
Q 2819 -91 2113 -91 
Q 1303 -91 875 529 
Q 447 1150 447 2328 
Q 447 3434 972 4092 
Q 1497 4750 2381 4750 
Q 2619 4750 2861 4703 
Q 3103 4656 3366 4563 
z
" transform="scale(0.015625)"/>
       </defs>
       <use xlink:href="#DejaVuSans-36"/>
       <use xlink:href="#DejaVuSans-30" x="63.623047"/>
      </g>
     </g>
    </g>
    <g id="ytick_5">
     <g id="line2d_19">
      <path d="M 50.925 65.827992 
L 421.2 65.827992 
" clip-path="url(#pfd68766d30)" style="fill: none; stroke: #b0b0b0; stroke-width: 0.8; stroke-linecap: square"/>
     </g>
     <g id="line2d_20">
      <g>
       <use xlink:href="#m22814f7763" x="50.925" y="65.827992" style="stroke: #000000; stroke-width: 0.8"/>
      </g>
     </g>
     <g id="text_10">
      <!-- 80 -->
      <g transform="translate(31.2 69.627211) scale(0.1 -0.1)">
       <defs>
        <path id="DejaVuSans-38" d="M 2034 2216 
Q 1584 2216 1326 1975 
Q 1069 1734 1069 1313 
Q 1069 891 1326 650 
Q 1584 409 2034 409 
Q 2484 409 2743 651 
Q 3003 894 3003 1313 
Q 3003 1734 2745 1975 
Q 2488 2216 2034 2216 
z
M 1403 2484 
Q 997 2584 770 2862 
Q 544 3141 544 3541 
Q 544 4100 942 4425 
Q 1341 4750 2034 4750 
Q 2731 4750 3128 4425 
Q 3525 4100 3525 3541 
Q 3525 3141 3298 2862 
Q 3072 2584 2669 2484 
Q 3125 2378 3379 2068 
Q 3634 1759 3634 1313 
Q 3634 634 3220 271 
Q 2806 -91 2034 -91 
Q 1263 -91 848 271 
Q 434 634 434 1313 
Q 434 1759 690 2068 
Q 947 2378 1403 2484 
z
M 1172 3481 
Q 1172 3119 1398 2916 
Q 1625 2713 2034 2713 
Q 2441 2713 2670 2916 
Q 2900 3119 2900 3481 
Q 2900 3844 2670 4047 
Q 2441 4250 2034 4250 
Q 1625 4250 1398 4047 
Q 1172 3844 1172 3481 
z
" transform="scale(0.015625)"/>
       </defs>
       <use xlink:href="#DejaVuSans-38"/>
       <use xlink:href="#DejaVuSans-30" x="63.623047"/>
      </g>
     </g>
    </g>
    <g id="ytick_6">
     <g id="line2d_21">
      <path d="M 50.925 26.8 
L 421.2 26.8 
" clip-path="url(#pfd68766d30)" style="fill: none; stroke: #b0b0b0; stroke-width: 0.8; stroke-linecap: square"/>
     </g>
     <g id="line2d_22">
      <g>
       <use xlink:href="#m22814f7763" x="50.925" y="26.8" style="stroke: #000000; stroke-width: 0.8"/>
      </g>
     </g>
     <g id="text_11">
      <!-- 100 -->
      <g transform="translate(24.8375 30.599219) scale(0.1 -0.1)">
       <use xlink:href="#DejaVuSans-31"/>
       <use xlink:href="#DejaVuSans-30" x="63.623047"/>
       <use xlink:href="#DejaVuSans-30" x="127.246094"/>
      </g>
     </g>
    </g>
    <g id="text_12">
     <!-- Humidity [%RH] -->
     <g transform="translate(18.757812 164.516856) rotate(-90) scale(0.1 -0.1)">
      <defs>
       <path id="DejaVuSans-48" d="M 628 4666 
L 1259 4666 
L 1259 2753 
L 3553 2753 
L 3553 4666 
L 4184 4666 
L 4184 0 
L 3553 0 
L 3553 2222 
L 1259 2222 
L 1259 0 
L 628 0 
L 628 4666 
z
" transform="scale(0.015625)"/>
       <path id="DejaVuSans-75" d="M 544 1381 
L 544 3500 
L 1119 3500 
L 1119 1403 
Q 1119 906 1312 657 
Q 1506 409 1894 409 
Q 2359 409 2629 706 
Q 2900 1003 2900 1516 
L 2900 3500 
L 3475 3500 
L 3475 0 
L 2900 0 
L 2900 538 
Q 2691 219 2414 64 
Q 2138 -91 1772 -91 
Q 1169 -91 856 284 
Q 544 659 544 1381 
z
M 1991 3584 
L 1991 3584 
z
" transform="scale(0.015625)"/>
       <path id="DejaVuSans-6d" d="M 3328 2828 
Q 3544 3216 3844 3400 
Q 4144 3584 4550 3584 
Q 5097 3584 5394 3201 
Q 5691 2819 5691 2113 
L 5691 0 
L 5113 0 
L 5113 2094 
Q 5113 2597 4934 2840 
Q 4756 3084 4391 3084 
Q 3944 3084 3684 2787 
Q 3425 2491 3425 1978 
L 3425 0 
L 2847 0 
L 2847 2094 
Q 2847 2600 2669 2842 
Q 2491 3084 2119 3084 
Q 1678 3084 1418 2786 
Q 1159 2488 1159 1978 
L 1159 0 
L 581 0 
L 581 3500 
L 1159 3500 
L 1159 2956 
Q 1356 3278 1631 3431 
Q 1906 3584 2284 3584 
Q 2666 3584 2933 3390 
Q 3200 3197 3328 2828 
z
" transform="scale(0.015625)"/>
       <path id="DejaVuSans-69" d="M 603 3500 
L 1178 3500 
L 1178 0 
L 603 0 
L 603 3500 
z
M 603 4863 
L 1178 4863 
L 1178 4134 
L 603 4134 
L 603 4863 
z
" transform="scale(0.015625)"/>
       <path id="DejaVuSans-64" d="M 2906 2969 
L 2906 4863 
L 3481 4863 
L 3481 0 
L 2906 0 
L 2906 525 
Q 2725 213 2448 61 
Q 2172 -91 1784 -91 
Q 1150 -91 751 415 
Q 353 922 353 1747 
Q 353 2572 751 3078 
Q 1150 3584 1784 3584 
Q 2172 3584 2448 3432 
Q 2725 3281 2906 2969 
z
M 947 1747 
Q 947 1113 1208 752 
Q 1469 391 1925 391 
Q 2381 391 2643 752 
Q 2906 1113 2906 1747 
Q 2906 2381 2643 2742 
Q 2381 3103 1925 3103 
Q 1469 3103 1208 2742 
Q 947 2381 947 1747 
z
" transform="scale(0.015625)"/>
       <path id="DejaVuSans-74" d="M 1172 4494 
L 1172 3500 
L 2356 3500 
L 2356 3053 
L 1172 3053 
L 1172 1153 
Q 1172 725 1289 603 
Q 1406 481 1766 481 
L 2356 481 
L 2356 0 
L 1766 0 
Q 1100 0 847 248 
Q 594 497 594 1153 
L 594 3053 
L 172 3053 
L 172 3500 
L 594 3500 
L 594 4494 
L 1172 4494 
z
" transform="scale(0.015625)"/>
       <path id="DejaVuSans-79" d="M 2059 -325 
Q 1816 -950 1584 -1140 
Q 1353 -1331 966 -1331 
L 506 -1331 
L 506 -850 
L 844 -850 
Q 1081 -850 1212 -737 
Q 1344 -625 1503 -206 
L 1606 56 
L 191 3500 
L 800 3500 
L 1894 763 
L 2988 3500 
L 3597 3500 
L 2059 -325 
z
" transform="scale(0.015625)"/>
       <path id="DejaVuSans-20" transform="scale(0.015625)"/>
       <path id="DejaVuSans-5b" d="M 550 4863 
L 1875 4863 
L 1875 4416 
L 1125 4416 
L 1125 -397 
L 1875 -397 
L 1875 -844 
L 550 -844 
L 550 4863 
z
" transform="scale(0.015625)"/>
       <path id="DejaVuSans-25" d="M 4653 2053 
Q 4381 2053 4226 1822 
Q 4072 1591 4072 1178 
Q 4072 772 4226 539 
Q 4381 306 4653 306 
Q 4919 306 5073 539 
Q 5228 772 5228 1178 
Q 5228 1588 5073 1820 
Q 4919 2053 4653 2053 
z
M 4653 2450 
Q 5147 2450 5437 2106 
Q 5728 1763 5728 1178 
Q 5728 594 5436 251 
Q 5144 -91 4653 -91 
Q 4153 -91 3862 251 
Q 3572 594 3572 1178 
Q 3572 1766 3864 2108 
Q 4156 2450 4653 2450 
z
M 1428 4353 
Q 1159 4353 1004 4120 
Q 850 3888 850 3481 
Q 850 3069 1003 2837 
Q 1156 2606 1428 2606 
Q 1700 2606 1854 2837 
Q 2009 3069 2009 3481 
Q 2009 3884 1853 4118 
Q 1697 4353 1428 4353 
z
M 4250 4750 
L 4750 4750 
L 1831 -91 
L 1331 -91 
L 4250 4750 
z
M 1428 4750 
Q 1922 4750 2215 4408 
Q 2509 4066 2509 3481 
Q 2509 2891 2217 2550 
Q 1925 2209 1428 2209 
Q 931 2209 642 2551 
Q 353 2894 353 3481 
Q 353 4063 643 4406 
Q 934 4750 1428 4750 
z
" transform="scale(0.015625)"/>
       <path id="DejaVuSans-52" d="M 2841 2188 
Q 3044 2119 3236 1894 
Q 3428 1669 3622 1275 
L 4263 0 
L 3584 0 
L 2988 1197 
Q 2756 1666 2539 1819 
Q 2322 1972 1947 1972 
L 1259 1972 
L 1259 0 
L 628 0 
L 628 4666 
L 2053 4666 
Q 2853 4666 3247 4331 
Q 3641 3997 3641 3322 
Q 3641 2881 3436 2590 
Q 3231 2300 2841 2188 
z
M 1259 4147 
L 1259 2491 
L 2053 2491 
Q 2509 2491 2742 2702 
Q 2975 2913 2975 3322 
Q 2975 3731 2742 3939 
Q 2509 4147 2053 4147 
L 1259 4147 
z
" transform="scale(0.015625)"/>
       <path id="DejaVuSans-5d" d="M 1947 4863 
L 1947 -844 
L 622 -844 
L 622 -397 
L 1369 -397 
L 1369 4416 
L 622 4416 
L 622 4863 
L 1947 4863 
z
" transform="scale(0.015625)"/>
      </defs>
      <use xlink:href="#DejaVuSans-48"/>
      <use xlink:href="#DejaVuSans-75" x="75.195312"/>
      <use xlink:href="#DejaVuSans-6d" x="138.574219"/>
      <use xlink:href="#DejaVuSans-69" x="235.986328"/>
      <use xlink:href="#DejaVuSans-64" x="263.769531"/>
      <use xlink:href="#DejaVuSans-69" x="327.246094"/>
      <use xlink:href="#DejaVuSans-74" x="355.029297"/>
      <use xlink:href="#DejaVuSans-79" x="394.238281"/>
      <use xlink:href="#DejaVuSans-20" x="453.417969"/>
      <use xlink:href="#DejaVuSans-5b" x="485.205078"/>
      <use xlink:href="#DejaVuSans-25" x="524.21875"/>
      <use xlink:href="#DejaVuSans-52" x="619.238281"/>
      <use xlink:href="#DejaVuSans-48" x="688.720703"/>
      <use xlink:href="#DejaVuSans-5d" x="763.916016"/>
     </g>
    </g>
   </g>
   <g id="line2d_23">
    <path d="M 50.925 52.168195 
L 51.014925 52.168195 
L 51.17704 46.313996 
L 51.374921 46.313996 
L 51.501024 44.362597 
L 51.806917 44.362597 
L 51.932973 46.313996 
L 51.968972 46.313996 
L 52.094916 48.265396 
L 52.149014 48.265396 
L 52.274917 50.216795 
L 52.580904 50.216795 
L 52.706912 52.168195 
L 52.850909 52.168195 
L 52.92291 54.119595 
L 52.95891 52.168195 
L 53.606904 52.168195 
L 53.697005 54.119595 
L 53.714903 52.168195 
L 53.768998 52.168195 
L 53.894901 48.265396 
L 53.984998 48.265396 
L 54.110901 50.216795 
L 54.452994 50.216795 
L 54.5789 52.168195 
L 54.722898 54.119595 
L 54.813026 54.119595 
L 54.939133 56.070994 
L 55.046895 56.070994 
L 55.136993 54.119595 
L 55.154894 56.070994 
L 55.623113 56.070994 
L 55.784982 50.216795 
L 55.929002 50.216795 
L 56.054886 52.168195 
L 56.108988 52.168195 
L 56.252999 56.070994 
L 56.342884 56.070994 
L 56.468986 58.022394 
L 56.648887 58.022394 
L 56.792975 54.119595 
L 56.91888 56.070994 
L 57.152976 56.070994 
L 57.278875 54.119595 
L 57.494875 54.119595 
L 57.620988 52.168195 
L 57.782871 52.168195 
L 57.962873 59.973794 
L 57.998867 59.973794 
L 58.142869 63.876593 
L 58.21487 63.876593 
L 58.286869 65.827992 
L 58.323083 63.876593 
L 58.394867 63.876593 
L 58.466868 65.827992 
L 58.502867 63.876593 
L 58.538867 63.876593 
L 58.647074 61.925193 
L 58.808967 61.925193 
L 58.934862 63.876593 
L 59.168976 63.876593 
L 59.294862 65.827992 
L 59.654859 65.827992 
L 59.870857 59.973794 
L 59.978856 59.973794 
L 60.194855 54.119595 
L 60.392903 54.119595 
L 60.518852 52.168195 
L 60.84285 52.168195 
L 60.986848 56.070994 
L 61.274848 56.070994 
L 61.418845 59.973794 
L 61.472954 59.973794 
L 61.634845 65.827992 
L 61.724842 65.827992 
L 61.832959 73.633591 
L 61.868955 69.730792 
L 62.012952 65.827992 
L 62.282842 65.827992 
L 62.71503 104.855985 
L 62.876952 100.953186 
L 63.020954 104.855985 
L 63.092863 104.855985 
L 63.254827 116.564383 
L 63.272901 114.612983 
L 63.344947 110.710184 
L 63.362826 112.661583 
L 63.488908 118.515782 
L 63.524922 116.564383 
L 63.596954 114.612983 
L 63.614822 116.564383 
L 63.704946 120.467182 
L 63.722996 118.515782 
L 63.812945 118.515782 
L 63.86682 120.467182 
L 63.92085 118.515782 
L 64.172925 102.904585 
L 64.226812 102.904585 
L 64.298811 100.953186 
L 64.334813 102.904585 
L 64.388946 102.904585 
L 64.51481 104.855985 
L 64.874803 104.855985 
L 65.018799 100.953186 
L 65.1628 104.855985 
L 65.342797 104.855985 
L 65.41492 106.807384 
L 65.450795 104.855985 
L 65.504909 104.855985 
L 65.648848 100.953186 
L 65.774784 100.953186 
L 65.900914 102.904585 
L 65.918786 102.904585 
L 66.044897 99.001786 
L 66.062784 100.953186 
L 66.152868 99.001786 
L 66.29688 99.001786 
L 66.422938 102.904585 
L 66.566775 102.904585 
L 66.656921 100.953186 
L 66.674774 102.904585 
L 66.800797 104.855985 
L 66.962772 104.855985 
L 67.052858 118.515782 
L 67.106981 114.612983 
L 67.160842 108.758784 
L 67.214767 112.661583 
L 67.232915 114.612983 
L 67.322764 112.661583 
L 67.358762 112.661583 
L 67.53876 102.904585 
L 67.556882 104.855985 
L 67.646758 102.904585 
L 67.700884 102.904585 
L 67.844853 99.001786 
L 67.988857 102.904585 
L 68.042753 102.904585 
L 68.168816 100.953186 
L 68.294749 100.953186 
L 68.312816 99.001786 
L 68.402747 100.953186 
L 68.420889 100.953186 
L 68.546744 102.904585 
L 68.582744 102.904585 
L 68.690741 100.953186 
L 68.816748 102.904585 
L 68.87074 102.904585 
L 68.996785 100.953186 
L 69.194736 100.953186 
L 69.392854 110.710184 
L 69.410735 110.710184 
L 69.482899 106.807384 
L 69.536838 108.758784 
L 69.572856 108.758784 
L 69.716839 104.855985 
L 69.788877 104.855985 
L 69.914723 102.904585 
L 70.058722 102.904585 
L 70.184769 100.953186 
L 70.220847 102.904585 
L 70.292854 100.953186 
L 70.796833 100.953186 
L 70.95871 95.098987 
L 70.994709 95.098987 
L 71.120817 93.147587 
L 71.138707 93.147587 
L 71.390703 85.341989 
L 71.606701 85.341989 
L 71.732788 83.390589 
L 71.768828 83.390589 
L 71.912834 79.48779 
L 71.966697 79.48779 
L 72.092834 81.439189 
L 72.146696 81.439189 
L 72.290693 79.48779 
L 72.470691 79.48779 
L 72.59683 63.876593 
L 72.704819 63.876593 
L 72.830907 59.973794 
L 72.938688 59.973794 
L 73.064836 58.022394 
L 73.406686 58.022394 
L 73.514885 56.070994 
L 73.568744 56.070994 
L 73.694685 54.119595 
L 73.838684 54.119595 
L 74.054681 48.265396 
L 74.270677 48.265396 
L 74.396805 50.216795 
L 75.09867 50.216795 
L 75.206863 48.265396 
L 75.404821 48.265396 
L 75.530663 46.313996 
L 75.926657 46.313996 
L 76.052774 44.362597 
L 76.700774 44.362597 
L 76.826648 42.411197 
L 76.89882 42.411197 
L 77.042645 40.459797 
L 77.186641 40.459797 
L 77.312756 38.508398 
L 77.45678 38.508398 
L 77.582826 36.556998 
L 78.374627 36.556998 
L 78.500792 34.605598 
L 78.968658 34.605598 
L 79.094617 32.654199 
L 79.796723 32.654199 
L 79.922606 30.702799 
L 80.678595 30.702799 
L 80.804739 28.7514 
L 105.284442 28.7514 
L 105.446334 34.605598 
L 105.46446 34.605598 
L 105.608488 38.508398 
L 105.662333 38.508398 
L 105.788465 40.459797 
L 106.004338 40.459797 
L 106.130327 42.411197 
L 106.238327 42.411197 
L 106.364382 44.362597 
L 106.724426 44.362597 
L 106.850321 42.411197 
L 107.120396 42.411197 
L 107.246321 40.459797 
L 107.642319 40.459797 
L 107.786316 38.508398 
L 108.830308 38.508398 
L 108.938309 40.459797 
L 109.154307 40.459797 
L 109.280443 38.508398 
L 110.198297 38.508398 
L 110.32442 36.556998 
L 110.594294 36.556998 
L 110.702295 34.605598 
L 110.918296 34.605598 
L 111.044391 32.654199 
L 111.224387 32.654199 
L 111.35029 30.702799 
L 111.854283 30.702799 
L 111.980384 28.7514 
L 112.592357 28.7514 
L 112.718277 30.702799 
L 112.826273 30.702799 
L 113.006272 34.605598 
L 113.132322 34.605598 
L 113.25827 36.556998 
L 113.312421 36.556998 
L 113.438426 38.508398 
L 113.528415 38.508398 
L 113.654264 40.459797 
L 113.978262 40.459797 
L 114.086262 42.411197 
L 114.464262 42.411197 
L 114.590257 40.459797 
L 114.64434 40.459797 
L 114.770452 38.508398 
L 114.860385 38.508398 
L 114.986251 36.556998 
L 115.13044 36.556998 
L 115.25637 34.605598 
L 115.400393 34.605598 
L 115.544398 38.508398 
L 115.580378 38.508398 
L 115.724359 42.411197 
L 115.994244 42.411197 
L 116.102243 40.459797 
L 116.210242 40.459797 
L 116.336389 38.508398 
L 116.462472 38.508398 
L 116.606238 36.556998 
L 116.822443 36.556998 
L 116.948345 34.605598 
L 117.236369 34.605598 
L 117.362232 32.654199 
L 117.884314 32.654199 
L 118.010227 30.702799 
L 118.280338 30.702799 
L 118.406222 32.654199 
L 118.442222 32.654199 
L 118.568326 34.605598 
L 118.622219 34.605598 
L 118.748354 36.556998 
L 118.838401 36.556998 
L 118.964366 38.508398 
L 120.026207 38.508398 
L 120.152369 36.556998 
L 120.404338 36.556998 
L 120.530396 34.605598 
L 120.656305 34.605598 
L 120.782198 36.556998 
L 120.962198 36.556998 
L 121.088311 38.508398 
L 121.394194 38.508398 
L 121.520308 40.459797 
L 122.168306 40.459797 
L 122.294189 38.508398 
L 122.870181 38.508398 
L 123.086178 44.362597 
L 123.104302 44.362597 
L 123.2304 46.313996 
L 123.266177 46.313996 
L 123.392281 44.362597 
L 123.500331 44.362597 
L 123.626174 42.411197 
L 123.698172 42.411197 
L 123.824228 44.362597 
L 123.914398 44.362597 
L 124.040295 42.411197 
L 124.508304 42.411197 
L 124.634163 40.459797 
L 125.318157 40.459797 
L 125.44428 38.508398 
L 125.588299 38.508398 
L 125.714152 40.459797 
L 126.290309 40.459797 
L 126.416253 42.411197 
L 126.542145 40.459797 
L 126.758145 40.459797 
L 126.902142 44.362597 
L 126.938143 44.362597 
L 127.028242 42.411197 
L 127.046141 44.362597 
L 127.082142 44.362597 
L 127.208289 42.411197 
L 127.352197 42.411197 
L 127.478136 40.459797 
L 127.694136 40.459797 
L 127.82027 38.508398 
L 127.982352 38.508398 
L 128.108271 40.459797 
L 128.3063 40.459797 
L 128.45013 42.411197 
L 128.522128 42.411197 
L 128.630129 44.362597 
L 128.846126 44.362597 
L 128.972273 42.411197 
L 130.034122 42.411197 
L 130.160236 44.362597 
L 131.81625 44.362597 
L 131.942103 46.313996 
L 132.014103 46.313996 
L 132.158101 44.362597 
L 132.374285 44.362597 
L 132.500222 46.313996 
L 132.626095 44.362597 
L 132.698098 44.362597 
L 132.878095 48.265396 
L 132.968214 48.265396 
L 133.094093 46.313996 
L 133.202091 46.313996 
L 133.364202 52.168195 
L 133.436138 52.168195 
L 133.580214 56.070994 
L 133.706086 56.070994 
L 133.850086 58.022394 
L 133.958083 58.022394 
L 134.066308 59.973794 
L 134.21008 59.973794 
L 134.336167 58.022394 
L 134.354079 58.022394 
L 134.480183 61.925193 
L 134.606076 59.973794 
L 134.786076 59.973794 
L 134.94822 54.119595 
L 135.182072 54.119595 
L 135.308219 52.168195 
L 135.794067 52.168195 
L 135.920217 50.216795 
L 136.082065 50.216795 
L 136.262062 54.119595 
L 136.460065 54.119595 
L 136.496145 52.168195 
L 136.568202 54.119595 
L 136.658059 54.119595 
L 136.76626 56.070994 
L 136.85619 56.070994 
L 136.982055 54.119595 
L 137.126276 54.119595 
L 137.270053 50.216795 
L 137.378052 50.216795 
L 137.50412 48.265396 
L 137.558052 48.265396 
L 137.684211 46.313996 
L 137.990045 46.313996 
L 138.098046 44.362597 
L 138.260156 44.362597 
L 138.422041 50.216795 
L 138.458226 50.216795 
L 138.584142 52.168195 
L 138.728155 48.265396 
L 139.034037 48.265396 
L 139.106037 46.313996 
L 139.142276 48.265396 
L 139.160025 48.265396 
L 139.322035 54.119595 
L 139.376138 54.119595 
L 139.520071 58.022394 
L 139.55615 58.022394 
L 139.682032 59.973794 
L 139.79003 59.973794 
L 139.844035 61.925193 
L 139.898029 59.973794 
L 140.312164 59.973794 
L 140.456171 56.070994 
L 140.636156 56.070994 
L 140.654027 54.119595 
L 140.744125 56.070994 
L 140.88808 56.070994 
L 141.014023 54.119595 
L 141.050022 54.119595 
L 141.158021 56.070994 
L 141.410022 56.070994 
L 141.536018 58.022394 
L 141.896063 58.022394 
L 142.022018 56.070994 
L 142.130017 56.070994 
L 142.256108 54.119595 
L 142.274015 54.119595 
L 142.436086 59.973794 
L 142.490016 59.973794 
L 142.616086 61.925193 
L 142.688101 61.925193 
L 142.814015 59.973794 
L 142.886181 59.973794 
L 143.012091 61.925193 
L 143.030013 61.925193 
L 143.174013 65.827992 
L 143.30012 65.827992 
L 143.354011 67.779392 
L 143.4081 65.827992 
L 143.642011 65.827992 
L 143.714011 63.876593 
L 143.750012 65.827992 
L 143.840074 65.827992 
L 143.984079 61.925193 
L 144.290009 61.925193 
L 144.41609 59.973794 
L 144.614004 59.973794 
L 144.686003 58.022394 
L 144.722006 59.973794 
L 145.010004 59.973794 
L 145.13611 61.925193 
L 145.370001 61.925193 
L 145.496041 65.827992 
L 145.622 63.876593 
L 145.640078 63.876593 
L 145.801999 69.730792 
L 145.856129 69.730792 
L 146.000123 73.633591 
L 146.036133 73.633591 
L 146.180086 69.730792 
L 146.233999 69.730792 
L 146.413996 73.633591 
L 146.468145 73.633591 
L 146.594148 77.53639 
L 146.773996 73.633591 
L 146.809995 73.633591 
L 146.989997 65.827992 
L 147.278168 65.827992 
L 147.421993 63.876593 
L 147.457995 63.876593 
L 147.584079 61.925193 
L 147.889991 61.925193 
L 148.016071 63.876593 
L 148.033991 63.876593 
L 148.177991 67.779392 
L 148.196057 67.779392 
L 148.376116 75.584991 
L 148.412125 75.584991 
L 148.537991 77.53639 
L 148.609989 77.53639 
L 148.753988 75.584991 
L 148.880119 77.53639 
L 148.916139 77.53639 
L 149.096092 69.730792 
L 149.113987 69.730792 
L 149.257989 65.827992 
L 149.348013 65.827992 
L 149.54599 75.584991 
L 149.725989 75.584991 
L 149.852099 77.53639 
L 149.869988 77.53639 
L 149.977989 79.48779 
L 150.068105 79.48779 
L 150.157989 77.53639 
L 150.17609 79.48779 
L 150.248108 79.48779 
L 150.373988 81.439189 
L 150.481988 81.439189 
L 150.608082 83.390589 
L 150.697987 83.390589 
L 150.716029 85.341989 
L 150.805986 83.390589 
L 150.841986 83.390589 
L 150.968125 85.341989 
L 150.985986 85.341989 
L 151.148087 91.196188 
L 151.201986 91.196188 
L 151.328098 93.147587 
L 151.381985 93.147587 
L 151.580096 83.390589 
L 151.669982 83.390589 
L 151.813984 85.341989 
L 151.885984 85.341989 
L 152.030121 81.439189 
L 152.084055 81.439189 
L 152.209981 79.48779 
L 152.281982 79.48779 
L 152.408021 77.53639 
L 152.552107 77.53639 
L 152.677982 81.439189 
L 152.804135 81.439189 
L 152.929981 79.48779 
L 153.020125 79.48779 
L 153.10998 81.439189 
L 153.128112 79.48779 
L 153.18198 79.48779 
L 153.325979 83.390589 
L 153.398107 83.390589 
L 153.52409 85.341989 
L 153.722163 85.341989 
L 153.937977 93.147587 
L 154.117978 85.341989 
L 154.172081 85.341989 
L 154.297978 81.439189 
L 154.441974 85.341989 
L 154.513974 85.341989 
L 154.676074 91.196188 
L 154.730163 91.196188 
L 154.873974 93.147587 
L 154.909975 93.147587 
L 154.964106 95.098987 
L 155.017976 93.147587 
L 155.144062 91.196188 
L 155.161973 91.196188 
L 155.180118 89.244788 
L 155.269973 91.196188 
L 155.41416 95.098987 
L 155.629974 95.098987 
L 155.737974 97.050386 
L 155.917973 91.196188 
L 156.06197 95.098987 
L 156.098191 95.098987 
L 156.277971 91.196188 
L 156.493971 91.196188 
L 156.565971 93.147587 
L 156.601971 91.196188 
L 156.6201 91.196188 
L 156.764081 87.293388 
L 156.817972 87.293388 
L 156.961972 83.390589 
L 157.160011 83.390589 
L 157.196091 85.341989 
L 157.268094 83.390589 
L 157.304099 83.390589 
L 157.483976 75.584991 
L 157.501967 75.584991 
L 157.645969 79.48779 
L 157.7721 79.48779 
L 157.916095 83.390589 
L 157.933969 83.390589 
L 157.952109 81.439189 
L 158.041967 83.390589 
L 158.060102 83.390589 
L 158.185969 85.341989 
L 158.869968 85.341989 
L 158.996096 83.390589 
L 159.013967 83.390589 
L 159.140095 81.439189 
L 159.193967 81.439189 
L 159.320082 79.48779 
L 159.337966 79.48779 
L 159.661965 102.904585 
L 159.680093 102.904585 
L 159.949962 120.467182 
L 160.076084 120.467182 
L 160.201959 118.515782 
L 160.220093 118.515782 
L 160.237958 116.564383 
L 160.328095 118.515782 
L 160.454106 120.467182 
L 160.525958 120.467182 
L 160.669954 124.369981 
L 160.705955 124.369981 
L 160.760086 128.27278 
L 160.813955 124.369981 
L 160.885955 124.369981 
L 161.029952 120.467182 
L 161.353948 143.883977 
L 161.408074 143.883977 
L 161.479957 149.738176 
L 161.533945 145.835377 
L 161.641943 143.883977 
L 161.749941 149.738176 
L 161.768086 147.786777 
L 161.912063 143.883977 
L 162.056055 143.883977 
L 162.163965 141.932578 
L 162.181935 143.883977 
L 162.272078 141.932578 
L 162.308072 139.981178 
L 162.36193 141.932578 
L 162.397931 141.932578 
L 162.43393 139.981178 
L 162.505931 141.932578 
L 162.541931 141.932578 
L 162.668064 143.883977 
L 162.847974 136.078379 
L 162.884045 136.078379 
L 163.028046 132.17558 
L 163.064026 132.17558 
L 163.20802 136.078379 
L 163.244047 136.078379 
L 163.369917 134.126979 
L 163.460051 134.126979 
L 163.621916 128.27278 
L 163.657915 128.27278 
L 163.78408 136.078379 
L 163.801914 134.126979 
L 164.269907 114.612983 
L 164.413906 114.612983 
L 164.486119 116.564383 
L 164.521903 114.612983 
L 164.539961 114.612983 
L 164.648053 110.710184 
L 164.665903 112.661583 
L 164.737903 112.661583 
L 164.881899 108.758784 
L 164.972047 108.758784 
L 164.989898 106.807384 
L 165.080016 108.758784 
L 165.277897 108.758784 
L 165.40403 104.855985 
L 165.565893 116.564383 
L 165.601893 114.612983 
L 165.691998 112.661583 
L 165.709891 114.612983 
L 165.764004 114.612983 
L 165.90798 120.467182 
L 166.033889 118.515782 
L 166.159992 118.515782 
L 166.321885 112.661583 
L 166.357885 112.661583 
L 166.484011 108.758784 
L 166.628015 112.661583 
L 166.664033 112.661583 
L 166.753877 118.515782 
L 166.789879 116.564383 
L 166.879877 112.661583 
L 166.988033 122.418581 
L 167.005877 120.467182 
L 167.149874 124.369981 
L 167.329873 124.369981 
L 167.581871 108.758784 
L 167.636003 108.758784 
L 167.689868 106.807384 
L 167.744002 108.758784 
L 167.779964 108.758784 
L 167.923928 104.855985 
L 168.068005 104.855985 
L 168.193864 106.807384 
L 168.229854 106.807384 
L 168.33786 104.855985 
L 168.464012 106.807384 
L 168.48186 106.807384 
L 168.607938 104.855985 
L 168.733858 104.855985 
L 168.860001 102.904585 
L 168.878091 102.904585 
L 169.021854 104.855985 
L 169.076001 104.855985 
L 169.201852 102.904585 
L 169.328002 102.904585 
L 169.399981 100.953186 
L 169.435982 102.904585 
L 169.489848 102.904585 
L 169.651956 97.050386 
L 169.669849 97.050386 
L 169.813847 93.147587 
L 169.975954 93.147587 
L 170.047967 95.098987 
L 170.083982 93.147587 
L 170.11998 93.147587 
L 170.246065 91.196188 
L 170.372007 93.147587 
L 170.515951 93.147587 
L 170.659965 89.244788 
L 170.839882 89.244788 
L 170.983931 85.341989 
L 171.037837 85.341989 
L 171.145835 83.390589 
L 171.163961 85.341989 
L 171.254046 83.390589 
L 171.379955 79.48779 
L 171.397833 81.439189 
L 171.505832 81.439189 
L 171.63186 83.390589 
L 171.75783 81.439189 
L 171.883946 83.390589 
L 171.938009 83.390589 
L 172.099916 77.53639 
L 172.135873 77.53639 
L 172.262014 73.633591 
L 172.31587 73.633591 
L 172.459984 69.730792 
L 172.513827 69.730792 
L 172.639834 67.779392 
L 172.693823 67.779392 
L 172.819934 65.827992 
L 173.323844 65.827992 
L 173.467916 61.925193 
L 173.701815 61.925193 
L 173.827935 59.973794 
L 174.439956 59.973794 
L 174.565812 58.022394 
L 174.673811 58.022394 
L 174.81781 54.119595 
L 175.069809 54.119595 
L 175.195919 52.168195 
L 175.429805 52.168195 
L 175.573806 50.216795 
L 176.077803 50.216795 
L 176.203929 48.265396 
L 176.257801 48.265396 
L 176.383849 50.216795 
L 176.455931 50.216795 
L 176.581798 48.265396 
L 177.049796 48.265396 
L 177.17593 50.216795 
L 177.337797 50.216795 
L 177.481794 52.168195 
L 177.607894 50.216795 
L 178.77779 50.216795 
L 178.90393 48.265396 
L 179.263904 48.265396 
L 179.389993 46.313996 
L 180.667922 46.313996 
L 180.793783 44.362597 
L 182.413775 44.362597 
L 182.485775 42.411197 
L 182.521775 44.362597 
L 182.611916 44.362597 
L 182.737775 42.411197 
L 183.547888 42.411197 
L 183.67377 44.362597 
L 184.069768 44.362597 
L 184.195836 42.411197 
L 185.113766 42.411197 
L 185.239885 44.362597 
L 185.833994 44.362597 
L 185.977761 42.411197 
L 190.441745 42.411197 
L 190.567878 40.459797 
L 192.709731 40.459797 
L 192.83588 42.411197 
L 192.96173 42.411197 
L 193.10573 44.362597 
L 193.843875 44.362597 
L 193.969725 46.313996 
L 194.149722 46.313996 
L 194.293725 50.216795 
L 194.437721 50.216795 
L 194.455784 48.265396 
L 194.545721 50.216795 
L 194.797719 50.216795 
L 194.941717 54.119595 
L 195.067787 54.119595 
L 195.193715 56.070994 
L 195.211833 56.070994 
L 195.337714 59.973794 
L 195.481712 59.973794 
L 195.607851 61.925193 
L 195.78783 61.925193 
L 195.913707 59.973794 
L 195.949707 59.973794 
L 195.967869 61.925193 
L 196.057708 59.973794 
L 196.129705 59.973794 
L 196.255863 77.53639 
L 196.4177 83.390589 
L 196.435802 83.390589 
L 196.597699 91.196188 
L 196.669697 87.293388 
L 196.705937 89.244788 
L 196.741696 91.196188 
L 196.795828 89.244788 
L 196.849695 85.341989 
L 196.903839 89.244788 
L 197.065691 95.098987 
L 197.137694 95.098987 
L 197.2638 102.904585 
L 197.299847 100.953186 
L 197.335804 100.953186 
L 197.497686 106.807384 
L 197.533872 106.807384 
L 197.821681 77.53639 
L 197.857681 83.390589 
L 197.911822 83.390589 
L 198.037678 85.341989 
L 198.163832 85.341989 
L 198.307845 91.196188 
L 198.451744 85.341989 
L 198.721667 102.904585 
L 198.811787 102.904585 
L 198.973667 97.050386 
L 198.991768 97.050386 
L 199.15366 91.196188 
L 199.225662 95.098987 
L 199.261661 93.147587 
L 199.31576 89.244788 
L 199.387769 91.196188 
L 199.405855 91.196188 
L 199.56778 87.293388 
L 199.603792 89.244788 
L 199.639785 85.341989 
L 199.657657 85.341989 
L 199.693654 85.341989 
L 199.819763 83.390589 
L 199.963775 83.390589 
L 200.215758 67.779392 
L 200.233648 67.779392 
L 200.305647 65.827992 
L 200.395754 79.48779 
L 200.41389 77.53639 
L 200.449646 77.53639 
L 200.575722 79.48779 
L 200.593642 79.48779 
L 200.719769 65.827992 
L 201.097849 65.827992 
L 201.241637 63.876593 
L 201.493635 63.876593 
L 201.619745 61.925193 
L 201.637633 61.925193 
L 201.745631 59.973794 
L 201.907751 59.973794 
L 202.033628 58.022394 
L 202.339772 58.022394 
L 202.465816 56.070994 
L 202.663751 56.070994 
L 202.789824 54.119595 
L 202.915745 54.119595 
L 203.041618 52.168195 
L 203.077619 52.168195 
L 203.149615 50.216795 
L 203.185616 52.168195 
L 203.527699 52.168195 
L 203.653611 54.119595 
L 203.707772 54.119595 
L 203.833611 52.168195 
L 204.121605 52.168195 
L 204.265605 54.119595 
L 204.607745 54.119595 
L 204.75174 50.216795 
L 204.787732 50.216795 
L 204.931762 54.119595 
L 205.093598 54.119595 
L 205.219683 56.070994 
L 205.669593 56.070994 
L 205.795739 54.119595 
L 206.209589 54.119595 
L 206.335679 56.070994 
L 207.307715 56.070994 
L 207.433576 54.119595 
L 207.469579 54.119595 
L 207.505578 52.168195 
L 207.577574 54.119595 
L 207.721576 54.119595 
L 207.847694 56.070994 
L 207.97357 56.070994 
L 208.04557 54.119595 
L 208.08157 56.070994 
L 208.15357 56.070994 
L 208.279685 54.119595 
L 208.40557 54.119595 
L 208.549798 50.216795 
L 208.801568 50.216795 
L 208.927613 48.265396 
L 208.981565 48.265396 
L 209.107689 46.313996 
L 209.323681 46.313996 
L 209.449561 44.362597 
L 209.773557 44.362597 
L 209.881556 42.411197 
L 209.989555 42.411197 
L 210.115679 44.362597 
L 210.259552 44.362597 
L 210.385551 46.313996 
L 210.493552 46.313996 
L 210.637551 50.216795 
L 210.74555 50.216795 
L 210.871666 52.168195 
L 210.979639 52.168195 
L 211.105546 50.216795 
L 211.429545 50.216795 
L 211.555652 52.168195 
L 211.71754 52.168195 
L 211.843605 54.119595 
L 212.005537 54.119595 
L 212.131655 56.070994 
L 212.257536 56.070994 
L 212.401536 58.022394 
L 212.545533 58.022394 
L 212.671623 59.973794 
L 213.265528 59.973794 
L 213.409526 61.925193 
L 213.535664 61.925193 
L 213.661524 63.876593 
L 213.823652 63.876593 
L 213.949523 61.925193 
L 214.561519 61.925193 
L 214.597518 63.876593 
L 214.669519 61.925193 
L 214.795635 61.925193 
L 214.921517 59.973794 
L 215.101517 59.973794 
L 215.22766 61.925193 
L 215.407579 61.925193 
L 215.551621 65.827992 
L 215.875653 65.827992 
L 216.001717 67.779392 
L 216.109506 67.779392 
L 216.271653 73.633591 
L 216.397507 73.633591 
L 216.469504 75.584991 
L 216.505505 73.633591 
L 216.649506 73.633591 
L 216.793503 71.682191 
L 216.811638 71.682191 
L 216.937503 73.633591 
L 217.117501 65.827992 
L 217.189501 65.827992 
L 217.3156 63.876593 
L 217.495612 63.876593 
L 217.621498 65.827992 
L 217.801499 65.827992 
L 217.927622 63.876593 
L 217.999632 63.876593 
L 218.125495 65.827992 
L 218.143576 65.827992 
L 218.269494 67.779392 
L 218.287617 67.779392 
L 218.449493 73.633591 
L 218.521492 73.633591 
L 218.647613 71.682191 
L 218.73749 71.682191 
L 218.863653 69.730792 
L 218.971637 69.730792 
L 219.11559 65.827992 
L 219.241489 65.827992 
L 219.25963 63.876593 
L 219.349488 65.827992 
L 219.421487 65.827992 
L 219.457487 63.876593 
L 219.529485 65.827992 
L 220.177485 65.827992 
L 220.303596 63.876593 
L 220.555596 63.876593 
L 220.663629 61.925193 
L 220.807573 65.827992 
L 221.005479 65.827992 
L 221.149479 69.730792 
L 221.185476 69.730792 
L 221.347583 75.584991 
L 221.545477 75.584991 
L 221.671592 73.633591 
L 221.743597 73.633591 
L 221.923602 65.827992 
L 222.211592 65.827992 
L 222.229475 67.779392 
L 222.319603 65.827992 
L 222.607592 65.827992 
L 222.751616 61.925193 
L 223.237468 61.925193 
L 223.255603 63.876593 
L 223.345467 61.925193 
L 223.363601 61.925193 
L 223.507531 65.827992 
L 223.633468 65.827992 
L 223.813456 73.633591 
L 223.867575 73.633591 
L 224.011576 77.53639 
L 224.029463 77.53639 
L 224.137706 75.584991 
L 224.371592 89.244788 
L 224.389461 89.244788 
L 224.407596 87.293388 
L 224.461637 91.196188 
L 224.677457 102.904585 
L 224.767567 102.904585 
L 224.911585 106.807384 
L 224.965454 106.807384 
L 224.983497 104.855985 
L 225.091578 122.418581 
L 225.217452 112.661583 
L 225.253635 112.661583 
L 225.271574 110.710184 
L 225.28945 120.467182 
L 225.32545 120.467182 
L 225.469448 114.612983 
L 225.523481 114.612983 
L 225.721611 124.369981 
L 225.793444 124.369981 
L 225.847446 130.22418 
L 225.937442 128.27278 
L 226.081438 124.369981 
L 226.225437 128.27278 
L 226.261437 128.27278 
L 226.387588 124.369981 
L 226.531457 128.27278 
L 226.567537 128.27278 
L 226.711548 124.369981 
L 226.765429 124.369981 
L 226.855422 122.418581 
L 226.873427 124.369981 
L 226.963548 124.369981 
L 227.125639 136.078379 
L 227.161619 134.126979 
L 227.23342 130.22418 
L 227.269421 134.126979 
L 227.305419 134.126979 
L 227.467542 128.27278 
L 227.521611 128.27278 
L 227.683531 134.126979 
L 227.827515 134.126979 
L 228.073011 128.27278 
L 228.097408 130.22418 
L 228.169408 126.321381 
L 228.295536 124.369981 
L 228.457401 124.369981 
L 228.5294 122.418581 
L 229.033394 112.661583 
L 229.249393 116.564383 
L 229.285393 116.564383 
L 229.339517 120.467182 
L 229.41152 118.515782 
L 229.501574 118.515782 
L 229.627494 130.22418 
L 229.753385 122.418581 
L 229.879455 120.467182 
L 229.951508 120.467182 
L 230.005381 118.515782 
L 230.059473 120.467182 
L 230.11338 122.418581 
L 230.149513 120.467182 
L 230.221378 116.564383 
L 230.257377 118.515782 
L 230.383511 128.27278 
L 230.401376 128.27278 
L 230.563467 136.078379 
L 230.599497 134.126979 
L 230.671429 136.078379 
L 230.707487 138.029778 
L 230.743488 134.126979 
L 230.779419 136.078379 
L 230.797366 136.078379 
L 230.815495 134.126979 
L 230.869365 138.029778 
L 230.905365 136.078379 
L 230.941366 136.078379 
L 231.049363 139.981178 
L 231.067494 138.029778 
L 231.15736 138.029778 
L 231.553352 122.418581 
L 231.625351 122.418581 
L 231.769351 118.515782 
L 231.823475 118.515782 
L 231.841573 120.467182 
L 231.91335 118.515782 
L 231.967501 116.564383 
L 232.003477 118.515782 
L 232.129345 122.418581 
L 232.165345 120.467182 
L 232.219372 124.369981 
L 232.237345 122.418581 
L 232.291481 122.418581 
L 232.345342 124.369981 
L 232.381343 122.418581 
L 232.50741 120.467182 
L 232.579418 120.467182 
L 232.705337 124.369981 
L 232.849489 120.467182 
L 232.885335 120.467182 
L 233.011467 116.564383 
L 233.13733 120.467182 
L 233.263427 116.564383 
L 233.371467 116.564383 
L 233.443402 114.612983 
L 233.479437 116.564383 
L 233.497324 116.564383 
L 233.857323 89.244788 
L 233.91136 89.244788 
L 233.965321 87.293388 
L 235.819409 81.439189 
L 235.963425 77.53639 
L 236.143411 77.53639 
L 236.269298 75.584991 
L 236.449295 75.584991 
L 236.575415 77.53639 
L 236.629293 77.53639 
L 236.719356 79.48779 
L 236.73729 77.53639 
L 236.773291 77.53639 
L 236.917288 73.633591 
L 236.935429 73.633591 
L 237.079383 69.730792 
L 237.133284 69.730792 
L 237.205283 67.779392 
L 237.241285 69.730792 
L 237.367286 69.730792 
L 237.493281 67.779392 
L 237.601279 67.779392 
L 237.72733 65.827992 
L 237.799396 65.827992 
L 237.961276 71.682191 
L 238.33938 71.682191 
L 238.429274 73.633591 
L 238.969272 73.633591 
L 239.113268 69.730792 
L 239.13137 69.730792 
L 239.27532 65.827992 
L 239.635324 65.827992 
L 239.707368 67.779392 
L 239.743341 65.827992 
L 239.833435 65.827992 
L 239.959343 67.779392 
L 240.103366 63.876593 
L 240.391343 63.876593 
L 240.51744 65.827992 
L 240.697256 65.827992 
L 240.823358 63.876593 
L 241.165251 63.876593 
L 241.309249 65.827992 
L 241.885246 65.827992 
L 242.011339 67.779392 
L 242.317242 67.779392 
L 242.443389 69.730792 
L 242.461242 69.730792 
L 242.587298 71.682191 
L 242.839383 71.682191 
L 243.001239 65.827992 
L 243.019325 65.827992 
L 243.109236 67.779392 
L 243.127339 65.827992 
L 243.487305 65.827992 
L 243.631355 69.730792 
L 243.649232 69.730792 
L 243.793232 65.827992 
L 244.531316 65.827992 
L 244.657227 63.876593 
L 244.927217 63.876593 
L 245.017223 65.827992 
L 245.035338 63.876593 
L 245.809216 63.876593 
L 245.863332 61.925193 
L 245.917411 63.876593 
L 246.29524 63.876593 
L 246.421212 65.827992 
L 246.853208 65.827992 
L 246.907333 63.876593 
L 246.961208 65.827992 
L 247.213206 65.827992 
L 247.339294 67.779392 
L 247.429203 67.779392 
L 247.555315 65.827992 
L 247.825201 65.827992 
L 247.933198 63.876593 
L 247.987224 63.876593 
L 248.113197 65.827992 
L 248.905188 65.827992 
L 248.977384 63.876593 
L 249.013189 65.827992 
L 249.139299 65.827992 
L 249.283283 61.925193 
L 249.445186 61.925193 
L 249.589183 58.022394 
L 249.715283 58.022394 
L 249.841181 56.070994 
L 249.985377 56.070994 
L 250.111284 54.119595 
L 250.309175 54.119595 
L 250.453176 52.168195 
L 250.50729 52.168195 
L 250.633176 50.216795 
L 250.669337 52.168195 
L 250.741175 50.216795 
L 250.759298 50.216795 
L 250.885169 52.168195 
L 251.02917 52.168195 
L 251.155271 54.119595 
L 251.263283 54.119595 
L 251.389167 52.168195 
L 252.271277 52.168195 
L 252.415246 48.265396 
L 252.991254 48.265396 
L 253.13527 52.168195 
L 253.58515 52.168195 
L 253.693148 54.119595 
L 253.927254 54.119595 
L 254.053276 52.168195 
L 254.107233 52.168195 
L 254.233145 50.216795 
L 254.377303 50.216795 
L 254.521142 48.265396 
L 254.82728 48.265396 
L 254.95314 46.313996 
L 254.971215 46.313996 
L 255.09714 48.265396 
L 255.223239 48.265396 
L 255.349138 46.313996 
L 256.555274 46.313996 
L 256.681126 44.362597 
L 258.409106 44.362597 
L 258.535236 46.313996 
L 259.435262 46.313996 
L 259.561102 48.265396 
L 259.921097 48.265396 
L 260.047215 50.216795 
L 260.353091 50.216795 
L 260.461092 52.168195 
L 260.78509 52.168195 
L 260.911153 50.216795 
L 261.307215 50.216795 
L 261.433085 52.168195 
L 261.541085 52.168195 
L 261.667219 50.216795 
L 261.973083 50.216795 
L 262.099189 48.265396 
L 262.117081 48.265396 
L 262.24319 46.313996 
L 262.405077 46.313996 
L 262.531075 48.265396 
L 263.089071 48.265396 
L 263.215088 50.216795 
L 263.323139 50.216795 
L 263.449071 52.168195 
L 263.683181 52.168195 
L 263.827177 56.070994 
L 263.899096 56.070994 
L 264.025064 54.119595 
L 264.151186 69.730792 
L 264.169064 69.730792 
L 264.331142 77.53639 
L 264.457061 75.584991 
L 264.565059 75.584991 
L 264.583107 73.633591 
L 264.637058 77.53639 
L 264.799175 83.390589 
L 264.925055 83.390589 
L 265.069054 79.48779 
L 265.195141 79.48779 
L 265.321051 77.53639 
L 265.465049 81.439189 
L 265.501048 81.439189 
L 265.627156 83.390589 
L 265.645046 83.390589 
L 265.717046 85.341989 
L 265.753045 83.390589 
L 265.825044 83.390589 
L 265.861043 85.341989 
L 266.023116 69.730792 
L 266.14904 65.827992 
L 266.203134 65.827992 
L 266.329038 63.876593 
L 266.419178 63.876593 
L 266.545039 59.973794 
L 266.707171 59.973794 
L 266.833032 58.022394 
L 266.869035 58.022394 
L 266.995175 56.070994 
L 267.21118 56.070994 
L 267.337029 54.119595 
L 267.463116 56.070994 
L 267.48103 56.070994 
L 267.625027 52.168195 
L 267.895132 52.168195 
L 268.021025 50.216795 
L 268.327115 50.216795 
L 268.453019 48.265396 
L 268.687139 48.265396 
L 268.813016 46.313996 
L 270.019078 46.313996 
L 270.144997 48.265396 
L 270.289154 48.265396 
L 270.432996 50.216795 
L 270.576995 50.216795 
L 270.720992 54.119595 
L 270.775093 54.119595 
L 270.919102 58.022394 
L 271.368985 58.022394 
L 271.495087 59.973794 
L 271.620984 59.973794 
L 271.764983 61.925193 
L 272.251094 61.925193 
L 272.341179 63.876593 
L 272.359008 61.925193 
L 272.575088 61.925193 
L 272.700975 63.876593 
L 272.989173 63.876593 
L 273.043018 61.925193 
L 273.096974 63.876593 
L 273.47508 63.876593 
L 273.619088 67.779392 
L 273.63697 67.779392 
L 273.763091 65.827992 
L 273.960968 65.827992 
L 274.087072 63.876593 
L 274.30307 63.876593 
L 274.428965 61.925193 
L 274.879006 61.925193 
L 275.004964 59.973794 
L 275.095048 59.973794 
L 275.220963 58.022394 
L 275.311094 58.022394 
L 275.436962 59.973794 
L 275.472961 59.973794 
L 275.599089 61.925193 
L 275.742984 61.925193 
L 275.868961 63.876593 
L 275.923098 63.876593 
L 276.049164 61.925193 
L 276.283069 61.925193 
L 276.372959 63.876593 
L 276.516959 61.925193 
L 276.733074 61.925193 
L 276.859057 59.973794 
L 276.912956 59.973794 
L 277.03906 58.022394 
L 277.272955 58.022394 
L 277.380954 59.973794 
L 277.488951 59.973794 
L 277.615073 61.925193 
L 277.848951 61.925193 
L 277.975084 63.876593 
L 278.155063 63.876593 
L 278.280947 61.925193 
L 278.731025 61.925193 
L 278.856945 59.973794 
L 278.892945 59.973794 
L 279.019078 58.022394 
L 279.180943 58.022394 
L 279.307053 56.070994 
L 279.396942 56.070994 
L 279.523052 54.119595 
L 279.828938 54.119595 
L 279.972937 58.022394 
L 280.24305 58.022394 
L 280.368932 59.973794 
L 280.387058 59.973794 
L 280.440934 58.022394 
L 280.494973 59.973794 
L 280.963065 59.973794 
L 281.088929 61.925193 
L 281.575039 61.925193 
L 281.700925 63.876593 
L 281.86299 63.876593 
L 281.988922 65.827992 
L 282.07905 65.827992 
L 282.240918 71.682191 
L 282.600918 71.682191 
L 282.726973 73.633591 
L 282.79899 73.633591 
L 282.943029 69.730792 
L 282.960915 69.730792 
L 283.104914 65.827992 
L 283.212912 65.827992 
L 283.339035 63.876593 
L 283.807066 63.876593 
L 283.932915 65.827992 
L 284.311015 65.827992 
L 284.436914 63.876593 
L 284.671032 63.876593 
L 284.796913 65.827992 
L 284.832912 65.827992 
L 284.995023 71.682191 
L 285.300912 71.682191 
L 285.444911 67.779392 
L 285.463029 67.779392 
L 285.588912 65.827992 
L 285.715031 65.827992 
L 285.877114 73.633591 
L 286.039034 73.633591 
L 286.16491 75.584991 
L 286.183031 75.584991 
L 286.327012 79.48779 
L 286.416911 79.48779 
L 286.561108 83.390589 
L 286.740908 83.390589 
L 286.867009 85.341989 
L 286.884908 85.341989 
L 287.064906 89.244788 
L 287.100907 89.244788 
L 287.208909 91.196188 
L 287.352909 91.196188 
L 287.478984 93.147587 
L 287.496909 93.147587 
L 287.640906 97.050386 
L 287.766997 95.098987 
L 287.856908 95.098987 
L 288.000906 99.001786 
L 288.144904 99.001786 
L 288.288905 102.904585 
L 288.667016 102.904585 
L 288.792906 104.855985 
L 288.81102 104.855985 
L 288.954901 108.758784 
L 289.008904 108.758784 
L 289.170993 114.612983 
L 289.314947 110.710184 
L 289.351028 112.661583 
L 289.404903 108.758784 
L 289.512902 108.758784 
L 289.674994 114.612983 
L 289.764901 114.612983 
L 289.908901 118.515782 
L 289.927018 118.515782 
L 289.945067 116.564383 
L 290.035009 118.515782 
L 290.143013 118.515782 
L 290.232897 122.418581 
L 290.2689 120.467182 
L 290.340896 120.467182 
L 290.484889 124.369981 
L 290.61101 114.612983 
L 290.64688 116.564383 
L 290.826997 124.369981 
L 291.006919 124.369981 
L 291.042999 122.418581 
L 291.133025 141.932578 
L 291.168873 132.17558 
L 291.240874 126.321381 
L 291.366964 139.981178 
L 291.456871 147.786777 
L 291.510961 143.883977 
L 291.564869 143.883977 
L 291.726974 155.592375 
L 291.762969 155.592375 
L 291.816865 153.640975 
L 291.870917 155.592375 
L 291.90698 155.592375 
L 292.014894 153.640975 
L 292.158922 157.543775 
L 292.266965 157.543775 
L 292.392858 155.592375 
L 292.464856 155.592375 
L 292.500854 159.495174 
L 292.572852 155.592375 
L 292.698903 153.640975 
L 292.716853 153.640975 
L 292.824848 157.543775 
L 293.058941 143.883977 
L 293.130981 153.640975 
L 293.184843 149.738176 
L 293.328988 143.883977 
L 293.45493 153.640975 
L 293.490964 151.689576 
L 293.580842 143.883977 
L 293.616841 149.738176 
L 293.688841 149.738176 
L 293.832837 159.495174 
L 293.922921 157.543775 
L 293.940837 159.495174 
L 293.976838 159.495174 
L 294.013026 155.592375 
L 294.084836 159.495174 
L 294.120834 159.495174 
L 294.228832 155.592375 
L 294.24694 157.543775 
L 294.264833 157.543775 
L 294.372831 151.689576 
L 294.390891 157.543775 
L 294.48083 151.689576 
L 294.570929 151.689576 
L 294.696817 157.543775 
L 294.714857 157.543775 
L 294.85894 149.738176 
L 294.984822 155.592375 
L 295.092821 157.543775 
L 295.182938 149.738176 
L 295.218928 151.689576 
L 295.254941 149.738176 
L 295.272818 153.640975 
L 295.290905 153.640975 
L 295.345007 157.543775 
L 295.398868 153.640975 
L 295.416817 153.640975 
L 295.434925 151.689576 
L 295.452815 155.592375 
L 295.488815 155.592375 
L 295.614864 157.543775 
L 295.650915 155.592375 
L 295.704986 159.495174 
L 295.722833 161.446574 
L 295.740812 155.592375 
L 295.758913 155.592375 
L 295.88481 153.640975 
L 295.902905 153.640975 
L 295.956806 155.592375 
L 295.992805 153.640975 
L 296.172804 145.835377 
L 296.22694 145.835377 
L 296.352993 143.883977 
L 296.424802 143.883977 
L 296.514903 141.932578 
L 296.5328 143.883977 
L 296.55089 143.883977 
L 296.676799 139.981178 
L 296.730813 139.981178 
L 296.748798 138.029778 
L 296.838867 139.981178 
L 296.856796 139.981178 
L 297.000796 136.078379 
L 297.036996 136.078379 
L 297.180792 138.029778 
L 297.288791 138.029778 
L 297.306863 139.981178 
L 297.360789 138.029778 
L 297.648787 128.27278 
L 297.666911 128.27278 
L 297.720901 118.515782 
L 297.77487 122.418581 
L 297.936785 122.418581 
L 298.080781 118.515782 
L 298.242904 118.515782 
L 298.332781 120.467182 
L 298.350903 118.515782 
L 298.368782 118.515782 
L 298.584778 112.661583 
L 298.674872 112.661583 
L 298.782847 110.710184 
L 298.854903 112.661583 
L 298.890878 110.710184 
L 298.908776 110.710184 
L 299.034905 108.758784 
L 299.052775 108.758784 
L 299.214886 104.855985 
L 299.358841 108.758784 
L 299.376773 108.758784 
L 299.592769 114.612983 
L 299.934846 114.612983 
L 299.970875 116.564383 
L 300.042861 114.612983 
L 300.168766 112.661583 
L 300.258873 112.661583 
L 300.312768 110.710184 
L 300.366875 112.661583 
L 300.384768 112.661583 
L 300.420881 110.710184 
L 300.492766 112.661583 
L 300.834852 112.661583 
L 300.96076 110.710184 
L 301.014872 110.710184 
L 301.14076 112.661583 
L 301.212761 112.661583 
L 301.338858 110.710184 
L 301.608754 110.710184 
L 301.734855 112.661583 
L 302.040749 112.661583 
L 302.166813 110.710184 
L 302.184748 110.710184 
L 302.310862 108.758784 
L 302.490777 108.758784 
L 302.63486 104.855985 
L 302.796937 104.855985 
L 302.922851 102.904585 
L 303.08474 102.904585 
L 303.210853 104.855985 
L 303.336738 104.855985 
L 303.372738 102.904585 
L 303.444738 104.855985 
L 303.750857 104.855985 
L 303.876735 106.807384 
L 303.930853 104.855985 
L 303.984732 106.807384 
L 304.020735 106.807384 
L 304.128731 108.758784 
L 304.27273 106.807384 
L 304.290865 106.807384 
L 304.344731 108.758784 
L 304.39886 106.807384 
L 304.758884 106.807384 
L 304.884726 108.758784 
L 304.902845 108.758784 
L 305.028725 110.710184 
L 305.100726 108.758784 
L 305.136727 110.710184 
L 305.334831 110.710184 
L 305.496907 104.855985 
L 305.586799 104.855985 
L 305.712722 102.904585 
L 305.856931 102.904585 
L 305.982833 100.953186 
L 306.090828 100.953186 
L 306.10872 102.904585 
L 306.180914 100.953186 
L 306.468718 100.953186 
L 306.61272 97.050386 
L 307.008717 97.050386 
L 307.134832 99.001786 
L 307.422838 99.001786 
L 307.5489 97.050386 
L 307.620714 97.050386 
L 307.746834 95.098987 
L 307.908714 95.098987 
L 308.05271 99.001786 
L 308.08871 99.001786 
L 308.16071 100.953186 
L 308.196711 99.001786 
L 308.484709 99.001786 
L 308.592712 97.050386 
L 308.64681 99.001786 
L 308.700711 97.050386 
L 308.754848 97.050386 
L 308.880708 100.953186 
L 309.258709 100.953186 
L 309.402784 97.050386 
L 309.438821 97.050386 
L 309.56491 99.001786 
L 310.068705 99.001786 
L 310.122794 97.050386 
L 310.176703 99.001786 
L 310.320703 99.001786 
L 310.446843 100.953186 
L 310.482841 100.953186 
L 310.680703 91.196188 
L 311.058779 91.196188 
L 311.184703 93.147587 
L 311.202805 93.147587 
L 311.328703 95.098987 
L 311.346808 95.098987 
L 311.472703 97.050386 
L 311.5807 97.050386 
L 311.670783 95.098987 
L 311.688701 97.050386 
L 311.922759 97.050386 
L 312.0487 95.098987 
L 312.318714 95.098987 
L 312.462814 99.001786 
L 312.588696 99.001786 
L 312.7327 95.098987 
L 312.930819 95.098987 
L 313.056699 97.050386 
L 313.236697 97.050386 
L 313.362769 95.098987 
L 313.542805 95.098987 
L 313.668693 93.147587 
L 313.776694 93.147587 
L 313.902826 91.196188 
L 314.028694 91.196188 
L 314.190794 83.390589 
L 314.244694 85.341989 
L 314.29881 83.390589 
L 314.352695 83.390589 
L 314.388693 81.439189 
L 314.460695 83.390589 
L 314.640694 83.390589 
L 314.694709 85.341989 
L 314.748694 83.390589 
L 314.820692 83.390589 
L 314.964692 85.341989 
L 315.108691 85.341989 
L 315.23483 83.390589 
L 315.324691 83.390589 
L 315.468691 85.341989 
L 315.594848 83.390589 
L 315.648691 83.390589 
L 315.774814 85.341989 
L 316.098797 85.341989 
L 316.224689 87.293388 
L 316.33269 85.341989 
L 316.674806 85.341989 
L 316.800687 83.390589 
L 317.592685 83.390589 
L 317.700684 81.439189 
L 317.772685 81.439189 
L 317.898796 79.48779 
L 317.952686 79.48779 
L 318.096683 83.390589 
L 318.222756 81.439189 
L 318.420681 81.439189 
L 318.546818 83.390589 
L 318.582786 83.390589 
L 318.654793 81.439189 
L 318.690811 83.390589 
L 319.014816 83.390589 
L 319.14068 81.439189 
L 319.230783 81.439189 
L 319.356681 79.48779 
L 319.500682 83.390589 
L 319.662763 83.390589 
L 319.78868 85.341989 
L 319.986717 85.341989 
L 320.112847 83.390589 
L 320.148676 83.390589 
L 320.274823 81.439189 
L 320.310767 81.439189 
L 320.436831 83.390589 
L 320.526786 83.390589 
L 320.652677 85.341989 
L 320.670786 85.341989 
L 320.796675 83.390589 
L 321.066767 83.390589 
L 321.192674 81.439189 
L 321.372674 81.439189 
L 321.408673 79.48779 
L 321.480674 81.439189 
L 321.534783 81.439189 
L 321.660672 83.390589 
L 321.732669 83.390589 
L 321.876671 87.293388 
L 321.96679 87.293388 
L 322.128871 93.147587 
L 322.380668 100.953186 
L 322.506701 100.953186 
L 322.650774 104.855985 
L 323.028665 104.855985 
L 323.226756 114.612983 
L 323.352661 106.807384 
L 323.370763 108.758784 
L 323.514678 112.661583 
L 323.640657 112.661583 
L 323.76672 114.612983 
L 323.892655 114.612983 
L 323.91076 112.661583 
L 324.000651 114.612983 
L 324.054797 114.612983 
L 324.144651 118.515782 
L 324.180647 116.564383 
L 324.216652 116.564383 
L 324.360649 110.710184 
L 324.468649 110.710184 
L 324.540647 108.758784 
L 324.576648 110.710184 
L 324.648648 110.710184 
L 324.810708 104.855985 
L 324.900645 104.855985 
L 325.026758 102.904585 
L 325.296644 102.904585 
L 325.422737 104.855985 
L 325.494743 104.855985 
L 325.620642 106.807384 
L 325.710725 104.855985 
L 325.728639 106.807384 
L 325.746737 106.807384 
L 325.83664 114.612983 
L 325.908641 112.661583 
L 325.962762 112.661583 
L 325.998677 114.612983 
L 326.052638 110.710184 
L 326.160638 110.710184 
L 326.286778 114.612983 
L 326.304636 112.661583 
L 326.39478 110.710184 
L 326.412634 112.661583 
L 326.466747 112.661583 
L 326.592635 108.758784 
L 326.754777 114.612983 
L 326.772633 114.612983 
L 326.826756 112.661583 
L 326.880796 114.612983 
L 327.042768 114.612983 
L 327.060629 116.564383 
L 327.13263 112.661583 
L 327.240628 112.661583 
L 327.366763 110.710184 
L 327.384627 110.710184 
L 327.492625 114.612983 
L 327.510722 112.661583 
L 327.618724 112.661583 
L 327.744624 114.612983 
L 327.888802 110.710184 
L 327.906625 110.710184 
L 328.068621 104.855985 
L 328.608615 104.855985 
L 328.73474 102.904585 
L 329.652605 102.904585 
L 329.778642 100.953186 
L 329.850641 100.953186 
L 329.994681 97.050386 
L 330.120603 97.050386 
L 330.13866 99.001786 
L 330.228602 97.050386 
L 330.3006 97.050386 
L 330.444601 93.147587 
L 330.498657 93.147587 
L 330.642645 89.244788 
L 330.840599 89.244788 
L 330.948588 91.196188 
L 330.966628 89.244788 
L 331.056594 91.196188 
L 331.182657 93.147587 
L 331.254662 93.147587 
L 331.38059 91.196188 
L 331.434678 91.196188 
L 331.596714 85.341989 
L 331.992587 85.341989 
L 332.118659 87.293388 
L 332.172584 87.293388 
L 332.334645 81.439189 
L 332.370615 81.439189 
L 332.496582 79.48779 
L 332.532582 79.48779 
L 332.658614 81.439189 
L 332.676582 81.439189 
L 332.78458 79.48779 
L 332.910659 81.439189 
L 333.126678 81.439189 
L 333.252576 79.48779 
L 333.468575 79.48779 
L 333.594668 77.53639 
L 333.774638 77.53639 
L 333.828573 75.584991 
L 333.882673 77.53639 
L 334.008571 77.53639 
L 334.15257 73.633591 
L 334.278658 73.633591 
L 334.42266 69.730792 
L 334.674562 69.730792 
L 334.800564 67.779392 
L 334.854682 67.779392 
L 334.980697 69.730792 
L 335.358572 69.730792 
L 335.48456 67.779392 
L 335.628559 67.779392 
L 335.754646 69.730792 
L 335.772557 69.730792 
L 335.898644 71.682191 
L 336.024724 69.730792 
L 336.204555 69.730792 
L 336.330629 67.779392 
L 336.366547 67.779392 
L 336.492554 65.827992 
L 337.248548 65.827992 
L 337.356733 63.876593 
L 337.896545 63.876593 
L 338.022635 61.925193 
L 338.54454 61.925193 
L 338.670614 59.973794 
L 338.994626 59.973794 
L 339.102585 58.022394 
L 339.228535 59.973794 
L 339.282601 59.973794 
L 339.408731 58.022394 
L 339.786594 58.022394 
L 339.912532 56.070994 
L 340.686645 56.070994 
L 340.812527 54.119595 
L 344.484677 54.119595 
L 344.610617 52.168195 
L 346.158563 52.168195 
L 346.284505 50.216795 
L 349.326592 50.216795 
L 349.452485 48.265396 
L 352.26047 48.265396 
L 352.404468 46.313996 
L 355.626538 46.313996 
L 355.752447 48.265396 
L 355.806534 48.265396 
L 355.932446 50.216795 
L 356.004592 50.216795 
L 356.13056 52.168195 
L 356.220441 52.168195 
L 356.36444 56.070994 
L 356.43644 56.070994 
L 356.562521 58.022394 
L 356.58044 58.022394 
L 356.706444 56.070994 
L 356.814554 56.070994 
L 356.976435 61.925193 
L 357.048435 61.925193 
L 357.192434 65.827992 
L 358.452421 65.827992 
L 358.578493 63.876593 
L 358.66842 63.876593 
L 358.79451 65.827992 
L 359.442481 65.827992 
L 359.640409 75.584991 
L 359.658518 75.584991 
L 359.766446 77.53639 
L 359.874529 75.584991 
L 360.018522 79.48779 
L 360.090412 79.48779 
L 360.126492 77.53639 
L 360.198489 79.48779 
L 360.306509 79.48779 
L 360.342494 77.53639 
L 360.396569 79.48779 
L 360.522519 79.48779 
L 360.540401 77.53639 
L 360.630514 79.48779 
L 360.75657 81.439189 
L 360.792398 81.439189 
L 360.918504 83.390589 
L 360.954499 83.390589 
L 361.080578 79.48779 
L 361.2065 95.098987 
L 361.296393 91.196188 
L 361.314459 91.196188 
L 361.458432 95.098987 
L 361.51239 95.098987 
L 361.638512 93.147587 
L 361.67449 93.147587 
L 361.782397 89.244788 
L 361.800386 91.196188 
L 361.998468 100.953186 
L 362.070458 100.953186 
L 362.196384 99.001786 
L 362.26838 100.953186 
L 362.304381 99.001786 
L 362.502455 89.244788 
L 362.574492 89.244788 
L 362.700378 79.48779 
L 362.736378 79.48779 
L 362.862466 77.53639 
L 362.97048 77.53639 
L 363.096374 73.633591 
L 363.150416 73.633591 
L 363.330451 65.827992 
L 363.906426 65.827992 
L 364.032362 63.876593 
L 364.19444 63.876593 
L 364.320362 61.925193 
L 364.626434 61.925193 
L 364.752357 59.973794 
L 365.004353 59.973794 
L 365.112352 58.022394 
L 365.274462 58.022394 
L 365.418451 54.119595 
L 365.562457 54.119595 
L 365.688349 52.168195 
L 365.886449 52.168195 
L 366.012346 50.216795 
L 366.336342 50.216795 
L 366.462439 48.265396 
L 367.272333 48.265396 
L 367.758405 89.244788 
L 367.776328 89.244788 
L 367.920328 85.341989 
L 367.956328 85.341989 
L 368.22636 67.779392 
L 368.244325 67.779392 
L 368.388324 63.876593 
L 368.406406 63.876593 
L 368.550324 59.973794 
L 368.640323 59.973794 
L 368.766407 58.022394 
L 369.054408 58.022394 
L 369.180319 56.070994 
L 369.324317 54.119595 
L 369.360317 54.119595 
L 369.486388 52.168195 
L 369.576316 52.168195 
L 369.702378 54.119595 
L 369.900508 54.119595 
L 370.026394 56.070994 
L 370.800307 56.070994 
L 370.926319 54.119595 
L 371.178378 54.119595 
L 371.304302 52.168195 
L 371.790372 52.168195 
L 371.862393 50.216795 
L 371.898337 52.168195 
L 372.00636 52.168195 
L 372.150373 56.070994 
L 372.222399 56.070994 
L 372.348298 58.022394 
L 372.36637 58.022394 
L 372.510353 61.925193 
L 372.564295 61.925193 
L 372.708295 63.876593 
L 373.032291 63.876593 
L 373.158363 65.827992 
L 373.410354 65.827992 
L 373.536287 67.779392 
L 373.572286 67.779392 
L 373.716289 63.876593 
L 373.896286 63.876593 
L 374.040286 59.973794 
L 374.112286 59.973794 
L 374.238359 58.022394 
L 374.598404 58.022394 
L 374.742361 61.925193 
L 375.066385 61.925193 
L 375.19228 63.876593 
L 375.210402 63.876593 
L 375.336281 65.827992 
L 375.390375 65.827992 
L 375.498372 69.730792 
L 375.516279 67.779392 
L 375.678313 67.779392 
L 375.804275 65.827992 
L 375.948276 65.827992 
L 376.002279 67.779392 
L 376.056273 65.827992 
L 376.578373 65.827992 
L 376.758368 73.633591 
L 376.794355 73.633591 
L 376.84827 71.682191 
L 376.902353 73.633591 
L 376.974371 73.633591 
L 377.100272 75.584991 
L 377.136269 75.584991 
L 377.280268 71.682191 
L 377.298365 71.682191 
L 377.442376 67.779392 
L 377.496268 67.779392 
L 377.658349 73.633591 
L 377.748267 73.633591 
L 377.892266 77.53639 
L 377.946359 77.53639 
L 378.072267 79.48779 
L 378.504264 79.48779 
L 378.648263 75.584991 
L 378.810316 75.584991 
L 378.918345 79.48779 
L 378.936263 77.53639 
L 379.008262 77.53639 
L 379.152262 79.48779 
L 379.494333 79.48779 
L 379.530346 81.439189 
L 379.584261 79.48779 
L 379.728253 75.584991 
L 379.872259 75.584991 
L 380.01626 79.48779 
L 380.178313 79.48779 
L 380.304259 81.439189 
L 380.358349 81.439189 
L 380.484257 79.48779 
L 380.646359 79.48779 
L 380.790349 83.390589 
L 380.826319 83.390589 
L 380.952257 85.341989 
L 381.168256 85.341989 
L 381.29433 87.293388 
L 381.366372 87.293388 
L 381.492255 85.341989 
L 381.582373 85.341989 
L 381.672253 81.439189 
L 381.708253 83.390589 
L 381.762246 83.390589 
L 381.906321 79.48779 
L 381.978326 81.439189 
L 382.014356 79.48779 
L 382.050351 79.48779 
L 382.158333 81.439189 
L 382.284252 77.53639 
L 382.446256 83.390589 
L 382.536252 83.390589 
L 382.554306 85.341989 
L 382.644249 83.390589 
L 382.698328 83.390589 
L 382.82425 85.341989 
L 382.878335 85.341989 
L 382.950303 83.390589 
L 382.986327 85.341989 
L 383.040249 85.341989 
L 383.166336 83.390589 
L 383.274367 83.390589 
L 383.382357 85.341989 
L 383.526336 81.439189 
L 383.59834 81.439189 
L 383.742339 85.341989 
L 383.814278 85.341989 
L 383.958346 81.439189 
L 384.084246 81.439189 
L 384.228247 77.53639 
L 384.264243 77.53639 
L 384.390319 75.584991 
L 384.534319 75.584991 
L 384.606313 73.633591 
L 384.642342 75.584991 
L 384.660244 75.584991 
L 384.822252 81.439189 
L 384.858298 81.439189 
L 385.002336 85.341989 
L 385.038321 85.341989 
L 385.164242 83.390589 
L 385.344242 83.390589 
L 385.488388 81.439189 
L 385.506262 81.439189 
L 385.668239 75.584991 
L 385.686307 75.584991 
L 385.812427 77.53639 
L 385.866282 77.53639 
L 385.992238 75.584991 
L 386.190273 85.341989 
L 386.208238 85.341989 
L 386.460235 100.953186 
L 386.496411 100.953186 
L 386.532234 99.001786 
L 386.586339 100.953186 
L 386.694333 102.904585 
L 386.820416 100.953186 
L 386.874284 100.953186 
L 386.910294 102.904585 
L 386.982326 100.953186 
L 387.000231 100.953186 
L 387.144232 104.855985 
L 387.450322 104.855985 
L 387.558294 102.904585 
L 387.702346 106.807384 
L 387.756226 106.807384 
L 387.99032 120.467182 
L 388.008224 120.467182 
L 388.152219 132.17558 
L 388.188375 130.22418 
L 388.242286 128.27278 
L 388.27831 130.22418 
L 388.404216 132.17558 
L 388.440214 132.17558 
L 388.458311 134.126979 
L 388.584213 122.418581 
L 388.620213 122.418581 
L 388.836212 134.126979 
L 388.872373 134.126979 
L 388.9983 141.932578 
L 389.034318 139.981178 
L 389.178323 136.078379 
L 389.196356 136.078379 
L 389.250277 138.029778 
L 389.304204 136.078379 
L 389.394304 132.17558 
L 389.430276 134.126979 
L 389.592201 139.981178 
L 389.682282 139.981178 
L 389.754295 138.029778 
L 389.790288 139.981178 
L 389.808198 139.981178 
L 389.844197 141.932578 
L 389.916197 139.981178 
L 390.132193 139.981178 
L 390.276192 136.078379 
L 390.294292 136.078379 
L 390.43825 139.981178 
L 390.582219 139.981178 
L 390.726282 136.078379 
L 390.762265 136.078379 
L 390.906184 143.883977 
L 390.924183 141.932578 
L 391.01425 141.932578 
L 391.320177 171.203572 
L 391.446276 163.397974 
L 391.464174 163.397974 
L 391.518242 161.446574 
L 391.572319 163.397974 
L 391.716171 182.91197 
L 391.932166 182.91197 
L 392.040166 184.863369 
L 392.094276 182.91197 
L 392.148163 184.863369 
L 392.382262 184.863369 
L 392.418245 182.91197 
L 392.490242 184.863369 
L 392.580336 184.863369 
L 392.634247 171.203572 
L 392.706195 182.91197 
L 392.868154 182.91197 
L 392.994278 184.863369 
L 393.048152 184.863369 
L 393.120151 182.91197 
L 393.156149 184.863369 
L 393.210269 184.863369 
L 393.228147 177.057771 
L 393.318212 182.91197 
L 393.35422 182.91197 
L 393.480145 177.057771 
L 394.560134 177.057771 
L 394.70413 161.446574 
L 394.740132 163.397974 
L 394.812128 161.446574 
L 395.028127 161.446574 
L 395.118204 157.543775 
L 395.136126 161.446574 
L 395.172127 161.446574 
L 395.298127 157.543775 
L 395.334207 157.543775 
L 395.370228 161.446574 
L 395.424123 157.543775 
L 395.550206 151.689576 
L 395.604316 151.689576 
L 395.784121 143.883977 
L 395.802259 143.883977 
L 395.928119 141.932578 
L 396.108118 141.932578 
L 396.180117 143.883977 
L 396.216116 141.932578 
L 396.2342 141.932578 
L 396.360115 139.981178 
L 396.414186 139.981178 
L 396.522194 136.078379 
L 396.540115 138.029778 
L 396.684112 151.689576 
L 396.702227 147.786777 
L 396.82811 141.932578 
L 396.846188 141.932578 
L 397.044108 151.689576 
L 397.188107 143.883977 
L 397.332106 143.883977 
L 397.350157 141.932578 
L 397.440105 143.883977 
L 397.458188 143.883977 
L 397.60223 139.981178 
L 397.656276 139.981178 
L 398.088098 122.418581 
L 398.178155 122.418581 
L 398.304097 120.467182 
L 398.358132 120.467182 
L 398.484096 118.515782 
L 398.556096 118.515782 
L 398.592096 120.467182 
L 398.664277 118.515782 
L 398.718116 118.515782 
L 398.844094 120.467182 
L 398.952093 120.467182 
L 399.078179 122.418581 
L 399.348289 122.418581 
L 399.366107 120.467182 
L 399.456089 122.418581 
L 399.474147 122.418581 
L 399.600089 120.467182 
L 399.618182 120.467182 
L 399.780087 112.661583 
L 399.798177 114.612983 
L 399.870188 110.710184 
L 399.888086 110.710184 
L 400.032077 114.612983 
L 400.050117 114.612983 
L 400.176085 112.661583 
L 400.284083 112.661583 
L 400.410108 114.612983 
L 400.482167 114.612983 
L 400.608082 116.564383 
L 400.860081 116.564383 
L 400.878152 118.515782 
L 400.950196 114.612983 
L 401.094118 108.758784 
L 401.256077 114.612983 
L 401.292078 114.612983 
L 401.418138 116.564383 
L 401.562134 112.661583 
L 401.652076 112.661583 
L 401.670164 110.710184 
L 401.760075 112.661583 
L 401.796074 112.661583 
L 401.940072 116.564383 
L 402.048259 116.564383 
L 402.174196 114.612983 
L 402.210167 114.612983 
L 402.246201 112.661583 
L 402.318191 114.612983 
L 402.44407 116.564383 
L 402.462152 116.564383 
L 402.588068 118.515782 
L 402.696068 118.515782 
L 402.912067 112.661583 
L 402.966104 112.661583 
L 403.092067 110.710184 
L 403.236064 114.612983 
L 403.344064 114.612983 
L 403.488064 110.710184 
L 403.578155 110.710184 
L 403.704064 112.661583 
L 403.740209 112.661583 
L 403.884062 110.710184 
L 403.920062 110.710184 
L 403.974185 112.661583 
L 404.010178 110.710184 
L 404.136061 108.758784 
L 404.262149 108.758784 
L 404.352061 112.661583 
L 404.388059 110.710184 
L 404.496058 110.710184 
L 404.676056 102.904585 
L 404.928055 102.904585 
L 405.036053 100.953186 
L 405.162151 102.904585 
L 405.198134 102.904585 
L 405.360054 108.758784 
L 405.486117 108.758784 
L 405.594154 110.710184 
L 405.738121 106.807384 
L 405.756051 106.807384 
L 405.954142 112.661583 
L 406.09814 102.904585 
L 406.242149 106.807384 
L 406.368049 104.855985 
L 406.890132 104.855985 
L 407.016045 102.904585 
L 407.070121 102.904585 
L 407.196044 104.855985 
L 407.32216 102.904585 
L 407.50207 102.904585 
L 407.646154 99.001786 
L 407.718126 99.001786 
L 407.844041 100.953186 
L 407.898151 100.953186 
L 408.024041 102.904585 
L 408.618147 102.904585 
L 408.726112 100.953186 
L 408.852038 102.904585 
L 408.924038 102.904585 
L 409.050138 104.855985 
L 409.644168 104.855985 
L 409.824038 112.661583 
L 409.968036 114.612983 
L 410.112035 114.612983 
L 410.256034 118.515782 
L 410.508204 118.515782 
L 410.652035 120.467182 
L 410.778091 120.467182 
L 410.832033 118.515782 
L 410.886043 120.467182 
L 411.084033 120.467182 
L 411.174079 122.418581 
L 411.192186 120.467182 
L 411.264031 120.467182 
L 411.40803 116.564383 
L 411.51603 116.564383 
L 411.660029 118.515782 
L 411.678114 118.515782 
L 411.804029 120.467182 
L 412.002112 120.467182 
L 412.128029 118.515782 
L 412.200028 118.515782 
L 412.344026 116.564383 
L 412.812026 116.564383 
L 413.028026 104.855985 
L 413.298114 104.855985 
L 413.442122 108.758784 
L 413.478155 108.758784 
L 413.622079 112.661583 
L 413.694136 112.661583 
L 413.820024 114.612983 
L 413.874139 114.612983 
L 414.036024 108.758784 
L 414.072024 108.758784 
L 414.216025 104.855985 
L 414.306089 104.855985 
L 414.414121 106.807384 
L 414.558145 102.904585 
L 414.792023 102.904585 
L 414.972023 110.710184 
L 414.990099 110.710184 
L 415.098124 112.661583 
L 415.242142 106.807384 
L 415.404022 112.661583 
L 415.80002 112.661583 
L 415.926128 114.612983 
L 416.07008 114.612983 
L 416.106108 116.564383 
L 416.178087 114.612983 
L 416.268018 114.612983 
L 416.448016 104.855985 
L 416.556018 108.758784 
L 416.57408 106.807384 
L 416.592017 106.807384 
L 416.718145 104.855985 
L 416.772018 104.855985 
L 416.916016 110.710184 
L 417.078144 104.855985 
L 417.186139 104.855985 
L 417.348015 110.710184 
L 417.420015 110.710184 
L 417.546085 112.661583 
L 417.582121 112.661583 
L 417.76213 104.855985 
L 417.924136 104.855985 
L 418.014026 102.904585 
L 418.140151 104.855985 
L 418.194102 104.855985 
L 418.266116 106.807384 
L 418.302083 104.855985 
L 418.518075 104.855985 
L 418.644015 100.953186 
L 418.698037 100.953186 
L 418.824013 99.001786 
L 419.058051 99.001786 
L 419.184012 100.953186 
L 419.436011 100.953186 
L 419.562128 102.904585 
L 419.886078 102.904585 
L 420.01216 104.855985 
L 420.426078 104.855985 
L 420.498092 106.807384 
L 420.534078 104.855985 
L 420.606102 104.855985 
L 420.677993 106.807384 
L 420.696189 104.855985 
L 420.75007 104.855985 
L 420.894127 108.758784 
L 421.002093 108.758784 
L 421.164 114.612983 
L 421.182072 114.612983 
L 421.2 116.564383 
L 421.2 116.564383 
" clip-path="url(#pfd68766d30)" style="fill: none; stroke: #ff7f0e; stroke-width: 1.5; stroke-linecap: square"/>
   </g>
   <g id="patch_3">
    <path d="M 50.925 221.939962 
L 50.925 26.8 
" style="fill: none; stroke: #000000; stroke-width: 0.8; stroke-linejoin: miter; stroke-linecap: square"/>
   </g>
   <g id="patch_4">
    <path d="M 421.2 221.939962 
L 421.2 26.8 
" style="fill: none; stroke: #000000; stroke-width: 0.8; stroke-linejoin: miter; stroke-linecap: square"/>
   </g>
   <g id="patch_5">
    <path d="M 50.925 221.939962 
L 421.2 221.939962 
" style="fill: none; stroke: #000000; stroke-width: 0.8; stroke-linejoin: miter; stroke-linecap: square"/>
   </g>
   <g id="patch_6">
    <path d="M 50.925 26.8 
L 421.2 26.8 
" style="fill: none; stroke: #000000; stroke-width: 0.8; stroke-linejoin: miter; stroke-linecap: square"/>
   </g>
   <g id="text_13">
    <!-- November 2023 -->
    <g transform="translate(187.670625 20.8) scale(0.12 -0.12)">
     <defs>
      <path id="DejaVuSans-4e" d="M 628 4666 
L 1478 4666 
L 3547 763 
L 3547 4666 
L 4159 4666 
L 4159 0 
L 3309 0 
L 1241 3903 
L 1241 0 
L 628 0 
L 628 4666 
z
" transform="scale(0.015625)"/>
      <path id="DejaVuSans-6f" d="M 1959 3097 
Q 1497 3097 1228 2736 
Q 959 2375 959 1747 
Q 959 1119 1226 758 
Q 1494 397 1959 397 
Q 2419 397 2687 759 
Q 2956 1122 2956 1747 
Q 2956 2369 2687 2733 
Q 2419 3097 1959 3097 
z
M 1959 3584 
Q 2709 3584 3137 3096 
Q 3566 2609 3566 1747 
Q 3566 888 3137 398 
Q 2709 -91 1959 -91 
Q 1206 -91 779 398 
Q 353 888 353 1747 
Q 353 2609 779 3096 
Q 1206 3584 1959 3584 
z
" transform="scale(0.015625)"/>
      <path id="DejaVuSans-76" d="M 191 3500 
L 800 3500 
L 1894 563 
L 2988 3500 
L 3597 3500 
L 2284 0 
L 1503 0 
L 191 3500 
z
" transform="scale(0.015625)"/>
      <path id="DejaVuSans-65" d="M 3597 1894 
L 3597 1613 
L 953 1613 
Q 991 1019 1311 708 
Q 1631 397 2203 397 
Q 2534 397 2845 478 
Q 3156 559 3463 722 
L 3463 178 
Q 3153 47 2828 -22 
Q 2503 -91 2169 -91 
Q 1331 -91 842 396 
Q 353 884 353 1716 
Q 353 2575 817 3079 
Q 1281 3584 2069 3584 
Q 2775 3584 3186 3129 
Q 3597 2675 3597 1894 
z
M 3022 2063 
Q 3016 2534 2758 2815 
Q 2500 3097 2075 3097 
Q 1594 3097 1305 2825 
Q 1016 2553 972 2059 
L 3022 2063 
z
" transform="scale(0.015625)"/>
      <path id="DejaVuSans-62" d="M 3116 1747 
Q 3116 2381 2855 2742 
Q 2594 3103 2138 3103 
Q 1681 3103 1420 2742 
Q 1159 2381 1159 1747 
Q 1159 1113 1420 752 
Q 1681 391 2138 391 
Q 2594 391 2855 752 
Q 3116 1113 3116 1747 
z
M 1159 2969 
Q 1341 3281 1617 3432 
Q 1894 3584 2278 3584 
Q 2916 3584 3314 3078 
Q 3713 2572 3713 1747 
Q 3713 922 3314 415 
Q 2916 -91 2278 -91 
Q 1894 -91 1617 61 
Q 1341 213 1159 525 
L 1159 0 
L 581 0 
L 581 4863 
L 1159 4863 
L 1159 2969 
z
" transform="scale(0.015625)"/>
      <path id="DejaVuSans-72" d="M 2631 2963 
Q 2534 3019 2420 3045 
Q 2306 3072 2169 3072 
Q 1681 3072 1420 2755 
Q 1159 2438 1159 1844 
L 1159 0 
L 581 0 
L 581 3500 
L 1159 3500 
L 1159 2956 
Q 1341 3275 1631 3429 
Q 1922 3584 2338 3584 
Q 2397 3584 2469 3576 
Q 2541 3569 2628 3553 
L 2631 2963 
z
" transform="scale(0.015625)"/>
     </defs>
     <use xlink:href="#DejaVuSans-4e"/>
     <use xlink:href="#DejaVuSans-6f" x="74.804688"/>
     <use xlink:href="#DejaVuSans-76" x="135.986328"/>
     <use xlink:href="#DejaVuSans-65" x="195.166016"/>
     <use xlink:href="#DejaVuSans-6d" x="256.689453"/>
     <use xlink:href="#DejaVuSans-62" x="354.101562"/>
     <use xlink:href="#DejaVuSans-65" x="417.578125"/>
     <use xlink:href="#DejaVuSans-72" x="479.101562"/>
     <use xlink:href="#DejaVuSans-20" x="520.214844"/>
     <use xlink:href="#DejaVuSans-32" x="552.001953"/>
     <use xlink:href="#DejaVuSans-30" x="615.625"/>
     <use xlink:href="#DejaVuSans-32" x="679.248047"/>
     <use xlink:href="#DejaVuSans-33" x="742.871094"/>
    </g>
   </g>
  </g>
 </g>
 <defs>
  <clipPath id="pfd68766d30">
   <rect x="50.925" y="26.8" width="370.275" height="195.139962"/>
  </clipPath>
 </defs>
</svg>
