<?xml version="1.0" encoding="utf-8" standalone="no"?>
<!DOCTYPE svg PUBLIC "-//W3C//DTD SVG 1.1//EN"
  "http://www.w3.org/Graphics/SVG/1.1/DTD/svg11.dtd">
<svg xmlns:xlink="http://www.w3.org/1999/xlink" width="460.8pt" height="345.6pt" viewBox="0 0 460.8 345.6" xmlns="http://www.w3.org/2000/svg" version="1.1">
 <metadata>
  <rdf:RDF xmlns:dc="http://purl.org/dc/elements/1.1/" xmlns:cc="http://creativecommons.org/ns#" xmlns:rdf="http://www.w3.org/1999/02/22-rdf-syntax-ns#">
   <cc:Work>
    <dc:type rdf:resource="http://purl.org/dc/dcmitype/StillImage"/>
    <dc:date>2023-11-06T19:21:36.833803</dc:date>
    <dc:format>image/svg+xml</dc:format>
    <dc:creator>
     <cc:Agent>
      <dc:title>Matplotlib v3.6.3, https://matplotlib.org/</dc:title>
     </cc:Agent>
    </dc:creator>
   </cc:Work>
  </rdf:RDF>
 </metadata>
 <defs>
  <style type="text/css">*{stroke-linejoin: round; stroke-linecap: butt}</style>
 </defs>
 <g id="figure_1">
  <g id="patch_1">
   <path d="M 0 345.6 
L 460.8 345.6 
L 460.8 0 
L 0 0 
z
" style="fill: #ffffff"/>
  </g>
  <g id="axes_1">
   <g id="patch_2">
    <path d="M 51.05 279.561175 
L 450 279.561175 
L 450 25.44 
L 51.05 25.44 
z
" style="fill: #ffffff"/>
   </g>
   <g id="matplotlib.axis_1">
    <g id="xtick_1">
     <g id="line2d_1">
      <path d="M 119.732735 279.561175 
L 119.732735 25.44 
" clip-path="url(#p5897a81b9f)" style="fill: none; stroke: #b0b0b0; stroke-width: 0.8; stroke-linecap: square"/>
     </g>
     <g id="line2d_2">
      <defs>
       <path id="m18482f4ae0" d="M 0 0 
L 0 3.5 
" style="stroke: #000000; stroke-width: 0.8"/>
      </defs>
      <g>
       <use xlink:href="#m18482f4ae0" x="119.732735" y="279.561175" style="stroke: #000000; stroke-width: 0.8"/>
      </g>
     </g>
     <g id="text_1">
      <!-- 2023-11-02 -->
      <g transform="translate(77.168222 333.028035) rotate(-45) scale(0.1 -0.1)">
       <defs>
        <path id="DejaVuSans-32" d="M 1228 531 
L 3431 531 
L 3431 0 
L 469 0 
L 469 531 
Q 828 903 1448 1529 
Q 2069 2156 2228 2338 
Q 2531 2678 2651 2914 
Q 2772 3150 2772 3378 
Q 2772 3750 2511 3984 
Q 2250 4219 1831 4219 
Q 1534 4219 1204 4116 
Q 875 4013 500 3803 
L 500 4441 
Q 881 4594 1212 4672 
Q 1544 4750 1819 4750 
Q 2544 4750 2975 4387 
Q 3406 4025 3406 3419 
Q 3406 3131 3298 2873 
Q 3191 2616 2906 2266 
Q 2828 2175 2409 1742 
Q 1991 1309 1228 531 
z
" transform="scale(0.015625)"/>
        <path id="DejaVuSans-30" d="M 2034 4250 
Q 1547 4250 1301 3770 
Q 1056 3291 1056 2328 
Q 1056 1369 1301 889 
Q 1547 409 2034 409 
Q 2525 409 2770 889 
Q 3016 1369 3016 2328 
Q 3016 3291 2770 3770 
Q 2525 4250 2034 4250 
z
M 2034 4750 
Q 2819 4750 3233 4129 
Q 3647 3509 3647 2328 
Q 3647 1150 3233 529 
Q 2819 -91 2034 -91 
Q 1250 -91 836 529 
Q 422 1150 422 2328 
Q 422 3509 836 4129 
Q 1250 4750 2034 4750 
z
" transform="scale(0.015625)"/>
        <path id="DejaVuSans-33" d="M 2597 2516 
Q 3050 2419 3304 2112 
Q 3559 1806 3559 1356 
Q 3559 666 3084 287 
Q 2609 -91 1734 -91 
Q 1441 -91 1130 -33 
Q 819 25 488 141 
L 488 750 
Q 750 597 1062 519 
Q 1375 441 1716 441 
Q 2309 441 2620 675 
Q 2931 909 2931 1356 
Q 2931 1769 2642 2001 
Q 2353 2234 1838 2234 
L 1294 2234 
L 1294 2753 
L 1863 2753 
Q 2328 2753 2575 2939 
Q 2822 3125 2822 3475 
Q 2822 3834 2567 4026 
Q 2313 4219 1838 4219 
Q 1578 4219 1281 4162 
Q 984 4106 628 3988 
L 628 4550 
Q 988 4650 1302 4700 
Q 1616 4750 1894 4750 
Q 2613 4750 3031 4423 
Q 3450 4097 3450 3541 
Q 3450 3153 3228 2886 
Q 3006 2619 2597 2516 
z
" transform="scale(0.015625)"/>
        <path id="DejaVuSans-2d" d="M 313 2009 
L 1997 2009 
L 1997 1497 
L 313 1497 
L 313 2009 
z
" transform="scale(0.015625)"/>
        <path id="DejaVuSans-31" d="M 794 531 
L 1825 531 
L 1825 4091 
L 703 3866 
L 703 4441 
L 1819 4666 
L 2450 4666 
L 2450 531 
L 3481 531 
L 3481 0 
L 794 0 
L 794 531 
z
" transform="scale(0.015625)"/>
       </defs>
       <use xlink:href="#DejaVuSans-32"/>
       <use xlink:href="#DejaVuSans-30" x="63.623047"/>
       <use xlink:href="#DejaVuSans-32" x="127.246094"/>
       <use xlink:href="#DejaVuSans-33" x="190.869141"/>
       <use xlink:href="#DejaVuSans-2d" x="254.492188"/>
       <use xlink:href="#DejaVuSans-31" x="290.576172"/>
       <use xlink:href="#DejaVuSans-31" x="354.199219"/>
       <use xlink:href="#DejaVuSans-2d" x="417.822266"/>
       <use xlink:href="#DejaVuSans-30" x="453.90625"/>
       <use xlink:href="#DejaVuSans-32" x="517.529297"/>
      </g>
     </g>
    </g>
    <g id="xtick_2">
     <g id="line2d_3">
      <path d="M 188.45203 279.561175 
L 188.45203 25.44 
" clip-path="url(#p5897a81b9f)" style="fill: none; stroke: #b0b0b0; stroke-width: 0.8; stroke-linecap: square"/>
     </g>
     <g id="line2d_4">
      <g>
       <use xlink:href="#m18482f4ae0" x="188.45203" y="279.561175" style="stroke: #000000; stroke-width: 0.8"/>
      </g>
     </g>
     <g id="text_2">
      <!-- 2023-11-03 -->
      <g transform="translate(145.887516 333.028035) rotate(-45) scale(0.1 -0.1)">
       <use xlink:href="#DejaVuSans-32"/>
       <use xlink:href="#DejaVuSans-30" x="63.623047"/>
       <use xlink:href="#DejaVuSans-32" x="127.246094"/>
       <use xlink:href="#DejaVuSans-33" x="190.869141"/>
       <use xlink:href="#DejaVuSans-2d" x="254.492188"/>
       <use xlink:href="#DejaVuSans-31" x="290.576172"/>
       <use xlink:href="#DejaVuSans-31" x="354.199219"/>
       <use xlink:href="#DejaVuSans-2d" x="417.822266"/>
       <use xlink:href="#DejaVuSans-30" x="453.90625"/>
       <use xlink:href="#DejaVuSans-33" x="517.529297"/>
      </g>
     </g>
    </g>
    <g id="xtick_3">
     <g id="line2d_5">
      <path d="M 257.171324 279.561175 
L 257.171324 25.44 
" clip-path="url(#p5897a81b9f)" style="fill: none; stroke: #b0b0b0; stroke-width: 0.8; stroke-linecap: square"/>
     </g>
     <g id="line2d_6">
      <g>
       <use xlink:href="#m18482f4ae0" x="257.171324" y="279.561175" style="stroke: #000000; stroke-width: 0.8"/>
      </g>
     </g>
     <g id="text_3">
      <!-- 2023-11-04 -->
      <g transform="translate(214.60681 333.028035) rotate(-45) scale(0.1 -0.1)">
       <defs>
        <path id="DejaVuSans-34" d="M 2419 4116 
L 825 1625 
L 2419 1625 
L 2419 4116 
z
M 2253 4666 
L 3047 4666 
L 3047 1625 
L 3713 1625 
L 3713 1100 
L 3047 1100 
L 3047 0 
L 2419 0 
L 2419 1100 
L 313 1100 
L 313 1709 
L 2253 4666 
z
" transform="scale(0.015625)"/>
       </defs>
       <use xlink:href="#DejaVuSans-32"/>
       <use xlink:href="#DejaVuSans-30" x="63.623047"/>
       <use xlink:href="#DejaVuSans-32" x="127.246094"/>
       <use xlink:href="#DejaVuSans-33" x="190.869141"/>
       <use xlink:href="#DejaVuSans-2d" x="254.492188"/>
       <use xlink:href="#DejaVuSans-31" x="290.576172"/>
       <use xlink:href="#DejaVuSans-31" x="354.199219"/>
       <use xlink:href="#DejaVuSans-2d" x="417.822266"/>
       <use xlink:href="#DejaVuSans-30" x="453.90625"/>
       <use xlink:href="#DejaVuSans-34" x="517.529297"/>
      </g>
     </g>
    </g>
    <g id="xtick_4">
     <g id="line2d_7">
      <path d="M 325.890618 279.561175 
L 325.890618 25.44 
" clip-path="url(#p5897a81b9f)" style="fill: none; stroke: #b0b0b0; stroke-width: 0.8; stroke-linecap: square"/>
     </g>
     <g id="line2d_8">
      <g>
       <use xlink:href="#m18482f4ae0" x="325.890618" y="279.561175" style="stroke: #000000; stroke-width: 0.8"/>
      </g>
     </g>
     <g id="text_4">
      <!-- 2023-11-05 -->
      <g transform="translate(283.326105 333.028035) rotate(-45) scale(0.1 -0.1)">
       <defs>
        <path id="DejaVuSans-35" d="M 691 4666 
L 3169 4666 
L 3169 4134 
L 1269 4134 
L 1269 2991 
Q 1406 3038 1543 3061 
Q 1681 3084 1819 3084 
Q 2600 3084 3056 2656 
Q 3513 2228 3513 1497 
Q 3513 744 3044 326 
Q 2575 -91 1722 -91 
Q 1428 -91 1123 -41 
Q 819 9 494 109 
L 494 744 
Q 775 591 1075 516 
Q 1375 441 1709 441 
Q 2250 441 2565 725 
Q 2881 1009 2881 1497 
Q 2881 1984 2565 2268 
Q 2250 2553 1709 2553 
Q 1456 2553 1204 2497 
Q 953 2441 691 2322 
L 691 4666 
z
" transform="scale(0.015625)"/>
       </defs>
       <use xlink:href="#DejaVuSans-32"/>
       <use xlink:href="#DejaVuSans-30" x="63.623047"/>
       <use xlink:href="#DejaVuSans-32" x="127.246094"/>
       <use xlink:href="#DejaVuSans-33" x="190.869141"/>
       <use xlink:href="#DejaVuSans-2d" x="254.492188"/>
       <use xlink:href="#DejaVuSans-31" x="290.576172"/>
       <use xlink:href="#DejaVuSans-31" x="354.199219"/>
       <use xlink:href="#DejaVuSans-2d" x="417.822266"/>
       <use xlink:href="#DejaVuSans-30" x="453.90625"/>
       <use xlink:href="#DejaVuSans-35" x="517.529297"/>
      </g>
     </g>
    </g>
    <g id="xtick_5">
     <g id="line2d_9">
      <path d="M 394.609913 279.561175 
L 394.609913 25.44 
" clip-path="url(#p5897a81b9f)" style="fill: none; stroke: #b0b0b0; stroke-width: 0.8; stroke-linecap: square"/>
     </g>
     <g id="line2d_10">
      <g>
       <use xlink:href="#m18482f4ae0" x="394.609913" y="279.561175" style="stroke: #000000; stroke-width: 0.8"/>
      </g>
     </g>
     <g id="text_5">
      <!-- 2023-11-06 -->
      <g transform="translate(352.045399 333.028035) rotate(-45) scale(0.1 -0.1)">
       <defs>
        <path id="DejaVuSans-36" d="M 2113 2584 
Q 1688 2584 1439 2293 
Q 1191 2003 1191 1497 
Q 1191 994 1439 701 
Q 1688 409 2113 409 
Q 2538 409 2786 701 
Q 3034 994 3034 1497 
Q 3034 2003 2786 2293 
Q 2538 2584 2113 2584 
z
M 3366 4563 
L 3366 3988 
Q 3128 4100 2886 4159 
Q 2644 4219 2406 4219 
Q 1781 4219 1451 3797 
Q 1122 3375 1075 2522 
Q 1259 2794 1537 2939 
Q 1816 3084 2150 3084 
Q 2853 3084 3261 2657 
Q 3669 2231 3669 1497 
Q 3669 778 3244 343 
Q 2819 -91 2113 -91 
Q 1303 -91 875 529 
Q 447 1150 447 2328 
Q 447 3434 972 4092 
Q 1497 4750 2381 4750 
Q 2619 4750 2861 4703 
Q 3103 4656 3366 4563 
z
" transform="scale(0.015625)"/>
       </defs>
       <use xlink:href="#DejaVuSans-32"/>
       <use xlink:href="#DejaVuSans-30" x="63.623047"/>
       <use xlink:href="#DejaVuSans-32" x="127.246094"/>
       <use xlink:href="#DejaVuSans-33" x="190.869141"/>
       <use xlink:href="#DejaVuSans-2d" x="254.492188"/>
       <use xlink:href="#DejaVuSans-31" x="290.576172"/>
       <use xlink:href="#DejaVuSans-31" x="354.199219"/>
       <use xlink:href="#DejaVuSans-2d" x="417.822266"/>
       <use xlink:href="#DejaVuSans-30" x="453.90625"/>
       <use xlink:href="#DejaVuSans-36" x="517.529297"/>
      </g>
     </g>
    </g>
   </g>
   <g id="matplotlib.axis_2">
    <g id="ytick_1">
     <g id="line2d_11">
      <path d="M 51.05 279.561175 
L 450 279.561175 
" clip-path="url(#p5897a81b9f)" style="fill: none; stroke: #b0b0b0; stroke-width: 0.8; stroke-linecap: square"/>
     </g>
     <g id="line2d_12">
      <defs>
       <path id="md92579bf3d" d="M 0 0 
L -3.5 0 
" style="stroke: #000000; stroke-width: 0.8"/>
      </defs>
      <g>
       <use xlink:href="#md92579bf3d" x="51.05" y="279.561175" style="stroke: #000000; stroke-width: 0.8"/>
      </g>
     </g>
     <g id="text_6">
      <!-- 0 -->
      <g transform="translate(37.6875 283.360394) scale(0.1 -0.1)">
       <use xlink:href="#DejaVuSans-30"/>
      </g>
     </g>
    </g>
    <g id="ytick_2">
     <g id="line2d_13">
      <path d="M 51.05 228.73694 
L 450 228.73694 
" clip-path="url(#p5897a81b9f)" style="fill: none; stroke: #b0b0b0; stroke-width: 0.8; stroke-linecap: square"/>
     </g>
     <g id="line2d_14">
      <g>
       <use xlink:href="#md92579bf3d" x="51.05" y="228.73694" style="stroke: #000000; stroke-width: 0.8"/>
      </g>
     </g>
     <g id="text_7">
      <!-- 20 -->
      <g transform="translate(31.325 232.536159) scale(0.1 -0.1)">
       <use xlink:href="#DejaVuSans-32"/>
       <use xlink:href="#DejaVuSans-30" x="63.623047"/>
      </g>
     </g>
    </g>
    <g id="ytick_3">
     <g id="line2d_15">
      <path d="M 51.05 177.912705 
L 450 177.912705 
" clip-path="url(#p5897a81b9f)" style="fill: none; stroke: #b0b0b0; stroke-width: 0.8; stroke-linecap: square"/>
     </g>
     <g id="line2d_16">
      <g>
       <use xlink:href="#md92579bf3d" x="51.05" y="177.912705" style="stroke: #000000; stroke-width: 0.8"/>
      </g>
     </g>
     <g id="text_8">
      <!-- 40 -->
      <g transform="translate(31.325 181.711924) scale(0.1 -0.1)">
       <use xlink:href="#DejaVuSans-34"/>
       <use xlink:href="#DejaVuSans-30" x="63.623047"/>
      </g>
     </g>
    </g>
    <g id="ytick_4">
     <g id="line2d_17">
      <path d="M 51.05 127.08847 
L 450 127.08847 
" clip-path="url(#p5897a81b9f)" style="fill: none; stroke: #b0b0b0; stroke-width: 0.8; stroke-linecap: square"/>
     </g>
     <g id="line2d_18">
      <g>
       <use xlink:href="#md92579bf3d" x="51.05" y="127.08847" style="stroke: #000000; stroke-width: 0.8"/>
      </g>
     </g>
     <g id="text_9">
      <!-- 60 -->
      <g transform="translate(31.325 130.887689) scale(0.1 -0.1)">
       <use xlink:href="#DejaVuSans-36"/>
       <use xlink:href="#DejaVuSans-30" x="63.623047"/>
      </g>
     </g>
    </g>
    <g id="ytick_5">
     <g id="line2d_19">
      <path d="M 51.05 76.264235 
L 450 76.264235 
" clip-path="url(#p5897a81b9f)" style="fill: none; stroke: #b0b0b0; stroke-width: 0.8; stroke-linecap: square"/>
     </g>
     <g id="line2d_20">
      <g>
       <use xlink:href="#md92579bf3d" x="51.05" y="76.264235" style="stroke: #000000; stroke-width: 0.8"/>
      </g>
     </g>
     <g id="text_10">
      <!-- 80 -->
      <g transform="translate(31.325 80.063454) scale(0.1 -0.1)">
       <defs>
        <path id="DejaVuSans-38" d="M 2034 2216 
Q 1584 2216 1326 1975 
Q 1069 1734 1069 1313 
Q 1069 891 1326 650 
Q 1584 409 2034 409 
Q 2484 409 2743 651 
Q 3003 894 3003 1313 
Q 3003 1734 2745 1975 
Q 2488 2216 2034 2216 
z
M 1403 2484 
Q 997 2584 770 2862 
Q 544 3141 544 3541 
Q 544 4100 942 4425 
Q 1341 4750 2034 4750 
Q 2731 4750 3128 4425 
Q 3525 4100 3525 3541 
Q 3525 3141 3298 2862 
Q 3072 2584 2669 2484 
Q 3125 2378 3379 2068 
Q 3634 1759 3634 1313 
Q 3634 634 3220 271 
Q 2806 -91 2034 -91 
Q 1263 -91 848 271 
Q 434 634 434 1313 
Q 434 1759 690 2068 
Q 947 2378 1403 2484 
z
M 1172 3481 
Q 1172 3119 1398 2916 
Q 1625 2713 2034 2713 
Q 2441 2713 2670 2916 
Q 2900 3119 2900 3481 
Q 2900 3844 2670 4047 
Q 2441 4250 2034 4250 
Q 1625 4250 1398 4047 
Q 1172 3844 1172 3481 
z
" transform="scale(0.015625)"/>
       </defs>
       <use xlink:href="#DejaVuSans-38"/>
       <use xlink:href="#DejaVuSans-30" x="63.623047"/>
      </g>
     </g>
    </g>
    <g id="ytick_6">
     <g id="line2d_21">
      <path d="M 51.05 25.44 
L 450 25.44 
" clip-path="url(#p5897a81b9f)" style="fill: none; stroke: #b0b0b0; stroke-width: 0.8; stroke-linecap: square"/>
     </g>
     <g id="line2d_22">
      <g>
       <use xlink:href="#md92579bf3d" x="51.05" y="25.44" style="stroke: #000000; stroke-width: 0.8"/>
      </g>
     </g>
     <g id="text_11">
      <!-- 100 -->
      <g transform="translate(24.9625 29.239219) scale(0.1 -0.1)">
       <use xlink:href="#DejaVuSans-31"/>
       <use xlink:href="#DejaVuSans-30" x="63.623047"/>
       <use xlink:href="#DejaVuSans-30" x="127.246094"/>
      </g>
     </g>
    </g>
    <g id="text_12">
     <!-- Humidity [%RH] -->
     <g transform="translate(18.882812 192.647463) rotate(-90) scale(0.1 -0.1)">
      <defs>
       <path id="DejaVuSans-48" d="M 628 4666 
L 1259 4666 
L 1259 2753 
L 3553 2753 
L 3553 4666 
L 4184 4666 
L 4184 0 
L 3553 0 
L 3553 2222 
L 1259 2222 
L 1259 0 
L 628 0 
L 628 4666 
z
" transform="scale(0.015625)"/>
       <path id="DejaVuSans-75" d="M 544 1381 
L 544 3500 
L 1119 3500 
L 1119 1403 
Q 1119 906 1312 657 
Q 1506 409 1894 409 
Q 2359 409 2629 706 
Q 2900 1003 2900 1516 
L 2900 3500 
L 3475 3500 
L 3475 0 
L 2900 0 
L 2900 538 
Q 2691 219 2414 64 
Q 2138 -91 1772 -91 
Q 1169 -91 856 284 
Q 544 659 544 1381 
z
M 1991 3584 
L 1991 3584 
z
" transform="scale(0.015625)"/>
       <path id="DejaVuSans-6d" d="M 3328 2828 
Q 3544 3216 3844 3400 
Q 4144 3584 4550 3584 
Q 5097 3584 5394 3201 
Q 5691 2819 5691 2113 
L 5691 0 
L 5113 0 
L 5113 2094 
Q 5113 2597 4934 2840 
Q 4756 3084 4391 3084 
Q 3944 3084 3684 2787 
Q 3425 2491 3425 1978 
L 3425 0 
L 2847 0 
L 2847 2094 
Q 2847 2600 2669 2842 
Q 2491 3084 2119 3084 
Q 1678 3084 1418 2786 
Q 1159 2488 1159 1978 
L 1159 0 
L 581 0 
L 581 3500 
L 1159 3500 
L 1159 2956 
Q 1356 3278 1631 3431 
Q 1906 3584 2284 3584 
Q 2666 3584 2933 3390 
Q 3200 3197 3328 2828 
z
" transform="scale(0.015625)"/>
       <path id="DejaVuSans-69" d="M 603 3500 
L 1178 3500 
L 1178 0 
L 603 0 
L 603 3500 
z
M 603 4863 
L 1178 4863 
L 1178 4134 
L 603 4134 
L 603 4863 
z
" transform="scale(0.015625)"/>
       <path id="DejaVuSans-64" d="M 2906 2969 
L 2906 4863 
L 3481 4863 
L 3481 0 
L 2906 0 
L 2906 525 
Q 2725 213 2448 61 
Q 2172 -91 1784 -91 
Q 1150 -91 751 415 
Q 353 922 353 1747 
Q 353 2572 751 3078 
Q 1150 3584 1784 3584 
Q 2172 3584 2448 3432 
Q 2725 3281 2906 2969 
z
M 947 1747 
Q 947 1113 1208 752 
Q 1469 391 1925 391 
Q 2381 391 2643 752 
Q 2906 1113 2906 1747 
Q 2906 2381 2643 2742 
Q 2381 3103 1925 3103 
Q 1469 3103 1208 2742 
Q 947 2381 947 1747 
z
" transform="scale(0.015625)"/>
       <path id="DejaVuSans-74" d="M 1172 4494 
L 1172 3500 
L 2356 3500 
L 2356 3053 
L 1172 3053 
L 1172 1153 
Q 1172 725 1289 603 
Q 1406 481 1766 481 
L 2356 481 
L 2356 0 
L 1766 0 
Q 1100 0 847 248 
Q 594 497 594 1153 
L 594 3053 
L 172 3053 
L 172 3500 
L 594 3500 
L 594 4494 
L 1172 4494 
z
" transform="scale(0.015625)"/>
       <path id="DejaVuSans-79" d="M 2059 -325 
Q 1816 -950 1584 -1140 
Q 1353 -1331 966 -1331 
L 506 -1331 
L 506 -850 
L 844 -850 
Q 1081 -850 1212 -737 
Q 1344 -625 1503 -206 
L 1606 56 
L 191 3500 
L 800 3500 
L 1894 763 
L 2988 3500 
L 3597 3500 
L 2059 -325 
z
" transform="scale(0.015625)"/>
       <path id="DejaVuSans-20" transform="scale(0.015625)"/>
       <path id="DejaVuSans-5b" d="M 550 4863 
L 1875 4863 
L 1875 4416 
L 1125 4416 
L 1125 -397 
L 1875 -397 
L 1875 -844 
L 550 -844 
L 550 4863 
z
" transform="scale(0.015625)"/>
       <path id="DejaVuSans-25" d="M 4653 2053 
Q 4381 2053 4226 1822 
Q 4072 1591 4072 1178 
Q 4072 772 4226 539 
Q 4381 306 4653 306 
Q 4919 306 5073 539 
Q 5228 772 5228 1178 
Q 5228 1588 5073 1820 
Q 4919 2053 4653 2053 
z
M 4653 2450 
Q 5147 2450 5437 2106 
Q 5728 1763 5728 1178 
Q 5728 594 5436 251 
Q 5144 -91 4653 -91 
Q 4153 -91 3862 251 
Q 3572 594 3572 1178 
Q 3572 1766 3864 2108 
Q 4156 2450 4653 2450 
z
M 1428 4353 
Q 1159 4353 1004 4120 
Q 850 3888 850 3481 
Q 850 3069 1003 2837 
Q 1156 2606 1428 2606 
Q 1700 2606 1854 2837 
Q 2009 3069 2009 3481 
Q 2009 3884 1853 4118 
Q 1697 4353 1428 4353 
z
M 4250 4750 
L 4750 4750 
L 1831 -91 
L 1331 -91 
L 4250 4750 
z
M 1428 4750 
Q 1922 4750 2215 4408 
Q 2509 4066 2509 3481 
Q 2509 2891 2217 2550 
Q 1925 2209 1428 2209 
Q 931 2209 642 2551 
Q 353 2894 353 3481 
Q 353 4063 643 4406 
Q 934 4750 1428 4750 
z
" transform="scale(0.015625)"/>
       <path id="DejaVuSans-52" d="M 2841 2188 
Q 3044 2119 3236 1894 
Q 3428 1669 3622 1275 
L 4263 0 
L 3584 0 
L 2988 1197 
Q 2756 1666 2539 1819 
Q 2322 1972 1947 1972 
L 1259 1972 
L 1259 0 
L 628 0 
L 628 4666 
L 2053 4666 
Q 2853 4666 3247 4331 
Q 3641 3997 3641 3322 
Q 3641 2881 3436 2590 
Q 3231 2300 2841 2188 
z
M 1259 4147 
L 1259 2491 
L 2053 2491 
Q 2509 2491 2742 2702 
Q 2975 2913 2975 3322 
Q 2975 3731 2742 3939 
Q 2509 4147 2053 4147 
L 1259 4147 
z
" transform="scale(0.015625)"/>
       <path id="DejaVuSans-5d" d="M 1947 4863 
L 1947 -844 
L 622 -844 
L 622 -397 
L 1369 -397 
L 1369 4416 
L 622 4416 
L 622 4863 
L 1947 4863 
z
" transform="scale(0.015625)"/>
      </defs>
      <use xlink:href="#DejaVuSans-48"/>
      <use xlink:href="#DejaVuSans-75" x="75.195312"/>
      <use xlink:href="#DejaVuSans-6d" x="138.574219"/>
      <use xlink:href="#DejaVuSans-69" x="235.986328"/>
      <use xlink:href="#DejaVuSans-64" x="263.769531"/>
      <use xlink:href="#DejaVuSans-69" x="327.246094"/>
      <use xlink:href="#DejaVuSans-74" x="355.029297"/>
      <use xlink:href="#DejaVuSans-79" x="394.238281"/>
      <use xlink:href="#DejaVuSans-20" x="453.417969"/>
      <use xlink:href="#DejaVuSans-5b" x="485.205078"/>
      <use xlink:href="#DejaVuSans-25" x="524.21875"/>
      <use xlink:href="#DejaVuSans-52" x="619.238281"/>
      <use xlink:href="#DejaVuSans-48" x="688.720703"/>
      <use xlink:href="#DejaVuSans-5d" x="763.916016"/>
     </g>
    </g>
   </g>
   <g id="line2d_23">
    <path d="M 51.05 58.475753 
L 51.240727 58.475753 
L 51.355521 55.934541 
L 51.393436 55.934541 
L 51.508176 53.393329 
L 51.546146 53.393329 
L 51.622981 50.852118 
L 52.004267 50.852118 
L 52.119021 48.310906 
L 52.920515 48.310906 
L 53.035265 50.852118 
L 53.264227 50.852118 
L 53.378641 53.393329 
L 53.646091 53.393329 
L 53.760414 55.934541 
L 54.562114 55.934541 
L 54.676663 58.475753 
L 55.134785 58.475753 
L 55.211141 61.016965 
L 55.287496 61.016965 
L 55.402202 58.475753 
L 56.738224 58.475753 
L 56.852907 61.016965 
L 56.929324 61.016965 
L 57.043639 58.475753 
L 57.082019 58.475753 
L 57.196349 55.934541 
L 57.23472 55.934541 
L 57.349056 53.393329 
L 57.540147 53.393329 
L 57.654478 55.934541 
L 58.532751 55.934541 
L 58.647084 58.475753 
L 58.799792 58.475753 
L 58.952496 61.016965 
L 59.296366 61.016965 
L 59.410626 63.558176 
L 59.792395 63.558176 
L 59.907136 61.016965 
L 59.983489 61.016965 
L 60.097813 63.558176 
L 61.014533 63.558176 
L 61.166764 58.475753 
L 61.243122 58.475753 
L 61.357851 55.934541 
L 61.663311 55.934541 
L 61.777602 58.475753 
L 62.045056 58.475753 
L 62.159369 61.016965 
L 62.312082 61.016965 
L 62.388434 63.558176 
L 62.541141 63.558176 
L 62.655849 66.099388 
L 63.190162 66.099388 
L 63.304681 63.558176 
L 63.34305 63.558176 
L 63.457392 61.016965 
L 63.495769 61.016965 
L 63.610101 63.558176 
L 64.259318 63.558176 
L 64.373638 61.016965 
L 64.984473 61.016965 
L 65.099208 58.475753 
L 65.595302 58.475753 
L 65.748407 63.558176 
L 65.824369 63.558176 
L 65.97708 68.6406 
L 66.053422 68.6406 
L 66.168106 71.181812 
L 66.206143 71.181812 
L 66.320872 73.723023 
L 66.511558 73.723023 
L 66.626291 76.264235 
L 66.664265 76.264235 
L 66.816977 73.723023 
L 66.893325 73.723023 
L 67.008002 76.264235 
L 67.046036 76.264235 
L 67.16077 73.723023 
L 67.198744 73.723023 
L 67.313526 71.181812 
L 67.771616 71.181812 
L 67.885931 73.723023 
L 68.535183 73.723023 
L 68.649474 76.264235 
L 69.565723 76.264235 
L 69.794785 71.181812 
L 69.909501 71.181812 
L 70.023848 68.6406 
L 70.252909 68.6406 
L 70.40562 66.099388 
L 70.443968 66.099388 
L 70.558325 63.558176 
L 70.634678 63.558176 
L 70.749429 61.016965 
L 71.131088 61.016965 
L 71.245513 58.475753 
L 72.08541 58.475753 
L 72.200181 61.016965 
L 72.276532 61.016965 
L 72.429232 63.558176 
L 73.001663 63.558176 
L 73.116426 66.099388 
L 73.268968 66.099388 
L 73.383436 68.6406 
L 73.421839 68.6406 
L 73.536142 71.181812 
L 73.574562 71.181812 
L 73.68885 73.723023 
L 73.727256 73.723023 
L 73.841562 76.264235 
L 73.956085 76.264235 
L 74.185396 86.429082 
L 74.414422 76.264235 
L 75.139582 76.264235 
L 75.292288 86.429082 
L 75.48337 111.8412 
L 75.52135 111.8412 
L 75.826762 127.08847 
L 75.979468 127.08847 
L 76.017894 124.547258 
L 76.056239 127.08847 
L 76.284885 122.006047 
L 76.39967 122.006047 
L 76.51395 124.547258 
L 76.552379 124.547258 
L 76.590299 122.006047 
L 76.62875 124.547258 
L 76.666653 124.547258 
L 76.743009 127.08847 
L 76.85761 127.08847 
L 77.163136 142.335741 
L 77.201128 142.335741 
L 77.39227 134.712105 
L 77.621173 144.876952 
L 77.697606 144.876952 
L 77.850407 139.794529 
L 77.926768 139.794529 
L 78.117373 147.418164 
L 78.155815 147.418164 
L 78.270084 144.876952 
L 78.384878 144.876952 
L 78.499144 147.418164 
L 78.690265 139.794529 
L 78.728197 139.794529 
L 78.995489 127.08847 
L 79.109971 127.08847 
L 79.224785 124.547258 
L 79.262675 124.547258 
L 79.377483 122.006047 
L 79.415383 122.006047 
L 79.530114 124.547258 
L 79.606555 124.547258 
L 79.720801 127.08847 
L 80.63704 127.08847 
L 80.789743 122.006047 
L 80.942451 122.006047 
L 81.018807 124.547258 
L 81.209818 124.547258 
L 81.324227 127.08847 
L 81.629639 127.08847 
L 81.744403 129.629682 
L 81.782609 129.629682 
L 81.935053 127.08847 
L 81.973473 127.08847 
L 82.087757 124.547258 
L 82.16411 124.547258 
L 82.278762 122.006047 
L 82.545869 122.006047 
L 82.660655 124.547258 
L 82.851292 124.547258 
L 82.966053 122.006047 
L 83.003996 122.006047 
L 83.118768 119.464835 
L 83.156707 122.006047 
L 83.309415 119.464835 
L 83.653216 119.464835 
L 83.767534 122.006047 
L 83.843889 122.006047 
L 83.92058 124.547258 
L 84.225654 124.547258 
L 84.340441 122.006047 
L 84.41685 122.006047 
L 84.531073 127.08847 
L 84.607425 124.547258 
L 84.684144 124.547258 
L 84.760132 127.08847 
L 85.065549 127.08847 
L 85.256619 144.876952 
L 85.48565 132.170894 
L 85.638514 139.794529 
L 85.75273 137.253317 
L 85.905431 137.253317 
L 86.134493 127.08847 
L 86.210848 127.08847 
L 86.2872 124.547258 
L 86.325636 127.08847 
L 86.363553 124.547258 
L 86.631059 124.547258 
L 86.745321 122.006047 
L 86.898035 122.006047 
L 86.936411 119.464835 
L 86.974387 122.006047 
L 87.089185 122.006047 
L 87.20344 124.547258 
L 87.356152 124.547258 
L 87.470947 122.006047 
L 87.890626 122.006047 
L 87.928945 119.464835 
L 87.966979 122.006047 
L 88.158164 122.006047 
L 88.272384 124.547258 
L 88.501452 124.547258 
L 88.616175 122.006047 
L 88.730512 122.006047 
L 88.845267 124.547258 
L 89.112283 124.547258 
L 89.226999 122.006047 
L 89.799467 122.006047 
L 90.028528 132.170894 
L 90.066917 132.170894 
L 90.181236 134.712105 
L 90.257592 134.712105 
L 90.41065 129.629682 
L 90.525052 132.170894 
L 90.601446 132.170894 
L 90.715707 129.629682 
L 90.7541 129.629682 
L 90.868415 127.08847 
L 91.059618 127.08847 
L 91.173828 124.547258 
L 91.631951 124.547258 
L 91.746776 122.006047 
L 91.899291 122.006047 
L 91.975811 124.547258 
L 92.090071 122.006047 
L 93.197457 122.006047 
L 93.350051 116.923623 
L 93.464439 116.923623 
L 93.57931 114.382411 
L 93.617145 114.382411 
L 93.73184 111.8412 
L 93.92256 111.8412 
L 94.304331 101.676353 
L 94.91516 101.676353 
L 95.029955 99.135141 
L 95.259026 99.135141 
L 95.37367 96.593929 
L 95.525993 96.593929 
L 95.640814 94.052717 
L 95.678699 94.052717 
L 95.793565 96.593929 
L 96.06047 96.593929 
L 96.213178 94.052717 
L 96.747652 94.052717 
L 96.862172 76.264235 
L 96.938696 76.264235 
L 97.05307 73.723023 
L 97.244229 73.723023 
L 97.358487 71.181812 
L 97.434839 71.181812 
L 97.511657 68.6406 
L 97.740257 68.6406 
L 97.855092 66.099388 
L 98.732864 66.099388 
L 98.847712 63.558176 
L 99.076583 63.558176 
L 99.190992 61.016965 
L 99.649117 61.016965 
L 99.801824 58.475753 
L 99.878178 58.475753 
L 99.99297 55.934541 
L 100.030889 55.934541 
L 100.145706 53.393329 
L 100.565359 53.393329 
L 100.680208 55.934541 
L 102.321502 55.934541 
L 102.43623 53.393329 
L 102.970839 53.393329 
L 103.085039 50.852118 
L 104.077635 50.852118 
L 104.192478 48.310906 
L 105.719509 48.310906 
L 105.833775 45.769694 
L 106.139558 45.769694 
L 106.2919 43.228482 
L 106.750017 43.228482 
L 106.826371 40.687271 
L 107.322972 40.687271 
L 107.437197 38.146059 
L 109.269692 38.146059 
L 109.384527 35.604847 
L 110.529611 35.604847 
L 110.644062 33.063635 
L 112.285908 33.063635 
L 112.400193 30.522424 
L 114.156328 30.522424 
L 114.271176 27.981212 
L 166.344462 27.981212 
L 166.497098 33.063635 
L 166.535119 33.063635 
L 166.649937 35.604847 
L 166.726275 35.604847 
L 166.840537 38.146059 
L 166.955338 38.146059 
L 167.069595 40.687271 
L 167.145955 40.687271 
L 167.260718 43.228482 
L 167.871336 43.228482 
L 167.985843 45.769694 
L 168.367618 45.769694 
L 168.482436 48.310906 
L 169.398618 48.310906 
L 169.512932 45.769694 
L 170.238456 45.769694 
L 170.352827 43.228482 
L 171.345436 43.228482 
L 171.498142 40.687271 
L 173.86512 40.687271 
L 173.979961 43.228482 
L 174.55231 43.228482 
L 174.667147 40.687271 
L 176.766577 40.687271 
L 176.881235 38.146059 
L 177.606471 38.146059 
L 177.721288 35.604847 
L 178.293668 35.604847 
L 178.408427 33.063635 
L 178.942876 33.063635 
L 179.057204 30.522424 
L 180.278864 30.522424 
L 180.393576 27.981212 
L 181.844294 27.981212 
L 181.958656 30.522424 
L 182.340419 30.522424 
L 182.49313 33.063635 
L 182.645838 33.063635 
L 182.760606 35.604847 
L 182.98954 35.604847 
L 183.103959 38.146059 
L 183.371522 38.146059 
L 183.485732 40.687271 
L 183.829638 40.687271 
L 183.943854 43.228482 
L 184.783748 43.228482 
L 184.898604 45.769694 
L 185.814536 45.769694 
L 185.929061 43.228482 
L 186.196477 43.228482 
L 186.310833 40.687271 
L 186.654701 40.687271 
L 186.768951 38.146059 
L 187.227477 38.146059 
L 187.341705 35.604847 
L 187.800039 35.604847 
L 187.914765 38.146059 
L 188.028943 38.146059 
L 188.143324 40.687271 
L 188.18178 40.687271 
L 188.296034 43.228482 
L 188.372386 43.228482 
L 188.487159 45.769694 
L 189.059575 45.769694 
L 189.17445 43.228482 
L 189.517699 43.228482 
L 189.632474 40.687271 
L 190.05267 40.687271 
L 190.204885 38.146059 
L 190.816155 38.146059 
L 190.930466 35.604847 
L 191.694079 35.604847 
L 191.80832 33.063635 
L 193.068347 33.063635 
L 193.182695 30.522424 
L 193.9083 30.522424 
L 194.022587 33.063635 
L 194.25165 33.063635 
L 194.328001 35.604847 
L 194.633417 35.604847 
L 194.748275 38.146059 
L 195.091932 38.146059 
L 195.206232 40.687271 
L 197.611227 40.687271 
L 197.725995 38.146059 
L 198.413228 38.146059 
L 198.527478 35.604847 
L 198.947643 35.604847 
L 199.06195 38.146059 
L 199.59643 38.146059 
L 199.711268 40.687271 
L 200.512679 40.687271 
L 200.627416 43.228482 
L 202.154544 43.228482 
L 202.269274 40.687271 
L 203.643196 40.687271 
L 203.795906 43.228482 
L 203.872536 43.228482 
L 204.024963 48.310906 
L 204.139758 48.310906 
L 204.254023 50.852118 
L 204.483088 50.852118 
L 204.597814 48.310906 
L 204.979722 48.310906 
L 205.093921 45.769694 
L 205.399335 45.769694 
L 205.514164 48.310906 
L 205.857943 48.310906 
L 205.972145 45.769694 
L 207.117597 45.769694 
L 207.231832 43.228482 
L 208.835266 43.228482 
L 208.950063 40.687271 
L 209.408228 40.687271 
L 209.522454 43.228482 
L 210.897167 43.228482 
L 211.011539 45.769694 
L 211.164289 45.769694 
L 211.278596 43.228482 
L 211.889429 43.228482 
L 212.00419 45.769694 
L 212.15686 45.769694 
L 212.271199 48.310906 
L 212.423908 45.769694 
L 212.462295 45.769694 
L 212.576617 48.310906 
L 212.691498 45.769694 
L 213.149393 45.769694 
L 213.2638 43.228482 
L 213.874634 43.228482 
L 213.98933 40.687271 
L 214.485929 40.687271 
L 214.600123 43.228482 
L 215.173013 43.228482 
L 215.325365 45.769694 
L 215.630776 45.769694 
L 215.745654 48.310906 
L 216.317963 48.310906 
L 216.432807 45.769694 
L 218.837663 45.769694 
L 218.952336 48.310906 
L 222.617494 48.310906 
L 222.731715 50.852118 
L 223.037132 50.852118 
L 223.189837 48.310906 
L 223.801066 48.310906 
L 223.953381 50.852118 
L 224.068173 50.852118 
L 224.18244 48.310906 
L 224.487861 48.310906 
L 224.640568 50.852118 
L 224.716917 50.852118 
L 224.831676 53.393329 
L 225.060768 53.393329 
L 225.175042 50.852118 
L 225.556812 50.852118 
L 225.70952 55.934541 
L 225.862232 55.934541 
L 225.939 58.475753 
L 226.053219 58.475753 
L 226.167643 61.016965 
L 226.243999 61.016965 
L 226.358798 63.558176 
L 226.625768 63.558176 
L 226.778474 66.099388 
L 226.816855 66.099388 
L 226.85483 63.558176 
L 226.893274 66.099388 
L 227.160246 66.099388 
L 227.275001 68.6406 
L 227.694722 68.6406 
L 227.809541 66.099388 
L 228.000139 66.099388 
L 228.152841 71.181812 
L 228.267601 71.181812 
L 228.381907 68.6406 
L 228.916389 68.6406 
L 229.031216 66.099388 
L 229.069095 66.099388 
L 229.183925 63.558176 
L 229.221803 63.558176 
L 229.336671 61.016965 
L 229.756283 61.016965 
L 229.871124 58.475753 
L 231.054303 58.475753 
L 231.16915 55.934541 
L 231.665136 55.934541 
L 231.817842 58.475753 
L 231.970551 58.475753 
L 232.085318 61.016965 
L 232.46686 61.016965 
L 232.543384 58.475753 
L 232.657738 61.016965 
L 232.886799 61.016965 
L 233.00151 63.558176 
L 233.307028 63.558176 
L 233.421275 61.016965 
L 233.879871 61.016965 
L 233.994145 58.475753 
L 234.070592 58.475753 
L 234.184817 55.934541 
L 234.41388 55.934541 
L 234.528692 53.393329 
L 234.795652 53.393329 
L 234.910477 50.852118 
L 235.711895 50.852118 
L 235.826753 48.310906 
L 236.28479 48.310906 
L 236.399084 50.852118 
L 236.437357 50.852118 
L 236.590185 55.934541 
L 236.704889 55.934541 
L 236.857206 58.475753 
L 236.971953 58.475753 
L 237.086272 55.934541 
L 237.238978 55.934541 
L 237.353835 53.393329 
L 237.926165 53.393329 
L 238.0409 50.852118 
L 238.078875 50.852118 
L 238.231583 55.934541 
L 238.307936 55.934541 
L 238.422699 58.475753 
L 238.499139 58.475753 
L 238.613349 61.016965 
L 238.65175 61.016965 
L 238.804538 66.099388 
L 239.033548 66.099388 
L 239.14783 68.6406 
L 239.529599 68.6406 
L 239.644142 71.181812 
L 239.758662 68.6406 
L 240.637027 68.6406 
L 240.751273 66.099388 
L 240.866102 66.099388 
L 240.980335 63.558176 
L 241.324203 63.558176 
L 241.362107 61.016965 
L 241.400599 63.558176 
L 241.858525 63.558176 
L 241.972939 61.016965 
L 242.201999 61.016965 
L 242.316603 63.558176 
L 242.965546 63.558176 
L 243.080253 66.099388 
L 243.996421 66.099388 
L 244.110856 63.558176 
L 244.49263 63.558176 
L 244.568982 61.016965 
L 244.798045 61.016965 
L 244.950756 66.099388 
L 245.027111 66.099388 
L 245.141791 68.6406 
L 245.256174 68.6406 
L 245.332964 71.181812 
L 245.676305 71.181812 
L 245.790652 68.6406 
L 246.096427 68.6406 
L 246.210807 71.181812 
L 246.401489 71.181812 
L 246.516214 73.723023 
L 246.668891 73.723023 
L 246.783783 76.264235 
L 246.974377 76.264235 
L 247.088677 78.805447 
L 247.203399 76.264235 
L 247.699516 76.264235 
L 247.737879 73.723023 
L 247.775874 76.264235 
L 247.814173 76.264235 
L 247.852226 73.723023 
L 247.890578 76.264235 
L 248.1196 76.264235 
L 248.234402 73.723023 
L 248.310345 73.723023 
L 248.425029 71.181812 
L 249.073896 71.181812 
L 249.188596 68.6406 
L 249.761078 68.6406 
L 249.875807 66.099388 
L 249.913785 66.099388 
L 250.028521 68.6406 
L 250.60098 68.6406 
L 250.715734 71.181812 
L 251.364522 71.181812 
L 251.479301 73.723023 
L 251.517231 73.723023 
L 251.631848 76.264235 
L 251.746297 73.723023 
L 251.937346 73.723023 
L 252.051715 76.264235 
L 252.128063 76.264235 
L 252.280774 81.346659 
L 252.395581 81.346659 
L 252.510117 83.88787 
L 252.662544 86.429082 
L 252.777364 86.429082 
L 252.891609 83.88787 
L 253.044319 83.88787 
L 253.159121 81.346659 
L 253.19703 81.346659 
L 253.349734 83.88787 
L 253.426087 83.88787 
L 253.540902 86.429082 
L 253.693647 86.429082 
L 253.80786 88.970294 
L 253.922716 88.970294 
L 253.960895 91.511506 
L 254.189633 86.429082 
L 254.418699 86.429082 
L 254.609835 78.805447 
L 254.647761 78.805447 
L 254.800477 76.264235 
L 255.411676 76.264235 
L 255.564018 73.723023 
L 255.793083 73.723023 
L 255.907872 71.181812 
L 256.709332 71.181812 
L 256.8241 73.723023 
L 257.01475 73.723023 
L 257.129575 76.264235 
L 257.282275 76.264235 
L 257.472873 83.88787 
L 257.549554 83.88787 
L 257.701937 88.970294 
L 257.81676 88.970294 
L 257.931004 91.511506 
L 258.236421 91.511506 
L 258.389128 88.970294 
L 258.541838 88.970294 
L 258.656671 91.511506 
L 258.885755 91.511506 
L 259.000381 88.970294 
L 259.381739 78.805447 
L 259.57296 78.805447 
L 259.687162 76.264235 
L 259.801745 76.264235 
L 259.954727 81.346659 
L 260.031087 81.346659 
L 260.221646 88.970294 
L 260.603417 88.970294 
L 260.7182 91.511506 
L 260.908834 91.511506 
L 261.023567 94.052717 
L 261.329035 94.052717 
L 261.443319 91.511506 
L 261.519675 91.511506 
L 261.634467 94.052717 
L 261.710814 94.052717 
L 261.825089 96.593929 
L 262.206865 96.593929 
L 262.321632 99.135141 
L 262.664991 99.135141 
L 262.703258 101.676353 
L 262.741349 99.135141 
L 262.970409 99.135141 
L 263.085118 101.676353 
L 263.275827 101.676353 
L 263.428536 106.758776 
L 263.581248 106.758776 
L 263.696023 109.299988 
L 263.733956 109.299988 
L 263.848729 111.8412 
L 264.115728 111.8412 
L 264.344791 101.676353 
L 264.421146 101.676353 
L 264.535913 99.135141 
L 264.726558 99.135141 
L 264.879274 101.676353 
L 265.184692 101.676353 
L 265.2995 99.135141 
L 265.375773 99.135141 
L 265.490402 96.593929 
L 265.604794 96.593929 
L 265.719171 94.052717 
L 266.02459 94.052717 
L 266.139457 91.511506 
L 266.597515 91.511506 
L 266.711781 94.052717 
L 266.750149 94.052717 
L 266.864491 96.593929 
L 267.132058 96.593929 
L 267.246264 94.052717 
L 267.590165 94.052717 
L 267.704392 96.593929 
L 267.780744 96.593929 
L 267.895545 94.052717 
L 267.933454 94.052717 
L 268.048265 96.593929 
L 268.086163 96.593929 
L 268.200985 99.135141 
L 268.391851 99.135141 
L 268.506277 101.676353 
L 269.079162 101.676353 
L 269.231479 104.217564 
L 269.269881 104.217564 
L 269.460547 111.8412 
L 269.536897 111.8412 
L 269.651677 109.299988 
L 269.765961 109.299988 
L 269.956945 101.676353 
L 270.033422 101.676353 
L 270.186184 96.593929 
L 270.300446 96.593929 
L 270.415253 99.135141 
L 270.529772 99.135141 
L 270.644196 101.676353 
L 270.758566 101.676353 
L 270.949804 109.299988 
L 271.217094 109.299988 
L 271.36941 111.8412 
L 271.59847 111.8412 
L 271.71328 114.382411 
L 271.865984 109.299988 
L 272.13295 109.299988 
L 272.171434 106.758776 
L 272.209307 109.299988 
L 272.362013 109.299988 
L 272.476834 111.8412 
L 272.553165 111.8412 
L 272.667829 114.382411 
L 273.125562 114.382411 
L 273.240359 116.923623 
L 273.354627 116.923623 
L 273.507336 114.382411 
L 273.58369 114.382411 
L 273.736398 109.299988 
L 273.851215 111.8412 
L 273.965458 111.8412 
L 274.080299 114.382411 
L 274.118635 114.382411 
L 274.27088 111.8412 
L 274.385737 111.8412 
L 274.499942 109.299988 
L 274.958069 109.299988 
L 275.072883 111.8412 
L 275.11078 111.8412 
L 275.263489 106.758776 
L 275.339844 106.758776 
L 275.454687 104.217564 
L 275.645266 104.217564 
L 275.760042 101.676353 
L 275.912764 101.676353 
L 276.027038 99.135141 
L 276.370717 99.135141 
L 276.447242 101.676353 
L 276.561513 99.135141 
L 276.676323 99.135141 
L 276.829009 94.052717 
L 276.866933 94.052717 
L 277.020046 88.970294 
L 277.095995 88.970294 
L 277.21084 91.511506 
L 277.325062 91.511506 
L 277.439894 94.052717 
L 277.668936 94.052717 
L 277.783193 96.593929 
L 277.898 96.593929 
L 278.012255 99.135141 
L 278.05073 96.593929 
L 278.088605 99.135141 
L 278.27978 99.135141 
L 278.39403 101.676353 
L 279.997475 101.676353 
L 280.112289 99.135141 
L 280.302892 99.135141 
L 280.417759 96.593929 
L 280.684666 96.593929 
L 280.799451 94.052717 
L 280.990084 94.052717 
L 281.181238 101.676353 
L 281.219151 101.676353 
L 281.524567 116.923623 
L 282.288105 147.418164 
L 282.555605 147.418164 
L 282.669875 144.876952 
L 282.861043 144.876952 
L 282.898934 142.335741 
L 282.937382 144.876952 
L 283.090113 144.876952 
L 283.204353 147.418164 
L 283.509773 147.418164 
L 283.662477 152.500588 
L 283.700895 152.500588 
L 283.738829 149.959376 
L 283.777264 152.500588 
L 283.891539 152.500588 
L 284.006349 157.583011 
L 284.158877 152.500588 
L 284.273312 152.500588 
L 284.388104 149.959376 
L 284.426017 149.959376 
L 284.540877 147.418164 
L 284.578726 147.418164 
L 284.731871 152.500588 
L 284.92258 172.830282 
L 284.960494 172.830282 
L 285.075166 175.371493 
L 285.189557 175.371493 
L 285.304313 177.912705 
L 285.380709 177.912705 
L 285.533171 185.53634 
L 285.724032 177.912705 
L 285.876738 177.912705 
L 286.067874 185.53634 
L 286.105798 185.53634 
L 286.296812 177.912705 
L 286.755055 177.912705 
L 286.869331 175.371493 
L 286.983927 175.371493 
L 287.022041 177.912705 
L 287.060451 175.371493 
L 287.213231 175.371493 
L 287.289574 172.830282 
L 287.403805 175.371493 
L 287.480162 175.371493 
L 287.556513 172.830282 
L 287.671045 175.371493 
L 287.78558 175.371493 
L 287.900336 177.912705 
L 288.053105 177.912705 
L 288.167344 175.371493 
L 288.205826 175.371493 
L 288.39641 167.747858 
L 288.511191 167.747858 
L 288.663823 162.665435 
L 288.892926 162.665435 
L 289.007236 165.206646 
L 289.121807 165.206646 
L 289.2363 167.747858 
L 289.274742 167.747858 
L 289.389002 165.206646 
L 289.73288 165.206646 
L 289.885449 160.124223 
L 289.96193 160.124223 
L 290.07619 157.583011 
L 290.152543 157.583011 
L 290.381601 167.747858 
L 290.420134 167.747858 
L 290.572568 162.665435 
L 290.610663 162.665435 
L 290.763369 155.041799 
L 290.801822 157.583011 
L 290.916078 147.418164 
L 291.107124 147.418164 
L 291.221911 144.876952 
L 291.259687 144.876952 
L 291.412644 139.794529 
L 291.755972 139.794529 
L 291.870733 142.335741 
L 291.909134 142.335741 
L 292.214095 134.712105 
L 292.25259 134.712105 
L 292.366804 137.253317 
L 292.44316 137.253317 
L 292.557965 134.712105 
L 292.595862 134.712105 
L 292.74857 132.170894 
L 292.93977 132.170894 
L 292.977633 129.629682 
L 293.016079 132.170894 
L 293.588467 132.170894 
L 293.703293 129.629682 
L 293.779472 129.629682 
L 293.855991 127.08847 
L 293.970238 129.629682 
L 294.008663 129.629682 
L 294.199298 142.335741 
L 294.237734 139.794529 
L 294.275653 139.794529 
L 294.390484 137.253317 
L 294.466762 137.253317 
L 294.581065 139.794529 
L 294.619483 139.794529 
L 294.733771 142.335741 
L 294.810508 142.335741 
L 294.924853 147.418164 
L 295.039192 144.876952 
L 295.459361 144.876952 
L 295.611969 139.794529 
L 295.688446 139.794529 
L 295.80273 137.253317 
L 295.879083 137.253317 
L 296.03179 132.170894 
L 296.146592 132.170894 
L 296.261263 134.712105 
L 296.299089 134.712105 
L 296.41356 137.253317 
L 296.528414 137.253317 
L 296.71897 144.876952 
L 296.910096 137.253317 
L 296.98621 137.253317 
L 297.139229 149.959376 
L 297.215605 149.959376 
L 297.253452 147.418164 
L 297.291934 149.959376 
L 297.368304 149.959376 
L 297.482511 152.500588 
L 297.940636 152.500588 
L 297.979078 149.959376 
L 298.093343 139.794529 
L 298.131667 139.794529 
L 298.246053 137.253317 
L 298.475115 132.170894 
L 298.589927 132.170894 
L 298.704173 129.629682 
L 298.818989 132.170894 
L 298.895263 132.170894 
L 299.047988 127.08847 
L 299.506188 127.08847 
L 299.620422 129.629682 
L 299.849465 129.629682 
L 299.964234 127.08847 
L 300.078541 127.08847 
L 300.193362 129.629682 
L 300.383961 129.629682 
L 300.498628 127.08847 
L 300.91844 127.08847 
L 301.033118 124.547258 
L 301.224352 124.547258 
L 301.37656 127.08847 
L 301.644112 127.08847 
L 301.758333 124.547258 
L 302.178597 124.547258 
L 302.292807 122.006047 
L 302.331263 122.006047 
L 302.445514 124.547258 
L 302.521868 124.547258 
L 302.636667 122.006047 
L 302.674998 122.006047 
L 302.979998 114.382411 
L 303.018451 114.382411 
L 303.132705 111.8412 
L 303.552881 111.8412 
L 303.667182 114.382411 
L 303.705619 114.382411 
L 303.819888 111.8412 
L 303.858354 111.8412 
L 303.972594 109.299988 
L 304.125778 109.299988 
L 304.163476 111.8412 
L 304.20166 109.299988 
L 304.278013 109.299988 
L 304.392895 111.8412 
L 304.698195 111.8412 
L 304.812826 109.299988 
L 304.888848 109.299988 
L 305.003644 106.758776 
L 305.385242 106.758776 
L 305.499683 104.217564 
L 305.652388 101.676353 
L 305.805097 101.676353 
L 305.919903 99.135141 
L 306.034158 99.135141 
L 306.072602 101.676353 
L 306.110509 99.135141 
L 306.263669 99.135141 
L 306.492277 94.052717 
L 306.530718 94.052717 
L 306.644992 96.593929 
L 306.797699 96.593929 
L 306.912533 99.135141 
L 307.065 99.135141 
L 307.179466 96.593929 
L 307.332178 96.593929 
L 307.447005 99.135141 
L 307.714331 99.135141 
L 307.828643 96.593929 
L 307.866661 96.593929 
L 308.019364 91.511506 
L 308.133993 91.511506 
L 308.248428 88.970294 
L 308.324781 88.970294 
L 308.401535 86.429082 
L 308.515761 86.429082 
L 308.630197 83.88787 
L 308.706554 83.88787 
L 308.821421 81.346659 
L 308.935621 81.346659 
L 309.050372 78.805447 
L 309.317386 78.805447 
L 309.432173 76.264235 
L 310.653638 76.264235 
L 310.768119 73.723023 
L 310.920826 73.723023 
L 311.035711 71.181812 
L 311.455301 71.181812 
L 311.570118 68.6406 
L 313.020873 68.6406 
L 313.135101 66.099388 
L 313.516871 66.099388 
L 313.631686 63.558176 
L 313.784421 63.558176 
L 313.89864 61.016965 
L 314.356767 61.016965 
L 314.4716 58.475753 
L 315.120308 58.475753 
L 315.27302 55.934541 
L 316.494688 55.934541 
L 316.609465 53.393329 
L 316.876458 53.393329 
L 316.991224 55.934541 
L 317.296685 55.934541 
L 317.410937 53.393329 
L 318.556251 53.393329 
L 318.671065 55.934541 
L 319.16709 55.934541 
L 319.319798 58.475753 
L 319.472502 58.475753 
L 319.587281 55.934541 
L 322.221266 55.934541 
L 322.336027 53.393329 
L 323.252296 53.393329 
L 323.36658 50.852118 
L 326.230169 50.852118 
L 326.344408 48.310906 
L 329.933062 48.310906 
L 330.085771 45.769694 
L 330.200599 48.310906 
L 330.353312 48.310906 
L 330.467545 45.769694 
L 332.338476 45.769694 
L 332.452756 48.310906 
L 333.445364 48.310906 
L 333.560129 45.769694 
L 335.659648 45.769694 
L 335.736457 48.310906 
L 337.187225 48.310906 
L 337.339444 45.769694 
L 346.960103 45.769694 
L 347.074835 43.228482 
L 351.770421 43.228482 
L 351.885294 45.769694 
L 352.304903 45.769694 
L 352.457617 48.310906 
L 354.1759 48.310906 
L 354.290116 50.852118 
L 354.824591 50.852118 
L 354.939379 53.393329 
L 355.05366 53.393329 
L 355.16845 55.934541 
L 355.435428 55.934541 
L 355.473738 53.393329 
L 355.511784 55.934541 
L 356.19897 55.934541 
L 356.313753 58.475753 
L 356.428028 58.475753 
L 356.542858 61.016965 
L 356.771776 61.016965 
L 356.886151 63.558176 
L 357.077291 63.558176 
L 357.229954 68.6406 
L 357.649696 68.6406 
L 357.764415 71.181812 
L 358.298961 71.181812 
L 358.413235 68.6406 
L 358.642297 68.6406 
L 358.680819 71.181812 
L 358.718652 68.6406 
L 359.024066 68.6406 
L 359.176775 86.429082 
L 359.367985 94.052717 
L 359.444301 94.052717 
L 359.596765 99.135141 
L 359.673288 99.135141 
L 359.902427 109.299988 
L 360.016665 109.299988 
L 360.169371 104.217564 
L 360.322077 109.299988 
L 360.513266 101.676353 
L 360.551139 101.676353 
L 360.780201 111.8412 
L 360.932909 111.8412 
L 361.085616 114.382411 
L 361.161976 114.382411 
L 361.391027 124.547258 
L 361.429441 124.547258 
L 361.543733 122.006047 
L 361.582159 122.006047 
L 361.696766 124.547258 
L 361.734635 124.547258 
L 361.887631 129.629682 
L 362.002254 129.629682 
L 362.116644 127.08847 
L 362.154567 127.08847 
L 362.307272 119.464835 
L 362.45998 99.135141 
L 362.612688 91.511506 
L 362.651165 101.676353 
L 362.72752 99.135141 
L 362.803874 99.135141 
L 362.9181 101.676353 
L 363.338378 101.676353 
L 363.52893 109.299988 
L 363.643824 109.299988 
L 363.834785 101.676353 
L 363.949029 101.676353 
L 364.368821 124.547258 
L 364.407239 124.547258 
L 364.483699 122.006047 
L 364.597877 124.547258 
L 364.712668 124.547258 
L 364.865404 119.464835 
L 365.018114 119.464835 
L 365.20871 111.8412 
L 365.399786 111.8412 
L 365.437769 109.299988 
L 365.552553 114.382411 
L 365.590482 114.382411 
L 365.781576 106.758776 
L 365.895892 109.299988 
L 365.972664 109.299988 
L 366.20131 104.217564 
L 366.316101 104.217564 
L 366.392483 106.758776 
L 366.545118 101.676353 
L 366.583075 101.676353 
L 366.659434 99.135141 
L 367.155993 99.135141 
L 367.19391 96.593929 
L 367.346615 81.346659 
L 367.652034 81.346659 
L 367.804743 76.264235 
L 367.881093 76.264235 
L 367.99597 94.052717 
L 368.072205 94.052717 
L 368.186509 91.511506 
L 368.301313 94.052717 
L 368.49192 94.052717 
L 368.606753 76.264235 
L 369.561325 76.264235 
L 369.713585 73.723023 
L 370.400773 73.723023 
L 370.515597 71.181812 
L 370.706186 71.181812 
L 370.820987 68.6406 
L 371.279098 68.6406 
L 371.39337 66.099388 
L 372.1954 66.099388 
L 372.30962 63.558176 
L 372.882548 63.558176 
L 372.996809 61.016965 
L 373.417018 61.016965 
L 373.531283 58.475753 
L 373.760346 58.475753 
L 373.836699 55.934541 
L 373.913047 55.934541 
L 374.027832 58.475753 
L 374.71495 58.475753 
L 374.829299 61.016965 
L 375.09688 61.016965 
L 375.211069 58.475753 
L 375.974605 58.475753 
L 376.12732 61.016965 
L 377.00569 61.016965 
L 377.119919 58.475753 
L 377.272629 58.475753 
L 377.387437 55.934541 
L 377.501685 58.475753 
L 377.6544 58.475753 
L 377.769259 61.016965 
L 378.036167 61.016965 
L 378.112523 63.558176 
L 379.257832 63.558176 
L 379.372565 61.016965 
L 380.403145 61.016965 
L 380.517991 63.558176 
L 382.732232 63.558176 
L 382.846472 61.016965 
L 383.07554 61.016965 
L 383.151891 58.475753 
L 383.304594 61.016965 
L 383.610016 61.016965 
L 383.724776 63.558176 
L 384.144487 63.558176 
L 384.259334 61.016965 
L 384.297197 61.016965 
L 384.412036 63.558176 
L 384.52626 63.558176 
L 384.602614 61.016965 
L 385.060743 61.016965 
L 385.175585 58.475753 
L 385.289806 58.475753 
L 385.442514 55.934541 
L 385.900641 55.934541 
L 386.015372 53.393329 
L 386.282408 53.393329 
L 386.39715 50.852118 
L 387.008025 50.852118 
L 387.122305 48.310906 
L 387.962195 48.310906 
L 388.077043 45.769694 
L 388.42032 45.769694 
L 388.535096 48.310906 
L 388.992975 48.310906 
L 389.10751 50.852118 
L 389.48928 50.852118 
L 389.604104 53.393329 
L 389.642371 53.393329 
L 389.794697 55.934541 
L 390.023758 55.934541 
L 390.138551 58.475753 
L 390.520253 58.475753 
L 390.634592 55.934541 
L 391.474487 55.934541 
L 391.589302 58.475753 
L 392.085316 58.475753 
L 392.200052 61.016965 
L 392.696147 61.016965 
L 392.810984 63.558176 
L 393.230629 63.558176 
L 393.383337 66.099388 
L 393.841459 66.099388 
L 393.917816 68.6406 
L 395.368544 68.6406 
L 395.521253 71.181812 
L 395.941492 71.181812 
L 396.05573 73.723023 
L 396.552304 73.723023 
L 396.666568 71.181812 
L 398.117295 71.181812 
L 398.193648 73.723023 
L 398.270451 71.181812 
L 398.613846 71.181812 
L 398.728127 68.6406 
L 399.262611 68.6406 
L 399.377415 71.181812 
L 399.911758 71.181812 
L 400.026149 73.723023 
L 400.178856 73.723023 
L 400.293692 76.264235 
L 400.904526 76.264235 
L 401.018749 78.805447 
L 401.400521 78.805447 
L 401.553229 83.88787 
L 401.629587 83.88787 
L 401.744429 86.429082 
L 402.011361 86.429082 
L 402.12619 88.970294 
L 402.164063 88.970294 
L 402.278851 86.429082 
L 402.545841 86.429082 
L 402.698541 83.88787 
L 402.889718 83.88787 
L 403.00396 86.429082 
L 403.156673 86.429082 
L 403.309809 81.346659 
L 403.538443 76.264235 
L 403.691151 76.264235 
L 403.806019 73.723023 
L 404.340402 73.723023 
L 404.454694 76.264235 
L 404.989177 76.264235 
L 405.103914 73.723023 
L 405.409412 73.723023 
L 405.52365 76.264235 
L 405.714711 76.264235 
L 405.829071 78.805447 
L 406.020218 78.805447 
L 406.211189 86.429082 
L 406.516257 86.429082 
L 406.631085 83.88787 
L 406.974381 83.88787 
L 407.089201 81.346659 
L 407.470999 81.346659 
L 407.585218 76.264235 
L 408.043347 76.264235 
L 408.081823 73.723023 
L 408.119699 76.264235 
L 408.425115 76.264235 
L 408.501471 73.723023 
L 408.616188 76.264235 
L 410.02856 76.264235 
L 410.143345 73.723023 
L 410.830521 73.723023 
L 410.944808 71.181812 
L 411.059654 71.181812 
L 411.174283 73.723023 
L 411.250701 73.723023 
L 411.364956 76.264235 
L 411.784707 76.264235 
L 411.937868 81.346659 
L 412.166474 81.346659 
L 412.281326 83.88787 
L 412.319186 83.88787 
L 412.43396 86.429082 
L 412.471892 86.429082 
L 412.586684 88.970294 
L 412.930023 88.970294 
L 413.0448 86.429082 
L 413.350229 86.429082 
L 413.540852 78.805447 
L 413.693561 78.805447 
L 413.808318 76.264235 
L 414.34283 76.264235 
L 414.380759 78.805447 
L 414.419077 76.264235 
L 415.182732 76.264235 
L 415.297004 73.723023 
L 415.411705 73.723023 
L 415.526505 71.181812 
L 416.518677 71.181812 
L 416.55714 73.723023 
L 416.595032 71.181812 
L 416.786201 71.181812 
L 416.90045 73.723023 
L 416.97723 73.723023 
L 417.12951 76.264235 
L 417.358578 76.264235 
L 417.549687 83.88787 
L 417.626134 83.88787 
L 417.740327 86.429082 
L 417.855112 86.429082 
L 418.007892 91.511506 
L 418.19847 91.511506 
L 418.31324 88.970294 
L 418.428049 88.970294 
L 418.695064 101.676353 
L 418.732951 101.676353 
L 418.885658 106.758776 
L 418.962014 106.758776 
L 419.000477 104.217564 
L 419.038369 106.758776 
L 419.076817 106.758776 
L 419.420139 124.547258 
L 419.763962 124.547258 
L 419.878638 127.08847 
L 419.992993 127.08847 
L 420.107318 129.629682 
L 420.183673 129.629682 
L 420.221942 127.08847 
L 420.374863 147.418164 
L 420.412737 147.418164 
L 420.451178 149.959376 
L 420.5659 137.253317 
L 420.794897 137.253317 
L 420.832944 134.712105 
L 420.947213 147.418164 
L 421.099919 142.335741 
L 421.138324 142.335741 
L 421.252627 139.794529 
L 421.367229 139.794529 
L 421.634401 152.500588 
L 421.939812 152.500588 
L 422.054349 160.124223 
L 422.245226 157.583011 
L 422.359846 152.500588 
L 422.550638 152.500588 
L 422.626996 157.583011 
L 422.665386 155.041799 
L 422.703737 155.041799 
L 422.856055 157.583011 
L 422.932408 157.583011 
L 423.047169 152.500588 
L 423.16147 155.041799 
L 423.19997 152.500588 
L 423.237824 155.041799 
L 423.314178 157.583011 
L 423.352652 155.041799 
L 423.390528 157.583011 
L 423.581637 157.583011 
L 423.65802 152.500588 
L 423.695945 155.041799 
L 423.772296 157.583011 
L 423.925007 152.500588 
L 424.001358 152.500588 
L 424.116154 149.959376 
L 424.19223 149.959376 
L 424.306776 152.500588 
L 424.421562 152.500588 
L 424.726966 167.747858 
L 424.765351 167.747858 
L 424.955873 160.124223 
L 424.99395 160.124223 
L 425.146658 165.206646 
L 425.261495 162.665435 
L 425.299367 162.665435 
L 425.337904 165.206646 
L 425.375719 162.665435 
L 425.414191 162.665435 
L 425.52843 157.583011 
L 425.605192 157.583011 
L 425.719515 160.124223 
L 425.757492 160.124223 
L 425.872239 165.206646 
L 425.9102 162.665435 
L 425.94862 165.206646 
L 426.254005 165.206646 
L 426.597383 157.583011 
L 426.774693 157.583011 
L 426.826438 160.124223 
L 426.86491 157.583011 
L 426.903196 157.583011 
L 427.131857 152.500588 
L 427.589971 152.500588 
L 427.742679 149.959376 
L 428.811632 137.253317 
L 428.964338 139.794529 
L 429.002822 137.253317 
L 429.041172 139.794529 
L 429.193407 142.335741 
L 429.346112 142.335741 
L 429.460908 147.418164 
L 429.575173 144.876952 
L 429.804625 144.876952 
L 429.956943 152.500588 
L 429.995386 152.500588 
L 430.071696 160.124223 
L 430.185999 152.500588 
L 430.224399 152.500588 
L 430.377062 147.418164 
L 430.758919 147.418164 
L 430.873182 144.876952 
L 431.02589 149.959376 
L 431.102245 149.959376 
L 431.293218 142.335741 
L 431.331305 142.335741 
L 431.560365 152.500588 
L 431.598807 152.500588 
L 431.827807 162.665435 
L 431.980338 162.665435 
L 432.056863 167.747858 
L 432.094834 165.206646 
L 432.133281 165.206646 
L 432.247545 167.747858 
L 432.285845 167.747858 
L 432.362324 170.28907 
L 432.438681 165.206646 
L 432.4766 167.747858 
L 432.552954 167.747858 
L 432.591405 165.206646 
L 432.629766 167.747858 
L 432.705662 170.28907 
L 432.82048 167.747858 
L 432.858372 167.747858 
L 432.97317 170.28907 
L 433.011073 170.28907 
L 433.087432 172.830282 
L 433.202072 170.28907 
L 433.31649 170.28907 
L 433.545551 165.206646 
L 433.584004 167.747858 
L 433.736703 152.500588 
L 434.003676 152.500588 
L 434.156375 149.959376 
L 434.30908 149.959376 
L 434.423857 144.876952 
L 434.500278 147.418164 
L 434.614501 144.876952 
L 434.729295 144.876952 
L 434.76768 147.418164 
L 434.996274 142.335741 
L 435.034769 142.335741 
L 435.225328 149.959376 
L 435.378035 149.959376 
L 435.45439 147.418164 
L 435.568979 152.500588 
L 435.607098 149.959376 
L 435.721919 149.959376 
L 435.836157 152.500588 
L 435.988867 147.418164 
L 436.332623 147.418164 
L 436.485427 152.500588 
L 436.599693 152.500588 
L 436.7524 147.418164 
L 436.981464 147.418164 
L 437.134169 142.335741 
L 437.248984 142.335741 
L 437.401659 147.418164 
L 437.515935 147.418164 
L 437.592284 142.335741 
L 438.012531 142.335741 
L 438.126762 139.794529 
L 438.165104 139.794529 
L 438.279471 142.335741 
L 438.661242 122.006047 
L 438.776101 122.006047 
L 438.928657 106.758776 
L 439.157625 106.758776 
L 439.272074 104.217564 
L 443.166127 96.593929 
L 443.20453 96.593929 
L 443.318832 94.052717 
L 443.395185 94.052717 
L 443.509984 91.511506 
L 443.891728 91.511506 
L 444.006017 88.970294 
L 444.540497 88.970294 
L 444.65527 91.511506 
L 444.922266 91.511506 
L 444.998978 94.052717 
L 445.113287 94.052717 
L 445.266082 88.970294 
L 445.495095 88.970294 
L 445.647809 83.88787 
L 445.685801 83.88787 
L 445.838512 81.346659 
L 445.991214 81.346659 
L 446.105943 78.805447 
L 446.143921 78.805447 
L 446.258737 81.346659 
L 446.487523 81.346659 
L 446.602047 78.805447 
L 446.983814 78.805447 
L 447.098467 76.264235 
L 447.404013 76.264235 
L 447.518292 78.805447 
L 447.556703 78.805447 
L 447.709408 83.88787 
L 448.5493 83.88787 
L 448.663608 86.429082 
L 449.885278 86.429082 
L 450 83.88787 
L 450 83.88787 
" clip-path="url(#p5897a81b9f)" style="fill: none; stroke: #ff7f0e; stroke-width: 1.5; stroke-linecap: square"/>
   </g>
   <g id="patch_3">
    <path d="M 51.05 279.561175 
L 51.05 25.44 
" style="fill: none; stroke: #000000; stroke-width: 0.8; stroke-linejoin: miter; stroke-linecap: square"/>
   </g>
   <g id="patch_4">
    <path d="M 450 279.561175 
L 450 25.44 
" style="fill: none; stroke: #000000; stroke-width: 0.8; stroke-linejoin: miter; stroke-linecap: square"/>
   </g>
   <g id="patch_5">
    <path d="M 51.05 279.561175 
L 450 279.561175 
" style="fill: none; stroke: #000000; stroke-width: 0.8; stroke-linejoin: miter; stroke-linecap: square"/>
   </g>
   <g id="patch_6">
    <path d="M 51.05 25.44 
L 450 25.44 
" style="fill: none; stroke: #000000; stroke-width: 0.8; stroke-linejoin: miter; stroke-linecap: square"/>
   </g>
   <g id="text_13">
    <!-- November 2023 -->
    <g transform="translate(202.133125 19.44) scale(0.12 -0.12)">
     <defs>
      <path id="DejaVuSans-4e" d="M 628 4666 
L 1478 4666 
L 3547 763 
L 3547 4666 
L 4159 4666 
L 4159 0 
L 3309 0 
L 1241 3903 
L 1241 0 
L 628 0 
L 628 4666 
z
" transform="scale(0.015625)"/>
      <path id="DejaVuSans-6f" d="M 1959 3097 
Q 1497 3097 1228 2736 
Q 959 2375 959 1747 
Q 959 1119 1226 758 
Q 1494 397 1959 397 
Q 2419 397 2687 759 
Q 2956 1122 2956 1747 
Q 2956 2369 2687 2733 
Q 2419 3097 1959 3097 
z
M 1959 3584 
Q 2709 3584 3137 3096 
Q 3566 2609 3566 1747 
Q 3566 888 3137 398 
Q 2709 -91 1959 -91 
Q 1206 -91 779 398 
Q 353 888 353 1747 
Q 353 2609 779 3096 
Q 1206 3584 1959 3584 
z
" transform="scale(0.015625)"/>
      <path id="DejaVuSans-76" d="M 191 3500 
L 800 3500 
L 1894 563 
L 2988 3500 
L 3597 3500 
L 2284 0 
L 1503 0 
L 191 3500 
z
" transform="scale(0.015625)"/>
      <path id="DejaVuSans-65" d="M 3597 1894 
L 3597 1613 
L 953 1613 
Q 991 1019 1311 708 
Q 1631 397 2203 397 
Q 2534 397 2845 478 
Q 3156 559 3463 722 
L 3463 178 
Q 3153 47 2828 -22 
Q 2503 -91 2169 -91 
Q 1331 -91 842 396 
Q 353 884 353 1716 
Q 353 2575 817 3079 
Q 1281 3584 2069 3584 
Q 2775 3584 3186 3129 
Q 3597 2675 3597 1894 
z
M 3022 2063 
Q 3016 2534 2758 2815 
Q 2500 3097 2075 3097 
Q 1594 3097 1305 2825 
Q 1016 2553 972 2059 
L 3022 2063 
z
" transform="scale(0.015625)"/>
      <path id="DejaVuSans-62" d="M 3116 1747 
Q 3116 2381 2855 2742 
Q 2594 3103 2138 3103 
Q 1681 3103 1420 2742 
Q 1159 2381 1159 1747 
Q 1159 1113 1420 752 
Q 1681 391 2138 391 
Q 2594 391 2855 752 
Q 3116 1113 3116 1747 
z
M 1159 2969 
Q 1341 3281 1617 3432 
Q 1894 3584 2278 3584 
Q 2916 3584 3314 3078 
Q 3713 2572 3713 1747 
Q 3713 922 3314 415 
Q 2916 -91 2278 -91 
Q 1894 -91 1617 61 
Q 1341 213 1159 525 
L 1159 0 
L 581 0 
L 581 4863 
L 1159 4863 
L 1159 2969 
z
" transform="scale(0.015625)"/>
      <path id="DejaVuSans-72" d="M 2631 2963 
Q 2534 3019 2420 3045 
Q 2306 3072 2169 3072 
Q 1681 3072 1420 2755 
Q 1159 2438 1159 1844 
L 1159 0 
L 581 0 
L 581 3500 
L 1159 3500 
L 1159 2956 
Q 1341 3275 1631 3429 
Q 1922 3584 2338 3584 
Q 2397 3584 2469 3576 
Q 2541 3569 2628 3553 
L 2631 2963 
z
" transform="scale(0.015625)"/>
     </defs>
     <use xlink:href="#DejaVuSans-4e"/>
     <use xlink:href="#DejaVuSans-6f" x="74.804688"/>
     <use xlink:href="#DejaVuSans-76" x="135.986328"/>
     <use xlink:href="#DejaVuSans-65" x="195.166016"/>
     <use xlink:href="#DejaVuSans-6d" x="256.689453"/>
     <use xlink:href="#DejaVuSans-62" x="354.101562"/>
     <use xlink:href="#DejaVuSans-65" x="417.578125"/>
     <use xlink:href="#DejaVuSans-72" x="479.101562"/>
     <use xlink:href="#DejaVuSans-20" x="520.214844"/>
     <use xlink:href="#DejaVuSans-32" x="552.001953"/>
     <use xlink:href="#DejaVuSans-30" x="615.625"/>
     <use xlink:href="#DejaVuSans-32" x="679.248047"/>
     <use xlink:href="#DejaVuSans-33" x="742.871094"/>
    </g>
   </g>
  </g>
 </g>
 <defs>
  <clipPath id="p5897a81b9f">
   <rect x="51.05" y="25.44" width="398.95" height="254.121175"/>
  </clipPath>
 </defs>
</svg>
