<?xml version="1.0" encoding="utf-8" standalone="no"?>
<!DOCTYPE svg PUBLIC "-//W3C//DTD SVG 1.1//EN"
  "http://www.w3.org/Graphics/SVG/1.1/DTD/svg11.dtd">
<svg xmlns:xlink="http://www.w3.org/1999/xlink" width="432pt" height="288pt" viewBox="0 0 432 288" xmlns="http://www.w3.org/2000/svg" version="1.1">
 <metadata>
  <rdf:RDF xmlns:dc="http://purl.org/dc/elements/1.1/" xmlns:cc="http://creativecommons.org/ns#" xmlns:rdf="http://www.w3.org/1999/02/22-rdf-syntax-ns#">
   <cc:Work>
    <dc:type rdf:resource="http://purl.org/dc/dcmitype/StillImage"/>
    <dc:date>2023-11-12T10:23:33.556998</dc:date>
    <dc:format>image/svg+xml</dc:format>
    <dc:creator>
     <cc:Agent>
      <dc:title>Matplotlib v3.6.3, https://matplotlib.org/</dc:title>
     </cc:Agent>
    </dc:creator>
   </cc:Work>
  </rdf:RDF>
 </metadata>
 <defs>
  <style type="text/css">*{stroke-linejoin: round; stroke-linecap: butt}</style>
 </defs>
 <g id="figure_1">
  <g id="patch_1">
   <path d="M 0 288 
L 432 288 
L 432 0 
L 0 0 
z
" style="fill: #ffffff"/>
  </g>
  <g id="axes_1">
   <g id="patch_2">
    <path d="M 50.925 221.939962 
L 421.2 221.939962 
L 421.2 26.8 
L 50.925 26.8 
z
" style="fill: #ffffff"/>
   </g>
   <g id="matplotlib.axis_1">
    <g id="xtick_1">
     <g id="line2d_1">
      <path d="M 115.688906 221.939962 
L 115.688906 26.8 
" clip-path="url(#pb670f6fe05)" style="fill: none; stroke: #b0b0b0; stroke-width: 0.8; stroke-linecap: square"/>
     </g>
     <g id="line2d_2">
      <defs>
       <path id="m3ff223a3b1" d="M 0 0 
L 0 3.5 
" style="stroke: #000000; stroke-width: 0.8"/>
      </defs>
      <g>
       <use xlink:href="#m3ff223a3b1" x="115.688906" y="221.939962" style="stroke: #000000; stroke-width: 0.8"/>
      </g>
     </g>
     <g id="text_1">
      <!-- 2023-11-03 -->
      <g transform="translate(73.124393 275.406821) rotate(-45) scale(0.1 -0.1)">
       <defs>
        <path id="DejaVuSans-32" d="M 1228 531 
L 3431 531 
L 3431 0 
L 469 0 
L 469 531 
Q 828 903 1448 1529 
Q 2069 2156 2228 2338 
Q 2531 2678 2651 2914 
Q 2772 3150 2772 3378 
Q 2772 3750 2511 3984 
Q 2250 4219 1831 4219 
Q 1534 4219 1204 4116 
Q 875 4013 500 3803 
L 500 4441 
Q 881 4594 1212 4672 
Q 1544 4750 1819 4750 
Q 2544 4750 2975 4387 
Q 3406 4025 3406 3419 
Q 3406 3131 3298 2873 
Q 3191 2616 2906 2266 
Q 2828 2175 2409 1742 
Q 1991 1309 1228 531 
z
" transform="scale(0.015625)"/>
        <path id="DejaVuSans-30" d="M 2034 4250 
Q 1547 4250 1301 3770 
Q 1056 3291 1056 2328 
Q 1056 1369 1301 889 
Q 1547 409 2034 409 
Q 2525 409 2770 889 
Q 3016 1369 3016 2328 
Q 3016 3291 2770 3770 
Q 2525 4250 2034 4250 
z
M 2034 4750 
Q 2819 4750 3233 4129 
Q 3647 3509 3647 2328 
Q 3647 1150 3233 529 
Q 2819 -91 2034 -91 
Q 1250 -91 836 529 
Q 422 1150 422 2328 
Q 422 3509 836 4129 
Q 1250 4750 2034 4750 
z
" transform="scale(0.015625)"/>
        <path id="DejaVuSans-33" d="M 2597 2516 
Q 3050 2419 3304 2112 
Q 3559 1806 3559 1356 
Q 3559 666 3084 287 
Q 2609 -91 1734 -91 
Q 1441 -91 1130 -33 
Q 819 25 488 141 
L 488 750 
Q 750 597 1062 519 
Q 1375 441 1716 441 
Q 2309 441 2620 675 
Q 2931 909 2931 1356 
Q 2931 1769 2642 2001 
Q 2353 2234 1838 2234 
L 1294 2234 
L 1294 2753 
L 1863 2753 
Q 2328 2753 2575 2939 
Q 2822 3125 2822 3475 
Q 2822 3834 2567 4026 
Q 2313 4219 1838 4219 
Q 1578 4219 1281 4162 
Q 984 4106 628 3988 
L 628 4550 
Q 988 4650 1302 4700 
Q 1616 4750 1894 4750 
Q 2613 4750 3031 4423 
Q 3450 4097 3450 3541 
Q 3450 3153 3228 2886 
Q 3006 2619 2597 2516 
z
" transform="scale(0.015625)"/>
        <path id="DejaVuSans-2d" d="M 313 2009 
L 1997 2009 
L 1997 1497 
L 313 1497 
L 313 2009 
z
" transform="scale(0.015625)"/>
        <path id="DejaVuSans-31" d="M 794 531 
L 1825 531 
L 1825 4091 
L 703 3866 
L 703 4441 
L 1819 4666 
L 2450 4666 
L 2450 531 
L 3481 531 
L 3481 0 
L 794 0 
L 794 531 
z
" transform="scale(0.015625)"/>
       </defs>
       <use xlink:href="#DejaVuSans-32"/>
       <use xlink:href="#DejaVuSans-30" x="63.623047"/>
       <use xlink:href="#DejaVuSans-32" x="127.246094"/>
       <use xlink:href="#DejaVuSans-33" x="190.869141"/>
       <use xlink:href="#DejaVuSans-2d" x="254.492188"/>
       <use xlink:href="#DejaVuSans-31" x="290.576172"/>
       <use xlink:href="#DejaVuSans-31" x="354.199219"/>
       <use xlink:href="#DejaVuSans-2d" x="417.822266"/>
       <use xlink:href="#DejaVuSans-30" x="453.90625"/>
       <use xlink:href="#DejaVuSans-33" x="517.529297"/>
      </g>
     </g>
    </g>
    <g id="xtick_2">
     <g id="line2d_3">
      <path d="M 180.470045 221.939962 
L 180.470045 26.8 
" clip-path="url(#pb670f6fe05)" style="fill: none; stroke: #b0b0b0; stroke-width: 0.8; stroke-linecap: square"/>
     </g>
     <g id="line2d_4">
      <g>
       <use xlink:href="#m3ff223a3b1" x="180.470045" y="221.939962" style="stroke: #000000; stroke-width: 0.8"/>
      </g>
     </g>
     <g id="text_2">
      <!-- 2023-11-05 -->
      <g transform="translate(137.905531 275.406821) rotate(-45) scale(0.1 -0.1)">
       <defs>
        <path id="DejaVuSans-35" d="M 691 4666 
L 3169 4666 
L 3169 4134 
L 1269 4134 
L 1269 2991 
Q 1406 3038 1543 3061 
Q 1681 3084 1819 3084 
Q 2600 3084 3056 2656 
Q 3513 2228 3513 1497 
Q 3513 744 3044 326 
Q 2575 -91 1722 -91 
Q 1428 -91 1123 -41 
Q 819 9 494 109 
L 494 744 
Q 775 591 1075 516 
Q 1375 441 1709 441 
Q 2250 441 2565 725 
Q 2881 1009 2881 1497 
Q 2881 1984 2565 2268 
Q 2250 2553 1709 2553 
Q 1456 2553 1204 2497 
Q 953 2441 691 2322 
L 691 4666 
z
" transform="scale(0.015625)"/>
       </defs>
       <use xlink:href="#DejaVuSans-32"/>
       <use xlink:href="#DejaVuSans-30" x="63.623047"/>
       <use xlink:href="#DejaVuSans-32" x="127.246094"/>
       <use xlink:href="#DejaVuSans-33" x="190.869141"/>
       <use xlink:href="#DejaVuSans-2d" x="254.492188"/>
       <use xlink:href="#DejaVuSans-31" x="290.576172"/>
       <use xlink:href="#DejaVuSans-31" x="354.199219"/>
       <use xlink:href="#DejaVuSans-2d" x="417.822266"/>
       <use xlink:href="#DejaVuSans-30" x="453.90625"/>
       <use xlink:href="#DejaVuSans-35" x="517.529297"/>
      </g>
     </g>
    </g>
    <g id="xtick_3">
     <g id="line2d_5">
      <path d="M 245.251183 221.939962 
L 245.251183 26.8 
" clip-path="url(#pb670f6fe05)" style="fill: none; stroke: #b0b0b0; stroke-width: 0.8; stroke-linecap: square"/>
     </g>
     <g id="line2d_6">
      <g>
       <use xlink:href="#m3ff223a3b1" x="245.251183" y="221.939962" style="stroke: #000000; stroke-width: 0.8"/>
      </g>
     </g>
     <g id="text_3">
      <!-- 2023-11-07 -->
      <g transform="translate(202.686669 275.406821) rotate(-45) scale(0.1 -0.1)">
       <defs>
        <path id="DejaVuSans-37" d="M 525 4666 
L 3525 4666 
L 3525 4397 
L 1831 0 
L 1172 0 
L 2766 4134 
L 525 4134 
L 525 4666 
z
" transform="scale(0.015625)"/>
       </defs>
       <use xlink:href="#DejaVuSans-32"/>
       <use xlink:href="#DejaVuSans-30" x="63.623047"/>
       <use xlink:href="#DejaVuSans-32" x="127.246094"/>
       <use xlink:href="#DejaVuSans-33" x="190.869141"/>
       <use xlink:href="#DejaVuSans-2d" x="254.492188"/>
       <use xlink:href="#DejaVuSans-31" x="290.576172"/>
       <use xlink:href="#DejaVuSans-31" x="354.199219"/>
       <use xlink:href="#DejaVuSans-2d" x="417.822266"/>
       <use xlink:href="#DejaVuSans-30" x="453.90625"/>
       <use xlink:href="#DejaVuSans-37" x="517.529297"/>
      </g>
     </g>
    </g>
    <g id="xtick_4">
     <g id="line2d_7">
      <path d="M 310.032321 221.939962 
L 310.032321 26.8 
" clip-path="url(#pb670f6fe05)" style="fill: none; stroke: #b0b0b0; stroke-width: 0.8; stroke-linecap: square"/>
     </g>
     <g id="line2d_8">
      <g>
       <use xlink:href="#m3ff223a3b1" x="310.032321" y="221.939962" style="stroke: #000000; stroke-width: 0.8"/>
      </g>
     </g>
     <g id="text_4">
      <!-- 2023-11-09 -->
      <g transform="translate(267.467808 275.406821) rotate(-45) scale(0.1 -0.1)">
       <defs>
        <path id="DejaVuSans-39" d="M 703 97 
L 703 672 
Q 941 559 1184 500 
Q 1428 441 1663 441 
Q 2288 441 2617 861 
Q 2947 1281 2994 2138 
Q 2813 1869 2534 1725 
Q 2256 1581 1919 1581 
Q 1219 1581 811 2004 
Q 403 2428 403 3163 
Q 403 3881 828 4315 
Q 1253 4750 1959 4750 
Q 2769 4750 3195 4129 
Q 3622 3509 3622 2328 
Q 3622 1225 3098 567 
Q 2575 -91 1691 -91 
Q 1453 -91 1209 -44 
Q 966 3 703 97 
z
M 1959 2075 
Q 2384 2075 2632 2365 
Q 2881 2656 2881 3163 
Q 2881 3666 2632 3958 
Q 2384 4250 1959 4250 
Q 1534 4250 1286 3958 
Q 1038 3666 1038 3163 
Q 1038 2656 1286 2365 
Q 1534 2075 1959 2075 
z
" transform="scale(0.015625)"/>
       </defs>
       <use xlink:href="#DejaVuSans-32"/>
       <use xlink:href="#DejaVuSans-30" x="63.623047"/>
       <use xlink:href="#DejaVuSans-32" x="127.246094"/>
       <use xlink:href="#DejaVuSans-33" x="190.869141"/>
       <use xlink:href="#DejaVuSans-2d" x="254.492188"/>
       <use xlink:href="#DejaVuSans-31" x="290.576172"/>
       <use xlink:href="#DejaVuSans-31" x="354.199219"/>
       <use xlink:href="#DejaVuSans-2d" x="417.822266"/>
       <use xlink:href="#DejaVuSans-30" x="453.90625"/>
       <use xlink:href="#DejaVuSans-39" x="517.529297"/>
      </g>
     </g>
    </g>
    <g id="xtick_5">
     <g id="line2d_9">
      <path d="M 374.81346 221.939962 
L 374.81346 26.8 
" clip-path="url(#pb670f6fe05)" style="fill: none; stroke: #b0b0b0; stroke-width: 0.8; stroke-linecap: square"/>
     </g>
     <g id="line2d_10">
      <g>
       <use xlink:href="#m3ff223a3b1" x="374.81346" y="221.939962" style="stroke: #000000; stroke-width: 0.8"/>
      </g>
     </g>
     <g id="text_5">
      <!-- 2023-11-11 -->
      <g transform="translate(332.248946 275.406821) rotate(-45) scale(0.1 -0.1)">
       <use xlink:href="#DejaVuSans-32"/>
       <use xlink:href="#DejaVuSans-30" x="63.623047"/>
       <use xlink:href="#DejaVuSans-32" x="127.246094"/>
       <use xlink:href="#DejaVuSans-33" x="190.869141"/>
       <use xlink:href="#DejaVuSans-2d" x="254.492188"/>
       <use xlink:href="#DejaVuSans-31" x="290.576172"/>
       <use xlink:href="#DejaVuSans-31" x="354.199219"/>
       <use xlink:href="#DejaVuSans-2d" x="417.822266"/>
       <use xlink:href="#DejaVuSans-31" x="453.90625"/>
       <use xlink:href="#DejaVuSans-31" x="517.529297"/>
      </g>
     </g>
    </g>
   </g>
   <g id="matplotlib.axis_2">
    <g id="ytick_1">
     <g id="line2d_11">
      <path d="M 50.925 221.939962 
L 421.2 221.939962 
" clip-path="url(#pb670f6fe05)" style="fill: none; stroke: #b0b0b0; stroke-width: 0.8; stroke-linecap: square"/>
     </g>
     <g id="line2d_12">
      <defs>
       <path id="mbaea1671bd" d="M 0 0 
L -3.5 0 
" style="stroke: #000000; stroke-width: 0.8"/>
      </defs>
      <g>
       <use xlink:href="#mbaea1671bd" x="50.925" y="221.939962" style="stroke: #000000; stroke-width: 0.8"/>
      </g>
     </g>
     <g id="text_6">
      <!-- 0 -->
      <g transform="translate(37.5625 225.739181) scale(0.1 -0.1)">
       <use xlink:href="#DejaVuSans-30"/>
      </g>
     </g>
    </g>
    <g id="ytick_2">
     <g id="line2d_13">
      <path d="M 50.925 182.91197 
L 421.2 182.91197 
" clip-path="url(#pb670f6fe05)" style="fill: none; stroke: #b0b0b0; stroke-width: 0.8; stroke-linecap: square"/>
     </g>
     <g id="line2d_14">
      <g>
       <use xlink:href="#mbaea1671bd" x="50.925" y="182.91197" style="stroke: #000000; stroke-width: 0.8"/>
      </g>
     </g>
     <g id="text_7">
      <!-- 20 -->
      <g transform="translate(31.2 186.711188) scale(0.1 -0.1)">
       <use xlink:href="#DejaVuSans-32"/>
       <use xlink:href="#DejaVuSans-30" x="63.623047"/>
      </g>
     </g>
    </g>
    <g id="ytick_3">
     <g id="line2d_15">
      <path d="M 50.925 143.883977 
L 421.2 143.883977 
" clip-path="url(#pb670f6fe05)" style="fill: none; stroke: #b0b0b0; stroke-width: 0.8; stroke-linecap: square"/>
     </g>
     <g id="line2d_16">
      <g>
       <use xlink:href="#mbaea1671bd" x="50.925" y="143.883977" style="stroke: #000000; stroke-width: 0.8"/>
      </g>
     </g>
     <g id="text_8">
      <!-- 40 -->
      <g transform="translate(31.2 147.683196) scale(0.1 -0.1)">
       <defs>
        <path id="DejaVuSans-34" d="M 2419 4116 
L 825 1625 
L 2419 1625 
L 2419 4116 
z
M 2253 4666 
L 3047 4666 
L 3047 1625 
L 3713 1625 
L 3713 1100 
L 3047 1100 
L 3047 0 
L 2419 0 
L 2419 1100 
L 313 1100 
L 313 1709 
L 2253 4666 
z
" transform="scale(0.015625)"/>
       </defs>
       <use xlink:href="#DejaVuSans-34"/>
       <use xlink:href="#DejaVuSans-30" x="63.623047"/>
      </g>
     </g>
    </g>
    <g id="ytick_4">
     <g id="line2d_17">
      <path d="M 50.925 104.855985 
L 421.2 104.855985 
" clip-path="url(#pb670f6fe05)" style="fill: none; stroke: #b0b0b0; stroke-width: 0.8; stroke-linecap: square"/>
     </g>
     <g id="line2d_18">
      <g>
       <use xlink:href="#mbaea1671bd" x="50.925" y="104.855985" style="stroke: #000000; stroke-width: 0.8"/>
      </g>
     </g>
     <g id="text_9">
      <!-- 60 -->
      <g transform="translate(31.2 108.655204) scale(0.1 -0.1)">
       <defs>
        <path id="DejaVuSans-36" d="M 2113 2584 
Q 1688 2584 1439 2293 
Q 1191 2003 1191 1497 
Q 1191 994 1439 701 
Q 1688 409 2113 409 
Q 2538 409 2786 701 
Q 3034 994 3034 1497 
Q 3034 2003 2786 2293 
Q 2538 2584 2113 2584 
z
M 3366 4563 
L 3366 3988 
Q 3128 4100 2886 4159 
Q 2644 4219 2406 4219 
Q 1781 4219 1451 3797 
Q 1122 3375 1075 2522 
Q 1259 2794 1537 2939 
Q 1816 3084 2150 3084 
Q 2853 3084 3261 2657 
Q 3669 2231 3669 1497 
Q 3669 778 3244 343 
Q 2819 -91 2113 -91 
Q 1303 -91 875 529 
Q 447 1150 447 2328 
Q 447 3434 972 4092 
Q 1497 4750 2381 4750 
Q 2619 4750 2861 4703 
Q 3103 4656 3366 4563 
z
" transform="scale(0.015625)"/>
       </defs>
       <use xlink:href="#DejaVuSans-36"/>
       <use xlink:href="#DejaVuSans-30" x="63.623047"/>
      </g>
     </g>
    </g>
    <g id="ytick_5">
     <g id="line2d_19">
      <path d="M 50.925 65.827992 
L 421.2 65.827992 
" clip-path="url(#pb670f6fe05)" style="fill: none; stroke: #b0b0b0; stroke-width: 0.8; stroke-linecap: square"/>
     </g>
     <g id="line2d_20">
      <g>
       <use xlink:href="#mbaea1671bd" x="50.925" y="65.827992" style="stroke: #000000; stroke-width: 0.8"/>
      </g>
     </g>
     <g id="text_10">
      <!-- 80 -->
      <g transform="translate(31.2 69.627211) scale(0.1 -0.1)">
       <defs>
        <path id="DejaVuSans-38" d="M 2034 2216 
Q 1584 2216 1326 1975 
Q 1069 1734 1069 1313 
Q 1069 891 1326 650 
Q 1584 409 2034 409 
Q 2484 409 2743 651 
Q 3003 894 3003 1313 
Q 3003 1734 2745 1975 
Q 2488 2216 2034 2216 
z
M 1403 2484 
Q 997 2584 770 2862 
Q 544 3141 544 3541 
Q 544 4100 942 4425 
Q 1341 4750 2034 4750 
Q 2731 4750 3128 4425 
Q 3525 4100 3525 3541 
Q 3525 3141 3298 2862 
Q 3072 2584 2669 2484 
Q 3125 2378 3379 2068 
Q 3634 1759 3634 1313 
Q 3634 634 3220 271 
Q 2806 -91 2034 -91 
Q 1263 -91 848 271 
Q 434 634 434 1313 
Q 434 1759 690 2068 
Q 947 2378 1403 2484 
z
M 1172 3481 
Q 1172 3119 1398 2916 
Q 1625 2713 2034 2713 
Q 2441 2713 2670 2916 
Q 2900 3119 2900 3481 
Q 2900 3844 2670 4047 
Q 2441 4250 2034 4250 
Q 1625 4250 1398 4047 
Q 1172 3844 1172 3481 
z
" transform="scale(0.015625)"/>
       </defs>
       <use xlink:href="#DejaVuSans-38"/>
       <use xlink:href="#DejaVuSans-30" x="63.623047"/>
      </g>
     </g>
    </g>
    <g id="ytick_6">
     <g id="line2d_21">
      <path d="M 50.925 26.8 
L 421.2 26.8 
" clip-path="url(#pb670f6fe05)" style="fill: none; stroke: #b0b0b0; stroke-width: 0.8; stroke-linecap: square"/>
     </g>
     <g id="line2d_22">
      <g>
       <use xlink:href="#mbaea1671bd" x="50.925" y="26.8" style="stroke: #000000; stroke-width: 0.8"/>
      </g>
     </g>
     <g id="text_11">
      <!-- 100 -->
      <g transform="translate(24.8375 30.599219) scale(0.1 -0.1)">
       <use xlink:href="#DejaVuSans-31"/>
       <use xlink:href="#DejaVuSans-30" x="63.623047"/>
       <use xlink:href="#DejaVuSans-30" x="127.246094"/>
      </g>
     </g>
    </g>
    <g id="text_12">
     <!-- Humidity [%RH] -->
     <g transform="translate(18.757812 164.516856) rotate(-90) scale(0.1 -0.1)">
      <defs>
       <path id="DejaVuSans-48" d="M 628 4666 
L 1259 4666 
L 1259 2753 
L 3553 2753 
L 3553 4666 
L 4184 4666 
L 4184 0 
L 3553 0 
L 3553 2222 
L 1259 2222 
L 1259 0 
L 628 0 
L 628 4666 
z
" transform="scale(0.015625)"/>
       <path id="DejaVuSans-75" d="M 544 1381 
L 544 3500 
L 1119 3500 
L 1119 1403 
Q 1119 906 1312 657 
Q 1506 409 1894 409 
Q 2359 409 2629 706 
Q 2900 1003 2900 1516 
L 2900 3500 
L 3475 3500 
L 3475 0 
L 2900 0 
L 2900 538 
Q 2691 219 2414 64 
Q 2138 -91 1772 -91 
Q 1169 -91 856 284 
Q 544 659 544 1381 
z
M 1991 3584 
L 1991 3584 
z
" transform="scale(0.015625)"/>
       <path id="DejaVuSans-6d" d="M 3328 2828 
Q 3544 3216 3844 3400 
Q 4144 3584 4550 3584 
Q 5097 3584 5394 3201 
Q 5691 2819 5691 2113 
L 5691 0 
L 5113 0 
L 5113 2094 
Q 5113 2597 4934 2840 
Q 4756 3084 4391 3084 
Q 3944 3084 3684 2787 
Q 3425 2491 3425 1978 
L 3425 0 
L 2847 0 
L 2847 2094 
Q 2847 2600 2669 2842 
Q 2491 3084 2119 3084 
Q 1678 3084 1418 2786 
Q 1159 2488 1159 1978 
L 1159 0 
L 581 0 
L 581 3500 
L 1159 3500 
L 1159 2956 
Q 1356 3278 1631 3431 
Q 1906 3584 2284 3584 
Q 2666 3584 2933 3390 
Q 3200 3197 3328 2828 
z
" transform="scale(0.015625)"/>
       <path id="DejaVuSans-69" d="M 603 3500 
L 1178 3500 
L 1178 0 
L 603 0 
L 603 3500 
z
M 603 4863 
L 1178 4863 
L 1178 4134 
L 603 4134 
L 603 4863 
z
" transform="scale(0.015625)"/>
       <path id="DejaVuSans-64" d="M 2906 2969 
L 2906 4863 
L 3481 4863 
L 3481 0 
L 2906 0 
L 2906 525 
Q 2725 213 2448 61 
Q 2172 -91 1784 -91 
Q 1150 -91 751 415 
Q 353 922 353 1747 
Q 353 2572 751 3078 
Q 1150 3584 1784 3584 
Q 2172 3584 2448 3432 
Q 2725 3281 2906 2969 
z
M 947 1747 
Q 947 1113 1208 752 
Q 1469 391 1925 391 
Q 2381 391 2643 752 
Q 2906 1113 2906 1747 
Q 2906 2381 2643 2742 
Q 2381 3103 1925 3103 
Q 1469 3103 1208 2742 
Q 947 2381 947 1747 
z
" transform="scale(0.015625)"/>
       <path id="DejaVuSans-74" d="M 1172 4494 
L 1172 3500 
L 2356 3500 
L 2356 3053 
L 1172 3053 
L 1172 1153 
Q 1172 725 1289 603 
Q 1406 481 1766 481 
L 2356 481 
L 2356 0 
L 1766 0 
Q 1100 0 847 248 
Q 594 497 594 1153 
L 594 3053 
L 172 3053 
L 172 3500 
L 594 3500 
L 594 4494 
L 1172 4494 
z
" transform="scale(0.015625)"/>
       <path id="DejaVuSans-79" d="M 2059 -325 
Q 1816 -950 1584 -1140 
Q 1353 -1331 966 -1331 
L 506 -1331 
L 506 -850 
L 844 -850 
Q 1081 -850 1212 -737 
Q 1344 -625 1503 -206 
L 1606 56 
L 191 3500 
L 800 3500 
L 1894 763 
L 2988 3500 
L 3597 3500 
L 2059 -325 
z
" transform="scale(0.015625)"/>
       <path id="DejaVuSans-20" transform="scale(0.015625)"/>
       <path id="DejaVuSans-5b" d="M 550 4863 
L 1875 4863 
L 1875 4416 
L 1125 4416 
L 1125 -397 
L 1875 -397 
L 1875 -844 
L 550 -844 
L 550 4863 
z
" transform="scale(0.015625)"/>
       <path id="DejaVuSans-25" d="M 4653 2053 
Q 4381 2053 4226 1822 
Q 4072 1591 4072 1178 
Q 4072 772 4226 539 
Q 4381 306 4653 306 
Q 4919 306 5073 539 
Q 5228 772 5228 1178 
Q 5228 1588 5073 1820 
Q 4919 2053 4653 2053 
z
M 4653 2450 
Q 5147 2450 5437 2106 
Q 5728 1763 5728 1178 
Q 5728 594 5436 251 
Q 5144 -91 4653 -91 
Q 4153 -91 3862 251 
Q 3572 594 3572 1178 
Q 3572 1766 3864 2108 
Q 4156 2450 4653 2450 
z
M 1428 4353 
Q 1159 4353 1004 4120 
Q 850 3888 850 3481 
Q 850 3069 1003 2837 
Q 1156 2606 1428 2606 
Q 1700 2606 1854 2837 
Q 2009 3069 2009 3481 
Q 2009 3884 1853 4118 
Q 1697 4353 1428 4353 
z
M 4250 4750 
L 4750 4750 
L 1831 -91 
L 1331 -91 
L 4250 4750 
z
M 1428 4750 
Q 1922 4750 2215 4408 
Q 2509 4066 2509 3481 
Q 2509 2891 2217 2550 
Q 1925 2209 1428 2209 
Q 931 2209 642 2551 
Q 353 2894 353 3481 
Q 353 4063 643 4406 
Q 934 4750 1428 4750 
z
" transform="scale(0.015625)"/>
       <path id="DejaVuSans-52" d="M 2841 2188 
Q 3044 2119 3236 1894 
Q 3428 1669 3622 1275 
L 4263 0 
L 3584 0 
L 2988 1197 
Q 2756 1666 2539 1819 
Q 2322 1972 1947 1972 
L 1259 1972 
L 1259 0 
L 628 0 
L 628 4666 
L 2053 4666 
Q 2853 4666 3247 4331 
Q 3641 3997 3641 3322 
Q 3641 2881 3436 2590 
Q 3231 2300 2841 2188 
z
M 1259 4147 
L 1259 2491 
L 2053 2491 
Q 2509 2491 2742 2702 
Q 2975 2913 2975 3322 
Q 2975 3731 2742 3939 
Q 2509 4147 2053 4147 
L 1259 4147 
z
" transform="scale(0.015625)"/>
       <path id="DejaVuSans-5d" d="M 1947 4863 
L 1947 -844 
L 622 -844 
L 622 -397 
L 1369 -397 
L 1369 4416 
L 622 4416 
L 622 4863 
L 1947 4863 
z
" transform="scale(0.015625)"/>
      </defs>
      <use xlink:href="#DejaVuSans-48"/>
      <use xlink:href="#DejaVuSans-75" x="75.195312"/>
      <use xlink:href="#DejaVuSans-6d" x="138.574219"/>
      <use xlink:href="#DejaVuSans-69" x="235.986328"/>
      <use xlink:href="#DejaVuSans-64" x="263.769531"/>
      <use xlink:href="#DejaVuSans-69" x="327.246094"/>
      <use xlink:href="#DejaVuSans-74" x="355.029297"/>
      <use xlink:href="#DejaVuSans-79" x="394.238281"/>
      <use xlink:href="#DejaVuSans-20" x="453.417969"/>
      <use xlink:href="#DejaVuSans-5b" x="485.205078"/>
      <use xlink:href="#DejaVuSans-25" x="524.21875"/>
      <use xlink:href="#DejaVuSans-52" x="619.238281"/>
      <use xlink:href="#DejaVuSans-48" x="688.720703"/>
      <use xlink:href="#DejaVuSans-5d" x="763.916016"/>
     </g>
    </g>
   </g>
   <g id="line2d_23">
    <path d="M 50.925 52.168195 
L 51.014898 52.168195 
L 51.176967 46.313996 
L 51.37479 46.313996 
L 51.500856 44.362597 
L 51.80666 44.362597 
L 51.932679 46.313996 
L 51.968667 46.313996 
L 52.094575 48.265396 
L 52.148657 48.265396 
L 52.274524 50.216795 
L 52.580421 50.216795 
L 52.706392 52.168195 
L 52.850347 52.168195 
L 52.922327 54.119595 
L 52.958317 52.168195 
L 53.606122 52.168195 
L 53.696196 54.119595 
L 53.714089 52.168195 
L 53.768168 52.168195 
L 53.894035 48.265396 
L 53.984105 48.265396 
L 54.109972 50.216795 
L 54.451965 50.216795 
L 54.577834 52.168195 
L 54.721791 54.119595 
L 54.811892 54.119595 
L 54.937962 56.070994 
L 55.045693 56.070994 
L 55.135765 54.119595 
L 55.153661 56.070994 
L 55.621743 56.070994 
L 55.783565 50.216795 
L 55.927542 50.216795 
L 56.053391 52.168195 
L 56.107477 52.168195 
L 56.251446 56.070994 
L 56.341304 56.070994 
L 56.467369 58.022394 
L 56.647217 58.022394 
L 56.791264 54.119595 
L 56.917132 56.070994 
L 57.15116 56.070994 
L 57.277022 54.119595 
L 57.492959 54.119595 
L 57.619035 52.168195 
L 57.780871 52.168195 
L 57.96082 59.973794 
L 57.996804 59.973794 
L 58.140765 63.876593 
L 58.212744 63.876593 
L 58.284722 65.827992 
L 58.320926 63.876593 
L 58.392689 63.876593 
L 58.464669 65.827992 
L 58.500658 63.876593 
L 58.536647 63.876593 
L 58.644822 61.925193 
L 58.806668 61.925193 
L 58.932526 63.876593 
L 59.166572 63.876593 
L 59.292421 65.827992 
L 59.652313 65.827992 
L 59.868248 59.973794 
L 59.976216 59.973794 
L 60.192152 54.119595 
L 60.390142 54.119595 
L 60.516055 52.168195 
L 60.839958 52.168195 
L 60.983914 56.070994 
L 61.27183 56.070994 
L 61.415785 59.973794 
L 61.469879 59.973794 
L 61.631722 65.827992 
L 61.721693 65.827992 
L 61.829778 73.633591 
L 61.865764 69.730792 
L 62.009719 65.827992 
L 62.27953 65.827992 
L 62.711593 104.855985 
L 62.873467 100.953186 
L 63.017427 104.855985 
L 63.089315 104.855985 
L 63.251231 116.564383 
L 63.269301 114.612983 
L 63.341325 110.710184 
L 63.359199 112.661583 
L 63.485244 118.515782 
L 63.521248 116.564383 
L 63.593259 114.612983 
L 63.611122 116.564383 
L 63.701219 120.467182 
L 63.719264 118.515782 
L 63.809187 118.515782 
L 63.863046 120.467182 
L 63.917061 118.515782 
L 64.169062 102.904585 
L 64.222933 102.904585 
L 64.294912 100.953186 
L 64.330902 102.904585 
L 64.38502 102.904585 
L 64.510848 104.855985 
L 64.870735 104.855985 
L 65.014689 100.953186 
L 65.158648 104.855985 
L 65.338593 104.855985 
L 65.410694 106.807384 
L 65.44656 104.855985 
L 65.500657 104.855985 
L 65.644554 100.953186 
L 65.770454 100.953186 
L 65.896548 102.904585 
L 65.914414 102.904585 
L 66.040488 99.001786 
L 66.05837 100.953186 
L 66.148428 99.001786 
L 66.292398 99.001786 
L 66.418419 102.904585 
L 66.562214 102.904585 
L 66.652333 100.953186 
L 66.670182 102.904585 
L 66.796168 104.855985 
L 66.958095 104.855985 
L 67.048155 118.515782 
L 67.102263 114.612983 
L 67.156108 108.758784 
L 67.210017 112.661583 
L 67.22816 114.612983 
L 67.317983 112.661583 
L 67.35397 112.661583 
L 67.533916 102.904585 
L 67.552032 104.855985 
L 67.641882 102.904585 
L 67.695992 102.904585 
L 67.839919 99.001786 
L 67.983882 102.904585 
L 68.037762 102.904585 
L 68.163788 100.953186 
L 68.289684 100.953186 
L 68.307746 99.001786 
L 68.39765 100.953186 
L 68.415787 100.953186 
L 68.541605 102.904585 
L 68.577595 102.904585 
L 68.685561 100.953186 
L 68.811531 102.904585 
L 68.865507 102.904585 
L 68.991515 100.953186 
L 69.189409 100.953186 
L 69.387469 110.710184 
L 69.405344 110.710184 
L 69.477488 106.807384 
L 69.531411 108.758784 
L 69.567419 108.758784 
L 69.711359 104.855985 
L 69.783376 104.855985 
L 69.909186 102.904585 
L 70.053143 102.904585 
L 70.179153 100.953186 
L 70.21522 102.904585 
L 70.287207 100.953186 
L 70.791038 100.953186 
L 70.952869 95.098987 
L 70.988856 95.098987 
L 71.114928 93.147587 
L 71.132813 93.147587 
L 71.384735 85.341989 
L 71.600671 85.341989 
L 71.726721 83.390589 
L 71.76275 83.390589 
L 71.906714 79.48779 
L 71.960562 79.48779 
L 72.086662 81.439189 
L 72.140508 81.439189 
L 72.284463 79.48779 
L 72.464408 79.48779 
L 72.59051 63.876593 
L 72.698468 63.876593 
L 72.824519 59.973794 
L 72.932269 59.973794 
L 73.05838 58.022394 
L 73.40013 58.022394 
L 73.508298 56.070994 
L 73.562141 56.070994 
L 73.688046 54.119595 
L 73.832003 54.119595 
L 74.047936 48.265396 
L 74.26387 48.265396 
L 74.38996 50.216795 
L 75.091621 50.216795 
L 75.199782 48.265396 
L 75.397683 48.265396 
L 75.523488 46.313996 
L 75.919367 46.313996 
L 76.045447 44.362597 
L 76.693258 44.362597 
L 76.819095 42.411197 
L 76.891246 42.411197 
L 77.03503 40.459797 
L 77.178984 40.459797 
L 77.305062 38.508398 
L 77.449044 38.508398 
L 77.575053 36.556998 
L 78.366623 36.556998 
L 78.492752 34.605598 
L 78.960481 34.605598 
L 79.086403 32.654199 
L 79.788304 32.654199 
L 79.91415 30.702799 
L 80.669919 30.702799 
L 80.796026 28.7514 
L 105.268591 28.7514 
L 105.430436 34.605598 
L 105.448557 34.605598 
L 105.592543 38.508398 
L 105.646372 38.508398 
L 105.772468 40.459797 
L 105.988278 40.459797 
L 106.11423 42.411197 
L 106.222198 42.411197 
L 106.348216 44.362597 
L 106.708156 44.362597 
L 106.834014 42.411197 
L 107.10401 42.411197 
L 107.229898 40.459797 
L 107.625781 40.459797 
L 107.769736 38.508398 
L 108.813424 38.508398 
L 108.921393 40.459797 
L 109.137328 40.459797 
L 109.263427 38.508398 
L 110.181014 38.508398 
L 110.3071 36.556998 
L 110.576895 36.556998 
L 110.684865 34.605598 
L 110.900803 34.605598 
L 111.026861 32.654199 
L 111.206804 32.654199 
L 111.33267 30.702799 
L 111.836517 30.702799 
L 111.962581 28.7514 
L 112.574376 28.7514 
L 112.700258 30.702799 
L 112.808223 30.702799 
L 112.988169 34.605598 
L 113.114183 34.605598 
L 113.240094 36.556998 
L 113.294229 36.556998 
L 113.420198 38.508398 
L 113.51016 38.508398 
L 113.635973 40.459797 
L 113.959876 40.459797 
L 114.067845 42.411197 
L 114.445734 42.411197 
L 114.571693 40.459797 
L 114.62576 40.459797 
L 114.751835 38.508398 
L 114.841742 38.508398 
L 114.967572 36.556998 
L 115.111718 36.556998 
L 115.237612 34.605598 
L 115.381593 34.605598 
L 115.525555 38.508398 
L 115.561525 38.508398 
L 115.705464 42.411197 
L 115.975271 42.411197 
L 116.083238 40.459797 
L 116.191206 40.459797 
L 116.317316 38.508398 
L 116.443362 38.508398 
L 116.587086 36.556998 
L 116.803228 36.556998 
L 116.929093 34.605598 
L 117.217034 34.605598 
L 117.34286 32.654199 
L 117.864789 32.654199 
L 117.990666 30.702799 
L 118.260698 30.702799 
L 118.386545 32.654199 
L 118.422534 32.654199 
L 118.548602 34.605598 
L 118.602479 34.605598 
L 118.728577 36.556998 
L 118.818598 36.556998 
L 118.944526 38.508398 
L 120.006058 38.508398 
L 120.132183 36.556998 
L 120.384078 36.556998 
L 120.5101 34.605598 
L 120.635972 34.605598 
L 120.761828 36.556998 
L 120.941775 36.556998 
L 121.067852 38.508398 
L 121.373646 38.508398 
L 121.499723 40.459797 
L 122.147533 40.459797 
L 122.273378 38.508398 
L 122.849203 38.508398 
L 123.065136 44.362597 
L 123.083256 44.362597 
L 123.209317 46.313996 
L 123.245083 46.313996 
L 123.37115 44.362597 
L 123.479169 44.362597 
L 123.604975 42.411197 
L 123.676952 42.411197 
L 123.802971 44.362597 
L 123.893115 44.362597 
L 124.018975 42.411197 
L 124.486848 42.411197 
L 124.61267 40.459797 
L 125.296465 40.459797 
L 125.422551 38.508398 
L 125.566528 38.508398 
L 125.692344 40.459797 
L 126.268334 40.459797 
L 126.394241 42.411197 
L 126.520096 40.459797 
L 126.736033 40.459797 
L 126.879988 44.362597 
L 126.915978 44.362597 
L 127.006051 42.411197 
L 127.023945 44.362597 
L 127.059936 44.362597 
L 127.186046 42.411197 
L 127.329912 42.411197 
L 127.455814 40.459797 
L 127.671751 40.459797 
L 127.797848 38.508398 
L 127.959882 38.508398 
L 128.085766 40.459797 
L 128.283737 40.459797 
L 128.427525 42.411197 
L 128.499501 42.411197 
L 128.607472 44.362597 
L 128.823405 44.362597 
L 128.949515 42.411197 
L 130.011055 42.411197 
L 130.137132 44.362597 
L 131.792663 44.362597 
L 131.918479 46.313996 
L 131.990458 46.313996 
L 132.134414 44.362597 
L 132.350536 44.362597 
L 132.476436 46.313996 
L 132.602272 44.362597 
L 132.674254 44.362597 
L 132.854198 48.265396 
L 132.944291 48.265396 
L 133.070134 46.313996 
L 133.1781 46.313996 
L 133.340164 52.168195 
L 133.412079 52.168195 
L 133.556113 56.070994 
L 133.681948 56.070994 
L 133.825906 58.022394 
L 133.933872 58.022394 
L 134.042064 59.973794 
L 134.185795 59.973794 
L 134.311846 58.022394 
L 134.329752 58.022394 
L 134.455819 61.925193 
L 134.581675 59.973794 
L 134.761623 59.973794 
L 134.92372 54.119595 
L 135.157504 54.119595 
L 135.283614 52.168195 
L 135.76932 52.168195 
L 135.895434 50.216795 
L 136.057234 50.216795 
L 136.237179 54.119595 
L 136.435124 54.119595 
L 136.471193 52.168195 
L 136.54323 54.119595 
L 136.63306 54.119595 
L 136.74123 56.070994 
L 136.831133 56.070994 
L 136.956961 54.119595 
L 137.101141 54.119595 
L 137.244876 50.216795 
L 137.352844 50.216795 
L 137.478874 48.265396 
L 137.532791 48.265396 
L 137.658913 46.313996 
L 137.964658 46.313996 
L 138.072627 44.362597 
L 138.23469 44.362597 
L 138.396528 50.216795 
L 138.432702 50.216795 
L 138.558581 52.168195 
L 138.702553 48.265396 
L 139.008345 48.265396 
L 139.080325 46.313996 
L 139.116553 48.265396 
L 139.134297 48.265396 
L 139.296259 54.119595 
L 139.350347 54.119595 
L 139.494237 58.022394 
L 139.530306 58.022394 
L 139.656152 59.973794 
L 139.764118 59.973794 
L 139.818107 61.925193 
L 139.872086 59.973794 
L 140.286099 59.973794 
L 140.430064 56.070994 
L 140.609997 56.070994 
L 140.627863 54.119595 
L 140.717934 56.070994 
L 140.861848 56.070994 
L 140.987754 54.119595 
L 141.023743 54.119595 
L 141.13171 56.070994 
L 141.383638 56.070994 
L 141.509597 58.022394 
L 141.869537 58.022394 
L 141.995455 56.070994 
L 142.103423 56.070994 
L 142.229477 54.119595 
L 142.247379 54.119595 
L 142.409402 59.973794 
L 142.463316 59.973794 
L 142.58935 61.925193 
L 142.661343 61.925193 
L 142.787221 59.973794 
L 142.859366 59.973794 
L 142.98524 61.925193 
L 143.003156 61.925193 
L 143.147115 65.827992 
L 143.273184 65.827992 
L 143.32706 67.779392 
L 143.381133 65.827992 
L 143.614976 65.827992 
L 143.686955 63.876593 
L 143.722945 65.827992 
L 143.812981 65.827992 
L 143.956944 61.925193 
L 144.262784 61.925193 
L 144.388829 59.973794 
L 144.586685 59.973794 
L 144.658663 58.022394 
L 144.694656 59.973794 
L 144.982569 59.973794 
L 145.108639 61.925193 
L 145.342462 61.925193 
L 145.468465 65.827992 
L 145.594388 63.876593 
L 145.61246 63.876593 
L 145.774334 69.730792 
L 145.828448 69.730792 
L 145.9724 73.633591 
L 146.0084 73.633591 
L 146.152311 69.730792 
L 146.206208 69.730792 
L 146.386153 73.633591 
L 146.440286 73.633591 
L 146.566252 77.53639 
L 146.746047 73.633591 
L 146.782036 73.633591 
L 146.961986 65.827992 
L 147.250073 65.827992 
L 147.393856 63.876593 
L 147.429847 63.876593 
L 147.555895 61.925193 
L 147.861717 61.925193 
L 147.98776 63.876593 
L 148.005675 63.876593 
L 148.149633 67.779392 
L 148.167694 67.779392 
L 148.3477 75.584991 
L 148.383699 75.584991 
L 148.509528 77.53639 
L 148.581505 77.53639 
L 148.725462 75.584991 
L 148.851556 77.53639 
L 148.887566 77.53639 
L 149.067467 69.730792 
L 149.085356 69.730792 
L 149.229316 65.827992 
L 149.319314 65.827992 
L 149.517233 75.584991 
L 149.697179 75.584991 
L 149.823253 77.53639 
L 149.841136 77.53639 
L 149.949106 79.48779 
L 150.039196 79.48779 
L 150.129053 77.53639 
L 150.14715 79.48779 
L 150.219146 79.48779 
L 150.344989 81.439189 
L 150.452958 81.439189 
L 150.579015 83.390589 
L 150.668894 83.390589 
L 150.686931 85.341989 
L 150.776862 83.390589 
L 150.812852 83.390589 
L 150.938954 85.341989 
L 150.956809 85.341989 
L 151.118863 91.196188 
L 151.172746 91.196188 
L 151.298821 93.147587 
L 151.352693 93.147587 
L 151.550746 83.390589 
L 151.640605 83.390589 
L 151.784565 85.341989 
L 151.856545 85.341989 
L 152.00064 81.439189 
L 152.054558 81.439189 
L 152.180447 79.48779 
L 152.252428 79.48779 
L 152.37843 77.53639 
L 152.522474 77.53639 
L 152.648312 81.439189 
L 152.774428 81.439189 
L 152.900237 79.48779 
L 152.990355 79.48779 
L 153.080184 81.439189 
L 153.09831 79.48779 
L 153.152163 79.48779 
L 153.29612 83.390589 
L 153.368227 83.390589 
L 153.494173 85.341989 
L 153.692188 85.341989 
L 153.90794 93.147587 
L 154.087888 85.341989 
L 154.141975 85.341989 
L 154.267836 81.439189 
L 154.41179 85.341989 
L 154.483769 85.341989 
L 154.645822 91.196188 
L 154.699894 91.196188 
L 154.843664 93.147587 
L 154.879654 93.147587 
L 154.933769 95.098987 
L 154.987624 93.147587 
L 155.113673 91.196188 
L 155.131579 91.196188 
L 155.149719 89.244788 
L 155.239547 91.196188 
L 155.383692 95.098987 
L 155.599443 95.098987 
L 155.707412 97.050386 
L 155.887358 91.196188 
L 156.031314 95.098987 
L 156.067524 95.098987 
L 156.247251 91.196188 
L 156.463188 91.196188 
L 156.535168 93.147587 
L 156.571157 91.196188 
L 156.589281 91.196188 
L 156.733219 87.293388 
L 156.787095 87.293388 
L 156.931053 83.390589 
L 157.129034 83.390589 
L 157.165104 85.341989 
L 157.237086 83.390589 
L 157.27308 83.390589 
L 157.452905 75.584991 
L 157.470891 75.584991 
L 157.614851 79.48779 
L 157.740944 79.48779 
L 157.884897 83.390589 
L 157.902766 83.390589 
L 157.920901 81.439189 
L 158.010733 83.390589 
L 158.028863 83.390589 
L 158.154693 85.341989 
L 158.838492 85.341989 
L 158.964584 83.390589 
L 158.982449 83.390589 
L 159.10854 81.439189 
L 159.162397 81.439189 
L 159.288475 79.48779 
L 159.306354 79.48779 
L 159.630259 102.904585 
L 159.648381 102.904585 
L 159.918171 120.467182 
L 160.044257 120.467182 
L 160.170095 118.515782 
L 160.188224 118.515782 
L 160.206083 116.564383 
L 160.296195 118.515782 
L 160.422169 120.467182 
L 160.494 120.467182 
L 160.637954 124.369981 
L 160.673944 124.369981 
L 160.728059 128.27278 
L 160.781913 124.369981 
L 160.853891 124.369981 
L 160.997847 120.467182 
L 161.321748 143.883977 
L 161.375858 143.883977 
L 161.447721 149.738176 
L 161.501692 145.835377 
L 161.609659 143.883977 
L 161.717626 149.738176 
L 161.735766 147.786777 
L 161.8797 143.883977 
L 162.023651 143.883977 
L 162.131529 141.932578 
L 162.149494 143.883977 
L 162.23961 141.932578 
L 162.275594 139.981178 
L 162.329436 141.932578 
L 162.365427 141.932578 
L 162.401415 139.981178 
L 162.473395 141.932578 
L 162.509385 141.932578 
L 162.635481 143.883977 
L 162.815339 136.078379 
L 162.851398 136.078379 
L 162.995358 132.17558 
L 163.031328 132.17558 
L 163.175279 136.078379 
L 163.211296 136.078379 
L 163.337129 134.126979 
L 163.427237 134.126979 
L 163.589055 128.27278 
L 163.625044 128.27278 
L 163.751171 136.078379 
L 163.769 134.126979 
L 164.236857 114.612983 
L 164.380813 114.612983 
L 164.453006 116.564383 
L 164.488779 114.612983 
L 164.506832 114.612983 
L 164.614892 110.710184 
L 164.632738 112.661583 
L 164.704717 112.661583 
L 164.848671 108.758784 
L 164.938792 108.758784 
L 164.956638 106.807384 
L 165.046729 108.758784 
L 165.244553 108.758784 
L 165.370649 104.855985 
L 165.532465 116.564383 
L 165.568455 114.612983 
L 165.658534 112.661583 
L 165.676421 114.612983 
L 165.730518 114.612983 
L 165.874453 120.467182 
L 166.000324 118.515782 
L 166.126391 118.515782 
L 166.288237 112.661583 
L 166.324226 112.661583 
L 166.450315 108.758784 
L 166.594277 112.661583 
L 166.630285 112.661583 
L 166.720103 118.515782 
L 166.756095 116.564383 
L 166.846066 112.661583 
L 166.95419 122.418581 
L 166.972029 120.467182 
L 167.115985 124.369981 
L 167.29593 124.369981 
L 167.547855 108.758784 
L 167.601971 108.758784 
L 167.655821 106.807384 
L 167.709939 108.758784 
L 167.74589 108.758784 
L 167.889812 104.855985 
L 168.033847 104.855985 
L 168.15967 106.807384 
L 168.195649 106.807384 
L 168.303624 104.855985 
L 168.429739 106.807384 
L 168.447582 106.807384 
L 168.573623 104.855985 
L 168.699507 104.855985 
L 168.825613 102.904585 
L 168.843697 102.904585 
L 168.987419 104.855985 
L 169.041549 104.855985 
L 169.167364 102.904585 
L 169.293477 102.904585 
L 169.365435 100.953186 
L 169.401426 102.904585 
L 169.455276 102.904585 
L 169.617337 97.050386 
L 169.635224 97.050386 
L 169.77918 93.147587 
L 169.94124 93.147587 
L 170.013232 95.098987 
L 170.049236 93.147587 
L 170.085224 93.147587 
L 170.211273 91.196188 
L 170.337178 93.147587 
L 170.481079 93.147587 
L 170.625051 89.244788 
L 170.804916 89.244788 
L 170.948923 85.341989 
L 171.002813 85.341989 
L 171.11078 83.390589 
L 171.128901 85.341989 
L 171.218959 83.390589 
L 171.344832 79.48779 
L 171.362704 81.439189 
L 171.470672 81.439189 
L 171.596664 83.390589 
L 171.722597 81.439189 
L 171.848676 83.390589 
L 171.902723 83.390589 
L 172.064583 77.53639 
L 172.100529 77.53639 
L 172.226634 73.633591 
L 172.280474 73.633591 
L 172.424545 69.730792 
L 172.478373 69.730792 
L 172.604344 67.779392 
L 172.658317 67.779392 
L 172.78439 65.827992 
L 173.288154 65.827992 
L 173.432184 61.925193 
L 173.666015 61.925193 
L 173.792098 59.973794 
L 174.403941 59.973794 
L 174.52976 58.022394 
L 174.637728 58.022394 
L 174.781684 54.119595 
L 175.033609 54.119595 
L 175.159683 52.168195 
L 175.393501 52.168195 
L 175.53746 50.216795 
L 176.04131 50.216795 
L 176.167399 48.265396 
L 176.221256 48.265396 
L 176.347267 50.216795 
L 176.419328 50.216795 
L 176.545158 48.265396 
L 177.01302 48.265396 
L 177.139117 50.216795 
L 177.300936 50.216795 
L 177.444891 52.168195 
L 177.570955 50.216795 
L 178.74051 50.216795 
L 178.866613 48.265396 
L 179.226482 48.265396 
L 179.352534 46.313996 
L 180.63009 46.313996 
L 180.755915 44.362597 
L 182.375434 44.362597 
L 182.447414 42.411197 
L 182.483402 44.362597 
L 182.573518 44.362597 
L 182.69934 42.411197 
L 183.509217 42.411197 
L 183.635062 44.362597 
L 184.030944 44.362597 
L 184.156976 42.411197 
L 185.074638 42.411197 
L 185.20072 44.362597 
L 185.794656 44.362597 
L 185.938381 42.411197 
L 190.401063 42.411197 
L 190.52716 40.459797 
L 192.668388 40.459797 
L 192.7945 42.411197 
L 192.920314 42.411197 
L 193.064271 44.362597 
L 193.802201 44.362597 
L 193.928014 46.313996 
L 194.107959 46.313996 
L 194.25192 50.216795 
L 194.395875 50.216795 
L 194.413932 48.265396 
L 194.503843 50.216795 
L 194.755767 50.216795 
L 194.899723 54.119595 
L 195.025757 54.119595 
L 195.151647 56.070994 
L 195.16976 56.070994 
L 195.295605 59.973794 
L 195.439561 59.973794 
L 195.565663 61.925193 
L 195.745589 61.925193 
L 195.87143 59.973794 
L 195.90742 59.973794 
L 195.925577 61.925193 
L 196.015389 59.973794 
L 196.087365 59.973794 
L 196.213486 77.53639 
L 196.375276 83.390589 
L 196.393373 83.390589 
L 196.555223 91.196188 
L 196.6272 87.293388 
L 196.663429 89.244788 
L 196.699177 91.196188 
L 196.753293 89.244788 
L 196.807145 85.341989 
L 196.861273 89.244788 
L 197.023078 95.098987 
L 197.09506 95.098987 
L 197.221129 102.904585 
L 197.257165 100.953186 
L 197.293112 100.953186 
L 197.454947 106.807384 
L 197.491122 106.807384 
L 197.778848 77.53639 
L 197.814837 83.390589 
L 197.868963 83.390589 
L 197.994782 85.341989 
L 198.120899 85.341989 
L 198.26487 91.196188 
L 198.408727 85.341989 
L 198.678571 102.904585 
L 198.768665 102.904585 
L 198.930497 97.050386 
L 198.948593 97.050386 
L 199.110438 91.196188 
L 199.182419 95.098987 
L 199.218408 93.147587 
L 199.272491 89.244788 
L 199.344479 91.196188 
L 199.362559 91.196188 
L 199.524437 87.293388 
L 199.560439 89.244788 
L 199.596422 85.341989 
L 199.614289 85.341989 
L 199.650274 85.341989 
L 199.776347 83.390589 
L 199.920317 83.390589 
L 200.172226 67.779392 
L 200.190111 67.779392 
L 200.26209 65.827992 
L 200.35217 79.48779 
L 200.370301 77.53639 
L 200.406046 77.53639 
L 200.532086 79.48779 
L 200.550001 79.48779 
L 200.676091 65.827992 
L 201.05406 65.827992 
L 201.197806 63.876593 
L 201.449731 63.876593 
L 201.575804 61.925193 
L 201.593686 61.925193 
L 201.701653 59.973794 
L 201.863726 59.973794 
L 201.989566 58.022394 
L 202.295621 58.022394 
L 202.421628 56.070994 
L 202.619506 56.070994 
L 202.745542 54.119595 
L 202.871426 54.119595 
L 202.997263 52.168195 
L 203.033253 52.168195 
L 203.105228 50.216795 
L 203.141218 52.168195 
L 203.483201 52.168195 
L 203.609077 54.119595 
L 203.663223 54.119595 
L 203.789025 52.168195 
L 204.076935 52.168195 
L 204.220893 54.119595 
L 204.562933 54.119595 
L 204.706885 50.216795 
L 204.742868 50.216795 
L 204.886855 54.119595 
L 205.048644 54.119595 
L 205.174692 56.070994 
L 205.624471 56.070994 
L 205.75058 54.119595 
L 206.16431 54.119595 
L 206.290363 56.070994 
L 207.262116 56.070994 
L 207.38794 54.119595 
L 207.423933 54.119595 
L 207.45992 52.168195 
L 207.531896 54.119595 
L 207.675856 54.119595 
L 207.801937 56.070994 
L 207.927777 56.070994 
L 207.999756 54.119595 
L 208.035745 56.070994 
L 208.107724 56.070994 
L 208.233802 54.119595 
L 208.35965 54.119595 
L 208.503837 50.216795 
L 208.755533 50.216795 
L 208.881542 48.265396 
L 208.935477 48.265396 
L 209.061565 46.313996 
L 209.277494 46.313996 
L 209.403337 44.362597 
L 209.727238 44.362597 
L 209.835206 42.411197 
L 209.943174 42.411197 
L 210.069261 44.362597 
L 210.213092 44.362597 
L 210.339055 46.313996 
L 210.447024 46.313996 
L 210.590981 50.216795 
L 210.698948 50.216795 
L 210.825027 52.168195 
L 210.932969 52.168195 
L 211.058839 50.216795 
L 211.382743 50.216795 
L 211.508814 52.168195 
L 211.670655 52.168195 
L 211.796683 54.119595 
L 211.958568 54.119595 
L 212.084649 56.070994 
L 212.210494 56.070994 
L 212.354451 58.022394 
L 212.498406 58.022394 
L 212.624459 59.973794 
L 213.218191 59.973794 
L 213.362147 61.925193 
L 213.488248 61.925193 
L 213.614072 63.876593 
L 213.776153 63.876593 
L 213.901987 61.925193 
L 214.513804 61.925193 
L 214.549793 63.876593 
L 214.621772 61.925193 
L 214.747852 61.925193 
L 214.873698 59.973794 
L 215.053645 59.973794 
L 215.179751 61.925193 
L 215.359618 61.925193 
L 215.503618 65.827992 
L 215.827555 65.827992 
L 215.953582 67.779392 
L 216.06134 67.779392 
L 216.22344 73.633591 
L 216.349257 73.633591 
L 216.421233 75.584991 
L 216.457223 73.633591 
L 216.601182 73.633591 
L 216.745137 71.682191 
L 216.763267 71.682191 
L 216.889096 73.633591 
L 217.069041 65.827992 
L 217.14102 65.827992 
L 217.267082 63.876593 
L 217.447041 63.876593 
L 217.572892 65.827992 
L 217.752839 65.827992 
L 217.878926 63.876593 
L 217.950915 63.876593 
L 218.076741 65.827992 
L 218.094817 65.827992 
L 218.220698 67.779392 
L 218.238816 67.779392 
L 218.400645 73.633591 
L 218.472622 73.633591 
L 218.598707 71.682191 
L 218.688557 71.682191 
L 218.814684 69.730792 
L 218.922636 69.730792 
L 219.066548 65.827992 
L 219.19241 65.827992 
L 219.210546 63.876593 
L 219.300377 65.827992 
L 219.372355 65.827992 
L 219.408345 63.876593 
L 219.480322 65.827992 
L 220.128133 65.827992 
L 220.254207 63.876593 
L 220.506134 63.876593 
L 220.614135 61.925193 
L 220.758037 65.827992 
L 220.955886 65.827992 
L 221.099843 69.730792 
L 221.13583 69.730792 
L 221.29789 75.584991 
L 221.495726 75.584991 
L 221.621804 73.633591 
L 221.693788 73.633591 
L 221.873741 65.827992 
L 222.161647 65.827992 
L 222.179525 67.779392 
L 222.269626 65.827992 
L 222.557531 65.827992 
L 222.701514 61.925193 
L 223.187224 61.925193 
L 223.205353 63.876593 
L 223.295191 61.925193 
L 223.31332 61.925193 
L 223.457208 65.827992 
L 223.583108 65.827992 
L 223.763044 73.633591 
L 223.817147 73.633591 
L 223.961106 77.53639 
L 223.978988 77.53639 
L 224.087199 75.584991 
L 224.321017 89.244788 
L 224.338881 89.244788 
L 224.35701 87.293388 
L 224.411035 91.196188 
L 224.626793 102.904585 
L 224.716876 102.904585 
L 224.860853 106.807384 
L 224.914705 106.807384 
L 224.932743 104.855985 
L 225.040793 122.418581 
L 225.16663 112.661583 
L 225.202803 112.661583 
L 225.220736 110.710184 
L 225.238607 120.467182 
L 225.274597 120.467182 
L 225.418552 114.612983 
L 225.47257 114.612983 
L 225.670642 124.369981 
L 225.742454 124.369981 
L 225.796441 130.22418 
L 225.88641 128.27278 
L 226.030365 124.369981 
L 226.174322 128.27278 
L 226.21031 128.27278 
L 226.336425 124.369981 
L 226.480252 128.27278 
L 226.516322 128.27278 
L 226.660291 124.369981 
L 226.714156 124.369981 
L 226.804123 122.418581 
L 226.822122 124.369981 
L 226.912218 124.369981 
L 227.074261 136.078379 
L 227.110231 134.126979 
L 227.18201 130.22418 
L 227.218001 134.126979 
L 227.253989 134.126979 
L 227.416064 128.27278 
L 227.470117 128.27278 
L 227.63199 134.126979 
L 227.775932 134.126979 
L 228.021357 128.27278 
L 228.045746 130.22418 
L 228.117726 126.321381 
L 228.243816 124.369981 
L 228.405634 124.369981 
L 228.477613 122.418581 
L 228.98146 112.661583 
L 229.197396 116.564383 
L 229.233385 116.564383 
L 229.287493 120.467182 
L 229.359475 118.515782 
L 229.449503 118.515782 
L 229.575386 130.22418 
L 229.70124 122.418581 
L 229.827274 120.467182 
L 229.899306 120.467182 
L 229.953163 118.515782 
L 230.007239 120.467182 
L 230.061131 122.418581 
L 230.097253 120.467182 
L 230.169098 116.564383 
L 230.205086 118.515782 
L 230.331183 128.27278 
L 230.349042 128.27278 
L 230.511087 136.078379 
L 230.547106 134.126979 
L 230.619016 136.078379 
L 230.655064 138.029778 
L 230.691055 134.126979 
L 230.726976 136.078379 
L 230.744917 136.078379 
L 230.763041 134.126979 
L 230.816895 138.029778 
L 230.852885 136.078379 
L 230.888875 136.078379 
L 230.996841 139.981178 
L 231.014967 138.029778 
L 231.104807 138.029778 
L 231.500683 122.418581 
L 231.57266 122.418581 
L 231.716619 118.515782 
L 231.770727 118.515782 
L 231.788819 120.467182 
L 231.860575 118.515782 
L 231.914711 116.564383 
L 231.950677 118.515782 
L 232.076508 122.418581 
L 232.112498 120.467182 
L 232.166509 124.369981 
L 232.184476 122.418581 
L 232.238596 122.418581 
L 232.292442 124.369981 
L 232.328433 122.418581 
L 232.454462 120.467182 
L 232.526449 120.467182 
L 232.652332 124.369981 
L 232.796442 120.467182 
L 232.832278 120.467182 
L 232.958372 116.564383 
L 233.084198 120.467182 
L 233.21026 116.564383 
L 233.318267 116.564383 
L 233.390182 114.612983 
L 233.426206 116.564383 
L 233.444088 116.564383 
L 233.803982 89.244788 
L 233.858003 89.244788 
L 233.911948 87.293388 
L 235.765496 81.439189 
L 235.90947 77.53639 
L 236.089403 77.53639 
L 236.215253 75.584991 
L 236.395198 75.584991 
L 236.521282 77.53639 
L 236.575144 77.53639 
L 236.665181 79.48779 
L 236.68311 77.53639 
L 236.719099 77.53639 
L 236.863054 73.633591 
L 236.881191 73.633591 
L 237.025103 69.730792 
L 237.078988 69.730792 
L 237.150966 67.779392 
L 237.186957 69.730792 
L 237.312922 69.730792 
L 237.43888 67.779392 
L 237.546846 67.779392 
L 237.67286 65.827992 
L 237.744905 65.827992 
L 237.906738 71.682191 
L 238.284732 71.682191 
L 238.3746 73.633591 
L 238.91444 73.633591 
L 239.058395 69.730792 
L 239.076492 69.730792 
L 239.220399 65.827992 
L 239.580298 65.827992 
L 239.652321 67.779392 
L 239.688284 65.827992 
L 239.778352 65.827992 
L 239.904223 67.779392 
L 240.048204 63.876593 
L 240.336097 63.876593 
L 240.462157 65.827992 
L 240.64192 65.827992 
L 240.767986 63.876593 
L 241.109779 63.876593 
L 241.253735 65.827992 
L 241.829564 65.827992 
L 241.95562 67.779392 
L 242.261435 67.779392 
L 242.387544 69.730792 
L 242.405392 69.730792 
L 242.531412 71.682191 
L 242.783422 71.682191 
L 242.945232 65.827992 
L 242.963313 65.827992 
L 243.053197 67.779392 
L 243.071295 65.827992 
L 243.431156 65.827992 
L 243.575164 69.730792 
L 243.593036 69.730792 
L 243.736994 65.827992 
L 244.474863 65.827992 
L 244.600737 63.876593 
L 244.870648 63.876593 
L 244.960627 65.827992 
L 244.978738 63.876593 
L 245.75239 63.876593 
L 245.80649 61.925193 
L 245.860553 63.876593 
L 246.238272 63.876593 
L 246.364208 65.827992 
L 246.796077 65.827992 
L 246.850186 63.876593 
L 246.904046 65.827992 
L 247.15597 65.827992 
L 247.282022 67.779392 
L 247.371904 67.779392 
L 247.49798 65.827992 
L 247.767787 65.827992 
L 247.875753 63.876593 
L 247.929763 63.876593 
L 248.055699 65.827992 
L 248.847459 65.827992 
L 248.919635 63.876593 
L 248.955428 65.827992 
L 249.081502 65.827992 
L 249.225444 61.925193 
L 249.3873 61.925193 
L 249.531255 58.022394 
L 249.657318 58.022394 
L 249.783179 56.070994 
L 249.927333 56.070994 
L 250.053204 54.119595 
L 250.251037 54.119595 
L 250.394996 52.168195 
L 250.449094 52.168195 
L 250.574943 50.216795 
L 250.611094 52.168195 
L 250.682911 50.216795 
L 250.701029 50.216795 
L 250.826863 52.168195 
L 250.970822 52.168195 
L 251.096886 54.119595 
L 251.204867 54.119595 
L 251.330714 52.168195 
L 252.212567 52.168195 
L 252.356494 48.265396 
L 252.932334 48.265396 
L 253.076308 52.168195 
L 253.526057 52.168195 
L 253.634023 54.119595 
L 253.86806 54.119595 
L 253.994046 52.168195 
L 254.047987 52.168195 
L 254.173863 50.216795 
L 254.317978 50.216795 
L 254.461776 48.265396 
L 254.767824 48.265396 
L 254.893648 46.313996 
L 254.911718 46.313996 
L 255.037606 48.265396 
L 255.163667 48.265396 
L 255.28953 46.313996 
L 256.495315 46.313996 
L 256.62113 44.362597 
L 258.348606 44.362597 
L 258.474699 46.313996 
L 259.374462 46.313996 
L 259.500266 48.265396 
L 259.860157 48.265396 
L 259.986237 50.216795 
L 260.292024 50.216795 
L 260.399993 52.168195 
L 260.723897 52.168195 
L 260.849923 50.216795 
L 261.24587 50.216795 
L 261.371703 52.168195 
L 261.479672 52.168195 
L 261.605769 50.216795 
L 261.911543 50.216795 
L 262.037613 48.265396 
L 262.0555 48.265396 
L 262.181571 46.313996 
L 262.343412 46.313996 
L 262.469373 48.265396 
L 263.027207 48.265396 
L 263.153186 50.216795 
L 263.261206 50.216795 
L 263.387101 52.168195 
L 263.621143 52.168195 
L 263.765097 56.070994 
L 263.836995 56.070994 
L 263.962926 54.119595 
L 264.089011 69.730792 
L 264.106885 69.730792 
L 264.268915 77.53639 
L 264.394798 75.584991 
L 264.502764 75.584991 
L 264.520807 73.633591 
L 264.574742 77.53639 
L 264.736811 83.390589 
L 264.862655 83.390589 
L 265.006612 79.48779 
L 265.132662 79.48779 
L 265.258536 77.53639 
L 265.402491 81.439189 
L 265.43848 81.439189 
L 265.564551 83.390589 
L 265.582436 83.390589 
L 265.654415 85.341989 
L 265.690403 83.390589 
L 265.762381 83.390589 
L 265.79837 85.341989 
L 265.960395 69.730792 
L 266.086283 65.827992 
L 266.140361 65.827992 
L 266.266229 63.876593 
L 266.356343 63.876593 
L 266.482167 59.973794 
L 266.644251 59.973794 
L 266.770076 58.022394 
L 266.806068 58.022394 
L 266.932171 56.070994 
L 267.148114 56.070994 
L 267.273925 54.119595 
L 267.399976 56.070994 
L 267.417884 56.070994 
L 267.561839 52.168195 
L 267.831866 52.168195 
L 267.957722 50.216795 
L 268.263723 50.216795 
L 268.38959 48.265396 
L 268.623642 48.265396 
L 268.749482 46.313996 
L 269.955192 46.313996 
L 270.081074 48.265396 
L 270.22519 48.265396 
L 270.36899 50.216795 
L 270.512947 50.216795 
L 270.656902 54.119595 
L 270.710987 54.119595 
L 270.854954 58.022394 
L 271.304706 58.022394 
L 271.430771 59.973794 
L 271.556632 59.973794 
L 271.700588 61.925193 
L 272.186558 61.925193 
L 272.276617 63.876593 
L 272.294441 61.925193 
L 272.510457 61.925193 
L 272.636307 63.876593 
L 272.924421 63.876593 
L 272.978251 61.925193 
L 273.032191 63.876593 
L 273.410187 63.876593 
L 273.554152 67.779392 
L 273.572029 67.779392 
L 273.698114 65.827992 
L 273.895933 65.827992 
L 274.022001 63.876593 
L 274.237936 63.876593 
L 274.363794 61.925193 
L 274.813703 61.925193 
L 274.939625 59.973794 
L 275.029682 59.973794 
L 275.15556 58.022394 
L 275.245665 58.022394 
L 275.371497 59.973794 
L 275.407486 59.973794 
L 275.533576 61.925193 
L 275.677429 61.925193 
L 275.803369 63.876593 
L 275.857491 63.876593 
L 275.98352 61.925193 
L 276.217357 61.925193 
L 276.307221 63.876593 
L 276.451179 61.925193 
L 276.667231 61.925193 
L 276.793178 59.973794 
L 276.84706 59.973794 
L 276.973127 58.022394 
L 277.206954 58.022394 
L 277.314922 59.973794 
L 277.422888 59.973794 
L 277.548973 61.925193 
L 277.782782 61.925193 
L 277.908879 63.876593 
L 278.088805 63.876593 
L 278.214653 61.925193 
L 278.664599 61.925193 
L 278.790482 59.973794 
L 278.826472 59.973794 
L 278.952568 58.022394 
L 279.114386 58.022394 
L 279.240459 56.070994 
L 279.330322 56.070994 
L 279.456395 54.119595 
L 279.762192 54.119595 
L 279.90615 58.022394 
L 280.176184 58.022394 
L 280.302029 59.973794 
L 280.32015 59.973794 
L 280.37401 58.022394 
L 280.428033 59.973794 
L 280.895989 59.973794 
L 281.021816 61.925193 
L 281.507784 61.925193 
L 281.633634 63.876593 
L 281.795651 63.876593 
L 281.921546 65.827992 
L 282.011648 65.827992 
L 282.173469 71.682191 
L 282.533364 71.682191 
L 282.659382 73.633591 
L 282.731378 73.633591 
L 282.875375 69.730792 
L 282.893256 69.730792 
L 283.037213 65.827992 
L 283.14518 65.827992 
L 283.271265 63.876593 
L 283.73916 63.876593 
L 283.864972 65.827992 
L 284.242962 65.827992 
L 284.368825 63.876593 
L 284.602874 63.876593 
L 284.728718 65.827992 
L 284.764707 65.827992 
L 284.926771 71.682191 
L 285.232571 71.682191 
L 285.376528 67.779392 
L 285.394641 67.779392 
L 285.520487 65.827992 
L 285.646569 65.827992 
L 285.808604 73.633591 
L 285.970478 73.633591 
L 286.096317 75.584991 
L 286.114432 75.584991 
L 286.258371 79.48779 
L 286.348244 79.48779 
L 286.492399 83.390589 
L 286.672147 83.390589 
L 286.798211 85.341989 
L 286.816105 85.341989 
L 286.996051 89.244788 
L 287.032041 89.244788 
L 287.140011 91.196188 
L 287.283969 91.196188 
L 287.410008 93.147587 
L 287.427927 93.147587 
L 287.571883 97.050386 
L 287.697936 95.098987 
L 287.787821 95.098987 
L 287.931777 99.001786 
L 288.075733 99.001786 
L 288.219693 102.904585 
L 288.597693 102.904585 
L 288.723546 104.855985 
L 288.741655 104.855985 
L 288.885494 108.758784 
L 288.939482 108.758784 
L 289.101523 114.612983 
L 289.245436 110.710184 
L 289.281505 112.661583 
L 289.335364 108.758784 
L 289.443333 108.758784 
L 289.605377 114.612983 
L 289.695258 114.612983 
L 289.839216 118.515782 
L 289.857328 118.515782 
L 289.875372 116.564383 
L 289.965287 118.515782 
L 290.07326 118.515782 
L 290.163118 122.418581 
L 290.19911 120.467182 
L 290.271085 120.467182 
L 290.415036 124.369981 
L 290.54112 114.612983 
L 290.576979 116.564383 
L 290.757044 124.369981 
L 290.936914 124.369981 
L 290.972983 122.418581 
L 291.062983 141.932578 
L 291.09882 132.17558 
L 291.1708 126.321381 
L 291.296854 139.981178 
L 291.386735 147.786777 
L 291.440808 143.883977 
L 291.494701 143.883977 
L 291.656759 155.592375 
L 291.692744 155.592375 
L 291.746623 153.640975 
L 291.80066 155.592375 
L 291.836713 155.592375 
L 291.944595 153.640975 
L 292.088581 157.543775 
L 292.196593 157.543775 
L 292.322449 155.592375 
L 292.394426 155.592375 
L 292.430413 159.495174 
L 292.50239 155.592375 
L 292.628404 153.640975 
L 292.646349 153.640975 
L 292.754313 157.543775 
L 292.988337 143.883977 
L 293.060357 153.640975 
L 293.114203 149.738176 
L 293.258306 143.883977 
L 293.384211 153.640975 
L 293.420235 151.689576 
L 293.510086 143.883977 
L 293.546075 149.738176 
L 293.618054 149.738176 
L 293.762008 159.495174 
L 293.852066 157.543775 
L 293.869976 159.495174 
L 293.905966 159.495174 
L 293.942144 155.592375 
L 294.013933 159.495174 
L 294.049921 159.495174 
L 294.157887 155.592375 
L 294.17599 157.543775 
L 294.193877 157.543775 
L 294.301844 151.689576 
L 294.319899 157.543775 
L 294.409812 151.689576 
L 294.499884 151.689576 
L 294.625736 157.543775 
L 294.643771 157.543775 
L 294.787812 149.738176 
L 294.913657 155.592375 
L 295.021625 157.543775 
L 295.111715 149.738176 
L 295.147694 151.689576 
L 295.183697 149.738176 
L 295.201569 153.640975 
L 295.21965 153.640975 
L 295.273737 157.543775 
L 295.327583 153.640975 
L 295.345526 153.640975 
L 295.363629 151.689576 
L 295.381513 155.592375 
L 295.417502 155.592375 
L 295.543516 157.543775 
L 295.579555 155.592375 
L 295.633611 159.495174 
L 295.651453 161.446574 
L 295.669426 155.592375 
L 295.687522 155.592375 
L 295.813382 153.640975 
L 295.831472 153.640975 
L 295.885358 155.592375 
L 295.921346 153.640975 
L 296.101293 145.835377 
L 296.155413 145.835377 
L 296.281429 143.883977 
L 296.353216 143.883977 
L 296.443292 141.932578 
L 296.461184 143.883977 
L 296.479268 143.883977 
L 296.60514 139.981178 
L 296.659139 139.981178 
L 296.677119 138.029778 
L 296.767161 139.981178 
L 296.785085 139.981178 
L 296.929043 136.078379 
L 296.965232 136.078379 
L 297.108987 138.029778 
L 297.216954 138.029778 
L 297.23502 139.981178 
L 297.288931 138.029778 
L 297.576845 128.27278 
L 297.594964 128.27278 
L 297.648938 118.515782 
L 297.702891 122.418581 
L 297.86476 122.418581 
L 298.008713 118.515782 
L 298.170789 118.515782 
L 298.260639 120.467182 
L 298.278756 118.515782 
L 298.29663 118.515782 
L 298.512563 112.661583 
L 298.602631 112.661583 
L 298.710574 110.710184 
L 298.78261 112.661583 
L 298.818574 110.710184 
L 298.836467 110.710184 
L 298.962559 108.758784 
L 298.980424 108.758784 
L 299.142488 104.855985 
L 299.2864 108.758784 
L 299.304327 108.758784 
L 299.520261 114.612983 
L 299.862237 114.612983 
L 299.898256 116.564383 
L 299.97022 114.612983 
L 300.09609 112.661583 
L 300.18617 112.661583 
L 300.240049 110.710184 
L 300.29414 112.661583 
L 300.312028 112.661583 
L 300.34813 110.710184 
L 300.419995 112.661583 
L 300.761981 112.661583 
L 300.887853 110.710184 
L 300.941948 110.710184 
L 301.067799 112.661583 
L 301.13978 112.661583 
L 301.26584 110.710184 
L 301.535657 110.710184 
L 301.661722 112.661583 
L 301.967527 112.661583 
L 302.093553 110.710184 
L 302.111484 110.710184 
L 302.23756 108.758784 
L 302.417423 108.758784 
L 302.561464 104.855985 
L 302.723494 104.855985 
L 302.849371 102.904585 
L 303.011213 102.904585 
L 303.137289 104.855985 
L 303.263138 104.855985 
L 303.299127 102.904585 
L 303.371106 104.855985 
L 303.677136 104.855985 
L 303.802977 106.807384 
L 303.857079 104.855985 
L 303.910942 106.807384 
L 303.946935 106.807384 
L 304.054899 108.758784 
L 304.198857 106.807384 
L 304.216986 106.807384 
L 304.270836 108.758784 
L 304.324949 106.807384 
L 304.684869 106.807384 
L 304.810674 108.758784 
L 304.828787 108.758784 
L 304.954631 110.710184 
L 305.026611 108.758784 
L 305.062601 110.710184 
L 305.260648 110.710184 
L 305.422676 104.855985 
L 305.512543 104.855985 
L 305.638428 102.904585 
L 305.782595 102.904585 
L 305.908461 100.953186 
L 306.016425 100.953186 
L 306.034311 102.904585 
L 306.106485 100.953186 
L 306.394204 100.953186 
L 306.538164 97.050386 
L 306.934046 97.050386 
L 307.060124 99.001786 
L 307.348046 99.001786 
L 307.474071 97.050386 
L 307.545865 97.050386 
L 307.671947 95.098987 
L 307.83378 95.098987 
L 307.977734 99.001786 
L 308.013724 99.001786 
L 308.085703 100.953186 
L 308.121693 99.001786 
L 308.409608 99.001786 
L 308.517579 97.050386 
L 308.571661 99.001786 
L 308.625547 97.050386 
L 308.679667 97.050386 
L 308.805491 100.953186 
L 309.183381 100.953186 
L 309.327415 97.050386 
L 309.363442 97.050386 
L 309.489494 99.001786 
L 309.993142 99.001786 
L 310.047214 97.050386 
L 310.101108 99.001786 
L 310.245066 99.001786 
L 310.371169 100.953186 
L 310.407157 100.953186 
L 310.604961 91.196188 
L 310.982926 91.196188 
L 311.108814 93.147587 
L 311.126911 93.147587 
L 311.252772 95.098987 
L 311.270872 95.098987 
L 311.39673 97.050386 
L 311.504696 97.050386 
L 311.594753 95.098987 
L 311.612665 97.050386 
L 311.846655 97.050386 
L 311.972559 95.098987 
L 312.242494 95.098987 
L 312.386552 99.001786 
L 312.512398 99.001786 
L 312.656359 95.098987 
L 312.854421 95.098987 
L 312.980264 97.050386 
L 313.16021 97.050386 
L 313.286245 95.098987 
L 313.466228 95.098987 
L 313.59208 93.147587 
L 313.700049 93.147587 
L 313.826145 91.196188 
L 313.951976 91.196188 
L 314.114029 83.390589 
L 314.167913 85.341989 
L 314.222013 83.390589 
L 314.275882 83.390589 
L 314.31187 81.439189 
L 314.383851 83.390589 
L 314.563797 83.390589 
L 314.617796 85.341989 
L 314.671766 83.390589 
L 314.743743 83.390589 
L 314.887701 85.341989 
L 315.031658 85.341989 
L 315.15776 83.390589 
L 315.247595 83.390589 
L 315.391553 85.341989 
L 315.517673 83.390589 
L 315.571501 83.390589 
L 315.697587 85.341989 
L 316.021476 85.341989 
L 316.147331 87.293388 
L 316.2553 85.341989 
L 316.597316 85.341989 
L 316.723161 83.390589 
L 317.514927 83.390589 
L 317.622895 81.439189 
L 317.694875 81.439189 
L 317.82095 79.48779 
L 317.874823 79.48779 
L 318.018778 83.390589 
L 318.144815 81.439189 
L 318.342682 81.439189 
L 318.468783 83.390589 
L 318.50474 83.390589 
L 318.576726 81.439189 
L 318.612733 83.390589 
L 318.936644 83.390589 
L 319.062471 81.439189 
L 319.152548 81.439189 
L 319.278409 79.48779 
L 319.422368 83.390589 
L 319.584402 83.390589 
L 319.710283 85.341989 
L 319.908262 85.341989 
L 320.034354 83.390589 
L 320.070173 83.390589 
L 320.196284 81.439189 
L 320.232217 81.439189 
L 320.358245 83.390589 
L 320.448173 83.390589 
L 320.574027 85.341989 
L 320.592131 85.341989 
L 320.717983 83.390589 
L 320.987997 83.390589 
L 321.113867 81.439189 
L 321.293815 81.439189 
L 321.329803 79.48779 
L 321.401783 81.439189 
L 321.455876 81.439189 
L 321.581729 83.390589 
L 321.653705 83.390589 
L 321.797665 87.293388 
L 321.887758 87.293388 
L 322.049791 93.147587 
L 322.301514 100.953186 
L 322.427511 100.953186 
L 322.571541 104.855985 
L 322.949323 104.855985 
L 323.147356 114.612983 
L 323.273224 106.807384 
L 323.291321 108.758784 
L 323.435194 112.661583 
L 323.561136 112.661583 
L 323.687162 114.612983 
L 323.81306 114.612983 
L 323.83116 112.661583 
L 323.921025 114.612983 
L 323.975155 114.612983 
L 324.064983 118.515782 
L 324.100969 116.564383 
L 324.136963 116.564383 
L 324.280918 110.710184 
L 324.388887 110.710184 
L 324.460864 108.758784 
L 324.496854 110.710184 
L 324.568833 110.710184 
L 324.730846 104.855985 
L 324.820756 104.855985 
L 324.946833 102.904585 
L 325.216641 102.904585 
L 325.342696 104.855985 
L 325.414681 104.855985 
L 325.540544 106.807384 
L 325.630601 104.855985 
L 325.64851 106.807384 
L 325.666602 106.807384 
L 325.756479 114.612983 
L 325.828458 112.661583 
L 325.882564 112.661583 
L 325.918469 114.612983 
L 325.972414 110.710184 
L 326.080382 110.710184 
L 326.206486 114.612983 
L 326.224339 112.661583 
L 326.314456 110.710184 
L 326.332305 112.661583 
L 326.386403 112.661583 
L 326.512253 108.758784 
L 326.674348 114.612983 
L 326.692199 114.612983 
L 326.746306 112.661583 
L 326.800331 114.612983 
L 326.962255 114.612983 
L 326.980111 116.564383 
L 327.052091 112.661583 
L 327.160058 112.661583 
L 327.286155 110.710184 
L 327.304014 110.710184 
L 327.411981 114.612983 
L 327.430072 112.661583 
L 327.538043 112.661583 
L 327.663906 114.612983 
L 327.808043 110.710184 
L 327.82586 110.710184 
L 327.987809 104.855985 
L 328.527646 104.855985 
L 328.653733 102.904585 
L 329.571331 102.904585 
L 329.697331 100.953186 
L 329.76931 100.953186 
L 329.913307 97.050386 
L 330.039193 97.050386 
L 330.057244 99.001786 
L 330.14716 97.050386 
L 330.219138 97.050386 
L 330.363096 93.147587 
L 330.417137 93.147587 
L 330.561083 89.244788 
L 330.758979 89.244788 
L 330.866936 91.196188 
L 330.884971 89.244788 
L 330.97491 91.196188 
L 331.100937 93.147587 
L 331.172921 93.147587 
L 331.298812 91.196188 
L 331.352884 91.196188 
L 331.514873 85.341989 
L 331.910631 85.341989 
L 332.036666 87.293388 
L 332.090575 87.293388 
L 332.252589 81.439189 
L 332.288548 81.439189 
L 332.414479 79.48779 
L 332.450468 79.48779 
L 332.576464 81.439189 
L 332.594426 81.439189 
L 332.702393 79.48779 
L 332.828435 81.439189 
L 333.044391 81.439189 
L 333.170253 79.48779 
L 333.386188 79.48779 
L 333.512245 77.53639 
L 333.692162 77.53639 
L 333.746081 75.584991 
L 333.800165 77.53639 
L 333.926027 77.53639 
L 334.069984 73.633591 
L 334.196036 73.633591 
L 334.339995 69.730792 
L 334.591824 69.730792 
L 334.717789 67.779392 
L 334.771892 67.779392 
L 334.897869 69.730792 
L 335.275634 69.730792 
L 335.401585 67.779392 
L 335.545542 67.779392 
L 335.671593 69.730792 
L 335.689499 69.730792 
L 335.815549 71.682191 
L 335.941592 69.730792 
L 336.121371 69.730792 
L 336.247408 67.779392 
L 336.283315 67.779392 
L 336.409285 65.827992 
L 337.165059 65.827992 
L 337.273212 63.876593 
L 337.812867 63.876593 
L 337.93892 61.925193 
L 338.460673 61.925193 
L 338.58671 59.973794 
L 338.910628 59.973794 
L 339.018556 58.022394 
L 339.144469 59.973794 
L 339.198519 59.973794 
L 339.324612 58.022394 
L 339.702365 58.022394 
L 339.828266 56.070994 
L 340.602154 56.070994 
L 340.727999 54.119595 
L 344.399079 54.119595 
L 344.524981 52.168195 
L 346.072476 52.168195 
L 346.198382 50.216795 
L 349.239581 50.216795 
L 349.365437 48.265396 
L 352.172603 48.265396 
L 352.31656 46.313996 
L 355.537691 46.313996 
L 355.663563 48.265396 
L 355.717634 48.265396 
L 355.843509 50.216795 
L 355.915634 50.216795 
L 356.041566 52.168195 
L 356.13142 52.168195 
L 356.275377 56.070994 
L 356.347356 56.070994 
L 356.4734 58.022394 
L 356.491314 58.022394 
L 356.617281 56.070994 
L 356.72536 56.070994 
L 356.887194 61.925193 
L 356.959173 61.925193 
L 357.10313 65.827992 
L 358.362749 65.827992 
L 358.488785 63.876593 
L 358.578685 63.876593 
L 358.704738 65.827992 
L 359.35252 65.827992 
L 359.550391 75.584991 
L 359.568494 75.584991 
L 359.676391 77.53639 
L 359.784442 75.584991 
L 359.928394 79.48779 
L 360.000263 79.48779 
L 360.036332 77.53639 
L 360.108309 79.48779 
L 360.216297 79.48779 
L 360.252271 77.53639 
L 360.30633 79.48779 
L 360.432244 79.48779 
L 360.45012 77.53639 
L 360.540207 79.48779 
L 360.666226 81.439189 
L 360.702045 81.439189 
L 360.828113 83.390589 
L 360.864097 83.390589 
L 360.99014 79.48779 
L 361.116025 95.098987 
L 361.205892 91.196188 
L 361.223952 91.196188 
L 361.367884 95.098987 
L 361.421826 95.098987 
L 361.547912 93.147587 
L 361.583879 93.147587 
L 361.691754 89.244788 
L 361.709738 91.196188 
L 361.907763 100.953186 
L 361.979732 100.953186 
L 362.10562 99.001786 
L 362.177596 100.953186 
L 362.213586 99.001786 
L 362.411602 89.244788 
L 362.483619 89.244788 
L 362.609468 79.48779 
L 362.645457 79.48779 
L 362.771509 77.53639 
L 362.879491 77.53639 
L 363.005348 73.633591 
L 363.059375 73.633591 
L 363.239357 65.827992 
L 363.815164 65.827992 
L 363.941063 63.876593 
L 364.103094 63.876593 
L 364.228979 61.925193 
L 364.534962 61.925193 
L 364.660848 59.973794 
L 364.912771 59.973794 
L 365.020738 58.022394 
L 365.182801 58.022394 
L 365.326748 54.119595 
L 365.470712 54.119595 
L 365.596567 52.168195 
L 365.79461 52.168195 
L 365.92047 50.216795 
L 366.244371 50.216795 
L 366.370432 48.265396 
L 367.18009 48.265396 
L 367.66602 89.244788 
L 367.683938 89.244788 
L 367.827895 85.341989 
L 367.863886 85.341989 
L 368.133839 67.779392 
L 368.151798 67.779392 
L 368.295755 63.876593 
L 368.313832 63.876593 
L 368.457708 59.973794 
L 368.547681 59.973794 
L 368.673728 58.022394 
L 368.961645 58.022394 
L 369.087519 56.070994 
L 369.231475 54.119595 
L 369.267464 54.119595 
L 369.393499 52.168195 
L 369.483401 52.168195 
L 369.609426 54.119595 
L 369.807499 54.119595 
L 369.933348 56.070994 
L 370.707035 56.070994 
L 370.83301 54.119595 
L 371.084996 54.119595 
L 371.210883 52.168195 
L 371.696811 52.168195 
L 371.768811 50.216795 
L 371.804745 52.168195 
L 371.912736 52.168195 
L 372.056707 56.070994 
L 372.128712 56.070994 
L 372.254574 58.022394 
L 372.272641 58.022394 
L 372.416582 61.925193 
L 372.470509 61.925193 
L 372.614466 63.876593 
L 372.938368 63.876593 
L 373.064404 65.827992 
L 373.316321 65.827992 
L 373.442218 67.779392 
L 373.478206 67.779392 
L 373.622167 63.876593 
L 373.802111 63.876593 
L 373.946069 59.973794 
L 374.018048 59.973794 
L 374.144085 58.022394 
L 374.504024 58.022394 
L 374.647939 61.925193 
L 374.971869 61.925193 
L 375.097728 63.876593 
L 375.115844 63.876593 
L 375.241686 65.827992 
L 375.295764 65.827992 
L 375.40373 69.730792 
L 375.421632 67.779392 
L 375.583618 67.779392 
L 375.709544 65.827992 
L 375.853503 65.827992 
L 375.90749 67.779392 
L 375.961469 65.827992 
L 376.483416 65.827992 
L 376.663359 73.633591 
L 376.699335 73.633591 
L 376.753235 71.682191 
L 376.807301 73.633591 
L 376.879298 73.633591 
L 377.005163 75.584991 
L 377.04115 75.584991 
L 377.185106 71.682191 
L 377.203198 71.682191 
L 377.347167 67.779392 
L 377.401044 67.779392 
L 377.563077 73.633591 
L 377.652969 73.633591 
L 377.796926 77.53639 
L 377.851003 77.53639 
L 377.976874 79.48779 
L 378.408745 79.48779 
L 378.552703 75.584991 
L 378.714709 75.584991 
L 378.822706 79.48779 
L 378.840618 77.53639 
L 378.912596 77.53639 
L 379.056554 79.48779 
L 379.398526 79.48779 
L 379.434529 81.439189 
L 379.488428 79.48779 
L 379.632378 75.584991 
L 379.776341 75.584991 
L 379.9203 79.48779 
L 380.082307 79.48779 
L 380.208216 81.439189 
L 380.26229 81.439189 
L 380.388162 79.48779 
L 380.550216 79.48779 
L 380.694164 83.390589 
L 380.730124 83.390589 
L 380.856025 85.341989 
L 381.07196 85.341989 
L 381.197998 87.293388 
L 381.270019 87.293388 
L 381.395865 85.341989 
L 381.485957 85.341989 
L 381.575811 81.439189 
L 381.6118 83.390589 
L 381.665778 83.390589 
L 381.80981 79.48779 
L 381.881794 81.439189 
L 381.917814 79.48779 
L 381.953798 79.48779 
L 382.061749 81.439189 
L 382.187631 77.53639 
L 382.349588 83.390589 
L 382.439558 83.390589 
L 382.457607 85.341989 
L 382.547524 83.390589 
L 382.601587 83.390589 
L 382.727472 85.341989 
L 382.781541 85.341989 
L 382.853488 83.390589 
L 382.889501 85.341989 
L 382.943408 85.341989 
L 383.069458 83.390589 
L 383.177458 83.390589 
L 383.285416 85.341989 
L 383.429353 81.439189 
L 383.501336 81.439189 
L 383.645293 85.341989 
L 383.717211 85.341989 
L 383.861237 81.439189 
L 383.9871 81.439189 
L 384.131059 77.53639 
L 384.167045 77.53639 
L 384.293084 75.584991 
L 384.437042 75.584991 
L 384.509016 73.633591 
L 384.545033 75.584991 
L 384.56293 75.584991 
L 384.724891 81.439189 
L 384.760927 81.439189 
L 384.904923 85.341989 
L 384.940898 85.341989 
L 385.066781 83.390589 
L 385.246729 83.390589 
L 385.390833 81.439189 
L 385.408702 81.439189 
L 385.570632 75.584991 
L 385.588695 75.584991 
L 385.714778 77.53639 
L 385.768617 77.53639 
L 385.894536 75.584991 
L 386.092513 85.341989 
L 386.110473 85.341989 
L 386.362397 100.953186 
L 386.398562 100.953186 
L 386.434375 99.001786 
L 386.488464 100.953186 
L 386.596426 102.904585 
L 386.722473 100.953186 
L 386.776325 100.953186 
L 386.812325 102.904585 
L 386.884335 100.953186 
L 386.902236 100.953186 
L 387.046194 104.855985 
L 387.352195 104.855985 
L 387.460135 102.904585 
L 387.604145 106.807384 
L 387.65801 106.807384 
L 387.892036 120.467182 
L 387.909934 120.467182 
L 388.053887 132.17558 
L 388.090033 130.22418 
L 388.143928 128.27278 
L 388.179942 130.22418 
L 388.305811 132.17558 
L 388.341798 132.17558 
L 388.35989 134.126979 
L 388.485755 122.418581 
L 388.521744 122.418581 
L 388.73768 134.126979 
L 388.773832 134.126979 
L 388.899722 141.932578 
L 388.935729 139.981178 
L 389.079693 136.078379 
L 389.09772 136.078379 
L 389.151625 138.029778 
L 389.205536 136.078379 
L 389.29561 132.17558 
L 389.331571 134.126979 
L 389.493449 139.981178 
L 389.583504 139.981178 
L 389.655496 138.029778 
L 389.691479 139.981178 
L 389.709383 139.981178 
L 389.745372 141.932578 
L 389.817351 139.981178 
L 390.033284 139.981178 
L 390.177241 136.078379 
L 390.195335 136.078379 
L 390.339251 139.981178 
L 390.483178 139.981178 
L 390.6272 136.078379 
L 390.663172 136.078379 
L 390.807049 143.883977 
L 390.825043 141.932578 
L 390.915084 141.932578 
L 391.220921 171.203572 
L 391.346984 163.397974 
L 391.364876 163.397974 
L 391.418929 161.446574 
L 391.47299 163.397974 
L 391.6168 182.91197 
L 391.832732 182.91197 
L 391.940701 184.863369 
L 391.994795 182.91197 
L 392.048666 184.863369 
L 392.282696 184.863369 
L 392.318669 182.91197 
L 392.390646 184.863369 
L 392.480713 184.863369 
L 392.534608 171.203572 
L 392.606535 182.91197 
L 392.768448 182.91197 
L 392.894535 184.863369 
L 392.948393 184.863369 
L 393.020371 182.91197 
L 393.056358 184.863369 
L 393.110462 184.863369 
L 393.128336 177.057771 
L 393.218374 182.91197 
L 393.254371 182.91197 
L 393.380259 177.057771 
L 394.459934 177.057771 
L 394.603888 161.446574 
L 394.639879 163.397974 
L 394.711854 161.446574 
L 394.92779 161.446574 
L 395.017841 157.543775 
L 395.035758 161.446574 
L 395.071748 161.446574 
L 395.197712 157.543775 
L 395.233781 157.543775 
L 395.269792 161.446574 
L 395.323671 157.543775 
L 395.449718 151.689576 
L 395.503811 151.689576 
L 395.683564 143.883977 
L 395.701697 143.883977 
L 395.82752 141.932578 
L 396.007466 141.932578 
L 396.079444 143.883977 
L 396.115433 141.932578 
L 396.133511 141.932578 
L 396.25939 139.981178 
L 396.313445 139.981178 
L 396.421421 136.078379 
L 396.439337 138.029778 
L 396.583293 151.689576 
L 396.601402 147.786777 
L 396.727249 141.932578 
L 396.745321 141.932578 
L 396.943184 151.689576 
L 397.08714 143.883977 
L 397.231097 143.883977 
L 397.249143 141.932578 
L 397.339065 143.883977 
L 397.357143 143.883977 
L 397.501143 139.981178 
L 397.555173 139.981178 
L 397.986869 122.418581 
L 398.076899 122.418581 
L 398.202805 120.467182 
L 398.256825 120.467182 
L 398.382752 118.515782 
L 398.45473 118.515782 
L 398.49072 120.467182 
L 398.56288 118.515782 
L 398.616704 118.515782 
L 398.742645 120.467182 
L 398.850612 120.467182 
L 398.976662 122.418581 
L 399.246692 122.418581 
L 399.264505 120.467182 
L 399.354461 122.418581 
L 399.372514 122.418581 
L 399.498419 120.467182 
L 399.516507 120.467182 
L 399.678365 112.661583 
L 399.696449 114.612983 
L 399.768439 110.710184 
L 399.786333 110.710184 
L 399.930282 114.612983 
L 399.948316 114.612983 
L 400.074247 112.661583 
L 400.182214 112.661583 
L 400.308202 114.612983 
L 400.38024 114.612983 
L 400.506118 116.564383 
L 400.758044 116.564383 
L 400.776109 118.515782 
L 400.848133 114.612983 
L 400.992013 108.758784 
L 401.153925 114.612983 
L 401.189914 114.612983 
L 401.315938 116.564383 
L 401.459892 112.661583 
L 401.549808 112.661583 
L 401.567891 110.710184 
L 401.657775 112.661583 
L 401.693764 112.661583 
L 401.83772 116.564383 
L 401.945875 116.564383 
L 402.071776 114.612983 
L 402.107736 114.612983 
L 402.14376 112.661583 
L 402.215728 114.612983 
L 402.341571 116.564383 
L 402.359648 116.564383 
L 402.485527 118.515782 
L 402.593495 118.515782 
L 402.809432 112.661583 
L 402.863453 112.661583 
L 402.989379 110.710184 
L 403.133334 114.612983 
L 403.241303 114.612983 
L 403.385261 110.710184 
L 403.475325 110.710184 
L 403.601197 112.661583 
L 403.637332 112.661583 
L 403.781143 110.710184 
L 403.817133 110.710184 
L 403.871239 112.661583 
L 403.907222 110.710184 
L 404.033068 108.758784 
L 404.15912 108.758784 
L 404.249005 112.661583 
L 404.284993 110.710184 
L 404.392961 110.710184 
L 404.572906 102.904585 
L 404.824831 102.904585 
L 404.932798 100.953186 
L 405.058859 102.904585 
L 405.094832 102.904585 
L 405.256705 108.758784 
L 405.382731 108.758784 
L 405.490736 110.710184 
L 405.634661 106.807384 
L 405.652586 106.807384 
L 405.85062 112.661583 
L 405.994575 102.904585 
L 406.138543 106.807384 
L 406.264406 104.855985 
L 406.786337 104.855985 
L 406.912213 102.904585 
L 406.966273 102.904585 
L 407.092159 104.855985 
L 407.218238 102.904585 
L 407.398096 102.904585 
L 407.542138 99.001786 
L 407.614089 99.001786 
L 407.739968 100.953186 
L 407.794062 100.953186 
L 407.919915 102.904585 
L 408.513847 102.904585 
L 408.621781 100.953186 
L 408.747671 102.904585 
L 408.81965 102.904585 
L 408.945713 104.855985 
L 409.539569 104.855985 
L 409.719387 112.661583 
L 409.863343 114.612983 
L 410.0073 114.612983 
L 410.151257 118.515782 
L 410.403354 118.515782 
L 410.547143 120.467182 
L 410.673161 120.467182 
L 410.727088 118.515782 
L 410.781082 120.467182 
L 410.979014 120.467182 
L 411.069034 122.418581 
L 411.087136 120.467182 
L 411.15896 120.467182 
L 411.302917 116.564383 
L 411.410886 116.564383 
L 411.554843 118.515782 
L 411.572923 118.515782 
L 411.698801 120.467182 
L 411.896826 120.467182 
L 412.022706 118.515782 
L 412.094684 118.515782 
L 412.238641 116.564383 
L 412.706503 116.564383 
L 412.922441 104.855985 
L 413.19245 104.855985 
L 413.336416 108.758784 
L 413.372439 108.758784 
L 413.51632 112.661583 
L 413.588356 112.661583 
L 413.714208 114.612983 
L 413.768307 114.612983 
L 413.930145 108.758784 
L 413.966134 108.758784 
L 414.110093 104.855985 
L 414.200131 104.855985 
L 414.308132 106.807384 
L 414.452114 102.904585 
L 414.685923 102.904585 
L 414.865871 110.710184 
L 414.883942 110.710184 
L 414.991935 112.661583 
L 415.135912 106.807384 
L 415.297743 112.661583 
L 415.693626 112.661583 
L 415.819698 114.612983 
L 415.963608 114.612983 
L 415.999625 116.564383 
L 416.071583 114.612983 
L 416.161488 114.612983 
L 416.341434 104.855985 
L 416.449404 108.758784 
L 416.467461 106.807384 
L 416.485392 106.807384 
L 416.611484 104.855985 
L 416.665342 104.855985 
L 416.809297 110.710184 
L 416.971378 104.855985 
L 417.079341 104.855985 
L 417.24117 110.710184 
L 417.313149 110.710184 
L 417.439182 112.661583 
L 417.475208 112.661583 
L 417.655164 104.855985 
L 417.817123 104.855985 
L 417.906987 102.904585 
L 418.033075 104.855985 
L 418.08701 104.855985 
L 418.159004 106.807384 
L 418.19496 104.855985 
L 418.410889 104.855985 
L 418.536792 100.953186 
L 418.590799 100.953186 
L 418.716738 99.001786 
L 418.950707 99.001786 
L 419.076632 100.953186 
L 419.328557 100.953186 
L 419.454637 102.904585 
L 419.778493 102.904585 
L 419.904538 104.855985 
L 420.318336 104.855985 
L 420.390328 106.807384 
L 420.426304 104.855985 
L 420.498307 104.855985 
L 420.570177 106.807384 
L 420.588368 104.855985 
L 420.642233 104.855985 
L 420.786248 108.758784 
L 420.894183 108.758784 
L 421.056042 114.612983 
L 421.074109 114.612983 
L 421.2 116.564383 
L 421.2 116.564383 
" clip-path="url(#pb670f6fe05)" style="fill: none; stroke: #ff7f0e; stroke-width: 1.5; stroke-linecap: square"/>
   </g>
   <g id="patch_3">
    <path d="M 50.925 221.939962 
L 50.925 26.8 
" style="fill: none; stroke: #000000; stroke-width: 0.8; stroke-linejoin: miter; stroke-linecap: square"/>
   </g>
   <g id="patch_4">
    <path d="M 421.2 221.939962 
L 421.2 26.8 
" style="fill: none; stroke: #000000; stroke-width: 0.8; stroke-linejoin: miter; stroke-linecap: square"/>
   </g>
   <g id="patch_5">
    <path d="M 50.925 221.939962 
L 421.2 221.939962 
" style="fill: none; stroke: #000000; stroke-width: 0.8; stroke-linejoin: miter; stroke-linecap: square"/>
   </g>
   <g id="patch_6">
    <path d="M 50.925 26.8 
L 421.2 26.8 
" style="fill: none; stroke: #000000; stroke-width: 0.8; stroke-linejoin: miter; stroke-linecap: square"/>
   </g>
   <g id="text_13">
    <!-- November 2023 -->
    <g transform="translate(187.670625 20.8) scale(0.12 -0.12)">
     <defs>
      <path id="DejaVuSans-4e" d="M 628 4666 
L 1478 4666 
L 3547 763 
L 3547 4666 
L 4159 4666 
L 4159 0 
L 3309 0 
L 1241 3903 
L 1241 0 
L 628 0 
L 628 4666 
z
" transform="scale(0.015625)"/>
      <path id="DejaVuSans-6f" d="M 1959 3097 
Q 1497 3097 1228 2736 
Q 959 2375 959 1747 
Q 959 1119 1226 758 
Q 1494 397 1959 397 
Q 2419 397 2687 759 
Q 2956 1122 2956 1747 
Q 2956 2369 2687 2733 
Q 2419 3097 1959 3097 
z
M 1959 3584 
Q 2709 3584 3137 3096 
Q 3566 2609 3566 1747 
Q 3566 888 3137 398 
Q 2709 -91 1959 -91 
Q 1206 -91 779 398 
Q 353 888 353 1747 
Q 353 2609 779 3096 
Q 1206 3584 1959 3584 
z
" transform="scale(0.015625)"/>
      <path id="DejaVuSans-76" d="M 191 3500 
L 800 3500 
L 1894 563 
L 2988 3500 
L 3597 3500 
L 2284 0 
L 1503 0 
L 191 3500 
z
" transform="scale(0.015625)"/>
      <path id="DejaVuSans-65" d="M 3597 1894 
L 3597 1613 
L 953 1613 
Q 991 1019 1311 708 
Q 1631 397 2203 397 
Q 2534 397 2845 478 
Q 3156 559 3463 722 
L 3463 178 
Q 3153 47 2828 -22 
Q 2503 -91 2169 -91 
Q 1331 -91 842 396 
Q 353 884 353 1716 
Q 353 2575 817 3079 
Q 1281 3584 2069 3584 
Q 2775 3584 3186 3129 
Q 3597 2675 3597 1894 
z
M 3022 2063 
Q 3016 2534 2758 2815 
Q 2500 3097 2075 3097 
Q 1594 3097 1305 2825 
Q 1016 2553 972 2059 
L 3022 2063 
z
" transform="scale(0.015625)"/>
      <path id="DejaVuSans-62" d="M 3116 1747 
Q 3116 2381 2855 2742 
Q 2594 3103 2138 3103 
Q 1681 3103 1420 2742 
Q 1159 2381 1159 1747 
Q 1159 1113 1420 752 
Q 1681 391 2138 391 
Q 2594 391 2855 752 
Q 3116 1113 3116 1747 
z
M 1159 2969 
Q 1341 3281 1617 3432 
Q 1894 3584 2278 3584 
Q 2916 3584 3314 3078 
Q 3713 2572 3713 1747 
Q 3713 922 3314 415 
Q 2916 -91 2278 -91 
Q 1894 -91 1617 61 
Q 1341 213 1159 525 
L 1159 0 
L 581 0 
L 581 4863 
L 1159 4863 
L 1159 2969 
z
" transform="scale(0.015625)"/>
      <path id="DejaVuSans-72" d="M 2631 2963 
Q 2534 3019 2420 3045 
Q 2306 3072 2169 3072 
Q 1681 3072 1420 2755 
Q 1159 2438 1159 1844 
L 1159 0 
L 581 0 
L 581 3500 
L 1159 3500 
L 1159 2956 
Q 1341 3275 1631 3429 
Q 1922 3584 2338 3584 
Q 2397 3584 2469 3576 
Q 2541 3569 2628 3553 
L 2631 2963 
z
" transform="scale(0.015625)"/>
     </defs>
     <use xlink:href="#DejaVuSans-4e"/>
     <use xlink:href="#DejaVuSans-6f" x="74.804688"/>
     <use xlink:href="#DejaVuSans-76" x="135.986328"/>
     <use xlink:href="#DejaVuSans-65" x="195.166016"/>
     <use xlink:href="#DejaVuSans-6d" x="256.689453"/>
     <use xlink:href="#DejaVuSans-62" x="354.101562"/>
     <use xlink:href="#DejaVuSans-65" x="417.578125"/>
     <use xlink:href="#DejaVuSans-72" x="479.101562"/>
     <use xlink:href="#DejaVuSans-20" x="520.214844"/>
     <use xlink:href="#DejaVuSans-32" x="552.001953"/>
     <use xlink:href="#DejaVuSans-30" x="615.625"/>
     <use xlink:href="#DejaVuSans-32" x="679.248047"/>
     <use xlink:href="#DejaVuSans-33" x="742.871094"/>
    </g>
   </g>
  </g>
 </g>
 <defs>
  <clipPath id="pb670f6fe05">
   <rect x="50.925" y="26.8" width="370.275" height="195.139962"/>
  </clipPath>
 </defs>
</svg>
