<?xml version="1.0" encoding="utf-8" standalone="no"?>
<!DOCTYPE svg PUBLIC "-//W3C//DTD SVG 1.1//EN"
  "http://www.w3.org/Graphics/SVG/1.1/DTD/svg11.dtd">
<svg xmlns:xlink="http://www.w3.org/1999/xlink" width="460.8pt" height="345.6pt" viewBox="0 0 460.8 345.6" xmlns="http://www.w3.org/2000/svg" version="1.1">
 <metadata>
  <rdf:RDF xmlns:dc="http://purl.org/dc/elements/1.1/" xmlns:cc="http://creativecommons.org/ns#" xmlns:rdf="http://www.w3.org/1999/02/22-rdf-syntax-ns#">
   <cc:Work>
    <dc:type rdf:resource="http://purl.org/dc/dcmitype/StillImage"/>
    <dc:date>2023-11-07T07:29:36.686524</dc:date>
    <dc:format>image/svg+xml</dc:format>
    <dc:creator>
     <cc:Agent>
      <dc:title>Matplotlib v3.6.3, https://matplotlib.org/</dc:title>
     </cc:Agent>
    </dc:creator>
   </cc:Work>
  </rdf:RDF>
 </metadata>
 <defs>
  <style type="text/css">*{stroke-linejoin: round; stroke-linecap: butt}</style>
 </defs>
 <g id="figure_1">
  <g id="patch_1">
   <path d="M 0 345.6 
L 460.8 345.6 
L 460.8 0 
L 0 0 
z
" style="fill: #ffffff"/>
  </g>
  <g id="axes_1">
   <g id="patch_2">
    <path d="M 51.05 279.561175 
L 450 279.561175 
L 450 25.44 
L 51.05 25.44 
z
" style="fill: #ffffff"/>
   </g>
   <g id="matplotlib.axis_1">
    <g id="xtick_1">
     <g id="line2d_1">
      <path d="M 114.236449 279.561175 
L 114.236449 25.44 
" clip-path="url(#p212953b31c)" style="fill: none; stroke: #b0b0b0; stroke-width: 0.8; stroke-linecap: square"/>
     </g>
     <g id="line2d_2">
      <defs>
       <path id="m4cf2cb8391" d="M 0 0 
L 0 3.5 
" style="stroke: #000000; stroke-width: 0.8"/>
      </defs>
      <g>
       <use xlink:href="#m4cf2cb8391" x="114.236449" y="279.561175" style="stroke: #000000; stroke-width: 0.8"/>
      </g>
     </g>
     <g id="text_1">
      <!-- 2023-11-02 -->
      <g transform="translate(71.671935 333.028035) rotate(-45) scale(0.1 -0.1)">
       <defs>
        <path id="DejaVuSans-32" d="M 1228 531 
L 3431 531 
L 3431 0 
L 469 0 
L 469 531 
Q 828 903 1448 1529 
Q 2069 2156 2228 2338 
Q 2531 2678 2651 2914 
Q 2772 3150 2772 3378 
Q 2772 3750 2511 3984 
Q 2250 4219 1831 4219 
Q 1534 4219 1204 4116 
Q 875 4013 500 3803 
L 500 4441 
Q 881 4594 1212 4672 
Q 1544 4750 1819 4750 
Q 2544 4750 2975 4387 
Q 3406 4025 3406 3419 
Q 3406 3131 3298 2873 
Q 3191 2616 2906 2266 
Q 2828 2175 2409 1742 
Q 1991 1309 1228 531 
z
" transform="scale(0.015625)"/>
        <path id="DejaVuSans-30" d="M 2034 4250 
Q 1547 4250 1301 3770 
Q 1056 3291 1056 2328 
Q 1056 1369 1301 889 
Q 1547 409 2034 409 
Q 2525 409 2770 889 
Q 3016 1369 3016 2328 
Q 3016 3291 2770 3770 
Q 2525 4250 2034 4250 
z
M 2034 4750 
Q 2819 4750 3233 4129 
Q 3647 3509 3647 2328 
Q 3647 1150 3233 529 
Q 2819 -91 2034 -91 
Q 1250 -91 836 529 
Q 422 1150 422 2328 
Q 422 3509 836 4129 
Q 1250 4750 2034 4750 
z
" transform="scale(0.015625)"/>
        <path id="DejaVuSans-33" d="M 2597 2516 
Q 3050 2419 3304 2112 
Q 3559 1806 3559 1356 
Q 3559 666 3084 287 
Q 2609 -91 1734 -91 
Q 1441 -91 1130 -33 
Q 819 25 488 141 
L 488 750 
Q 750 597 1062 519 
Q 1375 441 1716 441 
Q 2309 441 2620 675 
Q 2931 909 2931 1356 
Q 2931 1769 2642 2001 
Q 2353 2234 1838 2234 
L 1294 2234 
L 1294 2753 
L 1863 2753 
Q 2328 2753 2575 2939 
Q 2822 3125 2822 3475 
Q 2822 3834 2567 4026 
Q 2313 4219 1838 4219 
Q 1578 4219 1281 4162 
Q 984 4106 628 3988 
L 628 4550 
Q 988 4650 1302 4700 
Q 1616 4750 1894 4750 
Q 2613 4750 3031 4423 
Q 3450 4097 3450 3541 
Q 3450 3153 3228 2886 
Q 3006 2619 2597 2516 
z
" transform="scale(0.015625)"/>
        <path id="DejaVuSans-2d" d="M 313 2009 
L 1997 2009 
L 1997 1497 
L 313 1497 
L 313 2009 
z
" transform="scale(0.015625)"/>
        <path id="DejaVuSans-31" d="M 794 531 
L 1825 531 
L 1825 4091 
L 703 3866 
L 703 4441 
L 1819 4666 
L 2450 4666 
L 2450 531 
L 3481 531 
L 3481 0 
L 794 0 
L 794 531 
z
" transform="scale(0.015625)"/>
       </defs>
       <use xlink:href="#DejaVuSans-32"/>
       <use xlink:href="#DejaVuSans-30" x="63.623047"/>
       <use xlink:href="#DejaVuSans-32" x="127.246094"/>
       <use xlink:href="#DejaVuSans-33" x="190.869141"/>
       <use xlink:href="#DejaVuSans-2d" x="254.492188"/>
       <use xlink:href="#DejaVuSans-31" x="290.576172"/>
       <use xlink:href="#DejaVuSans-31" x="354.199219"/>
       <use xlink:href="#DejaVuSans-2d" x="417.822266"/>
       <use xlink:href="#DejaVuSans-30" x="453.90625"/>
       <use xlink:href="#DejaVuSans-32" x="517.529297"/>
      </g>
     </g>
    </g>
    <g id="xtick_2">
     <g id="line2d_3">
      <path d="M 177.456531 279.561175 
L 177.456531 25.44 
" clip-path="url(#p212953b31c)" style="fill: none; stroke: #b0b0b0; stroke-width: 0.8; stroke-linecap: square"/>
     </g>
     <g id="line2d_4">
      <g>
       <use xlink:href="#m4cf2cb8391" x="177.456531" y="279.561175" style="stroke: #000000; stroke-width: 0.8"/>
      </g>
     </g>
     <g id="text_2">
      <!-- 2023-11-03 -->
      <g transform="translate(134.892017 333.028035) rotate(-45) scale(0.1 -0.1)">
       <use xlink:href="#DejaVuSans-32"/>
       <use xlink:href="#DejaVuSans-30" x="63.623047"/>
       <use xlink:href="#DejaVuSans-32" x="127.246094"/>
       <use xlink:href="#DejaVuSans-33" x="190.869141"/>
       <use xlink:href="#DejaVuSans-2d" x="254.492188"/>
       <use xlink:href="#DejaVuSans-31" x="290.576172"/>
       <use xlink:href="#DejaVuSans-31" x="354.199219"/>
       <use xlink:href="#DejaVuSans-2d" x="417.822266"/>
       <use xlink:href="#DejaVuSans-30" x="453.90625"/>
       <use xlink:href="#DejaVuSans-33" x="517.529297"/>
      </g>
     </g>
    </g>
    <g id="xtick_3">
     <g id="line2d_5">
      <path d="M 240.676613 279.561175 
L 240.676613 25.44 
" clip-path="url(#p212953b31c)" style="fill: none; stroke: #b0b0b0; stroke-width: 0.8; stroke-linecap: square"/>
     </g>
     <g id="line2d_6">
      <g>
       <use xlink:href="#m4cf2cb8391" x="240.676613" y="279.561175" style="stroke: #000000; stroke-width: 0.8"/>
      </g>
     </g>
     <g id="text_3">
      <!-- 2023-11-04 -->
      <g transform="translate(198.112099 333.028035) rotate(-45) scale(0.1 -0.1)">
       <defs>
        <path id="DejaVuSans-34" d="M 2419 4116 
L 825 1625 
L 2419 1625 
L 2419 4116 
z
M 2253 4666 
L 3047 4666 
L 3047 1625 
L 3713 1625 
L 3713 1100 
L 3047 1100 
L 3047 0 
L 2419 0 
L 2419 1100 
L 313 1100 
L 313 1709 
L 2253 4666 
z
" transform="scale(0.015625)"/>
       </defs>
       <use xlink:href="#DejaVuSans-32"/>
       <use xlink:href="#DejaVuSans-30" x="63.623047"/>
       <use xlink:href="#DejaVuSans-32" x="127.246094"/>
       <use xlink:href="#DejaVuSans-33" x="190.869141"/>
       <use xlink:href="#DejaVuSans-2d" x="254.492188"/>
       <use xlink:href="#DejaVuSans-31" x="290.576172"/>
       <use xlink:href="#DejaVuSans-31" x="354.199219"/>
       <use xlink:href="#DejaVuSans-2d" x="417.822266"/>
       <use xlink:href="#DejaVuSans-30" x="453.90625"/>
       <use xlink:href="#DejaVuSans-34" x="517.529297"/>
      </g>
     </g>
    </g>
    <g id="xtick_4">
     <g id="line2d_7">
      <path d="M 303.896695 279.561175 
L 303.896695 25.44 
" clip-path="url(#p212953b31c)" style="fill: none; stroke: #b0b0b0; stroke-width: 0.8; stroke-linecap: square"/>
     </g>
     <g id="line2d_8">
      <g>
       <use xlink:href="#m4cf2cb8391" x="303.896695" y="279.561175" style="stroke: #000000; stroke-width: 0.8"/>
      </g>
     </g>
     <g id="text_4">
      <!-- 2023-11-05 -->
      <g transform="translate(261.332181 333.028035) rotate(-45) scale(0.1 -0.1)">
       <defs>
        <path id="DejaVuSans-35" d="M 691 4666 
L 3169 4666 
L 3169 4134 
L 1269 4134 
L 1269 2991 
Q 1406 3038 1543 3061 
Q 1681 3084 1819 3084 
Q 2600 3084 3056 2656 
Q 3513 2228 3513 1497 
Q 3513 744 3044 326 
Q 2575 -91 1722 -91 
Q 1428 -91 1123 -41 
Q 819 9 494 109 
L 494 744 
Q 775 591 1075 516 
Q 1375 441 1709 441 
Q 2250 441 2565 725 
Q 2881 1009 2881 1497 
Q 2881 1984 2565 2268 
Q 2250 2553 1709 2553 
Q 1456 2553 1204 2497 
Q 953 2441 691 2322 
L 691 4666 
z
" transform="scale(0.015625)"/>
       </defs>
       <use xlink:href="#DejaVuSans-32"/>
       <use xlink:href="#DejaVuSans-30" x="63.623047"/>
       <use xlink:href="#DejaVuSans-32" x="127.246094"/>
       <use xlink:href="#DejaVuSans-33" x="190.869141"/>
       <use xlink:href="#DejaVuSans-2d" x="254.492188"/>
       <use xlink:href="#DejaVuSans-31" x="290.576172"/>
       <use xlink:href="#DejaVuSans-31" x="354.199219"/>
       <use xlink:href="#DejaVuSans-2d" x="417.822266"/>
       <use xlink:href="#DejaVuSans-30" x="453.90625"/>
       <use xlink:href="#DejaVuSans-35" x="517.529297"/>
      </g>
     </g>
    </g>
    <g id="xtick_5">
     <g id="line2d_9">
      <path d="M 367.116777 279.561175 
L 367.116777 25.44 
" clip-path="url(#p212953b31c)" style="fill: none; stroke: #b0b0b0; stroke-width: 0.8; stroke-linecap: square"/>
     </g>
     <g id="line2d_10">
      <g>
       <use xlink:href="#m4cf2cb8391" x="367.116777" y="279.561175" style="stroke: #000000; stroke-width: 0.8"/>
      </g>
     </g>
     <g id="text_5">
      <!-- 2023-11-06 -->
      <g transform="translate(324.552263 333.028035) rotate(-45) scale(0.1 -0.1)">
       <defs>
        <path id="DejaVuSans-36" d="M 2113 2584 
Q 1688 2584 1439 2293 
Q 1191 2003 1191 1497 
Q 1191 994 1439 701 
Q 1688 409 2113 409 
Q 2538 409 2786 701 
Q 3034 994 3034 1497 
Q 3034 2003 2786 2293 
Q 2538 2584 2113 2584 
z
M 3366 4563 
L 3366 3988 
Q 3128 4100 2886 4159 
Q 2644 4219 2406 4219 
Q 1781 4219 1451 3797 
Q 1122 3375 1075 2522 
Q 1259 2794 1537 2939 
Q 1816 3084 2150 3084 
Q 2853 3084 3261 2657 
Q 3669 2231 3669 1497 
Q 3669 778 3244 343 
Q 2819 -91 2113 -91 
Q 1303 -91 875 529 
Q 447 1150 447 2328 
Q 447 3434 972 4092 
Q 1497 4750 2381 4750 
Q 2619 4750 2861 4703 
Q 3103 4656 3366 4563 
z
" transform="scale(0.015625)"/>
       </defs>
       <use xlink:href="#DejaVuSans-32"/>
       <use xlink:href="#DejaVuSans-30" x="63.623047"/>
       <use xlink:href="#DejaVuSans-32" x="127.246094"/>
       <use xlink:href="#DejaVuSans-33" x="190.869141"/>
       <use xlink:href="#DejaVuSans-2d" x="254.492188"/>
       <use xlink:href="#DejaVuSans-31" x="290.576172"/>
       <use xlink:href="#DejaVuSans-31" x="354.199219"/>
       <use xlink:href="#DejaVuSans-2d" x="417.822266"/>
       <use xlink:href="#DejaVuSans-30" x="453.90625"/>
       <use xlink:href="#DejaVuSans-36" x="517.529297"/>
      </g>
     </g>
    </g>
    <g id="xtick_6">
     <g id="line2d_11">
      <path d="M 430.336859 279.561175 
L 430.336859 25.44 
" clip-path="url(#p212953b31c)" style="fill: none; stroke: #b0b0b0; stroke-width: 0.8; stroke-linecap: square"/>
     </g>
     <g id="line2d_12">
      <g>
       <use xlink:href="#m4cf2cb8391" x="430.336859" y="279.561175" style="stroke: #000000; stroke-width: 0.8"/>
      </g>
     </g>
     <g id="text_6">
      <!-- 2023-11-07 -->
      <g transform="translate(387.772346 333.028035) rotate(-45) scale(0.1 -0.1)">
       <defs>
        <path id="DejaVuSans-37" d="M 525 4666 
L 3525 4666 
L 3525 4397 
L 1831 0 
L 1172 0 
L 2766 4134 
L 525 4134 
L 525 4666 
z
" transform="scale(0.015625)"/>
       </defs>
       <use xlink:href="#DejaVuSans-32"/>
       <use xlink:href="#DejaVuSans-30" x="63.623047"/>
       <use xlink:href="#DejaVuSans-32" x="127.246094"/>
       <use xlink:href="#DejaVuSans-33" x="190.869141"/>
       <use xlink:href="#DejaVuSans-2d" x="254.492188"/>
       <use xlink:href="#DejaVuSans-31" x="290.576172"/>
       <use xlink:href="#DejaVuSans-31" x="354.199219"/>
       <use xlink:href="#DejaVuSans-2d" x="417.822266"/>
       <use xlink:href="#DejaVuSans-30" x="453.90625"/>
       <use xlink:href="#DejaVuSans-37" x="517.529297"/>
      </g>
     </g>
    </g>
   </g>
   <g id="matplotlib.axis_2">
    <g id="ytick_1">
     <g id="line2d_13">
      <path d="M 51.05 275.344157 
L 450 275.344157 
" clip-path="url(#p212953b31c)" style="fill: none; stroke: #b0b0b0; stroke-width: 0.8; stroke-linecap: square"/>
     </g>
     <g id="line2d_14">
      <defs>
       <path id="ma83f7f8944" d="M 0 0 
L -3.5 0 
" style="stroke: #000000; stroke-width: 0.8"/>
      </defs>
      <g>
       <use xlink:href="#ma83f7f8944" x="51.05" y="275.344157" style="stroke: #000000; stroke-width: 0.8"/>
      </g>
     </g>
     <g id="text_7">
      <!-- 330 -->
      <g transform="translate(24.9625 279.143376) scale(0.1 -0.1)">
       <use xlink:href="#DejaVuSans-33"/>
       <use xlink:href="#DejaVuSans-33" x="63.623047"/>
       <use xlink:href="#DejaVuSans-30" x="127.246094"/>
      </g>
     </g>
    </g>
    <g id="ytick_2">
     <g id="line2d_15">
      <path d="M 51.05 244.786055 
L 450 244.786055 
" clip-path="url(#p212953b31c)" style="fill: none; stroke: #b0b0b0; stroke-width: 0.8; stroke-linecap: square"/>
     </g>
     <g id="line2d_16">
      <g>
       <use xlink:href="#ma83f7f8944" x="51.05" y="244.786055" style="stroke: #000000; stroke-width: 0.8"/>
      </g>
     </g>
     <g id="text_8">
      <!-- 340 -->
      <g transform="translate(24.9625 248.585274) scale(0.1 -0.1)">
       <use xlink:href="#DejaVuSans-33"/>
       <use xlink:href="#DejaVuSans-34" x="63.623047"/>
       <use xlink:href="#DejaVuSans-30" x="127.246094"/>
      </g>
     </g>
    </g>
    <g id="ytick_3">
     <g id="line2d_17">
      <path d="M 51.05 214.227954 
L 450 214.227954 
" clip-path="url(#p212953b31c)" style="fill: none; stroke: #b0b0b0; stroke-width: 0.8; stroke-linecap: square"/>
     </g>
     <g id="line2d_18">
      <g>
       <use xlink:href="#ma83f7f8944" x="51.05" y="214.227954" style="stroke: #000000; stroke-width: 0.8"/>
      </g>
     </g>
     <g id="text_9">
      <!-- 350 -->
      <g transform="translate(24.9625 218.027172) scale(0.1 -0.1)">
       <use xlink:href="#DejaVuSans-33"/>
       <use xlink:href="#DejaVuSans-35" x="63.623047"/>
       <use xlink:href="#DejaVuSans-30" x="127.246094"/>
      </g>
     </g>
    </g>
    <g id="ytick_4">
     <g id="line2d_19">
      <path d="M 51.05 183.669852 
L 450 183.669852 
" clip-path="url(#p212953b31c)" style="fill: none; stroke: #b0b0b0; stroke-width: 0.8; stroke-linecap: square"/>
     </g>
     <g id="line2d_20">
      <g>
       <use xlink:href="#ma83f7f8944" x="51.05" y="183.669852" style="stroke: #000000; stroke-width: 0.8"/>
      </g>
     </g>
     <g id="text_10">
      <!-- 360 -->
      <g transform="translate(24.9625 187.46907) scale(0.1 -0.1)">
       <use xlink:href="#DejaVuSans-33"/>
       <use xlink:href="#DejaVuSans-36" x="63.623047"/>
       <use xlink:href="#DejaVuSans-30" x="127.246094"/>
      </g>
     </g>
    </g>
    <g id="ytick_5">
     <g id="line2d_21">
      <path d="M 51.05 153.11175 
L 450 153.11175 
" clip-path="url(#p212953b31c)" style="fill: none; stroke: #b0b0b0; stroke-width: 0.8; stroke-linecap: square"/>
     </g>
     <g id="line2d_22">
      <g>
       <use xlink:href="#ma83f7f8944" x="51.05" y="153.11175" style="stroke: #000000; stroke-width: 0.8"/>
      </g>
     </g>
     <g id="text_11">
      <!-- 370 -->
      <g transform="translate(24.9625 156.910968) scale(0.1 -0.1)">
       <use xlink:href="#DejaVuSans-33"/>
       <use xlink:href="#DejaVuSans-37" x="63.623047"/>
       <use xlink:href="#DejaVuSans-30" x="127.246094"/>
      </g>
     </g>
    </g>
    <g id="ytick_6">
     <g id="line2d_23">
      <path d="M 51.05 122.553648 
L 450 122.553648 
" clip-path="url(#p212953b31c)" style="fill: none; stroke: #b0b0b0; stroke-width: 0.8; stroke-linecap: square"/>
     </g>
     <g id="line2d_24">
      <g>
       <use xlink:href="#ma83f7f8944" x="51.05" y="122.553648" style="stroke: #000000; stroke-width: 0.8"/>
      </g>
     </g>
     <g id="text_12">
      <!-- 380 -->
      <g transform="translate(24.9625 126.352867) scale(0.1 -0.1)">
       <defs>
        <path id="DejaVuSans-38" d="M 2034 2216 
Q 1584 2216 1326 1975 
Q 1069 1734 1069 1313 
Q 1069 891 1326 650 
Q 1584 409 2034 409 
Q 2484 409 2743 651 
Q 3003 894 3003 1313 
Q 3003 1734 2745 1975 
Q 2488 2216 2034 2216 
z
M 1403 2484 
Q 997 2584 770 2862 
Q 544 3141 544 3541 
Q 544 4100 942 4425 
Q 1341 4750 2034 4750 
Q 2731 4750 3128 4425 
Q 3525 4100 3525 3541 
Q 3525 3141 3298 2862 
Q 3072 2584 2669 2484 
Q 3125 2378 3379 2068 
Q 3634 1759 3634 1313 
Q 3634 634 3220 271 
Q 2806 -91 2034 -91 
Q 1263 -91 848 271 
Q 434 634 434 1313 
Q 434 1759 690 2068 
Q 947 2378 1403 2484 
z
M 1172 3481 
Q 1172 3119 1398 2916 
Q 1625 2713 2034 2713 
Q 2441 2713 2670 2916 
Q 2900 3119 2900 3481 
Q 2900 3844 2670 4047 
Q 2441 4250 2034 4250 
Q 1625 4250 1398 4047 
Q 1172 3844 1172 3481 
z
" transform="scale(0.015625)"/>
       </defs>
       <use xlink:href="#DejaVuSans-33"/>
       <use xlink:href="#DejaVuSans-38" x="63.623047"/>
       <use xlink:href="#DejaVuSans-30" x="127.246094"/>
      </g>
     </g>
    </g>
    <g id="ytick_7">
     <g id="line2d_25">
      <path d="M 51.05 91.995546 
L 450 91.995546 
" clip-path="url(#p212953b31c)" style="fill: none; stroke: #b0b0b0; stroke-width: 0.8; stroke-linecap: square"/>
     </g>
     <g id="line2d_26">
      <g>
       <use xlink:href="#ma83f7f8944" x="51.05" y="91.995546" style="stroke: #000000; stroke-width: 0.8"/>
      </g>
     </g>
     <g id="text_13">
      <!-- 390 -->
      <g transform="translate(24.9625 95.794765) scale(0.1 -0.1)">
       <defs>
        <path id="DejaVuSans-39" d="M 703 97 
L 703 672 
Q 941 559 1184 500 
Q 1428 441 1663 441 
Q 2288 441 2617 861 
Q 2947 1281 2994 2138 
Q 2813 1869 2534 1725 
Q 2256 1581 1919 1581 
Q 1219 1581 811 2004 
Q 403 2428 403 3163 
Q 403 3881 828 4315 
Q 1253 4750 1959 4750 
Q 2769 4750 3195 4129 
Q 3622 3509 3622 2328 
Q 3622 1225 3098 567 
Q 2575 -91 1691 -91 
Q 1453 -91 1209 -44 
Q 966 3 703 97 
z
M 1959 2075 
Q 2384 2075 2632 2365 
Q 2881 2656 2881 3163 
Q 2881 3666 2632 3958 
Q 2384 4250 1959 4250 
Q 1534 4250 1286 3958 
Q 1038 3666 1038 3163 
Q 1038 2656 1286 2365 
Q 1534 2075 1959 2075 
z
" transform="scale(0.015625)"/>
       </defs>
       <use xlink:href="#DejaVuSans-33"/>
       <use xlink:href="#DejaVuSans-39" x="63.623047"/>
       <use xlink:href="#DejaVuSans-30" x="127.246094"/>
      </g>
     </g>
    </g>
    <g id="ytick_8">
     <g id="line2d_27">
      <path d="M 51.05 61.437444 
L 450 61.437444 
" clip-path="url(#p212953b31c)" style="fill: none; stroke: #b0b0b0; stroke-width: 0.8; stroke-linecap: square"/>
     </g>
     <g id="line2d_28">
      <g>
       <use xlink:href="#ma83f7f8944" x="51.05" y="61.437444" style="stroke: #000000; stroke-width: 0.8"/>
      </g>
     </g>
     <g id="text_14">
      <!-- 400 -->
      <g transform="translate(24.9625 65.236663) scale(0.1 -0.1)">
       <use xlink:href="#DejaVuSans-34"/>
       <use xlink:href="#DejaVuSans-30" x="63.623047"/>
       <use xlink:href="#DejaVuSans-30" x="127.246094"/>
      </g>
     </g>
    </g>
    <g id="ytick_9">
     <g id="line2d_29">
      <path d="M 51.05 30.879342 
L 450 30.879342 
" clip-path="url(#p212953b31c)" style="fill: none; stroke: #b0b0b0; stroke-width: 0.8; stroke-linecap: square"/>
     </g>
     <g id="line2d_30">
      <g>
       <use xlink:href="#ma83f7f8944" x="51.05" y="30.879342" style="stroke: #000000; stroke-width: 0.8"/>
      </g>
     </g>
     <g id="text_15">
      <!-- 410 -->
      <g transform="translate(24.9625 34.678561) scale(0.1 -0.1)">
       <use xlink:href="#DejaVuSans-34"/>
       <use xlink:href="#DejaVuSans-31" x="63.623047"/>
       <use xlink:href="#DejaVuSans-30" x="127.246094"/>
      </g>
     </g>
    </g>
    <g id="text_16">
     <!-- Rain [mm] -->
     <g transform="translate(18.882812 178.715431) rotate(-90) scale(0.1 -0.1)">
      <defs>
       <path id="DejaVuSans-52" d="M 2841 2188 
Q 3044 2119 3236 1894 
Q 3428 1669 3622 1275 
L 4263 0 
L 3584 0 
L 2988 1197 
Q 2756 1666 2539 1819 
Q 2322 1972 1947 1972 
L 1259 1972 
L 1259 0 
L 628 0 
L 628 4666 
L 2053 4666 
Q 2853 4666 3247 4331 
Q 3641 3997 3641 3322 
Q 3641 2881 3436 2590 
Q 3231 2300 2841 2188 
z
M 1259 4147 
L 1259 2491 
L 2053 2491 
Q 2509 2491 2742 2702 
Q 2975 2913 2975 3322 
Q 2975 3731 2742 3939 
Q 2509 4147 2053 4147 
L 1259 4147 
z
" transform="scale(0.015625)"/>
       <path id="DejaVuSans-61" d="M 2194 1759 
Q 1497 1759 1228 1600 
Q 959 1441 959 1056 
Q 959 750 1161 570 
Q 1363 391 1709 391 
Q 2188 391 2477 730 
Q 2766 1069 2766 1631 
L 2766 1759 
L 2194 1759 
z
M 3341 1997 
L 3341 0 
L 2766 0 
L 2766 531 
Q 2569 213 2275 61 
Q 1981 -91 1556 -91 
Q 1019 -91 701 211 
Q 384 513 384 1019 
Q 384 1609 779 1909 
Q 1175 2209 1959 2209 
L 2766 2209 
L 2766 2266 
Q 2766 2663 2505 2880 
Q 2244 3097 1772 3097 
Q 1472 3097 1187 3025 
Q 903 2953 641 2809 
L 641 3341 
Q 956 3463 1253 3523 
Q 1550 3584 1831 3584 
Q 2591 3584 2966 3190 
Q 3341 2797 3341 1997 
z
" transform="scale(0.015625)"/>
       <path id="DejaVuSans-69" d="M 603 3500 
L 1178 3500 
L 1178 0 
L 603 0 
L 603 3500 
z
M 603 4863 
L 1178 4863 
L 1178 4134 
L 603 4134 
L 603 4863 
z
" transform="scale(0.015625)"/>
       <path id="DejaVuSans-6e" d="M 3513 2113 
L 3513 0 
L 2938 0 
L 2938 2094 
Q 2938 2591 2744 2837 
Q 2550 3084 2163 3084 
Q 1697 3084 1428 2787 
Q 1159 2491 1159 1978 
L 1159 0 
L 581 0 
L 581 3500 
L 1159 3500 
L 1159 2956 
Q 1366 3272 1645 3428 
Q 1925 3584 2291 3584 
Q 2894 3584 3203 3211 
Q 3513 2838 3513 2113 
z
" transform="scale(0.015625)"/>
       <path id="DejaVuSans-20" transform="scale(0.015625)"/>
       <path id="DejaVuSans-5b" d="M 550 4863 
L 1875 4863 
L 1875 4416 
L 1125 4416 
L 1125 -397 
L 1875 -397 
L 1875 -844 
L 550 -844 
L 550 4863 
z
" transform="scale(0.015625)"/>
       <path id="DejaVuSans-6d" d="M 3328 2828 
Q 3544 3216 3844 3400 
Q 4144 3584 4550 3584 
Q 5097 3584 5394 3201 
Q 5691 2819 5691 2113 
L 5691 0 
L 5113 0 
L 5113 2094 
Q 5113 2597 4934 2840 
Q 4756 3084 4391 3084 
Q 3944 3084 3684 2787 
Q 3425 2491 3425 1978 
L 3425 0 
L 2847 0 
L 2847 2094 
Q 2847 2600 2669 2842 
Q 2491 3084 2119 3084 
Q 1678 3084 1418 2786 
Q 1159 2488 1159 1978 
L 1159 0 
L 581 0 
L 581 3500 
L 1159 3500 
L 1159 2956 
Q 1356 3278 1631 3431 
Q 1906 3584 2284 3584 
Q 2666 3584 2933 3390 
Q 3200 3197 3328 2828 
z
" transform="scale(0.015625)"/>
       <path id="DejaVuSans-5d" d="M 1947 4863 
L 1947 -844 
L 622 -844 
L 622 -397 
L 1369 -397 
L 1369 4416 
L 622 4416 
L 622 4863 
L 1947 4863 
z
" transform="scale(0.015625)"/>
      </defs>
      <use xlink:href="#DejaVuSans-52"/>
      <use xlink:href="#DejaVuSans-61" x="67.232422"/>
      <use xlink:href="#DejaVuSans-69" x="128.511719"/>
      <use xlink:href="#DejaVuSans-6e" x="156.294922"/>
      <use xlink:href="#DejaVuSans-20" x="219.673828"/>
      <use xlink:href="#DejaVuSans-5b" x="251.460938"/>
      <use xlink:href="#DejaVuSans-6d" x="290.474609"/>
      <use xlink:href="#DejaVuSans-6d" x="387.886719"/>
      <use xlink:href="#DejaVuSans-5d" x="485.298828"/>
     </g>
    </g>
   </g>
   <g id="line2d_31">
    <path d="M 51.05 268.010213 
L 101.485153 268.010213 
L 101.625605 267.09347 
L 101.695803 267.09347 
L 101.836211 266.176727 
L 102.081936 266.176727 
L 102.222421 265.259984 
L 102.995099 265.259984 
L 103.170875 264.343241 
L 103.276076 264.343241 
L 103.416562 263.426498 
L 103.627293 263.426498 
L 103.767781 262.509755 
L 103.90827 262.509755 
L 104.048754 261.593011 
L 104.329729 261.593011 
L 104.505537 260.676268 
L 104.997366 260.676268 
L 105.137668 259.759525 
L 106.156062 259.759525 
L 106.296551 258.842782 
L 108.052636 258.842782 
L 108.193124 257.926039 
L 109.738481 257.926039 
L 109.878972 257.009296 
L 110.616789 257.009296 
L 110.757289 256.092553 
L 113.847963 256.092553 
L 113.988497 255.17581 
L 117.184328 255.17581 
L 117.324813 254.259067 
L 119.818654 254.259067 
L 119.959143 253.342324 
L 128.880047 253.342324 
L 129.02073 252.425581 
L 130.179428 252.425581 
L 130.319915 251.508838 
L 131.549365 251.508838 
L 131.689938 250.592095 
L 133.094851 250.592095 
L 133.235315 249.675352 
L 135.02623 249.675352 
L 135.16672 248.758609 
L 136.010056 248.758609 
L 136.18542 247.841866 
L 137.063307 247.841866 
L 137.203793 246.925123 
L 137.695498 246.925123 
L 137.835986 246.00838 
L 138.363099 246.00838 
L 138.50353 245.091636 
L 139.416534 245.091636 
L 139.557219 244.174893 
L 140.364755 244.174893 
L 140.505242 243.25815 
L 140.891859 243.25815 
L 141.032299 242.341407 
L 141.277923 242.341407 
L 141.453724 241.424664 
L 141.769626 241.424664 
L 141.910115 240.507921 
L 142.19109 240.507921 
L 142.366944 239.591178 
L 142.717988 239.591178 
L 142.85868 238.674435 
L 143.069426 238.674435 
L 143.209903 237.757692 
L 143.385233 237.757692 
L 143.525726 236.840949 
L 143.666212 236.840949 
L 143.806697 235.924206 
L 143.947529 235.924206 
L 144.123054 235.007463 
L 144.298403 235.007463 
L 144.43889 234.09072 
L 144.825467 234.09072 
L 144.965939 233.173977 
L 145.35206 233.173977 
L 145.49255 232.257234 
L 145.738648 232.257234 
L 145.879135 231.340491 
L 145.984258 231.340491 
L 146.124746 230.423748 
L 146.265236 230.423748 
L 146.405721 229.507004 
L 146.546209 229.507004 
L 146.721994 228.590261 
L 146.827185 228.590261 
L 146.967678 227.673518 
L 147.037923 227.673518 
L 147.178408 226.756775 
L 147.249002 226.756775 
L 147.424529 225.840032 
L 147.494803 225.840032 
L 147.63528 224.923289 
L 147.846011 224.923289 
L 147.986263 224.006546 
L 148.126961 224.006546 
L 148.267319 223.089803 
L 148.407951 223.089803 
L 148.54839 222.17306 
L 148.583667 222.17306 
L 148.723779 221.256317 
L 148.82942 221.256317 
L 148.969907 220.339574 
L 149.040135 220.339574 
L 149.180621 219.422831 
L 149.285734 219.422831 
L 149.426219 218.506088 
L 149.60209 218.506088 
L 149.742577 217.589345 
L 149.953072 217.589345 
L 150.093822 216.672602 
L 150.234235 216.672602 
L 150.374782 215.755859 
L 150.550497 215.755859 
L 150.726005 214.839116 
L 150.831091 214.839116 
L 150.971578 213.922373 
L 151.252536 213.922373 
L 151.393044 213.005629 
L 151.533529 213.005629 
L 151.674014 212.088886 
L 151.849878 212.088886 
L 151.990267 211.172143 
L 152.060655 211.172143 
L 152.201026 210.2554 
L 152.271364 210.2554 
L 152.411805 209.338657 
L 152.517352 209.338657 
L 152.692702 208.421914 
L 152.727671 208.421914 
L 152.868157 207.505171 
L 152.938401 207.505171 
L 153.078885 206.588428 
L 153.114238 206.588428 
L 153.254532 205.671685 
L 153.289618 205.671685 
L 153.430105 204.754942 
L 153.53567 204.754942 
L 153.676191 203.838199 
L 153.71108 203.838199 
L 153.852022 202.921456 
L 154.097754 201.08797 
L 154.16791 201.08797 
L 154.343271 199.254484 
L 154.48376 199.254484 
L 154.6596 198.337741 
L 154.729884 198.337741 
L 154.905222 196.504254 
L 155.010787 196.504254 
L 155.115953 195.587511 
L 155.256442 195.587511 
L 155.396929 194.670768 
L 155.432346 194.670768 
L 155.607663 192.837282 
L 155.748149 192.837282 
L 155.888635 191.920539 
L 155.994263 191.920539 
L 156.134723 191.003796 
L 156.169606 191.003796 
L 156.380341 188.253567 
L 156.450584 188.253567 
L 156.696623 186.420081 
L 156.731561 186.420081 
L 156.872047 185.503338 
L 156.907409 185.503338 
L 157.047945 184.586595 
L 157.188127 184.586595 
L 157.363751 182.753109 
L 157.539657 182.753109 
L 157.680097 181.836366 
L 157.78521 181.836366 
L 157.961038 180.919622 
L 158.066188 180.919622 
L 158.24203 179.086136 
L 158.347167 179.086136 
L 158.522793 177.25265 
L 158.768627 177.25265 
L 158.909116 176.335907 
L 158.944509 176.335907 
L 159.08499 175.419164 
L 159.190092 175.419164 
L 159.330578 174.502421 
L 159.365863 174.502421 
L 159.506318 173.585678 
L 159.541314 173.585678 
L 159.681798 172.668935 
L 159.857455 172.668935 
L 159.998116 171.752192 
L 160.138622 171.752192 
L 160.279126 170.835449 
L 160.349364 170.835449 
L 160.489584 169.918706 
L 160.559984 169.918706 
L 160.700485 169.001963 
L 160.911337 169.001963 
L 161.051756 168.08522 
L 161.192114 168.08522 
L 161.332837 167.168477 
L 161.437898 167.168477 
L 161.578386 166.251734 
L 161.648629 166.251734 
L 161.824248 164.418247 
L 161.929606 164.418247 
L 162.070096 163.501504 
L 162.105392 163.501504 
L 162.245997 162.584761 
L 162.316191 162.584761 
L 162.491559 160.751275 
L 162.632047 160.751275 
L 162.772536 159.834532 
L 162.878157 159.834532 
L 163.018607 158.917789 
L 163.053513 158.917789 
L 163.229315 158.001046 
L 163.264244 158.001046 
L 163.404732 157.084303 
L 163.474976 157.084303 
L 163.650861 155.250817 
L 163.826194 155.250817 
L 163.966687 154.334074 
L 164.002065 154.334074 
L 164.142579 153.417331 
L 164.212704 153.417331 
L 164.388151 151.583845 
L 164.634303 151.583845 
L 164.774774 150.667102 
L 164.844997 150.667102 
L 164.985467 149.750359 
L 165.160831 149.750359 
L 165.301319 148.833615 
L 165.512055 148.833615 
L 165.652542 147.916872 
L 165.68791 147.916872 
L 165.828249 147.000129 
L 165.89865 147.000129 
L 166.039057 146.083386 
L 166.214492 146.083386 
L 166.354977 145.166643 
L 166.460382 145.166643 
L 166.601129 144.2499 
L 166.671371 144.2499 
L 166.846686 142.416414 
L 167.268152 142.416414 
L 167.408639 141.499671 
L 167.47888 141.499671 
L 167.61937 140.582928 
L 167.689617 140.582928 
L 167.865445 139.666185 
L 168.006 139.666185 
L 168.146475 138.749442 
L 168.567939 138.749442 
L 168.70834 137.832699 
L 168.989335 137.832699 
L 169.129709 136.915956 
L 169.551377 136.915956 
L 169.656445 135.999213 
L 169.867176 135.999213 
L 170.007666 135.08247 
L 170.18347 135.08247 
L 170.323925 134.165727 
L 177.593996 134.165727 
L 177.769835 133.248983 
L 177.874967 133.248983 
L 178.015458 132.33224 
L 178.155945 132.33224 
L 178.29687 131.415497 
L 178.401968 131.415497 
L 178.542511 130.498754 
L 178.683063 130.498754 
L 178.823515 129.582011 
L 178.929081 129.582011 
L 179.104501 128.665268 
L 179.279848 128.665268 
L 179.420334 127.748525 
L 179.560823 127.748525 
L 179.736632 126.831782 
L 179.947393 126.831782 
L 180.087808 125.915039 
L 180.228442 125.915039 
L 180.368764 124.998296 
L 180.61448 124.998296 
L 180.754969 124.081553 
L 180.895456 124.081553 
L 181.071296 123.16481 
L 181.106188 123.16481 
L 181.246676 122.248067 
L 181.527652 122.248067 
L 181.70343 121.331324 
L 182.230414 121.331324 
L 182.405927 120.414581 
L 185.812524 120.414581 
L 185.953013 119.497838 
L 186.093498 119.497838 
L 186.234338 118.581095 
L 186.444722 118.581095 
L 186.585206 117.664352 
L 186.76105 117.664352 
L 186.901299 116.747608 
L 187.11224 116.747608 
L 187.252744 115.830865 
L 187.323018 115.830865 
L 187.463477 114.914122 
L 187.498739 114.914122 
L 187.674187 113.997379 
L 187.884988 113.997379 
L 188.025431 113.080636 
L 188.235964 113.080636 
L 188.376687 112.163893 
L 188.692519 112.163893 
L 188.833389 111.24715 
L 189.00889 111.24715 
L 189.149353 110.330407 
L 190.132682 110.330407 
L 190.273159 109.413664 
L 190.589108 109.413664 
L 190.729596 108.496921 
L 190.94033 108.496921 
L 191.080815 107.580178 
L 191.116099 107.580178 
L 191.291546 105.746692 
L 191.397138 105.746692 
L 191.607821 102.996463 
L 191.713006 102.996463 
L 191.853495 102.07972 
L 191.88886 102.07972 
L 192.064226 100.246233 
L 192.204715 100.246233 
L 192.345203 99.32949 
L 192.380511 99.32949 
L 192.521029 98.412747 
L 192.661606 98.412747 
L 192.837384 96.579261 
L 192.872084 96.579261 
L 193.04764 94.745775 
L 193.117887 94.745775 
L 193.293605 92.912289 
L 193.328616 92.912289 
L 193.469549 91.995546 
L 193.539347 91.995546 
L 193.679832 91.078803 
L 193.960808 91.078803 
L 194.101298 90.16206 
L 194.277142 89.245317 
L 194.312032 89.245317 
L 194.45252 88.328574 
L 194.663246 88.328574 
L 194.804053 87.411831 
L 207.307161 87.411831 
L 207.482993 86.495088 
L 290.054605 86.495088 
L 290.195092 85.578345 
L 293.356075 85.578345 
L 293.496566 84.661601 
L 294.62047 84.661601 
L 294.760958 83.744858 
L 295.463399 83.744858 
L 295.603886 82.828115 
L 296.306326 82.828115 
L 296.447231 81.911372 
L 297.07942 81.911372 
L 297.254882 80.994629 
L 297.816633 80.994629 
L 297.957214 80.077886 
L 324.825479 80.077886 
L 324.965969 79.161143 
L 325.668411 79.161143 
L 325.808898 78.2444 
L 326.441095 78.2444 
L 326.581587 77.327657 
L 327.108704 77.327657 
L 327.249233 76.410914 
L 327.845974 76.410914 
L 327.986465 75.494171 
L 328.337688 75.494171 
L 328.478172 74.577428 
L 328.759149 74.577428 
L 328.900071 73.660685 
L 329.286268 73.660685 
L 329.426742 72.743942 
L 329.848204 72.743942 
L 329.988632 71.827199 
L 330.410102 71.827199 
L 330.550603 70.910456 
L 331.006959 70.910456 
L 331.147448 69.993713 
L 331.498669 69.993713 
L 331.674479 69.07697 
L 331.920127 69.07697 
L 332.060617 68.160226 
L 332.30661 68.160226 
L 332.447215 67.243483 
L 332.517452 67.243483 
L 332.657812 66.32674 
L 332.90354 66.32674 
L 333.04403 65.409997 
L 333.149712 65.409997 
L 333.290146 64.493254 
L 333.325008 64.493254 
L 333.465491 63.576511 
L 333.570872 63.576511 
L 333.711583 62.659768 
L 333.781845 62.659768 
L 333.922326 61.743025 
L 333.957199 61.743025 
L 334.133109 59.909539 
L 334.238178 59.909539 
L 334.378662 58.992796 
L 334.414037 58.992796 
L 334.589391 57.15931 
L 334.624825 57.15931 
L 334.800124 55.325824 
L 335.327175 49.825365 
L 335.362072 49.825365 
L 335.572801 47.075136 
L 335.643048 47.075136 
L 335.853775 44.324907 
L 335.924024 44.324907 
L 336.099928 42.491421 
L 336.134752 42.491421 
L 336.380856 40.657935 
L 336.415726 40.657935 
L 336.591549 38.824449 
L 336.766946 38.824449 
L 336.94272 37.907706 
L 438.093843 37.907706 
L 438.23425 36.990963 
L 450 36.990963 
L 450 36.990963 
" clip-path="url(#p212953b31c)" style="fill: none; stroke: #9467bd; stroke-width: 1.5; stroke-linecap: square"/>
   </g>
   <g id="patch_3">
    <path d="M 51.05 279.561175 
L 51.05 25.44 
" style="fill: none; stroke: #000000; stroke-width: 0.8; stroke-linejoin: miter; stroke-linecap: square"/>
   </g>
   <g id="patch_4">
    <path d="M 450 279.561175 
L 450 25.44 
" style="fill: none; stroke: #000000; stroke-width: 0.8; stroke-linejoin: miter; stroke-linecap: square"/>
   </g>
   <g id="patch_5">
    <path d="M 51.05 279.561175 
L 450 279.561175 
" style="fill: none; stroke: #000000; stroke-width: 0.8; stroke-linejoin: miter; stroke-linecap: square"/>
   </g>
   <g id="patch_6">
    <path d="M 51.05 25.44 
L 450 25.44 
" style="fill: none; stroke: #000000; stroke-width: 0.8; stroke-linejoin: miter; stroke-linecap: square"/>
   </g>
   <g id="text_17">
    <!-- November 2023 -->
    <g transform="translate(202.133125 19.44) scale(0.12 -0.12)">
     <defs>
      <path id="DejaVuSans-4e" d="M 628 4666 
L 1478 4666 
L 3547 763 
L 3547 4666 
L 4159 4666 
L 4159 0 
L 3309 0 
L 1241 3903 
L 1241 0 
L 628 0 
L 628 4666 
z
" transform="scale(0.015625)"/>
      <path id="DejaVuSans-6f" d="M 1959 3097 
Q 1497 3097 1228 2736 
Q 959 2375 959 1747 
Q 959 1119 1226 758 
Q 1494 397 1959 397 
Q 2419 397 2687 759 
Q 2956 1122 2956 1747 
Q 2956 2369 2687 2733 
Q 2419 3097 1959 3097 
z
M 1959 3584 
Q 2709 3584 3137 3096 
Q 3566 2609 3566 1747 
Q 3566 888 3137 398 
Q 2709 -91 1959 -91 
Q 1206 -91 779 398 
Q 353 888 353 1747 
Q 353 2609 779 3096 
Q 1206 3584 1959 3584 
z
" transform="scale(0.015625)"/>
      <path id="DejaVuSans-76" d="M 191 3500 
L 800 3500 
L 1894 563 
L 2988 3500 
L 3597 3500 
L 2284 0 
L 1503 0 
L 191 3500 
z
" transform="scale(0.015625)"/>
      <path id="DejaVuSans-65" d="M 3597 1894 
L 3597 1613 
L 953 1613 
Q 991 1019 1311 708 
Q 1631 397 2203 397 
Q 2534 397 2845 478 
Q 3156 559 3463 722 
L 3463 178 
Q 3153 47 2828 -22 
Q 2503 -91 2169 -91 
Q 1331 -91 842 396 
Q 353 884 353 1716 
Q 353 2575 817 3079 
Q 1281 3584 2069 3584 
Q 2775 3584 3186 3129 
Q 3597 2675 3597 1894 
z
M 3022 2063 
Q 3016 2534 2758 2815 
Q 2500 3097 2075 3097 
Q 1594 3097 1305 2825 
Q 1016 2553 972 2059 
L 3022 2063 
z
" transform="scale(0.015625)"/>
      <path id="DejaVuSans-62" d="M 3116 1747 
Q 3116 2381 2855 2742 
Q 2594 3103 2138 3103 
Q 1681 3103 1420 2742 
Q 1159 2381 1159 1747 
Q 1159 1113 1420 752 
Q 1681 391 2138 391 
Q 2594 391 2855 752 
Q 3116 1113 3116 1747 
z
M 1159 2969 
Q 1341 3281 1617 3432 
Q 1894 3584 2278 3584 
Q 2916 3584 3314 3078 
Q 3713 2572 3713 1747 
Q 3713 922 3314 415 
Q 2916 -91 2278 -91 
Q 1894 -91 1617 61 
Q 1341 213 1159 525 
L 1159 0 
L 581 0 
L 581 4863 
L 1159 4863 
L 1159 2969 
z
" transform="scale(0.015625)"/>
      <path id="DejaVuSans-72" d="M 2631 2963 
Q 2534 3019 2420 3045 
Q 2306 3072 2169 3072 
Q 1681 3072 1420 2755 
Q 1159 2438 1159 1844 
L 1159 0 
L 581 0 
L 581 3500 
L 1159 3500 
L 1159 2956 
Q 1341 3275 1631 3429 
Q 1922 3584 2338 3584 
Q 2397 3584 2469 3576 
Q 2541 3569 2628 3553 
L 2631 2963 
z
" transform="scale(0.015625)"/>
     </defs>
     <use xlink:href="#DejaVuSans-4e"/>
     <use xlink:href="#DejaVuSans-6f" x="74.804688"/>
     <use xlink:href="#DejaVuSans-76" x="135.986328"/>
     <use xlink:href="#DejaVuSans-65" x="195.166016"/>
     <use xlink:href="#DejaVuSans-6d" x="256.689453"/>
     <use xlink:href="#DejaVuSans-62" x="354.101562"/>
     <use xlink:href="#DejaVuSans-65" x="417.578125"/>
     <use xlink:href="#DejaVuSans-72" x="479.101562"/>
     <use xlink:href="#DejaVuSans-20" x="520.214844"/>
     <use xlink:href="#DejaVuSans-32" x="552.001953"/>
     <use xlink:href="#DejaVuSans-30" x="615.625"/>
     <use xlink:href="#DejaVuSans-32" x="679.248047"/>
     <use xlink:href="#DejaVuSans-33" x="742.871094"/>
    </g>
   </g>
  </g>
 </g>
 <defs>
  <clipPath id="p212953b31c">
   <rect x="51.05" y="25.44" width="398.95" height="254.121175"/>
  </clipPath>
 </defs>
</svg>
