<?xml version="1.0" encoding="utf-8" standalone="no"?>
<!DOCTYPE svg PUBLIC "-//W3C//DTD SVG 1.1//EN"
  "http://www.w3.org/Graphics/SVG/1.1/DTD/svg11.dtd">
<svg xmlns:xlink="http://www.w3.org/1999/xlink" width="460.8pt" height="345.6pt" viewBox="0 0 460.8 345.6" xmlns="http://www.w3.org/2000/svg" version="1.1">
 <metadata>
  <rdf:RDF xmlns:dc="http://purl.org/dc/elements/1.1/" xmlns:cc="http://creativecommons.org/ns#" xmlns:rdf="http://www.w3.org/1999/02/22-rdf-syntax-ns#">
   <cc:Work>
    <dc:type rdf:resource="http://purl.org/dc/dcmitype/StillImage"/>
    <dc:date>2023-11-10T15:47:11.752060</dc:date>
    <dc:format>image/svg+xml</dc:format>
    <dc:creator>
     <cc:Agent>
      <dc:title>Matplotlib v3.6.3, https://matplotlib.org/</dc:title>
     </cc:Agent>
    </dc:creator>
   </cc:Work>
  </rdf:RDF>
 </metadata>
 <defs>
  <style type="text/css">*{stroke-linejoin: round; stroke-linecap: butt}</style>
 </defs>
 <g id="figure_1">
  <g id="patch_1">
   <path d="M 0 345.6 
L 460.8 345.6 
L 460.8 0 
L 0 0 
z
" style="fill: #ffffff"/>
  </g>
  <g id="axes_1">
   <g id="patch_2">
    <path d="M 51.05 279.561175 
L 450 279.561175 
L 450 25.44 
L 51.05 25.44 
z
" style="fill: #ffffff"/>
   </g>
   <g id="matplotlib.axis_1">
    <g id="xtick_1">
     <g id="line2d_1">
      <path d="M 92.344176 279.561175 
L 92.344176 25.44 
" clip-path="url(#p71f7a4918c)" style="fill: none; stroke: #b0b0b0; stroke-width: 0.8; stroke-linecap: square"/>
     </g>
     <g id="line2d_2">
      <defs>
       <path id="md1a62f7668" d="M 0 0 
L 0 3.5 
" style="stroke: #000000; stroke-width: 0.8"/>
      </defs>
      <g>
       <use xlink:href="#md1a62f7668" x="92.344176" y="279.561175" style="stroke: #000000; stroke-width: 0.8"/>
      </g>
     </g>
     <g id="text_1">
      <!-- 2023-11-02 -->
      <g transform="translate(49.779662 333.028035) rotate(-45) scale(0.1 -0.1)">
       <defs>
        <path id="DejaVuSans-32" d="M 1228 531 
L 3431 531 
L 3431 0 
L 469 0 
L 469 531 
Q 828 903 1448 1529 
Q 2069 2156 2228 2338 
Q 2531 2678 2651 2914 
Q 2772 3150 2772 3378 
Q 2772 3750 2511 3984 
Q 2250 4219 1831 4219 
Q 1534 4219 1204 4116 
Q 875 4013 500 3803 
L 500 4441 
Q 881 4594 1212 4672 
Q 1544 4750 1819 4750 
Q 2544 4750 2975 4387 
Q 3406 4025 3406 3419 
Q 3406 3131 3298 2873 
Q 3191 2616 2906 2266 
Q 2828 2175 2409 1742 
Q 1991 1309 1228 531 
z
" transform="scale(0.015625)"/>
        <path id="DejaVuSans-30" d="M 2034 4250 
Q 1547 4250 1301 3770 
Q 1056 3291 1056 2328 
Q 1056 1369 1301 889 
Q 1547 409 2034 409 
Q 2525 409 2770 889 
Q 3016 1369 3016 2328 
Q 3016 3291 2770 3770 
Q 2525 4250 2034 4250 
z
M 2034 4750 
Q 2819 4750 3233 4129 
Q 3647 3509 3647 2328 
Q 3647 1150 3233 529 
Q 2819 -91 2034 -91 
Q 1250 -91 836 529 
Q 422 1150 422 2328 
Q 422 3509 836 4129 
Q 1250 4750 2034 4750 
z
" transform="scale(0.015625)"/>
        <path id="DejaVuSans-33" d="M 2597 2516 
Q 3050 2419 3304 2112 
Q 3559 1806 3559 1356 
Q 3559 666 3084 287 
Q 2609 -91 1734 -91 
Q 1441 -91 1130 -33 
Q 819 25 488 141 
L 488 750 
Q 750 597 1062 519 
Q 1375 441 1716 441 
Q 2309 441 2620 675 
Q 2931 909 2931 1356 
Q 2931 1769 2642 2001 
Q 2353 2234 1838 2234 
L 1294 2234 
L 1294 2753 
L 1863 2753 
Q 2328 2753 2575 2939 
Q 2822 3125 2822 3475 
Q 2822 3834 2567 4026 
Q 2313 4219 1838 4219 
Q 1578 4219 1281 4162 
Q 984 4106 628 3988 
L 628 4550 
Q 988 4650 1302 4700 
Q 1616 4750 1894 4750 
Q 2613 4750 3031 4423 
Q 3450 4097 3450 3541 
Q 3450 3153 3228 2886 
Q 3006 2619 2597 2516 
z
" transform="scale(0.015625)"/>
        <path id="DejaVuSans-2d" d="M 313 2009 
L 1997 2009 
L 1997 1497 
L 313 1497 
L 313 2009 
z
" transform="scale(0.015625)"/>
        <path id="DejaVuSans-31" d="M 794 531 
L 1825 531 
L 1825 4091 
L 703 3866 
L 703 4441 
L 1819 4666 
L 2450 4666 
L 2450 531 
L 3481 531 
L 3481 0 
L 794 0 
L 794 531 
z
" transform="scale(0.015625)"/>
       </defs>
       <use xlink:href="#DejaVuSans-32"/>
       <use xlink:href="#DejaVuSans-30" x="63.623047"/>
       <use xlink:href="#DejaVuSans-32" x="127.246094"/>
       <use xlink:href="#DejaVuSans-33" x="190.869141"/>
       <use xlink:href="#DejaVuSans-2d" x="254.492188"/>
       <use xlink:href="#DejaVuSans-31" x="290.576172"/>
       <use xlink:href="#DejaVuSans-31" x="354.199219"/>
       <use xlink:href="#DejaVuSans-2d" x="417.822266"/>
       <use xlink:href="#DejaVuSans-30" x="453.90625"/>
       <use xlink:href="#DejaVuSans-32" x="517.529297"/>
      </g>
     </g>
    </g>
    <g id="xtick_2">
     <g id="line2d_3">
      <path d="M 133.660332 279.561175 
L 133.660332 25.44 
" clip-path="url(#p71f7a4918c)" style="fill: none; stroke: #b0b0b0; stroke-width: 0.8; stroke-linecap: square"/>
     </g>
     <g id="line2d_4">
      <g>
       <use xlink:href="#md1a62f7668" x="133.660332" y="279.561175" style="stroke: #000000; stroke-width: 0.8"/>
      </g>
     </g>
     <g id="text_2">
      <!-- 2023-11-03 -->
      <g transform="translate(91.095818 333.028035) rotate(-45) scale(0.1 -0.1)">
       <use xlink:href="#DejaVuSans-32"/>
       <use xlink:href="#DejaVuSans-30" x="63.623047"/>
       <use xlink:href="#DejaVuSans-32" x="127.246094"/>
       <use xlink:href="#DejaVuSans-33" x="190.869141"/>
       <use xlink:href="#DejaVuSans-2d" x="254.492188"/>
       <use xlink:href="#DejaVuSans-31" x="290.576172"/>
       <use xlink:href="#DejaVuSans-31" x="354.199219"/>
       <use xlink:href="#DejaVuSans-2d" x="417.822266"/>
       <use xlink:href="#DejaVuSans-30" x="453.90625"/>
       <use xlink:href="#DejaVuSans-33" x="517.529297"/>
      </g>
     </g>
    </g>
    <g id="xtick_3">
     <g id="line2d_5">
      <path d="M 174.976488 279.561175 
L 174.976488 25.44 
" clip-path="url(#p71f7a4918c)" style="fill: none; stroke: #b0b0b0; stroke-width: 0.8; stroke-linecap: square"/>
     </g>
     <g id="line2d_6">
      <g>
       <use xlink:href="#md1a62f7668" x="174.976488" y="279.561175" style="stroke: #000000; stroke-width: 0.8"/>
      </g>
     </g>
     <g id="text_3">
      <!-- 2023-11-04 -->
      <g transform="translate(132.411974 333.028035) rotate(-45) scale(0.1 -0.1)">
       <defs>
        <path id="DejaVuSans-34" d="M 2419 4116 
L 825 1625 
L 2419 1625 
L 2419 4116 
z
M 2253 4666 
L 3047 4666 
L 3047 1625 
L 3713 1625 
L 3713 1100 
L 3047 1100 
L 3047 0 
L 2419 0 
L 2419 1100 
L 313 1100 
L 313 1709 
L 2253 4666 
z
" transform="scale(0.015625)"/>
       </defs>
       <use xlink:href="#DejaVuSans-32"/>
       <use xlink:href="#DejaVuSans-30" x="63.623047"/>
       <use xlink:href="#DejaVuSans-32" x="127.246094"/>
       <use xlink:href="#DejaVuSans-33" x="190.869141"/>
       <use xlink:href="#DejaVuSans-2d" x="254.492188"/>
       <use xlink:href="#DejaVuSans-31" x="290.576172"/>
       <use xlink:href="#DejaVuSans-31" x="354.199219"/>
       <use xlink:href="#DejaVuSans-2d" x="417.822266"/>
       <use xlink:href="#DejaVuSans-30" x="453.90625"/>
       <use xlink:href="#DejaVuSans-34" x="517.529297"/>
      </g>
     </g>
    </g>
    <g id="xtick_4">
     <g id="line2d_7">
      <path d="M 216.292644 279.561175 
L 216.292644 25.44 
" clip-path="url(#p71f7a4918c)" style="fill: none; stroke: #b0b0b0; stroke-width: 0.8; stroke-linecap: square"/>
     </g>
     <g id="line2d_8">
      <g>
       <use xlink:href="#md1a62f7668" x="216.292644" y="279.561175" style="stroke: #000000; stroke-width: 0.8"/>
      </g>
     </g>
     <g id="text_4">
      <!-- 2023-11-05 -->
      <g transform="translate(173.72813 333.028035) rotate(-45) scale(0.1 -0.1)">
       <defs>
        <path id="DejaVuSans-35" d="M 691 4666 
L 3169 4666 
L 3169 4134 
L 1269 4134 
L 1269 2991 
Q 1406 3038 1543 3061 
Q 1681 3084 1819 3084 
Q 2600 3084 3056 2656 
Q 3513 2228 3513 1497 
Q 3513 744 3044 326 
Q 2575 -91 1722 -91 
Q 1428 -91 1123 -41 
Q 819 9 494 109 
L 494 744 
Q 775 591 1075 516 
Q 1375 441 1709 441 
Q 2250 441 2565 725 
Q 2881 1009 2881 1497 
Q 2881 1984 2565 2268 
Q 2250 2553 1709 2553 
Q 1456 2553 1204 2497 
Q 953 2441 691 2322 
L 691 4666 
z
" transform="scale(0.015625)"/>
       </defs>
       <use xlink:href="#DejaVuSans-32"/>
       <use xlink:href="#DejaVuSans-30" x="63.623047"/>
       <use xlink:href="#DejaVuSans-32" x="127.246094"/>
       <use xlink:href="#DejaVuSans-33" x="190.869141"/>
       <use xlink:href="#DejaVuSans-2d" x="254.492188"/>
       <use xlink:href="#DejaVuSans-31" x="290.576172"/>
       <use xlink:href="#DejaVuSans-31" x="354.199219"/>
       <use xlink:href="#DejaVuSans-2d" x="417.822266"/>
       <use xlink:href="#DejaVuSans-30" x="453.90625"/>
       <use xlink:href="#DejaVuSans-35" x="517.529297"/>
      </g>
     </g>
    </g>
    <g id="xtick_5">
     <g id="line2d_9">
      <path d="M 257.6088 279.561175 
L 257.6088 25.44 
" clip-path="url(#p71f7a4918c)" style="fill: none; stroke: #b0b0b0; stroke-width: 0.8; stroke-linecap: square"/>
     </g>
     <g id="line2d_10">
      <g>
       <use xlink:href="#md1a62f7668" x="257.6088" y="279.561175" style="stroke: #000000; stroke-width: 0.8"/>
      </g>
     </g>
     <g id="text_5">
      <!-- 2023-11-06 -->
      <g transform="translate(215.044287 333.028035) rotate(-45) scale(0.1 -0.1)">
       <defs>
        <path id="DejaVuSans-36" d="M 2113 2584 
Q 1688 2584 1439 2293 
Q 1191 2003 1191 1497 
Q 1191 994 1439 701 
Q 1688 409 2113 409 
Q 2538 409 2786 701 
Q 3034 994 3034 1497 
Q 3034 2003 2786 2293 
Q 2538 2584 2113 2584 
z
M 3366 4563 
L 3366 3988 
Q 3128 4100 2886 4159 
Q 2644 4219 2406 4219 
Q 1781 4219 1451 3797 
Q 1122 3375 1075 2522 
Q 1259 2794 1537 2939 
Q 1816 3084 2150 3084 
Q 2853 3084 3261 2657 
Q 3669 2231 3669 1497 
Q 3669 778 3244 343 
Q 2819 -91 2113 -91 
Q 1303 -91 875 529 
Q 447 1150 447 2328 
Q 447 3434 972 4092 
Q 1497 4750 2381 4750 
Q 2619 4750 2861 4703 
Q 3103 4656 3366 4563 
z
" transform="scale(0.015625)"/>
       </defs>
       <use xlink:href="#DejaVuSans-32"/>
       <use xlink:href="#DejaVuSans-30" x="63.623047"/>
       <use xlink:href="#DejaVuSans-32" x="127.246094"/>
       <use xlink:href="#DejaVuSans-33" x="190.869141"/>
       <use xlink:href="#DejaVuSans-2d" x="254.492188"/>
       <use xlink:href="#DejaVuSans-31" x="290.576172"/>
       <use xlink:href="#DejaVuSans-31" x="354.199219"/>
       <use xlink:href="#DejaVuSans-2d" x="417.822266"/>
       <use xlink:href="#DejaVuSans-30" x="453.90625"/>
       <use xlink:href="#DejaVuSans-36" x="517.529297"/>
      </g>
     </g>
    </g>
    <g id="xtick_6">
     <g id="line2d_11">
      <path d="M 298.924956 279.561175 
L 298.924956 25.44 
" clip-path="url(#p71f7a4918c)" style="fill: none; stroke: #b0b0b0; stroke-width: 0.8; stroke-linecap: square"/>
     </g>
     <g id="line2d_12">
      <g>
       <use xlink:href="#md1a62f7668" x="298.924956" y="279.561175" style="stroke: #000000; stroke-width: 0.8"/>
      </g>
     </g>
     <g id="text_6">
      <!-- 2023-11-07 -->
      <g transform="translate(256.360443 333.028035) rotate(-45) scale(0.1 -0.1)">
       <defs>
        <path id="DejaVuSans-37" d="M 525 4666 
L 3525 4666 
L 3525 4397 
L 1831 0 
L 1172 0 
L 2766 4134 
L 525 4134 
L 525 4666 
z
" transform="scale(0.015625)"/>
       </defs>
       <use xlink:href="#DejaVuSans-32"/>
       <use xlink:href="#DejaVuSans-30" x="63.623047"/>
       <use xlink:href="#DejaVuSans-32" x="127.246094"/>
       <use xlink:href="#DejaVuSans-33" x="190.869141"/>
       <use xlink:href="#DejaVuSans-2d" x="254.492188"/>
       <use xlink:href="#DejaVuSans-31" x="290.576172"/>
       <use xlink:href="#DejaVuSans-31" x="354.199219"/>
       <use xlink:href="#DejaVuSans-2d" x="417.822266"/>
       <use xlink:href="#DejaVuSans-30" x="453.90625"/>
       <use xlink:href="#DejaVuSans-37" x="517.529297"/>
      </g>
     </g>
    </g>
    <g id="xtick_7">
     <g id="line2d_13">
      <path d="M 340.241112 279.561175 
L 340.241112 25.44 
" clip-path="url(#p71f7a4918c)" style="fill: none; stroke: #b0b0b0; stroke-width: 0.8; stroke-linecap: square"/>
     </g>
     <g id="line2d_14">
      <g>
       <use xlink:href="#md1a62f7668" x="340.241112" y="279.561175" style="stroke: #000000; stroke-width: 0.8"/>
      </g>
     </g>
     <g id="text_7">
      <!-- 2023-11-08 -->
      <g transform="translate(297.676599 333.028035) rotate(-45) scale(0.1 -0.1)">
       <defs>
        <path id="DejaVuSans-38" d="M 2034 2216 
Q 1584 2216 1326 1975 
Q 1069 1734 1069 1313 
Q 1069 891 1326 650 
Q 1584 409 2034 409 
Q 2484 409 2743 651 
Q 3003 894 3003 1313 
Q 3003 1734 2745 1975 
Q 2488 2216 2034 2216 
z
M 1403 2484 
Q 997 2584 770 2862 
Q 544 3141 544 3541 
Q 544 4100 942 4425 
Q 1341 4750 2034 4750 
Q 2731 4750 3128 4425 
Q 3525 4100 3525 3541 
Q 3525 3141 3298 2862 
Q 3072 2584 2669 2484 
Q 3125 2378 3379 2068 
Q 3634 1759 3634 1313 
Q 3634 634 3220 271 
Q 2806 -91 2034 -91 
Q 1263 -91 848 271 
Q 434 634 434 1313 
Q 434 1759 690 2068 
Q 947 2378 1403 2484 
z
M 1172 3481 
Q 1172 3119 1398 2916 
Q 1625 2713 2034 2713 
Q 2441 2713 2670 2916 
Q 2900 3119 2900 3481 
Q 2900 3844 2670 4047 
Q 2441 4250 2034 4250 
Q 1625 4250 1398 4047 
Q 1172 3844 1172 3481 
z
" transform="scale(0.015625)"/>
       </defs>
       <use xlink:href="#DejaVuSans-32"/>
       <use xlink:href="#DejaVuSans-30" x="63.623047"/>
       <use xlink:href="#DejaVuSans-32" x="127.246094"/>
       <use xlink:href="#DejaVuSans-33" x="190.869141"/>
       <use xlink:href="#DejaVuSans-2d" x="254.492188"/>
       <use xlink:href="#DejaVuSans-31" x="290.576172"/>
       <use xlink:href="#DejaVuSans-31" x="354.199219"/>
       <use xlink:href="#DejaVuSans-2d" x="417.822266"/>
       <use xlink:href="#DejaVuSans-30" x="453.90625"/>
       <use xlink:href="#DejaVuSans-38" x="517.529297"/>
      </g>
     </g>
    </g>
    <g id="xtick_8">
     <g id="line2d_15">
      <path d="M 381.557269 279.561175 
L 381.557269 25.44 
" clip-path="url(#p71f7a4918c)" style="fill: none; stroke: #b0b0b0; stroke-width: 0.8; stroke-linecap: square"/>
     </g>
     <g id="line2d_16">
      <g>
       <use xlink:href="#md1a62f7668" x="381.557269" y="279.561175" style="stroke: #000000; stroke-width: 0.8"/>
      </g>
     </g>
     <g id="text_8">
      <!-- 2023-11-09 -->
      <g transform="translate(338.992755 333.028035) rotate(-45) scale(0.1 -0.1)">
       <defs>
        <path id="DejaVuSans-39" d="M 703 97 
L 703 672 
Q 941 559 1184 500 
Q 1428 441 1663 441 
Q 2288 441 2617 861 
Q 2947 1281 2994 2138 
Q 2813 1869 2534 1725 
Q 2256 1581 1919 1581 
Q 1219 1581 811 2004 
Q 403 2428 403 3163 
Q 403 3881 828 4315 
Q 1253 4750 1959 4750 
Q 2769 4750 3195 4129 
Q 3622 3509 3622 2328 
Q 3622 1225 3098 567 
Q 2575 -91 1691 -91 
Q 1453 -91 1209 -44 
Q 966 3 703 97 
z
M 1959 2075 
Q 2384 2075 2632 2365 
Q 2881 2656 2881 3163 
Q 2881 3666 2632 3958 
Q 2384 4250 1959 4250 
Q 1534 4250 1286 3958 
Q 1038 3666 1038 3163 
Q 1038 2656 1286 2365 
Q 1534 2075 1959 2075 
z
" transform="scale(0.015625)"/>
       </defs>
       <use xlink:href="#DejaVuSans-32"/>
       <use xlink:href="#DejaVuSans-30" x="63.623047"/>
       <use xlink:href="#DejaVuSans-32" x="127.246094"/>
       <use xlink:href="#DejaVuSans-33" x="190.869141"/>
       <use xlink:href="#DejaVuSans-2d" x="254.492188"/>
       <use xlink:href="#DejaVuSans-31" x="290.576172"/>
       <use xlink:href="#DejaVuSans-31" x="354.199219"/>
       <use xlink:href="#DejaVuSans-2d" x="417.822266"/>
       <use xlink:href="#DejaVuSans-30" x="453.90625"/>
       <use xlink:href="#DejaVuSans-39" x="517.529297"/>
      </g>
     </g>
    </g>
    <g id="xtick_9">
     <g id="line2d_17">
      <path d="M 422.873425 279.561175 
L 422.873425 25.44 
" clip-path="url(#p71f7a4918c)" style="fill: none; stroke: #b0b0b0; stroke-width: 0.8; stroke-linecap: square"/>
     </g>
     <g id="line2d_18">
      <g>
       <use xlink:href="#md1a62f7668" x="422.873425" y="279.561175" style="stroke: #000000; stroke-width: 0.8"/>
      </g>
     </g>
     <g id="text_9">
      <!-- 2023-11-10 -->
      <g transform="translate(380.308911 333.028035) rotate(-45) scale(0.1 -0.1)">
       <use xlink:href="#DejaVuSans-32"/>
       <use xlink:href="#DejaVuSans-30" x="63.623047"/>
       <use xlink:href="#DejaVuSans-32" x="127.246094"/>
       <use xlink:href="#DejaVuSans-33" x="190.869141"/>
       <use xlink:href="#DejaVuSans-2d" x="254.492188"/>
       <use xlink:href="#DejaVuSans-31" x="290.576172"/>
       <use xlink:href="#DejaVuSans-31" x="354.199219"/>
       <use xlink:href="#DejaVuSans-2d" x="417.822266"/>
       <use xlink:href="#DejaVuSans-31" x="453.90625"/>
       <use xlink:href="#DejaVuSans-30" x="517.529297"/>
      </g>
     </g>
    </g>
   </g>
   <g id="matplotlib.axis_2">
    <g id="ytick_1">
     <g id="line2d_19">
      <path d="M 51.05 279.561175 
L 450 279.561175 
" clip-path="url(#p71f7a4918c)" style="fill: none; stroke: #b0b0b0; stroke-width: 0.8; stroke-linecap: square"/>
     </g>
     <g id="line2d_20">
      <defs>
       <path id="m8454db44ea" d="M 0 0 
L -3.5 0 
" style="stroke: #000000; stroke-width: 0.8"/>
      </defs>
      <g>
       <use xlink:href="#m8454db44ea" x="51.05" y="279.561175" style="stroke: #000000; stroke-width: 0.8"/>
      </g>
     </g>
     <g id="text_10">
      <!-- 0 -->
      <g transform="translate(37.6875 283.360394) scale(0.1 -0.1)">
       <use xlink:href="#DejaVuSans-30"/>
      </g>
     </g>
    </g>
    <g id="ytick_2">
     <g id="line2d_21">
      <path d="M 51.05 228.73694 
L 450 228.73694 
" clip-path="url(#p71f7a4918c)" style="fill: none; stroke: #b0b0b0; stroke-width: 0.8; stroke-linecap: square"/>
     </g>
     <g id="line2d_22">
      <g>
       <use xlink:href="#m8454db44ea" x="51.05" y="228.73694" style="stroke: #000000; stroke-width: 0.8"/>
      </g>
     </g>
     <g id="text_11">
      <!-- 20 -->
      <g transform="translate(31.325 232.536159) scale(0.1 -0.1)">
       <use xlink:href="#DejaVuSans-32"/>
       <use xlink:href="#DejaVuSans-30" x="63.623047"/>
      </g>
     </g>
    </g>
    <g id="ytick_3">
     <g id="line2d_23">
      <path d="M 51.05 177.912705 
L 450 177.912705 
" clip-path="url(#p71f7a4918c)" style="fill: none; stroke: #b0b0b0; stroke-width: 0.8; stroke-linecap: square"/>
     </g>
     <g id="line2d_24">
      <g>
       <use xlink:href="#m8454db44ea" x="51.05" y="177.912705" style="stroke: #000000; stroke-width: 0.8"/>
      </g>
     </g>
     <g id="text_12">
      <!-- 40 -->
      <g transform="translate(31.325 181.711924) scale(0.1 -0.1)">
       <use xlink:href="#DejaVuSans-34"/>
       <use xlink:href="#DejaVuSans-30" x="63.623047"/>
      </g>
     </g>
    </g>
    <g id="ytick_4">
     <g id="line2d_25">
      <path d="M 51.05 127.08847 
L 450 127.08847 
" clip-path="url(#p71f7a4918c)" style="fill: none; stroke: #b0b0b0; stroke-width: 0.8; stroke-linecap: square"/>
     </g>
     <g id="line2d_26">
      <g>
       <use xlink:href="#m8454db44ea" x="51.05" y="127.08847" style="stroke: #000000; stroke-width: 0.8"/>
      </g>
     </g>
     <g id="text_13">
      <!-- 60 -->
      <g transform="translate(31.325 130.887689) scale(0.1 -0.1)">
       <use xlink:href="#DejaVuSans-36"/>
       <use xlink:href="#DejaVuSans-30" x="63.623047"/>
      </g>
     </g>
    </g>
    <g id="ytick_5">
     <g id="line2d_27">
      <path d="M 51.05 76.264235 
L 450 76.264235 
" clip-path="url(#p71f7a4918c)" style="fill: none; stroke: #b0b0b0; stroke-width: 0.8; stroke-linecap: square"/>
     </g>
     <g id="line2d_28">
      <g>
       <use xlink:href="#m8454db44ea" x="51.05" y="76.264235" style="stroke: #000000; stroke-width: 0.8"/>
      </g>
     </g>
     <g id="text_14">
      <!-- 80 -->
      <g transform="translate(31.325 80.063454) scale(0.1 -0.1)">
       <use xlink:href="#DejaVuSans-38"/>
       <use xlink:href="#DejaVuSans-30" x="63.623047"/>
      </g>
     </g>
    </g>
    <g id="ytick_6">
     <g id="line2d_29">
      <path d="M 51.05 25.44 
L 450 25.44 
" clip-path="url(#p71f7a4918c)" style="fill: none; stroke: #b0b0b0; stroke-width: 0.8; stroke-linecap: square"/>
     </g>
     <g id="line2d_30">
      <g>
       <use xlink:href="#m8454db44ea" x="51.05" y="25.44" style="stroke: #000000; stroke-width: 0.8"/>
      </g>
     </g>
     <g id="text_15">
      <!-- 100 -->
      <g transform="translate(24.9625 29.239219) scale(0.1 -0.1)">
       <use xlink:href="#DejaVuSans-31"/>
       <use xlink:href="#DejaVuSans-30" x="63.623047"/>
       <use xlink:href="#DejaVuSans-30" x="127.246094"/>
      </g>
     </g>
    </g>
    <g id="text_16">
     <!-- Humidity [%RH] -->
     <g transform="translate(18.882812 192.647463) rotate(-90) scale(0.1 -0.1)">
      <defs>
       <path id="DejaVuSans-48" d="M 628 4666 
L 1259 4666 
L 1259 2753 
L 3553 2753 
L 3553 4666 
L 4184 4666 
L 4184 0 
L 3553 0 
L 3553 2222 
L 1259 2222 
L 1259 0 
L 628 0 
L 628 4666 
z
" transform="scale(0.015625)"/>
       <path id="DejaVuSans-75" d="M 544 1381 
L 544 3500 
L 1119 3500 
L 1119 1403 
Q 1119 906 1312 657 
Q 1506 409 1894 409 
Q 2359 409 2629 706 
Q 2900 1003 2900 1516 
L 2900 3500 
L 3475 3500 
L 3475 0 
L 2900 0 
L 2900 538 
Q 2691 219 2414 64 
Q 2138 -91 1772 -91 
Q 1169 -91 856 284 
Q 544 659 544 1381 
z
M 1991 3584 
L 1991 3584 
z
" transform="scale(0.015625)"/>
       <path id="DejaVuSans-6d" d="M 3328 2828 
Q 3544 3216 3844 3400 
Q 4144 3584 4550 3584 
Q 5097 3584 5394 3201 
Q 5691 2819 5691 2113 
L 5691 0 
L 5113 0 
L 5113 2094 
Q 5113 2597 4934 2840 
Q 4756 3084 4391 3084 
Q 3944 3084 3684 2787 
Q 3425 2491 3425 1978 
L 3425 0 
L 2847 0 
L 2847 2094 
Q 2847 2600 2669 2842 
Q 2491 3084 2119 3084 
Q 1678 3084 1418 2786 
Q 1159 2488 1159 1978 
L 1159 0 
L 581 0 
L 581 3500 
L 1159 3500 
L 1159 2956 
Q 1356 3278 1631 3431 
Q 1906 3584 2284 3584 
Q 2666 3584 2933 3390 
Q 3200 3197 3328 2828 
z
" transform="scale(0.015625)"/>
       <path id="DejaVuSans-69" d="M 603 3500 
L 1178 3500 
L 1178 0 
L 603 0 
L 603 3500 
z
M 603 4863 
L 1178 4863 
L 1178 4134 
L 603 4134 
L 603 4863 
z
" transform="scale(0.015625)"/>
       <path id="DejaVuSans-64" d="M 2906 2969 
L 2906 4863 
L 3481 4863 
L 3481 0 
L 2906 0 
L 2906 525 
Q 2725 213 2448 61 
Q 2172 -91 1784 -91 
Q 1150 -91 751 415 
Q 353 922 353 1747 
Q 353 2572 751 3078 
Q 1150 3584 1784 3584 
Q 2172 3584 2448 3432 
Q 2725 3281 2906 2969 
z
M 947 1747 
Q 947 1113 1208 752 
Q 1469 391 1925 391 
Q 2381 391 2643 752 
Q 2906 1113 2906 1747 
Q 2906 2381 2643 2742 
Q 2381 3103 1925 3103 
Q 1469 3103 1208 2742 
Q 947 2381 947 1747 
z
" transform="scale(0.015625)"/>
       <path id="DejaVuSans-74" d="M 1172 4494 
L 1172 3500 
L 2356 3500 
L 2356 3053 
L 1172 3053 
L 1172 1153 
Q 1172 725 1289 603 
Q 1406 481 1766 481 
L 2356 481 
L 2356 0 
L 1766 0 
Q 1100 0 847 248 
Q 594 497 594 1153 
L 594 3053 
L 172 3053 
L 172 3500 
L 594 3500 
L 594 4494 
L 1172 4494 
z
" transform="scale(0.015625)"/>
       <path id="DejaVuSans-79" d="M 2059 -325 
Q 1816 -950 1584 -1140 
Q 1353 -1331 966 -1331 
L 506 -1331 
L 506 -850 
L 844 -850 
Q 1081 -850 1212 -737 
Q 1344 -625 1503 -206 
L 1606 56 
L 191 3500 
L 800 3500 
L 1894 763 
L 2988 3500 
L 3597 3500 
L 2059 -325 
z
" transform="scale(0.015625)"/>
       <path id="DejaVuSans-20" transform="scale(0.015625)"/>
       <path id="DejaVuSans-5b" d="M 550 4863 
L 1875 4863 
L 1875 4416 
L 1125 4416 
L 1125 -397 
L 1875 -397 
L 1875 -844 
L 550 -844 
L 550 4863 
z
" transform="scale(0.015625)"/>
       <path id="DejaVuSans-25" d="M 4653 2053 
Q 4381 2053 4226 1822 
Q 4072 1591 4072 1178 
Q 4072 772 4226 539 
Q 4381 306 4653 306 
Q 4919 306 5073 539 
Q 5228 772 5228 1178 
Q 5228 1588 5073 1820 
Q 4919 2053 4653 2053 
z
M 4653 2450 
Q 5147 2450 5437 2106 
Q 5728 1763 5728 1178 
Q 5728 594 5436 251 
Q 5144 -91 4653 -91 
Q 4153 -91 3862 251 
Q 3572 594 3572 1178 
Q 3572 1766 3864 2108 
Q 4156 2450 4653 2450 
z
M 1428 4353 
Q 1159 4353 1004 4120 
Q 850 3888 850 3481 
Q 850 3069 1003 2837 
Q 1156 2606 1428 2606 
Q 1700 2606 1854 2837 
Q 2009 3069 2009 3481 
Q 2009 3884 1853 4118 
Q 1697 4353 1428 4353 
z
M 4250 4750 
L 4750 4750 
L 1831 -91 
L 1331 -91 
L 4250 4750 
z
M 1428 4750 
Q 1922 4750 2215 4408 
Q 2509 4066 2509 3481 
Q 2509 2891 2217 2550 
Q 1925 2209 1428 2209 
Q 931 2209 642 2551 
Q 353 2894 353 3481 
Q 353 4063 643 4406 
Q 934 4750 1428 4750 
z
" transform="scale(0.015625)"/>
       <path id="DejaVuSans-52" d="M 2841 2188 
Q 3044 2119 3236 1894 
Q 3428 1669 3622 1275 
L 4263 0 
L 3584 0 
L 2988 1197 
Q 2756 1666 2539 1819 
Q 2322 1972 1947 1972 
L 1259 1972 
L 1259 0 
L 628 0 
L 628 4666 
L 2053 4666 
Q 2853 4666 3247 4331 
Q 3641 3997 3641 3322 
Q 3641 2881 3436 2590 
Q 3231 2300 2841 2188 
z
M 1259 4147 
L 1259 2491 
L 2053 2491 
Q 2509 2491 2742 2702 
Q 2975 2913 2975 3322 
Q 2975 3731 2742 3939 
Q 2509 4147 2053 4147 
L 1259 4147 
z
" transform="scale(0.015625)"/>
       <path id="DejaVuSans-5d" d="M 1947 4863 
L 1947 -844 
L 622 -844 
L 622 -397 
L 1369 -397 
L 1369 4416 
L 622 4416 
L 622 4863 
L 1947 4863 
z
" transform="scale(0.015625)"/>
      </defs>
      <use xlink:href="#DejaVuSans-48"/>
      <use xlink:href="#DejaVuSans-75" x="75.195312"/>
      <use xlink:href="#DejaVuSans-6d" x="138.574219"/>
      <use xlink:href="#DejaVuSans-69" x="235.986328"/>
      <use xlink:href="#DejaVuSans-64" x="263.769531"/>
      <use xlink:href="#DejaVuSans-69" x="327.246094"/>
      <use xlink:href="#DejaVuSans-74" x="355.029297"/>
      <use xlink:href="#DejaVuSans-79" x="394.238281"/>
      <use xlink:href="#DejaVuSans-20" x="453.417969"/>
      <use xlink:href="#DejaVuSans-5b" x="485.205078"/>
      <use xlink:href="#DejaVuSans-25" x="524.21875"/>
      <use xlink:href="#DejaVuSans-52" x="619.238281"/>
      <use xlink:href="#DejaVuSans-48" x="688.720703"/>
      <use xlink:href="#DejaVuSans-5d" x="763.916016"/>
     </g>
    </g>
   </g>
   <g id="line2d_31">
    <path d="M 51.05 58.475753 
L 51.164671 58.475753 
L 51.30239 53.393329 
L 51.348298 53.393329 
L 51.463116 50.852118 
L 51.623735 50.852118 
L 51.738663 48.310906 
L 52.174611 48.310906 
L 52.266703 50.852118 
L 52.381261 50.852118 
L 52.495959 53.393329 
L 52.61085 53.393329 
L 52.725762 55.934541 
L 53.161591 55.934541 
L 53.276367 58.475753 
L 53.505898 58.475753 
L 53.597713 61.016965 
L 53.712608 58.475753 
L 54.469936 58.475753 
L 54.584831 61.016965 
L 54.722581 55.934541 
L 54.768444 55.934541 
L 54.883367 53.393329 
L 54.952076 53.393329 
L 55.066721 55.934541 
L 55.54886 55.934541 
L 55.663505 58.475753 
L 55.709414 58.475753 
L 55.84713 61.016965 
L 56.007969 61.016965 
L 56.122573 63.558176 
L 56.306197 63.558176 
L 56.421089 61.016965 
L 56.535731 63.558176 
L 57.040984 63.558176 
L 57.201506 55.934541 
L 57.43105 55.934541 
L 57.54567 58.475753 
L 57.660567 58.475753 
L 57.775203 61.016965 
L 57.821111 61.016965 
L 57.935923 63.558176 
L 57.958828 63.558176 
L 58.073706 66.099388 
L 58.349039 66.099388 
L 58.486898 61.016965 
L 58.53278 61.016965 
L 58.647427 63.558176 
L 58.991849 63.558176 
L 59.106491 61.016965 
L 59.427834 61.016965 
L 59.542741 58.475753 
L 59.795084 58.475753 
L 59.955881 66.099388 
L 60.001786 66.099388 
L 60.139471 71.181812 
L 60.16234 71.181812 
L 60.277229 73.723023 
L 60.345965 73.723023 
L 60.437777 76.264235 
L 60.575495 73.723023 
L 60.667309 76.264235 
L 60.80503 71.181812 
L 61.103551 71.181812 
L 61.218187 73.723023 
L 61.56263 73.723023 
L 61.67725 76.264235 
L 62.182223 76.264235 
L 62.365848 71.181812 
L 62.388913 71.181812 
L 62.503568 68.6406 
L 62.59538 68.6406 
L 62.779006 63.558176 
L 62.824911 63.558176 
L 62.93981 61.016965 
L 63.123369 61.016965 
L 63.238073 58.475753 
L 63.697136 58.475753 
L 63.812045 61.016965 
L 63.926957 63.558176 
L 64.248016 63.558176 
L 64.339827 66.099388 
L 64.408728 66.099388 
L 64.546549 71.181812 
L 64.592461 71.181812 
L 64.730209 76.264235 
L 64.821843 76.264235 
L 64.959712 86.429082 
L 64.982519 83.88787 
L 65.143333 76.264235 
L 65.533399 76.264235 
L 65.62521 86.429082 
L 65.786033 114.382411 
L 65.808839 114.382411 
L 66.015559 127.08847 
L 66.038364 127.08847 
L 66.176085 122.006047 
L 66.291002 122.006047 
L 66.382816 124.547258 
L 66.405614 122.006047 
L 66.451521 124.547258 
L 66.681053 139.794529 
L 66.726957 139.794529 
L 66.772863 142.335741 
L 66.795912 139.794529 
L 66.887784 134.712105 
L 66.910583 137.253317 
L 67.071361 144.876952 
L 67.094206 142.335741 
L 67.117287 142.335741 
L 67.20914 139.794529 
L 67.346851 147.418164 
L 67.461459 144.876952 
L 67.484571 144.876952 
L 67.553271 147.418164 
L 67.576284 144.876952 
L 67.62217 144.876952 
L 67.874611 127.08847 
L 67.920519 127.08847 
L 68.058236 122.006047 
L 68.104142 122.006047 
L 68.242146 127.08847 
L 68.83864 127.08847 
L 68.976358 122.006047 
L 69.022262 122.006047 
L 69.137047 124.547258 
L 69.183012 124.547258 
L 69.297703 127.08847 
L 69.435421 127.08847 
L 69.527391 129.629682 
L 69.710856 124.547258 
L 69.756761 124.547258 
L 69.871678 122.006047 
L 69.986286 122.006047 
L 70.101181 124.547258 
L 70.169916 124.547258 
L 70.307633 119.464835 
L 70.330731 119.464835 
L 70.353541 122.006047 
L 70.422406 119.464835 
L 70.652058 119.464835 
L 70.789765 124.547258 
L 70.996225 124.547258 
L 71.111178 122.006047 
L 71.179852 127.08847 
L 71.225758 124.547258 
L 71.271883 124.547258 
L 71.386572 127.08847 
L 71.501195 127.08847 
L 71.616073 144.876952 
L 71.662045 139.794529 
L 71.68509 139.794529 
L 71.753773 132.170894 
L 71.799773 137.253317 
L 71.822538 137.253317 
L 71.84568 139.794529 
L 71.91435 137.253317 
L 72.006159 137.253317 
L 72.212857 124.547258 
L 72.23569 124.547258 
L 72.258799 127.08847 
L 72.327501 124.547258 
L 72.442428 124.547258 
L 72.557261 122.006047 
L 72.602943 122.006047 
L 72.626016 119.464835 
L 72.694754 122.006047 
L 72.717868 122.006047 
L 72.832469 124.547258 
L 72.878377 124.547258 
L 72.970421 122.006047 
L 73.199719 122.006047 
L 73.222758 119.464835 
L 73.29153 122.006047 
L 73.360571 122.006047 
L 73.475154 124.547258 
L 73.566967 124.547258 
L 73.681859 122.006047 
L 73.704684 122.006047 
L 73.796497 124.547258 
L 73.934216 124.547258 
L 74.049121 122.006047 
L 74.347373 122.006047 
L 74.554103 134.712105 
L 74.622812 134.712105 
L 74.714835 129.629682 
L 74.737609 132.170894 
L 74.829548 132.170894 
L 74.96717 127.08847 
L 75.105014 127.08847 
L 75.219586 124.547258 
L 75.449119 124.547258 
L 75.541203 122.006047 
L 75.609852 122.006047 
L 75.655858 124.547258 
L 75.701761 122.006047 
L 76.390349 122.006047 
L 76.528046 116.923623 
L 76.550867 116.923623 
L 76.688586 111.8412 
L 76.826304 111.8412 
L 77.101742 101.676353 
L 77.423085 101.676353 
L 77.538017 99.135141 
L 77.629828 99.135141 
L 77.744431 96.593929 
L 77.790337 96.593929 
L 77.882148 94.052717 
L 77.997075 96.593929 
L 78.111681 96.593929 
L 78.2494 94.052717 
L 78.524836 94.052717 
L 78.639697 76.264235 
L 78.754368 73.723023 
L 78.823393 73.723023 
L 78.961138 68.6406 
L 79.121621 68.6406 
L 79.236454 66.099388 
L 79.718406 66.099388 
L 79.833381 63.558176 
L 79.925061 63.558176 
L 80.039753 61.016965 
L 80.269286 61.016965 
L 80.45291 55.934541 
L 80.498819 55.934541 
L 80.613727 53.393329 
L 80.820159 53.393329 
L 80.935102 55.934541 
L 81.876006 55.934541 
L 81.990962 53.393329 
L 82.266408 53.393329 
L 82.380973 50.852118 
L 82.931847 50.852118 
L 83.046817 48.310906 
L 83.918992 48.310906 
L 84.033598 45.769694 
L 84.171539 45.769694 
L 84.309036 43.228482 
L 84.538565 43.228482 
L 84.653377 40.687271 
L 84.883044 40.687271 
L 84.997628 38.146059 
L 86.053472 38.146059 
L 86.16842 35.604847 
L 86.810974 35.604847 
L 86.925691 33.063635 
L 87.866914 33.063635 
L 87.981532 30.522424 
L 88.991468 30.522424 
L 89.106411 27.981212 
L 120.368581 27.981212 
L 120.529118 35.604847 
L 120.598139 35.604847 
L 120.71274 38.146059 
L 120.735859 38.146059 
L 120.873468 43.228482 
L 121.286585 43.228482 
L 121.40134 45.769694 
L 121.584965 45.769694 
L 121.677059 48.310906 
L 122.204834 48.310906 
L 122.319469 45.769694 
L 122.70977 45.769694 
L 122.82444 43.228482 
L 123.375321 43.228482 
L 123.513036 40.687271 
L 124.890232 40.687271 
L 125.005107 43.228482 
L 125.303392 43.228482 
L 125.418329 40.687271 
L 126.634678 40.687271 
L 126.749621 38.146059 
L 127.139648 38.146059 
L 127.254604 35.604847 
L 127.552812 35.604847 
L 127.66775 33.063635 
L 127.943136 33.063635 
L 128.05778 30.522424 
L 128.746373 30.522424 
L 128.861303 27.981212 
L 129.687557 27.981212 
L 129.80222 30.522424 
L 129.985843 30.522424 
L 130.123565 33.063635 
L 130.169471 33.063635 
L 130.28438 35.604847 
L 130.376115 35.604847 
L 130.490815 38.146059 
L 130.605774 38.146059 
L 130.720348 40.687271 
L 130.881208 40.687271 
L 130.995786 43.228482 
L 131.454848 43.228482 
L 131.569799 45.769694 
L 132.07459 45.769694 
L 132.189352 43.228482 
L 132.304224 43.228482 
L 132.418883 40.687271 
L 132.579722 40.687271 
L 132.694321 38.146059 
L 132.924093 38.146059 
L 133.038779 35.604847 
L 133.268335 35.604847 
L 133.382915 38.146059 
L 133.405959 38.146059 
L 133.543729 43.228482 
L 133.612448 43.228482 
L 133.727375 45.769694 
L 134.025607 45.769694 
L 134.140572 43.228482 
L 134.301045 43.228482 
L 134.41599 40.687271 
L 134.622686 40.687271 
L 134.760108 38.146059 
L 135.081717 38.146059 
L 135.196397 35.604847 
L 135.609552 35.604847 
L 135.724143 33.063635 
L 136.435804 33.063635 
L 136.550459 30.522424 
L 136.94081 30.522424 
L 137.055429 33.063635 
L 137.147242 33.063635 
L 137.26204 35.604847 
L 137.376772 35.604847 
L 137.468585 38.146059 
L 137.652446 38.146059 
L 137.767084 40.687271 
L 139.167123 40.687271 
L 139.282057 38.146059 
L 139.649311 38.146059 
L 139.763905 35.604847 
L 139.970618 35.604847 
L 140.085249 38.146059 
L 140.360688 38.146059 
L 140.475631 40.687271 
L 140.911565 40.687271 
L 141.026502 43.228482 
L 141.898705 43.228482 
L 142.013323 40.687271 
L 142.793729 40.687271 
L 142.977352 45.769694 
L 143.000508 45.769694 
L 143.138114 50.852118 
L 143.298698 50.852118 
L 143.413585 48.310906 
L 143.597289 48.310906 
L 143.712166 45.769694 
L 143.849574 45.769694 
L 143.964514 48.310906 
L 144.125303 48.310906 
L 144.239972 45.769694 
L 144.882646 45.769694 
L 144.99744 43.228482 
L 145.915361 43.228482 
L 146.030285 40.687271 
L 146.259844 40.687271 
L 146.374425 43.228482 
L 147.15504 43.228482 
L 147.269728 45.769694 
L 147.315642 45.769694 
L 147.430274 43.228482 
L 147.751618 43.228482 
L 147.866548 45.769694 
L 147.912406 45.769694 
L 147.98115 48.310906 
L 148.096043 45.769694 
L 148.164777 48.310906 
L 148.187938 45.769694 
L 148.509147 45.769694 
L 148.62384 43.228482 
L 148.945184 43.228482 
L 149.060086 40.687271 
L 149.312714 40.687271 
L 149.427386 43.228482 
L 149.72581 43.228482 
L 149.863314 45.769694 
L 150.001031 45.769694 
L 150.115981 48.310906 
L 150.414189 48.310906 
L 150.529159 45.769694 
L 151.92911 45.769694 
L 152.044029 48.310906 
L 154.201661 48.310906 
L 154.316242 50.852118 
L 154.45396 50.852118 
L 154.591678 48.310906 
L 154.913261 48.310906 
L 155.050743 50.852118 
L 155.073854 50.852118 
L 155.188462 48.310906 
L 155.326184 48.310906 
L 155.509807 53.393329 
L 155.670633 53.393329 
L 155.785519 50.852118 
L 155.96887 50.852118 
L 156.106589 55.934541 
L 156.152498 55.934541 
L 156.290215 61.016965 
L 156.382028 61.016965 
L 156.496932 63.558176 
L 156.611559 63.558176 
L 156.726446 66.099388 
L 156.749278 63.558176 
L 156.818269 66.099388 
L 156.932904 66.099388 
L 157.047845 68.6406 
L 157.254247 68.6406 
L 157.369209 66.099388 
L 157.437873 66.099388 
L 157.575592 71.181812 
L 157.59868 71.181812 
L 157.713309 68.6406 
L 157.988751 68.6406 
L 158.12647 63.558176 
L 158.172375 63.558176 
L 158.28734 61.016965 
L 158.493721 61.016965 
L 158.608595 58.475753 
L 159.27413 58.475753 
L 159.389063 55.934541 
L 159.641382 55.934541 
L 159.779099 58.475753 
L 159.825007 58.475753 
L 159.939933 61.016965 
L 160.123404 61.016965 
L 160.169412 58.475753 
L 160.215382 61.016965 
L 160.375884 61.016965 
L 160.490834 63.558176 
L 160.628538 63.558176 
L 160.743134 61.016965 
L 160.972949 61.016965 
L 161.110386 55.934541 
L 161.294011 55.934541 
L 161.386136 53.393329 
L 161.523545 53.393329 
L 161.638499 50.852118 
L 162.074418 50.852118 
L 162.189388 48.310906 
L 162.418861 48.310906 
L 162.57939 55.934541 
L 162.671437 55.934541 
L 162.80892 58.475753 
L 162.832004 58.475753 
L 162.946641 55.934541 
L 162.992548 55.934541 
L 163.084362 53.393329 
L 163.405705 53.393329 
L 163.49752 50.852118 
L 163.658327 58.475753 
L 163.750195 58.475753 
L 163.910676 66.099388 
L 164.071498 66.099388 
L 164.186115 68.6406 
L 164.369739 68.6406 
L 164.438606 71.181812 
L 164.461554 68.6406 
L 165.035559 68.6406 
L 165.150153 66.099388 
L 165.173286 66.099388 
L 165.288148 63.558176 
L 165.448711 63.558176 
L 165.4715 61.016965 
L 165.54053 63.558176 
L 165.769962 63.558176 
L 165.884656 61.016965 
L 165.976469 61.016965 
L 166.091323 63.558176 
L 166.435537 63.558176 
L 166.550393 66.099388 
L 167.05533 66.099388 
L 167.17004 63.558176 
L 167.353667 63.558176 
L 167.468447 61.016965 
L 167.537292 61.016965 
L 167.698065 68.6406 
L 167.812733 68.6406 
L 167.927572 71.181812 
L 168.065328 71.181812 
L 168.179983 68.6406 
L 168.317919 68.6406 
L 168.432583 71.181812 
L 168.501331 71.181812 
L 168.616222 73.723023 
L 168.662102 73.723023 
L 168.776771 76.264235 
L 168.845769 76.264235 
L 168.91449 78.805447 
L 168.937572 76.264235 
L 169.281745 76.264235 
L 169.373559 73.723023 
L 169.488405 76.264235 
L 169.534313 76.264235 
L 169.672037 71.181812 
L 170.108065 71.181812 
L 170.222932 68.6406 
L 170.52122 68.6406 
L 170.613032 66.099388 
L 170.727922 68.6406 
L 171.026194 68.6406 
L 171.141096 71.181812 
L 171.48526 71.181812 
L 171.622982 76.264235 
L 171.645984 76.264235 
L 171.761008 73.723023 
L 171.829659 73.723023 
L 171.967406 78.805447 
L 172.013348 78.805447 
L 172.15105 83.88787 
L 172.174027 83.88787 
L 172.311581 86.429082 
L 172.334704 86.429082 
L 172.449298 83.88787 
L 172.495205 83.88787 
L 172.58702 81.346659 
L 172.770645 86.429082 
L 172.885601 86.429082 
L 173.000176 88.970294 
L 173.023325 88.970294 
L 173.046279 91.511506 
L 173.115016 88.970294 
L 173.137899 88.970294 
L 173.252847 86.429082 
L 173.321525 86.429082 
L 173.50536 76.264235 
L 173.918534 76.264235 
L 174.056032 73.723023 
L 174.147847 73.723023 
L 174.262771 71.181812 
L 174.698724 71.181812 
L 174.790788 73.723023 
L 174.882351 73.723023 
L 174.997303 76.264235 
L 175.043195 76.264235 
L 175.249604 88.970294 
L 175.364544 88.970294 
L 175.479139 91.511506 
L 175.616857 91.511506 
L 175.754576 88.970294 
L 175.800483 88.970294 
L 175.915451 91.511506 
L 176.007257 91.511506 
L 176.16774 83.88787 
L 176.213644 83.88787 
L 176.351366 78.805447 
L 176.420425 78.805447 
L 176.535236 76.264235 
L 176.557978 76.264235 
L 176.741768 86.429082 
L 176.787593 86.429082 
L 176.902245 88.970294 
L 177.039968 88.970294 
L 177.154832 91.511506 
L 177.223594 91.511506 
L 177.338489 94.052717 
L 177.476232 94.052717 
L 177.59085 91.511506 
L 177.728569 96.593929 
L 178.00401 96.593929 
L 178.118918 99.135141 
L 178.27945 99.135141 
L 178.302457 101.676353 
L 178.371263 99.135141 
L 178.463077 99.135141 
L 178.577988 101.676353 
L 178.646703 101.676353 
L 178.784422 106.758776 
L 178.830332 106.758776 
L 178.968053 111.8412 
L 179.151677 111.8412 
L 179.358383 99.135141 
L 179.518927 99.135141 
L 179.656652 101.676353 
L 179.794372 101.676353 
L 179.932087 96.593929 
L 180.04695 96.593929 
L 180.161622 94.052717 
L 180.299344 94.052717 
L 180.391156 91.511506 
L 180.643805 91.511506 
L 180.78154 96.593929 
L 180.965188 96.593929 
L 181.079757 94.052717 
L 181.240616 94.052717 
L 181.355198 96.593929 
L 181.447012 94.052717 
L 181.584733 99.135141 
L 181.722614 99.135141 
L 181.837387 101.676353 
L 182.135847 101.676353 
L 182.411051 111.8412 
L 182.525954 109.299988 
L 182.548771 109.299988 
L 182.732398 99.135141 
L 182.778306 99.135141 
L 182.870121 96.593929 
L 182.985012 99.135141 
L 183.007998 99.135141 
L 183.122784 101.676353 
L 183.145556 101.676353 
L 183.306369 109.299988 
L 183.421238 109.299988 
L 183.558718 111.8412 
L 183.650533 111.8412 
L 183.71956 114.382411 
L 183.742349 111.8412 
L 183.788254 111.8412 
L 183.903029 109.299988 
L 183.971878 109.299988 
L 183.995016 106.758776 
L 184.063691 109.299988 
L 184.109598 109.299988 
L 184.24732 114.382411 
L 184.568667 114.382411 
L 184.683566 116.923623 
L 184.706388 116.923623 
L 184.93592 109.299988 
L 185.050895 111.8412 
L 185.073639 111.8412 
L 185.165733 114.382411 
L 185.303173 111.8412 
L 185.326323 111.8412 
L 185.440893 109.299988 
L 185.670427 109.299988 
L 185.762242 111.8412 
L 185.923096 104.217564 
L 186.083591 104.217564 
L 186.198527 101.676353 
L 186.244419 101.676353 
L 186.359029 99.135141 
L 186.519754 99.135141 
L 186.565763 101.676353 
L 186.61168 99.135141 
L 186.703494 99.135141 
L 186.864003 91.511506 
L 186.955814 88.970294 
L 187.070707 91.511506 
L 187.093536 91.511506 
L 187.208475 94.052717 
L 187.300284 94.052717 
L 187.414885 96.593929 
L 187.438004 96.593929 
L 187.552601 99.135141 
L 187.667541 99.135141 
L 187.782415 101.676353 
L 188.700273 101.676353 
L 188.815211 99.135141 
L 188.883899 99.135141 
L 188.998839 96.593929 
L 189.113433 96.593929 
L 189.228293 94.052717 
L 189.29706 94.052717 
L 189.572502 114.382411 
L 189.595603 114.382411 
L 189.962848 144.876952 
L 189.985659 144.876952 
L 190.100588 147.418164 
L 190.2383 147.418164 
L 190.352908 144.876952 
L 190.421938 144.876952 
L 190.444719 142.335741 
L 190.513741 144.876952 
L 190.559662 144.876952 
L 190.674252 147.418164 
L 190.811974 147.418164 
L 190.926883 152.500588 
L 190.94969 149.959376 
L 191.018692 152.500588 
L 191.041504 152.500588 
L 191.110531 157.583011 
L 191.133587 155.041799 
L 191.248237 152.500588 
L 191.271038 152.500588 
L 191.408757 147.418164 
L 191.454662 147.418164 
L 191.799122 175.371493 
L 191.821913 175.371493 
L 192.005833 185.53634 
L 192.028504 185.53634 
L 192.189161 177.912705 
L 192.235067 177.912705 
L 192.372785 185.53634 
L 192.533627 177.912705 
L 192.763138 177.912705 
L 192.877739 175.371493 
L 192.900743 175.371493 
L 192.923658 177.912705 
L 192.992707 175.371493 
L 193.038607 175.371493 
L 193.084507 172.830282 
L 193.130396 175.371493 
L 193.199095 175.371493 
L 193.245 172.830282 
L 193.291092 175.371493 
L 193.382721 175.371493 
L 193.497541 177.912705 
L 193.543566 177.912705 
L 193.704328 170.28907 
L 193.933592 162.665435 
L 194.048492 162.665435 
L 194.163248 165.206646 
L 194.186102 165.206646 
L 194.278052 167.747858 
L 194.392655 165.206646 
L 194.553498 165.206646 
L 194.713999 157.583011 
L 194.805813 157.583011 
L 194.966696 167.747858 
L 195.17306 155.041799 
L 195.196179 157.583011 
L 195.311018 147.418164 
L 195.379736 147.418164 
L 195.540311 139.794529 
L 195.769844 139.794529 
L 195.861929 142.335741 
L 196.068425 134.712105 
L 196.183002 137.253317 
L 196.320963 132.170894 
L 196.481579 132.170894 
L 196.504343 129.629682 
L 196.573366 132.170894 
L 196.871596 132.170894 
L 197.009314 127.08847 
L 197.032439 127.08847 
L 197.238846 142.335741 
L 197.376566 137.253317 
L 197.399654 137.253317 
L 197.537404 142.335741 
L 197.606324 142.335741 
L 197.675072 147.418164 
L 197.69791 144.876952 
L 197.996435 144.876952 
L 198.156973 137.253317 
L 198.248785 137.253317 
L 198.386505 132.170894 
L 198.40962 132.170894 
L 198.547314 137.253317 
L 198.639183 137.253317 
L 198.753751 144.876952 
L 198.776902 142.335741 
L 198.79966 142.335741 
L 198.914424 137.253317 
L 199.052343 149.959376 
L 199.075098 147.418164 
L 199.14415 149.959376 
L 199.258722 152.500588 
L 199.488254 152.500588 
L 199.763935 132.170894 
L 199.878627 132.170894 
L 199.947316 129.629682 
L 199.970439 132.170894 
L 200.062205 132.170894 
L 200.177103 127.08847 
L 200.429512 127.08847 
L 200.5441 129.629682 
L 200.635901 129.629682 
L 200.750873 127.08847 
L 200.773628 127.08847 
L 200.88857 129.629682 
L 200.957256 129.629682 
L 201.072021 127.08847 
L 201.278601 127.08847 
L 201.393564 124.547258 
L 201.462525 124.547258 
L 201.599944 127.08847 
L 201.714898 127.08847 
L 201.829476 124.547258 
L 202.036247 124.547258 
L 202.128034 122.006047 
L 202.242632 124.547258 
L 202.380353 119.464835 
L 202.42626 119.464835 
L 202.587086 111.8412 
L 202.862508 111.8412 
L 202.954339 114.382411 
L 203.091994 109.299988 
L 203.206951 109.299988 
L 203.321604 111.8412 
L 203.344387 109.299988 
L 203.413372 111.8412 
L 203.551107 111.8412 
L 203.688743 106.758776 
L 203.96418 106.758776 
L 204.101861 101.676353 
L 204.21661 101.676353 
L 204.331579 99.135141 
L 204.354329 99.135141 
L 204.377442 101.676353 
L 204.446139 99.135141 
L 204.492318 99.135141 
L 204.652876 94.052717 
L 204.767487 96.593929 
L 204.813393 96.593929 
L 204.905207 99.135141 
L 204.974103 99.135141 
L 205.088833 96.593929 
L 205.134738 96.593929 
L 205.249658 99.135141 
L 205.3645 99.135141 
L 205.501989 94.052717 
L 205.52504 94.052717 
L 205.662819 88.970294 
L 205.731521 88.970294 
L 205.869242 83.88787 
L 205.961055 83.88787 
L 206.075997 81.346659 
L 206.098777 81.346659 
L 206.190588 78.805447 
L 206.328306 78.805447 
L 206.443215 76.264235 
L 207.131702 76.264235 
L 207.246437 73.723023 
L 207.292344 73.723023 
L 207.407284 71.181812 
L 207.613687 71.181812 
L 207.72863 68.6406 
L 208.554957 68.6406 
L 208.66954 66.099388 
L 208.853166 66.099388 
L 208.968104 63.558176 
L 209.014025 63.558176 
L 209.128607 61.016965 
L 209.358138 61.016965 
L 209.473097 58.475753 
L 209.817202 58.475753 
L 209.954924 55.934541 
L 210.643522 55.934541 
L 210.758447 53.393329 
L 210.873053 53.393329 
L 210.965142 55.934541 
L 211.125706 55.934541 
L 211.240305 53.393329 
L 211.882997 53.393329 
L 211.997958 55.934541 
L 212.250252 55.934541 
L 212.387968 58.475753 
L 212.433875 58.475753 
L 212.548778 55.934541 
L 214.086516 55.934541 
L 214.201363 53.393329 
L 214.706403 53.393329 
L 214.821021 50.852118 
L 216.496792 50.852118 
L 216.611641 48.310906 
L 218.723086 48.310906 
L 218.814899 45.769694 
L 218.929855 48.310906 
L 218.975753 48.310906 
L 219.09034 45.769694 
L 220.169295 45.769694 
L 220.283911 48.310906 
L 220.83479 48.310906 
L 220.926785 45.769694 
L 222.166086 45.769694 
L 222.280902 48.310906 
L 223.084512 48.310906 
L 223.221936 45.769694 
L 228.960267 45.769694 
L 229.075218 43.228482 
L 231.852378 43.228482 
L 231.967355 45.769694 
L 232.173725 45.769694 
L 232.311446 48.310906 
L 233.298627 48.310906 
L 233.413203 50.852118 
L 233.68864 50.852118 
L 233.80357 53.393329 
L 233.826362 53.393329 
L 233.918415 55.934541 
L 234.055894 55.934541 
L 234.078926 53.393329 
L 234.147707 55.934541 
L 234.514959 55.934541 
L 234.629895 58.475753 
L 234.652675 58.475753 
L 234.767615 61.016965 
L 234.859347 61.016965 
L 234.97402 63.558176 
L 235.043032 63.558176 
L 235.180731 68.6406 
L 235.387179 68.6406 
L 235.502117 71.181812 
L 235.777538 71.181812 
L 235.892149 68.6406 
L 235.983962 68.6406 
L 236.007122 71.181812 
L 236.076015 68.6406 
L 236.213493 68.6406 
L 236.351211 91.511506 
L 236.374368 91.511506 
L 236.488931 96.593929 
L 236.535103 96.593929 
L 236.741591 109.299988 
L 236.810274 109.299988 
L 236.902086 104.217564 
L 236.925226 106.758776 
L 236.948298 106.758776 
L 236.993897 109.299988 
L 237.039806 106.758776 
L 237.062926 106.758776 
L 237.131617 101.676353 
L 237.177522 104.217564 
L 237.33839 111.8412 
L 237.361149 111.8412 
L 237.659679 124.547258 
L 237.751497 122.006047 
L 237.912019 129.629682 
L 238.004072 129.629682 
L 238.371083 91.511506 
L 238.394217 101.676353 
L 238.48603 99.135141 
L 238.600613 101.676353 
L 238.80739 101.676353 
L 238.967863 109.299988 
L 238.991034 109.299988 
L 239.151487 101.676353 
L 239.174532 101.676353 
L 239.450023 124.547258 
L 239.495993 122.006047 
L 239.518736 124.547258 
L 239.633656 124.547258 
L 239.771375 119.464835 
L 239.817299 119.464835 
L 239.978083 111.8412 
L 240.046773 111.8412 
L 240.069609 109.299988 
L 240.092701 114.382411 
L 240.115518 114.382411 
L 240.161425 114.382411 
L 240.276316 106.758776 
L 240.299142 109.299988 
L 240.391205 109.299988 
L 240.574578 104.217564 
L 240.597689 104.217564 
L 240.643612 106.758776 
L 240.666391 104.217564 
L 240.804111 99.135141 
L 241.102658 99.135141 
L 241.354985 81.346659 
L 241.400893 81.346659 
L 241.53861 76.264235 
L 241.653513 94.052717 
L 241.722236 91.511506 
L 241.745251 94.052717 
L 241.905859 94.052717 
L 242.020815 76.264235 
L 242.548818 76.264235 
L 242.686268 73.723023 
L 243.05352 73.723023 
L 243.168419 71.181812 
L 243.237144 71.181812 
L 243.352034 68.6406 
L 243.581596 68.6406 
L 243.696207 66.099388 
L 244.132505 66.099388 
L 244.247083 63.558176 
L 244.54564 63.558176 
L 244.660242 61.016965 
L 244.866979 61.016965 
L 244.981585 58.475753 
L 245.073399 58.475753 
L 245.165207 55.934541 
L 245.280103 58.475753 
L 245.647336 58.475753 
L 245.761993 61.016965 
L 245.876964 61.016965 
L 245.991818 58.475753 
L 246.404679 58.475753 
L 246.542402 61.016965 
L 247.024599 61.016965 
L 247.139187 58.475753 
L 247.185091 58.475753 
L 247.254117 55.934541 
L 247.276903 58.475753 
L 247.414623 58.475753 
L 247.529552 61.016965 
L 247.644154 61.016965 
L 247.758928 63.558176 
L 248.378656 63.558176 
L 248.493568 61.016965 
L 249.067254 61.016965 
L 249.182201 63.558176 
L 250.467573 63.558176 
L 250.582165 61.016965 
L 250.67398 61.016965 
L 250.719885 58.475753 
L 250.766064 61.016965 
L 250.995324 61.016965 
L 251.110262 63.558176 
L 251.316664 63.558176 
L 251.408478 61.016965 
L 251.52339 63.558176 
L 251.546198 63.558176 
L 251.661009 61.016965 
L 251.867545 61.016965 
L 251.982461 58.475753 
L 252.005265 58.475753 
L 252.142983 55.934541 
L 252.372518 55.934541 
L 252.464561 53.393329 
L 252.602048 53.393329 
L 252.693858 50.852118 
L 253.038311 50.852118 
L 253.152924 48.310906 
L 253.611987 48.310906 
L 253.726919 45.769694 
L 253.887427 45.769694 
L 253.97924 48.310906 
L 254.231724 48.310906 
L 254.346491 50.852118 
L 254.530118 50.852118 
L 254.667836 55.934541 
L 254.851462 55.934541 
L 254.966362 58.475753 
L 255.149971 58.475753 
L 255.26462 55.934541 
L 255.723686 55.934541 
L 255.838606 58.475753 
L 256.090935 58.475753 
L 256.205814 61.016965 
L 256.458186 61.016965 
L 256.573101 63.558176 
L 256.779532 63.558176 
L 256.917251 66.099388 
L 257.146782 66.099388 
L 257.261562 68.6406 
L 258.064912 68.6406 
L 258.202634 71.181812 
L 258.409386 71.181812 
L 258.524196 73.723023 
L 258.776626 73.723023 
L 258.89123 71.181812 
L 259.717546 71.181812 
L 259.763452 73.723023 
L 259.809628 71.181812 
L 260.016088 71.181812 
L 260.130703 68.6406 
L 260.406145 68.6406 
L 260.521034 71.181812 
L 260.796433 71.181812 
L 260.911117 73.723023 
L 260.95702 73.723023 
L 261.071947 76.264235 
L 261.393315 76.264235 
L 261.507899 78.805447 
L 261.691523 78.805447 
L 261.852322 86.429082 
L 262.058779 86.429082 
L 262.150588 88.970294 
L 262.265525 86.429082 
L 262.380124 86.429082 
L 262.517843 83.88787 
L 262.586874 83.88787 
L 262.701467 86.429082 
L 262.747376 86.429082 
L 262.931001 76.264235 
L 263.06872 76.264235 
L 263.183612 73.723023 
L 263.45907 73.723023 
L 263.573693 76.264235 
L 263.849134 76.264235 
L 263.964057 73.723023 
L 264.101792 73.723023 
L 264.216384 76.264235 
L 264.285347 76.264235 
L 264.40001 78.805447 
L 264.469027 78.805447 
L 264.629543 86.429082 
L 264.767261 86.429082 
L 264.882236 83.88787 
L 265.042699 83.88787 
L 265.157566 81.346659 
L 265.341281 81.346659 
L 265.478841 76.264235 
L 265.685394 76.264235 
L 265.708527 73.723023 
L 265.777205 76.264235 
L 265.914925 76.264235 
L 265.960832 73.723023 
L 266.006739 76.264235 
L 266.878966 76.264235 
L 266.993898 73.723023 
L 267.361129 73.723023 
L 267.475749 71.181812 
L 267.498891 71.181812 
L 267.636439 76.264235 
L 267.934816 76.264235 
L 268.072536 81.346659 
L 268.164346 81.346659 
L 268.302068 86.429082 
L 268.347972 86.429082 
L 268.439786 88.970294 
L 268.623415 88.970294 
L 268.738332 86.429082 
L 268.876055 86.429082 
L 269.03657 78.805447 
L 269.082477 78.805447 
L 269.197424 76.264235 
L 269.472838 76.264235 
L 269.495642 78.805447 
L 269.564676 76.264235 
L 269.977813 76.264235 
L 270.092424 73.723023 
L 270.115478 73.723023 
L 270.230142 71.181812 
L 270.781024 71.181812 
L 270.804149 73.723023 
L 270.872836 71.181812 
L 270.941868 71.181812 
L 271.05672 73.723023 
L 271.194184 76.264235 
L 271.285998 76.264235 
L 271.469625 86.429082 
L 271.58453 86.429082 
L 271.722226 91.511506 
L 271.790967 91.511506 
L 271.905876 88.970294 
L 271.928997 88.970294 
L 272.181329 106.758776 
L 272.250033 106.758776 
L 272.273159 104.217564 
L 272.319057 106.758776 
L 272.571378 124.547258 
L 272.732189 124.547258 
L 272.846816 127.08847 
L 272.869889 127.08847 
L 272.984533 129.629682 
L 273.007541 127.08847 
L 273.145365 149.959376 
L 273.25997 137.253317 
L 273.352019 137.253317 
L 273.374894 134.712105 
L 273.443596 147.418164 
L 273.489502 142.335741 
L 273.558498 142.335741 
L 273.673119 139.794529 
L 273.696123 139.794529 
L 273.902659 152.500588 
L 274.040377 152.500588 
L 274.10924 160.124223 
L 274.224002 157.583011 
L 274.384834 152.500588 
L 274.407625 152.500588 
L 274.545347 157.583011 
L 274.637156 157.583011 
L 274.706154 152.500588 
L 274.75199 155.041799 
L 274.774876 155.041799 
L 274.798023 152.500588 
L 274.84385 157.583011 
L 274.866688 157.583011 
L 274.88982 155.041799 
L 274.958753 157.583011 
L 275.027493 157.583011 
L 275.073417 152.500588 
L 275.11935 157.583011 
L 275.142123 157.583011 
L 275.302963 149.959376 
L 275.3946 149.959376 
L 275.509374 152.500588 
L 275.532482 152.500588 
L 275.739178 167.747858 
L 275.876619 160.124223 
L 275.968432 165.206646 
L 275.991566 162.665435 
L 276.060245 162.665435 
L 276.083415 165.206646 
L 276.129281 162.665435 
L 276.244117 157.583011 
L 276.404673 165.206646 
L 276.427497 162.665435 
L 276.496438 165.206646 
L 276.634203 165.206646 
L 276.947257 157.583011 
L 276.978367 160.124223 
L 277.024516 157.583011 
L 277.2079 152.500588 
L 277.437427 152.500588 
L 277.52924 149.959376 
L 278.171927 137.253317 
L 278.263739 139.794529 
L 278.286877 137.253317 
L 278.309934 139.794529 
L 278.447367 142.335741 
L 278.493273 142.335741 
L 278.562292 147.418164 
L 278.608174 144.876952 
L 278.768945 144.876952 
L 278.929517 160.124223 
L 279.067237 149.959376 
L 279.090051 149.959376 
L 279.204807 147.418164 
L 279.342696 147.418164 
L 279.411395 144.876952 
L 279.434534 147.418164 
L 279.480372 147.418164 
L 279.549114 149.959376 
L 279.572142 147.418164 
L 279.595189 147.418164 
L 279.686832 142.335741 
L 279.709942 144.876952 
L 279.732737 144.876952 
L 279.870456 155.041799 
L 280.008173 162.665435 
L 280.077051 162.665435 
L 280.214819 167.747858 
L 280.260731 167.747858 
L 280.306712 170.28907 
L 280.329516 167.747858 
L 280.444443 165.206646 
L 280.513138 170.28907 
L 280.559045 167.747858 
L 280.604952 167.747858 
L 280.74267 172.830282 
L 280.857577 170.28907 
L 280.880386 170.28907 
L 281.018105 165.206646 
L 281.041224 167.747858 
L 281.178924 152.500588 
L 281.293544 152.500588 
L 281.431258 149.959376 
L 281.477162 149.959376 
L 281.614885 144.876952 
L 281.729808 144.876952 
L 281.752887 147.418164 
L 281.821535 144.876952 
L 281.844416 144.876952 
L 281.913469 142.335741 
L 281.936229 144.876952 
L 281.959345 144.876952 
L 282.09701 149.959376 
L 282.119851 149.959376 
L 282.165758 147.418164 
L 282.211917 149.959376 
L 282.234652 152.500588 
L 282.303476 149.959376 
L 282.326604 149.959376 
L 282.395288 152.500588 
L 282.418415 149.959376 
L 282.441196 149.959376 
L 282.55615 147.418164 
L 282.693778 147.418164 
L 282.831561 152.500588 
L 282.854349 152.500588 
L 282.992067 147.418164 
L 283.083882 147.418164 
L 283.221598 142.335741 
L 283.244723 142.335741 
L 283.382383 147.418164 
L 283.405222 147.418164 
L 283.520012 142.335741 
L 283.703791 142.335741 
L 283.795523 139.794529 
L 283.864283 142.335741 
L 283.887406 139.794529 
L 284.139723 122.006047 
L 284.162872 122.006047 
L 284.300541 106.758776 
L 284.392257 106.758776 
L 284.461067 104.217564 
L 286.825381 96.593929 
L 286.963154 91.511506 
L 287.238545 91.511506 
L 287.353165 88.970294 
L 287.628605 88.970294 
L 287.743419 91.511506 
L 287.858136 91.511506 
L 287.972984 94.052717 
L 288.110785 88.970294 
L 288.202539 88.970294 
L 288.363097 81.346659 
L 288.500821 81.346659 
L 288.592633 78.805447 
L 288.707543 81.346659 
L 288.799217 81.346659 
L 288.891186 78.805447 
L 289.097602 78.805447 
L 289.189691 76.264235 
L 289.350239 76.264235 
L 289.487863 81.346659 
L 289.510762 81.346659 
L 289.602575 83.88787 
L 290.038821 83.88787 
L 290.153453 86.429082 
L 290.842052 86.429082 
L 290.979771 81.346659 
L 291.048759 81.346659 
L 291.186458 76.264235 
L 291.691395 76.264235 
L 291.783265 78.805447 
L 291.8979 76.264235 
L 291.944024 76.264235 
L 292.058682 78.805447 
L 292.104581 78.805447 
L 292.219246 76.264235 
L 292.242307 76.264235 
L 292.357202 73.723023 
L 292.655463 73.723023 
L 292.77012 76.264235 
L 293.045559 76.264235 
L 293.160457 73.723023 
L 293.642342 73.723023 
L 293.780063 76.264235 
L 294.560472 76.264235 
L 294.675293 78.805447 
L 295.111349 78.805447 
L 295.226234 81.346659 
L 295.294976 81.346659 
L 295.340883 83.88787 
L 295.387032 81.346659 
L 295.524507 83.88787 
L 295.777176 83.88787 
L 295.937665 76.264235 
L 296.006637 76.264235 
L 296.12129 78.805447 
L 296.236219 76.264235 
L 296.6034 76.264235 
L 296.718074 78.805447 
L 296.741083 78.805447 
L 296.809888 81.346659 
L 296.833007 78.805447 
L 296.9017 78.805447 
L 297.016585 76.264235 
L 297.934712 76.264235 
L 298.049363 73.723023 
L 298.439561 73.723023 
L 298.554335 76.264235 
L 298.669198 73.723023 
L 299.564277 73.723023 
L 299.633284 71.181812 
L 299.656088 73.723023 
L 300.184049 73.723023 
L 300.298781 76.264235 
L 300.895564 76.264235 
L 300.964583 73.723023 
L 300.987625 76.264235 
L 301.354629 76.264235 
L 301.469407 78.805447 
L 301.630066 78.805447 
L 301.744997 76.264235 
L 302.135039 76.264235 
L 302.249981 73.723023 
L 302.341649 73.723023 
L 302.45638 76.264235 
L 303.512227 76.264235 
L 303.604291 73.723023 
L 303.718982 76.264235 
L 303.810763 76.264235 
L 303.925386 73.723023 
L 303.948495 73.723023 
L 304.063105 71.181812 
L 304.200827 71.181812 
L 304.315744 68.6406 
L 304.361665 68.6406 
L 304.47647 66.099388 
L 304.545251 66.099388 
L 304.659889 63.558176 
L 304.889672 63.558176 
L 305.004332 61.016965 
L 305.302576 61.016965 
L 305.440298 58.475753 
L 305.55521 58.475753 
L 305.669832 55.934541 
L 305.715738 55.934541 
L 305.761851 58.475753 
L 305.807551 55.934541 
L 305.876568 55.934541 
L 305.991171 58.475753 
L 306.220706 58.475753 
L 306.335626 61.016965 
L 306.519245 61.016965 
L 306.634065 58.475753 
L 307.804628 58.475753 
L 307.919441 55.934541 
L 307.965152 55.934541 
L 308.080092 53.393329 
L 308.722735 53.393329 
L 308.860408 58.475753 
L 309.480065 58.475753 
L 309.594981 61.016965 
L 309.916311 61.016965 
L 310.030942 58.475753 
L 310.145819 58.475753 
L 310.260475 55.934541 
L 310.49021 55.934541 
L 310.627727 53.393329 
L 311.064016 53.393329 
L 311.178604 50.852118 
L 311.24756 50.852118 
L 311.362474 53.393329 
L 311.568938 53.393329 
L 311.683577 50.852118 
L 313.267535 50.852118 
L 313.382115 48.310906 
L 315.631523 48.310906 
L 315.746379 50.852118 
L 316.940065 50.852118 
L 317.05463 53.393329 
L 317.559597 53.393329 
L 317.674501 55.934541 
L 318.110471 55.934541 
L 318.225381 58.475753 
L 318.661351 58.475753 
L 318.776218 55.934541 
L 319.32716 55.934541 
L 319.441759 58.475753 
L 319.625388 58.475753 
L 319.740332 55.934541 
L 320.176267 55.934541 
L 320.291145 53.393329 
L 320.359892 53.393329 
L 320.474696 50.852118 
L 320.727142 50.852118 
L 320.842016 53.393329 
L 321.599364 53.393329 
L 321.691179 55.934541 
L 321.897844 55.934541 
L 322.012523 58.475753 
L 322.356966 58.475753 
L 322.494703 63.558176 
L 322.632299 63.558176 
L 322.747027 61.016965 
L 322.792931 61.016965 
L 322.93065 78.805447 
L 323.137343 91.511506 
L 323.183239 91.511506 
L 323.297904 88.970294 
L 323.481528 88.970294 
L 323.504542 86.429082 
L 323.55055 88.970294 
L 323.734151 99.135141 
L 323.940591 99.135141 
L 324.07831 94.052717 
L 324.285001 94.052717 
L 324.399651 91.511506 
L 324.445561 91.511506 
L 324.583277 96.593929 
L 324.67509 96.593929 
L 324.789903 99.135141 
L 324.858716 99.135141 
L 324.95053 101.676353 
L 325.06536 99.135141 
L 325.088247 99.135141 
L 325.134152 101.676353 
L 325.294933 83.88787 
L 325.317778 83.88787 
L 325.478573 76.264235 
L 325.570384 76.264235 
L 325.685029 73.723023 
L 325.845881 73.723023 
L 325.960469 71.181812 
L 325.983572 71.181812 
L 326.09819 68.6406 
L 326.213126 68.6406 
L 326.327718 66.099388 
L 326.419533 66.099388 
L 326.534389 63.558176 
L 326.855834 63.558176 
L 326.970408 61.016965 
L 327.016314 61.016965 
L 327.131132 63.558176 
L 327.199942 63.558176 
L 327.291752 61.016965 
L 327.360621 61.016965 
L 327.475378 58.475753 
L 327.728001 58.475753 
L 327.84263 55.934541 
L 328.278862 55.934541 
L 328.393507 53.393329 
L 328.73796 53.393329 
L 328.852571 50.852118 
L 330.436434 50.852118 
L 330.551099 53.393329 
L 330.780832 53.393329 
L 330.91835 55.934541 
L 331.147885 55.934541 
L 331.285601 61.016965 
L 331.400497 61.016965 
L 331.538166 66.099388 
L 332.157821 66.099388 
L 332.272753 68.6406 
L 332.479168 68.6406 
L 332.616887 71.181812 
L 333.282678 71.181812 
L 333.397553 73.723023 
L 333.512245 71.181812 
L 333.695831 71.181812 
L 333.810722 73.723023 
L 334.223868 73.723023 
L 334.292531 71.181812 
L 334.315427 73.723023 
L 334.843492 73.723023 
L 334.958118 76.264235 
L 335.004024 76.264235 
L 335.049932 78.805447 
L 335.096102 76.264235 
L 335.463091 76.264235 
L 335.577889 73.723023 
L 335.899336 73.723023 
L 336.013967 71.181812 
L 336.633762 71.181812 
L 336.748476 68.6406 
L 336.909257 68.6406 
L 337.023916 66.099388 
L 337.184757 66.099388 
L 337.299356 68.6406 
L 337.391168 68.6406 
L 337.506108 71.181812 
L 337.735498 71.181812 
L 337.850235 73.723023 
L 337.965178 73.723023 
L 338.079767 71.181812 
L 338.424209 71.181812 
L 338.538836 73.723023 
L 338.676556 71.181812 
L 338.998051 71.181812 
L 339.112878 68.6406 
L 339.227434 68.6406 
L 339.342343 66.099388 
L 339.686501 66.099388 
L 339.801419 68.6406 
L 339.961937 68.6406 
L 340.076844 71.181812 
L 340.421005 71.181812 
L 340.535949 73.723023 
L 340.811356 73.723023 
L 340.925979 71.181812 
L 341.545816 71.181812 
L 341.660483 68.6406 
L 341.752295 68.6406 
L 341.867222 66.099388 
L 342.119547 66.099388 
L 342.234476 63.558176 
L 342.394986 63.558176 
L 342.509829 61.016965 
L 342.945864 61.016965 
L 343.06082 63.558176 
L 343.106681 63.558176 
L 343.221302 66.099388 
L 343.473935 66.099388 
L 343.588555 68.6406 
L 343.657573 68.6406 
L 343.726275 66.099388 
L 343.863995 68.6406 
L 344.39209 68.6406 
L 344.506684 71.181812 
L 345.172472 71.181812 
L 345.287097 73.723023 
L 345.539665 73.723023 
L 345.654347 76.264235 
L 345.815182 76.264235 
L 345.952779 81.346659 
L 345.998784 81.346659 
L 346.113411 83.88787 
L 346.480663 83.88787 
L 346.595581 86.429082 
L 346.733242 86.429082 
L 346.871022 81.346659 
L 346.939727 81.346659 
L 347.054609 78.805447 
L 347.077447 78.805447 
L 347.16926 76.264235 
L 347.261071 76.264235 
L 347.376015 73.723023 
L 348.01873 73.723023 
L 348.133305 76.264235 
L 348.66136 76.264235 
L 348.775998 73.723023 
L 349.12045 73.723023 
L 349.235065 76.264235 
L 349.326877 76.264235 
L 349.487696 83.88787 
L 349.923667 83.88787 
L 350.038598 81.346659 
L 350.061387 81.346659 
L 350.199107 76.264235 
L 350.451746 76.264235 
L 350.635365 86.429082 
L 350.864912 86.429082 
L 350.97952 88.970294 
L 351.048535 88.970294 
L 351.163146 91.511506 
L 351.186203 91.511506 
L 351.300868 94.052717 
L 351.346777 94.052717 
L 351.484493 99.135141 
L 351.759934 99.135141 
L 351.874819 101.676353 
L 351.943562 101.676353 
L 352.081282 104.217564 
L 352.127186 104.217564 
L 352.264909 109.299988 
L 352.540351 109.299988 
L 352.655228 111.8412 
L 352.723978 111.8412 
L 352.861696 116.923623 
L 352.907602 116.923623 
L 352.953512 114.382411 
L 352.999417 116.923623 
L 353.022488 116.923623 
L 353.137136 114.382411 
L 353.183045 114.382411 
L 353.297831 116.923623 
L 353.34384 116.923623 
L 353.45848 119.464835 
L 353.550295 119.464835 
L 353.665173 122.006047 
L 353.688232 122.006047 
L 353.825739 124.547258 
L 354.216087 124.547258 
L 354.330713 127.08847 
L 354.399719 127.08847 
L 354.537424 132.170894 
L 354.652059 132.170894 
L 354.789777 137.253317 
L 354.835687 137.253317 
L 354.858753 139.794529 
L 354.927497 137.253317 
L 354.973625 137.253317 
L 355.042322 134.712105 
L 355.065217 137.253317 
L 355.088331 137.253317 
L 355.226049 132.170894 
L 355.294752 132.170894 
L 355.432644 137.253317 
L 355.45544 137.253317 
L 355.570192 139.794529 
L 355.616097 139.794529 
L 355.75382 144.876952 
L 355.822828 144.876952 
L 355.845844 142.335741 
L 355.914567 144.876952 
L 356.098263 144.876952 
L 356.212881 149.959376 
L 356.327684 147.418164 
L 356.350601 147.418164 
L 356.488316 152.500588 
L 356.534219 152.500588 
L 356.695047 139.794529 
L 356.718058 142.335741 
L 356.740787 142.335741 
L 356.901463 149.959376 
L 356.924487 149.959376 
L 357.039178 152.500588 
L 357.199906 152.500588 
L 357.245914 149.959376 
L 357.360715 175.371493 
L 357.498242 155.041799 
L 357.635962 172.830282 
L 357.659032 172.830282 
L 357.77368 182.995129 
L 357.796744 180.453917 
L 357.911398 177.912705 
L 358.072146 190.618764 
L 358.095023 190.618764 
L 358.209862 193.159976 
L 358.23274 190.618764 
L 358.301667 193.159976 
L 358.347655 193.159976 
L 358.462477 190.618764 
L 358.485265 190.618764 
L 358.577157 195.701188 
L 358.599993 193.159976 
L 358.62312 193.159976 
L 358.737711 195.701188 
L 358.806704 195.701188 
L 358.829523 193.159976 
L 358.898381 195.701188 
L 358.94439 195.701188 
L 359.059052 193.159976 
L 359.104956 198.242399 
L 359.15086 195.701188 
L 359.288797 190.618764 
L 359.380395 190.618764 
L 359.495235 195.701188 
L 359.51811 195.701188 
L 359.701736 182.995129 
L 359.747905 182.995129 
L 359.816622 177.912705 
L 359.839453 182.995129 
L 359.908488 190.618764 
L 359.95436 185.53634 
L 359.977172 185.53634 
L 360.138013 177.912705 
L 360.160984 177.912705 
L 360.321583 190.618764 
L 360.344423 188.077552 
L 360.367534 188.077552 
L 360.482145 177.912705 
L 360.505213 180.453917 
L 360.665769 193.159976 
L 360.803487 198.242399 
L 360.918361 195.701188 
L 360.987114 198.242399 
L 361.033261 193.159976 
L 361.078925 198.242399 
L 361.170737 198.242399 
L 361.308455 193.159976 
L 361.354363 195.701188 
L 361.400268 193.159976 
L 361.49208 188.077552 
L 361.515111 195.701188 
L 361.606982 190.618764 
L 361.721612 188.077552 
L 361.744693 188.077552 
L 361.85933 195.701188 
L 361.928229 195.701188 
L 362.111962 185.53634 
L 362.226578 193.159976 
L 362.272486 193.159976 
L 362.410205 195.701188 
L 362.525121 185.53634 
L 362.708734 195.701188 
L 362.73179 195.701188 
L 362.846452 188.077552 
L 362.869265 193.159976 
L 362.915171 193.159976 
L 363.030012 195.701188 
L 363.075909 195.701188 
L 363.12188 193.159976 
L 363.144702 195.701188 
L 363.21359 200.783611 
L 363.305508 190.618764 
L 363.328327 193.159976 
L 363.351412 193.159976 
L 363.443215 190.618764 
L 363.511949 193.159976 
L 363.535074 190.618764 
L 363.557855 190.618764 
L 363.695575 185.53634 
L 363.718657 185.53634 
L 363.879199 177.912705 
L 364.108732 177.912705 
L 364.223629 175.371493 
L 364.269519 177.912705 
L 364.315467 175.371493 
L 364.361384 175.371493 
L 364.476221 172.830282 
L 364.498954 172.830282 
L 364.521889 170.28907 
L 364.590881 172.830282 
L 364.659606 172.830282 
L 364.774473 170.28907 
L 364.820436 170.28907 
L 364.889396 167.747858 
L 365.026857 170.28907 
L 365.210482 170.28907 
L 365.233527 172.830282 
L 365.302293 170.28907 
L 365.531827 162.665435 
L 365.554959 162.665435 
L 365.761504 144.876952 
L 365.784316 147.418164 
L 365.807263 147.418164 
L 365.922144 149.959376 
L 366.036798 149.959376 
L 366.174773 144.876952 
L 366.427157 144.876952 
L 366.541767 147.418164 
L 366.679486 142.335741 
L 366.725393 142.335741 
L 366.86311 137.253317 
L 366.977998 137.253317 
L 367.092645 134.712105 
L 367.115686 134.712105 
L 367.207572 137.253317 
L 367.345317 132.170894 
L 367.368081 134.712105 
L 367.437108 132.170894 
L 367.459896 132.170894 
L 367.505799 129.629682 
L 367.551708 132.170894 
L 367.574812 132.170894 
L 367.666618 127.08847 
L 367.689429 129.629682 
L 367.804314 132.170894 
L 367.873054 132.170894 
L 368.102586 139.794529 
L 368.584703 139.794529 
L 368.630648 142.335741 
L 368.676531 139.794529 
L 368.722442 139.794529 
L 368.837091 137.253317 
L 368.997898 137.253317 
L 369.066626 134.712105 
L 369.089738 137.253317 
L 369.158439 137.253317 
L 369.20449 134.712105 
L 369.250248 137.253317 
L 369.732381 137.253317 
L 369.847035 134.712105 
L 369.96194 134.712105 
L 370.076787 137.253317 
L 370.214287 137.253317 
L 370.329188 134.712105 
L 370.719253 134.712105 
L 370.834096 137.253317 
L 371.270129 137.253317 
L 371.339113 134.712105 
L 371.453754 134.712105 
L 371.568683 132.170894 
L 371.843999 132.170894 
L 371.981772 127.08847 
L 372.234411 127.08847 
L 372.349067 124.547258 
L 372.601415 124.547258 
L 372.716237 127.08847 
L 372.92276 127.08847 
L 372.968666 124.547258 
L 373.014571 127.08847 
L 373.45084 127.08847 
L 373.565451 129.629682 
L 373.611358 129.629682 
L 373.680369 127.08847 
L 373.703168 129.629682 
L 373.794985 129.629682 
L 373.909904 132.170894 
L 373.932701 132.170894 
L 374.070421 129.629682 
L 374.139452 129.629682 
L 374.208141 132.170894 
L 374.231208 129.629682 
L 374.736266 129.629682 
L 374.85083 132.170894 
L 374.919842 132.170894 
L 375.034457 134.712105 
L 375.080363 134.712105 
L 375.172178 132.170894 
L 375.286951 134.712105 
L 375.470706 134.712105 
L 375.608448 129.629682 
L 375.654308 129.629682 
L 375.768964 127.08847 
L 375.792014 127.08847 
L 375.906682 124.547258 
L 376.136483 124.547258 
L 376.25114 122.006047 
L 376.434746 122.006047 
L 376.457561 124.547258 
L 376.526569 122.006047 
L 376.916627 122.006047 
L 377.054349 116.923623 
L 377.605228 116.923623 
L 377.720133 119.464835 
L 378.133311 119.464835 
L 378.247921 116.923623 
L 378.385641 116.923623 
L 378.500512 114.382411 
L 378.752894 114.382411 
L 378.890611 119.464835 
L 378.982424 119.464835 
L 379.074238 122.006047 
L 379.189035 119.464835 
L 379.487398 119.464835 
L 379.579448 116.923623 
L 379.625121 116.923623 
L 379.694107 119.464835 
L 379.716936 116.923623 
L 379.831875 116.923623 
L 379.96957 122.006047 
L 380.474394 122.006047 
L 380.612223 116.923623 
L 380.704072 116.923623 
L 380.818692 119.464835 
L 381.507292 119.464835 
L 381.576266 116.923623 
L 381.599105 119.464835 
L 381.828638 119.464835 
L 381.943564 122.006047 
L 382.035394 122.006047 
L 382.218878 111.8412 
L 382.264871 111.8412 
L 382.379518 109.299988 
L 382.769824 109.299988 
L 382.884495 111.8412 
L 382.953484 111.8412 
L 383.068116 114.382411 
L 383.137115 114.382411 
L 383.251748 116.923623 
L 383.435372 116.923623 
L 383.550245 114.382411 
L 383.664906 116.923623 
L 383.871563 116.923623 
L 383.986255 114.382411 
L 384.376479 114.382411 
L 384.491227 116.923623 
L 384.514348 116.923623 
L 384.628946 119.464835 
L 384.720758 119.464835 
L 384.858482 114.382411 
L 385.157029 114.382411 
L 385.271642 116.923623 
L 385.547082 116.923623 
L 385.661839 114.382411 
L 385.937427 114.382411 
L 386.052057 111.8412 
L 386.23568 111.8412 
L 386.35059 109.299988 
L 386.557028 109.299988 
L 386.717839 101.676353 
L 386.740656 101.676353 
L 386.855574 99.135141 
L 386.97019 99.135141 
L 387.016096 96.593929 
L 387.062004 99.135141 
L 387.337443 99.135141 
L 387.406323 101.676353 
L 387.429258 99.135141 
L 387.566976 99.135141 
L 387.704698 101.676353 
L 387.934229 101.676353 
L 388.049197 99.135141 
L 388.20967 99.135141 
L 388.347391 101.676353 
L 388.393297 101.676353 
L 388.508213 99.135141 
L 388.622831 99.135141 
L 388.737689 101.676353 
L 389.196802 101.676353 
L 389.311432 104.217564 
L 389.357338 104.217564 
L 389.472214 101.676353 
L 389.931321 101.676353 
L 390.045938 99.135141 
L 391.101791 99.135141 
L 391.216709 96.593929 
L 391.331326 96.593929 
L 391.446262 94.052717 
L 391.56086 94.052717 
L 391.698811 99.135141 
L 391.744484 99.135141 
L 391.859397 96.593929 
L 392.157643 96.593929 
L 392.272571 99.135141 
L 392.364358 99.135141 
L 392.45618 96.593929 
L 392.570995 99.135141 
L 392.915278 99.135141 
L 393.029872 96.593929 
L 393.190677 96.593929 
L 393.305314 94.052717 
L 393.351221 94.052717 
L 393.466007 96.593929 
L 393.488941 96.593929 
L 393.603814 99.135141 
L 393.741533 99.135141 
L 393.856414 101.676353 
L 394.154636 101.676353 
L 394.269352 99.135141 
L 394.361164 99.135141 
L 394.476109 96.593929 
L 394.567861 96.593929 
L 394.682513 99.135141 
L 394.843326 99.135141 
L 394.957954 101.676353 
L 395.026953 101.676353 
L 395.141582 99.135141 
L 395.531904 99.135141 
L 395.646552 96.593929 
L 395.921993 96.593929 
L 395.967898 94.052717 
L 396.014013 96.593929 
L 396.128713 96.593929 
L 396.24334 99.135141 
L 396.381055 99.135141 
L 396.495848 101.676353 
L 396.541856 101.676353 
L 396.656499 104.217564 
L 396.679604 104.217564 
L 396.840127 111.8412 
L 396.886288 111.8412 
L 397.06966 116.923623 
L 397.092709 116.923623 
L 397.230485 122.006047 
L 397.368092 122.006047 
L 397.505892 127.08847 
L 398.033696 127.08847 
L 398.240336 139.794529 
L 398.286299 139.794529 
L 398.446852 129.629682 
L 398.58457 137.253317 
L 398.814101 137.253317 
L 398.928929 139.794529 
L 399.135446 139.794529 
L 399.158533 137.253317 
L 399.227258 139.794529 
L 399.342208 139.794529 
L 399.456789 144.876952 
L 399.732227 134.712105 
L 399.869948 134.712105 
L 399.961759 132.170894 
L 400.076651 134.712105 
L 400.09948 134.712105 
L 400.260313 127.08847 
L 400.420824 127.08847 
L 400.535698 124.547258 
L 400.925798 124.547258 
L 401.040707 127.08847 
L 401.178411 127.08847 
L 401.293047 129.629682 
L 401.338957 129.629682 
L 401.45383 127.08847 
L 401.614396 139.794529 
L 401.752116 137.253317 
L 401.775224 137.253317 
L 401.821023 139.794529 
L 401.867036 137.253317 
L 401.981647 134.712105 
L 402.027554 134.712105 
L 402.188407 139.794529 
L 402.32613 134.712105 
L 402.417901 137.253317 
L 402.532524 134.712105 
L 402.555542 134.712105 
L 402.578431 132.170894 
L 402.647472 134.712105 
L 402.670245 134.712105 
L 402.807963 139.794529 
L 402.87698 137.253317 
L 402.899776 139.794529 
L 403.152437 139.794529 
L 403.175213 142.335741 
L 403.244244 139.794529 
L 403.359064 137.253317 
L 403.404746 137.253317 
L 403.519621 134.712105 
L 403.588371 134.712105 
L 403.726089 139.794529 
L 403.840901 137.253317 
L 403.886889 137.253317 
L 404.001528 139.794529 
L 404.047436 139.794529 
L 404.162339 137.253317 
L 404.185154 137.253317 
L 404.460593 127.08847 
L 405.149188 127.08847 
L 405.264109 124.547258 
L 406.480473 124.547258 
L 406.5953 122.006047 
L 406.733007 122.006047 
L 406.847722 119.464835 
L 406.893631 119.464835 
L 407.008494 116.923623 
L 407.077259 116.923623 
L 407.100285 119.464835 
L 407.169072 116.923623 
L 407.30679 116.923623 
L 407.421628 114.382411 
L 407.444511 114.382411 
L 407.582231 109.299988 
L 407.719951 109.299988 
L 407.834761 106.758776 
L 407.99539 106.758776 
L 408.087202 109.299988 
L 408.133097 109.299988 
L 408.156101 106.758776 
L 408.224917 109.299988 
L 408.270824 109.299988 
L 408.385693 111.8412 
L 408.523399 111.8412 
L 408.638075 109.299988 
L 408.752953 109.299988 
L 408.913514 101.676353 
L 409.464393 101.676353 
L 409.579295 104.217564 
L 409.693923 104.217564 
L 409.831789 99.135141 
L 409.877549 99.135141 
L 410.015267 94.052717 
L 410.152988 94.052717 
L 410.244803 96.593929 
L 410.336616 96.593929 
L 410.451461 94.052717 
L 410.474334 94.052717 
L 410.589161 96.593929 
L 410.910573 96.593929 
L 411.025213 94.052717 
L 411.346557 94.052717 
L 411.461474 91.511506 
L 411.736846 91.511506 
L 411.805622 88.970294 
L 411.82865 91.511506 
L 412.035154 91.511506 
L 412.172875 86.429082 
L 412.379567 86.429082 
L 412.51729 81.346659 
L 412.884419 81.346659 
L 412.999189 78.805447 
L 413.114107 78.805447 
L 413.228721 81.346659 
L 413.756661 81.346659 
L 413.871413 78.805447 
L 414.100945 78.805447 
L 414.215784 81.346659 
L 414.284571 81.346659 
L 414.39946 83.88787 
L 414.445355 83.88787 
L 414.56001 81.346659 
L 414.83545 81.346659 
L 414.950331 78.805447 
L 415.04202 78.805447 
L 415.156796 76.264235 
L 416.166739 76.264235 
L 416.281657 73.723023 
L 416.993057 73.723023 
L 417.107953 71.181812 
L 417.819374 71.181812 
L 417.934238 68.6406 
L 418.393318 68.6406 
L 418.507971 66.099388 
L 418.530987 66.099388 
L 418.645692 68.6406 
L 418.760541 68.6406 
L 418.875225 66.099388 
L 419.403228 66.099388 
L 419.517915 63.558176 
L 420.550963 63.558176 
L 420.66558 61.016965 
L 425.394174 61.016965 
L 425.508818 58.475753 
L 427.528695 58.475753 
L 427.643387 55.934541 
L 431.568532 55.934541 
L 431.683162 53.393329 
L 435.309781 53.393329 
L 435.4475 50.852118 
L 439.602156 50.852118 
L 439.716808 53.393329 
L 439.831684 53.393329 
L 439.946339 55.934541 
L 440.084246 55.934541 
L 440.198908 58.475753 
L 440.359495 58.475753 
L 440.474352 61.016965 
L 440.497216 61.016965 
L 440.680841 66.099388 
L 440.726747 66.099388 
L 440.841658 63.558176 
L 440.910374 63.558176 
L 440.956544 66.099388 
L 441.002186 63.558176 
L 441.117101 63.558176 
L 441.254812 68.6406 
L 441.300685 68.6406 
L 441.438365 73.723023 
L 441.576147 73.723023 
L 441.690782 76.264235 
L 443.205692 76.264235 
L 443.320564 73.723023 
L 443.481131 73.723023 
L 443.595963 76.264235 
L 444.468205 76.264235 
L 444.628789 83.88787 
L 444.651867 83.88787 
L 444.789613 91.511506 
L 444.904229 88.970294 
L 445.019148 88.970294 
L 445.156851 94.052717 
L 445.29444 94.052717 
L 445.340449 91.511506 
L 445.386328 94.052717 
L 445.570005 94.052717 
L 445.615893 91.511506 
L 445.661785 94.052717 
L 445.845459 94.052717 
L 445.868261 91.511506 
L 445.937226 94.052717 
L 445.983172 94.052717 
L 446.097793 96.593929 
L 446.189606 96.593929 
L 446.304504 99.135141 
L 446.396314 99.135141 
L 446.534022 94.052717 
L 446.557089 94.052717 
L 446.717664 114.382411 
L 446.78639 111.8412 
L 446.855331 109.299988 
L 446.878202 111.8412 
L 446.947123 111.8412 
L 447.061826 114.382411 
L 447.107731 114.382411 
L 447.176725 111.8412 
L 447.199546 114.382411 
L 447.222606 114.382411 
L 447.360349 109.299988 
L 447.38317 109.299988 
L 447.452041 106.758776 
L 447.474981 109.299988 
L 447.658607 119.464835 
L 447.704513 119.464835 
L 447.819374 122.006047 
L 447.934047 119.464835 
L 447.979953 119.464835 
L 448.071762 122.006047 
L 448.25539 111.8412 
L 448.439016 106.758776 
L 448.462113 106.758776 
L 448.599777 94.052717 
L 448.668548 94.052717 
L 448.783409 91.511506 
L 448.967072 91.511506 
L 449.081705 88.970294 
L 449.10474 88.970294 
L 449.26533 81.346659 
L 449.311237 81.346659 
L 449.448956 76.264235 
L 450 76.264235 
L 450 76.264235 
" clip-path="url(#p71f7a4918c)" style="fill: none; stroke: #ff7f0e; stroke-width: 1.5; stroke-linecap: square"/>
   </g>
   <g id="patch_3">
    <path d="M 51.05 279.561175 
L 51.05 25.44 
" style="fill: none; stroke: #000000; stroke-width: 0.8; stroke-linejoin: miter; stroke-linecap: square"/>
   </g>
   <g id="patch_4">
    <path d="M 450 279.561175 
L 450 25.44 
" style="fill: none; stroke: #000000; stroke-width: 0.8; stroke-linejoin: miter; stroke-linecap: square"/>
   </g>
   <g id="patch_5">
    <path d="M 51.05 279.561175 
L 450 279.561175 
" style="fill: none; stroke: #000000; stroke-width: 0.8; stroke-linejoin: miter; stroke-linecap: square"/>
   </g>
   <g id="patch_6">
    <path d="M 51.05 25.44 
L 450 25.44 
" style="fill: none; stroke: #000000; stroke-width: 0.8; stroke-linejoin: miter; stroke-linecap: square"/>
   </g>
   <g id="text_17">
    <!-- November 2023 -->
    <g transform="translate(202.133125 19.44) scale(0.12 -0.12)">
     <defs>
      <path id="DejaVuSans-4e" d="M 628 4666 
L 1478 4666 
L 3547 763 
L 3547 4666 
L 4159 4666 
L 4159 0 
L 3309 0 
L 1241 3903 
L 1241 0 
L 628 0 
L 628 4666 
z
" transform="scale(0.015625)"/>
      <path id="DejaVuSans-6f" d="M 1959 3097 
Q 1497 3097 1228 2736 
Q 959 2375 959 1747 
Q 959 1119 1226 758 
Q 1494 397 1959 397 
Q 2419 397 2687 759 
Q 2956 1122 2956 1747 
Q 2956 2369 2687 2733 
Q 2419 3097 1959 3097 
z
M 1959 3584 
Q 2709 3584 3137 3096 
Q 3566 2609 3566 1747 
Q 3566 888 3137 398 
Q 2709 -91 1959 -91 
Q 1206 -91 779 398 
Q 353 888 353 1747 
Q 353 2609 779 3096 
Q 1206 3584 1959 3584 
z
" transform="scale(0.015625)"/>
      <path id="DejaVuSans-76" d="M 191 3500 
L 800 3500 
L 1894 563 
L 2988 3500 
L 3597 3500 
L 2284 0 
L 1503 0 
L 191 3500 
z
" transform="scale(0.015625)"/>
      <path id="DejaVuSans-65" d="M 3597 1894 
L 3597 1613 
L 953 1613 
Q 991 1019 1311 708 
Q 1631 397 2203 397 
Q 2534 397 2845 478 
Q 3156 559 3463 722 
L 3463 178 
Q 3153 47 2828 -22 
Q 2503 -91 2169 -91 
Q 1331 -91 842 396 
Q 353 884 353 1716 
Q 353 2575 817 3079 
Q 1281 3584 2069 3584 
Q 2775 3584 3186 3129 
Q 3597 2675 3597 1894 
z
M 3022 2063 
Q 3016 2534 2758 2815 
Q 2500 3097 2075 3097 
Q 1594 3097 1305 2825 
Q 1016 2553 972 2059 
L 3022 2063 
z
" transform="scale(0.015625)"/>
      <path id="DejaVuSans-62" d="M 3116 1747 
Q 3116 2381 2855 2742 
Q 2594 3103 2138 3103 
Q 1681 3103 1420 2742 
Q 1159 2381 1159 1747 
Q 1159 1113 1420 752 
Q 1681 391 2138 391 
Q 2594 391 2855 752 
Q 3116 1113 3116 1747 
z
M 1159 2969 
Q 1341 3281 1617 3432 
Q 1894 3584 2278 3584 
Q 2916 3584 3314 3078 
Q 3713 2572 3713 1747 
Q 3713 922 3314 415 
Q 2916 -91 2278 -91 
Q 1894 -91 1617 61 
Q 1341 213 1159 525 
L 1159 0 
L 581 0 
L 581 4863 
L 1159 4863 
L 1159 2969 
z
" transform="scale(0.015625)"/>
      <path id="DejaVuSans-72" d="M 2631 2963 
Q 2534 3019 2420 3045 
Q 2306 3072 2169 3072 
Q 1681 3072 1420 2755 
Q 1159 2438 1159 1844 
L 1159 0 
L 581 0 
L 581 3500 
L 1159 3500 
L 1159 2956 
Q 1341 3275 1631 3429 
Q 1922 3584 2338 3584 
Q 2397 3584 2469 3576 
Q 2541 3569 2628 3553 
L 2631 2963 
z
" transform="scale(0.015625)"/>
     </defs>
     <use xlink:href="#DejaVuSans-4e"/>
     <use xlink:href="#DejaVuSans-6f" x="74.804688"/>
     <use xlink:href="#DejaVuSans-76" x="135.986328"/>
     <use xlink:href="#DejaVuSans-65" x="195.166016"/>
     <use xlink:href="#DejaVuSans-6d" x="256.689453"/>
     <use xlink:href="#DejaVuSans-62" x="354.101562"/>
     <use xlink:href="#DejaVuSans-65" x="417.578125"/>
     <use xlink:href="#DejaVuSans-72" x="479.101562"/>
     <use xlink:href="#DejaVuSans-20" x="520.214844"/>
     <use xlink:href="#DejaVuSans-32" x="552.001953"/>
     <use xlink:href="#DejaVuSans-30" x="615.625"/>
     <use xlink:href="#DejaVuSans-32" x="679.248047"/>
     <use xlink:href="#DejaVuSans-33" x="742.871094"/>
    </g>
   </g>
  </g>
 </g>
 <defs>
  <clipPath id="p71f7a4918c">
   <rect x="51.05" y="25.44" width="398.95" height="254.121175"/>
  </clipPath>
 </defs>
</svg>
