<?xml version="1.0" encoding="utf-8" standalone="no"?>
<!DOCTYPE svg PUBLIC "-//W3C//DTD SVG 1.1//EN"
  "http://www.w3.org/Graphics/SVG/1.1/DTD/svg11.dtd">
<svg xmlns:xlink="http://www.w3.org/1999/xlink" width="460.8pt" height="345.6pt" viewBox="0 0 460.8 345.6" xmlns="http://www.w3.org/2000/svg" version="1.1">
 <metadata>
  <rdf:RDF xmlns:dc="http://purl.org/dc/elements/1.1/" xmlns:cc="http://creativecommons.org/ns#" xmlns:rdf="http://www.w3.org/1999/02/22-rdf-syntax-ns#">
   <cc:Work>
    <dc:type rdf:resource="http://purl.org/dc/dcmitype/StillImage"/>
    <dc:date>2023-11-06T19:19:13.630508</dc:date>
    <dc:format>image/svg+xml</dc:format>
    <dc:creator>
     <cc:Agent>
      <dc:title>Matplotlib v3.6.3, https://matplotlib.org/</dc:title>
     </cc:Agent>
    </dc:creator>
   </cc:Work>
  </rdf:RDF>
 </metadata>
 <defs>
  <style type="text/css">*{stroke-linejoin: round; stroke-linecap: butt}</style>
 </defs>
 <g id="figure_1">
  <g id="patch_1">
   <path d="M 0 345.6 
L 460.8 345.6 
L 460.8 0 
L 0 0 
z
" style="fill: #ffffff"/>
  </g>
  <g id="axes_1">
   <g id="patch_2">
    <path d="M 51.05 279.561175 
L 450 279.561175 
L 450 25.44 
L 51.05 25.44 
z
" style="fill: #ffffff"/>
   </g>
   <g id="matplotlib.axis_1">
    <g id="xtick_1">
     <g id="line2d_1">
      <path d="M 119.752491 279.561175 
L 119.752491 25.44 
" clip-path="url(#p4a2e2296d8)" style="fill: none; stroke: #b0b0b0; stroke-width: 0.8; stroke-linecap: square"/>
     </g>
     <g id="line2d_2">
      <defs>
       <path id="m7d65ceac0e" d="M 0 0 
L 0 3.5 
" style="stroke: #000000; stroke-width: 0.8"/>
      </defs>
      <g>
       <use xlink:href="#m7d65ceac0e" x="119.752491" y="279.561175" style="stroke: #000000; stroke-width: 0.8"/>
      </g>
     </g>
     <g id="text_1">
      <!-- 2023-11-02 -->
      <g transform="translate(77.187978 333.028035) rotate(-45) scale(0.1 -0.1)">
       <defs>
        <path id="DejaVuSans-32" d="M 1228 531 
L 3431 531 
L 3431 0 
L 469 0 
L 469 531 
Q 828 903 1448 1529 
Q 2069 2156 2228 2338 
Q 2531 2678 2651 2914 
Q 2772 3150 2772 3378 
Q 2772 3750 2511 3984 
Q 2250 4219 1831 4219 
Q 1534 4219 1204 4116 
Q 875 4013 500 3803 
L 500 4441 
Q 881 4594 1212 4672 
Q 1544 4750 1819 4750 
Q 2544 4750 2975 4387 
Q 3406 4025 3406 3419 
Q 3406 3131 3298 2873 
Q 3191 2616 2906 2266 
Q 2828 2175 2409 1742 
Q 1991 1309 1228 531 
z
" transform="scale(0.015625)"/>
        <path id="DejaVuSans-30" d="M 2034 4250 
Q 1547 4250 1301 3770 
Q 1056 3291 1056 2328 
Q 1056 1369 1301 889 
Q 1547 409 2034 409 
Q 2525 409 2770 889 
Q 3016 1369 3016 2328 
Q 3016 3291 2770 3770 
Q 2525 4250 2034 4250 
z
M 2034 4750 
Q 2819 4750 3233 4129 
Q 3647 3509 3647 2328 
Q 3647 1150 3233 529 
Q 2819 -91 2034 -91 
Q 1250 -91 836 529 
Q 422 1150 422 2328 
Q 422 3509 836 4129 
Q 1250 4750 2034 4750 
z
" transform="scale(0.015625)"/>
        <path id="DejaVuSans-33" d="M 2597 2516 
Q 3050 2419 3304 2112 
Q 3559 1806 3559 1356 
Q 3559 666 3084 287 
Q 2609 -91 1734 -91 
Q 1441 -91 1130 -33 
Q 819 25 488 141 
L 488 750 
Q 750 597 1062 519 
Q 1375 441 1716 441 
Q 2309 441 2620 675 
Q 2931 909 2931 1356 
Q 2931 1769 2642 2001 
Q 2353 2234 1838 2234 
L 1294 2234 
L 1294 2753 
L 1863 2753 
Q 2328 2753 2575 2939 
Q 2822 3125 2822 3475 
Q 2822 3834 2567 4026 
Q 2313 4219 1838 4219 
Q 1578 4219 1281 4162 
Q 984 4106 628 3988 
L 628 4550 
Q 988 4650 1302 4700 
Q 1616 4750 1894 4750 
Q 2613 4750 3031 4423 
Q 3450 4097 3450 3541 
Q 3450 3153 3228 2886 
Q 3006 2619 2597 2516 
z
" transform="scale(0.015625)"/>
        <path id="DejaVuSans-2d" d="M 313 2009 
L 1997 2009 
L 1997 1497 
L 313 1497 
L 313 2009 
z
" transform="scale(0.015625)"/>
        <path id="DejaVuSans-31" d="M 794 531 
L 1825 531 
L 1825 4091 
L 703 3866 
L 703 4441 
L 1819 4666 
L 2450 4666 
L 2450 531 
L 3481 531 
L 3481 0 
L 794 0 
L 794 531 
z
" transform="scale(0.015625)"/>
       </defs>
       <use xlink:href="#DejaVuSans-32"/>
       <use xlink:href="#DejaVuSans-30" x="63.623047"/>
       <use xlink:href="#DejaVuSans-32" x="127.246094"/>
       <use xlink:href="#DejaVuSans-33" x="190.869141"/>
       <use xlink:href="#DejaVuSans-2d" x="254.492188"/>
       <use xlink:href="#DejaVuSans-31" x="290.576172"/>
       <use xlink:href="#DejaVuSans-31" x="354.199219"/>
       <use xlink:href="#DejaVuSans-2d" x="417.822266"/>
       <use xlink:href="#DejaVuSans-30" x="453.90625"/>
       <use xlink:href="#DejaVuSans-32" x="517.529297"/>
      </g>
     </g>
    </g>
    <g id="xtick_2">
     <g id="line2d_3">
      <path d="M 188.491552 279.561175 
L 188.491552 25.44 
" clip-path="url(#p4a2e2296d8)" style="fill: none; stroke: #b0b0b0; stroke-width: 0.8; stroke-linecap: square"/>
     </g>
     <g id="line2d_4">
      <g>
       <use xlink:href="#m7d65ceac0e" x="188.491552" y="279.561175" style="stroke: #000000; stroke-width: 0.8"/>
      </g>
     </g>
     <g id="text_2">
      <!-- 2023-11-03 -->
      <g transform="translate(145.927038 333.028035) rotate(-45) scale(0.1 -0.1)">
       <use xlink:href="#DejaVuSans-32"/>
       <use xlink:href="#DejaVuSans-30" x="63.623047"/>
       <use xlink:href="#DejaVuSans-32" x="127.246094"/>
       <use xlink:href="#DejaVuSans-33" x="190.869141"/>
       <use xlink:href="#DejaVuSans-2d" x="254.492188"/>
       <use xlink:href="#DejaVuSans-31" x="290.576172"/>
       <use xlink:href="#DejaVuSans-31" x="354.199219"/>
       <use xlink:href="#DejaVuSans-2d" x="417.822266"/>
       <use xlink:href="#DejaVuSans-30" x="453.90625"/>
       <use xlink:href="#DejaVuSans-33" x="517.529297"/>
      </g>
     </g>
    </g>
    <g id="xtick_3">
     <g id="line2d_5">
      <path d="M 257.230613 279.561175 
L 257.230613 25.44 
" clip-path="url(#p4a2e2296d8)" style="fill: none; stroke: #b0b0b0; stroke-width: 0.8; stroke-linecap: square"/>
     </g>
     <g id="line2d_6">
      <g>
       <use xlink:href="#m7d65ceac0e" x="257.230613" y="279.561175" style="stroke: #000000; stroke-width: 0.8"/>
      </g>
     </g>
     <g id="text_3">
      <!-- 2023-11-04 -->
      <g transform="translate(214.666099 333.028035) rotate(-45) scale(0.1 -0.1)">
       <defs>
        <path id="DejaVuSans-34" d="M 2419 4116 
L 825 1625 
L 2419 1625 
L 2419 4116 
z
M 2253 4666 
L 3047 4666 
L 3047 1625 
L 3713 1625 
L 3713 1100 
L 3047 1100 
L 3047 0 
L 2419 0 
L 2419 1100 
L 313 1100 
L 313 1709 
L 2253 4666 
z
" transform="scale(0.015625)"/>
       </defs>
       <use xlink:href="#DejaVuSans-32"/>
       <use xlink:href="#DejaVuSans-30" x="63.623047"/>
       <use xlink:href="#DejaVuSans-32" x="127.246094"/>
       <use xlink:href="#DejaVuSans-33" x="190.869141"/>
       <use xlink:href="#DejaVuSans-2d" x="254.492188"/>
       <use xlink:href="#DejaVuSans-31" x="290.576172"/>
       <use xlink:href="#DejaVuSans-31" x="354.199219"/>
       <use xlink:href="#DejaVuSans-2d" x="417.822266"/>
       <use xlink:href="#DejaVuSans-30" x="453.90625"/>
       <use xlink:href="#DejaVuSans-34" x="517.529297"/>
      </g>
     </g>
    </g>
    <g id="xtick_4">
     <g id="line2d_7">
      <path d="M 325.969674 279.561175 
L 325.969674 25.44 
" clip-path="url(#p4a2e2296d8)" style="fill: none; stroke: #b0b0b0; stroke-width: 0.8; stroke-linecap: square"/>
     </g>
     <g id="line2d_8">
      <g>
       <use xlink:href="#m7d65ceac0e" x="325.969674" y="279.561175" style="stroke: #000000; stroke-width: 0.8"/>
      </g>
     </g>
     <g id="text_4">
      <!-- 2023-11-05 -->
      <g transform="translate(283.40516 333.028035) rotate(-45) scale(0.1 -0.1)">
       <defs>
        <path id="DejaVuSans-35" d="M 691 4666 
L 3169 4666 
L 3169 4134 
L 1269 4134 
L 1269 2991 
Q 1406 3038 1543 3061 
Q 1681 3084 1819 3084 
Q 2600 3084 3056 2656 
Q 3513 2228 3513 1497 
Q 3513 744 3044 326 
Q 2575 -91 1722 -91 
Q 1428 -91 1123 -41 
Q 819 9 494 109 
L 494 744 
Q 775 591 1075 516 
Q 1375 441 1709 441 
Q 2250 441 2565 725 
Q 2881 1009 2881 1497 
Q 2881 1984 2565 2268 
Q 2250 2553 1709 2553 
Q 1456 2553 1204 2497 
Q 953 2441 691 2322 
L 691 4666 
z
" transform="scale(0.015625)"/>
       </defs>
       <use xlink:href="#DejaVuSans-32"/>
       <use xlink:href="#DejaVuSans-30" x="63.623047"/>
       <use xlink:href="#DejaVuSans-32" x="127.246094"/>
       <use xlink:href="#DejaVuSans-33" x="190.869141"/>
       <use xlink:href="#DejaVuSans-2d" x="254.492188"/>
       <use xlink:href="#DejaVuSans-31" x="290.576172"/>
       <use xlink:href="#DejaVuSans-31" x="354.199219"/>
       <use xlink:href="#DejaVuSans-2d" x="417.822266"/>
       <use xlink:href="#DejaVuSans-30" x="453.90625"/>
       <use xlink:href="#DejaVuSans-35" x="517.529297"/>
      </g>
     </g>
    </g>
    <g id="xtick_5">
     <g id="line2d_9">
      <path d="M 394.708735 279.561175 
L 394.708735 25.44 
" clip-path="url(#p4a2e2296d8)" style="fill: none; stroke: #b0b0b0; stroke-width: 0.8; stroke-linecap: square"/>
     </g>
     <g id="line2d_10">
      <g>
       <use xlink:href="#m7d65ceac0e" x="394.708735" y="279.561175" style="stroke: #000000; stroke-width: 0.8"/>
      </g>
     </g>
     <g id="text_5">
      <!-- 2023-11-06 -->
      <g transform="translate(352.144221 333.028035) rotate(-45) scale(0.1 -0.1)">
       <defs>
        <path id="DejaVuSans-36" d="M 2113 2584 
Q 1688 2584 1439 2293 
Q 1191 2003 1191 1497 
Q 1191 994 1439 701 
Q 1688 409 2113 409 
Q 2538 409 2786 701 
Q 3034 994 3034 1497 
Q 3034 2003 2786 2293 
Q 2538 2584 2113 2584 
z
M 3366 4563 
L 3366 3988 
Q 3128 4100 2886 4159 
Q 2644 4219 2406 4219 
Q 1781 4219 1451 3797 
Q 1122 3375 1075 2522 
Q 1259 2794 1537 2939 
Q 1816 3084 2150 3084 
Q 2853 3084 3261 2657 
Q 3669 2231 3669 1497 
Q 3669 778 3244 343 
Q 2819 -91 2113 -91 
Q 1303 -91 875 529 
Q 447 1150 447 2328 
Q 447 3434 972 4092 
Q 1497 4750 2381 4750 
Q 2619 4750 2861 4703 
Q 3103 4656 3366 4563 
z
" transform="scale(0.015625)"/>
       </defs>
       <use xlink:href="#DejaVuSans-32"/>
       <use xlink:href="#DejaVuSans-30" x="63.623047"/>
       <use xlink:href="#DejaVuSans-32" x="127.246094"/>
       <use xlink:href="#DejaVuSans-33" x="190.869141"/>
       <use xlink:href="#DejaVuSans-2d" x="254.492188"/>
       <use xlink:href="#DejaVuSans-31" x="290.576172"/>
       <use xlink:href="#DejaVuSans-31" x="354.199219"/>
       <use xlink:href="#DejaVuSans-2d" x="417.822266"/>
       <use xlink:href="#DejaVuSans-30" x="453.90625"/>
       <use xlink:href="#DejaVuSans-36" x="517.529297"/>
      </g>
     </g>
    </g>
   </g>
   <g id="matplotlib.axis_2">
    <g id="ytick_1">
     <g id="line2d_11">
      <path d="M 51.05 275.373376 
L 450 275.373376 
" clip-path="url(#p4a2e2296d8)" style="fill: none; stroke: #b0b0b0; stroke-width: 0.8; stroke-linecap: square"/>
     </g>
     <g id="line2d_12">
      <defs>
       <path id="md1619f7be1" d="M 0 0 
L -3.5 0 
" style="stroke: #000000; stroke-width: 0.8"/>
      </defs>
      <g>
       <use xlink:href="#md1619f7be1" x="51.05" y="275.373376" style="stroke: #000000; stroke-width: 0.8"/>
      </g>
     </g>
     <g id="text_6">
      <!-- 330 -->
      <g transform="translate(24.9625 279.172595) scale(0.1 -0.1)">
       <use xlink:href="#DejaVuSans-33"/>
       <use xlink:href="#DejaVuSans-33" x="63.623047"/>
       <use xlink:href="#DejaVuSans-30" x="127.246094"/>
      </g>
     </g>
    </g>
    <g id="ytick_2">
     <g id="line2d_13">
      <path d="M 51.05 244.693529 
L 450 244.693529 
" clip-path="url(#p4a2e2296d8)" style="fill: none; stroke: #b0b0b0; stroke-width: 0.8; stroke-linecap: square"/>
     </g>
     <g id="line2d_14">
      <g>
       <use xlink:href="#md1619f7be1" x="51.05" y="244.693529" style="stroke: #000000; stroke-width: 0.8"/>
      </g>
     </g>
     <g id="text_7">
      <!-- 340 -->
      <g transform="translate(24.9625 248.492748) scale(0.1 -0.1)">
       <use xlink:href="#DejaVuSans-33"/>
       <use xlink:href="#DejaVuSans-34" x="63.623047"/>
       <use xlink:href="#DejaVuSans-30" x="127.246094"/>
      </g>
     </g>
    </g>
    <g id="ytick_3">
     <g id="line2d_15">
      <path d="M 51.05 214.013682 
L 450 214.013682 
" clip-path="url(#p4a2e2296d8)" style="fill: none; stroke: #b0b0b0; stroke-width: 0.8; stroke-linecap: square"/>
     </g>
     <g id="line2d_16">
      <g>
       <use xlink:href="#md1619f7be1" x="51.05" y="214.013682" style="stroke: #000000; stroke-width: 0.8"/>
      </g>
     </g>
     <g id="text_8">
      <!-- 350 -->
      <g transform="translate(24.9625 217.8129) scale(0.1 -0.1)">
       <use xlink:href="#DejaVuSans-33"/>
       <use xlink:href="#DejaVuSans-35" x="63.623047"/>
       <use xlink:href="#DejaVuSans-30" x="127.246094"/>
      </g>
     </g>
    </g>
    <g id="ytick_4">
     <g id="line2d_17">
      <path d="M 51.05 183.333834 
L 450 183.333834 
" clip-path="url(#p4a2e2296d8)" style="fill: none; stroke: #b0b0b0; stroke-width: 0.8; stroke-linecap: square"/>
     </g>
     <g id="line2d_18">
      <g>
       <use xlink:href="#md1619f7be1" x="51.05" y="183.333834" style="stroke: #000000; stroke-width: 0.8"/>
      </g>
     </g>
     <g id="text_9">
      <!-- 360 -->
      <g transform="translate(24.9625 187.133053) scale(0.1 -0.1)">
       <use xlink:href="#DejaVuSans-33"/>
       <use xlink:href="#DejaVuSans-36" x="63.623047"/>
       <use xlink:href="#DejaVuSans-30" x="127.246094"/>
      </g>
     </g>
    </g>
    <g id="ytick_5">
     <g id="line2d_19">
      <path d="M 51.05 152.653987 
L 450 152.653987 
" clip-path="url(#p4a2e2296d8)" style="fill: none; stroke: #b0b0b0; stroke-width: 0.8; stroke-linecap: square"/>
     </g>
     <g id="line2d_20">
      <g>
       <use xlink:href="#md1619f7be1" x="51.05" y="152.653987" style="stroke: #000000; stroke-width: 0.8"/>
      </g>
     </g>
     <g id="text_10">
      <!-- 370 -->
      <g transform="translate(24.9625 156.453206) scale(0.1 -0.1)">
       <defs>
        <path id="DejaVuSans-37" d="M 525 4666 
L 3525 4666 
L 3525 4397 
L 1831 0 
L 1172 0 
L 2766 4134 
L 525 4134 
L 525 4666 
z
" transform="scale(0.015625)"/>
       </defs>
       <use xlink:href="#DejaVuSans-33"/>
       <use xlink:href="#DejaVuSans-37" x="63.623047"/>
       <use xlink:href="#DejaVuSans-30" x="127.246094"/>
      </g>
     </g>
    </g>
    <g id="ytick_6">
     <g id="line2d_21">
      <path d="M 51.05 121.97414 
L 450 121.97414 
" clip-path="url(#p4a2e2296d8)" style="fill: none; stroke: #b0b0b0; stroke-width: 0.8; stroke-linecap: square"/>
     </g>
     <g id="line2d_22">
      <g>
       <use xlink:href="#md1619f7be1" x="51.05" y="121.97414" style="stroke: #000000; stroke-width: 0.8"/>
      </g>
     </g>
     <g id="text_11">
      <!-- 380 -->
      <g transform="translate(24.9625 125.773358) scale(0.1 -0.1)">
       <defs>
        <path id="DejaVuSans-38" d="M 2034 2216 
Q 1584 2216 1326 1975 
Q 1069 1734 1069 1313 
Q 1069 891 1326 650 
Q 1584 409 2034 409 
Q 2484 409 2743 651 
Q 3003 894 3003 1313 
Q 3003 1734 2745 1975 
Q 2488 2216 2034 2216 
z
M 1403 2484 
Q 997 2584 770 2862 
Q 544 3141 544 3541 
Q 544 4100 942 4425 
Q 1341 4750 2034 4750 
Q 2731 4750 3128 4425 
Q 3525 4100 3525 3541 
Q 3525 3141 3298 2862 
Q 3072 2584 2669 2484 
Q 3125 2378 3379 2068 
Q 3634 1759 3634 1313 
Q 3634 634 3220 271 
Q 2806 -91 2034 -91 
Q 1263 -91 848 271 
Q 434 634 434 1313 
Q 434 1759 690 2068 
Q 947 2378 1403 2484 
z
M 1172 3481 
Q 1172 3119 1398 2916 
Q 1625 2713 2034 2713 
Q 2441 2713 2670 2916 
Q 2900 3119 2900 3481 
Q 2900 3844 2670 4047 
Q 2441 4250 2034 4250 
Q 1625 4250 1398 4047 
Q 1172 3844 1172 3481 
z
" transform="scale(0.015625)"/>
       </defs>
       <use xlink:href="#DejaVuSans-33"/>
       <use xlink:href="#DejaVuSans-38" x="63.623047"/>
       <use xlink:href="#DejaVuSans-30" x="127.246094"/>
      </g>
     </g>
    </g>
    <g id="ytick_7">
     <g id="line2d_23">
      <path d="M 51.05 91.294292 
L 450 91.294292 
" clip-path="url(#p4a2e2296d8)" style="fill: none; stroke: #b0b0b0; stroke-width: 0.8; stroke-linecap: square"/>
     </g>
     <g id="line2d_24">
      <g>
       <use xlink:href="#md1619f7be1" x="51.05" y="91.294292" style="stroke: #000000; stroke-width: 0.8"/>
      </g>
     </g>
     <g id="text_12">
      <!-- 390 -->
      <g transform="translate(24.9625 95.093511) scale(0.1 -0.1)">
       <defs>
        <path id="DejaVuSans-39" d="M 703 97 
L 703 672 
Q 941 559 1184 500 
Q 1428 441 1663 441 
Q 2288 441 2617 861 
Q 2947 1281 2994 2138 
Q 2813 1869 2534 1725 
Q 2256 1581 1919 1581 
Q 1219 1581 811 2004 
Q 403 2428 403 3163 
Q 403 3881 828 4315 
Q 1253 4750 1959 4750 
Q 2769 4750 3195 4129 
Q 3622 3509 3622 2328 
Q 3622 1225 3098 567 
Q 2575 -91 1691 -91 
Q 1453 -91 1209 -44 
Q 966 3 703 97 
z
M 1959 2075 
Q 2384 2075 2632 2365 
Q 2881 2656 2881 3163 
Q 2881 3666 2632 3958 
Q 2384 4250 1959 4250 
Q 1534 4250 1286 3958 
Q 1038 3666 1038 3163 
Q 1038 2656 1286 2365 
Q 1534 2075 1959 2075 
z
" transform="scale(0.015625)"/>
       </defs>
       <use xlink:href="#DejaVuSans-33"/>
       <use xlink:href="#DejaVuSans-39" x="63.623047"/>
       <use xlink:href="#DejaVuSans-30" x="127.246094"/>
      </g>
     </g>
    </g>
    <g id="ytick_8">
     <g id="line2d_25">
      <path d="M 51.05 60.614445 
L 450 60.614445 
" clip-path="url(#p4a2e2296d8)" style="fill: none; stroke: #b0b0b0; stroke-width: 0.8; stroke-linecap: square"/>
     </g>
     <g id="line2d_26">
      <g>
       <use xlink:href="#md1619f7be1" x="51.05" y="60.614445" style="stroke: #000000; stroke-width: 0.8"/>
      </g>
     </g>
     <g id="text_13">
      <!-- 400 -->
      <g transform="translate(24.9625 64.413664) scale(0.1 -0.1)">
       <use xlink:href="#DejaVuSans-34"/>
       <use xlink:href="#DejaVuSans-30" x="63.623047"/>
       <use xlink:href="#DejaVuSans-30" x="127.246094"/>
      </g>
     </g>
    </g>
    <g id="ytick_9">
     <g id="line2d_27">
      <path d="M 51.05 29.934598 
L 450 29.934598 
" clip-path="url(#p4a2e2296d8)" style="fill: none; stroke: #b0b0b0; stroke-width: 0.8; stroke-linecap: square"/>
     </g>
     <g id="line2d_28">
      <g>
       <use xlink:href="#md1619f7be1" x="51.05" y="29.934598" style="stroke: #000000; stroke-width: 0.8"/>
      </g>
     </g>
     <g id="text_14">
      <!-- 410 -->
      <g transform="translate(24.9625 33.733816) scale(0.1 -0.1)">
       <use xlink:href="#DejaVuSans-34"/>
       <use xlink:href="#DejaVuSans-31" x="63.623047"/>
       <use xlink:href="#DejaVuSans-30" x="127.246094"/>
      </g>
     </g>
    </g>
    <g id="text_15">
     <!-- Rain [mm] -->
     <g transform="translate(18.882812 178.715431) rotate(-90) scale(0.1 -0.1)">
      <defs>
       <path id="DejaVuSans-52" d="M 2841 2188 
Q 3044 2119 3236 1894 
Q 3428 1669 3622 1275 
L 4263 0 
L 3584 0 
L 2988 1197 
Q 2756 1666 2539 1819 
Q 2322 1972 1947 1972 
L 1259 1972 
L 1259 0 
L 628 0 
L 628 4666 
L 2053 4666 
Q 2853 4666 3247 4331 
Q 3641 3997 3641 3322 
Q 3641 2881 3436 2590 
Q 3231 2300 2841 2188 
z
M 1259 4147 
L 1259 2491 
L 2053 2491 
Q 2509 2491 2742 2702 
Q 2975 2913 2975 3322 
Q 2975 3731 2742 3939 
Q 2509 4147 2053 4147 
L 1259 4147 
z
" transform="scale(0.015625)"/>
       <path id="DejaVuSans-61" d="M 2194 1759 
Q 1497 1759 1228 1600 
Q 959 1441 959 1056 
Q 959 750 1161 570 
Q 1363 391 1709 391 
Q 2188 391 2477 730 
Q 2766 1069 2766 1631 
L 2766 1759 
L 2194 1759 
z
M 3341 1997 
L 3341 0 
L 2766 0 
L 2766 531 
Q 2569 213 2275 61 
Q 1981 -91 1556 -91 
Q 1019 -91 701 211 
Q 384 513 384 1019 
Q 384 1609 779 1909 
Q 1175 2209 1959 2209 
L 2766 2209 
L 2766 2266 
Q 2766 2663 2505 2880 
Q 2244 3097 1772 3097 
Q 1472 3097 1187 3025 
Q 903 2953 641 2809 
L 641 3341 
Q 956 3463 1253 3523 
Q 1550 3584 1831 3584 
Q 2591 3584 2966 3190 
Q 3341 2797 3341 1997 
z
" transform="scale(0.015625)"/>
       <path id="DejaVuSans-69" d="M 603 3500 
L 1178 3500 
L 1178 0 
L 603 0 
L 603 3500 
z
M 603 4863 
L 1178 4863 
L 1178 4134 
L 603 4134 
L 603 4863 
z
" transform="scale(0.015625)"/>
       <path id="DejaVuSans-6e" d="M 3513 2113 
L 3513 0 
L 2938 0 
L 2938 2094 
Q 2938 2591 2744 2837 
Q 2550 3084 2163 3084 
Q 1697 3084 1428 2787 
Q 1159 2491 1159 1978 
L 1159 0 
L 581 0 
L 581 3500 
L 1159 3500 
L 1159 2956 
Q 1366 3272 1645 3428 
Q 1925 3584 2291 3584 
Q 2894 3584 3203 3211 
Q 3513 2838 3513 2113 
z
" transform="scale(0.015625)"/>
       <path id="DejaVuSans-20" transform="scale(0.015625)"/>
       <path id="DejaVuSans-5b" d="M 550 4863 
L 1875 4863 
L 1875 4416 
L 1125 4416 
L 1125 -397 
L 1875 -397 
L 1875 -844 
L 550 -844 
L 550 4863 
z
" transform="scale(0.015625)"/>
       <path id="DejaVuSans-6d" d="M 3328 2828 
Q 3544 3216 3844 3400 
Q 4144 3584 4550 3584 
Q 5097 3584 5394 3201 
Q 5691 2819 5691 2113 
L 5691 0 
L 5113 0 
L 5113 2094 
Q 5113 2597 4934 2840 
Q 4756 3084 4391 3084 
Q 3944 3084 3684 2787 
Q 3425 2491 3425 1978 
L 3425 0 
L 2847 0 
L 2847 2094 
Q 2847 2600 2669 2842 
Q 2491 3084 2119 3084 
Q 1678 3084 1418 2786 
Q 1159 2488 1159 1978 
L 1159 0 
L 581 0 
L 581 3500 
L 1159 3500 
L 1159 2956 
Q 1356 3278 1631 3431 
Q 1906 3584 2284 3584 
Q 2666 3584 2933 3390 
Q 3200 3197 3328 2828 
z
" transform="scale(0.015625)"/>
       <path id="DejaVuSans-5d" d="M 1947 4863 
L 1947 -844 
L 622 -844 
L 622 -397 
L 1369 -397 
L 1369 4416 
L 622 4416 
L 622 4863 
L 1947 4863 
z
" transform="scale(0.015625)"/>
      </defs>
      <use xlink:href="#DejaVuSans-52"/>
      <use xlink:href="#DejaVuSans-61" x="67.232422"/>
      <use xlink:href="#DejaVuSans-69" x="128.511719"/>
      <use xlink:href="#DejaVuSans-6e" x="156.294922"/>
      <use xlink:href="#DejaVuSans-20" x="219.673828"/>
      <use xlink:href="#DejaVuSans-5b" x="251.460938"/>
      <use xlink:href="#DejaVuSans-6d" x="290.474609"/>
      <use xlink:href="#DejaVuSans-6d" x="387.886719"/>
      <use xlink:href="#DejaVuSans-5d" x="485.298828"/>
     </g>
    </g>
   </g>
   <g id="line2d_29">
    <path d="M 51.05 268.010213 
L 105.888035 268.010213 
L 106.002284 267.089817 
L 106.117074 267.089817 
L 106.231412 266.169422 
L 106.536916 266.169422 
L 106.651761 265.249027 
L 107.529796 265.249027 
L 107.68255 264.328631 
L 107.835301 264.328631 
L 107.950136 263.408236 
L 108.217179 263.408236 
L 108.293947 262.48784 
L 108.522685 262.48784 
L 108.637489 261.567445 
L 108.980936 261.567445 
L 109.133689 260.64705 
L 109.706856 260.64705 
L 109.82107 259.726654 
L 110.966704 259.726654 
L 111.081507 258.806259 
L 113.028845 258.806259 
L 113.143765 257.885863 
L 114.86186 257.885863 
L 114.976709 256.965468 
L 115.816843 256.965468 
L 115.931126 256.045072 
L 119.330091 256.045072 
L 119.444419 255.124677 
L 122.957714 255.124677 
L 123.072533 254.204282 
L 125.822011 254.204282 
L 125.936391 253.283886 
L 135.674445 253.283886 
L 135.788873 252.363491 
L 137.087259 252.363491 
L 137.202147 251.443095 
L 138.576788 251.443095 
L 138.691144 250.5227 
L 140.257192 250.5227 
L 140.371414 249.602304 
L 142.357176 249.602304 
L 142.47198 248.681909 
L 143.426888 248.681909 
L 143.579195 247.761514 
L 144.572085 247.761514 
L 144.686925 246.841118 
L 145.259466 246.841118 
L 145.374299 245.920723 
L 145.985347 245.920723 
L 146.099602 245.000327 
L 147.130744 245.000327 
L 147.245235 244.079932 
L 148.161743 244.079932 
L 148.2766 243.159537 
L 148.734862 243.159537 
L 148.849126 242.239141 
L 149.154628 242.239141 
L 149.307378 241.318746 
L 149.689257 241.318746 
L 149.804088 240.39835 
L 150.147513 240.39835 
L 150.300265 239.477955 
L 150.720409 239.477955 
L 150.834897 238.557559 
L 151.102526 238.557559 
L 151.216775 237.637164 
L 151.445902 237.637164 
L 151.560717 236.716769 
L 151.751411 236.716769 
L 151.866263 235.796373 
L 152.057286 235.796373 
L 152.209662 234.875978 
L 152.43879 234.875978 
L 152.553597 233.955582 
L 153.011866 233.955582 
L 153.12617 233.035187 
L 153.58443 233.035187 
L 153.699284 232.114792 
L 154.004765 232.114792 
L 154.119063 231.194396 
L 154.271817 231.194396 
L 154.386517 230.274001 
L 154.577324 230.274001 
L 154.692185 229.353605 
L 154.882825 229.353605 
L 154.997409 228.43321 
L 155.188329 228.43321 
L 155.303137 227.512814 
L 155.417465 227.512814 
L 155.532322 226.592419 
L 155.646971 226.592419 
L 155.799343 225.672024 
L 155.91423 225.672024 
L 156.02847 224.751628 
L 156.296097 224.751628 
L 156.410831 223.831233 
L 156.601574 223.831233 
L 156.715856 222.910837 
L 156.907093 222.910837 
L 157.021361 221.990442 
L 157.098149 221.990442 
L 157.21245 221.070046 
L 157.365355 221.070046 
L 157.479622 220.149651 
L 157.594466 220.149651 
L 157.708752 219.229256 
L 157.861505 219.229256 
L 157.976282 218.30886 
L 158.205478 218.30886 
L 158.319755 217.388465 
L 158.5871 217.388465 
L 158.701635 216.468069 
L 158.892808 216.468069 
L 159.007135 215.547674 
L 159.236679 215.547674 
L 159.389014 214.627279 
L 159.541768 214.627279 
L 159.656621 213.706883 
L 160.000004 213.706883 
L 160.114695 212.786488 
L 160.305527 212.786488 
L 160.420416 211.866092 
L 160.649493 211.866092 
L 160.76378 210.945697 
L 160.87867 210.945697 
L 160.992906 210.025301 
L 161.107774 210.025301 
L 161.222035 209.104906 
L 161.375236 209.104906 
L 161.52754 208.184511 
L 161.603915 208.184511 
L 161.718664 207.264115 
L 161.833041 207.264115 
L 161.947951 206.34372 
L 162.024229 206.34372 
L 162.139002 205.423324 
L 162.214919 205.423324 
L 162.329662 204.502929 
L 162.482452 204.502929 
L 162.596798 203.582533 
L 162.673174 203.582533 
L 162.788028 202.662138 
L 162.826419 202.662138 
L 162.978677 201.741743 
L 163.017075 201.741743 
L 163.13143 200.821347 
L 163.169884 200.821347 
L 163.322563 198.980556 
L 163.513307 198.980556 
L 163.666064 198.060161 
L 163.780917 198.060161 
L 163.895186 197.139766 
L 163.933605 197.139766 
L 164.047939 196.21937 
L 164.086343 196.21937 
L 164.200689 195.298975 
L 164.353442 195.298975 
L 164.468153 194.378579 
L 164.544703 194.378579 
L 164.658946 193.458184 
L 164.697402 193.458184 
L 164.811699 192.537788 
L 164.888075 192.537788 
L 164.964806 191.617393 
L 165.155674 191.617393 
L 165.269952 190.696998 
L 165.346324 190.696998 
L 165.49908 188.856207 
L 165.5375 188.856207 
L 165.651831 187.935811 
L 165.880957 186.095021 
L 165.957336 186.095021 
L 166.072198 185.174625 
L 166.148535 185.174625 
L 166.262832 184.25423 
L 166.45376 184.25423 
L 166.568337 183.333834 
L 166.606762 183.333834 
L 166.721092 182.413439 
L 166.835977 182.413439 
L 166.950214 181.493043 
L 167.102967 181.493043 
L 167.255722 180.572648 
L 167.408473 180.572648 
L 167.523315 179.652253 
L 167.561228 179.652253 
L 167.676059 178.731857 
L 167.713982 178.731857 
L 167.790356 177.811462 
L 167.867206 177.811462 
L 167.981466 176.891066 
L 168.172235 176.891066 
L 168.287044 175.970671 
L 168.36347 175.970671 
L 168.477738 175.050275 
L 168.630492 175.050275 
L 168.745311 174.12988 
L 168.821607 174.12988 
L 168.935995 173.209485 
L 169.012375 173.209485 
L 169.127167 172.289089 
L 169.356114 172.289089 
L 169.470625 171.368694 
L 169.661826 171.368694 
L 169.776129 170.448298 
L 169.890966 170.448298 
L 170.005719 169.527903 
L 170.119973 169.527903 
L 170.234395 168.607508 
L 170.501998 168.607508 
L 170.616269 167.687112 
L 170.807286 167.687112 
L 170.921776 166.766717 
L 171.074527 166.766717 
L 171.189398 165.846321 
L 171.303654 165.846321 
L 171.380038 164.925926 
L 171.456896 164.925926 
L 171.571151 164.00553 
L 171.60916 164.00553 
L 171.72385 163.085135 
L 171.800292 163.085135 
L 171.914669 162.16474 
L 172.029492 162.16474 
L 172.144211 161.244344 
L 172.296547 160.323949 
L 172.372923 160.323949 
L 172.48778 159.403553 
L 172.640518 159.403553 
L 172.754803 158.483158 
L 172.831182 158.483158 
L 172.983934 157.562763 
L 173.060308 157.562763 
L 173.175014 156.642367 
L 173.289438 156.642367 
L 173.404178 155.721972 
L 173.442188 155.721972 
L 173.556934 154.801576 
L 173.671316 154.801576 
L 173.786174 153.881181 
L 173.86254 153.881181 
L 173.976828 152.960785 
L 174.091567 152.960785 
L 174.205952 152.04039 
L 174.244442 152.04039 
L 174.358693 151.119995 
L 174.549971 151.119995 
L 174.664209 150.199599 
L 174.779058 150.199599 
L 174.893338 149.279204 
L 175.122464 149.279204 
L 175.237377 148.358808 
L 175.504349 148.358808 
L 175.619172 147.438413 
L 175.695556 147.438413 
L 175.809856 146.518017 
L 175.924693 146.518017 
L 176.038982 145.597622 
L 176.268107 145.597622 
L 176.382967 144.677227 
L 176.535463 144.677227 
L 176.649988 143.756831 
L 176.764871 143.756831 
L 176.879115 142.836436 
L 176.91743 142.836436 
L 177.031866 141.91604 
L 177.413749 141.91604 
L 177.528447 140.995645 
L 177.642874 140.995645 
L 177.757724 140.07525 
L 177.872007 140.07525 
L 178.024762 139.154854 
L 178.21601 139.154854 
L 178.330269 138.234459 
L 178.827005 138.234459 
L 178.941272 137.314063 
L 179.285189 137.314063 
L 179.399524 136.393668 
L 179.896296 136.393668 
L 180.010535 135.473272 
L 180.239663 135.473272 
L 180.35455 134.552877 
L 180.583569 134.552877 
L 180.697917 133.632482 
L 188.641018 133.632482 
L 188.79377 132.712086 
L 188.946518 132.712086 
L 189.0614 131.791691 
L 189.252024 131.791691 
L 189.328401 130.871295 
L 189.519524 130.871295 
L 189.633903 129.9509 
L 189.825158 129.9509 
L 189.939406 129.030504 
L 190.092652 129.030504 
L 190.244912 128.110109 
L 190.474041 128.110109 
L 190.588825 127.189714 
L 190.779544 127.189714 
L 190.932298 126.269318 
L 191.199862 126.269318 
L 191.314176 125.348923 
L 191.505446 125.348923 
L 191.619681 124.428527 
L 191.925184 124.428527 
L 192.039977 123.508132 
L 192.230688 123.508132 
L 192.383439 122.587737 
L 192.459817 122.587737 
L 192.574666 121.667341 
L 192.918074 121.667341 
L 193.070824 120.746946 
L 193.682185 120.746946 
L 193.834583 119.82655 
L 197.577006 119.82655 
L 197.691792 118.906155 
L 197.882508 118.906155 
L 197.958886 117.985759 
L 198.264394 117.985759 
L 198.379201 117.065364 
L 198.608336 117.065364 
L 198.723059 116.144969 
L 198.990185 116.144969 
L 199.104525 115.224573 
L 199.219362 115.224573 
L 199.333653 114.304178 
L 199.410423 114.304178 
L 199.562783 113.383782 
L 199.830391 113.383782 
L 199.944662 112.463387 
L 200.212007 112.463387 
L 200.326545 111.542992 
L 200.708418 111.542992 
L 200.823231 110.622596 
L 201.052408 110.622596 
L 201.166686 109.702201 
L 202.274305 109.702201 
L 202.3887 108.781805 
L 202.770576 108.781805 
L 202.885407 107.86141 
L 203.152459 107.86141 
L 203.267178 106.941014 
L 203.343572 106.941014 
L 203.457959 106.020619 
L 203.49643 106.020619 
L 203.610712 105.100224 
L 203.649145 105.100224 
L 203.801676 103.259433 
L 203.839842 103.259433 
L 203.95467 102.339037 
L 203.992587 102.339037 
L 204.107416 101.418642 
L 204.183793 101.418642 
L 204.298091 100.498246 
L 204.336607 100.498246 
L 204.45132 99.577851 
L 204.527222 99.577851 
L 204.641981 98.657456 
L 204.718364 98.657456 
L 204.832724 97.73706 
L 205.023998 97.73706 
L 205.138231 96.816665 
L 205.443732 94.055479 
L 205.520111 94.055479 
L 205.67286 92.214688 
L 205.749237 92.214688 
L 205.864081 91.294292 
L 205.978364 91.294292 
L 206.093252 90.373897 
L 206.436618 90.373897 
L 206.551485 89.453501 
L 206.589372 89.453501 
L 206.742123 88.533106 
L 206.818503 88.533106 
L 206.933373 87.612711 
L 207.200377 87.612711 
L 207.276756 86.692315 
L 220.948079 86.692315 
L 221.10083 85.77192 
L 310.919199 85.77192 
L 311.033971 84.851524 
L 314.508881 84.851524 
L 314.623767 83.931129 
L 315.883655 83.931129 
L 315.998455 83.010734 
L 316.800169 83.010734 
L 316.914985 82.090338 
L 317.716681 82.090338 
L 317.793053 81.169943 
L 318.557266 81.169943 
L 318.709578 80.249547 
L 319.358835 80.249547 
L 319.473335 79.329152 
L 348.725497 79.329152 
L 348.802286 78.408756 
L 349.642014 78.408756 
L 349.75684 77.488361 
L 350.482152 77.488361 
L 350.597006 76.567966 
L 351.208042 76.567966 
L 351.32229 75.64757 
L 352.009675 75.64757 
L 352.124555 74.727175 
L 352.544314 74.727175 
L 352.659131 73.806779 
L 353.002568 73.806779 
L 353.11737 72.886384 
L 353.575703 72.886384 
L 353.689949 71.965988 
L 354.186694 71.965988 
L 354.300967 71.045593 
L 354.797645 71.045593 
L 354.911969 70.125198 
L 355.446606 70.125198 
L 355.561302 69.204802 
L 355.981241 69.204802 
L 356.133993 68.284407 
L 356.439492 68.284407 
L 356.554316 67.364011 
L 356.859714 67.364011 
L 356.974123 66.443616 
L 357.088962 66.443616 
L 357.203255 65.523221 
L 357.508755 65.523221 
L 357.623574 64.602825 
L 357.776417 64.602825 
L 357.890639 63.68243 
L 357.967016 63.68243 
L 358.081867 62.762034 
L 358.234344 62.762034 
L 358.348893 61.841639 
L 358.463734 61.841639 
L 358.578022 60.921243 
L 358.654396 60.921243 
L 358.769306 60.000848 
L 358.80715 60.000848 
L 358.883925 59.080453 
L 358.959904 59.080453 
L 359.074741 58.160057 
L 359.151115 58.160057 
L 359.303801 56.319266 
L 359.380305 56.319266 
L 359.533008 54.478475 
L 359.570906 54.478475 
L 359.876404 51.717289 
L 359.91484 51.717289 
L 360.105537 48.956103 
L 360.181912 48.956103 
L 360.37283 46.194917 
L 360.487416 46.194917 
L 360.640165 44.354126 
L 360.678635 44.354126 
L 360.831371 42.513335 
L 360.90777 42.513335 
L 361.022045 41.59294 
L 361.251177 39.752149 
L 361.327547 39.752149 
L 361.442353 38.831753 
L 361.480294 38.831753 
L 361.595195 37.911358 
L 361.709428 37.911358 
L 361.862176 36.990963 
L 450 36.990963 
L 450 36.990963 
" clip-path="url(#p4a2e2296d8)" style="fill: none; stroke: #9467bd; stroke-width: 1.5; stroke-linecap: square"/>
   </g>
   <g id="patch_3">
    <path d="M 51.05 279.561175 
L 51.05 25.44 
" style="fill: none; stroke: #000000; stroke-width: 0.8; stroke-linejoin: miter; stroke-linecap: square"/>
   </g>
   <g id="patch_4">
    <path d="M 450 279.561175 
L 450 25.44 
" style="fill: none; stroke: #000000; stroke-width: 0.8; stroke-linejoin: miter; stroke-linecap: square"/>
   </g>
   <g id="patch_5">
    <path d="M 51.05 279.561175 
L 450 279.561175 
" style="fill: none; stroke: #000000; stroke-width: 0.8; stroke-linejoin: miter; stroke-linecap: square"/>
   </g>
   <g id="patch_6">
    <path d="M 51.05 25.44 
L 450 25.44 
" style="fill: none; stroke: #000000; stroke-width: 0.8; stroke-linejoin: miter; stroke-linecap: square"/>
   </g>
   <g id="text_16">
    <!-- November 2023 -->
    <g transform="translate(202.133125 19.44) scale(0.12 -0.12)">
     <defs>
      <path id="DejaVuSans-4e" d="M 628 4666 
L 1478 4666 
L 3547 763 
L 3547 4666 
L 4159 4666 
L 4159 0 
L 3309 0 
L 1241 3903 
L 1241 0 
L 628 0 
L 628 4666 
z
" transform="scale(0.015625)"/>
      <path id="DejaVuSans-6f" d="M 1959 3097 
Q 1497 3097 1228 2736 
Q 959 2375 959 1747 
Q 959 1119 1226 758 
Q 1494 397 1959 397 
Q 2419 397 2687 759 
Q 2956 1122 2956 1747 
Q 2956 2369 2687 2733 
Q 2419 3097 1959 3097 
z
M 1959 3584 
Q 2709 3584 3137 3096 
Q 3566 2609 3566 1747 
Q 3566 888 3137 398 
Q 2709 -91 1959 -91 
Q 1206 -91 779 398 
Q 353 888 353 1747 
Q 353 2609 779 3096 
Q 1206 3584 1959 3584 
z
" transform="scale(0.015625)"/>
      <path id="DejaVuSans-76" d="M 191 3500 
L 800 3500 
L 1894 563 
L 2988 3500 
L 3597 3500 
L 2284 0 
L 1503 0 
L 191 3500 
z
" transform="scale(0.015625)"/>
      <path id="DejaVuSans-65" d="M 3597 1894 
L 3597 1613 
L 953 1613 
Q 991 1019 1311 708 
Q 1631 397 2203 397 
Q 2534 397 2845 478 
Q 3156 559 3463 722 
L 3463 178 
Q 3153 47 2828 -22 
Q 2503 -91 2169 -91 
Q 1331 -91 842 396 
Q 353 884 353 1716 
Q 353 2575 817 3079 
Q 1281 3584 2069 3584 
Q 2775 3584 3186 3129 
Q 3597 2675 3597 1894 
z
M 3022 2063 
Q 3016 2534 2758 2815 
Q 2500 3097 2075 3097 
Q 1594 3097 1305 2825 
Q 1016 2553 972 2059 
L 3022 2063 
z
" transform="scale(0.015625)"/>
      <path id="DejaVuSans-62" d="M 3116 1747 
Q 3116 2381 2855 2742 
Q 2594 3103 2138 3103 
Q 1681 3103 1420 2742 
Q 1159 2381 1159 1747 
Q 1159 1113 1420 752 
Q 1681 391 2138 391 
Q 2594 391 2855 752 
Q 3116 1113 3116 1747 
z
M 1159 2969 
Q 1341 3281 1617 3432 
Q 1894 3584 2278 3584 
Q 2916 3584 3314 3078 
Q 3713 2572 3713 1747 
Q 3713 922 3314 415 
Q 2916 -91 2278 -91 
Q 1894 -91 1617 61 
Q 1341 213 1159 525 
L 1159 0 
L 581 0 
L 581 4863 
L 1159 4863 
L 1159 2969 
z
" transform="scale(0.015625)"/>
      <path id="DejaVuSans-72" d="M 2631 2963 
Q 2534 3019 2420 3045 
Q 2306 3072 2169 3072 
Q 1681 3072 1420 2755 
Q 1159 2438 1159 1844 
L 1159 0 
L 581 0 
L 581 3500 
L 1159 3500 
L 1159 2956 
Q 1341 3275 1631 3429 
Q 1922 3584 2338 3584 
Q 2397 3584 2469 3576 
Q 2541 3569 2628 3553 
L 2631 2963 
z
" transform="scale(0.015625)"/>
     </defs>
     <use xlink:href="#DejaVuSans-4e"/>
     <use xlink:href="#DejaVuSans-6f" x="74.804688"/>
     <use xlink:href="#DejaVuSans-76" x="135.986328"/>
     <use xlink:href="#DejaVuSans-65" x="195.166016"/>
     <use xlink:href="#DejaVuSans-6d" x="256.689453"/>
     <use xlink:href="#DejaVuSans-62" x="354.101562"/>
     <use xlink:href="#DejaVuSans-65" x="417.578125"/>
     <use xlink:href="#DejaVuSans-72" x="479.101562"/>
     <use xlink:href="#DejaVuSans-20" x="520.214844"/>
     <use xlink:href="#DejaVuSans-32" x="552.001953"/>
     <use xlink:href="#DejaVuSans-30" x="615.625"/>
     <use xlink:href="#DejaVuSans-32" x="679.248047"/>
     <use xlink:href="#DejaVuSans-33" x="742.871094"/>
    </g>
   </g>
  </g>
 </g>
 <defs>
  <clipPath id="p4a2e2296d8">
   <rect x="51.05" y="25.44" width="398.95" height="254.121175"/>
  </clipPath>
 </defs>
</svg>
