<?xml version="1.0" encoding="utf-8" standalone="no"?>
<!DOCTYPE svg PUBLIC "-//W3C//DTD SVG 1.1//EN"
  "http://www.w3.org/Graphics/SVG/1.1/DTD/svg11.dtd">
<svg xmlns:xlink="http://www.w3.org/1999/xlink" width="460.8pt" height="345.6pt" viewBox="0 0 460.8 345.6" xmlns="http://www.w3.org/2000/svg" version="1.1">
 <metadata>
  <rdf:RDF xmlns:dc="http://purl.org/dc/elements/1.1/" xmlns:cc="http://creativecommons.org/ns#" xmlns:rdf="http://www.w3.org/1999/02/22-rdf-syntax-ns#">
   <cc:Work>
    <dc:type rdf:resource="http://purl.org/dc/dcmitype/StillImage"/>
    <dc:date>2023-11-09T03:39:11.473398</dc:date>
    <dc:format>image/svg+xml</dc:format>
    <dc:creator>
     <cc:Agent>
      <dc:title>Matplotlib v3.6.3, https://matplotlib.org/</dc:title>
     </cc:Agent>
    </dc:creator>
   </cc:Work>
  </rdf:RDF>
 </metadata>
 <defs>
  <style type="text/css">*{stroke-linejoin: round; stroke-linecap: butt}</style>
 </defs>
 <g id="figure_1">
  <g id="patch_1">
   <path d="M 0 345.6 
L 460.8 345.6 
L 460.8 0 
L 0 0 
z
" style="fill: #ffffff"/>
  </g>
  <g id="axes_1">
   <g id="patch_2">
    <path d="M 51.05 279.561175 
L 450 279.561175 
L 450 25.44 
L 51.05 25.44 
z
" style="fill: #ffffff"/>
   </g>
   <g id="matplotlib.axis_1">
    <g id="xtick_1">
     <g id="line2d_1">
      <path d="M 99.971962 279.561175 
L 99.971962 25.44 
" clip-path="url(#pf20c24b959)" style="fill: none; stroke: #b0b0b0; stroke-width: 0.8; stroke-linecap: square"/>
     </g>
     <g id="line2d_2">
      <defs>
       <path id="ma4b245442a" d="M 0 0 
L 0 3.5 
" style="stroke: #000000; stroke-width: 0.8"/>
      </defs>
      <g>
       <use xlink:href="#ma4b245442a" x="99.971962" y="279.561175" style="stroke: #000000; stroke-width: 0.8"/>
      </g>
     </g>
     <g id="text_1">
      <!-- 2023-11-02 -->
      <g transform="translate(57.407448 333.028035) rotate(-45) scale(0.1 -0.1)">
       <defs>
        <path id="DejaVuSans-32" d="M 1228 531 
L 3431 531 
L 3431 0 
L 469 0 
L 469 531 
Q 828 903 1448 1529 
Q 2069 2156 2228 2338 
Q 2531 2678 2651 2914 
Q 2772 3150 2772 3378 
Q 2772 3750 2511 3984 
Q 2250 4219 1831 4219 
Q 1534 4219 1204 4116 
Q 875 4013 500 3803 
L 500 4441 
Q 881 4594 1212 4672 
Q 1544 4750 1819 4750 
Q 2544 4750 2975 4387 
Q 3406 4025 3406 3419 
Q 3406 3131 3298 2873 
Q 3191 2616 2906 2266 
Q 2828 2175 2409 1742 
Q 1991 1309 1228 531 
z
" transform="scale(0.015625)"/>
        <path id="DejaVuSans-30" d="M 2034 4250 
Q 1547 4250 1301 3770 
Q 1056 3291 1056 2328 
Q 1056 1369 1301 889 
Q 1547 409 2034 409 
Q 2525 409 2770 889 
Q 3016 1369 3016 2328 
Q 3016 3291 2770 3770 
Q 2525 4250 2034 4250 
z
M 2034 4750 
Q 2819 4750 3233 4129 
Q 3647 3509 3647 2328 
Q 3647 1150 3233 529 
Q 2819 -91 2034 -91 
Q 1250 -91 836 529 
Q 422 1150 422 2328 
Q 422 3509 836 4129 
Q 1250 4750 2034 4750 
z
" transform="scale(0.015625)"/>
        <path id="DejaVuSans-33" d="M 2597 2516 
Q 3050 2419 3304 2112 
Q 3559 1806 3559 1356 
Q 3559 666 3084 287 
Q 2609 -91 1734 -91 
Q 1441 -91 1130 -33 
Q 819 25 488 141 
L 488 750 
Q 750 597 1062 519 
Q 1375 441 1716 441 
Q 2309 441 2620 675 
Q 2931 909 2931 1356 
Q 2931 1769 2642 2001 
Q 2353 2234 1838 2234 
L 1294 2234 
L 1294 2753 
L 1863 2753 
Q 2328 2753 2575 2939 
Q 2822 3125 2822 3475 
Q 2822 3834 2567 4026 
Q 2313 4219 1838 4219 
Q 1578 4219 1281 4162 
Q 984 4106 628 3988 
L 628 4550 
Q 988 4650 1302 4700 
Q 1616 4750 1894 4750 
Q 2613 4750 3031 4423 
Q 3450 4097 3450 3541 
Q 3450 3153 3228 2886 
Q 3006 2619 2597 2516 
z
" transform="scale(0.015625)"/>
        <path id="DejaVuSans-2d" d="M 313 2009 
L 1997 2009 
L 1997 1497 
L 313 1497 
L 313 2009 
z
" transform="scale(0.015625)"/>
        <path id="DejaVuSans-31" d="M 794 531 
L 1825 531 
L 1825 4091 
L 703 3866 
L 703 4441 
L 1819 4666 
L 2450 4666 
L 2450 531 
L 3481 531 
L 3481 0 
L 794 0 
L 794 531 
z
" transform="scale(0.015625)"/>
       </defs>
       <use xlink:href="#DejaVuSans-32"/>
       <use xlink:href="#DejaVuSans-30" x="63.623047"/>
       <use xlink:href="#DejaVuSans-32" x="127.246094"/>
       <use xlink:href="#DejaVuSans-33" x="190.869141"/>
       <use xlink:href="#DejaVuSans-2d" x="254.492188"/>
       <use xlink:href="#DejaVuSans-31" x="290.576172"/>
       <use xlink:href="#DejaVuSans-31" x="354.199219"/>
       <use xlink:href="#DejaVuSans-2d" x="417.822266"/>
       <use xlink:href="#DejaVuSans-30" x="453.90625"/>
       <use xlink:href="#DejaVuSans-32" x="517.529297"/>
      </g>
     </g>
    </g>
    <g id="xtick_2">
     <g id="line2d_3">
      <path d="M 148.919965 279.561175 
L 148.919965 25.44 
" clip-path="url(#pf20c24b959)" style="fill: none; stroke: #b0b0b0; stroke-width: 0.8; stroke-linecap: square"/>
     </g>
     <g id="line2d_4">
      <g>
       <use xlink:href="#ma4b245442a" x="148.919965" y="279.561175" style="stroke: #000000; stroke-width: 0.8"/>
      </g>
     </g>
     <g id="text_2">
      <!-- 2023-11-03 -->
      <g transform="translate(106.355451 333.028035) rotate(-45) scale(0.1 -0.1)">
       <use xlink:href="#DejaVuSans-32"/>
       <use xlink:href="#DejaVuSans-30" x="63.623047"/>
       <use xlink:href="#DejaVuSans-32" x="127.246094"/>
       <use xlink:href="#DejaVuSans-33" x="190.869141"/>
       <use xlink:href="#DejaVuSans-2d" x="254.492188"/>
       <use xlink:href="#DejaVuSans-31" x="290.576172"/>
       <use xlink:href="#DejaVuSans-31" x="354.199219"/>
       <use xlink:href="#DejaVuSans-2d" x="417.822266"/>
       <use xlink:href="#DejaVuSans-30" x="453.90625"/>
       <use xlink:href="#DejaVuSans-33" x="517.529297"/>
      </g>
     </g>
    </g>
    <g id="xtick_3">
     <g id="line2d_5">
      <path d="M 197.867967 279.561175 
L 197.867967 25.44 
" clip-path="url(#pf20c24b959)" style="fill: none; stroke: #b0b0b0; stroke-width: 0.8; stroke-linecap: square"/>
     </g>
     <g id="line2d_6">
      <g>
       <use xlink:href="#ma4b245442a" x="197.867967" y="279.561175" style="stroke: #000000; stroke-width: 0.8"/>
      </g>
     </g>
     <g id="text_3">
      <!-- 2023-11-04 -->
      <g transform="translate(155.303454 333.028035) rotate(-45) scale(0.1 -0.1)">
       <defs>
        <path id="DejaVuSans-34" d="M 2419 4116 
L 825 1625 
L 2419 1625 
L 2419 4116 
z
M 2253 4666 
L 3047 4666 
L 3047 1625 
L 3713 1625 
L 3713 1100 
L 3047 1100 
L 3047 0 
L 2419 0 
L 2419 1100 
L 313 1100 
L 313 1709 
L 2253 4666 
z
" transform="scale(0.015625)"/>
       </defs>
       <use xlink:href="#DejaVuSans-32"/>
       <use xlink:href="#DejaVuSans-30" x="63.623047"/>
       <use xlink:href="#DejaVuSans-32" x="127.246094"/>
       <use xlink:href="#DejaVuSans-33" x="190.869141"/>
       <use xlink:href="#DejaVuSans-2d" x="254.492188"/>
       <use xlink:href="#DejaVuSans-31" x="290.576172"/>
       <use xlink:href="#DejaVuSans-31" x="354.199219"/>
       <use xlink:href="#DejaVuSans-2d" x="417.822266"/>
       <use xlink:href="#DejaVuSans-30" x="453.90625"/>
       <use xlink:href="#DejaVuSans-34" x="517.529297"/>
      </g>
     </g>
    </g>
    <g id="xtick_4">
     <g id="line2d_7">
      <path d="M 246.81597 279.561175 
L 246.81597 25.44 
" clip-path="url(#pf20c24b959)" style="fill: none; stroke: #b0b0b0; stroke-width: 0.8; stroke-linecap: square"/>
     </g>
     <g id="line2d_8">
      <g>
       <use xlink:href="#ma4b245442a" x="246.81597" y="279.561175" style="stroke: #000000; stroke-width: 0.8"/>
      </g>
     </g>
     <g id="text_4">
      <!-- 2023-11-05 -->
      <g transform="translate(204.251457 333.028035) rotate(-45) scale(0.1 -0.1)">
       <defs>
        <path id="DejaVuSans-35" d="M 691 4666 
L 3169 4666 
L 3169 4134 
L 1269 4134 
L 1269 2991 
Q 1406 3038 1543 3061 
Q 1681 3084 1819 3084 
Q 2600 3084 3056 2656 
Q 3513 2228 3513 1497 
Q 3513 744 3044 326 
Q 2575 -91 1722 -91 
Q 1428 -91 1123 -41 
Q 819 9 494 109 
L 494 744 
Q 775 591 1075 516 
Q 1375 441 1709 441 
Q 2250 441 2565 725 
Q 2881 1009 2881 1497 
Q 2881 1984 2565 2268 
Q 2250 2553 1709 2553 
Q 1456 2553 1204 2497 
Q 953 2441 691 2322 
L 691 4666 
z
" transform="scale(0.015625)"/>
       </defs>
       <use xlink:href="#DejaVuSans-32"/>
       <use xlink:href="#DejaVuSans-30" x="63.623047"/>
       <use xlink:href="#DejaVuSans-32" x="127.246094"/>
       <use xlink:href="#DejaVuSans-33" x="190.869141"/>
       <use xlink:href="#DejaVuSans-2d" x="254.492188"/>
       <use xlink:href="#DejaVuSans-31" x="290.576172"/>
       <use xlink:href="#DejaVuSans-31" x="354.199219"/>
       <use xlink:href="#DejaVuSans-2d" x="417.822266"/>
       <use xlink:href="#DejaVuSans-30" x="453.90625"/>
       <use xlink:href="#DejaVuSans-35" x="517.529297"/>
      </g>
     </g>
    </g>
    <g id="xtick_5">
     <g id="line2d_9">
      <path d="M 295.763973 279.561175 
L 295.763973 25.44 
" clip-path="url(#pf20c24b959)" style="fill: none; stroke: #b0b0b0; stroke-width: 0.8; stroke-linecap: square"/>
     </g>
     <g id="line2d_10">
      <g>
       <use xlink:href="#ma4b245442a" x="295.763973" y="279.561175" style="stroke: #000000; stroke-width: 0.8"/>
      </g>
     </g>
     <g id="text_5">
      <!-- 2023-11-06 -->
      <g transform="translate(253.199459 333.028035) rotate(-45) scale(0.1 -0.1)">
       <defs>
        <path id="DejaVuSans-36" d="M 2113 2584 
Q 1688 2584 1439 2293 
Q 1191 2003 1191 1497 
Q 1191 994 1439 701 
Q 1688 409 2113 409 
Q 2538 409 2786 701 
Q 3034 994 3034 1497 
Q 3034 2003 2786 2293 
Q 2538 2584 2113 2584 
z
M 3366 4563 
L 3366 3988 
Q 3128 4100 2886 4159 
Q 2644 4219 2406 4219 
Q 1781 4219 1451 3797 
Q 1122 3375 1075 2522 
Q 1259 2794 1537 2939 
Q 1816 3084 2150 3084 
Q 2853 3084 3261 2657 
Q 3669 2231 3669 1497 
Q 3669 778 3244 343 
Q 2819 -91 2113 -91 
Q 1303 -91 875 529 
Q 447 1150 447 2328 
Q 447 3434 972 4092 
Q 1497 4750 2381 4750 
Q 2619 4750 2861 4703 
Q 3103 4656 3366 4563 
z
" transform="scale(0.015625)"/>
       </defs>
       <use xlink:href="#DejaVuSans-32"/>
       <use xlink:href="#DejaVuSans-30" x="63.623047"/>
       <use xlink:href="#DejaVuSans-32" x="127.246094"/>
       <use xlink:href="#DejaVuSans-33" x="190.869141"/>
       <use xlink:href="#DejaVuSans-2d" x="254.492188"/>
       <use xlink:href="#DejaVuSans-31" x="290.576172"/>
       <use xlink:href="#DejaVuSans-31" x="354.199219"/>
       <use xlink:href="#DejaVuSans-2d" x="417.822266"/>
       <use xlink:href="#DejaVuSans-30" x="453.90625"/>
       <use xlink:href="#DejaVuSans-36" x="517.529297"/>
      </g>
     </g>
    </g>
    <g id="xtick_6">
     <g id="line2d_11">
      <path d="M 344.711976 279.561175 
L 344.711976 25.44 
" clip-path="url(#pf20c24b959)" style="fill: none; stroke: #b0b0b0; stroke-width: 0.8; stroke-linecap: square"/>
     </g>
     <g id="line2d_12">
      <g>
       <use xlink:href="#ma4b245442a" x="344.711976" y="279.561175" style="stroke: #000000; stroke-width: 0.8"/>
      </g>
     </g>
     <g id="text_6">
      <!-- 2023-11-07 -->
      <g transform="translate(302.147462 333.028035) rotate(-45) scale(0.1 -0.1)">
       <defs>
        <path id="DejaVuSans-37" d="M 525 4666 
L 3525 4666 
L 3525 4397 
L 1831 0 
L 1172 0 
L 2766 4134 
L 525 4134 
L 525 4666 
z
" transform="scale(0.015625)"/>
       </defs>
       <use xlink:href="#DejaVuSans-32"/>
       <use xlink:href="#DejaVuSans-30" x="63.623047"/>
       <use xlink:href="#DejaVuSans-32" x="127.246094"/>
       <use xlink:href="#DejaVuSans-33" x="190.869141"/>
       <use xlink:href="#DejaVuSans-2d" x="254.492188"/>
       <use xlink:href="#DejaVuSans-31" x="290.576172"/>
       <use xlink:href="#DejaVuSans-31" x="354.199219"/>
       <use xlink:href="#DejaVuSans-2d" x="417.822266"/>
       <use xlink:href="#DejaVuSans-30" x="453.90625"/>
       <use xlink:href="#DejaVuSans-37" x="517.529297"/>
      </g>
     </g>
    </g>
    <g id="xtick_7">
     <g id="line2d_13">
      <path d="M 393.659978 279.561175 
L 393.659978 25.44 
" clip-path="url(#pf20c24b959)" style="fill: none; stroke: #b0b0b0; stroke-width: 0.8; stroke-linecap: square"/>
     </g>
     <g id="line2d_14">
      <g>
       <use xlink:href="#ma4b245442a" x="393.659978" y="279.561175" style="stroke: #000000; stroke-width: 0.8"/>
      </g>
     </g>
     <g id="text_7">
      <!-- 2023-11-08 -->
      <g transform="translate(351.095465 333.028035) rotate(-45) scale(0.1 -0.1)">
       <defs>
        <path id="DejaVuSans-38" d="M 2034 2216 
Q 1584 2216 1326 1975 
Q 1069 1734 1069 1313 
Q 1069 891 1326 650 
Q 1584 409 2034 409 
Q 2484 409 2743 651 
Q 3003 894 3003 1313 
Q 3003 1734 2745 1975 
Q 2488 2216 2034 2216 
z
M 1403 2484 
Q 997 2584 770 2862 
Q 544 3141 544 3541 
Q 544 4100 942 4425 
Q 1341 4750 2034 4750 
Q 2731 4750 3128 4425 
Q 3525 4100 3525 3541 
Q 3525 3141 3298 2862 
Q 3072 2584 2669 2484 
Q 3125 2378 3379 2068 
Q 3634 1759 3634 1313 
Q 3634 634 3220 271 
Q 2806 -91 2034 -91 
Q 1263 -91 848 271 
Q 434 634 434 1313 
Q 434 1759 690 2068 
Q 947 2378 1403 2484 
z
M 1172 3481 
Q 1172 3119 1398 2916 
Q 1625 2713 2034 2713 
Q 2441 2713 2670 2916 
Q 2900 3119 2900 3481 
Q 2900 3844 2670 4047 
Q 2441 4250 2034 4250 
Q 1625 4250 1398 4047 
Q 1172 3844 1172 3481 
z
" transform="scale(0.015625)"/>
       </defs>
       <use xlink:href="#DejaVuSans-32"/>
       <use xlink:href="#DejaVuSans-30" x="63.623047"/>
       <use xlink:href="#DejaVuSans-32" x="127.246094"/>
       <use xlink:href="#DejaVuSans-33" x="190.869141"/>
       <use xlink:href="#DejaVuSans-2d" x="254.492188"/>
       <use xlink:href="#DejaVuSans-31" x="290.576172"/>
       <use xlink:href="#DejaVuSans-31" x="354.199219"/>
       <use xlink:href="#DejaVuSans-2d" x="417.822266"/>
       <use xlink:href="#DejaVuSans-30" x="453.90625"/>
       <use xlink:href="#DejaVuSans-38" x="517.529297"/>
      </g>
     </g>
    </g>
    <g id="xtick_8">
     <g id="line2d_15">
      <path d="M 442.607981 279.561175 
L 442.607981 25.44 
" clip-path="url(#pf20c24b959)" style="fill: none; stroke: #b0b0b0; stroke-width: 0.8; stroke-linecap: square"/>
     </g>
     <g id="line2d_16">
      <g>
       <use xlink:href="#ma4b245442a" x="442.607981" y="279.561175" style="stroke: #000000; stroke-width: 0.8"/>
      </g>
     </g>
     <g id="text_8">
      <!-- 2023-11-09 -->
      <g transform="translate(400.043467 333.028035) rotate(-45) scale(0.1 -0.1)">
       <defs>
        <path id="DejaVuSans-39" d="M 703 97 
L 703 672 
Q 941 559 1184 500 
Q 1428 441 1663 441 
Q 2288 441 2617 861 
Q 2947 1281 2994 2138 
Q 2813 1869 2534 1725 
Q 2256 1581 1919 1581 
Q 1219 1581 811 2004 
Q 403 2428 403 3163 
Q 403 3881 828 4315 
Q 1253 4750 1959 4750 
Q 2769 4750 3195 4129 
Q 3622 3509 3622 2328 
Q 3622 1225 3098 567 
Q 2575 -91 1691 -91 
Q 1453 -91 1209 -44 
Q 966 3 703 97 
z
M 1959 2075 
Q 2384 2075 2632 2365 
Q 2881 2656 2881 3163 
Q 2881 3666 2632 3958 
Q 2384 4250 1959 4250 
Q 1534 4250 1286 3958 
Q 1038 3666 1038 3163 
Q 1038 2656 1286 2365 
Q 1534 2075 1959 2075 
z
" transform="scale(0.015625)"/>
       </defs>
       <use xlink:href="#DejaVuSans-32"/>
       <use xlink:href="#DejaVuSans-30" x="63.623047"/>
       <use xlink:href="#DejaVuSans-32" x="127.246094"/>
       <use xlink:href="#DejaVuSans-33" x="190.869141"/>
       <use xlink:href="#DejaVuSans-2d" x="254.492188"/>
       <use xlink:href="#DejaVuSans-31" x="290.576172"/>
       <use xlink:href="#DejaVuSans-31" x="354.199219"/>
       <use xlink:href="#DejaVuSans-2d" x="417.822266"/>
       <use xlink:href="#DejaVuSans-30" x="453.90625"/>
       <use xlink:href="#DejaVuSans-39" x="517.529297"/>
      </g>
     </g>
    </g>
   </g>
   <g id="matplotlib.axis_2">
    <g id="ytick_1">
     <g id="line2d_17">
      <path d="M 51.05 279.561175 
L 450 279.561175 
" clip-path="url(#pf20c24b959)" style="fill: none; stroke: #b0b0b0; stroke-width: 0.8; stroke-linecap: square"/>
     </g>
     <g id="line2d_18">
      <defs>
       <path id="m1f88668631" d="M 0 0 
L -3.5 0 
" style="stroke: #000000; stroke-width: 0.8"/>
      </defs>
      <g>
       <use xlink:href="#m1f88668631" x="51.05" y="279.561175" style="stroke: #000000; stroke-width: 0.8"/>
      </g>
     </g>
     <g id="text_9">
      <!-- 0 -->
      <g transform="translate(37.6875 283.360394) scale(0.1 -0.1)">
       <use xlink:href="#DejaVuSans-30"/>
      </g>
     </g>
    </g>
    <g id="ytick_2">
     <g id="line2d_19">
      <path d="M 51.05 228.73694 
L 450 228.73694 
" clip-path="url(#pf20c24b959)" style="fill: none; stroke: #b0b0b0; stroke-width: 0.8; stroke-linecap: square"/>
     </g>
     <g id="line2d_20">
      <g>
       <use xlink:href="#m1f88668631" x="51.05" y="228.73694" style="stroke: #000000; stroke-width: 0.8"/>
      </g>
     </g>
     <g id="text_10">
      <!-- 20 -->
      <g transform="translate(31.325 232.536159) scale(0.1 -0.1)">
       <use xlink:href="#DejaVuSans-32"/>
       <use xlink:href="#DejaVuSans-30" x="63.623047"/>
      </g>
     </g>
    </g>
    <g id="ytick_3">
     <g id="line2d_21">
      <path d="M 51.05 177.912705 
L 450 177.912705 
" clip-path="url(#pf20c24b959)" style="fill: none; stroke: #b0b0b0; stroke-width: 0.8; stroke-linecap: square"/>
     </g>
     <g id="line2d_22">
      <g>
       <use xlink:href="#m1f88668631" x="51.05" y="177.912705" style="stroke: #000000; stroke-width: 0.8"/>
      </g>
     </g>
     <g id="text_11">
      <!-- 40 -->
      <g transform="translate(31.325 181.711924) scale(0.1 -0.1)">
       <use xlink:href="#DejaVuSans-34"/>
       <use xlink:href="#DejaVuSans-30" x="63.623047"/>
      </g>
     </g>
    </g>
    <g id="ytick_4">
     <g id="line2d_23">
      <path d="M 51.05 127.08847 
L 450 127.08847 
" clip-path="url(#pf20c24b959)" style="fill: none; stroke: #b0b0b0; stroke-width: 0.8; stroke-linecap: square"/>
     </g>
     <g id="line2d_24">
      <g>
       <use xlink:href="#m1f88668631" x="51.05" y="127.08847" style="stroke: #000000; stroke-width: 0.8"/>
      </g>
     </g>
     <g id="text_12">
      <!-- 60 -->
      <g transform="translate(31.325 130.887689) scale(0.1 -0.1)">
       <use xlink:href="#DejaVuSans-36"/>
       <use xlink:href="#DejaVuSans-30" x="63.623047"/>
      </g>
     </g>
    </g>
    <g id="ytick_5">
     <g id="line2d_25">
      <path d="M 51.05 76.264235 
L 450 76.264235 
" clip-path="url(#pf20c24b959)" style="fill: none; stroke: #b0b0b0; stroke-width: 0.8; stroke-linecap: square"/>
     </g>
     <g id="line2d_26">
      <g>
       <use xlink:href="#m1f88668631" x="51.05" y="76.264235" style="stroke: #000000; stroke-width: 0.8"/>
      </g>
     </g>
     <g id="text_13">
      <!-- 80 -->
      <g transform="translate(31.325 80.063454) scale(0.1 -0.1)">
       <use xlink:href="#DejaVuSans-38"/>
       <use xlink:href="#DejaVuSans-30" x="63.623047"/>
      </g>
     </g>
    </g>
    <g id="ytick_6">
     <g id="line2d_27">
      <path d="M 51.05 25.44 
L 450 25.44 
" clip-path="url(#pf20c24b959)" style="fill: none; stroke: #b0b0b0; stroke-width: 0.8; stroke-linecap: square"/>
     </g>
     <g id="line2d_28">
      <g>
       <use xlink:href="#m1f88668631" x="51.05" y="25.44" style="stroke: #000000; stroke-width: 0.8"/>
      </g>
     </g>
     <g id="text_14">
      <!-- 100 -->
      <g transform="translate(24.9625 29.239219) scale(0.1 -0.1)">
       <use xlink:href="#DejaVuSans-31"/>
       <use xlink:href="#DejaVuSans-30" x="63.623047"/>
       <use xlink:href="#DejaVuSans-30" x="127.246094"/>
      </g>
     </g>
    </g>
    <g id="text_15">
     <!-- Humidity [%RH] -->
     <g transform="translate(18.882812 192.647463) rotate(-90) scale(0.1 -0.1)">
      <defs>
       <path id="DejaVuSans-48" d="M 628 4666 
L 1259 4666 
L 1259 2753 
L 3553 2753 
L 3553 4666 
L 4184 4666 
L 4184 0 
L 3553 0 
L 3553 2222 
L 1259 2222 
L 1259 0 
L 628 0 
L 628 4666 
z
" transform="scale(0.015625)"/>
       <path id="DejaVuSans-75" d="M 544 1381 
L 544 3500 
L 1119 3500 
L 1119 1403 
Q 1119 906 1312 657 
Q 1506 409 1894 409 
Q 2359 409 2629 706 
Q 2900 1003 2900 1516 
L 2900 3500 
L 3475 3500 
L 3475 0 
L 2900 0 
L 2900 538 
Q 2691 219 2414 64 
Q 2138 -91 1772 -91 
Q 1169 -91 856 284 
Q 544 659 544 1381 
z
M 1991 3584 
L 1991 3584 
z
" transform="scale(0.015625)"/>
       <path id="DejaVuSans-6d" d="M 3328 2828 
Q 3544 3216 3844 3400 
Q 4144 3584 4550 3584 
Q 5097 3584 5394 3201 
Q 5691 2819 5691 2113 
L 5691 0 
L 5113 0 
L 5113 2094 
Q 5113 2597 4934 2840 
Q 4756 3084 4391 3084 
Q 3944 3084 3684 2787 
Q 3425 2491 3425 1978 
L 3425 0 
L 2847 0 
L 2847 2094 
Q 2847 2600 2669 2842 
Q 2491 3084 2119 3084 
Q 1678 3084 1418 2786 
Q 1159 2488 1159 1978 
L 1159 0 
L 581 0 
L 581 3500 
L 1159 3500 
L 1159 2956 
Q 1356 3278 1631 3431 
Q 1906 3584 2284 3584 
Q 2666 3584 2933 3390 
Q 3200 3197 3328 2828 
z
" transform="scale(0.015625)"/>
       <path id="DejaVuSans-69" d="M 603 3500 
L 1178 3500 
L 1178 0 
L 603 0 
L 603 3500 
z
M 603 4863 
L 1178 4863 
L 1178 4134 
L 603 4134 
L 603 4863 
z
" transform="scale(0.015625)"/>
       <path id="DejaVuSans-64" d="M 2906 2969 
L 2906 4863 
L 3481 4863 
L 3481 0 
L 2906 0 
L 2906 525 
Q 2725 213 2448 61 
Q 2172 -91 1784 -91 
Q 1150 -91 751 415 
Q 353 922 353 1747 
Q 353 2572 751 3078 
Q 1150 3584 1784 3584 
Q 2172 3584 2448 3432 
Q 2725 3281 2906 2969 
z
M 947 1747 
Q 947 1113 1208 752 
Q 1469 391 1925 391 
Q 2381 391 2643 752 
Q 2906 1113 2906 1747 
Q 2906 2381 2643 2742 
Q 2381 3103 1925 3103 
Q 1469 3103 1208 2742 
Q 947 2381 947 1747 
z
" transform="scale(0.015625)"/>
       <path id="DejaVuSans-74" d="M 1172 4494 
L 1172 3500 
L 2356 3500 
L 2356 3053 
L 1172 3053 
L 1172 1153 
Q 1172 725 1289 603 
Q 1406 481 1766 481 
L 2356 481 
L 2356 0 
L 1766 0 
Q 1100 0 847 248 
Q 594 497 594 1153 
L 594 3053 
L 172 3053 
L 172 3500 
L 594 3500 
L 594 4494 
L 1172 4494 
z
" transform="scale(0.015625)"/>
       <path id="DejaVuSans-79" d="M 2059 -325 
Q 1816 -950 1584 -1140 
Q 1353 -1331 966 -1331 
L 506 -1331 
L 506 -850 
L 844 -850 
Q 1081 -850 1212 -737 
Q 1344 -625 1503 -206 
L 1606 56 
L 191 3500 
L 800 3500 
L 1894 763 
L 2988 3500 
L 3597 3500 
L 2059 -325 
z
" transform="scale(0.015625)"/>
       <path id="DejaVuSans-20" transform="scale(0.015625)"/>
       <path id="DejaVuSans-5b" d="M 550 4863 
L 1875 4863 
L 1875 4416 
L 1125 4416 
L 1125 -397 
L 1875 -397 
L 1875 -844 
L 550 -844 
L 550 4863 
z
" transform="scale(0.015625)"/>
       <path id="DejaVuSans-25" d="M 4653 2053 
Q 4381 2053 4226 1822 
Q 4072 1591 4072 1178 
Q 4072 772 4226 539 
Q 4381 306 4653 306 
Q 4919 306 5073 539 
Q 5228 772 5228 1178 
Q 5228 1588 5073 1820 
Q 4919 2053 4653 2053 
z
M 4653 2450 
Q 5147 2450 5437 2106 
Q 5728 1763 5728 1178 
Q 5728 594 5436 251 
Q 5144 -91 4653 -91 
Q 4153 -91 3862 251 
Q 3572 594 3572 1178 
Q 3572 1766 3864 2108 
Q 4156 2450 4653 2450 
z
M 1428 4353 
Q 1159 4353 1004 4120 
Q 850 3888 850 3481 
Q 850 3069 1003 2837 
Q 1156 2606 1428 2606 
Q 1700 2606 1854 2837 
Q 2009 3069 2009 3481 
Q 2009 3884 1853 4118 
Q 1697 4353 1428 4353 
z
M 4250 4750 
L 4750 4750 
L 1831 -91 
L 1331 -91 
L 4250 4750 
z
M 1428 4750 
Q 1922 4750 2215 4408 
Q 2509 4066 2509 3481 
Q 2509 2891 2217 2550 
Q 1925 2209 1428 2209 
Q 931 2209 642 2551 
Q 353 2894 353 3481 
Q 353 4063 643 4406 
Q 934 4750 1428 4750 
z
" transform="scale(0.015625)"/>
       <path id="DejaVuSans-52" d="M 2841 2188 
Q 3044 2119 3236 1894 
Q 3428 1669 3622 1275 
L 4263 0 
L 3584 0 
L 2988 1197 
Q 2756 1666 2539 1819 
Q 2322 1972 1947 1972 
L 1259 1972 
L 1259 0 
L 628 0 
L 628 4666 
L 2053 4666 
Q 2853 4666 3247 4331 
Q 3641 3997 3641 3322 
Q 3641 2881 3436 2590 
Q 3231 2300 2841 2188 
z
M 1259 4147 
L 1259 2491 
L 2053 2491 
Q 2509 2491 2742 2702 
Q 2975 2913 2975 3322 
Q 2975 3731 2742 3939 
Q 2509 4147 2053 4147 
L 1259 4147 
z
" transform="scale(0.015625)"/>
       <path id="DejaVuSans-5d" d="M 1947 4863 
L 1947 -844 
L 622 -844 
L 622 -397 
L 1369 -397 
L 1369 4416 
L 622 4416 
L 622 4863 
L 1947 4863 
z
" transform="scale(0.015625)"/>
      </defs>
      <use xlink:href="#DejaVuSans-48"/>
      <use xlink:href="#DejaVuSans-75" x="75.195312"/>
      <use xlink:href="#DejaVuSans-6d" x="138.574219"/>
      <use xlink:href="#DejaVuSans-69" x="235.986328"/>
      <use xlink:href="#DejaVuSans-64" x="263.769531"/>
      <use xlink:href="#DejaVuSans-69" x="327.246094"/>
      <use xlink:href="#DejaVuSans-74" x="355.029297"/>
      <use xlink:href="#DejaVuSans-79" x="394.238281"/>
      <use xlink:href="#DejaVuSans-20" x="453.417969"/>
      <use xlink:href="#DejaVuSans-5b" x="485.205078"/>
      <use xlink:href="#DejaVuSans-25" x="524.21875"/>
      <use xlink:href="#DejaVuSans-52" x="619.238281"/>
      <use xlink:href="#DejaVuSans-48" x="688.720703"/>
      <use xlink:href="#DejaVuSans-5d" x="763.916016"/>
     </g>
    </g>
   </g>
   <g id="line2d_29">
    <path d="M 51.05 58.475753 
L 51.185853 58.475753 
L 51.349011 53.393329 
L 51.403399 53.393329 
L 51.539426 50.852118 
L 51.729714 50.852118 
L 51.865872 48.310906 
L 52.382347 48.310906 
L 52.49145 50.852118 
L 52.62717 50.852118 
L 52.763054 53.393329 
L 52.899167 53.393329 
L 53.035306 55.934541 
L 53.55164 55.934541 
L 53.687617 58.475753 
L 53.959548 58.475753 
L 54.068322 61.016965 
L 54.20444 58.475753 
L 55.10166 58.475753 
L 55.237779 61.016965 
L 55.400974 55.934541 
L 55.455308 55.934541 
L 55.59146 53.393329 
L 55.672861 53.393329 
L 55.808682 55.934541 
L 56.379882 55.934541 
L 56.515703 58.475753 
L 56.570093 58.475753 
L 56.733247 61.016965 
L 56.923796 61.016965 
L 57.059569 63.558176 
L 57.277112 63.558176 
L 57.413227 61.016965 
L 57.549046 63.558176 
L 58.147628 63.558176 
L 58.337802 55.934541 
L 58.609746 55.934541 
L 58.745538 58.475753 
L 58.881659 58.475753 
L 59.017471 61.016965 
L 59.071858 61.016965 
L 59.207879 63.558176 
L 59.235014 63.558176 
L 59.371113 66.099388 
L 59.697305 66.099388 
L 59.860629 61.016965 
L 59.914985 61.016965 
L 60.05081 63.558176 
L 60.458853 63.558176 
L 60.594671 61.016965 
L 60.975373 61.016965 
L 61.111505 58.475753 
L 61.41046 58.475753 
L 61.600959 66.099388 
L 61.655344 66.099388 
L 61.818461 71.181812 
L 61.845555 71.181812 
L 61.981666 73.723023 
L 62.063099 73.723023 
L 62.17187 76.264235 
L 62.335028 73.723023 
L 62.443801 76.264235 
L 62.606962 71.181812 
L 62.960624 71.181812 
L 63.096437 73.723023 
L 63.504505 73.723023 
L 63.640297 76.264235 
L 64.238547 76.264235 
L 64.456092 71.181812 
L 64.483416 71.181812 
L 64.61925 68.6406 
L 64.728022 68.6406 
L 64.945567 63.558176 
L 64.999952 63.558176 
L 65.136074 61.016965 
L 65.35354 61.016965 
L 65.489432 58.475753 
L 66.033293 58.475753 
L 66.169427 61.016965 
L 66.305565 63.558176 
L 66.68593 63.558176 
L 66.7947 66.099388 
L 66.876328 66.099388 
L 67.039607 71.181812 
L 67.094 71.181812 
L 67.257193 76.264235 
L 67.365754 76.264235 
L 67.52909 86.429082 
L 67.55611 83.88787 
L 67.746628 76.264235 
L 68.208746 76.264235 
L 68.317517 86.429082 
L 68.508046 114.382411 
L 68.535065 114.382411 
L 68.779971 127.08847 
L 68.806988 127.08847 
L 68.970148 122.006047 
L 69.106293 122.006047 
L 69.215066 124.547258 
L 69.242076 122.006047 
L 69.296462 124.547258 
L 69.568393 139.794529 
L 69.622777 139.794529 
L 69.677163 142.335741 
L 69.704469 139.794529 
L 69.813311 134.712105 
L 69.840322 137.253317 
L 70.030799 144.876952 
L 70.057863 142.335741 
L 70.085207 142.335741 
L 70.194028 139.794529 
L 70.357176 147.418164 
L 70.492954 144.876952 
L 70.520335 144.876952 
L 70.601725 147.418164 
L 70.62899 144.876952 
L 70.683352 144.876952 
L 70.982423 127.08847 
L 71.036811 127.08847 
L 71.199967 122.006047 
L 71.254352 122.006047 
L 71.417849 127.08847 
L 72.124526 127.08847 
L 72.287682 122.006047 
L 72.342066 122.006047 
L 72.478055 124.547258 
L 72.532509 124.547258 
L 72.668387 127.08847 
L 72.831543 127.08847 
L 72.940502 129.629682 
L 73.157855 124.547258 
L 73.212241 124.547258 
L 73.348384 122.006047 
L 73.484163 122.006047 
L 73.620282 124.547258 
L 73.701713 124.547258 
L 73.864868 119.464835 
L 73.892233 119.464835 
L 73.919257 122.006047 
L 74.000843 119.464835 
L 74.272915 119.464835 
L 74.436059 124.547258 
L 74.680656 124.547258 
L 74.816843 122.006047 
L 74.898203 127.08847 
L 74.952587 124.547258 
L 75.007233 124.547258 
L 75.143107 127.08847 
L 75.278904 127.08847 
L 75.415001 144.876952 
L 75.442061 142.335741 
L 75.578137 132.170894 
L 75.605219 134.712105 
L 75.687021 139.794529 
L 75.741397 137.253317 
L 75.877143 137.253317 
L 76.122022 124.547258 
L 76.149073 124.547258 
L 76.17645 127.08847 
L 76.257843 124.547258 
L 76.393999 124.547258 
L 76.530043 122.006047 
L 76.584164 122.006047 
L 76.611499 119.464835 
L 76.692934 122.006047 
L 76.720318 122.006047 
L 76.856088 124.547258 
L 76.910475 124.547258 
L 77.019522 122.006047 
L 77.291175 122.006047 
L 77.31847 119.464835 
L 77.399946 122.006047 
L 77.48174 122.006047 
L 77.617488 124.547258 
L 77.72626 124.547258 
L 77.862376 122.006047 
L 77.889417 122.006047 
L 77.998189 124.547258 
L 78.161348 124.547258 
L 78.297477 122.006047 
L 78.650822 122.006047 
L 78.895739 134.712105 
L 78.97714 134.712105 
L 79.086161 129.629682 
L 79.113141 132.170894 
L 79.222063 132.170894 
L 79.385107 127.08847 
L 79.548414 127.08847 
L 79.684149 124.547258 
L 79.95608 124.547258 
L 80.065175 122.006047 
L 80.146504 122.006047 
L 80.201008 124.547258 
L 80.25539 122.006047 
L 81.071173 122.006047 
L 81.234305 116.923623 
L 81.261342 116.923623 
L 81.424499 111.8412 
L 81.587656 111.8412 
L 81.913973 101.676353 
L 82.294675 101.676353 
L 82.430836 99.135141 
L 82.539606 99.135141 
L 82.675378 96.593929 
L 82.729764 96.593929 
L 82.838535 94.052717 
L 82.974691 96.593929 
L 83.110466 96.593929 
L 83.273624 94.052717 
L 83.599938 94.052717 
L 83.736017 76.264235 
L 83.87187 73.723023 
L 83.953645 73.723023 
L 84.116833 68.6406 
L 84.30696 68.6406 
L 84.443006 66.099388 
L 85.013983 66.099388 
L 85.150195 63.558176 
L 85.258811 63.558176 
L 85.394688 61.016965 
L 85.66662 61.016965 
L 85.884163 55.934541 
L 85.938552 55.934541 
L 86.074686 53.393329 
L 86.319249 53.393329 
L 86.455424 55.934541 
L 87.570131 55.934541 
L 87.706322 53.393329 
L 88.032647 53.393329 
L 88.168374 50.852118 
L 88.821005 50.852118 
L 88.957212 48.310906 
L 89.990494 48.310906 
L 90.126269 45.769694 
L 90.28969 45.769694 
L 90.452586 43.228482 
L 90.724513 43.228482 
L 90.860533 40.687271 
L 91.132623 40.687271 
L 91.268373 38.146059 
L 92.519251 38.146059 
L 92.655432 35.604847 
L 93.416677 35.604847 
L 93.552584 33.063635 
L 94.667668 33.063635 
L 94.803458 30.522424 
L 95.999948 30.522424 
L 96.136124 27.981212 
L 133.172986 27.981212 
L 133.363176 35.604847 
L 133.444947 35.604847 
L 133.580717 38.146059 
L 133.608106 38.146059 
L 133.771134 43.228482 
L 134.260562 43.228482 
L 134.396514 45.769694 
L 134.614058 45.769694 
L 134.723163 48.310906 
L 135.348428 48.310906 
L 135.484238 45.769694 
L 135.946635 45.769694 
L 136.082487 43.228482 
L 136.735125 43.228482 
L 136.898279 40.687271 
L 138.529868 40.687271 
L 138.665962 43.228482 
L 139.019346 43.228482 
L 139.155514 40.687271 
L 140.596544 40.687271 
L 140.73272 38.146059 
L 141.194792 38.146059 
L 141.330982 35.604847 
L 141.684275 35.604847 
L 141.820444 33.063635 
L 142.146699 33.063635 
L 142.28252 30.522424 
L 143.098308 30.522424 
L 143.234468 27.981212 
L 144.213346 27.981212 
L 144.349189 30.522424 
L 144.566731 30.522424 
L 144.729893 33.063635 
L 144.784278 33.063635 
L 144.920413 35.604847 
L 145.029093 35.604847 
L 145.164981 38.146059 
L 145.301175 38.146059 
L 145.436912 40.687271 
L 145.627486 40.687271 
L 145.763228 43.228482 
L 146.307088 43.228482 
L 146.443272 45.769694 
L 147.041307 45.769694 
L 147.177268 43.228482 
L 147.313359 43.228482 
L 147.449198 40.687271 
L 147.639747 40.687271 
L 147.775514 38.146059 
L 148.04773 38.146059 
L 148.1836 35.604847 
L 148.455559 35.604847 
L 148.591304 38.146059 
L 148.618605 38.146059 
L 148.781824 43.228482 
L 148.863236 43.228482 
L 148.999392 45.769694 
L 149.352713 45.769694 
L 149.488914 43.228482 
L 149.67903 43.228482 
L 149.815206 40.687271 
L 150.060083 40.687271 
L 150.222889 38.146059 
L 150.603905 38.146059 
L 150.739769 35.604847 
L 151.229241 35.604847 
L 151.365 33.063635 
L 152.208117 33.063635 
L 152.343951 30.522424 
L 152.806407 30.522424 
L 152.942198 33.063635 
L 153.050971 33.063635 
L 153.186974 35.604847 
L 153.322899 35.604847 
L 153.431672 38.146059 
L 153.649495 38.146059 
L 153.785309 40.687271 
L 155.443961 40.687271 
L 155.580125 38.146059 
L 156.015218 38.146059 
L 156.150979 35.604847 
L 156.395876 35.604847 
L 156.531682 38.146059 
L 156.857999 38.146059 
L 156.994174 40.687271 
L 157.510633 40.687271 
L 157.6468 43.228482 
L 158.680116 43.228482 
L 158.815905 40.687271 
L 159.740467 40.687271 
L 159.958008 45.769694 
L 159.985441 45.769694 
L 160.148466 50.852118 
L 160.338713 50.852118 
L 160.474822 48.310906 
L 160.692459 48.310906 
L 160.828555 45.769694 
L 160.991345 45.769694 
L 161.127517 48.310906 
L 161.318007 48.310906 
L 161.453858 45.769694 
L 162.215244 45.769694 
L 162.351243 43.228482 
L 163.438721 43.228482 
L 163.574873 40.687271 
L 163.846836 40.687271 
L 163.982582 43.228482 
L 164.907391 43.228482 
L 165.043264 45.769694 
L 165.097659 45.769694 
L 165.233466 43.228482 
L 165.614169 43.228482 
L 165.750328 45.769694 
L 165.804657 45.769694 
L 165.886099 48.310906 
L 166.022215 45.769694 
L 166.103645 48.310906 
L 166.131085 45.769694 
L 166.511627 45.769694 
L 166.647505 43.228482 
L 167.028208 43.228482 
L 167.164334 40.687271 
L 167.463627 40.687271 
L 167.599481 43.228482 
L 167.953029 43.228482 
L 168.115933 45.769694 
L 168.279089 45.769694 
L 168.415272 48.310906 
L 168.768565 48.310906 
L 168.904771 45.769694 
L 170.563319 45.769694 
L 170.699465 48.310906 
L 173.255652 48.310906 
L 173.391398 50.852118 
L 173.554555 50.852118 
L 173.717712 48.310906 
L 174.098697 48.310906 
L 174.261575 50.852118 
L 174.288955 50.852118 
L 174.424733 48.310906 
L 174.587894 48.310906 
L 174.805436 53.393329 
L 174.995969 53.393329 
L 175.132077 50.852118 
L 175.349296 50.852118 
L 175.512455 55.934541 
L 175.566843 55.934541 
L 175.73 61.016965 
L 175.838772 61.016965 
L 175.974901 63.558176 
L 176.110702 63.558176 
L 176.246811 66.099388 
L 176.27386 63.558176 
L 176.355595 66.099388 
L 176.491404 66.099388 
L 176.627577 68.6406 
L 176.872106 68.6406 
L 177.008304 66.099388 
L 177.089651 66.099388 
L 177.25281 71.181812 
L 177.280161 71.181812 
L 177.415965 68.6406 
L 177.742286 68.6406 
L 177.905444 63.558176 
L 177.959829 63.558176 
L 178.096029 61.016965 
L 178.340533 61.016965 
L 178.476626 58.475753 
L 179.265098 58.475753 
L 179.401261 55.934541 
L 179.700188 55.934541 
L 179.863344 58.475753 
L 179.917732 58.475753 
L 180.053886 61.016965 
L 180.271248 61.016965 
L 180.325755 58.475753 
L 180.380216 61.016965 
L 180.570366 61.016965 
L 180.706549 63.558176 
L 180.86969 63.558176 
L 181.005454 61.016965 
L 181.27772 61.016965 
L 181.440544 55.934541 
L 181.658088 55.934541 
L 181.76723 53.393329 
L 181.930021 53.393329 
L 182.066209 50.852118 
L 182.58265 50.852118 
L 182.718857 48.310906 
L 182.990718 48.310906 
L 183.1809 55.934541 
L 183.28995 55.934541 
L 183.452828 58.475753 
L 183.480176 58.475753 
L 183.615989 55.934541 
L 183.670375 55.934541 
L 183.779149 53.393329 
L 184.159851 53.393329 
L 184.268625 50.852118 
L 184.459136 58.475753 
L 184.567974 58.475753 
L 184.758098 66.099388 
L 184.948628 66.099388 
L 185.084416 68.6406 
L 185.301959 68.6406 
L 185.383547 71.181812 
L 185.410733 68.6406 
L 186.090768 68.6406 
L 186.226529 66.099388 
L 186.253936 66.099388 
L 186.390015 63.558176 
L 186.580236 63.558176 
L 186.607235 61.016965 
L 186.689016 63.558176 
L 186.960828 63.558176 
L 187.096708 61.016965 
L 187.205481 61.016965 
L 187.341551 63.558176 
L 187.749347 63.558176 
L 187.885419 66.099388 
L 188.483628 66.099388 
L 188.619526 63.558176 
L 188.837072 63.558176 
L 188.973054 61.016965 
L 189.054616 61.016965 
L 189.245087 68.6406 
L 189.380936 68.6406 
L 189.516989 71.181812 
L 189.680191 71.181812 
L 189.816024 68.6406 
L 189.979439 68.6406 
L 190.115285 71.181812 
L 190.196731 71.181812 
L 190.332845 73.723023 
L 190.387199 73.723023 
L 190.52305 76.264235 
L 190.604793 76.264235 
L 190.686208 78.805447 
L 190.713554 76.264235 
L 191.121302 76.264235 
L 191.230076 73.723023 
L 191.366135 76.264235 
L 191.420523 76.264235 
L 191.583688 71.181812 
L 192.100258 71.181812 
L 192.236344 68.6406 
L 192.58973 68.6406 
L 192.698502 66.099388 
L 192.834614 68.6406 
L 193.187983 68.6406 
L 193.324109 71.181812 
L 193.731846 71.181812 
L 193.895008 76.264235 
L 193.922259 76.264235 
L 194.058529 73.723023 
L 194.139862 73.723023 
L 194.303054 78.805447 
L 194.357482 78.805447 
L 194.52062 83.88787 
L 194.547841 83.88787 
L 194.710803 86.429082 
L 194.738198 86.429082 
L 194.873959 83.88787 
L 194.928347 83.88787 
L 195.037121 81.346659 
L 195.254665 86.429082 
L 195.390856 86.429082 
L 195.526595 88.970294 
L 195.554019 88.970294 
L 195.581214 91.511506 
L 195.662648 88.970294 
L 195.689758 88.970294 
L 195.825938 86.429082 
L 195.907303 86.429082 
L 196.125095 76.264235 
L 196.61459 76.264235 
L 196.777486 73.723023 
L 196.886261 73.723023 
L 197.022414 71.181812 
L 197.538895 71.181812 
L 197.647966 73.723023 
L 197.756442 73.723023 
L 197.892628 76.264235 
L 197.946997 76.264235 
L 198.191533 88.970294 
L 198.327704 88.970294 
L 198.463468 91.511506 
L 198.626624 91.511506 
L 198.789783 88.970294 
L 198.844169 88.970294 
L 198.980374 91.511506 
L 199.089138 91.511506 
L 199.279266 83.88787 
L 199.333649 83.88787 
L 199.496811 78.805447 
L 199.578626 78.805447 
L 199.714645 76.264235 
L 199.741588 76.264235 
L 199.959327 86.429082 
L 200.013616 86.429082 
L 200.149447 88.970294 
L 200.31261 88.970294 
L 200.448691 91.511506 
L 200.530155 91.511506 
L 200.666273 94.052717 
L 200.829459 94.052717 
L 200.96525 91.511506 
L 201.128408 96.593929 
L 201.454728 96.593929 
L 201.590861 99.135141 
L 201.781047 99.135141 
L 201.808304 101.676353 
L 201.889819 99.135141 
L 201.998593 99.135141 
L 202.13473 101.676353 
L 202.216138 101.676353 
L 202.379296 106.758776 
L 202.433686 106.758776 
L 202.596847 111.8412 
L 202.814391 111.8412 
L 203.059278 99.135141 
L 203.249478 99.135141 
L 203.412643 101.676353 
L 203.575802 101.676353 
L 203.738956 96.593929 
L 203.875036 96.593929 
L 204.010891 94.052717 
L 204.174052 94.052717 
L 204.282824 91.511506 
L 204.582141 91.511506 
L 204.745319 96.593929 
L 204.96289 96.593929 
L 205.098622 94.052717 
L 205.289194 94.052717 
L 205.424941 96.593929 
L 205.533715 94.052717 
L 205.696875 99.135141 
L 205.860226 99.135141 
L 205.9962 101.676353 
L 206.34979 101.676353 
L 206.67583 111.8412 
L 206.811958 109.299988 
L 206.83899 109.299988 
L 207.056535 99.135141 
L 207.110923 99.135141 
L 207.219698 96.593929 
L 207.355812 99.135141 
L 207.383044 99.135141 
L 207.519033 101.676353 
L 207.546012 101.676353 
L 207.73653 109.299988 
L 207.872616 109.299988 
L 208.035492 111.8412 
L 208.144266 111.8412 
L 208.226044 114.382411 
L 208.253043 111.8412 
L 208.307427 111.8412 
L 208.443404 109.299988 
L 208.52497 109.299988 
L 208.552382 106.758776 
L 208.633743 109.299988 
L 208.688129 109.299988 
L 208.851291 114.382411 
L 209.231997 114.382411 
L 209.36812 116.923623 
L 209.395158 116.923623 
L 209.667088 109.299988 
L 209.803301 111.8412 
L 209.830246 111.8412 
L 209.939352 114.382411 
L 210.102179 111.8412 
L 210.129606 111.8412 
L 210.265339 109.299988 
L 210.537272 109.299988 
L 210.646046 111.8412 
L 210.836613 104.217564 
L 211.026754 104.217564 
L 211.162922 101.676353 
L 211.21729 101.676353 
L 211.353071 99.135141 
L 211.543486 99.135141 
L 211.597993 101.676353 
L 211.652391 99.135141 
L 211.761165 99.135141 
L 211.951323 91.511506 
L 212.060093 88.970294 
L 212.196209 91.511506 
L 212.223255 91.511506 
L 212.359425 94.052717 
L 212.468193 94.052717 
L 212.603963 96.593929 
L 212.631352 96.593929 
L 212.767118 99.135141 
L 212.90329 99.135141 
L 213.039383 101.676353 
L 214.126786 101.676353 
L 214.262955 99.135141 
L 214.344331 99.135141 
L 214.480503 96.593929 
L 214.616264 96.593929 
L 214.75234 94.052717 
L 214.83381 94.052717 
L 215.160131 114.382411 
L 215.1875 114.382411 
L 215.622581 144.876952 
L 215.649606 144.876952 
L 215.785765 147.418164 
L 215.948914 147.418164 
L 216.084692 144.876952 
L 216.166474 144.876952 
L 216.193463 142.335741 
L 216.275234 144.876952 
L 216.329638 144.876952 
L 216.465395 147.418164 
L 216.628557 147.418164 
L 216.764691 152.500588 
L 216.791711 149.959376 
L 216.873459 152.500588 
L 216.900485 152.500588 
L 216.982263 157.583011 
L 217.009577 155.041799 
L 217.145405 152.500588 
L 217.172418 152.500588 
L 217.335576 147.418164 
L 217.389961 147.418164 
L 217.798049 175.371493 
L 217.825049 175.371493 
L 218.042943 185.53634 
L 218.069802 185.53634 
L 218.260135 177.912705 
L 218.31452 177.912705 
L 218.477677 185.53634 
L 218.66823 177.912705 
L 218.940136 177.912705 
L 219.075906 175.371493 
L 219.103159 175.371493 
L 219.130307 177.912705 
L 219.212111 175.371493 
L 219.266489 175.371493 
L 219.320868 172.830282 
L 219.375233 175.371493 
L 219.456622 175.371493 
L 219.511006 172.830282 
L 219.565612 175.371493 
L 219.674167 175.371493 
L 219.810197 177.912705 
L 219.864723 177.912705 
L 220.055181 170.28907 
L 220.326794 162.665435 
L 220.462918 162.665435 
L 220.598872 165.206646 
L 220.625947 165.206646 
L 220.734882 167.747858 
L 220.870655 165.206646 
L 221.061208 165.206646 
L 221.251356 157.583011 
L 221.36013 157.583011 
L 221.550731 167.747858 
L 221.795214 155.041799 
L 221.822604 157.583011 
L 221.958656 147.418164 
L 222.040067 147.418164 
L 222.230303 139.794529 
L 222.502235 139.794529 
L 222.61133 142.335741 
L 222.85597 134.712105 
L 222.991711 137.253317 
L 223.155156 132.170894 
L 223.34544 132.170894 
L 223.37241 129.629682 
L 223.454183 132.170894 
L 223.807501 132.170894 
L 223.970658 127.08847 
L 223.998055 127.08847 
L 224.242588 142.335741 
L 224.405748 137.253317 
L 224.433101 137.253317 
L 224.596296 142.335741 
L 224.677947 142.335741 
L 224.759393 147.418164 
L 224.78645 144.876952 
L 225.140118 144.876952 
L 225.330311 137.253317 
L 225.439082 137.253317 
L 225.602241 132.170894 
L 225.629625 132.170894 
L 225.792754 137.253317 
L 225.901593 137.253317 
L 226.037324 144.876952 
L 226.064752 142.335741 
L 226.091713 142.335741 
L 226.227676 137.253317 
L 226.363644 149.959376 
L 226.391072 149.959376 
L 226.41803 147.418164 
L 226.499837 149.959376 
L 226.635572 152.500588 
L 226.907503 152.500588 
L 227.234108 132.170894 
L 227.369986 132.170894 
L 227.451362 129.629682 
L 227.478757 132.170894 
L 227.587473 132.170894 
L 227.723596 127.08847 
L 228.022628 127.08847 
L 228.158383 129.629682 
L 228.267141 129.629682 
L 228.403351 127.08847 
L 228.430309 127.08847 
L 228.566483 129.629682 
L 228.647857 129.629682 
L 228.78382 127.08847 
L 229.02856 127.08847 
L 229.164758 124.547258 
L 229.246458 124.547258 
L 229.40926 127.08847 
L 229.545448 127.08847 
L 229.681191 124.547258 
L 229.926157 124.547258 
L 230.034899 122.006047 
L 230.170665 124.547258 
L 230.333826 119.464835 
L 230.388212 119.464835 
L 230.578746 111.8412 
L 230.905044 111.8412 
L 231.013837 114.382411 
L 231.176919 109.299988 
L 231.313112 109.299988 
L 231.448943 111.8412 
L 231.475934 109.299988 
L 231.557662 111.8412 
L 231.720839 111.8412 
L 231.883899 106.758776 
L 232.210214 106.758776 
L 232.373327 101.676353 
L 232.509273 101.676353 
L 232.645478 99.135141 
L 232.67243 99.135141 
L 232.699814 101.676353 
L 232.7812 99.135141 
L 232.835909 99.135141 
L 233.026125 94.052717 
L 233.161907 96.593929 
L 233.216292 96.593929 
L 233.325067 99.135141 
L 233.406688 99.135141 
L 233.542611 96.593929 
L 233.596996 96.593929 
L 233.733143 99.135141 
L 233.869199 99.135141 
L 234.032085 94.052717 
L 234.059393 94.052717 
L 234.222623 88.970294 
L 234.304016 88.970294 
L 234.467176 83.88787 
L 234.575949 83.88787 
L 234.712122 81.346659 
L 234.73911 81.346659 
L 234.847881 78.805447 
L 235.011038 78.805447 
L 235.147172 76.264235 
L 235.962836 76.264235 
L 236.098764 73.723023 
L 236.153151 73.723023 
L 236.289322 71.181812 
L 236.533852 71.181812 
L 236.670027 68.6406 
L 237.648991 68.6406 
L 237.78474 66.099388 
L 238.002285 66.099388 
L 238.138454 63.558176 
L 238.192858 63.558176 
L 238.328605 61.016965 
L 238.600534 61.016965 
L 238.736728 58.475753 
L 239.144395 58.475753 
L 239.307558 55.934541 
L 240.123352 55.934541 
L 240.259506 53.393329 
L 240.395282 53.393329 
L 240.504381 55.934541 
L 240.694605 55.934541 
L 240.830372 53.393329 
L 241.591781 53.393329 
L 241.727977 55.934541 
L 242.026875 55.934541 
L 242.190029 58.475753 
L 242.244416 58.475753 
L 242.380544 55.934541 
L 244.20233 55.934541 
L 244.338392 53.393329 
L 244.936722 53.393329 
L 245.072512 50.852118 
L 247.057828 50.852118 
L 247.193892 48.310906 
L 249.695358 48.310906 
L 249.804132 45.769694 
L 249.940322 48.310906 
L 249.994698 48.310906 
L 250.130451 45.769694 
L 251.408709 45.769694 
L 251.544497 48.310906 
L 252.197133 48.310906 
L 252.306122 45.769694 
L 253.774343 45.769694 
L 253.910369 48.310906 
L 254.862419 48.310906 
L 255.025229 45.769694 
L 261.823534 45.769694 
L 261.959719 43.228482 
L 265.249871 43.228482 
L 265.386085 45.769694 
L 265.630576 45.769694 
L 265.793736 48.310906 
L 266.963268 48.310906 
L 267.099008 50.852118 
L 267.425323 50.852118 
L 267.561484 53.393329 
L 267.588486 53.393329 
L 267.697542 55.934541 
L 267.860416 55.934541 
L 267.887703 53.393329 
L 267.969189 55.934541 
L 268.404278 55.934541 
L 268.540446 58.475753 
L 268.567434 58.475753 
L 268.703605 61.016965 
L 268.812281 61.016965 
L 268.948136 63.558176 
L 269.029896 63.558176 
L 269.193031 68.6406 
L 269.437614 68.6406 
L 269.573782 71.181812 
L 269.900078 71.181812 
L 270.035861 68.6406 
L 270.144633 68.6406 
L 270.172072 71.181812 
L 270.25369 68.6406 
L 270.416563 68.6406 
L 270.552677 88.970294 
L 270.742879 96.593929 
L 270.79758 96.593929 
L 271.04221 109.299988 
L 271.123581 109.299988 
L 271.232351 104.217564 
L 271.259766 106.758776 
L 271.2871 106.758776 
L 271.341122 109.299988 
L 271.395511 106.758776 
L 271.422901 106.758776 
L 271.504281 101.676353 
L 271.558666 104.217564 
L 271.749249 111.8412 
L 271.776211 111.8412 
L 272.129886 124.547258 
L 272.238665 122.006047 
L 272.428838 129.629682 
L 272.537894 129.629682 
L 272.972699 91.511506 
L 273.000106 101.676353 
L 273.081473 99.135141 
L 273.108879 99.135141 
L 273.244628 101.676353 
L 273.4896 101.676353 
L 273.679716 109.299988 
L 273.707166 109.299988 
L 273.897258 101.676353 
L 273.92456 101.676353 
L 274.250938 124.547258 
L 274.3054 122.006047 
L 274.332344 124.547258 
L 274.468492 124.547258 
L 274.63165 119.464835 
L 274.686058 119.464835 
L 274.876541 111.8412 
L 274.957919 111.8412 
L 274.984973 109.299988 
L 275.012331 114.382411 
L 275.039363 114.382411 
L 275.093749 114.382411 
L 275.229863 106.758776 
L 275.256905 109.299988 
L 275.365974 109.299988 
L 275.583219 104.217564 
L 275.6106 104.217564 
L 275.665006 106.758776 
L 275.691992 104.217564 
L 275.855152 99.135141 
L 276.208846 99.135141 
L 276.507782 81.346659 
L 276.56217 81.346659 
L 276.725326 76.264235 
L 276.861454 94.052717 
L 276.942871 91.511506 
L 276.970137 94.052717 
L 277.160412 94.052717 
L 277.296603 76.264235 
L 277.922137 76.264235 
L 278.084977 73.723023 
L 278.520067 73.723023 
L 278.65619 71.181812 
L 278.73761 71.181812 
L 278.873723 68.6406 
L 279.145688 68.6406 
L 279.281471 66.099388 
L 279.79836 66.099388 
L 279.934103 63.558176 
L 280.287809 63.558176 
L 280.423581 61.016965 
L 280.668506 61.016965 
L 280.804281 58.475753 
L 280.913055 58.475753 
L 281.021822 55.934541 
L 281.157941 58.475753 
L 281.593008 58.475753 
L 281.728844 61.016965 
L 281.865053 61.016965 
L 282.001123 58.475753 
L 282.490246 58.475753 
L 282.65341 61.016965 
L 283.224677 61.016965 
L 283.360431 58.475753 
L 283.414815 58.475753 
L 283.496592 55.934541 
L 283.523586 58.475753 
L 283.686746 58.475753 
L 283.822904 61.016965 
L 283.958675 61.016965 
L 284.09465 63.558176 
L 284.828853 63.558176 
L 284.964992 61.016965 
L 285.644647 61.016965 
L 285.780827 63.558176 
L 287.303631 63.558176 
L 287.43939 61.016965 
L 287.548165 61.016965 
L 287.602549 58.475753 
L 287.657259 61.016965 
L 287.928867 61.016965 
L 288.065036 63.558176 
L 288.309565 63.558176 
L 288.418338 61.016965 
L 288.554476 63.558176 
L 288.581497 63.558176 
L 288.717516 61.016965 
L 288.962203 61.016965 
L 289.098347 58.475753 
L 289.125363 58.475753 
L 289.288519 55.934541 
L 289.560454 55.934541 
L 289.669499 53.393329 
L 289.832382 53.393329 
L 289.941152 50.852118 
L 290.349231 50.852118 
L 290.485015 48.310906 
L 291.028876 48.310906 
L 291.165038 45.769694 
L 291.355194 45.769694 
L 291.463966 48.310906 
L 291.763089 48.310906 
L 291.899056 50.852118 
L 292.116602 50.852118 
L 292.279759 55.934541 
L 292.497305 55.934541 
L 292.633428 58.475753 
L 292.850953 58.475753 
L 292.98678 55.934541 
L 293.530644 55.934541 
L 293.666791 58.475753 
L 293.96573 58.475753 
L 294.10183 61.016965 
L 294.400819 61.016965 
L 294.536961 63.558176 
L 294.781524 63.558176 
L 294.944682 66.099388 
L 295.216612 66.099388 
L 295.352593 68.6406 
L 296.304337 68.6406 
L 296.467498 71.181812 
L 296.712442 71.181812 
L 296.848459 73.723023 
L 297.147517 73.723023 
L 297.28329 71.181812 
L 298.262243 71.181812 
L 298.316628 73.723023 
L 298.371334 71.181812 
L 298.615931 71.181812 
L 298.751717 68.6406 
L 299.078039 68.6406 
L 299.21415 71.181812 
L 299.54042 71.181812 
L 299.676287 73.723023 
L 299.730671 73.723023 
L 299.866826 76.264235 
L 300.247557 76.264235 
L 300.383306 78.805447 
L 300.600849 78.805447 
L 300.79135 86.429082 
L 301.035944 86.429082 
L 301.144712 88.970294 
L 301.280879 86.429082 
L 301.416648 86.429082 
L 301.579805 83.88787 
L 301.661588 83.88787 
L 301.797348 86.429082 
L 301.851737 86.429082 
L 302.069281 76.264235 
L 302.23244 76.264235 
L 302.368554 73.723023 
L 302.694894 73.723023 
L 302.83069 76.264235 
L 303.15701 76.264235 
L 303.293161 73.723023 
L 303.456338 73.723023 
L 303.592097 76.264235 
L 303.673799 76.264235 
L 303.809643 78.805447 
L 303.891409 78.805447 
L 304.081575 86.429082 
L 304.244732 86.429082 
L 304.380944 83.88787 
L 304.571048 83.88787 
L 304.707133 81.346659 
L 304.924784 81.346659 
L 305.087754 76.264235 
L 305.332461 76.264235 
L 305.359867 73.723023 
L 305.44123 76.264235 
L 305.604391 76.264235 
L 305.658778 73.723023 
L 305.713164 76.264235 
L 306.746507 76.264235 
L 306.882669 73.723023 
L 307.317735 73.723023 
L 307.453527 71.181812 
L 307.480944 71.181812 
L 307.643899 76.264235 
L 307.997391 76.264235 
L 308.160552 81.346659 
L 308.26932 81.346659 
L 308.432482 86.429082 
L 308.486865 86.429082 
L 308.595639 88.970294 
L 308.813187 88.970294 
L 308.949332 86.429082 
L 309.112495 86.429082 
L 309.302661 78.805447 
L 309.357047 78.805447 
L 309.493226 76.264235 
L 309.819514 76.264235 
L 309.846531 78.805447 
L 309.928317 76.264235 
L 310.417768 76.264235 
L 310.55355 73.723023 
L 310.580862 73.723023 
L 310.716707 71.181812 
L 311.369346 71.181812 
L 311.396743 73.723023 
L 311.478118 71.181812 
L 311.559901 71.181812 
L 311.695968 73.723023 
L 311.858824 76.264235 
L 311.967599 76.264235 
L 312.185145 86.429082 
L 312.321274 86.429082 
L 312.484406 91.511506 
L 312.565845 91.511506 
L 312.701979 88.970294 
L 312.729371 88.970294 
L 313.000935 106.758776 
L 313.109708 106.758776 
L 313.137105 104.217564 
L 313.191482 106.758776 
L 313.490411 124.547258 
L 313.680928 124.547258 
L 313.816728 127.08847 
L 313.844063 127.08847 
L 313.979883 129.629682 
L 314.007142 127.08847 
L 314.143043 147.418164 
L 314.170424 149.959376 
L 314.306199 137.253317 
L 314.415251 137.253317 
L 314.442351 134.712105 
L 314.523744 147.418164 
L 314.55111 144.876952 
L 314.714293 139.794529 
L 314.822917 139.794529 
L 315.067605 152.500588 
L 315.230761 152.500588 
L 315.312345 160.124223 
L 315.448305 157.583011 
L 315.638846 152.500588 
L 315.665846 152.500588 
L 315.829009 157.583011 
L 315.937776 157.583011 
L 316.01952 152.500588 
L 316.073822 155.041799 
L 316.100935 155.041799 
L 316.128358 152.500588 
L 316.182651 157.583011 
L 316.209707 157.583011 
L 316.237112 155.041799 
L 316.318779 157.583011 
L 316.400215 157.583011 
L 316.454622 152.500588 
L 316.50904 157.583011 
L 316.53602 157.583011 
L 316.72657 149.959376 
L 316.835134 149.959376 
L 316.971108 152.500588 
L 316.998485 152.500588 
L 317.243362 167.747858 
L 317.40619 160.124223 
L 317.514963 165.206646 
L 317.54237 162.665435 
L 317.623736 162.665435 
L 317.651186 165.206646 
L 317.705524 162.665435 
L 317.841572 157.583011 
L 318.031786 165.206646 
L 318.058826 162.665435 
L 318.140502 165.206646 
L 318.303714 165.206646 
L 318.548299 157.583011 
L 318.674595 157.583011 
L 318.711452 160.124223 
L 318.766125 157.583011 
L 318.983384 152.500588 
L 319.255308 152.500588 
L 319.36408 149.959376 
L 320.125484 137.253317 
L 320.234255 139.794529 
L 320.261667 137.253317 
L 320.288983 139.794529 
L 320.451803 142.335741 
L 320.506188 142.335741 
L 320.587956 147.418164 
L 320.642314 144.876952 
L 320.832782 144.876952 
L 321.023014 160.124223 
L 321.158816 149.959376 
L 321.213202 149.959376 
L 321.349155 147.418164 
L 321.512515 147.418164 
L 321.593904 144.876952 
L 321.621318 147.418164 
L 321.675622 147.418164 
L 321.757062 149.959376 
L 321.784344 147.418164 
L 321.811649 147.418164 
L 321.920219 142.335741 
L 321.947598 144.876952 
L 321.974604 144.876952 
L 322.110758 152.500588 
L 322.300918 162.665435 
L 322.382519 162.665435 
L 322.545736 167.747858 
L 322.600128 167.747858 
L 322.654603 170.28907 
L 322.681618 167.747858 
L 322.817775 165.206646 
L 322.899159 170.28907 
L 322.953546 167.747858 
L 323.007933 167.747858 
L 323.171089 172.830282 
L 323.307222 170.28907 
L 323.334245 170.28907 
L 323.497403 165.206646 
L 323.524792 167.747858 
L 323.660561 152.500588 
L 323.82372 152.500588 
L 323.986873 149.959376 
L 324.041256 149.959376 
L 324.204419 144.876952 
L 324.340571 144.876952 
L 324.367912 147.418164 
L 324.449241 144.876952 
L 324.476348 144.876952 
L 324.558156 142.335741 
L 324.585121 144.876952 
L 324.612507 144.876952 
L 324.775602 149.959376 
L 324.802661 149.959376 
L 324.857048 147.418164 
L 324.911733 149.959376 
L 324.938668 152.500588 
L 325.020205 149.959376 
L 325.047606 149.959376 
L 325.128976 152.500588 
L 325.156375 149.959376 
L 325.183365 149.959376 
L 325.319553 147.418164 
L 325.482603 147.418164 
L 325.645837 152.500588 
L 325.672835 152.500588 
L 325.835992 147.418164 
L 325.944766 147.418164 
L 326.107922 142.335741 
L 326.135318 142.335741 
L 326.298405 147.418164 
L 326.325463 147.418164 
L 326.461457 142.335741 
L 326.679184 142.335741 
L 326.78786 139.794529 
L 326.869322 142.335741 
L 326.896716 139.794529 
L 327.19564 122.006047 
L 327.223066 122.006047 
L 327.3588 106.758776 
L 327.494822 106.758776 
L 327.576343 104.217564 
L 330.377388 96.593929 
L 330.540611 91.511506 
L 330.866871 91.511506 
L 331.002664 88.970294 
L 331.328983 88.970294 
L 331.465005 91.511506 
L 331.600912 91.511506 
L 331.736975 94.052717 
L 331.90023 88.970294 
L 332.008932 88.970294 
L 332.199148 81.346659 
L 332.362312 81.346659 
L 332.471084 78.805447 
L 332.60722 81.346659 
L 332.715828 81.346659 
L 332.824785 78.805447 
L 333.06933 78.805447 
L 333.178429 76.264235 
L 333.368634 76.264235 
L 333.531679 81.346659 
L 333.558808 81.346659 
L 333.66758 83.88787 
L 334.184409 83.88787 
L 334.320216 86.429082 
L 335.136012 86.429082 
L 335.299169 81.346659 
L 335.380901 81.346659 
L 335.544036 76.264235 
L 336.142244 76.264235 
L 336.251084 78.805447 
L 336.386894 76.264235 
L 336.441538 76.264235 
L 336.577376 78.805447 
L 336.631752 78.805447 
L 336.767598 76.264235 
L 336.794919 76.264235 
L 336.931038 73.723023 
L 337.284392 73.723023 
L 337.420229 76.264235 
L 337.746547 76.264235 
L 337.882669 73.723023 
L 338.453566 73.723023 
L 338.616727 76.264235 
L 339.541291 76.264235 
L 339.677322 78.805447 
L 340.193926 78.805447 
L 340.330032 81.346659 
L 340.411472 81.346659 
L 340.465859 83.88787 
L 340.520532 81.346659 
L 340.683401 83.88787 
L 340.982743 83.88787 
L 341.172877 76.264235 
L 341.25459 76.264235 
L 341.390421 78.805447 
L 341.52658 76.264235 
L 341.961586 76.264235 
L 342.097442 78.805447 
L 342.124702 78.805447 
L 342.206216 81.346659 
L 342.233605 78.805447 
L 342.314987 78.805447 
L 342.451093 76.264235 
L 343.538816 76.264235 
L 343.674645 73.723023 
L 344.136919 73.723023 
L 344.272894 76.264235 
L 344.408974 73.723023 
L 345.46939 73.723023 
L 345.551144 71.181812 
L 345.578161 73.723023 
L 346.203645 73.723023 
L 346.339571 76.264235 
L 347.04659 76.264235 
L 347.128358 73.723023 
L 347.155657 76.264235 
L 347.590454 76.264235 
L 347.726433 78.805447 
L 347.916768 78.805447 
L 348.05293 76.264235 
L 348.515019 76.264235 
L 348.651193 73.723023 
L 348.759794 73.723023 
L 348.895718 76.264235 
L 350.146599 76.264235 
L 350.255669 73.723023 
L 350.391545 76.264235 
L 350.500279 76.264235 
L 350.636076 73.723023 
L 350.663453 73.723023 
L 350.799233 71.181812 
L 350.962396 71.181812 
L 351.09854 68.6406 
L 351.152944 68.6406 
L 351.288955 66.099388 
L 351.370442 66.099388 
L 351.506254 63.558176 
L 351.778483 63.558176 
L 351.914322 61.016965 
L 352.267658 61.016965 
L 352.43082 58.475753 
L 352.566958 58.475753 
L 352.702752 55.934541 
L 352.757139 55.934541 
L 352.81177 58.475753 
L 352.865911 55.934541 
L 352.947677 55.934541 
L 353.083449 58.475753 
L 353.355384 58.475753 
L 353.491531 61.016965 
L 353.709068 61.016965 
L 353.845097 58.475753 
L 355.231885 58.475753 
L 355.367905 55.934541 
L 355.42206 55.934541 
L 355.558231 53.393329 
L 356.319583 53.393329 
L 356.482686 58.475753 
L 357.216805 58.475753 
L 357.352948 61.016965 
L 357.733634 61.016965 
L 357.869439 58.475753 
L 358.005536 58.475753 
L 358.141371 55.934541 
L 358.413542 55.934541 
L 358.576461 53.393329 
L 359.09334 53.393329 
L 359.229096 50.852118 
L 359.310789 50.852118 
L 359.446929 53.393329 
L 359.691531 53.393329 
L 359.827346 50.852118 
L 361.70389 50.852118 
L 361.839635 48.310906 
L 364.504549 48.310906 
L 364.640621 50.852118 
L 366.054803 50.852118 
L 366.19053 53.393329 
L 366.788774 53.393329 
L 366.924903 55.934541 
L 367.441404 55.934541 
L 367.57754 58.475753 
L 368.094042 58.475753 
L 368.230127 55.934541 
L 368.882838 55.934541 
L 369.018606 58.475753 
L 369.236154 58.475753 
L 369.37233 55.934541 
L 369.888791 55.934541 
L 370.024888 53.393329 
L 370.106334 53.393329 
L 370.242345 50.852118 
L 370.541422 50.852118 
L 370.677515 53.393329 
L 371.574759 53.393329 
L 371.683534 55.934541 
L 371.928374 55.934541 
L 372.064236 58.475753 
L 372.472304 58.475753 
L 372.635484 63.558176 
L 372.798496 63.558176 
L 372.934417 61.016965 
L 372.9888 61.016965 
L 373.124935 78.805447 
L 373.151958 78.805447 
L 373.396831 91.511506 
L 373.451205 91.511506 
L 373.587051 88.970294 
L 373.804593 88.970294 
L 373.831859 86.429082 
L 373.886365 88.970294 
L 374.10388 99.135141 
L 374.348454 99.135141 
L 374.511612 94.052717 
L 374.756482 94.052717 
L 374.892311 91.511506 
L 374.946701 91.511506 
L 375.109856 96.593929 
L 375.218628 96.593929 
L 375.35465 99.135141 
L 375.436173 99.135141 
L 375.544946 101.676353 
L 375.680988 99.135141 
L 375.708102 99.135141 
L 375.762487 101.676353 
L 375.925646 86.429082 
L 376.143192 76.264235 
L 376.279299 76.264235 
L 376.415121 73.723023 
L 376.605685 73.723023 
L 376.741441 71.181812 
L 376.76881 71.181812 
L 376.9046 68.6406 
L 377.040768 68.6406 
L 377.176526 66.099388 
L 377.285302 66.099388 
L 377.421374 63.558176 
L 377.802195 63.558176 
L 377.937933 61.016965 
L 377.992319 61.016965 
L 378.128345 63.558176 
L 378.209866 63.558176 
L 378.318636 61.016965 
L 378.400225 61.016965 
L 378.536181 58.475753 
L 378.835467 58.475753 
L 378.97127 55.934541 
L 379.488082 55.934541 
L 379.623904 53.393329 
L 380.031984 53.393329 
L 380.167766 50.852118 
L 382.044198 50.852118 
L 382.180043 53.393329 
L 382.452212 53.393329 
L 382.615132 55.934541 
L 382.887066 55.934541 
L 383.050221 61.016965 
L 383.18634 61.016965 
L 383.349439 66.099388 
L 384.083556 66.099388 
L 384.219718 68.6406 
L 384.464262 68.6406 
L 384.62742 71.181812 
L 385.416194 71.181812 
L 385.552289 73.723023 
L 385.688167 71.181812 
L 385.905664 71.181812 
L 386.041778 73.723023 
L 386.531239 73.723023 
L 386.612585 71.181812 
L 386.639711 73.723023 
L 387.265319 73.723023 
L 387.401119 76.264235 
L 387.455504 76.264235 
L 387.509892 78.805447 
L 387.564591 76.264235 
L 387.999369 76.264235 
L 388.135373 73.723023 
L 388.516197 73.723023 
L 388.652002 71.181812 
L 389.386285 71.181812 
L 389.522188 68.6406 
L 389.712669 68.6406 
L 389.848507 66.099388 
L 390.039058 66.099388 
L 390.174826 68.6406 
L 390.283598 68.6406 
L 390.419769 71.181812 
L 390.691531 71.181812 
L 390.827462 73.723023 
L 390.963637 73.723023 
L 391.099394 71.181812 
L 391.50746 71.181812 
L 391.64326 73.723023 
L 391.806419 71.181812 
L 392.187301 71.181812 
L 392.323338 68.6406 
L 392.459055 68.6406 
L 392.595189 66.099388 
L 393.00292 66.099388 
L 393.139066 68.6406 
L 393.329234 68.6406 
L 393.465366 71.181812 
L 393.8731 71.181812 
L 394.009276 73.723023 
L 394.335556 73.723023 
L 394.471352 71.181812 
L 395.205685 71.181812 
L 395.341533 68.6406 
L 395.450304 68.6406 
L 395.58646 66.099388 
L 395.885394 66.099388 
L 396.021552 63.558176 
L 396.211712 63.558176 
L 396.347768 61.016965 
L 396.864346 61.016965 
L 397.000537 63.558176 
L 397.05487 63.558176 
L 397.190664 66.099388 
L 397.489962 66.099388 
L 397.625755 68.6406 
L 397.707521 68.6406 
L 397.788913 66.099388 
L 397.952074 68.6406 
L 398.577717 68.6406 
L 398.713479 71.181812 
L 399.50225 71.181812 
L 399.638048 73.723023 
L 399.93727 73.723023 
L 400.073136 76.264235 
L 400.26368 76.264235 
L 400.426694 81.346659 
L 400.481197 81.346659 
L 400.616997 83.88787 
L 401.052088 83.88787 
L 401.188233 86.429082 
L 401.351323 86.429082 
L 401.514553 81.346659 
L 401.595949 81.346659 
L 401.732052 78.805447 
L 401.759109 78.805447 
L 401.867881 76.264235 
L 401.976651 76.264235 
L 402.112827 73.723023 
L 402.874263 73.723023 
L 403.010003 76.264235 
L 403.635599 76.264235 
L 403.771413 73.723023 
L 404.179492 73.723023 
L 404.315277 76.264235 
L 404.42405 76.264235 
L 404.614574 83.88787 
L 405.131077 83.88787 
L 405.267238 81.346659 
L 405.294237 81.346659 
L 405.457396 76.264235 
L 405.756702 76.264235 
L 405.974238 86.429082 
L 406.246188 86.429082 
L 406.381966 88.970294 
L 406.463728 88.970294 
L 406.59951 91.511506 
L 406.626826 91.511506 
L 406.762673 94.052717 
L 406.817061 94.052717 
L 406.980216 99.135141 
L 407.306536 99.135141 
L 407.442642 101.676353 
L 407.524083 101.676353 
L 407.687243 104.217564 
L 407.741626 104.217564 
L 407.904789 109.299988 
L 408.23111 109.299988 
L 408.367207 111.8412 
L 408.448657 111.8412 
L 408.611814 116.923623 
L 408.6662 116.923623 
L 408.72059 114.382411 
L 408.774974 116.923623 
L 408.802306 116.923623 
L 408.938133 114.382411 
L 408.992521 114.382411 
L 409.128511 116.923623 
L 409.183018 116.923623 
L 409.318834 119.464835 
L 409.427609 119.464835 
L 409.563707 122.006047 
L 409.591026 122.006047 
L 409.753933 124.547258 
L 410.216385 124.547258 
L 410.352185 127.08847 
L 410.433937 127.08847 
L 410.597079 132.170894 
L 410.732889 132.170894 
L 410.896046 137.253317 
L 410.950437 137.253317 
L 410.977763 139.794529 
L 411.059206 137.253317 
L 411.113855 137.253317 
L 411.195241 134.712105 
L 411.222365 137.253317 
L 411.249748 137.253317 
L 411.412906 132.170894 
L 411.494299 132.170894 
L 411.657662 137.253317 
L 411.68467 137.253317 
L 411.820618 139.794529 
L 411.875003 139.794529 
L 412.038165 144.876952 
L 412.119921 144.876952 
L 412.147188 142.335741 
L 412.228605 144.876952 
L 412.446233 144.876952 
L 412.582024 149.959376 
L 412.718033 147.418164 
L 412.745182 147.418164 
L 412.908336 152.500588 
L 412.962719 152.500588 
L 413.153254 139.794529 
L 413.180516 142.335741 
L 413.207444 142.335741 
L 413.397799 149.959376 
L 413.425076 149.959376 
L 413.560953 152.500588 
L 413.75137 152.500588 
L 413.805877 149.959376 
L 413.941884 175.371493 
L 414.077792 157.583011 
L 414.104814 155.041799 
L 414.240797 172.830282 
L 414.295305 172.830282 
L 414.43113 182.995129 
L 414.458454 180.453917 
L 414.594288 177.912705 
L 414.757443 188.077552 
L 414.893565 193.159976 
L 414.974987 190.618764 
L 415.002339 193.159976 
L 415.111129 193.159976 
L 415.247161 190.618764 
L 415.274158 190.618764 
L 415.383025 195.701188 
L 415.410078 193.159976 
L 415.437477 193.159976 
L 415.573236 195.701188 
L 415.654972 195.701188 
L 415.682007 193.159976 
L 415.763585 195.701188 
L 415.818092 195.701188 
L 415.953934 193.159976 
L 416.008318 198.242399 
L 416.062701 195.701188 
L 416.226117 190.618764 
L 416.334635 190.618764 
L 416.470688 195.701188 
L 416.497788 195.701188 
L 416.715333 182.995129 
L 416.77003 182.995129 
L 416.851442 177.912705 
L 416.87849 182.995129 
L 416.960276 190.618764 
L 416.987261 185.53634 
L 417.041647 185.53634 
L 417.232199 177.912705 
L 417.259413 177.912705 
L 417.449678 190.618764 
L 417.476736 188.077552 
L 417.504117 188.077552 
L 417.639898 177.912705 
L 417.667228 180.453917 
L 417.830311 190.618764 
L 418.020598 198.242399 
L 418.156691 195.701188 
L 418.238145 198.242399 
L 418.292815 193.159976 
L 418.346915 198.242399 
L 418.455686 198.242399 
L 418.618843 193.159976 
L 418.67323 195.701188 
L 418.727615 193.159976 
L 418.836387 188.077552 
L 418.863672 195.701188 
L 418.945161 193.159976 
L 419.108318 188.077552 
L 419.135662 188.077552 
L 419.271475 195.701188 
L 419.3531 195.701188 
L 419.570773 185.53634 
L 419.70656 193.159976 
L 419.760947 193.159976 
L 419.924106 195.701188 
L 420.060249 185.53634 
L 420.277779 195.701188 
L 420.305093 195.701188 
L 420.440936 188.077552 
L 420.467962 193.159976 
L 420.522349 193.159976 
L 420.658403 195.701188 
L 420.712777 195.701188 
L 420.76724 193.159976 
L 420.794278 195.701188 
L 420.87589 200.783611 
L 420.984788 190.618764 
L 421.011822 193.159976 
L 421.039172 193.159976 
L 421.147932 190.618764 
L 421.229362 193.159976 
L 421.256759 190.618764 
L 421.283748 190.618764 
L 421.446907 185.53634 
L 421.474254 185.53634 
L 421.66445 177.912705 
L 421.936382 177.912705 
L 422.072502 175.371493 
L 422.126869 177.912705 
L 422.181304 175.371493 
L 422.235703 175.371493 
L 422.371753 172.830282 
L 422.398685 172.830282 
L 422.425857 170.28907 
L 422.507593 172.830282 
L 422.589013 172.830282 
L 422.725098 170.28907 
L 422.77955 170.28907 
L 422.861248 167.747858 
L 423.024101 170.28907 
L 423.241645 170.28907 
L 423.268947 172.830282 
L 423.350415 170.28907 
L 423.622348 162.665435 
L 423.649753 162.665435 
L 423.894452 144.876952 
L 423.921477 147.418164 
L 423.948663 147.418164 
L 424.084764 149.959376 
L 424.220597 149.959376 
L 424.384058 144.876952 
L 424.683063 144.876952 
L 424.818842 147.418164 
L 424.982001 142.335741 
L 425.036388 142.335741 
L 425.199544 137.253317 
L 425.335654 137.253317 
L 425.471478 134.712105 
L 425.498776 134.712105 
L 425.607634 137.253317 
L 425.770823 132.170894 
L 425.797792 134.712105 
L 425.879569 132.170894 
L 425.906567 132.170894 
L 425.960949 129.629682 
L 426.015339 132.170894 
L 426.04271 132.170894 
L 426.151474 127.08847 
L 426.178499 129.629682 
L 426.314605 132.170894 
L 426.396043 132.170894 
L 426.667974 139.794529 
L 427.239147 139.794529 
L 427.293578 142.335741 
L 427.347937 139.794529 
L 427.402329 139.794529 
L 427.538155 137.253317 
L 427.728667 137.253317 
L 427.810089 134.712105 
L 427.83747 137.253317 
L 427.918862 137.253317 
L 427.973419 134.712105 
L 428.02763 137.253317 
L 428.598821 137.253317 
L 428.734654 134.712105 
L 428.870785 134.712105 
L 429.006845 137.253317 
L 429.169744 137.253317 
L 429.305869 134.712105 
L 429.767986 134.712105 
L 429.904043 137.253317 
L 430.420619 137.253317 
L 430.502346 134.712105 
L 430.638164 134.712105 
L 430.774322 132.170894 
L 431.100493 132.170894 
L 431.263716 127.08847 
L 431.563022 127.08847 
L 431.698857 124.547258 
L 431.997818 124.547258 
L 432.13385 127.08847 
L 432.378521 127.08847 
L 432.432907 124.547258 
L 432.487291 127.08847 
L 433.004148 127.08847 
L 433.13993 129.629682 
L 433.194317 129.629682 
L 433.276074 127.08847 
L 433.303085 129.629682 
L 433.411862 129.629682 
L 433.548009 132.170894 
L 433.575016 132.170894 
L 433.738176 129.629682 
L 433.819958 129.629682 
L 433.901336 132.170894 
L 433.928664 129.629682 
L 434.527015 129.629682 
L 434.662741 132.170894 
L 434.744501 132.170894 
L 434.880287 134.712105 
L 434.934673 134.712105 
L 435.043448 132.170894 
L 435.179422 134.712105 
L 435.39712 134.712105 
L 435.560305 129.629682 
L 435.614636 129.629682 
L 435.750471 127.08847 
L 435.777779 127.08847 
L 435.913628 124.547258 
L 436.185877 124.547258 
L 436.321714 122.006047 
L 436.539236 122.006047 
L 436.566265 124.547258 
L 436.64802 122.006047 
L 437.110129 122.006047 
L 437.27329 116.923623 
L 437.925926 116.923623 
L 438.062057 119.464835 
L 438.551556 119.464835 
L 438.687337 116.923623 
L 438.850496 116.923623 
L 438.986586 114.382411 
L 439.285588 114.382411 
L 439.448744 119.464835 
L 439.557516 119.464835 
L 439.666289 122.006047 
L 439.802291 119.464835 
L 440.155767 119.464835 
L 440.26482 116.923623 
L 440.318931 116.923623 
L 440.40066 119.464835 
L 440.427705 116.923623 
L 440.563876 116.923623 
L 440.727006 122.006047 
L 441.325079 122.006047 
L 441.488368 116.923623 
L 441.597183 116.923623 
L 441.732976 119.464835 
L 442.548773 119.464835 
L 442.630487 116.923623 
L 442.657545 119.464835 
L 442.929477 119.464835 
L 443.065633 122.006047 
L 443.174425 122.006047 
L 443.391801 111.8412 
L 443.446291 111.8412 
L 443.582115 109.299988 
L 444.044517 109.299988 
L 444.18037 111.8412 
L 444.262103 111.8412 
L 444.397909 114.382411 
L 444.479654 114.382411 
L 444.615462 116.923623 
L 444.833005 116.923623 
L 444.969097 114.382411 
L 445.104938 116.923623 
L 445.349767 116.923623 
L 445.485645 114.382411 
L 445.947951 114.382411 
L 446.083895 116.923623 
L 446.111287 116.923623 
L 446.247053 119.464835 
L 446.355825 119.464835 
L 446.518988 114.382411 
L 446.872683 114.382411 
L 447.008467 116.923623 
L 447.334785 116.923623 
L 447.470741 114.382411 
L 447.797235 114.382411 
L 447.933039 111.8412 
L 448.150581 111.8412 
L 448.286716 109.299988 
L 448.531287 109.299988 
L 448.721803 101.676353 
L 448.748834 101.676353 
L 448.884981 99.135141 
L 449.020768 99.135141 
L 449.075153 96.593929 
L 449.129541 99.135141 
L 449.455859 99.135141 
L 449.537462 101.676353 
L 449.564634 99.135141 
L 449.727791 99.135141 
L 449.890952 101.676353 
L 450 101.676353 
L 450 101.676353 
" clip-path="url(#pf20c24b959)" style="fill: none; stroke: #ff7f0e; stroke-width: 1.5; stroke-linecap: square"/>
   </g>
   <g id="patch_3">
    <path d="M 51.05 279.561175 
L 51.05 25.44 
" style="fill: none; stroke: #000000; stroke-width: 0.8; stroke-linejoin: miter; stroke-linecap: square"/>
   </g>
   <g id="patch_4">
    <path d="M 450 279.561175 
L 450 25.44 
" style="fill: none; stroke: #000000; stroke-width: 0.8; stroke-linejoin: miter; stroke-linecap: square"/>
   </g>
   <g id="patch_5">
    <path d="M 51.05 279.561175 
L 450 279.561175 
" style="fill: none; stroke: #000000; stroke-width: 0.8; stroke-linejoin: miter; stroke-linecap: square"/>
   </g>
   <g id="patch_6">
    <path d="M 51.05 25.44 
L 450 25.44 
" style="fill: none; stroke: #000000; stroke-width: 0.8; stroke-linejoin: miter; stroke-linecap: square"/>
   </g>
   <g id="text_16">
    <!-- November 2023 -->
    <g transform="translate(202.133125 19.44) scale(0.12 -0.12)">
     <defs>
      <path id="DejaVuSans-4e" d="M 628 4666 
L 1478 4666 
L 3547 763 
L 3547 4666 
L 4159 4666 
L 4159 0 
L 3309 0 
L 1241 3903 
L 1241 0 
L 628 0 
L 628 4666 
z
" transform="scale(0.015625)"/>
      <path id="DejaVuSans-6f" d="M 1959 3097 
Q 1497 3097 1228 2736 
Q 959 2375 959 1747 
Q 959 1119 1226 758 
Q 1494 397 1959 397 
Q 2419 397 2687 759 
Q 2956 1122 2956 1747 
Q 2956 2369 2687 2733 
Q 2419 3097 1959 3097 
z
M 1959 3584 
Q 2709 3584 3137 3096 
Q 3566 2609 3566 1747 
Q 3566 888 3137 398 
Q 2709 -91 1959 -91 
Q 1206 -91 779 398 
Q 353 888 353 1747 
Q 353 2609 779 3096 
Q 1206 3584 1959 3584 
z
" transform="scale(0.015625)"/>
      <path id="DejaVuSans-76" d="M 191 3500 
L 800 3500 
L 1894 563 
L 2988 3500 
L 3597 3500 
L 2284 0 
L 1503 0 
L 191 3500 
z
" transform="scale(0.015625)"/>
      <path id="DejaVuSans-65" d="M 3597 1894 
L 3597 1613 
L 953 1613 
Q 991 1019 1311 708 
Q 1631 397 2203 397 
Q 2534 397 2845 478 
Q 3156 559 3463 722 
L 3463 178 
Q 3153 47 2828 -22 
Q 2503 -91 2169 -91 
Q 1331 -91 842 396 
Q 353 884 353 1716 
Q 353 2575 817 3079 
Q 1281 3584 2069 3584 
Q 2775 3584 3186 3129 
Q 3597 2675 3597 1894 
z
M 3022 2063 
Q 3016 2534 2758 2815 
Q 2500 3097 2075 3097 
Q 1594 3097 1305 2825 
Q 1016 2553 972 2059 
L 3022 2063 
z
" transform="scale(0.015625)"/>
      <path id="DejaVuSans-62" d="M 3116 1747 
Q 3116 2381 2855 2742 
Q 2594 3103 2138 3103 
Q 1681 3103 1420 2742 
Q 1159 2381 1159 1747 
Q 1159 1113 1420 752 
Q 1681 391 2138 391 
Q 2594 391 2855 752 
Q 3116 1113 3116 1747 
z
M 1159 2969 
Q 1341 3281 1617 3432 
Q 1894 3584 2278 3584 
Q 2916 3584 3314 3078 
Q 3713 2572 3713 1747 
Q 3713 922 3314 415 
Q 2916 -91 2278 -91 
Q 1894 -91 1617 61 
Q 1341 213 1159 525 
L 1159 0 
L 581 0 
L 581 4863 
L 1159 4863 
L 1159 2969 
z
" transform="scale(0.015625)"/>
      <path id="DejaVuSans-72" d="M 2631 2963 
Q 2534 3019 2420 3045 
Q 2306 3072 2169 3072 
Q 1681 3072 1420 2755 
Q 1159 2438 1159 1844 
L 1159 0 
L 581 0 
L 581 3500 
L 1159 3500 
L 1159 2956 
Q 1341 3275 1631 3429 
Q 1922 3584 2338 3584 
Q 2397 3584 2469 3576 
Q 2541 3569 2628 3553 
L 2631 2963 
z
" transform="scale(0.015625)"/>
     </defs>
     <use xlink:href="#DejaVuSans-4e"/>
     <use xlink:href="#DejaVuSans-6f" x="74.804688"/>
     <use xlink:href="#DejaVuSans-76" x="135.986328"/>
     <use xlink:href="#DejaVuSans-65" x="195.166016"/>
     <use xlink:href="#DejaVuSans-6d" x="256.689453"/>
     <use xlink:href="#DejaVuSans-62" x="354.101562"/>
     <use xlink:href="#DejaVuSans-65" x="417.578125"/>
     <use xlink:href="#DejaVuSans-72" x="479.101562"/>
     <use xlink:href="#DejaVuSans-20" x="520.214844"/>
     <use xlink:href="#DejaVuSans-32" x="552.001953"/>
     <use xlink:href="#DejaVuSans-30" x="615.625"/>
     <use xlink:href="#DejaVuSans-32" x="679.248047"/>
     <use xlink:href="#DejaVuSans-33" x="742.871094"/>
    </g>
   </g>
  </g>
 </g>
 <defs>
  <clipPath id="pf20c24b959">
   <rect x="51.05" y="25.44" width="398.95" height="254.121175"/>
  </clipPath>
 </defs>
</svg>
