<?xml version="1.0" encoding="utf-8" standalone="no"?>
<!DOCTYPE svg PUBLIC "-//W3C//DTD SVG 1.1//EN"
  "http://www.w3.org/Graphics/SVG/1.1/DTD/svg11.dtd">
<svg xmlns:xlink="http://www.w3.org/1999/xlink" width="504pt" height="504pt" viewBox="0 0 504 504" xmlns="http://www.w3.org/2000/svg" version="1.1">
 <metadata>
  <rdf:RDF xmlns:dc="http://purl.org/dc/elements/1.1/" xmlns:cc="http://creativecommons.org/ns#" xmlns:rdf="http://www.w3.org/1999/02/22-rdf-syntax-ns#">
   <cc:Work>
    <dc:type rdf:resource="http://purl.org/dc/dcmitype/StillImage"/>
    <dc:date>2023-12-02T17:01:21.552147</dc:date>
    <dc:format>image/svg+xml</dc:format>
    <dc:creator>
     <cc:Agent>
      <dc:title>Matplotlib v3.6.3, https://matplotlib.org/</dc:title>
     </cc:Agent>
    </dc:creator>
   </cc:Work>
  </rdf:RDF>
 </metadata>
 <defs>
  <style type="text/css">*{stroke-linejoin: round; stroke-linecap: butt}</style>
 </defs>
 <g id="figure_1">
  <g id="patch_1">
   <path d="M 0 504 
L 504 504 
L 504 0 
L 0 0 
z
" style="fill: #ffffff"/>
  </g>
  <g id="axes_1">
   <g id="patch_2">
    <path d="M 51.05 158.510853 
L 483.318832 158.510853 
L 483.318832 32.4 
L 51.05 32.4 
z
" style="fill: #ffffff"/>
   </g>
   <g id="matplotlib.axis_1">
    <g id="xtick_1">
     <g id="line2d_1">
      <path d="M 93.14811 158.510853 
L 93.14811 32.4 
" clip-path="url(#pb77b6bb04c)" style="fill: none; stroke: #b0b0b0; stroke-width: 0.8; stroke-linecap: square"/>
     </g>
     <g id="line2d_2">
      <defs>
       <path id="m3ab17978b0" d="M 0 0 
L 0 3.5 
" style="stroke: #000000; stroke-width: 0.8"/>
      </defs>
      <g>
       <use xlink:href="#m3ab17978b0" x="93.14811" y="158.510853" style="stroke: #000000; stroke-width: 0.8"/>
      </g>
     </g>
    </g>
    <g id="xtick_2">
     <g id="line2d_3">
      <path d="M 135.320871 158.510853 
L 135.320871 32.4 
" clip-path="url(#pb77b6bb04c)" style="fill: none; stroke: #b0b0b0; stroke-width: 0.8; stroke-linecap: square"/>
     </g>
     <g id="line2d_4">
      <g>
       <use xlink:href="#m3ab17978b0" x="135.320871" y="158.510853" style="stroke: #000000; stroke-width: 0.8"/>
      </g>
     </g>
    </g>
    <g id="xtick_3">
     <g id="line2d_5">
      <path d="M 177.493631 158.510853 
L 177.493631 32.4 
" clip-path="url(#pb77b6bb04c)" style="fill: none; stroke: #b0b0b0; stroke-width: 0.8; stroke-linecap: square"/>
     </g>
     <g id="line2d_6">
      <g>
       <use xlink:href="#m3ab17978b0" x="177.493631" y="158.510853" style="stroke: #000000; stroke-width: 0.8"/>
      </g>
     </g>
    </g>
    <g id="xtick_4">
     <g id="line2d_7">
      <path d="M 219.666392 158.510853 
L 219.666392 32.4 
" clip-path="url(#pb77b6bb04c)" style="fill: none; stroke: #b0b0b0; stroke-width: 0.8; stroke-linecap: square"/>
     </g>
     <g id="line2d_8">
      <g>
       <use xlink:href="#m3ab17978b0" x="219.666392" y="158.510853" style="stroke: #000000; stroke-width: 0.8"/>
      </g>
     </g>
    </g>
    <g id="xtick_5">
     <g id="line2d_9">
      <path d="M 261.839152 158.510853 
L 261.839152 32.4 
" clip-path="url(#pb77b6bb04c)" style="fill: none; stroke: #b0b0b0; stroke-width: 0.8; stroke-linecap: square"/>
     </g>
     <g id="line2d_10">
      <g>
       <use xlink:href="#m3ab17978b0" x="261.839152" y="158.510853" style="stroke: #000000; stroke-width: 0.8"/>
      </g>
     </g>
    </g>
    <g id="xtick_6">
     <g id="line2d_11">
      <path d="M 304.011913 158.510853 
L 304.011913 32.4 
" clip-path="url(#pb77b6bb04c)" style="fill: none; stroke: #b0b0b0; stroke-width: 0.8; stroke-linecap: square"/>
     </g>
     <g id="line2d_12">
      <g>
       <use xlink:href="#m3ab17978b0" x="304.011913" y="158.510853" style="stroke: #000000; stroke-width: 0.8"/>
      </g>
     </g>
    </g>
    <g id="xtick_7">
     <g id="line2d_13">
      <path d="M 346.184673 158.510853 
L 346.184673 32.4 
" clip-path="url(#pb77b6bb04c)" style="fill: none; stroke: #b0b0b0; stroke-width: 0.8; stroke-linecap: square"/>
     </g>
     <g id="line2d_14">
      <g>
       <use xlink:href="#m3ab17978b0" x="346.184673" y="158.510853" style="stroke: #000000; stroke-width: 0.8"/>
      </g>
     </g>
    </g>
    <g id="xtick_8">
     <g id="line2d_15">
      <path d="M 388.357434 158.510853 
L 388.357434 32.4 
" clip-path="url(#pb77b6bb04c)" style="fill: none; stroke: #b0b0b0; stroke-width: 0.8; stroke-linecap: square"/>
     </g>
     <g id="line2d_16">
      <g>
       <use xlink:href="#m3ab17978b0" x="388.357434" y="158.510853" style="stroke: #000000; stroke-width: 0.8"/>
      </g>
     </g>
    </g>
    <g id="xtick_9">
     <g id="line2d_17">
      <path d="M 430.530194 158.510853 
L 430.530194 32.4 
" clip-path="url(#pb77b6bb04c)" style="fill: none; stroke: #b0b0b0; stroke-width: 0.8; stroke-linecap: square"/>
     </g>
     <g id="line2d_18">
      <g>
       <use xlink:href="#m3ab17978b0" x="430.530194" y="158.510853" style="stroke: #000000; stroke-width: 0.8"/>
      </g>
     </g>
    </g>
    <g id="xtick_10">
     <g id="line2d_19">
      <path d="M 472.702955 158.510853 
L 472.702955 32.4 
" clip-path="url(#pb77b6bb04c)" style="fill: none; stroke: #b0b0b0; stroke-width: 0.8; stroke-linecap: square"/>
     </g>
     <g id="line2d_20">
      <g>
       <use xlink:href="#m3ab17978b0" x="472.702955" y="158.510853" style="stroke: #000000; stroke-width: 0.8"/>
      </g>
     </g>
    </g>
   </g>
   <g id="matplotlib.axis_2">
    <g id="ytick_1">
     <g id="line2d_21">
      <path d="M 51.05 152.778541 
L 483.318832 152.778541 
" clip-path="url(#pb77b6bb04c)" style="fill: none; stroke: #b0b0b0; stroke-width: 0.8; stroke-linecap: square"/>
     </g>
     <g id="line2d_22">
      <defs>
       <path id="m77760cf47b" d="M 0 0 
L -3.5 0 
" style="stroke: #000000; stroke-width: 0.8"/>
      </defs>
      <g>
       <use xlink:href="#m77760cf47b" x="51.05" y="152.778541" style="stroke: #000000; stroke-width: 0.8"/>
      </g>
     </g>
     <g id="text_1">
      <!-- 0 -->
      <g transform="translate(37.6875 156.57776) scale(0.1 -0.1)">
       <defs>
        <path id="DejaVuSans-30" d="M 2034 4250 
Q 1547 4250 1301 3770 
Q 1056 3291 1056 2328 
Q 1056 1369 1301 889 
Q 1547 409 2034 409 
Q 2525 409 2770 889 
Q 3016 1369 3016 2328 
Q 3016 3291 2770 3770 
Q 2525 4250 2034 4250 
z
M 2034 4750 
Q 2819 4750 3233 4129 
Q 3647 3509 3647 2328 
Q 3647 1150 3233 529 
Q 2819 -91 2034 -91 
Q 1250 -91 836 529 
Q 422 1150 422 2328 
Q 422 3509 836 4129 
Q 1250 4750 2034 4750 
z
" transform="scale(0.015625)"/>
       </defs>
       <use xlink:href="#DejaVuSans-30"/>
      </g>
     </g>
    </g>
    <g id="ytick_2">
     <g id="line2d_23">
      <path d="M 51.05 129.849295 
L 483.318832 129.849295 
" clip-path="url(#pb77b6bb04c)" style="fill: none; stroke: #b0b0b0; stroke-width: 0.8; stroke-linecap: square"/>
     </g>
     <g id="line2d_24">
      <g>
       <use xlink:href="#m77760cf47b" x="51.05" y="129.849295" style="stroke: #000000; stroke-width: 0.8"/>
      </g>
     </g>
     <g id="text_2">
      <!-- 1 -->
      <g transform="translate(37.6875 133.648514) scale(0.1 -0.1)">
       <defs>
        <path id="DejaVuSans-31" d="M 794 531 
L 1825 531 
L 1825 4091 
L 703 3866 
L 703 4441 
L 1819 4666 
L 2450 4666 
L 2450 531 
L 3481 531 
L 3481 0 
L 794 0 
L 794 531 
z
" transform="scale(0.015625)"/>
       </defs>
       <use xlink:href="#DejaVuSans-31"/>
      </g>
     </g>
    </g>
    <g id="ytick_3">
     <g id="line2d_25">
      <path d="M 51.05 106.920049 
L 483.318832 106.920049 
" clip-path="url(#pb77b6bb04c)" style="fill: none; stroke: #b0b0b0; stroke-width: 0.8; stroke-linecap: square"/>
     </g>
     <g id="line2d_26">
      <g>
       <use xlink:href="#m77760cf47b" x="51.05" y="106.920049" style="stroke: #000000; stroke-width: 0.8"/>
      </g>
     </g>
     <g id="text_3">
      <!-- 2 -->
      <g transform="translate(37.6875 110.719268) scale(0.1 -0.1)">
       <defs>
        <path id="DejaVuSans-32" d="M 1228 531 
L 3431 531 
L 3431 0 
L 469 0 
L 469 531 
Q 828 903 1448 1529 
Q 2069 2156 2228 2338 
Q 2531 2678 2651 2914 
Q 2772 3150 2772 3378 
Q 2772 3750 2511 3984 
Q 2250 4219 1831 4219 
Q 1534 4219 1204 4116 
Q 875 4013 500 3803 
L 500 4441 
Q 881 4594 1212 4672 
Q 1544 4750 1819 4750 
Q 2544 4750 2975 4387 
Q 3406 4025 3406 3419 
Q 3406 3131 3298 2873 
Q 3191 2616 2906 2266 
Q 2828 2175 2409 1742 
Q 1991 1309 1228 531 
z
" transform="scale(0.015625)"/>
       </defs>
       <use xlink:href="#DejaVuSans-32"/>
      </g>
     </g>
    </g>
    <g id="ytick_4">
     <g id="line2d_27">
      <path d="M 51.05 83.990803 
L 483.318832 83.990803 
" clip-path="url(#pb77b6bb04c)" style="fill: none; stroke: #b0b0b0; stroke-width: 0.8; stroke-linecap: square"/>
     </g>
     <g id="line2d_28">
      <g>
       <use xlink:href="#m77760cf47b" x="51.05" y="83.990803" style="stroke: #000000; stroke-width: 0.8"/>
      </g>
     </g>
     <g id="text_4">
      <!-- 3 -->
      <g transform="translate(37.6875 87.790022) scale(0.1 -0.1)">
       <defs>
        <path id="DejaVuSans-33" d="M 2597 2516 
Q 3050 2419 3304 2112 
Q 3559 1806 3559 1356 
Q 3559 666 3084 287 
Q 2609 -91 1734 -91 
Q 1441 -91 1130 -33 
Q 819 25 488 141 
L 488 750 
Q 750 597 1062 519 
Q 1375 441 1716 441 
Q 2309 441 2620 675 
Q 2931 909 2931 1356 
Q 2931 1769 2642 2001 
Q 2353 2234 1838 2234 
L 1294 2234 
L 1294 2753 
L 1863 2753 
Q 2328 2753 2575 2939 
Q 2822 3125 2822 3475 
Q 2822 3834 2567 4026 
Q 2313 4219 1838 4219 
Q 1578 4219 1281 4162 
Q 984 4106 628 3988 
L 628 4550 
Q 988 4650 1302 4700 
Q 1616 4750 1894 4750 
Q 2613 4750 3031 4423 
Q 3450 4097 3450 3541 
Q 3450 3153 3228 2886 
Q 3006 2619 2597 2516 
z
" transform="scale(0.015625)"/>
       </defs>
       <use xlink:href="#DejaVuSans-33"/>
      </g>
     </g>
    </g>
    <g id="ytick_5">
     <g id="line2d_29">
      <path d="M 51.05 61.061557 
L 483.318832 61.061557 
" clip-path="url(#pb77b6bb04c)" style="fill: none; stroke: #b0b0b0; stroke-width: 0.8; stroke-linecap: square"/>
     </g>
     <g id="line2d_30">
      <g>
       <use xlink:href="#m77760cf47b" x="51.05" y="61.061557" style="stroke: #000000; stroke-width: 0.8"/>
      </g>
     </g>
     <g id="text_5">
      <!-- 4 -->
      <g transform="translate(37.6875 64.860776) scale(0.1 -0.1)">
       <defs>
        <path id="DejaVuSans-34" d="M 2419 4116 
L 825 1625 
L 2419 1625 
L 2419 4116 
z
M 2253 4666 
L 3047 4666 
L 3047 1625 
L 3713 1625 
L 3713 1100 
L 3047 1100 
L 3047 0 
L 2419 0 
L 2419 1100 
L 313 1100 
L 313 1709 
L 2253 4666 
z
" transform="scale(0.015625)"/>
       </defs>
       <use xlink:href="#DejaVuSans-34"/>
      </g>
     </g>
    </g>
    <g id="ytick_6">
     <g id="line2d_31">
      <path d="M 51.05 38.132311 
L 483.318832 38.132311 
" clip-path="url(#pb77b6bb04c)" style="fill: none; stroke: #b0b0b0; stroke-width: 0.8; stroke-linecap: square"/>
     </g>
     <g id="line2d_32">
      <g>
       <use xlink:href="#m77760cf47b" x="51.05" y="38.132311" style="stroke: #000000; stroke-width: 0.8"/>
      </g>
     </g>
     <g id="text_6">
      <!-- 5 -->
      <g transform="translate(37.6875 41.93153) scale(0.1 -0.1)">
       <defs>
        <path id="DejaVuSans-35" d="M 691 4666 
L 3169 4666 
L 3169 4134 
L 1269 4134 
L 1269 2991 
Q 1406 3038 1543 3061 
Q 1681 3084 1819 3084 
Q 2600 3084 3056 2656 
Q 3513 2228 3513 1497 
Q 3513 744 3044 326 
Q 2575 -91 1722 -91 
Q 1428 -91 1123 -41 
Q 819 9 494 109 
L 494 744 
Q 775 591 1075 516 
Q 1375 441 1709 441 
Q 2250 441 2565 725 
Q 2881 1009 2881 1497 
Q 2881 1984 2565 2268 
Q 2250 2553 1709 2553 
Q 1456 2553 1204 2497 
Q 953 2441 691 2322 
L 691 4666 
z
" transform="scale(0.015625)"/>
       </defs>
       <use xlink:href="#DejaVuSans-35"/>
      </g>
     </g>
    </g>
    <g id="text_7">
     <!-- Temperature [°C] -->
     <g transform="translate(31.607813 138.606989) rotate(-90) scale(0.1 -0.1)">
      <defs>
       <path id="DejaVuSans-54" d="M -19 4666 
L 3928 4666 
L 3928 4134 
L 2272 4134 
L 2272 0 
L 1638 0 
L 1638 4134 
L -19 4134 
L -19 4666 
z
" transform="scale(0.015625)"/>
       <path id="DejaVuSans-65" d="M 3597 1894 
L 3597 1613 
L 953 1613 
Q 991 1019 1311 708 
Q 1631 397 2203 397 
Q 2534 397 2845 478 
Q 3156 559 3463 722 
L 3463 178 
Q 3153 47 2828 -22 
Q 2503 -91 2169 -91 
Q 1331 -91 842 396 
Q 353 884 353 1716 
Q 353 2575 817 3079 
Q 1281 3584 2069 3584 
Q 2775 3584 3186 3129 
Q 3597 2675 3597 1894 
z
M 3022 2063 
Q 3016 2534 2758 2815 
Q 2500 3097 2075 3097 
Q 1594 3097 1305 2825 
Q 1016 2553 972 2059 
L 3022 2063 
z
" transform="scale(0.015625)"/>
       <path id="DejaVuSans-6d" d="M 3328 2828 
Q 3544 3216 3844 3400 
Q 4144 3584 4550 3584 
Q 5097 3584 5394 3201 
Q 5691 2819 5691 2113 
L 5691 0 
L 5113 0 
L 5113 2094 
Q 5113 2597 4934 2840 
Q 4756 3084 4391 3084 
Q 3944 3084 3684 2787 
Q 3425 2491 3425 1978 
L 3425 0 
L 2847 0 
L 2847 2094 
Q 2847 2600 2669 2842 
Q 2491 3084 2119 3084 
Q 1678 3084 1418 2786 
Q 1159 2488 1159 1978 
L 1159 0 
L 581 0 
L 581 3500 
L 1159 3500 
L 1159 2956 
Q 1356 3278 1631 3431 
Q 1906 3584 2284 3584 
Q 2666 3584 2933 3390 
Q 3200 3197 3328 2828 
z
" transform="scale(0.015625)"/>
       <path id="DejaVuSans-70" d="M 1159 525 
L 1159 -1331 
L 581 -1331 
L 581 3500 
L 1159 3500 
L 1159 2969 
Q 1341 3281 1617 3432 
Q 1894 3584 2278 3584 
Q 2916 3584 3314 3078 
Q 3713 2572 3713 1747 
Q 3713 922 3314 415 
Q 2916 -91 2278 -91 
Q 1894 -91 1617 61 
Q 1341 213 1159 525 
z
M 3116 1747 
Q 3116 2381 2855 2742 
Q 2594 3103 2138 3103 
Q 1681 3103 1420 2742 
Q 1159 2381 1159 1747 
Q 1159 1113 1420 752 
Q 1681 391 2138 391 
Q 2594 391 2855 752 
Q 3116 1113 3116 1747 
z
" transform="scale(0.015625)"/>
       <path id="DejaVuSans-72" d="M 2631 2963 
Q 2534 3019 2420 3045 
Q 2306 3072 2169 3072 
Q 1681 3072 1420 2755 
Q 1159 2438 1159 1844 
L 1159 0 
L 581 0 
L 581 3500 
L 1159 3500 
L 1159 2956 
Q 1341 3275 1631 3429 
Q 1922 3584 2338 3584 
Q 2397 3584 2469 3576 
Q 2541 3569 2628 3553 
L 2631 2963 
z
" transform="scale(0.015625)"/>
       <path id="DejaVuSans-61" d="M 2194 1759 
Q 1497 1759 1228 1600 
Q 959 1441 959 1056 
Q 959 750 1161 570 
Q 1363 391 1709 391 
Q 2188 391 2477 730 
Q 2766 1069 2766 1631 
L 2766 1759 
L 2194 1759 
z
M 3341 1997 
L 3341 0 
L 2766 0 
L 2766 531 
Q 2569 213 2275 61 
Q 1981 -91 1556 -91 
Q 1019 -91 701 211 
Q 384 513 384 1019 
Q 384 1609 779 1909 
Q 1175 2209 1959 2209 
L 2766 2209 
L 2766 2266 
Q 2766 2663 2505 2880 
Q 2244 3097 1772 3097 
Q 1472 3097 1187 3025 
Q 903 2953 641 2809 
L 641 3341 
Q 956 3463 1253 3523 
Q 1550 3584 1831 3584 
Q 2591 3584 2966 3190 
Q 3341 2797 3341 1997 
z
" transform="scale(0.015625)"/>
       <path id="DejaVuSans-74" d="M 1172 4494 
L 1172 3500 
L 2356 3500 
L 2356 3053 
L 1172 3053 
L 1172 1153 
Q 1172 725 1289 603 
Q 1406 481 1766 481 
L 2356 481 
L 2356 0 
L 1766 0 
Q 1100 0 847 248 
Q 594 497 594 1153 
L 594 3053 
L 172 3053 
L 172 3500 
L 594 3500 
L 594 4494 
L 1172 4494 
z
" transform="scale(0.015625)"/>
       <path id="DejaVuSans-75" d="M 544 1381 
L 544 3500 
L 1119 3500 
L 1119 1403 
Q 1119 906 1312 657 
Q 1506 409 1894 409 
Q 2359 409 2629 706 
Q 2900 1003 2900 1516 
L 2900 3500 
L 3475 3500 
L 3475 0 
L 2900 0 
L 2900 538 
Q 2691 219 2414 64 
Q 2138 -91 1772 -91 
Q 1169 -91 856 284 
Q 544 659 544 1381 
z
M 1991 3584 
L 1991 3584 
z
" transform="scale(0.015625)"/>
       <path id="DejaVuSans-20" transform="scale(0.015625)"/>
       <path id="DejaVuSans-5b" d="M 550 4863 
L 1875 4863 
L 1875 4416 
L 1125 4416 
L 1125 -397 
L 1875 -397 
L 1875 -844 
L 550 -844 
L 550 4863 
z
" transform="scale(0.015625)"/>
       <path id="DejaVuSans-b0" d="M 1600 4347 
Q 1350 4347 1178 4173 
Q 1006 4000 1006 3750 
Q 1006 3503 1178 3333 
Q 1350 3163 1600 3163 
Q 1850 3163 2022 3333 
Q 2194 3503 2194 3750 
Q 2194 3997 2020 4172 
Q 1847 4347 1600 4347 
z
M 1600 4750 
Q 1800 4750 1984 4673 
Q 2169 4597 2303 4453 
Q 2447 4313 2519 4134 
Q 2591 3956 2591 3750 
Q 2591 3338 2302 3052 
Q 2013 2766 1594 2766 
Q 1172 2766 890 3047 
Q 609 3328 609 3750 
Q 609 4169 896 4459 
Q 1184 4750 1600 4750 
z
" transform="scale(0.015625)"/>
       <path id="DejaVuSans-43" d="M 4122 4306 
L 4122 3641 
Q 3803 3938 3442 4084 
Q 3081 4231 2675 4231 
Q 1875 4231 1450 3742 
Q 1025 3253 1025 2328 
Q 1025 1406 1450 917 
Q 1875 428 2675 428 
Q 3081 428 3442 575 
Q 3803 722 4122 1019 
L 4122 359 
Q 3791 134 3420 21 
Q 3050 -91 2638 -91 
Q 1578 -91 968 557 
Q 359 1206 359 2328 
Q 359 3453 968 4101 
Q 1578 4750 2638 4750 
Q 3056 4750 3426 4639 
Q 3797 4528 4122 4306 
z
" transform="scale(0.015625)"/>
       <path id="DejaVuSans-5d" d="M 1947 4863 
L 1947 -844 
L 622 -844 
L 622 -397 
L 1369 -397 
L 1369 4416 
L 622 4416 
L 622 4863 
L 1947 4863 
z
" transform="scale(0.015625)"/>
      </defs>
      <use xlink:href="#DejaVuSans-54"/>
      <use xlink:href="#DejaVuSans-65" x="44.083984"/>
      <use xlink:href="#DejaVuSans-6d" x="105.607422"/>
      <use xlink:href="#DejaVuSans-70" x="203.019531"/>
      <use xlink:href="#DejaVuSans-65" x="266.496094"/>
      <use xlink:href="#DejaVuSans-72" x="328.019531"/>
      <use xlink:href="#DejaVuSans-61" x="369.132812"/>
      <use xlink:href="#DejaVuSans-74" x="430.412109"/>
      <use xlink:href="#DejaVuSans-75" x="469.621094"/>
      <use xlink:href="#DejaVuSans-72" x="533"/>
      <use xlink:href="#DejaVuSans-65" x="571.863281"/>
      <use xlink:href="#DejaVuSans-20" x="633.386719"/>
      <use xlink:href="#DejaVuSans-5b" x="665.173828"/>
      <use xlink:href="#DejaVuSans-b0" x="704.1875"/>
      <use xlink:href="#DejaVuSans-43" x="754.1875"/>
      <use xlink:href="#DejaVuSans-5d" x="824.011719"/>
     </g>
    </g>
   </g>
   <g id="line2d_33">
    <path d="M 51.05 143.606843 
L 52.033605 143.606843 
L 52.174546 141.313918 
L 53.861499 141.313918 
L 54.00164 139.020994 
L 54.704628 139.020994 
L 54.845101 136.728069 
L 55.969714 136.728069 
L 56.110857 139.020994 
L 57.375469 139.020994 
L 57.516499 141.313918 
L 63.279654 141.313918 
L 63.420619 139.020994 
L 67.215757 139.020994 
L 67.356707 136.728069 
L 70.027282 136.728069 
L 70.30942 134.435145 
L 71.292812 134.435145 
L 71.433021 132.14222 
L 73.120889 132.14222 
L 73.260625 134.435145 
L 75.229139 134.435145 
L 75.369165 136.728069 
L 75.651345 136.728069 
L 75.931471 139.020994 
L 81.695467 139.020994 
L 81.835647 136.728069 
L 83.241415 136.728069 
L 83.382428 134.435145 
L 89.98899 134.435145 
L 90.129896 132.14222 
L 91.816617 132.14222 
L 91.957056 129.849295 
L 93.362812 129.849295 
L 93.503926 127.556371 
L 94.065872 127.556371 
L 94.628265 125.263446 
L 94.768549 125.263446 
L 94.909465 127.556371 
L 96.034023 127.556371 
L 96.174311 129.849295 
L 96.315221 127.556371 
L 97.158572 127.556371 
L 97.298906 129.849295 
L 102.781512 129.849295 
L 102.921893 127.556371 
L 108.404999 127.556371 
L 108.544903 125.263446 
L 109.669509 125.263446 
L 109.810761 122.970522 
L 110.232729 122.970522 
L 110.372569 120.677597 
L 114.308884 120.677597 
L 114.449058 118.384672 
L 115.152251 118.384672 
L 115.292504 116.091748 
L 117.120293 116.091748 
L 117.260558 113.798823 
L 118.526042 113.798823 
L 118.666309 111.505899 
L 118.807245 111.505899 
L 118.947448 109.212974 
L 119.509754 109.212974 
L 119.650602 111.505899 
L 120.213226 111.505899 
L 120.353199 109.212974 
L 120.494083 109.212974 
L 120.635311 111.505899 
L 122.040102 111.505899 
L 122.18105 109.212974 
L 122.602407 109.212974 
L 122.743324 111.505899 
L 123.164716 111.505899 
L 123.447181 113.798823 
L 124.008155 113.798823 
L 124.1492 116.091748 
L 125.132781 116.091748 
L 125.273757 118.384672 
L 127.381959 118.384672 
L 127.523003 120.677597 
L 129.490932 120.677597 
L 129.631167 118.384672 
L 130.193463 118.384672 
L 130.334411 120.677597 
L 130.615608 120.677597 
L 130.755764 118.384672 
L 136.800567 118.384672 
L 136.94107 116.091748 
L 138.487767 116.091748 
L 138.627965 113.798823 
L 140.877171 113.798823 
L 141.018193 111.505899 
L 141.299279 111.505899 
L 141.439485 109.212974 
L 141.720635 109.212974 
L 142.00267 106.920049 
L 142.282931 106.920049 
L 142.423952 104.627125 
L 142.705038 104.627125 
L 142.845229 102.3342 
L 143.688675 102.3342 
L 143.829598 100.041276 
L 144.533117 100.041276 
L 144.813278 102.3342 
L 145.656726 102.3342 
L 145.797641 104.627125 
L 146.500174 104.627125 
L 146.641231 106.920049 
L 147.062491 106.920049 
L 147.343583 104.627125 
L 150.577189 104.627125 
L 150.717423 102.3342 
L 153.107646 102.3342 
L 153.247774 100.041276 
L 153.669929 100.041276 
L 153.810094 97.748351 
L 155.919172 97.748351 
L 156.05929 95.455426 
L 156.200252 97.748351 
L 157.043733 97.748351 
L 157.183896 95.455426 
L 157.324937 95.455426 
L 157.465058 97.748351 
L 157.606021 95.455426 
L 159.011775 95.455426 
L 159.151938 97.748351 
L 159.573936 97.748351 
L 159.714257 95.455426 
L 161.542324 95.455426 
L 161.682299 93.162502 
L 162.104602 93.162502 
L 162.244593 90.869577 
L 163.228573 90.869577 
L 163.369191 88.576653 
L 163.931502 88.576653 
L 164.072527 86.283728 
L 164.493782 86.283728 
L 164.774939 83.990803 
L 164.916006 83.990803 
L 165.056093 86.283728 
L 165.197087 83.990803 
L 165.618382 83.990803 
L 165.899551 86.283728 
L 166.180675 86.283728 
L 166.321537 83.990803 
L 168.711053 83.990803 
L 168.852097 81.697879 
L 169.414254 81.697879 
L 169.554493 79.404954 
L 170.538936 79.404954 
L 170.820131 77.11203 
L 172.084832 77.11203 
L 172.2259 79.404954 
L 172.647143 79.404954 
L 172.788177 81.697879 
L 173.069261 81.697879 
L 173.209436 83.990803 
L 173.490583 83.990803 
L 173.772777 86.283728 
L 173.912497 88.576653 
L 174.193946 88.576653 
L 174.334021 90.869577 
L 174.47503 90.869577 
L 174.756224 95.455426 
L 174.896331 95.455426 
L 175.037421 97.748351 
L 175.45864 97.748351 
L 175.599815 100.041276 
L 176.303099 100.041276 
L 176.864398 97.748351 
L 177.707838 97.748351 
L 177.848822 95.455426 
L 178.411333 95.455426 
L 178.55129 93.162502 
L 178.832426 93.162502 
L 179.113562 95.455426 
L 180.098061 95.455426 
L 180.238186 93.162502 
L 181.925078 93.162502 
L 182.066096 90.869577 
L 185.017728 90.869577 
L 185.158698 88.576653 
L 185.861171 88.576653 
L 186.002291 86.283728 
L 187.408045 86.283728 
L 187.548076 83.990803 
L 188.672671 83.990803 
L 188.813164 81.697879 
L 191.063047 81.697879 
L 191.203028 79.404954 
L 192.328841 79.404954 
L 192.468444 77.11203 
L 193.171084 77.11203 
L 193.312052 74.819105 
L 193.593251 74.819105 
L 193.733391 72.52618 
L 194.15553 72.52618 
L 194.295679 74.819105 
L 194.436726 74.819105 
L 194.576843 77.11203 
L 194.99854 77.11203 
L 195.139131 79.404954 
L 195.280209 77.11203 
L 195.420291 79.404954 
L 196.123581 79.404954 
L 197.107189 95.455426 
L 199.497265 95.455426 
L 199.637538 93.162502 
L 201.886729 93.162502 
L 202.027804 90.869577 
L 202.167879 90.869577 
L 202.308884 93.162502 
L 205.120405 93.162502 
L 205.260531 95.455426 
L 211.02442 95.455426 
L 211.164675 93.162502 
L 213.132728 93.162502 
L 213.4149 90.869577 
L 215.945336 90.869577 
L 216.366374 88.576653 
L 218.89646 88.576653 
L 219.178029 86.283728 
L 223.8164 86.283728 
L 224.097538 83.990803 
L 226.346752 83.990803 
L 226.628922 81.697879 
L 228.033659 81.697879 
L 228.174648 79.404954 
L 229.720555 79.404954 
L 229.861487 77.11203 
L 231.40745 77.11203 
L 231.548324 74.819105 
L 232.392034 74.819105 
L 232.53205 77.11203 
L 232.672892 77.11203 
L 232.813201 74.819105 
L 233.797571 74.819105 
L 233.937798 72.52618 
L 234.359852 72.52618 
L 234.501083 70.233256 
L 234.922133 70.233256 
L 235.062371 67.940331 
L 237.030434 67.940331 
L 237.311547 65.647407 
L 238.858546 65.647407 
L 238.998469 63.354482 
L 239.139519 63.354482 
L 239.279622 61.061557 
L 240.404217 61.061557 
L 240.545395 58.768633 
L 242.231883 58.768633 
L 242.373116 56.475708 
L 243.356558 56.475708 
L 243.496882 54.182784 
L 244.340319 54.182784 
L 244.48112 51.889859 
L 244.762312 51.889859 
L 244.902615 49.596934 
L 245.324452 49.596934 
L 245.464925 47.30401 
L 246.730352 47.30401 
L 247.011543 45.011085 
L 248.417305 45.011085 
L 248.557549 47.30401 
L 250.666408 47.30401 
L 250.806749 45.011085 
L 251.087891 45.011085 
L 251.228832 47.30401 
L 251.791116 47.30401 
L 251.931334 45.011085 
L 252.493638 45.011085 
L 252.634597 42.718161 
L 254.742841 42.718161 
L 254.883724 40.425236 
L 255.164921 40.425236 
L 255.305145 38.132311 
L 255.446105 40.425236 
L 256.008377 40.425236 
L 256.148586 42.718161 
L 256.570676 42.718161 
L 256.710873 45.011085 
L 256.851871 42.718161 
L 257.414052 42.718161 
L 257.554337 40.425236 
L 259.663287 40.425236 
L 259.803516 38.132311 
L 260.084664 38.132311 
L 260.225562 40.425236 
L 268.097826 40.425236 
L 268.237997 42.718161 
L 268.801563 42.718161 
L 269.081441 40.425236 
L 270.90945 40.425236 
L 271.049487 42.718161 
L 272.87715 42.718161 
L 273.0175 45.011085 
L 275.126491 45.011085 
L 275.266732 42.718161 
L 275.829019 42.718161 
L 275.969963 45.011085 
L 278.35934 45.011085 
L 278.500167 42.718161 
L 279.62447 42.718161 
L 279.765096 45.011085 
L 280.18701 45.011085 
L 280.327398 47.30401 
L 280.608543 47.30401 
L 280.749404 49.596934 
L 281.311589 49.596934 
L 281.451985 51.889859 
L 282.295444 51.889859 
L 282.436332 54.182784 
L 283.420041 54.182784 
L 283.560813 56.475708 
L 284.123205 56.475708 
L 284.26349 58.768633 
L 286.231528 58.768633 
L 286.372781 61.061557 
L 288.199583 61.061557 
L 288.340487 58.768633 
L 293.541411 58.768633 
L 293.682308 56.475708 
L 294.103704 56.475708 
L 294.244601 54.182784 
L 295.228292 54.182784 
L 295.509446 56.475708 
L 296.071759 56.475708 
L 296.212646 54.182784 
L 299.164402 54.182784 
L 299.305367 56.475708 
L 302.25705 56.475708 
L 302.397974 54.182784 
L 306.193137 54.182784 
L 306.334064 56.475708 
L 306.896357 56.475708 
L 307.036582 58.768633 
L 308.021008 58.768633 
L 308.161169 56.475708 
L 311.816101 56.475708 
L 311.95696 58.768633 
L 313.221846 58.768633 
L 313.362721 61.061557 
L 318.282552 61.061557 
L 318.423371 63.354482 
L 321.656342 63.354482 
L 321.937449 65.647407 
L 324.748997 65.647407 
L 324.889858 67.940331 
L 326.717057 67.940331 
L 326.858154 65.647407 
L 328.122813 65.647407 
L 328.263573 67.940331 
L 330.794121 67.940331 
L 330.9343 70.233256 
L 331.215454 70.233256 
L 331.356402 72.52618 
L 333.887056 72.52618 
L 334.026935 74.819105 
L 334.448994 74.819105 
L 334.589233 77.11203 
L 335.432695 77.11203 
L 335.573558 74.819105 
L 335.854757 74.819105 
L 335.994987 77.11203 
L 336.276158 77.11203 
L 336.417041 79.404954 
L 337.119585 79.404954 
L 337.260403 81.697879 
L 337.68272 81.697879 
L 337.822435 83.990803 
L 338.525351 83.990803 
L 338.66616 86.283728 
L 338.94735 86.283728 
L 339.087649 88.576653 
L 339.790827 88.576653 
L 339.931078 90.869577 
L 340.212243 90.869577 
L 340.4934 93.162502 
L 340.634191 95.455426 
L 340.915615 95.455426 
L 341.055693 97.748351 
L 341.477782 97.748351 
L 341.617974 100.041276 
L 341.899136 100.041276 
L 342.040292 102.3342 
L 342.461432 102.3342 
L 342.602452 104.627125 
L 342.742582 104.627125 
L 343.02489 106.920049 
L 344.429492 106.920049 
L 344.570366 109.212974 
L 345.13253 109.212974 
L 345.272944 111.505899 
L 345.835245 111.505899 
L 345.976116 113.798823 
L 346.678689 113.798823 
L 346.819815 116.091748 
L 347.240979 116.091748 
L 347.381876 118.384672 
L 347.803283 118.384672 
L 347.944154 120.677597 
L 348.084437 118.384672 
L 348.366583 120.677597 
L 350.897114 120.677597 
L 351.177092 118.384672 
L 351.599026 118.384672 
L 351.739397 116.091748 
L 353.42631 116.091748 
L 353.708749 113.798823 
L 354.269753 113.798823 
L 354.410541 111.505899 
L 354.69173 111.505899 
L 354.832046 109.212974 
L 355.113211 109.212974 
L 355.254351 106.920049 
L 355.394347 106.920049 
L 355.535434 104.627125 
L 356.660095 104.627125 
L 356.8001 102.3342 
L 358.205856 102.3342 
L 358.346838 100.041276 
L 358.768155 100.041276 
L 359.0493 102.3342 
L 359.471523 102.3342 
L 359.611604 104.627125 
L 360.173905 104.627125 
L 360.314878 106.920049 
L 362.001832 106.920049 
L 362.141947 109.212974 
L 364.953457 109.212974 
L 365.094535 106.920049 
L 366.640364 106.920049 
L 366.922607 104.627125 
L 368.327259 104.627125 
L 368.468332 106.920049 
L 369.873977 106.920049 
L 370.014169 109.212974 
L 371.419905 109.212974 
L 371.560717 111.505899 
L 371.701053 109.212974 
L 372.263287 109.212974 
L 372.404173 106.920049 
L 374.091376 106.920049 
L 374.231406 109.212974 
L 374.372576 106.920049 
L 377.746123 106.920049 
L 377.886353 104.627125 
L 378.308653 104.627125 
L 378.448655 102.3342 
L 378.589848 104.627125 
L 379.010959 104.627125 
L 379.151788 106.920049 
L 379.573253 106.920049 
L 379.714288 109.212974 
L 380.276214 109.212974 
L 380.416713 111.505899 
L 381.260159 111.505899 
L 381.401144 109.212974 
L 381.96353 109.212974 
L 382.103617 111.505899 
L 383.088083 111.505899 
L 383.228208 109.212974 
L 383.369175 109.212974 
L 383.509362 106.920049 
L 385.758552 106.920049 
L 385.899619 109.212974 
L 386.180808 109.212974 
L 386.320871 111.505899 
L 386.743205 111.505899 
L 386.883163 113.798823 
L 388.148257 113.798823 
L 388.288921 116.091748 
L 389.132384 116.091748 
L 389.273412 118.384672 
L 390.538119 118.384672 
L 390.81924 120.677597 
L 392.365791 120.677597 
L 392.506163 122.970522 
L 395.598822 122.970522 
L 395.739699 120.677597 
L 397.145684 120.677597 
L 397.285721 118.384672 
L 399.113424 118.384672 
L 399.394706 116.091748 
L 401.502981 116.091748 
L 401.644042 113.798823 
L 402.065286 113.798823 
L 402.206233 116.091748 
L 402.768506 116.091748 
L 402.908736 113.798823 
L 404.174134 113.798823 
L 404.314493 111.505899 
L 405.157936 111.505899 
L 405.43909 109.212974 
L 406.423621 109.212974 
L 406.564631 106.920049 
L 409.09405 106.920049 
L 409.37519 104.627125 
L 410.780933 104.627125 
L 410.92186 102.3342 
L 412.74897 102.3342 
L 413.030126 106.920049 
L 413.17122 106.920049 
L 413.311277 109.212974 
L 414.4369 109.212974 
L 414.717032 111.505899 
L 415.701664 111.505899 
L 415.84163 109.212974 
L 416.826007 109.212974 
L 416.966239 106.920049 
L 417.809691 106.920049 
L 417.950678 104.627125 
L 418.513074 104.627125 
L 418.653143 102.3342 
L 421.605676 102.3342 
L 421.745795 100.041276 
L 422.730107 100.041276 
L 422.870393 97.748351 
L 423.292415 97.748351 
L 423.4327 95.455426 
L 428.35329 95.455426 
L 428.493408 93.162502 
L 430.883624 93.162502 
L 431.023747 95.455426 
L 431.867188 95.455426 
L 432.008183 97.748351 
L 433.554088 97.748351 
L 433.695153 100.041276 
L 434.116393 100.041276 
L 434.257425 102.3342 
L 435.522152 102.3342 
L 435.803244 100.041276 
L 436.787639 100.041276 
L 436.927902 97.748351 
L 437.20905 97.748351 
L 437.350032 95.455426 
L 437.631221 95.455426 
L 437.771348 97.748351 
L 438.193508 97.748351 
L 438.334745 95.455426 
L 438.895959 95.455426 
L 439.036865 93.162502 
L 442.832049 93.162502 
L 442.972941 95.455426 
L 443.816168 95.455426 
L 444.097614 100.041276 
L 444.237791 100.041276 
L 444.378694 102.3342 
L 444.518941 102.3342 
L 444.660006 104.627125 
L 445.081252 104.627125 
L 445.22229 106.920049 
L 446.20677 106.920049 
L 446.487001 104.627125 
L 446.90902 104.627125 
L 447.050251 106.920049 
L 447.752607 106.920049 
L 447.89372 104.627125 
L 448.7369 104.627125 
L 449.018283 102.3342 
L 449.58056 102.3342 
L 449.720644 100.041276 
L 451.126304 100.041276 
L 451.266548 102.3342 
L 452.392191 102.3342 
L 452.673276 100.041276 
L 454.359179 100.041276 
L 454.922222 97.748351 
L 455.202646 100.041276 
L 456.327826 100.041276 
L 456.608394 97.748351 
L 458.576461 97.748351 
L 459.139679 95.455426 
L 459.982725 95.455426 
L 460.263351 97.748351 
L 460.825656 100.041276 
L 461.106798 100.041276 
L 461.247681 97.748351 
L 461.387955 97.748351 
L 461.950239 100.041276 
L 462.793694 102.3342 
L 463.215614 102.3342 
L 463.497134 104.627125 
L 463.919466 104.627125 
L 464.199449 106.920049 
L 465.324055 106.920049 
L 465.465087 109.212974 
L 465.886359 109.212974 
L 466.027482 111.505899 
L 468.41783 111.505899 
L 468.697859 113.798823 
L 470.384772 113.798823 
L 470.666742 116.091748 
L 470.807166 116.091748 
L 470.947059 118.384672 
L 471.228218 118.384672 
L 471.369333 120.677597 
L 471.509375 120.677597 
L 471.649962 122.970522 
L 471.791651 122.970522 
L 472.071686 125.263446 
L 472.212812 125.263446 
L 472.353925 127.556371 
L 472.635132 127.556371 
L 472.915123 129.849295 
L 475.024232 129.849295 
L 475.164851 132.14222 
L 475.726634 136.728069 
L 475.867602 136.728069 
L 476.007779 139.020994 
L 476.148623 139.020994 
L 476.288915 141.313918 
L 476.570086 141.313918 
L 476.710966 139.020994 
L 477.554448 139.020994 
L 477.694666 136.728069 
L 479.241408 136.728069 
L 479.381593 139.020994 
L 479.522377 139.020994 
L 479.662744 141.313918 
L 480.084996 141.313918 
L 480.225046 143.606843 
L 480.36631 143.606843 
L 480.788164 148.192692 
L 481.630807 148.192692 
L 481.771728 150.485617 
L 483.036568 150.485617 
L 483.318832 152.778541 
L 483.318832 152.778541 
" clip-path="url(#pb77b6bb04c)" style="fill: none; stroke: #1f77b4; stroke-width: 1.5; stroke-linecap: square"/>
   </g>
   <g id="patch_3">
    <path d="M 51.05 158.510853 
L 51.05 32.4 
" style="fill: none; stroke: #000000; stroke-width: 0.8; stroke-linejoin: miter; stroke-linecap: square"/>
   </g>
   <g id="patch_4">
    <path d="M 483.318832 158.510853 
L 483.318832 32.4 
" style="fill: none; stroke: #000000; stroke-width: 0.8; stroke-linejoin: miter; stroke-linecap: square"/>
   </g>
   <g id="patch_5">
    <path d="M 51.05 158.510853 
L 483.318832 158.510853 
" style="fill: none; stroke: #000000; stroke-width: 0.8; stroke-linejoin: miter; stroke-linecap: square"/>
   </g>
   <g id="patch_6">
    <path d="M 51.05 32.4 
L 483.318832 32.4 
" style="fill: none; stroke: #000000; stroke-width: 0.8; stroke-linejoin: miter; stroke-linecap: square"/>
   </g>
  </g>
  <g id="axes_2">
   <g id="patch_7">
    <path d="M 51.05 302.881706 
L 483.318832 302.881706 
L 483.318832 176.770853 
L 51.05 176.770853 
z
" style="fill: #ffffff"/>
   </g>
   <g id="matplotlib.axis_3">
    <g id="xtick_11">
     <g id="line2d_34">
      <path d="M 93.14811 302.881706 
L 93.14811 176.770853 
" clip-path="url(#pb1ae0de4c4)" style="fill: none; stroke: #b0b0b0; stroke-width: 0.8; stroke-linecap: square"/>
     </g>
     <g id="line2d_35">
      <g>
       <use xlink:href="#m3ab17978b0" x="93.14811" y="302.881706" style="stroke: #000000; stroke-width: 0.8"/>
      </g>
     </g>
    </g>
    <g id="xtick_12">
     <g id="line2d_36">
      <path d="M 135.320871 302.881706 
L 135.320871 176.770853 
" clip-path="url(#pb1ae0de4c4)" style="fill: none; stroke: #b0b0b0; stroke-width: 0.8; stroke-linecap: square"/>
     </g>
     <g id="line2d_37">
      <g>
       <use xlink:href="#m3ab17978b0" x="135.320871" y="302.881706" style="stroke: #000000; stroke-width: 0.8"/>
      </g>
     </g>
    </g>
    <g id="xtick_13">
     <g id="line2d_38">
      <path d="M 177.493631 302.881706 
L 177.493631 176.770853 
" clip-path="url(#pb1ae0de4c4)" style="fill: none; stroke: #b0b0b0; stroke-width: 0.8; stroke-linecap: square"/>
     </g>
     <g id="line2d_39">
      <g>
       <use xlink:href="#m3ab17978b0" x="177.493631" y="302.881706" style="stroke: #000000; stroke-width: 0.8"/>
      </g>
     </g>
    </g>
    <g id="xtick_14">
     <g id="line2d_40">
      <path d="M 219.666392 302.881706 
L 219.666392 176.770853 
" clip-path="url(#pb1ae0de4c4)" style="fill: none; stroke: #b0b0b0; stroke-width: 0.8; stroke-linecap: square"/>
     </g>
     <g id="line2d_41">
      <g>
       <use xlink:href="#m3ab17978b0" x="219.666392" y="302.881706" style="stroke: #000000; stroke-width: 0.8"/>
      </g>
     </g>
    </g>
    <g id="xtick_15">
     <g id="line2d_42">
      <path d="M 261.839152 302.881706 
L 261.839152 176.770853 
" clip-path="url(#pb1ae0de4c4)" style="fill: none; stroke: #b0b0b0; stroke-width: 0.8; stroke-linecap: square"/>
     </g>
     <g id="line2d_43">
      <g>
       <use xlink:href="#m3ab17978b0" x="261.839152" y="302.881706" style="stroke: #000000; stroke-width: 0.8"/>
      </g>
     </g>
    </g>
    <g id="xtick_16">
     <g id="line2d_44">
      <path d="M 304.011913 302.881706 
L 304.011913 176.770853 
" clip-path="url(#pb1ae0de4c4)" style="fill: none; stroke: #b0b0b0; stroke-width: 0.8; stroke-linecap: square"/>
     </g>
     <g id="line2d_45">
      <g>
       <use xlink:href="#m3ab17978b0" x="304.011913" y="302.881706" style="stroke: #000000; stroke-width: 0.8"/>
      </g>
     </g>
    </g>
    <g id="xtick_17">
     <g id="line2d_46">
      <path d="M 346.184673 302.881706 
L 346.184673 176.770853 
" clip-path="url(#pb1ae0de4c4)" style="fill: none; stroke: #b0b0b0; stroke-width: 0.8; stroke-linecap: square"/>
     </g>
     <g id="line2d_47">
      <g>
       <use xlink:href="#m3ab17978b0" x="346.184673" y="302.881706" style="stroke: #000000; stroke-width: 0.8"/>
      </g>
     </g>
    </g>
    <g id="xtick_18">
     <g id="line2d_48">
      <path d="M 388.357434 302.881706 
L 388.357434 176.770853 
" clip-path="url(#pb1ae0de4c4)" style="fill: none; stroke: #b0b0b0; stroke-width: 0.8; stroke-linecap: square"/>
     </g>
     <g id="line2d_49">
      <g>
       <use xlink:href="#m3ab17978b0" x="388.357434" y="302.881706" style="stroke: #000000; stroke-width: 0.8"/>
      </g>
     </g>
    </g>
    <g id="xtick_19">
     <g id="line2d_50">
      <path d="M 430.530194 302.881706 
L 430.530194 176.770853 
" clip-path="url(#pb1ae0de4c4)" style="fill: none; stroke: #b0b0b0; stroke-width: 0.8; stroke-linecap: square"/>
     </g>
     <g id="line2d_51">
      <g>
       <use xlink:href="#m3ab17978b0" x="430.530194" y="302.881706" style="stroke: #000000; stroke-width: 0.8"/>
      </g>
     </g>
    </g>
    <g id="xtick_20">
     <g id="line2d_52">
      <path d="M 472.702955 302.881706 
L 472.702955 176.770853 
" clip-path="url(#pb1ae0de4c4)" style="fill: none; stroke: #b0b0b0; stroke-width: 0.8; stroke-linecap: square"/>
     </g>
     <g id="line2d_53">
      <g>
       <use xlink:href="#m3ab17978b0" x="472.702955" y="302.881706" style="stroke: #000000; stroke-width: 0.8"/>
      </g>
     </g>
    </g>
   </g>
   <g id="matplotlib.axis_4">
    <g id="ytick_7">
     <g id="line2d_54">
      <path d="M 51.05 302.881706 
L 483.318832 302.881706 
" clip-path="url(#pb1ae0de4c4)" style="fill: none; stroke: #b0b0b0; stroke-width: 0.8; stroke-linecap: square"/>
     </g>
     <g id="line2d_55">
      <g>
       <use xlink:href="#m77760cf47b" x="51.05" y="302.881706" style="stroke: #000000; stroke-width: 0.8"/>
      </g>
     </g>
     <g id="text_8">
      <!-- 0 -->
      <g transform="translate(37.6875 306.680924) scale(0.1 -0.1)">
       <use xlink:href="#DejaVuSans-30"/>
      </g>
     </g>
    </g>
    <g id="ytick_8">
     <g id="line2d_56">
      <path d="M 51.05 277.659535 
L 483.318832 277.659535 
" clip-path="url(#pb1ae0de4c4)" style="fill: none; stroke: #b0b0b0; stroke-width: 0.8; stroke-linecap: square"/>
     </g>
     <g id="line2d_57">
      <g>
       <use xlink:href="#m77760cf47b" x="51.05" y="277.659535" style="stroke: #000000; stroke-width: 0.8"/>
      </g>
     </g>
     <g id="text_9">
      <!-- 20 -->
      <g transform="translate(31.325 281.458754) scale(0.1 -0.1)">
       <use xlink:href="#DejaVuSans-32"/>
       <use xlink:href="#DejaVuSans-30" x="63.623047"/>
      </g>
     </g>
    </g>
    <g id="ytick_9">
     <g id="line2d_58">
      <path d="M 51.05 252.437365 
L 483.318832 252.437365 
" clip-path="url(#pb1ae0de4c4)" style="fill: none; stroke: #b0b0b0; stroke-width: 0.8; stroke-linecap: square"/>
     </g>
     <g id="line2d_59">
      <g>
       <use xlink:href="#m77760cf47b" x="51.05" y="252.437365" style="stroke: #000000; stroke-width: 0.8"/>
      </g>
     </g>
     <g id="text_10">
      <!-- 40 -->
      <g transform="translate(31.325 256.236583) scale(0.1 -0.1)">
       <use xlink:href="#DejaVuSans-34"/>
       <use xlink:href="#DejaVuSans-30" x="63.623047"/>
      </g>
     </g>
    </g>
    <g id="ytick_10">
     <g id="line2d_60">
      <path d="M 51.05 227.215194 
L 483.318832 227.215194 
" clip-path="url(#pb1ae0de4c4)" style="fill: none; stroke: #b0b0b0; stroke-width: 0.8; stroke-linecap: square"/>
     </g>
     <g id="line2d_61">
      <g>
       <use xlink:href="#m77760cf47b" x="51.05" y="227.215194" style="stroke: #000000; stroke-width: 0.8"/>
      </g>
     </g>
     <g id="text_11">
      <!-- 60 -->
      <g transform="translate(31.325 231.014413) scale(0.1 -0.1)">
       <defs>
        <path id="DejaVuSans-36" d="M 2113 2584 
Q 1688 2584 1439 2293 
Q 1191 2003 1191 1497 
Q 1191 994 1439 701 
Q 1688 409 2113 409 
Q 2538 409 2786 701 
Q 3034 994 3034 1497 
Q 3034 2003 2786 2293 
Q 2538 2584 2113 2584 
z
M 3366 4563 
L 3366 3988 
Q 3128 4100 2886 4159 
Q 2644 4219 2406 4219 
Q 1781 4219 1451 3797 
Q 1122 3375 1075 2522 
Q 1259 2794 1537 2939 
Q 1816 3084 2150 3084 
Q 2853 3084 3261 2657 
Q 3669 2231 3669 1497 
Q 3669 778 3244 343 
Q 2819 -91 2113 -91 
Q 1303 -91 875 529 
Q 447 1150 447 2328 
Q 447 3434 972 4092 
Q 1497 4750 2381 4750 
Q 2619 4750 2861 4703 
Q 3103 4656 3366 4563 
z
" transform="scale(0.015625)"/>
       </defs>
       <use xlink:href="#DejaVuSans-36"/>
       <use xlink:href="#DejaVuSans-30" x="63.623047"/>
      </g>
     </g>
    </g>
    <g id="ytick_11">
     <g id="line2d_62">
      <path d="M 51.05 201.993023 
L 483.318832 201.993023 
" clip-path="url(#pb1ae0de4c4)" style="fill: none; stroke: #b0b0b0; stroke-width: 0.8; stroke-linecap: square"/>
     </g>
     <g id="line2d_63">
      <g>
       <use xlink:href="#m77760cf47b" x="51.05" y="201.993023" style="stroke: #000000; stroke-width: 0.8"/>
      </g>
     </g>
     <g id="text_12">
      <!-- 80 -->
      <g transform="translate(31.325 205.792242) scale(0.1 -0.1)">
       <defs>
        <path id="DejaVuSans-38" d="M 2034 2216 
Q 1584 2216 1326 1975 
Q 1069 1734 1069 1313 
Q 1069 891 1326 650 
Q 1584 409 2034 409 
Q 2484 409 2743 651 
Q 3003 894 3003 1313 
Q 3003 1734 2745 1975 
Q 2488 2216 2034 2216 
z
M 1403 2484 
Q 997 2584 770 2862 
Q 544 3141 544 3541 
Q 544 4100 942 4425 
Q 1341 4750 2034 4750 
Q 2731 4750 3128 4425 
Q 3525 4100 3525 3541 
Q 3525 3141 3298 2862 
Q 3072 2584 2669 2484 
Q 3125 2378 3379 2068 
Q 3634 1759 3634 1313 
Q 3634 634 3220 271 
Q 2806 -91 2034 -91 
Q 1263 -91 848 271 
Q 434 634 434 1313 
Q 434 1759 690 2068 
Q 947 2378 1403 2484 
z
M 1172 3481 
Q 1172 3119 1398 2916 
Q 1625 2713 2034 2713 
Q 2441 2713 2670 2916 
Q 2900 3119 2900 3481 
Q 2900 3844 2670 4047 
Q 2441 4250 2034 4250 
Q 1625 4250 1398 4047 
Q 1172 3844 1172 3481 
z
" transform="scale(0.015625)"/>
       </defs>
       <use xlink:href="#DejaVuSans-38"/>
       <use xlink:href="#DejaVuSans-30" x="63.623047"/>
      </g>
     </g>
    </g>
    <g id="ytick_12">
     <g id="line2d_64">
      <path d="M 51.05 176.770853 
L 483.318832 176.770853 
" clip-path="url(#pb1ae0de4c4)" style="fill: none; stroke: #b0b0b0; stroke-width: 0.8; stroke-linecap: square"/>
     </g>
     <g id="line2d_65">
      <g>
       <use xlink:href="#m77760cf47b" x="51.05" y="176.770853" style="stroke: #000000; stroke-width: 0.8"/>
      </g>
     </g>
     <g id="text_13">
      <!-- 100 -->
      <g transform="translate(24.9625 180.570072) scale(0.1 -0.1)">
       <use xlink:href="#DejaVuSans-31"/>
       <use xlink:href="#DejaVuSans-30" x="63.623047"/>
       <use xlink:href="#DejaVuSans-30" x="127.246094"/>
      </g>
     </g>
    </g>
    <g id="text_14">
     <!-- Humidity [%RH] -->
     <g transform="translate(18.882813 279.973154) rotate(-90) scale(0.1 -0.1)">
      <defs>
       <path id="DejaVuSans-48" d="M 628 4666 
L 1259 4666 
L 1259 2753 
L 3553 2753 
L 3553 4666 
L 4184 4666 
L 4184 0 
L 3553 0 
L 3553 2222 
L 1259 2222 
L 1259 0 
L 628 0 
L 628 4666 
z
" transform="scale(0.015625)"/>
       <path id="DejaVuSans-69" d="M 603 3500 
L 1178 3500 
L 1178 0 
L 603 0 
L 603 3500 
z
M 603 4863 
L 1178 4863 
L 1178 4134 
L 603 4134 
L 603 4863 
z
" transform="scale(0.015625)"/>
       <path id="DejaVuSans-64" d="M 2906 2969 
L 2906 4863 
L 3481 4863 
L 3481 0 
L 2906 0 
L 2906 525 
Q 2725 213 2448 61 
Q 2172 -91 1784 -91 
Q 1150 -91 751 415 
Q 353 922 353 1747 
Q 353 2572 751 3078 
Q 1150 3584 1784 3584 
Q 2172 3584 2448 3432 
Q 2725 3281 2906 2969 
z
M 947 1747 
Q 947 1113 1208 752 
Q 1469 391 1925 391 
Q 2381 391 2643 752 
Q 2906 1113 2906 1747 
Q 2906 2381 2643 2742 
Q 2381 3103 1925 3103 
Q 1469 3103 1208 2742 
Q 947 2381 947 1747 
z
" transform="scale(0.015625)"/>
       <path id="DejaVuSans-79" d="M 2059 -325 
Q 1816 -950 1584 -1140 
Q 1353 -1331 966 -1331 
L 506 -1331 
L 506 -850 
L 844 -850 
Q 1081 -850 1212 -737 
Q 1344 -625 1503 -206 
L 1606 56 
L 191 3500 
L 800 3500 
L 1894 763 
L 2988 3500 
L 3597 3500 
L 2059 -325 
z
" transform="scale(0.015625)"/>
       <path id="DejaVuSans-25" d="M 4653 2053 
Q 4381 2053 4226 1822 
Q 4072 1591 4072 1178 
Q 4072 772 4226 539 
Q 4381 306 4653 306 
Q 4919 306 5073 539 
Q 5228 772 5228 1178 
Q 5228 1588 5073 1820 
Q 4919 2053 4653 2053 
z
M 4653 2450 
Q 5147 2450 5437 2106 
Q 5728 1763 5728 1178 
Q 5728 594 5436 251 
Q 5144 -91 4653 -91 
Q 4153 -91 3862 251 
Q 3572 594 3572 1178 
Q 3572 1766 3864 2108 
Q 4156 2450 4653 2450 
z
M 1428 4353 
Q 1159 4353 1004 4120 
Q 850 3888 850 3481 
Q 850 3069 1003 2837 
Q 1156 2606 1428 2606 
Q 1700 2606 1854 2837 
Q 2009 3069 2009 3481 
Q 2009 3884 1853 4118 
Q 1697 4353 1428 4353 
z
M 4250 4750 
L 4750 4750 
L 1831 -91 
L 1331 -91 
L 4250 4750 
z
M 1428 4750 
Q 1922 4750 2215 4408 
Q 2509 4066 2509 3481 
Q 2509 2891 2217 2550 
Q 1925 2209 1428 2209 
Q 931 2209 642 2551 
Q 353 2894 353 3481 
Q 353 4063 643 4406 
Q 934 4750 1428 4750 
z
" transform="scale(0.015625)"/>
       <path id="DejaVuSans-52" d="M 2841 2188 
Q 3044 2119 3236 1894 
Q 3428 1669 3622 1275 
L 4263 0 
L 3584 0 
L 2988 1197 
Q 2756 1666 2539 1819 
Q 2322 1972 1947 1972 
L 1259 1972 
L 1259 0 
L 628 0 
L 628 4666 
L 2053 4666 
Q 2853 4666 3247 4331 
Q 3641 3997 3641 3322 
Q 3641 2881 3436 2590 
Q 3231 2300 2841 2188 
z
M 1259 4147 
L 1259 2491 
L 2053 2491 
Q 2509 2491 2742 2702 
Q 2975 2913 2975 3322 
Q 2975 3731 2742 3939 
Q 2509 4147 2053 4147 
L 1259 4147 
z
" transform="scale(0.015625)"/>
      </defs>
      <use xlink:href="#DejaVuSans-48"/>
      <use xlink:href="#DejaVuSans-75" x="75.195312"/>
      <use xlink:href="#DejaVuSans-6d" x="138.574219"/>
      <use xlink:href="#DejaVuSans-69" x="235.986328"/>
      <use xlink:href="#DejaVuSans-64" x="263.769531"/>
      <use xlink:href="#DejaVuSans-69" x="327.246094"/>
      <use xlink:href="#DejaVuSans-74" x="355.029297"/>
      <use xlink:href="#DejaVuSans-79" x="394.238281"/>
      <use xlink:href="#DejaVuSans-20" x="453.417969"/>
      <use xlink:href="#DejaVuSans-5b" x="485.205078"/>
      <use xlink:href="#DejaVuSans-25" x="524.21875"/>
      <use xlink:href="#DejaVuSans-52" x="619.238281"/>
      <use xlink:href="#DejaVuSans-48" x="688.720703"/>
      <use xlink:href="#DejaVuSans-5d" x="763.916016"/>
     </g>
    </g>
   </g>
   <g id="line2d_66">
    <path d="M 51.05 194.426372 
L 51.612386 194.426372 
L 51.753509 193.165264 
L 56.391823 193.165264 
L 56.532027 194.426372 
L 59.906832 194.426372 
L 60.046585 193.165264 
L 62.437287 193.165264 
L 62.71734 191.904155 
L 64.966544 191.904155 
L 65.247646 190.643047 
L 70.30942 190.643047 
L 70.589576 189.381938 
L 89.286527 189.381938 
L 89.426692 188.12083 
L 106.857997 188.12083 
L 106.998901 186.859721 
L 118.244598 186.859721 
L 118.385159 185.598613 
L 126.960716 185.598613 
L 127.100814 186.859721 
L 136.097623 186.859721 
L 136.238761 185.598613 
L 173.209436 185.598613 
L 173.350455 186.859721 
L 178.832426 186.859721 
L 179.113562 185.598613 
L 196.685855 185.598613 
L 196.826032 186.859721 
L 201.886729 186.859721 
L 202.027804 185.598613 
L 222.972951 185.598613 
L 223.114202 184.337504 
L 233.797571 184.337504 
L 233.937798 183.076395 
L 240.545395 183.076395 
L 240.685385 181.815287 
L 247.151799 181.815287 
L 247.292735 180.554178 
L 282.998657 180.554178 
L 283.138893 181.815287 
L 293.260268 181.815287 
L 293.401238 180.554178 
L 316.314508 180.554178 
L 316.596565 181.815287 
L 317.157955 181.815287 
L 317.298806 180.554178 
L 317.439101 181.815287 
L 332.199751 181.815287 
L 332.340985 183.076395 
L 332.762041 183.076395 
L 332.902329 184.337504 
L 333.183478 184.337504 
L 333.324428 185.598613 
L 333.605401 185.598613 
L 333.745781 186.859721 
L 334.167794 186.859721 
L 334.308089 188.12083 
L 334.730187 188.12083 
L 334.870385 189.381938 
L 335.573558 189.381938 
L 335.71383 190.643047 
L 335.994987 190.643047 
L 336.135966 191.904155 
L 336.698124 191.904155 
L 336.838429 193.165264 
L 339.790827 193.165264 
L 339.931078 191.904155 
L 341.055693 191.904155 
L 341.196213 190.643047 
L 343.304897 190.643047 
L 343.445589 189.381938 
L 349.3499 189.381938 
L 349.490203 188.12083 
L 352.723696 188.12083 
L 352.864014 186.859721 
L 356.378321 186.859721 
L 356.518944 188.12083 
L 358.065763 188.12083 
L 358.205856 189.381938 
L 362.283038 189.381938 
L 362.423089 188.12083 
L 368.468332 188.12083 
L 368.608413 189.381938 
L 372.966813 189.381938 
L 373.106803 190.643047 
L 373.950256 190.643047 
L 374.091376 191.904155 
L 375.497026 191.904155 
L 375.637162 193.165264 
L 377.042916 193.165264 
L 377.184095 194.426372 
L 377.886353 194.426372 
L 378.027458 195.687481 
L 378.589848 195.687481 
L 378.729811 196.948589 
L 380.276214 196.948589 
L 380.416713 195.687481 
L 383.509362 195.687481 
L 383.650372 196.948589 
L 384.774937 196.948589 
L 384.915111 198.209698 
L 386.883163 198.209698 
L 387.024276 196.948589 
L 387.726628 196.948589 
L 387.867766 195.687481 
L 388.711247 195.687481 
L 388.851221 194.426372 
L 389.975806 194.426372 
L 390.116786 193.165264 
L 391.24146 193.165264 
L 391.38157 191.904155 
L 392.787317 191.904155 
L 392.928205 190.643047 
L 394.615248 190.643047 
L 394.755373 189.381938 
L 399.394706 189.381938 
L 399.534933 188.12083 
L 413.17122 188.12083 
L 413.311277 189.381938 
L 427.651045 189.381938 
L 427.931106 190.643047 
L 428.35329 190.643047 
L 428.493408 189.381938 
L 430.602168 189.381938 
L 430.742594 190.643047 
L 430.883624 190.643047 
L 431.023747 191.904155 
L 431.164817 191.904155 
L 431.304886 193.165264 
L 431.58604 193.165264 
L 431.727101 194.426372 
L 432.008183 194.426372 
L 432.14835 195.687481 
L 432.992892 195.687481 
L 433.272949 196.948589 
L 433.554088 196.948589 
L 433.695153 198.209698 
L 434.116393 198.209698 
L 434.257425 199.470806 
L 434.678702 199.470806 
L 434.819594 200.731915 
L 435.381983 200.731915 
L 435.522152 199.470806 
L 438.193508 199.470806 
L 438.334745 198.209698 
L 440.864935 198.209698 
L 441.145149 199.470806 
L 443.816168 199.470806 
L 443.956646 200.731915 
L 444.378694 200.731915 
L 444.518941 201.993023 
L 447.89372 201.993023 
L 448.173885 203.254132 
L 448.314782 204.51524 
L 448.455047 204.51524 
L 448.7369 203.254132 
L 449.018283 204.51524 
L 449.720644 204.51524 
L 449.860789 203.254132 
L 450.142844 203.254132 
L 450.423099 207.037458 
L 451.266548 207.037458 
L 451.407489 208.298566 
L 451.548598 208.298566 
L 451.969768 209.559675 
L 452.251076 213.343 
L 452.392191 214.604109 
L 452.673276 220.909651 
L 452.812871 220.909651 
L 452.953437 222.17076 
L 453.797847 232.259628 
L 454.359179 234.781845 
L 454.922222 234.781845 
L 455.343565 228.476302 
L 455.483794 227.215194 
L 455.624765 227.215194 
L 455.764945 225.954085 
L 456.046089 224.692977 
L 456.327826 227.215194 
L 456.608394 230.99852 
L 456.890549 232.259628 
L 457.030153 233.520737 
L 457.451847 232.259628 
L 457.592798 233.520737 
L 457.73299 233.520737 
L 458.014156 236.042954 
L 458.155083 236.042954 
L 458.436172 238.565171 
L 458.576461 238.565171 
L 459.139679 239.826279 
L 459.701041 242.348496 
L 459.982725 242.348496 
L 460.263351 241.087388 
L 460.825656 242.348496 
L 461.106798 243.609605 
L 461.387955 243.609605 
L 461.950239 244.870713 
L 463.919466 244.870713 
L 464.199449 243.609605 
L 464.621714 243.609605 
L 464.762605 244.870713 
L 465.18388 244.870713 
L 465.324055 243.609605 
L 465.605194 243.609605 
L 465.746282 242.348496 
L 466.308642 242.348496 
L 466.449677 239.826279 
L 466.729812 242.348496 
L 466.870692 242.348496 
L 467.012207 243.609605 
L 467.292119 243.609605 
L 467.714083 239.826279 
L 468.135557 243.609605 
L 468.41783 241.087388 
L 468.697859 239.826279 
L 468.838674 239.826279 
L 469.260181 243.609605 
L 470.244182 243.609605 
L 470.384772 241.087388 
L 470.666742 239.826279 
L 470.807166 239.826279 
L 470.947059 238.565171 
L 471.228218 237.304062 
L 471.649962 233.520737 
L 471.791651 233.520737 
L 472.212812 229.737411 
L 472.353925 229.737411 
L 472.635132 232.259628 
L 473.05605 232.259628 
L 473.337265 234.781845 
L 473.477422 234.781845 
L 473.758555 237.304062 
L 473.899666 236.042954 
L 474.039718 237.304062 
L 474.884048 237.304062 
L 475.024232 236.042954 
L 475.164851 233.520737 
L 475.726634 227.215194 
L 476.148623 227.215194 
L 476.429999 229.737411 
L 476.570086 232.259628 
L 476.710966 230.99852 
L 476.992172 234.781845 
L 477.132388 236.042954 
L 477.413538 236.042954 
L 477.694666 238.565171 
L 477.976756 236.042954 
L 478.538914 237.304062 
L 478.820469 238.565171 
L 479.241408 238.565171 
L 479.522377 236.042954 
L 479.943895 236.042954 
L 480.36631 232.259628 
L 480.788164 233.520737 
L 480.928114 233.520737 
L 481.068508 232.259628 
L 481.209672 232.259628 
L 481.349641 233.520737 
L 482.052809 233.520737 
L 482.193109 234.781845 
L 482.7554 234.781845 
L 483.318832 229.737411 
L 483.318832 229.737411 
" clip-path="url(#pb1ae0de4c4)" style="fill: none; stroke: #ff7f0e; stroke-width: 1.5; stroke-linecap: square"/>
   </g>
   <g id="patch_8">
    <path d="M 51.05 302.881706 
L 51.05 176.770853 
" style="fill: none; stroke: #000000; stroke-width: 0.8; stroke-linejoin: miter; stroke-linecap: square"/>
   </g>
   <g id="patch_9">
    <path d="M 483.318832 302.881706 
L 483.318832 176.770853 
" style="fill: none; stroke: #000000; stroke-width: 0.8; stroke-linejoin: miter; stroke-linecap: square"/>
   </g>
   <g id="patch_10">
    <path d="M 51.05 302.881706 
L 483.318832 302.881706 
" style="fill: none; stroke: #000000; stroke-width: 0.8; stroke-linejoin: miter; stroke-linecap: square"/>
   </g>
   <g id="patch_11">
    <path d="M 51.05 176.770853 
L 483.318832 176.770853 
" style="fill: none; stroke: #000000; stroke-width: 0.8; stroke-linejoin: miter; stroke-linecap: square"/>
   </g>
  </g>
  <g id="axes_3">
   <g id="patch_12">
    <path d="M 51.05 447.252558 
L 483.318832 447.252558 
L 483.318832 321.141706 
L 51.05 321.141706 
z
" style="fill: #ffffff"/>
   </g>
   <g id="matplotlib.axis_5">
    <g id="xtick_21">
     <g id="line2d_67">
      <path d="M 93.14811 447.252558 
L 93.14811 321.141706 
" clip-path="url(#p7f5c526402)" style="fill: none; stroke: #b0b0b0; stroke-width: 0.8; stroke-linecap: square"/>
     </g>
     <g id="line2d_68">
      <g>
       <use xlink:href="#m3ab17978b0" x="93.14811" y="447.252558" style="stroke: #000000; stroke-width: 0.8"/>
      </g>
     </g>
     <g id="text_15">
      <!-- 12-01 04 -->
      <g transform="translate(79.203191 491.417649) rotate(-45) scale(0.1 -0.1)">
       <defs>
        <path id="DejaVuSans-2d" d="M 313 2009 
L 1997 2009 
L 1997 1497 
L 313 1497 
L 313 2009 
z
" transform="scale(0.015625)"/>
       </defs>
       <use xlink:href="#DejaVuSans-31"/>
       <use xlink:href="#DejaVuSans-32" x="63.623047"/>
       <use xlink:href="#DejaVuSans-2d" x="127.246094"/>
       <use xlink:href="#DejaVuSans-30" x="163.330078"/>
       <use xlink:href="#DejaVuSans-31" x="226.953125"/>
       <use xlink:href="#DejaVuSans-20" x="290.576172"/>
       <use xlink:href="#DejaVuSans-30" x="322.363281"/>
       <use xlink:href="#DejaVuSans-34" x="385.986328"/>
      </g>
     </g>
    </g>
    <g id="xtick_22">
     <g id="line2d_69">
      <path d="M 135.320871 447.252558 
L 135.320871 321.141706 
" clip-path="url(#p7f5c526402)" style="fill: none; stroke: #b0b0b0; stroke-width: 0.8; stroke-linecap: square"/>
     </g>
     <g id="line2d_70">
      <g>
       <use xlink:href="#m3ab17978b0" x="135.320871" y="447.252558" style="stroke: #000000; stroke-width: 0.8"/>
      </g>
     </g>
     <g id="text_16">
      <!-- 12-01 08 -->
      <g transform="translate(121.375952 491.417649) rotate(-45) scale(0.1 -0.1)">
       <use xlink:href="#DejaVuSans-31"/>
       <use xlink:href="#DejaVuSans-32" x="63.623047"/>
       <use xlink:href="#DejaVuSans-2d" x="127.246094"/>
       <use xlink:href="#DejaVuSans-30" x="163.330078"/>
       <use xlink:href="#DejaVuSans-31" x="226.953125"/>
       <use xlink:href="#DejaVuSans-20" x="290.576172"/>
       <use xlink:href="#DejaVuSans-30" x="322.363281"/>
       <use xlink:href="#DejaVuSans-38" x="385.986328"/>
      </g>
     </g>
    </g>
    <g id="xtick_23">
     <g id="line2d_71">
      <path d="M 177.493631 447.252558 
L 177.493631 321.141706 
" clip-path="url(#p7f5c526402)" style="fill: none; stroke: #b0b0b0; stroke-width: 0.8; stroke-linecap: square"/>
     </g>
     <g id="line2d_72">
      <g>
       <use xlink:href="#m3ab17978b0" x="177.493631" y="447.252558" style="stroke: #000000; stroke-width: 0.8"/>
      </g>
     </g>
     <g id="text_17">
      <!-- 12-01 12 -->
      <g transform="translate(163.548712 491.417649) rotate(-45) scale(0.1 -0.1)">
       <use xlink:href="#DejaVuSans-31"/>
       <use xlink:href="#DejaVuSans-32" x="63.623047"/>
       <use xlink:href="#DejaVuSans-2d" x="127.246094"/>
       <use xlink:href="#DejaVuSans-30" x="163.330078"/>
       <use xlink:href="#DejaVuSans-31" x="226.953125"/>
       <use xlink:href="#DejaVuSans-20" x="290.576172"/>
       <use xlink:href="#DejaVuSans-31" x="322.363281"/>
       <use xlink:href="#DejaVuSans-32" x="385.986328"/>
      </g>
     </g>
    </g>
    <g id="xtick_24">
     <g id="line2d_73">
      <path d="M 219.666392 447.252558 
L 219.666392 321.141706 
" clip-path="url(#p7f5c526402)" style="fill: none; stroke: #b0b0b0; stroke-width: 0.8; stroke-linecap: square"/>
     </g>
     <g id="line2d_74">
      <g>
       <use xlink:href="#m3ab17978b0" x="219.666392" y="447.252558" style="stroke: #000000; stroke-width: 0.8"/>
      </g>
     </g>
     <g id="text_18">
      <!-- 12-01 16 -->
      <g transform="translate(205.721473 491.417649) rotate(-45) scale(0.1 -0.1)">
       <use xlink:href="#DejaVuSans-31"/>
       <use xlink:href="#DejaVuSans-32" x="63.623047"/>
       <use xlink:href="#DejaVuSans-2d" x="127.246094"/>
       <use xlink:href="#DejaVuSans-30" x="163.330078"/>
       <use xlink:href="#DejaVuSans-31" x="226.953125"/>
       <use xlink:href="#DejaVuSans-20" x="290.576172"/>
       <use xlink:href="#DejaVuSans-31" x="322.363281"/>
       <use xlink:href="#DejaVuSans-36" x="385.986328"/>
      </g>
     </g>
    </g>
    <g id="xtick_25">
     <g id="line2d_75">
      <path d="M 261.839152 447.252558 
L 261.839152 321.141706 
" clip-path="url(#p7f5c526402)" style="fill: none; stroke: #b0b0b0; stroke-width: 0.8; stroke-linecap: square"/>
     </g>
     <g id="line2d_76">
      <g>
       <use xlink:href="#m3ab17978b0" x="261.839152" y="447.252558" style="stroke: #000000; stroke-width: 0.8"/>
      </g>
     </g>
     <g id="text_19">
      <!-- 12-01 20 -->
      <g transform="translate(247.894233 491.417649) rotate(-45) scale(0.1 -0.1)">
       <use xlink:href="#DejaVuSans-31"/>
       <use xlink:href="#DejaVuSans-32" x="63.623047"/>
       <use xlink:href="#DejaVuSans-2d" x="127.246094"/>
       <use xlink:href="#DejaVuSans-30" x="163.330078"/>
       <use xlink:href="#DejaVuSans-31" x="226.953125"/>
       <use xlink:href="#DejaVuSans-20" x="290.576172"/>
       <use xlink:href="#DejaVuSans-32" x="322.363281"/>
       <use xlink:href="#DejaVuSans-30" x="385.986328"/>
      </g>
     </g>
    </g>
    <g id="xtick_26">
     <g id="line2d_77">
      <path d="M 304.011913 447.252558 
L 304.011913 321.141706 
" clip-path="url(#p7f5c526402)" style="fill: none; stroke: #b0b0b0; stroke-width: 0.8; stroke-linecap: square"/>
     </g>
     <g id="line2d_78">
      <g>
       <use xlink:href="#m3ab17978b0" x="304.011913" y="447.252558" style="stroke: #000000; stroke-width: 0.8"/>
      </g>
     </g>
     <g id="text_20">
      <!-- 12-02 00 -->
      <g transform="translate(290.066994 491.417649) rotate(-45) scale(0.1 -0.1)">
       <use xlink:href="#DejaVuSans-31"/>
       <use xlink:href="#DejaVuSans-32" x="63.623047"/>
       <use xlink:href="#DejaVuSans-2d" x="127.246094"/>
       <use xlink:href="#DejaVuSans-30" x="163.330078"/>
       <use xlink:href="#DejaVuSans-32" x="226.953125"/>
       <use xlink:href="#DejaVuSans-20" x="290.576172"/>
       <use xlink:href="#DejaVuSans-30" x="322.363281"/>
       <use xlink:href="#DejaVuSans-30" x="385.986328"/>
      </g>
     </g>
    </g>
    <g id="xtick_27">
     <g id="line2d_79">
      <path d="M 346.184673 447.252558 
L 346.184673 321.141706 
" clip-path="url(#p7f5c526402)" style="fill: none; stroke: #b0b0b0; stroke-width: 0.8; stroke-linecap: square"/>
     </g>
     <g id="line2d_80">
      <g>
       <use xlink:href="#m3ab17978b0" x="346.184673" y="447.252558" style="stroke: #000000; stroke-width: 0.8"/>
      </g>
     </g>
     <g id="text_21">
      <!-- 12-02 04 -->
      <g transform="translate(332.239754 491.417649) rotate(-45) scale(0.1 -0.1)">
       <use xlink:href="#DejaVuSans-31"/>
       <use xlink:href="#DejaVuSans-32" x="63.623047"/>
       <use xlink:href="#DejaVuSans-2d" x="127.246094"/>
       <use xlink:href="#DejaVuSans-30" x="163.330078"/>
       <use xlink:href="#DejaVuSans-32" x="226.953125"/>
       <use xlink:href="#DejaVuSans-20" x="290.576172"/>
       <use xlink:href="#DejaVuSans-30" x="322.363281"/>
       <use xlink:href="#DejaVuSans-34" x="385.986328"/>
      </g>
     </g>
    </g>
    <g id="xtick_28">
     <g id="line2d_81">
      <path d="M 388.357434 447.252558 
L 388.357434 321.141706 
" clip-path="url(#p7f5c526402)" style="fill: none; stroke: #b0b0b0; stroke-width: 0.8; stroke-linecap: square"/>
     </g>
     <g id="line2d_82">
      <g>
       <use xlink:href="#m3ab17978b0" x="388.357434" y="447.252558" style="stroke: #000000; stroke-width: 0.8"/>
      </g>
     </g>
     <g id="text_22">
      <!-- 12-02 08 -->
      <g transform="translate(374.412515 491.417649) rotate(-45) scale(0.1 -0.1)">
       <use xlink:href="#DejaVuSans-31"/>
       <use xlink:href="#DejaVuSans-32" x="63.623047"/>
       <use xlink:href="#DejaVuSans-2d" x="127.246094"/>
       <use xlink:href="#DejaVuSans-30" x="163.330078"/>
       <use xlink:href="#DejaVuSans-32" x="226.953125"/>
       <use xlink:href="#DejaVuSans-20" x="290.576172"/>
       <use xlink:href="#DejaVuSans-30" x="322.363281"/>
       <use xlink:href="#DejaVuSans-38" x="385.986328"/>
      </g>
     </g>
    </g>
    <g id="xtick_29">
     <g id="line2d_83">
      <path d="M 430.530194 447.252558 
L 430.530194 321.141706 
" clip-path="url(#p7f5c526402)" style="fill: none; stroke: #b0b0b0; stroke-width: 0.8; stroke-linecap: square"/>
     </g>
     <g id="line2d_84">
      <g>
       <use xlink:href="#m3ab17978b0" x="430.530194" y="447.252558" style="stroke: #000000; stroke-width: 0.8"/>
      </g>
     </g>
     <g id="text_23">
      <!-- 12-02 12 -->
      <g transform="translate(416.585275 491.417649) rotate(-45) scale(0.1 -0.1)">
       <use xlink:href="#DejaVuSans-31"/>
       <use xlink:href="#DejaVuSans-32" x="63.623047"/>
       <use xlink:href="#DejaVuSans-2d" x="127.246094"/>
       <use xlink:href="#DejaVuSans-30" x="163.330078"/>
       <use xlink:href="#DejaVuSans-32" x="226.953125"/>
       <use xlink:href="#DejaVuSans-20" x="290.576172"/>
       <use xlink:href="#DejaVuSans-31" x="322.363281"/>
       <use xlink:href="#DejaVuSans-32" x="385.986328"/>
      </g>
     </g>
    </g>
    <g id="xtick_30">
     <g id="line2d_85">
      <path d="M 472.702955 447.252558 
L 472.702955 321.141706 
" clip-path="url(#p7f5c526402)" style="fill: none; stroke: #b0b0b0; stroke-width: 0.8; stroke-linecap: square"/>
     </g>
     <g id="line2d_86">
      <g>
       <use xlink:href="#m3ab17978b0" x="472.702955" y="447.252558" style="stroke: #000000; stroke-width: 0.8"/>
      </g>
     </g>
     <g id="text_24">
      <!-- 12-02 16 -->
      <g transform="translate(458.758036 491.417649) rotate(-45) scale(0.1 -0.1)">
       <use xlink:href="#DejaVuSans-31"/>
       <use xlink:href="#DejaVuSans-32" x="63.623047"/>
       <use xlink:href="#DejaVuSans-2d" x="127.246094"/>
       <use xlink:href="#DejaVuSans-30" x="163.330078"/>
       <use xlink:href="#DejaVuSans-32" x="226.953125"/>
       <use xlink:href="#DejaVuSans-20" x="290.576172"/>
       <use xlink:href="#DejaVuSans-31" x="322.363281"/>
       <use xlink:href="#DejaVuSans-36" x="385.986328"/>
      </g>
     </g>
    </g>
   </g>
   <g id="matplotlib.axis_6">
    <g id="ytick_13">
     <g id="line2d_87">
      <path d="M 51.05 426.065486 
L 483.318832 426.065486 
" clip-path="url(#p7f5c526402)" style="fill: none; stroke: #b0b0b0; stroke-width: 0.8; stroke-linecap: square"/>
     </g>
     <g id="line2d_88">
      <g>
       <use xlink:href="#m77760cf47b" x="51.05" y="426.065486" style="stroke: #000000; stroke-width: 0.8"/>
      </g>
     </g>
     <g id="text_25">
      <!-- 430 -->
      <g transform="translate(24.9625 429.864704) scale(0.1 -0.1)">
       <use xlink:href="#DejaVuSans-34"/>
       <use xlink:href="#DejaVuSans-33" x="63.623047"/>
       <use xlink:href="#DejaVuSans-30" x="127.246094"/>
      </g>
     </g>
    </g>
    <g id="ytick_14">
     <g id="line2d_89">
      <path d="M 51.05 397.965919 
L 483.318832 397.965919 
" clip-path="url(#p7f5c526402)" style="fill: none; stroke: #b0b0b0; stroke-width: 0.8; stroke-linecap: square"/>
     </g>
     <g id="line2d_90">
      <g>
       <use xlink:href="#m77760cf47b" x="51.05" y="397.965919" style="stroke: #000000; stroke-width: 0.8"/>
      </g>
     </g>
     <g id="text_26">
      <!-- 440 -->
      <g transform="translate(24.9625 401.765138) scale(0.1 -0.1)">
       <use xlink:href="#DejaVuSans-34"/>
       <use xlink:href="#DejaVuSans-34" x="63.623047"/>
       <use xlink:href="#DejaVuSans-30" x="127.246094"/>
      </g>
     </g>
    </g>
    <g id="ytick_15">
     <g id="line2d_91">
      <path d="M 51.05 369.866353 
L 483.318832 369.866353 
" clip-path="url(#p7f5c526402)" style="fill: none; stroke: #b0b0b0; stroke-width: 0.8; stroke-linecap: square"/>
     </g>
     <g id="line2d_92">
      <g>
       <use xlink:href="#m77760cf47b" x="51.05" y="369.866353" style="stroke: #000000; stroke-width: 0.8"/>
      </g>
     </g>
     <g id="text_27">
      <!-- 450 -->
      <g transform="translate(24.9625 373.665572) scale(0.1 -0.1)">
       <use xlink:href="#DejaVuSans-34"/>
       <use xlink:href="#DejaVuSans-35" x="63.623047"/>
       <use xlink:href="#DejaVuSans-30" x="127.246094"/>
      </g>
     </g>
    </g>
    <g id="ytick_16">
     <g id="line2d_93">
      <path d="M 51.05 341.766787 
L 483.318832 341.766787 
" clip-path="url(#p7f5c526402)" style="fill: none; stroke: #b0b0b0; stroke-width: 0.8; stroke-linecap: square"/>
     </g>
     <g id="line2d_94">
      <g>
       <use xlink:href="#m77760cf47b" x="51.05" y="341.766787" style="stroke: #000000; stroke-width: 0.8"/>
      </g>
     </g>
     <g id="text_28">
      <!-- 460 -->
      <g transform="translate(24.9625 345.566006) scale(0.1 -0.1)">
       <use xlink:href="#DejaVuSans-34"/>
       <use xlink:href="#DejaVuSans-36" x="63.623047"/>
       <use xlink:href="#DejaVuSans-30" x="127.246094"/>
      </g>
     </g>
    </g>
    <g id="text_29">
     <!-- Rain [mm] -->
     <g transform="translate(18.882813 410.411976) rotate(-90) scale(0.1 -0.1)">
      <defs>
       <path id="DejaVuSans-6e" d="M 3513 2113 
L 3513 0 
L 2938 0 
L 2938 2094 
Q 2938 2591 2744 2837 
Q 2550 3084 2163 3084 
Q 1697 3084 1428 2787 
Q 1159 2491 1159 1978 
L 1159 0 
L 581 0 
L 581 3500 
L 1159 3500 
L 1159 2956 
Q 1366 3272 1645 3428 
Q 1925 3584 2291 3584 
Q 2894 3584 3203 3211 
Q 3513 2838 3513 2113 
z
" transform="scale(0.015625)"/>
      </defs>
      <use xlink:href="#DejaVuSans-52"/>
      <use xlink:href="#DejaVuSans-61" x="67.232422"/>
      <use xlink:href="#DejaVuSans-69" x="128.511719"/>
      <use xlink:href="#DejaVuSans-6e" x="156.294922"/>
      <use xlink:href="#DejaVuSans-20" x="219.673828"/>
      <use xlink:href="#DejaVuSans-5b" x="251.460938"/>
      <use xlink:href="#DejaVuSans-6d" x="290.474609"/>
      <use xlink:href="#DejaVuSans-6d" x="387.886719"/>
      <use xlink:href="#DejaVuSans-5d" x="485.298828"/>
     </g>
    </g>
   </g>
   <g id="line2d_95">
    <path d="M 51.05 441.520247 
L 124.008155 441.520247 
L 124.1492 440.67726 
L 127.523003 440.67726 
L 127.66311 439.834273 
L 130.334411 439.834273 
L 130.474608 438.991286 
L 132.864731 438.991286 
L 133.004958 438.148299 
L 136.800567 438.148299 
L 136.94107 437.305312 
L 152.40539 437.305312 
L 152.685485 436.462325 
L 173.490583 436.462325 
L 173.772777 435.619338 
L 189.234973 435.619338 
L 189.375966 434.776351 
L 192.046483 434.776351 
L 192.328841 433.933364 
L 205.120405 433.933364 
L 205.260531 433.090377 
L 212.289275 433.090377 
L 212.43031 432.24739 
L 218.756863 432.24739 
L 218.89646 431.404403 
L 224.941014 431.404403 
L 225.081712 430.561416 
L 228.877108 430.561416 
L 229.018018 429.718429 
L 231.970636 429.718429 
L 232.110479 428.875442 
L 234.501083 428.875442 
L 234.922133 428.032455 
L 236.749278 428.032455 
L 236.890167 427.189468 
L 237.873884 427.189468 
L 238.014957 426.346481 
L 239.56077 426.346481 
L 239.701794 425.503494 
L 241.388528 425.503494 
L 241.528824 424.660507 
L 243.075358 424.660507 
L 243.215719 423.81752 
L 244.340319 423.81752 
L 244.48112 422.974533 
L 245.886979 422.974533 
L 246.0272 422.131546 
L 247.292735 422.131546 
L 247.432962 421.288559 
L 249.119848 421.288559 
L 249.260791 420.445572 
L 251.228832 420.445572 
L 251.36905 419.602585 
L 252.493638 419.602585 
L 252.634597 418.759598 
L 253.337109 418.759598 
L 253.47796 417.916611 
L 254.180527 417.916611 
L 254.321446 417.073624 
L 255.023989 417.073624 
L 255.164921 416.230637 
L 256.008377 416.230637 
L 256.148586 415.38765 
L 256.851871 415.38765 
L 256.992042 414.544664 
L 257.554337 414.544664 
L 257.695244 413.701677 
L 258.399087 413.701677 
L 258.538465 412.85869 
L 259.241215 412.85869 
L 259.382203 412.015703 
L 260.365818 412.015703 
L 260.506873 411.172716 
L 261.490423 411.172716 
L 261.631329 410.329729 
L 262.193598 410.329729 
L 262.333869 409.486742 
L 262.896165 409.486742 
L 263.037077 408.643755 
L 263.458463 408.643755 
L 263.739532 407.800768 
L 264.442842 407.800768 
L 264.583067 406.957781 
L 265.567273 406.957781 
L 265.70767 406.114794 
L 266.69228 406.114794 
L 266.832253 405.271807 
L 268.237997 405.271807 
L 268.379027 404.42882 
L 269.503353 404.42882 
L 269.643742 403.585833 
L 270.487195 403.585833 
L 270.628488 402.742846 
L 271.752445 402.742846 
L 271.892936 401.899859 
L 273.158342 401.899859 
L 273.298657 401.056872 
L 274.423263 401.056872 
L 274.564224 400.213885 
L 275.266732 400.213885 
L 275.407694 399.370898 
L 276.110158 399.370898 
L 276.25093 398.527911 
L 276.954547 398.527911 
L 277.094379 397.684924 
L 277.797042 397.684924 
L 277.937994 396.841937 
L 278.640511 396.841937 
L 278.781359 395.99895 
L 279.62447 395.99895 
L 279.765096 395.155963 
L 280.468664 395.155963 
L 280.608543 394.312976 
L 281.451985 394.312976 
L 281.592783 393.469989 
L 282.436332 393.469989 
L 282.576597 392.627002 
L 283.138893 392.627002 
L 283.27984 391.784015 
L 283.84201 391.784015 
L 283.982343 390.941028 
L 284.544641 390.941028 
L 284.827054 390.098041 
L 285.528962 390.098041 
L 285.669247 389.255054 
L 286.091243 389.255054 
L 286.231528 388.412067 
L 286.934728 388.412067 
L 287.074969 387.56908 
L 287.778206 387.56908 
L 287.918436 386.726093 
L 288.761882 386.726093 
L 288.902765 385.883106 
L 289.605334 385.883106 
L 289.74624 385.040119 
L 290.589727 385.040119 
L 290.729925 384.197132 
L 291.433197 384.197132 
L 291.57337 383.354145 
L 292.416822 383.354145 
L 292.557873 382.511158 
L 293.541411 382.511158 
L 293.682308 381.668171 
L 294.52581 381.668171 
L 294.666014 380.825184 
L 295.509446 380.825184 
L 295.650336 379.982197 
L 296.915207 379.982197 
L 297.056123 379.13921 
L 297.75866 379.13921 
L 298.040701 378.296223 
L 298.88326 378.296223 
L 299.024172 377.453236 
L 300.007854 377.453236 
L 300.14884 376.610249 
L 301.273403 376.610249 
L 301.413597 375.767262 
L 302.116771 375.767262 
L 302.25705 374.924275 
L 303.100503 374.924275 
L 303.382553 374.081288 
L 304.787376 374.081288 
L 305.068527 373.238301 
L 305.77178 373.238301 
L 305.913014 372.395314 
L 306.755437 372.395314 
L 306.896357 371.552327 
L 307.88002 371.552327 
L 308.021008 370.70934 
L 308.864349 370.70934 
L 309.004622 369.866353 
L 310.270012 369.866353 
L 310.410352 369.023366 
L 311.534959 369.023366 
L 311.675889 368.180379 
L 313.081634 368.180379 
L 313.221846 367.337392 
L 314.487395 367.337392 
L 314.62761 366.494405 
L 315.893156 366.494405 
L 316.033361 365.651418 
L 317.439101 365.651418 
L 317.580004 364.808431 
L 318.282552 364.808431 
L 318.423371 363.965444 
L 319.547932 363.965444 
L 319.688297 363.122457 
L 320.812896 363.122457 
L 320.953808 362.27947 
L 322.499783 362.27947 
L 322.640745 361.436484 
L 323.765536 361.436484 
L 323.905533 360.593497 
L 325.030143 360.593497 
L 325.170951 359.75051 
L 326.717057 359.75051 
L 326.858154 358.907523 
L 328.122813 358.907523 
L 328.263573 358.064536 
L 329.528558 358.064536 
L 329.810566 357.221549 
L 331.075441 357.221549 
L 331.215454 356.378562 
L 332.340985 356.378562 
L 332.621167 355.535575 
L 333.887056 355.535575 
L 334.026935 354.692588 
L 334.870385 354.692588 
L 335.29234 353.849601 
L 336.135966 353.849601 
L 336.276158 353.006614 
L 336.698124 353.006614 
L 336.838429 352.163627 
L 337.400709 352.163627 
L 337.541489 351.32064 
L 337.822435 351.32064 
L 337.963035 350.477653 
L 338.66616 350.477653 
L 338.806469 349.634666 
L 339.228429 349.634666 
L 339.368797 348.791679 
L 339.790827 348.791679 
L 339.931078 347.948692 
L 340.212243 347.948692 
L 340.4934 347.105705 
L 340.915615 347.105705 
L 341.055693 346.262718 
L 341.477782 346.262718 
L 341.617974 345.419731 
L 342.040292 345.419731 
L 342.180299 344.576744 
L 342.602452 344.576744 
L 342.742582 343.733757 
L 343.304897 343.733757 
L 343.445589 342.89077 
L 344.008206 342.89077 
L 344.148336 342.047783 
L 345.41407 342.047783 
L 345.555082 341.204796 
L 346.819815 341.204796 
L 346.959845 340.361809 
L 348.084437 340.361809 
L 348.366583 339.518822 
L 349.490203 339.518822 
L 349.630986 338.675835 
L 350.755767 338.675835 
L 350.897114 337.832848 
L 352.020551 337.832848 
L 352.161533 336.989861 
L 353.42631 336.989861 
L 353.708749 336.146874 
L 354.550895 336.146874 
L 354.69173 335.303887 
L 356.09772 335.303887 
L 356.238949 334.4609 
L 358.487007 334.4609 
L 358.628042 333.617913 
L 364.391149 333.617913 
L 364.532126 332.774926 
L 367.906054 332.774926 
L 368.046109 331.931939 
L 369.453046 331.931939 
L 369.733016 331.088952 
L 370.717572 331.088952 
L 370.85761 330.245965 
L 371.982201 330.245965 
L 372.263287 329.402978 
L 374.794777 329.402978 
L 374.934263 328.559991 
L 377.605212 328.559991 
L 377.746123 327.717004 
L 385.618168 327.717004 
L 385.758552 326.874017 
L 483.318832 326.874017 
L 483.318832 326.874017 
" clip-path="url(#p7f5c526402)" style="fill: none; stroke: #9467bd; stroke-width: 1.5; stroke-linecap: square"/>
   </g>
   <g id="patch_13">
    <path d="M 51.05 447.252558 
L 51.05 321.141706 
" style="fill: none; stroke: #000000; stroke-width: 0.8; stroke-linejoin: miter; stroke-linecap: square"/>
   </g>
   <g id="patch_14">
    <path d="M 483.318832 447.252558 
L 483.318832 321.141706 
" style="fill: none; stroke: #000000; stroke-width: 0.8; stroke-linejoin: miter; stroke-linecap: square"/>
   </g>
   <g id="patch_15">
    <path d="M 51.05 447.252558 
L 483.318832 447.252558 
" style="fill: none; stroke: #000000; stroke-width: 0.8; stroke-linejoin: miter; stroke-linecap: square"/>
   </g>
   <g id="patch_16">
    <path d="M 51.05 321.141706 
L 483.318832 321.141706 
" style="fill: none; stroke: #000000; stroke-width: 0.8; stroke-linejoin: miter; stroke-linecap: square"/>
   </g>
  </g>
  <g id="text_30">
   <!-- Weather data - December 2023 -->
   <g transform="translate(157.04625 19.198125) scale(0.12 -0.12)">
    <defs>
     <path id="DejaVuSans-57" d="M 213 4666 
L 850 4666 
L 1831 722 
L 2809 4666 
L 3519 4666 
L 4500 722 
L 5478 4666 
L 6119 4666 
L 4947 0 
L 4153 0 
L 3169 4050 
L 2175 0 
L 1381 0 
L 213 4666 
z
" transform="scale(0.015625)"/>
     <path id="DejaVuSans-68" d="M 3513 2113 
L 3513 0 
L 2938 0 
L 2938 2094 
Q 2938 2591 2744 2837 
Q 2550 3084 2163 3084 
Q 1697 3084 1428 2787 
Q 1159 2491 1159 1978 
L 1159 0 
L 581 0 
L 581 4863 
L 1159 4863 
L 1159 2956 
Q 1366 3272 1645 3428 
Q 1925 3584 2291 3584 
Q 2894 3584 3203 3211 
Q 3513 2838 3513 2113 
z
" transform="scale(0.015625)"/>
     <path id="DejaVuSans-44" d="M 1259 4147 
L 1259 519 
L 2022 519 
Q 2988 519 3436 956 
Q 3884 1394 3884 2338 
Q 3884 3275 3436 3711 
Q 2988 4147 2022 4147 
L 1259 4147 
z
M 628 4666 
L 1925 4666 
Q 3281 4666 3915 4102 
Q 4550 3538 4550 2338 
Q 4550 1131 3912 565 
Q 3275 0 1925 0 
L 628 0 
L 628 4666 
z
" transform="scale(0.015625)"/>
     <path id="DejaVuSans-63" d="M 3122 3366 
L 3122 2828 
Q 2878 2963 2633 3030 
Q 2388 3097 2138 3097 
Q 1578 3097 1268 2742 
Q 959 2388 959 1747 
Q 959 1106 1268 751 
Q 1578 397 2138 397 
Q 2388 397 2633 464 
Q 2878 531 3122 666 
L 3122 134 
Q 2881 22 2623 -34 
Q 2366 -91 2075 -91 
Q 1284 -91 818 406 
Q 353 903 353 1747 
Q 353 2603 823 3093 
Q 1294 3584 2113 3584 
Q 2378 3584 2631 3529 
Q 2884 3475 3122 3366 
z
" transform="scale(0.015625)"/>
     <path id="DejaVuSans-62" d="M 3116 1747 
Q 3116 2381 2855 2742 
Q 2594 3103 2138 3103 
Q 1681 3103 1420 2742 
Q 1159 2381 1159 1747 
Q 1159 1113 1420 752 
Q 1681 391 2138 391 
Q 2594 391 2855 752 
Q 3116 1113 3116 1747 
z
M 1159 2969 
Q 1341 3281 1617 3432 
Q 1894 3584 2278 3584 
Q 2916 3584 3314 3078 
Q 3713 2572 3713 1747 
Q 3713 922 3314 415 
Q 2916 -91 2278 -91 
Q 1894 -91 1617 61 
Q 1341 213 1159 525 
L 1159 0 
L 581 0 
L 581 4863 
L 1159 4863 
L 1159 2969 
z
" transform="scale(0.015625)"/>
    </defs>
    <use xlink:href="#DejaVuSans-57"/>
    <use xlink:href="#DejaVuSans-65" x="93.001953"/>
    <use xlink:href="#DejaVuSans-61" x="154.525391"/>
    <use xlink:href="#DejaVuSans-74" x="215.804688"/>
    <use xlink:href="#DejaVuSans-68" x="255.013672"/>
    <use xlink:href="#DejaVuSans-65" x="318.392578"/>
    <use xlink:href="#DejaVuSans-72" x="379.916016"/>
    <use xlink:href="#DejaVuSans-20" x="421.029297"/>
    <use xlink:href="#DejaVuSans-64" x="452.816406"/>
    <use xlink:href="#DejaVuSans-61" x="516.292969"/>
    <use xlink:href="#DejaVuSans-74" x="577.572266"/>
    <use xlink:href="#DejaVuSans-61" x="616.78125"/>
    <use xlink:href="#DejaVuSans-20" x="678.060547"/>
    <use xlink:href="#DejaVuSans-2d" x="709.847656"/>
    <use xlink:href="#DejaVuSans-20" x="745.931641"/>
    <use xlink:href="#DejaVuSans-44" x="777.71875"/>
    <use xlink:href="#DejaVuSans-65" x="854.720703"/>
    <use xlink:href="#DejaVuSans-63" x="916.244141"/>
    <use xlink:href="#DejaVuSans-65" x="971.224609"/>
    <use xlink:href="#DejaVuSans-6d" x="1032.748047"/>
    <use xlink:href="#DejaVuSans-62" x="1130.160156"/>
    <use xlink:href="#DejaVuSans-65" x="1193.636719"/>
    <use xlink:href="#DejaVuSans-72" x="1255.160156"/>
    <use xlink:href="#DejaVuSans-20" x="1296.273438"/>
    <use xlink:href="#DejaVuSans-32" x="1328.060547"/>
    <use xlink:href="#DejaVuSans-30" x="1391.683594"/>
    <use xlink:href="#DejaVuSans-32" x="1455.306641"/>
    <use xlink:href="#DejaVuSans-33" x="1518.929688"/>
   </g>
  </g>
 </g>
 <defs>
  <clipPath id="pb77b6bb04c">
   <rect x="51.05" y="32.4" width="432.268832" height="126.110853"/>
  </clipPath>
  <clipPath id="pb1ae0de4c4">
   <rect x="51.05" y="176.770853" width="432.268832" height="126.110853"/>
  </clipPath>
  <clipPath id="p7f5c526402">
   <rect x="51.05" y="321.141706" width="432.268832" height="126.110853"/>
  </clipPath>
 </defs>
</svg>
