<?xml version="1.0" encoding="utf-8" standalone="no"?>
<!DOCTYPE svg PUBLIC "-//W3C//DTD SVG 1.1//EN"
  "http://www.w3.org/Graphics/SVG/1.1/DTD/svg11.dtd">
<svg xmlns:xlink="http://www.w3.org/1999/xlink" width="460.8pt" height="345.6pt" viewBox="0 0 460.8 345.6" xmlns="http://www.w3.org/2000/svg" version="1.1">
 <metadata>
  <rdf:RDF xmlns:dc="http://purl.org/dc/elements/1.1/" xmlns:cc="http://creativecommons.org/ns#" xmlns:rdf="http://www.w3.org/1999/02/22-rdf-syntax-ns#">
   <cc:Work>
    <dc:type rdf:resource="http://purl.org/dc/dcmitype/StillImage"/>
    <dc:date>2023-11-06T19:12:01.589309</dc:date>
    <dc:format>image/svg+xml</dc:format>
    <dc:creator>
     <cc:Agent>
      <dc:title>Matplotlib v3.6.3, https://matplotlib.org/</dc:title>
     </cc:Agent>
    </dc:creator>
   </cc:Work>
  </rdf:RDF>
 </metadata>
 <defs>
  <style type="text/css">*{stroke-linejoin: round; stroke-linecap: butt}</style>
 </defs>
 <g id="figure_1">
  <g id="patch_1">
   <path d="M 0 345.6 
L 460.8 345.6 
L 460.8 0 
L 0 0 
z
" style="fill: #ffffff"/>
  </g>
  <g id="axes_1">
   <g id="patch_2">
    <path d="M 51.05 279.561175 
L 450 279.561175 
L 450 25.44 
L 51.05 25.44 
z
" style="fill: #ffffff"/>
   </g>
   <g id="matplotlib.axis_1">
    <g id="xtick_1">
     <g id="line2d_1">
      <path d="M 119.818318 279.561175 
L 119.818318 25.44 
" clip-path="url(#p38c74d6ad5)" style="fill: none; stroke: #b0b0b0; stroke-width: 0.8; stroke-linecap: square"/>
     </g>
     <g id="line2d_2">
      <defs>
       <path id="m1b9037d8d3" d="M 0 0 
L 0 3.5 
" style="stroke: #000000; stroke-width: 0.8"/>
      </defs>
      <g>
       <use xlink:href="#m1b9037d8d3" x="119.818318" y="279.561175" style="stroke: #000000; stroke-width: 0.8"/>
      </g>
     </g>
     <g id="text_1">
      <!-- 2023-11-02 -->
      <g transform="translate(77.253804 333.028035) rotate(-45) scale(0.1 -0.1)">
       <defs>
        <path id="DejaVuSans-32" d="M 1228 531 
L 3431 531 
L 3431 0 
L 469 0 
L 469 531 
Q 828 903 1448 1529 
Q 2069 2156 2228 2338 
Q 2531 2678 2651 2914 
Q 2772 3150 2772 3378 
Q 2772 3750 2511 3984 
Q 2250 4219 1831 4219 
Q 1534 4219 1204 4116 
Q 875 4013 500 3803 
L 500 4441 
Q 881 4594 1212 4672 
Q 1544 4750 1819 4750 
Q 2544 4750 2975 4387 
Q 3406 4025 3406 3419 
Q 3406 3131 3298 2873 
Q 3191 2616 2906 2266 
Q 2828 2175 2409 1742 
Q 1991 1309 1228 531 
z
" transform="scale(0.015625)"/>
        <path id="DejaVuSans-30" d="M 2034 4250 
Q 1547 4250 1301 3770 
Q 1056 3291 1056 2328 
Q 1056 1369 1301 889 
Q 1547 409 2034 409 
Q 2525 409 2770 889 
Q 3016 1369 3016 2328 
Q 3016 3291 2770 3770 
Q 2525 4250 2034 4250 
z
M 2034 4750 
Q 2819 4750 3233 4129 
Q 3647 3509 3647 2328 
Q 3647 1150 3233 529 
Q 2819 -91 2034 -91 
Q 1250 -91 836 529 
Q 422 1150 422 2328 
Q 422 3509 836 4129 
Q 1250 4750 2034 4750 
z
" transform="scale(0.015625)"/>
        <path id="DejaVuSans-33" d="M 2597 2516 
Q 3050 2419 3304 2112 
Q 3559 1806 3559 1356 
Q 3559 666 3084 287 
Q 2609 -91 1734 -91 
Q 1441 -91 1130 -33 
Q 819 25 488 141 
L 488 750 
Q 750 597 1062 519 
Q 1375 441 1716 441 
Q 2309 441 2620 675 
Q 2931 909 2931 1356 
Q 2931 1769 2642 2001 
Q 2353 2234 1838 2234 
L 1294 2234 
L 1294 2753 
L 1863 2753 
Q 2328 2753 2575 2939 
Q 2822 3125 2822 3475 
Q 2822 3834 2567 4026 
Q 2313 4219 1838 4219 
Q 1578 4219 1281 4162 
Q 984 4106 628 3988 
L 628 4550 
Q 988 4650 1302 4700 
Q 1616 4750 1894 4750 
Q 2613 4750 3031 4423 
Q 3450 4097 3450 3541 
Q 3450 3153 3228 2886 
Q 3006 2619 2597 2516 
z
" transform="scale(0.015625)"/>
        <path id="DejaVuSans-2d" d="M 313 2009 
L 1997 2009 
L 1997 1497 
L 313 1497 
L 313 2009 
z
" transform="scale(0.015625)"/>
        <path id="DejaVuSans-31" d="M 794 531 
L 1825 531 
L 1825 4091 
L 703 3866 
L 703 4441 
L 1819 4666 
L 2450 4666 
L 2450 531 
L 3481 531 
L 3481 0 
L 794 0 
L 794 531 
z
" transform="scale(0.015625)"/>
       </defs>
       <use xlink:href="#DejaVuSans-32"/>
       <use xlink:href="#DejaVuSans-30" x="63.623047"/>
       <use xlink:href="#DejaVuSans-32" x="127.246094"/>
       <use xlink:href="#DejaVuSans-33" x="190.869141"/>
       <use xlink:href="#DejaVuSans-2d" x="254.492188"/>
       <use xlink:href="#DejaVuSans-31" x="290.576172"/>
       <use xlink:href="#DejaVuSans-31" x="354.199219"/>
       <use xlink:href="#DejaVuSans-2d" x="417.822266"/>
       <use xlink:href="#DejaVuSans-30" x="453.90625"/>
       <use xlink:href="#DejaVuSans-32" x="517.529297"/>
      </g>
     </g>
    </g>
    <g id="xtick_2">
     <g id="line2d_3">
      <path d="M 188.623241 279.561175 
L 188.623241 25.44 
" clip-path="url(#p38c74d6ad5)" style="fill: none; stroke: #b0b0b0; stroke-width: 0.8; stroke-linecap: square"/>
     </g>
     <g id="line2d_4">
      <g>
       <use xlink:href="#m1b9037d8d3" x="188.623241" y="279.561175" style="stroke: #000000; stroke-width: 0.8"/>
      </g>
     </g>
     <g id="text_2">
      <!-- 2023-11-03 -->
      <g transform="translate(146.058727 333.028035) rotate(-45) scale(0.1 -0.1)">
       <use xlink:href="#DejaVuSans-32"/>
       <use xlink:href="#DejaVuSans-30" x="63.623047"/>
       <use xlink:href="#DejaVuSans-32" x="127.246094"/>
       <use xlink:href="#DejaVuSans-33" x="190.869141"/>
       <use xlink:href="#DejaVuSans-2d" x="254.492188"/>
       <use xlink:href="#DejaVuSans-31" x="290.576172"/>
       <use xlink:href="#DejaVuSans-31" x="354.199219"/>
       <use xlink:href="#DejaVuSans-2d" x="417.822266"/>
       <use xlink:href="#DejaVuSans-30" x="453.90625"/>
       <use xlink:href="#DejaVuSans-33" x="517.529297"/>
      </g>
     </g>
    </g>
    <g id="xtick_3">
     <g id="line2d_5">
      <path d="M 257.428163 279.561175 
L 257.428163 25.44 
" clip-path="url(#p38c74d6ad5)" style="fill: none; stroke: #b0b0b0; stroke-width: 0.8; stroke-linecap: square"/>
     </g>
     <g id="line2d_6">
      <g>
       <use xlink:href="#m1b9037d8d3" x="257.428163" y="279.561175" style="stroke: #000000; stroke-width: 0.8"/>
      </g>
     </g>
     <g id="text_3">
      <!-- 2023-11-04 -->
      <g transform="translate(214.86365 333.028035) rotate(-45) scale(0.1 -0.1)">
       <defs>
        <path id="DejaVuSans-34" d="M 2419 4116 
L 825 1625 
L 2419 1625 
L 2419 4116 
z
M 2253 4666 
L 3047 4666 
L 3047 1625 
L 3713 1625 
L 3713 1100 
L 3047 1100 
L 3047 0 
L 2419 0 
L 2419 1100 
L 313 1100 
L 313 1709 
L 2253 4666 
z
" transform="scale(0.015625)"/>
       </defs>
       <use xlink:href="#DejaVuSans-32"/>
       <use xlink:href="#DejaVuSans-30" x="63.623047"/>
       <use xlink:href="#DejaVuSans-32" x="127.246094"/>
       <use xlink:href="#DejaVuSans-33" x="190.869141"/>
       <use xlink:href="#DejaVuSans-2d" x="254.492188"/>
       <use xlink:href="#DejaVuSans-31" x="290.576172"/>
       <use xlink:href="#DejaVuSans-31" x="354.199219"/>
       <use xlink:href="#DejaVuSans-2d" x="417.822266"/>
       <use xlink:href="#DejaVuSans-30" x="453.90625"/>
       <use xlink:href="#DejaVuSans-34" x="517.529297"/>
      </g>
     </g>
    </g>
    <g id="xtick_4">
     <g id="line2d_7">
      <path d="M 326.233086 279.561175 
L 326.233086 25.44 
" clip-path="url(#p38c74d6ad5)" style="fill: none; stroke: #b0b0b0; stroke-width: 0.8; stroke-linecap: square"/>
     </g>
     <g id="line2d_8">
      <g>
       <use xlink:href="#m1b9037d8d3" x="326.233086" y="279.561175" style="stroke: #000000; stroke-width: 0.8"/>
      </g>
     </g>
     <g id="text_4">
      <!-- 2023-11-05 -->
      <g transform="translate(283.668573 333.028035) rotate(-45) scale(0.1 -0.1)">
       <defs>
        <path id="DejaVuSans-35" d="M 691 4666 
L 3169 4666 
L 3169 4134 
L 1269 4134 
L 1269 2991 
Q 1406 3038 1543 3061 
Q 1681 3084 1819 3084 
Q 2600 3084 3056 2656 
Q 3513 2228 3513 1497 
Q 3513 744 3044 326 
Q 2575 -91 1722 -91 
Q 1428 -91 1123 -41 
Q 819 9 494 109 
L 494 744 
Q 775 591 1075 516 
Q 1375 441 1709 441 
Q 2250 441 2565 725 
Q 2881 1009 2881 1497 
Q 2881 1984 2565 2268 
Q 2250 2553 1709 2553 
Q 1456 2553 1204 2497 
Q 953 2441 691 2322 
L 691 4666 
z
" transform="scale(0.015625)"/>
       </defs>
       <use xlink:href="#DejaVuSans-32"/>
       <use xlink:href="#DejaVuSans-30" x="63.623047"/>
       <use xlink:href="#DejaVuSans-32" x="127.246094"/>
       <use xlink:href="#DejaVuSans-33" x="190.869141"/>
       <use xlink:href="#DejaVuSans-2d" x="254.492188"/>
       <use xlink:href="#DejaVuSans-31" x="290.576172"/>
       <use xlink:href="#DejaVuSans-31" x="354.199219"/>
       <use xlink:href="#DejaVuSans-2d" x="417.822266"/>
       <use xlink:href="#DejaVuSans-30" x="453.90625"/>
       <use xlink:href="#DejaVuSans-35" x="517.529297"/>
      </g>
     </g>
    </g>
    <g id="xtick_5">
     <g id="line2d_9">
      <path d="M 395.038009 279.561175 
L 395.038009 25.44 
" clip-path="url(#p38c74d6ad5)" style="fill: none; stroke: #b0b0b0; stroke-width: 0.8; stroke-linecap: square"/>
     </g>
     <g id="line2d_10">
      <g>
       <use xlink:href="#m1b9037d8d3" x="395.038009" y="279.561175" style="stroke: #000000; stroke-width: 0.8"/>
      </g>
     </g>
     <g id="text_5">
      <!-- 2023-11-06 -->
      <g transform="translate(352.473495 333.028035) rotate(-45) scale(0.1 -0.1)">
       <defs>
        <path id="DejaVuSans-36" d="M 2113 2584 
Q 1688 2584 1439 2293 
Q 1191 2003 1191 1497 
Q 1191 994 1439 701 
Q 1688 409 2113 409 
Q 2538 409 2786 701 
Q 3034 994 3034 1497 
Q 3034 2003 2786 2293 
Q 2538 2584 2113 2584 
z
M 3366 4563 
L 3366 3988 
Q 3128 4100 2886 4159 
Q 2644 4219 2406 4219 
Q 1781 4219 1451 3797 
Q 1122 3375 1075 2522 
Q 1259 2794 1537 2939 
Q 1816 3084 2150 3084 
Q 2853 3084 3261 2657 
Q 3669 2231 3669 1497 
Q 3669 778 3244 343 
Q 2819 -91 2113 -91 
Q 1303 -91 875 529 
Q 447 1150 447 2328 
Q 447 3434 972 4092 
Q 1497 4750 2381 4750 
Q 2619 4750 2861 4703 
Q 3103 4656 3366 4563 
z
" transform="scale(0.015625)"/>
       </defs>
       <use xlink:href="#DejaVuSans-32"/>
       <use xlink:href="#DejaVuSans-30" x="63.623047"/>
       <use xlink:href="#DejaVuSans-32" x="127.246094"/>
       <use xlink:href="#DejaVuSans-33" x="190.869141"/>
       <use xlink:href="#DejaVuSans-2d" x="254.492188"/>
       <use xlink:href="#DejaVuSans-31" x="290.576172"/>
       <use xlink:href="#DejaVuSans-31" x="354.199219"/>
       <use xlink:href="#DejaVuSans-2d" x="417.822266"/>
       <use xlink:href="#DejaVuSans-30" x="453.90625"/>
       <use xlink:href="#DejaVuSans-36" x="517.529297"/>
      </g>
     </g>
    </g>
   </g>
   <g id="matplotlib.axis_2">
    <g id="ytick_1">
     <g id="line2d_11">
      <path d="M 51.05 279.561175 
L 450 279.561175 
" clip-path="url(#p38c74d6ad5)" style="fill: none; stroke: #b0b0b0; stroke-width: 0.8; stroke-linecap: square"/>
     </g>
     <g id="line2d_12">
      <defs>
       <path id="m1ace364183" d="M 0 0 
L -3.5 0 
" style="stroke: #000000; stroke-width: 0.8"/>
      </defs>
      <g>
       <use xlink:href="#m1ace364183" x="51.05" y="279.561175" style="stroke: #000000; stroke-width: 0.8"/>
      </g>
     </g>
     <g id="text_6">
      <!-- 0 -->
      <g transform="translate(37.6875 283.360394) scale(0.1 -0.1)">
       <use xlink:href="#DejaVuSans-30"/>
      </g>
     </g>
    </g>
    <g id="ytick_2">
     <g id="line2d_13">
      <path d="M 51.05 228.73694 
L 450 228.73694 
" clip-path="url(#p38c74d6ad5)" style="fill: none; stroke: #b0b0b0; stroke-width: 0.8; stroke-linecap: square"/>
     </g>
     <g id="line2d_14">
      <g>
       <use xlink:href="#m1ace364183" x="51.05" y="228.73694" style="stroke: #000000; stroke-width: 0.8"/>
      </g>
     </g>
     <g id="text_7">
      <!-- 20 -->
      <g transform="translate(31.325 232.536159) scale(0.1 -0.1)">
       <use xlink:href="#DejaVuSans-32"/>
       <use xlink:href="#DejaVuSans-30" x="63.623047"/>
      </g>
     </g>
    </g>
    <g id="ytick_3">
     <g id="line2d_15">
      <path d="M 51.05 177.912705 
L 450 177.912705 
" clip-path="url(#p38c74d6ad5)" style="fill: none; stroke: #b0b0b0; stroke-width: 0.8; stroke-linecap: square"/>
     </g>
     <g id="line2d_16">
      <g>
       <use xlink:href="#m1ace364183" x="51.05" y="177.912705" style="stroke: #000000; stroke-width: 0.8"/>
      </g>
     </g>
     <g id="text_8">
      <!-- 40 -->
      <g transform="translate(31.325 181.711924) scale(0.1 -0.1)">
       <use xlink:href="#DejaVuSans-34"/>
       <use xlink:href="#DejaVuSans-30" x="63.623047"/>
      </g>
     </g>
    </g>
    <g id="ytick_4">
     <g id="line2d_17">
      <path d="M 51.05 127.08847 
L 450 127.08847 
" clip-path="url(#p38c74d6ad5)" style="fill: none; stroke: #b0b0b0; stroke-width: 0.8; stroke-linecap: square"/>
     </g>
     <g id="line2d_18">
      <g>
       <use xlink:href="#m1ace364183" x="51.05" y="127.08847" style="stroke: #000000; stroke-width: 0.8"/>
      </g>
     </g>
     <g id="text_9">
      <!-- 60 -->
      <g transform="translate(31.325 130.887689) scale(0.1 -0.1)">
       <use xlink:href="#DejaVuSans-36"/>
       <use xlink:href="#DejaVuSans-30" x="63.623047"/>
      </g>
     </g>
    </g>
    <g id="ytick_5">
     <g id="line2d_19">
      <path d="M 51.05 76.264235 
L 450 76.264235 
" clip-path="url(#p38c74d6ad5)" style="fill: none; stroke: #b0b0b0; stroke-width: 0.8; stroke-linecap: square"/>
     </g>
     <g id="line2d_20">
      <g>
       <use xlink:href="#m1ace364183" x="51.05" y="76.264235" style="stroke: #000000; stroke-width: 0.8"/>
      </g>
     </g>
     <g id="text_10">
      <!-- 80 -->
      <g transform="translate(31.325 80.063454) scale(0.1 -0.1)">
       <defs>
        <path id="DejaVuSans-38" d="M 2034 2216 
Q 1584 2216 1326 1975 
Q 1069 1734 1069 1313 
Q 1069 891 1326 650 
Q 1584 409 2034 409 
Q 2484 409 2743 651 
Q 3003 894 3003 1313 
Q 3003 1734 2745 1975 
Q 2488 2216 2034 2216 
z
M 1403 2484 
Q 997 2584 770 2862 
Q 544 3141 544 3541 
Q 544 4100 942 4425 
Q 1341 4750 2034 4750 
Q 2731 4750 3128 4425 
Q 3525 4100 3525 3541 
Q 3525 3141 3298 2862 
Q 3072 2584 2669 2484 
Q 3125 2378 3379 2068 
Q 3634 1759 3634 1313 
Q 3634 634 3220 271 
Q 2806 -91 2034 -91 
Q 1263 -91 848 271 
Q 434 634 434 1313 
Q 434 1759 690 2068 
Q 947 2378 1403 2484 
z
M 1172 3481 
Q 1172 3119 1398 2916 
Q 1625 2713 2034 2713 
Q 2441 2713 2670 2916 
Q 2900 3119 2900 3481 
Q 2900 3844 2670 4047 
Q 2441 4250 2034 4250 
Q 1625 4250 1398 4047 
Q 1172 3844 1172 3481 
z
" transform="scale(0.015625)"/>
       </defs>
       <use xlink:href="#DejaVuSans-38"/>
       <use xlink:href="#DejaVuSans-30" x="63.623047"/>
      </g>
     </g>
    </g>
    <g id="ytick_6">
     <g id="line2d_21">
      <path d="M 51.05 25.44 
L 450 25.44 
" clip-path="url(#p38c74d6ad5)" style="fill: none; stroke: #b0b0b0; stroke-width: 0.8; stroke-linecap: square"/>
     </g>
     <g id="line2d_22">
      <g>
       <use xlink:href="#m1ace364183" x="51.05" y="25.44" style="stroke: #000000; stroke-width: 0.8"/>
      </g>
     </g>
     <g id="text_11">
      <!-- 100 -->
      <g transform="translate(24.9625 29.239219) scale(0.1 -0.1)">
       <use xlink:href="#DejaVuSans-31"/>
       <use xlink:href="#DejaVuSans-30" x="63.623047"/>
       <use xlink:href="#DejaVuSans-30" x="127.246094"/>
      </g>
     </g>
    </g>
    <g id="text_12">
     <!-- Humidity [%RH] -->
     <g transform="translate(18.882812 192.647463) rotate(-90) scale(0.1 -0.1)">
      <defs>
       <path id="DejaVuSans-48" d="M 628 4666 
L 1259 4666 
L 1259 2753 
L 3553 2753 
L 3553 4666 
L 4184 4666 
L 4184 0 
L 3553 0 
L 3553 2222 
L 1259 2222 
L 1259 0 
L 628 0 
L 628 4666 
z
" transform="scale(0.015625)"/>
       <path id="DejaVuSans-75" d="M 544 1381 
L 544 3500 
L 1119 3500 
L 1119 1403 
Q 1119 906 1312 657 
Q 1506 409 1894 409 
Q 2359 409 2629 706 
Q 2900 1003 2900 1516 
L 2900 3500 
L 3475 3500 
L 3475 0 
L 2900 0 
L 2900 538 
Q 2691 219 2414 64 
Q 2138 -91 1772 -91 
Q 1169 -91 856 284 
Q 544 659 544 1381 
z
M 1991 3584 
L 1991 3584 
z
" transform="scale(0.015625)"/>
       <path id="DejaVuSans-6d" d="M 3328 2828 
Q 3544 3216 3844 3400 
Q 4144 3584 4550 3584 
Q 5097 3584 5394 3201 
Q 5691 2819 5691 2113 
L 5691 0 
L 5113 0 
L 5113 2094 
Q 5113 2597 4934 2840 
Q 4756 3084 4391 3084 
Q 3944 3084 3684 2787 
Q 3425 2491 3425 1978 
L 3425 0 
L 2847 0 
L 2847 2094 
Q 2847 2600 2669 2842 
Q 2491 3084 2119 3084 
Q 1678 3084 1418 2786 
Q 1159 2488 1159 1978 
L 1159 0 
L 581 0 
L 581 3500 
L 1159 3500 
L 1159 2956 
Q 1356 3278 1631 3431 
Q 1906 3584 2284 3584 
Q 2666 3584 2933 3390 
Q 3200 3197 3328 2828 
z
" transform="scale(0.015625)"/>
       <path id="DejaVuSans-69" d="M 603 3500 
L 1178 3500 
L 1178 0 
L 603 0 
L 603 3500 
z
M 603 4863 
L 1178 4863 
L 1178 4134 
L 603 4134 
L 603 4863 
z
" transform="scale(0.015625)"/>
       <path id="DejaVuSans-64" d="M 2906 2969 
L 2906 4863 
L 3481 4863 
L 3481 0 
L 2906 0 
L 2906 525 
Q 2725 213 2448 61 
Q 2172 -91 1784 -91 
Q 1150 -91 751 415 
Q 353 922 353 1747 
Q 353 2572 751 3078 
Q 1150 3584 1784 3584 
Q 2172 3584 2448 3432 
Q 2725 3281 2906 2969 
z
M 947 1747 
Q 947 1113 1208 752 
Q 1469 391 1925 391 
Q 2381 391 2643 752 
Q 2906 1113 2906 1747 
Q 2906 2381 2643 2742 
Q 2381 3103 1925 3103 
Q 1469 3103 1208 2742 
Q 947 2381 947 1747 
z
" transform="scale(0.015625)"/>
       <path id="DejaVuSans-74" d="M 1172 4494 
L 1172 3500 
L 2356 3500 
L 2356 3053 
L 1172 3053 
L 1172 1153 
Q 1172 725 1289 603 
Q 1406 481 1766 481 
L 2356 481 
L 2356 0 
L 1766 0 
Q 1100 0 847 248 
Q 594 497 594 1153 
L 594 3053 
L 172 3053 
L 172 3500 
L 594 3500 
L 594 4494 
L 1172 4494 
z
" transform="scale(0.015625)"/>
       <path id="DejaVuSans-79" d="M 2059 -325 
Q 1816 -950 1584 -1140 
Q 1353 -1331 966 -1331 
L 506 -1331 
L 506 -850 
L 844 -850 
Q 1081 -850 1212 -737 
Q 1344 -625 1503 -206 
L 1606 56 
L 191 3500 
L 800 3500 
L 1894 763 
L 2988 3500 
L 3597 3500 
L 2059 -325 
z
" transform="scale(0.015625)"/>
       <path id="DejaVuSans-20" transform="scale(0.015625)"/>
       <path id="DejaVuSans-5b" d="M 550 4863 
L 1875 4863 
L 1875 4416 
L 1125 4416 
L 1125 -397 
L 1875 -397 
L 1875 -844 
L 550 -844 
L 550 4863 
z
" transform="scale(0.015625)"/>
       <path id="DejaVuSans-25" d="M 4653 2053 
Q 4381 2053 4226 1822 
Q 4072 1591 4072 1178 
Q 4072 772 4226 539 
Q 4381 306 4653 306 
Q 4919 306 5073 539 
Q 5228 772 5228 1178 
Q 5228 1588 5073 1820 
Q 4919 2053 4653 2053 
z
M 4653 2450 
Q 5147 2450 5437 2106 
Q 5728 1763 5728 1178 
Q 5728 594 5436 251 
Q 5144 -91 4653 -91 
Q 4153 -91 3862 251 
Q 3572 594 3572 1178 
Q 3572 1766 3864 2108 
Q 4156 2450 4653 2450 
z
M 1428 4353 
Q 1159 4353 1004 4120 
Q 850 3888 850 3481 
Q 850 3069 1003 2837 
Q 1156 2606 1428 2606 
Q 1700 2606 1854 2837 
Q 2009 3069 2009 3481 
Q 2009 3884 1853 4118 
Q 1697 4353 1428 4353 
z
M 4250 4750 
L 4750 4750 
L 1831 -91 
L 1331 -91 
L 4250 4750 
z
M 1428 4750 
Q 1922 4750 2215 4408 
Q 2509 4066 2509 3481 
Q 2509 2891 2217 2550 
Q 1925 2209 1428 2209 
Q 931 2209 642 2551 
Q 353 2894 353 3481 
Q 353 4063 643 4406 
Q 934 4750 1428 4750 
z
" transform="scale(0.015625)"/>
       <path id="DejaVuSans-52" d="M 2841 2188 
Q 3044 2119 3236 1894 
Q 3428 1669 3622 1275 
L 4263 0 
L 3584 0 
L 2988 1197 
Q 2756 1666 2539 1819 
Q 2322 1972 1947 1972 
L 1259 1972 
L 1259 0 
L 628 0 
L 628 4666 
L 2053 4666 
Q 2853 4666 3247 4331 
Q 3641 3997 3641 3322 
Q 3641 2881 3436 2590 
Q 3231 2300 2841 2188 
z
M 1259 4147 
L 1259 2491 
L 2053 2491 
Q 2509 2491 2742 2702 
Q 2975 2913 2975 3322 
Q 2975 3731 2742 3939 
Q 2509 4147 2053 4147 
L 1259 4147 
z
" transform="scale(0.015625)"/>
       <path id="DejaVuSans-5d" d="M 1947 4863 
L 1947 -844 
L 622 -844 
L 622 -397 
L 1369 -397 
L 1369 4416 
L 622 4416 
L 622 4863 
L 1947 4863 
z
" transform="scale(0.015625)"/>
      </defs>
      <use xlink:href="#DejaVuSans-48"/>
      <use xlink:href="#DejaVuSans-75" x="75.195312"/>
      <use xlink:href="#DejaVuSans-6d" x="138.574219"/>
      <use xlink:href="#DejaVuSans-69" x="235.986328"/>
      <use xlink:href="#DejaVuSans-64" x="263.769531"/>
      <use xlink:href="#DejaVuSans-69" x="327.246094"/>
      <use xlink:href="#DejaVuSans-74" x="355.029297"/>
      <use xlink:href="#DejaVuSans-79" x="394.238281"/>
      <use xlink:href="#DejaVuSans-20" x="453.417969"/>
      <use xlink:href="#DejaVuSans-5b" x="485.205078"/>
      <use xlink:href="#DejaVuSans-25" x="524.21875"/>
      <use xlink:href="#DejaVuSans-52" x="619.238281"/>
      <use xlink:href="#DejaVuSans-48" x="688.720703"/>
      <use xlink:href="#DejaVuSans-5d" x="763.916016"/>
     </g>
    </g>
   </g>
   <g id="line2d_23">
    <path d="M 51.05 58.475753 
L 51.240964 58.475753 
L 51.355902 55.934541 
L 51.393864 55.934541 
L 51.508747 53.393329 
L 51.546764 53.393329 
L 51.623695 50.852118 
L 52.005456 50.852118 
L 52.120353 48.310906 
L 52.922846 48.310906 
L 53.037739 50.852118 
L 53.266986 50.852118 
L 53.381543 53.393329 
L 53.649326 53.393329 
L 53.763792 55.934541 
L 54.56649 55.934541 
L 54.681182 58.475753 
L 55.139875 58.475753 
L 55.216326 61.016965 
L 55.292776 61.016965 
L 55.407625 58.475753 
L 56.745312 58.475753 
L 56.860137 61.016965 
L 56.93665 61.016965 
L 57.051107 58.475753 
L 57.089535 58.475753 
L 57.204008 55.934541 
L 57.242426 55.934541 
L 57.356905 53.393329 
L 57.548234 53.393329 
L 57.662708 55.934541 
L 58.542075 55.934541 
L 58.65655 58.475753 
L 58.809449 58.475753 
L 58.962343 61.016965 
L 59.306641 61.016965 
L 59.421044 63.558176 
L 59.803288 63.558176 
L 59.918173 61.016965 
L 59.994621 61.016965 
L 60.109087 63.558176 
L 61.026949 63.558176 
L 61.17937 58.475753 
L 61.255824 58.475753 
L 61.370695 55.934541 
L 61.676536 55.934541 
L 61.790969 58.475753 
L 62.058757 58.475753 
L 62.173212 61.016965 
L 62.326116 61.016965 
L 62.402562 63.558176 
L 62.55546 63.558176 
L 62.67031 66.099388 
L 63.205289 66.099388 
L 63.319951 63.558176 
L 63.358367 63.558176 
L 63.472853 61.016965 
L 63.511277 61.016965 
L 63.625752 63.558176 
L 64.275778 63.558176 
L 64.39024 61.016965 
L 65.001836 61.016965 
L 65.116714 58.475753 
L 65.613427 58.475753 
L 65.766722 63.558176 
L 65.842779 63.558176 
L 65.99568 68.6406 
L 66.072117 68.6406 
L 66.186944 71.181812 
L 66.225028 71.181812 
L 66.3399 73.723023 
L 66.530824 73.723023 
L 66.6457 76.264235 
L 66.683721 76.264235 
L 66.836623 73.723023 
L 66.913067 73.723023 
L 67.027887 76.264235 
L 67.065968 76.264235 
L 67.180845 73.723023 
L 67.218867 73.723023 
L 67.333792 71.181812 
L 67.792452 71.181812 
L 67.90691 73.723023 
L 68.55697 73.723023 
L 68.671404 76.264235 
L 69.588794 76.264235 
L 69.818142 71.181812 
L 69.933001 71.181812 
L 70.04749 68.6406 
L 70.276837 68.6406 
L 70.429738 66.099388 
L 70.468134 66.099388 
L 70.582634 63.558176 
L 70.659081 63.558176 
L 70.773975 61.016965 
L 71.156111 61.016965 
L 71.270678 58.475753 
L 72.111621 58.475753 
L 72.226535 61.016965 
L 72.302982 61.016965 
L 72.455872 63.558176 
L 73.029016 63.558176 
L 73.143922 66.099388 
L 73.296654 66.099388 
L 73.411264 68.6406 
L 73.449716 68.6406 
L 73.564161 71.181812 
L 73.602629 71.181812 
L 73.717059 73.723023 
L 73.755513 73.723023 
L 73.869962 76.264235 
L 73.984627 76.264235 
L 74.214224 86.429082 
L 74.443536 76.264235 
L 75.169599 76.264235 
L 75.322495 86.429082 
L 75.513815 111.8412 
L 75.551843 111.8412 
L 75.857636 127.08847 
L 76.010532 127.08847 
L 76.049005 124.547258 
L 76.087399 127.08847 
L 76.316329 122.006047 
L 76.431257 122.006047 
L 76.54568 124.547258 
L 76.584156 124.547258 
L 76.622124 122.006047 
L 76.660623 124.547258 
L 76.698573 124.547258 
L 76.775024 127.08847 
L 76.889768 127.08847 
L 77.195675 142.335741 
L 77.233714 142.335741 
L 77.425094 134.712105 
L 77.654282 144.876952 
L 77.730811 144.876952 
L 77.883802 139.794529 
L 77.960258 139.794529 
L 78.1511 147.418164 
L 78.18959 147.418164 
L 78.304002 144.876952 
L 78.418939 144.876952 
L 78.533347 147.418164 
L 78.724706 139.794529 
L 78.762686 139.794529 
L 79.030311 127.08847 
L 79.144935 127.08847 
L 79.259892 124.547258 
L 79.29783 124.547258 
L 79.41278 122.006047 
L 79.450728 122.006047 
L 79.565602 124.547258 
L 79.642138 124.547258 
L 79.756527 127.08847 
L 80.673908 127.08847 
L 80.826801 122.006047 
L 80.979698 122.006047 
L 81.05615 124.547258 
L 81.247399 124.547258 
L 81.361951 127.08847 
L 81.667743 127.08847 
L 81.78265 129.629682 
L 81.820904 129.629682 
L 81.973537 127.08847 
L 82.012006 127.08847 
L 82.126432 124.547258 
L 82.20288 124.547258 
L 82.317675 122.006047 
L 82.585114 122.006047 
L 82.700044 124.547258 
L 82.890919 124.547258 
L 83.005822 122.006047 
L 83.043813 122.006047 
L 83.158728 119.464835 
L 83.196714 122.006047 
L 83.349613 119.464835 
L 83.693842 119.464835 
L 83.808302 122.006047 
L 83.884752 122.006047 
L 83.961539 124.547258 
L 84.266993 124.547258 
L 84.381922 122.006047 
L 84.458427 122.006047 
L 84.572793 127.08847 
L 84.64924 124.547258 
L 84.726054 124.547258 
L 84.802137 127.08847 
L 85.107934 127.08847 
L 85.299242 144.876952 
L 85.528559 132.170894 
L 85.681613 139.794529 
L 85.795971 137.253317 
L 85.948863 137.253317 
L 86.178211 127.08847 
L 86.254661 127.08847 
L 86.331108 124.547258 
L 86.369591 127.08847 
L 86.407556 124.547258 
L 86.675395 124.547258 
L 86.789799 122.006047 
L 86.942704 122.006047 
L 86.981128 119.464835 
L 87.019151 122.006047 
L 87.134092 122.006047 
L 87.248489 124.547258 
L 87.401391 124.547258 
L 87.51633 122.006047 
L 87.936531 122.006047 
L 87.974899 119.464835 
L 88.01298 122.006047 
L 88.204403 122.006047 
L 88.318765 124.547258 
L 88.548119 124.547258 
L 88.662985 122.006047 
L 88.777464 122.006047 
L 88.892362 124.547258 
L 89.15971 124.547258 
L 89.27457 122.006047 
L 89.847751 122.006047 
L 90.077098 132.170894 
L 90.115535 132.170894 
L 90.229996 134.712105 
L 90.306447 134.712105 
L 90.459696 129.629682 
L 90.574241 132.170894 
L 90.65073 132.170894 
L 90.765133 129.629682 
L 90.803574 129.629682 
L 90.918031 127.08847 
L 91.109472 127.08847 
L 91.223825 124.547258 
L 91.682519 124.547258 
L 91.797487 122.006047 
L 91.950192 122.006047 
L 92.026807 124.547258 
L 92.14121 122.006047 
L 93.249975 122.006047 
L 93.402759 116.923623 
L 93.51729 116.923623 
L 93.632304 114.382411 
L 93.670186 114.382411 
L 93.785024 111.8412 
L 93.975982 111.8412 
L 94.358228 101.676353 
L 94.969819 101.676353 
L 95.084756 99.135141 
L 95.314113 99.135141 
L 95.4289 96.593929 
L 95.581413 96.593929 
L 95.696377 94.052717 
L 95.734309 94.052717 
L 95.849318 96.593929 
L 96.116556 96.593929 
L 96.269454 94.052717 
L 96.804594 94.052717 
L 96.919256 76.264235 
L 96.995876 76.264235 
L 97.110393 73.723023 
L 97.30179 73.723023 
L 97.41619 71.181812 
L 97.492637 71.181812 
L 97.569551 68.6406 
L 97.798436 68.6406 
L 97.913414 66.099388 
L 98.792279 66.099388 
L 98.907271 63.558176 
L 99.136427 63.558176 
L 99.250979 61.016965 
L 99.709674 61.016965 
L 99.862571 58.475753 
L 99.939021 58.475753 
L 100.053956 55.934541 
L 100.091922 55.934541 
L 100.206882 53.393329 
L 100.627058 53.393329 
L 100.74205 55.934541 
L 102.38539 55.934541 
L 102.500261 53.393329 
L 103.035536 53.393329 
L 103.149878 50.852118 
L 104.14371 50.852118 
L 104.258697 48.310906 
L 105.78763 48.310906 
L 105.902039 45.769694 
L 106.208203 45.769694 
L 106.360734 43.228482 
L 106.819422 43.228482 
L 106.895872 40.687271 
L 107.393091 40.687271 
L 107.507458 38.146059 
L 109.342237 38.146059 
L 109.457215 35.604847 
L 110.603726 35.604847 
L 110.71832 33.063635 
L 112.362211 33.063635 
L 112.476639 30.522424 
L 114.234962 30.522424 
L 114.349953 27.981212 
L 166.488126 27.981212 
L 166.640952 33.063635 
L 166.67902 33.063635 
L 166.793981 35.604847 
L 166.870415 35.604847 
L 166.984819 38.146059 
L 167.099763 38.146059 
L 167.214162 40.687271 
L 167.290618 40.687271 
L 167.405523 43.228482 
L 168.016903 43.228482 
L 168.131552 45.769694 
L 168.513803 45.769694 
L 168.628764 48.310906 
L 169.546088 48.310906 
L 169.660543 45.769694 
L 170.386972 45.769694 
L 170.501485 43.228482 
L 171.495332 43.228482 
L 171.648227 40.687271 
L 174.018154 40.687271 
L 174.133139 43.228482 
L 174.706201 43.228482 
L 174.821182 40.687271 
L 176.923227 40.687271 
L 177.038029 38.146059 
L 177.764168 38.146059 
L 177.879128 35.604847 
L 178.452221 35.604847 
L 178.567124 33.063635 
L 179.102238 33.063635 
L 179.216709 30.522424 
L 180.439891 30.522424 
L 180.554746 27.981212 
L 182.007271 27.981212 
L 182.121776 30.522424 
L 182.504015 30.522424 
L 182.656916 33.063635 
L 182.809814 33.063635 
L 182.924725 35.604847 
L 183.153945 35.604847 
L 183.268506 38.146059 
L 183.536403 38.146059 
L 183.650755 40.687271 
L 183.995089 40.687271 
L 184.109448 43.228482 
L 184.950388 43.228482 
L 185.065388 45.769694 
L 185.982461 45.769694 
L 186.097128 43.228482 
L 186.364877 43.228482 
L 186.479376 40.687271 
L 186.823672 40.687271 
L 186.938065 38.146059 
L 187.397163 38.146059 
L 187.511533 35.604847 
L 187.970437 35.604847 
L 188.085306 38.146059 
L 188.199627 38.146059 
L 188.31415 40.687271 
L 188.352655 40.687271 
L 188.46705 43.228482 
L 188.543498 43.228482 
L 188.658414 45.769694 
L 189.231544 45.769694 
L 189.346561 43.228482 
L 189.690238 43.228482 
L 189.805156 40.687271 
L 190.225875 40.687271 
L 190.378281 38.146059 
L 190.990312 38.146059 
L 191.104766 35.604847 
L 191.86933 35.604847 
L 191.983714 33.063635 
L 193.24531 33.063635 
L 193.359801 30.522424 
L 194.08631 30.522424 
L 194.200739 33.063635 
L 194.430088 33.063635 
L 194.506534 35.604847 
L 194.812331 35.604847 
L 194.927331 38.146059 
L 195.271417 38.146059 
L 195.385859 40.687271 
L 197.793851 40.687271 
L 197.908762 38.146059 
L 198.596852 38.146059 
L 198.711243 35.604847 
L 199.131932 35.604847 
L 199.246382 38.146059 
L 199.781527 38.146059 
L 199.896509 40.687271 
L 200.698918 40.687271 
L 200.813798 43.228482 
L 202.342829 43.228482 
L 202.457702 40.687271 
L 203.833336 40.687271 
L 203.986236 43.228482 
L 204.062962 43.228482 
L 204.215579 48.310906 
L 204.330517 48.310906 
L 204.444924 50.852118 
L 204.674275 50.852118 
L 204.789144 48.310906 
L 205.171527 48.310906 
L 205.285869 45.769694 
L 205.591664 45.769694 
L 205.706636 48.310906 
L 206.050843 48.310906 
L 206.165187 45.769694 
L 207.312067 45.769694 
L 207.426443 43.228482 
L 209.031876 43.228482 
L 209.146816 40.687271 
L 209.605552 40.687271 
L 209.71992 43.228482 
L 211.096346 43.228482 
L 211.210861 45.769694 
L 211.363801 45.769694 
L 211.478251 43.228482 
L 212.089845 43.228482 
L 212.204749 45.769694 
L 212.357609 45.769694 
L 212.47209 48.310906 
L 212.62499 45.769694 
L 212.663425 45.769694 
L 212.777889 48.310906 
L 212.892913 45.769694 
L 213.351379 45.769694 
L 213.465928 43.228482 
L 214.077523 43.228482 
L 214.192362 40.687271 
L 214.68958 40.687271 
L 214.803916 43.228482 
L 215.37752 43.228482 
L 215.530062 45.769694 
L 215.835853 45.769694 
L 215.950874 48.310906 
L 216.523897 48.310906 
L 216.638884 45.769694 
L 219.046736 45.769694 
L 219.161552 48.310906 
L 222.831277 48.310906 
L 222.94564 50.852118 
L 223.251438 50.852118 
L 223.404333 48.310906 
L 224.016324 48.310906 
L 224.168829 50.852118 
L 224.283764 50.852118 
L 224.398173 48.310906 
L 224.703975 48.310906 
L 224.856872 50.852118 
L 224.933316 50.852118 
L 225.048218 53.393329 
L 225.277596 53.393329 
L 225.392012 50.852118 
L 225.774258 50.852118 
L 225.927156 55.934541 
L 226.080059 55.934541 
L 226.156922 58.475753 
L 226.271283 58.475753 
L 226.38585 61.016965 
L 226.462301 61.016965 
L 226.577244 63.558176 
L 226.844546 63.558176 
L 226.997442 66.099388 
L 227.035871 66.099388 
L 227.073893 63.558176 
L 227.112385 66.099388 
L 227.37969 66.099388 
L 227.494588 68.6406 
L 227.914832 68.6406 
L 228.029794 66.099388 
L 228.22063 66.099388 
L 228.373521 71.181812 
L 228.488425 71.181812 
L 228.602873 68.6406 
L 229.138021 68.6406 
L 229.252991 66.099388 
L 229.290918 66.099388 
L 229.40589 63.558176 
L 229.443815 63.558176 
L 229.558827 61.016965 
L 229.978962 61.016965 
L 230.093946 58.475753 
L 231.278599 58.475753 
L 231.393589 55.934541 
L 231.890193 55.934541 
L 232.04309 58.475753 
L 232.195989 58.475753 
L 232.310899 61.016965 
L 232.692917 61.016965 
L 232.769536 58.475753 
L 232.884032 61.016965 
L 233.113379 61.016965 
L 233.228232 63.558176 
L 233.534131 63.558176 
L 233.648521 61.016965 
L 234.107688 61.016965 
L 234.222105 58.475753 
L 234.298646 58.475753 
L 234.413013 55.934541 
L 234.642362 55.934541 
L 234.757317 53.393329 
L 235.02461 53.393329 
L 235.139578 50.852118 
L 235.941995 50.852118 
L 236.056996 48.310906 
L 236.515604 48.310906 
L 236.63004 50.852118 
L 236.668361 50.852118 
L 236.821379 55.934541 
L 236.936226 55.934541 
L 237.088733 58.475753 
L 237.203623 58.475753 
L 237.318085 55.934541 
L 237.47098 55.934541 
L 237.585981 53.393329 
L 238.159024 53.393329 
L 238.273902 50.852118 
L 238.311924 50.852118 
L 238.464822 55.934541 
L 238.541271 55.934541 
L 238.656177 58.475753 
L 238.732711 58.475753 
L 238.847065 61.016965 
L 238.885513 61.016965 
L 239.038492 66.099388 
L 239.267787 66.099388 
L 239.382211 68.6406 
L 239.764456 68.6406 
L 239.879142 71.181812 
L 239.993804 68.6406 
L 240.873263 68.6406 
L 240.987652 66.099388 
L 241.102624 66.099388 
L 241.216999 63.558176 
L 241.561296 63.558176 
L 241.599248 61.016965 
L 241.637788 63.558176 
L 242.096284 63.558176 
L 242.21084 61.016965 
L 242.440186 61.016965 
L 242.554933 63.558176 
L 243.204684 63.558176 
L 243.319534 66.099388 
L 244.236844 66.099388 
L 244.351421 63.558176 
L 244.733671 63.558176 
L 244.810119 61.016965 
L 245.039467 61.016965 
L 245.192368 66.099388 
L 245.268818 66.099388 
L 245.383641 68.6406 
L 245.498166 68.6406 
L 245.575052 71.181812 
L 245.918821 71.181812 
L 246.033311 68.6406 
L 246.339466 68.6406 
L 246.453989 71.181812 
L 246.644908 71.181812 
L 246.759777 73.723023 
L 246.912644 73.723023 
L 247.027679 76.264235 
L 247.21851 76.264235 
L 247.332953 78.805447 
L 247.447818 76.264235 
L 247.944553 76.264235 
L 247.982963 73.723023 
L 248.021006 76.264235 
L 248.059353 76.264235 
L 248.097453 73.723023 
L 248.135853 76.264235 
L 248.36516 76.264235 
L 248.480106 73.723023 
L 248.556144 73.723023 
L 248.670971 71.181812 
L 249.320645 71.181812 
L 249.435488 68.6406 
L 250.008684 68.6406 
L 250.123556 66.099388 
L 250.161581 66.099388 
L 250.27646 68.6406 
L 250.849632 68.6406 
L 250.96453 71.181812 
L 251.614126 71.181812 
L 251.729048 73.723023 
L 251.767025 73.723023 
L 251.881785 76.264235 
L 251.996376 73.723023 
L 252.187663 73.723023 
L 252.302175 76.264235 
L 252.378618 76.264235 
L 252.53152 81.346659 
L 252.646469 81.346659 
L 252.761148 83.88787 
L 252.913765 86.429082 
L 253.028729 86.429082 
L 253.143115 83.88787 
L 253.296016 83.88787 
L 253.410961 81.346659 
L 253.448917 81.346659 
L 253.601812 83.88787 
L 253.67826 83.88787 
L 253.793218 86.429082 
L 253.946153 86.429082 
L 254.060508 88.970294 
L 254.175508 88.970294 
L 254.213734 91.511506 
L 254.442757 86.429082 
L 254.672108 86.429082 
L 254.863483 78.805447 
L 254.901456 78.805447 
L 255.054362 76.264235 
L 255.666323 76.264235 
L 255.818854 73.723023 
L 256.048205 73.723023 
L 256.163137 71.181812 
L 256.965596 71.181812 
L 257.080506 73.723023 
L 257.271394 73.723023 
L 257.386362 76.264235 
L 257.539253 76.264235 
L 257.730088 83.88787 
L 257.806865 83.88787 
L 257.959438 88.970294 
L 258.074404 88.970294 
L 258.18879 91.511506 
L 258.494587 91.511506 
L 258.647485 88.970294 
L 258.800385 88.970294 
L 258.915362 91.511506 
L 259.144731 91.511506 
L 259.2595 88.970294 
L 259.641333 78.805447 
L 259.832792 78.805447 
L 259.947137 76.264235 
L 260.061862 76.264235 
L 260.215035 81.346659 
L 260.29149 81.346659 
L 260.482286 88.970294 
L 260.864533 88.970294 
L 260.979459 91.511506 
L 261.170331 91.511506 
L 261.285206 94.052717 
L 261.591055 94.052717 
L 261.705482 91.511506 
L 261.781932 91.511506 
L 261.896867 94.052717 
L 261.97331 94.052717 
L 262.087727 96.593929 
L 262.469979 96.593929 
L 262.584889 99.135141 
L 262.928676 99.135141 
L 262.966991 101.676353 
L 263.005129 99.135141 
L 263.234475 99.135141 
L 263.349326 101.676353 
L 263.540273 101.676353 
L 263.693172 106.758776 
L 263.846075 106.758776 
L 263.960993 109.299988 
L 263.998972 109.299988 
L 264.113889 111.8412 
L 264.381221 111.8412 
L 264.610569 101.676353 
L 264.687019 101.676353 
L 264.801929 99.135141 
L 264.992812 99.135141 
L 265.145718 101.676353 
L 265.451517 101.676353 
L 265.566467 99.135141 
L 265.642836 99.135141 
L 265.757608 96.593929 
L 265.872142 96.593929 
L 265.986661 94.052717 
L 266.292461 94.052717 
L 266.407471 91.511506 
L 266.866101 91.511506 
L 266.980508 94.052717 
L 267.018925 94.052717 
L 267.133409 96.593929 
L 267.401309 96.593929 
L 267.515657 94.052717 
L 267.859987 94.052717 
L 267.974356 96.593929 
L 268.050803 96.593929 
L 268.165747 94.052717 
L 268.203704 94.052717 
L 268.318658 96.593929 
L 268.356603 96.593929 
L 268.471568 99.135141 
L 268.662672 99.135141 
L 268.77724 101.676353 
L 269.350839 101.676353 
L 269.503346 104.217564 
L 269.541796 104.217564 
L 269.732699 111.8412 
L 269.809145 111.8412 
L 269.924067 109.299988 
L 270.038494 109.299988 
L 270.229716 101.676353 
L 270.306289 101.676353 
L 270.459241 96.593929 
L 270.573646 96.593929 
L 270.688595 99.135141 
L 270.803257 99.135141 
L 270.917824 101.676353 
L 271.032336 101.676353 
L 271.223812 109.299988 
L 271.491436 109.299988 
L 271.643941 111.8412 
L 271.873287 111.8412 
L 271.98824 114.382411 
L 272.141134 109.299988 
L 272.408433 109.299988 
L 272.446965 106.758776 
L 272.484885 109.299988 
L 272.637781 109.299988 
L 272.752745 111.8412 
L 272.829171 111.8412 
L 272.943978 114.382411 
L 273.402281 114.382411 
L 273.517222 116.923623 
L 273.631632 116.923623 
L 273.784531 114.382411 
L 273.860981 114.382411 
L 274.013878 109.299988 
L 274.128839 111.8412 
L 274.243224 111.8412 
L 274.358208 114.382411 
L 274.396591 114.382411 
L 274.549026 111.8412 
L 274.664027 111.8412 
L 274.778374 109.299988 
L 275.237072 109.299988 
L 275.352028 111.8412 
L 275.389973 111.8412 
L 275.542873 106.758776 
L 275.619322 106.758776 
L 275.734308 104.217564 
L 275.925125 104.217564 
L 276.040044 101.676353 
L 276.192956 101.676353 
L 276.307373 99.135141 
L 276.65148 99.135141 
L 276.7281 101.676353 
L 276.842514 99.135141 
L 276.957467 99.135141 
L 277.110343 94.052717 
L 277.148314 94.052717 
L 277.301618 88.970294 
L 277.377662 88.970294 
L 277.49265 91.511506 
L 277.607015 91.511506 
L 277.721989 94.052717 
L 277.951317 94.052717 
L 278.065716 96.593929 
L 278.180666 96.593929 
L 278.295064 99.135141 
L 278.333586 96.593929 
L 278.371508 99.135141 
L 278.562921 99.135141 
L 278.677314 101.676353 
L 280.282757 101.676353 
L 280.397714 99.135141 
L 280.588555 99.135141 
L 280.703565 96.593929 
L 280.970804 96.593929 
L 281.085733 94.052717 
L 281.276603 94.052717 
L 281.467995 101.676353 
L 281.505955 101.676353 
L 281.811752 116.923623 
L 282.576241 147.418164 
L 282.844075 147.418164 
L 282.958487 144.876952 
L 283.149893 144.876952 
L 283.187832 142.335741 
L 283.226327 144.876952 
L 283.379249 144.876952 
L 283.493631 147.418164 
L 283.799432 147.418164 
L 283.952326 152.500588 
L 283.990792 152.500588 
L 284.028773 149.959376 
L 284.067256 152.500588 
L 284.181674 152.500588 
L 284.296626 157.583011 
L 284.449344 152.500588 
L 284.563923 152.500588 
L 284.678857 149.959376 
L 284.716817 149.959376 
L 284.831821 147.418164 
L 284.869717 147.418164 
L 285.023052 152.500588 
L 285.213999 172.830282 
L 285.25196 172.830282 
L 285.366775 175.371493 
L 285.481309 175.371493 
L 285.596208 177.912705 
L 285.672699 177.912705 
L 285.825351 185.53634 
L 286.016449 177.912705 
L 286.169346 177.912705 
L 286.36072 185.53634 
L 286.398691 185.53634 
L 286.589944 177.912705 
L 287.048757 177.912705 
L 287.163176 175.371493 
L 287.277915 175.371493 
L 287.316076 177.912705 
L 287.354534 175.371493 
L 287.507504 175.371493 
L 287.583942 172.830282 
L 287.698316 175.371493 
L 287.774768 175.371493 
L 287.851215 172.830282 
L 287.965889 175.371493 
L 288.080566 175.371493 
L 288.195466 177.912705 
L 288.348425 177.912705 
L 288.462806 175.371493 
L 288.501336 175.371493 
L 288.692157 167.747858 
L 288.807082 167.747858 
L 288.959904 162.665435 
L 289.189292 162.665435 
L 289.303744 165.206646 
L 289.418459 165.206646 
L 289.533094 167.747858 
L 289.571585 167.747858 
L 289.685987 165.206646 
L 290.030293 165.206646 
L 290.183053 160.124223 
L 290.259629 160.124223 
L 290.374031 157.583011 
L 290.450479 157.583011 
L 290.679822 167.747858 
L 290.718403 167.747858 
L 290.871027 162.665435 
L 290.909169 162.665435 
L 291.062066 155.041799 
L 291.100567 157.583011 
L 291.214965 147.418164 
L 291.40625 147.418164 
L 291.52118 144.876952 
L 291.559003 144.876952 
L 291.712151 139.794529 
L 292.055906 139.794529 
L 292.17081 142.335741 
L 292.209259 142.335741 
L 292.5146 134.712105 
L 292.553143 134.712105 
L 292.667499 137.253317 
L 292.74395 137.253317 
L 292.858898 134.712105 
L 292.896843 134.712105 
L 293.049741 132.170894 
L 293.241179 132.170894 
L 293.279089 129.629682 
L 293.317583 132.170894 
L 293.890685 132.170894 
L 294.005654 129.629682 
L 294.081927 129.629682 
L 294.158541 127.08847 
L 294.272932 129.629682 
L 294.311404 129.629682 
L 294.502276 142.335741 
L 294.54076 139.794529 
L 294.578726 139.794529 
L 294.693701 137.253317 
L 294.770074 137.253317 
L 294.884519 139.794529 
L 294.922985 139.794529 
L 295.037416 142.335741 
L 295.114248 142.335741 
L 295.228735 147.418164 
L 295.343217 144.876952 
L 295.763909 144.876952 
L 295.916707 139.794529 
L 295.99328 139.794529 
L 296.107707 137.253317 
L 296.184155 137.253317 
L 296.337052 132.170894 
L 296.451997 132.170894 
L 296.566811 134.712105 
L 296.604684 134.712105 
L 296.719297 137.253317 
L 296.834295 137.253317 
L 297.025088 144.876952 
L 297.216453 137.253317 
L 297.292662 137.253317 
L 297.445871 149.959376 
L 297.522342 149.959376 
L 297.560237 147.418164 
L 297.598766 149.959376 
L 297.675231 149.959376 
L 297.789581 152.500588 
L 298.248277 152.500588 
L 298.286767 149.959376 
L 298.401174 139.794529 
L 298.439545 139.794529 
L 298.554074 137.253317 
L 298.783421 132.170894 
L 298.898376 132.170894 
L 299.012765 129.629682 
L 299.127724 132.170894 
L 299.204093 132.170894 
L 299.357008 127.08847 
L 299.815779 127.08847 
L 299.930155 129.629682 
L 300.159484 129.629682 
L 300.274396 127.08847 
L 300.388845 127.08847 
L 300.503809 129.629682 
L 300.694646 129.629682 
L 300.809455 127.08847 
L 301.229791 127.08847 
L 301.344612 124.547258 
L 301.536084 124.547258 
L 301.688481 127.08847 
L 301.956367 127.08847 
L 302.070731 124.547258 
L 302.491518 124.547258 
L 302.60587 122.006047 
L 302.644374 122.006047 
L 302.758768 124.547258 
L 302.835217 124.547258 
L 302.950159 122.006047 
L 302.988538 122.006047 
L 303.293918 114.382411 
L 303.332418 114.382411 
L 303.446816 111.8412 
L 303.867515 111.8412 
L 303.981958 114.382411 
L 304.020443 114.382411 
L 304.134854 111.8412 
L 304.173369 111.8412 
L 304.287751 109.299988 
L 304.441125 109.299988 
L 304.47887 111.8412 
L 304.517102 109.299988 
L 304.59355 109.299988 
L 304.708576 111.8412 
L 305.014256 111.8412 
L 305.12903 109.299988 
L 305.205147 109.299988 
L 305.320085 106.758776 
L 305.702159 106.758776 
L 305.816742 104.217564 
L 305.969638 101.676353 
L 306.122537 101.676353 
L 306.237486 99.135141 
L 306.351883 99.135141 
L 306.390376 101.676353 
L 306.428329 99.135141 
L 306.581681 99.135141 
L 306.810574 94.052717 
L 306.849062 94.052717 
L 306.963479 96.593929 
L 307.116376 96.593929 
L 307.231352 99.135141 
L 307.38401 99.135141 
L 307.498618 96.593929 
L 307.651521 96.593929 
L 307.766491 99.135141 
L 308.03415 99.135141 
L 308.148604 96.593929 
L 308.18667 96.593929 
L 308.339563 91.511506 
L 308.454335 91.511506 
L 308.568913 88.970294 
L 308.64536 88.970294 
L 308.72221 86.429082 
L 308.836578 86.429082 
L 308.951158 83.88787 
L 309.02761 83.88787 
L 309.142619 81.346659 
L 309.256961 81.346659 
L 309.371855 78.805447 
L 309.639203 78.805447 
L 309.754132 76.264235 
L 310.97712 76.264235 
L 311.091743 73.723023 
L 311.244641 73.723023 
L 311.359669 71.181812 
L 311.779782 71.181812 
L 311.894742 68.6406 
L 313.347304 68.6406 
L 313.461674 66.099388 
L 313.84392 66.099388 
L 313.958878 63.558176 
L 314.111804 63.558176 
L 314.226166 61.016965 
L 314.684863 61.016965 
L 314.799839 58.475753 
L 315.449355 58.475753 
L 315.602257 55.934541 
L 316.825448 55.934541 
L 316.940368 53.393329 
L 317.207694 53.393329 
L 317.322603 55.934541 
L 317.628444 55.934541 
L 317.742839 53.393329 
L 318.88958 53.393329 
L 319.004537 55.934541 
L 319.50118 55.934541 
L 319.654079 58.475753 
L 319.806973 58.475753 
L 319.921895 55.934541 
L 322.559161 55.934541 
L 322.674065 53.393329 
L 323.591476 53.393329 
L 323.705903 50.852118 
L 326.573059 50.852118 
L 326.687442 48.310906 
L 330.280567 48.310906 
L 330.433467 45.769694 
L 330.548437 48.310906 
L 330.70134 48.310906 
L 330.815716 45.769694 
L 332.688978 45.769694 
L 332.803401 48.310906 
L 333.797245 48.310906 
L 333.912153 45.769694 
L 336.014289 45.769694 
L 336.091194 48.310906 
L 337.543769 48.310906 
L 337.696178 45.769694 
L 347.328824 45.769694 
L 347.443699 43.228482 
L 352.145136 43.228482 
L 352.260152 45.769694 
L 352.680284 45.769694 
L 352.833189 48.310906 
L 354.553613 48.310906 
L 354.667971 50.852118 
L 355.203112 50.852118 
L 355.318044 53.393329 
L 355.432466 53.393329 
L 355.5474 55.934541 
L 355.814711 55.934541 
L 355.853068 53.393329 
L 355.891162 55.934541 
L 356.579204 55.934541 
L 356.69413 58.475753 
L 356.808548 58.475753 
L 356.92352 61.016965 
L 357.152724 61.016965 
L 357.267241 63.558176 
L 357.458619 63.558176 
L 357.611473 68.6406 
L 358.031737 68.6406 
L 358.146599 71.181812 
L 358.681811 71.181812 
L 358.796228 68.6406 
L 359.025575 68.6406 
L 359.064145 71.181812 
L 359.102025 68.6406 
L 359.40782 68.6406 
L 359.56072 86.429082 
L 359.752167 94.052717 
L 359.828579 94.052717 
L 359.981232 99.135141 
L 360.05785 99.135141 
L 360.287275 109.299988 
L 360.401656 109.299988 
L 360.554552 104.217564 
L 360.707449 109.299988 
L 360.898876 101.676353 
L 360.936796 101.676353 
L 361.166143 111.8412 
L 361.319042 111.8412 
L 361.471938 114.382411 
L 361.548394 114.382411 
L 361.777731 124.547258 
L 361.816193 124.547258 
L 361.930626 122.006047 
L 361.969101 122.006047 
L 362.08385 124.547258 
L 362.121766 124.547258 
L 362.274953 129.629682 
L 362.389719 129.629682 
L 362.504251 127.08847 
L 362.542222 127.08847 
L 362.695117 119.464835 
L 362.848015 99.135141 
L 363.000913 91.511506 
L 363.039439 101.676353 
L 363.115888 99.135141 
L 363.192338 99.135141 
L 363.306706 101.676353 
L 363.727508 101.676353 
L 363.918298 109.299988 
L 364.033334 109.299988 
L 364.224534 101.676353 
L 364.33892 101.676353 
L 364.759235 124.547258 
L 364.797701 124.547258 
L 364.874256 122.006047 
L 364.988577 124.547258 
L 365.103511 124.547258 
L 365.256437 119.464835 
L 365.409337 119.464835 
L 365.600171 111.8412 
L 365.791485 111.8412 
L 365.829515 109.299988 
L 365.944442 114.382411 
L 365.982418 114.382411 
L 366.17375 106.758776 
L 366.288208 109.299988 
L 366.365077 109.299988 
L 366.594007 104.217564 
L 366.708942 104.217564 
L 366.785418 106.758776 
L 366.938243 101.676353 
L 366.976248 101.676353 
L 367.052702 99.135141 
L 367.54988 99.135141 
L 367.587844 96.593929 
L 367.740739 81.346659 
L 368.046539 81.346659 
L 368.199438 76.264235 
L 368.275883 76.264235 
L 368.390904 94.052717 
L 368.467234 94.052717 
L 368.58168 91.511506 
L 368.696627 94.052717 
L 368.887472 94.052717 
L 369.002448 76.264235 
L 369.958209 76.264235 
L 370.110659 73.723023 
L 370.798703 73.723023 
L 370.91367 71.181812 
L 371.104497 71.181812 
L 371.219441 68.6406 
L 371.678122 68.6406 
L 371.792537 66.099388 
L 372.595566 66.099388 
L 372.709928 63.558176 
L 373.283571 63.558176 
L 373.397974 61.016965 
L 373.818707 61.016965 
L 373.933114 58.475753 
L 374.162463 58.475753 
L 374.238911 55.934541 
L 374.315354 55.934541 
L 374.430282 58.475753 
L 375.118256 58.475753 
L 375.232748 61.016965 
L 375.500662 61.016965 
L 375.614993 58.475753 
L 376.37948 58.475753 
L 376.532385 61.016965 
L 377.41185 61.016965 
L 377.526222 58.475753 
L 377.679122 58.475753 
L 377.794073 55.934541 
L 377.908464 58.475753 
L 378.061368 58.475753 
L 378.176371 61.016965 
L 378.443611 61.016965 
L 378.520062 63.558176 
L 379.666798 63.558176 
L 379.781674 61.016965 
L 380.813539 61.016965 
L 380.928527 63.558176 
L 383.145528 63.558176 
L 383.25991 61.016965 
L 383.489264 61.016965 
L 383.56571 58.475753 
L 383.718603 61.016965 
L 384.024406 61.016965 
L 384.139309 63.558176 
L 384.559543 63.558176 
L 384.674533 61.016965 
L 384.712443 61.016965 
L 384.827425 63.558176 
L 384.941792 63.558176 
L 385.01824 61.016965 
L 385.47694 61.016965 
L 385.591926 58.475753 
L 385.706289 58.475753 
L 385.859187 55.934541 
L 386.317885 55.934541 
L 386.432759 53.393329 
L 386.700128 53.393329 
L 386.815013 50.852118 
L 387.426649 50.852118 
L 387.541071 48.310906 
L 388.382008 48.310906 
L 388.496999 45.769694 
L 388.840704 45.769694 
L 388.955622 48.310906 
L 389.414072 48.310906 
L 389.52875 50.852118 
L 389.910995 50.852118 
L 390.025963 53.393329 
L 390.064277 53.393329 
L 390.216793 55.934541 
L 390.446139 55.934541 
L 390.561075 58.475753 
L 390.943253 58.475753 
L 391.057734 55.934541 
L 391.898676 55.934541 
L 392.013634 58.475753 
L 392.510266 58.475753 
L 392.625146 61.016965 
L 393.121859 61.016965 
L 393.236838 63.558176 
L 393.657006 63.558176 
L 393.809905 66.099388 
L 394.268597 66.099388 
L 394.345049 68.6406 
L 395.797585 68.6406 
L 395.950485 71.181812 
L 396.371247 71.181812 
L 396.485628 73.723023 
L 396.982821 73.723023 
L 397.097227 71.181812 
L 398.549761 71.181812 
L 398.62621 73.723023 
L 398.703108 71.181812 
L 399.046931 71.181812 
L 399.161355 68.6406 
L 399.696504 68.6406 
L 399.811452 71.181812 
L 400.346461 71.181812 
L 400.460994 73.723023 
L 400.613892 73.723023 
L 400.72887 76.264235 
L 401.340465 76.264235 
L 401.454831 78.805447 
L 401.837079 78.805447 
L 401.989977 83.88787 
L 402.06643 83.88787 
L 402.181415 86.429082 
L 402.44868 86.429082 
L 402.563652 88.970294 
L 402.601572 88.970294 
L 402.716503 86.429082 
L 402.983825 86.429082 
L 403.136716 83.88787 
L 403.328131 83.88787 
L 403.442516 86.429082 
L 403.595419 86.429082 
L 403.748746 81.346659 
L 403.977664 76.264235 
L 404.130563 76.264235 
L 404.245574 73.723023 
L 404.780622 73.723023 
L 404.895057 76.264235 
L 405.430207 76.264235 
L 405.545087 73.723023 
L 405.850965 73.723023 
L 405.965345 76.264235 
L 406.156644 76.264235 
L 406.271147 78.805447 
L 406.462532 78.805447 
L 406.653741 86.429082 
L 406.959189 86.429082 
L 407.07416 83.88787 
L 407.417884 83.88787 
L 407.532847 81.346659 
L 407.915121 81.346659 
L 408.029482 76.264235 
L 408.488182 76.264235 
L 408.526706 73.723023 
L 408.56463 76.264235 
L 408.870426 76.264235 
L 408.946876 73.723023 
L 409.061737 76.264235 
L 410.475869 76.264235 
L 410.590796 73.723023 
L 411.278828 73.723023 
L 411.393258 71.181812 
L 411.508248 71.181812 
L 411.623019 73.723023 
L 411.699532 73.723023 
L 411.81393 76.264235 
L 412.234204 76.264235 
L 412.387556 81.346659 
L 412.616447 81.346659 
L 412.731442 83.88787 
L 412.769348 83.88787 
L 412.884266 86.429082 
L 412.922245 86.429082 
L 413.03718 88.970294 
L 413.380947 88.970294 
L 413.495867 86.429082 
L 413.801676 86.429082 
L 413.992537 78.805447 
L 414.145436 78.805447 
L 414.260337 76.264235 
L 414.795514 76.264235 
L 414.833491 78.805447 
L 414.871856 76.264235 
L 415.636464 76.264235 
L 415.750877 73.723023 
L 415.865721 73.723023 
L 415.980664 71.181812 
L 416.974073 71.181812 
L 417.012584 73.723023 
L 417.050523 71.181812 
L 417.241931 71.181812 
L 417.356321 73.723023 
L 417.433197 73.723023 
L 417.585667 76.264235 
L 417.81502 76.264235 
L 418.006368 83.88787 
L 418.08291 83.88787 
L 418.197245 86.429082 
L 418.312173 86.429082 
L 418.465143 91.511506 
L 418.655959 91.511506 
L 418.770872 88.970294 
L 418.885824 88.970294 
L 419.153172 101.676353 
L 419.191106 101.676353 
L 419.344003 106.758776 
L 419.420454 106.758776 
L 419.458965 104.217564 
L 419.496905 106.758776 
L 419.5354 106.758776 
L 419.87915 124.547258 
L 420.223402 124.547258 
L 420.33822 127.08847 
L 420.452718 127.08847 
L 420.567186 129.629682 
L 420.643636 129.629682 
L 420.681953 127.08847 
L 420.835064 147.418164 
L 420.872985 147.418164 
L 420.911474 149.959376 
L 421.026338 137.253317 
L 421.255621 137.253317 
L 421.293715 134.712105 
L 421.408127 147.418164 
L 421.561023 142.335741 
L 421.599476 142.335741 
L 421.713921 139.794529 
L 421.828667 139.794529 
L 422.096171 152.500588 
L 422.401962 152.500588 
L 422.516642 160.124223 
L 422.707757 157.583011 
L 422.82252 152.500588 
L 423.01355 152.500588 
L 423.090003 157.583011 
L 423.128441 155.041799 
L 423.166839 155.041799 
L 423.319347 157.583011 
L 423.395795 157.583011 
L 423.5107 152.500588 
L 423.625143 155.041799 
L 423.663691 152.500588 
L 423.701592 155.041799 
L 423.778041 157.583011 
L 423.816564 155.041799 
L 423.854487 157.583011 
L 424.045833 157.583011 
L 424.122311 152.500588 
L 424.160284 155.041799 
L 424.23673 157.583011 
L 424.389631 152.500588 
L 424.466078 152.500588 
L 424.581017 149.959376 
L 424.657188 149.959376 
L 424.771876 152.500588 
L 424.886805 152.500588 
L 425.19259 167.747858 
L 425.231022 167.747858 
L 425.421782 160.124223 
L 425.459906 160.124223 
L 425.612805 165.206646 
L 425.727785 162.665435 
L 425.765704 162.665435 
L 425.804289 165.206646 
L 425.842151 162.665435 
L 425.880671 162.665435 
L 425.995053 157.583011 
L 426.07191 157.583011 
L 426.186375 160.124223 
L 426.2244 160.124223 
L 426.339289 165.206646 
L 426.377298 162.665435 
L 426.415766 165.206646 
L 426.721531 165.206646 
L 427.065337 157.583011 
L 427.242869 157.583011 
L 427.294677 160.124223 
L 427.333198 157.583011 
L 427.371531 157.583011 
L 427.600477 152.500588 
L 428.059162 152.500588 
L 428.21206 149.959376 
L 429.282345 137.253317 
L 429.435242 139.794529 
L 429.473774 137.253317 
L 429.512172 139.794529 
L 429.664596 142.335741 
L 429.817491 142.335741 
L 429.93243 147.418164 
L 430.046838 144.876952 
L 430.276575 144.876952 
L 430.429084 152.500588 
L 430.467574 152.500588 
L 430.54398 160.124223 
L 430.658425 152.500588 
L 430.696873 152.500588 
L 430.849726 147.418164 
L 431.232059 147.418164 
L 431.346465 144.876952 
L 431.499363 149.959376 
L 431.575812 149.959376 
L 431.767024 142.335741 
L 431.805158 142.335741 
L 432.034503 152.500588 
L 432.072994 152.500588 
L 432.302279 162.665435 
L 432.455 162.665435 
L 432.531621 167.747858 
L 432.569638 165.206646 
L 432.608133 165.206646 
L 432.72254 167.747858 
L 432.760888 167.747858 
L 432.837462 170.28907 
L 432.913914 165.206646 
L 432.95188 167.747858 
L 433.028329 167.747858 
L 433.066829 165.206646 
L 433.105237 167.747858 
L 433.181228 170.28907 
L 433.296189 167.747858 
L 433.334128 167.747858 
L 433.449069 170.28907 
L 433.48702 170.28907 
L 433.563473 172.830282 
L 433.678257 170.28907 
L 433.792817 170.28907 
L 434.022163 165.206646 
L 434.060664 167.747858 
L 434.213553 152.500588 
L 434.480859 152.500588 
L 434.633748 149.959376 
L 434.786644 149.959376 
L 434.901564 144.876952 
L 434.97808 147.418164 
L 435.092445 144.876952 
L 435.207383 144.876952 
L 435.245815 147.418164 
L 435.474694 142.335741 
L 435.513237 142.335741 
L 435.704033 149.959376 
L 435.856931 149.959376 
L 435.933381 147.418164 
L 436.048113 152.500588 
L 436.086279 149.959376 
L 436.201243 149.959376 
L 436.315623 152.500588 
L 436.468524 147.418164 
L 436.812708 147.418164 
L 436.965703 152.500588 
L 437.080111 152.500588 
L 437.233008 147.418164 
L 437.462357 147.418164 
L 437.615252 142.335741 
L 437.730211 142.335741 
L 437.883076 147.418164 
L 437.997494 147.418164 
L 438.073938 142.335741 
L 438.49471 142.335741 
L 438.609082 139.794529 
L 438.647473 139.794529 
L 438.761982 142.335741 
L 439.144229 122.006047 
L 439.25923 122.006047 
L 439.411977 106.758776 
L 439.64123 106.758776 
L 439.755822 104.217564 
L 443.654727 96.593929 
L 443.693178 96.593929 
L 443.807623 94.052717 
L 443.88407 94.052717 
L 443.999013 91.511506 
L 444.381232 91.511506 
L 444.495664 88.970294 
L 445.03081 88.970294 
L 445.145725 91.511506 
L 445.413054 91.511506 
L 445.489862 94.052717 
L 445.604313 94.052717 
L 445.757299 88.970294 
L 445.986597 88.970294 
L 446.139501 83.88787 
L 446.177541 83.88787 
L 446.330442 81.346659 
L 446.483334 81.346659 
L 446.598206 78.805447 
L 446.636232 78.805447 
L 446.751191 81.346659 
L 446.980262 81.346659 
L 447.094928 78.805447 
L 447.477171 78.805447 
L 447.591967 76.264235 
L 447.897894 76.264235 
L 448.012315 78.805447 
L 448.050774 78.805447 
L 448.203669 83.88787 
L 449.044608 83.88787 
L 449.159059 86.429082 
L 450 86.429082 
L 450 86.429082 
" clip-path="url(#p38c74d6ad5)" style="fill: none; stroke: #ff7f0e; stroke-width: 1.5; stroke-linecap: square"/>
   </g>
   <g id="patch_3">
    <path d="M 51.05 279.561175 
L 51.05 25.44 
" style="fill: none; stroke: #000000; stroke-width: 0.8; stroke-linejoin: miter; stroke-linecap: square"/>
   </g>
   <g id="patch_4">
    <path d="M 450 279.561175 
L 450 25.44 
" style="fill: none; stroke: #000000; stroke-width: 0.8; stroke-linejoin: miter; stroke-linecap: square"/>
   </g>
   <g id="patch_5">
    <path d="M 51.05 279.561175 
L 450 279.561175 
" style="fill: none; stroke: #000000; stroke-width: 0.8; stroke-linejoin: miter; stroke-linecap: square"/>
   </g>
   <g id="patch_6">
    <path d="M 51.05 25.44 
L 450 25.44 
" style="fill: none; stroke: #000000; stroke-width: 0.8; stroke-linejoin: miter; stroke-linecap: square"/>
   </g>
   <g id="text_13">
    <!-- November 2023 -->
    <g transform="translate(202.133125 19.44) scale(0.12 -0.12)">
     <defs>
      <path id="DejaVuSans-4e" d="M 628 4666 
L 1478 4666 
L 3547 763 
L 3547 4666 
L 4159 4666 
L 4159 0 
L 3309 0 
L 1241 3903 
L 1241 0 
L 628 0 
L 628 4666 
z
" transform="scale(0.015625)"/>
      <path id="DejaVuSans-6f" d="M 1959 3097 
Q 1497 3097 1228 2736 
Q 959 2375 959 1747 
Q 959 1119 1226 758 
Q 1494 397 1959 397 
Q 2419 397 2687 759 
Q 2956 1122 2956 1747 
Q 2956 2369 2687 2733 
Q 2419 3097 1959 3097 
z
M 1959 3584 
Q 2709 3584 3137 3096 
Q 3566 2609 3566 1747 
Q 3566 888 3137 398 
Q 2709 -91 1959 -91 
Q 1206 -91 779 398 
Q 353 888 353 1747 
Q 353 2609 779 3096 
Q 1206 3584 1959 3584 
z
" transform="scale(0.015625)"/>
      <path id="DejaVuSans-76" d="M 191 3500 
L 800 3500 
L 1894 563 
L 2988 3500 
L 3597 3500 
L 2284 0 
L 1503 0 
L 191 3500 
z
" transform="scale(0.015625)"/>
      <path id="DejaVuSans-65" d="M 3597 1894 
L 3597 1613 
L 953 1613 
Q 991 1019 1311 708 
Q 1631 397 2203 397 
Q 2534 397 2845 478 
Q 3156 559 3463 722 
L 3463 178 
Q 3153 47 2828 -22 
Q 2503 -91 2169 -91 
Q 1331 -91 842 396 
Q 353 884 353 1716 
Q 353 2575 817 3079 
Q 1281 3584 2069 3584 
Q 2775 3584 3186 3129 
Q 3597 2675 3597 1894 
z
M 3022 2063 
Q 3016 2534 2758 2815 
Q 2500 3097 2075 3097 
Q 1594 3097 1305 2825 
Q 1016 2553 972 2059 
L 3022 2063 
z
" transform="scale(0.015625)"/>
      <path id="DejaVuSans-62" d="M 3116 1747 
Q 3116 2381 2855 2742 
Q 2594 3103 2138 3103 
Q 1681 3103 1420 2742 
Q 1159 2381 1159 1747 
Q 1159 1113 1420 752 
Q 1681 391 2138 391 
Q 2594 391 2855 752 
Q 3116 1113 3116 1747 
z
M 1159 2969 
Q 1341 3281 1617 3432 
Q 1894 3584 2278 3584 
Q 2916 3584 3314 3078 
Q 3713 2572 3713 1747 
Q 3713 922 3314 415 
Q 2916 -91 2278 -91 
Q 1894 -91 1617 61 
Q 1341 213 1159 525 
L 1159 0 
L 581 0 
L 581 4863 
L 1159 4863 
L 1159 2969 
z
" transform="scale(0.015625)"/>
      <path id="DejaVuSans-72" d="M 2631 2963 
Q 2534 3019 2420 3045 
Q 2306 3072 2169 3072 
Q 1681 3072 1420 2755 
Q 1159 2438 1159 1844 
L 1159 0 
L 581 0 
L 581 3500 
L 1159 3500 
L 1159 2956 
Q 1341 3275 1631 3429 
Q 1922 3584 2338 3584 
Q 2397 3584 2469 3576 
Q 2541 3569 2628 3553 
L 2631 2963 
z
" transform="scale(0.015625)"/>
     </defs>
     <use xlink:href="#DejaVuSans-4e"/>
     <use xlink:href="#DejaVuSans-6f" x="74.804688"/>
     <use xlink:href="#DejaVuSans-76" x="135.986328"/>
     <use xlink:href="#DejaVuSans-65" x="195.166016"/>
     <use xlink:href="#DejaVuSans-6d" x="256.689453"/>
     <use xlink:href="#DejaVuSans-62" x="354.101562"/>
     <use xlink:href="#DejaVuSans-65" x="417.578125"/>
     <use xlink:href="#DejaVuSans-72" x="479.101562"/>
     <use xlink:href="#DejaVuSans-20" x="520.214844"/>
     <use xlink:href="#DejaVuSans-32" x="552.001953"/>
     <use xlink:href="#DejaVuSans-30" x="615.625"/>
     <use xlink:href="#DejaVuSans-32" x="679.248047"/>
     <use xlink:href="#DejaVuSans-33" x="742.871094"/>
    </g>
   </g>
  </g>
 </g>
 <defs>
  <clipPath id="p38c74d6ad5">
   <rect x="51.05" y="25.44" width="398.95" height="254.121175"/>
  </clipPath>
 </defs>
</svg>
