<?xml version="1.0" encoding="utf-8" standalone="no"?>
<!DOCTYPE svg PUBLIC "-//W3C//DTD SVG 1.1//EN"
  "http://www.w3.org/Graphics/SVG/1.1/DTD/svg11.dtd">
<svg xmlns:xlink="http://www.w3.org/1999/xlink" width="460.8pt" height="345.6pt" viewBox="0 0 460.8 345.6" xmlns="http://www.w3.org/2000/svg" version="1.1">
 <metadata>
  <rdf:RDF xmlns:dc="http://purl.org/dc/elements/1.1/" xmlns:cc="http://creativecommons.org/ns#" xmlns:rdf="http://www.w3.org/1999/02/22-rdf-syntax-ns#">
   <cc:Work>
    <dc:type rdf:resource="http://purl.org/dc/dcmitype/StillImage"/>
    <dc:date>2023-11-12T03:54:22.048187</dc:date>
    <dc:format>image/svg+xml</dc:format>
    <dc:creator>
     <cc:Agent>
      <dc:title>Matplotlib v3.6.3, https://matplotlib.org/</dc:title>
     </cc:Agent>
    </dc:creator>
   </cc:Work>
  </rdf:RDF>
 </metadata>
 <defs>
  <style type="text/css">*{stroke-linejoin: round; stroke-linecap: butt}</style>
 </defs>
 <g id="figure_1">
  <g id="patch_1">
   <path d="M 0 345.6 
L 460.8 345.6 
L 460.8 0 
L 0 0 
z
" style="fill: #ffffff"/>
  </g>
  <g id="axes_1">
   <g id="patch_2">
    <path d="M 51.05 279.561175 
L 450 279.561175 
L 450 25.44 
L 51.05 25.44 
z
" style="fill: #ffffff"/>
   </g>
   <g id="matplotlib.axis_1">
    <g id="xtick_1">
     <g id="line2d_1">
      <path d="M 122.517315 279.561175 
L 122.517315 25.44 
" clip-path="url(#pf2393d3dac)" style="fill: none; stroke: #b0b0b0; stroke-width: 0.8; stroke-linecap: square"/>
     </g>
     <g id="line2d_2">
      <defs>
       <path id="m6a6419f491" d="M 0 0 
L 0 3.5 
" style="stroke: #000000; stroke-width: 0.8"/>
      </defs>
      <g>
       <use xlink:href="#m6a6419f491" x="122.517315" y="279.561175" style="stroke: #000000; stroke-width: 0.8"/>
      </g>
     </g>
     <g id="text_1">
      <!-- 2023-11-03 -->
      <g transform="translate(79.952802 333.028035) rotate(-45) scale(0.1 -0.1)">
       <defs>
        <path id="DejaVuSans-32" d="M 1228 531 
L 3431 531 
L 3431 0 
L 469 0 
L 469 531 
Q 828 903 1448 1529 
Q 2069 2156 2228 2338 
Q 2531 2678 2651 2914 
Q 2772 3150 2772 3378 
Q 2772 3750 2511 3984 
Q 2250 4219 1831 4219 
Q 1534 4219 1204 4116 
Q 875 4013 500 3803 
L 500 4441 
Q 881 4594 1212 4672 
Q 1544 4750 1819 4750 
Q 2544 4750 2975 4387 
Q 3406 4025 3406 3419 
Q 3406 3131 3298 2873 
Q 3191 2616 2906 2266 
Q 2828 2175 2409 1742 
Q 1991 1309 1228 531 
z
" transform="scale(0.015625)"/>
        <path id="DejaVuSans-30" d="M 2034 4250 
Q 1547 4250 1301 3770 
Q 1056 3291 1056 2328 
Q 1056 1369 1301 889 
Q 1547 409 2034 409 
Q 2525 409 2770 889 
Q 3016 1369 3016 2328 
Q 3016 3291 2770 3770 
Q 2525 4250 2034 4250 
z
M 2034 4750 
Q 2819 4750 3233 4129 
Q 3647 3509 3647 2328 
Q 3647 1150 3233 529 
Q 2819 -91 2034 -91 
Q 1250 -91 836 529 
Q 422 1150 422 2328 
Q 422 3509 836 4129 
Q 1250 4750 2034 4750 
z
" transform="scale(0.015625)"/>
        <path id="DejaVuSans-33" d="M 2597 2516 
Q 3050 2419 3304 2112 
Q 3559 1806 3559 1356 
Q 3559 666 3084 287 
Q 2609 -91 1734 -91 
Q 1441 -91 1130 -33 
Q 819 25 488 141 
L 488 750 
Q 750 597 1062 519 
Q 1375 441 1716 441 
Q 2309 441 2620 675 
Q 2931 909 2931 1356 
Q 2931 1769 2642 2001 
Q 2353 2234 1838 2234 
L 1294 2234 
L 1294 2753 
L 1863 2753 
Q 2328 2753 2575 2939 
Q 2822 3125 2822 3475 
Q 2822 3834 2567 4026 
Q 2313 4219 1838 4219 
Q 1578 4219 1281 4162 
Q 984 4106 628 3988 
L 628 4550 
Q 988 4650 1302 4700 
Q 1616 4750 1894 4750 
Q 2613 4750 3031 4423 
Q 3450 4097 3450 3541 
Q 3450 3153 3228 2886 
Q 3006 2619 2597 2516 
z
" transform="scale(0.015625)"/>
        <path id="DejaVuSans-2d" d="M 313 2009 
L 1997 2009 
L 1997 1497 
L 313 1497 
L 313 2009 
z
" transform="scale(0.015625)"/>
        <path id="DejaVuSans-31" d="M 794 531 
L 1825 531 
L 1825 4091 
L 703 3866 
L 703 4441 
L 1819 4666 
L 2450 4666 
L 2450 531 
L 3481 531 
L 3481 0 
L 794 0 
L 794 531 
z
" transform="scale(0.015625)"/>
       </defs>
       <use xlink:href="#DejaVuSans-32"/>
       <use xlink:href="#DejaVuSans-30" x="63.623047"/>
       <use xlink:href="#DejaVuSans-32" x="127.246094"/>
       <use xlink:href="#DejaVuSans-33" x="190.869141"/>
       <use xlink:href="#DejaVuSans-2d" x="254.492188"/>
       <use xlink:href="#DejaVuSans-31" x="290.576172"/>
       <use xlink:href="#DejaVuSans-31" x="354.199219"/>
       <use xlink:href="#DejaVuSans-2d" x="417.822266"/>
       <use xlink:href="#DejaVuSans-30" x="453.90625"/>
       <use xlink:href="#DejaVuSans-33" x="517.529297"/>
      </g>
     </g>
    </g>
    <g id="xtick_2">
     <g id="line2d_3">
      <path d="M 194.003646 279.561175 
L 194.003646 25.44 
" clip-path="url(#pf2393d3dac)" style="fill: none; stroke: #b0b0b0; stroke-width: 0.8; stroke-linecap: square"/>
     </g>
     <g id="line2d_4">
      <g>
       <use xlink:href="#m6a6419f491" x="194.003646" y="279.561175" style="stroke: #000000; stroke-width: 0.8"/>
      </g>
     </g>
     <g id="text_2">
      <!-- 2023-11-05 -->
      <g transform="translate(151.439132 333.028035) rotate(-45) scale(0.1 -0.1)">
       <defs>
        <path id="DejaVuSans-35" d="M 691 4666 
L 3169 4666 
L 3169 4134 
L 1269 4134 
L 1269 2991 
Q 1406 3038 1543 3061 
Q 1681 3084 1819 3084 
Q 2600 3084 3056 2656 
Q 3513 2228 3513 1497 
Q 3513 744 3044 326 
Q 2575 -91 1722 -91 
Q 1428 -91 1123 -41 
Q 819 9 494 109 
L 494 744 
Q 775 591 1075 516 
Q 1375 441 1709 441 
Q 2250 441 2565 725 
Q 2881 1009 2881 1497 
Q 2881 1984 2565 2268 
Q 2250 2553 1709 2553 
Q 1456 2553 1204 2497 
Q 953 2441 691 2322 
L 691 4666 
z
" transform="scale(0.015625)"/>
       </defs>
       <use xlink:href="#DejaVuSans-32"/>
       <use xlink:href="#DejaVuSans-30" x="63.623047"/>
       <use xlink:href="#DejaVuSans-32" x="127.246094"/>
       <use xlink:href="#DejaVuSans-33" x="190.869141"/>
       <use xlink:href="#DejaVuSans-2d" x="254.492188"/>
       <use xlink:href="#DejaVuSans-31" x="290.576172"/>
       <use xlink:href="#DejaVuSans-31" x="354.199219"/>
       <use xlink:href="#DejaVuSans-2d" x="417.822266"/>
       <use xlink:href="#DejaVuSans-30" x="453.90625"/>
       <use xlink:href="#DejaVuSans-35" x="517.529297"/>
      </g>
     </g>
    </g>
    <g id="xtick_3">
     <g id="line2d_5">
      <path d="M 265.489977 279.561175 
L 265.489977 25.44 
" clip-path="url(#pf2393d3dac)" style="fill: none; stroke: #b0b0b0; stroke-width: 0.8; stroke-linecap: square"/>
     </g>
     <g id="line2d_6">
      <g>
       <use xlink:href="#m6a6419f491" x="265.489977" y="279.561175" style="stroke: #000000; stroke-width: 0.8"/>
      </g>
     </g>
     <g id="text_3">
      <!-- 2023-11-07 -->
      <g transform="translate(222.925463 333.028035) rotate(-45) scale(0.1 -0.1)">
       <defs>
        <path id="DejaVuSans-37" d="M 525 4666 
L 3525 4666 
L 3525 4397 
L 1831 0 
L 1172 0 
L 2766 4134 
L 525 4134 
L 525 4666 
z
" transform="scale(0.015625)"/>
       </defs>
       <use xlink:href="#DejaVuSans-32"/>
       <use xlink:href="#DejaVuSans-30" x="63.623047"/>
       <use xlink:href="#DejaVuSans-32" x="127.246094"/>
       <use xlink:href="#DejaVuSans-33" x="190.869141"/>
       <use xlink:href="#DejaVuSans-2d" x="254.492188"/>
       <use xlink:href="#DejaVuSans-31" x="290.576172"/>
       <use xlink:href="#DejaVuSans-31" x="354.199219"/>
       <use xlink:href="#DejaVuSans-2d" x="417.822266"/>
       <use xlink:href="#DejaVuSans-30" x="453.90625"/>
       <use xlink:href="#DejaVuSans-37" x="517.529297"/>
      </g>
     </g>
    </g>
    <g id="xtick_4">
     <g id="line2d_7">
      <path d="M 336.976308 279.561175 
L 336.976308 25.44 
" clip-path="url(#pf2393d3dac)" style="fill: none; stroke: #b0b0b0; stroke-width: 0.8; stroke-linecap: square"/>
     </g>
     <g id="line2d_8">
      <g>
       <use xlink:href="#m6a6419f491" x="336.976308" y="279.561175" style="stroke: #000000; stroke-width: 0.8"/>
      </g>
     </g>
     <g id="text_4">
      <!-- 2023-11-09 -->
      <g transform="translate(294.411794 333.028035) rotate(-45) scale(0.1 -0.1)">
       <defs>
        <path id="DejaVuSans-39" d="M 703 97 
L 703 672 
Q 941 559 1184 500 
Q 1428 441 1663 441 
Q 2288 441 2617 861 
Q 2947 1281 2994 2138 
Q 2813 1869 2534 1725 
Q 2256 1581 1919 1581 
Q 1219 1581 811 2004 
Q 403 2428 403 3163 
Q 403 3881 828 4315 
Q 1253 4750 1959 4750 
Q 2769 4750 3195 4129 
Q 3622 3509 3622 2328 
Q 3622 1225 3098 567 
Q 2575 -91 1691 -91 
Q 1453 -91 1209 -44 
Q 966 3 703 97 
z
M 1959 2075 
Q 2384 2075 2632 2365 
Q 2881 2656 2881 3163 
Q 2881 3666 2632 3958 
Q 2384 4250 1959 4250 
Q 1534 4250 1286 3958 
Q 1038 3666 1038 3163 
Q 1038 2656 1286 2365 
Q 1534 2075 1959 2075 
z
" transform="scale(0.015625)"/>
       </defs>
       <use xlink:href="#DejaVuSans-32"/>
       <use xlink:href="#DejaVuSans-30" x="63.623047"/>
       <use xlink:href="#DejaVuSans-32" x="127.246094"/>
       <use xlink:href="#DejaVuSans-33" x="190.869141"/>
       <use xlink:href="#DejaVuSans-2d" x="254.492188"/>
       <use xlink:href="#DejaVuSans-31" x="290.576172"/>
       <use xlink:href="#DejaVuSans-31" x="354.199219"/>
       <use xlink:href="#DejaVuSans-2d" x="417.822266"/>
       <use xlink:href="#DejaVuSans-30" x="453.90625"/>
       <use xlink:href="#DejaVuSans-39" x="517.529297"/>
      </g>
     </g>
    </g>
    <g id="xtick_5">
     <g id="line2d_9">
      <path d="M 408.462639 279.561175 
L 408.462639 25.44 
" clip-path="url(#pf2393d3dac)" style="fill: none; stroke: #b0b0b0; stroke-width: 0.8; stroke-linecap: square"/>
     </g>
     <g id="line2d_10">
      <g>
       <use xlink:href="#m6a6419f491" x="408.462639" y="279.561175" style="stroke: #000000; stroke-width: 0.8"/>
      </g>
     </g>
     <g id="text_5">
      <!-- 2023-11-11 -->
      <g transform="translate(365.898125 333.028035) rotate(-45) scale(0.1 -0.1)">
       <use xlink:href="#DejaVuSans-32"/>
       <use xlink:href="#DejaVuSans-30" x="63.623047"/>
       <use xlink:href="#DejaVuSans-32" x="127.246094"/>
       <use xlink:href="#DejaVuSans-33" x="190.869141"/>
       <use xlink:href="#DejaVuSans-2d" x="254.492188"/>
       <use xlink:href="#DejaVuSans-31" x="290.576172"/>
       <use xlink:href="#DejaVuSans-31" x="354.199219"/>
       <use xlink:href="#DejaVuSans-2d" x="417.822266"/>
       <use xlink:href="#DejaVuSans-31" x="453.90625"/>
       <use xlink:href="#DejaVuSans-31" x="517.529297"/>
      </g>
     </g>
    </g>
   </g>
   <g id="matplotlib.axis_2">
    <g id="ytick_1">
     <g id="line2d_11">
      <path d="M 51.05 279.561175 
L 450 279.561175 
" clip-path="url(#pf2393d3dac)" style="fill: none; stroke: #b0b0b0; stroke-width: 0.8; stroke-linecap: square"/>
     </g>
     <g id="line2d_12">
      <defs>
       <path id="m8201c66b3c" d="M 0 0 
L -3.5 0 
" style="stroke: #000000; stroke-width: 0.8"/>
      </defs>
      <g>
       <use xlink:href="#m8201c66b3c" x="51.05" y="279.561175" style="stroke: #000000; stroke-width: 0.8"/>
      </g>
     </g>
     <g id="text_6">
      <!-- 0 -->
      <g transform="translate(37.6875 283.360394) scale(0.1 -0.1)">
       <use xlink:href="#DejaVuSans-30"/>
      </g>
     </g>
    </g>
    <g id="ytick_2">
     <g id="line2d_13">
      <path d="M 51.05 228.73694 
L 450 228.73694 
" clip-path="url(#pf2393d3dac)" style="fill: none; stroke: #b0b0b0; stroke-width: 0.8; stroke-linecap: square"/>
     </g>
     <g id="line2d_14">
      <g>
       <use xlink:href="#m8201c66b3c" x="51.05" y="228.73694" style="stroke: #000000; stroke-width: 0.8"/>
      </g>
     </g>
     <g id="text_7">
      <!-- 20 -->
      <g transform="translate(31.325 232.536159) scale(0.1 -0.1)">
       <use xlink:href="#DejaVuSans-32"/>
       <use xlink:href="#DejaVuSans-30" x="63.623047"/>
      </g>
     </g>
    </g>
    <g id="ytick_3">
     <g id="line2d_15">
      <path d="M 51.05 177.912705 
L 450 177.912705 
" clip-path="url(#pf2393d3dac)" style="fill: none; stroke: #b0b0b0; stroke-width: 0.8; stroke-linecap: square"/>
     </g>
     <g id="line2d_16">
      <g>
       <use xlink:href="#m8201c66b3c" x="51.05" y="177.912705" style="stroke: #000000; stroke-width: 0.8"/>
      </g>
     </g>
     <g id="text_8">
      <!-- 40 -->
      <g transform="translate(31.325 181.711924) scale(0.1 -0.1)">
       <defs>
        <path id="DejaVuSans-34" d="M 2419 4116 
L 825 1625 
L 2419 1625 
L 2419 4116 
z
M 2253 4666 
L 3047 4666 
L 3047 1625 
L 3713 1625 
L 3713 1100 
L 3047 1100 
L 3047 0 
L 2419 0 
L 2419 1100 
L 313 1100 
L 313 1709 
L 2253 4666 
z
" transform="scale(0.015625)"/>
       </defs>
       <use xlink:href="#DejaVuSans-34"/>
       <use xlink:href="#DejaVuSans-30" x="63.623047"/>
      </g>
     </g>
    </g>
    <g id="ytick_4">
     <g id="line2d_17">
      <path d="M 51.05 127.08847 
L 450 127.08847 
" clip-path="url(#pf2393d3dac)" style="fill: none; stroke: #b0b0b0; stroke-width: 0.8; stroke-linecap: square"/>
     </g>
     <g id="line2d_18">
      <g>
       <use xlink:href="#m8201c66b3c" x="51.05" y="127.08847" style="stroke: #000000; stroke-width: 0.8"/>
      </g>
     </g>
     <g id="text_9">
      <!-- 60 -->
      <g transform="translate(31.325 130.887689) scale(0.1 -0.1)">
       <defs>
        <path id="DejaVuSans-36" d="M 2113 2584 
Q 1688 2584 1439 2293 
Q 1191 2003 1191 1497 
Q 1191 994 1439 701 
Q 1688 409 2113 409 
Q 2538 409 2786 701 
Q 3034 994 3034 1497 
Q 3034 2003 2786 2293 
Q 2538 2584 2113 2584 
z
M 3366 4563 
L 3366 3988 
Q 3128 4100 2886 4159 
Q 2644 4219 2406 4219 
Q 1781 4219 1451 3797 
Q 1122 3375 1075 2522 
Q 1259 2794 1537 2939 
Q 1816 3084 2150 3084 
Q 2853 3084 3261 2657 
Q 3669 2231 3669 1497 
Q 3669 778 3244 343 
Q 2819 -91 2113 -91 
Q 1303 -91 875 529 
Q 447 1150 447 2328 
Q 447 3434 972 4092 
Q 1497 4750 2381 4750 
Q 2619 4750 2861 4703 
Q 3103 4656 3366 4563 
z
" transform="scale(0.015625)"/>
       </defs>
       <use xlink:href="#DejaVuSans-36"/>
       <use xlink:href="#DejaVuSans-30" x="63.623047"/>
      </g>
     </g>
    </g>
    <g id="ytick_5">
     <g id="line2d_19">
      <path d="M 51.05 76.264235 
L 450 76.264235 
" clip-path="url(#pf2393d3dac)" style="fill: none; stroke: #b0b0b0; stroke-width: 0.8; stroke-linecap: square"/>
     </g>
     <g id="line2d_20">
      <g>
       <use xlink:href="#m8201c66b3c" x="51.05" y="76.264235" style="stroke: #000000; stroke-width: 0.8"/>
      </g>
     </g>
     <g id="text_10">
      <!-- 80 -->
      <g transform="translate(31.325 80.063454) scale(0.1 -0.1)">
       <defs>
        <path id="DejaVuSans-38" d="M 2034 2216 
Q 1584 2216 1326 1975 
Q 1069 1734 1069 1313 
Q 1069 891 1326 650 
Q 1584 409 2034 409 
Q 2484 409 2743 651 
Q 3003 894 3003 1313 
Q 3003 1734 2745 1975 
Q 2488 2216 2034 2216 
z
M 1403 2484 
Q 997 2584 770 2862 
Q 544 3141 544 3541 
Q 544 4100 942 4425 
Q 1341 4750 2034 4750 
Q 2731 4750 3128 4425 
Q 3525 4100 3525 3541 
Q 3525 3141 3298 2862 
Q 3072 2584 2669 2484 
Q 3125 2378 3379 2068 
Q 3634 1759 3634 1313 
Q 3634 634 3220 271 
Q 2806 -91 2034 -91 
Q 1263 -91 848 271 
Q 434 634 434 1313 
Q 434 1759 690 2068 
Q 947 2378 1403 2484 
z
M 1172 3481 
Q 1172 3119 1398 2916 
Q 1625 2713 2034 2713 
Q 2441 2713 2670 2916 
Q 2900 3119 2900 3481 
Q 2900 3844 2670 4047 
Q 2441 4250 2034 4250 
Q 1625 4250 1398 4047 
Q 1172 3844 1172 3481 
z
" transform="scale(0.015625)"/>
       </defs>
       <use xlink:href="#DejaVuSans-38"/>
       <use xlink:href="#DejaVuSans-30" x="63.623047"/>
      </g>
     </g>
    </g>
    <g id="ytick_6">
     <g id="line2d_21">
      <path d="M 51.05 25.44 
L 450 25.44 
" clip-path="url(#pf2393d3dac)" style="fill: none; stroke: #b0b0b0; stroke-width: 0.8; stroke-linecap: square"/>
     </g>
     <g id="line2d_22">
      <g>
       <use xlink:href="#m8201c66b3c" x="51.05" y="25.44" style="stroke: #000000; stroke-width: 0.8"/>
      </g>
     </g>
     <g id="text_11">
      <!-- 100 -->
      <g transform="translate(24.9625 29.239219) scale(0.1 -0.1)">
       <use xlink:href="#DejaVuSans-31"/>
       <use xlink:href="#DejaVuSans-30" x="63.623047"/>
       <use xlink:href="#DejaVuSans-30" x="127.246094"/>
      </g>
     </g>
    </g>
    <g id="text_12">
     <!-- Humidity [%RH] -->
     <g transform="translate(18.882812 192.647463) rotate(-90) scale(0.1 -0.1)">
      <defs>
       <path id="DejaVuSans-48" d="M 628 4666 
L 1259 4666 
L 1259 2753 
L 3553 2753 
L 3553 4666 
L 4184 4666 
L 4184 0 
L 3553 0 
L 3553 2222 
L 1259 2222 
L 1259 0 
L 628 0 
L 628 4666 
z
" transform="scale(0.015625)"/>
       <path id="DejaVuSans-75" d="M 544 1381 
L 544 3500 
L 1119 3500 
L 1119 1403 
Q 1119 906 1312 657 
Q 1506 409 1894 409 
Q 2359 409 2629 706 
Q 2900 1003 2900 1516 
L 2900 3500 
L 3475 3500 
L 3475 0 
L 2900 0 
L 2900 538 
Q 2691 219 2414 64 
Q 2138 -91 1772 -91 
Q 1169 -91 856 284 
Q 544 659 544 1381 
z
M 1991 3584 
L 1991 3584 
z
" transform="scale(0.015625)"/>
       <path id="DejaVuSans-6d" d="M 3328 2828 
Q 3544 3216 3844 3400 
Q 4144 3584 4550 3584 
Q 5097 3584 5394 3201 
Q 5691 2819 5691 2113 
L 5691 0 
L 5113 0 
L 5113 2094 
Q 5113 2597 4934 2840 
Q 4756 3084 4391 3084 
Q 3944 3084 3684 2787 
Q 3425 2491 3425 1978 
L 3425 0 
L 2847 0 
L 2847 2094 
Q 2847 2600 2669 2842 
Q 2491 3084 2119 3084 
Q 1678 3084 1418 2786 
Q 1159 2488 1159 1978 
L 1159 0 
L 581 0 
L 581 3500 
L 1159 3500 
L 1159 2956 
Q 1356 3278 1631 3431 
Q 1906 3584 2284 3584 
Q 2666 3584 2933 3390 
Q 3200 3197 3328 2828 
z
" transform="scale(0.015625)"/>
       <path id="DejaVuSans-69" d="M 603 3500 
L 1178 3500 
L 1178 0 
L 603 0 
L 603 3500 
z
M 603 4863 
L 1178 4863 
L 1178 4134 
L 603 4134 
L 603 4863 
z
" transform="scale(0.015625)"/>
       <path id="DejaVuSans-64" d="M 2906 2969 
L 2906 4863 
L 3481 4863 
L 3481 0 
L 2906 0 
L 2906 525 
Q 2725 213 2448 61 
Q 2172 -91 1784 -91 
Q 1150 -91 751 415 
Q 353 922 353 1747 
Q 353 2572 751 3078 
Q 1150 3584 1784 3584 
Q 2172 3584 2448 3432 
Q 2725 3281 2906 2969 
z
M 947 1747 
Q 947 1113 1208 752 
Q 1469 391 1925 391 
Q 2381 391 2643 752 
Q 2906 1113 2906 1747 
Q 2906 2381 2643 2742 
Q 2381 3103 1925 3103 
Q 1469 3103 1208 2742 
Q 947 2381 947 1747 
z
" transform="scale(0.015625)"/>
       <path id="DejaVuSans-74" d="M 1172 4494 
L 1172 3500 
L 2356 3500 
L 2356 3053 
L 1172 3053 
L 1172 1153 
Q 1172 725 1289 603 
Q 1406 481 1766 481 
L 2356 481 
L 2356 0 
L 1766 0 
Q 1100 0 847 248 
Q 594 497 594 1153 
L 594 3053 
L 172 3053 
L 172 3500 
L 594 3500 
L 594 4494 
L 1172 4494 
z
" transform="scale(0.015625)"/>
       <path id="DejaVuSans-79" d="M 2059 -325 
Q 1816 -950 1584 -1140 
Q 1353 -1331 966 -1331 
L 506 -1331 
L 506 -850 
L 844 -850 
Q 1081 -850 1212 -737 
Q 1344 -625 1503 -206 
L 1606 56 
L 191 3500 
L 800 3500 
L 1894 763 
L 2988 3500 
L 3597 3500 
L 2059 -325 
z
" transform="scale(0.015625)"/>
       <path id="DejaVuSans-20" transform="scale(0.015625)"/>
       <path id="DejaVuSans-5b" d="M 550 4863 
L 1875 4863 
L 1875 4416 
L 1125 4416 
L 1125 -397 
L 1875 -397 
L 1875 -844 
L 550 -844 
L 550 4863 
z
" transform="scale(0.015625)"/>
       <path id="DejaVuSans-25" d="M 4653 2053 
Q 4381 2053 4226 1822 
Q 4072 1591 4072 1178 
Q 4072 772 4226 539 
Q 4381 306 4653 306 
Q 4919 306 5073 539 
Q 5228 772 5228 1178 
Q 5228 1588 5073 1820 
Q 4919 2053 4653 2053 
z
M 4653 2450 
Q 5147 2450 5437 2106 
Q 5728 1763 5728 1178 
Q 5728 594 5436 251 
Q 5144 -91 4653 -91 
Q 4153 -91 3862 251 
Q 3572 594 3572 1178 
Q 3572 1766 3864 2108 
Q 4156 2450 4653 2450 
z
M 1428 4353 
Q 1159 4353 1004 4120 
Q 850 3888 850 3481 
Q 850 3069 1003 2837 
Q 1156 2606 1428 2606 
Q 1700 2606 1854 2837 
Q 2009 3069 2009 3481 
Q 2009 3884 1853 4118 
Q 1697 4353 1428 4353 
z
M 4250 4750 
L 4750 4750 
L 1831 -91 
L 1331 -91 
L 4250 4750 
z
M 1428 4750 
Q 1922 4750 2215 4408 
Q 2509 4066 2509 3481 
Q 2509 2891 2217 2550 
Q 1925 2209 1428 2209 
Q 931 2209 642 2551 
Q 353 2894 353 3481 
Q 353 4063 643 4406 
Q 934 4750 1428 4750 
z
" transform="scale(0.015625)"/>
       <path id="DejaVuSans-52" d="M 2841 2188 
Q 3044 2119 3236 1894 
Q 3428 1669 3622 1275 
L 4263 0 
L 3584 0 
L 2988 1197 
Q 2756 1666 2539 1819 
Q 2322 1972 1947 1972 
L 1259 1972 
L 1259 0 
L 628 0 
L 628 4666 
L 2053 4666 
Q 2853 4666 3247 4331 
Q 3641 3997 3641 3322 
Q 3641 2881 3436 2590 
Q 3231 2300 2841 2188 
z
M 1259 4147 
L 1259 2491 
L 2053 2491 
Q 2509 2491 2742 2702 
Q 2975 2913 2975 3322 
Q 2975 3731 2742 3939 
Q 2509 4147 2053 4147 
L 1259 4147 
z
" transform="scale(0.015625)"/>
       <path id="DejaVuSans-5d" d="M 1947 4863 
L 1947 -844 
L 622 -844 
L 622 -397 
L 1369 -397 
L 1369 4416 
L 622 4416 
L 622 4863 
L 1947 4863 
z
" transform="scale(0.015625)"/>
      </defs>
      <use xlink:href="#DejaVuSans-48"/>
      <use xlink:href="#DejaVuSans-75" x="75.195312"/>
      <use xlink:href="#DejaVuSans-6d" x="138.574219"/>
      <use xlink:href="#DejaVuSans-69" x="235.986328"/>
      <use xlink:href="#DejaVuSans-64" x="263.769531"/>
      <use xlink:href="#DejaVuSans-69" x="327.246094"/>
      <use xlink:href="#DejaVuSans-74" x="355.029297"/>
      <use xlink:href="#DejaVuSans-79" x="394.238281"/>
      <use xlink:href="#DejaVuSans-20" x="453.417969"/>
      <use xlink:href="#DejaVuSans-5b" x="485.205078"/>
      <use xlink:href="#DejaVuSans-25" x="524.21875"/>
      <use xlink:href="#DejaVuSans-52" x="619.238281"/>
      <use xlink:href="#DejaVuSans-48" x="688.720703"/>
      <use xlink:href="#DejaVuSans-5d" x="763.916016"/>
     </g>
    </g>
   </g>
   <g id="line2d_23">
    <path d="M 51.05 58.475753 
L 51.149203 58.475753 
L 51.288313 53.393329 
L 51.308062 53.393329 
L 51.427203 50.852118 
L 51.546346 50.852118 
L 51.665488 48.310906 
L 52.022916 48.310906 
L 52.142061 50.852118 
L 52.201692 50.852118 
L 52.320907 53.393329 
L 52.400312 53.393329 
L 52.519373 55.934541 
L 52.876766 55.934541 
L 52.996019 58.475753 
L 53.174631 58.475753 
L 53.254061 61.016965 
L 53.273962 58.475753 
L 54.008633 58.475753 
L 54.10803 61.016965 
L 54.246918 55.934541 
L 54.266876 55.934541 
L 54.385946 53.393329 
L 54.425739 53.393329 
L 54.544887 55.934541 
L 54.942025 55.934541 
L 55.061159 58.475753 
L 55.080922 58.475753 
L 55.220016 61.016965 
L 55.339206 61.016965 
L 55.438351 63.558176 
L 55.597207 63.558176 
L 55.696602 61.016965 
L 55.815743 63.558176 
L 56.232881 63.558176 
L 56.391491 55.934541 
L 56.570332 55.934541 
L 56.689494 58.475753 
L 56.768891 58.475753 
L 56.888021 61.016965 
L 56.907779 61.016965 
L 57.046896 66.099388 
L 57.364497 66.099388 
L 57.503493 61.016965 
L 57.523454 61.016965 
L 57.642599 63.558176 
L 57.920601 63.558176 
L 58.03975 61.016965 
L 58.297778 61.016965 
L 58.416921 58.475753 
L 58.61549 58.475753 
L 58.774349 66.099388 
L 58.794311 66.099388 
L 58.953157 73.723023 
L 59.092065 73.723023 
L 59.171493 76.264235 
L 59.290635 73.723023 
L 59.370064 76.264235 
L 59.390037 73.723023 
L 59.449493 73.723023 
L 59.568865 71.181812 
L 59.747463 71.181812 
L 59.8666 73.723023 
L 60.144619 73.723023 
L 60.263751 76.264235 
L 60.680636 76.264235 
L 60.89918 68.6406 
L 61.038065 68.6406 
L 61.216893 63.558176 
L 61.236635 63.558176 
L 61.355779 61.016965 
L 61.494835 61.016965 
L 61.613985 58.475753 
L 61.991209 58.475753 
L 62.13028 63.558176 
L 62.467782 63.558176 
L 62.586914 66.099388 
L 62.606816 66.099388 
L 62.745782 71.181812 
L 62.765766 71.181812 
L 62.904641 76.264235 
L 62.964208 76.264235 
L 63.08348 86.429082 
L 63.103211 83.88787 
L 63.262068 76.264235 
L 63.579784 76.264235 
L 63.699129 104.217564 
L 63.877775 124.547258 
L 63.897495 124.547258 
L 64.016636 127.08847 
L 64.155765 122.006047 
L 64.235197 122.006047 
L 64.354349 124.547258 
L 64.374064 124.547258 
L 64.592628 139.794529 
L 64.612348 139.794529 
L 64.652062 142.335741 
L 64.691776 137.253317 
L 64.73149 137.253317 
L 64.751481 134.712105 
L 64.811137 139.794529 
L 64.910296 144.876952 
L 64.93006 142.335741 
L 64.950027 142.335741 
L 65.029491 139.794529 
L 65.049203 142.335741 
L 65.148626 147.418164 
L 65.168538 144.876952 
L 65.267769 144.876952 
L 65.327203 147.418164 
L 65.366916 144.876952 
L 65.386808 144.876952 
L 65.62517 127.08847 
L 65.644914 127.08847 
L 65.784055 122.006047 
L 65.803769 122.006047 
L 65.942761 127.08847 
L 66.439193 127.08847 
L 66.578332 122.006047 
L 66.598047 122.006047 
L 66.717191 124.547258 
L 66.737113 124.547258 
L 66.856322 127.08847 
L 66.955476 127.08847 
L 67.035041 129.629682 
L 67.213761 124.547258 
L 67.233472 124.547258 
L 67.352614 122.006047 
L 67.432037 122.006047 
L 67.551183 124.547258 
L 67.590898 124.547258 
L 67.730021 119.464835 
L 67.749755 122.006047 
L 67.829183 119.464835 
L 68.008005 119.464835 
L 68.14707 124.547258 
L 68.305749 124.547258 
L 68.405196 122.006047 
L 68.464608 127.08847 
L 68.504321 124.547258 
L 68.544225 124.547258 
L 68.663177 127.08847 
L 68.742606 127.08847 
L 68.841988 144.876952 
L 68.901695 139.794529 
L 68.961114 132.170894 
L 69.020603 137.253317 
L 69.040624 139.794529 
L 69.12005 137.253317 
L 69.179456 137.253317 
L 69.378027 124.547258 
L 69.398019 127.08847 
L 69.477381 124.547258 
L 69.556879 124.547258 
L 69.6759 122.006047 
L 69.695742 122.006047 
L 69.715703 119.464835 
L 69.795165 122.006047 
L 69.914296 124.547258 
L 69.934024 124.547258 
L 70.053165 122.006047 
L 70.212021 122.006047 
L 70.231952 119.464835 
L 70.291448 122.006047 
L 70.351177 122.006047 
L 70.470291 124.547258 
L 70.529732 124.547258 
L 70.648874 122.006047 
L 70.76819 124.547258 
L 70.847445 124.547258 
L 70.966585 122.006047 
L 71.204872 122.006047 
L 71.403443 134.712105 
L 71.443158 134.712105 
L 71.522769 129.629682 
L 71.5623 132.170894 
L 71.622008 132.170894 
L 71.760867 127.08847 
L 71.860318 127.08847 
L 71.979468 124.547258 
L 72.158008 124.547258 
L 72.277149 122.006047 
L 72.29706 122.006047 
L 72.33686 124.547258 
L 72.396291 122.006047 
L 72.972279 122.006047 
L 73.131159 114.382411 
L 73.190572 114.382411 
L 73.309714 111.8412 
L 73.349429 111.8412 
L 73.607715 101.676353 
L 73.865713 101.676353 
L 73.984856 99.135141 
L 74.044569 99.135141 
L 74.16363 96.593929 
L 74.183427 96.593929 
L 74.262854 94.052717 
L 74.282887 96.593929 
L 74.461426 96.593929 
L 74.600578 94.052717 
L 74.818852 94.052717 
L 74.937996 73.723023 
L 75.077138 73.723023 
L 75.216236 68.6406 
L 75.335139 68.6406 
L 75.45428 66.099388 
L 75.851426 66.099388 
L 75.97079 63.558176 
L 76.030206 63.558176 
L 76.149451 61.016965 
L 76.327999 61.016965 
L 76.506849 55.934541 
L 76.526571 55.934541 
L 76.645711 53.393329 
L 76.804567 53.393329 
L 76.923709 55.934541 
L 77.717995 55.934541 
L 77.837351 53.393329 
L 78.055736 53.393329 
L 78.174848 50.852118 
L 78.631417 50.852118 
L 78.750561 48.310906 
L 79.48541 48.310906 
L 79.604554 45.769694 
L 79.703891 45.769694 
L 79.842823 43.228482 
L 80.021411 43.228482 
L 80.140553 40.687271 
L 80.319423 40.687271 
L 80.418552 38.146059 
L 81.331977 38.146059 
L 81.45112 35.604847 
L 81.987302 35.604847 
L 82.106571 33.063635 
L 82.90081 33.063635 
L 83.019962 30.522424 
L 83.873677 30.522424 
L 83.99282 27.981212 
L 111.018442 27.981212 
L 111.177329 35.604847 
L 111.217036 35.604847 
L 111.355894 40.687271 
L 111.435325 40.687271 
L 111.554466 43.228482 
L 111.81262 43.228482 
L 111.93193 45.769694 
L 112.070752 45.769694 
L 112.189895 48.310906 
L 112.607009 48.310906 
L 112.726172 45.769694 
L 113.043836 45.769694 
L 113.163047 43.228482 
L 113.619613 43.228482 
L 113.758744 40.687271 
L 114.930183 40.687271 
L 115.049328 43.228482 
L 115.287614 43.228482 
L 115.406757 40.687271 
L 116.439327 40.687271 
L 116.55847 38.146059 
L 116.876184 38.146059 
L 116.995329 35.604847 
L 117.233617 35.604847 
L 117.352757 33.063635 
L 117.571292 33.063635 
L 117.69049 30.522424 
L 118.266183 30.522424 
L 118.385326 27.981212 
L 119.080414 27.981212 
L 119.199589 30.522424 
L 119.338466 30.522424 
L 119.477604 33.063635 
L 119.497324 33.063635 
L 119.616699 35.604847 
L 119.676095 35.604847 
L 119.795343 38.146059 
L 119.874776 38.146059 
L 119.973895 40.687271 
L 120.113057 40.687271 
L 120.232152 43.228482 
L 120.609321 43.228482 
L 120.728465 45.769694 
L 121.145468 45.769694 
L 121.26476 43.228482 
L 121.344128 43.228482 
L 121.463271 40.687271 
L 121.582465 40.687271 
L 121.701578 38.146059 
L 121.880385 38.146059 
L 121.999321 35.604847 
L 122.178193 35.604847 
L 122.317033 40.687271 
L 122.37675 40.687271 
L 122.515603 45.769694 
L 122.83332 45.769694 
L 122.952463 43.228482 
L 123.071605 43.228482 
L 123.190747 40.687271 
L 123.349861 40.687271 
L 123.488767 38.146059 
L 123.746975 38.146059 
L 123.865891 35.604847 
L 124.203612 35.604847 
L 124.322765 33.063635 
L 124.918414 33.063635 
L 125.037518 30.522424 
L 125.355301 30.522424 
L 125.4745 33.063635 
L 125.533888 33.063635 
L 125.653032 35.604847 
L 125.732458 35.604847 
L 125.851602 38.146059 
L 125.970947 38.146059 
L 126.089886 40.687271 
L 127.281315 40.687271 
L 127.400456 38.146059 
L 127.698462 38.146059 
L 127.817603 35.604847 
L 127.976429 35.604847 
L 128.095598 38.146059 
L 128.313884 38.146059 
L 128.433029 40.687271 
L 128.790455 40.687271 
L 128.909599 43.228482 
L 129.644444 43.228482 
L 129.763539 40.687271 
L 130.41874 40.687271 
L 130.637304 48.310906 
L 130.677019 48.310906 
L 130.796173 50.852118 
L 130.855596 50.852118 
L 130.974738 48.310906 
L 131.113911 48.310906 
L 131.232911 45.769694 
L 131.332166 45.769694 
L 131.451309 48.310906 
L 131.570703 48.310906 
L 131.689593 45.769694 
L 132.225891 45.769694 
L 132.344888 43.228482 
L 133.119307 43.228482 
L 133.238448 40.687271 
L 133.417323 40.687271 
L 133.536415 43.228482 
L 134.191769 43.228482 
L 134.310735 45.769694 
L 134.330709 45.769694 
L 134.449824 43.228482 
L 134.707878 43.228482 
L 134.827021 45.769694 
L 134.846977 45.769694 
L 134.906449 48.310906 
L 134.946363 45.769694 
L 135.005844 45.769694 
L 135.065307 48.310906 
L 135.105021 45.769694 
L 135.363226 45.769694 
L 135.482436 43.228482 
L 135.740448 43.228482 
L 135.85959 40.687271 
L 136.058403 40.687271 
L 136.177304 43.228482 
L 136.415778 43.228482 
L 136.55467 45.769694 
L 136.653875 45.769694 
L 136.773021 48.310906 
L 137.011304 48.310906 
L 137.130449 45.769694 
L 138.321882 45.769694 
L 138.441026 48.310906 
L 140.287897 48.310906 
L 140.407051 50.852118 
L 140.506164 50.852118 
L 140.64534 48.310906 
L 140.903512 48.310906 
L 141.042443 50.852118 
L 141.161565 48.310906 
L 141.260737 48.310906 
L 141.439566 53.393329 
L 141.558724 53.393329 
L 141.677735 50.852118 
L 141.816733 50.852118 
L 141.955869 55.934541 
L 141.975592 55.934541 
L 142.114733 61.016965 
L 142.174162 61.016965 
L 142.293304 63.558176 
L 142.372732 63.558176 
L 142.472123 66.099388 
L 142.491875 63.558176 
L 142.571302 66.099388 
L 142.650732 66.099388 
L 142.770123 68.6406 
L 142.92873 68.6406 
L 143.047874 66.099388 
L 143.087588 66.099388 
L 143.226704 71.181812 
L 143.345788 68.6406 
L 143.564159 68.6406 
L 143.703314 63.558176 
L 143.723015 63.558176 
L 143.842157 61.016965 
L 144.001016 61.016965 
L 144.120159 58.475753 
L 144.676159 58.475753 
L 144.795567 55.934541 
L 144.993873 55.934541 
L 145.132978 58.475753 
L 145.15273 58.475753 
L 145.271873 61.016965 
L 145.410877 61.016965 
L 145.450679 58.475753 
L 145.510158 61.016965 
L 145.6293 61.016965 
L 145.748666 63.558176 
L 145.847875 63.558176 
L 145.967025 61.016965 
L 146.14583 61.016965 
L 146.284743 55.934541 
L 146.423585 55.934541 
L 146.542729 53.393329 
L 146.622158 53.393329 
L 146.741296 50.852118 
L 147.098726 50.852118 
L 147.21787 48.310906 
L 147.396707 48.310906 
L 147.555553 55.934541 
L 147.615215 55.934541 
L 147.754123 58.475753 
L 147.873293 55.934541 
L 147.893012 55.934541 
L 148.012426 53.393329 
L 148.25044 53.393329 
L 148.32987 50.852118 
L 148.349905 53.393329 
L 148.389429 53.393329 
L 148.528439 58.475753 
L 148.548463 58.475753 
L 148.707311 66.099388 
L 148.826427 66.099388 
L 148.945625 68.6406 
L 149.084439 68.6406 
L 149.144017 71.181812 
L 149.18382 68.6406 
L 149.660449 68.6406 
L 149.799297 63.558176 
L 150.017872 63.558176 
L 150.037587 61.016965 
L 150.117015 63.558176 
L 150.29579 63.558176 
L 150.414939 61.016965 
L 150.474442 61.016965 
L 150.593585 63.558176 
L 150.871588 63.558176 
L 150.990988 66.099388 
L 151.40778 66.099388 
L 151.526968 63.558176 
L 151.665875 63.558176 
L 151.785018 61.016965 
L 151.824731 61.016965 
L 151.983589 68.6406 
L 152.063019 68.6406 
L 152.182162 71.181812 
L 152.281543 71.181812 
L 152.400676 68.6406 
L 152.500062 68.6406 
L 152.619021 71.181812 
L 152.658735 71.181812 
L 152.777878 73.723023 
L 152.79782 73.723023 
L 152.916957 76.264235 
L 152.956713 76.264235 
L 153.016164 78.805447 
L 153.055882 76.264235 
L 153.333882 76.264235 
L 153.413311 73.723023 
L 153.433259 76.264235 
L 153.552381 76.264235 
L 153.69131 71.181812 
L 154.048742 71.181812 
L 154.167882 68.6406 
L 154.406168 68.6406 
L 154.485596 66.099388 
L 154.505559 68.6406 
L 154.843028 68.6406 
L 154.962173 71.181812 
L 155.240172 71.181812 
L 155.379217 76.264235 
L 155.498314 73.723023 
L 155.538116 73.723023 
L 155.677029 78.805447 
L 155.697028 78.805447 
L 155.836034 83.88787 
L 155.975038 86.429082 
L 156.094185 83.88787 
L 156.11389 83.88787 
L 156.19332 81.346659 
L 156.372179 86.429082 
L 156.451626 86.429082 
L 156.590631 91.511506 
L 156.769335 86.429082 
L 156.82875 86.429082 
L 157.007488 76.264235 
L 157.34523 76.264235 
L 157.484157 73.723023 
L 157.543612 73.723023 
L 157.662753 71.181812 
L 158.020183 71.181812 
L 158.139327 73.723023 
L 158.179041 73.723023 
L 158.298187 76.264235 
L 158.31819 76.264235 
L 158.516665 88.970294 
L 158.596193 88.970294 
L 158.715327 91.511506 
L 158.814473 91.511506 
L 158.95357 88.970294 
L 158.97333 88.970294 
L 159.092474 91.511506 
L 159.152213 91.511506 
L 159.31103 83.88787 
L 159.330761 83.88787 
L 159.469936 78.805447 
L 159.50965 78.805447 
L 159.628649 76.264235 
L 159.807337 86.429082 
L 159.827292 86.429082 
L 159.946443 88.970294 
L 160.045625 88.970294 
L 160.164767 91.511506 
L 160.204483 91.511506 
L 160.323628 94.052717 
L 160.423043 94.052717 
L 160.522201 91.511506 
L 160.661314 96.593929 
L 160.879631 96.593929 
L 160.998773 99.135141 
L 161.117918 99.135141 
L 161.137822 101.676353 
L 161.217355 99.135141 
L 161.276776 99.135141 
L 161.395918 101.676353 
L 161.435633 101.676353 
L 161.574753 106.758776 
L 161.594493 106.758776 
L 161.733619 111.8412 
L 161.872494 111.8412 
L 162.071066 99.135141 
L 162.190206 99.135141 
L 162.329326 101.676353 
L 162.428497 101.676353 
L 162.567673 96.593929 
L 162.647006 96.593929 
L 162.76621 94.052717 
L 162.865356 94.052717 
L 162.984498 91.511506 
L 163.163353 91.511506 
L 163.302216 96.593929 
L 163.441386 96.593929 
L 163.560489 94.052717 
L 163.679662 94.052717 
L 163.778789 96.593929 
L 163.858218 94.052717 
L 163.878204 96.593929 
L 163.937648 96.593929 
L 164.05679 99.135141 
L 164.096646 99.135141 
L 164.215648 101.676353 
L 164.454139 101.676353 
L 164.692222 111.8412 
L 164.851265 104.217564 
L 164.870969 104.217564 
L 165.029938 96.593929 
L 165.089369 96.593929 
L 165.228363 101.676353 
L 165.327652 101.676353 
L 165.486513 109.299988 
L 165.566148 109.299988 
L 165.705108 111.8412 
L 165.764514 111.8412 
L 165.82423 114.382411 
L 165.86396 111.8412 
L 165.883659 111.8412 
L 166.0028 109.299988 
L 166.042514 109.299988 
L 166.062531 106.758776 
L 166.141968 109.299988 
L 166.161658 109.299988 
L 166.300776 114.382411 
L 166.558805 114.382411 
L 166.677949 116.923623 
L 166.87652 109.299988 
L 167.015692 114.382411 
L 167.075334 114.382411 
L 167.253977 109.299988 
L 167.511952 109.299988 
L 167.591382 111.8412 
L 167.611329 109.299988 
L 167.651096 109.299988 
L 167.789953 104.217564 
L 167.869385 104.217564 
L 167.988528 101.676353 
L 168.00852 101.676353 
L 168.127673 99.135141 
L 168.246717 99.135141 
L 168.286519 101.676353 
L 168.345956 99.135141 
L 168.405672 99.135141 
L 168.584454 88.970294 
L 168.623957 88.970294 
L 168.763118 94.052717 
L 168.921963 94.052717 
L 169.06082 99.135141 
L 169.100535 99.135141 
L 169.120546 96.593929 
L 169.199931 99.135141 
L 169.239683 99.135141 
L 169.358697 101.676353 
L 170.133113 101.676353 
L 170.252256 99.135141 
L 170.29197 99.135141 
L 170.411115 96.593929 
L 170.490543 96.593929 
L 170.609688 94.052717 
L 170.649401 94.052717 
L 170.927404 116.923623 
L 171.384246 147.418164 
L 171.46368 147.418164 
L 171.582829 144.876952 
L 171.622549 144.876952 
L 171.642257 142.335741 
L 171.721687 144.876952 
L 171.741695 144.876952 
L 171.840829 147.418164 
L 171.959974 147.418164 
L 172.099105 152.500588 
L 172.158544 152.500588 
L 172.21826 157.583011 
L 172.257823 152.500588 
L 172.357116 152.500588 
L 172.496286 147.418164 
L 172.515972 147.418164 
L 172.853706 177.912705 
L 172.93311 177.912705 
L 173.01241 185.53634 
L 173.052212 182.995129 
L 173.191111 177.912705 
L 173.310252 185.53634 
L 173.330269 182.995129 
L 173.469109 177.912705 
L 173.647952 177.912705 
L 173.766996 175.371493 
L 173.786821 177.912705 
L 173.866248 175.371493 
L 173.886264 175.371493 
L 173.925973 172.830282 
L 173.985388 175.371493 
L 174.025104 175.371493 
L 174.064817 172.830282 
L 174.124389 175.371493 
L 174.183962 175.371493 
L 174.303103 177.912705 
L 174.323111 177.912705 
L 174.501675 167.747858 
L 174.561376 167.747858 
L 174.700244 162.665435 
L 174.759929 162.665435 
L 174.898813 167.747858 
L 174.958525 167.747858 
L 175.077688 165.206646 
L 175.196817 165.206646 
L 175.355633 157.583011 
L 175.415098 157.583011 
L 175.55428 167.747858 
L 175.573955 165.206646 
L 176.070518 139.794529 
L 176.249094 139.794529 
L 176.328758 142.335741 
L 176.507401 134.712105 
L 176.606523 137.253317 
L 176.745548 132.170894 
L 176.864826 132.170894 
L 176.884519 129.629682 
L 176.963949 132.170894 
L 177.202235 132.170894 
L 177.341382 127.08847 
L 177.519948 142.335741 
L 177.53994 139.794529 
L 177.559662 139.794529 
L 177.659065 137.253317 
L 177.797945 142.335741 
L 177.837858 142.335741 
L 177.897333 147.418164 
L 177.956804 144.876952 
L 178.175348 144.876952 
L 178.334217 137.253317 
L 178.393659 137.253317 
L 178.5328 132.170894 
L 178.671658 137.253317 
L 178.731398 137.253317 
L 178.830512 144.876952 
L 178.870229 142.335741 
L 178.969513 137.253317 
L 179.088829 149.959376 
L 179.108514 147.418164 
L 179.168252 149.959376 
L 179.287375 152.500588 
L 179.465941 152.500588 
L 179.724099 132.170894 
L 179.803658 132.170894 
L 179.863082 129.629682 
L 179.902797 132.170894 
L 179.962474 132.170894 
L 180.101368 127.08847 
L 180.280236 127.08847 
L 180.399392 129.629682 
L 180.458786 129.629682 
L 180.577936 127.08847 
L 180.69708 129.629682 
L 180.736794 129.629682 
L 180.855937 127.08847 
L 181.014795 127.08847 
L 181.133935 124.547258 
L 181.17391 124.547258 
L 181.312814 127.08847 
L 181.39224 127.08847 
L 181.51137 124.547258 
L 181.670244 124.547258 
L 181.74965 122.006047 
L 181.769363 124.547258 
L 181.84879 124.547258 
L 181.98786 119.464835 
L 182.007649 119.464835 
L 182.166507 111.8412 
L 182.385054 111.8412 
L 182.464498 114.382411 
L 182.484219 111.8412 
L 182.543941 111.8412 
L 182.6631 109.299988 
L 182.683036 109.299988 
L 182.782224 111.8412 
L 182.801934 109.299988 
L 182.881362 111.8412 
L 182.98077 111.8412 
L 183.119647 106.758776 
L 183.338125 106.758776 
L 183.477077 101.676353 
L 183.556506 101.676353 
L 183.675648 99.135141 
L 183.695644 101.676353 
L 183.775089 99.135141 
L 183.795024 99.135141 
L 183.933925 94.052717 
L 184.05307 96.593929 
L 184.072791 96.593929 
L 184.191921 99.135141 
L 184.211823 99.135141 
L 184.33112 96.593929 
L 184.350791 96.593929 
L 184.469933 99.135141 
L 184.549561 99.135141 
L 184.708219 91.511506 
L 184.767841 91.511506 
L 184.906998 86.429082 
L 184.966411 86.429082 
L 185.105363 81.346659 
L 185.184794 81.346659 
L 185.304184 78.805447 
L 185.383363 78.805447 
L 185.502508 76.264235 
L 186.078391 76.264235 
L 186.197611 73.723023 
L 186.217365 73.723023 
L 186.336507 71.181812 
L 186.495363 71.181812 
L 186.614507 68.6406 
L 187.309668 68.6406 
L 187.42872 66.099388 
L 187.567653 66.099388 
L 187.686796 63.558176 
L 187.706814 63.558176 
L 187.825954 61.016965 
L 188.004511 61.016965 
L 188.123655 58.475753 
L 188.401653 58.475753 
L 188.540817 55.934541 
L 189.116514 55.934541 
L 189.235656 53.393329 
L 189.315085 53.393329 
L 189.434227 55.934541 
L 189.533658 55.934541 
L 189.652789 53.393329 
L 190.188801 53.393329 
L 190.307945 55.934541 
L 190.506518 55.934541 
L 190.645601 58.475753 
L 190.665373 58.475753 
L 190.784517 55.934541 
L 192.095095 55.934541 
L 192.214236 53.393329 
L 192.631368 53.393329 
L 192.750533 50.852118 
L 194.180257 50.852118 
L 194.299262 48.310906 
L 196.106254 48.310906 
L 196.185683 45.769694 
L 196.205633 48.310906 
L 196.32484 48.310906 
L 196.443969 45.769694 
L 197.357389 45.769694 
L 197.476433 48.310906 
L 197.933118 48.310906 
L 198.052264 45.769694 
L 199.08484 45.769694 
L 199.20398 48.310906 
L 199.879382 48.310906 
L 200.018295 45.769694 
L 204.962578 45.769694 
L 205.081722 43.228482 
L 207.464583 43.228482 
L 207.583727 45.769694 
L 207.742584 45.769694 
L 207.881719 48.310906 
L 208.715752 48.310906 
L 208.834878 50.852118 
L 209.053157 50.852118 
L 209.192218 55.934541 
L 209.370874 55.934541 
L 209.390799 53.393329 
L 209.47029 55.934541 
L 209.768017 55.934541 
L 209.90715 61.016965 
L 210.065952 61.016965 
L 210.185157 63.558176 
L 210.22486 63.558176 
L 210.363731 68.6406 
L 210.522587 68.6406 
L 210.64173 71.181812 
L 210.860291 71.181812 
L 210.97944 68.6406 
L 211.038871 68.6406 
L 211.058908 71.181812 
L 211.118508 68.6406 
L 211.237442 68.6406 
L 211.376617 91.511506 
L 211.535321 99.135141 
L 211.575123 99.135141 
L 211.753726 109.299988 
L 211.833153 104.217564 
L 211.873132 106.758776 
L 211.91258 109.299988 
L 211.972298 106.758776 
L 212.031723 101.676353 
L 212.071437 104.217564 
L 212.230294 111.8412 
L 212.488557 124.547258 
L 212.56799 122.006047 
L 212.587722 124.547258 
L 212.647298 124.547258 
L 212.786496 129.629682 
L 213.104002 91.511506 
L 213.223145 101.676353 
L 213.481458 101.676353 
L 213.64033 109.299988 
L 213.799077 101.676353 
L 214.037407 124.547258 
L 214.057138 122.006047 
L 214.077177 122.006047 
L 214.196271 124.547258 
L 214.335135 119.464835 
L 214.355144 119.464835 
L 214.513862 111.8412 
L 214.553664 111.8412 
L 214.57342 109.299988 
L 214.593397 114.382411 
L 214.633123 114.382411 
L 214.652851 114.382411 
L 214.752245 106.758776 
L 214.791979 109.299988 
L 214.851637 109.299988 
L 215.03027 104.217564 
L 215.069998 106.758776 
L 215.109705 101.676353 
L 215.169131 101.676353 
L 215.288273 99.135141 
L 215.467125 99.135141 
L 215.705402 81.346659 
L 215.725132 81.346659 
L 215.844273 76.264235 
L 215.943677 94.052717 
L 215.963685 91.511506 
L 216.00313 91.511506 
L 216.122272 94.052717 
L 216.161984 94.052717 
L 216.28113 76.264235 
L 216.718217 76.264235 
L 216.857126 73.723023 
L 217.154842 73.723023 
L 217.273984 71.181812 
L 217.313697 71.181812 
L 217.432839 68.6406 
L 217.611687 68.6406 
L 217.730804 66.099388 
L 218.088286 66.099388 
L 218.187409 63.558176 
L 218.445695 63.558176 
L 218.564822 61.016965 
L 218.72369 61.016965 
L 218.842809 58.475753 
L 218.902266 58.475753 
L 218.981691 55.934541 
L 219.001592 58.475753 
L 219.398787 58.475753 
L 219.518017 61.016965 
L 219.597441 61.016965 
L 219.696803 58.475753 
L 220.053975 58.475753 
L 220.193114 61.016965 
L 220.590276 61.016965 
L 220.709395 58.475753 
L 220.72912 58.475753 
L 220.788835 55.934541 
L 220.808547 58.475753 
L 220.927691 58.475753 
L 221.046833 61.016965 
L 221.126261 61.016965 
L 221.245406 63.558176 
L 221.761689 63.558176 
L 221.880834 61.016965 
L 222.357404 61.016965 
L 222.476547 63.558176 
L 223.568839 63.558176 
L 223.688007 61.016965 
L 223.747405 61.016965 
L 223.787118 58.475753 
L 223.846708 61.016965 
L 224.025404 61.016965 
L 224.144546 63.558176 
L 224.303399 63.558176 
L 224.382829 61.016965 
L 224.40283 63.558176 
L 224.501972 63.558176 
L 224.621116 61.016965 
L 224.779974 61.016965 
L 224.899117 58.475753 
L 225.038266 55.934541 
L 225.216833 55.934541 
L 225.335974 53.393329 
L 225.415402 53.393329 
L 225.534543 50.852118 
L 225.79282 50.852118 
L 225.911932 48.310906 
L 226.289115 48.310906 
L 226.408258 45.769694 
L 226.527401 45.769694 
L 226.646544 48.310906 
L 226.825257 48.310906 
L 226.944528 50.852118 
L 227.083402 50.852118 
L 227.222451 55.934541 
L 227.361401 55.934541 
L 227.480544 58.475753 
L 227.619645 58.475753 
L 227.738788 55.934541 
L 228.115973 55.934541 
L 228.235113 58.475753 
L 228.433685 58.475753 
L 228.552829 61.016965 
L 228.751399 61.016965 
L 228.870543 63.558176 
L 229.0294 63.558176 
L 229.168525 66.099388 
L 229.347113 66.099388 
L 229.466257 68.6406 
L 230.1414 68.6406 
L 230.280545 71.181812 
L 230.439409 71.181812 
L 230.558391 73.723023 
L 230.757113 73.723023 
L 230.876277 71.181812 
L 231.571116 71.181812 
L 231.61083 73.723023 
L 231.650778 71.181812 
L 231.829389 71.181812 
L 231.948543 68.6406 
L 232.166833 68.6406 
L 232.285974 71.181812 
L 232.504476 71.181812 
L 232.623693 73.723023 
L 232.643402 73.723023 
L 232.762547 76.264235 
L 233.020847 76.264235 
L 233.139951 78.805447 
L 233.27883 78.805447 
L 233.437689 86.429082 
L 233.596548 86.429082 
L 233.675974 88.970294 
L 233.695945 86.429082 
L 233.874549 86.429082 
L 233.993691 83.88787 
L 234.05341 83.88787 
L 234.172555 86.429082 
L 234.192263 86.429082 
L 234.371086 76.264235 
L 234.470262 76.264235 
L 234.589405 73.723023 
L 234.807959 73.723023 
L 234.927131 76.264235 
L 235.145408 76.264235 
L 235.264551 73.723023 
L 235.363986 73.723023 
L 235.483112 76.264235 
L 235.522782 76.264235 
L 235.641985 78.805447 
L 235.681687 78.805447 
L 235.840504 86.429082 
L 235.939693 86.429082 
L 236.058836 83.88787 
L 236.177978 83.88787 
L 236.297123 81.346659 
L 236.436286 81.346659 
L 236.575125 76.264235 
L 236.733982 76.264235 
L 236.753995 73.723023 
L 236.833436 76.264235 
L 236.932553 76.264235 
L 236.972268 73.723023 
L 237.031936 76.264235 
L 237.766557 76.264235 
L 237.8857 73.723023 
L 238.183683 73.723023 
L 238.302863 71.181812 
L 238.4417 76.264235 
L 238.679987 76.264235 
L 238.819054 81.346659 
L 238.878557 81.346659 
L 239.017685 86.429082 
L 239.037414 86.429082 
L 239.156788 88.970294 
L 239.275703 88.970294 
L 239.394845 86.429082 
L 239.494266 86.429082 
L 239.653122 78.805447 
L 239.672845 78.805447 
L 239.79199 76.264235 
L 240.010551 76.264235 
L 240.030279 78.805447 
L 240.109707 76.264235 
L 240.447412 76.264235 
L 240.586277 71.181812 
L 241.142281 71.181812 
L 241.162286 73.723023 
L 241.241714 71.181812 
L 241.281429 71.181812 
L 241.420285 76.264235 
L 241.579141 76.264235 
L 241.737999 86.429082 
L 241.837404 86.429082 
L 241.976281 91.511506 
L 242.015996 91.511506 
L 242.135408 88.970294 
L 242.373425 106.758776 
L 242.41314 106.758776 
L 242.433146 104.217564 
L 242.492763 109.299988 
L 242.711147 124.547258 
L 242.83026 124.547258 
L 242.969139 129.629682 
L 243.048566 129.629682 
L 243.06847 127.08847 
L 243.187704 149.959376 
L 243.28685 137.253317 
L 243.366483 137.253317 
L 243.386272 134.712105 
L 243.445708 147.418164 
L 243.505403 142.335741 
L 243.545111 142.335741 
L 243.664172 139.794529 
L 243.862826 152.500588 
L 243.961991 152.500588 
L 244.021565 160.124223 
L 244.120847 157.583011 
L 244.279702 152.500588 
L 244.418763 157.583011 
L 244.478273 157.583011 
L 244.617441 152.500588 
L 244.756491 157.583011 
L 244.815958 157.583011 
L 244.954841 152.500588 
L 245.034269 152.500588 
L 245.133548 149.959376 
L 245.272554 155.041799 
L 245.292557 155.041799 
L 245.431647 167.747858 
L 245.47134 165.206646 
L 245.550548 160.124223 
L 245.570543 162.665435 
L 245.629977 165.206646 
L 245.669694 162.665435 
L 245.709406 162.665435 
L 245.729451 165.206646 
L 245.788833 160.124223 
L 245.868476 157.583011 
L 245.888136 160.124223 
L 245.947692 160.124223 
L 246.086763 165.206646 
L 246.205945 165.206646 
L 246.476772 157.583011 
L 246.503686 160.124223 
L 246.54361 157.583011 
L 246.722257 152.500588 
L 246.900824 152.500588 
L 246.980253 149.959376 
L 247.536251 137.253317 
L 247.754818 142.335741 
L 247.814251 142.335741 
L 247.87396 147.418164 
L 247.933394 144.876952 
L 248.052739 144.876952 
L 248.191652 160.124223 
L 248.310796 149.959376 
L 248.330532 149.959376 
L 248.449675 147.418164 
L 248.549099 147.418164 
L 248.608531 144.876952 
L 248.648243 147.418164 
L 248.668204 147.418164 
L 248.727674 149.959376 
L 248.767534 147.418164 
L 248.846815 142.335741 
L 248.886529 144.876952 
L 249.025677 157.583011 
L 249.045385 157.583011 
L 249.224202 167.747858 
L 249.263949 165.206646 
L 249.323382 167.747858 
L 249.343303 167.747858 
L 249.383082 170.28907 
L 249.422798 165.206646 
L 249.442521 167.747858 
L 249.482235 167.747858 
L 249.502235 165.206646 
L 249.561664 170.28907 
L 249.581596 167.747858 
L 249.641093 167.747858 
L 249.760235 172.830282 
L 249.879375 170.28907 
L 250.296381 149.959376 
L 250.395654 149.959376 
L 250.514801 144.876952 
L 250.614222 144.876952 
L 250.634187 147.418164 
L 250.71337 144.876952 
L 250.773109 142.335741 
L 250.812797 144.876952 
L 250.951653 149.959376 
L 250.991368 147.418164 
L 251.0313 149.959376 
L 251.150223 152.500588 
L 251.189937 152.500588 
L 251.329101 147.418164 
L 251.448165 147.418164 
L 251.587077 152.500588 
L 251.726189 147.418164 
L 251.785649 147.418164 
L 251.924795 142.335741 
L 252.063645 147.418164 
L 252.182786 142.335741 
L 252.321941 142.335741 
L 252.401299 139.794529 
L 252.421071 142.335741 
L 252.460785 142.335741 
L 252.838197 106.758776 
L 252.917542 106.758776 
L 252.977071 104.217564 
L 255.02247 96.593929 
L 255.161351 91.511506 
L 255.379904 91.511506 
L 255.498972 88.970294 
L 255.717351 88.970294 
L 255.836685 91.511506 
L 255.915921 91.511506 
L 256.015278 94.052717 
L 256.154203 88.970294 
L 256.213869 88.970294 
L 256.37267 81.346659 
L 256.471916 81.346659 
L 256.551344 78.805447 
L 256.571279 81.346659 
L 256.730063 81.346659 
L 256.849329 78.805447 
L 256.9882 78.805447 
L 257.107345 76.264235 
L 257.20676 76.264235 
L 257.365606 83.88787 
L 257.802461 83.88787 
L 257.901631 86.429082 
L 258.497347 86.429082 
L 258.636446 81.346659 
L 258.676172 81.346659 
L 258.815062 76.264235 
L 259.232125 76.264235 
L 259.311603 78.805447 
L 259.331348 76.264235 
L 259.450678 76.264235 
L 259.569633 78.805447 
L 259.589578 78.805447 
L 259.728487 73.723023 
L 260.066153 73.723023 
L 260.165345 76.264235 
L 260.403631 76.264235 
L 260.522774 73.723023 
L 260.919916 73.723023 
L 261.05904 76.264235 
L 261.714202 76.264235 
L 261.833346 78.805447 
L 262.190774 78.805447 
L 262.309917 81.346659 
L 262.349632 81.346659 
L 262.468773 83.88787 
L 262.76679 83.88787 
L 262.925574 76.264235 
L 262.9653 76.264235 
L 263.064487 78.805447 
L 263.183843 76.264235 
L 263.481567 76.264235 
L 263.620489 81.346659 
L 263.660203 81.346659 
L 263.799288 76.264235 
L 264.633303 76.264235 
L 264.752395 73.723023 
L 265.070055 73.723023 
L 265.169347 76.264235 
L 265.288491 73.723023 
L 266.043062 73.723023 
L 266.102761 71.181812 
L 266.142491 73.723023 
L 266.579235 73.723023 
L 266.698434 76.264235 
L 267.194776 76.264235 
L 267.254486 73.723023 
L 267.27442 76.264235 
L 267.59192 76.264235 
L 267.711061 78.805447 
L 267.830204 78.805447 
L 267.949346 76.264235 
L 268.267063 76.264235 
L 268.386204 73.723023 
L 268.445804 73.723023 
L 268.565071 76.264235 
L 269.458487 76.264235 
L 269.538133 73.723023 
L 269.557783 76.264235 
L 269.716754 76.264235 
L 269.855629 71.181812 
L 270.054204 71.181812 
L 270.173346 68.6406 
L 270.193347 68.6406 
L 270.312371 66.099388 
L 270.35217 66.099388 
L 270.471328 63.558176 
L 270.650133 63.558176 
L 270.769058 61.016965 
L 271.007342 61.016965 
L 271.146459 58.475753 
L 271.225899 58.475753 
L 271.345048 55.934541 
L 271.364774 55.934541 
L 271.404667 58.475753 
L 271.464154 55.934541 
L 271.503911 55.934541 
L 271.623041 58.475753 
L 271.801629 58.475753 
L 271.920771 61.016965 
L 272.059899 61.016965 
L 272.178941 58.475753 
L 273.171901 58.475753 
L 273.290923 55.934541 
L 273.310772 55.934541 
L 273.429916 53.393329 
L 273.966168 53.393329 
L 274.105057 58.475753 
L 274.621344 58.475753 
L 274.740485 61.016965 
L 274.998747 61.016965 
L 275.097915 58.475753 
L 275.197297 58.475753 
L 275.316471 55.934541 
L 275.495234 55.934541 
L 275.634185 53.393329 
L 275.991641 53.393329 
L 276.110765 50.852118 
L 276.150428 50.852118 
L 276.269476 53.393329 
L 276.428456 53.393329 
L 276.547592 50.852118 
L 277.897936 50.852118 
L 278.017029 48.310906 
L 279.943053 48.310906 
L 280.062199 50.852118 
L 281.075091 50.852118 
L 281.194161 53.393329 
L 281.611057 53.393329 
L 281.7302 55.934541 
L 282.087625 55.934541 
L 282.20677 58.475753 
L 282.564199 58.475753 
L 282.683343 55.934541 
L 283.140199 55.934541 
L 283.259315 58.475753 
L 283.398201 58.475753 
L 283.517342 55.934541 
L 283.874773 55.934541 
L 283.993915 53.393329 
L 284.03363 53.393329 
L 284.152773 50.852118 
L 284.351343 50.852118 
L 284.470745 53.393329 
L 285.105914 53.393329 
L 285.225214 55.934541 
L 285.364133 55.934541 
L 285.483246 58.475753 
L 285.761325 58.475753 
L 285.900202 63.558176 
L 285.999519 63.558176 
L 286.118672 61.016965 
L 286.138485 61.016965 
L 286.27762 81.346659 
L 286.297344 81.346659 
L 286.476146 91.511506 
L 286.595335 88.970294 
L 286.734199 88.970294 
L 286.754109 86.429082 
L 286.813627 91.511506 
L 286.972482 99.135141 
L 287.131341 99.135141 
L 287.270507 94.052717 
L 287.429294 94.052717 
L 287.548466 91.511506 
L 287.568197 91.511506 
L 287.707299 96.593929 
L 287.766766 96.593929 
L 287.88591 99.135141 
L 287.925623 99.135141 
L 288.005052 101.676353 
L 288.025016 99.135141 
L 288.124193 99.135141 
L 288.163907 101.676353 
L 288.322764 83.88787 
L 288.481621 76.264235 
L 288.541296 76.264235 
L 288.660484 73.723023 
L 288.779633 73.723023 
L 288.91848 68.6406 
L 289.097342 68.6406 
L 289.216471 66.099388 
L 289.275907 66.099388 
L 289.395048 63.558176 
L 289.653357 63.558176 
L 289.772433 61.016965 
L 289.79219 61.016965 
L 289.911333 63.558176 
L 289.95105 63.558176 
L 290.070383 61.016965 
L 290.090055 61.016965 
L 290.20933 58.475753 
L 290.40788 58.475753 
L 290.527049 55.934541 
L 290.884437 55.934541 
L 291.003552 53.393329 
L 291.28161 53.393329 
L 291.400679 50.852118 
L 292.750983 50.852118 
L 292.870161 53.393329 
L 293.048926 53.393329 
L 293.187802 55.934541 
L 293.366468 55.934541 
L 293.505531 61.016965 
L 293.585006 61.016965 
L 293.723895 66.099388 
L 294.240178 66.099388 
L 294.359322 68.6406 
L 294.51818 68.6406 
L 294.657335 71.181812 
L 295.213307 71.181812 
L 295.312687 73.723023 
L 295.431607 71.181812 
L 295.570731 71.181812 
L 295.689748 73.723023 
L 296.027542 73.723023 
L 296.086944 71.181812 
L 296.126728 73.723023 
L 296.563588 73.723023 
L 296.682726 76.264235 
L 296.702466 76.264235 
L 296.742182 78.805447 
L 296.782124 76.264235 
L 297.099611 76.264235 
L 297.218754 73.723023 
L 297.477013 73.723023 
L 297.596094 71.181812 
L 298.112375 71.181812 
L 298.231632 68.6406 
L 298.350709 68.6406 
L 298.469896 66.099388 
L 298.589047 66.099388 
L 298.708106 68.6406 
L 298.767617 68.6406 
L 298.886762 71.181812 
L 299.065501 71.181812 
L 299.184671 73.723023 
L 299.2642 73.723023 
L 299.383295 71.181812 
L 299.661315 71.181812 
L 299.76048 73.723023 
L 299.899609 71.181812 
L 300.157753 71.181812 
L 300.276768 68.6406 
L 300.356195 68.6406 
L 300.475339 66.099388 
L 300.753341 66.099388 
L 300.872483 68.6406 
L 300.991624 68.6406 
L 301.110769 71.181812 
L 301.38877 71.181812 
L 301.507915 73.723023 
L 301.726468 73.723023 
L 301.845554 71.181812 
L 302.361859 71.181812 
L 302.481028 68.6406 
L 302.540487 68.6406 
L 302.659631 66.099388 
L 302.858202 66.099388 
L 302.977345 63.558176 
L 303.096488 63.558176 
L 303.215629 61.016965 
L 303.573059 61.016965 
L 303.692203 63.558176 
L 303.712185 63.558176 
L 303.831279 66.099388 
L 304.029901 66.099388 
L 304.149065 68.6406 
L 304.188768 68.6406 
L 304.248203 66.099388 
L 304.287917 68.6406 
L 304.824209 68.6406 
L 304.943339 71.181812 
L 305.499329 71.181812 
L 305.618473 73.723023 
L 305.816991 73.723023 
L 305.936206 76.264235 
L 306.055345 76.264235 
L 306.194203 81.346659 
L 306.214182 81.346659 
L 306.333331 83.88787 
L 306.631062 83.88787 
L 306.750205 86.429082 
L 306.849572 86.429082 
L 306.988488 81.346659 
L 307.028205 81.346659 
L 307.167324 76.264235 
L 307.306204 76.264235 
L 307.425347 73.723023 
L 307.961664 73.723023 
L 308.080719 76.264235 
L 308.517612 76.264235 
L 308.636764 73.723023 
L 308.914778 73.723023 
L 309.033867 76.264235 
L 309.09336 76.264235 
L 309.252219 83.88787 
L 309.609651 83.88787 
L 309.748819 78.805447 
L 309.788496 78.805447 
L 309.907526 76.264235 
L 310.0665 76.264235 
L 310.245307 86.429082 
L 310.423935 86.429082 
L 310.543083 88.970294 
L 310.582789 88.970294 
L 310.721657 94.052717 
L 310.840803 94.052717 
L 310.979947 99.135141 
L 311.198231 99.135141 
L 311.317375 101.676353 
L 311.357089 101.676353 
L 311.496235 104.217564 
L 311.515945 104.217564 
L 311.655063 109.299988 
L 311.87338 109.299988 
L 311.992522 111.8412 
L 312.032238 111.8412 
L 312.171292 116.923623 
L 312.191094 116.923623 
L 312.310239 114.382411 
L 312.429383 114.382411 
L 312.548525 116.923623 
L 312.568489 116.923623 
L 312.687687 119.464835 
L 312.747096 119.464835 
L 312.866428 122.006047 
L 313.005343 124.547258 
L 313.323082 124.547258 
L 313.442214 127.08847 
L 313.481944 127.08847 
L 313.621015 132.170894 
L 313.700247 132.170894 
L 313.839348 137.253317 
L 313.859106 137.253317 
L 313.879061 139.794529 
L 313.95848 137.253317 
L 313.978438 137.253317 
L 314.157055 132.170894 
L 314.256249 132.170894 
L 314.415107 139.794529 
L 314.53425 139.794529 
L 314.673391 144.876952 
L 314.713095 144.876952 
L 314.733007 142.335741 
L 314.81225 144.876952 
L 314.951377 144.876952 
L 315.050536 149.959376 
L 315.070517 147.418164 
L 315.169678 147.418164 
L 315.308803 152.500588 
L 315.328529 152.500588 
L 315.467663 139.794529 
L 315.507234 142.335741 
L 315.685949 152.500588 
L 315.904424 152.500588 
L 315.944226 149.959376 
L 316.043542 175.371493 
L 316.063316 160.124223 
L 316.083089 162.665435 
L 316.142786 157.583011 
L 316.162519 155.041799 
L 316.281662 172.830282 
L 316.30162 172.830282 
L 316.400804 182.995129 
L 316.440517 177.912705 
L 316.519946 177.912705 
L 316.678801 190.618764 
L 316.77815 193.159976 
L 316.797943 190.618764 
L 316.877372 193.159976 
L 316.897357 193.159976 
L 317.016405 190.618764 
L 317.155371 195.701188 
L 317.294486 195.701188 
L 317.314228 193.159976 
L 317.393657 195.701188 
L 317.4136 195.701188 
L 317.512796 193.159976 
L 317.552509 198.242399 
L 317.612182 193.159976 
L 317.631936 193.159976 
L 317.751081 190.618764 
L 317.790795 190.618764 
L 317.909933 195.701188 
L 318.148219 177.912705 
L 318.168181 177.912705 
L 318.247655 190.618764 
L 318.307074 185.53634 
L 318.466092 177.912705 
L 318.605029 190.618764 
L 318.644782 188.077552 
L 318.743933 177.912705 
L 318.76389 180.453917 
L 318.92272 195.701188 
L 318.962469 195.701188 
L 319.02193 198.242399 
L 319.061647 195.701188 
L 319.12131 195.701188 
L 319.180789 198.242399 
L 319.220711 193.159976 
L 319.280172 198.242399 
L 319.339644 198.242399 
L 319.458785 193.159976 
L 319.498501 195.701188 
L 319.538214 193.159976 
L 319.617642 188.077552 
L 319.637566 195.701188 
L 319.717045 190.618764 
L 319.836181 188.077552 
L 319.975059 195.701188 
L 319.99496 195.701188 
L 320.15391 185.53634 
L 320.273047 193.159976 
L 320.292781 193.159976 
L 320.411924 195.701188 
L 320.51134 185.53634 
L 320.531065 188.077552 
L 320.551042 188.077552 
L 320.590772 185.53634 
L 320.610493 190.618764 
L 320.630446 190.618764 
L 320.690131 195.701188 
L 320.729637 193.159976 
L 320.789328 188.077552 
L 320.829034 193.159976 
L 320.848777 193.159976 
L 320.967921 195.701188 
L 320.987833 195.701188 
L 321.027604 193.159976 
L 321.047348 195.701188 
L 321.106943 200.783611 
L 321.186463 190.618764 
L 321.226175 193.159976 
L 321.305595 190.618764 
L 321.325347 193.159976 
L 321.365058 193.159976 
L 321.523915 185.53634 
L 321.543884 185.53634 
L 321.702718 177.912705 
L 321.881343 177.912705 
L 321.980741 175.371493 
L 322.020441 177.912705 
L 322.079913 175.371493 
L 322.099915 175.371493 
L 322.238771 170.28907 
L 322.357911 172.830282 
L 322.477056 170.28907 
L 322.497047 170.28907 
L 322.556705 167.747858 
L 322.596196 170.28907 
L 322.834482 170.28907 
L 322.854418 172.830282 
L 322.913908 170.28907 
L 323.211879 157.583011 
L 323.251618 157.583011 
L 323.311179 144.876952 
L 323.370716 149.959376 
L 323.549338 149.959376 
L 323.668703 144.876952 
L 323.887044 144.876952 
L 323.986194 147.418164 
L 324.125305 142.335741 
L 324.145051 142.335741 
L 324.284196 137.253317 
L 324.363584 137.253317 
L 324.4827 134.712105 
L 324.562191 137.253317 
L 324.581906 134.712105 
L 324.621623 134.712105 
L 324.740765 132.170894 
L 324.78048 132.170894 
L 324.959318 127.08847 
L 325.098192 132.170894 
L 325.137909 132.170894 
L 325.356378 139.794529 
L 325.753566 139.794529 
L 325.793313 142.335741 
L 325.852767 139.794529 
L 325.872726 139.794529 
L 325.991877 137.253317 
L 326.111027 137.253317 
L 326.170484 134.712105 
L 326.210196 137.253317 
L 326.249912 137.253317 
L 326.289752 134.712105 
L 326.34927 137.253317 
L 326.746437 137.253317 
L 326.865588 134.712105 
L 326.945033 134.712105 
L 327.064057 137.253317 
L 327.163341 137.253317 
L 327.28248 134.712105 
L 327.600193 134.712105 
L 327.719338 137.253317 
L 328.076764 137.253317 
L 328.195907 134.712105 
L 328.235621 134.712105 
L 328.354762 132.170894 
L 328.573227 132.170894 
L 328.712196 127.08847 
L 328.910978 127.08847 
L 329.029906 124.547258 
L 329.228478 124.547258 
L 329.347619 127.08847 
L 329.506478 127.08847 
L 329.546191 124.547258 
L 329.605827 127.08847 
L 329.963327 127.08847 
L 330.082399 129.629682 
L 330.102193 129.629682 
L 330.161895 127.08847 
L 330.201613 129.629682 
L 330.261051 129.629682 
L 330.380191 132.170894 
L 330.519271 129.629682 
L 330.559054 129.629682 
L 330.618478 132.170894 
L 330.658195 129.629682 
L 331.075366 129.629682 
L 331.194378 132.170894 
L 331.23418 132.170894 
L 331.353305 134.712105 
L 331.373049 134.712105 
L 331.452479 132.170894 
L 331.472447 134.712105 
L 331.71074 134.712105 
L 331.849623 129.629682 
L 331.869576 129.629682 
L 332.008482 124.547258 
L 332.286712 124.547258 
L 332.405624 122.006047 
L 332.544744 122.006047 
L 332.564482 124.547258 
L 332.644126 122.006047 
L 332.961626 122.006047 
L 333.100723 116.923623 
L 333.557344 116.923623 
L 333.676487 119.464835 
L 334.014196 119.464835 
L 334.113346 116.923623 
L 334.232489 116.923623 
L 334.351634 114.382411 
L 334.550206 114.382411 
L 334.689379 119.464835 
L 334.748775 119.464835 
L 334.828204 122.006047 
L 334.848221 119.464835 
L 335.185634 119.464835 
L 335.304781 116.923623 
L 335.364461 119.464835 
L 335.404163 116.923623 
L 335.483647 116.923623 
L 335.622494 122.006047 
L 336.039498 122.006047 
L 336.178498 116.923623 
L 336.238195 116.923623 
L 336.357357 119.464835 
L 336.933073 119.464835 
L 336.992742 116.923623 
L 337.032456 119.464835 
L 337.211073 119.464835 
L 337.330215 122.006047 
L 337.38994 122.006047 
L 337.568505 111.8412 
L 337.588464 111.8412 
L 337.707613 109.299988 
L 338.025306 109.299988 
L 338.144484 111.8412 
L 338.184193 111.8412 
L 338.303263 114.382411 
L 338.343054 114.382411 
L 338.462197 116.923623 
L 338.601081 116.923623 
L 338.700459 114.382411 
L 338.81963 116.923623 
L 338.978435 116.923623 
L 339.097623 114.382411 
L 339.415245 114.382411 
L 339.554229 119.464835 
L 339.713085 119.464835 
L 339.852167 114.382411 
L 340.090509 114.382411 
L 340.209637 116.923623 
L 340.427949 116.923623 
L 340.547094 114.382411 
L 340.765642 114.382411 
L 340.86481 111.8412 
L 341.023665 111.8412 
L 341.14281 109.299988 
L 341.301667 109.299988 
L 341.480494 99.135141 
L 341.539955 101.676353 
L 341.579669 99.135141 
L 341.6591 99.135141 
L 341.698813 96.593929 
L 341.758526 99.135141 
L 341.976815 99.135141 
L 342.036404 101.676353 
L 342.076207 99.135141 
L 342.175387 99.135141 
L 342.314556 101.676353 
L 342.493103 101.676353 
L 342.612247 99.135141 
L 342.73139 99.135141 
L 342.870499 101.676353 
L 342.890248 101.676353 
L 343.009393 99.135141 
L 343.088822 99.135141 
L 343.207966 101.676353 
L 343.585371 101.676353 
L 343.684539 104.217564 
L 343.724253 104.217564 
L 343.843398 101.676353 
L 344.220814 101.676353 
L 344.339933 99.135141 
L 345.233403 99.135141 
L 345.352546 96.593929 
L 345.431977 96.593929 
L 345.55112 94.052717 
L 345.63055 94.052717 
L 345.769542 99.135141 
L 345.789405 99.135141 
L 345.908552 96.593929 
L 346.146835 96.593929 
L 346.265982 99.135141 
L 346.325667 99.135141 
L 346.405103 96.593929 
L 346.424838 99.135141 
L 346.802275 99.135141 
L 346.921325 96.593929 
L 347.040527 96.593929 
L 347.159705 94.052717 
L 347.179415 94.052717 
L 347.318521 99.135141 
L 347.51708 99.135141 
L 347.616465 101.676353 
L 347.87446 101.676353 
L 347.973703 99.135141 
L 348.053131 99.135141 
L 348.172277 96.593929 
L 348.231947 96.593929 
L 348.331134 99.135141 
L 348.470255 99.135141 
L 348.589393 101.676353 
L 348.629114 101.676353 
L 348.728281 99.135141 
L 349.065954 99.135141 
L 349.18509 96.593929 
L 349.403425 96.593929 
L 349.443138 94.052717 
L 349.483032 96.593929 
L 349.582261 96.593929 
L 349.681427 99.135141 
L 349.800566 99.135141 
L 349.919713 101.676353 
L 349.939677 101.676353 
L 350.098552 109.299988 
L 350.118285 109.299988 
L 350.23765 111.8412 
L 350.495652 122.006047 
L 350.654465 122.006047 
L 350.793427 127.08847 
L 351.230288 127.08847 
L 351.428854 139.794529 
L 351.448818 139.794529 
L 351.587715 129.629682 
L 351.607684 132.170894 
L 351.746788 137.253317 
L 351.905427 137.253317 
L 352.024568 139.794529 
L 352.183426 139.794529 
L 352.2034 137.253317 
L 352.282867 139.794529 
L 352.362299 139.794529 
L 352.461425 144.876952 
L 352.69971 134.712105 
L 352.818854 134.712105 
L 352.898281 132.170894 
L 352.918233 134.712105 
L 353.017426 134.712105 
L 353.176284 127.08847 
L 353.295425 127.08847 
L 353.414569 124.547258 
L 353.732285 124.547258 
L 353.851426 127.08847 
L 353.950823 127.08847 
L 354.06997 129.629682 
L 354.089714 129.629682 
L 354.189092 127.08847 
L 354.328 139.794529 
L 354.37243 137.253317 
L 354.467135 137.253317 
L 354.506756 139.794529 
L 354.546562 137.253317 
L 354.665709 134.712105 
L 354.685428 134.712105 
L 354.824584 139.794529 
L 354.94373 134.712105 
L 355.023123 137.253317 
L 355.042859 134.712105 
L 355.142198 134.712105 
L 355.162 132.170894 
L 355.241429 134.712105 
L 355.360571 139.794529 
L 355.420278 137.253317 
L 355.439999 139.794529 
L 355.65858 139.794529 
L 355.678283 142.335741 
L 355.738003 139.794529 
L 355.837336 137.253317 
L 355.876856 137.253317 
L 355.995999 134.712105 
L 356.035713 134.712105 
L 356.154854 139.794529 
L 356.273999 137.253317 
L 356.293964 137.253317 
L 356.413117 139.794529 
L 356.432855 139.794529 
L 356.551998 137.253317 
L 356.810275 127.08847 
L 357.385997 127.08847 
L 357.505139 124.547258 
L 358.537709 124.547258 
L 358.656851 122.006047 
L 358.756179 122.006047 
L 358.875336 119.464835 
L 358.895138 119.464835 
L 359.014282 116.923623 
L 359.053997 116.923623 
L 359.073917 119.464835 
L 359.153354 116.923623 
L 359.252567 116.923623 
L 359.391633 111.8412 
L 359.47106 111.8412 
L 359.570435 109.299988 
L 359.609998 109.299988 
L 359.729139 106.758776 
L 359.848284 106.758776 
L 359.967416 109.299988 
L 359.987317 106.758776 
L 360.066802 109.299988 
L 360.086566 109.299988 
L 360.205709 111.8412 
L 360.305072 111.8412 
L 360.424232 109.299988 
L 360.503663 109.299988 
L 360.662505 101.676353 
L 361.119139 101.676353 
L 361.238279 104.217564 
L 361.317708 104.217564 
L 361.436977 99.135141 
L 361.476565 99.135141 
L 361.615664 94.052717 
L 361.714852 94.052717 
L 361.833987 96.593929 
L 361.87371 96.593929 
L 361.992852 94.052717 
L 362.111997 96.593929 
L 362.370249 96.593929 
L 362.489391 94.052717 
L 362.747424 94.052717 
L 362.866567 91.511506 
L 363.085068 91.511506 
L 363.144568 88.970294 
L 363.184282 91.511506 
L 363.343138 91.511506 
L 363.482227 86.429082 
L 363.641095 86.429082 
L 363.779996 81.346659 
L 364.07785 81.346659 
L 364.197107 78.805447 
L 364.276555 78.805447 
L 364.395669 81.346659 
L 364.832438 81.346659 
L 364.951673 78.805447 
L 365.130283 78.805447 
L 365.249427 81.346659 
L 365.28914 81.346659 
L 365.408285 83.88787 
L 365.428236 83.88787 
L 365.527426 81.346659 
L 365.765712 81.346659 
L 365.884855 78.805447 
L 365.944419 78.805447 
L 366.063696 76.264235 
L 366.917429 76.264235 
L 367.036776 73.723023 
L 367.632288 73.723023 
L 367.75143 71.181812 
L 368.347145 71.181812 
L 368.466288 68.6406 
L 368.843673 68.6406 
L 368.962772 66.099388 
L 369.081972 68.6406 
L 369.161362 68.6406 
L 369.260577 66.099388 
L 369.717359 66.099388 
L 369.836536 63.558176 
L 370.71028 63.558176 
L 370.829341 61.016965 
L 374.900207 61.016965 
L 375.019166 58.475753 
L 376.74681 58.475753 
L 376.865947 55.934541 
L 380.241728 55.934541 
L 380.360864 53.393329 
L 383.478333 53.393329 
L 383.617428 50.852118 
L 387.191725 50.852118 
L 387.310869 53.393329 
L 387.390293 53.393329 
L 387.509452 55.934541 
L 387.608787 55.934541 
L 387.727766 58.475753 
L 387.846909 58.475753 
L 387.966053 61.016965 
L 388.144871 66.099388 
L 388.164624 66.099388 
L 388.283769 63.558176 
L 388.323482 63.558176 
L 388.363424 66.099388 
L 388.422861 63.558176 
L 388.502325 63.558176 
L 388.641196 68.6406 
L 388.661145 68.6406 
L 388.800052 73.723023 
L 388.899451 73.723023 
L 389.018586 76.264235 
L 390.309192 76.264235 
L 390.428337 73.723023 
L 390.547479 73.723023 
L 390.666624 76.264235 
L 391.40141 76.264235 
L 391.580046 86.429082 
L 391.600049 86.429082 
L 391.738902 91.511506 
L 391.758803 91.511506 
L 391.878038 88.970294 
L 392.016904 94.052717 
L 392.116197 94.052717 
L 392.155999 91.511506 
L 392.215475 94.052717 
L 392.354591 94.052717 
L 392.39429 91.511506 
L 392.453944 94.052717 
L 392.59289 94.052717 
L 392.612617 91.511506 
L 392.692047 94.052717 
L 392.712028 94.052717 
L 392.811188 96.593929 
L 392.890617 96.593929 
L 393.009761 99.135141 
L 393.069443 99.135141 
L 393.208532 94.052717 
L 393.347447 114.382411 
L 393.426883 109.299988 
L 393.466545 109.299988 
L 393.605471 114.382411 
L 393.6849 114.382411 
L 393.804044 111.8412 
L 393.863726 111.8412 
L 393.982767 106.758776 
L 394.181421 119.464835 
L 394.201183 119.464835 
L 394.300551 122.006047 
L 394.419721 119.464835 
L 394.43947 119.464835 
L 394.518896 122.006047 
L 394.538843 119.464835 
L 394.558611 119.464835 
L 394.757185 106.758776 
L 394.856594 106.758776 
L 394.975688 94.052717 
L 395.035183 94.052717 
L 395.154326 91.511506 
L 395.29344 91.511506 
L 395.432325 86.429082 
L 395.491943 86.429082 
L 395.67061 76.264235 
L 396.325961 76.264235 
L 396.445165 73.723023 
L 396.643693 73.723023 
L 396.762893 71.181812 
L 397.120261 71.181812 
L 397.239406 68.6406 
L 397.537176 68.6406 
L 397.656319 66.099388 
L 397.835156 66.099388 
L 397.974032 61.016965 
L 398.152867 61.016965 
L 398.272013 58.475753 
L 398.510289 58.475753 
L 398.629451 55.934541 
L 399.006604 55.934541 
L 399.125747 53.393329 
L 400.039174 53.393329 
L 400.555459 106.758776 
L 400.595174 106.758776 
L 400.734248 101.676353 
L 400.793746 101.676353 
L 401.032033 83.88787 
L 401.329971 71.181812 
L 401.38946 71.181812 
L 401.508602 68.6406 
L 401.548318 68.6406 
L 401.667462 66.099388 
L 402.00513 66.099388 
L 402.12425 63.558176 
L 402.144032 63.558176 
L 402.283131 61.016965 
L 402.342603 61.016965 
L 402.461747 58.475753 
L 402.58089 58.475753 
L 402.700033 61.016965 
L 402.938534 61.016965 
L 403.057462 63.558176 
L 403.931177 63.558176 
L 404.050484 61.016965 
L 404.348259 61.016965 
L 404.467387 58.475753 
L 405.0234 58.475753 
L 405.102852 55.934541 
L 405.122608 58.475753 
L 405.261675 58.475753 
L 405.400607 63.558176 
L 405.500005 63.558176 
L 405.619115 66.099388 
L 405.658831 66.099388 
L 405.777991 68.6406 
L 405.797749 68.6406 
L 405.936764 73.723023 
L 406.393465 73.723023 
L 406.512608 76.264235 
L 406.810538 76.264235 
L 406.929717 78.805447 
L 406.989179 78.805447 
L 407.108324 76.264235 
L 407.12826 76.264235 
L 407.247408 73.723023 
L 407.34661 73.723023 
L 407.48571 68.6406 
L 407.584898 68.6406 
L 407.70404 66.099388 
L 408.121175 66.099388 
L 408.260041 71.181812 
L 408.637444 71.181812 
L 408.756579 73.723023 
L 408.796321 73.723023 
L 408.895679 76.264235 
L 408.994864 76.264235 
L 409.114005 81.346659 
L 409.233133 78.805447 
L 409.312513 78.805447 
L 409.431681 76.264235 
L 409.610332 76.264235 
L 409.669907 78.805447 
L 409.709704 76.264235 
L 410.305444 76.264235 
L 410.484049 86.429082 
L 410.543712 86.429082 
L 410.60319 83.88787 
L 410.642908 86.429082 
L 410.742303 86.429082 
L 410.861406 88.970294 
L 410.920906 88.970294 
L 411.060018 83.88787 
L 411.099728 83.88787 
L 411.238621 78.805447 
L 411.318051 78.805447 
L 411.47691 86.429082 
L 411.596053 86.429082 
L 411.715196 88.970294 
L 411.735152 88.970294 
L 411.874054 94.052717 
L 412.430055 94.052717 
L 412.549198 91.511506 
L 412.569147 91.511506 
L 412.68826 88.970294 
L 412.767687 88.970294 
L 412.886863 94.052717 
L 412.986058 91.511506 
L 413.12518 94.052717 
L 413.522284 94.052717 
L 413.562013 96.593929 
L 413.621491 94.052717 
L 413.740634 88.970294 
L 413.939205 88.970294 
L 414.078263 94.052717 
L 414.276839 94.052717 
L 414.396038 96.593929 
L 414.475452 96.593929 
L 414.594597 94.052717 
L 414.793179 94.052717 
L 414.932066 99.135141 
L 414.991709 99.135141 
L 415.110916 101.676353 
L 415.368927 101.676353 
L 415.488071 104.217564 
L 415.587486 104.217564 
L 415.706617 101.676353 
L 415.825775 101.676353 
L 415.924929 96.593929 
L 415.944903 99.135141 
L 416.024208 99.135141 
L 416.163217 94.052717 
L 416.183148 94.052717 
L 416.262584 96.593929 
L 416.282361 94.052717 
L 416.34204 94.052717 
L 416.461164 96.593929 
L 416.600076 91.511506 
L 416.719221 96.593929 
L 416.759111 96.593929 
L 416.897995 101.676353 
L 417.01717 99.135141 
L 417.056878 99.135141 
L 417.175993 101.676353 
L 417.255459 101.676353 
L 417.334853 99.135141 
L 417.354823 101.676353 
L 417.43408 101.676353 
L 417.553222 99.135141 
L 417.692355 99.135141 
L 417.811487 101.676353 
L 417.95037 96.593929 
L 418.049757 96.593929 
L 418.188654 101.676353 
L 418.287975 101.676353 
L 418.426941 96.593929 
L 418.5858 96.593929 
L 418.7249 91.511506 
L 418.78437 91.511506 
L 418.903514 88.970294 
L 419.082313 88.970294 
L 419.161736 86.429082 
L 419.181515 88.970294 
L 419.221231 88.970294 
L 419.380253 96.593929 
L 419.439722 96.593929 
L 419.578663 101.676353 
L 419.63832 101.676353 
L 419.737692 99.135141 
L 419.975807 99.135141 
L 420.09495 96.593929 
L 420.154545 96.593929 
L 420.293522 91.511506 
L 420.313469 91.511506 
L 420.353168 88.970294 
L 420.412666 91.511506 
L 420.551713 91.511506 
L 420.670853 88.970294 
L 420.690665 88.970294 
L 420.849526 96.593929 
L 421.385762 124.547258 
L 421.465205 124.547258 
L 421.584301 122.006047 
L 421.663724 122.006047 
L 421.70345 124.547258 
L 421.762952 122.006047 
L 421.802667 122.006047 
L 421.94176 127.08847 
L 422.2992 127.08847 
L 422.418312 124.547258 
L 422.537481 127.08847 
L 422.557241 127.08847 
L 422.696301 132.170894 
L 422.775706 132.170894 
L 423.073521 162.665435 
L 423.172882 157.583011 
L 423.212623 160.124223 
L 423.331787 162.665435 
L 423.391232 162.665435 
L 423.411196 165.206646 
L 423.530291 149.959376 
L 423.589804 149.959376 
L 423.609753 152.500588 
L 423.689221 149.959376 
L 423.708947 149.959376 
L 423.82809 165.206646 
L 423.867983 165.206646 
L 424.006904 175.371493 
L 424.026662 172.830282 
L 424.046638 172.830282 
L 424.185516 167.747858 
L 424.225396 167.747858 
L 424.284881 170.28907 
L 424.324617 167.747858 
L 424.344372 167.747858 
L 424.443768 162.665435 
L 424.463514 165.206646 
L 424.483452 165.206646 
L 424.642275 172.830282 
L 424.761461 172.830282 
L 424.840905 170.28907 
L 424.860654 172.830282 
L 424.90037 172.830282 
L 424.940084 175.371493 
L 424.999667 172.830282 
L 425.257796 172.830282 
L 425.337387 167.747858 
L 425.376939 170.28907 
L 425.396863 170.28907 
L 425.43662 167.747858 
L 425.496241 170.28907 
L 425.555766 170.28907 
L 425.674885 172.830282 
L 425.754256 172.830282 
L 425.893221 167.747858 
L 425.952881 167.747858 
L 426.111649 177.912705 
L 426.230866 175.371493 
L 426.56836 213.48967 
L 426.687501 203.324823 
L 426.727215 203.324823 
L 426.786862 200.783611 
L 426.806644 203.324823 
L 426.846519 203.324823 
L 427.005214 228.73694 
L 427.243497 228.73694 
L 427.36264 231.278152 
L 427.422333 228.73694 
L 427.461977 231.278152 
L 427.740034 231.278152 
L 427.77973 228.73694 
L 427.839209 231.278152 
L 427.958547 231.278152 
L 428.01802 213.48967 
L 428.077496 228.73694 
L 428.276063 228.73694 
L 428.395204 231.278152 
L 428.474634 231.278152 
L 428.554062 228.73694 
L 428.573942 231.278152 
L 428.653478 231.278152 
L 428.673202 221.113305 
L 428.752632 228.73694 
L 428.812283 228.73694 
L 428.931464 221.113305 
L 430.142628 221.113305 
L 430.301481 200.783611 
L 430.341198 203.324823 
L 430.400899 200.783611 
L 430.658909 200.783611 
L 430.758281 195.701188 
L 430.817767 200.783611 
L 430.857482 195.701188 
L 430.996572 195.701188 
L 431.03631 200.783611 
L 431.095766 195.701188 
L 431.234859 188.077552 
L 431.294551 188.077552 
L 431.473137 177.912705 
L 431.512919 177.912705 
L 431.63197 175.371493 
L 431.850337 175.371493 
L 431.929766 177.912705 
L 431.949698 175.371493 
L 431.989429 175.371493 
L 432.108555 172.830282 
L 432.187987 172.830282 
L 432.307139 167.747858 
L 432.485765 188.077552 
L 432.505749 182.995129 
L 432.644621 175.371493 
L 432.664565 175.371493 
L 432.82334 182.995129 
L 432.843192 182.995129 
L 432.882907 188.077552 
L 432.942597 182.995129 
L 432.962334 182.995129 
L 433.081478 177.912705 
L 433.200621 177.912705 
L 433.220534 175.371493 
L 433.300011 177.912705 
L 433.339713 177.912705 
L 433.478622 172.830282 
L 433.55824 172.830282 
L 434.014874 149.959376 
L 434.133968 149.959376 
L 434.253156 147.418164 
L 434.332517 147.418164 
L 434.451715 144.876952 
L 434.550907 144.876952 
L 434.590621 147.418164 
L 434.630335 144.876952 
L 434.729645 144.876952 
L 434.848879 147.418164 
L 434.987765 147.418164 
L 435.106905 149.959376 
L 435.424841 149.959376 
L 435.444497 147.418164 
L 435.524008 149.959376 
L 435.563686 149.959376 
L 435.682864 147.418164 
L 435.722583 147.418164 
L 435.901194 137.253317 
L 435.92115 139.794529 
L 435.980622 137.253317 
L 436.020337 134.712105 
L 436.060049 139.794529 
L 436.199087 139.794529 
L 436.31826 137.253317 
L 436.457194 137.253317 
L 436.576335 139.794529 
L 436.675717 139.794529 
L 436.794853 142.335741 
L 437.092625 142.335741 
L 437.11256 144.876952 
L 437.172053 142.335741 
L 437.350811 132.170894 
L 437.509741 139.794529 
L 437.569197 139.794529 
L 437.688339 142.335741 
L 437.708264 142.335741 
L 437.847199 137.253317 
L 437.966341 137.253317 
L 437.986296 134.712105 
L 438.065658 137.253317 
L 438.125197 137.253317 
L 438.24434 139.794529 
L 438.264267 139.794529 
L 438.383434 142.335741 
L 438.403403 142.335741 
L 438.522342 139.794529 
L 438.582017 139.794529 
L 438.62177 137.253317 
L 438.681197 139.794529 
L 438.701188 139.794529 
L 438.820246 142.335741 
L 438.860004 142.335741 
L 438.959199 144.876952 
L 438.979169 142.335741 
L 439.058592 144.876952 
L 439.118055 144.876952 
L 439.336611 137.253317 
L 439.415955 137.253317 
L 439.515361 134.712105 
L 439.554916 134.712105 
L 439.694023 139.794529 
L 439.832915 139.794529 
L 439.972014 134.712105 
L 440.09116 134.712105 
L 440.210294 137.253317 
L 440.269935 137.253317 
L 440.408879 134.712105 
L 440.468346 134.712105 
L 440.528053 137.253317 
L 440.56776 134.712105 
L 440.686816 132.170894 
L 440.845731 132.170894 
L 440.94492 137.253317 
L 440.964888 134.712105 
L 441.103776 134.712105 
L 441.282595 124.547258 
L 441.580347 124.547258 
L 441.699489 122.006047 
L 441.818634 124.547258 
L 441.878294 124.547258 
L 442.017204 129.629682 
L 442.037189 129.629682 
L 442.116574 132.170894 
L 442.195992 132.170894 
L 442.315176 134.712105 
L 442.454064 129.629682 
L 442.493779 129.629682 
L 442.71231 137.253317 
L 442.871165 124.547258 
L 443.010067 129.629682 
L 443.030034 129.629682 
L 443.149175 127.08847 
L 443.744879 127.08847 
L 443.864052 124.547258 
L 443.943439 124.547258 
L 444.062564 127.08847 
L 444.082355 127.08847 
L 444.201498 124.547258 
L 444.419958 124.547258 
L 444.558927 119.464835 
L 444.658308 119.464835 
L 444.777352 122.006047 
L 444.856909 122.006047 
L 444.976019 124.547258 
L 445.651196 124.547258 
L 445.770301 122.006047 
L 445.869709 124.547258 
L 445.98865 124.547258 
L 446.107796 127.08847 
L 446.783085 127.08847 
L 446.961746 137.253317 
L 446.981515 137.253317 
L 447.120589 139.794529 
L 447.299229 139.794529 
L 447.438309 144.876952 
L 447.736276 144.876952 
L 447.875188 147.418164 
L 448.03401 147.418164 
L 448.093518 144.876952 
L 448.1334 147.418164 
L 448.371521 147.418164 
L 448.470858 149.959376 
L 448.609805 144.876952 
L 448.649523 144.876952 
L 448.768665 142.335741 
L 448.848093 142.335741 
L 448.98718 144.876952 
L 449.026902 144.876952 
L 449.146012 147.418164 
L 449.384331 147.418164 
L 449.503478 144.876952 
L 449.602668 144.876952 
L 449.741749 142.335741 
L 450 142.335741 
L 450 142.335741 
" clip-path="url(#pf2393d3dac)" style="fill: none; stroke: #ff7f0e; stroke-width: 1.5; stroke-linecap: square"/>
   </g>
   <g id="patch_3">
    <path d="M 51.05 279.561175 
L 51.05 25.44 
" style="fill: none; stroke: #000000; stroke-width: 0.8; stroke-linejoin: miter; stroke-linecap: square"/>
   </g>
   <g id="patch_4">
    <path d="M 450 279.561175 
L 450 25.44 
" style="fill: none; stroke: #000000; stroke-width: 0.8; stroke-linejoin: miter; stroke-linecap: square"/>
   </g>
   <g id="patch_5">
    <path d="M 51.05 279.561175 
L 450 279.561175 
" style="fill: none; stroke: #000000; stroke-width: 0.8; stroke-linejoin: miter; stroke-linecap: square"/>
   </g>
   <g id="patch_6">
    <path d="M 51.05 25.44 
L 450 25.44 
" style="fill: none; stroke: #000000; stroke-width: 0.8; stroke-linejoin: miter; stroke-linecap: square"/>
   </g>
   <g id="text_13">
    <!-- November 2023 -->
    <g transform="translate(202.133125 19.44) scale(0.12 -0.12)">
     <defs>
      <path id="DejaVuSans-4e" d="M 628 4666 
L 1478 4666 
L 3547 763 
L 3547 4666 
L 4159 4666 
L 4159 0 
L 3309 0 
L 1241 3903 
L 1241 0 
L 628 0 
L 628 4666 
z
" transform="scale(0.015625)"/>
      <path id="DejaVuSans-6f" d="M 1959 3097 
Q 1497 3097 1228 2736 
Q 959 2375 959 1747 
Q 959 1119 1226 758 
Q 1494 397 1959 397 
Q 2419 397 2687 759 
Q 2956 1122 2956 1747 
Q 2956 2369 2687 2733 
Q 2419 3097 1959 3097 
z
M 1959 3584 
Q 2709 3584 3137 3096 
Q 3566 2609 3566 1747 
Q 3566 888 3137 398 
Q 2709 -91 1959 -91 
Q 1206 -91 779 398 
Q 353 888 353 1747 
Q 353 2609 779 3096 
Q 1206 3584 1959 3584 
z
" transform="scale(0.015625)"/>
      <path id="DejaVuSans-76" d="M 191 3500 
L 800 3500 
L 1894 563 
L 2988 3500 
L 3597 3500 
L 2284 0 
L 1503 0 
L 191 3500 
z
" transform="scale(0.015625)"/>
      <path id="DejaVuSans-65" d="M 3597 1894 
L 3597 1613 
L 953 1613 
Q 991 1019 1311 708 
Q 1631 397 2203 397 
Q 2534 397 2845 478 
Q 3156 559 3463 722 
L 3463 178 
Q 3153 47 2828 -22 
Q 2503 -91 2169 -91 
Q 1331 -91 842 396 
Q 353 884 353 1716 
Q 353 2575 817 3079 
Q 1281 3584 2069 3584 
Q 2775 3584 3186 3129 
Q 3597 2675 3597 1894 
z
M 3022 2063 
Q 3016 2534 2758 2815 
Q 2500 3097 2075 3097 
Q 1594 3097 1305 2825 
Q 1016 2553 972 2059 
L 3022 2063 
z
" transform="scale(0.015625)"/>
      <path id="DejaVuSans-62" d="M 3116 1747 
Q 3116 2381 2855 2742 
Q 2594 3103 2138 3103 
Q 1681 3103 1420 2742 
Q 1159 2381 1159 1747 
Q 1159 1113 1420 752 
Q 1681 391 2138 391 
Q 2594 391 2855 752 
Q 3116 1113 3116 1747 
z
M 1159 2969 
Q 1341 3281 1617 3432 
Q 1894 3584 2278 3584 
Q 2916 3584 3314 3078 
Q 3713 2572 3713 1747 
Q 3713 922 3314 415 
Q 2916 -91 2278 -91 
Q 1894 -91 1617 61 
Q 1341 213 1159 525 
L 1159 0 
L 581 0 
L 581 4863 
L 1159 4863 
L 1159 2969 
z
" transform="scale(0.015625)"/>
      <path id="DejaVuSans-72" d="M 2631 2963 
Q 2534 3019 2420 3045 
Q 2306 3072 2169 3072 
Q 1681 3072 1420 2755 
Q 1159 2438 1159 1844 
L 1159 0 
L 581 0 
L 581 3500 
L 1159 3500 
L 1159 2956 
Q 1341 3275 1631 3429 
Q 1922 3584 2338 3584 
Q 2397 3584 2469 3576 
Q 2541 3569 2628 3553 
L 2631 2963 
z
" transform="scale(0.015625)"/>
     </defs>
     <use xlink:href="#DejaVuSans-4e"/>
     <use xlink:href="#DejaVuSans-6f" x="74.804688"/>
     <use xlink:href="#DejaVuSans-76" x="135.986328"/>
     <use xlink:href="#DejaVuSans-65" x="195.166016"/>
     <use xlink:href="#DejaVuSans-6d" x="256.689453"/>
     <use xlink:href="#DejaVuSans-62" x="354.101562"/>
     <use xlink:href="#DejaVuSans-65" x="417.578125"/>
     <use xlink:href="#DejaVuSans-72" x="479.101562"/>
     <use xlink:href="#DejaVuSans-20" x="520.214844"/>
     <use xlink:href="#DejaVuSans-32" x="552.001953"/>
     <use xlink:href="#DejaVuSans-30" x="615.625"/>
     <use xlink:href="#DejaVuSans-32" x="679.248047"/>
     <use xlink:href="#DejaVuSans-33" x="742.871094"/>
    </g>
   </g>
  </g>
 </g>
 <defs>
  <clipPath id="pf2393d3dac">
   <rect x="51.05" y="25.44" width="398.95" height="254.121175"/>
  </clipPath>
 </defs>
</svg>
