<?xml version="1.0" encoding="utf-8" standalone="no"?>
<!DOCTYPE svg PUBLIC "-//W3C//DTD SVG 1.1//EN"
  "http://www.w3.org/Graphics/SVG/1.1/DTD/svg11.dtd">
<svg xmlns:xlink="http://www.w3.org/1999/xlink" width="460.8pt" height="345.6pt" viewBox="0 0 460.8 345.6" xmlns="http://www.w3.org/2000/svg" version="1.1">
 <metadata>
  <rdf:RDF xmlns:dc="http://purl.org/dc/elements/1.1/" xmlns:cc="http://creativecommons.org/ns#" xmlns:rdf="http://www.w3.org/1999/02/22-rdf-syntax-ns#">
   <cc:Work>
    <dc:type rdf:resource="http://purl.org/dc/dcmitype/StillImage"/>
    <dc:date>2023-11-06T23:28:00.762807</dc:date>
    <dc:format>image/svg+xml</dc:format>
    <dc:creator>
     <cc:Agent>
      <dc:title>Matplotlib v3.6.3, https://matplotlib.org/</dc:title>
     </cc:Agent>
    </dc:creator>
   </cc:Work>
  </rdf:RDF>
 </metadata>
 <defs>
  <style type="text/css">*{stroke-linejoin: round; stroke-linecap: butt}</style>
 </defs>
 <g id="figure_1">
  <g id="patch_1">
   <path d="M 0 345.6 
L 460.8 345.6 
L 460.8 0 
L 0 0 
z
" style="fill: #ffffff"/>
  </g>
  <g id="axes_1">
   <g id="patch_2">
    <path d="M 46.46 279.561175 
L 450 279.561175 
L 450 25.44 
L 46.46 25.44 
z
" style="fill: #ffffff"/>
   </g>
   <g id="matplotlib.axis_1">
    <g id="xtick_1">
     <g id="line2d_1">
      <path d="M 113.950248 279.561175 
L 113.950248 25.44 
" clip-path="url(#p3bbfed0029)" style="fill: none; stroke: #b0b0b0; stroke-width: 0.8; stroke-linecap: square"/>
     </g>
     <g id="line2d_2">
      <defs>
       <path id="m6396bfd7d0" d="M 0 0 
L 0 3.5 
" style="stroke: #000000; stroke-width: 0.8"/>
      </defs>
      <g>
       <use xlink:href="#m6396bfd7d0" x="113.950248" y="279.561175" style="stroke: #000000; stroke-width: 0.8"/>
      </g>
     </g>
     <g id="text_1">
      <!-- 2023-11-02 -->
      <g transform="translate(71.385734 333.028035) rotate(-45) scale(0.1 -0.1)">
       <defs>
        <path id="DejaVuSans-32" d="M 1228 531 
L 3431 531 
L 3431 0 
L 469 0 
L 469 531 
Q 828 903 1448 1529 
Q 2069 2156 2228 2338 
Q 2531 2678 2651 2914 
Q 2772 3150 2772 3378 
Q 2772 3750 2511 3984 
Q 2250 4219 1831 4219 
Q 1534 4219 1204 4116 
Q 875 4013 500 3803 
L 500 4441 
Q 881 4594 1212 4672 
Q 1544 4750 1819 4750 
Q 2544 4750 2975 4387 
Q 3406 4025 3406 3419 
Q 3406 3131 3298 2873 
Q 3191 2616 2906 2266 
Q 2828 2175 2409 1742 
Q 1991 1309 1228 531 
z
" transform="scale(0.015625)"/>
        <path id="DejaVuSans-30" d="M 2034 4250 
Q 1547 4250 1301 3770 
Q 1056 3291 1056 2328 
Q 1056 1369 1301 889 
Q 1547 409 2034 409 
Q 2525 409 2770 889 
Q 3016 1369 3016 2328 
Q 3016 3291 2770 3770 
Q 2525 4250 2034 4250 
z
M 2034 4750 
Q 2819 4750 3233 4129 
Q 3647 3509 3647 2328 
Q 3647 1150 3233 529 
Q 2819 -91 2034 -91 
Q 1250 -91 836 529 
Q 422 1150 422 2328 
Q 422 3509 836 4129 
Q 1250 4750 2034 4750 
z
" transform="scale(0.015625)"/>
        <path id="DejaVuSans-33" d="M 2597 2516 
Q 3050 2419 3304 2112 
Q 3559 1806 3559 1356 
Q 3559 666 3084 287 
Q 2609 -91 1734 -91 
Q 1441 -91 1130 -33 
Q 819 25 488 141 
L 488 750 
Q 750 597 1062 519 
Q 1375 441 1716 441 
Q 2309 441 2620 675 
Q 2931 909 2931 1356 
Q 2931 1769 2642 2001 
Q 2353 2234 1838 2234 
L 1294 2234 
L 1294 2753 
L 1863 2753 
Q 2328 2753 2575 2939 
Q 2822 3125 2822 3475 
Q 2822 3834 2567 4026 
Q 2313 4219 1838 4219 
Q 1578 4219 1281 4162 
Q 984 4106 628 3988 
L 628 4550 
Q 988 4650 1302 4700 
Q 1616 4750 1894 4750 
Q 2613 4750 3031 4423 
Q 3450 4097 3450 3541 
Q 3450 3153 3228 2886 
Q 3006 2619 2597 2516 
z
" transform="scale(0.015625)"/>
        <path id="DejaVuSans-2d" d="M 313 2009 
L 1997 2009 
L 1997 1497 
L 313 1497 
L 313 2009 
z
" transform="scale(0.015625)"/>
        <path id="DejaVuSans-31" d="M 794 531 
L 1825 531 
L 1825 4091 
L 703 3866 
L 703 4441 
L 1819 4666 
L 2450 4666 
L 2450 531 
L 3481 531 
L 3481 0 
L 794 0 
L 794 531 
z
" transform="scale(0.015625)"/>
       </defs>
       <use xlink:href="#DejaVuSans-32"/>
       <use xlink:href="#DejaVuSans-30" x="63.623047"/>
       <use xlink:href="#DejaVuSans-32" x="127.246094"/>
       <use xlink:href="#DejaVuSans-33" x="190.869141"/>
       <use xlink:href="#DejaVuSans-2d" x="254.492188"/>
       <use xlink:href="#DejaVuSans-31" x="290.576172"/>
       <use xlink:href="#DejaVuSans-31" x="354.199219"/>
       <use xlink:href="#DejaVuSans-2d" x="417.822266"/>
       <use xlink:href="#DejaVuSans-30" x="453.90625"/>
       <use xlink:href="#DejaVuSans-32" x="517.529297"/>
      </g>
     </g>
    </g>
    <g id="xtick_2">
     <g id="line2d_3">
      <path d="M 181.47642 279.561175 
L 181.47642 25.44 
" clip-path="url(#p3bbfed0029)" style="fill: none; stroke: #b0b0b0; stroke-width: 0.8; stroke-linecap: square"/>
     </g>
     <g id="line2d_4">
      <g>
       <use xlink:href="#m6396bfd7d0" x="181.47642" y="279.561175" style="stroke: #000000; stroke-width: 0.8"/>
      </g>
     </g>
     <g id="text_2">
      <!-- 2023-11-03 -->
      <g transform="translate(138.911906 333.028035) rotate(-45) scale(0.1 -0.1)">
       <use xlink:href="#DejaVuSans-32"/>
       <use xlink:href="#DejaVuSans-30" x="63.623047"/>
       <use xlink:href="#DejaVuSans-32" x="127.246094"/>
       <use xlink:href="#DejaVuSans-33" x="190.869141"/>
       <use xlink:href="#DejaVuSans-2d" x="254.492188"/>
       <use xlink:href="#DejaVuSans-31" x="290.576172"/>
       <use xlink:href="#DejaVuSans-31" x="354.199219"/>
       <use xlink:href="#DejaVuSans-2d" x="417.822266"/>
       <use xlink:href="#DejaVuSans-30" x="453.90625"/>
       <use xlink:href="#DejaVuSans-33" x="517.529297"/>
      </g>
     </g>
    </g>
    <g id="xtick_3">
     <g id="line2d_5">
      <path d="M 249.002592 279.561175 
L 249.002592 25.44 
" clip-path="url(#p3bbfed0029)" style="fill: none; stroke: #b0b0b0; stroke-width: 0.8; stroke-linecap: square"/>
     </g>
     <g id="line2d_6">
      <g>
       <use xlink:href="#m6396bfd7d0" x="249.002592" y="279.561175" style="stroke: #000000; stroke-width: 0.8"/>
      </g>
     </g>
     <g id="text_3">
      <!-- 2023-11-04 -->
      <g transform="translate(206.438079 333.028035) rotate(-45) scale(0.1 -0.1)">
       <defs>
        <path id="DejaVuSans-34" d="M 2419 4116 
L 825 1625 
L 2419 1625 
L 2419 4116 
z
M 2253 4666 
L 3047 4666 
L 3047 1625 
L 3713 1625 
L 3713 1100 
L 3047 1100 
L 3047 0 
L 2419 0 
L 2419 1100 
L 313 1100 
L 313 1709 
L 2253 4666 
z
" transform="scale(0.015625)"/>
       </defs>
       <use xlink:href="#DejaVuSans-32"/>
       <use xlink:href="#DejaVuSans-30" x="63.623047"/>
       <use xlink:href="#DejaVuSans-32" x="127.246094"/>
       <use xlink:href="#DejaVuSans-33" x="190.869141"/>
       <use xlink:href="#DejaVuSans-2d" x="254.492188"/>
       <use xlink:href="#DejaVuSans-31" x="290.576172"/>
       <use xlink:href="#DejaVuSans-31" x="354.199219"/>
       <use xlink:href="#DejaVuSans-2d" x="417.822266"/>
       <use xlink:href="#DejaVuSans-30" x="453.90625"/>
       <use xlink:href="#DejaVuSans-34" x="517.529297"/>
      </g>
     </g>
    </g>
    <g id="xtick_4">
     <g id="line2d_7">
      <path d="M 316.528765 279.561175 
L 316.528765 25.44 
" clip-path="url(#p3bbfed0029)" style="fill: none; stroke: #b0b0b0; stroke-width: 0.8; stroke-linecap: square"/>
     </g>
     <g id="line2d_8">
      <g>
       <use xlink:href="#m6396bfd7d0" x="316.528765" y="279.561175" style="stroke: #000000; stroke-width: 0.8"/>
      </g>
     </g>
     <g id="text_4">
      <!-- 2023-11-05 -->
      <g transform="translate(273.964251 333.028035) rotate(-45) scale(0.1 -0.1)">
       <defs>
        <path id="DejaVuSans-35" d="M 691 4666 
L 3169 4666 
L 3169 4134 
L 1269 4134 
L 1269 2991 
Q 1406 3038 1543 3061 
Q 1681 3084 1819 3084 
Q 2600 3084 3056 2656 
Q 3513 2228 3513 1497 
Q 3513 744 3044 326 
Q 2575 -91 1722 -91 
Q 1428 -91 1123 -41 
Q 819 9 494 109 
L 494 744 
Q 775 591 1075 516 
Q 1375 441 1709 441 
Q 2250 441 2565 725 
Q 2881 1009 2881 1497 
Q 2881 1984 2565 2268 
Q 2250 2553 1709 2553 
Q 1456 2553 1204 2497 
Q 953 2441 691 2322 
L 691 4666 
z
" transform="scale(0.015625)"/>
       </defs>
       <use xlink:href="#DejaVuSans-32"/>
       <use xlink:href="#DejaVuSans-30" x="63.623047"/>
       <use xlink:href="#DejaVuSans-32" x="127.246094"/>
       <use xlink:href="#DejaVuSans-33" x="190.869141"/>
       <use xlink:href="#DejaVuSans-2d" x="254.492188"/>
       <use xlink:href="#DejaVuSans-31" x="290.576172"/>
       <use xlink:href="#DejaVuSans-31" x="354.199219"/>
       <use xlink:href="#DejaVuSans-2d" x="417.822266"/>
       <use xlink:href="#DejaVuSans-30" x="453.90625"/>
       <use xlink:href="#DejaVuSans-35" x="517.529297"/>
      </g>
     </g>
    </g>
    <g id="xtick_5">
     <g id="line2d_9">
      <path d="M 384.054937 279.561175 
L 384.054937 25.44 
" clip-path="url(#p3bbfed0029)" style="fill: none; stroke: #b0b0b0; stroke-width: 0.8; stroke-linecap: square"/>
     </g>
     <g id="line2d_10">
      <g>
       <use xlink:href="#m6396bfd7d0" x="384.054937" y="279.561175" style="stroke: #000000; stroke-width: 0.8"/>
      </g>
     </g>
     <g id="text_5">
      <!-- 2023-11-06 -->
      <g transform="translate(341.490423 333.028035) rotate(-45) scale(0.1 -0.1)">
       <defs>
        <path id="DejaVuSans-36" d="M 2113 2584 
Q 1688 2584 1439 2293 
Q 1191 2003 1191 1497 
Q 1191 994 1439 701 
Q 1688 409 2113 409 
Q 2538 409 2786 701 
Q 3034 994 3034 1497 
Q 3034 2003 2786 2293 
Q 2538 2584 2113 2584 
z
M 3366 4563 
L 3366 3988 
Q 3128 4100 2886 4159 
Q 2644 4219 2406 4219 
Q 1781 4219 1451 3797 
Q 1122 3375 1075 2522 
Q 1259 2794 1537 2939 
Q 1816 3084 2150 3084 
Q 2853 3084 3261 2657 
Q 3669 2231 3669 1497 
Q 3669 778 3244 343 
Q 2819 -91 2113 -91 
Q 1303 -91 875 529 
Q 447 1150 447 2328 
Q 447 3434 972 4092 
Q 1497 4750 2381 4750 
Q 2619 4750 2861 4703 
Q 3103 4656 3366 4563 
z
" transform="scale(0.015625)"/>
       </defs>
       <use xlink:href="#DejaVuSans-32"/>
       <use xlink:href="#DejaVuSans-30" x="63.623047"/>
       <use xlink:href="#DejaVuSans-32" x="127.246094"/>
       <use xlink:href="#DejaVuSans-33" x="190.869141"/>
       <use xlink:href="#DejaVuSans-2d" x="254.492188"/>
       <use xlink:href="#DejaVuSans-31" x="290.576172"/>
       <use xlink:href="#DejaVuSans-31" x="354.199219"/>
       <use xlink:href="#DejaVuSans-2d" x="417.822266"/>
       <use xlink:href="#DejaVuSans-30" x="453.90625"/>
       <use xlink:href="#DejaVuSans-36" x="517.529297"/>
      </g>
     </g>
    </g>
   </g>
   <g id="matplotlib.axis_2">
    <g id="ytick_1">
     <g id="line2d_11">
      <path d="M 46.46 253.008963 
L 450 253.008963 
" clip-path="url(#p3bbfed0029)" style="fill: none; stroke: #b0b0b0; stroke-width: 0.8; stroke-linecap: square"/>
     </g>
     <g id="line2d_12">
      <defs>
       <path id="m61fcd28ed2" d="M 0 0 
L -3.5 0 
" style="stroke: #000000; stroke-width: 0.8"/>
      </defs>
      <g>
       <use xlink:href="#m61fcd28ed2" x="46.46" y="253.008963" style="stroke: #000000; stroke-width: 0.8"/>
      </g>
     </g>
     <g id="text_6">
      <!-- 0 -->
      <g transform="translate(33.0975 256.808182) scale(0.1 -0.1)">
       <use xlink:href="#DejaVuSans-30"/>
      </g>
     </g>
    </g>
    <g id="ytick_2">
     <g id="line2d_13">
      <path d="M 46.46 223.006463 
L 450 223.006463 
" clip-path="url(#p3bbfed0029)" style="fill: none; stroke: #b0b0b0; stroke-width: 0.8; stroke-linecap: square"/>
     </g>
     <g id="line2d_14">
      <g>
       <use xlink:href="#m61fcd28ed2" x="46.46" y="223.006463" style="stroke: #000000; stroke-width: 0.8"/>
      </g>
     </g>
     <g id="text_7">
      <!-- 2 -->
      <g transform="translate(33.0975 226.805682) scale(0.1 -0.1)">
       <use xlink:href="#DejaVuSans-32"/>
      </g>
     </g>
    </g>
    <g id="ytick_3">
     <g id="line2d_15">
      <path d="M 46.46 193.003963 
L 450 193.003963 
" clip-path="url(#p3bbfed0029)" style="fill: none; stroke: #b0b0b0; stroke-width: 0.8; stroke-linecap: square"/>
     </g>
     <g id="line2d_16">
      <g>
       <use xlink:href="#m61fcd28ed2" x="46.46" y="193.003963" style="stroke: #000000; stroke-width: 0.8"/>
      </g>
     </g>
     <g id="text_8">
      <!-- 4 -->
      <g transform="translate(33.0975 196.803182) scale(0.1 -0.1)">
       <use xlink:href="#DejaVuSans-34"/>
      </g>
     </g>
    </g>
    <g id="ytick_4">
     <g id="line2d_17">
      <path d="M 46.46 163.001463 
L 450 163.001463 
" clip-path="url(#p3bbfed0029)" style="fill: none; stroke: #b0b0b0; stroke-width: 0.8; stroke-linecap: square"/>
     </g>
     <g id="line2d_18">
      <g>
       <use xlink:href="#m61fcd28ed2" x="46.46" y="163.001463" style="stroke: #000000; stroke-width: 0.8"/>
      </g>
     </g>
     <g id="text_9">
      <!-- 6 -->
      <g transform="translate(33.0975 166.800681) scale(0.1 -0.1)">
       <use xlink:href="#DejaVuSans-36"/>
      </g>
     </g>
    </g>
    <g id="ytick_5">
     <g id="line2d_19">
      <path d="M 46.46 132.998963 
L 450 132.998963 
" clip-path="url(#p3bbfed0029)" style="fill: none; stroke: #b0b0b0; stroke-width: 0.8; stroke-linecap: square"/>
     </g>
     <g id="line2d_20">
      <g>
       <use xlink:href="#m61fcd28ed2" x="46.46" y="132.998963" style="stroke: #000000; stroke-width: 0.8"/>
      </g>
     </g>
     <g id="text_10">
      <!-- 8 -->
      <g transform="translate(33.0975 136.798181) scale(0.1 -0.1)">
       <defs>
        <path id="DejaVuSans-38" d="M 2034 2216 
Q 1584 2216 1326 1975 
Q 1069 1734 1069 1313 
Q 1069 891 1326 650 
Q 1584 409 2034 409 
Q 2484 409 2743 651 
Q 3003 894 3003 1313 
Q 3003 1734 2745 1975 
Q 2488 2216 2034 2216 
z
M 1403 2484 
Q 997 2584 770 2862 
Q 544 3141 544 3541 
Q 544 4100 942 4425 
Q 1341 4750 2034 4750 
Q 2731 4750 3128 4425 
Q 3525 4100 3525 3541 
Q 3525 3141 3298 2862 
Q 3072 2584 2669 2484 
Q 3125 2378 3379 2068 
Q 3634 1759 3634 1313 
Q 3634 634 3220 271 
Q 2806 -91 2034 -91 
Q 1263 -91 848 271 
Q 434 634 434 1313 
Q 434 1759 690 2068 
Q 947 2378 1403 2484 
z
M 1172 3481 
Q 1172 3119 1398 2916 
Q 1625 2713 2034 2713 
Q 2441 2713 2670 2916 
Q 2900 3119 2900 3481 
Q 2900 3844 2670 4047 
Q 2441 4250 2034 4250 
Q 1625 4250 1398 4047 
Q 1172 3844 1172 3481 
z
" transform="scale(0.015625)"/>
       </defs>
       <use xlink:href="#DejaVuSans-38"/>
      </g>
     </g>
    </g>
    <g id="ytick_6">
     <g id="line2d_21">
      <path d="M 46.46 102.996463 
L 450 102.996463 
" clip-path="url(#p3bbfed0029)" style="fill: none; stroke: #b0b0b0; stroke-width: 0.8; stroke-linecap: square"/>
     </g>
     <g id="line2d_22">
      <g>
       <use xlink:href="#m61fcd28ed2" x="46.46" y="102.996463" style="stroke: #000000; stroke-width: 0.8"/>
      </g>
     </g>
     <g id="text_11">
      <!-- 10 -->
      <g transform="translate(26.735 106.795681) scale(0.1 -0.1)">
       <use xlink:href="#DejaVuSans-31"/>
       <use xlink:href="#DejaVuSans-30" x="63.623047"/>
      </g>
     </g>
    </g>
    <g id="ytick_7">
     <g id="line2d_23">
      <path d="M 46.46 72.993963 
L 450 72.993963 
" clip-path="url(#p3bbfed0029)" style="fill: none; stroke: #b0b0b0; stroke-width: 0.8; stroke-linecap: square"/>
     </g>
     <g id="line2d_24">
      <g>
       <use xlink:href="#m61fcd28ed2" x="46.46" y="72.993963" style="stroke: #000000; stroke-width: 0.8"/>
      </g>
     </g>
     <g id="text_12">
      <!-- 12 -->
      <g transform="translate(26.735 76.793181) scale(0.1 -0.1)">
       <use xlink:href="#DejaVuSans-31"/>
       <use xlink:href="#DejaVuSans-32" x="63.623047"/>
      </g>
     </g>
    </g>
    <g id="ytick_8">
     <g id="line2d_25">
      <path d="M 46.46 42.991463 
L 450 42.991463 
" clip-path="url(#p3bbfed0029)" style="fill: none; stroke: #b0b0b0; stroke-width: 0.8; stroke-linecap: square"/>
     </g>
     <g id="line2d_26">
      <g>
       <use xlink:href="#m61fcd28ed2" x="46.46" y="42.991463" style="stroke: #000000; stroke-width: 0.8"/>
      </g>
     </g>
     <g id="text_13">
      <!-- 14 -->
      <g transform="translate(26.735 46.790681) scale(0.1 -0.1)">
       <use xlink:href="#DejaVuSans-31"/>
       <use xlink:href="#DejaVuSans-34" x="63.623047"/>
      </g>
     </g>
    </g>
    <g id="text_14">
     <!-- Temperature [°C] -->
     <g transform="translate(20.655313 199.072463) rotate(-90) scale(0.1 -0.1)">
      <defs>
       <path id="DejaVuSans-54" d="M -19 4666 
L 3928 4666 
L 3928 4134 
L 2272 4134 
L 2272 0 
L 1638 0 
L 1638 4134 
L -19 4134 
L -19 4666 
z
" transform="scale(0.015625)"/>
       <path id="DejaVuSans-65" d="M 3597 1894 
L 3597 1613 
L 953 1613 
Q 991 1019 1311 708 
Q 1631 397 2203 397 
Q 2534 397 2845 478 
Q 3156 559 3463 722 
L 3463 178 
Q 3153 47 2828 -22 
Q 2503 -91 2169 -91 
Q 1331 -91 842 396 
Q 353 884 353 1716 
Q 353 2575 817 3079 
Q 1281 3584 2069 3584 
Q 2775 3584 3186 3129 
Q 3597 2675 3597 1894 
z
M 3022 2063 
Q 3016 2534 2758 2815 
Q 2500 3097 2075 3097 
Q 1594 3097 1305 2825 
Q 1016 2553 972 2059 
L 3022 2063 
z
" transform="scale(0.015625)"/>
       <path id="DejaVuSans-6d" d="M 3328 2828 
Q 3544 3216 3844 3400 
Q 4144 3584 4550 3584 
Q 5097 3584 5394 3201 
Q 5691 2819 5691 2113 
L 5691 0 
L 5113 0 
L 5113 2094 
Q 5113 2597 4934 2840 
Q 4756 3084 4391 3084 
Q 3944 3084 3684 2787 
Q 3425 2491 3425 1978 
L 3425 0 
L 2847 0 
L 2847 2094 
Q 2847 2600 2669 2842 
Q 2491 3084 2119 3084 
Q 1678 3084 1418 2786 
Q 1159 2488 1159 1978 
L 1159 0 
L 581 0 
L 581 3500 
L 1159 3500 
L 1159 2956 
Q 1356 3278 1631 3431 
Q 1906 3584 2284 3584 
Q 2666 3584 2933 3390 
Q 3200 3197 3328 2828 
z
" transform="scale(0.015625)"/>
       <path id="DejaVuSans-70" d="M 1159 525 
L 1159 -1331 
L 581 -1331 
L 581 3500 
L 1159 3500 
L 1159 2969 
Q 1341 3281 1617 3432 
Q 1894 3584 2278 3584 
Q 2916 3584 3314 3078 
Q 3713 2572 3713 1747 
Q 3713 922 3314 415 
Q 2916 -91 2278 -91 
Q 1894 -91 1617 61 
Q 1341 213 1159 525 
z
M 3116 1747 
Q 3116 2381 2855 2742 
Q 2594 3103 2138 3103 
Q 1681 3103 1420 2742 
Q 1159 2381 1159 1747 
Q 1159 1113 1420 752 
Q 1681 391 2138 391 
Q 2594 391 2855 752 
Q 3116 1113 3116 1747 
z
" transform="scale(0.015625)"/>
       <path id="DejaVuSans-72" d="M 2631 2963 
Q 2534 3019 2420 3045 
Q 2306 3072 2169 3072 
Q 1681 3072 1420 2755 
Q 1159 2438 1159 1844 
L 1159 0 
L 581 0 
L 581 3500 
L 1159 3500 
L 1159 2956 
Q 1341 3275 1631 3429 
Q 1922 3584 2338 3584 
Q 2397 3584 2469 3576 
Q 2541 3569 2628 3553 
L 2631 2963 
z
" transform="scale(0.015625)"/>
       <path id="DejaVuSans-61" d="M 2194 1759 
Q 1497 1759 1228 1600 
Q 959 1441 959 1056 
Q 959 750 1161 570 
Q 1363 391 1709 391 
Q 2188 391 2477 730 
Q 2766 1069 2766 1631 
L 2766 1759 
L 2194 1759 
z
M 3341 1997 
L 3341 0 
L 2766 0 
L 2766 531 
Q 2569 213 2275 61 
Q 1981 -91 1556 -91 
Q 1019 -91 701 211 
Q 384 513 384 1019 
Q 384 1609 779 1909 
Q 1175 2209 1959 2209 
L 2766 2209 
L 2766 2266 
Q 2766 2663 2505 2880 
Q 2244 3097 1772 3097 
Q 1472 3097 1187 3025 
Q 903 2953 641 2809 
L 641 3341 
Q 956 3463 1253 3523 
Q 1550 3584 1831 3584 
Q 2591 3584 2966 3190 
Q 3341 2797 3341 1997 
z
" transform="scale(0.015625)"/>
       <path id="DejaVuSans-74" d="M 1172 4494 
L 1172 3500 
L 2356 3500 
L 2356 3053 
L 1172 3053 
L 1172 1153 
Q 1172 725 1289 603 
Q 1406 481 1766 481 
L 2356 481 
L 2356 0 
L 1766 0 
Q 1100 0 847 248 
Q 594 497 594 1153 
L 594 3053 
L 172 3053 
L 172 3500 
L 594 3500 
L 594 4494 
L 1172 4494 
z
" transform="scale(0.015625)"/>
       <path id="DejaVuSans-75" d="M 544 1381 
L 544 3500 
L 1119 3500 
L 1119 1403 
Q 1119 906 1312 657 
Q 1506 409 1894 409 
Q 2359 409 2629 706 
Q 2900 1003 2900 1516 
L 2900 3500 
L 3475 3500 
L 3475 0 
L 2900 0 
L 2900 538 
Q 2691 219 2414 64 
Q 2138 -91 1772 -91 
Q 1169 -91 856 284 
Q 544 659 544 1381 
z
M 1991 3584 
L 1991 3584 
z
" transform="scale(0.015625)"/>
       <path id="DejaVuSans-20" transform="scale(0.015625)"/>
       <path id="DejaVuSans-5b" d="M 550 4863 
L 1875 4863 
L 1875 4416 
L 1125 4416 
L 1125 -397 
L 1875 -397 
L 1875 -844 
L 550 -844 
L 550 4863 
z
" transform="scale(0.015625)"/>
       <path id="DejaVuSans-c2" d="M 2188 4044 
L 1331 1722 
L 3047 1722 
L 2188 4044 
z
M 1831 4666 
L 2547 4666 
L 4325 0 
L 3669 0 
L 3244 1197 
L 1141 1197 
L 716 0 
L 50 0 
L 1831 4666 
z
M 1894 5941 
L 2481 5941 
L 3141 5110 
L 2706 5110 
L 2188 5666 
L 1669 5110 
L 1234 5110 
L 1894 5941 
z
" transform="scale(0.015625)"/>
       <path id="DejaVuSans-b0" d="M 1600 4347 
Q 1350 4347 1178 4173 
Q 1006 4000 1006 3750 
Q 1006 3503 1178 3333 
Q 1350 3163 1600 3163 
Q 1850 3163 2022 3333 
Q 2194 3503 2194 3750 
Q 2194 3997 2020 4172 
Q 1847 4347 1600 4347 
z
M 1600 4750 
Q 1800 4750 1984 4673 
Q 2169 4597 2303 4453 
Q 2447 4313 2519 4134 
Q 2591 3956 2591 3750 
Q 2591 3338 2302 3052 
Q 2013 2766 1594 2766 
Q 1172 2766 890 3047 
Q 609 3328 609 3750 
Q 609 4169 896 4459 
Q 1184 4750 1600 4750 
z
" transform="scale(0.015625)"/>
       <path id="DejaVuSans-43" d="M 4122 4306 
L 4122 3641 
Q 3803 3938 3442 4084 
Q 3081 4231 2675 4231 
Q 1875 4231 1450 3742 
Q 1025 3253 1025 2328 
Q 1025 1406 1450 917 
Q 1875 428 2675 428 
Q 3081 428 3442 575 
Q 3803 722 4122 1019 
L 4122 359 
Q 3791 134 3420 21 
Q 3050 -91 2638 -91 
Q 1578 -91 968 557 
Q 359 1206 359 2328 
Q 359 3453 968 4101 
Q 1578 4750 2638 4750 
Q 3056 4750 3426 4639 
Q 3797 4528 4122 4306 
z
" transform="scale(0.015625)"/>
       <path id="DejaVuSans-5d" d="M 1947 4863 
L 1947 -844 
L 622 -844 
L 622 -397 
L 1369 -397 
L 1369 4416 
L 622 4416 
L 622 4863 
L 1947 4863 
z
" transform="scale(0.015625)"/>
      </defs>
      <use xlink:href="#DejaVuSans-54"/>
      <use xlink:href="#DejaVuSans-65" x="44.083984"/>
      <use xlink:href="#DejaVuSans-6d" x="105.607422"/>
      <use xlink:href="#DejaVuSans-70" x="203.019531"/>
      <use xlink:href="#DejaVuSans-65" x="266.496094"/>
      <use xlink:href="#DejaVuSans-72" x="328.019531"/>
      <use xlink:href="#DejaVuSans-61" x="369.132812"/>
      <use xlink:href="#DejaVuSans-74" x="430.412109"/>
      <use xlink:href="#DejaVuSans-75" x="469.621094"/>
      <use xlink:href="#DejaVuSans-72" x="533"/>
      <use xlink:href="#DejaVuSans-65" x="571.863281"/>
      <use xlink:href="#DejaVuSans-20" x="633.386719"/>
      <use xlink:href="#DejaVuSans-5b" x="665.173828"/>
      <use xlink:href="#DejaVuSans-c2" x="704.1875"/>
      <use xlink:href="#DejaVuSans-b0" x="772.595703"/>
      <use xlink:href="#DejaVuSans-43" x="822.595703"/>
      <use xlink:href="#DejaVuSans-5d" x="892.419922"/>
     </g>
    </g>
   </g>
   <g id="line2d_27">
    <path d="M 46.46 188.503588 
L 46.497361 188.503588 
L 46.647415 191.503838 
L 46.947532 191.503838 
L 47.023033 193.003963 
L 47.322671 193.003963 
L 47.435467 194.504088 
L 47.547757 193.003963 
L 48.072957 193.003963 
L 48.223011 190.003713 
L 48.260669 190.003713 
L 48.410796 187.003463 
L 48.448551 187.003463 
L 48.598153 188.503588 
L 48.823242 188.503588 
L 48.936038 190.003713 
L 49.311122 190.003713 
L 49.38611 191.503838 
L 49.498497 190.003713 
L 49.72358 190.003713 
L 49.836309 191.503838 
L 50.286462 191.503838 
L 50.398836 190.003713 
L 50.736638 190.003713 
L 50.849011 191.503838 
L 50.999064 191.503838 
L 51.111772 193.003963 
L 51.411906 193.003963 
L 51.524263 194.504088 
L 51.561985 193.003963 
L 51.599293 194.504088 
L 51.78712 194.504088 
L 51.899407 196.004213 
L 51.974875 194.504088 
L 52.087093 194.504088 
L 52.199523 193.003963 
L 52.237246 193.003963 
L 52.349576 194.504088 
L 52.38729 194.504088 
L 52.499635 196.004213 
L 52.64969 196.004213 
L 52.799751 194.504088 
L 52.874781 194.504088 
L 52.912528 193.003963 
L 52.94981 194.504088 
L 53.324948 194.504088 
L 53.400435 196.004213 
L 53.850149 196.004213 
L 53.962865 194.504088 
L 54.713182 194.504088 
L 54.863048 197.504338 
L 54.938244 197.504338 
L 55.050607 199.004463 
L 55.725866 199.004463 
L 55.838595 197.504338 
L 56.101003 197.504338 
L 56.176031 199.004463 
L 56.251526 199.004463 
L 56.401114 202.004713 
L 56.663928 202.004713 
L 56.813956 199.004463 
L 57.339213 199.004463 
L 57.451517 197.504338 
L 57.864345 197.504338 
L 57.976714 199.004463 
L 58.014443 199.004463 
L 58.12677 200.504588 
L 58.201803 200.504588 
L 58.27683 199.004463 
L 58.426882 200.504588 
L 58.501912 200.504588 
L 58.614695 202.004713 
L 58.7647 199.004463 
L 58.877059 199.004463 
L 59.027578 202.004713 
L 59.102142 202.004713 
L 59.252201 205.004963 
L 59.327229 205.004963 
L 59.439975 206.505088 
L 59.702365 206.505088 
L 59.927454 203.504838 
L 59.965175 203.504838 
L 60.07751 202.004713 
L 60.115224 202.004713 
L 60.265282 205.004963 
L 60.640434 205.004963 
L 60.790491 202.004713 
L 60.827799 202.004713 
L 60.977853 199.004463 
L 61.015566 199.004463 
L 61.127912 197.504338 
L 61.202929 197.504338 
L 61.315621 196.004213 
L 61.352998 196.004213 
L 61.465735 194.504088 
L 61.503051 194.504088 
L 61.615848 196.004213 
L 61.728137 196.004213 
L 61.803166 197.504338 
L 61.878641 197.504338 
L 61.99091 199.004463 
L 62.253337 199.004463 
L 62.403396 202.004713 
L 62.441155 202.004713 
L 62.553883 203.504838 
L 62.628479 203.504838 
L 62.778535 200.504588 
L 62.816255 200.504588 
L 62.966313 197.504338 
L 63.228707 197.504338 
L 63.378763 199.004463 
L 63.566496 199.004463 
L 63.603848 200.504588 
L 63.6416 199.004463 
L 63.71661 199.004463 
L 63.866666 196.004213 
L 63.941688 196.004213 
L 64.054019 197.504338 
L 64.129273 197.504338 
L 64.241798 199.004463 
L 64.429166 199.004463 
L 64.579223 202.004713 
L 64.654248 202.004713 
L 64.842058 206.505088 
L 65.029389 206.505088 
L 65.142154 208.005213 
L 65.21718 208.005213 
L 65.329503 211.005463 
L 65.442051 211.005463 
L 65.554585 212.505588 
L 65.892431 212.505588 
L 66.004763 214.005713 
L 66.04249 214.005713 
L 66.154819 215.505838 
L 66.304874 215.505838 
L 66.417535 214.005713 
L 66.49267 214.005713 
L 66.604987 215.505838 
L 66.755048 215.505838 
L 67.055159 211.005463 
L 67.167957 212.505588 
L 67.317992 209.505338 
L 67.61801 209.505338 
L 67.730418 211.005463 
L 67.993244 211.005463 
L 68.105559 209.505338 
L 68.293196 209.505338 
L 68.480705 205.004963 
L 68.593485 205.004963 
L 68.780817 200.504588 
L 68.818618 200.504588 
L 68.931308 199.004463 
L 69.043578 199.004463 
L 69.230988 194.504088 
L 69.418763 199.004463 
L 69.606598 199.004463 
L 69.831216 185.503338 
L 70.281387 143.499838 
L 70.731553 122.498088 
L 70.844279 122.498088 
L 70.994395 116.497588 
L 71.144342 119.497838 
L 71.294336 116.497588 
L 71.331779 116.497588 
L 71.444581 117.997713 
L 71.5196 117.997713 
L 71.70692 108.996963 
L 71.894662 104.496588 
L 71.932004 104.496588 
L 72.194756 96.995963 
L 72.232114 96.995963 
L 72.382171 93.995713 
L 72.49472 93.995713 
L 72.607254 96.995963 
L 72.870126 89.495338 
L 73.020167 89.495338 
L 73.395239 71.493838 
L 73.432565 72.993963 
L 73.732671 104.496588 
L 73.8077 105.996713 
L 73.883042 105.996713 
L 74.032786 108.996963 
L 74.558447 84.994963 
L 74.670676 81.994713 
L 74.783068 84.994963 
L 74.895888 83.494838 
L 74.933122 83.494838 
L 75.571095 104.496588 
L 75.608368 104.496588 
L 75.758425 95.495838 
L 75.983834 84.994963 
L 76.171205 80.494588 
L 76.208598 80.494588 
L 76.321384 81.994713 
L 76.433682 81.994713 
L 77.071683 104.496588 
L 77.221716 101.496338 
L 77.258982 101.496338 
L 77.334012 102.996463 
L 77.409029 102.996463 
L 77.78418 114.997463 
L 77.821918 114.997463 
L 77.93423 113.497338 
L 78.009262 113.497338 
L 78.159319 111.997213 
L 78.197009 111.997213 
L 78.647231 96.995963 
L 78.759873 96.995963 
L 78.909596 99.996213 
L 78.94737 98.496088 
L 78.984623 99.996213 
L 79.022411 99.996213 
L 79.284735 90.995463 
L 79.322494 92.495588 
L 79.359766 90.995463 
L 79.397582 90.995463 
L 79.659877 77.494338 
L 79.884962 71.493838 
L 79.959994 71.493838 
L 80.222575 78.994463 
L 80.372951 75.994213 
L 80.410156 75.994213 
L 80.635237 86.495088 
L 80.673051 86.495088 
L 80.860772 92.495588 
L 80.972957 92.495588 
L 81.085403 90.995463 
L 81.235456 90.995463 
L 81.348188 92.495588 
L 81.385515 92.495588 
L 81.610971 86.495088 
L 81.648146 86.495088 
L 81.79842 83.494838 
L 82.098525 92.495588 
L 82.135795 92.495588 
L 82.248597 93.995713 
L 82.286231 93.995713 
L 82.435904 95.495838 
L 82.548703 93.995713 
L 82.585961 95.495838 
L 82.623741 93.995713 
L 82.660989 93.995713 
L 82.811043 90.995463 
L 82.9611 90.995463 
L 83.111154 95.495838 
L 83.223903 93.995713 
L 83.261211 93.995713 
L 83.448988 89.495338 
L 83.486293 89.495338 
L 83.63635 93.995713 
L 83.861435 93.995713 
L 84.049232 89.495338 
L 84.12413 89.495338 
L 84.274294 86.495088 
L 84.311602 86.495088 
L 84.611716 77.494338 
L 85.061885 77.494338 
L 85.137261 75.994213 
L 85.249676 77.494338 
L 85.28697 77.494338 
L 85.737131 90.995463 
L 85.924865 90.995463 
L 86.037242 92.495588 
L 86.262329 95.495838 
L 86.450188 95.495838 
L 86.562439 93.995713 
L 86.675247 93.995713 
L 86.787523 92.495588 
L 86.900373 92.495588 
L 87.012606 90.995463 
L 87.162663 90.995463 
L 87.312719 92.495588 
L 87.350439 92.495588 
L 87.462775 93.995713 
L 87.500554 93.995713 
L 87.612832 95.495838 
L 87.650588 95.495838 
L 87.762889 96.995963 
L 87.875682 96.995963 
L 88.025626 99.996213 
L 88.062998 99.996213 
L 88.588196 116.497588 
L 88.776011 116.497588 
L 88.888307 114.997463 
L 89.188418 114.997463 
L 89.376004 119.497838 
L 89.413502 119.497838 
L 89.563562 122.498088 
L 89.676363 122.498088 
L 89.788649 123.998213 
L 90.163789 123.998213 
L 90.276617 125.498338 
L 90.35169 125.498338 
L 90.501678 128.498588 
L 90.613957 128.498588 
L 90.764461 131.498838 
L 90.801578 131.498838 
L 90.951874 134.499088 
L 91.026924 134.499088 
L 91.214183 138.999463 
L 91.251844 138.999463 
L 91.402075 141.999713 
L 91.439621 141.999713 
L 91.551964 143.499838 
L 91.627128 143.499838 
L 91.73938 144.999963 
L 91.81441 144.999963 
L 91.927129 146.500088 
L 92.039493 146.500088 
L 92.114978 148.000213 
L 92.302347 148.000213 
L 92.414635 149.500338 
L 92.52729 149.500338 
L 92.63972 151.000463 
L 93.014869 151.000463 
L 93.127755 152.500588 
L 93.540484 152.500588 
L 93.615097 154.000713 
L 93.652733 152.500588 
L 93.690124 154.000713 
L 94.440411 154.000713 
L 94.55321 155.500838 
L 94.966089 155.500838 
L 95.078308 154.000713 
L 95.19069 154.000713 
L 95.265721 152.500588 
L 95.303521 154.000713 
L 95.340745 152.500588 
L 95.453592 152.500588 
L 95.565833 154.000713 
L 95.903758 154.000713 
L 96.016 155.500838 
L 96.053787 155.500838 
L 96.166057 154.000713 
L 96.428683 154.000713 
L 96.466171 152.500588 
L 96.503878 154.000713 
L 96.916337 154.000713 
L 97.029195 152.500588 
L 97.366509 152.500588 
L 97.479376 154.000713 
L 97.629451 154.000713 
L 97.741648 155.500838 
L 98.079507 155.500838 
L 98.191816 154.000713 
L 98.341873 154.000713 
L 98.454671 155.500838 
L 98.792042 155.500838 
L 98.904902 154.000713 
L 99.430118 154.000713 
L 99.542324 155.500838 
L 99.692378 155.500838 
L 99.805122 154.000713 
L 100.067521 154.000713 
L 100.180323 155.500838 
L 100.51769 155.500838 
L 100.593079 157.000963 
L 101.117913 157.000963 
L 101.230716 158.501088 
L 102.843562 158.501088 
L 102.956337 160.001213 
L 103.856736 160.001213 
L 103.96898 161.501338 
L 104.644232 161.501338 
L 104.757079 160.001213 
L 105.544949 160.001213 
L 105.657292 161.501338 
L 105.957461 161.501338 
L 106.069764 160.001213 
L 106.895072 160.001213 
L 107.045128 161.501338 
L 107.15791 160.001213 
L 108.658521 160.001213 
L 108.770773 161.501338 
L 109.145911 161.501338 
L 109.258733 160.001213 
L 109.896196 160.001213 
L 110.009097 161.501338 
L 110.159071 161.501338 
L 110.271339 160.001213 
L 111.096649 160.001213 
L 111.209191 161.501338 
L 112.109753 161.501338 
L 112.222075 163.001463 
L 115.185894 163.001463 
L 115.298227 164.501588 
L 115.373642 164.501588 
L 115.523316 163.001463 
L 115.636095 163.001463 
L 115.748401 164.501588 
L 115.786141 164.501588 
L 115.898457 163.001463 
L 116.948858 163.001463 
L 117.061589 161.501338 
L 117.098915 161.501338 
L 117.211708 163.001463 
L 120.700286 163.001463 
L 120.813109 161.501338 
L 129.891455 161.501338 
L 130.003781 163.001463 
L 130.979146 163.001463 
L 131.092007 161.501338 
L 131.542079 161.501338 
L 131.654397 163.001463 
L 132.217433 163.001463 
L 132.330076 164.501588 
L 134.505464 164.501588 
L 134.618319 166.001713 
L 134.880606 166.001713 
L 134.993457 164.501588 
L 136.456195 164.501588 
L 136.606252 166.001713 
L 136.719099 166.001713 
L 136.831334 164.501588 
L 136.944196 164.501588 
L 136.981393 166.001713 
L 137.019237 164.501588 
L 139.795221 164.501588 
L 139.907497 166.001713 
L 140.057987 166.001713 
L 140.207611 164.501588 
L 142.646291 164.501588 
L 142.758562 166.001713 
L 142.796374 166.001713 
L 142.833589 164.501588 
L 142.983644 166.001713 
L 143.058674 166.001713 
L 143.171403 164.501588 
L 143.658898 164.501588 
L 143.771742 163.001463 
L 144.747117 163.001463 
L 144.85935 161.501338 
L 145.272204 161.501338 
L 145.384552 160.001213 
L 146.322734 160.001213 
L 146.435355 158.501088 
L 147.260255 158.501088 
L 147.373015 160.001213 
L 147.485344 160.001213 
L 147.598146 158.501088 
L 148.460713 158.501088 
L 148.573275 160.001213 
L 149.211376 160.001213 
L 149.361059 161.501338 
L 150.524313 161.501338 
L 150.636948 160.001213 
L 150.974383 160.001213 
L 151.086717 161.501338 
L 151.386835 161.501338 
L 151.499586 160.001213 
L 152.062476 160.001213 
L 152.174739 161.501338 
L 155.663434 161.501338 
L 155.776152 163.001463 
L 158.289422 163.001463 
L 158.364799 164.501588 
L 158.852329 164.501588 
L 158.964674 166.001713 
L 159.039702 166.001713 
L 159.189757 167.501838 
L 159.377543 167.501838 
L 159.527642 170.502088 
L 159.564896 170.502088 
L 159.977784 182.503088 
L 160.015067 182.503088 
L 160.16512 185.503338 
L 160.202954 185.503338 
L 160.35296 188.503588 
L 160.428048 188.503588 
L 160.577864 191.503838 
L 160.690324 191.503838 
L 160.803145 193.003963 
L 160.953168 193.003963 
L 161.103199 196.004213 
L 161.253054 196.004213 
L 161.365573 197.504338 
L 161.440607 197.504338 
L 161.55346 199.004463 
L 161.590663 199.004463 
L 161.703494 200.504588 
L 161.778452 200.504588 
L 161.891235 202.004713 
L 162.040829 203.504838 
L 162.115859 203.504838 
L 162.228662 205.004963 
L 162.415978 205.004963 
L 162.528717 206.505088 
L 162.716085 206.505088 
L 162.828866 208.005213 
L 163.579075 208.005213 
L 163.69146 209.505338 
L 163.766489 209.505338 
L 163.879354 208.005213 
L 164.216659 208.005213 
L 164.3295 206.505088 
L 164.5918 206.505088 
L 164.666836 205.004963 
L 165.004581 205.004963 
L 165.117005 203.504838 
L 165.379842 203.504838 
L 165.492144 202.004713 
L 165.830034 202.004713 
L 165.942315 200.504588 
L 165.980051 200.504588 
L 166.092374 199.004463 
L 166.355195 199.004463 
L 166.467516 197.504338 
L 166.6926 197.504338 
L 166.805321 196.004213 
L 167.067747 196.004213 
L 167.180578 194.504088 
L 167.217806 194.504088 
L 167.33052 193.003963 
L 168.193169 193.003963 
L 168.305721 191.503838 
L 168.418258 191.503838 
L 168.531127 190.003713 
L 168.606082 190.003713 
L 168.718373 188.503588 
L 169.01849 188.503588 
L 169.131301 187.003463 
L 169.318599 187.003463 
L 169.43147 185.503338 
L 169.61871 185.503338 
L 169.76877 184.003213 
L 171.044255 184.003213 
L 171.194314 182.503088 
L 171.307166 182.503088 
L 171.419397 181.002963 
L 171.869569 181.002963 
L 171.982402 179.502838 
L 172.057397 179.502838 
L 172.169679 178.002713 
L 172.470234 178.002713 
L 172.61985 176.502588 
L 174.120418 176.502588 
L 174.233279 178.002713 
L 174.383283 178.002713 
L 174.495554 176.502588 
L 174.983409 176.502588 
L 175.095786 175.002463 
L 175.208554 175.002463 
L 175.321326 176.502588 
L 175.433583 176.502588 
L 175.545951 175.002463 
L 176.108772 175.002463 
L 176.221204 173.502338 
L 176.446291 173.502338 
L 176.559159 175.002463 
L 176.596348 175.002463 
L 176.671378 173.502338 
L 176.821429 173.502338 
L 177.009284 169.001963 
L 177.159279 169.001963 
L 177.271601 170.502088 
L 177.309419 170.502088 
L 177.422081 172.002213 
L 177.759572 172.002213 
L 177.946856 167.501838 
L 178.096915 167.501838 
L 178.246975 169.001963 
L 178.359831 169.001963 
L 178.472057 170.502088 
L 178.547085 170.502088 
L 178.659939 172.002213 
L 178.734945 172.002213 
L 178.847552 173.502338 
L 179.035072 173.502338 
L 179.147311 175.002463 
L 180.42279 175.002463 
L 180.535585 173.502338 
L 180.647877 173.502338 
L 180.797935 170.502088 
L 180.835749 170.502088 
L 180.948483 169.001963 
L 181.023016 169.001963 
L 181.173074 166.001713 
L 181.210863 166.001713 
L 181.323133 164.501588 
L 181.585994 164.501588 
L 181.698272 166.001713 
L 181.848333 166.001713 
L 181.961167 167.501838 
L 181.998385 166.001713 
L 182.036213 167.501838 
L 182.373997 167.501838 
L 182.486254 169.001963 
L 182.63637 169.001963 
L 182.74867 170.502088 
L 182.861526 170.502088 
L 182.973758 172.002213 
L 183.236638 172.002213 
L 183.348899 173.502338 
L 186.913093 173.502338 
L 187.025288 172.002213 
L 187.138062 173.502338 
L 187.513272 173.502338 
L 187.625516 175.002463 
L 188.450828 175.002463 
L 188.563676 176.502588 
L 188.600881 176.502588 
L 188.675914 175.002463 
L 189.801335 175.002463 
L 189.914173 176.502588 
L 190.10186 176.502588 
L 190.251509 175.002463 
L 190.401563 175.002463 
L 190.514323 173.502338 
L 190.589368 173.502338 
L 190.701675 175.002463 
L 191.414695 175.002463 
L 191.527394 173.502338 
L 191.714833 173.502338 
L 191.752074 172.002213 
L 191.789806 173.502338 
L 191.86487 173.502338 
L 191.93988 172.002213 
L 192.01494 173.502338 
L 192.127214 172.002213 
L 192.615188 172.002213 
L 192.727442 173.502338 
L 193.327669 173.502338 
L 193.440414 175.002463 
L 193.740453 175.002463 
L 193.852867 176.502588 
L 194.002928 176.502588 
L 194.115729 178.002713 
L 194.716003 178.002713 
L 194.828242 179.502838 
L 195.428466 179.502838 
L 195.541306 181.002963 
L 196.553892 181.002963 
L 196.703942 184.003213 
L 196.778972 184.003213 
L 196.929029 187.003463 
L 196.966689 187.003463 
L 197.079085 188.503588 
L 197.116881 188.503588 
L 197.229143 190.003713 
L 197.304173 190.003713 
L 197.416912 191.503838 
L 197.754342 191.503838 
L 197.829371 193.003963 
L 198.054458 193.003963 
L 198.204513 196.004213 
L 198.317337 196.004213 
L 198.429596 197.504338 
L 198.467365 197.504338 
L 198.580128 199.004463 
L 198.729712 199.004463 
L 198.842514 200.504588 
L 198.917448 200.504588 
L 199.029821 202.004713 
L 199.217689 202.004713 
L 199.329933 203.504838 
L 199.780107 203.504838 
L 199.892834 202.004713 
L 200.230275 202.004713 
L 200.343018 200.504588 
L 200.530388 200.504588 
L 200.64316 202.004713 
L 200.905532 202.004713 
L 201.018254 200.504588 
L 203.04407 200.504588 
L 203.156378 202.004713 
L 203.306435 202.004713 
L 203.419271 203.504838 
L 204.281805 203.504838 
L 204.394603 202.004713 
L 204.469594 202.004713 
L 204.506894 203.504838 
L 204.544661 202.004713 
L 204.769681 202.004713 
L 204.882035 200.504588 
L 204.994619 200.504588 
L 205.107119 199.004463 
L 205.144937 199.004463 
L 205.257178 197.504338 
L 205.295037 197.504338 
L 205.445058 194.504088 
L 205.520077 194.504088 
L 205.632743 193.003963 
L 205.707347 193.003963 
L 205.857402 190.003713 
L 205.970192 190.003713 
L 206.082487 188.503588 
L 206.83277 188.503588 
L 206.945574 190.003713 
L 207.583056 190.003713 
L 207.695857 191.503838 
L 208.558427 191.503838 
L 208.708483 188.503588 
L 208.858538 188.503588 
L 208.971388 187.003463 
L 209.233687 187.003463 
L 209.271338 185.503338 
L 209.308711 187.003463 
L 209.533798 187.003463 
L 209.64659 185.503338 
L 209.683857 185.503338 
L 209.796695 184.003213 
L 210.096802 184.003213 
L 210.209062 182.503088 
L 210.396858 182.503088 
L 210.509178 181.002963 
L 210.734261 181.002963 
L 210.847011 179.502838 
L 211.072028 179.502838 
L 211.147106 178.002713 
L 211.184431 179.502838 
L 211.222209 178.002713 
L 211.447172 178.002713 
L 211.559576 176.502588 
L 211.672301 176.502588 
L 211.747361 175.002463 
L 211.859685 176.502588 
L 211.934717 176.502588 
L 212.572693 187.003463 
L 213.810427 187.003463 
L 213.923281 188.503588 
L 214.03551 188.503588 
L 214.185569 187.003463 
L 214.448477 187.003463 
L 214.560709 185.503338 
L 214.635736 185.503338 
L 214.748499 184.003213 
L 214.786272 184.003213 
L 214.935846 182.503088 
L 214.973633 182.503088 
L 215.085904 181.002963 
L 215.38602 181.002963 
L 215.461046 179.502838 
L 215.536484 179.502838 
L 215.573627 178.002713 
L 215.6111 179.502838 
L 215.874038 179.502838 
L 215.986244 181.002963 
L 216.399167 181.002963 
L 216.549135 178.002713 
L 216.774317 178.002713 
L 216.886588 176.502588 
L 216.961597 176.502588 
L 217.149412 181.002963 
L 217.336756 181.002963 
L 217.524565 176.502588 
L 217.561838 176.502588 
L 217.711898 173.502338 
L 217.749579 173.502338 
L 217.899691 170.502088 
L 218.199837 170.502088 
L 218.312532 169.001963 
L 218.537205 166.001713 
L 218.57496 166.001713 
L 218.68726 164.501588 
L 218.800033 164.501588 
L 218.912348 163.001463 
L 218.950113 163.001463 
L 219.062814 161.501338 
L 219.287492 161.501338 
L 219.400197 160.001213 
L 219.5876 160.001213 
L 219.700431 161.501338 
L 219.738129 161.501338 
L 219.887714 160.001213 
L 219.962743 160.001213 
L 220.075603 158.501088 
L 220.487935 158.501088 
L 220.600703 157.000963 
L 220.67575 157.000963 
L 220.788051 155.500838 
L 220.938113 158.501088 
L 221.01314 158.501088 
L 221.163634 161.501338 
L 221.200725 161.501338 
L 221.313253 163.001463 
L 221.463312 163.001463 
L 221.538338 161.501338 
L 221.651212 163.001463 
L 221.688395 163.001463 
L 221.838922 166.001713 
L 222.176386 166.001713 
L 222.251285 164.501588 
L 222.363649 166.001713 
L 222.513705 166.001713 
L 222.813818 170.502088 
L 222.888848 170.502088 
L 222.926693 169.001963 
L 222.963878 170.502088 
L 223.07672 170.502088 
L 223.188967 172.002213 
L 223.22679 172.002213 
L 223.376679 169.001963 
L 223.526864 169.001963 
L 223.639137 167.501838 
L 223.789191 167.501838 
L 223.901942 169.001963 
L 223.939249 169.001963 
L 224.164331 172.002213 
L 224.239361 172.002213 
L 224.352136 173.502338 
L 224.839591 173.502338 
L 224.952428 175.002463 
L 225.17752 175.002463 
L 225.289757 176.502588 
L 225.627677 176.502588 
L 225.739928 178.002713 
L 225.965014 178.002713 
L 226.040041 179.502838 
L 226.678087 179.502838 
L 226.790835 181.002963 
L 227.128244 181.002963 
L 227.24049 182.503088 
L 227.315518 182.503088 
L 227.428387 184.003213 
L 227.465578 184.003213 
L 227.615635 185.503338 
L 227.653394 185.503338 
L 227.76569 187.003463 
L 227.990777 187.003463 
L 228.103651 188.503588 
L 228.328583 188.503588 
L 228.440945 190.003713 
L 228.55385 190.003713 
L 228.666032 191.503838 
L 228.778788 191.503838 
L 228.891501 193.003963 
L 229.003772 193.003963 
L 229.1162 194.504088 
L 229.153928 194.504088 
L 229.266262 196.004213 
L 229.341289 196.004213 
L 229.454072 197.504338 
L 229.52918 197.504338 
L 229.641915 199.004463 
L 229.678962 199.004463 
L 229.791462 200.504588 
L 229.941517 200.504588 
L 230.054383 202.004713 
L 230.12943 202.004713 
L 230.241631 203.504838 
L 230.766826 203.504838 
L 230.916884 200.504588 
L 230.991909 200.504588 
L 231.216997 203.504838 
L 231.442086 203.504838 
L 231.554876 205.004963 
L 231.629827 205.004963 
L 231.742573 206.505088 
L 231.779722 206.505088 
L 231.892253 208.005213 
L 231.967284 208.005213 
L 232.080112 209.505338 
L 232.117337 209.505338 
L 232.23007 211.005463 
L 232.417839 211.005463 
L 232.567514 212.505588 
L 232.605301 212.505588 
L 232.755368 215.505838 
L 232.7926 215.505838 
L 232.942657 218.506088 
L 233.01768 218.506088 
L 233.092715 220.006213 
L 233.767972 220.006213 
L 233.843441 221.506338 
L 233.955658 221.506338 
L 234.068086 223.006463 
L 234.105716 223.006463 
L 234.21814 221.506338 
L 234.25594 221.506338 
L 234.368196 220.006213 
L 234.405783 220.006213 
L 234.518254 218.506088 
L 234.705981 218.506088 
L 234.818367 220.006213 
L 235.043459 220.006213 
L 235.156174 218.506088 
L 235.568656 218.506088 
L 235.718715 221.506338 
L 235.831418 221.506338 
L 235.944289 223.006463 
L 236.093857 224.506588 
L 236.243913 224.506588 
L 236.356649 226.006713 
L 236.39397 226.006713 
L 236.506667 227.506838 
L 236.544029 227.506838 
L 236.619056 226.006713 
L 236.731623 226.006713 
L 236.91917 221.506338 
L 236.956856 221.506338 
L 237.106906 218.506088 
L 237.219284 220.006213 
L 237.294316 220.006213 
L 237.369773 221.506338 
L 237.482007 221.506338 
L 237.594432 223.006463 
L 237.63211 223.006463 
L 237.744489 224.506588 
L 238.419745 224.506588 
L 238.53248 223.006463 
L 238.607521 223.006463 
L 238.719863 221.506338 
L 238.795402 223.006463 
L 238.944947 221.506338 
L 239.132727 221.506338 
L 239.282698 224.506588 
L 239.395119 224.506588 
L 239.470147 226.006713 
L 239.582771 226.006713 
L 239.695236 227.506838 
L 240.145408 227.506838 
L 240.558218 233.507338 
L 240.745637 233.507338 
L 240.858338 232.007213 
L 240.97072 233.507338 
L 241.008343 233.507338 
L 241.120775 235.007463 
L 241.270835 235.007463 
L 241.383555 236.507588 
L 241.495921 236.507588 
L 241.570946 238.007713 
L 241.721005 236.507588 
L 241.79604 236.507588 
L 241.833742 238.007713 
L 241.87106 236.507588 
L 242.171182 236.507588 
L 242.283927 235.007463 
L 242.771413 235.007463 
L 242.884176 236.507588 
L 243.334364 236.507588 
L 243.484421 233.507338 
L 243.559294 233.507338 
L 243.709518 236.507588 
L 243.896838 236.507588 
L 244.084619 232.007213 
L 244.722151 232.007213 
L 244.834912 233.507338 
L 244.98494 233.507338 
L 245.097301 235.007463 
L 245.247354 236.507588 
L 245.360164 235.007463 
L 245.735335 235.007463 
L 245.847903 233.507338 
L 246.07267 236.507588 
L 246.110464 236.507588 
L 246.260516 239.507838 
L 246.297759 239.507838 
L 246.447816 242.508088 
L 246.485576 242.508088 
L 246.598215 244.008213 
L 246.672908 244.008213 
L 246.785772 245.508338 
L 246.822959 245.508338 
L 246.935828 247.008463 
L 247.085779 247.008463 
L 247.1981 248.508588 
L 247.273496 248.508588 
L 247.49822 251.508838 
L 247.836109 251.508838 
L 247.948395 250.008713 
L 248.136203 250.008713 
L 248.248511 248.508588 
L 248.286266 248.508588 
L 248.398567 250.008713 
L 248.511381 250.008713 
L 248.661396 247.008463 
L 248.773708 247.008463 
L 248.886528 245.508338 
L 248.92377 245.508338 
L 249.036613 244.008213 
L 249.223881 244.008213 
L 249.336594 242.508088 
L 249.374256 242.508088 
L 249.523993 241.007963 
L 249.786898 241.007963 
L 249.936969 244.008213 
L 250.124682 244.008213 
L 250.236965 245.508338 
L 250.649429 245.508338 
L 250.799893 248.508588 
L 250.912153 248.508588 
L 251.062305 251.508838 
L 251.212462 251.508838 
L 251.324694 253.008963 
L 251.47475 253.008963 
L 251.587343 254.509088 
L 251.774863 250.008713 
L 251.849891 250.008713 
L 251.999954 247.008463 
L 252.07498 247.008463 
L 252.150005 248.508588 
L 252.187721 247.008463 
L 252.225428 248.508588 
L 252.300065 248.508588 
L 252.412875 247.008463 
L 252.60018 247.008463 
L 252.713016 248.508588 
L 253.050356 248.508588 
L 253.163134 250.008713 
L 253.275446 250.008713 
L 253.425501 247.008463 
L 253.950705 247.008463 
L 254.06348 245.508338 
L 254.475909 245.508338 
L 254.588734 247.008463 
L 254.663719 247.008463 
L 254.776024 248.508588 
L 254.926076 248.508588 
L 255.076536 245.508338 
L 255.414008 245.508338 
L 255.526314 244.008213 
L 255.714117 244.008213 
L 255.826426 245.508338 
L 255.864051 245.508338 
L 256.014197 248.508588 
L 256.051511 248.508588 
L 256.201569 251.508838 
L 256.426651 251.508838 
L 256.576715 250.008713 
L 256.614451 250.008713 
L 256.726771 251.508838 
L 256.801801 251.508838 
L 256.951853 254.509088 
L 257.026881 254.509088 
L 257.139762 256.009213 
L 257.289638 256.009213 
L 257.402029 257.509338 
L 257.815018 257.509338 
L 257.927231 259.009463 
L 257.964829 259.009463 
L 258.077286 257.509338 
L 258.340168 257.509338 
L 258.452434 256.009213 
L 258.490236 256.009213 
L 258.527464 254.509088 
L 258.67752 256.009213 
L 258.827575 256.009213 
L 258.977635 259.009463 
L 259.20272 259.009463 
L 259.278105 257.509338 
L 259.615625 257.509338 
L 259.802955 253.008963 
L 259.877981 253.008963 
L 259.95301 251.508838 
L 260.065589 251.508838 
L 260.103066 253.008963 
L 260.140745 251.508838 
L 260.440837 251.508838 
L 260.553244 253.008963 
L 260.77833 253.008963 
L 260.891091 251.508838 
L 260.928384 253.008963 
L 260.966126 251.508838 
L 261.341266 251.508838 
L 261.491162 254.509088 
L 261.528618 254.509088 
L 261.753704 260.509588 
L 261.941448 260.509588 
L 262.09154 257.509338 
L 262.203872 257.509338 
L 262.391768 253.008963 
L 262.466825 253.008963 
L 262.579019 251.508838 
L 262.65405 251.508838 
L 262.76692 253.008963 
L 262.879137 253.008963 
L 262.991887 251.508838 
L 263.10422 251.508838 
L 263.217072 253.008963 
L 263.329314 253.008963 
L 263.479368 256.009213 
L 263.667122 256.009213 
L 263.779482 257.509338 
L 263.817181 257.509338 
L 263.967303 254.509088 
L 264.117369 254.509088 
L 264.230043 253.008963 
L 264.679829 253.008963 
L 264.792633 251.508838 
L 264.904917 251.508838 
L 265.054974 253.008963 
L 265.130003 253.008963 
L 265.280059 256.009213 
L 265.355084 256.009213 
L 265.467971 254.509088 
L 265.730233 254.509088 
L 265.842968 256.009213 
L 265.880288 256.009213 
L 265.993151 257.509338 
L 266.105375 257.509338 
L 266.218151 259.009463 
L 266.405472 259.009463 
L 266.518264 257.509338 
L 266.705608 257.509338 
L 266.893476 262.009713 
L 266.930695 262.009713 
L 267.08119 265.009963 
L 267.23081 265.009963 
L 267.343635 266.510088 
L 267.380869 266.510088 
L 267.493619 265.009963 
L 267.530929 265.009963 
L 267.643742 263.509838 
L 267.756309 263.509838 
L 267.906069 265.009963 
L 267.981099 265.009963 
L 268.131158 268.010213 
L 268.619025 268.010213 
L 268.73139 266.510088 
L 268.769104 266.510088 
L 268.919254 263.509838 
L 269.031502 265.009963 
L 269.069063 265.009963 
L 269.182042 263.509838 
L 269.406648 260.509588 
L 269.781795 260.509588 
L 269.856824 259.009463 
L 269.969399 259.009463 
L 270.044594 260.509588 
L 270.156941 259.009463 
L 270.194741 259.009463 
L 270.306996 260.509588 
L 270.457053 260.509588 
L 270.569874 262.009713 
L 270.682144 262.009713 
L 270.794975 263.509838 
L 270.870018 263.509838 
L 270.982257 262.009713 
L 271.094985 263.509838 
L 271.9204 263.509838 
L 272.070159 260.509588 
L 272.107689 260.509588 
L 272.407805 247.008463 
L 273.158093 170.502088 
L 273.345679 166.001713 
L 273.420875 166.001713 
L 273.570874 163.001463 
L 273.608265 163.001463 
L 273.646067 161.501338 
L 274.058431 190.003713 
L 274.24628 185.503338 
L 274.433573 185.503338 
L 274.546364 184.003213 
L 274.621445 184.003213 
L 274.808716 172.002213 
L 275.221601 141.999713 
L 275.258884 144.999963 
L 275.483972 167.501838 
L 275.559 167.501838 
L 275.821896 154.000713 
L 276.04687 141.999713 
L 276.084626 141.999713 
L 276.759448 117.997713 
L 276.947208 122.498088 
L 277.097334 122.498088 
L 277.209615 120.997963 
L 277.434698 131.498838 
L 277.510138 129.998713 
L 277.584755 129.998713 
L 277.697576 128.498588 
L 277.734812 128.498588 
L 277.922563 123.998213 
L 277.959896 123.998213 
L 278.147724 117.997713 
L 278.372777 129.998713 
L 278.485088 129.998713 
L 278.597921 128.498588 
L 278.710169 128.498588 
L 279.085315 116.497588 
L 279.123075 116.497588 
L 279.535481 129.998713 
L 279.68554 129.998713 
L 279.798328 131.498838 
L 279.873373 131.498838 
L 280.398343 108.996963 
L 280.435816 110.497088 
L 280.548623 113.497338 
L 280.623658 111.997213 
L 280.998806 123.998213 
L 281.073531 123.998213 
L 281.448988 107.496838 
L 281.486209 108.996963 
L 281.974102 140.499588 
L 282.049189 140.499588 
L 282.536604 157.000963 
L 282.5743 157.000963 
L 282.724346 154.000713 
L 282.761687 154.000713 
L 282.874504 152.500588 
L 282.911744 152.500588 
L 283.137276 158.501088 
L 283.286884 158.501088 
L 283.474768 154.000713 
L 283.511971 154.000713 
L 283.66203 157.000963 
L 283.737058 157.000963 
L 283.88751 160.001213 
L 283.999871 158.501088 
L 284.037165 158.501088 
L 284.150017 160.001213 
L 284.300032 160.001213 
L 284.412307 161.501338 
L 284.450005 161.501338 
L 284.599867 164.501588 
L 284.71242 164.501588 
L 284.825247 166.001713 
L 284.900284 166.001713 
L 285.312646 152.500588 
L 285.425446 155.500838 
L 285.837846 141.999713 
L 285.988275 141.999713 
L 286.363045 154.000713 
L 286.400622 154.000713 
L 286.550829 157.000963 
L 286.588126 157.000963 
L 286.663534 158.501088 
L 286.96327 154.000713 
L 287.038297 154.000713 
L 287.338409 143.499838 
L 287.413842 143.499838 
L 287.526207 141.999713 
L 287.713549 141.999713 
L 287.938635 148.000213 
L 287.976414 148.000213 
L 288.501662 129.998713 
L 288.538863 129.998713 
L 288.72671 134.499088 
L 288.876585 134.499088 
L 289.139081 141.999713 
L 289.214113 141.999713 
L 289.439198 148.000213 
L 289.589256 149.500338 
L 289.664283 149.500338 
L 289.777031 151.000463 
L 290.077206 151.000463 
L 290.189897 148.000213 
L 290.302151 148.000213 
L 290.414566 146.500088 
L 290.452297 146.500088 
L 290.564624 144.999963 
L 290.864736 144.999963 
L 291.014793 146.500088 
L 291.202604 146.500088 
L 291.314903 148.000213 
L 291.352702 148.000213 
L 291.46496 149.500338 
L 291.577636 149.500338 
L 291.727724 152.500588 
L 291.802796 152.500588 
L 291.915129 154.000713 
L 292.178052 154.000713 
L 292.215239 152.500588 
L 292.253059 154.000713 
L 292.665414 166.001713 
L 292.703232 166.001713 
L 292.81547 167.501838 
L 292.928293 167.501838 
L 293.115581 172.002213 
L 293.190609 172.002213 
L 293.303392 173.502338 
L 293.340664 173.502338 
L 293.49072 176.502588 
L 293.528384 176.502588 
L 293.640781 178.002713 
L 293.71622 178.002713 
L 293.865866 179.502838 
L 293.940895 179.502838 
L 294.053709 181.002963 
L 294.090953 181.002963 
L 294.241008 184.003213 
L 294.35381 184.003213 
L 294.466546 185.503338 
L 294.578861 185.503338 
L 294.691177 187.003463 
L 294.766204 187.003463 
L 294.87903 188.503588 
L 294.91626 188.503588 
L 295.029146 190.003713 
L 295.066316 190.003713 
L 295.178854 191.503838 
L 296.229543 191.503838 
L 296.341805 193.003963 
L 296.791973 193.003963 
L 296.904786 194.504088 
L 298.105136 194.504088 
L 298.217514 193.003963 
L 298.29254 194.504088 
L 298.405374 193.003963 
L 298.85542 193.003963 
L 298.967795 194.504088 
L 299.155624 194.504088 
L 299.26791 196.004213 
L 299.305687 196.004213 
L 299.417971 197.504338 
L 299.455573 197.504338 
L 299.568024 199.004463 
L 299.643055 199.004463 
L 299.755927 200.504588 
L 299.830912 200.504588 
L 299.943169 202.004713 
L 300.205922 202.004713 
L 300.318314 203.504838 
L 300.693451 203.504838 
L 300.768854 205.004963 
L 301.143627 205.004963 
L 301.256467 206.505088 
L 301.519132 206.505088 
L 301.631529 208.005213 
L 301.781563 208.005213 
L 301.893909 209.505338 
L 302.644194 209.505338 
L 302.756983 211.005463 
L 304.219794 211.005463 
L 304.295226 212.505588 
L 304.444881 211.005463 
L 304.519909 211.005463 
L 304.632758 212.505588 
L 305.120137 212.505588 
L 305.232979 211.005463 
L 305.533078 211.005463 
L 305.645339 212.505588 
L 305.945451 212.505588 
L 306.095511 214.005713 
L 306.958644 214.005713 
L 307.070884 212.505588 
L 307.295969 212.505588 
L 307.408753 214.005713 
L 308.309103 214.005713 
L 308.421395 215.505838 
L 308.684194 215.505838 
L 308.796535 217.005963 
L 308.909415 217.005963 
L 309.02162 218.506088 
L 309.096648 218.506088 
L 309.209436 220.006213 
L 309.247147 220.006213 
L 309.396771 221.506338 
L 309.471798 221.506338 
L 309.58462 223.006463 
L 309.621855 223.006463 
L 309.771915 226.006713 
L 309.921972 226.006713 
L 310.072029 227.506838 
L 310.634996 227.506838 
L 310.747284 229.006963 
L 310.822317 229.006963 
L 310.972369 232.007213 
L 311.122427 232.007213 
L 311.23525 233.507338 
L 311.272486 233.507338 
L 311.34788 235.007463 
L 311.460147 235.007463 
L 311.572599 236.507588 
L 311.685276 236.507588 
L 311.797686 238.007713 
L 311.872714 238.007713 
L 311.985574 239.507838 
L 312.285611 239.507838 
L 312.397918 241.007963 
L 312.960912 241.007963 
L 313.073174 242.508088 
L 314.761575 242.508088 
L 314.873866 244.008213 
L 315.474097 244.008213 
L 315.549123 242.508088 
L 316.59953 242.508088 
L 316.712313 241.007963 
L 318.475735 241.007963 
L 318.58799 239.507838 
L 319.900789 239.507838 
L 320.013582 238.007713 
L 320.088628 238.007713 
L 320.200908 236.507588 
L 320.350964 236.507588 
L 320.463716 238.007713 
L 321.251701 238.007713 
L 321.401369 236.507588 
L 322.301711 236.507588 
L 322.4145 238.007713 
L 322.826915 238.007713 
L 322.939776 239.507838 
L 323.239847 239.507838 
L 323.352115 241.007963 
L 323.914961 241.007963 
L 324.102698 236.507588 
L 324.477541 236.507588 
L 324.590357 238.007713 
L 324.965467 238.007713 
L 325.077773 236.507588 
L 325.415655 236.507588 
L 325.528356 238.007713 
L 325.678005 238.007713 
L 325.790836 239.507838 
L 325.865818 239.507838 
L 325.978125 241.007963 
L 326.203658 241.007963 
L 326.353262 242.508088 
L 326.878466 242.508088 
L 327.02852 244.008213 
L 327.103551 244.008213 
L 327.216412 245.508338 
L 327.629236 245.508338 
L 327.778813 244.008213 
L 327.816597 244.008213 
L 327.928867 242.508088 
L 328.078925 242.508088 
L 328.191781 244.008213 
L 328.867031 244.008213 
L 328.979272 245.508338 
L 329.354415 245.508338 
L 329.467295 247.008463 
L 330.93002 247.008463 
L 331.042879 245.508338 
L 331.418047 245.508338 
L 331.530251 244.008213 
L 332.468386 244.008213 
L 332.581057 242.508088 
L 332.768481 242.508088 
L 332.880769 241.007963 
L 334.081227 241.007963 
L 334.194031 239.507838 
L 334.60643 239.507838 
L 334.68146 241.007963 
L 335.319486 241.007963 
L 335.39449 242.508088 
L 335.806888 242.508088 
L 335.919601 241.007963 
L 336.107005 241.007963 
L 336.257058 239.507838 
L 336.932319 239.507838 
L 337.045172 238.007713 
L 337.270254 238.007713 
L 337.382492 236.507588 
L 337.532546 236.507588 
L 337.682607 235.007463 
L 337.945549 235.007463 
L 338.05775 233.507338 
L 338.132781 233.507338 
L 338.207809 232.007213 
L 338.432894 232.007213 
L 338.545695 230.507088 
L 339.221065 230.507088 
L 339.333241 229.006963 
L 339.596101 229.006963 
L 339.708759 227.506838 
L 339.78341 227.506838 
L 339.933467 224.506588 
L 339.971124 224.506588 
L 340.083523 223.006463 
L 340.158551 223.006463 
L 340.271362 224.506588 
L 340.458663 224.506588 
L 340.571467 223.006463 
L 340.796568 223.006463 
L 340.90884 221.506338 
L 340.946615 221.506338 
L 341.058898 220.006213 
L 341.208952 218.506088 
L 341.396848 218.506088 
L 341.509069 217.005963 
L 341.546877 217.005963 
L 341.659124 215.505838 
L 341.997008 215.505838 
L 342.14715 218.506088 
L 342.559455 218.506088 
L 342.709525 215.505838 
L 342.747291 215.505838 
L 342.897345 212.505588 
L 342.93461 212.505588 
L 343.084668 209.505338 
L 343.197444 209.505338 
L 343.309751 208.005213 
L 343.684896 208.005213 
L 343.834953 205.004963 
L 343.910227 205.004963 
L 344.135069 202.004713 
L 344.210096 202.004713 
L 344.32295 203.504838 
L 344.435183 203.504838 
L 344.585239 200.504588 
L 344.660771 200.504588 
L 344.810321 197.504338 
L 344.92314 197.504338 
L 345.073174 200.504588 
L 345.148219 200.504588 
L 345.2605 199.004463 
L 345.298267 199.004463 
L 345.410553 197.504338 
L 345.485581 197.504338 
L 345.598254 196.004213 
L 345.785696 196.004213 
L 345.898538 194.504088 
L 345.935748 194.504088 
L 346.123374 190.003713 
L 346.160839 190.003713 
L 346.348677 185.503338 
L 346.498745 185.503338 
L 346.611007 184.003213 
L 346.648812 184.003213 
L 346.761511 182.503088 
L 346.836089 182.503088 
L 346.986145 185.503338 
L 347.023938 185.503338 
L 347.136206 184.003213 
L 347.248879 184.003213 
L 347.361288 182.503088 
L 347.436321 182.503088 
L 347.661403 176.502588 
L 347.961519 169.001963 
L 348.111571 172.002213 
L 348.261632 173.502338 
L 348.374425 173.502338 
L 348.486715 172.002213 
L 348.749653 172.002213 
L 348.86225 163.001463 
L 349.424888 125.498338 
L 349.762193 114.997463 
L 349.79998 114.997463 
L 350.062306 123.998213 
L 350.212361 117.997713 
L 350.250181 119.497838 
L 350.287889 119.497838 
L 350.400077 123.998213 
L 350.925447 98.496088 
L 351.187731 84.994963 
L 351.262754 84.994963 
L 351.487835 90.995463 
L 351.713237 80.494588 
L 351.938004 93.995713 
L 352.500827 148.000213 
L 352.613256 141.999713 
L 352.988395 108.996963 
L 353.026246 107.496838 
L 353.063424 108.996963 
L 353.213476 110.497088 
L 353.251209 110.497088 
L 353.363536 104.496588 
L 353.401368 105.996713 
L 353.51359 107.496838 
L 353.701376 107.496838 
L 353.814135 98.496088 
L 354.15163 72.993963 
L 354.188847 74.494088 
L 354.488953 90.995463 
L 354.86409 96.995963 
L 354.901861 96.995963 
L 355.089178 101.496338 
L 355.27677 101.496338 
L 355.314263 102.996463 
L 355.351964 101.496338 
L 355.427029 101.496338 
L 355.577121 105.996713 
L 355.689404 104.496588 
L 355.76443 104.496588 
L 356.589741 134.499088 
L 356.664747 134.499088 
L 356.702345 132.998963 
L 356.739792 134.499088 
L 356.777539 134.499088 
L 356.889854 135.999213 
L 356.927581 135.999213 
L 357.152673 141.999713 
L 357.377533 141.999713 
L 357.527834 144.999963 
L 357.565107 144.999963 
L 357.715165 141.999713 
L 357.790189 141.999713 
L 357.940247 138.999463 
L 358.015782 138.999463 
L 358.16533 137.499338 
L 358.240358 137.499338 
L 358.428246 141.999713 
L 358.503251 141.999713 
L 358.615503 143.499838 
L 358.690531 141.999713 
L 358.915614 141.999713 
L 359.06567 144.999963 
L 359.103494 144.999963 
L 359.253544 148.000213 
L 359.290751 148.000213 
L 359.403569 149.500338 
L 359.441249 149.500338 
L 359.590865 151.000463 
L 359.740923 151.000463 
L 359.853672 152.500588 
L 359.928759 152.500588 
L 360.041033 154.000713 
L 360.416177 154.000713 
L 360.528953 155.500838 
L 360.641261 155.500838 
L 360.754007 157.000963 
L 361.129198 157.000963 
L 361.241486 158.501088 
L 361.541985 158.501088 
L 361.691658 160.001213 
L 361.729422 160.001213 
L 361.841713 161.501338 
L 361.991772 161.501338 
L 362.104672 163.001463 
L 362.216855 163.001463 
L 362.366913 164.501588 
L 362.441942 164.501588 
L 362.554755 166.001713 
L 362.667025 166.001713 
L 362.817085 169.001963 
L 362.929866 169.001963 
L 363.042165 170.502088 
L 363.192222 170.502088 
L 363.304858 172.002213 
L 363.605089 172.002213 
L 363.717416 173.502338 
L 363.86748 173.502338 
L 363.98029 175.002463 
L 364.167588 175.002463 
L 364.280428 176.502588 
L 364.505396 176.502588 
L 364.61776 178.002713 
L 365.068409 178.002713 
L 365.217987 179.502838 
L 365.855774 179.502838 
L 365.968272 178.002713 
L 366.118327 178.002713 
L 366.231177 179.502838 
L 366.306223 179.502838 
L 366.418442 178.002713 
L 366.793582 178.002713 
L 366.90635 179.502838 
L 366.943642 179.502838 
L 367.056468 181.002963 
L 367.093698 181.002963 
L 367.168722 182.503088 
L 367.318778 182.503088 
L 367.468837 179.502838 
L 368.74432 179.502838 
L 368.857185 181.002963 
L 369.569631 181.002963 
L 369.682509 179.502838 
L 369.944772 179.502838 
L 370.020265 178.002713 
L 370.169856 178.002713 
L 370.282698 176.502588 
L 370.920143 176.502588 
L 371.032983 175.002463 
L 371.108061 175.002463 
L 371.182923 173.502338 
L 371.295286 175.002463 
L 371.670425 175.002463 
L 371.783164 176.502588 
L 372.008368 176.502588 
L 372.121054 178.002713 
L 372.458542 178.002713 
L 372.570766 179.502838 
L 372.608613 179.502838 
L 372.720827 181.002963 
L 372.908431 181.002963 
L 373.020934 179.502838 
L 373.208674 179.502838 
L 373.321052 181.002963 
L 373.471107 181.002963 
L 373.546592 182.503088 
L 373.696191 182.503088 
L 373.808998 184.003213 
L 374.034118 184.003213 
L 374.184183 187.003463 
L 374.221387 187.003463 
L 374.446474 190.003713 
L 374.484192 190.003713 
L 374.596532 191.503838 
L 374.634116 191.503838 
L 374.746586 193.003963 
L 374.859378 193.003963 
L 374.972155 194.504088 
L 375.009194 194.504088 
L 375.159529 197.504338 
L 376.472244 197.504338 
L 376.585035 196.004213 
L 376.772356 196.004213 
L 376.885194 194.504088 
L 377.560385 194.504088 
L 377.672699 193.003963 
L 377.97281 193.003963 
L 378.085592 191.503838 
L 378.122867 191.503838 
L 378.422982 187.003463 
L 378.685816 187.003463 
L 378.798121 185.503338 
L 379.098235 185.503338 
L 379.173643 184.003213 
L 379.548408 184.003213 
L 379.661208 185.503338 
L 380.523777 185.503338 
L 380.59916 187.003463 
L 381.124002 187.003463 
L 381.236774 185.503338 
L 381.274058 185.503338 
L 381.499142 188.503588 
L 381.611927 188.503588 
L 381.72423 187.003463 
L 381.949313 187.003463 
L 382.061844 188.503588 
L 382.549541 188.503588 
L 382.624571 187.003463 
L 382.6996 188.503588 
L 382.999715 188.503588 
L 383.112471 190.003713 
L 383.299825 190.003713 
L 383.374856 188.503588 
L 383.487419 188.503588 
L 383.637538 191.503838 
L 384.125537 191.503838 
L 384.275196 193.003963 
L 384.388056 193.003963 
L 384.500281 194.504088 
L 384.763128 194.504088 
L 384.875882 193.003963 
L 385.325598 193.003963 
L 385.438378 194.504088 
L 385.70074 194.504088 
L 385.813484 196.004213 
L 385.850794 196.004213 
L 385.963604 197.504338 
L 386.000853 197.504338 
L 386.15091 200.504588 
L 386.225938 200.504588 
L 386.375996 202.004713 
L 386.413651 202.004713 
L 386.526053 200.504588 
L 386.601526 200.504588 
L 386.751139 197.504338 
L 387.088941 197.504338 
L 387.239103 200.504588 
L 387.351366 200.504588 
L 387.464204 199.004463 
L 387.614192 199.004463 
L 387.764129 202.004713 
L 387.801538 202.004713 
L 387.951595 205.004963 
L 388.10165 205.004963 
L 388.21446 206.505088 
L 388.439318 206.505088 
L 388.589615 203.504838 
L 389.189699 203.504838 
L 389.339888 200.504588 
L 389.377135 200.504588 
L 389.489956 199.004463 
L 389.677249 199.004463 
L 389.752279 200.504588 
L 389.827288 200.504588 
L 389.940081 199.004463 
L 390.05239 199.004463 
L 390.165148 200.504588 
L 390.390302 200.504588 
L 390.465273 199.004463 
L 390.577589 200.504588 
L 390.765504 200.504588 
L 390.915528 197.504338 
L 391.252847 197.504338 
L 391.290454 199.004463 
L 391.327879 197.504338 
L 391.47793 197.504338 
L 391.627991 200.504588 
L 391.740738 200.504588 
L 391.853079 202.004713 
L 392.040837 202.004713 
L 392.153189 203.504838 
L 392.190986 203.504838 
L 392.303245 202.004713 
L 392.416074 202.004713 
L 392.603783 206.505088 
L 392.978504 212.505588 
L 393.091377 212.505588 
L 393.20359 214.005713 
L 393.503701 214.005713 
L 393.653762 211.005463 
L 393.953879 211.005463 
L 394.103933 214.005713 
L 394.216688 214.005713 
L 394.329016 215.505838 
L 394.441821 215.505838 
L 394.554109 214.005713 
L 394.704162 214.005713 
L 394.929247 211.005463 
L 395.117096 211.005463 
L 395.229361 212.505588 
L 395.267133 212.505588 
L 395.454789 208.005213 
L 395.642327 208.005213 
L 395.792364 211.005463 
L 395.979647 211.005463 
L 396.130105 214.005713 
L 396.242361 214.005713 
L 396.354787 215.505838 
L 396.692726 215.505838 
L 396.804962 218.506088 
L 396.955021 218.506088 
L 397.067871 220.006213 
L 397.142917 220.006213 
L 397.255136 221.506338 
L 397.367993 221.506338 
L 397.48022 220.006213 
L 397.818032 220.006213 
L 397.968204 217.005963 
L 398.080451 217.005963 
L 398.193285 218.506088 
L 398.230509 218.506088 
L 398.380563 220.006213 
L 398.793509 220.006213 
L 398.943549 223.006463 
L 399.093505 223.006463 
L 399.205881 224.506588 
L 399.24353 224.506588 
L 399.355937 226.006713 
L 399.393724 226.006713 
L 399.5437 229.006963 
L 399.656397 229.006963 
L 399.806106 227.506838 
L 400.219074 227.506838 
L 400.443878 221.506338 
L 400.63142 221.506338 
L 400.781479 224.506588 
L 400.856509 224.506588 
L 401.006563 221.506338 
L 401.531767 221.506338 
L 401.644531 220.006213 
L 401.906909 220.006213 
L 402.056968 223.006463 
L 402.131996 223.006463 
L 402.244787 224.506588 
L 402.469878 224.506588 
L 402.619836 227.506838 
L 403.03234 227.506838 
L 403.107367 226.006713 
L 403.182397 227.506838 
L 403.295023 227.506838 
L 403.407487 229.006963 
L 403.745456 229.006963 
L 403.857652 230.507088 
L 404.157769 230.507088 
L 404.270566 232.007213 
L 404.307825 232.007213 
L 404.420678 233.507338 
L 404.532911 233.507338 
L 404.608369 235.007463 
L 404.757996 233.507338 
L 404.833029 233.507338 
L 404.94569 235.007463 
L 405.020815 235.007463 
L 405.133143 233.507338 
L 405.2832 233.507338 
L 405.43326 232.007213 
L 405.696077 232.007213 
L 405.8084 233.507338 
L 406.033906 227.506838 
L 406.183543 226.006713 
L 406.48366 226.006713 
L 406.633716 223.006463 
L 406.671544 223.006463 
L 406.783755 221.506338 
L 406.933834 221.506338 
L 407.083888 218.506088 
L 407.346721 218.506088 
L 407.9092 191.503838 
L 408.284342 169.001963 
L 408.397171 169.001963 
L 408.697202 152.500588 
L 408.809539 148.000213 
L 409.034626 148.000213 
L 409.334739 138.999463 
L 409.409765 138.999463 
L 409.560269 143.499838 
L 409.634848 141.999713 
L 409.709879 143.499838 
L 410.009989 132.998963 
L 410.197834 137.499338 
L 410.385133 125.498338 
L 410.910327 92.495588 
L 411.022875 93.995713 
L 411.210438 95.495838 
L 411.323068 93.995713 
L 411.660988 83.494838 
L 411.735639 84.994963 
L 411.960718 98.496088 
L 412.148606 93.995713 
L 412.260831 93.995713 
L 412.335856 90.995463 
L 412.56094 101.496338 
L 412.786024 107.496838 
L 413.086591 92.495588 
L 413.348989 78.994463 
L 413.461281 72.993963 
L 413.498943 74.494088 
L 413.761796 89.495338 
L 413.986469 86.495088 
L 414.061495 86.495088 
L 414.136529 84.994963 
L 414.286579 87.995213 
L 414.324383 87.995213 
L 414.699441 74.494088 
L 414.774478 75.994213 
L 414.924457 72.993963 
L 414.961833 72.993963 
L 415.149616 77.494338 
L 415.336977 78.994463 
L 415.412 77.494338 
L 415.487032 78.994463 
L 415.674889 78.994463 
L 415.862169 84.994963 
L 415.974925 83.494838 
L 416.125037 86.495088 
L 416.162275 86.495088 
L 416.237309 83.494838 
L 416.275107 84.994963 
L 416.425186 89.495338 
L 416.537404 87.995213 
L 416.612443 90.995463 
L 417.625615 93.995713 
L 418.225801 72.993963 
L 418.263064 72.993963 
L 418.375829 77.494338 
L 418.826038 56.492588 
L 418.863289 60.992963 
L 419.201087 81.994713 
L 419.238428 80.494588 
L 419.276207 81.994713 
L 419.313895 81.994713 
L 419.501289 86.495088 
L 419.576315 86.495088 
L 419.801328 80.494588 
L 419.951316 84.994963 
L 420.063734 78.994463 
L 420.288817 63.993213 
L 420.663955 42.991463 
L 420.814009 38.491088 
L 420.926814 39.991213 
L 420.964067 38.491088 
L 421.001693 39.991213 
L 421.07673 39.991213 
L 421.264173 44.491588 
L 421.339201 44.491588 
L 421.41468 41.491338 
L 421.526914 41.491338 
L 421.639317 36.990963 
L 421.67709 38.491088 
L 423.027619 89.495338 
L 423.064837 89.495338 
L 423.364955 80.494588 
L 423.402756 80.494588 
L 423.477756 78.994463 
L 423.590039 80.494588 
L 423.665068 80.494588 
L 423.852906 72.993963 
L 423.890153 71.493838 
L 423.927755 72.993963 
L 424.040207 74.494088 
L 424.115232 74.494088 
L 424.190262 71.493838 
L 424.603198 77.494338 
L 424.82831 71.493838 
L 424.903172 71.493838 
L 425.015568 69.993713 
L 425.053246 69.993713 
L 425.315679 77.494338 
L 425.540763 77.494338 
L 426.178685 105.996713 
L 426.441096 119.497838 
L 426.741211 128.498588 
L 426.816235 128.498588 
L 427.04164 134.499088 
L 427.341435 138.999463 
L 427.379228 138.999463 
L 427.529203 141.999713 
L 427.604208 141.999713 
L 427.716581 144.999963 
L 427.8292 144.999963 
L 427.941662 146.500088 
L 431.693076 164.501588 
L 431.805842 166.001713 
L 431.880777 166.001713 
L 431.993186 167.501838 
L 432.143556 167.501838 
L 432.293303 169.001963 
L 432.818501 169.001963 
L 432.968553 170.502088 
L 433.081379 170.502088 
L 433.193641 169.001963 
L 433.34406 169.001963 
L 433.456482 170.502088 
L 433.531449 170.502088 
L 433.643809 172.002213 
L 433.756609 170.502088 
L 433.943917 170.502088 
L 434.056637 172.002213 
L 434.093975 172.002213 
L 434.2067 173.502338 
L 434.244032 173.502338 
L 434.394092 175.002463 
L 434.431805 175.002463 
L 434.619176 179.502838 
L 434.73186 179.502838 
L 434.84426 181.002963 
L 434.91929 181.002963 
L 435.06934 182.503088 
L 435.14437 182.503088 
L 435.257152 184.003213 
L 435.482208 184.003213 
L 435.632172 187.003463 
L 435.819625 187.003463 
L 435.969681 184.003213 
L 436.157341 184.003213 
L 436.269793 182.503088 
L 436.420299 182.503088 
L 436.457405 184.003213 
L 436.907785 185.503338 
L 437.020077 184.003213 
L 437.207829 184.003213 
L 437.245167 185.503338 
L 437.508013 185.503338 
L 437.620307 184.003213 
L 437.883152 184.003213 
L 437.99545 185.503338 
L 438.108029 185.503338 
L 438.22054 187.003463 
L 438.295565 187.003463 
L 438.408377 188.503588 
L 438.483327 188.503588 
L 438.633384 191.503838 
L 438.746076 191.503838 
L 438.895797 193.003963 
L 439.12088 193.003963 
L 439.233617 191.503838 
L 439.496005 191.503838 
L 439.608761 193.003963 
L 440.471388 193.003963 
L 440.62145 196.004213 
L 441.37173 196.004213 
L 441.484494 194.504088 
L 441.521786 194.504088 
L 441.671843 193.003963 
L 441.971958 193.003963 
L 442.084732 194.504088 
L 442.234773 194.504088 
L 442.38474 191.503838 
L 442.947326 191.503838 
L 443.097385 190.003713 
L 443.172414 190.003713 
L 443.285124 188.503588 
L 443.322471 188.503588 
L 443.435202 187.003463 
L 443.547555 187.003463 
L 443.660344 188.503588 
L 443.735119 188.503588 
L 443.847667 187.003463 
L 443.960399 187.003463 
L 444.072752 185.503338 
L 444.260565 185.503338 
L 444.485502 179.502838 
L 444.522923 179.502838 
L 444.635557 181.002963 
L 444.785805 181.002963 
L 444.898063 182.503088 
L 445.010898 182.503088 
L 445.123519 184.003213 
L 445.235885 184.003213 
L 445.348237 182.503088 
L 445.423265 182.503088 
L 445.536003 181.002963 
L 445.798807 181.002963 
L 445.948463 182.503088 
L 446.286354 182.503088 
L 446.398636 184.003213 
L 446.549106 184.003213 
L 446.698749 187.003463 
L 447.29898 187.003463 
L 447.411797 185.503338 
L 447.486761 185.503338 
L 447.599086 184.003213 
L 447.636908 184.003213 
L 447.749145 185.503338 
L 447.824172 185.503338 
L 447.899589 184.003213 
L 448.19932 184.003213 
L 448.349377 187.003463 
L 448.574463 187.003463 
L 448.724521 185.503338 
L 448.762221 185.503338 
L 448.874576 187.003463 
L 449.024631 187.003463 
L 449.137361 188.503588 
L 449.287443 188.503588 
L 449.399777 187.003463 
L 449.774921 187.003463 
L 449.887698 188.503588 
L 450 188.503588 
L 450 188.503588 
" clip-path="url(#p3bbfed0029)" style="fill: none; stroke: #1f77b4; stroke-width: 1.5; stroke-linecap: square"/>
   </g>
   <g id="patch_3">
    <path d="M 46.46 279.561175 
L 46.46 25.44 
" style="fill: none; stroke: #000000; stroke-width: 0.8; stroke-linejoin: miter; stroke-linecap: square"/>
   </g>
   <g id="patch_4">
    <path d="M 450 279.561175 
L 450 25.44 
" style="fill: none; stroke: #000000; stroke-width: 0.8; stroke-linejoin: miter; stroke-linecap: square"/>
   </g>
   <g id="patch_5">
    <path d="M 46.46 279.561175 
L 450 279.561175 
" style="fill: none; stroke: #000000; stroke-width: 0.8; stroke-linejoin: miter; stroke-linecap: square"/>
   </g>
   <g id="patch_6">
    <path d="M 46.46 25.44 
L 450 25.44 
" style="fill: none; stroke: #000000; stroke-width: 0.8; stroke-linejoin: miter; stroke-linecap: square"/>
   </g>
   <g id="text_15">
    <!-- November 2023 -->
    <g transform="translate(199.838125 19.44) scale(0.12 -0.12)">
     <defs>
      <path id="DejaVuSans-4e" d="M 628 4666 
L 1478 4666 
L 3547 763 
L 3547 4666 
L 4159 4666 
L 4159 0 
L 3309 0 
L 1241 3903 
L 1241 0 
L 628 0 
L 628 4666 
z
" transform="scale(0.015625)"/>
      <path id="DejaVuSans-6f" d="M 1959 3097 
Q 1497 3097 1228 2736 
Q 959 2375 959 1747 
Q 959 1119 1226 758 
Q 1494 397 1959 397 
Q 2419 397 2687 759 
Q 2956 1122 2956 1747 
Q 2956 2369 2687 2733 
Q 2419 3097 1959 3097 
z
M 1959 3584 
Q 2709 3584 3137 3096 
Q 3566 2609 3566 1747 
Q 3566 888 3137 398 
Q 2709 -91 1959 -91 
Q 1206 -91 779 398 
Q 353 888 353 1747 
Q 353 2609 779 3096 
Q 1206 3584 1959 3584 
z
" transform="scale(0.015625)"/>
      <path id="DejaVuSans-76" d="M 191 3500 
L 800 3500 
L 1894 563 
L 2988 3500 
L 3597 3500 
L 2284 0 
L 1503 0 
L 191 3500 
z
" transform="scale(0.015625)"/>
      <path id="DejaVuSans-62" d="M 3116 1747 
Q 3116 2381 2855 2742 
Q 2594 3103 2138 3103 
Q 1681 3103 1420 2742 
Q 1159 2381 1159 1747 
Q 1159 1113 1420 752 
Q 1681 391 2138 391 
Q 2594 391 2855 752 
Q 3116 1113 3116 1747 
z
M 1159 2969 
Q 1341 3281 1617 3432 
Q 1894 3584 2278 3584 
Q 2916 3584 3314 3078 
Q 3713 2572 3713 1747 
Q 3713 922 3314 415 
Q 2916 -91 2278 -91 
Q 1894 -91 1617 61 
Q 1341 213 1159 525 
L 1159 0 
L 581 0 
L 581 4863 
L 1159 4863 
L 1159 2969 
z
" transform="scale(0.015625)"/>
     </defs>
     <use xlink:href="#DejaVuSans-4e"/>
     <use xlink:href="#DejaVuSans-6f" x="74.804688"/>
     <use xlink:href="#DejaVuSans-76" x="135.986328"/>
     <use xlink:href="#DejaVuSans-65" x="195.166016"/>
     <use xlink:href="#DejaVuSans-6d" x="256.689453"/>
     <use xlink:href="#DejaVuSans-62" x="354.101562"/>
     <use xlink:href="#DejaVuSans-65" x="417.578125"/>
     <use xlink:href="#DejaVuSans-72" x="479.101562"/>
     <use xlink:href="#DejaVuSans-20" x="520.214844"/>
     <use xlink:href="#DejaVuSans-32" x="552.001953"/>
     <use xlink:href="#DejaVuSans-30" x="615.625"/>
     <use xlink:href="#DejaVuSans-32" x="679.248047"/>
     <use xlink:href="#DejaVuSans-33" x="742.871094"/>
    </g>
   </g>
  </g>
 </g>
 <defs>
  <clipPath id="p3bbfed0029">
   <rect x="46.46" y="25.44" width="403.54" height="254.121175"/>
  </clipPath>
 </defs>
</svg>
