<?xml version="1.0" encoding="utf-8" standalone="no"?>
<!DOCTYPE svg PUBLIC "-//W3C//DTD SVG 1.1//EN"
  "http://www.w3.org/Graphics/SVG/1.1/DTD/svg11.dtd">
<svg xmlns:xlink="http://www.w3.org/1999/xlink" width="460.8pt" height="345.6pt" viewBox="0 0 460.8 345.6" xmlns="http://www.w3.org/2000/svg" version="1.1">
 <metadata>
  <rdf:RDF xmlns:dc="http://purl.org/dc/elements/1.1/" xmlns:cc="http://creativecommons.org/ns#" xmlns:rdf="http://www.w3.org/1999/02/22-rdf-syntax-ns#">
   <cc:Work>
    <dc:type rdf:resource="http://purl.org/dc/dcmitype/StillImage"/>
    <dc:date>2023-11-09T07:39:59.035896</dc:date>
    <dc:format>image/svg+xml</dc:format>
    <dc:creator>
     <cc:Agent>
      <dc:title>Matplotlib v3.6.3, https://matplotlib.org/</dc:title>
     </cc:Agent>
    </dc:creator>
   </cc:Work>
  </rdf:RDF>
 </metadata>
 <defs>
  <style type="text/css">*{stroke-linejoin: round; stroke-linecap: butt}</style>
 </defs>
 <g id="figure_1">
  <g id="patch_1">
   <path d="M 0 345.6 
L 460.8 345.6 
L 460.8 0 
L 0 0 
z
" style="fill: #ffffff"/>
  </g>
  <g id="axes_1">
   <g id="patch_2">
    <path d="M 46.46 279.561175 
L 450 279.561175 
L 450 25.44 
L 46.46 25.44 
z
" style="fill: #ffffff"/>
   </g>
   <g id="matplotlib.axis_1">
    <g id="xtick_1">
     <g id="line2d_1">
      <path d="M 94.946728 279.561175 
L 94.946728 25.44 
" clip-path="url(#p11fcb05ad7)" style="fill: none; stroke: #b0b0b0; stroke-width: 0.8; stroke-linecap: square"/>
     </g>
     <g id="line2d_2">
      <defs>
       <path id="mc7abe3fb05" d="M 0 0 
L 0 3.5 
" style="stroke: #000000; stroke-width: 0.8"/>
      </defs>
      <g>
       <use xlink:href="#mc7abe3fb05" x="94.946728" y="279.561175" style="stroke: #000000; stroke-width: 0.8"/>
      </g>
     </g>
     <g id="text_1">
      <!-- 2023-11-02 -->
      <g transform="translate(52.382214 333.028035) rotate(-45) scale(0.1 -0.1)">
       <defs>
        <path id="DejaVuSans-32" d="M 1228 531 
L 3431 531 
L 3431 0 
L 469 0 
L 469 531 
Q 828 903 1448 1529 
Q 2069 2156 2228 2338 
Q 2531 2678 2651 2914 
Q 2772 3150 2772 3378 
Q 2772 3750 2511 3984 
Q 2250 4219 1831 4219 
Q 1534 4219 1204 4116 
Q 875 4013 500 3803 
L 500 4441 
Q 881 4594 1212 4672 
Q 1544 4750 1819 4750 
Q 2544 4750 2975 4387 
Q 3406 4025 3406 3419 
Q 3406 3131 3298 2873 
Q 3191 2616 2906 2266 
Q 2828 2175 2409 1742 
Q 1991 1309 1228 531 
z
" transform="scale(0.015625)"/>
        <path id="DejaVuSans-30" d="M 2034 4250 
Q 1547 4250 1301 3770 
Q 1056 3291 1056 2328 
Q 1056 1369 1301 889 
Q 1547 409 2034 409 
Q 2525 409 2770 889 
Q 3016 1369 3016 2328 
Q 3016 3291 2770 3770 
Q 2525 4250 2034 4250 
z
M 2034 4750 
Q 2819 4750 3233 4129 
Q 3647 3509 3647 2328 
Q 3647 1150 3233 529 
Q 2819 -91 2034 -91 
Q 1250 -91 836 529 
Q 422 1150 422 2328 
Q 422 3509 836 4129 
Q 1250 4750 2034 4750 
z
" transform="scale(0.015625)"/>
        <path id="DejaVuSans-33" d="M 2597 2516 
Q 3050 2419 3304 2112 
Q 3559 1806 3559 1356 
Q 3559 666 3084 287 
Q 2609 -91 1734 -91 
Q 1441 -91 1130 -33 
Q 819 25 488 141 
L 488 750 
Q 750 597 1062 519 
Q 1375 441 1716 441 
Q 2309 441 2620 675 
Q 2931 909 2931 1356 
Q 2931 1769 2642 2001 
Q 2353 2234 1838 2234 
L 1294 2234 
L 1294 2753 
L 1863 2753 
Q 2328 2753 2575 2939 
Q 2822 3125 2822 3475 
Q 2822 3834 2567 4026 
Q 2313 4219 1838 4219 
Q 1578 4219 1281 4162 
Q 984 4106 628 3988 
L 628 4550 
Q 988 4650 1302 4700 
Q 1616 4750 1894 4750 
Q 2613 4750 3031 4423 
Q 3450 4097 3450 3541 
Q 3450 3153 3228 2886 
Q 3006 2619 2597 2516 
z
" transform="scale(0.015625)"/>
        <path id="DejaVuSans-2d" d="M 313 2009 
L 1997 2009 
L 1997 1497 
L 313 1497 
L 313 2009 
z
" transform="scale(0.015625)"/>
        <path id="DejaVuSans-31" d="M 794 531 
L 1825 531 
L 1825 4091 
L 703 3866 
L 703 4441 
L 1819 4666 
L 2450 4666 
L 2450 531 
L 3481 531 
L 3481 0 
L 794 0 
L 794 531 
z
" transform="scale(0.015625)"/>
       </defs>
       <use xlink:href="#DejaVuSans-32"/>
       <use xlink:href="#DejaVuSans-30" x="63.623047"/>
       <use xlink:href="#DejaVuSans-32" x="127.246094"/>
       <use xlink:href="#DejaVuSans-33" x="190.869141"/>
       <use xlink:href="#DejaVuSans-2d" x="254.492188"/>
       <use xlink:href="#DejaVuSans-31" x="290.576172"/>
       <use xlink:href="#DejaVuSans-31" x="354.199219"/>
       <use xlink:href="#DejaVuSans-2d" x="417.822266"/>
       <use xlink:href="#DejaVuSans-30" x="453.90625"/>
       <use xlink:href="#DejaVuSans-32" x="517.529297"/>
      </g>
     </g>
    </g>
    <g id="xtick_2">
     <g id="line2d_3">
      <path d="M 143.459265 279.561175 
L 143.459265 25.44 
" clip-path="url(#p11fcb05ad7)" style="fill: none; stroke: #b0b0b0; stroke-width: 0.8; stroke-linecap: square"/>
     </g>
     <g id="line2d_4">
      <g>
       <use xlink:href="#mc7abe3fb05" x="143.459265" y="279.561175" style="stroke: #000000; stroke-width: 0.8"/>
      </g>
     </g>
     <g id="text_2">
      <!-- 2023-11-03 -->
      <g transform="translate(100.894752 333.028035) rotate(-45) scale(0.1 -0.1)">
       <use xlink:href="#DejaVuSans-32"/>
       <use xlink:href="#DejaVuSans-30" x="63.623047"/>
       <use xlink:href="#DejaVuSans-32" x="127.246094"/>
       <use xlink:href="#DejaVuSans-33" x="190.869141"/>
       <use xlink:href="#DejaVuSans-2d" x="254.492188"/>
       <use xlink:href="#DejaVuSans-31" x="290.576172"/>
       <use xlink:href="#DejaVuSans-31" x="354.199219"/>
       <use xlink:href="#DejaVuSans-2d" x="417.822266"/>
       <use xlink:href="#DejaVuSans-30" x="453.90625"/>
       <use xlink:href="#DejaVuSans-33" x="517.529297"/>
      </g>
     </g>
    </g>
    <g id="xtick_3">
     <g id="line2d_5">
      <path d="M 191.971802 279.561175 
L 191.971802 25.44 
" clip-path="url(#p11fcb05ad7)" style="fill: none; stroke: #b0b0b0; stroke-width: 0.8; stroke-linecap: square"/>
     </g>
     <g id="line2d_6">
      <g>
       <use xlink:href="#mc7abe3fb05" x="191.971802" y="279.561175" style="stroke: #000000; stroke-width: 0.8"/>
      </g>
     </g>
     <g id="text_3">
      <!-- 2023-11-04 -->
      <g transform="translate(149.407289 333.028035) rotate(-45) scale(0.1 -0.1)">
       <defs>
        <path id="DejaVuSans-34" d="M 2419 4116 
L 825 1625 
L 2419 1625 
L 2419 4116 
z
M 2253 4666 
L 3047 4666 
L 3047 1625 
L 3713 1625 
L 3713 1100 
L 3047 1100 
L 3047 0 
L 2419 0 
L 2419 1100 
L 313 1100 
L 313 1709 
L 2253 4666 
z
" transform="scale(0.015625)"/>
       </defs>
       <use xlink:href="#DejaVuSans-32"/>
       <use xlink:href="#DejaVuSans-30" x="63.623047"/>
       <use xlink:href="#DejaVuSans-32" x="127.246094"/>
       <use xlink:href="#DejaVuSans-33" x="190.869141"/>
       <use xlink:href="#DejaVuSans-2d" x="254.492188"/>
       <use xlink:href="#DejaVuSans-31" x="290.576172"/>
       <use xlink:href="#DejaVuSans-31" x="354.199219"/>
       <use xlink:href="#DejaVuSans-2d" x="417.822266"/>
       <use xlink:href="#DejaVuSans-30" x="453.90625"/>
       <use xlink:href="#DejaVuSans-34" x="517.529297"/>
      </g>
     </g>
    </g>
    <g id="xtick_4">
     <g id="line2d_7">
      <path d="M 240.484339 279.561175 
L 240.484339 25.44 
" clip-path="url(#p11fcb05ad7)" style="fill: none; stroke: #b0b0b0; stroke-width: 0.8; stroke-linecap: square"/>
     </g>
     <g id="line2d_8">
      <g>
       <use xlink:href="#mc7abe3fb05" x="240.484339" y="279.561175" style="stroke: #000000; stroke-width: 0.8"/>
      </g>
     </g>
     <g id="text_4">
      <!-- 2023-11-05 -->
      <g transform="translate(197.919826 333.028035) rotate(-45) scale(0.1 -0.1)">
       <defs>
        <path id="DejaVuSans-35" d="M 691 4666 
L 3169 4666 
L 3169 4134 
L 1269 4134 
L 1269 2991 
Q 1406 3038 1543 3061 
Q 1681 3084 1819 3084 
Q 2600 3084 3056 2656 
Q 3513 2228 3513 1497 
Q 3513 744 3044 326 
Q 2575 -91 1722 -91 
Q 1428 -91 1123 -41 
Q 819 9 494 109 
L 494 744 
Q 775 591 1075 516 
Q 1375 441 1709 441 
Q 2250 441 2565 725 
Q 2881 1009 2881 1497 
Q 2881 1984 2565 2268 
Q 2250 2553 1709 2553 
Q 1456 2553 1204 2497 
Q 953 2441 691 2322 
L 691 4666 
z
" transform="scale(0.015625)"/>
       </defs>
       <use xlink:href="#DejaVuSans-32"/>
       <use xlink:href="#DejaVuSans-30" x="63.623047"/>
       <use xlink:href="#DejaVuSans-32" x="127.246094"/>
       <use xlink:href="#DejaVuSans-33" x="190.869141"/>
       <use xlink:href="#DejaVuSans-2d" x="254.492188"/>
       <use xlink:href="#DejaVuSans-31" x="290.576172"/>
       <use xlink:href="#DejaVuSans-31" x="354.199219"/>
       <use xlink:href="#DejaVuSans-2d" x="417.822266"/>
       <use xlink:href="#DejaVuSans-30" x="453.90625"/>
       <use xlink:href="#DejaVuSans-35" x="517.529297"/>
      </g>
     </g>
    </g>
    <g id="xtick_5">
     <g id="line2d_9">
      <path d="M 288.996877 279.561175 
L 288.996877 25.44 
" clip-path="url(#p11fcb05ad7)" style="fill: none; stroke: #b0b0b0; stroke-width: 0.8; stroke-linecap: square"/>
     </g>
     <g id="line2d_10">
      <g>
       <use xlink:href="#mc7abe3fb05" x="288.996877" y="279.561175" style="stroke: #000000; stroke-width: 0.8"/>
      </g>
     </g>
     <g id="text_5">
      <!-- 2023-11-06 -->
      <g transform="translate(246.432363 333.028035) rotate(-45) scale(0.1 -0.1)">
       <defs>
        <path id="DejaVuSans-36" d="M 2113 2584 
Q 1688 2584 1439 2293 
Q 1191 2003 1191 1497 
Q 1191 994 1439 701 
Q 1688 409 2113 409 
Q 2538 409 2786 701 
Q 3034 994 3034 1497 
Q 3034 2003 2786 2293 
Q 2538 2584 2113 2584 
z
M 3366 4563 
L 3366 3988 
Q 3128 4100 2886 4159 
Q 2644 4219 2406 4219 
Q 1781 4219 1451 3797 
Q 1122 3375 1075 2522 
Q 1259 2794 1537 2939 
Q 1816 3084 2150 3084 
Q 2853 3084 3261 2657 
Q 3669 2231 3669 1497 
Q 3669 778 3244 343 
Q 2819 -91 2113 -91 
Q 1303 -91 875 529 
Q 447 1150 447 2328 
Q 447 3434 972 4092 
Q 1497 4750 2381 4750 
Q 2619 4750 2861 4703 
Q 3103 4656 3366 4563 
z
" transform="scale(0.015625)"/>
       </defs>
       <use xlink:href="#DejaVuSans-32"/>
       <use xlink:href="#DejaVuSans-30" x="63.623047"/>
       <use xlink:href="#DejaVuSans-32" x="127.246094"/>
       <use xlink:href="#DejaVuSans-33" x="190.869141"/>
       <use xlink:href="#DejaVuSans-2d" x="254.492188"/>
       <use xlink:href="#DejaVuSans-31" x="290.576172"/>
       <use xlink:href="#DejaVuSans-31" x="354.199219"/>
       <use xlink:href="#DejaVuSans-2d" x="417.822266"/>
       <use xlink:href="#DejaVuSans-30" x="453.90625"/>
       <use xlink:href="#DejaVuSans-36" x="517.529297"/>
      </g>
     </g>
    </g>
    <g id="xtick_6">
     <g id="line2d_11">
      <path d="M 337.509414 279.561175 
L 337.509414 25.44 
" clip-path="url(#p11fcb05ad7)" style="fill: none; stroke: #b0b0b0; stroke-width: 0.8; stroke-linecap: square"/>
     </g>
     <g id="line2d_12">
      <g>
       <use xlink:href="#mc7abe3fb05" x="337.509414" y="279.561175" style="stroke: #000000; stroke-width: 0.8"/>
      </g>
     </g>
     <g id="text_6">
      <!-- 2023-11-07 -->
      <g transform="translate(294.9449 333.028035) rotate(-45) scale(0.1 -0.1)">
       <defs>
        <path id="DejaVuSans-37" d="M 525 4666 
L 3525 4666 
L 3525 4397 
L 1831 0 
L 1172 0 
L 2766 4134 
L 525 4134 
L 525 4666 
z
" transform="scale(0.015625)"/>
       </defs>
       <use xlink:href="#DejaVuSans-32"/>
       <use xlink:href="#DejaVuSans-30" x="63.623047"/>
       <use xlink:href="#DejaVuSans-32" x="127.246094"/>
       <use xlink:href="#DejaVuSans-33" x="190.869141"/>
       <use xlink:href="#DejaVuSans-2d" x="254.492188"/>
       <use xlink:href="#DejaVuSans-31" x="290.576172"/>
       <use xlink:href="#DejaVuSans-31" x="354.199219"/>
       <use xlink:href="#DejaVuSans-2d" x="417.822266"/>
       <use xlink:href="#DejaVuSans-30" x="453.90625"/>
       <use xlink:href="#DejaVuSans-37" x="517.529297"/>
      </g>
     </g>
    </g>
    <g id="xtick_7">
     <g id="line2d_13">
      <path d="M 386.021951 279.561175 
L 386.021951 25.44 
" clip-path="url(#p11fcb05ad7)" style="fill: none; stroke: #b0b0b0; stroke-width: 0.8; stroke-linecap: square"/>
     </g>
     <g id="line2d_14">
      <g>
       <use xlink:href="#mc7abe3fb05" x="386.021951" y="279.561175" style="stroke: #000000; stroke-width: 0.8"/>
      </g>
     </g>
     <g id="text_7">
      <!-- 2023-11-08 -->
      <g transform="translate(343.457437 333.028035) rotate(-45) scale(0.1 -0.1)">
       <defs>
        <path id="DejaVuSans-38" d="M 2034 2216 
Q 1584 2216 1326 1975 
Q 1069 1734 1069 1313 
Q 1069 891 1326 650 
Q 1584 409 2034 409 
Q 2484 409 2743 651 
Q 3003 894 3003 1313 
Q 3003 1734 2745 1975 
Q 2488 2216 2034 2216 
z
M 1403 2484 
Q 997 2584 770 2862 
Q 544 3141 544 3541 
Q 544 4100 942 4425 
Q 1341 4750 2034 4750 
Q 2731 4750 3128 4425 
Q 3525 4100 3525 3541 
Q 3525 3141 3298 2862 
Q 3072 2584 2669 2484 
Q 3125 2378 3379 2068 
Q 3634 1759 3634 1313 
Q 3634 634 3220 271 
Q 2806 -91 2034 -91 
Q 1263 -91 848 271 
Q 434 634 434 1313 
Q 434 1759 690 2068 
Q 947 2378 1403 2484 
z
M 1172 3481 
Q 1172 3119 1398 2916 
Q 1625 2713 2034 2713 
Q 2441 2713 2670 2916 
Q 2900 3119 2900 3481 
Q 2900 3844 2670 4047 
Q 2441 4250 2034 4250 
Q 1625 4250 1398 4047 
Q 1172 3844 1172 3481 
z
" transform="scale(0.015625)"/>
       </defs>
       <use xlink:href="#DejaVuSans-32"/>
       <use xlink:href="#DejaVuSans-30" x="63.623047"/>
       <use xlink:href="#DejaVuSans-32" x="127.246094"/>
       <use xlink:href="#DejaVuSans-33" x="190.869141"/>
       <use xlink:href="#DejaVuSans-2d" x="254.492188"/>
       <use xlink:href="#DejaVuSans-31" x="290.576172"/>
       <use xlink:href="#DejaVuSans-31" x="354.199219"/>
       <use xlink:href="#DejaVuSans-2d" x="417.822266"/>
       <use xlink:href="#DejaVuSans-30" x="453.90625"/>
       <use xlink:href="#DejaVuSans-38" x="517.529297"/>
      </g>
     </g>
    </g>
    <g id="xtick_8">
     <g id="line2d_15">
      <path d="M 434.534488 279.561175 
L 434.534488 25.44 
" clip-path="url(#p11fcb05ad7)" style="fill: none; stroke: #b0b0b0; stroke-width: 0.8; stroke-linecap: square"/>
     </g>
     <g id="line2d_16">
      <g>
       <use xlink:href="#mc7abe3fb05" x="434.534488" y="279.561175" style="stroke: #000000; stroke-width: 0.8"/>
      </g>
     </g>
     <g id="text_8">
      <!-- 2023-11-09 -->
      <g transform="translate(391.969974 333.028035) rotate(-45) scale(0.1 -0.1)">
       <defs>
        <path id="DejaVuSans-39" d="M 703 97 
L 703 672 
Q 941 559 1184 500 
Q 1428 441 1663 441 
Q 2288 441 2617 861 
Q 2947 1281 2994 2138 
Q 2813 1869 2534 1725 
Q 2256 1581 1919 1581 
Q 1219 1581 811 2004 
Q 403 2428 403 3163 
Q 403 3881 828 4315 
Q 1253 4750 1959 4750 
Q 2769 4750 3195 4129 
Q 3622 3509 3622 2328 
Q 3622 1225 3098 567 
Q 2575 -91 1691 -91 
Q 1453 -91 1209 -44 
Q 966 3 703 97 
z
M 1959 2075 
Q 2384 2075 2632 2365 
Q 2881 2656 2881 3163 
Q 2881 3666 2632 3958 
Q 2384 4250 1959 4250 
Q 1534 4250 1286 3958 
Q 1038 3666 1038 3163 
Q 1038 2656 1286 2365 
Q 1534 2075 1959 2075 
z
" transform="scale(0.015625)"/>
       </defs>
       <use xlink:href="#DejaVuSans-32"/>
       <use xlink:href="#DejaVuSans-30" x="63.623047"/>
       <use xlink:href="#DejaVuSans-32" x="127.246094"/>
       <use xlink:href="#DejaVuSans-33" x="190.869141"/>
       <use xlink:href="#DejaVuSans-2d" x="254.492188"/>
       <use xlink:href="#DejaVuSans-31" x="290.576172"/>
       <use xlink:href="#DejaVuSans-31" x="354.199219"/>
       <use xlink:href="#DejaVuSans-2d" x="417.822266"/>
       <use xlink:href="#DejaVuSans-30" x="453.90625"/>
       <use xlink:href="#DejaVuSans-39" x="517.529297"/>
      </g>
     </g>
    </g>
   </g>
   <g id="matplotlib.axis_2">
    <g id="ytick_1">
     <g id="line2d_17">
      <path d="M 46.46 253.008963 
L 450 253.008963 
" clip-path="url(#p11fcb05ad7)" style="fill: none; stroke: #b0b0b0; stroke-width: 0.8; stroke-linecap: square"/>
     </g>
     <g id="line2d_18">
      <defs>
       <path id="m8fb694b0ae" d="M 0 0 
L -3.5 0 
" style="stroke: #000000; stroke-width: 0.8"/>
      </defs>
      <g>
       <use xlink:href="#m8fb694b0ae" x="46.46" y="253.008963" style="stroke: #000000; stroke-width: 0.8"/>
      </g>
     </g>
     <g id="text_9">
      <!-- 0 -->
      <g transform="translate(33.0975 256.808182) scale(0.1 -0.1)">
       <use xlink:href="#DejaVuSans-30"/>
      </g>
     </g>
    </g>
    <g id="ytick_2">
     <g id="line2d_19">
      <path d="M 46.46 223.006463 
L 450 223.006463 
" clip-path="url(#p11fcb05ad7)" style="fill: none; stroke: #b0b0b0; stroke-width: 0.8; stroke-linecap: square"/>
     </g>
     <g id="line2d_20">
      <g>
       <use xlink:href="#m8fb694b0ae" x="46.46" y="223.006463" style="stroke: #000000; stroke-width: 0.8"/>
      </g>
     </g>
     <g id="text_10">
      <!-- 2 -->
      <g transform="translate(33.0975 226.805682) scale(0.1 -0.1)">
       <use xlink:href="#DejaVuSans-32"/>
      </g>
     </g>
    </g>
    <g id="ytick_3">
     <g id="line2d_21">
      <path d="M 46.46 193.003963 
L 450 193.003963 
" clip-path="url(#p11fcb05ad7)" style="fill: none; stroke: #b0b0b0; stroke-width: 0.8; stroke-linecap: square"/>
     </g>
     <g id="line2d_22">
      <g>
       <use xlink:href="#m8fb694b0ae" x="46.46" y="193.003963" style="stroke: #000000; stroke-width: 0.8"/>
      </g>
     </g>
     <g id="text_11">
      <!-- 4 -->
      <g transform="translate(33.0975 196.803182) scale(0.1 -0.1)">
       <use xlink:href="#DejaVuSans-34"/>
      </g>
     </g>
    </g>
    <g id="ytick_4">
     <g id="line2d_23">
      <path d="M 46.46 163.001463 
L 450 163.001463 
" clip-path="url(#p11fcb05ad7)" style="fill: none; stroke: #b0b0b0; stroke-width: 0.8; stroke-linecap: square"/>
     </g>
     <g id="line2d_24">
      <g>
       <use xlink:href="#m8fb694b0ae" x="46.46" y="163.001463" style="stroke: #000000; stroke-width: 0.8"/>
      </g>
     </g>
     <g id="text_12">
      <!-- 6 -->
      <g transform="translate(33.0975 166.800681) scale(0.1 -0.1)">
       <use xlink:href="#DejaVuSans-36"/>
      </g>
     </g>
    </g>
    <g id="ytick_5">
     <g id="line2d_25">
      <path d="M 46.46 132.998963 
L 450 132.998963 
" clip-path="url(#p11fcb05ad7)" style="fill: none; stroke: #b0b0b0; stroke-width: 0.8; stroke-linecap: square"/>
     </g>
     <g id="line2d_26">
      <g>
       <use xlink:href="#m8fb694b0ae" x="46.46" y="132.998963" style="stroke: #000000; stroke-width: 0.8"/>
      </g>
     </g>
     <g id="text_13">
      <!-- 8 -->
      <g transform="translate(33.0975 136.798181) scale(0.1 -0.1)">
       <use xlink:href="#DejaVuSans-38"/>
      </g>
     </g>
    </g>
    <g id="ytick_6">
     <g id="line2d_27">
      <path d="M 46.46 102.996463 
L 450 102.996463 
" clip-path="url(#p11fcb05ad7)" style="fill: none; stroke: #b0b0b0; stroke-width: 0.8; stroke-linecap: square"/>
     </g>
     <g id="line2d_28">
      <g>
       <use xlink:href="#m8fb694b0ae" x="46.46" y="102.996463" style="stroke: #000000; stroke-width: 0.8"/>
      </g>
     </g>
     <g id="text_14">
      <!-- 10 -->
      <g transform="translate(26.735 106.795681) scale(0.1 -0.1)">
       <use xlink:href="#DejaVuSans-31"/>
       <use xlink:href="#DejaVuSans-30" x="63.623047"/>
      </g>
     </g>
    </g>
    <g id="ytick_7">
     <g id="line2d_29">
      <path d="M 46.46 72.993963 
L 450 72.993963 
" clip-path="url(#p11fcb05ad7)" style="fill: none; stroke: #b0b0b0; stroke-width: 0.8; stroke-linecap: square"/>
     </g>
     <g id="line2d_30">
      <g>
       <use xlink:href="#m8fb694b0ae" x="46.46" y="72.993963" style="stroke: #000000; stroke-width: 0.8"/>
      </g>
     </g>
     <g id="text_15">
      <!-- 12 -->
      <g transform="translate(26.735 76.793181) scale(0.1 -0.1)">
       <use xlink:href="#DejaVuSans-31"/>
       <use xlink:href="#DejaVuSans-32" x="63.623047"/>
      </g>
     </g>
    </g>
    <g id="ytick_8">
     <g id="line2d_31">
      <path d="M 46.46 42.991463 
L 450 42.991463 
" clip-path="url(#p11fcb05ad7)" style="fill: none; stroke: #b0b0b0; stroke-width: 0.8; stroke-linecap: square"/>
     </g>
     <g id="line2d_32">
      <g>
       <use xlink:href="#m8fb694b0ae" x="46.46" y="42.991463" style="stroke: #000000; stroke-width: 0.8"/>
      </g>
     </g>
     <g id="text_16">
      <!-- 14 -->
      <g transform="translate(26.735 46.790681) scale(0.1 -0.1)">
       <use xlink:href="#DejaVuSans-31"/>
       <use xlink:href="#DejaVuSans-34" x="63.623047"/>
      </g>
     </g>
    </g>
    <g id="text_17">
     <!-- Temperature [°C] -->
     <g transform="translate(20.655313 199.072463) rotate(-90) scale(0.1 -0.1)">
      <defs>
       <path id="DejaVuSans-54" d="M -19 4666 
L 3928 4666 
L 3928 4134 
L 2272 4134 
L 2272 0 
L 1638 0 
L 1638 4134 
L -19 4134 
L -19 4666 
z
" transform="scale(0.015625)"/>
       <path id="DejaVuSans-65" d="M 3597 1894 
L 3597 1613 
L 953 1613 
Q 991 1019 1311 708 
Q 1631 397 2203 397 
Q 2534 397 2845 478 
Q 3156 559 3463 722 
L 3463 178 
Q 3153 47 2828 -22 
Q 2503 -91 2169 -91 
Q 1331 -91 842 396 
Q 353 884 353 1716 
Q 353 2575 817 3079 
Q 1281 3584 2069 3584 
Q 2775 3584 3186 3129 
Q 3597 2675 3597 1894 
z
M 3022 2063 
Q 3016 2534 2758 2815 
Q 2500 3097 2075 3097 
Q 1594 3097 1305 2825 
Q 1016 2553 972 2059 
L 3022 2063 
z
" transform="scale(0.015625)"/>
       <path id="DejaVuSans-6d" d="M 3328 2828 
Q 3544 3216 3844 3400 
Q 4144 3584 4550 3584 
Q 5097 3584 5394 3201 
Q 5691 2819 5691 2113 
L 5691 0 
L 5113 0 
L 5113 2094 
Q 5113 2597 4934 2840 
Q 4756 3084 4391 3084 
Q 3944 3084 3684 2787 
Q 3425 2491 3425 1978 
L 3425 0 
L 2847 0 
L 2847 2094 
Q 2847 2600 2669 2842 
Q 2491 3084 2119 3084 
Q 1678 3084 1418 2786 
Q 1159 2488 1159 1978 
L 1159 0 
L 581 0 
L 581 3500 
L 1159 3500 
L 1159 2956 
Q 1356 3278 1631 3431 
Q 1906 3584 2284 3584 
Q 2666 3584 2933 3390 
Q 3200 3197 3328 2828 
z
" transform="scale(0.015625)"/>
       <path id="DejaVuSans-70" d="M 1159 525 
L 1159 -1331 
L 581 -1331 
L 581 3500 
L 1159 3500 
L 1159 2969 
Q 1341 3281 1617 3432 
Q 1894 3584 2278 3584 
Q 2916 3584 3314 3078 
Q 3713 2572 3713 1747 
Q 3713 922 3314 415 
Q 2916 -91 2278 -91 
Q 1894 -91 1617 61 
Q 1341 213 1159 525 
z
M 3116 1747 
Q 3116 2381 2855 2742 
Q 2594 3103 2138 3103 
Q 1681 3103 1420 2742 
Q 1159 2381 1159 1747 
Q 1159 1113 1420 752 
Q 1681 391 2138 391 
Q 2594 391 2855 752 
Q 3116 1113 3116 1747 
z
" transform="scale(0.015625)"/>
       <path id="DejaVuSans-72" d="M 2631 2963 
Q 2534 3019 2420 3045 
Q 2306 3072 2169 3072 
Q 1681 3072 1420 2755 
Q 1159 2438 1159 1844 
L 1159 0 
L 581 0 
L 581 3500 
L 1159 3500 
L 1159 2956 
Q 1341 3275 1631 3429 
Q 1922 3584 2338 3584 
Q 2397 3584 2469 3576 
Q 2541 3569 2628 3553 
L 2631 2963 
z
" transform="scale(0.015625)"/>
       <path id="DejaVuSans-61" d="M 2194 1759 
Q 1497 1759 1228 1600 
Q 959 1441 959 1056 
Q 959 750 1161 570 
Q 1363 391 1709 391 
Q 2188 391 2477 730 
Q 2766 1069 2766 1631 
L 2766 1759 
L 2194 1759 
z
M 3341 1997 
L 3341 0 
L 2766 0 
L 2766 531 
Q 2569 213 2275 61 
Q 1981 -91 1556 -91 
Q 1019 -91 701 211 
Q 384 513 384 1019 
Q 384 1609 779 1909 
Q 1175 2209 1959 2209 
L 2766 2209 
L 2766 2266 
Q 2766 2663 2505 2880 
Q 2244 3097 1772 3097 
Q 1472 3097 1187 3025 
Q 903 2953 641 2809 
L 641 3341 
Q 956 3463 1253 3523 
Q 1550 3584 1831 3584 
Q 2591 3584 2966 3190 
Q 3341 2797 3341 1997 
z
" transform="scale(0.015625)"/>
       <path id="DejaVuSans-74" d="M 1172 4494 
L 1172 3500 
L 2356 3500 
L 2356 3053 
L 1172 3053 
L 1172 1153 
Q 1172 725 1289 603 
Q 1406 481 1766 481 
L 2356 481 
L 2356 0 
L 1766 0 
Q 1100 0 847 248 
Q 594 497 594 1153 
L 594 3053 
L 172 3053 
L 172 3500 
L 594 3500 
L 594 4494 
L 1172 4494 
z
" transform="scale(0.015625)"/>
       <path id="DejaVuSans-75" d="M 544 1381 
L 544 3500 
L 1119 3500 
L 1119 1403 
Q 1119 906 1312 657 
Q 1506 409 1894 409 
Q 2359 409 2629 706 
Q 2900 1003 2900 1516 
L 2900 3500 
L 3475 3500 
L 3475 0 
L 2900 0 
L 2900 538 
Q 2691 219 2414 64 
Q 2138 -91 1772 -91 
Q 1169 -91 856 284 
Q 544 659 544 1381 
z
M 1991 3584 
L 1991 3584 
z
" transform="scale(0.015625)"/>
       <path id="DejaVuSans-20" transform="scale(0.015625)"/>
       <path id="DejaVuSans-5b" d="M 550 4863 
L 1875 4863 
L 1875 4416 
L 1125 4416 
L 1125 -397 
L 1875 -397 
L 1875 -844 
L 550 -844 
L 550 4863 
z
" transform="scale(0.015625)"/>
       <path id="DejaVuSans-c2" d="M 2188 4044 
L 1331 1722 
L 3047 1722 
L 2188 4044 
z
M 1831 4666 
L 2547 4666 
L 4325 0 
L 3669 0 
L 3244 1197 
L 1141 1197 
L 716 0 
L 50 0 
L 1831 4666 
z
M 1894 5941 
L 2481 5941 
L 3141 5110 
L 2706 5110 
L 2188 5666 
L 1669 5110 
L 1234 5110 
L 1894 5941 
z
" transform="scale(0.015625)"/>
       <path id="DejaVuSans-b0" d="M 1600 4347 
Q 1350 4347 1178 4173 
Q 1006 4000 1006 3750 
Q 1006 3503 1178 3333 
Q 1350 3163 1600 3163 
Q 1850 3163 2022 3333 
Q 2194 3503 2194 3750 
Q 2194 3997 2020 4172 
Q 1847 4347 1600 4347 
z
M 1600 4750 
Q 1800 4750 1984 4673 
Q 2169 4597 2303 4453 
Q 2447 4313 2519 4134 
Q 2591 3956 2591 3750 
Q 2591 3338 2302 3052 
Q 2013 2766 1594 2766 
Q 1172 2766 890 3047 
Q 609 3328 609 3750 
Q 609 4169 896 4459 
Q 1184 4750 1600 4750 
z
" transform="scale(0.015625)"/>
       <path id="DejaVuSans-43" d="M 4122 4306 
L 4122 3641 
Q 3803 3938 3442 4084 
Q 3081 4231 2675 4231 
Q 1875 4231 1450 3742 
Q 1025 3253 1025 2328 
Q 1025 1406 1450 917 
Q 1875 428 2675 428 
Q 3081 428 3442 575 
Q 3803 722 4122 1019 
L 4122 359 
Q 3791 134 3420 21 
Q 3050 -91 2638 -91 
Q 1578 -91 968 557 
Q 359 1206 359 2328 
Q 359 3453 968 4101 
Q 1578 4750 2638 4750 
Q 3056 4750 3426 4639 
Q 3797 4528 4122 4306 
z
" transform="scale(0.015625)"/>
       <path id="DejaVuSans-5d" d="M 1947 4863 
L 1947 -844 
L 622 -844 
L 622 -397 
L 1369 -397 
L 1369 4416 
L 622 4416 
L 622 4863 
L 1947 4863 
z
" transform="scale(0.015625)"/>
      </defs>
      <use xlink:href="#DejaVuSans-54"/>
      <use xlink:href="#DejaVuSans-65" x="44.083984"/>
      <use xlink:href="#DejaVuSans-6d" x="105.607422"/>
      <use xlink:href="#DejaVuSans-70" x="203.019531"/>
      <use xlink:href="#DejaVuSans-65" x="266.496094"/>
      <use xlink:href="#DejaVuSans-72" x="328.019531"/>
      <use xlink:href="#DejaVuSans-61" x="369.132812"/>
      <use xlink:href="#DejaVuSans-74" x="430.412109"/>
      <use xlink:href="#DejaVuSans-75" x="469.621094"/>
      <use xlink:href="#DejaVuSans-72" x="533"/>
      <use xlink:href="#DejaVuSans-65" x="571.863281"/>
      <use xlink:href="#DejaVuSans-20" x="633.386719"/>
      <use xlink:href="#DejaVuSans-5b" x="665.173828"/>
      <use xlink:href="#DejaVuSans-c2" x="704.1875"/>
      <use xlink:href="#DejaVuSans-b0" x="772.595703"/>
      <use xlink:href="#DejaVuSans-43" x="822.595703"/>
      <use xlink:href="#DejaVuSans-5d" x="892.419922"/>
     </g>
    </g>
   </g>
   <g id="line2d_33">
    <path d="M 46.46 188.503588 
L 46.486841 188.503588 
L 46.648547 191.503838 
L 46.810255 191.503838 
L 46.945072 193.003963 
L 47.079765 193.003963 
L 47.1608 194.504088 
L 47.18757 193.003963 
L 47.618789 193.003963 
L 47.80758 188.503588 
L 47.834399 188.503588 
L 47.888626 187.003463 
L 47.942204 188.503588 
L 48.157814 188.503588 
L 48.292716 190.003713 
L 48.508319 190.003713 
L 48.562192 191.503838 
L 48.616107 190.003713 
L 48.80464 190.003713 
L 48.939385 191.503838 
L 49.209029 191.503838 
L 49.343663 190.003713 
L 49.532447 190.003713 
L 49.66708 191.503838 
L 49.72098 191.503838 
L 49.855885 193.003963 
L 50.017576 193.003963 
L 50.1522 194.504088 
L 50.28714 194.504088 
L 50.367809 196.004213 
L 50.394943 194.504088 
L 50.502648 194.504088 
L 50.610522 193.003963 
L 50.772265 196.004213 
L 50.906832 196.004213 
L 51.095662 193.003963 
L 51.230249 194.504088 
L 51.391955 194.504088 
L 51.526819 196.004213 
L 51.769273 196.004213 
L 51.90416 194.504088 
L 52.389298 194.504088 
L 52.57781 199.004463 
L 53.116836 199.004463 
L 53.251718 197.504338 
L 53.386344 197.504338 
L 53.548053 200.504588 
L 53.575158 200.504588 
L 53.709757 202.004713 
L 53.790764 202.004713 
L 53.95249 199.004463 
L 54.275906 199.004463 
L 54.410492 197.504338 
L 54.653174 197.504338 
L 54.81491 200.504588 
L 54.895613 200.504588 
L 54.949515 199.004463 
L 55.003739 200.504588 
L 55.111219 200.504588 
L 55.192245 202.004713 
L 55.219026 200.504588 
L 55.246118 200.504588 
L 55.380734 199.004463 
L 55.569469 203.504838 
L 55.596342 203.504838 
L 55.758048 206.505088 
L 55.973655 206.505088 
L 56.243169 202.004713 
L 56.270264 202.004713 
L 56.431993 205.004963 
L 56.647588 205.004963 
L 56.863188 199.004463 
L 56.917093 199.004463 
L 57.07871 196.004213 
L 57.159512 196.004213 
L 57.267314 194.504088 
L 57.402215 196.004213 
L 57.429022 196.004213 
L 57.590732 199.004463 
L 57.806339 199.004463 
L 57.995152 203.504838 
L 58.075851 203.504838 
L 58.264662 199.004463 
L 58.291459 199.004463 
L 58.426362 197.504338 
L 58.50707 197.504338 
L 58.668778 199.004463 
L 58.749746 199.004463 
L 58.776581 200.504588 
L 58.857592 199.004463 
L 59.019294 196.004213 
L 59.180998 199.004463 
L 59.36951 199.004463 
L 59.58511 205.004963 
L 59.612121 205.004963 
L 59.746824 206.505088 
L 59.800726 206.505088 
L 59.962436 209.505338 
L 59.989505 209.505338 
L 60.151215 212.505588 
L 60.420758 212.505588 
L 60.555677 215.505838 
L 60.717067 215.505838 
L 60.851985 214.005713 
L 60.986578 215.505838 
L 61.040484 215.505838 
L 61.256092 211.005463 
L 61.337128 212.505588 
L 61.363896 211.005463 
L 61.417799 211.005463 
L 61.552716 209.505338 
L 61.660458 209.505338 
L 61.795117 211.005463 
L 61.930036 211.005463 
L 62.064627 209.505338 
L 62.145529 209.505338 
L 62.334141 205.004963 
L 62.361264 205.004963 
L 62.576876 199.004463 
L 62.684622 199.004463 
L 62.819263 194.504088 
L 62.846382 196.004213 
L 62.873164 196.004213 
L 63.034872 199.004463 
L 63.089111 199.004463 
L 63.250482 185.503338 
L 63.628075 138.999463 
L 64.08614 116.497588 
L 64.193866 119.497838 
L 64.220721 117.997713 
L 64.247846 117.997713 
L 64.328525 116.497588 
L 64.355655 117.997713 
L 64.463461 117.997713 
L 64.678939 105.996713 
L 64.94851 96.995963 
L 64.975349 96.995963 
L 65.137352 93.995713 
L 65.164012 93.995713 
L 65.244859 96.995963 
L 65.271936 95.495838 
L 65.487604 89.495338 
L 65.541506 89.495338 
L 65.810968 71.493838 
L 65.837784 72.993963 
L 66.080497 105.996713 
L 66.161418 105.996713 
L 66.268998 108.996963 
L 66.296115 107.496838 
L 66.727274 81.994713 
L 66.835165 83.494838 
L 66.915823 83.494838 
L 67.400937 104.496588 
L 67.832157 80.494588 
L 67.913186 81.994713 
L 67.993863 81.994713 
L 68.452219 104.496588 
L 68.478979 102.996463 
L 68.53288 102.996463 
L 68.58678 101.496338 
L 68.640683 102.996463 
L 68.694578 102.996463 
L 68.991208 114.997463 
L 69.125801 113.497338 
L 69.449211 101.496338 
L 69.584134 96.995963 
L 69.665058 96.995963 
L 69.853673 99.996213 
L 70.446597 71.493838 
L 70.527256 71.493838 
L 70.715901 78.994463 
L 70.742861 77.494338 
L 70.850665 75.994213 
L 71.066268 87.995213 
L 71.254995 92.495588 
L 71.38968 90.995463 
L 71.443581 90.995463 
L 71.551387 92.495588 
L 71.8209 83.494838 
L 71.848029 83.494838 
L 72.144308 93.995713 
L 72.198485 93.995713 
L 72.306014 95.495838 
L 72.440961 93.995713 
L 72.467721 93.995713 
L 72.629426 90.995463 
L 72.683328 90.995463 
L 72.791131 95.495838 
L 72.845033 93.995713 
L 72.898935 93.995713 
L 73.06064 89.495338 
L 73.24931 93.995713 
L 73.330152 93.995713 
L 73.54576 87.995213 
L 73.572914 87.995213 
L 73.869173 77.494338 
L 74.192586 77.494338 
L 74.246738 75.994213 
L 74.300392 77.494338 
L 74.354293 77.494338 
L 74.704878 90.995463 
L 74.812573 90.995463 
L 75.001113 95.495838 
L 75.189979 95.495838 
L 75.324524 93.995713 
L 75.351666 93.995713 
L 75.486231 92.495588 
L 75.513403 92.495588 
L 75.647937 90.995463 
L 75.701839 90.995463 
L 75.917447 93.995713 
L 75.944588 93.995713 
L 76.106322 96.995963 
L 76.21409 96.995963 
L 76.672076 116.497588 
L 76.86091 116.497588 
L 76.99549 114.997463 
L 77.157194 114.997463 
L 77.39993 122.498088 
L 77.507746 122.498088 
L 77.642314 123.998213 
L 77.857925 123.998213 
L 78.019632 126.998463 
L 78.073534 126.998463 
L 78.235241 129.998713 
L 78.828166 143.499838 
L 78.909225 143.499838 
L 79.070918 146.500088 
L 79.205479 146.500088 
L 79.340298 148.000213 
L 79.39432 148.000213 
L 79.528892 149.500338 
L 79.555925 149.500338 
L 79.690601 151.000463 
L 79.906214 151.000463 
L 80.041182 152.500588 
L 80.28383 152.500588 
L 80.445239 154.000713 
L 80.93036 154.000713 
L 81.065316 155.500838 
L 81.308021 155.500838 
L 81.442559 154.000713 
L 81.46938 154.000713 
L 81.604327 152.500588 
L 81.658256 152.500588 
L 81.793051 154.000713 
L 81.981666 154.000713 
L 82.089451 155.500838 
L 82.224012 154.000713 
L 82.358786 154.000713 
L 82.385718 152.500588 
L 82.466787 154.000713 
L 82.709129 154.000713 
L 82.817227 152.500588 
L 83.032544 152.500588 
L 83.167509 154.000713 
L 83.221448 154.000713 
L 83.355941 155.500838 
L 83.54478 155.500838 
L 83.679367 154.000713 
L 83.733271 154.000713 
L 83.868025 155.500838 
L 84.056683 155.500838 
L 84.191656 154.000713 
L 84.515093 154.000713 
L 84.649608 155.500838 
L 84.703508 155.500838 
L 84.811313 154.000713 
L 84.97302 154.000713 
L 85.107941 155.500838 
L 85.296433 155.500838 
L 85.431287 157.000963 
L 85.727649 157.000963 
L 85.835452 158.501088 
L 86.967399 158.501088 
L 87.102324 160.001213 
L 87.69529 160.001213 
L 87.829832 161.501338 
L 88.261047 161.501338 
L 88.369135 160.001213 
L 88.908145 160.001213 
L 89.042791 161.501338 
L 89.204505 161.501338 
L 89.339088 160.001213 
L 89.878108 160.001213 
L 89.985912 161.501338 
L 90.120834 160.001213 
L 91.145015 160.001213 
L 91.279564 161.501338 
L 91.495169 161.501338 
L 91.630143 160.001213 
L 92.034193 160.001213 
L 92.169148 161.501338 
L 92.223049 161.501338 
L 92.357606 160.001213 
L 92.896629 160.001213 
L 93.031504 161.501338 
L 93.624469 161.501338 
L 93.759066 163.001463 
L 95.834448 163.001463 
L 95.969331 164.501588 
L 96.130764 163.001463 
L 96.157884 163.001463 
L 96.265681 164.501588 
L 96.400277 163.001463 
L 97.101007 163.001463 
L 97.208812 161.501338 
L 97.343746 163.001463 
L 99.796129 163.001463 
L 99.931062 161.501338 
L 106.399301 161.501338 
L 106.533901 163.001463 
L 107.180726 163.001463 
L 107.315731 161.501338 
L 107.585152 161.501338 
L 107.719747 163.001463 
L 108.070344 163.001463 
L 108.204864 164.501588 
L 109.714123 164.501588 
L 109.849093 166.001713 
L 109.983635 166.001713 
L 110.118584 164.501588 
L 111.115579 164.501588 
L 111.277287 166.001713 
L 111.304456 166.001713 
L 111.438992 164.501588 
L 111.466171 164.501588 
L 111.492895 166.001713 
L 111.573949 164.501588 
L 113.514421 164.501588 
L 113.648986 166.001713 
L 113.703199 166.001713 
L 113.864594 164.501588 
L 115.562703 164.501588 
L 115.670527 166.001713 
L 115.697263 164.501588 
L 115.778145 166.001713 
L 115.858969 166.001713 
L 115.993929 164.501588 
L 116.290185 164.501588 
L 116.39799 163.001463 
L 117.07199 163.001463 
L 117.206525 161.501338 
L 117.449226 161.501338 
L 117.583838 160.001213 
L 118.203954 160.001213 
L 118.33847 158.501088 
L 118.877493 158.501088 
L 119.01244 160.001213 
L 119.039203 160.001213 
L 119.17415 158.501088 
L 119.739933 158.501088 
L 119.901642 160.001213 
L 120.279228 160.001213 
L 120.440666 161.501338 
L 121.222476 161.501338 
L 121.357007 160.001213 
L 121.545818 160.001213 
L 121.680426 161.501338 
L 121.842134 161.501338 
L 121.977085 160.001213 
L 122.327532 160.001213 
L 122.462228 161.501338 
L 124.914553 161.501338 
L 125.049478 163.001463 
L 126.80113 163.001463 
L 126.935965 164.501588 
L 127.205537 164.501588 
L 127.34015 166.001713 
L 127.501856 167.501838 
L 127.582864 167.501838 
L 127.933076 181.002963 
L 127.960133 181.002963 
L 128.14868 185.503338 
L 128.175861 185.503338 
L 128.364288 190.003713 
L 128.418195 190.003713 
L 128.579899 193.003963 
L 128.714834 193.003963 
L 128.849412 196.004213 
L 128.93028 196.004213 
L 129.092215 199.004463 
L 129.172826 199.004463 
L 129.334532 202.004713 
L 129.388765 202.004713 
L 129.604042 205.004963 
L 129.765754 205.004963 
L 129.873803 206.505088 
L 129.981358 206.505088 
L 130.116244 208.005213 
L 130.601353 208.005213 
L 130.735996 209.505338 
L 130.870904 208.005213 
L 131.05941 208.005213 
L 131.194393 206.505088 
L 131.32892 206.505088 
L 131.463683 205.004963 
L 131.625473 205.004963 
L 131.760143 203.504838 
L 131.89507 203.504838 
L 132.029653 202.004713 
L 132.218499 202.004713 
L 132.380186 199.004463 
L 132.595789 199.004463 
L 132.730385 197.504338 
L 132.838189 197.504338 
L 132.946339 196.004213 
L 133.107704 196.004213 
L 133.269411 193.003963 
L 133.916236 193.003963 
L 134.051119 191.503838 
L 134.077946 191.503838 
L 134.239652 188.503588 
L 134.509168 188.503588 
L 134.644083 187.003463 
L 134.724774 187.003463 
L 134.859753 185.503338 
L 134.940382 185.503338 
L 135.102091 184.003213 
L 135.96453 184.003213 
L 136.126237 182.503088 
L 136.153412 182.503088 
L 136.287948 181.002963 
L 136.557456 181.002963 
L 136.719162 178.002713 
L 136.98899 178.002713 
L 137.150379 176.502588 
L 138.174525 176.502588 
L 138.309467 178.002713 
L 138.363373 178.002713 
L 138.497935 176.502588 
L 138.794519 176.502588 
L 138.929154 175.002463 
L 138.95627 175.002463 
L 139.090861 176.502588 
L 139.117936 176.502588 
L 139.252567 175.002463 
L 139.603009 175.002463 
L 139.737687 173.502338 
L 139.845491 173.502338 
L 139.953296 175.002463 
L 140.088081 173.502338 
L 140.115 173.502338 
L 140.303801 169.001963 
L 140.35772 169.001963 
L 140.519378 172.002213 
L 140.788986 172.002213 
L 140.97744 167.501838 
L 141.031342 167.501838 
L 141.19305 169.001963 
L 141.220228 169.001963 
L 141.381895 172.002213 
L 141.489719 172.002213 
L 141.624268 173.502338 
L 141.705338 173.502338 
L 141.839876 175.002463 
L 142.70231 175.002463 
L 142.837252 173.502338 
L 142.864019 173.502338 
L 143.052919 169.001963 
L 143.133528 169.001963 
L 143.322353 164.501588 
L 143.537986 164.501588 
L 143.672555 166.001713 
L 143.726457 166.001713 
L 143.861435 167.501838 
L 144.104107 167.501838 
L 144.238744 169.001963 
L 144.292603 169.001963 
L 144.427187 170.502088 
L 144.454361 170.502088 
L 144.58924 172.002213 
L 144.723851 172.002213 
L 144.858405 173.502338 
L 147.365111 173.502338 
L 147.445715 172.002213 
L 147.472914 173.502338 
L 147.796295 173.502338 
L 147.930834 175.002463 
L 148.469859 175.002463 
L 148.577661 176.502588 
L 148.712481 175.002463 
L 149.440098 175.002463 
L 149.575032 176.502588 
L 149.656003 176.502588 
L 149.817417 175.002463 
L 149.871317 175.002463 
L 150.006241 173.502338 
L 150.140828 175.002463 
L 150.599177 175.002463 
L 150.733755 173.502338 
L 150.814804 173.502338 
L 150.949362 172.002213 
L 150.976484 172.002213 
L 151.030409 173.502338 
L 151.084188 172.002213 
L 151.461642 172.002213 
L 151.596192 173.502338 
L 151.973507 173.502338 
L 152.108462 175.002463 
L 152.270061 175.002463 
L 152.404731 176.502588 
L 152.45863 176.502588 
L 152.593471 178.002713 
L 152.970922 178.002713 
L 153.10546 179.502838 
L 153.482774 179.502838 
L 153.617716 181.002963 
L 154.291309 181.002963 
L 154.480149 185.503338 
L 154.506914 185.503338 
L 154.668621 188.503588 
L 154.695774 188.503588 
L 154.857417 191.503838 
L 155.153743 191.503838 
L 155.288538 193.003963 
L 155.369354 193.003963 
L 155.531058 196.004213 
L 155.558213 196.004213 
L 155.719914 199.004463 
L 155.854473 199.004463 
L 156.016179 202.004713 
L 156.205049 202.004713 
L 156.339591 203.504838 
L 156.609104 203.504838 
L 156.716908 202.004713 
L 156.932517 202.004713 
L 157.067454 200.504588 
L 157.148125 200.504588 
L 157.256228 202.004713 
L 157.417639 202.004713 
L 157.552621 200.504588 
L 158.954019 200.504588 
L 159.088923 202.004713 
L 159.142509 202.004713 
L 159.250312 203.504838 
L 159.84324 203.504838 
L 159.978152 202.004713 
L 160.004949 203.504838 
L 160.085965 202.004713 
L 160.193743 202.004713 
L 160.328635 200.504588 
L 160.355344 200.504588 
L 160.517267 197.504338 
L 160.571171 197.504338 
L 160.759581 193.003963 
L 160.867386 193.003963 
L 161.029092 190.003713 
L 161.05622 190.003713 
L 161.190795 188.503588 
L 161.675918 188.503588 
L 161.783728 190.003713 
L 162.214943 190.003713 
L 162.323002 191.503838 
L 162.915675 191.503838 
L 163.077381 188.503588 
L 163.131283 188.503588 
L 163.266277 187.003463 
L 163.400799 187.003463 
L 163.427849 185.503338 
L 163.508601 187.003463 
L 163.616406 187.003463 
L 163.778115 184.003213 
L 164.020883 184.003213 
L 164.155436 182.503088 
L 164.236451 182.503088 
L 164.371367 181.002963 
L 164.47885 181.002963 
L 164.61381 179.502838 
L 164.721511 179.502838 
L 164.856484 178.002713 
L 164.991023 178.002713 
L 165.125679 176.502588 
L 165.152762 176.502588 
L 165.206687 175.002463 
L 165.260628 176.502588 
L 165.341288 176.502588 
L 165.826406 187.003463 
L 166.688846 187.003463 
L 166.823788 188.503588 
L 166.850552 188.503588 
L 167.012259 187.003463 
L 167.147238 187.003463 
L 167.308933 184.003213 
L 167.389919 184.003213 
L 167.605182 181.002963 
L 167.820793 181.002963 
L 167.955575 178.002713 
L 168.090303 179.502838 
L 168.171398 179.502838 
L 168.305913 181.002963 
L 168.548664 181.002963 
L 168.710369 178.002713 
L 168.818182 178.002713 
L 168.952728 176.502588 
L 169.141557 181.002963 
L 169.222252 181.002963 
L 169.438182 175.002463 
L 169.464812 175.002463 
L 169.653468 170.502088 
L 169.842311 170.502088 
L 170.030785 166.001713 
L 170.11181 166.001713 
L 170.246391 164.501588 
L 170.273508 164.501588 
L 170.4081 161.501338 
L 170.623711 161.501338 
L 170.758658 160.001213 
L 170.839316 160.001213 
L 170.94746 161.501338 
L 171.135974 158.501088 
L 171.16273 160.001213 
L 171.243787 158.501088 
L 171.48614 158.501088 
L 171.64785 155.500838 
L 171.701751 155.500838 
L 171.890539 160.001213 
L 171.917363 160.001213 
L 172.132972 163.001463 
L 172.186875 163.001463 
L 172.240776 161.501338 
L 172.294679 163.001463 
L 172.348581 163.001463 
L 172.51029 166.001713 
L 172.699166 166.001713 
L 172.752976 164.501588 
L 172.806974 166.001713 
L 172.941505 166.001713 
L 173.211017 170.502088 
L 173.238206 169.001963 
L 173.318821 170.502088 
L 173.345989 170.502088 
L 173.453804 172.002213 
L 173.61551 169.001963 
L 173.669385 169.001963 
L 173.803945 167.501838 
L 173.857847 167.501838 
L 174.019549 170.502088 
L 174.046561 170.502088 
L 174.208437 173.502338 
L 174.612481 173.502338 
L 174.747454 175.002463 
L 174.855258 175.002463 
L 174.990098 176.502588 
L 175.178662 176.502588 
L 175.313207 178.002713 
L 175.421014 178.002713 
L 175.5558 179.502838 
L 175.933304 179.502838 
L 176.067843 181.002963 
L 176.256709 181.002963 
L 176.418423 184.003213 
L 176.499058 184.003213 
L 176.714666 187.003463 
L 176.876374 187.003463 
L 176.98418 188.503588 
L 177.119063 188.503588 
L 177.253691 190.003713 
L 177.280901 190.003713 
L 177.415398 191.503838 
L 177.442502 191.503838 
L 177.577105 193.003963 
L 177.604136 193.003963 
L 177.76594 196.004213 
L 177.846617 196.004213 
L 178.008325 199.004463 
L 178.08921 199.004463 
L 178.223935 200.504588 
L 178.277836 200.504588 
L 178.439541 203.504838 
L 178.870759 203.504838 
L 179.032465 200.504588 
L 179.248077 203.504838 
L 179.355883 203.504838 
L 179.517588 206.505088 
L 179.59845 206.505088 
L 179.760329 209.505338 
L 179.841001 209.505338 
L 179.975982 211.005463 
L 180.05689 211.005463 
L 180.380031 217.005963 
L 180.407216 217.005963 
L 180.541738 220.006213 
L 181.02686 220.006213 
L 181.188566 223.006463 
L 181.269503 223.006463 
L 181.431212 220.006213 
L 181.48508 220.006213 
L 181.619772 218.506088 
L 181.70075 218.506088 
L 181.835394 220.006213 
L 181.943202 220.006213 
L 182.078063 218.506088 
L 182.320517 218.506088 
L 182.482227 221.506338 
L 182.509292 221.506338 
L 182.670951 224.506588 
L 182.805639 224.506588 
L 182.967347 227.506838 
L 183.021251 227.506838 
L 183.182958 224.506588 
L 183.210046 226.006713 
L 183.263926 223.006463 
L 183.425635 218.506088 
L 183.587356 221.506338 
L 183.695118 221.506338 
L 183.856868 224.506588 
L 184.368813 224.506588 
L 184.530521 221.506338 
L 184.638695 223.006463 
L 184.800032 221.506338 
L 184.881038 221.506338 
L 185.042679 224.506588 
L 185.069547 224.506588 
L 185.231257 227.506838 
L 185.608573 227.506838 
L 185.931988 233.507338 
L 186.039793 233.507338 
L 186.12076 232.007213 
L 186.147895 233.507338 
L 186.228528 233.507338 
L 186.363208 235.007463 
L 186.417109 235.007463 
L 186.552 236.507588 
L 186.578817 236.507588 
L 186.632717 238.007713 
L 186.686959 236.507588 
L 186.79443 236.507588 
L 186.821516 238.007713 
L 186.902234 236.507588 
L 187.063942 236.507588 
L 187.14494 235.007463 
L 187.495163 235.007463 
L 187.630079 236.507588 
L 187.899601 236.507588 
L 188.061197 233.507338 
L 188.222842 236.507588 
L 188.303697 236.507588 
L 188.492547 232.007213 
L 188.896623 232.007213 
L 189.031589 233.507338 
L 189.085418 233.507338 
L 189.247007 236.507588 
L 189.273943 236.507588 
L 189.408898 235.007463 
L 189.624521 235.007463 
L 189.705393 233.507338 
L 190.136385 242.508088 
L 190.163514 242.508088 
L 190.325197 245.508338 
L 190.405898 245.508338 
L 190.540807 247.008463 
L 190.594714 247.008463 
L 190.729575 248.508588 
L 190.944925 251.508838 
L 191.133771 251.508838 
L 191.268333 250.008713 
L 191.349366 250.008713 
L 191.457175 248.508588 
L 191.591754 250.008713 
L 191.618903 250.008713 
L 191.753758 247.008463 
L 191.807366 247.008463 
L 191.969075 244.008213 
L 192.130782 244.008213 
L 192.292489 241.007963 
L 192.535268 241.007963 
L 192.696995 244.008213 
L 192.77794 244.008213 
L 192.912501 245.508338 
L 193.154932 245.508338 
L 193.316641 248.508588 
L 193.34368 248.508588 
L 193.505452 251.508838 
L 193.559429 251.508838 
L 193.69396 253.008963 
L 193.747864 253.008963 
L 193.828754 254.509088 
L 193.855669 253.008963 
L 193.882776 253.008963 
L 194.098362 247.008463 
L 194.179084 247.008463 
L 194.313828 248.508588 
L 194.340791 248.508588 
L 194.475727 247.008463 
L 194.556402 247.008463 
L 194.691302 248.508588 
L 194.87982 248.508588 
L 195.014759 250.008713 
L 195.04153 250.008713 
L 195.203237 247.008463 
L 195.526654 247.008463 
L 195.661575 245.508338 
L 195.903974 245.508338 
L 196.065679 248.508588 
L 196.227385 248.508588 
L 196.389095 245.508338 
L 196.577928 245.508338 
L 196.712513 244.008213 
L 196.793534 244.008213 
L 196.955179 247.008463 
L 196.982025 247.008463 
L 197.17085 251.508838 
L 197.305437 251.508838 
L 197.440357 250.008713 
L 197.602139 253.008963 
L 197.656039 253.008963 
L 197.817754 256.009213 
L 197.925429 256.009213 
L 198.060075 257.509338 
L 198.302875 257.509338 
L 198.410504 259.009463 
L 198.5452 257.509338 
L 198.680157 257.509338 
L 198.814715 254.509088 
L 198.976423 256.009213 
L 199.030323 256.009213 
L 199.192033 259.009463 
L 199.299836 259.009463 
L 199.434672 257.509338 
L 199.596477 257.509338 
L 199.812087 251.508838 
L 199.919744 251.508838 
L 199.946668 253.008963 
L 200.027722 251.508838 
L 200.189332 251.508838 
L 200.323987 253.008963 
L 200.431795 253.008963 
L 200.566712 251.508838 
L 200.836222 251.508838 
L 201.078624 259.009463 
L 201.105771 259.009463 
L 201.240335 260.509588 
L 201.267409 260.509588 
L 201.428985 257.509338 
L 201.455941 257.509338 
L 201.671554 251.508838 
L 201.779361 251.508838 
L 201.887445 253.008963 
L 201.941069 253.008963 
L 202.076049 251.508838 
L 202.102774 251.508838 
L 202.237728 253.008963 
L 202.264487 253.008963 
L 202.426504 256.009213 
L 202.507177 256.009213 
L 202.614983 257.509338 
L 202.776761 254.509088 
L 202.830647 254.509088 
L 202.965221 253.008963 
L 203.234732 253.008963 
L 203.369644 251.508838 
L 203.396441 251.508838 
L 203.612051 254.509088 
L 203.639098 254.509088 
L 203.719853 256.009213 
L 203.747008 254.509088 
L 203.989369 254.509088 
L 204.151077 257.509338 
L 204.258881 257.509338 
L 204.393831 259.009463 
L 204.474478 259.009463 
L 204.609447 257.509338 
L 204.690104 257.509338 
L 204.905712 263.509838 
L 204.93283 263.509838 
L 205.094549 266.510088 
L 205.175229 266.510088 
L 205.336936 263.509838 
L 205.444955 263.509838 
L 205.660349 266.510088 
L 205.687489 266.510088 
L 205.822061 268.010213 
L 206.064752 268.010213 
L 206.226544 265.009963 
L 206.253282 265.009963 
L 206.280444 263.509838 
L 206.361086 265.009963 
L 206.388071 265.009963 
L 206.549822 262.009713 
L 206.576699 262.009713 
L 206.711665 260.509588 
L 206.900115 260.509588 
L 207.034895 259.009463 
L 207.088917 260.509588 
L 207.142886 259.009463 
L 207.196787 259.009463 
L 207.331336 260.509588 
L 207.385238 260.509588 
L 207.493338 262.009713 
L 207.546949 262.009713 
L 207.681923 263.509838 
L 207.762558 262.009713 
L 207.789715 263.509838 
L 208.436544 263.509838 
L 208.867788 235.007463 
L 209.379636 167.501838 
L 209.676308 161.501338 
L 209.972561 190.003713 
L 210.026462 188.503588 
L 210.18817 185.503338 
L 210.242072 185.503338 
L 210.592606 163.001463 
L 210.808212 141.999713 
L 211.050608 167.501838 
L 211.104511 164.501588 
L 211.91304 117.997713 
L 211.993911 120.997963 
L 212.128649 122.498088 
L 212.155787 122.498088 
L 212.236452 120.997963 
L 212.398158 131.498838 
L 212.425326 129.998713 
L 212.505962 129.998713 
L 212.721571 123.998213 
L 212.775474 123.998213 
L 212.910414 117.997713 
L 212.937176 120.997963 
L 213.152784 129.998713 
L 213.179952 128.498588 
L 213.314489 128.498588 
L 213.611131 116.497588 
L 213.961628 129.998713 
L 214.01522 129.998713 
L 214.150164 131.498838 
L 214.527316 108.996963 
L 214.608142 111.997213 
L 214.931552 123.998213 
L 215.012389 123.998213 
L 215.282126 107.496838 
L 215.336054 111.997213 
L 215.41667 122.498088 
L 215.63228 140.499588 
L 215.713326 140.499588 
L 216.09058 157.000963 
L 216.279103 152.500588 
L 216.333008 152.500588 
L 216.548615 158.501088 
L 216.602518 158.501088 
L 216.764227 154.000713 
L 216.95308 158.501088 
L 216.979833 158.501088 
L 217.034024 160.001213 
L 217.087638 158.501088 
L 217.14154 158.501088 
L 217.276486 160.001213 
L 217.33039 160.001213 
L 217.492091 163.001463 
L 217.519198 163.001463 
L 217.680565 166.001713 
L 217.761626 166.001713 
L 218.057878 152.500588 
L 218.084894 154.000713 
L 218.138916 155.500838 
L 218.165685 154.000713 
L 218.489095 141.999713 
L 218.543267 141.999713 
L 218.920315 157.000963 
L 218.974215 157.000963 
L 219.02839 158.501088 
L 219.082021 157.000963 
L 219.10906 157.000963 
L 219.270849 154.000713 
L 219.29763 154.000713 
L 219.621044 141.999713 
L 219.782748 141.999713 
L 219.971597 148.000213 
L 220.375675 129.998713 
L 220.537659 134.499088 
L 220.618303 134.499088 
L 220.9418 146.500088 
L 220.968597 146.500088 
L 221.23811 151.000463 
L 221.48086 151.000463 
L 221.669325 146.500088 
L 221.750335 146.500088 
L 221.884935 144.999963 
L 222.046642 144.999963 
L 222.208347 146.500088 
L 222.289375 146.500088 
L 222.451134 149.500338 
L 222.558808 149.500338 
L 222.74737 154.000713 
L 222.990162 154.000713 
L 223.016878 152.500588 
L 223.071134 155.500838 
L 223.232488 163.001463 
L 223.421334 167.501838 
L 223.529154 167.501838 
L 223.744786 173.502338 
L 223.825412 173.502338 
L 224.014272 178.002713 
L 224.095221 178.002713 
L 224.310537 181.002963 
L 224.364439 181.002963 
L 224.526144 184.003213 
L 224.553282 184.003213 
L 224.687851 185.503338 
L 224.714965 185.503338 
L 224.876714 188.503588 
L 224.957361 188.503588 
L 225.119402 191.503838 
L 225.900857 191.503838 
L 226.035412 193.003963 
L 226.304921 193.003963 
L 226.439915 194.504088 
L 227.248331 194.504088 
L 227.329067 193.003963 
L 227.356269 194.504088 
L 227.382967 194.504088 
L 227.517904 193.003963 
L 227.787355 193.003963 
L 227.921992 194.504088 
L 228.003029 194.504088 
L 228.137882 197.504338 
L 228.21852 197.504338 
L 228.380357 200.504588 
L 228.488173 200.504588 
L 228.622724 202.004713 
L 228.75759 202.004713 
L 228.892239 203.504838 
L 229.107843 203.504838 
L 229.242688 205.004963 
L 229.431261 205.004963 
L 229.56619 206.505088 
L 229.701034 206.505088 
L 229.835726 208.005213 
L 229.889571 208.005213 
L 230.024186 209.505338 
L 230.509308 209.505338 
L 230.644241 211.005463 
L 231.641258 211.005463 
L 231.695451 212.505588 
L 231.749065 211.005463 
L 231.856869 211.005463 
L 231.991814 212.505588 
L 232.288088 212.505588 
L 232.423058 211.005463 
L 232.584755 211.005463 
L 232.719568 212.505588 
L 232.881015 212.505588 
L 233.042726 214.005713 
L 233.608919 214.005713 
L 233.74371 212.505588 
L 233.851262 212.505588 
L 233.986205 214.005713 
L 234.579124 214.005713 
L 234.713696 215.505838 
L 234.848599 215.505838 
L 234.983212 217.005963 
L 235.010403 217.005963 
L 235.172075 220.006213 
L 235.253038 220.006213 
L 235.468336 223.006463 
L 235.522238 223.006463 
L 235.683946 226.006713 
L 235.73785 226.006713 
L 235.899553 227.506838 
L 236.250105 227.506838 
L 236.411812 230.507088 
L 236.465647 230.507088 
L 236.627461 233.507338 
L 236.708094 233.507338 
L 236.8698 236.507588 
L 236.896936 235.007463 
L 236.977605 236.507588 
L 237.004653 236.507588 
L 237.166367 239.507838 
L 237.435949 239.507838 
L 237.570533 241.007963 
L 237.921102 241.007963 
L 238.055657 242.508088 
L 239.214745 242.508088 
L 239.349313 244.008213 
L 239.726639 244.008213 
L 239.861397 242.508088 
L 240.535179 242.508088 
L 240.670031 241.007963 
L 241.883093 241.007963 
L 242.017605 239.507838 
L 242.906889 239.507838 
L 243.068599 236.507588 
L 243.230306 236.507588 
L 243.338111 238.007713 
L 243.877418 238.007713 
L 244.038846 236.507588 
L 244.631773 236.507588 
L 244.76672 238.007713 
L 245.009093 238.007713 
L 245.144088 239.507838 
L 245.305753 239.507838 
L 245.440664 241.007963 
L 245.790773 241.007963 
L 245.97934 236.507588 
L 246.194945 236.507588 
L 246.329897 238.007713 
L 246.545484 238.007713 
L 246.680069 236.507588 
L 246.86891 236.507588 
L 247.003487 238.007713 
L 247.057389 238.007713 
L 247.2191 241.007963 
L 247.435031 241.007963 
L 247.596414 242.508088 
L 247.919831 242.508088 
L 248.135441 245.508338 
L 248.459203 245.508338 
L 248.674466 242.508088 
L 248.782271 242.508088 
L 248.91726 244.008213 
L 249.348467 244.008213 
L 249.483279 245.508338 
L 249.698616 245.508338 
L 249.833627 247.008463 
L 250.830572 247.008463 
L 250.965556 245.508338 
L 251.181182 245.508338 
L 251.315697 244.008213 
L 251.935773 244.008213 
L 252.070332 242.508088 
L 252.151369 242.508088 
L 252.28594 241.007963 
L 253.09448 241.007963 
L 253.229412 239.507838 
L 253.471799 239.507838 
L 253.606581 241.007963 
L 253.984077 241.007963 
L 254.118629 242.508088 
L 254.334239 242.508088 
L 254.469214 241.007963 
L 254.54985 241.007963 
L 254.711556 239.507838 
L 255.142778 239.507838 
L 255.277775 238.007713 
L 255.385559 238.007713 
L 255.520097 236.507588 
L 255.573996 236.507588 
L 255.735702 235.007463 
L 255.870708 235.007463 
L 256.032372 232.007213 
L 256.220829 232.007213 
L 256.355803 230.507088 
L 256.787071 230.507088 
L 256.921562 229.006963 
L 257.056507 229.006963 
L 257.218165 226.006713 
L 257.272113 226.006713 
L 257.433822 223.006463 
L 257.460585 223.006463 
L 257.59553 224.506588 
L 257.676193 224.506588 
L 257.811156 223.006463 
L 257.918953 223.006463 
L 258.08064 220.006213 
L 258.107418 220.006213 
L 258.269122 218.506088 
L 258.35021 218.506088 
L 258.511918 215.505838 
L 258.78138 215.505838 
L 258.943126 218.506088 
L 259.185456 218.506088 
L 259.401075 212.505588 
L 259.454977 212.505588 
L 259.616686 209.505338 
L 259.643804 209.505338 
L 259.778392 208.005213 
L 259.994002 208.005213 
L 260.155886 205.004963 
L 260.371319 202.004713 
L 260.506238 203.504838 
L 260.533027 203.504838 
L 260.721702 199.004463 
L 260.748635 199.004463 
L 260.883588 197.504338 
L 261.045291 200.504588 
L 261.180138 197.504338 
L 261.287661 197.504338 
L 261.422561 196.004213 
L 261.503271 196.004213 
L 261.664979 193.003963 
L 262.096195 184.003213 
L 262.123355 184.003213 
L 262.2579 182.503088 
L 262.392855 185.503338 
L 262.527414 184.003213 
L 262.554459 184.003213 
L 262.689122 182.503088 
L 262.90473 173.502338 
L 263.066438 169.001963 
L 263.255104 173.502338 
L 263.36308 173.502338 
L 263.497655 172.002213 
L 263.632653 172.002213 
L 263.713546 163.001463 
L 264.198382 119.497838 
L 264.387235 114.997463 
L 264.413987 116.497588 
L 264.575697 123.998213 
L 264.629599 122.498088 
L 264.6835 117.997713 
L 264.737762 119.497838 
L 264.81836 123.998213 
L 264.872355 122.498088 
L 265.222522 95.495838 
L 265.43813 84.994963 
L 265.465243 86.495088 
L 265.599834 90.995463 
L 265.761768 80.494588 
L 265.788502 81.994713 
L 265.923247 93.995713 
L 266.327593 148.000213 
L 266.462267 134.499088 
L 266.705068 107.496838 
L 266.786013 110.497088 
L 266.866687 110.497088 
L 266.947385 104.496588 
L 267.001286 107.496838 
L 267.190099 107.496838 
L 267.297736 95.495838 
L 267.513573 72.993963 
L 267.594209 81.994713 
L 267.755914 90.995463 
L 268.241033 101.496338 
L 268.321902 101.496338 
L 268.510546 105.996713 
L 268.537682 105.996713 
L 268.67225 104.496588 
L 269.31906 134.499088 
L 269.346072 132.998963 
L 269.400093 134.499088 
L 269.615721 140.499588 
L 269.642489 140.499588 
L 269.777415 141.999713 
L 269.831144 141.999713 
L 269.965902 144.999963 
L 270.154732 140.499588 
L 270.208705 140.499588 
L 270.37024 137.499338 
L 270.45102 137.499338 
L 270.666631 143.499838 
L 270.720534 143.499838 
L 270.855314 141.999713 
L 270.936141 141.999713 
L 271.151748 148.000213 
L 271.205649 148.000213 
L 271.367359 151.000463 
L 271.529064 151.000463 
L 271.690773 154.000713 
L 272.014184 154.000713 
L 272.149132 155.500838 
L 272.17589 155.500838 
L 272.283694 157.000963 
L 272.526436 157.000963 
L 272.661011 158.501088 
L 272.822994 158.501088 
L 273.038326 161.501338 
L 273.146132 161.501338 
L 273.281104 163.001463 
L 273.307837 163.001463 
L 273.496738 166.001713 
L 273.523447 164.501588 
L 273.604482 166.001713 
L 273.631251 166.001713 
L 273.79296 169.001963 
L 273.820083 169.001963 
L 273.954664 170.502088 
L 274.008566 170.502088 
L 274.143486 172.002213 
L 274.30518 172.002213 
L 274.439783 173.502338 
L 274.493689 173.502338 
L 274.628619 175.002463 
L 274.709294 175.002463 
L 274.817097 176.502588 
L 274.951984 176.502588 
L 275.086612 178.002713 
L 275.356467 178.002713 
L 275.517828 179.502838 
L 275.922131 179.502838 
L 276.056851 178.002713 
L 276.110755 178.002713 
L 276.245745 179.502838 
L 276.380538 178.002713 
L 276.595876 178.002713 
L 276.757583 181.002963 
L 276.811487 181.002963 
L 276.946296 182.503088 
L 276.97319 182.503088 
L 277.134898 179.502838 
L 277.997336 179.502838 
L 278.132229 181.002963 
L 278.590261 181.002963 
L 278.725248 179.502838 
L 278.859772 179.502838 
L 278.994631 178.002713 
L 279.021478 178.002713 
L 279.156372 176.502588 
L 279.560504 176.502588 
L 279.722206 173.502338 
L 279.749291 173.502338 
L 279.883915 175.002463 
L 280.099525 175.002463 
L 280.23451 176.502588 
L 280.342312 176.502588 
L 280.476844 178.002713 
L 280.665728 178.002713 
L 280.827404 181.002963 
L 280.988941 181.002963 
L 281.123672 179.502838 
L 281.204643 179.502838 
L 281.339281 181.002963 
L 281.393181 181.002963 
L 281.528036 182.503088 
L 281.554887 182.503088 
L 281.689863 184.003213 
L 281.797663 184.003213 
L 281.986098 188.503588 
L 282.040008 188.503588 
L 282.201716 191.503838 
L 282.228717 191.503838 
L 282.36342 193.003963 
L 282.390551 193.003963 
L 282.579032 197.504338 
L 283.549275 197.504338 
L 283.684196 196.004213 
L 283.764883 196.004213 
L 283.899818 194.504088 
L 284.331024 194.504088 
L 284.465613 193.003963 
L 284.62732 193.003963 
L 284.816165 188.503588 
L 284.896832 188.503588 
L 285.031587 187.003463 
L 285.139563 187.003463 
L 285.274149 185.503338 
L 285.435855 185.503338 
L 285.570679 184.003213 
L 285.75927 184.003213 
L 285.894183 185.503338 
L 286.460001 185.503338 
L 286.594845 187.003463 
L 286.891218 187.003463 
L 286.999022 185.503338 
L 287.214632 188.503588 
L 287.241755 188.503588 
L 287.376339 187.003463 
L 287.484143 187.003463 
L 287.619009 188.503588 
L 287.915362 188.503588 
L 287.969265 187.003463 
L 288.023168 188.503588 
L 288.238778 188.503588 
L 288.373612 190.003713 
L 288.454385 190.003713 
L 288.589157 188.503588 
L 288.75106 191.503838 
L 289.047598 191.503838 
L 289.209021 193.003963 
L 289.236198 193.003963 
L 289.370727 194.504088 
L 289.505659 194.504088 
L 289.640239 193.003963 
L 289.909752 193.003963 
L 290.044722 194.504088 
L 290.179264 194.504088 
L 290.340972 197.504338 
L 290.394872 197.504338 
L 290.55658 200.504588 
L 290.691437 202.004713 
L 290.853251 199.004463 
L 290.879995 199.004463 
L 291.014901 197.504338 
L 291.176583 197.504338 
L 291.338329 200.504588 
L 291.365116 200.504588 
L 291.500009 199.004463 
L 291.553937 199.004463 
L 291.76957 205.004963 
L 291.904139 205.004963 
L 292.03906 206.505088 
L 292.146729 206.505088 
L 292.308601 203.504838 
L 292.685821 203.504838 
L 292.874385 199.004463 
L 293.03609 199.004463 
L 293.143882 200.504588 
L 293.278822 199.004463 
L 293.305601 199.004463 
L 293.440572 200.504588 
L 293.548366 200.504588 
L 293.602227 199.004463 
L 293.655964 200.504588 
L 293.81792 200.504588 
L 293.979528 197.504338 
L 294.16804 197.504338 
L 294.195058 199.004463 
L 294.275842 197.504338 
L 294.329746 197.504338 
L 294.491456 200.504588 
L 294.518554 200.504588 
L 294.653475 202.004713 
L 294.734152 202.004713 
L 294.842023 203.504838 
L 294.976576 202.004713 
L 295.003732 202.004713 
L 295.246089 209.505338 
L 295.273189 209.505338 
L 295.434923 212.505588 
L 295.488888 212.505588 
L 295.623405 214.005713 
L 295.785111 214.005713 
L 295.946821 211.005463 
L 296.108531 211.005463 
L 296.270239 214.005713 
L 296.29734 214.005713 
L 296.431942 215.505838 
L 296.459081 215.505838 
L 296.593651 214.005713 
L 296.647554 214.005713 
L 296.863162 211.005463 
L 296.944216 211.005463 
L 297.052007 212.505588 
L 297.240481 208.005213 
L 297.321556 208.005213 
L 297.483249 211.005463 
L 297.563895 211.005463 
L 297.7256 214.005713 
L 297.752636 214.005713 
L 297.88731 215.505838 
L 298.076189 215.505838 
L 298.237709 218.506088 
L 298.264629 218.506088 
L 298.426336 221.506338 
L 298.561318 221.506338 
L 298.696144 220.006213 
L 298.884637 220.006213 
L 299.046438 217.005963 
L 299.073167 217.005963 
L 299.234864 220.006213 
L 299.585445 220.006213 
L 299.746948 223.006463 
L 299.80097 223.006463 
L 299.962737 226.006713 
L 300.016655 226.006713 
L 300.178369 229.006963 
L 300.205367 229.006963 
L 300.366826 227.506838 
L 300.609608 227.506838 
L 300.825136 221.506338 
L 300.905848 221.506338 
L 301.067558 224.506588 
L 301.229585 221.506338 
L 301.55268 221.506338 
L 301.687617 220.006213 
L 301.822192 220.006213 
L 302.011026 224.506588 
L 302.226644 224.506588 
L 302.388339 227.506838 
L 302.63073 227.506838 
L 302.684632 226.006713 
L 302.738535 227.506838 
L 302.819449 227.506838 
L 302.954149 229.006963 
L 303.143051 229.006963 
L 303.277882 230.507088 
L 303.439268 230.507088 
L 303.600974 233.507338 
L 303.708779 233.507338 
L 303.762991 235.007463 
L 303.816584 233.507338 
L 303.924392 233.507338 
L 304.059302 235.007463 
L 304.193904 233.507338 
L 304.247806 233.507338 
L 304.409513 232.007213 
L 304.544428 232.007213 
L 304.625123 233.507338 
L 304.652276 232.007213 
L 304.679028 232.007213 
L 304.894636 226.006713 
L 305.110248 226.006713 
L 305.271957 221.506338 
L 305.433664 221.506338 
L 305.595368 218.506088 
L 305.730293 218.506088 
L 306.16154 188.503588 
L 306.431045 169.001963 
L 306.484963 169.001963 
L 307.023949 144.999963 
L 307.050729 144.999963 
L 307.212437 138.999463 
L 307.320563 143.499838 
L 307.374142 141.999713 
L 307.428046 143.499838 
L 307.482224 141.999713 
L 307.509083 141.999713 
L 307.643653 132.998963 
L 307.724667 135.999213 
L 307.778606 137.499338 
L 307.805359 135.999213 
L 308.290479 92.495588 
L 308.371337 93.995713 
L 308.506087 95.495838 
L 308.587003 93.995713 
L 308.829773 83.494838 
L 308.883404 84.994963 
L 309.045107 98.496088 
L 309.09901 96.995963 
L 309.314615 90.995463 
L 309.557385 105.996713 
L 309.638028 107.496838 
L 309.665156 105.996713 
L 309.691932 105.996713 
L 309.907537 87.995213 
L 310.12315 72.993963 
L 310.339048 89.495338 
L 310.473692 86.495088 
L 310.554359 86.495088 
L 310.608265 84.994963 
L 310.662164 86.495088 
L 310.743224 87.995213 
L 310.769967 86.495088 
L 311.120506 72.993963 
L 311.201185 72.993963 
L 311.416793 78.994463 
L 311.470698 78.994463 
L 311.524596 77.494338 
L 311.578502 78.994463 
L 311.713463 78.994463 
L 311.84801 84.994963 
L 311.901914 83.494838 
L 311.929017 83.494838 
L 312.063614 86.495088 
L 312.11752 83.494838 
L 312.171419 86.495088 
L 312.252495 89.495338 
L 312.279221 87.995213 
L 312.333116 87.995213 
L 312.387026 90.995463 
L 313.114914 93.995713 
L 313.572874 72.993963 
L 313.653887 77.494338 
L 313.707823 75.994213 
L 313.977329 56.492588 
L 314.031201 63.993213 
L 314.246774 81.994713 
L 314.273601 80.494588 
L 314.327818 81.994713 
L 314.516347 86.495088 
L 314.678003 80.494588 
L 314.785757 84.994963 
L 314.812819 83.494838 
L 315.405539 38.491088 
L 315.432634 39.991213 
L 315.486581 39.991213 
L 315.513344 38.491088 
L 315.594284 39.991213 
L 315.78285 44.491588 
L 315.917708 41.491338 
L 315.998461 36.990963 
L 316.052362 39.991213 
L 316.079502 39.991213 
L 317.022591 89.495338 
L 317.319243 78.994463 
L 317.453812 80.494588 
L 317.615519 71.493838 
L 317.777222 74.494088 
L 317.831125 71.493838 
L 317.885324 72.993963 
L 318.073838 77.494338 
L 318.127789 77.494338 
L 318.370449 69.993713 
L 318.451116 69.993713 
L 318.693558 77.494338 
L 318.80136 77.494338 
L 319.340376 111.997213 
L 319.609889 125.498338 
L 319.879629 134.499088 
L 320.256718 141.999713 
L 320.283792 141.999713 
L 320.472326 146.500088 
L 320.526228 146.500088 
L 323.22134 164.501588 
L 323.383046 167.501838 
L 323.544976 167.501838 
L 323.706459 169.001963 
L 324.029874 169.001963 
L 324.191577 170.502088 
L 324.218733 170.502088 
L 324.353284 169.001963 
L 324.407449 169.001963 
L 324.569148 172.002213 
L 324.622796 172.002213 
L 324.757711 170.502088 
L 324.838401 170.502088 
L 325.000111 173.502338 
L 325.054012 173.502338 
L 325.377423 179.502838 
L 325.40448 179.502838 
L 325.539135 181.002963 
L 325.727978 184.003213 
L 325.94355 184.003213 
L 326.078475 187.003463 
L 326.185959 187.003463 
L 326.347663 184.003213 
L 326.428583 184.003213 
L 326.563275 182.503088 
L 326.617498 182.503088 
L 326.644156 184.003213 
L 326.967721 185.503338 
L 327.1023 184.003213 
L 327.18328 184.003213 
L 327.210104 185.503338 
L 327.39894 185.503338 
L 327.533519 184.003213 
L 327.66845 184.003213 
L 327.803223 185.503338 
L 327.830007 185.503338 
L 327.991845 188.503588 
L 328.099631 188.503588 
L 328.261353 191.503838 
L 328.288396 191.503838 
L 328.449861 193.003963 
L 328.557665 193.003963 
L 328.692582 191.503838 
L 328.827165 191.503838 
L 328.962072 193.003963 
L 329.527904 193.003963 
L 329.689611 196.004213 
L 330.174733 196.004213 
L 330.336715 193.003963 
L 330.605953 193.003963 
L 330.740864 194.504088 
L 330.794766 194.504088 
L 330.956368 191.503838 
L 331.306682 191.503838 
L 331.52229 188.503588 
L 331.576196 188.503588 
L 331.711123 187.003463 
L 331.737902 187.003463 
L 331.872653 188.503588 
L 332.007412 187.003463 
L 332.0345 187.003463 
L 332.169118 185.503338 
L 332.250146 185.503338 
L 332.438632 179.502838 
L 332.573529 181.002963 
L 332.627493 181.002963 
L 332.762044 182.503088 
L 332.789205 182.503088 
L 332.923752 184.003213 
L 332.950842 184.003213 
L 333.112589 181.002963 
L 333.355259 181.002963 
L 333.516679 182.503088 
L 333.705526 182.503088 
L 333.840093 184.003213 
L 333.894293 184.003213 
L 334.055706 187.003463 
L 334.433022 187.003463 
L 334.594726 184.003213 
L 334.675798 184.003213 
L 334.810334 185.503338 
L 334.945157 184.003213 
L 335.079849 184.003213 
L 335.241557 187.003463 
L 335.349362 187.003463 
L 335.484252 185.503338 
L 335.618872 187.003463 
L 335.672774 187.003463 
L 335.807687 188.503588 
L 335.861585 188.503588 
L 335.996192 187.003463 
L 336.211802 187.003463 
L 336.346691 188.503588 
L 336.481311 188.503588 
L 336.616247 190.003713 
L 336.858632 190.003713 
L 336.993495 188.503588 
L 337.694289 188.503588 
L 337.828869 187.003463 
L 337.856007 187.003463 
L 337.990576 185.503338 
L 338.098381 185.503338 
L 338.233315 187.003463 
L 338.341117 187.003463 
L 338.367893 188.503588 
L 338.42209 187.003463 
L 338.987813 187.003463 
L 339.122529 185.503338 
L 339.230334 185.503338 
L 339.365291 184.003213 
L 340.038869 184.003213 
L 340.173751 182.503088 
L 340.308381 182.503088 
L 340.416183 184.003213 
L 341.090103 184.003213 
L 341.224721 182.503088 
L 341.359658 182.503088 
L 341.521221 185.503338 
L 341.602033 185.503338 
L 341.736933 184.003213 
L 342.006292 184.003213 
L 342.033256 185.503338 
L 342.114294 184.003213 
L 342.222098 184.003213 
L 342.32988 185.503338 
L 342.464472 184.003213 
L 342.787887 184.003213 
L 342.922837 185.503338 
L 342.949591 185.503338 
L 343.111301 187.003463 
L 343.326907 187.003463 
L 343.46181 188.503588 
L 343.542516 188.503588 
L 343.677465 190.003713 
L 343.919834 190.003713 
L 344.054625 191.503838 
L 344.216455 188.503588 
L 344.485965 188.503588 
L 344.620562 190.003713 
L 344.755504 190.003713 
L 344.890075 191.503838 
L 344.971083 191.503838 
L 345.105686 193.003963 
L 345.617887 193.003963 
L 345.75251 191.503838 
L 346.022246 191.503838 
L 346.183732 190.003713 
L 346.291536 190.003713 
L 346.426463 191.503838 
L 346.588034 191.503838 
L 346.722756 193.003963 
L 346.857695 191.503838 
L 347.181114 191.503838 
L 347.315682 193.003963 
L 347.45065 193.003963 
L 347.612203 196.004213 
L 347.881814 196.004213 
L 347.989628 197.504338 
L 348.124216 196.004213 
L 348.313103 196.004213 
L 348.447629 194.504088 
L 348.824943 194.504088 
L 349.040555 188.503588 
L 349.121442 188.503588 
L 349.202262 187.003463 
L 349.229389 188.503588 
L 349.633482 188.503588 
L 349.795188 191.503838 
L 350.010798 191.503838 
L 350.145612 193.003963 
L 350.30742 193.003963 
L 350.388116 191.503838 
L 350.415225 193.003963 
L 350.792532 193.003963 
L 350.927139 191.503838 
L 351.493301 191.503838 
L 351.628206 190.003713 
L 351.924516 190.003713 
L 352.059089 191.503838 
L 352.086216 191.503838 
L 352.220797 193.003963 
L 352.247894 193.003963 
L 352.382502 194.504088 
L 353.002579 194.504088 
L 353.137401 193.003963 
L 353.541548 193.003963 
L 353.676161 191.503838 
L 354.511799 191.503838 
L 354.646661 190.003713 
L 355.131525 190.003713 
L 355.293231 188.503588 
L 356.101766 188.503588 
L 356.2366 187.003463 
L 356.371277 187.003463 
L 356.532984 190.003713 
L 356.694976 190.003713 
L 356.829618 191.503838 
L 356.883575 191.503838 
L 357.045259 194.504088 
L 357.153074 194.504088 
L 357.287613 196.004213 
L 357.799786 196.004213 
L 357.961558 199.004463 
L 358.042249 199.004463 
L 358.150054 200.504588 
L 358.446675 200.504588 
L 358.581277 199.004463 
L 358.931809 199.004463 
L 359.066394 200.504588 
L 359.470857 200.504588 
L 359.605414 199.004463 
L 359.659318 199.004463 
L 359.794171 197.504338 
L 359.848087 197.504338 
L 360.009874 194.504088 
L 360.117685 194.504088 
L 360.279242 191.503838 
L 360.333264 191.503838 
L 360.494937 188.503588 
L 360.575657 188.503588 
L 360.737667 185.503338 
L 361.30341 185.503338 
L 361.438095 184.003213 
L 361.519131 184.003213 
L 361.653705 185.503338 
L 362.192727 185.503338 
L 362.354435 182.503088 
L 362.381521 182.503088 
L 362.59713 176.502588 
L 362.623949 176.502588 
L 362.812652 172.002213 
L 362.893459 172.002213 
L 363.028436 170.502088 
L 363.216873 170.502088 
L 363.351748 172.002213 
L 363.486385 170.502088 
L 363.59419 170.502088 
L 363.729169 169.001963 
L 364.025413 169.001963 
L 364.160255 170.502088 
L 364.618335 170.502088 
L 364.780342 167.501838 
L 364.833944 167.501838 
L 364.968796 166.001713 
L 365.022772 166.001713 
L 365.615697 138.999463 
L 365.669597 138.999463 
L 365.858088 134.499088 
L 365.939075 134.499088 
L 366.262538 122.498088 
L 366.289558 122.498088 
L 366.424253 116.497588 
L 366.47819 117.997713 
L 366.828658 131.498838 
L 366.909328 131.498838 
L 367.09784 126.998463 
L 367.12498 126.998463 
L 367.259548 125.498338 
L 367.313791 125.498338 
L 367.744664 116.497588 
L 367.879475 116.497588 
L 368.714904 158.501088 
L 368.930512 158.501088 
L 369.065394 160.001213 
L 369.09222 160.001213 
L 369.253929 163.001463 
L 369.307832 163.001463 
L 369.847149 175.002463 
L 369.873791 175.002463 
L 370.008557 176.502588 
L 370.224169 176.502588 
L 370.331971 178.002713 
L 370.439776 178.002713 
L 370.574671 179.502838 
L 370.601485 179.502838 
L 370.736378 178.002713 
L 370.924898 178.002713 
L 371.059842 179.502838 
L 371.571729 179.502838 
L 371.706653 181.002963 
L 371.733435 181.002963 
L 371.895339 182.503088 
L 372.083956 182.503088 
L 372.218552 184.003213 
L 372.434161 184.003213 
L 372.569076 185.503338 
L 373.970451 185.503338 
L 374.105129 187.003463 
L 374.132146 187.003463 
L 374.26683 188.503588 
L 374.50951 188.503588 
L 374.644146 190.003713 
L 374.725154 190.003713 
L 374.859757 191.503838 
L 375.048528 191.503838 
L 375.18317 193.003963 
L 375.72219 193.003963 
L 375.857115 194.504088 
L 376.072711 194.504088 
L 376.207316 196.004213 
L 376.234342 196.004213 
L 376.369021 197.504338 
L 376.423182 197.504338 
L 376.50385 196.004213 
L 376.530725 197.504338 
L 376.80024 197.504338 
L 376.908044 199.004463 
L 377.06975 197.504338 
L 377.231461 197.504338 
L 377.258535 199.004463 
L 377.339262 197.504338 
L 377.36642 197.504338 
L 377.500974 199.004463 
L 378.093894 199.004463 
L 378.228786 200.504588 
L 378.444451 200.504588 
L 378.579019 202.004713 
L 378.740724 202.004713 
L 378.875683 203.504838 
L 379.576349 203.504838 
L 379.738111 200.504588 
L 379.764873 200.504588 
L 379.926579 197.504338 
L 379.953636 197.504338 
L 380.088284 199.004463 
L 380.11542 199.004463 
L 380.277122 202.004713 
L 380.411701 202.004713 
L 380.573408 205.004963 
L 380.600517 205.004963 
L 380.76224 202.004713 
L 380.816177 202.004713 
L 381.03157 208.005213 
L 381.058528 206.505088 
L 381.139583 208.005213 
L 381.220237 208.005213 
L 381.355139 209.505338 
L 381.489751 209.505338 
L 381.624681 211.005463 
L 381.705363 209.505338 
L 381.732544 211.005463 
L 381.813167 211.005463 
L 381.974877 214.005713 
L 382.352192 214.005713 
L 382.48717 212.505588 
L 382.514223 212.505588 
L 382.729509 209.505338 
L 383.322442 209.505338 
L 383.484146 212.505588 
L 383.511239 212.505588 
L 383.645856 211.005463 
L 383.888582 211.005463 
L 384.023175 209.505338 
L 384.292688 214.005713 
L 384.670006 214.005713 
L 384.831711 217.005963 
L 384.885612 217.005963 
L 385.020527 215.505838 
L 385.155127 215.505838 
L 385.236124 217.005963 
L 385.262934 215.505838 
L 385.424642 215.505838 
L 385.586547 212.505588 
L 385.748052 212.505588 
L 385.882992 214.005713 
L 386.125371 214.005713 
L 386.287083 212.505588 
L 386.368141 212.505588 
L 386.50269 211.005463 
L 386.691518 215.505838 
L 386.718301 215.505838 
L 386.853148 217.005963 
L 386.961063 217.005963 
L 387.095921 218.506088 
L 387.392257 218.506088 
L 387.553906 221.506338 
L 387.581044 221.506338 
L 387.742446 223.006463 
L 388.065861 223.006463 
L 388.281471 226.006713 
L 388.362515 226.006713 
L 388.524174 229.006963 
L 388.901521 229.006963 
L 389.063239 226.006713 
L 389.144182 226.006713 
L 389.305616 223.006463 
L 389.548281 223.006463 
L 389.682937 226.006713 
L 389.763973 224.506588 
L 389.790741 226.006713 
L 389.92562 226.006713 
L 390.060251 227.506838 
L 390.114153 227.506838 
L 390.275861 226.006713 
L 390.410728 226.006713 
L 390.545372 227.506838 
L 390.760981 227.506838 
L 390.895939 226.006713 
L 391.1922 226.006713 
L 391.353906 229.006963 
L 391.515615 229.006963 
L 391.677625 227.506838 
L 391.866157 227.506838 
L 392.000737 226.006713 
L 392.620702 226.006713 
L 392.782484 223.006463 
L 392.971214 223.006463 
L 393.132684 226.006713 
L 393.267522 226.006713 
L 393.294393 227.506838 
L 393.375453 226.006713 
L 393.617806 226.006713 
L 393.806647 230.507088 
L 393.860539 230.507088 
L 393.995122 232.007213 
L 394.049027 232.007213 
L 394.237702 236.507588 
L 394.318536 236.507588 
L 394.37244 238.007713 
L 394.426343 236.507588 
L 394.453478 236.507588 
L 394.588051 238.007713 
L 394.696187 238.007713 
L 394.857569 236.507588 
L 394.965374 236.507588 
L 395.100326 238.007713 
L 395.127084 238.007713 
L 395.261875 236.507588 
L 395.558305 236.507588 
L 395.720295 239.507838 
L 395.935623 242.508088 
L 396.070543 242.508088 
L 396.205137 241.007963 
L 396.42075 241.007963 
L 396.609512 236.507588 
L 396.851966 236.507588 
L 396.932989 235.007463 
L 396.959774 236.507588 
L 397.013675 236.507588 
L 397.175384 239.507838 
L 397.229493 239.507838 
L 397.390997 241.007963 
L 397.444897 241.007963 
L 397.606606 244.008213 
L 397.633735 244.008213 
L 397.714413 245.508338 
L 397.876121 244.008213 
L 397.983925 244.008213 
L 398.226657 236.507588 
L 398.361243 236.507588 
L 398.522954 239.507838 
L 398.604007 239.507838 
L 398.738563 238.007713 
L 399.169783 238.007713 
L 399.30453 236.507588 
L 399.439298 238.007713 
L 399.601006 238.007713 
L 399.65491 236.507588 
L 399.70881 238.007713 
L 400.140033 238.007713 
L 400.24784 236.507588 
L 400.409547 238.007713 
L 400.43664 238.007713 
L 400.46345 239.507838 
L 400.544433 238.007713 
L 401.110282 238.007713 
L 401.245165 239.507838 
L 401.27199 239.507838 
L 401.433696 238.007713 
L 401.460724 238.007713 
L 401.595403 236.507588 
L 401.91882 236.507588 
L 402.053729 235.007463 
L 402.431064 235.007463 
L 402.700565 226.006713 
L 402.781265 226.006713 
L 402.942972 223.006463 
L 403.023902 223.006463 
L 403.158585 221.506338 
L 403.29346 221.506338 
L 403.455234 218.506088 
L 403.509087 218.506088 
L 403.589803 217.005963 
L 403.61694 218.506088 
L 403.75151 218.506088 
L 403.913218 215.505838 
L 404.021024 215.505838 
L 404.20989 211.005463 
L 404.236636 211.005463 
L 404.39834 208.005213 
L 404.479359 208.005213 
L 404.694935 202.004713 
L 404.72176 202.004713 
L 405.126191 188.503588 
L 405.611208 146.500088 
L 405.719118 146.500088 
L 405.854007 149.500338 
L 405.961487 144.999963 
L 406.069288 137.499338 
L 406.096374 138.999463 
L 406.230995 144.999963 
L 406.258117 143.499838 
L 406.338802 134.499088 
L 406.527591 110.497088 
L 406.581541 114.997463 
L 406.743197 120.997963 
L 407.44384 84.994963 
L 407.470743 86.495088 
L 407.497825 86.495088 
L 407.76734 77.494338 
L 407.821267 77.494338 
L 407.902244 78.994463 
L 407.928913 77.494338 
L 407.982935 77.494338 
L 408.25246 90.995463 
L 408.306378 89.495338 
L 408.521906 83.494838 
L 408.737611 96.995963 
L 408.845379 93.995713 
L 408.872194 95.495838 
L 409.249508 102.996463 
L 409.411433 93.995713 
L 409.465116 96.995963 
L 409.546129 96.995963 
L 409.65396 99.996213 
L 409.95024 78.994463 
L 410.004141 78.994463 
L 410.192953 86.495088 
L 410.219752 84.994963 
L 410.246857 84.994963 
L 410.462325 72.993963 
L 410.543163 72.993963 
L 410.624138 75.994213 
L 410.677988 74.494088 
L 410.731912 74.494088 
L 410.839827 77.494338 
L 410.866574 75.994213 
L 411.00142 65.493338 
L 411.05539 69.993713 
L 411.136085 72.993963 
L 411.163228 71.493838 
L 411.297789 68.493588 
L 411.513398 84.994963 
L 411.540516 83.494838 
L 411.675105 69.993713 
L 411.890713 56.492588 
L 412.187352 68.493588 
L 412.402947 60.992963 
L 412.537539 68.493588 
L 412.591438 65.493338 
L 412.645341 60.992963 
L 412.726362 63.993213 
L 412.834075 63.993213 
L 412.914851 59.492838 
L 412.969014 62.493088 
L 413.238264 80.494588 
L 413.723378 101.496338 
L 413.750536 101.496338 
L 413.912208 98.496088 
L 413.939275 98.496088 
L 414.154599 101.496338 
L 414.181703 101.496338 
L 414.397234 107.496838 
L 414.531914 107.496838 
L 414.720726 111.997213 
L 414.828493 110.497088 
L 414.90923 111.997213 
L 414.936307 110.497088 
L 414.963432 110.497088 
L 415.340445 122.498088 
L 415.556051 134.499088 
L 415.583137 134.499088 
L 415.771662 138.999463 
L 415.798726 138.999463 
L 415.933371 141.999713 
L 415.987443 141.999713 
L 416.310687 154.000713 
L 416.41849 154.000713 
L 416.634098 148.000213 
L 416.741905 148.000213 
L 417.496825 184.003213 
L 417.577495 184.003213 
L 417.712143 185.503338 
L 417.739249 185.503338 
L 417.901019 188.503588 
L 417.981658 188.503588 
L 418.089462 190.003713 
L 418.11659 188.503588 
L 418.197267 190.003713 
L 418.332234 191.503838 
L 418.43993 191.503838 
L 418.466779 193.003963 
L 418.54764 191.503838 
L 418.844095 191.503838 
L 418.979011 193.003963 
L 419.410205 193.003963 
L 419.571809 196.004213 
L 419.625831 196.004213 
L 419.760439 197.504338 
L 420.030122 197.504338 
L 420.164805 199.004463 
L 420.299464 197.504338 
L 420.43445 199.004463 
L 420.515072 199.004463 
L 420.676779 200.504588 
L 420.730682 200.504588 
L 420.89239 203.504838 
L 420.919504 203.504838 
L 421.054355 202.004713 
L 421.485312 202.004713 
L 421.62014 203.504838 
L 421.889755 203.504838 
L 422.024334 205.004963 
L 422.186043 205.004963 
L 422.320929 203.504838 
L 422.374884 203.504838 
L 422.536551 206.505088 
L 422.67116 206.505088 
L 422.806107 208.005213 
L 422.832865 208.005213 
L 422.967812 209.505338 
L 423.156279 209.505338 
L 423.291147 211.005463 
L 423.560761 211.005463 
L 423.749206 215.505838 
L 423.991909 215.505838 
L 424.15354 212.505588 
L 424.28823 212.505588 
L 424.423159 214.005713 
L 424.503837 214.005713 
L 424.638612 212.505588 
L 424.719449 212.505588 
L 424.854357 211.005463 
L 424.881153 211.005463 
L 424.908264 212.505588 
L 424.988962 211.005463 
L 425.420182 211.005463 
L 425.555118 209.505338 
L 425.581885 209.505338 
L 425.743593 211.005463 
L 426.06701 211.005463 
L 426.201872 212.505588 
L 426.498227 212.505588 
L 426.606032 211.005463 
L 427.360668 211.005463 
L 427.522376 214.005713 
L 427.549512 214.005713 
L 427.737986 218.506088 
L 427.765051 218.506088 
L 427.926786 221.506338 
L 427.980722 221.506338 
L 428.007499 220.006213 
L 428.088517 221.506338 
L 428.115305 221.506338 
L 428.196184 223.006463 
L 428.223106 221.506338 
L 428.330912 221.506338 
L 428.465784 223.006463 
L 428.708232 223.006463 
L 428.869935 226.006713 
L 428.977741 226.006713 
L 429.139451 229.006963 
L 429.19334 229.006963 
L 429.328286 230.507088 
L 429.813388 230.507088 
L 429.947989 232.007213 
L 429.975125 232.007213 
L 430.109694 230.507088 
L 430.379208 230.507088 
L 430.514151 232.007213 
L 430.540918 232.007213 
L 430.648723 233.507338 
L 430.810431 233.507338 
L 430.94531 235.007463 
L 431.079944 235.007463 
L 431.187956 236.507588 
L 431.511161 230.507088 
L 431.592142 230.507088 
L 431.753759 233.507338 
L 432.10409 233.507338 
L 432.212173 235.007463 
L 432.292853 235.007463 
L 432.42751 233.507338 
L 432.454614 233.507338 
L 432.508569 235.007463 
L 432.562441 233.507338 
L 432.616334 233.507338 
L 432.750914 232.007213 
L 433.020435 232.007213 
L 433.155389 233.507338 
L 433.317022 233.507338 
L 433.451659 235.007463 
L 433.505561 235.007463 
L 433.532682 236.507588 
L 433.613363 235.007463 
L 433.667267 235.007463 
L 433.802096 232.007213 
L 433.936778 233.507338 
L 434.044583 233.507338 
L 434.20629 236.507588 
L 434.287168 236.507588 
L 434.421902 238.007713 
L 434.502948 238.007713 
L 434.556794 239.507838 
L 434.610696 238.007713 
L 434.745567 238.007713 
L 434.907026 236.507588 
L 435.203692 236.507588 
L 435.36534 239.507838 
L 435.419323 239.507838 
L 435.553859 241.007963 
L 435.715567 241.007963 
L 435.850431 242.508088 
L 435.931177 242.508088 
L 436.066066 241.007963 
L 436.200691 241.007963 
L 436.362401 238.007713 
L 436.578012 238.007713 
L 436.712918 239.507838 
L 436.739717 239.507838 
L 436.901427 241.007963 
L 436.928511 241.007963 
L 437.090207 238.007713 
L 437.224846 239.507838 
L 437.279045 239.507838 
L 437.440453 241.007963 
L 437.871674 241.007963 
L 438.006627 239.507838 
L 438.060506 239.507838 
L 438.195087 238.007713 
L 438.222246 238.007713 
L 438.38384 241.007963 
L 438.437757 241.007963 
L 438.572407 242.508088 
L 438.707312 242.508088 
L 438.868913 239.507838 
L 439.030809 239.507838 
L 439.24637 245.508338 
L 439.273141 245.508338 
L 439.43485 248.508588 
L 439.704365 248.508588 
L 439.893079 253.008963 
L 440.001002 253.008963 
L 440.135586 254.509088 
L 440.297292 251.508838 
L 440.405097 251.508838 
L 440.539998 253.008963 
L 441.240685 253.008963 
L 441.375611 254.509088 
L 441.510234 254.509088 
L 441.644861 256.009213 
L 441.671916 256.009213 
L 441.806567 254.509088 
L 441.860744 254.509088 
L 442.022177 256.009213 
L 442.07608 256.009213 
L 442.211045 254.509088 
L 442.237788 254.509088 
L 442.399783 251.508838 
L 442.426488 251.508838 
L 442.561205 250.008713 
L 442.588322 250.008713 
L 442.722914 251.508838 
L 442.938523 251.508838 
L 443.073432 253.008963 
L 443.342944 253.008963 
L 443.477551 251.508838 
L 443.639259 254.509088 
L 444.043678 254.509088 
L 444.232187 259.009463 
L 444.474821 259.009463 
L 444.609505 257.509338 
L 444.71731 257.509338 
L 444.959895 262.009713 
L 445.121725 259.009463 
L 445.418334 259.009463 
L 445.633653 256.009213 
L 445.822484 256.009213 
L 445.903167 257.509338 
L 446.064875 256.009213 
L 446.172681 256.009213 
L 446.307555 254.509088 
L 446.334391 254.509088 
L 446.388295 253.008963 
L 446.442467 254.509088 
L 446.577012 254.509088 
L 446.738696 257.509338 
L 446.765614 257.509338 
L 446.900494 259.009463 
L 446.927321 259.009463 
L 447.142931 256.009213 
L 447.304639 259.009463 
L 447.466567 259.009463 
L 447.601232 257.509338 
L 447.951762 257.509338 
L 448.113179 256.009213 
L 448.409812 256.009213 
L 448.571493 253.008963 
L 448.598304 253.008963 
L 448.733223 251.508838 
L 448.921718 251.508838 
L 449.083425 254.509088 
L 449.164401 254.509088 
L 449.299034 256.009213 
L 449.595587 256.009213 
L 449.757425 253.008963 
L 450 253.008963 
L 450 253.008963 
" clip-path="url(#p11fcb05ad7)" style="fill: none; stroke: #1f77b4; stroke-width: 1.5; stroke-linecap: square"/>
   </g>
   <g id="patch_3">
    <path d="M 46.46 279.561175 
L 46.46 25.44 
" style="fill: none; stroke: #000000; stroke-width: 0.8; stroke-linejoin: miter; stroke-linecap: square"/>
   </g>
   <g id="patch_4">
    <path d="M 450 279.561175 
L 450 25.44 
" style="fill: none; stroke: #000000; stroke-width: 0.8; stroke-linejoin: miter; stroke-linecap: square"/>
   </g>
   <g id="patch_5">
    <path d="M 46.46 279.561175 
L 450 279.561175 
" style="fill: none; stroke: #000000; stroke-width: 0.8; stroke-linejoin: miter; stroke-linecap: square"/>
   </g>
   <g id="patch_6">
    <path d="M 46.46 25.44 
L 450 25.44 
" style="fill: none; stroke: #000000; stroke-width: 0.8; stroke-linejoin: miter; stroke-linecap: square"/>
   </g>
   <g id="text_18">
    <!-- November 2023 -->
    <g transform="translate(199.838125 19.44) scale(0.12 -0.12)">
     <defs>
      <path id="DejaVuSans-4e" d="M 628 4666 
L 1478 4666 
L 3547 763 
L 3547 4666 
L 4159 4666 
L 4159 0 
L 3309 0 
L 1241 3903 
L 1241 0 
L 628 0 
L 628 4666 
z
" transform="scale(0.015625)"/>
      <path id="DejaVuSans-6f" d="M 1959 3097 
Q 1497 3097 1228 2736 
Q 959 2375 959 1747 
Q 959 1119 1226 758 
Q 1494 397 1959 397 
Q 2419 397 2687 759 
Q 2956 1122 2956 1747 
Q 2956 2369 2687 2733 
Q 2419 3097 1959 3097 
z
M 1959 3584 
Q 2709 3584 3137 3096 
Q 3566 2609 3566 1747 
Q 3566 888 3137 398 
Q 2709 -91 1959 -91 
Q 1206 -91 779 398 
Q 353 888 353 1747 
Q 353 2609 779 3096 
Q 1206 3584 1959 3584 
z
" transform="scale(0.015625)"/>
      <path id="DejaVuSans-76" d="M 191 3500 
L 800 3500 
L 1894 563 
L 2988 3500 
L 3597 3500 
L 2284 0 
L 1503 0 
L 191 3500 
z
" transform="scale(0.015625)"/>
      <path id="DejaVuSans-62" d="M 3116 1747 
Q 3116 2381 2855 2742 
Q 2594 3103 2138 3103 
Q 1681 3103 1420 2742 
Q 1159 2381 1159 1747 
Q 1159 1113 1420 752 
Q 1681 391 2138 391 
Q 2594 391 2855 752 
Q 3116 1113 3116 1747 
z
M 1159 2969 
Q 1341 3281 1617 3432 
Q 1894 3584 2278 3584 
Q 2916 3584 3314 3078 
Q 3713 2572 3713 1747 
Q 3713 922 3314 415 
Q 2916 -91 2278 -91 
Q 1894 -91 1617 61 
Q 1341 213 1159 525 
L 1159 0 
L 581 0 
L 581 4863 
L 1159 4863 
L 1159 2969 
z
" transform="scale(0.015625)"/>
     </defs>
     <use xlink:href="#DejaVuSans-4e"/>
     <use xlink:href="#DejaVuSans-6f" x="74.804688"/>
     <use xlink:href="#DejaVuSans-76" x="135.986328"/>
     <use xlink:href="#DejaVuSans-65" x="195.166016"/>
     <use xlink:href="#DejaVuSans-6d" x="256.689453"/>
     <use xlink:href="#DejaVuSans-62" x="354.101562"/>
     <use xlink:href="#DejaVuSans-65" x="417.578125"/>
     <use xlink:href="#DejaVuSans-72" x="479.101562"/>
     <use xlink:href="#DejaVuSans-20" x="520.214844"/>
     <use xlink:href="#DejaVuSans-32" x="552.001953"/>
     <use xlink:href="#DejaVuSans-30" x="615.625"/>
     <use xlink:href="#DejaVuSans-32" x="679.248047"/>
     <use xlink:href="#DejaVuSans-33" x="742.871094"/>
    </g>
   </g>
  </g>
 </g>
 <defs>
  <clipPath id="p11fcb05ad7">
   <rect x="46.46" y="25.44" width="403.54" height="254.121175"/>
  </clipPath>
 </defs>
</svg>
