<?xml version="1.0" encoding="utf-8" standalone="no"?>
<!DOCTYPE svg PUBLIC "-//W3C//DTD SVG 1.1//EN"
  "http://www.w3.org/Graphics/SVG/1.1/DTD/svg11.dtd">
<svg xmlns:xlink="http://www.w3.org/1999/xlink" width="460.8pt" height="345.6pt" viewBox="0 0 460.8 345.6" xmlns="http://www.w3.org/2000/svg" version="1.1">
 <metadata>
  <rdf:RDF xmlns:dc="http://purl.org/dc/elements/1.1/" xmlns:cc="http://creativecommons.org/ns#" xmlns:rdf="http://www.w3.org/1999/02/22-rdf-syntax-ns#">
   <cc:Work>
    <dc:type rdf:resource="http://purl.org/dc/dcmitype/StillImage"/>
    <dc:date>2023-11-08T23:37:35.014549</dc:date>
    <dc:format>image/svg+xml</dc:format>
    <dc:creator>
     <cc:Agent>
      <dc:title>Matplotlib v3.6.3, https://matplotlib.org/</dc:title>
     </cc:Agent>
    </dc:creator>
   </cc:Work>
  </rdf:RDF>
 </metadata>
 <defs>
  <style type="text/css">*{stroke-linejoin: round; stroke-linecap: butt}</style>
 </defs>
 <g id="figure_1">
  <g id="patch_1">
   <path d="M 0 345.6 
L 460.8 345.6 
L 460.8 0 
L 0 0 
z
" style="fill: #ffffff"/>
  </g>
  <g id="axes_1">
   <g id="patch_2">
    <path d="M 46.46 279.561175 
L 450 279.561175 
L 450 25.44 
L 46.46 25.44 
z
" style="fill: #ffffff"/>
   </g>
   <g id="matplotlib.axis_1">
    <g id="xtick_1">
     <g id="line2d_1">
      <path d="M 96.984866 279.561175 
L 96.984866 25.44 
" clip-path="url(#pa907873a5a)" style="fill: none; stroke: #b0b0b0; stroke-width: 0.8; stroke-linecap: square"/>
     </g>
     <g id="line2d_2">
      <defs>
       <path id="mefdb893f9a" d="M 0 0 
L 0 3.5 
" style="stroke: #000000; stroke-width: 0.8"/>
      </defs>
      <g>
       <use xlink:href="#mefdb893f9a" x="96.984866" y="279.561175" style="stroke: #000000; stroke-width: 0.8"/>
      </g>
     </g>
     <g id="text_1">
      <!-- 2023-11-02 -->
      <g transform="translate(54.420353 333.028035) rotate(-45) scale(0.1 -0.1)">
       <defs>
        <path id="DejaVuSans-32" d="M 1228 531 
L 3431 531 
L 3431 0 
L 469 0 
L 469 531 
Q 828 903 1448 1529 
Q 2069 2156 2228 2338 
Q 2531 2678 2651 2914 
Q 2772 3150 2772 3378 
Q 2772 3750 2511 3984 
Q 2250 4219 1831 4219 
Q 1534 4219 1204 4116 
Q 875 4013 500 3803 
L 500 4441 
Q 881 4594 1212 4672 
Q 1544 4750 1819 4750 
Q 2544 4750 2975 4387 
Q 3406 4025 3406 3419 
Q 3406 3131 3298 2873 
Q 3191 2616 2906 2266 
Q 2828 2175 2409 1742 
Q 1991 1309 1228 531 
z
" transform="scale(0.015625)"/>
        <path id="DejaVuSans-30" d="M 2034 4250 
Q 1547 4250 1301 3770 
Q 1056 3291 1056 2328 
Q 1056 1369 1301 889 
Q 1547 409 2034 409 
Q 2525 409 2770 889 
Q 3016 1369 3016 2328 
Q 3016 3291 2770 3770 
Q 2525 4250 2034 4250 
z
M 2034 4750 
Q 2819 4750 3233 4129 
Q 3647 3509 3647 2328 
Q 3647 1150 3233 529 
Q 2819 -91 2034 -91 
Q 1250 -91 836 529 
Q 422 1150 422 2328 
Q 422 3509 836 4129 
Q 1250 4750 2034 4750 
z
" transform="scale(0.015625)"/>
        <path id="DejaVuSans-33" d="M 2597 2516 
Q 3050 2419 3304 2112 
Q 3559 1806 3559 1356 
Q 3559 666 3084 287 
Q 2609 -91 1734 -91 
Q 1441 -91 1130 -33 
Q 819 25 488 141 
L 488 750 
Q 750 597 1062 519 
Q 1375 441 1716 441 
Q 2309 441 2620 675 
Q 2931 909 2931 1356 
Q 2931 1769 2642 2001 
Q 2353 2234 1838 2234 
L 1294 2234 
L 1294 2753 
L 1863 2753 
Q 2328 2753 2575 2939 
Q 2822 3125 2822 3475 
Q 2822 3834 2567 4026 
Q 2313 4219 1838 4219 
Q 1578 4219 1281 4162 
Q 984 4106 628 3988 
L 628 4550 
Q 988 4650 1302 4700 
Q 1616 4750 1894 4750 
Q 2613 4750 3031 4423 
Q 3450 4097 3450 3541 
Q 3450 3153 3228 2886 
Q 3006 2619 2597 2516 
z
" transform="scale(0.015625)"/>
        <path id="DejaVuSans-2d" d="M 313 2009 
L 1997 2009 
L 1997 1497 
L 313 1497 
L 313 2009 
z
" transform="scale(0.015625)"/>
        <path id="DejaVuSans-31" d="M 794 531 
L 1825 531 
L 1825 4091 
L 703 3866 
L 703 4441 
L 1819 4666 
L 2450 4666 
L 2450 531 
L 3481 531 
L 3481 0 
L 794 0 
L 794 531 
z
" transform="scale(0.015625)"/>
       </defs>
       <use xlink:href="#DejaVuSans-32"/>
       <use xlink:href="#DejaVuSans-30" x="63.623047"/>
       <use xlink:href="#DejaVuSans-32" x="127.246094"/>
       <use xlink:href="#DejaVuSans-33" x="190.869141"/>
       <use xlink:href="#DejaVuSans-2d" x="254.492188"/>
       <use xlink:href="#DejaVuSans-31" x="290.576172"/>
       <use xlink:href="#DejaVuSans-31" x="354.199219"/>
       <use xlink:href="#DejaVuSans-2d" x="417.822266"/>
       <use xlink:href="#DejaVuSans-30" x="453.90625"/>
       <use xlink:href="#DejaVuSans-32" x="517.529297"/>
      </g>
     </g>
    </g>
    <g id="xtick_2">
     <g id="line2d_3">
      <path d="M 147.536627 279.561175 
L 147.536627 25.44 
" clip-path="url(#pa907873a5a)" style="fill: none; stroke: #b0b0b0; stroke-width: 0.8; stroke-linecap: square"/>
     </g>
     <g id="line2d_4">
      <g>
       <use xlink:href="#mefdb893f9a" x="147.536627" y="279.561175" style="stroke: #000000; stroke-width: 0.8"/>
      </g>
     </g>
     <g id="text_2">
      <!-- 2023-11-03 -->
      <g transform="translate(104.972113 333.028035) rotate(-45) scale(0.1 -0.1)">
       <use xlink:href="#DejaVuSans-32"/>
       <use xlink:href="#DejaVuSans-30" x="63.623047"/>
       <use xlink:href="#DejaVuSans-32" x="127.246094"/>
       <use xlink:href="#DejaVuSans-33" x="190.869141"/>
       <use xlink:href="#DejaVuSans-2d" x="254.492188"/>
       <use xlink:href="#DejaVuSans-31" x="290.576172"/>
       <use xlink:href="#DejaVuSans-31" x="354.199219"/>
       <use xlink:href="#DejaVuSans-2d" x="417.822266"/>
       <use xlink:href="#DejaVuSans-30" x="453.90625"/>
       <use xlink:href="#DejaVuSans-33" x="517.529297"/>
      </g>
     </g>
    </g>
    <g id="xtick_3">
     <g id="line2d_5">
      <path d="M 198.088387 279.561175 
L 198.088387 25.44 
" clip-path="url(#pa907873a5a)" style="fill: none; stroke: #b0b0b0; stroke-width: 0.8; stroke-linecap: square"/>
     </g>
     <g id="line2d_6">
      <g>
       <use xlink:href="#mefdb893f9a" x="198.088387" y="279.561175" style="stroke: #000000; stroke-width: 0.8"/>
      </g>
     </g>
     <g id="text_3">
      <!-- 2023-11-04 -->
      <g transform="translate(155.523873 333.028035) rotate(-45) scale(0.1 -0.1)">
       <defs>
        <path id="DejaVuSans-34" d="M 2419 4116 
L 825 1625 
L 2419 1625 
L 2419 4116 
z
M 2253 4666 
L 3047 4666 
L 3047 1625 
L 3713 1625 
L 3713 1100 
L 3047 1100 
L 3047 0 
L 2419 0 
L 2419 1100 
L 313 1100 
L 313 1709 
L 2253 4666 
z
" transform="scale(0.015625)"/>
       </defs>
       <use xlink:href="#DejaVuSans-32"/>
       <use xlink:href="#DejaVuSans-30" x="63.623047"/>
       <use xlink:href="#DejaVuSans-32" x="127.246094"/>
       <use xlink:href="#DejaVuSans-33" x="190.869141"/>
       <use xlink:href="#DejaVuSans-2d" x="254.492188"/>
       <use xlink:href="#DejaVuSans-31" x="290.576172"/>
       <use xlink:href="#DejaVuSans-31" x="354.199219"/>
       <use xlink:href="#DejaVuSans-2d" x="417.822266"/>
       <use xlink:href="#DejaVuSans-30" x="453.90625"/>
       <use xlink:href="#DejaVuSans-34" x="517.529297"/>
      </g>
     </g>
    </g>
    <g id="xtick_4">
     <g id="line2d_7">
      <path d="M 248.640147 279.561175 
L 248.640147 25.44 
" clip-path="url(#pa907873a5a)" style="fill: none; stroke: #b0b0b0; stroke-width: 0.8; stroke-linecap: square"/>
     </g>
     <g id="line2d_8">
      <g>
       <use xlink:href="#mefdb893f9a" x="248.640147" y="279.561175" style="stroke: #000000; stroke-width: 0.8"/>
      </g>
     </g>
     <g id="text_4">
      <!-- 2023-11-05 -->
      <g transform="translate(206.075633 333.028035) rotate(-45) scale(0.1 -0.1)">
       <defs>
        <path id="DejaVuSans-35" d="M 691 4666 
L 3169 4666 
L 3169 4134 
L 1269 4134 
L 1269 2991 
Q 1406 3038 1543 3061 
Q 1681 3084 1819 3084 
Q 2600 3084 3056 2656 
Q 3513 2228 3513 1497 
Q 3513 744 3044 326 
Q 2575 -91 1722 -91 
Q 1428 -91 1123 -41 
Q 819 9 494 109 
L 494 744 
Q 775 591 1075 516 
Q 1375 441 1709 441 
Q 2250 441 2565 725 
Q 2881 1009 2881 1497 
Q 2881 1984 2565 2268 
Q 2250 2553 1709 2553 
Q 1456 2553 1204 2497 
Q 953 2441 691 2322 
L 691 4666 
z
" transform="scale(0.015625)"/>
       </defs>
       <use xlink:href="#DejaVuSans-32"/>
       <use xlink:href="#DejaVuSans-30" x="63.623047"/>
       <use xlink:href="#DejaVuSans-32" x="127.246094"/>
       <use xlink:href="#DejaVuSans-33" x="190.869141"/>
       <use xlink:href="#DejaVuSans-2d" x="254.492188"/>
       <use xlink:href="#DejaVuSans-31" x="290.576172"/>
       <use xlink:href="#DejaVuSans-31" x="354.199219"/>
       <use xlink:href="#DejaVuSans-2d" x="417.822266"/>
       <use xlink:href="#DejaVuSans-30" x="453.90625"/>
       <use xlink:href="#DejaVuSans-35" x="517.529297"/>
      </g>
     </g>
    </g>
    <g id="xtick_5">
     <g id="line2d_9">
      <path d="M 299.191907 279.561175 
L 299.191907 25.44 
" clip-path="url(#pa907873a5a)" style="fill: none; stroke: #b0b0b0; stroke-width: 0.8; stroke-linecap: square"/>
     </g>
     <g id="line2d_10">
      <g>
       <use xlink:href="#mefdb893f9a" x="299.191907" y="279.561175" style="stroke: #000000; stroke-width: 0.8"/>
      </g>
     </g>
     <g id="text_5">
      <!-- 2023-11-06 -->
      <g transform="translate(256.627394 333.028035) rotate(-45) scale(0.1 -0.1)">
       <defs>
        <path id="DejaVuSans-36" d="M 2113 2584 
Q 1688 2584 1439 2293 
Q 1191 2003 1191 1497 
Q 1191 994 1439 701 
Q 1688 409 2113 409 
Q 2538 409 2786 701 
Q 3034 994 3034 1497 
Q 3034 2003 2786 2293 
Q 2538 2584 2113 2584 
z
M 3366 4563 
L 3366 3988 
Q 3128 4100 2886 4159 
Q 2644 4219 2406 4219 
Q 1781 4219 1451 3797 
Q 1122 3375 1075 2522 
Q 1259 2794 1537 2939 
Q 1816 3084 2150 3084 
Q 2853 3084 3261 2657 
Q 3669 2231 3669 1497 
Q 3669 778 3244 343 
Q 2819 -91 2113 -91 
Q 1303 -91 875 529 
Q 447 1150 447 2328 
Q 447 3434 972 4092 
Q 1497 4750 2381 4750 
Q 2619 4750 2861 4703 
Q 3103 4656 3366 4563 
z
" transform="scale(0.015625)"/>
       </defs>
       <use xlink:href="#DejaVuSans-32"/>
       <use xlink:href="#DejaVuSans-30" x="63.623047"/>
       <use xlink:href="#DejaVuSans-32" x="127.246094"/>
       <use xlink:href="#DejaVuSans-33" x="190.869141"/>
       <use xlink:href="#DejaVuSans-2d" x="254.492188"/>
       <use xlink:href="#DejaVuSans-31" x="290.576172"/>
       <use xlink:href="#DejaVuSans-31" x="354.199219"/>
       <use xlink:href="#DejaVuSans-2d" x="417.822266"/>
       <use xlink:href="#DejaVuSans-30" x="453.90625"/>
       <use xlink:href="#DejaVuSans-36" x="517.529297"/>
      </g>
     </g>
    </g>
    <g id="xtick_6">
     <g id="line2d_11">
      <path d="M 349.743667 279.561175 
L 349.743667 25.44 
" clip-path="url(#pa907873a5a)" style="fill: none; stroke: #b0b0b0; stroke-width: 0.8; stroke-linecap: square"/>
     </g>
     <g id="line2d_12">
      <g>
       <use xlink:href="#mefdb893f9a" x="349.743667" y="279.561175" style="stroke: #000000; stroke-width: 0.8"/>
      </g>
     </g>
     <g id="text_6">
      <!-- 2023-11-07 -->
      <g transform="translate(307.179154 333.028035) rotate(-45) scale(0.1 -0.1)">
       <defs>
        <path id="DejaVuSans-37" d="M 525 4666 
L 3525 4666 
L 3525 4397 
L 1831 0 
L 1172 0 
L 2766 4134 
L 525 4134 
L 525 4666 
z
" transform="scale(0.015625)"/>
       </defs>
       <use xlink:href="#DejaVuSans-32"/>
       <use xlink:href="#DejaVuSans-30" x="63.623047"/>
       <use xlink:href="#DejaVuSans-32" x="127.246094"/>
       <use xlink:href="#DejaVuSans-33" x="190.869141"/>
       <use xlink:href="#DejaVuSans-2d" x="254.492188"/>
       <use xlink:href="#DejaVuSans-31" x="290.576172"/>
       <use xlink:href="#DejaVuSans-31" x="354.199219"/>
       <use xlink:href="#DejaVuSans-2d" x="417.822266"/>
       <use xlink:href="#DejaVuSans-30" x="453.90625"/>
       <use xlink:href="#DejaVuSans-37" x="517.529297"/>
      </g>
     </g>
    </g>
    <g id="xtick_7">
     <g id="line2d_13">
      <path d="M 400.295428 279.561175 
L 400.295428 25.44 
" clip-path="url(#pa907873a5a)" style="fill: none; stroke: #b0b0b0; stroke-width: 0.8; stroke-linecap: square"/>
     </g>
     <g id="line2d_14">
      <g>
       <use xlink:href="#mefdb893f9a" x="400.295428" y="279.561175" style="stroke: #000000; stroke-width: 0.8"/>
      </g>
     </g>
     <g id="text_7">
      <!-- 2023-11-08 -->
      <g transform="translate(357.730914 333.028035) rotate(-45) scale(0.1 -0.1)">
       <defs>
        <path id="DejaVuSans-38" d="M 2034 2216 
Q 1584 2216 1326 1975 
Q 1069 1734 1069 1313 
Q 1069 891 1326 650 
Q 1584 409 2034 409 
Q 2484 409 2743 651 
Q 3003 894 3003 1313 
Q 3003 1734 2745 1975 
Q 2488 2216 2034 2216 
z
M 1403 2484 
Q 997 2584 770 2862 
Q 544 3141 544 3541 
Q 544 4100 942 4425 
Q 1341 4750 2034 4750 
Q 2731 4750 3128 4425 
Q 3525 4100 3525 3541 
Q 3525 3141 3298 2862 
Q 3072 2584 2669 2484 
Q 3125 2378 3379 2068 
Q 3634 1759 3634 1313 
Q 3634 634 3220 271 
Q 2806 -91 2034 -91 
Q 1263 -91 848 271 
Q 434 634 434 1313 
Q 434 1759 690 2068 
Q 947 2378 1403 2484 
z
M 1172 3481 
Q 1172 3119 1398 2916 
Q 1625 2713 2034 2713 
Q 2441 2713 2670 2916 
Q 2900 3119 2900 3481 
Q 2900 3844 2670 4047 
Q 2441 4250 2034 4250 
Q 1625 4250 1398 4047 
Q 1172 3844 1172 3481 
z
" transform="scale(0.015625)"/>
       </defs>
       <use xlink:href="#DejaVuSans-32"/>
       <use xlink:href="#DejaVuSans-30" x="63.623047"/>
       <use xlink:href="#DejaVuSans-32" x="127.246094"/>
       <use xlink:href="#DejaVuSans-33" x="190.869141"/>
       <use xlink:href="#DejaVuSans-2d" x="254.492188"/>
       <use xlink:href="#DejaVuSans-31" x="290.576172"/>
       <use xlink:href="#DejaVuSans-31" x="354.199219"/>
       <use xlink:href="#DejaVuSans-2d" x="417.822266"/>
       <use xlink:href="#DejaVuSans-30" x="453.90625"/>
       <use xlink:href="#DejaVuSans-38" x="517.529297"/>
      </g>
     </g>
    </g>
   </g>
   <g id="matplotlib.axis_2">
    <g id="ytick_1">
     <g id="line2d_15">
      <path d="M 46.46 253.008963 
L 450 253.008963 
" clip-path="url(#pa907873a5a)" style="fill: none; stroke: #b0b0b0; stroke-width: 0.8; stroke-linecap: square"/>
     </g>
     <g id="line2d_16">
      <defs>
       <path id="m4d3ecedfde" d="M 0 0 
L -3.5 0 
" style="stroke: #000000; stroke-width: 0.8"/>
      </defs>
      <g>
       <use xlink:href="#m4d3ecedfde" x="46.46" y="253.008963" style="stroke: #000000; stroke-width: 0.8"/>
      </g>
     </g>
     <g id="text_8">
      <!-- 0 -->
      <g transform="translate(33.0975 256.808182) scale(0.1 -0.1)">
       <use xlink:href="#DejaVuSans-30"/>
      </g>
     </g>
    </g>
    <g id="ytick_2">
     <g id="line2d_17">
      <path d="M 46.46 223.006463 
L 450 223.006463 
" clip-path="url(#pa907873a5a)" style="fill: none; stroke: #b0b0b0; stroke-width: 0.8; stroke-linecap: square"/>
     </g>
     <g id="line2d_18">
      <g>
       <use xlink:href="#m4d3ecedfde" x="46.46" y="223.006463" style="stroke: #000000; stroke-width: 0.8"/>
      </g>
     </g>
     <g id="text_9">
      <!-- 2 -->
      <g transform="translate(33.0975 226.805682) scale(0.1 -0.1)">
       <use xlink:href="#DejaVuSans-32"/>
      </g>
     </g>
    </g>
    <g id="ytick_3">
     <g id="line2d_19">
      <path d="M 46.46 193.003963 
L 450 193.003963 
" clip-path="url(#pa907873a5a)" style="fill: none; stroke: #b0b0b0; stroke-width: 0.8; stroke-linecap: square"/>
     </g>
     <g id="line2d_20">
      <g>
       <use xlink:href="#m4d3ecedfde" x="46.46" y="193.003963" style="stroke: #000000; stroke-width: 0.8"/>
      </g>
     </g>
     <g id="text_10">
      <!-- 4 -->
      <g transform="translate(33.0975 196.803182) scale(0.1 -0.1)">
       <use xlink:href="#DejaVuSans-34"/>
      </g>
     </g>
    </g>
    <g id="ytick_4">
     <g id="line2d_21">
      <path d="M 46.46 163.001463 
L 450 163.001463 
" clip-path="url(#pa907873a5a)" style="fill: none; stroke: #b0b0b0; stroke-width: 0.8; stroke-linecap: square"/>
     </g>
     <g id="line2d_22">
      <g>
       <use xlink:href="#m4d3ecedfde" x="46.46" y="163.001463" style="stroke: #000000; stroke-width: 0.8"/>
      </g>
     </g>
     <g id="text_11">
      <!-- 6 -->
      <g transform="translate(33.0975 166.800681) scale(0.1 -0.1)">
       <use xlink:href="#DejaVuSans-36"/>
      </g>
     </g>
    </g>
    <g id="ytick_5">
     <g id="line2d_23">
      <path d="M 46.46 132.998963 
L 450 132.998963 
" clip-path="url(#pa907873a5a)" style="fill: none; stroke: #b0b0b0; stroke-width: 0.8; stroke-linecap: square"/>
     </g>
     <g id="line2d_24">
      <g>
       <use xlink:href="#m4d3ecedfde" x="46.46" y="132.998963" style="stroke: #000000; stroke-width: 0.8"/>
      </g>
     </g>
     <g id="text_12">
      <!-- 8 -->
      <g transform="translate(33.0975 136.798181) scale(0.1 -0.1)">
       <use xlink:href="#DejaVuSans-38"/>
      </g>
     </g>
    </g>
    <g id="ytick_6">
     <g id="line2d_25">
      <path d="M 46.46 102.996463 
L 450 102.996463 
" clip-path="url(#pa907873a5a)" style="fill: none; stroke: #b0b0b0; stroke-width: 0.8; stroke-linecap: square"/>
     </g>
     <g id="line2d_26">
      <g>
       <use xlink:href="#m4d3ecedfde" x="46.46" y="102.996463" style="stroke: #000000; stroke-width: 0.8"/>
      </g>
     </g>
     <g id="text_13">
      <!-- 10 -->
      <g transform="translate(26.735 106.795681) scale(0.1 -0.1)">
       <use xlink:href="#DejaVuSans-31"/>
       <use xlink:href="#DejaVuSans-30" x="63.623047"/>
      </g>
     </g>
    </g>
    <g id="ytick_7">
     <g id="line2d_27">
      <path d="M 46.46 72.993963 
L 450 72.993963 
" clip-path="url(#pa907873a5a)" style="fill: none; stroke: #b0b0b0; stroke-width: 0.8; stroke-linecap: square"/>
     </g>
     <g id="line2d_28">
      <g>
       <use xlink:href="#m4d3ecedfde" x="46.46" y="72.993963" style="stroke: #000000; stroke-width: 0.8"/>
      </g>
     </g>
     <g id="text_14">
      <!-- 12 -->
      <g transform="translate(26.735 76.793181) scale(0.1 -0.1)">
       <use xlink:href="#DejaVuSans-31"/>
       <use xlink:href="#DejaVuSans-32" x="63.623047"/>
      </g>
     </g>
    </g>
    <g id="ytick_8">
     <g id="line2d_29">
      <path d="M 46.46 42.991463 
L 450 42.991463 
" clip-path="url(#pa907873a5a)" style="fill: none; stroke: #b0b0b0; stroke-width: 0.8; stroke-linecap: square"/>
     </g>
     <g id="line2d_30">
      <g>
       <use xlink:href="#m4d3ecedfde" x="46.46" y="42.991463" style="stroke: #000000; stroke-width: 0.8"/>
      </g>
     </g>
     <g id="text_15">
      <!-- 14 -->
      <g transform="translate(26.735 46.790681) scale(0.1 -0.1)">
       <use xlink:href="#DejaVuSans-31"/>
       <use xlink:href="#DejaVuSans-34" x="63.623047"/>
      </g>
     </g>
    </g>
    <g id="text_16">
     <!-- Temperature [°C] -->
     <g transform="translate(20.655313 199.072463) rotate(-90) scale(0.1 -0.1)">
      <defs>
       <path id="DejaVuSans-54" d="M -19 4666 
L 3928 4666 
L 3928 4134 
L 2272 4134 
L 2272 0 
L 1638 0 
L 1638 4134 
L -19 4134 
L -19 4666 
z
" transform="scale(0.015625)"/>
       <path id="DejaVuSans-65" d="M 3597 1894 
L 3597 1613 
L 953 1613 
Q 991 1019 1311 708 
Q 1631 397 2203 397 
Q 2534 397 2845 478 
Q 3156 559 3463 722 
L 3463 178 
Q 3153 47 2828 -22 
Q 2503 -91 2169 -91 
Q 1331 -91 842 396 
Q 353 884 353 1716 
Q 353 2575 817 3079 
Q 1281 3584 2069 3584 
Q 2775 3584 3186 3129 
Q 3597 2675 3597 1894 
z
M 3022 2063 
Q 3016 2534 2758 2815 
Q 2500 3097 2075 3097 
Q 1594 3097 1305 2825 
Q 1016 2553 972 2059 
L 3022 2063 
z
" transform="scale(0.015625)"/>
       <path id="DejaVuSans-6d" d="M 3328 2828 
Q 3544 3216 3844 3400 
Q 4144 3584 4550 3584 
Q 5097 3584 5394 3201 
Q 5691 2819 5691 2113 
L 5691 0 
L 5113 0 
L 5113 2094 
Q 5113 2597 4934 2840 
Q 4756 3084 4391 3084 
Q 3944 3084 3684 2787 
Q 3425 2491 3425 1978 
L 3425 0 
L 2847 0 
L 2847 2094 
Q 2847 2600 2669 2842 
Q 2491 3084 2119 3084 
Q 1678 3084 1418 2786 
Q 1159 2488 1159 1978 
L 1159 0 
L 581 0 
L 581 3500 
L 1159 3500 
L 1159 2956 
Q 1356 3278 1631 3431 
Q 1906 3584 2284 3584 
Q 2666 3584 2933 3390 
Q 3200 3197 3328 2828 
z
" transform="scale(0.015625)"/>
       <path id="DejaVuSans-70" d="M 1159 525 
L 1159 -1331 
L 581 -1331 
L 581 3500 
L 1159 3500 
L 1159 2969 
Q 1341 3281 1617 3432 
Q 1894 3584 2278 3584 
Q 2916 3584 3314 3078 
Q 3713 2572 3713 1747 
Q 3713 922 3314 415 
Q 2916 -91 2278 -91 
Q 1894 -91 1617 61 
Q 1341 213 1159 525 
z
M 3116 1747 
Q 3116 2381 2855 2742 
Q 2594 3103 2138 3103 
Q 1681 3103 1420 2742 
Q 1159 2381 1159 1747 
Q 1159 1113 1420 752 
Q 1681 391 2138 391 
Q 2594 391 2855 752 
Q 3116 1113 3116 1747 
z
" transform="scale(0.015625)"/>
       <path id="DejaVuSans-72" d="M 2631 2963 
Q 2534 3019 2420 3045 
Q 2306 3072 2169 3072 
Q 1681 3072 1420 2755 
Q 1159 2438 1159 1844 
L 1159 0 
L 581 0 
L 581 3500 
L 1159 3500 
L 1159 2956 
Q 1341 3275 1631 3429 
Q 1922 3584 2338 3584 
Q 2397 3584 2469 3576 
Q 2541 3569 2628 3553 
L 2631 2963 
z
" transform="scale(0.015625)"/>
       <path id="DejaVuSans-61" d="M 2194 1759 
Q 1497 1759 1228 1600 
Q 959 1441 959 1056 
Q 959 750 1161 570 
Q 1363 391 1709 391 
Q 2188 391 2477 730 
Q 2766 1069 2766 1631 
L 2766 1759 
L 2194 1759 
z
M 3341 1997 
L 3341 0 
L 2766 0 
L 2766 531 
Q 2569 213 2275 61 
Q 1981 -91 1556 -91 
Q 1019 -91 701 211 
Q 384 513 384 1019 
Q 384 1609 779 1909 
Q 1175 2209 1959 2209 
L 2766 2209 
L 2766 2266 
Q 2766 2663 2505 2880 
Q 2244 3097 1772 3097 
Q 1472 3097 1187 3025 
Q 903 2953 641 2809 
L 641 3341 
Q 956 3463 1253 3523 
Q 1550 3584 1831 3584 
Q 2591 3584 2966 3190 
Q 3341 2797 3341 1997 
z
" transform="scale(0.015625)"/>
       <path id="DejaVuSans-74" d="M 1172 4494 
L 1172 3500 
L 2356 3500 
L 2356 3053 
L 1172 3053 
L 1172 1153 
Q 1172 725 1289 603 
Q 1406 481 1766 481 
L 2356 481 
L 2356 0 
L 1766 0 
Q 1100 0 847 248 
Q 594 497 594 1153 
L 594 3053 
L 172 3053 
L 172 3500 
L 594 3500 
L 594 4494 
L 1172 4494 
z
" transform="scale(0.015625)"/>
       <path id="DejaVuSans-75" d="M 544 1381 
L 544 3500 
L 1119 3500 
L 1119 1403 
Q 1119 906 1312 657 
Q 1506 409 1894 409 
Q 2359 409 2629 706 
Q 2900 1003 2900 1516 
L 2900 3500 
L 3475 3500 
L 3475 0 
L 2900 0 
L 2900 538 
Q 2691 219 2414 64 
Q 2138 -91 1772 -91 
Q 1169 -91 856 284 
Q 544 659 544 1381 
z
M 1991 3584 
L 1991 3584 
z
" transform="scale(0.015625)"/>
       <path id="DejaVuSans-20" transform="scale(0.015625)"/>
       <path id="DejaVuSans-5b" d="M 550 4863 
L 1875 4863 
L 1875 4416 
L 1125 4416 
L 1125 -397 
L 1875 -397 
L 1875 -844 
L 550 -844 
L 550 4863 
z
" transform="scale(0.015625)"/>
       <path id="DejaVuSans-c2" d="M 2188 4044 
L 1331 1722 
L 3047 1722 
L 2188 4044 
z
M 1831 4666 
L 2547 4666 
L 4325 0 
L 3669 0 
L 3244 1197 
L 1141 1197 
L 716 0 
L 50 0 
L 1831 4666 
z
M 1894 5941 
L 2481 5941 
L 3141 5110 
L 2706 5110 
L 2188 5666 
L 1669 5110 
L 1234 5110 
L 1894 5941 
z
" transform="scale(0.015625)"/>
       <path id="DejaVuSans-b0" d="M 1600 4347 
Q 1350 4347 1178 4173 
Q 1006 4000 1006 3750 
Q 1006 3503 1178 3333 
Q 1350 3163 1600 3163 
Q 1850 3163 2022 3333 
Q 2194 3503 2194 3750 
Q 2194 3997 2020 4172 
Q 1847 4347 1600 4347 
z
M 1600 4750 
Q 1800 4750 1984 4673 
Q 2169 4597 2303 4453 
Q 2447 4313 2519 4134 
Q 2591 3956 2591 3750 
Q 2591 3338 2302 3052 
Q 2013 2766 1594 2766 
Q 1172 2766 890 3047 
Q 609 3328 609 3750 
Q 609 4169 896 4459 
Q 1184 4750 1600 4750 
z
" transform="scale(0.015625)"/>
       <path id="DejaVuSans-43" d="M 4122 4306 
L 4122 3641 
Q 3803 3938 3442 4084 
Q 3081 4231 2675 4231 
Q 1875 4231 1450 3742 
Q 1025 3253 1025 2328 
Q 1025 1406 1450 917 
Q 1875 428 2675 428 
Q 3081 428 3442 575 
Q 3803 722 4122 1019 
L 4122 359 
Q 3791 134 3420 21 
Q 3050 -91 2638 -91 
Q 1578 -91 968 557 
Q 359 1206 359 2328 
Q 359 3453 968 4101 
Q 1578 4750 2638 4750 
Q 3056 4750 3426 4639 
Q 3797 4528 4122 4306 
z
" transform="scale(0.015625)"/>
       <path id="DejaVuSans-5d" d="M 1947 4863 
L 1947 -844 
L 622 -844 
L 622 -397 
L 1369 -397 
L 1369 4416 
L 622 4416 
L 622 4863 
L 1947 4863 
z
" transform="scale(0.015625)"/>
      </defs>
      <use xlink:href="#DejaVuSans-54"/>
      <use xlink:href="#DejaVuSans-65" x="44.083984"/>
      <use xlink:href="#DejaVuSans-6d" x="105.607422"/>
      <use xlink:href="#DejaVuSans-70" x="203.019531"/>
      <use xlink:href="#DejaVuSans-65" x="266.496094"/>
      <use xlink:href="#DejaVuSans-72" x="328.019531"/>
      <use xlink:href="#DejaVuSans-61" x="369.132812"/>
      <use xlink:href="#DejaVuSans-74" x="430.412109"/>
      <use xlink:href="#DejaVuSans-75" x="469.621094"/>
      <use xlink:href="#DejaVuSans-72" x="533"/>
      <use xlink:href="#DejaVuSans-65" x="571.863281"/>
      <use xlink:href="#DejaVuSans-20" x="633.386719"/>
      <use xlink:href="#DejaVuSans-5b" x="665.173828"/>
      <use xlink:href="#DejaVuSans-c2" x="704.1875"/>
      <use xlink:href="#DejaVuSans-b0" x="772.595703"/>
      <use xlink:href="#DejaVuSans-43" x="822.595703"/>
      <use xlink:href="#DejaVuSans-5d" x="892.419922"/>
     </g>
    </g>
   </g>
   <g id="line2d_31">
    <path d="M 46.46 188.503588 
L 46.487969 188.503588 
L 46.628539 191.503838 
L 46.824978 191.503838 
L 46.937316 193.003963 
L 47.105817 193.003963 
L 47.190259 194.504088 
L 47.302603 193.003963 
L 47.667499 193.003963 
L 47.836001 188.503588 
L 47.892172 188.503588 
L 47.948679 187.003463 
L 48.088845 188.503588 
L 48.229181 188.503588 
L 48.341516 190.003713 
L 48.59442 190.003713 
L 48.650558 191.503838 
L 48.678523 190.003713 
L 48.903197 190.003713 
L 49.015859 191.503838 
L 49.324584 191.503838 
L 49.436983 190.003713 
L 49.661597 190.003713 
L 49.773953 191.503838 
L 49.858056 191.503838 
L 49.970393 193.003963 
L 50.167119 193.003963 
L 50.251232 194.504088 
L 50.279472 193.003963 
L 50.335624 194.504088 
L 50.448014 194.504088 
L 50.532074 196.004213 
L 50.644411 194.504088 
L 50.672581 194.504088 
L 50.784989 193.003963 
L 50.925252 196.004213 
L 51.093755 196.004213 
L 51.234327 194.504088 
L 51.262263 194.504088 
L 51.290522 193.003963 
L 51.346641 194.504088 
L 51.599269 194.504088 
L 51.711606 196.004213 
L 51.992448 196.004213 
L 52.104784 194.504088 
L 52.638536 194.504088 
L 52.778807 197.504338 
L 52.807023 197.504338 
L 52.919367 199.004463 
L 53.396656 199.004463 
L 53.50899 197.504338 
L 53.677493 197.504338 
L 53.817951 200.504588 
L 53.874243 200.504588 
L 53.986583 202.004713 
L 54.098912 202.004713 
L 54.239176 199.004463 
L 54.604448 199.004463 
L 54.716746 197.504338 
L 54.997574 197.504338 
L 55.137863 200.504588 
L 55.250204 200.504588 
L 55.306371 199.004463 
L 55.446922 200.504588 
L 55.474873 200.504588 
L 55.559305 202.004713 
L 55.699548 199.004463 
L 55.755717 199.004463 
L 55.868399 202.004713 
L 55.92422 202.004713 
L 56.064782 205.004963 
L 56.092726 205.004963 
L 56.20506 206.505088 
L 56.373561 206.505088 
L 56.626449 202.004713 
L 56.682638 202.004713 
L 56.82291 205.004963 
L 57.075823 205.004963 
L 57.272543 199.004463 
L 57.356656 199.004463 
L 57.440761 197.504338 
L 57.496921 197.504338 
L 57.63748 194.504088 
L 57.721599 194.504088 
L 57.833937 196.004213 
L 57.890104 196.004213 
L 58.03053 199.004463 
L 58.283282 199.004463 
L 58.45179 203.504838 
L 58.564123 203.504838 
L 58.732631 199.004463 
L 58.788794 199.004463 
L 58.901132 197.504338 
L 59.013468 197.504338 
L 59.154043 199.004463 
L 59.266345 199.004463 
L 59.294308 200.504588 
L 59.350476 199.004463 
L 59.378725 199.004463 
L 59.518983 196.004213 
L 59.547224 196.004213 
L 59.659507 197.504338 
L 59.687654 197.504338 
L 59.799825 199.004463 
L 59.912161 199.004463 
L 60.052759 202.004713 
L 60.080663 202.004713 
L 60.249168 206.505088 
L 60.361503 206.505088 
L 60.47384 208.005213 
L 60.502088 208.005213 
L 60.64268 211.005463 
L 60.670432 211.005463 
L 60.782926 212.505588 
L 61.007598 212.505588 
L 61.148188 215.505838 
L 61.316362 215.505838 
L 61.4287 214.005713 
L 61.456952 214.005713 
L 61.569286 215.505838 
L 61.653374 215.505838 
L 61.878045 211.005463 
L 61.962488 212.505588 
L 62.074808 209.505338 
L 62.299409 209.505338 
L 62.411825 211.005463 
L 62.580318 211.005463 
L 62.692656 209.505338 
L 62.80487 209.505338 
L 62.973499 205.004963 
L 63.029674 205.004963 
L 63.226086 199.004463 
L 63.366624 199.004463 
L 63.506924 194.504088 
L 63.675428 199.004463 
L 63.788115 199.004463 
L 63.95627 185.503338 
L 64.349734 138.999463 
L 64.827054 116.497588 
L 64.939308 119.497838 
L 65.079628 116.497588 
L 65.191966 117.997713 
L 65.220235 117.997713 
L 65.416625 105.996713 
L 65.444771 105.996713 
L 65.641305 99.996213 
L 65.669525 99.996213 
L 65.865978 93.995713 
L 65.950234 93.995713 
L 66.03448 96.995963 
L 66.062695 95.495838 
L 66.259152 89.495338 
L 66.343597 89.495338 
L 66.624385 71.493838 
L 66.652328 72.993963 
L 66.905244 105.996713 
L 66.989567 105.996713 
L 67.101669 108.996963 
L 67.579209 81.994713 
L 67.691634 83.494838 
L 67.775683 83.494838 
L 68.281188 104.496588 
L 68.421807 92.495588 
L 68.618197 81.994713 
L 68.646373 81.994713 
L 68.730535 80.494588 
L 68.84287 81.994713 
L 68.899038 81.994713 
L 69.376662 104.496588 
L 69.404546 102.996463 
L 69.460713 102.996463 
L 69.516879 101.496338 
L 69.545147 102.996463 
L 69.629208 102.996463 
L 69.938307 114.997463 
L 70.050648 113.497338 
L 70.078557 113.497338 
L 70.387646 104.496588 
L 70.556156 96.995963 
L 70.640482 96.995963 
L 70.837025 99.996213 
L 71.089578 90.995463 
L 71.117888 90.995463 
L 71.370415 74.494088 
L 71.51095 71.493838 
L 71.538923 71.493838 
L 71.735497 78.994463 
L 71.875926 75.994213 
L 72.072735 86.495088 
L 72.269096 92.495588 
L 72.297252 92.495588 
L 72.409706 90.995463 
L 72.493765 90.995463 
L 72.606103 92.495588 
L 72.830779 84.994963 
L 72.859009 84.994963 
L 72.915214 83.494838 
L 72.943112 84.994963 
L 73.196081 93.995713 
L 73.280401 93.995713 
L 73.39245 95.495838 
L 73.476894 93.995713 
L 73.504787 95.495838 
L 73.560955 93.995713 
L 73.673289 90.995463 
L 73.785625 90.995463 
L 73.897959 95.495838 
L 73.926226 93.995713 
L 74.010295 93.995713 
L 74.178797 89.495338 
L 74.347547 93.995713 
L 74.459638 93.995713 
L 74.628139 89.495338 
L 74.656298 89.495338 
L 74.853184 83.494838 
L 75.161893 77.494338 
L 75.358324 77.494338 
L 75.414752 75.994213 
L 75.442617 77.494338 
L 75.526829 77.494338 
L 75.89215 90.995463 
L 76.004372 90.995463 
L 76.144669 93.995713 
L 76.172963 93.995713 
L 76.285292 95.495838 
L 76.397643 95.495838 
L 76.509837 93.995713 
L 76.566127 93.995713 
L 76.678476 92.495588 
L 76.734662 92.495588 
L 76.846997 90.995463 
L 76.931018 90.995463 
L 77.127828 93.995713 
L 77.183972 93.995713 
L 77.324411 96.995963 
L 77.464802 96.995963 
L 77.942039 116.497588 
L 78.138811 116.497588 
L 78.251167 114.997463 
L 78.447549 114.997463 
L 78.644274 120.997963 
L 78.672222 120.997963 
L 78.784558 122.498088 
L 78.812837 122.498088 
L 78.925117 123.998213 
L 79.177736 123.998213 
L 79.290071 125.498338 
L 79.318403 125.498338 
L 79.458573 128.498588 
L 79.514743 128.498588 
L 79.683248 132.998963 
L 79.739416 132.998963 
L 79.907917 137.499338 
L 79.936236 137.499338 
L 80.104747 141.999713 
L 80.132855 141.999713 
L 80.244927 143.499838 
L 80.273227 143.499838 
L 80.38553 144.999963 
L 80.413431 144.999963 
L 80.525768 146.500088 
L 80.581934 146.500088 
L 80.694272 148.000213 
L 80.778713 148.000213 
L 80.891084 149.500338 
L 80.947111 149.500338 
L 81.059456 151.000463 
L 81.312124 151.000463 
L 81.424462 152.500588 
L 81.705613 152.500588 
L 81.84592 154.000713 
L 82.379321 154.000713 
L 82.491658 155.500838 
L 82.772856 155.500838 
L 82.884829 154.000713 
L 82.940998 154.000713 
L 83.053333 152.500588 
L 83.137813 152.500588 
L 83.250134 154.000713 
L 83.474818 154.000713 
L 83.587134 155.500838 
L 83.699491 154.000713 
L 83.86779 154.000713 
L 83.895854 152.500588 
L 83.952022 154.000713 
L 84.23286 154.000713 
L 84.345502 152.500588 
L 84.56987 152.500588 
L 84.682204 154.000713 
L 84.766715 154.000713 
L 84.850708 155.500838 
L 85.103638 155.500838 
L 85.215989 154.000713 
L 85.300051 154.000713 
L 85.412661 155.500838 
L 85.637059 155.500838 
L 85.749396 154.000713 
L 86.114738 154.000713 
L 86.227083 155.500838 
L 86.311073 155.500838 
L 86.42341 154.000713 
L 86.591914 154.000713 
L 86.704246 155.500838 
L 86.928922 155.500838 
L 87.041257 157.000963 
L 87.378264 157.000963 
L 87.490598 158.501088 
L 88.670127 158.501088 
L 88.782459 160.001213 
L 89.428614 160.001213 
L 89.540947 161.501338 
L 90.018153 161.501338 
L 90.130784 160.001213 
L 90.692452 160.001213 
L 90.804502 161.501338 
L 91.001269 161.501338 
L 91.113605 160.001213 
L 91.703187 160.001213 
L 91.815523 161.501338 
L 91.927859 160.001213 
L 93.023349 160.001213 
L 93.135727 161.501338 
L 93.388221 161.501338 
L 93.50056 160.001213 
L 93.949903 160.001213 
L 94.06224 161.501338 
L 94.146697 161.501338 
L 94.259034 160.001213 
L 94.848592 160.001213 
L 94.960927 161.501338 
L 95.607027 161.501338 
L 95.719335 163.001463 
L 97.909902 163.001463 
L 98.022285 164.501588 
L 98.050455 164.501588 
L 98.190793 163.001463 
L 98.246933 163.001463 
L 98.359261 164.501588 
L 98.471598 163.001463 
L 99.2297 163.001463 
L 99.342037 161.501338 
L 99.454371 163.001463 
L 102.038112 163.001463 
L 102.150447 161.501338 
L 108.918848 161.501338 
L 109.031181 163.001463 
L 109.73312 163.001463 
L 109.845456 161.501338 
L 110.154546 161.501338 
L 110.266789 163.001463 
L 110.660133 163.001463 
L 110.772251 164.501588 
L 112.373009 164.501588 
L 112.485345 166.001713 
L 112.653849 166.001713 
L 112.766183 164.501588 
L 113.833374 164.501588 
L 113.973898 166.001713 
L 114.030191 166.001713 
L 114.142466 164.501588 
L 114.198703 164.501588 
L 114.226551 166.001713 
L 114.282718 164.501588 
L 116.333051 164.501588 
L 116.445366 166.001713 
L 116.529764 166.001713 
L 116.67004 164.501588 
L 118.467433 164.501588 
L 118.579789 166.001713 
L 118.607649 164.501588 
L 118.664148 166.001713 
L 118.776153 166.001713 
L 118.888487 164.501588 
L 119.225495 164.501588 
L 119.337832 163.001463 
L 120.040163 163.001463 
L 120.15249 161.501338 
L 120.433257 161.501338 
L 120.545644 160.001213 
L 121.219709 160.001213 
L 121.331831 158.501088 
L 121.92156 158.501088 
L 122.033899 160.001213 
L 122.090067 160.001213 
L 122.202405 158.501088 
L 122.820253 158.501088 
L 122.960813 160.001213 
L 123.382217 160.001213 
L 123.522571 161.501338 
L 124.365114 161.501338 
L 124.477211 160.001213 
L 124.702049 160.001213 
L 124.814435 161.501338 
L 125.01082 161.501338 
L 125.123154 160.001213 
L 125.516621 160.001213 
L 125.628664 161.501338 
L 128.212388 161.501338 
L 128.324723 163.001463 
L 130.178267 163.001463 
L 130.290602 164.501588 
L 130.599673 164.501588 
L 130.712019 166.001713 
L 130.739945 166.001713 
L 130.880526 167.501838 
L 130.992861 167.501838 
L 131.245453 176.502588 
L 131.273705 176.502588 
L 131.498421 184.003213 
L 131.554578 184.003213 
L 131.723082 188.503588 
L 131.779295 188.503588 
L 131.919471 191.503838 
L 131.975641 191.503838 
L 132.087979 193.003963 
L 132.172413 193.003963 
L 132.312649 196.004213 
L 132.396915 196.004213 
L 132.509446 197.504338 
L 132.537322 197.504338 
L 132.677921 200.504588 
L 132.790241 200.504588 
L 132.930498 203.504838 
L 133.042833 203.504838 
L 133.155169 205.004963 
L 133.267509 205.004963 
L 133.380099 206.505088 
L 133.492176 206.505088 
L 133.604517 208.005213 
L 134.138232 208.005213 
L 134.250671 209.505338 
L 134.278535 209.505338 
L 134.390869 208.005213 
L 134.615543 208.005213 
L 134.727879 206.505088 
L 134.896383 206.505088 
L 135.009079 205.004963 
L 135.205401 205.004963 
L 135.31783 203.504838 
L 135.486331 203.504838 
L 135.598566 202.004713 
L 135.823355 202.004713 
L 135.96358 199.004463 
L 136.216504 199.004463 
L 136.328858 197.504338 
L 136.469093 197.504338 
L 136.58179 196.004213 
L 136.749938 196.004213 
L 136.890584 193.003963 
L 137.592457 193.003963 
L 137.704794 191.503838 
L 137.760964 191.503838 
L 137.873297 190.003713 
L 137.901574 190.003713 
L 138.013954 188.503588 
L 138.210312 188.503588 
L 138.322645 187.003463 
L 138.434981 187.003463 
L 138.547317 185.503338 
L 138.659652 185.503338 
L 138.800228 184.003213 
L 139.72685 184.003213 
L 139.867445 182.503088 
L 139.923672 182.503088 
L 140.035981 181.002963 
L 140.3447 181.002963 
L 140.457035 179.502838 
L 140.485313 179.502838 
L 140.597629 178.002713 
L 140.794373 178.002713 
L 140.934665 176.502588 
L 142.029742 176.502588 
L 142.142076 178.002713 
L 142.226529 178.002713 
L 142.338857 176.502588 
L 142.675798 176.502588 
L 142.788199 175.002463 
L 142.844348 175.002463 
L 142.956517 176.502588 
L 143.01281 176.502588 
L 143.125196 175.002463 
L 143.518272 175.002463 
L 143.630684 173.502338 
L 143.770948 173.502338 
L 143.883284 175.002463 
L 143.995868 173.502338 
L 144.051785 173.502338 
L 144.220292 169.001963 
L 144.304708 169.001963 
L 144.444966 172.002213 
L 144.754102 172.002213 
L 144.922631 167.501838 
L 145.006646 167.501838 
L 145.147246 169.001963 
L 145.203471 169.001963 
L 145.315791 170.502088 
L 145.343654 170.502088 
L 145.45599 172.002213 
L 145.484291 172.002213 
L 145.596416 173.502338 
L 145.708973 173.502338 
L 145.821305 175.002463 
L 146.747853 175.002463 
L 146.86019 173.502338 
L 146.916359 173.502338 
L 147.084863 169.001963 
L 147.197197 169.001963 
L 147.365704 164.501588 
L 147.618656 164.501588 
L 147.730857 166.001713 
L 147.81505 166.001713 
L 147.89952 167.501838 
L 147.927382 166.001713 
L 147.983554 167.501838 
L 148.208575 167.501838 
L 148.320562 169.001963 
L 148.404993 169.001963 
L 148.517381 170.502088 
L 148.573551 170.502088 
L 148.685899 172.002213 
L 148.854369 172.002213 
L 148.966731 173.502338 
L 151.606654 173.502338 
L 151.690646 172.002213 
L 151.802983 173.502338 
L 152.055963 173.502338 
L 152.168314 175.002463 
L 152.75784 175.002463 
L 152.870174 176.502588 
L 152.982512 175.002463 
L 153.768863 175.002463 
L 153.881202 176.502588 
L 153.993844 176.502588 
L 154.134154 175.002463 
L 154.218209 175.002463 
L 154.330546 173.502338 
L 154.358805 173.502338 
L 154.47122 175.002463 
L 154.976665 175.002463 
L 155.08881 173.502338 
L 155.201355 173.502338 
L 155.229235 172.002213 
L 155.285399 173.502338 
L 155.313677 173.502338 
L 155.369831 172.002213 
L 155.397738 173.502338 
L 155.426023 173.502338 
L 155.538336 172.002213 
L 155.875383 172.002213 
L 155.987683 173.502338 
L 156.408764 173.502338 
L 156.521097 175.002463 
L 156.717784 175.002463 
L 156.830223 176.502588 
L 156.91428 176.502588 
L 157.026615 178.002713 
L 157.448106 178.002713 
L 157.560393 179.502838 
L 157.981473 179.502838 
L 158.093811 181.002963 
L 158.823994 181.002963 
L 158.964658 184.003213 
L 158.992495 184.003213 
L 159.160998 188.503588 
L 159.245462 188.503588 
L 159.357681 190.003713 
L 159.385673 190.003713 
L 159.498008 191.503838 
L 159.722681 191.503838 
L 159.835396 193.003963 
L 159.947355 193.003963 
L 160.087991 196.004213 
L 160.144153 196.004213 
L 160.284361 199.004463 
L 160.452867 199.004463 
L 160.565199 200.504588 
L 160.593411 200.504588 
L 160.705808 202.004713 
L 160.818179 202.004713 
L 160.930356 203.504838 
L 161.239219 203.504838 
L 161.351554 202.004713 
L 161.576226 202.004713 
L 161.68856 200.504588 
L 161.800897 200.504588 
L 161.913544 202.004713 
L 162.08174 202.004713 
L 162.194072 200.504588 
L 163.682702 200.504588 
L 163.795054 202.004713 
L 163.879115 202.004713 
L 163.99145 203.504838 
L 164.609301 203.504838 
L 164.721636 202.004713 
L 164.749885 202.004713 
L 164.777808 203.504838 
L 164.833975 202.004713 
L 164.974537 202.004713 
L 165.058648 200.504588 
L 165.142931 200.504588 
L 165.283322 197.504338 
L 165.367831 197.504338 
L 165.507992 194.504088 
L 165.536302 194.504088 
L 165.620646 193.003963 
L 165.676497 193.003963 
L 165.817092 190.003713 
L 165.873269 190.003713 
L 165.985685 188.503588 
L 166.519016 188.503588 
L 166.631357 190.003713 
L 167.080699 190.003713 
L 167.1933 191.503838 
L 167.810886 191.503838 
L 167.951548 188.503588 
L 168.035557 188.503588 
L 168.147896 187.003463 
L 168.316402 187.003463 
L 168.344589 185.503338 
L 168.400868 187.003463 
L 168.541072 187.003463 
L 168.681732 184.003213 
L 168.962552 184.003213 
L 169.074887 182.503088 
L 169.18718 182.503088 
L 169.271266 181.002963 
L 169.439769 181.002963 
L 169.552107 179.502838 
L 169.69263 179.502838 
L 169.805059 178.002713 
L 169.973472 178.002713 
L 170.085883 176.502588 
L 170.142009 176.502588 
L 170.1982 175.002463 
L 170.226121 176.502588 
L 170.33846 176.502588 
L 170.843969 187.003463 
L 171.742663 187.003463 
L 171.854999 188.503588 
L 171.911165 188.503588 
L 172.051715 187.003463 
L 172.220323 187.003463 
L 172.332658 185.503338 
L 172.36051 185.503338 
L 172.473204 184.003213 
L 172.66966 181.002963 
L 172.922191 181.002963 
L 173.062638 178.002713 
L 173.175195 179.502838 
L 173.287533 179.502838 
L 173.399848 181.002963 
L 173.680657 181.002963 
L 173.820877 178.002713 
L 173.961504 178.002713 
L 174.045553 176.502588 
L 174.101707 176.502588 
L 174.270223 181.002963 
L 174.38256 181.002963 
L 174.579327 175.002463 
L 174.635316 175.002463 
L 174.803987 170.502088 
L 175.028683 170.502088 
L 175.168908 167.501838 
L 175.197072 167.501838 
L 175.337415 164.501588 
L 175.478005 164.501588 
L 175.618255 161.501338 
L 175.842929 161.501338 
L 175.955262 160.001213 
L 176.067597 160.001213 
L 176.180287 161.501338 
L 176.320586 160.001213 
L 176.348438 160.001213 
L 176.460775 158.501088 
L 176.74161 158.501088 
L 176.853953 157.000963 
L 176.882213 157.000963 
L 176.966284 155.500838 
L 177.106938 158.501088 
L 177.134792 158.501088 
L 177.303297 163.001463 
L 177.471801 163.001463 
L 177.527968 161.501338 
L 177.556281 163.001463 
L 177.640304 163.001463 
L 177.752992 166.001713 
L 178.005626 166.001713 
L 178.061698 164.501588 
L 178.08965 166.001713 
L 178.258152 166.001713 
L 178.511101 170.502088 
L 178.538993 170.502088 
L 178.567324 169.001963 
L 178.623476 170.502088 
L 178.679638 170.502088 
L 178.791984 172.002213 
L 178.932172 169.001963 
L 179.016628 169.001963 
L 179.12893 167.501838 
L 179.213012 167.501838 
L 179.325349 169.001963 
L 179.522086 172.002213 
L 179.550021 172.002213 
L 179.662357 173.502338 
L 179.999367 173.502338 
L 180.111701 175.002463 
L 180.252349 175.002463 
L 180.364683 176.502588 
L 180.589348 176.502588 
L 180.701683 178.002713 
L 180.841886 178.002713 
L 180.954568 179.502838 
L 181.375711 179.502838 
L 181.460116 181.002963 
L 181.712709 181.002963 
L 181.825079 182.503088 
L 181.852907 182.503088 
L 181.965246 184.003213 
L 182.162063 187.003463 
L 182.358423 187.003463 
L 182.47076 188.503588 
L 182.611313 188.503588 
L 182.723691 190.003713 
L 182.779954 190.003713 
L 182.892274 191.503838 
L 182.948347 191.503838 
L 183.032727 193.003963 
L 183.116776 193.003963 
L 183.257113 196.004213 
L 183.369449 196.004213 
L 183.481787 197.504338 
L 183.510109 197.504338 
L 183.650289 200.504588 
L 183.818795 200.504588 
L 183.93113 202.004713 
L 183.959471 202.004713 
L 184.071804 203.504838 
L 184.436642 203.504838 
L 184.577285 200.504588 
L 184.605144 200.504588 
L 184.80197 203.504838 
L 184.942158 203.504838 
L 185.054494 205.004963 
L 185.082706 205.004963 
L 185.222997 208.005213 
L 185.335334 208.005213 
L 185.475951 211.005463 
L 185.672631 211.005463 
L 185.869162 214.005713 
L 185.897018 214.005713 
L 186.065523 218.506088 
L 186.121687 218.506088 
L 186.234365 220.006213 
L 186.683374 220.006213 
L 186.795707 221.506338 
L 186.82388 221.506338 
L 186.936217 223.006463 
L 187.076549 220.006213 
L 187.160855 220.006213 
L 187.245053 218.506088 
L 187.385591 218.506088 
L 187.497938 220.006213 
L 187.638235 220.006213 
L 187.750568 218.506088 
L 188.03141 218.506088 
L 188.171941 221.506338 
L 188.22812 221.506338 
L 188.36842 224.506588 
L 188.536924 224.506588 
L 188.677482 227.506838 
L 188.761599 227.506838 
L 188.874285 226.006713 
L 188.902036 226.006713 
L 189.126808 218.506088 
L 189.182982 218.506088 
L 189.295246 220.006213 
L 189.323282 220.006213 
L 189.43562 221.506338 
L 189.463792 221.506338 
L 189.604123 224.506588 
L 190.165806 224.506588 
L 190.278144 223.006463 
L 190.30638 223.006463 
L 190.390482 221.506338 
L 190.447032 223.006463 
L 190.587238 221.506338 
L 190.699562 221.506338 
L 190.839826 224.506588 
L 190.895995 224.506588 
L 191.008329 226.006713 
L 191.036476 226.006713 
L 191.148891 227.506838 
L 191.45768 227.506838 
L 191.794689 233.507338 
L 191.907026 233.507338 
L 191.991396 232.007213 
L 192.131701 235.007463 
L 192.300202 235.007463 
L 192.412539 236.507588 
L 192.468707 236.507588 
L 192.524873 238.007713 
L 192.665437 236.507588 
L 192.693384 236.507588 
L 192.721608 238.007713 
L 192.77778 236.507588 
L 192.974224 236.507588 
L 193.058628 235.007463 
L 193.423572 235.007463 
L 193.535904 236.507588 
L 193.845011 236.507588 
L 193.985255 233.507338 
L 194.013399 233.507338 
L 194.154134 236.507588 
L 194.266093 236.507588 
L 194.434597 232.007213 
L 194.883942 232.007213 
L 194.996281 233.507338 
L 195.080673 233.507338 
L 195.221178 236.507588 
L 195.277122 236.507588 
L 195.389461 235.007463 
L 195.642437 235.007463 
L 195.726709 233.507338 
L 195.979451 238.007713 
L 196.007314 238.007713 
L 196.175818 242.508088 
L 196.204087 242.508088 
L 196.316273 244.008213 
L 196.344328 244.008213 
L 196.484971 247.008463 
L 196.653413 247.008463 
L 196.765748 248.508588 
L 196.793943 248.508588 
L 196.990428 251.508838 
L 197.215129 251.508838 
L 197.299188 250.008713 
L 197.439786 250.008713 
L 197.552127 248.508588 
L 197.664497 250.008713 
L 197.720654 250.008713 
L 197.861177 247.008463 
L 197.917038 247.008463 
L 198.057675 244.008213 
L 198.254049 244.008213 
L 198.366623 242.508088 
L 198.507004 241.007963 
L 198.675537 241.007963 
L 198.815733 244.008213 
L 198.928411 244.008213 
L 199.040405 245.508338 
L 199.321249 245.508338 
L 199.43389 248.508588 
L 199.517931 248.508588 
L 199.658258 251.508838 
L 199.74275 251.508838 
L 199.855094 253.008963 
L 199.939105 253.008963 
L 200.023395 254.509088 
L 200.192105 250.008713 
L 200.219945 250.008713 
L 200.360619 247.008463 
L 200.388452 247.008463 
L 200.501081 248.508588 
L 200.556956 248.508588 
L 200.669295 247.008463 
L 200.78163 247.008463 
L 200.893969 248.508588 
L 201.118642 248.508588 
L 201.230981 250.008713 
L 201.28715 250.008713 
L 201.427757 247.008463 
L 201.792666 247.008463 
L 201.905 245.508338 
L 202.185847 245.508338 
L 202.298181 247.008463 
L 202.326446 247.008463 
L 202.438732 248.508588 
L 202.522853 248.508588 
L 202.663302 245.508338 
L 202.888131 245.508338 
L 203.000465 244.008213 
L 203.1128 244.008213 
L 203.25305 247.008463 
L 203.309214 247.008463 
L 203.477719 251.508838 
L 203.64622 251.508838 
L 203.786812 250.008713 
L 203.899195 251.508838 
L 203.927067 251.508838 
L 204.067691 254.509088 
L 204.095567 254.509088 
L 204.208124 256.009213 
L 204.292274 256.009213 
L 204.404712 257.509338 
L 204.685586 257.509338 
L 204.797739 259.009463 
L 204.910212 257.509338 
L 205.078727 257.509338 
L 205.218941 254.509088 
L 205.359494 256.009213 
L 205.443612 256.009213 
L 205.584218 259.009463 
L 205.724455 259.009463 
L 205.836795 257.509338 
L 206.033565 257.509338 
L 206.202102 253.008963 
L 206.229971 253.008963 
L 206.342508 251.508838 
L 206.37042 251.508838 
L 206.398476 253.008963 
L 206.454646 251.508838 
L 206.65134 251.508838 
L 206.763751 253.008963 
L 206.903995 253.008963 
L 206.98841 251.508838 
L 207.016329 253.008963 
L 207.072499 251.508838 
L 207.325422 251.508838 
L 207.493833 256.009213 
L 207.521848 256.009213 
L 207.690349 260.509588 
L 207.774734 260.509588 
L 207.91522 257.509338 
L 207.971191 257.509338 
L 208.139698 253.008963 
L 208.168044 253.008963 
L 208.280288 251.508838 
L 208.308206 251.508838 
L 208.420833 253.008963 
L 208.476711 253.008963 
L 208.589045 251.508838 
L 208.645213 251.508838 
L 208.757553 253.008963 
L 208.813724 253.008963 
L 208.926059 256.009213 
L 209.066616 256.009213 
L 209.178953 257.509338 
L 209.319236 254.509088 
L 209.403682 254.509088 
L 209.488032 253.008963 
L 209.824753 253.008963 
L 209.937092 251.508838 
L 209.99326 251.508838 
L 210.133835 253.008963 
L 210.161765 253.008963 
L 210.302391 256.009213 
L 210.330266 256.009213 
L 210.442603 254.509088 
L 210.611112 254.509088 
L 210.751772 257.509338 
L 210.891952 257.509338 
L 211.004289 259.009463 
L 211.116613 259.009463 
L 211.228964 257.509338 
L 211.341302 257.509338 
L 211.53812 263.509838 
L 211.594231 263.509838 
L 211.706514 265.009963 
L 211.734481 265.009963 
L 211.846819 266.510088 
L 211.987451 263.509838 
L 212.127883 263.509838 
L 212.26827 265.009963 
L 212.296166 265.009963 
L 212.436789 268.010213 
L 212.773733 268.010213 
L 212.914018 265.009963 
L 212.970187 265.009963 
L 212.998492 263.509838 
L 213.05465 265.009963 
L 213.110642 265.009963 
L 213.251031 262.009713 
L 213.3072 262.009713 
L 213.419536 260.509588 
L 213.644211 260.509588 
L 213.756886 259.009463 
L 213.784656 259.009463 
L 213.840949 260.509588 
L 213.868884 259.009463 
L 213.953353 259.009463 
L 214.065675 260.509588 
L 214.149726 260.509588 
L 214.26237 262.009713 
L 214.318234 262.009713 
L 214.43057 263.509838 
L 214.458882 263.509838 
L 214.542907 262.009713 
L 214.655243 263.509838 
L 215.245224 263.509838 
L 215.41363 259.009463 
L 215.441603 259.009463 
L 215.610107 247.008463 
L 216.200078 169.001963 
L 216.340296 166.001713 
L 216.368516 166.001713 
L 216.537101 161.501338 
L 216.845806 190.003713 
L 216.873979 188.503588 
L 216.901974 188.503588 
L 217.042592 185.503338 
L 217.126647 185.503338 
L 217.238983 184.003213 
L 217.267293 184.003213 
L 217.435736 169.001963 
L 217.716584 141.999713 
L 217.744496 144.999963 
L 217.941156 167.501838 
L 217.96917 167.501838 
L 218.222166 149.500338 
L 218.418514 138.999463 
L 218.474681 138.999463 
L 218.867854 117.997713 
L 218.924386 120.997963 
L 218.952124 120.997963 
L 219.064648 122.498088 
L 219.120804 122.498088 
L 219.204861 120.997963 
L 219.373364 131.498838 
L 219.513879 128.498588 
L 219.541867 129.998713 
L 219.598036 128.498588 
L 219.822708 120.997963 
L 219.850974 120.997963 
L 219.907152 117.997713 
L 219.935039 120.997963 
L 220.159711 129.998713 
L 220.272046 128.498588 
L 220.328212 128.498588 
L 220.637324 116.497588 
L 220.974355 129.998713 
L 221.058399 129.998713 
L 221.170733 131.498838 
L 221.199015 131.498838 
L 221.592021 108.996963 
L 221.648314 111.997213 
L 221.676245 111.997213 
L 221.816787 114.997463 
L 221.844746 114.997463 
L 222.013249 123.998213 
L 222.097484 123.998213 
L 222.37856 107.496838 
L 222.406424 108.996963 
L 222.799598 140.499588 
L 222.827885 140.499588 
L 223.220996 157.000963 
L 223.389558 152.500588 
L 223.473615 152.500588 
L 223.642454 158.501088 
L 223.754454 158.501088 
L 223.92296 154.000713 
L 224.063592 157.000963 
L 224.091466 157.000963 
L 224.204098 160.001213 
L 224.316133 158.501088 
L 224.42847 160.001213 
L 224.512922 160.001213 
L 224.653144 163.001463 
L 224.709666 163.001463 
L 224.849854 166.001713 
L 224.962285 166.001713 
L 225.27099 152.500588 
L 225.355434 155.500838 
L 225.383328 154.000713 
L 225.720333 141.999713 
L 225.776782 141.999713 
L 226.141811 157.000963 
L 226.225846 157.000963 
L 226.282298 158.501088 
L 226.534948 154.000713 
L 226.562855 154.000713 
L 226.899863 141.999713 
L 227.068365 141.999713 
L 227.265152 148.000213 
L 227.686216 129.998713 
L 227.855009 134.499088 
L 227.939043 134.499088 
L 228.163834 141.999713 
L 228.191724 141.999713 
L 228.416694 149.500338 
L 228.528733 149.500338 
L 228.641067 151.000463 
L 228.837857 151.000463 
L 228.978076 148.000213 
L 229.006257 148.000213 
L 229.146582 144.999963 
L 229.427421 144.999963 
L 229.568001 146.500088 
L 229.680358 146.500088 
L 229.820595 149.500338 
L 229.961116 149.500338 
L 230.101434 152.500588 
L 230.129676 152.500588 
L 230.241997 154.000713 
L 230.410602 154.000713 
L 230.438441 152.500588 
L 230.466754 154.000713 
L 230.775453 166.001713 
L 230.803765 166.001713 
L 230.916097 167.501838 
L 230.972251 167.501838 
L 231.140692 172.002213 
L 231.168627 172.002213 
L 231.309252 175.002463 
L 231.337131 175.002463 
L 231.47776 178.002713 
L 231.562113 178.002713 
L 231.702393 179.502838 
L 231.73031 179.502838 
L 231.870918 182.503088 
L 231.927133 182.503088 
L 232.067317 185.503338 
L 232.207907 185.503338 
L 232.320265 187.003463 
L 232.348156 187.003463 
L 232.48869 190.003713 
L 232.572828 190.003713 
L 232.685166 191.503838 
L 233.443649 191.503838 
L 233.555841 193.003963 
L 233.864697 193.003963 
L 233.977032 194.504088 
L 234.847764 194.504088 
L 234.931893 193.003963 
L 234.988059 194.504088 
L 235.016329 193.003963 
L 235.409445 193.003963 
L 235.521795 194.504088 
L 235.634185 194.504088 
L 235.774707 197.504338 
L 235.858734 197.504338 
L 235.971184 199.004463 
L 235.999087 199.004463 
L 236.111423 200.504588 
L 236.139722 200.504588 
L 236.252009 202.004713 
L 236.420464 202.004713 
L 236.532872 203.504838 
L 236.78544 203.504838 
L 236.89778 205.004963 
L 237.122453 205.004963 
L 237.234786 206.505088 
L 237.403565 206.505088 
L 237.51563 208.005213 
L 237.600027 208.005213 
L 237.712478 209.505338 
L 238.245815 209.505338 
L 238.358153 211.005463 
L 239.425347 211.005463 
L 239.481818 212.505588 
L 239.622146 211.005463 
L 239.650021 211.005463 
L 239.762358 212.505588 
L 240.099367 212.505588 
L 240.211704 211.005463 
L 240.408504 211.005463 
L 240.520829 212.505588 
L 240.717217 212.505588 
L 240.857876 214.005713 
L 241.475718 214.005713 
L 241.559744 212.505588 
L 241.728248 212.505588 
L 241.840581 214.005713 
L 242.486706 214.005713 
L 242.59906 215.505838 
L 242.767508 215.505838 
L 242.879888 217.005963 
L 242.936114 217.005963 
L 243.048392 218.506088 
L 243.076281 218.506088 
L 243.188948 220.006213 
L 243.32925 221.506338 
L 243.357127 221.506338 
L 243.497752 224.506588 
L 243.55392 224.506588 
L 243.666289 226.006713 
L 243.694139 226.006713 
L 243.834728 227.506838 
L 244.227926 227.506838 
L 244.34019 229.006963 
L 244.368159 229.006963 
L 244.508746 232.007213 
L 244.592829 232.007213 
L 244.733486 235.007463 
L 244.845654 235.007463 
L 244.958116 236.507588 
L 245.014192 236.507588 
L 245.126618 238.007713 
L 245.154513 238.007713 
L 245.266851 239.507838 
L 245.463618 239.507838 
L 245.576024 241.007963 
L 245.969164 241.007963 
L 246.081392 242.508088 
L 247.317185 242.508088 
L 247.401249 244.008213 
L 247.850597 244.008213 
L 247.963226 242.508088 
L 248.693124 242.508088 
L 248.805461 241.007963 
L 250.097697 241.007963 
L 250.209667 239.507838 
L 251.164528 239.507838 
L 251.276867 238.007713 
L 251.305149 238.007713 
L 251.41741 236.507588 
L 251.50154 236.507588 
L 251.613877 238.007713 
L 252.175854 238.007713 
L 252.316182 236.507588 
L 252.961917 236.507588 
L 253.074255 238.007713 
L 253.355098 238.007713 
L 253.467432 239.507838 
L 253.664229 239.507838 
L 253.748276 241.007963 
L 254.169636 241.007963 
L 254.310181 236.507588 
L 254.590797 236.507588 
L 254.703139 238.007713 
L 254.956071 238.007713 
L 255.068393 236.507588 
L 255.293093 236.507588 
L 255.405237 238.007713 
L 255.489495 238.007713 
L 255.601832 239.507838 
L 255.630096 239.507838 
L 255.742428 241.007963 
L 255.883011 241.007963 
L 256.023283 242.508088 
L 256.388189 242.508088 
L 256.528743 244.008213 
L 256.556693 244.008213 
L 256.669029 245.508338 
L 256.950234 245.508338 
L 257.146699 242.508088 
L 257.286882 242.508088 
L 257.399219 244.008213 
L 257.876878 244.008213 
L 257.989212 245.508338 
L 258.241746 245.508338 
L 258.354082 247.008463 
L 259.421283 247.008463 
L 259.53362 245.508338 
L 259.786631 245.508338 
L 259.898967 244.008213 
L 260.572942 244.008213 
L 260.657289 242.508088 
L 260.7976 242.508088 
L 260.90998 241.007963 
L 261.780354 241.007963 
L 261.892692 239.507838 
L 262.173534 239.507838 
L 262.286164 241.007963 
L 262.707345 241.007963 
L 262.763495 242.508088 
L 263.072226 242.508088 
L 263.184565 241.007963 
L 263.296901 241.007963 
L 263.43749 239.507838 
L 263.914752 239.507838 
L 264.027089 238.007713 
L 264.167738 238.007713 
L 264.280073 236.507588 
L 264.364097 236.507588 
L 264.50468 235.007463 
L 264.673281 235.007463 
L 264.785547 233.507338 
L 264.813447 233.507338 
L 264.926048 232.007213 
L 265.038119 232.007213 
L 265.150454 230.507088 
L 265.628164 230.507088 
L 265.740466 229.006963 
L 265.908925 229.006963 
L 266.021085 227.506838 
L 266.049149 227.506838 
L 266.217655 223.006463 
L 266.329988 223.006463 
L 266.442326 224.506588 
L 266.55466 224.506588 
L 266.667 223.006463 
L 266.807624 223.006463 
L 266.947844 220.006213 
L 267.004011 220.006213 
L 267.144571 218.506088 
L 267.257009 218.506088 
L 267.397188 215.505838 
L 267.706303 215.505838 
L 267.846531 218.506088 
L 268.127365 218.506088 
L 268.295878 214.005713 
L 268.324149 214.005713 
L 268.464384 211.005463 
L 268.492656 211.005463 
L 268.633235 208.005213 
L 268.969898 208.005213 
L 269.11045 205.004963 
L 269.138586 205.004963 
L 269.335238 202.004713 
L 269.363076 202.004713 
L 269.475414 203.504838 
L 269.531581 203.504838 
L 269.643917 200.504588 
L 269.700462 200.504588 
L 269.840679 197.504338 
L 269.896877 197.504338 
L 270.037094 200.504588 
L 270.065377 200.504588 
L 270.205893 197.504338 
L 270.317935 197.504338 
L 270.430273 196.004213 
L 270.542608 196.004213 
L 270.683266 193.003963 
L 270.711114 193.003963 
L 271.160457 184.003213 
L 271.188758 184.003213 
L 271.300863 182.503088 
L 271.328958 182.503088 
L 271.469587 185.503338 
L 271.581902 184.003213 
L 271.637983 184.003213 
L 271.750381 182.503088 
L 271.778307 182.503088 
L 271.975135 175.002463 
L 272.171483 169.001963 
L 272.340316 173.502338 
L 272.480595 173.502338 
L 272.592931 172.002213 
L 272.7615 172.002213 
L 272.845792 163.001463 
L 273.351009 119.497838 
L 273.5478 114.997463 
L 273.744184 123.998213 
L 273.772447 122.498088 
L 273.800352 122.498088 
L 273.856519 117.997713 
L 273.913061 119.497838 
L 273.997048 123.998213 
L 274.025024 122.498088 
L 274.053312 122.498088 
L 274.305862 105.996713 
L 274.50251 90.995463 
L 274.64287 84.994963 
L 274.81137 90.995463 
L 274.980112 80.494588 
L 275.148378 93.995713 
L 275.569721 148.000213 
L 275.682193 137.499338 
L 275.963063 107.496838 
L 275.990895 108.996963 
L 276.131476 110.497088 
L 276.215566 104.496588 
L 276.243889 105.996713 
L 276.356211 107.496838 
L 276.468482 107.496838 
L 276.552896 98.496088 
L 276.805553 72.993963 
L 276.833414 74.494088 
L 277.058081 90.995463 
L 277.535752 101.496338 
L 277.647861 101.496338 
L 277.675929 102.996463 
L 277.732094 101.496338 
L 277.760348 101.496338 
L 277.872711 105.996713 
L 277.900601 104.496588 
L 278.012935 104.496588 
L 278.686935 134.499088 
L 278.715081 132.998963 
L 278.771374 134.499088 
L 278.93989 138.999463 
L 278.96779 138.999463 
L 279.108453 141.999713 
L 279.220544 141.999713 
L 279.360967 144.999963 
L 279.501631 141.999713 
L 279.529469 141.999713 
L 279.670056 138.999463 
L 279.698353 138.999463 
L 279.838594 137.499338 
L 279.866476 137.499338 
L 280.034981 141.999713 
L 280.063284 141.999713 
L 280.147319 143.499838 
L 280.26002 141.999713 
L 280.371989 141.999713 
L 280.540492 146.500088 
L 280.568723 146.500088 
L 280.708997 149.500338 
L 280.765492 149.500338 
L 280.90579 151.000463 
L 280.989836 151.000463 
L 281.10217 152.500588 
L 281.130455 152.500588 
L 281.242675 154.000713 
L 281.495347 154.000713 
L 281.607684 155.500838 
L 281.663851 155.500838 
L 281.776187 157.000963 
L 282.029133 157.000963 
L 282.141453 158.501088 
L 282.338156 158.501088 
L 282.534586 161.501338 
L 282.674877 161.501338 
L 282.787212 163.001463 
L 282.84338 163.001463 
L 282.983957 164.501588 
L 283.011885 164.501588 
L 283.12422 166.001713 
L 283.180388 166.001713 
L 283.320995 169.001963 
L 283.377157 169.001963 
L 283.48942 170.502088 
L 283.573564 170.502088 
L 283.685901 172.002213 
L 283.882646 172.002213 
L 283.994883 173.502338 
L 284.079078 173.502338 
L 284.191412 175.002463 
L 284.303747 175.002463 
L 284.416081 176.502588 
L 284.556638 176.502588 
L 284.669069 178.002713 
L 284.978124 178.002713 
L 285.118394 179.502838 
L 285.567565 179.502838 
L 285.680059 178.002713 
L 285.764118 178.002713 
L 285.876454 179.502838 
L 285.904782 179.502838 
L 286.017086 178.002713 
L 286.269631 178.002713 
L 286.410239 181.002963 
L 286.494305 181.002963 
L 286.606635 182.503088 
L 286.662805 182.503088 
L 286.80347 179.502838 
L 287.730001 179.502838 
L 287.842338 181.002963 
L 288.34785 181.002963 
L 288.460188 179.502838 
L 288.62869 179.502838 
L 288.741027 178.002713 
L 288.797193 178.002713 
L 288.909531 176.502588 
L 289.358877 176.502588 
L 289.471214 175.002463 
L 289.499557 175.002463 
L 289.5556 173.502338 
L 289.583549 175.002463 
L 289.920556 175.002463 
L 290.032892 176.502588 
L 290.173548 176.502588 
L 290.257908 178.002713 
L 290.510559 178.002713 
L 290.65074 181.002963 
L 290.847358 181.002963 
L 290.95989 179.502838 
L 291.072127 179.502838 
L 291.184508 181.002963 
L 291.268591 181.002963 
L 291.380926 182.503088 
L 291.437094 182.503088 
L 291.549431 184.003213 
L 291.690075 184.003213 
L 291.830269 187.003463 
L 292.083198 191.503838 
L 292.139248 191.503838 
L 292.251762 193.003963 
L 292.307885 193.003963 
L 292.448122 196.004213 
L 292.476334 196.004213 
L 292.588717 197.504338 
L 293.515316 197.504338 
L 293.627653 196.004213 
L 293.739987 196.004213 
L 293.852323 194.504088 
L 294.329925 194.504088 
L 294.44229 193.003963 
L 294.638677 193.003963 
L 294.751013 191.503838 
L 295.004011 187.003463 
L 295.172451 187.003463 
L 295.284784 185.503338 
L 295.481198 185.503338 
L 295.593535 184.003213 
L 295.818208 184.003213 
L 295.930546 185.503338 
L 296.548394 185.503338 
L 296.660731 187.003463 
L 296.997737 187.003463 
L 297.110072 185.503338 
L 297.306791 188.503588 
L 297.36301 188.503588 
L 297.475305 187.003463 
L 297.615586 187.003463 
L 297.727921 188.503588 
L 298.064931 188.503588 
L 298.1211 187.003463 
L 298.149375 188.503588 
L 298.401942 188.503588 
L 298.51428 190.003713 
L 298.626612 190.003713 
L 298.739247 188.503588 
L 298.767049 188.503588 
L 298.907455 191.503838 
L 299.24476 191.503838 
L 299.385045 193.003963 
L 299.441288 193.003963 
L 299.553576 194.504088 
L 299.722076 194.504088 
L 299.834266 193.003963 
L 300.143155 193.003963 
L 300.25549 194.504088 
L 300.423996 194.504088 
L 300.564602 197.504338 
L 300.648668 197.504338 
L 300.789316 200.504588 
L 300.817172 200.504588 
L 300.957699 202.004713 
L 301.070133 200.504588 
L 301.098347 200.504588 
L 301.238709 197.504338 
L 301.463238 197.504338 
L 301.603527 200.504588 
L 301.659695 200.504588 
L 301.772031 199.004463 
L 301.856454 199.004463 
L 302.052875 205.004963 
L 302.221376 205.004963 
L 302.333715 206.505088 
L 302.474163 206.505088 
L 302.614557 203.504838 
L 303.035917 203.504838 
L 303.204566 199.004463 
L 303.400909 199.004463 
L 303.513232 200.504588 
L 303.625582 199.004463 
L 303.681749 199.004463 
L 303.794087 200.504588 
L 303.934718 200.504588 
L 303.990843 199.004463 
L 304.019084 200.504588 
L 304.215603 200.504588 
L 304.355768 197.504338 
L 304.580441 197.504338 
L 304.608594 199.004463 
L 304.664887 197.504338 
L 304.748943 197.504338 
L 304.889573 200.504588 
L 304.945688 200.504588 
L 305.029789 202.004713 
L 305.170349 202.004713 
L 305.282754 203.504838 
L 305.395131 202.004713 
L 305.451261 202.004713 
L 305.675812 209.505338 
L 305.732044 209.505338 
L 305.87231 212.505588 
L 305.95681 212.505588 
L 306.069055 214.005713 
L 306.265485 214.005713 
L 306.406089 211.005463 
L 306.602499 211.005463 
L 306.743032 214.005713 
L 306.799245 214.005713 
L 306.911577 215.505838 
L 306.967786 215.505838 
L 307.080128 214.005713 
L 307.16418 214.005713 
L 307.360895 211.005463 
L 307.473312 211.005463 
L 307.585634 212.505588 
L 307.753958 208.005213 
L 307.866514 208.005213 
L 308.006703 211.005463 
L 308.11904 211.005463 
L 308.231676 214.005713 
L 308.315714 214.005713 
L 308.428086 215.505838 
L 308.652868 215.505838 
L 308.793403 218.506088 
L 308.849229 218.506088 
L 308.961566 220.006213 
L 308.989893 220.006213 
L 309.102206 221.506338 
L 309.15839 221.506338 
L 309.270739 220.006213 
L 309.4953 220.006213 
L 309.635581 217.005963 
L 309.691754 217.005963 
L 309.804091 218.506088 
L 309.944688 220.006213 
L 310.225566 220.006213 
L 310.366082 223.006463 
L 310.450151 223.006463 
L 310.590444 226.006713 
L 310.674902 226.006713 
L 310.815118 229.006963 
L 310.871546 229.006963 
L 311.011905 227.506838 
L 311.292779 227.506838 
L 311.489137 221.506338 
L 311.601472 221.506338 
L 311.742123 224.506588 
L 311.769979 224.506588 
L 311.910615 221.506338 
L 312.275494 221.506338 
L 312.38783 220.006213 
L 312.556335 220.006213 
L 312.696853 223.006463 
L 312.72484 223.006463 
L 312.837176 224.506588 
L 312.977787 224.506588 
L 313.118015 227.506838 
L 313.39886 227.506838 
L 313.455027 226.006713 
L 313.483297 227.506838 
L 313.595511 227.506838 
L 313.707971 229.006963 
L 313.932716 229.006963 
L 314.016709 230.507088 
L 314.241384 230.507088 
L 314.382005 233.507338 
L 314.522224 233.507338 
L 314.578714 235.007463 
L 314.719023 233.507338 
L 314.746901 233.507338 
L 314.859236 235.007463 
L 314.887482 235.007463 
L 314.999843 233.507338 
L 315.083909 233.507338 
L 315.224483 232.007213 
L 315.392999 232.007213 
L 315.477087 233.507338 
L 315.701767 226.006713 
L 315.982603 226.006713 
L 316.151111 221.506338 
L 316.319614 221.506338 
L 316.460177 218.506088 
L 316.628712 218.506088 
L 317.078086 188.503588 
L 317.35892 169.001963 
L 317.415105 169.001963 
L 317.920605 146.500088 
L 317.948484 146.500088 
L 318.173158 138.999463 
L 318.285829 143.499838 
L 318.34166 141.999713 
L 318.39783 143.499838 
L 318.4261 141.999713 
L 318.482273 141.999713 
L 318.6225 132.998963 
L 318.678668 135.999213 
L 318.706919 135.999213 
L 318.763126 137.499338 
L 318.791004 135.999213 
L 319.296515 92.495588 
L 319.380772 93.995713 
L 319.521186 95.495838 
L 319.605504 93.995713 
L 319.858479 83.494838 
L 319.914364 84.994963 
L 320.082864 98.496088 
L 320.111117 96.995963 
L 320.139033 96.995963 
L 320.279593 93.995713 
L 320.307536 93.995713 
L 320.363701 90.995463 
L 320.560475 102.996463 
L 320.588374 102.996463 
L 320.700709 107.496838 
L 320.981547 87.995213 
L 321.206223 72.993963 
L 321.431196 89.495338 
L 321.543221 86.495088 
L 321.655558 86.495088 
L 321.71173 84.994963 
L 321.740035 86.495088 
L 321.767895 86.495088 
L 321.852362 87.995213 
L 322.13314 74.494088 
L 322.161072 75.994213 
L 322.189314 75.994213 
L 322.329573 72.993963 
L 322.470152 77.494338 
L 322.610415 78.994463 
L 322.666579 77.494338 
L 322.694838 78.994463 
L 322.863385 78.994463 
L 323.003587 84.994963 
L 323.031768 83.494838 
L 323.087999 83.494838 
L 323.228254 86.495088 
L 323.284426 83.494838 
L 323.312722 84.994963 
L 323.425075 89.495338 
L 323.452924 87.995213 
L 323.509084 87.995213 
L 323.565261 90.995463 
L 324.323746 93.995713 
L 324.800956 72.993963 
L 324.885375 77.494338 
L 324.913293 75.994213 
L 324.941578 75.994213 
L 325.222412 56.492588 
L 325.2503 60.992963 
L 325.503184 81.994713 
L 325.531138 80.494588 
L 325.727922 86.495088 
L 325.784088 86.495088 
L 325.952539 80.494588 
L 326.064823 84.994963 
L 326.177133 74.494088 
L 326.542153 45.991713 
L 326.570391 45.991713 
L 326.710657 38.491088 
L 326.795105 39.991213 
L 326.822994 38.491088 
L 326.879161 39.991213 
L 326.907336 39.991213 
L 327.075828 44.491588 
L 327.103828 44.491588 
L 327.216164 41.491338 
L 327.244355 41.491338 
L 327.328502 36.990963 
L 327.35678 38.491088 
L 328.395682 89.495338 
L 328.676528 78.994463 
L 328.704803 78.994463 
L 328.817034 80.494588 
L 328.845029 80.494588 
L 329.013534 71.493838 
L 329.154088 74.494088 
L 329.182034 74.494088 
L 329.238203 71.493838 
L 329.29468 72.993963 
L 329.435004 75.994213 
L 329.462873 75.994213 
L 329.547337 77.494338 
L 329.743714 71.493838 
L 329.771905 71.493838 
L 329.884254 69.993713 
L 330.109016 77.494338 
L 330.249221 77.494338 
L 330.810895 111.997213 
L 331.063854 125.498338 
L 331.091736 125.498338 
L 331.316408 132.998963 
L 331.3447 132.998963 
L 331.513177 137.499338 
L 331.541081 137.499338 
L 331.709587 141.999713 
L 331.793967 141.999713 
L 331.934256 144.999963 
L 331.962402 144.999963 
L 332.046594 146.500088 
L 334.854995 164.501588 
L 334.967329 166.001713 
L 334.995512 166.001713 
L 335.107985 167.501838 
L 335.192235 167.501838 
L 335.332557 169.001963 
L 335.697515 169.001963 
L 335.838068 170.502088 
L 335.894313 170.502088 
L 336.006617 169.001963 
L 336.090962 169.001963 
L 336.203026 170.502088 
L 336.231246 170.502088 
L 336.315362 172.002213 
L 336.427697 170.502088 
L 336.54003 170.502088 
L 336.680672 173.502338 
L 336.764704 173.502338 
L 337.073771 179.502838 
L 337.129903 179.502838 
L 337.242305 181.002963 
L 337.270218 181.002963 
L 337.410765 182.503088 
L 337.438719 182.503088 
L 337.551054 184.003213 
L 337.691633 184.003213 
L 337.83223 187.003463 
L 337.944232 187.003463 
L 338.084773 184.003213 
L 338.197054 184.003213 
L 338.309503 182.503088 
L 338.393911 182.503088 
L 338.421689 184.003213 
L 338.758855 185.503338 
L 338.87117 184.003213 
L 338.983475 184.003213 
L 339.011427 185.503338 
L 339.2082 185.503338 
L 339.320515 184.003213 
L 339.489039 184.003213 
L 339.573108 185.503338 
L 339.657387 185.503338 
L 339.769863 187.003463 
L 339.797781 187.003463 
L 339.910117 188.503588 
L 339.938344 188.503588 
L 340.078621 191.503838 
L 340.135045 191.503838 
L 340.275345 193.003963 
L 340.415632 193.003963 
L 340.527969 191.503838 
L 340.69646 191.503838 
L 340.808812 193.003963 
L 341.426656 193.003963 
L 341.567212 196.004213 
L 342.100674 196.004213 
L 342.21301 194.504088 
L 342.353536 193.003963 
L 342.55002 193.003963 
L 342.662353 194.504088 
L 342.74677 194.504088 
L 342.887027 191.503838 
L 343.280204 191.503838 
L 343.420758 190.003713 
L 343.448711 190.003713 
L 343.589291 187.003463 
L 343.72955 187.003463 
L 343.84217 188.503588 
L 343.869965 188.503588 
L 343.982414 187.003463 
L 344.038615 187.003463 
L 344.150946 185.503338 
L 344.263327 185.503338 
L 344.459735 179.502838 
L 344.572074 181.002963 
L 344.656535 181.002963 
L 344.76886 182.503088 
L 344.825045 182.503088 
L 344.937183 184.003213 
L 344.993476 184.003213 
L 345.105811 182.503088 
L 345.133753 182.503088 
L 345.246091 181.002963 
L 345.414893 181.002963 
L 345.555197 182.503088 
L 345.779883 182.503088 
L 345.892249 184.003213 
L 345.976586 184.003213 
L 346.116818 187.003463 
L 346.53796 187.003463 
L 346.650291 185.503338 
L 346.678538 185.503338 
L 346.790941 184.003213 
L 346.903163 185.503338 
L 346.931132 185.503338 
L 347.043469 184.003213 
L 347.211976 184.003213 
L 347.352516 187.003463 
L 347.492818 187.003463 
L 347.633378 185.503338 
L 347.745745 187.003463 
L 347.829825 187.003463 
L 347.942162 188.503588 
L 348.026572 188.503588 
L 348.138841 187.003463 
L 348.39151 187.003463 
L 348.503844 188.503588 
L 348.672349 188.503588 
L 348.784687 190.003713 
L 349.06553 190.003713 
L 349.177862 188.503588 
L 349.936314 188.503588 
L 350.048699 187.003463 
L 350.10483 187.003463 
L 350.216989 185.503338 
L 350.357392 185.503338 
L 350.469729 187.003463 
L 350.610331 187.003463 
L 350.638233 188.503588 
L 350.694708 187.003463 
L 351.284211 187.003463 
L 351.396651 185.503338 
L 351.536926 185.503338 
L 351.649264 184.003213 
L 352.379448 184.003213 
L 352.491784 182.503088 
L 352.660289 182.503088 
L 352.772622 184.003213 
L 353.47487 184.003213 
L 353.587227 182.503088 
L 353.755757 182.503088 
L 353.839817 184.003213 
L 353.89633 184.003213 
L 354.00832 185.503338 
L 354.120658 184.003213 
L 354.429572 184.003213 
L 354.457669 185.503338 
L 354.513836 184.003213 
L 354.654449 184.003213 
L 354.766762 185.503338 
L 354.879101 184.003213 
L 355.244021 184.003213 
L 355.356353 185.503338 
L 355.412523 185.503338 
L 355.553082 187.003463 
L 355.805698 187.003463 
L 355.918034 188.503588 
L 356.030371 188.503588 
L 356.142708 190.003713 
L 356.423549 190.003713 
L 356.536138 191.503838 
L 356.564007 191.503838 
L 356.704388 188.503588 
L 357.013478 188.503588 
L 357.125758 190.003713 
L 357.294347 190.003713 
L 357.406723 191.503838 
L 357.518987 191.503838 
L 357.631224 193.003963 
L 358.19298 193.003963 
L 358.305344 191.503838 
L 358.614337 191.503838 
L 358.754671 190.003713 
L 358.894946 190.003713 
L 359.007279 191.503838 
L 359.203907 191.503838 
L 359.316381 193.003963 
L 359.344292 193.003963 
L 359.456625 191.503838 
L 359.821917 191.503838 
L 359.934182 193.003963 
L 360.102783 193.003963 
L 360.242981 196.004213 
L 360.552071 196.004213 
L 360.664417 197.504338 
L 360.77659 196.004213 
L 361.00149 196.004213 
L 361.11384 194.504088 
L 361.534845 194.504088 
L 361.675434 191.503838 
L 361.703354 191.503838 
L 361.871857 187.003463 
L 361.928024 187.003463 
L 362.04036 188.503588 
L 362.37737 188.503588 
L 362.51801 191.503838 
L 362.770547 191.503838 
L 362.882881 193.003963 
L 363.079638 193.003963 
L 363.163725 191.503838 
L 363.276061 193.003963 
L 363.585141 193.003963 
L 363.697467 191.503838 
L 364.315367 191.503838 
L 364.399426 190.003713 
L 364.764708 190.003713 
L 364.877013 191.503838 
L 364.933206 191.503838 
L 365.045454 193.003963 
L 365.10168 193.003963 
L 365.21402 194.504088 
L 365.888087 194.504088 
L 365.972135 193.003963 
L 366.449712 193.003963 
L 366.534127 191.503838 
L 367.460747 191.503838 
L 367.573133 190.003713 
L 368.106524 190.003713 
L 368.24711 188.503588 
L 369.117549 188.503588 
L 369.229884 187.003463 
L 369.398388 187.003463 
L 369.510722 188.503588 
L 369.538958 188.503588 
L 369.623061 190.003713 
L 369.735694 190.003713 
L 369.847732 191.503838 
L 369.932221 191.503838 
L 370.072402 194.504088 
L 370.213049 194.504088 
L 370.325266 196.004213 
L 370.886945 196.004213 
L 370.999313 197.504338 
L 371.027262 197.504338 
L 371.167878 200.504588 
L 371.561026 200.504588 
L 371.673412 199.004463 
L 372.066553 199.004463 
L 372.178923 200.504588 
L 372.628259 200.504588 
L 372.740575 199.004463 
L 372.824642 199.004463 
L 372.936978 197.504338 
L 373.021346 197.504338 
L 373.161648 194.504088 
L 373.302277 194.504088 
L 373.442835 191.503838 
L 373.526918 191.503838 
L 373.667163 188.503588 
L 373.779499 188.503588 
L 373.92006 185.503338 
L 374.537843 185.503338 
L 374.650205 184.003213 
L 374.762632 184.003213 
L 374.874942 185.503338 
L 375.464543 185.503338 
L 375.605064 182.503088 
L 375.661273 182.503088 
L 375.829734 178.002713 
L 375.857723 178.002713 
L 376.026228 173.502338 
L 376.082724 173.502338 
L 376.222959 170.502088 
L 376.531739 170.502088 
L 376.644078 172.002213 
L 376.672283 172.002213 
L 376.784645 170.502088 
L 376.924917 170.502088 
L 377.037257 169.001963 
L 377.374266 169.001963 
L 377.486597 170.502088 
L 377.992111 170.502088 
L 378.132727 167.501838 
L 378.216784 167.501838 
L 378.329121 166.001713 
L 378.413549 166.001713 
L 378.553796 163.001463 
L 378.582076 163.001463 
L 379.143749 137.499338 
L 379.171644 137.499338 
L 379.312186 134.499088 
L 379.368369 134.499088 
L 379.620988 125.498338 
L 379.649304 125.498338 
L 379.873942 116.497588 
L 380.154767 126.998463 
L 380.21086 126.998463 
L 380.379406 131.498838 
L 380.547994 126.998463 
L 380.604123 126.998463 
L 380.716481 125.498338 
L 380.800871 125.498338 
L 381.221971 116.497588 
L 381.390334 116.497588 
L 381.643032 125.498338 
L 381.671343 125.498338 
L 381.811534 135.999213 
L 382.064406 155.500838 
L 382.092375 155.500838 
L 382.232945 158.501088 
L 382.485551 158.501088 
L 382.597888 160.001213 
L 382.654056 160.001213 
L 382.794664 163.001463 
L 382.878732 163.001463 
L 383.440719 175.002463 
L 383.46848 175.002463 
L 383.581051 176.502588 
L 383.833587 176.502588 
L 383.94592 178.002713 
L 384.058257 178.002713 
L 384.170596 179.502838 
L 384.226763 179.502838 
L 384.3391 178.002713 
L 384.56377 178.002713 
L 384.676106 179.502838 
L 385.237791 179.502838 
L 385.350125 181.002963 
L 385.406294 181.002963 
L 385.518627 182.503088 
L 385.771549 182.503088 
L 385.883913 184.003213 
L 386.136475 184.003213 
L 386.248812 185.503338 
L 387.737344 185.503338 
L 387.849768 187.003463 
L 387.905835 187.003463 
L 388.018259 188.503588 
L 388.299061 188.503588 
L 388.411437 190.003713 
L 388.52377 190.003713 
L 388.63605 191.503838 
L 388.860738 191.503838 
L 388.973089 193.003963 
L 389.562717 193.003963 
L 389.675057 194.504088 
L 389.927972 194.504088 
L 390.040311 196.004213 
L 390.096397 196.004213 
L 390.208728 197.504338 
L 390.293175 197.504338 
L 390.377234 196.004213 
L 390.489734 197.504338 
L 390.686083 197.504338 
L 390.798418 199.004463 
L 390.93899 197.504338 
L 391.135429 197.504338 
L 391.163642 199.004463 
L 391.219825 197.504338 
L 391.276062 197.504338 
L 391.360417 199.004463 
L 392.034115 199.004463 
L 392.146454 200.504588 
L 392.399408 200.504588 
L 392.511667 202.004713 
L 392.708134 202.004713 
L 392.820473 203.504838 
L 393.578885 203.504838 
L 393.69125 202.004713 
L 393.719164 202.004713 
L 393.859748 199.004463 
L 393.887667 199.004463 
L 393.972031 197.504338 
L 394.084348 199.004463 
L 394.140616 199.004463 
L 394.280848 202.004713 
L 394.449351 202.004713 
L 394.562032 203.504838 
L 394.589811 203.504838 
L 394.646104 205.004963 
L 394.674025 203.504838 
L 394.73019 203.504838 
L 394.842528 202.004713 
L 394.87083 202.004713 
L 395.039267 206.505088 
L 395.067549 206.505088 
L 395.179539 208.005213 
L 395.291874 208.005213 
L 395.404212 209.505338 
L 395.572717 209.505338 
L 395.713319 211.005463 
L 395.797392 209.505338 
L 395.93798 212.505588 
L 395.965895 212.505588 
L 396.078235 214.005713 
L 396.471411 214.005713 
L 396.583748 212.505588 
L 396.640252 212.505588 
L 396.83671 209.505338 
L 397.482445 209.505338 
L 397.594779 211.005463 
L 397.623108 211.005463 
L 397.679178 212.505588 
L 397.707435 211.005463 
L 398.072383 211.005463 
L 398.184706 209.505338 
L 398.212633 209.505338 
L 398.465626 214.005713 
L 398.886654 214.005713 
L 399.027243 217.005963 
L 399.111323 217.005963 
L 399.223662 215.505838 
L 399.392167 215.505838 
L 399.476569 217.005963 
L 399.588944 215.505838 
L 399.673011 215.505838 
L 399.785346 214.005713 
L 399.925852 212.505588 
L 400.010016 212.505588 
L 400.122355 214.005713 
L 400.403195 214.005713 
L 400.543792 212.505588 
L 400.65617 212.505588 
L 400.740207 211.005463 
L 400.852543 212.505588 
L 401.105508 217.005963 
L 401.274016 217.005963 
L 401.386297 218.506088 
L 401.723335 218.506088 
L 401.863571 221.506338 
L 401.920057 221.506338 
L 402.060319 223.006463 
L 402.425253 223.006463 
L 402.622045 226.006713 
L 402.734377 226.006713 
L 402.874601 229.006963 
L 403.29604 229.006963 
L 403.408399 227.506838 
L 403.43628 227.506838 
L 403.576743 224.506588 
L 403.604785 224.506588 
L 403.717121 223.006463 
L 403.969987 223.006463 
L 404.110304 226.006713 
L 404.194746 224.506588 
L 404.307122 226.006713 
L 404.363187 226.006713 
L 404.475586 227.506838 
L 404.559645 227.506838 
L 404.700251 226.006713 
L 404.868687 226.006713 
L 404.981109 227.506838 
L 405.233663 227.506838 
L 405.345996 226.006713 
L 405.683008 226.006713 
L 405.823523 229.006963 
L 406.020018 229.006963 
L 406.132352 227.506838 
L 406.385295 227.506838 
L 406.497625 226.006713 
L 407.171557 226.006713 
L 407.311884 223.006463 
L 407.536802 223.006463 
L 407.648892 224.506588 
L 407.677171 224.506588 
L 407.789313 226.006713 
L 407.845566 226.006713 
L 407.873566 227.506838 
L 407.929736 226.006713 
L 408.210575 226.006713 
L 408.351066 229.006963 
L 408.379083 229.006963 
L 408.519658 232.007213 
L 408.659922 232.007213 
L 408.828736 236.507588 
L 408.940759 236.507588 
L 408.996929 238.007713 
L 409.02523 236.507588 
L 409.081374 236.507588 
L 409.193673 238.007713 
L 409.334285 238.007713 
L 409.474552 236.507588 
L 409.614787 236.507588 
L 409.727127 238.007713 
L 409.783295 238.007713 
L 409.89593 236.507588 
L 410.232642 236.507588 
L 410.373174 239.507838 
L 410.401441 239.507838 
L 410.541775 241.007963 
L 410.569653 241.007963 
L 410.681989 242.508088 
L 410.766412 242.508088 
L 410.878765 241.007963 
L 411.131341 241.007963 
L 411.299842 236.507588 
L 411.580683 236.507588 
L 411.665111 235.007463 
L 411.805363 238.007713 
L 411.833599 238.007713 
L 411.945876 239.507838 
L 411.974079 239.507838 
L 412.114413 241.007963 
L 412.198537 241.007963 
L 412.339197 244.008213 
L 412.395313 244.008213 
L 412.479382 245.508338 
L 412.61995 244.008213 
L 412.760223 244.008213 
L 412.92873 239.507838 
L 412.957014 239.507838 
L 413.097237 236.507588 
L 413.153402 236.507588 
L 413.294018 239.507838 
L 413.40637 239.507838 
L 413.518686 238.007713 
L 413.995928 238.007713 
L 414.108577 236.507588 
L 414.136339 236.507588 
L 414.248741 238.007713 
L 414.445278 238.007713 
L 414.501447 236.507588 
L 414.529674 238.007713 
L 415.006963 238.007713 
L 415.119301 236.507588 
L 415.259849 238.007713 
L 415.316038 238.007713 
L 415.343975 239.507838 
L 415.400141 238.007713 
L 416.017997 238.007713 
L 416.130334 239.507838 
L 416.186502 239.507838 
L 416.327072 238.007713 
L 416.383169 238.007713 
L 416.495655 236.507588 
L 416.860522 236.507588 
L 416.972861 235.007463 
L 417.394297 235.007463 
L 417.618977 227.506838 
L 417.64688 227.506838 
L 417.815666 223.006463 
L 418.012056 223.006463 
L 418.124456 221.506338 
L 418.292944 221.506338 
L 418.405224 220.006213 
L 418.433238 220.006213 
L 418.57379 217.005963 
L 418.601744 217.005963 
L 418.714081 218.506088 
L 418.770249 218.506088 
L 418.910689 215.505838 
L 419.051091 215.505838 
L 419.191703 212.505588 
L 419.219595 212.505588 
L 419.360201 209.505338 
L 419.388362 209.505338 
L 419.640965 205.004963 
L 419.668943 205.004963 
L 419.837445 200.504588 
L 419.865704 200.504588 
L 420.090401 193.003963 
L 420.118284 193.003963 
L 420.286782 181.002963 
L 420.567613 152.500588 
L 420.764382 146.500088 
L 420.820564 146.500088 
L 420.961124 149.500338 
L 421.073122 144.999963 
L 421.185455 137.499338 
L 421.213679 138.999463 
L 421.353959 144.999963 
L 421.382221 143.499838 
L 421.466297 134.499088 
L 421.663022 110.497088 
L 421.71924 114.997463 
L 421.859472 120.997963 
L 421.887691 120.997963 
L 422.617785 84.994963 
L 422.674039 86.495088 
L 422.70199 84.994963 
L 422.730219 84.994963 
L 422.870494 80.494588 
L 422.898774 80.494588 
L 423.011077 77.494338 
L 423.095459 78.994463 
L 423.179541 77.494338 
L 423.460396 90.995463 
L 423.488334 89.495338 
L 423.51658 89.495338 
L 423.713009 83.494838 
L 423.741167 83.494838 
L 423.96594 96.995963 
L 424.078238 93.995713 
L 424.162669 96.995963 
L 424.190466 95.495838 
L 424.218516 95.495838 
L 424.443186 102.996463 
L 424.499354 102.996463 
L 424.668086 93.995713 
L 424.695928 96.995963 
L 424.808444 96.995963 
L 424.920808 99.996213 
L 425.117205 78.994463 
L 425.173374 80.494588 
L 425.285708 78.994463 
L 425.482457 86.495088 
L 425.819444 72.993963 
L 425.847388 72.993963 
L 425.931767 75.994213 
L 425.959721 74.494088 
L 426.044071 74.494088 
L 426.156522 77.494338 
L 426.324908 65.493338 
L 426.381147 69.993713 
L 426.465234 72.993963 
L 426.493518 71.493838 
L 426.633735 68.493588 
L 426.858408 84.994963 
L 426.998999 72.993963 
L 427.251582 56.492588 
L 427.560691 68.493588 
L 427.785348 60.992963 
L 427.925597 68.493588 
L 427.953851 66.993463 
L 428.037931 60.992963 
L 428.094097 62.493088 
L 428.206436 63.993213 
L 428.234599 63.993213 
L 428.31877 59.492838 
L 428.571687 77.494338 
L 428.796403 90.995463 
L 429.077231 101.496338 
L 429.105118 99.996213 
L 429.161284 101.496338 
L 429.189583 101.496338 
L 429.329791 98.496088 
L 429.386256 98.496088 
L 429.582778 101.496338 
L 429.638874 101.496338 
L 429.835302 107.496838 
L 430.003806 107.496838 
L 430.144334 110.497088 
L 430.172308 110.497088 
L 430.200555 111.997213 
L 430.256719 110.497088 
L 430.312852 110.497088 
L 430.396983 111.997213 
L 430.453463 110.497088 
L 430.846324 122.498088 
L 431.042966 132.998963 
L 431.2395 138.999463 
L 431.323869 138.999463 
L 431.464174 141.999713 
L 431.520519 141.999713 
L 431.829352 154.000713 
L 431.969684 154.000713 
L 432.16646 148.000213 
L 432.306694 148.000213 
L 432.475197 161.501338 
L 432.671943 173.502338 
L 432.69987 173.502338 
L 432.924543 181.002963 
L 432.952799 181.002963 
L 433.093348 184.003213 
L 433.177408 184.003213 
L 433.289833 185.503338 
L 433.345962 185.503338 
L 433.486221 188.503588 
L 433.59856 188.503588 
L 433.710896 190.003713 
L 433.739164 188.503588 
L 433.795281 190.003713 
L 433.823233 190.003713 
L 433.935567 191.503838 
L 434.076095 191.503838 
L 434.104073 193.003963 
L 434.160517 191.503838 
L 434.497249 191.503838 
L 434.60959 193.003963 
L 435.087156 193.003963 
L 435.227652 196.004213 
L 435.311846 196.004213 
L 435.424177 197.504338 
L 435.733131 197.504338 
L 435.789119 199.004463 
L 435.817309 197.504338 
L 435.84529 197.504338 
L 435.873476 199.004463 
L 435.929764 197.504338 
L 436.013795 197.504338 
L 436.126129 199.004463 
L 436.238466 199.004463 
L 436.379025 200.504588 
L 436.463139 200.504588 
L 436.575472 202.004713 
L 436.603716 202.004713 
L 436.659899 203.504838 
L 436.687812 202.004713 
L 437.24949 202.004713 
L 437.361824 203.504838 
L 437.670934 203.504838 
L 437.783245 205.004963 
L 437.979676 205.004963 
L 438.09201 203.504838 
L 438.176455 203.504838 
L 438.316682 206.505088 
L 438.485185 206.505088 
L 438.597524 208.005213 
L 438.653688 208.005213 
L 438.766025 209.505338 
L 438.990697 209.505338 
L 439.103036 211.005463 
L 439.412181 211.005463 
L 439.580631 215.505838 
L 439.861452 215.505838 
L 440.001723 212.505588 
L 440.170229 212.505588 
L 440.282565 214.005713 
L 440.394899 214.005713 
L 440.507518 212.505588 
L 440.619575 212.505588 
L 440.731911 211.005463 
L 440.788076 211.005463 
L 440.816326 212.505588 
L 440.872494 211.005463 
L 441.349763 211.005463 
L 441.462096 209.505338 
L 441.518263 209.505338 
L 441.658849 211.005463 
L 442.02378 211.005463 
L 442.136115 212.505588 
L 442.473123 212.505588 
L 442.585459 211.005463 
L 443.371817 211.005463 
L 443.512395 214.005713 
L 443.568599 214.005713 
L 443.73699 218.506088 
L 443.793198 218.506088 
L 443.933498 221.506338 
L 444.017934 221.506338 
L 444.045837 220.006213 
L 444.102005 221.506338 
L 444.158174 221.506338 
L 444.242453 223.006463 
L 444.354954 221.506338 
L 444.382845 221.506338 
L 444.495184 223.006463 
L 444.776025 223.006463 
L 444.916639 226.006713 
L 445.056863 226.006713 
L 445.197432 229.006963 
L 445.281525 229.006963 
L 445.393878 230.507088 
L 445.927636 230.507088 
L 446.039992 232.007213 
L 446.096172 232.007213 
L 446.208498 230.507088 
L 446.517241 230.507088 
L 446.629578 232.007213 
L 446.685748 232.007213 
L 446.798085 233.507338 
L 446.96659 233.507338 
L 447.078927 235.007463 
L 447.247432 235.007463 
L 447.359985 236.507588 
L 447.668911 230.507088 
L 447.78116 230.507088 
L 447.865282 232.007213 
L 447.921685 232.007213 
L 448.033787 233.507338 
L 448.314628 233.507338 
L 448.427255 235.007463 
L 448.511326 235.007463 
L 448.623695 233.507338 
L 448.679887 233.507338 
L 448.736109 235.007463 
L 448.763975 233.507338 
L 448.848404 233.507338 
L 448.932481 232.007213 
L 449.269492 232.007213 
L 449.381826 233.507338 
L 449.578546 233.507338 
L 449.690891 235.007463 
L 449.77501 235.007463 
L 449.803272 236.507588 
L 449.859414 235.007463 
L 449.943513 235.007463 
L 450 233.507338 
L 450 233.507338 
" clip-path="url(#pa907873a5a)" style="fill: none; stroke: #1f77b4; stroke-width: 1.5; stroke-linecap: square"/>
   </g>
   <g id="patch_3">
    <path d="M 46.46 279.561175 
L 46.46 25.44 
" style="fill: none; stroke: #000000; stroke-width: 0.8; stroke-linejoin: miter; stroke-linecap: square"/>
   </g>
   <g id="patch_4">
    <path d="M 450 279.561175 
L 450 25.44 
" style="fill: none; stroke: #000000; stroke-width: 0.8; stroke-linejoin: miter; stroke-linecap: square"/>
   </g>
   <g id="patch_5">
    <path d="M 46.46 279.561175 
L 450 279.561175 
" style="fill: none; stroke: #000000; stroke-width: 0.8; stroke-linejoin: miter; stroke-linecap: square"/>
   </g>
   <g id="patch_6">
    <path d="M 46.46 25.44 
L 450 25.44 
" style="fill: none; stroke: #000000; stroke-width: 0.8; stroke-linejoin: miter; stroke-linecap: square"/>
   </g>
   <g id="text_17">
    <!-- November 2023 -->
    <g transform="translate(199.838125 19.44) scale(0.12 -0.12)">
     <defs>
      <path id="DejaVuSans-4e" d="M 628 4666 
L 1478 4666 
L 3547 763 
L 3547 4666 
L 4159 4666 
L 4159 0 
L 3309 0 
L 1241 3903 
L 1241 0 
L 628 0 
L 628 4666 
z
" transform="scale(0.015625)"/>
      <path id="DejaVuSans-6f" d="M 1959 3097 
Q 1497 3097 1228 2736 
Q 959 2375 959 1747 
Q 959 1119 1226 758 
Q 1494 397 1959 397 
Q 2419 397 2687 759 
Q 2956 1122 2956 1747 
Q 2956 2369 2687 2733 
Q 2419 3097 1959 3097 
z
M 1959 3584 
Q 2709 3584 3137 3096 
Q 3566 2609 3566 1747 
Q 3566 888 3137 398 
Q 2709 -91 1959 -91 
Q 1206 -91 779 398 
Q 353 888 353 1747 
Q 353 2609 779 3096 
Q 1206 3584 1959 3584 
z
" transform="scale(0.015625)"/>
      <path id="DejaVuSans-76" d="M 191 3500 
L 800 3500 
L 1894 563 
L 2988 3500 
L 3597 3500 
L 2284 0 
L 1503 0 
L 191 3500 
z
" transform="scale(0.015625)"/>
      <path id="DejaVuSans-62" d="M 3116 1747 
Q 3116 2381 2855 2742 
Q 2594 3103 2138 3103 
Q 1681 3103 1420 2742 
Q 1159 2381 1159 1747 
Q 1159 1113 1420 752 
Q 1681 391 2138 391 
Q 2594 391 2855 752 
Q 3116 1113 3116 1747 
z
M 1159 2969 
Q 1341 3281 1617 3432 
Q 1894 3584 2278 3584 
Q 2916 3584 3314 3078 
Q 3713 2572 3713 1747 
Q 3713 922 3314 415 
Q 2916 -91 2278 -91 
Q 1894 -91 1617 61 
Q 1341 213 1159 525 
L 1159 0 
L 581 0 
L 581 4863 
L 1159 4863 
L 1159 2969 
z
" transform="scale(0.015625)"/>
     </defs>
     <use xlink:href="#DejaVuSans-4e"/>
     <use xlink:href="#DejaVuSans-6f" x="74.804688"/>
     <use xlink:href="#DejaVuSans-76" x="135.986328"/>
     <use xlink:href="#DejaVuSans-65" x="195.166016"/>
     <use xlink:href="#DejaVuSans-6d" x="256.689453"/>
     <use xlink:href="#DejaVuSans-62" x="354.101562"/>
     <use xlink:href="#DejaVuSans-65" x="417.578125"/>
     <use xlink:href="#DejaVuSans-72" x="479.101562"/>
     <use xlink:href="#DejaVuSans-20" x="520.214844"/>
     <use xlink:href="#DejaVuSans-32" x="552.001953"/>
     <use xlink:href="#DejaVuSans-30" x="615.625"/>
     <use xlink:href="#DejaVuSans-32" x="679.248047"/>
     <use xlink:href="#DejaVuSans-33" x="742.871094"/>
    </g>
   </g>
  </g>
 </g>
 <defs>
  <clipPath id="pa907873a5a">
   <rect x="46.46" y="25.44" width="403.54" height="254.121175"/>
  </clipPath>
 </defs>
</svg>
