<?xml version="1.0" encoding="utf-8" standalone="no"?>
<!DOCTYPE svg PUBLIC "-//W3C//DTD SVG 1.1//EN"
  "http://www.w3.org/Graphics/SVG/1.1/DTD/svg11.dtd">
<svg xmlns:xlink="http://www.w3.org/1999/xlink" width="460.8pt" height="345.6pt" viewBox="0 0 460.8 345.6" xmlns="http://www.w3.org/2000/svg" version="1.1">
 <metadata>
  <rdf:RDF xmlns:dc="http://purl.org/dc/elements/1.1/" xmlns:cc="http://creativecommons.org/ns#" xmlns:rdf="http://www.w3.org/1999/02/22-rdf-syntax-ns#">
   <cc:Work>
    <dc:type rdf:resource="http://purl.org/dc/dcmitype/StillImage"/>
    <dc:date>2023-11-06T19:09:36.875112</dc:date>
    <dc:format>image/svg+xml</dc:format>
    <dc:creator>
     <cc:Agent>
      <dc:title>Matplotlib v3.6.3, https://matplotlib.org/</dc:title>
     </cc:Agent>
    </dc:creator>
   </cc:Work>
  </rdf:RDF>
 </metadata>
 <defs>
  <style type="text/css">*{stroke-linejoin: round; stroke-linecap: butt}</style>
 </defs>
 <g id="figure_1">
  <g id="patch_1">
   <path d="M 0 345.6 
L 460.8 345.6 
L 460.8 0 
L 0 0 
z
" style="fill: #ffffff"/>
  </g>
  <g id="axes_1">
   <g id="patch_2">
    <path d="M 46.46 279.561175 
L 450 279.561175 
L 450 25.44 
L 46.46 25.44 
z
" style="fill: #ffffff"/>
   </g>
   <g id="matplotlib.axis_1">
    <g id="xtick_1">
     <g id="line2d_1">
      <path d="M 116.032843 279.561175 
L 116.032843 25.44 
" clip-path="url(#p41bcc60dd0)" style="fill: none; stroke: #b0b0b0; stroke-width: 0.8; stroke-linecap: square"/>
     </g>
     <g id="line2d_2">
      <defs>
       <path id="m18561518b9" d="M 0 0 
L 0 3.5 
" style="stroke: #000000; stroke-width: 0.8"/>
      </defs>
      <g>
       <use xlink:href="#m18561518b9" x="116.032843" y="279.561175" style="stroke: #000000; stroke-width: 0.8"/>
      </g>
     </g>
     <g id="text_1">
      <!-- 2023-11-02 -->
      <g transform="translate(73.46833 333.028035) rotate(-45) scale(0.1 -0.1)">
       <defs>
        <path id="DejaVuSans-32" d="M 1228 531 
L 3431 531 
L 3431 0 
L 469 0 
L 469 531 
Q 828 903 1448 1529 
Q 2069 2156 2228 2338 
Q 2531 2678 2651 2914 
Q 2772 3150 2772 3378 
Q 2772 3750 2511 3984 
Q 2250 4219 1831 4219 
Q 1534 4219 1204 4116 
Q 875 4013 500 3803 
L 500 4441 
Q 881 4594 1212 4672 
Q 1544 4750 1819 4750 
Q 2544 4750 2975 4387 
Q 3406 4025 3406 3419 
Q 3406 3131 3298 2873 
Q 3191 2616 2906 2266 
Q 2828 2175 2409 1742 
Q 1991 1309 1228 531 
z
" transform="scale(0.015625)"/>
        <path id="DejaVuSans-30" d="M 2034 4250 
Q 1547 4250 1301 3770 
Q 1056 3291 1056 2328 
Q 1056 1369 1301 889 
Q 1547 409 2034 409 
Q 2525 409 2770 889 
Q 3016 1369 3016 2328 
Q 3016 3291 2770 3770 
Q 2525 4250 2034 4250 
z
M 2034 4750 
Q 2819 4750 3233 4129 
Q 3647 3509 3647 2328 
Q 3647 1150 3233 529 
Q 2819 -91 2034 -91 
Q 1250 -91 836 529 
Q 422 1150 422 2328 
Q 422 3509 836 4129 
Q 1250 4750 2034 4750 
z
" transform="scale(0.015625)"/>
        <path id="DejaVuSans-33" d="M 2597 2516 
Q 3050 2419 3304 2112 
Q 3559 1806 3559 1356 
Q 3559 666 3084 287 
Q 2609 -91 1734 -91 
Q 1441 -91 1130 -33 
Q 819 25 488 141 
L 488 750 
Q 750 597 1062 519 
Q 1375 441 1716 441 
Q 2309 441 2620 675 
Q 2931 909 2931 1356 
Q 2931 1769 2642 2001 
Q 2353 2234 1838 2234 
L 1294 2234 
L 1294 2753 
L 1863 2753 
Q 2328 2753 2575 2939 
Q 2822 3125 2822 3475 
Q 2822 3834 2567 4026 
Q 2313 4219 1838 4219 
Q 1578 4219 1281 4162 
Q 984 4106 628 3988 
L 628 4550 
Q 988 4650 1302 4700 
Q 1616 4750 1894 4750 
Q 2613 4750 3031 4423 
Q 3450 4097 3450 3541 
Q 3450 3153 3228 2886 
Q 3006 2619 2597 2516 
z
" transform="scale(0.015625)"/>
        <path id="DejaVuSans-2d" d="M 313 2009 
L 1997 2009 
L 1997 1497 
L 313 1497 
L 313 2009 
z
" transform="scale(0.015625)"/>
        <path id="DejaVuSans-31" d="M 794 531 
L 1825 531 
L 1825 4091 
L 703 3866 
L 703 4441 
L 1819 4666 
L 2450 4666 
L 2450 531 
L 3481 531 
L 3481 0 
L 794 0 
L 794 531 
z
" transform="scale(0.015625)"/>
       </defs>
       <use xlink:href="#DejaVuSans-32"/>
       <use xlink:href="#DejaVuSans-30" x="63.623047"/>
       <use xlink:href="#DejaVuSans-32" x="127.246094"/>
       <use xlink:href="#DejaVuSans-33" x="190.869141"/>
       <use xlink:href="#DejaVuSans-2d" x="254.492188"/>
       <use xlink:href="#DejaVuSans-31" x="290.576172"/>
       <use xlink:href="#DejaVuSans-31" x="354.199219"/>
       <use xlink:href="#DejaVuSans-2d" x="417.822266"/>
       <use xlink:href="#DejaVuSans-30" x="453.90625"/>
       <use xlink:href="#DejaVuSans-32" x="517.529297"/>
      </g>
     </g>
    </g>
    <g id="xtick_2">
     <g id="line2d_3">
      <path d="M 185.64272 279.561175 
L 185.64272 25.44 
" clip-path="url(#p41bcc60dd0)" style="fill: none; stroke: #b0b0b0; stroke-width: 0.8; stroke-linecap: square"/>
     </g>
     <g id="line2d_4">
      <g>
       <use xlink:href="#m18561518b9" x="185.64272" y="279.561175" style="stroke: #000000; stroke-width: 0.8"/>
      </g>
     </g>
     <g id="text_2">
      <!-- 2023-11-03 -->
      <g transform="translate(143.078206 333.028035) rotate(-45) scale(0.1 -0.1)">
       <use xlink:href="#DejaVuSans-32"/>
       <use xlink:href="#DejaVuSans-30" x="63.623047"/>
       <use xlink:href="#DejaVuSans-32" x="127.246094"/>
       <use xlink:href="#DejaVuSans-33" x="190.869141"/>
       <use xlink:href="#DejaVuSans-2d" x="254.492188"/>
       <use xlink:href="#DejaVuSans-31" x="290.576172"/>
       <use xlink:href="#DejaVuSans-31" x="354.199219"/>
       <use xlink:href="#DejaVuSans-2d" x="417.822266"/>
       <use xlink:href="#DejaVuSans-30" x="453.90625"/>
       <use xlink:href="#DejaVuSans-33" x="517.529297"/>
      </g>
     </g>
    </g>
    <g id="xtick_3">
     <g id="line2d_5">
      <path d="M 255.252596 279.561175 
L 255.252596 25.44 
" clip-path="url(#p41bcc60dd0)" style="fill: none; stroke: #b0b0b0; stroke-width: 0.8; stroke-linecap: square"/>
     </g>
     <g id="line2d_6">
      <g>
       <use xlink:href="#m18561518b9" x="255.252596" y="279.561175" style="stroke: #000000; stroke-width: 0.8"/>
      </g>
     </g>
     <g id="text_3">
      <!-- 2023-11-04 -->
      <g transform="translate(212.688082 333.028035) rotate(-45) scale(0.1 -0.1)">
       <defs>
        <path id="DejaVuSans-34" d="M 2419 4116 
L 825 1625 
L 2419 1625 
L 2419 4116 
z
M 2253 4666 
L 3047 4666 
L 3047 1625 
L 3713 1625 
L 3713 1100 
L 3047 1100 
L 3047 0 
L 2419 0 
L 2419 1100 
L 313 1100 
L 313 1709 
L 2253 4666 
z
" transform="scale(0.015625)"/>
       </defs>
       <use xlink:href="#DejaVuSans-32"/>
       <use xlink:href="#DejaVuSans-30" x="63.623047"/>
       <use xlink:href="#DejaVuSans-32" x="127.246094"/>
       <use xlink:href="#DejaVuSans-33" x="190.869141"/>
       <use xlink:href="#DejaVuSans-2d" x="254.492188"/>
       <use xlink:href="#DejaVuSans-31" x="290.576172"/>
       <use xlink:href="#DejaVuSans-31" x="354.199219"/>
       <use xlink:href="#DejaVuSans-2d" x="417.822266"/>
       <use xlink:href="#DejaVuSans-30" x="453.90625"/>
       <use xlink:href="#DejaVuSans-34" x="517.529297"/>
      </g>
     </g>
    </g>
    <g id="xtick_4">
     <g id="line2d_7">
      <path d="M 324.862472 279.561175 
L 324.862472 25.44 
" clip-path="url(#p41bcc60dd0)" style="fill: none; stroke: #b0b0b0; stroke-width: 0.8; stroke-linecap: square"/>
     </g>
     <g id="line2d_8">
      <g>
       <use xlink:href="#m18561518b9" x="324.862472" y="279.561175" style="stroke: #000000; stroke-width: 0.8"/>
      </g>
     </g>
     <g id="text_4">
      <!-- 2023-11-05 -->
      <g transform="translate(282.297958 333.028035) rotate(-45) scale(0.1 -0.1)">
       <defs>
        <path id="DejaVuSans-35" d="M 691 4666 
L 3169 4666 
L 3169 4134 
L 1269 4134 
L 1269 2991 
Q 1406 3038 1543 3061 
Q 1681 3084 1819 3084 
Q 2600 3084 3056 2656 
Q 3513 2228 3513 1497 
Q 3513 744 3044 326 
Q 2575 -91 1722 -91 
Q 1428 -91 1123 -41 
Q 819 9 494 109 
L 494 744 
Q 775 591 1075 516 
Q 1375 441 1709 441 
Q 2250 441 2565 725 
Q 2881 1009 2881 1497 
Q 2881 1984 2565 2268 
Q 2250 2553 1709 2553 
Q 1456 2553 1204 2497 
Q 953 2441 691 2322 
L 691 4666 
z
" transform="scale(0.015625)"/>
       </defs>
       <use xlink:href="#DejaVuSans-32"/>
       <use xlink:href="#DejaVuSans-30" x="63.623047"/>
       <use xlink:href="#DejaVuSans-32" x="127.246094"/>
       <use xlink:href="#DejaVuSans-33" x="190.869141"/>
       <use xlink:href="#DejaVuSans-2d" x="254.492188"/>
       <use xlink:href="#DejaVuSans-31" x="290.576172"/>
       <use xlink:href="#DejaVuSans-31" x="354.199219"/>
       <use xlink:href="#DejaVuSans-2d" x="417.822266"/>
       <use xlink:href="#DejaVuSans-30" x="453.90625"/>
       <use xlink:href="#DejaVuSans-35" x="517.529297"/>
      </g>
     </g>
    </g>
    <g id="xtick_5">
     <g id="line2d_9">
      <path d="M 394.472348 279.561175 
L 394.472348 25.44 
" clip-path="url(#p41bcc60dd0)" style="fill: none; stroke: #b0b0b0; stroke-width: 0.8; stroke-linecap: square"/>
     </g>
     <g id="line2d_10">
      <g>
       <use xlink:href="#m18561518b9" x="394.472348" y="279.561175" style="stroke: #000000; stroke-width: 0.8"/>
      </g>
     </g>
     <g id="text_5">
      <!-- 2023-11-06 -->
      <g transform="translate(351.907835 333.028035) rotate(-45) scale(0.1 -0.1)">
       <defs>
        <path id="DejaVuSans-36" d="M 2113 2584 
Q 1688 2584 1439 2293 
Q 1191 2003 1191 1497 
Q 1191 994 1439 701 
Q 1688 409 2113 409 
Q 2538 409 2786 701 
Q 3034 994 3034 1497 
Q 3034 2003 2786 2293 
Q 2538 2584 2113 2584 
z
M 3366 4563 
L 3366 3988 
Q 3128 4100 2886 4159 
Q 2644 4219 2406 4219 
Q 1781 4219 1451 3797 
Q 1122 3375 1075 2522 
Q 1259 2794 1537 2939 
Q 1816 3084 2150 3084 
Q 2853 3084 3261 2657 
Q 3669 2231 3669 1497 
Q 3669 778 3244 343 
Q 2819 -91 2113 -91 
Q 1303 -91 875 529 
Q 447 1150 447 2328 
Q 447 3434 972 4092 
Q 1497 4750 2381 4750 
Q 2619 4750 2861 4703 
Q 3103 4656 3366 4563 
z
" transform="scale(0.015625)"/>
       </defs>
       <use xlink:href="#DejaVuSans-32"/>
       <use xlink:href="#DejaVuSans-30" x="63.623047"/>
       <use xlink:href="#DejaVuSans-32" x="127.246094"/>
       <use xlink:href="#DejaVuSans-33" x="190.869141"/>
       <use xlink:href="#DejaVuSans-2d" x="254.492188"/>
       <use xlink:href="#DejaVuSans-31" x="290.576172"/>
       <use xlink:href="#DejaVuSans-31" x="354.199219"/>
       <use xlink:href="#DejaVuSans-2d" x="417.822266"/>
       <use xlink:href="#DejaVuSans-30" x="453.90625"/>
       <use xlink:href="#DejaVuSans-36" x="517.529297"/>
      </g>
     </g>
    </g>
   </g>
   <g id="matplotlib.axis_2">
    <g id="ytick_1">
     <g id="line2d_11">
      <path d="M 46.46 253.008963 
L 450 253.008963 
" clip-path="url(#p41bcc60dd0)" style="fill: none; stroke: #b0b0b0; stroke-width: 0.8; stroke-linecap: square"/>
     </g>
     <g id="line2d_12">
      <defs>
       <path id="m196dcaa853" d="M 0 0 
L -3.5 0 
" style="stroke: #000000; stroke-width: 0.8"/>
      </defs>
      <g>
       <use xlink:href="#m196dcaa853" x="46.46" y="253.008963" style="stroke: #000000; stroke-width: 0.8"/>
      </g>
     </g>
     <g id="text_6">
      <!-- 0 -->
      <g transform="translate(33.0975 256.808182) scale(0.1 -0.1)">
       <use xlink:href="#DejaVuSans-30"/>
      </g>
     </g>
    </g>
    <g id="ytick_2">
     <g id="line2d_13">
      <path d="M 46.46 223.006463 
L 450 223.006463 
" clip-path="url(#p41bcc60dd0)" style="fill: none; stroke: #b0b0b0; stroke-width: 0.8; stroke-linecap: square"/>
     </g>
     <g id="line2d_14">
      <g>
       <use xlink:href="#m196dcaa853" x="46.46" y="223.006463" style="stroke: #000000; stroke-width: 0.8"/>
      </g>
     </g>
     <g id="text_7">
      <!-- 2 -->
      <g transform="translate(33.0975 226.805682) scale(0.1 -0.1)">
       <use xlink:href="#DejaVuSans-32"/>
      </g>
     </g>
    </g>
    <g id="ytick_3">
     <g id="line2d_15">
      <path d="M 46.46 193.003963 
L 450 193.003963 
" clip-path="url(#p41bcc60dd0)" style="fill: none; stroke: #b0b0b0; stroke-width: 0.8; stroke-linecap: square"/>
     </g>
     <g id="line2d_16">
      <g>
       <use xlink:href="#m196dcaa853" x="46.46" y="193.003963" style="stroke: #000000; stroke-width: 0.8"/>
      </g>
     </g>
     <g id="text_8">
      <!-- 4 -->
      <g transform="translate(33.0975 196.803182) scale(0.1 -0.1)">
       <use xlink:href="#DejaVuSans-34"/>
      </g>
     </g>
    </g>
    <g id="ytick_4">
     <g id="line2d_17">
      <path d="M 46.46 163.001463 
L 450 163.001463 
" clip-path="url(#p41bcc60dd0)" style="fill: none; stroke: #b0b0b0; stroke-width: 0.8; stroke-linecap: square"/>
     </g>
     <g id="line2d_18">
      <g>
       <use xlink:href="#m196dcaa853" x="46.46" y="163.001463" style="stroke: #000000; stroke-width: 0.8"/>
      </g>
     </g>
     <g id="text_9">
      <!-- 6 -->
      <g transform="translate(33.0975 166.800681) scale(0.1 -0.1)">
       <use xlink:href="#DejaVuSans-36"/>
      </g>
     </g>
    </g>
    <g id="ytick_5">
     <g id="line2d_19">
      <path d="M 46.46 132.998963 
L 450 132.998963 
" clip-path="url(#p41bcc60dd0)" style="fill: none; stroke: #b0b0b0; stroke-width: 0.8; stroke-linecap: square"/>
     </g>
     <g id="line2d_20">
      <g>
       <use xlink:href="#m196dcaa853" x="46.46" y="132.998963" style="stroke: #000000; stroke-width: 0.8"/>
      </g>
     </g>
     <g id="text_10">
      <!-- 8 -->
      <g transform="translate(33.0975 136.798181) scale(0.1 -0.1)">
       <defs>
        <path id="DejaVuSans-38" d="M 2034 2216 
Q 1584 2216 1326 1975 
Q 1069 1734 1069 1313 
Q 1069 891 1326 650 
Q 1584 409 2034 409 
Q 2484 409 2743 651 
Q 3003 894 3003 1313 
Q 3003 1734 2745 1975 
Q 2488 2216 2034 2216 
z
M 1403 2484 
Q 997 2584 770 2862 
Q 544 3141 544 3541 
Q 544 4100 942 4425 
Q 1341 4750 2034 4750 
Q 2731 4750 3128 4425 
Q 3525 4100 3525 3541 
Q 3525 3141 3298 2862 
Q 3072 2584 2669 2484 
Q 3125 2378 3379 2068 
Q 3634 1759 3634 1313 
Q 3634 634 3220 271 
Q 2806 -91 2034 -91 
Q 1263 -91 848 271 
Q 434 634 434 1313 
Q 434 1759 690 2068 
Q 947 2378 1403 2484 
z
M 1172 3481 
Q 1172 3119 1398 2916 
Q 1625 2713 2034 2713 
Q 2441 2713 2670 2916 
Q 2900 3119 2900 3481 
Q 2900 3844 2670 4047 
Q 2441 4250 2034 4250 
Q 1625 4250 1398 4047 
Q 1172 3844 1172 3481 
z
" transform="scale(0.015625)"/>
       </defs>
       <use xlink:href="#DejaVuSans-38"/>
      </g>
     </g>
    </g>
    <g id="ytick_6">
     <g id="line2d_21">
      <path d="M 46.46 102.996463 
L 450 102.996463 
" clip-path="url(#p41bcc60dd0)" style="fill: none; stroke: #b0b0b0; stroke-width: 0.8; stroke-linecap: square"/>
     </g>
     <g id="line2d_22">
      <g>
       <use xlink:href="#m196dcaa853" x="46.46" y="102.996463" style="stroke: #000000; stroke-width: 0.8"/>
      </g>
     </g>
     <g id="text_11">
      <!-- 10 -->
      <g transform="translate(26.735 106.795681) scale(0.1 -0.1)">
       <use xlink:href="#DejaVuSans-31"/>
       <use xlink:href="#DejaVuSans-30" x="63.623047"/>
      </g>
     </g>
    </g>
    <g id="ytick_7">
     <g id="line2d_23">
      <path d="M 46.46 72.993963 
L 450 72.993963 
" clip-path="url(#p41bcc60dd0)" style="fill: none; stroke: #b0b0b0; stroke-width: 0.8; stroke-linecap: square"/>
     </g>
     <g id="line2d_24">
      <g>
       <use xlink:href="#m196dcaa853" x="46.46" y="72.993963" style="stroke: #000000; stroke-width: 0.8"/>
      </g>
     </g>
     <g id="text_12">
      <!-- 12 -->
      <g transform="translate(26.735 76.793181) scale(0.1 -0.1)">
       <use xlink:href="#DejaVuSans-31"/>
       <use xlink:href="#DejaVuSans-32" x="63.623047"/>
      </g>
     </g>
    </g>
    <g id="ytick_8">
     <g id="line2d_25">
      <path d="M 46.46 42.991463 
L 450 42.991463 
" clip-path="url(#p41bcc60dd0)" style="fill: none; stroke: #b0b0b0; stroke-width: 0.8; stroke-linecap: square"/>
     </g>
     <g id="line2d_26">
      <g>
       <use xlink:href="#m196dcaa853" x="46.46" y="42.991463" style="stroke: #000000; stroke-width: 0.8"/>
      </g>
     </g>
     <g id="text_13">
      <!-- 14 -->
      <g transform="translate(26.735 46.790681) scale(0.1 -0.1)">
       <use xlink:href="#DejaVuSans-31"/>
       <use xlink:href="#DejaVuSans-34" x="63.623047"/>
      </g>
     </g>
    </g>
    <g id="text_14">
     <!-- Temperature [°C] -->
     <g transform="translate(20.655313 199.072463) rotate(-90) scale(0.1 -0.1)">
      <defs>
       <path id="DejaVuSans-54" d="M -19 4666 
L 3928 4666 
L 3928 4134 
L 2272 4134 
L 2272 0 
L 1638 0 
L 1638 4134 
L -19 4134 
L -19 4666 
z
" transform="scale(0.015625)"/>
       <path id="DejaVuSans-65" d="M 3597 1894 
L 3597 1613 
L 953 1613 
Q 991 1019 1311 708 
Q 1631 397 2203 397 
Q 2534 397 2845 478 
Q 3156 559 3463 722 
L 3463 178 
Q 3153 47 2828 -22 
Q 2503 -91 2169 -91 
Q 1331 -91 842 396 
Q 353 884 353 1716 
Q 353 2575 817 3079 
Q 1281 3584 2069 3584 
Q 2775 3584 3186 3129 
Q 3597 2675 3597 1894 
z
M 3022 2063 
Q 3016 2534 2758 2815 
Q 2500 3097 2075 3097 
Q 1594 3097 1305 2825 
Q 1016 2553 972 2059 
L 3022 2063 
z
" transform="scale(0.015625)"/>
       <path id="DejaVuSans-6d" d="M 3328 2828 
Q 3544 3216 3844 3400 
Q 4144 3584 4550 3584 
Q 5097 3584 5394 3201 
Q 5691 2819 5691 2113 
L 5691 0 
L 5113 0 
L 5113 2094 
Q 5113 2597 4934 2840 
Q 4756 3084 4391 3084 
Q 3944 3084 3684 2787 
Q 3425 2491 3425 1978 
L 3425 0 
L 2847 0 
L 2847 2094 
Q 2847 2600 2669 2842 
Q 2491 3084 2119 3084 
Q 1678 3084 1418 2786 
Q 1159 2488 1159 1978 
L 1159 0 
L 581 0 
L 581 3500 
L 1159 3500 
L 1159 2956 
Q 1356 3278 1631 3431 
Q 1906 3584 2284 3584 
Q 2666 3584 2933 3390 
Q 3200 3197 3328 2828 
z
" transform="scale(0.015625)"/>
       <path id="DejaVuSans-70" d="M 1159 525 
L 1159 -1331 
L 581 -1331 
L 581 3500 
L 1159 3500 
L 1159 2969 
Q 1341 3281 1617 3432 
Q 1894 3584 2278 3584 
Q 2916 3584 3314 3078 
Q 3713 2572 3713 1747 
Q 3713 922 3314 415 
Q 2916 -91 2278 -91 
Q 1894 -91 1617 61 
Q 1341 213 1159 525 
z
M 3116 1747 
Q 3116 2381 2855 2742 
Q 2594 3103 2138 3103 
Q 1681 3103 1420 2742 
Q 1159 2381 1159 1747 
Q 1159 1113 1420 752 
Q 1681 391 2138 391 
Q 2594 391 2855 752 
Q 3116 1113 3116 1747 
z
" transform="scale(0.015625)"/>
       <path id="DejaVuSans-72" d="M 2631 2963 
Q 2534 3019 2420 3045 
Q 2306 3072 2169 3072 
Q 1681 3072 1420 2755 
Q 1159 2438 1159 1844 
L 1159 0 
L 581 0 
L 581 3500 
L 1159 3500 
L 1159 2956 
Q 1341 3275 1631 3429 
Q 1922 3584 2338 3584 
Q 2397 3584 2469 3576 
Q 2541 3569 2628 3553 
L 2631 2963 
z
" transform="scale(0.015625)"/>
       <path id="DejaVuSans-61" d="M 2194 1759 
Q 1497 1759 1228 1600 
Q 959 1441 959 1056 
Q 959 750 1161 570 
Q 1363 391 1709 391 
Q 2188 391 2477 730 
Q 2766 1069 2766 1631 
L 2766 1759 
L 2194 1759 
z
M 3341 1997 
L 3341 0 
L 2766 0 
L 2766 531 
Q 2569 213 2275 61 
Q 1981 -91 1556 -91 
Q 1019 -91 701 211 
Q 384 513 384 1019 
Q 384 1609 779 1909 
Q 1175 2209 1959 2209 
L 2766 2209 
L 2766 2266 
Q 2766 2663 2505 2880 
Q 2244 3097 1772 3097 
Q 1472 3097 1187 3025 
Q 903 2953 641 2809 
L 641 3341 
Q 956 3463 1253 3523 
Q 1550 3584 1831 3584 
Q 2591 3584 2966 3190 
Q 3341 2797 3341 1997 
z
" transform="scale(0.015625)"/>
       <path id="DejaVuSans-74" d="M 1172 4494 
L 1172 3500 
L 2356 3500 
L 2356 3053 
L 1172 3053 
L 1172 1153 
Q 1172 725 1289 603 
Q 1406 481 1766 481 
L 2356 481 
L 2356 0 
L 1766 0 
Q 1100 0 847 248 
Q 594 497 594 1153 
L 594 3053 
L 172 3053 
L 172 3500 
L 594 3500 
L 594 4494 
L 1172 4494 
z
" transform="scale(0.015625)"/>
       <path id="DejaVuSans-75" d="M 544 1381 
L 544 3500 
L 1119 3500 
L 1119 1403 
Q 1119 906 1312 657 
Q 1506 409 1894 409 
Q 2359 409 2629 706 
Q 2900 1003 2900 1516 
L 2900 3500 
L 3475 3500 
L 3475 0 
L 2900 0 
L 2900 538 
Q 2691 219 2414 64 
Q 2138 -91 1772 -91 
Q 1169 -91 856 284 
Q 544 659 544 1381 
z
M 1991 3584 
L 1991 3584 
z
" transform="scale(0.015625)"/>
       <path id="DejaVuSans-20" transform="scale(0.015625)"/>
       <path id="DejaVuSans-5b" d="M 550 4863 
L 1875 4863 
L 1875 4416 
L 1125 4416 
L 1125 -397 
L 1875 -397 
L 1875 -844 
L 550 -844 
L 550 4863 
z
" transform="scale(0.015625)"/>
       <path id="DejaVuSans-c2" d="M 2188 4044 
L 1331 1722 
L 3047 1722 
L 2188 4044 
z
M 1831 4666 
L 2547 4666 
L 4325 0 
L 3669 0 
L 3244 1197 
L 1141 1197 
L 716 0 
L 50 0 
L 1831 4666 
z
M 1894 5941 
L 2481 5941 
L 3141 5110 
L 2706 5110 
L 2188 5666 
L 1669 5110 
L 1234 5110 
L 1894 5941 
z
" transform="scale(0.015625)"/>
       <path id="DejaVuSans-b0" d="M 1600 4347 
Q 1350 4347 1178 4173 
Q 1006 4000 1006 3750 
Q 1006 3503 1178 3333 
Q 1350 3163 1600 3163 
Q 1850 3163 2022 3333 
Q 2194 3503 2194 3750 
Q 2194 3997 2020 4172 
Q 1847 4347 1600 4347 
z
M 1600 4750 
Q 1800 4750 1984 4673 
Q 2169 4597 2303 4453 
Q 2447 4313 2519 4134 
Q 2591 3956 2591 3750 
Q 2591 3338 2302 3052 
Q 2013 2766 1594 2766 
Q 1172 2766 890 3047 
Q 609 3328 609 3750 
Q 609 4169 896 4459 
Q 1184 4750 1600 4750 
z
" transform="scale(0.015625)"/>
       <path id="DejaVuSans-43" d="M 4122 4306 
L 4122 3641 
Q 3803 3938 3442 4084 
Q 3081 4231 2675 4231 
Q 1875 4231 1450 3742 
Q 1025 3253 1025 2328 
Q 1025 1406 1450 917 
Q 1875 428 2675 428 
Q 3081 428 3442 575 
Q 3803 722 4122 1019 
L 4122 359 
Q 3791 134 3420 21 
Q 3050 -91 2638 -91 
Q 1578 -91 968 557 
Q 359 1206 359 2328 
Q 359 3453 968 4101 
Q 1578 4750 2638 4750 
Q 3056 4750 3426 4639 
Q 3797 4528 4122 4306 
z
" transform="scale(0.015625)"/>
       <path id="DejaVuSans-5d" d="M 1947 4863 
L 1947 -844 
L 622 -844 
L 622 -397 
L 1369 -397 
L 1369 4416 
L 622 4416 
L 622 4863 
L 1947 4863 
z
" transform="scale(0.015625)"/>
      </defs>
      <use xlink:href="#DejaVuSans-54"/>
      <use xlink:href="#DejaVuSans-65" x="44.083984"/>
      <use xlink:href="#DejaVuSans-6d" x="105.607422"/>
      <use xlink:href="#DejaVuSans-70" x="203.019531"/>
      <use xlink:href="#DejaVuSans-65" x="266.496094"/>
      <use xlink:href="#DejaVuSans-72" x="328.019531"/>
      <use xlink:href="#DejaVuSans-61" x="369.132812"/>
      <use xlink:href="#DejaVuSans-74" x="430.412109"/>
      <use xlink:href="#DejaVuSans-75" x="469.621094"/>
      <use xlink:href="#DejaVuSans-72" x="533"/>
      <use xlink:href="#DejaVuSans-65" x="571.863281"/>
      <use xlink:href="#DejaVuSans-20" x="633.386719"/>
      <use xlink:href="#DejaVuSans-5b" x="665.173828"/>
      <use xlink:href="#DejaVuSans-c2" x="704.1875"/>
      <use xlink:href="#DejaVuSans-b0" x="772.595703"/>
      <use xlink:href="#DejaVuSans-43" x="822.595703"/>
      <use xlink:href="#DejaVuSans-5d" x="892.419922"/>
     </g>
    </g>
   </g>
   <g id="line2d_27">
    <path d="M 46.46 188.503588 
L 46.498514 188.503588 
L 46.653199 191.503838 
L 46.962576 191.503838 
L 47.040406 193.003963 
L 47.349291 193.003963 
L 47.465567 194.504088 
L 47.581323 193.003963 
L 48.122729 193.003963 
L 48.277413 190.003713 
L 48.316234 190.003713 
L 48.470993 187.003463 
L 48.509913 187.003463 
L 48.664131 188.503588 
L 48.896166 188.503588 
L 49.012443 190.003713 
L 49.399101 190.003713 
L 49.476403 191.503838 
L 49.592258 190.003713 
L 49.824287 190.003713 
L 49.940495 191.503838 
L 50.404538 191.503838 
L 50.52038 190.003713 
L 50.868606 190.003713 
L 50.984446 191.503838 
L 51.13913 191.503838 
L 51.255315 193.003963 
L 51.56471 193.003963 
L 51.680534 194.504088 
L 51.71942 193.003963 
L 51.75788 194.504088 
L 51.951503 194.504088 
L 52.067254 196.004213 
L 52.145052 194.504088 
L 52.260732 194.504088 
L 52.376632 193.003963 
L 52.415519 193.003963 
L 52.531315 194.504088 
L 52.570192 194.504088 
L 52.686004 196.004213 
L 52.84069 196.004213 
L 52.995381 194.504088 
L 53.072726 194.504088 
L 53.111639 193.003963 
L 53.150071 194.504088 
L 53.536784 194.504088 
L 53.614601 196.004213 
L 54.078192 196.004213 
L 54.194386 194.504088 
L 54.967857 194.504088 
L 55.122347 197.504338 
L 55.199864 197.504338 
L 55.315694 199.004463 
L 56.011789 199.004463 
L 56.127997 197.504338 
L 56.398502 197.504338 
L 56.475846 199.004463 
L 56.55367 199.004463 
L 56.707874 202.004713 
L 56.978798 202.004713 
L 57.133455 199.004463 
L 57.674921 199.004463 
L 57.79069 197.504338 
L 58.216257 197.504338 
L 58.332094 199.004463 
L 58.370987 199.004463 
L 58.48678 200.504588 
L 58.564129 200.504588 
L 58.641471 199.004463 
L 58.796153 200.504588 
L 58.873498 200.504588 
L 58.989761 202.004713 
L 59.144395 199.004463 
L 59.260221 199.004463 
L 59.415385 202.004713 
L 59.49225 202.004713 
L 59.646939 205.004963 
L 59.724283 205.004963 
L 59.840507 206.505088 
L 60.110994 206.505088 
L 60.343029 203.504838 
L 60.381914 203.504838 
L 60.497716 202.004713 
L 60.536593 202.004713 
L 60.691282 205.004963 
L 61.07801 205.004963 
L 61.232698 202.004713 
L 61.271156 202.004713 
L 61.42584 199.004463 
L 61.464718 199.004463 
L 61.580531 197.504338 
L 61.657862 197.504338 
L 61.774032 196.004213 
L 61.812562 196.004213 
L 61.928778 194.504088 
L 61.967245 194.504088 
L 62.083523 196.004213 
L 62.199277 196.004213 
L 62.276621 197.504338 
L 62.354425 197.504338 
L 62.470159 199.004463 
L 62.740683 199.004463 
L 62.895373 202.004713 
L 62.934297 202.004713 
L 63.050504 203.504838 
L 63.127401 203.504838 
L 63.282088 200.504588 
L 63.320971 200.504588 
L 63.47566 197.504338 
L 63.746151 197.504338 
L 63.900838 199.004463 
L 64.094363 199.004463 
L 64.132869 200.504588 
L 64.171785 199.004463 
L 64.24911 199.004463 
L 64.403796 196.004213 
L 64.481133 196.004213 
L 64.596931 197.504338 
L 64.674507 197.504338 
L 64.790504 199.004463 
L 64.983653 199.004463 
L 65.138341 202.004713 
L 65.215681 202.004713 
L 65.409287 206.505088 
L 65.602398 206.505088 
L 65.718643 208.005213 
L 65.795984 208.005213 
L 65.911773 211.005463 
L 66.027794 211.005463 
L 66.143801 212.505588 
L 66.492071 212.505588 
L 66.60787 214.005713 
L 66.646762 214.005713 
L 66.762556 215.505838 
L 66.917241 215.505838 
L 67.033379 214.005713 
L 67.110833 214.005713 
L 67.226616 215.505838 
L 67.381307 215.505838 
L 67.690679 211.005463 
L 67.806957 212.505588 
L 67.961622 209.505338 
L 68.270898 209.505338 
L 68.386774 211.005463 
L 68.657711 211.005463 
L 68.773491 209.505338 
L 68.966919 209.505338 
L 69.160214 205.004963 
L 69.276474 205.004963 
L 69.469587 200.504588 
L 69.508554 200.504588 
L 69.624722 199.004463 
L 69.740456 199.004463 
L 69.933649 194.504088 
L 70.127219 199.004463 
L 70.320849 199.004463 
L 70.513956 188.503588 
L 71.442114 123.998213 
L 71.557862 122.498088 
L 71.596723 122.498088 
L 71.75147 116.497588 
L 71.906045 119.497838 
L 72.060667 116.497588 
L 72.099265 116.497588 
L 72.215549 117.997713 
L 72.292882 117.997713 
L 72.485983 108.996963 
L 72.679518 104.496588 
L 72.718013 104.496588 
L 72.988872 96.995963 
L 73.027383 96.995963 
L 73.18207 93.995713 
L 73.298092 93.995713 
L 73.414099 96.995963 
L 73.685083 89.495338 
L 73.839753 89.495338 
L 74.226399 71.493838 
L 74.264877 72.993963 
L 74.574244 104.496588 
L 74.651588 105.996713 
L 74.729255 105.996713 
L 74.88362 108.996963 
L 75.425501 84.994963 
L 75.541193 81.994713 
L 75.657053 84.994963 
L 75.773355 83.494838 
L 75.811738 83.494838 
L 76.43048 104.496588 
L 76.50782 104.496588 
L 76.662508 95.495838 
L 76.894873 84.994963 
L 77.088025 80.494588 
L 77.126572 80.494588 
L 77.242839 81.994713 
L 77.358601 81.994713 
L 78.01629 104.496588 
L 78.170952 101.496338 
L 78.209369 101.496338 
L 78.286713 102.996463 
L 78.364046 102.996463 
L 78.750772 114.997463 
L 78.789676 114.997463 
L 78.905454 113.497338 
L 78.982801 113.497338 
L 79.137488 111.997213 
L 79.176341 111.997213 
L 79.640456 96.995963 
L 79.756573 96.995963 
L 79.910917 99.996213 
L 79.949856 98.496088 
L 79.988259 99.996213 
L 80.027213 99.996213 
L 80.297631 90.995463 
L 80.336555 92.495588 
L 80.374978 90.995463 
L 80.413961 90.995463 
L 80.68435 77.494338 
L 80.91638 71.493838 
L 80.993727 71.493838 
L 81.264411 78.994463 
L 81.419427 75.994213 
L 81.457781 75.994213 
L 81.689807 86.495088 
L 81.728788 86.495088 
L 81.922301 92.495588 
L 82.037948 92.495588 
L 82.153864 90.995463 
L 82.308547 90.995463 
L 82.424758 92.495588 
L 82.463237 92.495588 
L 82.695649 86.495088 
L 82.733973 86.495088 
L 82.888883 83.494838 
L 83.198248 92.495588 
L 83.236669 92.495588 
L 83.352952 93.995713 
L 83.391747 93.995713 
L 83.546039 95.495838 
L 83.662318 93.995713 
L 83.700726 95.495838 
L 83.739672 93.995713 
L 83.778069 93.995713 
L 83.932754 90.995463 
L 84.087441 90.995463 
L 84.242125 95.495838 
L 84.358354 93.995713 
L 84.396812 93.995713 
L 84.590384 89.495338 
L 84.62884 89.495338 
L 84.783528 93.995713 
L 85.015559 93.995713 
L 85.20915 89.495338 
L 85.286359 89.495338 
L 85.441157 86.495088 
L 85.479616 86.495088 
L 85.788991 77.494338 
L 86.253051 77.494338 
L 86.330753 75.994213 
L 86.446637 77.494338 
L 86.485082 77.494338 
L 86.833361 87.995213 
L 86.87179 87.995213 
L 87.026993 90.995463 
L 87.142661 90.995463 
L 87.258506 92.495588 
L 87.490538 95.495838 
L 87.684195 95.495838 
L 87.799909 93.995713 
L 87.916197 93.995713 
L 88.031939 92.495588 
L 88.148271 92.495588 
L 88.263967 90.995463 
L 88.418654 90.995463 
L 88.573341 92.495588 
L 88.612225 92.495588 
L 88.728027 93.995713 
L 88.766972 93.995713 
L 88.882715 95.495838 
L 88.921636 95.495838 
L 89.037402 96.995963 
L 89.153676 96.995963 
L 89.308247 99.996213 
L 89.346772 99.996213 
L 89.84974 116.497588 
L 90.081787 116.497588 
L 90.197548 114.997463 
L 90.50692 114.997463 
L 90.700295 119.497838 
L 90.73895 119.497838 
L 90.89364 122.498088 
L 91.009922 122.498088 
L 91.125672 123.998213 
L 91.512389 123.998213 
L 91.628698 125.498338 
L 91.706088 125.498338 
L 91.860704 128.498588 
L 91.976448 128.498588 
L 92.131595 131.498838 
L 92.169859 131.498838 
L 92.324791 134.499088 
L 92.402158 134.499088 
L 92.595196 138.999463 
L 92.634018 138.999463 
L 92.788885 141.999713 
L 92.82759 141.999713 
L 92.9434 143.499838 
L 93.020883 143.499838 
L 93.136599 144.999963 
L 93.213944 144.999963 
L 93.330141 146.500088 
L 93.445973 146.500088 
L 93.523786 148.000213 
L 93.716938 148.000213 
L 93.832691 149.500338 
L 93.948822 149.500338 
L 94.064721 151.000463 
L 94.451446 151.000463 
L 94.567816 152.500588 
L 94.993281 152.500588 
L 95.070196 154.000713 
L 95.108994 152.500588 
L 95.147539 154.000713 
L 95.920977 154.000713 
L 96.037257 155.500838 
L 96.462877 155.500838 
L 96.578558 154.000713 
L 96.694408 154.000713 
L 96.771755 152.500588 
L 96.810721 154.000713 
L 96.849094 152.500588 
L 96.965423 152.500588 
L 97.081127 154.000713 
L 97.42948 154.000713 
L 97.545185 155.500838 
L 97.584138 155.500838 
L 97.699873 154.000713 
L 97.970603 154.000713 
L 98.009247 152.500588 
L 98.048118 154.000713 
L 98.473305 154.000713 
L 98.589645 152.500588 
L 98.937368 152.500588 
L 99.053718 154.000713 
L 99.208423 154.000713 
L 99.324083 155.500838 
L 99.672367 155.500838 
L 99.788142 154.000713 
L 99.94283 154.000713 
L 100.059108 155.500838 
L 100.40689 155.500838 
L 100.523233 154.000713 
L 101.064655 154.000713 
L 101.180323 155.500838 
L 101.335008 155.500838 
L 101.451231 154.000713 
L 101.721727 154.000713 
L 101.838009 155.500838 
L 102.185787 155.500838 
L 102.263502 157.000963 
L 102.804532 157.000963 
L 102.920816 158.501088 
L 104.58343 158.501088 
L 104.699685 160.001213 
L 105.627869 160.001213 
L 105.743576 161.501338 
L 106.439665 161.501338 
L 106.555995 160.001213 
L 107.368176 160.001213 
L 107.483985 161.501338 
L 107.793418 161.501338 
L 107.909186 160.001213 
L 108.75996 160.001213 
L 108.914647 161.501338 
L 109.030909 160.001213 
L 110.577826 160.001213 
L 110.693542 161.501338 
L 111.080256 161.501338 
L 111.196559 160.001213 
L 111.853693 160.001213 
L 111.970078 161.501338 
L 112.124679 161.501338 
L 112.240411 160.001213 
L 113.091189 160.001213 
L 113.207204 161.501338 
L 114.135555 161.501338 
L 114.251343 163.001463 
L 117.306619 163.001463 
L 117.422418 164.501588 
L 117.500161 164.501588 
L 117.654452 163.001463 
L 117.770712 163.001463 
L 117.886483 164.501588 
L 117.925387 164.501588 
L 118.04117 163.001463 
L 119.123984 163.001463 
L 119.240193 161.501338 
L 119.278672 161.501338 
L 119.394944 163.001463 
L 122.991172 163.001463 
L 123.107477 161.501338 
L 132.46596 161.501338 
L 132.581752 163.001463 
L 133.587215 163.001463 
L 133.703558 161.501338 
L 134.167518 161.501338 
L 134.283302 163.001463 
L 134.863713 163.001463 
L 134.979831 164.501588 
L 137.222347 164.501588 
L 137.338684 166.001713 
L 137.609064 166.001713 
L 137.725398 164.501588 
L 139.233272 164.501588 
L 139.38796 166.001713 
L 139.504289 166.001713 
L 139.619988 164.501588 
L 139.736332 164.501588 
L 139.774677 166.001713 
L 139.813689 164.501588 
L 142.675333 164.501588 
L 142.791074 166.001713 
L 142.946208 166.001713 
L 143.100449 164.501588 
L 145.614381 164.501588 
L 145.730117 166.001713 
L 145.769096 166.001713 
L 145.807459 164.501588 
L 145.962143 166.001713 
L 146.039489 166.001713 
L 146.155696 164.501588 
L 146.658234 164.501588 
L 146.774561 163.001463 
L 147.780034 163.001463 
L 147.89573 161.501338 
L 148.321324 161.501338 
L 148.437138 160.001213 
L 149.40427 160.001213 
L 149.520367 158.501088 
L 150.370721 158.501088 
L 150.486961 160.001213 
L 150.602756 160.001213 
L 150.719039 158.501088 
L 151.608222 158.501088 
L 151.724259 160.001213 
L 152.382049 160.001213 
L 152.536352 161.501338 
L 153.7355 161.501338 
L 153.851611 160.001213 
L 154.199459 160.001213 
L 154.315259 161.501338 
L 154.624638 161.501338 
L 154.740869 160.001213 
L 155.321128 160.001213 
L 155.436855 161.501338 
L 159.033203 161.501338 
L 159.149399 163.001463 
L 161.740223 163.001463 
L 161.817927 164.501588 
L 162.3205 164.501588 
L 162.436312 166.001713 
L 162.513655 166.001713 
L 162.668341 167.501838 
L 162.861921 167.501838 
L 163.016652 170.502088 
L 163.055056 170.502088 
L 163.441772 182.503088 
L 163.519118 182.503088 
L 163.673801 185.503338 
L 163.712803 185.503338 
L 163.867437 188.503588 
L 163.944842 188.503588 
L 164.099282 191.503838 
L 164.215211 191.503838 
L 164.331514 193.003963 
L 164.486167 193.003963 
L 164.640827 196.004213 
L 164.795307 196.004213 
L 164.911297 197.504338 
L 164.988647 197.504338 
L 165.104982 199.004463 
L 165.143333 199.004463 
L 165.259646 200.504588 
L 165.336917 200.504588 
L 165.45318 202.004713 
L 165.607391 203.504838 
L 165.684736 203.504838 
L 165.801019 205.004963 
L 165.994116 205.004963 
L 166.110333 206.505088 
L 166.303483 206.505088 
L 166.419745 208.005213 
L 167.193103 208.005213 
L 167.308956 209.505338 
L 167.3863 209.505338 
L 167.502648 208.005213 
L 167.850362 208.005213 
L 167.966685 206.505088 
L 168.237078 206.505088 
L 168.31443 205.004963 
L 168.662597 205.004963 
L 168.77849 203.504838 
L 169.049438 203.504838 
L 169.165205 202.004713 
L 169.513521 202.004713 
L 169.629267 200.504588 
L 169.668168 200.504588 
L 169.783957 199.004463 
L 170.054888 199.004463 
L 170.170675 197.504338 
L 170.402704 197.504338 
L 170.518904 196.004213 
L 170.789427 196.004213 
L 170.905741 194.504088 
L 170.944117 194.504088 
L 171.060309 193.003963 
L 171.949577 193.003963 
L 172.065602 191.503838 
L 172.181612 191.503838 
L 172.297964 190.003713 
L 172.375232 190.003713 
L 172.490989 188.503588 
L 172.800366 188.503588 
L 172.916658 187.003463 
L 173.109736 187.003463 
L 173.22609 185.503338 
L 173.419107 185.503338 
L 173.573798 184.003213 
L 174.888642 184.003213 
L 175.043331 182.503088 
L 175.159665 182.503088 
L 175.27536 181.002963 
L 175.739423 181.002963 
L 175.855738 179.502838 
L 175.933047 179.502838 
L 176.048794 178.002713 
L 176.358623 178.002713 
L 176.512856 176.502588 
L 178.059728 176.502588 
L 178.176071 178.002713 
L 178.330704 178.002713 
L 178.44644 176.502588 
L 178.949349 176.502588 
L 179.065193 175.002463 
L 179.181442 175.002463 
L 179.297693 176.502588 
L 179.413415 176.502588 
L 179.529249 175.002463 
L 180.109438 175.002463 
L 180.22534 173.502338 
L 180.457372 173.502338 
L 180.573723 175.002463 
L 180.61206 175.002463 
L 180.689404 173.502338 
L 180.844086 173.502338 
L 181.037738 169.001963 
L 181.192361 169.001963 
L 181.308149 170.502088 
L 181.347134 170.502088 
L 181.463273 172.002213 
L 181.811178 172.002213 
L 182.004241 167.501838 
L 182.158931 167.501838 
L 182.313622 169.001963 
L 182.42996 169.001963 
L 182.545648 170.502088 
L 182.622992 170.502088 
L 182.739328 172.002213 
L 182.816649 172.002213 
L 182.93273 173.502338 
L 183.126037 173.502338 
L 183.24174 175.002463 
L 184.556577 175.002463 
L 184.672853 173.502338 
L 184.78861 173.502338 
L 184.943298 170.502088 
L 184.982279 170.502088 
L 185.098492 169.001963 
L 185.175325 169.001963 
L 185.330013 166.001713 
L 185.368968 166.001713 
L 185.484702 164.501588 
L 185.755675 164.501588 
L 185.871418 166.001713 
L 186.026109 166.001713 
L 186.142424 167.501838 
L 186.180791 166.001713 
L 186.219786 167.501838 
L 186.567993 167.501838 
L 186.683715 169.001963 
L 186.838462 169.001963 
L 186.954229 170.502088 
L 187.070567 170.502088 
L 187.186262 172.002213 
L 187.457254 172.002213 
L 187.572979 173.502338 
L 191.247156 173.502338 
L 191.362813 172.002213 
L 191.479067 173.502338 
L 191.865855 173.502338 
L 191.981563 175.002463 
L 192.832341 175.002463 
L 192.948672 176.502588 
L 192.987025 176.502588 
L 193.064373 175.002463 
L 194.224522 175.002463 
L 194.340843 176.502588 
L 194.534321 176.502588 
L 194.688588 175.002463 
L 194.843272 175.002463 
L 194.959512 173.502338 
L 195.036873 173.502338 
L 195.152644 175.002463 
L 195.887667 175.002463 
L 196.003844 173.502338 
L 196.197066 173.502338 
L 196.235457 172.002213 
L 196.274353 173.502338 
L 196.351733 173.502338 
L 196.429058 172.002213 
L 196.506434 173.502338 
L 196.622173 172.002213 
L 197.125204 172.002213 
L 197.240923 173.502338 
L 197.859671 173.502338 
L 197.975895 175.002463 
L 198.285192 175.002463 
L 198.401075 176.502588 
L 198.555767 176.502588 
L 198.672048 178.002713 
L 199.290846 178.002713 
L 199.406548 179.502838 
L 200.025294 179.502838 
L 200.141616 181.002963 
L 201.185448 181.002963 
L 201.340128 184.003213 
L 201.417474 184.003213 
L 201.572161 187.003463 
L 201.610983 187.003463 
L 201.726848 188.503588 
L 201.765809 188.503588 
L 201.881536 190.003713 
L 201.958881 190.003713 
L 202.075099 191.503838 
L 202.422941 191.503838 
L 202.500285 193.003963 
L 202.732318 193.003963 
L 202.887003 196.004213 
L 203.003309 196.004213 
L 203.119032 197.504338 
L 203.157966 197.504338 
L 203.274209 199.004463 
L 203.428408 199.004463 
L 203.544691 200.504588 
L 203.621938 200.504588 
L 203.737778 202.004713 
L 203.931444 202.004713 
L 204.047151 203.504838 
L 204.511217 203.504838 
L 204.627422 202.004713 
L 204.975276 202.004713 
L 205.091498 200.504588 
L 205.284649 200.504588 
L 205.400902 202.004713 
L 205.67137 202.004713 
L 205.78757 200.504588 
L 207.875898 200.504588 
L 207.991671 202.004713 
L 208.146359 202.004713 
L 208.262677 203.504838 
L 209.151827 203.504838 
L 209.268106 202.004713 
L 209.345411 202.004713 
L 209.383861 203.504838 
L 209.422793 202.004713 
L 209.654758 202.004713 
L 209.770578 200.504588 
L 209.886637 200.504588 
L 210.002608 199.004463 
L 210.041593 199.004463 
L 210.157297 197.504338 
L 210.196325 197.504338 
L 210.350975 194.504088 
L 210.428309 194.504088 
L 210.544451 193.003963 
L 210.621358 193.003963 
L 210.776043 190.003713 
L 210.892314 190.003713 
L 211.008074 188.503588 
L 211.781508 188.503588 
L 211.897793 190.003713 
L 212.554946 190.003713 
L 212.671229 191.503838 
L 213.560416 191.503838 
L 213.715102 188.503588 
L 213.869788 188.503588 
L 213.986119 187.003463 
L 214.256512 187.003463 
L 214.295326 185.503338 
L 214.333852 187.003463 
L 214.565884 187.003463 
L 214.682157 185.503338 
L 214.720574 185.503338 
L 214.836893 184.003213 
L 215.146262 184.003213 
L 215.261985 182.503088 
L 215.455576 182.503088 
L 215.571362 181.002963 
L 215.803391 181.002963 
L 215.91962 179.502838 
L 216.151581 179.502838 
L 216.228976 178.002713 
L 216.267452 179.502838 
L 216.306396 178.002713 
L 216.538301 178.002713 
L 216.654173 176.502588 
L 216.770376 176.502588 
L 216.847753 175.002463 
L 216.963543 176.502588 
L 217.04089 176.502588 
L 217.582289 185.503338 
L 217.621249 185.503338 
L 217.736978 187.003463 
L 218.97448 187.003463 
L 219.090817 188.503588 
L 219.206509 188.503588 
L 219.361198 187.003463 
L 219.632219 187.003463 
L 219.747914 185.503338 
L 219.825257 185.503338 
L 219.941499 184.003213 
L 219.980438 184.003213 
L 220.134628 182.503088 
L 220.17358 182.503088 
L 220.289316 181.002963 
L 220.598693 181.002963 
L 220.676034 179.502838 
L 220.7538 179.502838 
L 220.792088 178.002713 
L 220.830718 179.502838 
L 221.10177 179.502838 
L 221.217438 181.002963 
L 221.643103 181.002963 
L 221.797698 178.002713 
L 222.02983 178.002713 
L 222.145565 176.502588 
L 222.222889 176.502588 
L 222.416499 181.002963 
L 222.609624 181.002963 
L 222.803228 176.502588 
L 222.841651 176.502588 
L 222.996342 173.502338 
L 223.035185 173.502338 
L 223.18993 170.502088 
L 223.499337 170.502088 
L 223.61551 169.001963 
L 223.847116 166.001713 
L 223.886036 166.001713 
L 224.001801 164.501588 
L 224.118054 164.501588 
L 224.233835 163.001463 
L 224.272765 163.001463 
L 224.388944 161.501338 
L 224.620555 161.501338 
L 224.736738 160.001213 
L 224.929924 160.001213 
L 225.046237 161.501338 
L 225.085097 161.501338 
L 225.239299 160.001213 
L 225.316642 160.001213 
L 225.432985 158.501088 
L 225.858041 158.501088 
L 225.974289 157.000963 
L 226.051652 157.000963 
L 226.167417 155.500838 
L 226.32211 158.501088 
L 226.399453 158.501088 
L 226.554591 161.501338 
L 226.592826 161.501338 
L 226.708826 163.001463 
L 226.863515 163.001463 
L 226.940857 161.501338 
L 227.057214 163.001463 
L 227.095544 163.001463 
L 227.250716 166.001713 
L 227.598593 166.001713 
L 227.675804 164.501588 
L 227.791635 166.001713 
L 227.946322 166.001713 
L 228.255696 170.502088 
L 228.33304 170.502088 
L 228.372053 169.001963 
L 228.410386 170.502088 
L 228.52671 170.502088 
L 228.642421 172.002213 
L 228.681411 172.002213 
L 228.835926 169.001963 
L 228.990745 169.001963 
L 229.106482 167.501838 
L 229.261166 167.501838 
L 229.377397 169.001963 
L 229.415855 169.001963 
L 229.647882 172.002213 
L 229.725228 172.002213 
L 229.841482 173.502338 
L 230.343979 173.502338 
L 230.460298 175.002463 
L 230.692336 175.002463 
L 230.808036 176.502588 
L 231.156383 176.502588 
L 231.272098 178.002713 
L 231.50413 178.002713 
L 231.581472 179.502838 
L 232.239207 179.502838 
L 232.355434 181.002963 
L 232.703255 181.002963 
L 232.818964 182.503088 
L 232.896308 182.503088 
L 233.012659 184.003213 
L 233.050998 184.003213 
L 233.205685 185.503338 
L 233.24461 185.503338 
L 233.360371 187.003463 
L 233.592403 187.003463 
L 233.708761 188.503588 
L 233.940634 188.503588 
L 234.056463 190.003713 
L 234.172852 190.003713 
L 234.288496 191.503838 
L 234.404731 191.503838 
L 234.520922 193.003963 
L 234.636658 193.003963 
L 234.752554 194.504088 
L 234.791447 194.504088 
L 234.907248 196.004213 
L 234.984589 196.004213 
L 235.100852 197.504338 
L 235.178278 197.504338 
L 235.294492 199.004463 
L 235.332682 199.004463 
L 235.448654 200.504588 
L 235.603339 200.504588 
L 235.719688 202.004713 
L 235.79705 202.004713 
L 235.912714 203.504838 
L 236.454115 203.504838 
L 236.608804 200.504588 
L 236.686144 200.504588 
L 236.918178 203.504838 
L 237.150212 203.504838 
L 237.266483 205.004963 
L 237.343747 205.004963 
L 237.459972 206.505088 
L 237.498267 206.505088 
L 237.614271 208.005213 
L 237.691616 208.005213 
L 237.807926 209.505338 
L 237.8463 209.505338 
L 237.962512 211.005463 
L 238.156075 211.005463 
L 238.310368 212.505588 
L 238.349321 212.505588 
L 238.504019 215.505838 
L 238.5424 215.505838 
L 238.697087 218.506088 
L 238.774426 218.506088 
L 238.851776 220.006213 
L 239.54787 220.006213 
L 239.625668 221.506338 
L 239.741348 221.506338 
L 239.857244 223.006463 
L 239.896035 223.006463 
L 240.011929 221.506338 
L 240.050895 221.506338 
L 240.166616 220.006213 
L 240.205362 220.006213 
L 240.321303 218.506088 
L 240.514824 218.506088 
L 240.630678 220.006213 
L 240.862715 220.006213 
L 240.978909 218.506088 
L 241.404118 218.506088 
L 241.558809 221.506338 
L 241.674989 221.506338 
L 241.791343 223.006463 
L 241.945527 224.506588 
L 242.100213 224.506588 
L 242.216428 226.006713 
L 242.2549 226.006713 
L 242.371075 227.506838 
L 242.40959 227.506838 
L 242.486931 226.006713 
L 242.602972 226.006713 
L 242.796306 221.506338 
L 242.835155 221.506338 
L 242.989835 218.506088 
L 243.105681 220.006213 
L 243.183029 220.006213 
L 243.260814 221.506338 
L 243.376512 221.506338 
L 243.492405 223.006463 
L 243.531246 223.006463 
L 243.647093 224.506588 
L 244.343186 224.506588 
L 244.459399 223.006463 
L 244.536756 223.006463 
L 244.652565 221.506338 
L 244.730435 223.006463 
L 244.884595 221.506338 
L 245.078169 221.506338 
L 245.232767 224.506588 
L 245.348658 224.506588 
L 245.426001 226.006713 
L 245.542101 226.006713 
L 245.658036 227.506838 
L 246.122099 227.506838 
L 246.508815 233.507338 
L 246.740849 233.507338 
L 246.857028 232.007213 
L 246.972878 233.507338 
L 247.011662 233.507338 
L 247.127564 235.007463 
L 247.282254 235.007463 
L 247.398452 236.507588 
L 247.514286 236.507588 
L 247.591626 238.007713 
L 247.746315 236.507588 
L 247.823666 236.507588 
L 247.862531 238.007713 
L 247.901001 236.507588 
L 248.210384 236.507588 
L 248.326607 235.007463 
L 248.829136 235.007463 
L 248.945379 236.507588 
L 249.409459 236.507588 
L 249.564146 233.507338 
L 249.64133 233.507338 
L 249.796189 236.507588 
L 249.989289 236.507588 
L 250.182865 232.007213 
L 250.840069 232.007213 
L 250.95631 233.507338 
L 251.110968 233.507338 
L 251.226796 235.007463 
L 251.381479 236.507588 
L 251.49777 235.007463 
L 251.884519 235.007463 
L 252.00056 233.507338 
L 252.232263 236.507588 
L 252.271223 236.507588 
L 252.425905 239.507838 
L 252.464297 239.507838 
L 252.618985 242.508088 
L 252.657911 242.508088 
L 252.774025 244.008213 
L 252.851023 244.008213 
L 252.96737 245.508338 
L 253.005704 245.508338 
L 253.122056 247.008463 
L 253.276634 247.008463 
L 253.392421 248.508588 
L 253.470144 248.508588 
L 253.701802 251.508838 
L 254.050118 251.508838 
L 254.165868 250.008713 
L 254.359471 250.008713 
L 254.475246 248.508588 
L 254.514166 248.508588 
L 254.629932 250.008713 
L 254.746226 250.008713 
L 254.900871 247.008463 
L 255.016648 247.008463 
L 255.13295 245.508338 
L 255.171342 245.508338 
L 255.287666 244.008213 
L 255.480713 244.008213 
L 255.596904 242.508088 
L 255.635728 242.508088 
L 255.790086 241.007963 
L 256.061103 241.007963 
L 256.215805 244.008213 
L 256.40931 244.008213 
L 256.525059 245.508338 
L 256.95025 245.508338 
L 257.105357 248.508588 
L 257.221081 248.508588 
L 257.375867 251.508838 
L 257.530657 251.508838 
L 257.646352 253.008963 
L 257.801039 253.008963 
L 257.917106 254.509088 
L 258.110413 250.008713 
L 258.187755 250.008713 
L 258.342449 247.008463 
L 258.41979 247.008463 
L 258.497131 248.508588 
L 258.53601 247.008463 
L 258.574881 248.508588 
L 258.651821 248.508588 
L 258.768112 247.008463 
L 258.961197 247.008463 
L 259.077514 248.508588 
L 259.425264 248.508588 
L 259.541523 250.008713 
L 259.6573 250.008713 
L 259.811985 247.008463 
L 260.353396 247.008463 
L 260.469651 245.508338 
L 260.894807 245.508338 
L 261.011114 247.008463 
L 261.088412 247.008463 
L 261.204183 248.508588 
L 261.358865 248.508588 
L 261.513967 245.508338 
L 261.861853 245.508338 
L 261.977625 244.008213 
L 262.171223 244.008213 
L 262.286997 245.508338 
L 262.325784 245.508338 
L 262.480563 248.508588 
L 262.519028 248.508588 
L 262.673717 251.508838 
L 262.905744 251.508838 
L 263.060438 250.008713 
L 263.099339 250.008713 
L 263.215125 251.508838 
L 263.29247 251.508838 
L 263.447152 254.509088 
L 263.524495 254.509088 
L 263.64086 256.009213 
L 263.795361 256.009213 
L 263.91122 257.509338 
L 264.336953 257.509338 
L 264.452629 259.009463 
L 264.491387 259.009463 
L 264.607314 257.509338 
L 264.878308 257.509338 
L 264.994038 256.009213 
L 265.033007 256.009213 
L 265.071383 254.509088 
L 265.226069 256.009213 
L 265.380755 256.009213 
L 265.535446 259.009463 
L 265.767477 259.009463 
L 265.845187 257.509338 
L 266.193122 257.509338 
L 266.386233 253.008963 
L 266.463574 253.008963 
L 266.540919 251.508838 
L 266.656972 251.508838 
L 266.695605 253.008963 
L 266.734446 251.508838 
L 267.043799 251.508838 
L 267.159674 253.008963 
L 267.391706 253.008963 
L 267.507946 251.508838 
L 267.54639 253.008963 
L 267.585297 251.508838 
L 267.972012 251.508838 
L 268.126534 254.509088 
L 268.165147 254.509088 
L 268.397177 260.509588 
L 268.590715 260.509588 
L 268.745439 257.509338 
L 268.861237 257.509338 
L 269.054931 253.008963 
L 269.132304 253.008963 
L 269.24796 251.508838 
L 269.325307 251.508838 
L 269.44166 253.008963 
L 269.557339 253.008963 
L 269.673568 251.508838 
L 269.789367 251.508838 
L 269.905701 253.008963 
L 270.021407 253.008963 
L 270.176092 256.009213 
L 270.369639 256.009213 
L 270.485466 257.509338 
L 270.524329 257.509338 
L 270.679083 254.509088 
L 270.833781 254.509088 
L 270.949931 253.008963 
L 271.413596 253.008963 
L 271.529881 251.508838 
L 271.64563 251.508838 
L 271.800318 253.008963 
L 271.877662 253.008963 
L 272.032348 256.009213 
L 272.109688 256.009213 
L 272.226059 254.509088 
L 272.496413 254.509088 
L 272.612628 256.009213 
L 272.651099 256.009213 
L 272.767445 257.509338 
L 272.883131 257.509338 
L 272.999387 259.009463 
L 273.192489 259.009463 
L 273.308762 257.509338 
L 273.501886 257.509338 
L 273.695551 262.009713 
L 273.733919 262.009713 
L 273.889058 265.009963 
L 274.043295 265.009963 
L 274.159601 266.510088 
L 274.197984 266.510088 
L 274.314214 265.009963 
L 274.352675 265.009963 
L 274.468969 263.509838 
L 274.58501 263.509838 
L 274.739391 265.009963 
L 274.816736 265.009963 
L 274.971426 268.010213 
L 275.474347 268.010213 
L 275.590179 266.510088 
L 275.629057 266.510088 
L 275.78384 263.509838 
L 275.899553 265.009963 
L 275.938272 265.009963 
L 276.054737 263.509838 
L 276.286275 260.509588 
L 276.672997 260.509588 
L 276.750342 259.009463 
L 276.866391 259.009463 
L 276.943906 260.509588 
L 277.05972 259.009463 
L 277.098686 259.009463 
L 277.214405 260.509588 
L 277.369092 260.509588 
L 277.485395 262.009713 
L 277.601129 262.009713 
L 277.717442 263.509838 
L 277.7948 263.509838 
L 277.910503 262.009713 
L 278.02671 263.509838 
L 278.877595 263.509838 
L 279.031975 260.509588 
L 279.070663 260.509588 
L 279.38004 247.008463 
L 280.115083 173.502338 
L 280.308589 166.001713 
L 280.424371 166.001713 
L 280.578999 163.001463 
L 280.617544 163.001463 
L 280.656512 161.501338 
L 281.081601 190.003713 
L 281.275246 185.503338 
L 281.468318 185.503338 
L 281.58459 184.003213 
L 281.661988 184.003213 
L 281.816419 175.002463 
L 282.280664 141.999713 
L 282.628474 167.501838 
L 282.667402 166.001713 
L 282.899482 154.000713 
L 283.131398 141.999713 
L 283.170319 141.999713 
L 283.865965 117.997713 
L 284.059519 122.498088 
L 284.214277 122.498088 
L 284.330023 120.997963 
L 284.562052 131.498838 
L 284.63982 129.998713 
L 284.716739 129.998713 
L 284.833041 128.498588 
L 284.871426 128.498588 
L 285.064971 123.998213 
L 285.103456 123.998213 
L 285.29708 117.997713 
L 285.529077 129.998713 
L 285.644854 129.998713 
L 285.761169 128.498588 
L 285.876881 128.498588 
L 286.263603 116.497588 
L 286.302528 116.497588 
L 286.72766 129.998713 
L 286.882349 129.998713 
L 286.998618 131.498838 
L 287.075978 131.498838 
L 287.617148 108.996963 
L 287.655777 110.497088 
L 287.772065 113.497338 
L 287.849415 111.997213 
L 288.23614 123.998213 
L 288.313171 123.998213 
L 288.700213 107.496838 
L 288.738583 108.996963 
L 289.241532 140.499588 
L 289.318935 140.499588 
L 289.82139 157.000963 
L 289.86025 157.000963 
L 290.014926 154.000713 
L 290.053419 154.000713 
L 290.169717 152.500588 
L 290.208106 152.500588 
L 290.440598 158.501088 
L 290.594822 158.501088 
L 290.788504 154.000713 
L 290.826856 154.000713 
L 290.981544 157.000963 
L 291.058888 157.000963 
L 291.213983 160.001213 
L 291.329811 158.501088 
L 291.368256 158.501088 
L 291.48459 160.001213 
L 291.639234 160.001213 
L 291.754974 161.501338 
L 291.793835 161.501338 
L 291.948321 164.501588 
L 292.064347 164.501588 
L 292.180656 166.001713 
L 292.258008 166.001713 
L 292.683095 152.500588 
L 292.799376 155.500838 
L 293.224502 141.999713 
L 293.379572 141.999713 
L 293.765907 154.000713 
L 293.804644 154.000713 
L 293.959486 157.000963 
L 293.997934 157.000963 
L 294.075668 158.501088 
L 294.384654 154.000713 
L 294.461996 154.000713 
L 294.771368 143.499838 
L 294.849129 143.499838 
L 294.964961 141.999713 
L 295.158085 141.999713 
L 295.390116 148.000213 
L 295.429061 148.000213 
L 295.970516 129.998713 
L 296.008866 129.998713 
L 296.20251 134.499088 
L 296.35701 134.499088 
L 296.627605 141.999713 
L 296.704952 141.999713 
L 296.936983 148.000213 
L 297.091672 149.500338 
L 297.169014 149.500338 
L 297.285241 151.000463 
L 297.594678 151.000463 
L 297.710847 148.000213 
L 297.826565 148.000213 
L 297.942449 146.500088 
L 297.981344 146.500088 
L 298.097137 144.999963 
L 298.40651 144.999963 
L 298.561197 146.500088 
L 298.754804 146.500088 
L 298.870568 148.000213 
L 298.909533 148.000213 
L 299.025256 149.500338 
L 299.141408 149.500338 
L 299.296128 152.500588 
L 299.373516 152.500588 
L 299.489316 154.000713 
L 299.760351 154.000713 
L 299.798687 152.500588 
L 299.837674 154.000713 
L 300.185407 164.501588 
L 300.417439 167.501838 
L 300.533744 167.501838 
L 300.726811 172.002213 
L 300.804154 172.002213 
L 300.920417 173.502338 
L 300.958839 173.502338 
L 301.113526 176.502588 
L 301.152352 176.502588 
L 301.268218 178.002713 
L 301.345984 178.002713 
L 301.500248 179.502838 
L 301.577592 179.502838 
L 301.693888 181.002963 
L 301.732281 181.002963 
L 301.886966 184.003213 
L 302.003249 184.003213 
L 302.119464 185.503338 
L 302.235244 185.503338 
L 302.351027 187.003463 
L 302.428368 187.003463 
L 302.544676 188.503588 
L 302.583054 188.503588 
L 302.699425 190.003713 
L 302.737741 190.003713 
L 302.853752 191.503838 
L 303.936863 191.503838 
L 304.052589 193.003963 
L 304.516648 193.003963 
L 304.632942 194.504088 
L 305.870332 194.504088 
L 305.986178 193.003963 
L 306.063519 194.504088 
L 306.179835 193.003963 
L 306.643768 193.003963 
L 306.759611 194.504088 
L 306.953235 194.504088 
L 307.068986 196.004213 
L 307.10793 196.004213 
L 307.223678 197.504338 
L 307.262441 197.504338 
L 307.378361 199.004463 
L 307.455707 199.004463 
L 307.572062 200.504588 
L 307.649362 200.504588 
L 307.765083 202.004713 
L 308.035944 202.004713 
L 308.151804 203.504838 
L 308.538516 203.504838 
L 308.616246 205.004963 
L 309.002584 205.004963 
L 309.118907 206.505088 
L 309.389676 206.505088 
L 309.505541 208.005213 
L 309.660205 208.005213 
L 309.776018 209.505338 
L 310.549456 209.505338 
L 310.665725 211.005463 
L 312.173674 211.005463 
L 312.251435 212.505588 
L 312.405707 211.005463 
L 312.483051 211.005463 
L 312.599382 212.505588 
L 313.1018 212.505588 
L 313.218124 211.005463 
L 313.527483 211.005463 
L 313.643208 212.505588 
L 313.952581 212.505588 
L 314.107272 214.005713 
L 314.997039 214.005713 
L 315.112742 212.505588 
L 315.344773 212.505588 
L 315.461037 214.005713 
L 316.389171 214.005713 
L 316.504927 215.505838 
L 316.775836 215.505838 
L 316.891643 217.005963 
L 317.008006 217.005963 
L 317.123674 218.506088 
L 317.201017 218.506088 
L 317.317285 220.006213 
L 317.35616 220.006213 
L 317.510402 221.506338 
L 317.587743 221.506338 
L 317.704047 223.006463 
L 317.742431 223.006463 
L 317.897121 226.006713 
L 318.051809 226.006713 
L 318.206496 227.506838 
L 318.786835 227.506838 
L 318.902588 229.006963 
L 318.979936 229.006963 
L 319.134619 232.007213 
L 319.289307 232.007213 
L 319.405611 233.507338 
L 319.443996 233.507338 
L 319.521717 235.007463 
L 319.637448 235.007463 
L 319.75337 236.507588 
L 319.869525 236.507588 
L 319.985404 238.007713 
L 320.062747 238.007713 
L 320.179089 239.507838 
L 320.488385 239.507838 
L 320.604156 241.007963 
L 321.184523 241.007963 
L 321.30025 242.508088 
L 323.040751 242.508088 
L 323.156507 244.008213 
L 323.77526 244.008213 
L 323.852601 242.508088 
L 324.935421 242.508088 
L 325.051684 241.007963 
L 326.869522 241.007963 
L 326.985241 239.507838 
L 328.33855 239.507838 
L 328.454823 238.007713 
L 328.532185 238.007713 
L 328.647929 236.507588 
L 328.802616 236.507588 
L 328.918848 238.007713 
L 329.731148 238.007713 
L 329.885434 236.507588 
L 330.813559 236.507588 
L 330.929828 238.007713 
L 331.354969 238.007713 
L 331.471313 239.507838 
L 331.780643 239.507838 
L 331.896376 241.007963 
L 332.47659 241.007963 
L 332.67012 236.507588 
L 333.05653 236.507588 
L 333.172827 238.007713 
L 333.559512 238.007713 
L 333.675284 236.507588 
L 334.023592 236.507588 
L 334.13977 238.007713 
L 334.294037 238.007713 
L 334.41035 239.507838 
L 334.487645 239.507838 
L 334.603419 241.007963 
L 334.83591 241.007963 
L 334.990131 242.508088 
L 335.531542 242.508088 
L 335.686226 244.008213 
L 335.763572 244.008213 
L 335.879916 245.508338 
L 336.305479 245.508338 
L 336.459671 244.008213 
L 336.498621 244.008213 
L 336.614356 242.508088 
L 336.769044 242.508088 
L 336.885383 244.008213 
L 337.581469 244.008213 
L 337.697174 245.508338 
L 338.083893 245.508338 
L 338.200256 247.008463 
L 339.708118 247.008463 
L 339.824459 245.508338 
L 340.211204 245.508338 
L 340.32687 244.008213 
L 341.293954 244.008213 
L 341.410101 242.508088 
L 341.60331 242.508088 
L 341.719062 241.007963 
L 342.956564 241.007963 
L 343.072849 239.507838 
L 343.497973 239.507838 
L 343.575318 241.007963 
L 344.233032 241.007963 
L 344.31035 242.508088 
L 344.735474 242.508088 
L 344.851666 241.007963 
L 345.044852 241.007963 
L 345.199536 239.507838 
L 345.895634 239.507838 
L 346.011969 238.007713 
L 346.243997 238.007713 
L 346.359698 236.507588 
L 346.514383 236.507588 
L 346.669074 235.007463 
L 346.94013 235.007463 
L 347.055793 233.507338 
L 347.133139 233.507338 
L 347.210482 232.007213 
L 347.442513 232.007213 
L 347.558795 230.507088 
L 348.255005 230.507088 
L 348.370642 229.006963 
L 348.641614 229.006963 
L 348.757749 227.506838 
L 348.834703 227.506838 
L 348.98939 224.506588 
L 349.028209 224.506588 
L 349.144076 223.006463 
L 349.221419 223.006463 
L 349.337712 224.506588 
L 349.530793 224.506588 
L 349.647078 223.006463 
L 349.879125 223.006463 
L 349.994861 221.506338 
L 350.033801 221.506338 
L 350.14955 220.006213 
L 350.304234 218.506088 
L 350.497928 218.506088 
L 350.613611 217.005963 
L 350.652586 217.005963 
L 350.768298 215.505838 
L 351.116608 215.505838 
L 351.271382 218.506088 
L 351.69641 218.506088 
L 351.851111 215.505838 
L 351.890042 215.505838 
L 352.044727 212.505588 
L 352.083142 212.505588 
L 352.23783 209.505338 
L 352.354086 209.505338 
L 352.469859 208.005213 
L 352.85658 208.005213 
L 353.011268 205.004963 
L 353.088864 205.004963 
L 353.320644 202.004713 
L 353.397987 202.004713 
L 353.514323 203.504838 
L 353.630019 203.504838 
L 353.784706 200.504588 
L 353.862568 200.504588 
L 354.016733 197.504338 
L 354.133033 197.504338 
L 354.287696 200.504588 
L 354.365057 200.504588 
L 354.480804 199.004463 
L 354.519736 199.004463 
L 354.635487 197.504338 
L 354.71283 197.504338 
L 354.82898 196.004213 
L 355.022206 196.004213 
L 355.13853 194.504088 
L 355.176888 194.504088 
L 355.370303 190.003713 
L 355.408925 190.003713 
L 355.602559 185.503338 
L 355.757258 185.503338 
L 355.872984 184.003213 
L 355.911955 184.003213 
L 356.028132 182.503088 
L 356.105011 182.503088 
L 356.259698 185.503338 
L 356.298657 185.503338 
L 356.414389 184.003213 
L 356.530539 184.003213 
L 356.646417 182.503088 
L 356.723765 182.503088 
L 356.955793 176.502588 
L 357.226785 169.001963 
L 357.26517 169.001963 
L 357.419852 172.002213 
L 357.574544 173.502338 
L 357.690817 173.502338 
L 357.806573 172.002213 
L 358.077623 172.002213 
L 358.154948 167.501838 
L 358.580008 129.998713 
L 358.61889 129.998713 
L 359.082955 114.997463 
L 359.160361 114.997463 
L 359.430783 123.998213 
L 359.585467 117.997713 
L 359.624455 119.497838 
L 359.663326 119.497838 
L 359.778976 123.998213 
L 360.281557 101.496338 
L 360.590936 84.994963 
L 360.668274 84.994963 
L 360.9003 90.995463 
L 361.132657 80.494588 
L 361.325995 89.495338 
L 361.905761 148.000213 
L 361.94455 148.000213 
L 362.060448 141.999713 
L 362.447164 108.996963 
L 362.486183 107.496838 
L 362.524508 108.996963 
L 362.67919 110.497088 
L 362.718088 110.497088 
L 362.83388 104.496588 
L 362.87288 105.996713 
L 362.988565 107.496838 
L 363.182146 107.496838 
L 363.259619 102.996463 
L 363.568904 78.994463 
L 363.646294 72.993963 
L 363.684658 74.494088 
L 363.994025 90.995463 
L 364.380738 96.995963 
L 364.419675 96.995963 
L 364.612773 101.496338 
L 364.806152 101.496338 
L 364.844803 102.996463 
L 364.883667 101.496338 
L 364.961048 101.496338 
L 365.115772 105.996713 
L 365.23152 104.496588 
L 365.308861 104.496588 
L 366.159639 134.499088 
L 366.236959 134.499088 
L 366.275718 132.998963 
L 366.31432 134.499088 
L 366.353232 134.499088 
L 366.469013 135.999213 
L 366.507904 135.999213 
L 366.739942 141.999713 
L 366.97174 141.999713 
L 367.126679 144.999963 
L 367.165103 144.999963 
L 367.319791 141.999713 
L 367.397131 141.999713 
L 367.551818 138.999463 
L 367.629685 138.999463 
L 367.783847 137.499338 
L 367.861191 137.499338 
L 368.054876 141.999713 
L 368.132195 141.999713 
L 368.247911 143.499838 
L 368.325254 141.999713 
L 368.557283 141.999713 
L 368.71197 144.999963 
L 368.750961 144.999963 
L 368.905641 148.000213 
L 368.943996 148.000213 
L 369.060295 149.500338 
L 369.099138 149.500338 
L 369.253371 151.000463 
L 369.408059 151.000463 
L 369.524287 152.500588 
L 369.601692 152.500588 
L 369.71743 154.000713 
L 370.10415 154.000713 
L 370.220406 155.500838 
L 370.336179 155.500838 
L 370.452405 157.000963 
L 370.839173 157.000963 
L 370.954926 158.501088 
L 371.264698 158.501088 
L 371.41899 160.001213 
L 371.457919 160.001213 
L 371.573675 161.501338 
L 371.728364 161.501338 
L 371.844749 163.001463 
L 371.960393 163.001463 
L 372.115082 164.501588 
L 372.192425 164.501588 
L 372.308719 166.001713 
L 372.424454 166.001713 
L 372.579145 169.001963 
L 372.695405 169.001963 
L 372.81117 170.502088 
L 372.965858 170.502088 
L 373.081969 172.002213 
L 373.391465 172.002213 
L 373.507257 173.502338 
L 373.661952 173.502338 
L 373.778244 175.002463 
L 373.971321 175.002463 
L 374.087643 176.502588 
L 374.319553 176.502588 
L 374.435384 178.002713 
L 374.89994 178.002713 
L 375.054133 179.502838 
L 375.711601 179.502838 
L 375.82757 178.002713 
L 375.982255 178.002713 
L 376.098588 179.502838 
L 376.17595 179.502838 
L 376.291632 178.002713 
L 376.678347 178.002713 
L 376.794595 179.502838 
L 376.833038 179.502838 
L 376.949346 181.002963 
L 376.987724 181.002963 
L 377.065063 182.503088 
L 377.21975 182.503088 
L 377.374439 179.502838 
L 378.68928 179.502838 
L 378.805628 181.002963 
L 379.540059 181.002963 
L 379.65642 179.502838 
L 379.926776 179.502838 
L 380.004599 178.002713 
L 380.158805 178.002713 
L 380.275129 176.502588 
L 380.932245 176.502588 
L 381.048566 175.002463 
L 381.125962 175.002463 
L 381.203133 173.502338 
L 381.318964 175.002463 
L 381.705679 175.002463 
L 381.821896 176.502588 
L 382.05405 176.502588 
L 382.170213 178.002713 
L 382.518115 178.002713 
L 382.633802 179.502838 
L 382.672817 179.502838 
L 382.788493 181.002963 
L 382.981887 181.002963 
L 383.097862 179.502838 
L 383.291395 179.502838 
L 383.40724 181.002963 
L 383.561926 181.002963 
L 383.63974 182.503088 
L 383.793955 182.503088 
L 383.910243 184.003213 
L 384.14231 184.003213 
L 384.297006 187.003463 
L 384.335358 187.003463 
L 384.56739 190.003713 
L 384.606272 190.003713 
L 384.722079 191.503838 
L 384.760823 191.503838 
L 384.876763 193.003963 
L 384.993036 193.003963 
L 385.109292 194.504088 
L 385.147474 194.504088 
L 385.302448 197.504338 
L 386.655671 197.504338 
L 386.771942 196.004213 
L 386.965043 196.004213 
L 387.081364 194.504088 
L 387.777389 194.504088 
L 387.893169 193.003963 
L 388.202541 193.003963 
L 388.318804 191.503838 
L 388.357228 191.503838 
L 388.666604 187.003463 
L 388.937549 187.003463 
L 389.053319 185.503338 
L 389.362694 185.503338 
L 389.440429 184.003213 
L 389.826758 184.003213 
L 389.943039 185.503338 
L 390.832225 185.503338 
L 390.909934 187.003463 
L 391.450971 187.003463 
L 391.567223 185.503338 
L 391.605657 185.503338 
L 391.837688 188.503588 
L 391.953953 188.503588 
L 392.069722 187.003463 
L 392.30175 187.003463 
L 392.417753 188.503588 
L 392.9205 188.503588 
L 392.997844 187.003463 
L 393.075189 188.503588 
L 393.384565 188.503588 
L 393.5008 190.003713 
L 393.693935 190.003713 
L 393.771282 188.503588 
L 393.887318 188.503588 
L 394.042069 191.503838 
L 394.545127 191.503838 
L 394.699404 193.003963 
L 394.815746 193.003963 
L 394.931435 194.504088 
L 395.202392 194.504088 
L 395.318626 193.003963 
L 395.782219 193.003963 
L 395.898479 194.504088 
L 396.168937 194.504088 
L 396.28516 196.004213 
L 396.323622 196.004213 
L 396.439913 197.504338 
L 396.478311 197.504338 
L 396.632998 200.504588 
L 396.710341 200.504588 
L 396.86503 202.004713 
L 396.903847 202.004713 
L 397.019717 200.504588 
L 397.097519 200.504588 
L 397.251749 197.504338 
L 397.599975 197.504338 
L 397.75477 200.504588 
L 397.870497 200.504588 
L 397.986818 199.004463 
L 398.141434 199.004463 
L 398.295998 202.004713 
L 398.334561 202.004713 
L 398.489249 205.004963 
L 398.643933 205.004963 
L 398.760225 206.505088 
L 398.992022 206.505088 
L 399.146957 203.504838 
L 399.765557 203.504838 
L 399.920381 200.504588 
L 399.958778 200.504588 
L 400.07508 199.004463 
L 400.268152 199.004463 
L 400.345498 200.504588 
L 400.422821 200.504588 
L 400.539095 199.004463 
L 400.654869 199.004463 
L 400.771107 200.504588 
L 401.003208 200.504588 
L 401.080493 199.004463 
L 401.196275 200.504588 
L 401.389988 200.504588 
L 401.544641 197.504338 
L 401.89237 197.504338 
L 401.931137 199.004463 
L 401.969717 197.504338 
L 402.124398 197.504338 
L 402.27909 200.504588 
L 402.395316 200.504588 
L 402.511123 202.004713 
L 402.704675 202.004713 
L 402.820494 203.504838 
L 402.859457 203.504838 
L 402.97518 202.004713 
L 403.091491 202.004713 
L 403.284993 206.505088 
L 403.671277 212.505588 
L 403.787633 212.505588 
L 403.903308 214.005713 
L 404.21268 214.005713 
L 404.367371 211.005463 
L 404.676749 211.005463 
L 404.831434 214.005713 
L 404.947668 214.005713 
L 405.063463 215.505838 
L 405.179748 215.505838 
L 405.295501 214.005713 
L 405.450185 214.005713 
L 405.682215 211.005463 
L 405.87586 211.005463 
L 405.99159 212.505588 
L 406.030528 212.505588 
L 406.223974 208.005213 
L 406.417299 208.005213 
L 406.571965 211.005463 
L 406.765028 211.005463 
L 406.920129 214.005713 
L 407.035849 214.005713 
L 407.151744 215.505838 
L 407.500111 215.505838 
L 407.61581 218.506088 
L 407.7705 218.506088 
L 407.886832 220.006213 
L 407.964194 220.006213 
L 408.079875 221.506338 
L 408.196215 221.506338 
L 408.311905 220.006213 
L 408.660141 220.006213 
L 408.814947 217.005963 
L 408.930658 217.005963 
L 409.046974 218.506088 
L 409.085346 218.506088 
L 409.24003 220.006213 
L 409.665719 220.006213 
L 409.820389 223.006463 
L 409.974972 223.006463 
L 410.090817 224.506588 
L 410.129627 224.506588 
L 410.245503 226.006713 
L 410.284455 226.006713 
L 410.43906 229.006963 
L 410.555234 229.006963 
L 410.709563 227.506838 
L 411.135274 227.506838 
L 411.367015 221.506338 
L 411.560344 221.506338 
L 411.715034 224.506588 
L 411.792379 224.506588 
L 411.947063 221.506338 
L 412.488473 221.506338 
L 412.604717 220.006213 
L 412.875192 220.006213 
L 413.029881 223.006463 
L 413.107224 223.006463 
L 413.223496 224.506588 
L 413.455533 224.506588 
L 413.610118 227.506838 
L 414.03535 227.506838 
L 414.112693 226.006713 
L 414.190038 227.506838 
L 414.30614 227.506838 
L 414.422074 229.006963 
L 414.770472 229.006963 
L 414.886131 230.507088 
L 415.195508 230.507088 
L 415.311786 232.007213 
L 415.350195 232.007213 
L 415.46653 233.507338 
L 415.582226 233.507338 
L 415.660013 235.007463 
L 415.814257 233.507338 
L 415.891606 233.507338 
L 416.007743 235.007463 
L 416.085186 235.007463 
L 416.20098 233.507338 
L 416.355667 233.507338 
L 416.510358 232.007213 
L 416.781285 232.007213 
L 416.897074 233.507338 
L 417.129539 227.506838 
L 417.283793 226.006713 
L 417.593171 226.006713 
L 417.747857 223.006463 
L 417.786853 223.006463 
L 417.902526 221.506338 
L 418.057236 221.506338 
L 418.21192 218.506088 
L 418.482864 218.506088 
L 418.985357 196.004213 
L 419.410846 170.502088 
L 419.526764 169.001963 
L 419.565729 169.001963 
L 419.836135 155.500838 
L 419.990821 148.000213 
L 420.222853 148.000213 
L 420.532228 138.999463 
L 420.609569 138.999463 
L 420.764717 143.499838 
L 420.841597 141.999713 
L 420.918943 143.499838 
L 421.228314 132.998963 
L 421.421956 137.499338 
L 421.576432 129.998713 
L 421.88586 104.496588 
L 422.156435 92.495588 
L 422.234146 93.995713 
L 422.272456 93.995713 
L 422.465807 95.495838 
L 422.581912 93.995713 
L 422.93026 83.494838 
L 423.007214 84.994963 
L 423.239238 98.496088 
L 423.432924 93.995713 
L 423.548612 93.995713 
L 423.625952 90.995463 
L 423.857982 101.496338 
L 424.090012 107.496838 
L 424.399853 92.495588 
L 424.670348 78.994463 
L 424.786105 72.993963 
L 424.82493 74.494088 
L 425.095894 89.495338 
L 425.3275 86.495088 
L 425.404841 86.495088 
L 425.482189 84.994963 
L 425.63687 87.995213 
L 425.675841 87.995213 
L 426.062472 74.494088 
L 426.139825 75.994213 
L 426.294431 72.993963 
L 426.332961 72.993963 
L 426.526538 77.494338 
L 426.719681 78.994463 
L 426.797019 77.494338 
L 426.874367 78.994463 
L 427.068021 78.994463 
L 427.26108 84.994963 
L 427.377315 83.494838 
L 427.532058 86.495088 
L 427.570446 86.495088 
L 427.647796 83.494838 
L 427.68676 84.994963 
L 427.84147 89.495338 
L 427.957151 87.995213 
L 428.034505 90.995463 
L 429.078941 93.995713 
L 429.697647 72.993963 
L 429.736061 72.993963 
L 429.852305 77.494338 
L 430.200123 60.992963 
L 430.316406 56.492588 
L 430.625739 81.994713 
L 430.703029 81.994713 
L 430.741522 80.494588 
L 430.780466 81.994713 
L 430.819318 81.994713 
L 431.012494 86.495088 
L 431.089835 86.495088 
L 431.321792 80.494588 
L 431.476408 84.994963 
L 431.592295 78.994463 
L 431.824323 63.993213 
L 432.133692 45.991713 
L 432.172576 45.991713 
L 432.365722 38.491088 
L 432.482008 39.991213 
L 432.520411 38.491088 
L 432.559197 39.991213 
L 432.63655 39.991213 
L 432.829777 44.491588 
L 432.90712 44.491588 
L 432.984928 41.491338 
L 433.100626 41.491338 
L 433.216497 36.990963 
L 433.255435 38.491088 
L 433.642122 56.492588 
L 433.79665 62.493088 
L 433.874164 62.493088 
L 434.647639 89.495338 
L 434.686005 89.495338 
L 434.995384 80.494588 
L 435.034352 80.494588 
L 435.111666 78.994463 
L 435.227414 80.494588 
L 435.304758 80.494588 
L 435.498392 72.993963 
L 435.536788 71.493838 
L 435.57555 72.993963 
L 435.691473 74.494088 
L 435.768814 74.494088 
L 435.846158 71.493838 
L 436.232872 77.494338 
L 436.271837 77.494338 
L 436.503895 71.493838 
L 436.581067 71.493838 
L 436.696931 69.993713 
L 436.735772 69.993713 
L 437.006304 77.494338 
L 437.238333 77.494338 
L 437.89594 105.996713 
L 438.166448 119.497838 
L 438.475824 128.498588 
L 438.553163 128.498588 
L 438.785523 134.499088 
L 439.09457 138.999463 
L 439.133529 138.999463 
L 439.288132 141.999713 
L 439.365451 141.999713 
L 439.481291 144.999963 
L 439.597386 144.999963 
L 439.713318 146.500088 
L 443.580492 164.501588 
L 443.696737 166.001713 
L 443.773985 166.001713 
L 443.889863 167.501838 
L 444.044873 167.501838 
L 444.19924 169.001963 
L 444.740645 169.001963 
L 444.895327 170.502088 
L 445.011635 170.502088 
L 445.127361 169.001963 
L 445.282422 169.001963 
L 445.398313 170.502088 
L 445.475593 170.502088 
L 445.59142 172.002213 
L 445.707701 170.502088 
L 445.900788 170.502088 
L 446.016987 172.002213 
L 446.055478 172.002213 
L 446.17168 173.502338 
L 446.210165 173.502338 
L 446.364855 175.002463 
L 446.403732 175.002463 
L 446.596885 179.502838 
L 446.713046 179.502838 
L 446.828915 181.002963 
L 446.906259 181.002963 
L 447.06094 182.503088 
L 447.138285 182.503088 
L 447.254547 184.003213 
L 447.486548 184.003213 
L 447.641139 187.003463 
L 447.834377 187.003463 
L 447.989063 184.003213 
L 448.182515 184.003213 
L 448.298436 182.503088 
L 448.453587 182.503088 
L 448.491837 184.003213 
L 448.956115 185.503338 
L 449.071872 184.003213 
L 449.265417 184.003213 
L 449.303907 185.503338 
L 449.574865 185.503338 
L 449.690624 184.003213 
L 449.96158 184.003213 
L 450 185.503338 
L 450 185.503338 
" clip-path="url(#p41bcc60dd0)" style="fill: none; stroke: #1f77b4; stroke-width: 1.5; stroke-linecap: square"/>
   </g>
   <g id="patch_3">
    <path d="M 46.46 279.561175 
L 46.46 25.44 
" style="fill: none; stroke: #000000; stroke-width: 0.8; stroke-linejoin: miter; stroke-linecap: square"/>
   </g>
   <g id="patch_4">
    <path d="M 450 279.561175 
L 450 25.44 
" style="fill: none; stroke: #000000; stroke-width: 0.8; stroke-linejoin: miter; stroke-linecap: square"/>
   </g>
   <g id="patch_5">
    <path d="M 46.46 279.561175 
L 450 279.561175 
" style="fill: none; stroke: #000000; stroke-width: 0.8; stroke-linejoin: miter; stroke-linecap: square"/>
   </g>
   <g id="patch_6">
    <path d="M 46.46 25.44 
L 450 25.44 
" style="fill: none; stroke: #000000; stroke-width: 0.8; stroke-linejoin: miter; stroke-linecap: square"/>
   </g>
   <g id="text_15">
    <!-- November 2023 -->
    <g transform="translate(199.838125 19.44) scale(0.12 -0.12)">
     <defs>
      <path id="DejaVuSans-4e" d="M 628 4666 
L 1478 4666 
L 3547 763 
L 3547 4666 
L 4159 4666 
L 4159 0 
L 3309 0 
L 1241 3903 
L 1241 0 
L 628 0 
L 628 4666 
z
" transform="scale(0.015625)"/>
      <path id="DejaVuSans-6f" d="M 1959 3097 
Q 1497 3097 1228 2736 
Q 959 2375 959 1747 
Q 959 1119 1226 758 
Q 1494 397 1959 397 
Q 2419 397 2687 759 
Q 2956 1122 2956 1747 
Q 2956 2369 2687 2733 
Q 2419 3097 1959 3097 
z
M 1959 3584 
Q 2709 3584 3137 3096 
Q 3566 2609 3566 1747 
Q 3566 888 3137 398 
Q 2709 -91 1959 -91 
Q 1206 -91 779 398 
Q 353 888 353 1747 
Q 353 2609 779 3096 
Q 1206 3584 1959 3584 
z
" transform="scale(0.015625)"/>
      <path id="DejaVuSans-76" d="M 191 3500 
L 800 3500 
L 1894 563 
L 2988 3500 
L 3597 3500 
L 2284 0 
L 1503 0 
L 191 3500 
z
" transform="scale(0.015625)"/>
      <path id="DejaVuSans-62" d="M 3116 1747 
Q 3116 2381 2855 2742 
Q 2594 3103 2138 3103 
Q 1681 3103 1420 2742 
Q 1159 2381 1159 1747 
Q 1159 1113 1420 752 
Q 1681 391 2138 391 
Q 2594 391 2855 752 
Q 3116 1113 3116 1747 
z
M 1159 2969 
Q 1341 3281 1617 3432 
Q 1894 3584 2278 3584 
Q 2916 3584 3314 3078 
Q 3713 2572 3713 1747 
Q 3713 922 3314 415 
Q 2916 -91 2278 -91 
Q 1894 -91 1617 61 
Q 1341 213 1159 525 
L 1159 0 
L 581 0 
L 581 4863 
L 1159 4863 
L 1159 2969 
z
" transform="scale(0.015625)"/>
     </defs>
     <use xlink:href="#DejaVuSans-4e"/>
     <use xlink:href="#DejaVuSans-6f" x="74.804688"/>
     <use xlink:href="#DejaVuSans-76" x="135.986328"/>
     <use xlink:href="#DejaVuSans-65" x="195.166016"/>
     <use xlink:href="#DejaVuSans-6d" x="256.689453"/>
     <use xlink:href="#DejaVuSans-62" x="354.101562"/>
     <use xlink:href="#DejaVuSans-65" x="417.578125"/>
     <use xlink:href="#DejaVuSans-72" x="479.101562"/>
     <use xlink:href="#DejaVuSans-20" x="520.214844"/>
     <use xlink:href="#DejaVuSans-32" x="552.001953"/>
     <use xlink:href="#DejaVuSans-30" x="615.625"/>
     <use xlink:href="#DejaVuSans-32" x="679.248047"/>
     <use xlink:href="#DejaVuSans-33" x="742.871094"/>
    </g>
   </g>
  </g>
 </g>
 <defs>
  <clipPath id="p41bcc60dd0">
   <rect x="46.46" y="25.44" width="403.54" height="254.121175"/>
  </clipPath>
 </defs>
</svg>
