<?xml version="1.0" encoding="utf-8" standalone="no"?>
<!DOCTYPE svg PUBLIC "-//W3C//DTD SVG 1.1//EN"
  "http://www.w3.org/Graphics/SVG/1.1/DTD/svg11.dtd">
<svg xmlns:xlink="http://www.w3.org/1999/xlink" width="432pt" height="288pt" viewBox="0 0 432 288" xmlns="http://www.w3.org/2000/svg" version="1.1">
 <metadata>
  <rdf:RDF xmlns:dc="http://purl.org/dc/elements/1.1/" xmlns:cc="http://creativecommons.org/ns#" xmlns:rdf="http://www.w3.org/1999/02/22-rdf-syntax-ns#">
   <cc:Work>
    <dc:type rdf:resource="http://purl.org/dc/dcmitype/StillImage"/>
    <dc:date>2023-11-06T18:06:37.412205</dc:date>
    <dc:format>image/svg+xml</dc:format>
    <dc:creator>
     <cc:Agent>
      <dc:title>Matplotlib v3.6.3, https://matplotlib.org/</dc:title>
     </cc:Agent>
    </dc:creator>
   </cc:Work>
  </rdf:RDF>
 </metadata>
 <defs>
  <style type="text/css">*{stroke-linejoin: round; stroke-linecap: butt}</style>
 </defs>
 <g id="figure_1">
  <g id="patch_1">
   <path d="M 0 288 
L 432 288 
L 432 0 
L 0 0 
z
" style="fill: #ffffff"/>
  </g>
  <g id="axes_1">
   <g id="patch_2">
    <path d="M 46.55 221.939962 
L 421.2 221.939962 
L 421.2 26.8 
L 46.55 26.8 
z
" style="fill: #ffffff"/>
   </g>
   <g id="matplotlib.axis_1">
    <g id="xtick_1">
     <g id="line2d_1">
      <path d="M 111.641046 221.939962 
L 111.641046 26.8 
" clip-path="url(#p8f79b6071a)" style="fill: none; stroke: #b0b0b0; stroke-width: 0.8; stroke-linecap: square"/>
     </g>
     <g id="line2d_2">
      <defs>
       <path id="m7f05b3d335" d="M 0 0 
L 0 3.5 
" style="stroke: #000000; stroke-width: 0.8"/>
      </defs>
      <g>
       <use xlink:href="#m7f05b3d335" x="111.641046" y="221.939962" style="stroke: #000000; stroke-width: 0.8"/>
      </g>
     </g>
     <g id="text_1">
      <!-- 2023-11-02 -->
      <g transform="translate(69.076532 275.406821) rotate(-45) scale(0.1 -0.1)">
       <defs>
        <path id="DejaVuSans-32" d="M 1228 531 
L 3431 531 
L 3431 0 
L 469 0 
L 469 531 
Q 828 903 1448 1529 
Q 2069 2156 2228 2338 
Q 2531 2678 2651 2914 
Q 2772 3150 2772 3378 
Q 2772 3750 2511 3984 
Q 2250 4219 1831 4219 
Q 1534 4219 1204 4116 
Q 875 4013 500 3803 
L 500 4441 
Q 881 4594 1212 4672 
Q 1544 4750 1819 4750 
Q 2544 4750 2975 4387 
Q 3406 4025 3406 3419 
Q 3406 3131 3298 2873 
Q 3191 2616 2906 2266 
Q 2828 2175 2409 1742 
Q 1991 1309 1228 531 
z
" transform="scale(0.015625)"/>
        <path id="DejaVuSans-30" d="M 2034 4250 
Q 1547 4250 1301 3770 
Q 1056 3291 1056 2328 
Q 1056 1369 1301 889 
Q 1547 409 2034 409 
Q 2525 409 2770 889 
Q 3016 1369 3016 2328 
Q 3016 3291 2770 3770 
Q 2525 4250 2034 4250 
z
M 2034 4750 
Q 2819 4750 3233 4129 
Q 3647 3509 3647 2328 
Q 3647 1150 3233 529 
Q 2819 -91 2034 -91 
Q 1250 -91 836 529 
Q 422 1150 422 2328 
Q 422 3509 836 4129 
Q 1250 4750 2034 4750 
z
" transform="scale(0.015625)"/>
        <path id="DejaVuSans-33" d="M 2597 2516 
Q 3050 2419 3304 2112 
Q 3559 1806 3559 1356 
Q 3559 666 3084 287 
Q 2609 -91 1734 -91 
Q 1441 -91 1130 -33 
Q 819 25 488 141 
L 488 750 
Q 750 597 1062 519 
Q 1375 441 1716 441 
Q 2309 441 2620 675 
Q 2931 909 2931 1356 
Q 2931 1769 2642 2001 
Q 2353 2234 1838 2234 
L 1294 2234 
L 1294 2753 
L 1863 2753 
Q 2328 2753 2575 2939 
Q 2822 3125 2822 3475 
Q 2822 3834 2567 4026 
Q 2313 4219 1838 4219 
Q 1578 4219 1281 4162 
Q 984 4106 628 3988 
L 628 4550 
Q 988 4650 1302 4700 
Q 1616 4750 1894 4750 
Q 2613 4750 3031 4423 
Q 3450 4097 3450 3541 
Q 3450 3153 3228 2886 
Q 3006 2619 2597 2516 
z
" transform="scale(0.015625)"/>
        <path id="DejaVuSans-2d" d="M 313 2009 
L 1997 2009 
L 1997 1497 
L 313 1497 
L 313 2009 
z
" transform="scale(0.015625)"/>
        <path id="DejaVuSans-31" d="M 794 531 
L 1825 531 
L 1825 4091 
L 703 3866 
L 703 4441 
L 1819 4666 
L 2450 4666 
L 2450 531 
L 3481 531 
L 3481 0 
L 794 0 
L 794 531 
z
" transform="scale(0.015625)"/>
       </defs>
       <use xlink:href="#DejaVuSans-32"/>
       <use xlink:href="#DejaVuSans-30" x="63.623047"/>
       <use xlink:href="#DejaVuSans-32" x="127.246094"/>
       <use xlink:href="#DejaVuSans-33" x="190.869141"/>
       <use xlink:href="#DejaVuSans-2d" x="254.492188"/>
       <use xlink:href="#DejaVuSans-31" x="290.576172"/>
       <use xlink:href="#DejaVuSans-31" x="354.199219"/>
       <use xlink:href="#DejaVuSans-2d" x="417.822266"/>
       <use xlink:href="#DejaVuSans-30" x="453.90625"/>
       <use xlink:href="#DejaVuSans-32" x="517.529297"/>
      </g>
     </g>
    </g>
    <g id="xtick_2">
     <g id="line2d_3">
      <path d="M 176.766739 221.939962 
L 176.766739 26.8 
" clip-path="url(#p8f79b6071a)" style="fill: none; stroke: #b0b0b0; stroke-width: 0.8; stroke-linecap: square"/>
     </g>
     <g id="line2d_4">
      <g>
       <use xlink:href="#m7f05b3d335" x="176.766739" y="221.939962" style="stroke: #000000; stroke-width: 0.8"/>
      </g>
     </g>
     <g id="text_2">
      <!-- 2023-11-03 -->
      <g transform="translate(134.202225 275.406821) rotate(-45) scale(0.1 -0.1)">
       <use xlink:href="#DejaVuSans-32"/>
       <use xlink:href="#DejaVuSans-30" x="63.623047"/>
       <use xlink:href="#DejaVuSans-32" x="127.246094"/>
       <use xlink:href="#DejaVuSans-33" x="190.869141"/>
       <use xlink:href="#DejaVuSans-2d" x="254.492188"/>
       <use xlink:href="#DejaVuSans-31" x="290.576172"/>
       <use xlink:href="#DejaVuSans-31" x="354.199219"/>
       <use xlink:href="#DejaVuSans-2d" x="417.822266"/>
       <use xlink:href="#DejaVuSans-30" x="453.90625"/>
       <use xlink:href="#DejaVuSans-33" x="517.529297"/>
      </g>
     </g>
    </g>
    <g id="xtick_3">
     <g id="line2d_5">
      <path d="M 241.892431 221.939962 
L 241.892431 26.8 
" clip-path="url(#p8f79b6071a)" style="fill: none; stroke: #b0b0b0; stroke-width: 0.8; stroke-linecap: square"/>
     </g>
     <g id="line2d_6">
      <g>
       <use xlink:href="#m7f05b3d335" x="241.892431" y="221.939962" style="stroke: #000000; stroke-width: 0.8"/>
      </g>
     </g>
     <g id="text_3">
      <!-- 2023-11-04 -->
      <g transform="translate(199.327918 275.406821) rotate(-45) scale(0.1 -0.1)">
       <defs>
        <path id="DejaVuSans-34" d="M 2419 4116 
L 825 1625 
L 2419 1625 
L 2419 4116 
z
M 2253 4666 
L 3047 4666 
L 3047 1625 
L 3713 1625 
L 3713 1100 
L 3047 1100 
L 3047 0 
L 2419 0 
L 2419 1100 
L 313 1100 
L 313 1709 
L 2253 4666 
z
" transform="scale(0.015625)"/>
       </defs>
       <use xlink:href="#DejaVuSans-32"/>
       <use xlink:href="#DejaVuSans-30" x="63.623047"/>
       <use xlink:href="#DejaVuSans-32" x="127.246094"/>
       <use xlink:href="#DejaVuSans-33" x="190.869141"/>
       <use xlink:href="#DejaVuSans-2d" x="254.492188"/>
       <use xlink:href="#DejaVuSans-31" x="290.576172"/>
       <use xlink:href="#DejaVuSans-31" x="354.199219"/>
       <use xlink:href="#DejaVuSans-2d" x="417.822266"/>
       <use xlink:href="#DejaVuSans-30" x="453.90625"/>
       <use xlink:href="#DejaVuSans-34" x="517.529297"/>
      </g>
     </g>
    </g>
    <g id="xtick_4">
     <g id="line2d_7">
      <path d="M 307.018124 221.939962 
L 307.018124 26.8 
" clip-path="url(#p8f79b6071a)" style="fill: none; stroke: #b0b0b0; stroke-width: 0.8; stroke-linecap: square"/>
     </g>
     <g id="line2d_8">
      <g>
       <use xlink:href="#m7f05b3d335" x="307.018124" y="221.939962" style="stroke: #000000; stroke-width: 0.8"/>
      </g>
     </g>
     <g id="text_4">
      <!-- 2023-11-05 -->
      <g transform="translate(264.453611 275.406821) rotate(-45) scale(0.1 -0.1)">
       <defs>
        <path id="DejaVuSans-35" d="M 691 4666 
L 3169 4666 
L 3169 4134 
L 1269 4134 
L 1269 2991 
Q 1406 3038 1543 3061 
Q 1681 3084 1819 3084 
Q 2600 3084 3056 2656 
Q 3513 2228 3513 1497 
Q 3513 744 3044 326 
Q 2575 -91 1722 -91 
Q 1428 -91 1123 -41 
Q 819 9 494 109 
L 494 744 
Q 775 591 1075 516 
Q 1375 441 1709 441 
Q 2250 441 2565 725 
Q 2881 1009 2881 1497 
Q 2881 1984 2565 2268 
Q 2250 2553 1709 2553 
Q 1456 2553 1204 2497 
Q 953 2441 691 2322 
L 691 4666 
z
" transform="scale(0.015625)"/>
       </defs>
       <use xlink:href="#DejaVuSans-32"/>
       <use xlink:href="#DejaVuSans-30" x="63.623047"/>
       <use xlink:href="#DejaVuSans-32" x="127.246094"/>
       <use xlink:href="#DejaVuSans-33" x="190.869141"/>
       <use xlink:href="#DejaVuSans-2d" x="254.492188"/>
       <use xlink:href="#DejaVuSans-31" x="290.576172"/>
       <use xlink:href="#DejaVuSans-31" x="354.199219"/>
       <use xlink:href="#DejaVuSans-2d" x="417.822266"/>
       <use xlink:href="#DejaVuSans-30" x="453.90625"/>
       <use xlink:href="#DejaVuSans-35" x="517.529297"/>
      </g>
     </g>
    </g>
    <g id="xtick_5">
     <g id="line2d_9">
      <path d="M 372.143817 221.939962 
L 372.143817 26.8 
" clip-path="url(#p8f79b6071a)" style="fill: none; stroke: #b0b0b0; stroke-width: 0.8; stroke-linecap: square"/>
     </g>
     <g id="line2d_10">
      <g>
       <use xlink:href="#m7f05b3d335" x="372.143817" y="221.939962" style="stroke: #000000; stroke-width: 0.8"/>
      </g>
     </g>
     <g id="text_5">
      <!-- 2023-11-06 -->
      <g transform="translate(329.579304 275.406821) rotate(-45) scale(0.1 -0.1)">
       <defs>
        <path id="DejaVuSans-36" d="M 2113 2584 
Q 1688 2584 1439 2293 
Q 1191 2003 1191 1497 
Q 1191 994 1439 701 
Q 1688 409 2113 409 
Q 2538 409 2786 701 
Q 3034 994 3034 1497 
Q 3034 2003 2786 2293 
Q 2538 2584 2113 2584 
z
M 3366 4563 
L 3366 3988 
Q 3128 4100 2886 4159 
Q 2644 4219 2406 4219 
Q 1781 4219 1451 3797 
Q 1122 3375 1075 2522 
Q 1259 2794 1537 2939 
Q 1816 3084 2150 3084 
Q 2853 3084 3261 2657 
Q 3669 2231 3669 1497 
Q 3669 778 3244 343 
Q 2819 -91 2113 -91 
Q 1303 -91 875 529 
Q 447 1150 447 2328 
Q 447 3434 972 4092 
Q 1497 4750 2381 4750 
Q 2619 4750 2861 4703 
Q 3103 4656 3366 4563 
z
" transform="scale(0.015625)"/>
       </defs>
       <use xlink:href="#DejaVuSans-32"/>
       <use xlink:href="#DejaVuSans-30" x="63.623047"/>
       <use xlink:href="#DejaVuSans-32" x="127.246094"/>
       <use xlink:href="#DejaVuSans-33" x="190.869141"/>
       <use xlink:href="#DejaVuSans-2d" x="254.492188"/>
       <use xlink:href="#DejaVuSans-31" x="290.576172"/>
       <use xlink:href="#DejaVuSans-31" x="354.199219"/>
       <use xlink:href="#DejaVuSans-2d" x="417.822266"/>
       <use xlink:href="#DejaVuSans-30" x="453.90625"/>
       <use xlink:href="#DejaVuSans-36" x="517.529297"/>
      </g>
     </g>
    </g>
   </g>
   <g id="matplotlib.axis_2">
    <g id="ytick_1">
     <g id="line2d_11">
      <path d="M 46.55 201.550486 
L 421.2 201.550486 
" clip-path="url(#p8f79b6071a)" style="fill: none; stroke: #b0b0b0; stroke-width: 0.8; stroke-linecap: square"/>
     </g>
     <g id="line2d_12">
      <defs>
       <path id="m7d10a271c6" d="M 0 0 
L -3.5 0 
" style="stroke: #000000; stroke-width: 0.8"/>
      </defs>
      <g>
       <use xlink:href="#m7d10a271c6" x="46.55" y="201.550486" style="stroke: #000000; stroke-width: 0.8"/>
      </g>
     </g>
     <g id="text_6">
      <!-- 0 -->
      <g transform="translate(33.1875 205.349704) scale(0.1 -0.1)">
       <use xlink:href="#DejaVuSans-30"/>
      </g>
     </g>
    </g>
    <g id="ytick_2">
     <g id="line2d_13">
      <path d="M 46.55 178.511529 
L 421.2 178.511529 
" clip-path="url(#p8f79b6071a)" style="fill: none; stroke: #b0b0b0; stroke-width: 0.8; stroke-linecap: square"/>
     </g>
     <g id="line2d_14">
      <g>
       <use xlink:href="#m7d10a271c6" x="46.55" y="178.511529" style="stroke: #000000; stroke-width: 0.8"/>
      </g>
     </g>
     <g id="text_7">
      <!-- 2 -->
      <g transform="translate(33.1875 182.310748) scale(0.1 -0.1)">
       <use xlink:href="#DejaVuSans-32"/>
      </g>
     </g>
    </g>
    <g id="ytick_3">
     <g id="line2d_15">
      <path d="M 46.55 155.472572 
L 421.2 155.472572 
" clip-path="url(#p8f79b6071a)" style="fill: none; stroke: #b0b0b0; stroke-width: 0.8; stroke-linecap: square"/>
     </g>
     <g id="line2d_16">
      <g>
       <use xlink:href="#m7d10a271c6" x="46.55" y="155.472572" style="stroke: #000000; stroke-width: 0.8"/>
      </g>
     </g>
     <g id="text_8">
      <!-- 4 -->
      <g transform="translate(33.1875 159.271791) scale(0.1 -0.1)">
       <use xlink:href="#DejaVuSans-34"/>
      </g>
     </g>
    </g>
    <g id="ytick_4">
     <g id="line2d_17">
      <path d="M 46.55 132.433616 
L 421.2 132.433616 
" clip-path="url(#p8f79b6071a)" style="fill: none; stroke: #b0b0b0; stroke-width: 0.8; stroke-linecap: square"/>
     </g>
     <g id="line2d_18">
      <g>
       <use xlink:href="#m7d10a271c6" x="46.55" y="132.433616" style="stroke: #000000; stroke-width: 0.8"/>
      </g>
     </g>
     <g id="text_9">
      <!-- 6 -->
      <g transform="translate(33.1875 136.232835) scale(0.1 -0.1)">
       <use xlink:href="#DejaVuSans-36"/>
      </g>
     </g>
    </g>
    <g id="ytick_5">
     <g id="line2d_19">
      <path d="M 46.55 109.394659 
L 421.2 109.394659 
" clip-path="url(#p8f79b6071a)" style="fill: none; stroke: #b0b0b0; stroke-width: 0.8; stroke-linecap: square"/>
     </g>
     <g id="line2d_20">
      <g>
       <use xlink:href="#m7d10a271c6" x="46.55" y="109.394659" style="stroke: #000000; stroke-width: 0.8"/>
      </g>
     </g>
     <g id="text_10">
      <!-- 8 -->
      <g transform="translate(33.1875 113.193878) scale(0.1 -0.1)">
       <defs>
        <path id="DejaVuSans-38" d="M 2034 2216 
Q 1584 2216 1326 1975 
Q 1069 1734 1069 1313 
Q 1069 891 1326 650 
Q 1584 409 2034 409 
Q 2484 409 2743 651 
Q 3003 894 3003 1313 
Q 3003 1734 2745 1975 
Q 2488 2216 2034 2216 
z
M 1403 2484 
Q 997 2584 770 2862 
Q 544 3141 544 3541 
Q 544 4100 942 4425 
Q 1341 4750 2034 4750 
Q 2731 4750 3128 4425 
Q 3525 4100 3525 3541 
Q 3525 3141 3298 2862 
Q 3072 2584 2669 2484 
Q 3125 2378 3379 2068 
Q 3634 1759 3634 1313 
Q 3634 634 3220 271 
Q 2806 -91 2034 -91 
Q 1263 -91 848 271 
Q 434 634 434 1313 
Q 434 1759 690 2068 
Q 947 2378 1403 2484 
z
M 1172 3481 
Q 1172 3119 1398 2916 
Q 1625 2713 2034 2713 
Q 2441 2713 2670 2916 
Q 2900 3119 2900 3481 
Q 2900 3844 2670 4047 
Q 2441 4250 2034 4250 
Q 1625 4250 1398 4047 
Q 1172 3844 1172 3481 
z
" transform="scale(0.015625)"/>
       </defs>
       <use xlink:href="#DejaVuSans-38"/>
      </g>
     </g>
    </g>
    <g id="ytick_6">
     <g id="line2d_21">
      <path d="M 46.55 86.355703 
L 421.2 86.355703 
" clip-path="url(#p8f79b6071a)" style="fill: none; stroke: #b0b0b0; stroke-width: 0.8; stroke-linecap: square"/>
     </g>
     <g id="line2d_22">
      <g>
       <use xlink:href="#m7d10a271c6" x="46.55" y="86.355703" style="stroke: #000000; stroke-width: 0.8"/>
      </g>
     </g>
     <g id="text_11">
      <!-- 10 -->
      <g transform="translate(26.825 90.154921) scale(0.1 -0.1)">
       <use xlink:href="#DejaVuSans-31"/>
       <use xlink:href="#DejaVuSans-30" x="63.623047"/>
      </g>
     </g>
    </g>
    <g id="ytick_7">
     <g id="line2d_23">
      <path d="M 46.55 63.316746 
L 421.2 63.316746 
" clip-path="url(#p8f79b6071a)" style="fill: none; stroke: #b0b0b0; stroke-width: 0.8; stroke-linecap: square"/>
     </g>
     <g id="line2d_24">
      <g>
       <use xlink:href="#m7d10a271c6" x="46.55" y="63.316746" style="stroke: #000000; stroke-width: 0.8"/>
      </g>
     </g>
     <g id="text_12">
      <!-- 12 -->
      <g transform="translate(26.825 67.115965) scale(0.1 -0.1)">
       <use xlink:href="#DejaVuSans-31"/>
       <use xlink:href="#DejaVuSans-32" x="63.623047"/>
      </g>
     </g>
    </g>
    <g id="ytick_8">
     <g id="line2d_25">
      <path d="M 46.55 40.27779 
L 421.2 40.27779 
" clip-path="url(#p8f79b6071a)" style="fill: none; stroke: #b0b0b0; stroke-width: 0.8; stroke-linecap: square"/>
     </g>
     <g id="line2d_26">
      <g>
       <use xlink:href="#m7d10a271c6" x="46.55" y="40.27779" style="stroke: #000000; stroke-width: 0.8"/>
      </g>
     </g>
     <g id="text_13">
      <!-- 14 -->
      <g transform="translate(26.825 44.077008) scale(0.1 -0.1)">
       <use xlink:href="#DejaVuSans-31"/>
       <use xlink:href="#DejaVuSans-34" x="63.623047"/>
      </g>
     </g>
    </g>
    <g id="text_14">
     <!-- Temperature [°C] -->
     <g transform="translate(20.745313 170.941856) rotate(-90) scale(0.1 -0.1)">
      <defs>
       <path id="DejaVuSans-54" d="M -19 4666 
L 3928 4666 
L 3928 4134 
L 2272 4134 
L 2272 0 
L 1638 0 
L 1638 4134 
L -19 4134 
L -19 4666 
z
" transform="scale(0.015625)"/>
       <path id="DejaVuSans-65" d="M 3597 1894 
L 3597 1613 
L 953 1613 
Q 991 1019 1311 708 
Q 1631 397 2203 397 
Q 2534 397 2845 478 
Q 3156 559 3463 722 
L 3463 178 
Q 3153 47 2828 -22 
Q 2503 -91 2169 -91 
Q 1331 -91 842 396 
Q 353 884 353 1716 
Q 353 2575 817 3079 
Q 1281 3584 2069 3584 
Q 2775 3584 3186 3129 
Q 3597 2675 3597 1894 
z
M 3022 2063 
Q 3016 2534 2758 2815 
Q 2500 3097 2075 3097 
Q 1594 3097 1305 2825 
Q 1016 2553 972 2059 
L 3022 2063 
z
" transform="scale(0.015625)"/>
       <path id="DejaVuSans-6d" d="M 3328 2828 
Q 3544 3216 3844 3400 
Q 4144 3584 4550 3584 
Q 5097 3584 5394 3201 
Q 5691 2819 5691 2113 
L 5691 0 
L 5113 0 
L 5113 2094 
Q 5113 2597 4934 2840 
Q 4756 3084 4391 3084 
Q 3944 3084 3684 2787 
Q 3425 2491 3425 1978 
L 3425 0 
L 2847 0 
L 2847 2094 
Q 2847 2600 2669 2842 
Q 2491 3084 2119 3084 
Q 1678 3084 1418 2786 
Q 1159 2488 1159 1978 
L 1159 0 
L 581 0 
L 581 3500 
L 1159 3500 
L 1159 2956 
Q 1356 3278 1631 3431 
Q 1906 3584 2284 3584 
Q 2666 3584 2933 3390 
Q 3200 3197 3328 2828 
z
" transform="scale(0.015625)"/>
       <path id="DejaVuSans-70" d="M 1159 525 
L 1159 -1331 
L 581 -1331 
L 581 3500 
L 1159 3500 
L 1159 2969 
Q 1341 3281 1617 3432 
Q 1894 3584 2278 3584 
Q 2916 3584 3314 3078 
Q 3713 2572 3713 1747 
Q 3713 922 3314 415 
Q 2916 -91 2278 -91 
Q 1894 -91 1617 61 
Q 1341 213 1159 525 
z
M 3116 1747 
Q 3116 2381 2855 2742 
Q 2594 3103 2138 3103 
Q 1681 3103 1420 2742 
Q 1159 2381 1159 1747 
Q 1159 1113 1420 752 
Q 1681 391 2138 391 
Q 2594 391 2855 752 
Q 3116 1113 3116 1747 
z
" transform="scale(0.015625)"/>
       <path id="DejaVuSans-72" d="M 2631 2963 
Q 2534 3019 2420 3045 
Q 2306 3072 2169 3072 
Q 1681 3072 1420 2755 
Q 1159 2438 1159 1844 
L 1159 0 
L 581 0 
L 581 3500 
L 1159 3500 
L 1159 2956 
Q 1341 3275 1631 3429 
Q 1922 3584 2338 3584 
Q 2397 3584 2469 3576 
Q 2541 3569 2628 3553 
L 2631 2963 
z
" transform="scale(0.015625)"/>
       <path id="DejaVuSans-61" d="M 2194 1759 
Q 1497 1759 1228 1600 
Q 959 1441 959 1056 
Q 959 750 1161 570 
Q 1363 391 1709 391 
Q 2188 391 2477 730 
Q 2766 1069 2766 1631 
L 2766 1759 
L 2194 1759 
z
M 3341 1997 
L 3341 0 
L 2766 0 
L 2766 531 
Q 2569 213 2275 61 
Q 1981 -91 1556 -91 
Q 1019 -91 701 211 
Q 384 513 384 1019 
Q 384 1609 779 1909 
Q 1175 2209 1959 2209 
L 2766 2209 
L 2766 2266 
Q 2766 2663 2505 2880 
Q 2244 3097 1772 3097 
Q 1472 3097 1187 3025 
Q 903 2953 641 2809 
L 641 3341 
Q 956 3463 1253 3523 
Q 1550 3584 1831 3584 
Q 2591 3584 2966 3190 
Q 3341 2797 3341 1997 
z
" transform="scale(0.015625)"/>
       <path id="DejaVuSans-74" d="M 1172 4494 
L 1172 3500 
L 2356 3500 
L 2356 3053 
L 1172 3053 
L 1172 1153 
Q 1172 725 1289 603 
Q 1406 481 1766 481 
L 2356 481 
L 2356 0 
L 1766 0 
Q 1100 0 847 248 
Q 594 497 594 1153 
L 594 3053 
L 172 3053 
L 172 3500 
L 594 3500 
L 594 4494 
L 1172 4494 
z
" transform="scale(0.015625)"/>
       <path id="DejaVuSans-75" d="M 544 1381 
L 544 3500 
L 1119 3500 
L 1119 1403 
Q 1119 906 1312 657 
Q 1506 409 1894 409 
Q 2359 409 2629 706 
Q 2900 1003 2900 1516 
L 2900 3500 
L 3475 3500 
L 3475 0 
L 2900 0 
L 2900 538 
Q 2691 219 2414 64 
Q 2138 -91 1772 -91 
Q 1169 -91 856 284 
Q 544 659 544 1381 
z
M 1991 3584 
L 1991 3584 
z
" transform="scale(0.015625)"/>
       <path id="DejaVuSans-20" transform="scale(0.015625)"/>
       <path id="DejaVuSans-5b" d="M 550 4863 
L 1875 4863 
L 1875 4416 
L 1125 4416 
L 1125 -397 
L 1875 -397 
L 1875 -844 
L 550 -844 
L 550 4863 
z
" transform="scale(0.015625)"/>
       <path id="DejaVuSans-c2" d="M 2188 4044 
L 1331 1722 
L 3047 1722 
L 2188 4044 
z
M 1831 4666 
L 2547 4666 
L 4325 0 
L 3669 0 
L 3244 1197 
L 1141 1197 
L 716 0 
L 50 0 
L 1831 4666 
z
M 1894 5941 
L 2481 5941 
L 3141 5110 
L 2706 5110 
L 2188 5666 
L 1669 5110 
L 1234 5110 
L 1894 5941 
z
" transform="scale(0.015625)"/>
       <path id="DejaVuSans-b0" d="M 1600 4347 
Q 1350 4347 1178 4173 
Q 1006 4000 1006 3750 
Q 1006 3503 1178 3333 
Q 1350 3163 1600 3163 
Q 1850 3163 2022 3333 
Q 2194 3503 2194 3750 
Q 2194 3997 2020 4172 
Q 1847 4347 1600 4347 
z
M 1600 4750 
Q 1800 4750 1984 4673 
Q 2169 4597 2303 4453 
Q 2447 4313 2519 4134 
Q 2591 3956 2591 3750 
Q 2591 3338 2302 3052 
Q 2013 2766 1594 2766 
Q 1172 2766 890 3047 
Q 609 3328 609 3750 
Q 609 4169 896 4459 
Q 1184 4750 1600 4750 
z
" transform="scale(0.015625)"/>
       <path id="DejaVuSans-43" d="M 4122 4306 
L 4122 3641 
Q 3803 3938 3442 4084 
Q 3081 4231 2675 4231 
Q 1875 4231 1450 3742 
Q 1025 3253 1025 2328 
Q 1025 1406 1450 917 
Q 1875 428 2675 428 
Q 3081 428 3442 575 
Q 3803 722 4122 1019 
L 4122 359 
Q 3791 134 3420 21 
Q 3050 -91 2638 -91 
Q 1578 -91 968 557 
Q 359 1206 359 2328 
Q 359 3453 968 4101 
Q 1578 4750 2638 4750 
Q 3056 4750 3426 4639 
Q 3797 4528 4122 4306 
z
" transform="scale(0.015625)"/>
       <path id="DejaVuSans-5d" d="M 1947 4863 
L 1947 -844 
L 622 -844 
L 622 -397 
L 1369 -397 
L 1369 4416 
L 622 4416 
L 622 4863 
L 1947 4863 
z
" transform="scale(0.015625)"/>
      </defs>
      <use xlink:href="#DejaVuSans-54"/>
      <use xlink:href="#DejaVuSans-65" x="44.083984"/>
      <use xlink:href="#DejaVuSans-6d" x="105.607422"/>
      <use xlink:href="#DejaVuSans-70" x="203.019531"/>
      <use xlink:href="#DejaVuSans-65" x="266.496094"/>
      <use xlink:href="#DejaVuSans-72" x="328.019531"/>
      <use xlink:href="#DejaVuSans-61" x="369.132812"/>
      <use xlink:href="#DejaVuSans-74" x="430.412109"/>
      <use xlink:href="#DejaVuSans-75" x="469.621094"/>
      <use xlink:href="#DejaVuSans-72" x="533"/>
      <use xlink:href="#DejaVuSans-65" x="571.863281"/>
      <use xlink:href="#DejaVuSans-20" x="633.386719"/>
      <use xlink:href="#DejaVuSans-5b" x="665.173828"/>
      <use xlink:href="#DejaVuSans-c2" x="704.1875"/>
      <use xlink:href="#DejaVuSans-b0" x="772.595703"/>
      <use xlink:href="#DejaVuSans-43" x="822.595703"/>
      <use xlink:href="#DejaVuSans-5d" x="892.419922"/>
     </g>
    </g>
   </g>
   <g id="line2d_27">
    <path d="M 46.55 152.016729 
L 46.586033 152.016729 
L 46.767129 154.320625 
L 47.0202 154.320625 
L 47.164925 155.472572 
L 47.382004 155.472572 
L 47.49079 156.62452 
L 47.635524 155.472572 
L 48.105618 155.472572 
L 48.322699 152.016729 
L 48.395063 152.016729 
L 48.46786 150.864781 
L 48.648436 152.016729 
L 48.829232 152.016729 
L 48.973951 153.168677 
L 49.299767 153.168677 
L 49.37209 154.320625 
L 49.408118 153.168677 
L 49.697564 153.168677 
L 49.842706 154.320625 
L 50.240436 154.320625 
L 50.385239 153.168677 
L 50.674609 153.168677 
L 50.819357 154.320625 
L 50.927706 154.320625 
L 51.072429 155.472572 
L 51.325871 155.472572 
L 51.434234 156.62452 
L 51.470615 155.472572 
L 51.542956 156.62452 
L 51.687747 156.62452 
L 51.796042 157.776468 
L 51.940765 156.62452 
L 51.977056 156.62452 
L 52.121872 155.472572 
L 52.302572 157.776468 
L 52.519654 157.776468 
L 52.700752 156.62452 
L 52.736743 156.62452 
L 52.773148 155.472572 
L 52.845446 156.62452 
L 53.170907 156.62452 
L 53.315629 157.776468 
L 53.677438 157.776468 
L 53.82216 156.62452 
L 54.509791 156.62452 
L 54.690501 158.928416 
L 54.726852 158.928416 
L 54.871585 160.080364 
L 55.486475 160.080364 
L 55.631195 158.928416 
L 55.848276 158.928416 
L 56.029227 161.232312 
L 56.101749 161.232312 
L 56.246476 162.384259 
L 56.39119 162.384259 
L 56.571891 160.080364 
L 57.04247 160.080364 
L 57.187143 158.928416 
L 57.548933 158.928416 
L 57.729667 161.232312 
L 57.874395 161.232312 
L 57.946755 160.080364 
L 58.127827 161.232312 
L 58.163836 161.232312 
L 58.272609 162.384259 
L 58.453284 160.080364 
L 58.525646 160.080364 
L 58.670815 162.384259 
L 58.742729 162.384259 
L 58.923815 164.688155 
L 58.959814 164.688155 
L 59.104534 165.840103 
L 59.321614 165.840103 
L 59.647409 162.384259 
L 59.719796 162.384259 
L 59.900509 164.688155 
L 60.226336 164.688155 
L 60.479769 160.080364 
L 60.588132 160.080364 
L 60.696484 158.928416 
L 60.768834 158.928416 
L 60.949917 156.62452 
L 61.058287 156.62452 
L 61.203012 157.776468 
L 61.275372 157.776468 
L 61.456282 160.080364 
L 61.781902 160.080364 
L 61.99899 163.536207 
L 62.143708 163.536207 
L 62.360796 160.080364 
L 62.433151 160.080364 
L 62.577877 158.928416 
L 62.722598 158.928416 
L 62.903701 160.080364 
L 63.048379 160.080364 
L 63.084404 161.232312 
L 63.156765 160.080364 
L 63.193157 160.080364 
L 63.373851 157.776468 
L 63.410234 157.776468 
L 63.554889 158.928416 
L 63.59115 158.928416 
L 63.73566 160.080364 
L 63.880382 160.080364 
L 64.061513 162.384259 
L 64.097463 162.384259 
L 64.314546 165.840103 
L 64.459268 165.840103 
L 64.603992 166.992051 
L 64.640383 166.992051 
L 64.821508 169.295946 
L 64.85726 169.295946 
L 65.002186 170.447894 
L 65.29163 170.447894 
L 65.472752 172.75179 
L 65.689411 172.75179 
L 65.834134 171.599842 
L 65.870531 171.599842 
L 66.015251 172.75179 
L 66.123582 172.75179 
L 66.413025 169.295946 
L 66.521812 170.447894 
L 66.666514 168.143999 
L 66.955866 168.143999 
L 67.100692 169.295946 
L 67.317761 169.295946 
L 67.462486 168.143999 
L 67.607051 168.143999 
L 67.824295 164.688155 
L 67.896665 164.688155 
L 68.149702 160.080364 
L 68.330757 160.080364 
L 68.511505 156.62452 
L 68.728588 160.080364 
L 68.873762 160.080364 
L 69.090396 149.712833 
L 69.524564 117.458294 
L 69.958727 101.331025 
L 70.067446 101.331025 
L 70.212225 96.723233 
L 70.356841 99.027129 
L 70.537615 96.723233 
L 70.68234 97.875181 
L 70.718759 97.875181 
L 70.971767 88.659598 
L 71.008029 88.659598 
L 71.261222 84.051807 
L 71.297578 84.051807 
L 71.550667 79.444016 
L 71.659215 79.444016 
L 71.767749 81.747911 
L 71.804098 80.595964 
L 72.057193 75.988172 
L 72.165983 75.988172 
L 72.527722 62.164798 
L 72.563721 63.316746 
L 72.853159 87.507651 
L 73.03411 89.811546 
L 73.070241 89.811546 
L 73.142605 90.963494 
L 73.179007 89.811546 
L 73.757818 70.228433 
L 73.793855 71.380381 
L 73.866215 72.532329 
L 73.902656 71.380381 
L 74.010935 71.380381 
L 74.626228 87.507651 
L 74.662176 87.507651 
L 74.843336 78.292068 
L 75.060191 71.380381 
L 75.241069 69.076485 
L 75.385789 70.228433 
L 75.458151 70.228433 
L 76.073472 87.507651 
L 76.254113 85.203755 
L 76.435087 87.507651 
L 76.471197 87.507651 
L 76.797037 95.571285 
L 76.941766 94.419338 
L 76.977722 94.419338 
L 77.37592 87.507651 
L 77.556606 82.899859 
L 77.701649 81.747911 
L 77.954854 84.051807 
L 78.280217 77.14012 
L 78.316689 77.14012 
L 78.606064 65.620642 
L 78.823069 62.164798 
L 78.859107 62.164798 
L 79.112353 67.924537 
L 79.293267 65.620642 
L 79.510345 73.684277 
L 79.546816 73.684277 
L 79.799787 78.292068 
L 79.83606 78.292068 
L 79.980935 77.14012 
L 80.089228 77.14012 
L 80.233952 78.292068 
L 80.523401 72.532329 
L 80.55977 72.532329 
L 80.632179 71.380381 
L 80.66812 72.532329 
L 80.99402 79.444016 
L 81.102649 79.444016 
L 81.247001 80.595964 
L 81.35579 79.444016 
L 81.391724 80.595964 
L 81.464085 79.444016 
L 81.608805 77.14012 
L 81.753527 77.14012 
L 81.898247 80.595964 
L 81.934663 79.444016 
L 82.042969 79.444016 
L 82.26005 75.988172 
L 82.47745 79.444016 
L 82.621856 79.444016 
L 82.838936 75.988172 
L 82.875213 75.988172 
L 83.12886 71.380381 
L 83.52657 66.77259 
L 83.779631 66.77259 
L 83.852327 65.620642 
L 83.888225 66.77259 
L 83.996715 66.77259 
L 84.430874 77.14012 
L 84.611933 77.14012 
L 84.792677 79.444016 
L 84.829128 79.444016 
L 84.973841 80.595964 
L 85.118582 80.595964 
L 85.263121 79.444016 
L 85.33564 79.444016 
L 85.480379 78.292068 
L 85.552764 78.292068 
L 85.697484 77.14012 
L 85.805729 77.14012 
L 86.059278 79.444016 
L 86.131608 79.444016 
L 86.312536 81.747911 
L 86.493401 81.747911 
L 87.072312 96.723233 
L 87.361725 96.723233 
L 87.506473 95.571285 
L 87.759471 95.571285 
L 88.012911 100.179077 
L 88.048916 100.179077 
L 88.193638 101.331025 
L 88.23007 101.331025 
L 88.37472 102.482972 
L 88.700169 102.482972 
L 88.844889 103.63492 
L 88.88139 103.63492 
L 89.061971 105.938816 
L 89.134334 105.938816 
L 89.351419 109.394659 
L 89.423779 109.394659 
L 89.640859 112.850503 
L 89.677342 112.850503 
L 89.894435 116.306346 
L 89.930646 116.306346 
L 90.075028 117.458294 
L 90.111487 117.458294 
L 90.256167 118.610242 
L 90.292112 118.610242 
L 90.436834 119.76219 
L 90.509194 119.76219 
L 90.653918 120.914138 
L 90.762703 120.914138 
L 90.90747 122.066085 
L 90.97965 122.066085 
L 91.124384 123.218033 
L 91.449895 123.218033 
L 91.594619 124.369981 
L 91.956826 124.369981 
L 92.137583 125.521929 
L 92.824761 125.521929 
L 92.969486 126.673877 
L 93.331752 126.673877 
L 93.476006 125.521929 
L 93.548369 125.521929 
L 93.69309 124.369981 
L 93.801925 124.369981 
L 93.946628 125.521929 
L 94.236088 125.521929 
L 94.380784 126.673877 
L 94.525533 125.521929 
L 94.742353 125.521929 
L 94.778508 124.369981 
L 94.850869 125.521929 
L 95.212671 125.521929 
L 95.357787 124.369981 
L 95.64684 124.369981 
L 95.791559 125.521929 
L 95.900434 125.521929 
L 96.008643 126.673877 
L 96.334491 126.673877 
L 96.479233 125.521929 
L 96.587531 125.521929 
L 96.732605 126.673877 
L 97.021697 126.673877 
L 97.166421 125.521929 
L 97.63709 125.521929 
L 97.781823 126.673877 
L 97.890027 126.673877 
L 98.03475 125.521929 
L 98.251834 125.521929 
L 98.396551 126.673877 
L 98.686 126.673877 
L 98.830722 127.825825 
L 99.264886 127.825825 
L 99.409606 128.977772 
L 100.92919 128.977772 
L 101.073907 130.12972 
L 101.906347 130.12972 
L 102.051065 131.281668 
L 102.665848 131.281668 
L 102.810951 130.12972 
L 103.534545 130.12972 
L 103.6789 131.281668 
L 103.932394 131.281668 
L 104.077116 130.12972 
L 104.836673 130.12972 
L 104.981395 131.281668 
L 105.126117 130.12972 
L 106.537434 130.12972 
L 106.682209 131.281668 
L 107.007498 131.281668 
L 107.152224 130.12972 
L 107.731111 130.12972 
L 107.875834 131.281668 
L 107.98464 131.281668 
L 108.129363 130.12972 
L 108.888889 130.12972 
L 109.03361 131.281668 
L 109.865978 131.281668 
L 110.010665 132.433616 
L 112.832766 132.433616 
L 112.977549 133.585564 
L 113.01384 133.585564 
L 113.194637 132.433616 
L 113.266963 132.433616 
L 113.411674 133.585564 
L 113.556397 132.433616 
L 114.533059 132.433616 
L 114.677782 131.281668 
L 114.822501 132.433616 
L 118.151128 132.433616 
L 118.295849 131.281668 
L 127.015561 131.281668 
L 127.160279 132.433616 
L 128.064586 132.433616 
L 128.209308 131.281668 
L 128.607507 131.281668 
L 128.75211 132.433616 
L 129.258853 132.433616 
L 129.403295 133.585564 
L 131.465547 133.585564 
L 131.61027 134.737512 
L 131.827353 134.737512 
L 131.972073 133.585564 
L 133.346931 133.585564 
L 133.527968 134.737512 
L 133.60049 134.737512 
L 133.745133 133.585564 
L 133.817584 133.585564 
L 133.85346 134.737512 
L 133.92582 133.585564 
L 136.567259 133.585564 
L 136.711954 134.737512 
L 136.820684 134.737512 
L 137.001401 133.585564 
L 139.316977 133.585564 
L 139.461725 134.737512 
L 139.497617 133.585564 
L 139.570404 134.737512 
L 139.7147 134.737512 
L 139.859419 133.585564 
L 140.293586 133.585564 
L 140.438309 132.433616 
L 141.343121 132.433616 
L 141.487832 131.281668 
L 141.849542 131.281668 
L 141.994331 130.12972 
L 142.862726 130.12972 
L 143.007173 128.977772 
L 143.76692 128.977772 
L 143.911645 130.12972 
L 143.984007 130.12972 
L 144.128731 128.977772 
L 144.924702 128.977772 
L 145.105786 130.12972 
L 145.64868 130.12972 
L 145.829498 131.281668 
L 146.914944 131.281668 
L 147.059357 130.12972 
L 147.349015 130.12972 
L 147.493802 131.281668 
L 147.746804 131.281668 
L 147.891524 130.12972 
L 148.398427 130.12972 
L 148.542772 131.281668 
L 151.871375 131.281668 
L 152.016096 132.433616 
L 154.404012 132.433616 
L 154.548733 133.585564 
L 154.946908 133.585564 
L 155.091643 134.737512 
L 155.12762 134.737512 
L 155.308731 135.889459 
L 155.453451 135.889459 
L 155.778865 142.801146 
L 155.815262 142.801146 
L 156.104762 148.560885 
L 156.177109 148.560885 
L 156.394193 152.016729 
L 156.466612 152.016729 
L 156.647201 154.320625 
L 156.719564 154.320625 
L 156.864288 155.472572 
L 156.973065 155.472572 
L 157.15373 157.776468 
L 157.262291 157.776468 
L 157.407263 158.928416 
L 157.443176 158.928416 
L 157.62431 161.232312 
L 157.769011 161.232312 
L 157.949703 163.536207 
L 158.094424 163.536207 
L 158.239147 164.688155 
L 158.383874 164.688155 
L 158.528924 165.840103 
L 158.673312 165.840103 
L 158.81804 166.992051 
L 159.505624 166.992051 
L 159.650478 168.143999 
L 159.686376 168.143999 
L 159.831095 166.992051 
L 160.120543 166.992051 
L 160.265264 165.840103 
L 160.482347 165.840103 
L 160.627534 164.688155 
L 160.880455 164.688155 
L 161.025297 163.536207 
L 161.242376 163.536207 
L 161.386968 162.384259 
L 161.676564 162.384259 
L 161.857214 160.080364 
L 162.183056 160.080364 
L 162.327802 158.928416 
L 162.508466 158.928416 
L 162.653652 157.776468 
L 162.870277 157.776468 
L 163.051471 155.472572 
L 163.955692 155.472572 
L 164.100416 154.320625 
L 164.172779 154.320625 
L 164.317498 153.168677 
L 164.353927 153.168677 
L 164.498705 152.016729 
L 164.751674 152.016729 
L 164.896391 150.864781 
L 165.041114 150.864781 
L 165.185836 149.712833 
L 165.330557 149.712833 
L 165.51166 148.560885 
L 166.705425 148.560885 
L 166.886553 147.408938 
L 166.95899 147.408938 
L 167.103678 146.25699 
L 167.5014 146.25699 
L 167.646121 145.105042 
L 167.682551 145.105042 
L 167.827248 143.953094 
L 168.080712 143.953094 
L 168.261449 142.801146 
L 169.672234 142.801146 
L 169.816954 143.953094 
L 169.925754 143.953094 
L 170.070466 142.801146 
L 170.504547 142.801146 
L 170.649353 141.649199 
L 170.721688 141.649199 
L 170.866197 142.801146 
L 170.938718 142.801146 
L 171.083504 141.649199 
L 171.589904 141.649199 
L 171.734724 140.497251 
L 171.915425 140.497251 
L 172.060148 141.649199 
L 172.205189 140.497251 
L 172.277227 140.497251 
L 172.494314 137.041407 
L 172.603067 137.041407 
L 172.783761 139.345303 
L 173.18202 139.345303 
L 173.399136 135.889459 
L 173.507371 135.889459 
L 173.688506 137.041407 
L 173.760941 137.041407 
L 173.905642 138.193355 
L 173.941538 138.193355 
L 174.08626 139.345303 
L 174.12272 139.345303 
L 174.26717 140.497251 
L 174.412177 140.497251 
L 174.556895 141.649199 
L 175.750564 141.649199 
L 175.895287 140.497251 
L 175.96765 140.497251 
L 176.184733 137.041407 
L 176.329453 137.041407 
L 176.546539 133.585564 
L 176.872417 133.585564 
L 177.016966 134.737512 
L 177.12543 134.737512 
L 177.234253 135.889459 
L 177.270148 134.737512 
L 177.342513 135.889459 
L 177.632407 135.889459 
L 177.77668 137.041407 
L 177.885453 137.041407 
L 178.030242 138.193355 
L 178.102606 138.193355 
L 178.247342 139.345303 
L 178.464383 139.345303 
L 178.609138 140.497251 
L 182.010144 140.497251 
L 182.118351 139.345303 
L 182.263074 140.497251 
L 182.588987 140.497251 
L 182.733728 141.649199 
L 183.493214 141.649199 
L 183.637933 142.801146 
L 183.782658 141.649199 
L 184.795712 141.649199 
L 184.940438 142.801146 
L 185.085554 142.801146 
L 185.266315 141.649199 
L 185.374603 141.649199 
L 185.519326 140.497251 
L 185.555732 140.497251 
L 185.700557 141.649199 
L 186.351719 141.649199 
L 186.496196 140.497251 
L 186.641187 140.497251 
L 186.677105 139.345303 
L 186.749461 140.497251 
L 186.785891 140.497251 
L 186.858234 139.345303 
L 186.894186 140.497251 
L 186.930626 140.497251 
L 187.075319 139.345303 
L 187.509535 139.345303 
L 187.654212 140.497251 
L 188.196689 140.497251 
L 188.341407 141.649199 
L 188.594799 141.649199 
L 188.739654 142.801146 
L 188.847943 142.801146 
L 188.992664 143.953094 
L 189.53567 143.953094 
L 189.680329 145.105042 
L 190.222805 145.105042 
L 190.367531 146.25699 
L 191.308223 146.25699 
L 191.48944 148.560885 
L 191.525302 148.560885 
L 191.742384 152.016729 
L 191.851199 152.016729 
L 191.995771 153.168677 
L 192.031833 153.168677 
L 192.176553 154.320625 
L 192.465999 154.320625 
L 192.61121 155.472572 
L 192.755446 155.472572 
L 192.936627 157.776468 
L 193.00898 157.776468 
L 193.18961 160.080364 
L 193.406695 160.080364 
L 193.551413 161.232312 
L 193.587757 161.232312 
L 193.732559 162.384259 
L 193.877325 162.384259 
L 194.021844 163.536207 
L 194.41975 163.536207 
L 194.564471 162.384259 
L 194.853916 162.384259 
L 194.998636 161.232312 
L 195.143359 161.232312 
L 195.288481 162.384259 
L 195.505168 162.384259 
L 195.649885 161.232312 
L 197.567683 161.232312 
L 197.712425 162.384259 
L 197.820721 162.384259 
L 197.965442 163.536207 
L 198.761418 163.536207 
L 198.906139 162.384259 
L 198.942531 162.384259 
L 198.978505 163.536207 
L 199.050865 162.384259 
L 199.231951 162.384259 
L 199.34031 161.232312 
L 199.448892 161.232312 
L 199.629757 158.928416 
L 199.73863 158.928416 
L 199.919198 156.62452 
L 199.955671 156.62452 
L 200.064331 155.472572 
L 200.136283 155.472572 
L 200.317412 153.168677 
L 200.389785 153.168677 
L 200.53461 152.016729 
L 201.221698 152.016729 
L 201.366428 153.168677 
L 201.945313 153.168677 
L 202.090377 154.320625 
L 202.886011 154.320625 
L 203.067226 152.016729 
L 203.175453 152.016729 
L 203.32018 150.864781 
L 203.537266 150.864781 
L 203.573579 149.712833 
L 203.646083 150.864781 
L 203.826708 150.864781 
L 204.007919 148.560885 
L 204.369699 148.560885 
L 204.51442 147.408938 
L 204.659087 147.408938 
L 204.767414 146.25699 
L 204.984496 146.25699 
L 205.129222 145.105042 
L 205.310256 145.105042 
L 205.455098 143.953094 
L 205.672064 143.953094 
L 205.816883 142.801146 
L 205.88919 142.801146 
L 205.961581 141.649199 
L 205.997551 142.801146 
L 206.142277 142.801146 
L 206.757574 150.864781 
L 207.951308 150.864781 
L 208.096031 152.016729 
L 208.168389 152.016729 
L 208.349459 150.864781 
L 208.566676 150.864781 
L 208.711397 149.712833 
L 208.747278 149.712833 
L 208.892463 148.560885 
L 209.145557 146.25699 
L 209.470891 146.25699 
L 209.651828 143.953094 
L 209.796835 145.105042 
L 209.94156 145.105042 
L 210.086256 146.25699 
L 210.448021 146.25699 
L 210.628666 143.953094 
L 210.809835 143.953094 
L 210.918115 142.801146 
L 210.990458 142.801146 
L 211.207557 146.25699 
L 211.35228 146.25699 
L 211.605774 141.649199 
L 211.677905 141.649199 
L 211.895203 138.193355 
L 212.184679 138.193355 
L 212.365331 135.889459 
L 212.401614 135.889459 
L 212.582418 133.585564 
L 212.763539 133.585564 
L 212.944222 131.281668 
L 213.233669 131.281668 
L 213.378388 130.12972 
L 213.523109 130.12972 
L 213.668286 131.281668 
L 213.849034 130.12972 
L 213.884916 130.12972 
L 214.029639 128.977772 
L 214.391438 128.977772 
L 214.53617 127.825825 
L 214.572577 127.825825 
L 214.680885 126.673877 
L 214.862089 128.977772 
L 214.897973 128.977772 
L 215.115058 132.433616 
L 215.332141 132.433616 
L 215.4045 131.281668 
L 215.440977 132.433616 
L 215.549223 132.433616 
L 215.694399 134.737512 
L 216.019866 134.737512 
L 216.092103 133.585564 
L 216.128114 134.737512 
L 216.345194 134.737512 
L 216.671068 138.193355 
L 216.707001 138.193355 
L 216.743501 137.041407 
L 216.815841 138.193355 
L 216.888195 138.193355 
L 217.03293 139.345303 
L 217.213533 137.041407 
L 217.322337 137.041407 
L 217.467016 135.889459 
L 217.575338 135.889459 
L 217.720062 137.041407 
L 217.973518 139.345303 
L 218.009506 139.345303 
L 218.154228 140.497251 
L 218.588397 140.497251 
L 218.733117 141.649199 
L 218.914314 141.649199 
L 219.059033 142.801146 
L 219.348468 142.801146 
L 219.493189 143.953094 
L 219.673813 143.953094 
L 219.81898 145.105042 
L 220.361537 145.105042 
L 220.470277 146.25699 
L 220.795692 146.25699 
L 220.940458 147.408938 
L 220.976308 147.408938 
L 221.121033 148.560885 
L 221.374593 150.864781 
L 221.627562 150.864781 
L 221.772287 152.016729 
L 221.95336 152.016729 
L 222.098136 153.168677 
L 222.170619 153.168677 
L 222.315321 154.320625 
L 222.387561 154.320625 
L 222.496267 155.472572 
L 222.604547 155.472572 
L 222.785343 157.776468 
L 222.930065 157.776468 
L 223.07479 158.928416 
L 223.111277 158.928416 
L 223.291869 161.232312 
L 223.508956 161.232312 
L 223.653677 162.384259 
L 223.690189 162.384259 
L 223.834906 163.536207 
L 224.304926 163.536207 
L 224.486117 161.232312 
L 224.522007 161.232312 
L 224.775578 163.536207 
L 224.956181 163.536207 
L 225.100903 164.688155 
L 225.137249 164.688155 
L 225.317986 166.992051 
L 225.462709 166.992051 
L 225.643865 169.295946 
L 225.897248 169.295946 
L 226.150438 171.599842 
L 226.186324 171.599842 
L 226.403409 175.055686 
L 226.475765 175.055686 
L 226.620928 176.207633 
L 227.199385 176.207633 
L 227.344104 177.359581 
L 227.380399 177.359581 
L 227.525122 178.511529 
L 227.705911 176.207633 
L 227.814522 176.207633 
L 227.922995 175.055686 
L 228.104049 175.055686 
L 228.248785 176.207633 
L 228.429529 176.207633 
L 228.574248 175.055686 
L 228.936056 175.055686 
L 229.117102 177.359581 
L 229.189478 177.359581 
L 229.370225 179.663477 
L 229.587309 179.663477 
L 229.768389 181.967373 
L 229.876756 181.967373 
L 230.02193 180.815425 
L 230.057681 180.815425 
L 230.347254 175.055686 
L 230.419623 175.055686 
L 230.564253 176.207633 
L 230.600371 176.207633 
L 230.745096 177.359581 
L 230.78139 177.359581 
L 230.962178 179.663477 
L 231.685793 179.663477 
L 231.830517 178.511529 
L 231.866893 178.511529 
L 231.975242 177.359581 
L 232.048096 178.511529 
L 232.228722 177.359581 
L 232.373429 177.359581 
L 232.554131 179.663477 
L 232.626493 179.663477 
L 232.771213 180.815425 
L 232.807475 180.815425 
L 232.952298 181.967373 
L 233.35011 181.967373 
L 233.748245 186.575164 
L 233.929001 186.575164 
L 234.037696 185.423216 
L 234.218449 187.727112 
L 234.435529 187.727112 
L 234.580252 188.879059 
L 234.652614 188.879059 
L 234.724972 190.031007 
L 234.906061 188.879059 
L 234.942064 188.879059 
L 234.978426 190.031007 
L 235.050791 188.879059 
L 235.30387 188.879059 
L 235.412607 187.727112 
L 235.882763 187.727112 
L 236.027481 188.879059 
L 236.425702 188.879059 
L 236.606379 186.575164 
L 236.642637 186.575164 
L 236.823945 188.879059 
L 236.968181 188.879059 
L 237.185265 185.423216 
L 237.764155 185.423216 
L 237.908881 186.575164 
L 238.017602 186.575164 
L 238.198615 188.879059 
L 238.270688 188.879059 
L 238.415413 187.727112 
L 238.741322 187.727112 
L 238.849888 186.575164 
L 239.175496 190.031007 
L 239.211391 190.031007 
L 239.428475 193.486851 
L 239.464893 193.486851 
L 239.609422 194.638799 
L 239.645565 194.638799 
L 239.826756 196.942694 
L 240.043759 196.942694 
L 240.18848 198.094642 
L 240.224803 198.094642 
L 240.477934 200.398538 
L 240.767416 200.398538 
L 240.875709 199.24659 
L 241.056841 199.24659 
L 241.20157 198.094642 
L 241.346336 199.24659 
L 241.418682 199.24659 
L 241.599718 196.942694 
L 241.671683 196.942694 
L 241.852865 194.638799 
L 242.105854 194.638799 
L 242.250883 193.486851 
L 242.431734 192.334903 
L 242.648856 192.334903 
L 242.829469 194.638799 
L 242.974632 194.638799 
L 243.118914 195.790746 
L 243.480725 195.790746 
L 243.62584 198.094642 
L 243.73411 198.094642 
L 243.914892 200.398538 
L 244.023743 200.398538 
L 244.168476 201.550486 
L 244.276707 201.550486 
L 244.385298 202.702433 
L 244.602646 199.24659 
L 244.638512 199.24659 
L 244.819742 196.942694 
L 244.855599 196.942694 
L 245.000699 198.094642 
L 245.072683 198.094642 
L 245.217408 196.942694 
L 245.362129 196.942694 
L 245.506855 198.094642 
L 245.796302 198.094642 
L 245.941027 199.24659 
L 246.01339 199.24659 
L 246.194534 196.942694 
L 246.664645 196.942694 
L 246.809363 195.790746 
L 247.171178 195.790746 
L 247.315897 196.942694 
L 247.352312 196.942694 
L 247.49697 198.094642 
L 247.605342 198.094642 
L 247.786282 195.790746 
L 248.075929 195.790746 
L 248.220649 194.638799 
L 248.365369 194.638799 
L 248.546052 196.942694 
L 248.618409 196.942694 
L 248.835493 200.398538 
L 249.052573 200.398538 
L 249.233697 199.24659 
L 249.378479 200.398538 
L 249.414387 200.398538 
L 249.595553 202.702433 
L 249.631465 202.702433 
L 249.776472 203.854381 
L 249.884882 203.854381 
L 250.029736 205.006329 
L 250.391585 205.006329 
L 250.536071 206.158277 
L 250.68097 205.006329 
L 250.898067 205.006329 
L 251.078705 202.702433 
L 251.259779 203.854381 
L 251.368147 203.854381 
L 251.54929 206.158277 
L 251.729957 206.158277 
L 251.874684 205.006329 
L 252.128182 205.006329 
L 252.345308 201.550486 
L 252.381212 201.550486 
L 252.526193 200.398538 
L 252.562151 200.398538 
L 252.598296 201.550486 
L 252.670661 200.398538 
L 252.92406 200.398538 
L 253.068879 201.550486 
L 253.249555 201.550486 
L 253.358307 200.398538 
L 253.394275 201.550486 
L 253.466638 200.398538 
L 253.792479 200.398538 
L 254.009442 203.854381 
L 254.045533 203.854381 
L 254.262613 207.310225 
L 254.371326 207.310225 
L 254.552314 205.006329 
L 254.624421 205.006329 
L 254.841507 201.550486 
L 254.878026 201.550486 
L 255.022629 200.398538 
L 255.058596 200.398538 
L 255.203693 201.550486 
L 255.275681 201.550486 
L 255.4204 200.398538 
L 255.492762 200.398538 
L 255.637489 201.550486 
L 255.709854 201.550486 
L 255.854574 203.854381 
L 256.035653 203.854381 
L 256.180378 205.006329 
L 256.361104 202.702433 
L 256.469895 202.702433 
L 256.578563 201.550486 
L 257.01236 201.550486 
L 257.157086 200.398538 
L 257.229446 200.398538 
L 257.410549 201.550486 
L 257.446531 201.550486 
L 257.6277 203.854381 
L 257.663611 203.854381 
L 257.808335 202.702433 
L 258.025424 202.702433 
L 258.206635 205.006329 
L 258.387229 205.006329 
L 258.531952 206.158277 
L 258.676659 206.158277 
L 258.821401 205.006329 
L 258.966125 205.006329 
L 259.219686 209.61412 
L 259.291973 209.61412 
L 259.436627 210.766068 
L 259.472657 210.766068 
L 259.617381 211.918016 
L 259.798557 209.61412 
L 259.979475 209.61412 
L 260.160336 210.766068 
L 260.196274 210.766068 
L 260.377438 213.069964 
L 260.811522 213.069964 
L 260.992252 210.766068 
L 261.064614 210.766068 
L 261.101078 209.61412 
L 261.173427 210.766068 
L 261.245562 210.766068 
L 261.426425 208.462173 
L 261.498786 208.462173 
L 261.643509 207.310225 
L 261.932957 207.310225 
L 262.078116 206.158277 
L 262.113892 206.158277 
L 262.186414 207.310225 
L 262.222403 206.158277 
L 262.331223 206.158277 
L 262.475927 207.310225 
L 262.58421 207.310225 
L 262.72933 208.462173 
L 262.801299 208.462173 
L 262.946021 209.61412 
L 262.982495 209.61412 
L 263.090744 208.462173 
L 263.235467 209.61412 
L 263.995537 209.61412 
L 264.212494 206.158277 
L 264.248532 206.158277 
L 264.465615 196.942694 
L 265.189231 138.193355 
L 265.406316 134.737512 
L 265.442672 134.737512 
L 265.659859 131.281668 
L 266.057563 153.168677 
L 266.093859 152.016729 
L 266.129923 152.016729 
L 266.311081 149.712833 
L 266.419369 149.712833 
L 266.564091 148.560885 
L 266.600563 148.560885 
L 266.781177 139.345303 
L 267.179384 116.306346 
L 267.215342 118.610242 
L 267.432428 135.889459 
L 267.504789 135.889459 
L 267.758339 125.521929 
L 268.011729 116.306346 
L 268.662562 97.875181 
L 268.879644 101.331025 
L 268.988437 101.331025 
L 269.096727 100.179077 
L 269.313808 108.242711 
L 269.494834 105.938816 
L 269.530891 107.090764 
L 269.603253 105.938816 
L 269.892698 100.179077 
L 269.929113 100.179077 
L 270.001486 97.875181 
L 270.037413 100.179077 
L 270.326857 107.090764 
L 270.471578 105.938816 
L 270.543937 105.938816 
L 270.942165 96.723233 
L 271.37636 107.090764 
L 271.484635 107.090764 
L 271.629355 108.242711 
L 271.66579 108.242711 
L 272.172098 90.963494 
L 272.208239 92.115442 
L 272.317036 94.419338 
L 272.352959 93.26739 
L 272.389404 93.26739 
L 272.787542 102.482972 
L 272.823285 102.482972 
L 273.185394 89.811546 
L 273.221292 90.963494 
L 273.691841 115.154398 
L 273.764259 115.154398 
L 274.234346 127.825825 
L 274.270703 127.825825 
L 274.48786 124.369981 
L 274.596151 124.369981 
L 274.813665 128.977772 
L 274.957955 128.977772 
L 275.175041 125.521929 
L 275.356217 127.825825 
L 275.392126 127.825825 
L 275.53723 130.12972 
L 275.681565 128.977772 
L 275.826288 130.12972 
L 275.935087 130.12972 
L 276.115735 132.433616 
L 276.188552 132.433616 
L 276.369156 134.737512 
L 276.514001 134.737512 
L 276.911704 124.369981 
L 277.020494 126.673877 
L 277.056429 125.521929 
L 277.454677 116.306346 
L 277.563315 116.306346 
L 277.961004 125.521929 
L 278.178237 128.977772 
L 278.214569 128.977772 
L 278.540058 125.521929 
L 278.57601 125.521929 
L 278.974053 116.306346 
L 279.227258 116.306346 
L 279.480778 120.914138 
L 279.987353 107.090764 
L 280.023233 107.090764 
L 280.240688 110.546607 
L 280.348949 110.546607 
L 280.638546 116.306346 
L 280.674478 116.306346 
L 280.964306 122.066085 
L 281.108645 122.066085 
L 281.253365 123.218033 
L 281.506889 123.218033 
L 281.687533 120.914138 
L 281.723838 120.914138 
L 281.904619 118.610242 
L 282.266423 118.610242 
L 282.447532 119.76219 
L 282.592281 119.76219 
L 282.772948 122.066085 
L 282.95398 122.066085 
L 283.134752 124.369981 
L 283.171136 124.369981 
L 283.315839 125.521929 
L 283.533052 125.521929 
L 283.568917 124.369981 
L 283.605393 125.521929 
L 284.003089 134.737512 
L 284.039563 134.737512 
L 284.18428 135.889459 
L 284.256623 135.889459 
L 284.473625 139.345303 
L 284.509614 139.345303 
L 284.69078 141.649199 
L 284.726697 141.649199 
L 284.907869 143.953094 
L 285.01654 143.953094 
L 285.197263 145.105042 
L 285.233228 145.105042 
L 285.414373 147.408938 
L 285.486794 147.408938 
L 285.667393 149.712833 
L 285.848515 149.712833 
L 285.993265 150.864781 
L 286.029198 150.864781 
L 286.210247 153.168677 
L 286.318642 153.168677 
L 286.463366 154.320625 
L 287.440518 154.320625 
L 287.585054 155.472572 
L 287.982954 155.472572 
L 288.127675 156.62452 
L 289.249435 156.62452 
L 289.357818 155.472572 
L 289.430177 156.62452 
L 289.466598 155.472572 
L 289.973047 155.472572 
L 290.117788 156.62452 
L 290.262579 156.62452 
L 290.443613 158.928416 
L 290.551866 158.928416 
L 290.696734 160.080364 
L 290.732682 160.080364 
L 290.877405 161.232312 
L 290.913862 161.232312 
L 291.05852 162.384259 
L 291.275541 162.384259 
L 291.420356 163.536207 
L 291.745738 163.536207 
L 291.890465 164.688155 
L 292.179911 164.688155 
L 292.324629 165.840103 
L 292.542067 165.840103 
L 292.68644 166.992051 
L 292.795169 166.992051 
L 292.940038 168.143999 
L 293.627135 168.143999 
L 293.77186 169.295946 
L 295.146724 169.295946 
L 295.219475 170.447894 
L 295.400259 169.295946 
L 295.43617 169.295946 
L 295.580893 170.447894 
L 296.015061 170.447894 
L 296.159784 169.295946 
L 296.413322 169.295946 
L 296.55803 170.447894 
L 296.811035 170.447894 
L 296.992247 171.599842 
L 297.788211 171.599842 
L 297.896461 170.447894 
L 298.113544 170.447894 
L 298.258262 171.599842 
L 299.090663 171.599842 
L 299.235409 172.75179 
L 299.45242 172.75179 
L 299.597199 173.903738 
L 299.669634 173.903738 
L 299.814282 175.055686 
L 299.850211 175.055686 
L 299.99536 176.207633 
L 300.17611 177.359581 
L 300.212025 177.359581 
L 300.393191 179.663477 
L 300.465552 179.663477 
L 300.610317 180.815425 
L 300.646196 180.815425 
L 300.827316 181.967373 
L 301.333873 181.967373 
L 301.478501 183.11932 
L 301.514534 183.11932 
L 301.695652 185.423216 
L 301.803976 185.423216 
L 301.985184 187.727112 
L 302.12969 187.727112 
L 302.274574 188.879059 
L 302.346817 188.879059 
L 302.491655 190.031007 
L 302.527592 190.031007 
L 302.672317 191.182955 
L 302.92581 191.182955 
L 303.070623 192.334903 
L 303.577105 192.334903 
L 303.721687 193.486851 
L 305.313757 193.486851 
L 305.422056 194.638799 
L 306.000949 194.638799 
L 306.146049 193.486851 
L 307.086374 193.486851 
L 307.231098 192.334903 
L 308.895882 192.334903 
L 309.040133 191.182955 
L 310.270278 191.182955 
L 310.415004 190.031007 
L 310.451439 190.031007 
L 310.596064 188.879059 
L 310.704449 188.879059 
L 310.849173 190.031007 
L 311.573166 190.031007 
L 311.75395 188.879059 
L 312.585849 188.879059 
L 312.730574 190.031007 
L 313.092383 190.031007 
L 313.237102 191.182955 
L 313.490635 191.182955 
L 313.598913 192.334903 
L 314.14175 192.334903 
L 314.322813 188.879059 
L 314.684331 188.879059 
L 314.829061 190.031007 
L 315.154912 190.031007 
L 315.299616 188.879059 
L 315.589096 188.879059 
L 315.733571 190.031007 
L 315.84212 190.031007 
L 315.986844 191.182955 
L 316.023256 191.182955 
L 316.167973 192.334903 
L 316.349086 192.334903 
L 316.529798 193.486851 
L 316.999906 193.486851 
L 317.180981 194.638799 
L 317.216989 194.638799 
L 317.361711 195.790746 
L 317.723987 195.790746 
L 317.977092 193.486851 
L 318.157689 193.486851 
L 318.302413 194.638799 
L 318.917779 194.638799 
L 319.062499 195.790746 
L 319.387837 195.790746 
L 319.53256 196.942694 
L 320.907432 196.942694 
L 321.052155 195.790746 
L 321.378109 195.790746 
L 321.522832 194.638799 
L 322.391111 194.638799 
L 322.499776 193.486851 
L 322.680538 193.486851 
L 322.825317 192.334903 
L 323.946617 192.334903 
L 324.091341 191.182955 
L 324.453149 191.182955 
L 324.598251 192.334903 
L 325.140857 192.334903 
L 325.213194 193.486851 
L 325.610932 193.486851 
L 325.755657 192.334903 
L 325.90038 192.334903 
L 326.0815 191.182955 
L 326.696356 191.182955 
L 326.84108 190.031007 
L 327.022278 190.031007 
L 327.166998 188.879059 
L 327.275246 188.879059 
L 327.456358 187.727112 
L 327.673567 187.727112 
L 327.818198 186.575164 
L 327.854142 186.575164 
L 327.999206 185.423216 
L 328.143587 185.423216 
L 328.288308 184.271268 
L 328.903739 184.271268 
L 329.048418 183.11932 
L 329.265443 183.11932 
L 329.409939 181.967373 
L 329.446094 181.967373 
L 329.663179 178.511529 
L 329.807898 178.511529 
L 329.952622 179.663477 
L 330.097342 179.663477 
L 330.242069 178.511529 
L 330.423235 178.511529 
L 330.603879 176.207633 
L 330.676239 176.207633 
L 330.857323 175.055686 
L 331.002176 175.055686 
L 331.182768 172.75179 
L 331.581001 172.75179 
L 331.761656 175.055686 
L 332.123453 175.055686 
L 332.340549 171.599842 
L 332.37697 171.599842 
L 332.557634 169.295946 
L 332.594056 169.295946 
L 332.775164 166.992051 
L 333.208886 166.992051 
L 333.389959 164.688155 
L 333.426207 164.688155 
L 333.679553 162.384259 
L 333.715416 162.384259 
L 333.860142 163.536207 
L 333.932501 163.536207 
L 334.077223 161.232312 
L 334.15007 161.232312 
L 334.330712 158.928416 
L 334.403112 158.928416 
L 334.583752 161.232312 
L 334.620189 161.232312 
L 334.801215 158.928416 
L 334.945559 158.928416 
L 335.090283 157.776468 
L 335.235005 157.776468 
L 335.416214 155.472572 
L 335.45209 155.472572 
L 335.995041 148.560885 
L 336.067438 148.560885 
L 336.211862 147.408938 
L 336.248057 147.408938 
L 336.429229 149.712833 
L 336.573923 148.560885 
L 336.646173 148.560885 
L 336.790975 147.408938 
L 336.826952 147.408938 
L 337.080525 141.649199 
L 337.33348 137.041407 
L 337.550987 140.497251 
L 337.731707 140.497251 
L 337.876429 139.345303 
L 338.093596 139.345303 
L 338.202191 132.433616 
L 338.780697 102.482972 
L 339.106585 95.571285 
L 339.359587 102.482972 
L 339.395997 101.331025 
L 339.431947 101.331025 
L 339.504307 97.875181 
L 339.57715 99.027129 
L 339.68535 102.482972 
L 339.721392 101.331025 
L 339.757835 101.331025 
L 340.047266 89.811546 
L 340.336535 77.14012 
L 340.51736 72.532329 
L 340.734439 77.14012 
L 340.951828 69.076485 
L 341.168605 79.444016 
L 341.71142 120.914138 
L 341.856318 112.850503 
L 342.218162 89.811546 
L 342.254018 90.963494 
L 342.435127 92.115442 
L 342.543461 87.507651 
L 342.579948 88.659598 
L 342.724653 89.811546 
L 342.869292 89.811546 
L 342.978042 82.899859 
L 343.30354 63.316746 
L 343.339433 64.468694 
L 343.628871 77.14012 
L 344.244253 85.203755 
L 344.388682 85.203755 
L 344.424842 86.355703 
L 344.497199 85.203755 
L 344.533599 85.203755 
L 344.678356 88.659598 
L 344.714286 87.507651 
L 344.859007 87.507651 
L 345.654978 110.546607 
L 345.727318 110.546607 
L 345.763579 109.394659 
L 345.836101 110.546607 
L 346.0532 114.002451 
L 346.089143 114.002451 
L 346.270359 116.306346 
L 346.414765 116.306346 
L 346.595671 118.610242 
L 346.776889 116.306346 
L 346.812752 116.306346 
L 346.993871 114.002451 
L 347.030326 114.002451 
L 347.210997 112.850503 
L 347.246918 112.850503 
L 347.464002 116.306346 
L 347.500465 116.306346 
L 347.608727 117.458294 
L 347.753919 116.306346 
L 347.898169 116.306346 
L 348.11525 119.76219 
L 348.15162 119.76219 
L 348.332335 122.066085 
L 348.405118 122.066085 
L 348.585864 123.218033 
L 348.694139 123.218033 
L 348.838859 124.369981 
L 348.875298 124.369981 
L 349.019872 125.521929 
L 349.345388 125.521929 
L 349.490111 126.673877 
L 349.562471 126.673877 
L 349.707193 127.825825 
L 350.033062 127.825825 
L 350.177765 128.977772 
L 350.431176 128.977772 
L 350.684237 131.281668 
L 350.864973 131.281668 
L 351.009694 132.433616 
L 351.082055 132.433616 
L 351.26316 133.585564 
L 351.29914 133.585564 
L 351.44386 134.737512 
L 351.516221 134.737512 
L 351.697365 137.041407 
L 351.769719 137.041407 
L 351.914346 138.193355 
L 352.022749 138.193355 
L 352.167472 139.345303 
L 352.420939 139.345303 
L 352.565533 140.497251 
L 352.674002 140.497251 
L 352.818721 141.649199 
L 352.963442 141.649199 
L 353.108161 142.801146 
L 353.28924 142.801146 
L 353.434085 143.953094 
L 353.832239 143.953094 
L 354.012949 145.105042 
L 354.591614 145.105042 
L 354.736541 143.953094 
L 354.844834 143.953094 
L 354.989555 145.105042 
L 355.02605 145.105042 
L 355.170732 143.953094 
L 355.496084 143.953094 
L 355.677229 146.25699 
L 355.785532 146.25699 
L 355.930246 147.408938 
L 356.00261 147.408938 
L 356.183827 145.105042 
L 357.377475 145.105042 
L 357.522199 146.25699 
L 358.173448 146.25699 
L 358.318173 145.105042 
L 358.535253 145.105042 
L 358.679977 143.953094 
L 358.752335 143.953094 
L 358.89706 142.801146 
L 359.475951 142.801146 
L 359.620675 141.649199 
L 359.657189 141.649199 
L 359.729389 140.497251 
L 359.765396 141.649199 
L 360.199561 141.649199 
L 360.344284 142.801146 
L 360.525491 142.801146 
L 360.634171 143.953094 
L 360.959661 143.953094 
L 361.140255 146.25699 
L 361.393558 146.25699 
L 361.538532 145.105042 
L 361.683127 145.105042 
L 361.827907 146.25699 
L 361.936231 146.25699 
L 362.080952 147.408938 
L 362.153313 147.408938 
L 362.298036 148.560885 
L 362.479227 148.560885 
L 362.659839 150.864781 
L 362.985687 154.320625 
L 363.057896 154.320625 
L 363.202848 155.472572 
L 363.27515 155.472572 
L 363.455817 157.776468 
L 363.492163 157.776468 
L 363.636946 158.928416 
L 364.830681 158.928416 
L 364.975404 157.776468 
L 365.120124 157.776468 
L 365.264846 156.62452 
L 365.880139 156.62452 
L 366.024899 155.472572 
L 366.277903 155.472572 
L 366.422626 154.320625 
L 366.748563 150.864781 
L 366.965563 150.864781 
L 367.110282 149.712833 
L 367.363321 149.712833 
L 367.508044 148.560885 
L 367.79749 148.560885 
L 367.942215 149.712833 
L 368.738186 149.712833 
L 368.88291 150.864781 
L 369.317074 150.864781 
L 369.461795 149.712833 
L 369.715227 152.016729 
L 369.787654 152.016729 
L 369.932323 150.864781 
L 370.113047 150.864781 
L 370.257768 152.016729 
L 370.691937 152.016729 
L 370.764299 150.864781 
L 370.800727 152.016729 
L 371.126107 152.016729 
L 371.270832 153.168677 
L 371.415549 153.168677 
L 371.560657 152.016729 
L 371.596474 152.016729 
L 371.777358 154.320625 
L 372.211908 154.320625 
L 372.392637 155.472572 
L 372.465094 155.472572 
L 372.609755 156.62452 
L 372.826833 156.62452 
L 372.971367 155.472572 
L 373.369308 155.472572 
L 373.514028 156.62452 
L 373.731114 156.62452 
L 373.912257 158.928416 
L 374.020558 158.928416 
L 374.201755 161.232312 
L 374.237642 161.232312 
L 374.418682 162.384259 
L 374.563531 161.232312 
L 374.599878 161.232312 
L 374.780707 158.928416 
L 375.069966 158.928416 
L 375.250701 161.232312 
L 375.323062 161.232312 
L 375.467784 160.080364 
L 375.576545 160.080364 
L 375.829594 164.688155 
L 376.046674 164.688155 
L 376.191399 165.840103 
L 376.372339 165.840103 
L 376.553207 163.536207 
L 377.096044 163.536207 
L 377.313314 160.080364 
L 377.566263 160.080364 
L 377.710968 161.232312 
L 377.855708 160.080364 
L 377.928068 160.080364 
L 378.072792 161.232312 
L 378.253968 161.232312 
L 378.326273 160.080364 
L 378.362655 161.232312 
L 378.615831 161.232312 
L 378.796405 158.928416 
L 379.08585 158.928416 
L 379.12212 160.080364 
L 379.194642 158.928416 
L 379.302932 158.928416 
L 379.484104 161.232312 
L 379.556397 161.232312 
L 379.664744 162.384259 
L 379.845828 162.384259 
L 379.990639 163.536207 
L 380.135414 162.384259 
L 380.207725 162.384259 
L 380.497015 168.143999 
L 380.569458 168.143999 
L 380.750162 170.447894 
L 380.859023 170.447894 
L 381.003627 171.599842 
L 381.256689 171.599842 
L 381.437828 169.295946 
L 381.690863 169.295946 
L 381.871911 171.599842 
L 381.94433 171.599842 
L 382.089046 172.75179 
L 382.16146 172.75179 
L 382.30619 171.599842 
L 382.414475 171.599842 
L 382.667902 169.295946 
L 382.812729 169.295946 
L 382.957433 170.447894 
L 383.174284 166.992051 
L 383.319289 166.992051 
L 383.499894 169.295946 
L 383.644618 169.295946 
L 383.789727 171.599842 
L 383.897993 171.599842 
L 384.042761 172.75179 
L 384.332347 172.75179 
L 384.513398 175.055686 
L 384.585318 175.055686 
L 384.730041 176.207633 
L 384.766535 176.207633 
L 384.911228 177.359581 
L 384.98361 177.359581 
L 385.128349 176.207633 
L 385.41765 176.207633 
L 385.598373 173.903738 
L 385.670741 173.903738 
L 385.815464 175.055686 
L 385.996595 176.207633 
L 386.35845 176.207633 
L 386.539476 178.511529 
L 386.647781 178.511529 
L 386.828521 180.815425 
L 386.937328 180.815425 
L 387.117967 183.11932 
L 387.190663 183.11932 
L 387.371488 181.967373 
L 387.733337 181.967373 
L 387.986305 177.359581 
L 388.131026 177.359581 
L 388.312226 179.663477 
L 388.348113 179.663477 
L 388.529293 177.359581 
L 388.999366 177.359581 
L 389.144089 176.207633 
L 389.361172 176.207633 
L 389.542201 178.511529 
L 389.578257 178.511529 
L 389.722979 179.663477 
L 389.904129 179.663477 
L 390.084784 181.967373 
L 390.446595 181.967373 
L 390.518955 180.815425 
L 390.555375 181.967373 
L 390.699941 181.967373 
L 390.844823 183.11932 
L 391.134361 183.11932 
L 391.242569 184.271268 
L 391.532016 184.271268 
L 391.713178 186.575164 
L 391.893822 186.575164 
L 391.966598 187.727112 
L 392.147358 186.575164 
L 392.183272 186.575164 
L 392.327994 187.727112 
L 392.364383 187.727112 
L 392.509138 186.575164 
L 392.61744 186.575164 
L 392.79854 185.423216 
L 393.01564 185.423216 
L 393.123969 186.575164 
L 393.413424 180.815425 
L 393.775225 180.815425 
L 393.992312 177.359581 
L 394.209395 177.359581 
L 394.390482 175.055686 
L 394.607605 175.055686 
L 395.150088 154.320625 
L 395.511895 137.041407 
L 395.620713 137.041407 
L 395.910078 124.369981 
L 396.018421 120.914138 
L 396.235506 120.914138 
L 396.561418 114.002451 
L 396.59731 114.002451 
L 396.742464 117.458294 
L 396.814391 116.306346 
L 396.886755 117.458294 
L 396.923175 116.306346 
L 396.995543 116.306346 
L 397.176197 109.394659 
L 397.248557 111.698555 
L 397.284953 111.698555 
L 397.357364 112.850503 
L 397.39328 111.698555 
L 398.044529 78.292068 
L 398.153076 79.444016 
L 398.333972 80.595964 
L 398.442598 79.444016 
L 398.768505 71.380381 
L 398.840502 72.532329 
L 399.057579 82.899859 
L 399.093978 81.747911 
L 399.129942 81.747911 
L 399.311025 79.444016 
L 399.347024 79.444016 
L 399.419381 77.14012 
L 399.672885 86.355703 
L 399.708826 86.355703 
L 399.853547 89.811546 
L 400.143429 78.292068 
L 400.432434 66.77259 
L 400.504799 63.316746 
L 400.541123 64.468694 
L 400.794632 75.988172 
L 401.04777 73.684277 
L 401.083677 73.684277 
L 401.156042 72.532329 
L 401.192508 73.684277 
L 401.2284 73.684277 
L 401.337219 74.836224 
L 401.698944 64.468694 
L 401.734928 65.620642 
L 401.771313 65.620642 
L 401.952008 63.316746 
L 402.133116 66.77259 
L 402.313816 67.924537 
L 402.386172 66.77259 
L 402.422578 67.924537 
L 402.639716 67.924537 
L 402.820339 72.532329 
L 402.856644 71.380381 
L 402.929086 71.380381 
L 403.109776 73.684277 
L 403.182143 71.380381 
L 403.218597 72.532329 
L 403.363341 75.988172 
L 403.399219 74.836224 
L 403.47157 74.836224 
L 403.543941 77.14012 
L 404.521096 79.444016 
L 405.099946 63.316746 
L 405.135884 63.316746 
L 405.244641 66.77259 
L 405.280607 65.620642 
L 405.317047 65.620642 
L 405.570052 54.101164 
L 405.678845 50.64532 
L 405.968251 70.228433 
L 406.040562 70.228433 
L 406.076575 69.076485 
L 406.14936 70.228433 
L 406.366011 73.684277 
L 406.402451 73.684277 
L 406.619465 69.076485 
L 406.76412 72.532329 
L 406.908809 64.468694 
L 407.343125 43.733633 
L 407.596146 36.821946 
L 407.63252 37.973894 
L 407.704941 37.973894 
L 407.74087 36.821946 
L 407.81323 37.973894 
L 407.849528 37.973894 
L 408.066595 41.429737 
L 408.102668 41.429737 
L 408.24739 39.125842 
L 408.283708 39.125842 
L 408.392115 35.669998 
L 408.428545 36.821946 
L 409.731064 75.988172 
L 409.76696 75.988172 
L 410.128773 67.924537 
L 410.1652 67.924537 
L 410.309786 69.076485 
L 410.345853 69.076485 
L 410.562936 62.164798 
L 410.744012 64.468694 
L 410.780015 64.468694 
L 410.852377 62.164798 
L 410.925136 63.316746 
L 411.105915 65.620642 
L 411.141819 65.620642 
L 411.250634 66.77259 
L 411.503626 62.164798 
L 411.539943 62.164798 
L 411.684683 61.012851 
L 411.974243 66.77259 
L 412.154869 66.77259 
L 412.770114 88.659598 
L 413.059578 100.179077 
L 413.349089 105.938816 
L 413.384999 105.938816 
L 413.674446 111.698555 
L 413.710767 111.698555 
L 413.89153 114.002451 
L 413.927979 114.002451 
L 414.108616 116.306346 
L 414.144961 116.306346 
L 414.325694 118.610242 
L 414.361955 118.610242 
L 414.470419 119.76219 
L 418.088474 133.585564 
L 418.233195 134.737512 
L 418.269503 134.737512 
L 418.414401 135.889459 
L 418.52294 135.889459 
L 418.703717 137.041407 
L 419.173892 137.041407 
L 419.354965 138.193355 
L 419.427425 138.193355 
L 419.572106 137.041407 
L 419.680768 137.041407 
L 419.82514 138.193355 
L 419.861495 138.193355 
L 419.969861 139.345303 
L 420.114583 138.193355 
L 420.2593 138.193355 
L 420.44049 140.497251 
L 420.548747 140.497251 
L 420.946918 145.105042 
L 421.019233 145.105042 
L 421.16404 146.25699 
L 421.2 146.25699 
L 421.2 146.25699 
" clip-path="url(#p8f79b6071a)" style="fill: none; stroke: #1f77b4; stroke-width: 1.5; stroke-linecap: square"/>
   </g>
   <g id="patch_3">
    <path d="M 46.55 221.939962 
L 46.55 26.8 
" style="fill: none; stroke: #000000; stroke-width: 0.8; stroke-linejoin: miter; stroke-linecap: square"/>
   </g>
   <g id="patch_4">
    <path d="M 421.2 221.939962 
L 421.2 26.8 
" style="fill: none; stroke: #000000; stroke-width: 0.8; stroke-linejoin: miter; stroke-linecap: square"/>
   </g>
   <g id="patch_5">
    <path d="M 46.55 221.939962 
L 421.2 221.939962 
" style="fill: none; stroke: #000000; stroke-width: 0.8; stroke-linejoin: miter; stroke-linecap: square"/>
   </g>
   <g id="patch_6">
    <path d="M 46.55 26.8 
L 421.2 26.8 
" style="fill: none; stroke: #000000; stroke-width: 0.8; stroke-linejoin: miter; stroke-linecap: square"/>
   </g>
   <g id="text_15">
    <!-- November 2023 -->
    <g transform="translate(185.483125 20.8) scale(0.12 -0.12)">
     <defs>
      <path id="DejaVuSans-4e" d="M 628 4666 
L 1478 4666 
L 3547 763 
L 3547 4666 
L 4159 4666 
L 4159 0 
L 3309 0 
L 1241 3903 
L 1241 0 
L 628 0 
L 628 4666 
z
" transform="scale(0.015625)"/>
      <path id="DejaVuSans-6f" d="M 1959 3097 
Q 1497 3097 1228 2736 
Q 959 2375 959 1747 
Q 959 1119 1226 758 
Q 1494 397 1959 397 
Q 2419 397 2687 759 
Q 2956 1122 2956 1747 
Q 2956 2369 2687 2733 
Q 2419 3097 1959 3097 
z
M 1959 3584 
Q 2709 3584 3137 3096 
Q 3566 2609 3566 1747 
Q 3566 888 3137 398 
Q 2709 -91 1959 -91 
Q 1206 -91 779 398 
Q 353 888 353 1747 
Q 353 2609 779 3096 
Q 1206 3584 1959 3584 
z
" transform="scale(0.015625)"/>
      <path id="DejaVuSans-76" d="M 191 3500 
L 800 3500 
L 1894 563 
L 2988 3500 
L 3597 3500 
L 2284 0 
L 1503 0 
L 191 3500 
z
" transform="scale(0.015625)"/>
      <path id="DejaVuSans-62" d="M 3116 1747 
Q 3116 2381 2855 2742 
Q 2594 3103 2138 3103 
Q 1681 3103 1420 2742 
Q 1159 2381 1159 1747 
Q 1159 1113 1420 752 
Q 1681 391 2138 391 
Q 2594 391 2855 752 
Q 3116 1113 3116 1747 
z
M 1159 2969 
Q 1341 3281 1617 3432 
Q 1894 3584 2278 3584 
Q 2916 3584 3314 3078 
Q 3713 2572 3713 1747 
Q 3713 922 3314 415 
Q 2916 -91 2278 -91 
Q 1894 -91 1617 61 
Q 1341 213 1159 525 
L 1159 0 
L 581 0 
L 581 4863 
L 1159 4863 
L 1159 2969 
z
" transform="scale(0.015625)"/>
     </defs>
     <use xlink:href="#DejaVuSans-4e"/>
     <use xlink:href="#DejaVuSans-6f" x="74.804688"/>
     <use xlink:href="#DejaVuSans-76" x="135.986328"/>
     <use xlink:href="#DejaVuSans-65" x="195.166016"/>
     <use xlink:href="#DejaVuSans-6d" x="256.689453"/>
     <use xlink:href="#DejaVuSans-62" x="354.101562"/>
     <use xlink:href="#DejaVuSans-65" x="417.578125"/>
     <use xlink:href="#DejaVuSans-72" x="479.101562"/>
     <use xlink:href="#DejaVuSans-20" x="520.214844"/>
     <use xlink:href="#DejaVuSans-32" x="552.001953"/>
     <use xlink:href="#DejaVuSans-30" x="615.625"/>
     <use xlink:href="#DejaVuSans-32" x="679.248047"/>
     <use xlink:href="#DejaVuSans-33" x="742.871094"/>
    </g>
   </g>
  </g>
 </g>
 <defs>
  <clipPath id="p8f79b6071a">
   <rect x="46.55" y="26.8" width="374.65" height="195.139962"/>
  </clipPath>
 </defs>
</svg>
