<?xml version="1.0" encoding="utf-8" standalone="no"?>
<!DOCTYPE svg PUBLIC "-//W3C//DTD SVG 1.1//EN"
  "http://www.w3.org/Graphics/SVG/1.1/DTD/svg11.dtd">
<svg xmlns:xlink="http://www.w3.org/1999/xlink" width="460.8pt" height="345.6pt" viewBox="0 0 460.8 345.6" xmlns="http://www.w3.org/2000/svg" version="1.1">
 <metadata>
  <rdf:RDF xmlns:dc="http://purl.org/dc/elements/1.1/" xmlns:cc="http://creativecommons.org/ns#" xmlns:rdf="http://www.w3.org/1999/02/22-rdf-syntax-ns#">
   <cc:Work>
    <dc:type rdf:resource="http://purl.org/dc/dcmitype/StillImage"/>
    <dc:date>2023-11-10T11:46:23.238718</dc:date>
    <dc:format>image/svg+xml</dc:format>
    <dc:creator>
     <cc:Agent>
      <dc:title>Matplotlib v3.6.3, https://matplotlib.org/</dc:title>
     </cc:Agent>
    </dc:creator>
   </cc:Work>
  </rdf:RDF>
 </metadata>
 <defs>
  <style type="text/css">*{stroke-linejoin: round; stroke-linecap: butt}</style>
 </defs>
 <g id="figure_1">
  <g id="patch_1">
   <path d="M 0 345.6 
L 460.8 345.6 
L 460.8 0 
L 0 0 
z
" style="fill: #ffffff"/>
  </g>
  <g id="axes_1">
   <g id="patch_2">
    <path d="M 51.05 279.561175 
L 450 279.561175 
L 450 25.44 
L 51.05 25.44 
z
" style="fill: #ffffff"/>
   </g>
   <g id="matplotlib.axis_1">
    <g id="xtick_1">
     <g id="line2d_1">
      <path d="M 93.069434 279.561175 
L 93.069434 25.44 
" clip-path="url(#pa0be3788dc)" style="fill: none; stroke: #b0b0b0; stroke-width: 0.8; stroke-linecap: square"/>
     </g>
     <g id="line2d_2">
      <defs>
       <path id="mf7d118afd7" d="M 0 0 
L 0 3.5 
" style="stroke: #000000; stroke-width: 0.8"/>
      </defs>
      <g>
       <use xlink:href="#mf7d118afd7" x="93.069434" y="279.561175" style="stroke: #000000; stroke-width: 0.8"/>
      </g>
     </g>
     <g id="text_1">
      <!-- 2023-11-02 -->
      <g transform="translate(50.50492 333.028035) rotate(-45) scale(0.1 -0.1)">
       <defs>
        <path id="DejaVuSans-32" d="M 1228 531 
L 3431 531 
L 3431 0 
L 469 0 
L 469 531 
Q 828 903 1448 1529 
Q 2069 2156 2228 2338 
Q 2531 2678 2651 2914 
Q 2772 3150 2772 3378 
Q 2772 3750 2511 3984 
Q 2250 4219 1831 4219 
Q 1534 4219 1204 4116 
Q 875 4013 500 3803 
L 500 4441 
Q 881 4594 1212 4672 
Q 1544 4750 1819 4750 
Q 2544 4750 2975 4387 
Q 3406 4025 3406 3419 
Q 3406 3131 3298 2873 
Q 3191 2616 2906 2266 
Q 2828 2175 2409 1742 
Q 1991 1309 1228 531 
z
" transform="scale(0.015625)"/>
        <path id="DejaVuSans-30" d="M 2034 4250 
Q 1547 4250 1301 3770 
Q 1056 3291 1056 2328 
Q 1056 1369 1301 889 
Q 1547 409 2034 409 
Q 2525 409 2770 889 
Q 3016 1369 3016 2328 
Q 3016 3291 2770 3770 
Q 2525 4250 2034 4250 
z
M 2034 4750 
Q 2819 4750 3233 4129 
Q 3647 3509 3647 2328 
Q 3647 1150 3233 529 
Q 2819 -91 2034 -91 
Q 1250 -91 836 529 
Q 422 1150 422 2328 
Q 422 3509 836 4129 
Q 1250 4750 2034 4750 
z
" transform="scale(0.015625)"/>
        <path id="DejaVuSans-33" d="M 2597 2516 
Q 3050 2419 3304 2112 
Q 3559 1806 3559 1356 
Q 3559 666 3084 287 
Q 2609 -91 1734 -91 
Q 1441 -91 1130 -33 
Q 819 25 488 141 
L 488 750 
Q 750 597 1062 519 
Q 1375 441 1716 441 
Q 2309 441 2620 675 
Q 2931 909 2931 1356 
Q 2931 1769 2642 2001 
Q 2353 2234 1838 2234 
L 1294 2234 
L 1294 2753 
L 1863 2753 
Q 2328 2753 2575 2939 
Q 2822 3125 2822 3475 
Q 2822 3834 2567 4026 
Q 2313 4219 1838 4219 
Q 1578 4219 1281 4162 
Q 984 4106 628 3988 
L 628 4550 
Q 988 4650 1302 4700 
Q 1616 4750 1894 4750 
Q 2613 4750 3031 4423 
Q 3450 4097 3450 3541 
Q 3450 3153 3228 2886 
Q 3006 2619 2597 2516 
z
" transform="scale(0.015625)"/>
        <path id="DejaVuSans-2d" d="M 313 2009 
L 1997 2009 
L 1997 1497 
L 313 1497 
L 313 2009 
z
" transform="scale(0.015625)"/>
        <path id="DejaVuSans-31" d="M 794 531 
L 1825 531 
L 1825 4091 
L 703 3866 
L 703 4441 
L 1819 4666 
L 2450 4666 
L 2450 531 
L 3481 531 
L 3481 0 
L 794 0 
L 794 531 
z
" transform="scale(0.015625)"/>
       </defs>
       <use xlink:href="#DejaVuSans-32"/>
       <use xlink:href="#DejaVuSans-30" x="63.623047"/>
       <use xlink:href="#DejaVuSans-32" x="127.246094"/>
       <use xlink:href="#DejaVuSans-33" x="190.869141"/>
       <use xlink:href="#DejaVuSans-2d" x="254.492188"/>
       <use xlink:href="#DejaVuSans-31" x="290.576172"/>
       <use xlink:href="#DejaVuSans-31" x="354.199219"/>
       <use xlink:href="#DejaVuSans-2d" x="417.822266"/>
       <use xlink:href="#DejaVuSans-30" x="453.90625"/>
       <use xlink:href="#DejaVuSans-32" x="517.529297"/>
      </g>
     </g>
    </g>
    <g id="xtick_2">
     <g id="line2d_3">
      <path d="M 135.111234 279.561175 
L 135.111234 25.44 
" clip-path="url(#pa0be3788dc)" style="fill: none; stroke: #b0b0b0; stroke-width: 0.8; stroke-linecap: square"/>
     </g>
     <g id="line2d_4">
      <g>
       <use xlink:href="#mf7d118afd7" x="135.111234" y="279.561175" style="stroke: #000000; stroke-width: 0.8"/>
      </g>
     </g>
     <g id="text_2">
      <!-- 2023-11-03 -->
      <g transform="translate(92.54672 333.028035) rotate(-45) scale(0.1 -0.1)">
       <use xlink:href="#DejaVuSans-32"/>
       <use xlink:href="#DejaVuSans-30" x="63.623047"/>
       <use xlink:href="#DejaVuSans-32" x="127.246094"/>
       <use xlink:href="#DejaVuSans-33" x="190.869141"/>
       <use xlink:href="#DejaVuSans-2d" x="254.492188"/>
       <use xlink:href="#DejaVuSans-31" x="290.576172"/>
       <use xlink:href="#DejaVuSans-31" x="354.199219"/>
       <use xlink:href="#DejaVuSans-2d" x="417.822266"/>
       <use xlink:href="#DejaVuSans-30" x="453.90625"/>
       <use xlink:href="#DejaVuSans-33" x="517.529297"/>
      </g>
     </g>
    </g>
    <g id="xtick_3">
     <g id="line2d_5">
      <path d="M 177.153034 279.561175 
L 177.153034 25.44 
" clip-path="url(#pa0be3788dc)" style="fill: none; stroke: #b0b0b0; stroke-width: 0.8; stroke-linecap: square"/>
     </g>
     <g id="line2d_6">
      <g>
       <use xlink:href="#mf7d118afd7" x="177.153034" y="279.561175" style="stroke: #000000; stroke-width: 0.8"/>
      </g>
     </g>
     <g id="text_3">
      <!-- 2023-11-04 -->
      <g transform="translate(134.58852 333.028035) rotate(-45) scale(0.1 -0.1)">
       <defs>
        <path id="DejaVuSans-34" d="M 2419 4116 
L 825 1625 
L 2419 1625 
L 2419 4116 
z
M 2253 4666 
L 3047 4666 
L 3047 1625 
L 3713 1625 
L 3713 1100 
L 3047 1100 
L 3047 0 
L 2419 0 
L 2419 1100 
L 313 1100 
L 313 1709 
L 2253 4666 
z
" transform="scale(0.015625)"/>
       </defs>
       <use xlink:href="#DejaVuSans-32"/>
       <use xlink:href="#DejaVuSans-30" x="63.623047"/>
       <use xlink:href="#DejaVuSans-32" x="127.246094"/>
       <use xlink:href="#DejaVuSans-33" x="190.869141"/>
       <use xlink:href="#DejaVuSans-2d" x="254.492188"/>
       <use xlink:href="#DejaVuSans-31" x="290.576172"/>
       <use xlink:href="#DejaVuSans-31" x="354.199219"/>
       <use xlink:href="#DejaVuSans-2d" x="417.822266"/>
       <use xlink:href="#DejaVuSans-30" x="453.90625"/>
       <use xlink:href="#DejaVuSans-34" x="517.529297"/>
      </g>
     </g>
    </g>
    <g id="xtick_4">
     <g id="line2d_7">
      <path d="M 219.194834 279.561175 
L 219.194834 25.44 
" clip-path="url(#pa0be3788dc)" style="fill: none; stroke: #b0b0b0; stroke-width: 0.8; stroke-linecap: square"/>
     </g>
     <g id="line2d_8">
      <g>
       <use xlink:href="#mf7d118afd7" x="219.194834" y="279.561175" style="stroke: #000000; stroke-width: 0.8"/>
      </g>
     </g>
     <g id="text_4">
      <!-- 2023-11-05 -->
      <g transform="translate(176.63032 333.028035) rotate(-45) scale(0.1 -0.1)">
       <defs>
        <path id="DejaVuSans-35" d="M 691 4666 
L 3169 4666 
L 3169 4134 
L 1269 4134 
L 1269 2991 
Q 1406 3038 1543 3061 
Q 1681 3084 1819 3084 
Q 2600 3084 3056 2656 
Q 3513 2228 3513 1497 
Q 3513 744 3044 326 
Q 2575 -91 1722 -91 
Q 1428 -91 1123 -41 
Q 819 9 494 109 
L 494 744 
Q 775 591 1075 516 
Q 1375 441 1709 441 
Q 2250 441 2565 725 
Q 2881 1009 2881 1497 
Q 2881 1984 2565 2268 
Q 2250 2553 1709 2553 
Q 1456 2553 1204 2497 
Q 953 2441 691 2322 
L 691 4666 
z
" transform="scale(0.015625)"/>
       </defs>
       <use xlink:href="#DejaVuSans-32"/>
       <use xlink:href="#DejaVuSans-30" x="63.623047"/>
       <use xlink:href="#DejaVuSans-32" x="127.246094"/>
       <use xlink:href="#DejaVuSans-33" x="190.869141"/>
       <use xlink:href="#DejaVuSans-2d" x="254.492188"/>
       <use xlink:href="#DejaVuSans-31" x="290.576172"/>
       <use xlink:href="#DejaVuSans-31" x="354.199219"/>
       <use xlink:href="#DejaVuSans-2d" x="417.822266"/>
       <use xlink:href="#DejaVuSans-30" x="453.90625"/>
       <use xlink:href="#DejaVuSans-35" x="517.529297"/>
      </g>
     </g>
    </g>
    <g id="xtick_5">
     <g id="line2d_9">
      <path d="M 261.236634 279.561175 
L 261.236634 25.44 
" clip-path="url(#pa0be3788dc)" style="fill: none; stroke: #b0b0b0; stroke-width: 0.8; stroke-linecap: square"/>
     </g>
     <g id="line2d_10">
      <g>
       <use xlink:href="#mf7d118afd7" x="261.236634" y="279.561175" style="stroke: #000000; stroke-width: 0.8"/>
      </g>
     </g>
     <g id="text_5">
      <!-- 2023-11-06 -->
      <g transform="translate(218.67212 333.028035) rotate(-45) scale(0.1 -0.1)">
       <defs>
        <path id="DejaVuSans-36" d="M 2113 2584 
Q 1688 2584 1439 2293 
Q 1191 2003 1191 1497 
Q 1191 994 1439 701 
Q 1688 409 2113 409 
Q 2538 409 2786 701 
Q 3034 994 3034 1497 
Q 3034 2003 2786 2293 
Q 2538 2584 2113 2584 
z
M 3366 4563 
L 3366 3988 
Q 3128 4100 2886 4159 
Q 2644 4219 2406 4219 
Q 1781 4219 1451 3797 
Q 1122 3375 1075 2522 
Q 1259 2794 1537 2939 
Q 1816 3084 2150 3084 
Q 2853 3084 3261 2657 
Q 3669 2231 3669 1497 
Q 3669 778 3244 343 
Q 2819 -91 2113 -91 
Q 1303 -91 875 529 
Q 447 1150 447 2328 
Q 447 3434 972 4092 
Q 1497 4750 2381 4750 
Q 2619 4750 2861 4703 
Q 3103 4656 3366 4563 
z
" transform="scale(0.015625)"/>
       </defs>
       <use xlink:href="#DejaVuSans-32"/>
       <use xlink:href="#DejaVuSans-30" x="63.623047"/>
       <use xlink:href="#DejaVuSans-32" x="127.246094"/>
       <use xlink:href="#DejaVuSans-33" x="190.869141"/>
       <use xlink:href="#DejaVuSans-2d" x="254.492188"/>
       <use xlink:href="#DejaVuSans-31" x="290.576172"/>
       <use xlink:href="#DejaVuSans-31" x="354.199219"/>
       <use xlink:href="#DejaVuSans-2d" x="417.822266"/>
       <use xlink:href="#DejaVuSans-30" x="453.90625"/>
       <use xlink:href="#DejaVuSans-36" x="517.529297"/>
      </g>
     </g>
    </g>
    <g id="xtick_6">
     <g id="line2d_11">
      <path d="M 303.278434 279.561175 
L 303.278434 25.44 
" clip-path="url(#pa0be3788dc)" style="fill: none; stroke: #b0b0b0; stroke-width: 0.8; stroke-linecap: square"/>
     </g>
     <g id="line2d_12">
      <g>
       <use xlink:href="#mf7d118afd7" x="303.278434" y="279.561175" style="stroke: #000000; stroke-width: 0.8"/>
      </g>
     </g>
     <g id="text_6">
      <!-- 2023-11-07 -->
      <g transform="translate(260.71392 333.028035) rotate(-45) scale(0.1 -0.1)">
       <defs>
        <path id="DejaVuSans-37" d="M 525 4666 
L 3525 4666 
L 3525 4397 
L 1831 0 
L 1172 0 
L 2766 4134 
L 525 4134 
L 525 4666 
z
" transform="scale(0.015625)"/>
       </defs>
       <use xlink:href="#DejaVuSans-32"/>
       <use xlink:href="#DejaVuSans-30" x="63.623047"/>
       <use xlink:href="#DejaVuSans-32" x="127.246094"/>
       <use xlink:href="#DejaVuSans-33" x="190.869141"/>
       <use xlink:href="#DejaVuSans-2d" x="254.492188"/>
       <use xlink:href="#DejaVuSans-31" x="290.576172"/>
       <use xlink:href="#DejaVuSans-31" x="354.199219"/>
       <use xlink:href="#DejaVuSans-2d" x="417.822266"/>
       <use xlink:href="#DejaVuSans-30" x="453.90625"/>
       <use xlink:href="#DejaVuSans-37" x="517.529297"/>
      </g>
     </g>
    </g>
    <g id="xtick_7">
     <g id="line2d_13">
      <path d="M 345.320234 279.561175 
L 345.320234 25.44 
" clip-path="url(#pa0be3788dc)" style="fill: none; stroke: #b0b0b0; stroke-width: 0.8; stroke-linecap: square"/>
     </g>
     <g id="line2d_14">
      <g>
       <use xlink:href="#mf7d118afd7" x="345.320234" y="279.561175" style="stroke: #000000; stroke-width: 0.8"/>
      </g>
     </g>
     <g id="text_7">
      <!-- 2023-11-08 -->
      <g transform="translate(302.75572 333.028035) rotate(-45) scale(0.1 -0.1)">
       <defs>
        <path id="DejaVuSans-38" d="M 2034 2216 
Q 1584 2216 1326 1975 
Q 1069 1734 1069 1313 
Q 1069 891 1326 650 
Q 1584 409 2034 409 
Q 2484 409 2743 651 
Q 3003 894 3003 1313 
Q 3003 1734 2745 1975 
Q 2488 2216 2034 2216 
z
M 1403 2484 
Q 997 2584 770 2862 
Q 544 3141 544 3541 
Q 544 4100 942 4425 
Q 1341 4750 2034 4750 
Q 2731 4750 3128 4425 
Q 3525 4100 3525 3541 
Q 3525 3141 3298 2862 
Q 3072 2584 2669 2484 
Q 3125 2378 3379 2068 
Q 3634 1759 3634 1313 
Q 3634 634 3220 271 
Q 2806 -91 2034 -91 
Q 1263 -91 848 271 
Q 434 634 434 1313 
Q 434 1759 690 2068 
Q 947 2378 1403 2484 
z
M 1172 3481 
Q 1172 3119 1398 2916 
Q 1625 2713 2034 2713 
Q 2441 2713 2670 2916 
Q 2900 3119 2900 3481 
Q 2900 3844 2670 4047 
Q 2441 4250 2034 4250 
Q 1625 4250 1398 4047 
Q 1172 3844 1172 3481 
z
" transform="scale(0.015625)"/>
       </defs>
       <use xlink:href="#DejaVuSans-32"/>
       <use xlink:href="#DejaVuSans-30" x="63.623047"/>
       <use xlink:href="#DejaVuSans-32" x="127.246094"/>
       <use xlink:href="#DejaVuSans-33" x="190.869141"/>
       <use xlink:href="#DejaVuSans-2d" x="254.492188"/>
       <use xlink:href="#DejaVuSans-31" x="290.576172"/>
       <use xlink:href="#DejaVuSans-31" x="354.199219"/>
       <use xlink:href="#DejaVuSans-2d" x="417.822266"/>
       <use xlink:href="#DejaVuSans-30" x="453.90625"/>
       <use xlink:href="#DejaVuSans-38" x="517.529297"/>
      </g>
     </g>
    </g>
    <g id="xtick_8">
     <g id="line2d_15">
      <path d="M 387.362034 279.561175 
L 387.362034 25.44 
" clip-path="url(#pa0be3788dc)" style="fill: none; stroke: #b0b0b0; stroke-width: 0.8; stroke-linecap: square"/>
     </g>
     <g id="line2d_16">
      <g>
       <use xlink:href="#mf7d118afd7" x="387.362034" y="279.561175" style="stroke: #000000; stroke-width: 0.8"/>
      </g>
     </g>
     <g id="text_8">
      <!-- 2023-11-09 -->
      <g transform="translate(344.79752 333.028035) rotate(-45) scale(0.1 -0.1)">
       <defs>
        <path id="DejaVuSans-39" d="M 703 97 
L 703 672 
Q 941 559 1184 500 
Q 1428 441 1663 441 
Q 2288 441 2617 861 
Q 2947 1281 2994 2138 
Q 2813 1869 2534 1725 
Q 2256 1581 1919 1581 
Q 1219 1581 811 2004 
Q 403 2428 403 3163 
Q 403 3881 828 4315 
Q 1253 4750 1959 4750 
Q 2769 4750 3195 4129 
Q 3622 3509 3622 2328 
Q 3622 1225 3098 567 
Q 2575 -91 1691 -91 
Q 1453 -91 1209 -44 
Q 966 3 703 97 
z
M 1959 2075 
Q 2384 2075 2632 2365 
Q 2881 2656 2881 3163 
Q 2881 3666 2632 3958 
Q 2384 4250 1959 4250 
Q 1534 4250 1286 3958 
Q 1038 3666 1038 3163 
Q 1038 2656 1286 2365 
Q 1534 2075 1959 2075 
z
" transform="scale(0.015625)"/>
       </defs>
       <use xlink:href="#DejaVuSans-32"/>
       <use xlink:href="#DejaVuSans-30" x="63.623047"/>
       <use xlink:href="#DejaVuSans-32" x="127.246094"/>
       <use xlink:href="#DejaVuSans-33" x="190.869141"/>
       <use xlink:href="#DejaVuSans-2d" x="254.492188"/>
       <use xlink:href="#DejaVuSans-31" x="290.576172"/>
       <use xlink:href="#DejaVuSans-31" x="354.199219"/>
       <use xlink:href="#DejaVuSans-2d" x="417.822266"/>
       <use xlink:href="#DejaVuSans-30" x="453.90625"/>
       <use xlink:href="#DejaVuSans-39" x="517.529297"/>
      </g>
     </g>
    </g>
    <g id="xtick_9">
     <g id="line2d_17">
      <path d="M 429.403834 279.561175 
L 429.403834 25.44 
" clip-path="url(#pa0be3788dc)" style="fill: none; stroke: #b0b0b0; stroke-width: 0.8; stroke-linecap: square"/>
     </g>
     <g id="line2d_18">
      <g>
       <use xlink:href="#mf7d118afd7" x="429.403834" y="279.561175" style="stroke: #000000; stroke-width: 0.8"/>
      </g>
     </g>
     <g id="text_9">
      <!-- 2023-11-10 -->
      <g transform="translate(386.83932 333.028035) rotate(-45) scale(0.1 -0.1)">
       <use xlink:href="#DejaVuSans-32"/>
       <use xlink:href="#DejaVuSans-30" x="63.623047"/>
       <use xlink:href="#DejaVuSans-32" x="127.246094"/>
       <use xlink:href="#DejaVuSans-33" x="190.869141"/>
       <use xlink:href="#DejaVuSans-2d" x="254.492188"/>
       <use xlink:href="#DejaVuSans-31" x="290.576172"/>
       <use xlink:href="#DejaVuSans-31" x="354.199219"/>
       <use xlink:href="#DejaVuSans-2d" x="417.822266"/>
       <use xlink:href="#DejaVuSans-31" x="453.90625"/>
       <use xlink:href="#DejaVuSans-30" x="517.529297"/>
      </g>
     </g>
    </g>
   </g>
   <g id="matplotlib.axis_2">
    <g id="ytick_1">
     <g id="line2d_19">
      <path d="M 51.05 247.033555 
L 450 247.033555 
" clip-path="url(#pa0be3788dc)" style="fill: none; stroke: #b0b0b0; stroke-width: 0.8; stroke-linecap: square"/>
     </g>
     <g id="line2d_20">
      <defs>
       <path id="m07d79868fc" d="M 0 0 
L -3.5 0 
" style="stroke: #000000; stroke-width: 0.8"/>
      </defs>
      <g>
       <use xlink:href="#m07d79868fc" x="51.05" y="247.033555" style="stroke: #000000; stroke-width: 0.8"/>
      </g>
     </g>
     <g id="text_10">
      <!-- 340 -->
      <g transform="translate(24.9625 250.832773) scale(0.1 -0.1)">
       <use xlink:href="#DejaVuSans-33"/>
       <use xlink:href="#DejaVuSans-34" x="63.623047"/>
       <use xlink:href="#DejaVuSans-30" x="127.246094"/>
      </g>
     </g>
    </g>
    <g id="ytick_2">
     <g id="line2d_21">
      <path d="M 51.05 191.831822 
L 450 191.831822 
" clip-path="url(#pa0be3788dc)" style="fill: none; stroke: #b0b0b0; stroke-width: 0.8; stroke-linecap: square"/>
     </g>
     <g id="line2d_22">
      <g>
       <use xlink:href="#m07d79868fc" x="51.05" y="191.831822" style="stroke: #000000; stroke-width: 0.8"/>
      </g>
     </g>
     <g id="text_11">
      <!-- 360 -->
      <g transform="translate(24.9625 195.631041) scale(0.1 -0.1)">
       <use xlink:href="#DejaVuSans-33"/>
       <use xlink:href="#DejaVuSans-36" x="63.623047"/>
       <use xlink:href="#DejaVuSans-30" x="127.246094"/>
      </g>
     </g>
    </g>
    <g id="ytick_3">
     <g id="line2d_23">
      <path d="M 51.05 136.63009 
L 450 136.63009 
" clip-path="url(#pa0be3788dc)" style="fill: none; stroke: #b0b0b0; stroke-width: 0.8; stroke-linecap: square"/>
     </g>
     <g id="line2d_24">
      <g>
       <use xlink:href="#m07d79868fc" x="51.05" y="136.63009" style="stroke: #000000; stroke-width: 0.8"/>
      </g>
     </g>
     <g id="text_12">
      <!-- 380 -->
      <g transform="translate(24.9625 140.429308) scale(0.1 -0.1)">
       <use xlink:href="#DejaVuSans-33"/>
       <use xlink:href="#DejaVuSans-38" x="63.623047"/>
       <use xlink:href="#DejaVuSans-30" x="127.246094"/>
      </g>
     </g>
    </g>
    <g id="ytick_4">
     <g id="line2d_25">
      <path d="M 51.05 81.428357 
L 450 81.428357 
" clip-path="url(#pa0be3788dc)" style="fill: none; stroke: #b0b0b0; stroke-width: 0.8; stroke-linecap: square"/>
     </g>
     <g id="line2d_26">
      <g>
       <use xlink:href="#m07d79868fc" x="51.05" y="81.428357" style="stroke: #000000; stroke-width: 0.8"/>
      </g>
     </g>
     <g id="text_13">
      <!-- 400 -->
      <g transform="translate(24.9625 85.227576) scale(0.1 -0.1)">
       <use xlink:href="#DejaVuSans-34"/>
       <use xlink:href="#DejaVuSans-30" x="63.623047"/>
       <use xlink:href="#DejaVuSans-30" x="127.246094"/>
      </g>
     </g>
    </g>
    <g id="ytick_5">
     <g id="line2d_27">
      <path d="M 51.05 26.226625 
L 450 26.226625 
" clip-path="url(#pa0be3788dc)" style="fill: none; stroke: #b0b0b0; stroke-width: 0.8; stroke-linecap: square"/>
     </g>
     <g id="line2d_28">
      <g>
       <use xlink:href="#m07d79868fc" x="51.05" y="26.226625" style="stroke: #000000; stroke-width: 0.8"/>
      </g>
     </g>
     <g id="text_14">
      <!-- 420 -->
      <g transform="translate(24.9625 30.025843) scale(0.1 -0.1)">
       <use xlink:href="#DejaVuSans-34"/>
       <use xlink:href="#DejaVuSans-32" x="63.623047"/>
       <use xlink:href="#DejaVuSans-30" x="127.246094"/>
      </g>
     </g>
    </g>
    <g id="text_15">
     <!-- Rain [mm] -->
     <g transform="translate(18.882812 178.715431) rotate(-90) scale(0.1 -0.1)">
      <defs>
       <path id="DejaVuSans-52" d="M 2841 2188 
Q 3044 2119 3236 1894 
Q 3428 1669 3622 1275 
L 4263 0 
L 3584 0 
L 2988 1197 
Q 2756 1666 2539 1819 
Q 2322 1972 1947 1972 
L 1259 1972 
L 1259 0 
L 628 0 
L 628 4666 
L 2053 4666 
Q 2853 4666 3247 4331 
Q 3641 3997 3641 3322 
Q 3641 2881 3436 2590 
Q 3231 2300 2841 2188 
z
M 1259 4147 
L 1259 2491 
L 2053 2491 
Q 2509 2491 2742 2702 
Q 2975 2913 2975 3322 
Q 2975 3731 2742 3939 
Q 2509 4147 2053 4147 
L 1259 4147 
z
" transform="scale(0.015625)"/>
       <path id="DejaVuSans-61" d="M 2194 1759 
Q 1497 1759 1228 1600 
Q 959 1441 959 1056 
Q 959 750 1161 570 
Q 1363 391 1709 391 
Q 2188 391 2477 730 
Q 2766 1069 2766 1631 
L 2766 1759 
L 2194 1759 
z
M 3341 1997 
L 3341 0 
L 2766 0 
L 2766 531 
Q 2569 213 2275 61 
Q 1981 -91 1556 -91 
Q 1019 -91 701 211 
Q 384 513 384 1019 
Q 384 1609 779 1909 
Q 1175 2209 1959 2209 
L 2766 2209 
L 2766 2266 
Q 2766 2663 2505 2880 
Q 2244 3097 1772 3097 
Q 1472 3097 1187 3025 
Q 903 2953 641 2809 
L 641 3341 
Q 956 3463 1253 3523 
Q 1550 3584 1831 3584 
Q 2591 3584 2966 3190 
Q 3341 2797 3341 1997 
z
" transform="scale(0.015625)"/>
       <path id="DejaVuSans-69" d="M 603 3500 
L 1178 3500 
L 1178 0 
L 603 0 
L 603 3500 
z
M 603 4863 
L 1178 4863 
L 1178 4134 
L 603 4134 
L 603 4863 
z
" transform="scale(0.015625)"/>
       <path id="DejaVuSans-6e" d="M 3513 2113 
L 3513 0 
L 2938 0 
L 2938 2094 
Q 2938 2591 2744 2837 
Q 2550 3084 2163 3084 
Q 1697 3084 1428 2787 
Q 1159 2491 1159 1978 
L 1159 0 
L 581 0 
L 581 3500 
L 1159 3500 
L 1159 2956 
Q 1366 3272 1645 3428 
Q 1925 3584 2291 3584 
Q 2894 3584 3203 3211 
Q 3513 2838 3513 2113 
z
" transform="scale(0.015625)"/>
       <path id="DejaVuSans-20" transform="scale(0.015625)"/>
       <path id="DejaVuSans-5b" d="M 550 4863 
L 1875 4863 
L 1875 4416 
L 1125 4416 
L 1125 -397 
L 1875 -397 
L 1875 -844 
L 550 -844 
L 550 4863 
z
" transform="scale(0.015625)"/>
       <path id="DejaVuSans-6d" d="M 3328 2828 
Q 3544 3216 3844 3400 
Q 4144 3584 4550 3584 
Q 5097 3584 5394 3201 
Q 5691 2819 5691 2113 
L 5691 0 
L 5113 0 
L 5113 2094 
Q 5113 2597 4934 2840 
Q 4756 3084 4391 3084 
Q 3944 3084 3684 2787 
Q 3425 2491 3425 1978 
L 3425 0 
L 2847 0 
L 2847 2094 
Q 2847 2600 2669 2842 
Q 2491 3084 2119 3084 
Q 1678 3084 1418 2786 
Q 1159 2488 1159 1978 
L 1159 0 
L 581 0 
L 581 3500 
L 1159 3500 
L 1159 2956 
Q 1356 3278 1631 3431 
Q 1906 3584 2284 3584 
Q 2666 3584 2933 3390 
Q 3200 3197 3328 2828 
z
" transform="scale(0.015625)"/>
       <path id="DejaVuSans-5d" d="M 1947 4863 
L 1947 -844 
L 622 -844 
L 622 -397 
L 1369 -397 
L 1369 4416 
L 622 4416 
L 622 4863 
L 1947 4863 
z
" transform="scale(0.015625)"/>
      </defs>
      <use xlink:href="#DejaVuSans-52"/>
      <use xlink:href="#DejaVuSans-61" x="67.232422"/>
      <use xlink:href="#DejaVuSans-69" x="128.511719"/>
      <use xlink:href="#DejaVuSans-6e" x="156.294922"/>
      <use xlink:href="#DejaVuSans-20" x="219.673828"/>
      <use xlink:href="#DejaVuSans-5b" x="251.460938"/>
      <use xlink:href="#DejaVuSans-6d" x="290.474609"/>
      <use xlink:href="#DejaVuSans-6d" x="387.886719"/>
      <use xlink:href="#DejaVuSans-5d" x="485.298828"/>
     </g>
    </g>
   </g>
   <g id="line2d_29">
    <path d="M 51.05 268.010213 
L 84.589732 268.010213 
L 84.706322 267.182187 
L 84.729816 267.182187 
L 84.84646 266.354161 
L 84.986597 266.354161 
L 85.103575 265.526135 
L 85.593857 265.526135 
L 85.733996 264.698109 
L 85.780709 264.698109 
L 85.897658 263.870083 
L 86.01427 263.870083 
L 86.13112 263.042057 
L 86.201122 263.042057 
L 86.318017 262.214031 
L 86.481395 262.214031 
L 86.621534 261.386005 
L 86.925378 261.386005 
L 87.041945 260.557979 
L 87.695919 260.557979 
L 87.789346 259.729953 
L 88.957155 259.729953 
L 89.074107 258.901927 
L 90.078253 258.901927 
L 90.195224 258.073901 
L 90.662335 258.073901 
L 90.778944 257.245875 
L 92.811088 257.245875 
L 92.927724 256.417849 
L 95.029794 256.417849 
L 95.146731 255.589823 
L 96.781639 255.589823 
L 96.898307 254.761797 
L 102.80753 254.761797 
L 102.924225 253.933771 
L 103.671627 253.933771 
L 103.788624 253.105745 
L 104.582645 253.105745 
L 104.699301 252.277719 
L 105.610404 252.277719 
L 105.726974 251.449693 
L 106.894785 251.449693 
L 107.011729 250.621667 
L 107.549036 250.621667 
L 107.688901 249.793641 
L 108.249455 249.793641 
L 108.366427 248.965615 
L 108.669867 248.965615 
L 108.78682 248.137589 
L 109.113826 248.137589 
L 109.230419 247.309563 
L 109.814367 247.309563 
L 109.931106 246.481537 
L 110.444941 246.481537 
L 110.561882 245.653511 
L 110.795469 245.653511 
L 110.912067 244.825485 
L 111.052204 244.825485 
L 111.192342 243.997459 
L 111.37919 243.997459 
L 111.496168 243.169433 
L 111.659467 243.169433 
L 111.799605 242.341407 
L 112.009858 242.341407 
L 112.126593 241.513381 
L 112.243567 241.513381 
L 112.360157 240.685355 
L 112.45358 240.685355 
L 112.570486 239.857329 
L 112.640434 239.857329 
L 112.757367 239.029303 
L 112.827512 239.029303 
L 112.967419 238.201277 
L 113.060845 238.201277 
L 113.177786 237.373251 
L 113.411347 237.373251 
L 113.527971 236.545225 
L 113.761535 236.545225 
L 113.878451 235.717199 
L 114.018618 235.717199 
L 114.13524 234.889173 
L 114.181951 234.889173 
L 114.29888 234.061147 
L 114.368803 234.061147 
L 114.48573 233.233121 
L 114.555652 233.233121 
L 114.695792 232.405095 
L 114.742503 232.405095 
L 114.859441 231.577069 
L 114.882645 231.577069 
L 114.999604 230.749043 
L 115.023014 230.749043 
L 115.162919 229.921017 
L 115.186474 229.921017 
L 115.303057 229.092991 
L 115.42003 229.092991 
L 115.536622 228.264965 
L 115.606863 228.264965 
L 115.723471 227.43694 
L 115.793723 227.43694 
L 115.933675 225.780888 
L 116.074003 225.780888 
L 116.190602 224.952862 
L 116.21413 224.952862 
L 116.330972 224.124836 
L 116.377455 224.124836 
L 116.494406 223.29681 
L 116.587835 223.29681 
L 116.704442 222.468784 
L 116.82124 222.468784 
L 116.938004 221.640758 
L 117.008215 221.640758 
L 117.124854 220.812732 
L 117.218532 220.812732 
L 117.358414 219.984706 
L 117.405128 219.984706 
L 117.522021 219.15668 
L 117.685392 219.15668 
L 117.802338 218.328654 
L 117.872255 218.328654 
L 117.9892 217.500628 
L 118.082629 217.500628 
L 118.199241 216.672602 
L 118.222797 216.672602 
L 118.339378 215.844576 
L 118.36292 215.844576 
L 118.479514 215.01655 
L 118.526504 215.01655 
L 118.713079 213.360498 
L 118.806504 213.360498 
L 118.946641 211.704446 
L 119.040066 211.704446 
L 119.156995 210.87642 
L 119.203693 210.87642 
L 119.343841 209.220368 
L 119.414069 209.220368 
L 119.600617 207.564316 
L 119.624137 207.564316 
L 119.764271 205.908264 
L 119.834179 205.908264 
L 119.974317 205.080238 
L 119.997853 205.080238 
L 120.137981 203.424186 
L 120.184656 203.424186 
L 120.301606 202.59616 
L 120.348018 202.59616 
L 120.488157 200.940108 
L 120.558389 200.940108 
L 120.698532 199.284056 
L 120.838674 199.284056 
L 120.978772 197.628004 
L 121.025473 197.628004 
L 121.189078 195.143926 
L 121.235555 195.143926 
L 121.375693 193.487874 
L 121.445923 193.487874 
L 121.562541 192.659848 
L 121.632602 192.659848 
L 121.772924 191.003796 
L 121.866372 191.003796 
L 121.982955 190.17577 
L 122.029666 190.17577 
L 122.169808 189.347744 
L 122.216519 189.347744 
L 122.356657 187.691692 
L 122.403372 187.691692 
L 122.543507 186.03564 
L 122.683646 186.03564 
L 122.823785 184.379588 
L 122.963923 184.379588 
L 123.104059 182.723536 
L 123.197488 182.723536 
L 123.314392 181.89551 
L 123.407724 181.89551 
L 123.524476 181.067484 
L 123.594702 181.067484 
L 123.711324 180.239458 
L 123.734847 180.239458 
L 123.851465 179.411432 
L 123.874911 179.411432 
L 123.991604 178.583406 
L 124.108563 178.583406 
L 124.225167 177.75538 
L 124.295282 177.75538 
L 124.412018 176.927354 
L 124.45873 176.927354 
L 124.575654 176.099328 
L 124.598868 176.099328 
L 124.739009 174.443276 
L 124.785719 174.443276 
L 124.92586 172.787224 
L 125.042801 172.787224 
L 125.182844 171.131172 
L 125.252848 171.131172 
L 125.369792 170.303146 
L 125.416512 170.303146 
L 125.533125 169.47512 
L 125.719975 167.819068 
L 125.813401 167.819068 
L 125.953542 166.163016 
L 126.046964 166.163016 
L 126.187103 164.506965 
L 126.303995 164.506965 
L 126.420669 162.850913 
L 126.584362 162.850913 
L 126.700945 162.022887 
L 126.724475 162.022887 
L 126.84108 161.194861 
L 126.934507 161.194861 
L 127.051493 160.366835 
L 127.168073 160.366835 
L 127.308459 158.710783 
L 127.425162 158.710783 
L 127.541773 157.882757 
L 127.635198 157.882757 
L 127.728622 157.054731 
L 127.798717 157.054731 
L 127.915474 156.226705 
L 127.939027 156.226705 
L 128.079149 154.570653 
L 128.33589 154.570653 
L 128.452829 153.742627 
L 128.476026 153.742627 
L 128.593 152.914601 
L 128.616167 152.914601 
L 128.756305 152.086575 
L 128.826564 152.086575 
L 128.943156 151.258549 
L 129.200257 151.258549 
L 129.316856 150.430523 
L 129.480489 150.430523 
L 129.597133 149.602497 
L 129.854251 149.602497 
L 129.971112 148.774471 
L 130.064259 148.774471 
L 130.18115 147.946445 
L 130.274597 147.946445 
L 130.391545 147.118419 
L 135.202649 147.118419 
L 135.342786 146.290393 
L 135.389497 146.290393 
L 135.506389 145.462367 
L 135.576349 145.462367 
L 135.69314 144.634341 
L 135.739956 144.634341 
L 135.856622 143.806315 
L 135.926886 143.806315 
L 136.043476 142.978289 
L 136.09049 142.978289 
L 136.230325 142.150263 
L 136.323752 142.150263 
L 136.440713 141.322237 
L 136.510603 141.322237 
L 136.65074 140.494211 
L 136.767675 140.494211 
L 136.884305 139.666185 
L 136.954574 139.666185 
L 137.071156 138.838159 
L 137.211292 138.838159 
L 137.32823 138.010133 
L 137.398143 138.010133 
L 137.584993 136.354081 
L 137.818558 136.354081 
L 137.958697 135.526055 
L 138.2859 135.526055 
L 138.425822 134.698029 
L 140.668028 134.698029 
L 140.784956 133.870003 
L 140.854878 133.870003 
L 140.971698 133.041977 
L 141.088444 133.041977 
L 141.205399 132.213951 
L 141.298804 132.213951 
L 141.415432 131.385925 
L 141.532348 131.385925 
L 141.648993 130.557899 
L 141.672517 130.557899 
L 141.789373 129.729873 
L 141.92927 128.901847 
L 142.046231 128.901847 
L 142.162834 128.073821 
L 142.279633 128.073821 
L 142.396397 127.245795 
L 142.583245 127.245795 
L 142.676924 126.417769 
L 142.793634 126.417769 
L 142.910238 125.589743 
L 143.540964 125.589743 
L 143.657642 124.761717 
L 143.84449 124.761717 
L 143.961421 123.933691 
L 144.078055 123.933691 
L 144.218194 122.277639 
L 144.288433 122.277639 
L 144.451953 119.793561 
L 144.498469 119.793561 
L 144.638604 118.137509 
L 144.708834 118.137509 
L 144.848986 116.481457 
L 144.91888 116.481457 
L 145.059018 114.825405 
L 145.222716 114.825405 
L 145.386008 112.341327 
L 145.432721 112.341327 
L 145.59639 109.857249 
L 145.666282 109.857249 
L 145.783055 109.029223 
L 145.80642 109.029223 
L 145.923365 108.201197 
L 146.086694 108.201197 
L 146.226832 106.545145 
L 146.320261 106.545145 
L 146.437228 105.717119 
L 146.55382 105.717119 
L 146.670614 104.889093 
L 154.962113 104.889093 
L 155.10225 104.061067 
L 209.989746 104.061067 
L 210.106745 103.233041 
L 212.185247 103.233041 
L 212.302175 102.405015 
L 213.026079 102.405015 
L 213.143035 101.576989 
L 213.586632 101.576989 
L 213.703592 100.748964 
L 214.147185 100.748964 
L 214.263987 99.920938 
L 214.661298 99.920938 
L 214.801166 99.092912 
L 215.15155 99.092912 
L 215.268292 98.264886 
L 233.112623 98.264886 
L 233.229468 97.43686 
L 233.673178 97.43686 
L 233.790048 96.608834 
L 234.187019 96.608834 
L 234.30397 95.780808 
L 234.630983 95.780808 
L 234.747573 94.952782 
L 235.121273 94.952782 
L 235.238222 94.124756 
L 235.448267 94.124756 
L 235.565201 93.29673 
L 235.728541 93.29673 
L 235.845322 92.468704 
L 236.079079 92.468704 
L 236.195669 91.640678 
L 236.45277 91.640678 
L 236.569372 90.812652 
L 236.826436 90.812652 
L 236.943071 89.984626 
L 237.22335 89.984626 
L 237.340257 89.1566 
L 237.550341 89.1566 
L 237.690478 88.328574 
L 237.830614 88.328574 
L 237.947577 87.500548 
L 238.087627 87.500548 
L 238.204314 86.672522 
L 238.227839 86.672522 
L 238.344453 85.844496 
L 238.48459 85.844496 
L 238.601574 85.01647 
L 238.648296 85.01647 
L 238.788407 83.360418 
L 238.92837 83.360418 
L 239.045143 82.532392 
L 239.068669 82.532392 
L 239.208853 80.87634 
L 239.278707 80.87634 
L 239.418845 79.220288 
L 239.489081 79.220288 
L 239.652406 76.73621 
L 239.699118 76.73621 
L 239.862744 74.252132 
L 239.885969 74.252132 
L 240.072819 70.940028 
L 240.119531 70.940028 
L 240.283115 68.45595 
L 240.306382 68.45595 
L 240.470062 65.971872 
L 240.493233 65.971872 
L 240.633369 64.31582 
L 240.866928 61.831742 
L 240.913641 61.831742 
L 241.030573 61.003716 
L 241.053782 61.003716 
L 241.193915 60.17569 
L 308.436883 60.17569 
L 308.553539 59.347664 
L 318.339966 59.347664 
L 318.456632 58.519638 
L 319.134161 58.519638 
L 319.250749 57.691612 
L 319.577735 57.691612 
L 319.694661 56.863586 
L 319.788132 56.863586 
L 319.928108 55.207534 
L 320.021656 55.207534 
L 320.138286 54.379508 
L 320.184998 54.379508 
L 320.301968 53.551482 
L 320.325399 53.551482 
L 320.511989 51.89543 
L 320.558701 51.89543 
L 320.698837 50.239378 
L 320.838973 50.239378 
L 320.955871 49.411352 
L 321.165968 49.411352 
L 321.306105 48.583326 
L 323.454889 48.583326 
L 323.571847 47.7553 
L 323.922016 47.7553 
L 324.038965 46.927274 
L 324.108864 46.927274 
L 324.225771 46.099248 
L 324.389144 46.099248 
L 324.506101 45.271222 
L 325.06662 45.271222 
L 325.183534 44.443196 
L 339.92118 44.443196 
L 340.037879 43.61517 
L 426.853664 43.61517 
L 426.97036 42.787144 
L 428.184895 42.787144 
L 428.301813 41.959118 
L 429.095927 41.959118 
L 429.21258 41.131092 
L 429.726422 41.131092 
L 429.86656 40.303066 
L 430.286977 40.303066 
L 430.403871 39.47504 
L 430.871002 39.47504 
L 430.987669 38.647014 
L 433.556878 38.647014 
L 433.673751 37.818989 
L 435.9395 37.818989 
L 436.056135 36.990963 
L 450 36.990963 
L 450 36.990963 
" clip-path="url(#pa0be3788dc)" style="fill: none; stroke: #9467bd; stroke-width: 1.5; stroke-linecap: square"/>
   </g>
   <g id="patch_3">
    <path d="M 51.05 279.561175 
L 51.05 25.44 
" style="fill: none; stroke: #000000; stroke-width: 0.8; stroke-linejoin: miter; stroke-linecap: square"/>
   </g>
   <g id="patch_4">
    <path d="M 450 279.561175 
L 450 25.44 
" style="fill: none; stroke: #000000; stroke-width: 0.8; stroke-linejoin: miter; stroke-linecap: square"/>
   </g>
   <g id="patch_5">
    <path d="M 51.05 279.561175 
L 450 279.561175 
" style="fill: none; stroke: #000000; stroke-width: 0.8; stroke-linejoin: miter; stroke-linecap: square"/>
   </g>
   <g id="patch_6">
    <path d="M 51.05 25.44 
L 450 25.44 
" style="fill: none; stroke: #000000; stroke-width: 0.8; stroke-linejoin: miter; stroke-linecap: square"/>
   </g>
   <g id="text_16">
    <!-- November 2023 -->
    <g transform="translate(202.133125 19.44) scale(0.12 -0.12)">
     <defs>
      <path id="DejaVuSans-4e" d="M 628 4666 
L 1478 4666 
L 3547 763 
L 3547 4666 
L 4159 4666 
L 4159 0 
L 3309 0 
L 1241 3903 
L 1241 0 
L 628 0 
L 628 4666 
z
" transform="scale(0.015625)"/>
      <path id="DejaVuSans-6f" d="M 1959 3097 
Q 1497 3097 1228 2736 
Q 959 2375 959 1747 
Q 959 1119 1226 758 
Q 1494 397 1959 397 
Q 2419 397 2687 759 
Q 2956 1122 2956 1747 
Q 2956 2369 2687 2733 
Q 2419 3097 1959 3097 
z
M 1959 3584 
Q 2709 3584 3137 3096 
Q 3566 2609 3566 1747 
Q 3566 888 3137 398 
Q 2709 -91 1959 -91 
Q 1206 -91 779 398 
Q 353 888 353 1747 
Q 353 2609 779 3096 
Q 1206 3584 1959 3584 
z
" transform="scale(0.015625)"/>
      <path id="DejaVuSans-76" d="M 191 3500 
L 800 3500 
L 1894 563 
L 2988 3500 
L 3597 3500 
L 2284 0 
L 1503 0 
L 191 3500 
z
" transform="scale(0.015625)"/>
      <path id="DejaVuSans-65" d="M 3597 1894 
L 3597 1613 
L 953 1613 
Q 991 1019 1311 708 
Q 1631 397 2203 397 
Q 2534 397 2845 478 
Q 3156 559 3463 722 
L 3463 178 
Q 3153 47 2828 -22 
Q 2503 -91 2169 -91 
Q 1331 -91 842 396 
Q 353 884 353 1716 
Q 353 2575 817 3079 
Q 1281 3584 2069 3584 
Q 2775 3584 3186 3129 
Q 3597 2675 3597 1894 
z
M 3022 2063 
Q 3016 2534 2758 2815 
Q 2500 3097 2075 3097 
Q 1594 3097 1305 2825 
Q 1016 2553 972 2059 
L 3022 2063 
z
" transform="scale(0.015625)"/>
      <path id="DejaVuSans-62" d="M 3116 1747 
Q 3116 2381 2855 2742 
Q 2594 3103 2138 3103 
Q 1681 3103 1420 2742 
Q 1159 2381 1159 1747 
Q 1159 1113 1420 752 
Q 1681 391 2138 391 
Q 2594 391 2855 752 
Q 3116 1113 3116 1747 
z
M 1159 2969 
Q 1341 3281 1617 3432 
Q 1894 3584 2278 3584 
Q 2916 3584 3314 3078 
Q 3713 2572 3713 1747 
Q 3713 922 3314 415 
Q 2916 -91 2278 -91 
Q 1894 -91 1617 61 
Q 1341 213 1159 525 
L 1159 0 
L 581 0 
L 581 4863 
L 1159 4863 
L 1159 2969 
z
" transform="scale(0.015625)"/>
      <path id="DejaVuSans-72" d="M 2631 2963 
Q 2534 3019 2420 3045 
Q 2306 3072 2169 3072 
Q 1681 3072 1420 2755 
Q 1159 2438 1159 1844 
L 1159 0 
L 581 0 
L 581 3500 
L 1159 3500 
L 1159 2956 
Q 1341 3275 1631 3429 
Q 1922 3584 2338 3584 
Q 2397 3584 2469 3576 
Q 2541 3569 2628 3553 
L 2631 2963 
z
" transform="scale(0.015625)"/>
     </defs>
     <use xlink:href="#DejaVuSans-4e"/>
     <use xlink:href="#DejaVuSans-6f" x="74.804688"/>
     <use xlink:href="#DejaVuSans-76" x="135.986328"/>
     <use xlink:href="#DejaVuSans-65" x="195.166016"/>
     <use xlink:href="#DejaVuSans-6d" x="256.689453"/>
     <use xlink:href="#DejaVuSans-62" x="354.101562"/>
     <use xlink:href="#DejaVuSans-65" x="417.578125"/>
     <use xlink:href="#DejaVuSans-72" x="479.101562"/>
     <use xlink:href="#DejaVuSans-20" x="520.214844"/>
     <use xlink:href="#DejaVuSans-32" x="552.001953"/>
     <use xlink:href="#DejaVuSans-30" x="615.625"/>
     <use xlink:href="#DejaVuSans-32" x="679.248047"/>
     <use xlink:href="#DejaVuSans-33" x="742.871094"/>
    </g>
   </g>
  </g>
 </g>
 <defs>
  <clipPath id="pa0be3788dc">
   <rect x="51.05" y="25.44" width="398.95" height="254.121175"/>
  </clipPath>
 </defs>
</svg>
