<?xml version="1.0" encoding="utf-8" standalone="no"?>
<!DOCTYPE svg PUBLIC "-//W3C//DTD SVG 1.1//EN"
  "http://www.w3.org/Graphics/SVG/1.1/DTD/svg11.dtd">
<svg xmlns:xlink="http://www.w3.org/1999/xlink" width="460.8pt" height="345.6pt" viewBox="0 0 460.8 345.6" xmlns="http://www.w3.org/2000/svg" version="1.1">
 <metadata>
  <rdf:RDF xmlns:dc="http://purl.org/dc/elements/1.1/" xmlns:cc="http://creativecommons.org/ns#" xmlns:rdf="http://www.w3.org/1999/02/22-rdf-syntax-ns#">
   <cc:Work>
    <dc:type rdf:resource="http://purl.org/dc/dcmitype/StillImage"/>
    <dc:date>2023-11-12T03:54:21.705296</dc:date>
    <dc:format>image/svg+xml</dc:format>
    <dc:creator>
     <cc:Agent>
      <dc:title>Matplotlib v3.6.3, https://matplotlib.org/</dc:title>
     </cc:Agent>
    </dc:creator>
   </cc:Work>
  </rdf:RDF>
 </metadata>
 <defs>
  <style type="text/css">*{stroke-linejoin: round; stroke-linecap: butt}</style>
 </defs>
 <g id="figure_1">
  <g id="patch_1">
   <path d="M 0 345.6 
L 460.8 345.6 
L 460.8 0 
L 0 0 
z
" style="fill: #ffffff"/>
  </g>
  <g id="axes_1">
   <g id="patch_2">
    <path d="M 46.46 279.561175 
L 450 279.561175 
L 450 25.44 
L 46.46 25.44 
z
" style="fill: #ffffff"/>
   </g>
   <g id="matplotlib.axis_1">
    <g id="xtick_1">
     <g id="line2d_1">
      <path d="M 118.749561 279.561175 
L 118.749561 25.44 
" clip-path="url(#pc6640b3b6b)" style="fill: none; stroke: #b0b0b0; stroke-width: 0.8; stroke-linecap: square"/>
     </g>
     <g id="line2d_2">
      <defs>
       <path id="m35822f3269" d="M 0 0 
L 0 3.5 
" style="stroke: #000000; stroke-width: 0.8"/>
      </defs>
      <g>
       <use xlink:href="#m35822f3269" x="118.749561" y="279.561175" style="stroke: #000000; stroke-width: 0.8"/>
      </g>
     </g>
     <g id="text_1">
      <!-- 2023-11-03 -->
      <g transform="translate(76.185047 333.028035) rotate(-45) scale(0.1 -0.1)">
       <defs>
        <path id="DejaVuSans-32" d="M 1228 531 
L 3431 531 
L 3431 0 
L 469 0 
L 469 531 
Q 828 903 1448 1529 
Q 2069 2156 2228 2338 
Q 2531 2678 2651 2914 
Q 2772 3150 2772 3378 
Q 2772 3750 2511 3984 
Q 2250 4219 1831 4219 
Q 1534 4219 1204 4116 
Q 875 4013 500 3803 
L 500 4441 
Q 881 4594 1212 4672 
Q 1544 4750 1819 4750 
Q 2544 4750 2975 4387 
Q 3406 4025 3406 3419 
Q 3406 3131 3298 2873 
Q 3191 2616 2906 2266 
Q 2828 2175 2409 1742 
Q 1991 1309 1228 531 
z
" transform="scale(0.015625)"/>
        <path id="DejaVuSans-30" d="M 2034 4250 
Q 1547 4250 1301 3770 
Q 1056 3291 1056 2328 
Q 1056 1369 1301 889 
Q 1547 409 2034 409 
Q 2525 409 2770 889 
Q 3016 1369 3016 2328 
Q 3016 3291 2770 3770 
Q 2525 4250 2034 4250 
z
M 2034 4750 
Q 2819 4750 3233 4129 
Q 3647 3509 3647 2328 
Q 3647 1150 3233 529 
Q 2819 -91 2034 -91 
Q 1250 -91 836 529 
Q 422 1150 422 2328 
Q 422 3509 836 4129 
Q 1250 4750 2034 4750 
z
" transform="scale(0.015625)"/>
        <path id="DejaVuSans-33" d="M 2597 2516 
Q 3050 2419 3304 2112 
Q 3559 1806 3559 1356 
Q 3559 666 3084 287 
Q 2609 -91 1734 -91 
Q 1441 -91 1130 -33 
Q 819 25 488 141 
L 488 750 
Q 750 597 1062 519 
Q 1375 441 1716 441 
Q 2309 441 2620 675 
Q 2931 909 2931 1356 
Q 2931 1769 2642 2001 
Q 2353 2234 1838 2234 
L 1294 2234 
L 1294 2753 
L 1863 2753 
Q 2328 2753 2575 2939 
Q 2822 3125 2822 3475 
Q 2822 3834 2567 4026 
Q 2313 4219 1838 4219 
Q 1578 4219 1281 4162 
Q 984 4106 628 3988 
L 628 4550 
Q 988 4650 1302 4700 
Q 1616 4750 1894 4750 
Q 2613 4750 3031 4423 
Q 3450 4097 3450 3541 
Q 3450 3153 3228 2886 
Q 3006 2619 2597 2516 
z
" transform="scale(0.015625)"/>
        <path id="DejaVuSans-2d" d="M 313 2009 
L 1997 2009 
L 1997 1497 
L 313 1497 
L 313 2009 
z
" transform="scale(0.015625)"/>
        <path id="DejaVuSans-31" d="M 794 531 
L 1825 531 
L 1825 4091 
L 703 3866 
L 703 4441 
L 1819 4666 
L 2450 4666 
L 2450 531 
L 3481 531 
L 3481 0 
L 794 0 
L 794 531 
z
" transform="scale(0.015625)"/>
       </defs>
       <use xlink:href="#DejaVuSans-32"/>
       <use xlink:href="#DejaVuSans-30" x="63.623047"/>
       <use xlink:href="#DejaVuSans-32" x="127.246094"/>
       <use xlink:href="#DejaVuSans-33" x="190.869141"/>
       <use xlink:href="#DejaVuSans-2d" x="254.492188"/>
       <use xlink:href="#DejaVuSans-31" x="290.576172"/>
       <use xlink:href="#DejaVuSans-31" x="354.199219"/>
       <use xlink:href="#DejaVuSans-2d" x="417.822266"/>
       <use xlink:href="#DejaVuSans-30" x="453.90625"/>
       <use xlink:href="#DejaVuSans-33" x="517.529297"/>
      </g>
     </g>
    </g>
    <g id="xtick_2">
     <g id="line2d_3">
      <path d="M 191.058357 279.561175 
L 191.058357 25.44 
" clip-path="url(#pc6640b3b6b)" style="fill: none; stroke: #b0b0b0; stroke-width: 0.8; stroke-linecap: square"/>
     </g>
     <g id="line2d_4">
      <g>
       <use xlink:href="#m35822f3269" x="191.058357" y="279.561175" style="stroke: #000000; stroke-width: 0.8"/>
      </g>
     </g>
     <g id="text_2">
      <!-- 2023-11-05 -->
      <g transform="translate(148.493843 333.028035) rotate(-45) scale(0.1 -0.1)">
       <defs>
        <path id="DejaVuSans-35" d="M 691 4666 
L 3169 4666 
L 3169 4134 
L 1269 4134 
L 1269 2991 
Q 1406 3038 1543 3061 
Q 1681 3084 1819 3084 
Q 2600 3084 3056 2656 
Q 3513 2228 3513 1497 
Q 3513 744 3044 326 
Q 2575 -91 1722 -91 
Q 1428 -91 1123 -41 
Q 819 9 494 109 
L 494 744 
Q 775 591 1075 516 
Q 1375 441 1709 441 
Q 2250 441 2565 725 
Q 2881 1009 2881 1497 
Q 2881 1984 2565 2268 
Q 2250 2553 1709 2553 
Q 1456 2553 1204 2497 
Q 953 2441 691 2322 
L 691 4666 
z
" transform="scale(0.015625)"/>
       </defs>
       <use xlink:href="#DejaVuSans-32"/>
       <use xlink:href="#DejaVuSans-30" x="63.623047"/>
       <use xlink:href="#DejaVuSans-32" x="127.246094"/>
       <use xlink:href="#DejaVuSans-33" x="190.869141"/>
       <use xlink:href="#DejaVuSans-2d" x="254.492188"/>
       <use xlink:href="#DejaVuSans-31" x="290.576172"/>
       <use xlink:href="#DejaVuSans-31" x="354.199219"/>
       <use xlink:href="#DejaVuSans-2d" x="417.822266"/>
       <use xlink:href="#DejaVuSans-30" x="453.90625"/>
       <use xlink:href="#DejaVuSans-35" x="517.529297"/>
      </g>
     </g>
    </g>
    <g id="xtick_3">
     <g id="line2d_5">
      <path d="M 263.367152 279.561175 
L 263.367152 25.44 
" clip-path="url(#pc6640b3b6b)" style="fill: none; stroke: #b0b0b0; stroke-width: 0.8; stroke-linecap: square"/>
     </g>
     <g id="line2d_6">
      <g>
       <use xlink:href="#m35822f3269" x="263.367152" y="279.561175" style="stroke: #000000; stroke-width: 0.8"/>
      </g>
     </g>
     <g id="text_3">
      <!-- 2023-11-07 -->
      <g transform="translate(220.802638 333.028035) rotate(-45) scale(0.1 -0.1)">
       <defs>
        <path id="DejaVuSans-37" d="M 525 4666 
L 3525 4666 
L 3525 4397 
L 1831 0 
L 1172 0 
L 2766 4134 
L 525 4134 
L 525 4666 
z
" transform="scale(0.015625)"/>
       </defs>
       <use xlink:href="#DejaVuSans-32"/>
       <use xlink:href="#DejaVuSans-30" x="63.623047"/>
       <use xlink:href="#DejaVuSans-32" x="127.246094"/>
       <use xlink:href="#DejaVuSans-33" x="190.869141"/>
       <use xlink:href="#DejaVuSans-2d" x="254.492188"/>
       <use xlink:href="#DejaVuSans-31" x="290.576172"/>
       <use xlink:href="#DejaVuSans-31" x="354.199219"/>
       <use xlink:href="#DejaVuSans-2d" x="417.822266"/>
       <use xlink:href="#DejaVuSans-30" x="453.90625"/>
       <use xlink:href="#DejaVuSans-37" x="517.529297"/>
      </g>
     </g>
    </g>
    <g id="xtick_4">
     <g id="line2d_7">
      <path d="M 335.675947 279.561175 
L 335.675947 25.44 
" clip-path="url(#pc6640b3b6b)" style="fill: none; stroke: #b0b0b0; stroke-width: 0.8; stroke-linecap: square"/>
     </g>
     <g id="line2d_8">
      <g>
       <use xlink:href="#m35822f3269" x="335.675947" y="279.561175" style="stroke: #000000; stroke-width: 0.8"/>
      </g>
     </g>
     <g id="text_4">
      <!-- 2023-11-09 -->
      <g transform="translate(293.111434 333.028035) rotate(-45) scale(0.1 -0.1)">
       <defs>
        <path id="DejaVuSans-39" d="M 703 97 
L 703 672 
Q 941 559 1184 500 
Q 1428 441 1663 441 
Q 2288 441 2617 861 
Q 2947 1281 2994 2138 
Q 2813 1869 2534 1725 
Q 2256 1581 1919 1581 
Q 1219 1581 811 2004 
Q 403 2428 403 3163 
Q 403 3881 828 4315 
Q 1253 4750 1959 4750 
Q 2769 4750 3195 4129 
Q 3622 3509 3622 2328 
Q 3622 1225 3098 567 
Q 2575 -91 1691 -91 
Q 1453 -91 1209 -44 
Q 966 3 703 97 
z
M 1959 2075 
Q 2384 2075 2632 2365 
Q 2881 2656 2881 3163 
Q 2881 3666 2632 3958 
Q 2384 4250 1959 4250 
Q 1534 4250 1286 3958 
Q 1038 3666 1038 3163 
Q 1038 2656 1286 2365 
Q 1534 2075 1959 2075 
z
" transform="scale(0.015625)"/>
       </defs>
       <use xlink:href="#DejaVuSans-32"/>
       <use xlink:href="#DejaVuSans-30" x="63.623047"/>
       <use xlink:href="#DejaVuSans-32" x="127.246094"/>
       <use xlink:href="#DejaVuSans-33" x="190.869141"/>
       <use xlink:href="#DejaVuSans-2d" x="254.492188"/>
       <use xlink:href="#DejaVuSans-31" x="290.576172"/>
       <use xlink:href="#DejaVuSans-31" x="354.199219"/>
       <use xlink:href="#DejaVuSans-2d" x="417.822266"/>
       <use xlink:href="#DejaVuSans-30" x="453.90625"/>
       <use xlink:href="#DejaVuSans-39" x="517.529297"/>
      </g>
     </g>
    </g>
    <g id="xtick_5">
     <g id="line2d_9">
      <path d="M 407.984743 279.561175 
L 407.984743 25.44 
" clip-path="url(#pc6640b3b6b)" style="fill: none; stroke: #b0b0b0; stroke-width: 0.8; stroke-linecap: square"/>
     </g>
     <g id="line2d_10">
      <g>
       <use xlink:href="#m35822f3269" x="407.984743" y="279.561175" style="stroke: #000000; stroke-width: 0.8"/>
      </g>
     </g>
     <g id="text_5">
      <!-- 2023-11-11 -->
      <g transform="translate(365.420229 333.028035) rotate(-45) scale(0.1 -0.1)">
       <use xlink:href="#DejaVuSans-32"/>
       <use xlink:href="#DejaVuSans-30" x="63.623047"/>
       <use xlink:href="#DejaVuSans-32" x="127.246094"/>
       <use xlink:href="#DejaVuSans-33" x="190.869141"/>
       <use xlink:href="#DejaVuSans-2d" x="254.492188"/>
       <use xlink:href="#DejaVuSans-31" x="290.576172"/>
       <use xlink:href="#DejaVuSans-31" x="354.199219"/>
       <use xlink:href="#DejaVuSans-2d" x="417.822266"/>
       <use xlink:href="#DejaVuSans-31" x="453.90625"/>
       <use xlink:href="#DejaVuSans-31" x="517.529297"/>
      </g>
     </g>
    </g>
   </g>
   <g id="matplotlib.axis_2">
    <g id="ytick_1">
     <g id="line2d_11">
      <path d="M 46.46 253.008963 
L 450 253.008963 
" clip-path="url(#pc6640b3b6b)" style="fill: none; stroke: #b0b0b0; stroke-width: 0.8; stroke-linecap: square"/>
     </g>
     <g id="line2d_12">
      <defs>
       <path id="m3c954b3ef1" d="M 0 0 
L -3.5 0 
" style="stroke: #000000; stroke-width: 0.8"/>
      </defs>
      <g>
       <use xlink:href="#m3c954b3ef1" x="46.46" y="253.008963" style="stroke: #000000; stroke-width: 0.8"/>
      </g>
     </g>
     <g id="text_6">
      <!-- 0 -->
      <g transform="translate(33.0975 256.808182) scale(0.1 -0.1)">
       <use xlink:href="#DejaVuSans-30"/>
      </g>
     </g>
    </g>
    <g id="ytick_2">
     <g id="line2d_13">
      <path d="M 46.46 223.006463 
L 450 223.006463 
" clip-path="url(#pc6640b3b6b)" style="fill: none; stroke: #b0b0b0; stroke-width: 0.8; stroke-linecap: square"/>
     </g>
     <g id="line2d_14">
      <g>
       <use xlink:href="#m3c954b3ef1" x="46.46" y="223.006463" style="stroke: #000000; stroke-width: 0.8"/>
      </g>
     </g>
     <g id="text_7">
      <!-- 2 -->
      <g transform="translate(33.0975 226.805682) scale(0.1 -0.1)">
       <use xlink:href="#DejaVuSans-32"/>
      </g>
     </g>
    </g>
    <g id="ytick_3">
     <g id="line2d_15">
      <path d="M 46.46 193.003963 
L 450 193.003963 
" clip-path="url(#pc6640b3b6b)" style="fill: none; stroke: #b0b0b0; stroke-width: 0.8; stroke-linecap: square"/>
     </g>
     <g id="line2d_16">
      <g>
       <use xlink:href="#m3c954b3ef1" x="46.46" y="193.003963" style="stroke: #000000; stroke-width: 0.8"/>
      </g>
     </g>
     <g id="text_8">
      <!-- 4 -->
      <g transform="translate(33.0975 196.803182) scale(0.1 -0.1)">
       <defs>
        <path id="DejaVuSans-34" d="M 2419 4116 
L 825 1625 
L 2419 1625 
L 2419 4116 
z
M 2253 4666 
L 3047 4666 
L 3047 1625 
L 3713 1625 
L 3713 1100 
L 3047 1100 
L 3047 0 
L 2419 0 
L 2419 1100 
L 313 1100 
L 313 1709 
L 2253 4666 
z
" transform="scale(0.015625)"/>
       </defs>
       <use xlink:href="#DejaVuSans-34"/>
      </g>
     </g>
    </g>
    <g id="ytick_4">
     <g id="line2d_17">
      <path d="M 46.46 163.001463 
L 450 163.001463 
" clip-path="url(#pc6640b3b6b)" style="fill: none; stroke: #b0b0b0; stroke-width: 0.8; stroke-linecap: square"/>
     </g>
     <g id="line2d_18">
      <g>
       <use xlink:href="#m3c954b3ef1" x="46.46" y="163.001463" style="stroke: #000000; stroke-width: 0.8"/>
      </g>
     </g>
     <g id="text_9">
      <!-- 6 -->
      <g transform="translate(33.0975 166.800681) scale(0.1 -0.1)">
       <defs>
        <path id="DejaVuSans-36" d="M 2113 2584 
Q 1688 2584 1439 2293 
Q 1191 2003 1191 1497 
Q 1191 994 1439 701 
Q 1688 409 2113 409 
Q 2538 409 2786 701 
Q 3034 994 3034 1497 
Q 3034 2003 2786 2293 
Q 2538 2584 2113 2584 
z
M 3366 4563 
L 3366 3988 
Q 3128 4100 2886 4159 
Q 2644 4219 2406 4219 
Q 1781 4219 1451 3797 
Q 1122 3375 1075 2522 
Q 1259 2794 1537 2939 
Q 1816 3084 2150 3084 
Q 2853 3084 3261 2657 
Q 3669 2231 3669 1497 
Q 3669 778 3244 343 
Q 2819 -91 2113 -91 
Q 1303 -91 875 529 
Q 447 1150 447 2328 
Q 447 3434 972 4092 
Q 1497 4750 2381 4750 
Q 2619 4750 2861 4703 
Q 3103 4656 3366 4563 
z
" transform="scale(0.015625)"/>
       </defs>
       <use xlink:href="#DejaVuSans-36"/>
      </g>
     </g>
    </g>
    <g id="ytick_5">
     <g id="line2d_19">
      <path d="M 46.46 132.998963 
L 450 132.998963 
" clip-path="url(#pc6640b3b6b)" style="fill: none; stroke: #b0b0b0; stroke-width: 0.8; stroke-linecap: square"/>
     </g>
     <g id="line2d_20">
      <g>
       <use xlink:href="#m3c954b3ef1" x="46.46" y="132.998963" style="stroke: #000000; stroke-width: 0.8"/>
      </g>
     </g>
     <g id="text_10">
      <!-- 8 -->
      <g transform="translate(33.0975 136.798181) scale(0.1 -0.1)">
       <defs>
        <path id="DejaVuSans-38" d="M 2034 2216 
Q 1584 2216 1326 1975 
Q 1069 1734 1069 1313 
Q 1069 891 1326 650 
Q 1584 409 2034 409 
Q 2484 409 2743 651 
Q 3003 894 3003 1313 
Q 3003 1734 2745 1975 
Q 2488 2216 2034 2216 
z
M 1403 2484 
Q 997 2584 770 2862 
Q 544 3141 544 3541 
Q 544 4100 942 4425 
Q 1341 4750 2034 4750 
Q 2731 4750 3128 4425 
Q 3525 4100 3525 3541 
Q 3525 3141 3298 2862 
Q 3072 2584 2669 2484 
Q 3125 2378 3379 2068 
Q 3634 1759 3634 1313 
Q 3634 634 3220 271 
Q 2806 -91 2034 -91 
Q 1263 -91 848 271 
Q 434 634 434 1313 
Q 434 1759 690 2068 
Q 947 2378 1403 2484 
z
M 1172 3481 
Q 1172 3119 1398 2916 
Q 1625 2713 2034 2713 
Q 2441 2713 2670 2916 
Q 2900 3119 2900 3481 
Q 2900 3844 2670 4047 
Q 2441 4250 2034 4250 
Q 1625 4250 1398 4047 
Q 1172 3844 1172 3481 
z
" transform="scale(0.015625)"/>
       </defs>
       <use xlink:href="#DejaVuSans-38"/>
      </g>
     </g>
    </g>
    <g id="ytick_6">
     <g id="line2d_21">
      <path d="M 46.46 102.996463 
L 450 102.996463 
" clip-path="url(#pc6640b3b6b)" style="fill: none; stroke: #b0b0b0; stroke-width: 0.8; stroke-linecap: square"/>
     </g>
     <g id="line2d_22">
      <g>
       <use xlink:href="#m3c954b3ef1" x="46.46" y="102.996463" style="stroke: #000000; stroke-width: 0.8"/>
      </g>
     </g>
     <g id="text_11">
      <!-- 10 -->
      <g transform="translate(26.735 106.795681) scale(0.1 -0.1)">
       <use xlink:href="#DejaVuSans-31"/>
       <use xlink:href="#DejaVuSans-30" x="63.623047"/>
      </g>
     </g>
    </g>
    <g id="ytick_7">
     <g id="line2d_23">
      <path d="M 46.46 72.993963 
L 450 72.993963 
" clip-path="url(#pc6640b3b6b)" style="fill: none; stroke: #b0b0b0; stroke-width: 0.8; stroke-linecap: square"/>
     </g>
     <g id="line2d_24">
      <g>
       <use xlink:href="#m3c954b3ef1" x="46.46" y="72.993963" style="stroke: #000000; stroke-width: 0.8"/>
      </g>
     </g>
     <g id="text_12">
      <!-- 12 -->
      <g transform="translate(26.735 76.793181) scale(0.1 -0.1)">
       <use xlink:href="#DejaVuSans-31"/>
       <use xlink:href="#DejaVuSans-32" x="63.623047"/>
      </g>
     </g>
    </g>
    <g id="ytick_8">
     <g id="line2d_25">
      <path d="M 46.46 42.991463 
L 450 42.991463 
" clip-path="url(#pc6640b3b6b)" style="fill: none; stroke: #b0b0b0; stroke-width: 0.8; stroke-linecap: square"/>
     </g>
     <g id="line2d_26">
      <g>
       <use xlink:href="#m3c954b3ef1" x="46.46" y="42.991463" style="stroke: #000000; stroke-width: 0.8"/>
      </g>
     </g>
     <g id="text_13">
      <!-- 14 -->
      <g transform="translate(26.735 46.790681) scale(0.1 -0.1)">
       <use xlink:href="#DejaVuSans-31"/>
       <use xlink:href="#DejaVuSans-34" x="63.623047"/>
      </g>
     </g>
    </g>
    <g id="text_14">
     <!-- Temperature [°C] -->
     <g transform="translate(20.655313 199.072463) rotate(-90) scale(0.1 -0.1)">
      <defs>
       <path id="DejaVuSans-54" d="M -19 4666 
L 3928 4666 
L 3928 4134 
L 2272 4134 
L 2272 0 
L 1638 0 
L 1638 4134 
L -19 4134 
L -19 4666 
z
" transform="scale(0.015625)"/>
       <path id="DejaVuSans-65" d="M 3597 1894 
L 3597 1613 
L 953 1613 
Q 991 1019 1311 708 
Q 1631 397 2203 397 
Q 2534 397 2845 478 
Q 3156 559 3463 722 
L 3463 178 
Q 3153 47 2828 -22 
Q 2503 -91 2169 -91 
Q 1331 -91 842 396 
Q 353 884 353 1716 
Q 353 2575 817 3079 
Q 1281 3584 2069 3584 
Q 2775 3584 3186 3129 
Q 3597 2675 3597 1894 
z
M 3022 2063 
Q 3016 2534 2758 2815 
Q 2500 3097 2075 3097 
Q 1594 3097 1305 2825 
Q 1016 2553 972 2059 
L 3022 2063 
z
" transform="scale(0.015625)"/>
       <path id="DejaVuSans-6d" d="M 3328 2828 
Q 3544 3216 3844 3400 
Q 4144 3584 4550 3584 
Q 5097 3584 5394 3201 
Q 5691 2819 5691 2113 
L 5691 0 
L 5113 0 
L 5113 2094 
Q 5113 2597 4934 2840 
Q 4756 3084 4391 3084 
Q 3944 3084 3684 2787 
Q 3425 2491 3425 1978 
L 3425 0 
L 2847 0 
L 2847 2094 
Q 2847 2600 2669 2842 
Q 2491 3084 2119 3084 
Q 1678 3084 1418 2786 
Q 1159 2488 1159 1978 
L 1159 0 
L 581 0 
L 581 3500 
L 1159 3500 
L 1159 2956 
Q 1356 3278 1631 3431 
Q 1906 3584 2284 3584 
Q 2666 3584 2933 3390 
Q 3200 3197 3328 2828 
z
" transform="scale(0.015625)"/>
       <path id="DejaVuSans-70" d="M 1159 525 
L 1159 -1331 
L 581 -1331 
L 581 3500 
L 1159 3500 
L 1159 2969 
Q 1341 3281 1617 3432 
Q 1894 3584 2278 3584 
Q 2916 3584 3314 3078 
Q 3713 2572 3713 1747 
Q 3713 922 3314 415 
Q 2916 -91 2278 -91 
Q 1894 -91 1617 61 
Q 1341 213 1159 525 
z
M 3116 1747 
Q 3116 2381 2855 2742 
Q 2594 3103 2138 3103 
Q 1681 3103 1420 2742 
Q 1159 2381 1159 1747 
Q 1159 1113 1420 752 
Q 1681 391 2138 391 
Q 2594 391 2855 752 
Q 3116 1113 3116 1747 
z
" transform="scale(0.015625)"/>
       <path id="DejaVuSans-72" d="M 2631 2963 
Q 2534 3019 2420 3045 
Q 2306 3072 2169 3072 
Q 1681 3072 1420 2755 
Q 1159 2438 1159 1844 
L 1159 0 
L 581 0 
L 581 3500 
L 1159 3500 
L 1159 2956 
Q 1341 3275 1631 3429 
Q 1922 3584 2338 3584 
Q 2397 3584 2469 3576 
Q 2541 3569 2628 3553 
L 2631 2963 
z
" transform="scale(0.015625)"/>
       <path id="DejaVuSans-61" d="M 2194 1759 
Q 1497 1759 1228 1600 
Q 959 1441 959 1056 
Q 959 750 1161 570 
Q 1363 391 1709 391 
Q 2188 391 2477 730 
Q 2766 1069 2766 1631 
L 2766 1759 
L 2194 1759 
z
M 3341 1997 
L 3341 0 
L 2766 0 
L 2766 531 
Q 2569 213 2275 61 
Q 1981 -91 1556 -91 
Q 1019 -91 701 211 
Q 384 513 384 1019 
Q 384 1609 779 1909 
Q 1175 2209 1959 2209 
L 2766 2209 
L 2766 2266 
Q 2766 2663 2505 2880 
Q 2244 3097 1772 3097 
Q 1472 3097 1187 3025 
Q 903 2953 641 2809 
L 641 3341 
Q 956 3463 1253 3523 
Q 1550 3584 1831 3584 
Q 2591 3584 2966 3190 
Q 3341 2797 3341 1997 
z
" transform="scale(0.015625)"/>
       <path id="DejaVuSans-74" d="M 1172 4494 
L 1172 3500 
L 2356 3500 
L 2356 3053 
L 1172 3053 
L 1172 1153 
Q 1172 725 1289 603 
Q 1406 481 1766 481 
L 2356 481 
L 2356 0 
L 1766 0 
Q 1100 0 847 248 
Q 594 497 594 1153 
L 594 3053 
L 172 3053 
L 172 3500 
L 594 3500 
L 594 4494 
L 1172 4494 
z
" transform="scale(0.015625)"/>
       <path id="DejaVuSans-75" d="M 544 1381 
L 544 3500 
L 1119 3500 
L 1119 1403 
Q 1119 906 1312 657 
Q 1506 409 1894 409 
Q 2359 409 2629 706 
Q 2900 1003 2900 1516 
L 2900 3500 
L 3475 3500 
L 3475 0 
L 2900 0 
L 2900 538 
Q 2691 219 2414 64 
Q 2138 -91 1772 -91 
Q 1169 -91 856 284 
Q 544 659 544 1381 
z
M 1991 3584 
L 1991 3584 
z
" transform="scale(0.015625)"/>
       <path id="DejaVuSans-20" transform="scale(0.015625)"/>
       <path id="DejaVuSans-5b" d="M 550 4863 
L 1875 4863 
L 1875 4416 
L 1125 4416 
L 1125 -397 
L 1875 -397 
L 1875 -844 
L 550 -844 
L 550 4863 
z
" transform="scale(0.015625)"/>
       <path id="DejaVuSans-c2" d="M 2188 4044 
L 1331 1722 
L 3047 1722 
L 2188 4044 
z
M 1831 4666 
L 2547 4666 
L 4325 0 
L 3669 0 
L 3244 1197 
L 1141 1197 
L 716 0 
L 50 0 
L 1831 4666 
z
M 1894 5941 
L 2481 5941 
L 3141 5110 
L 2706 5110 
L 2188 5666 
L 1669 5110 
L 1234 5110 
L 1894 5941 
z
" transform="scale(0.015625)"/>
       <path id="DejaVuSans-b0" d="M 1600 4347 
Q 1350 4347 1178 4173 
Q 1006 4000 1006 3750 
Q 1006 3503 1178 3333 
Q 1350 3163 1600 3163 
Q 1850 3163 2022 3333 
Q 2194 3503 2194 3750 
Q 2194 3997 2020 4172 
Q 1847 4347 1600 4347 
z
M 1600 4750 
Q 1800 4750 1984 4673 
Q 2169 4597 2303 4453 
Q 2447 4313 2519 4134 
Q 2591 3956 2591 3750 
Q 2591 3338 2302 3052 
Q 2013 2766 1594 2766 
Q 1172 2766 890 3047 
Q 609 3328 609 3750 
Q 609 4169 896 4459 
Q 1184 4750 1600 4750 
z
" transform="scale(0.015625)"/>
       <path id="DejaVuSans-43" d="M 4122 4306 
L 4122 3641 
Q 3803 3938 3442 4084 
Q 3081 4231 2675 4231 
Q 1875 4231 1450 3742 
Q 1025 3253 1025 2328 
Q 1025 1406 1450 917 
Q 1875 428 2675 428 
Q 3081 428 3442 575 
Q 3803 722 4122 1019 
L 4122 359 
Q 3791 134 3420 21 
Q 3050 -91 2638 -91 
Q 1578 -91 968 557 
Q 359 1206 359 2328 
Q 359 3453 968 4101 
Q 1578 4750 2638 4750 
Q 3056 4750 3426 4639 
Q 3797 4528 4122 4306 
z
" transform="scale(0.015625)"/>
       <path id="DejaVuSans-5d" d="M 1947 4863 
L 1947 -844 
L 622 -844 
L 622 -397 
L 1369 -397 
L 1369 4416 
L 622 4416 
L 622 4863 
L 1947 4863 
z
" transform="scale(0.015625)"/>
      </defs>
      <use xlink:href="#DejaVuSans-54"/>
      <use xlink:href="#DejaVuSans-65" x="44.083984"/>
      <use xlink:href="#DejaVuSans-6d" x="105.607422"/>
      <use xlink:href="#DejaVuSans-70" x="203.019531"/>
      <use xlink:href="#DejaVuSans-65" x="266.496094"/>
      <use xlink:href="#DejaVuSans-72" x="328.019531"/>
      <use xlink:href="#DejaVuSans-61" x="369.132812"/>
      <use xlink:href="#DejaVuSans-74" x="430.412109"/>
      <use xlink:href="#DejaVuSans-75" x="469.621094"/>
      <use xlink:href="#DejaVuSans-72" x="533"/>
      <use xlink:href="#DejaVuSans-65" x="571.863281"/>
      <use xlink:href="#DejaVuSans-20" x="633.386719"/>
      <use xlink:href="#DejaVuSans-5b" x="665.173828"/>
      <use xlink:href="#DejaVuSans-c2" x="704.1875"/>
      <use xlink:href="#DejaVuSans-b0" x="772.595703"/>
      <use xlink:href="#DejaVuSans-43" x="822.595703"/>
      <use xlink:href="#DejaVuSans-5d" x="892.419922"/>
     </g>
    </g>
   </g>
   <g id="line2d_27">
    <path d="M 46.46 188.503588 
L 46.480004 188.503588 
L 46.62074 191.503838 
L 46.721031 191.503838 
L 46.841543 193.003963 
L 46.921885 193.003963 
L 46.982278 194.504088 
L 47.02243 193.003963 
L 47.323598 193.003963 
L 47.504482 187.003463 
L 47.524696 187.003463 
L 47.665137 188.503588 
L 47.725311 188.503588 
L 47.845823 190.003713 
L 47.986528 190.003713 
L 48.026678 191.503838 
L 48.086851 190.003713 
L 48.207364 190.003713 
L 48.327878 191.503838 
L 48.508738 191.503838 
L 48.629252 190.003713 
L 48.749768 190.003713 
L 48.870307 191.503838 
L 48.890275 191.503838 
L 49.010789 193.003963 
L 49.111315 193.003963 
L 49.231829 194.504088 
L 49.31221 194.504088 
L 49.37233 196.004213 
L 49.412737 194.504088 
L 49.472819 194.504088 
L 49.553213 193.003963 
L 49.573185 194.504088 
L 49.633548 194.504088 
L 49.754055 196.004213 
L 49.774041 196.004213 
L 49.914768 193.003963 
L 50.035268 194.504088 
L 50.135583 194.504088 
L 50.256101 196.004213 
L 50.416783 196.004213 
L 50.537299 194.504088 
L 50.878862 194.504088 
L 51.039532 199.004463 
L 51.421066 199.004463 
L 51.541579 197.504338 
L 51.621919 197.504338 
L 51.782603 202.004713 
L 51.923317 202.004713 
L 52.064042 199.004463 
L 52.284873 199.004463 
L 52.405386 197.504338 
L 52.566036 197.504338 
L 52.706542 200.504588 
L 52.746715 200.504588 
L 52.786886 199.004463 
L 52.847147 200.504588 
L 52.907398 200.504588 
L 52.967783 202.004713 
L 53.007932 200.504588 
L 53.108256 199.004463 
L 53.28915 205.004963 
L 53.349283 205.004963 
L 53.469794 206.505088 
L 53.550136 206.505088 
L 53.771186 202.004713 
L 53.911679 205.004963 
L 54.05239 205.004963 
L 54.233049 199.004463 
L 54.253241 199.004463 
L 54.393734 196.004213 
L 54.433906 196.004213 
L 54.514247 194.504088 
L 54.534442 196.004213 
L 54.63476 196.004213 
L 54.775453 199.004463 
L 54.91596 199.004463 
L 55.076876 203.504838 
L 55.116816 203.504838 
L 55.297696 197.504338 
L 55.438185 197.504338 
L 55.578944 199.004463 
L 55.619042 199.004463 
L 55.639041 200.504588 
L 55.699415 199.004463 
L 55.819925 196.004213 
L 55.960414 199.004463 
L 56.080927 199.004463 
L 56.281781 206.505088 
L 56.402294 206.505088 
L 56.562979 211.005463 
L 56.623239 211.005463 
L 56.743865 212.505588 
L 56.864378 212.505588 
L 57.004864 215.505838 
L 57.085205 215.505838 
L 57.185754 214.005713 
L 57.306267 215.505838 
L 57.326235 215.505838 
L 57.486918 211.005463 
L 57.507127 212.505588 
L 57.547311 212.505588 
L 57.687774 209.505338 
L 57.788276 209.505338 
L 57.908844 211.005463 
L 57.989181 211.005463 
L 58.089486 209.505338 
L 58.149779 209.505338 
L 58.350722 202.004713 
L 58.370687 202.004713 
L 58.511283 199.004463 
L 58.551544 199.004463 
L 58.651886 194.504088 
L 58.692056 196.004213 
L 58.832779 199.004463 
L 58.852992 199.004463 
L 58.993464 181.002963 
L 59.475518 122.498088 
L 59.515663 122.498088 
L 59.596037 116.497588 
L 59.616211 117.997713 
L 59.67632 119.497838 
L 59.716549 117.997713 
L 59.776676 116.497588 
L 59.816846 117.997713 
L 59.877238 117.997713 
L 60.078051 104.496588 
L 60.098045 104.496588 
L 60.33907 93.995713 
L 60.39933 93.995713 
L 60.459583 96.995963 
L 60.499753 93.995713 
L 60.51995 93.995713 
L 60.88148 71.493838 
L 60.901465 72.993963 
L 61.102317 105.996713 
L 61.142656 105.996713 
L 61.222831 108.996963 
L 61.24304 107.496838 
L 61.564366 81.994713 
L 61.664712 83.494838 
L 61.704883 83.494838 
L 62.066418 104.496588 
L 62.387789 80.494588 
L 62.46813 81.994713 
L 62.508302 81.994713 
L 62.849896 104.496588 
L 62.889987 102.996463 
L 62.91001 102.996463 
L 62.950179 101.496338 
L 62.990351 102.996463 
L 63.030516 102.996463 
L 63.251582 114.997463 
L 63.271545 113.497338 
L 63.351889 113.497338 
L 63.592913 101.496338 
L 63.733613 96.995963 
L 63.753775 96.995963 
L 63.894342 99.996213 
L 64.37633 71.493838 
L 64.396336 71.493838 
L 64.536925 78.994463 
L 64.557017 77.494338 
L 64.637359 75.994213 
L 64.858441 92.495588 
L 64.938689 92.495588 
L 65.059282 90.995463 
L 65.079235 90.995463 
L 65.159578 92.495588 
L 65.179804 90.995463 
L 65.199748 90.995463 
L 65.380653 83.494838 
L 65.621684 93.995713 
L 65.641833 93.995713 
L 65.721971 95.495838 
L 65.742187 93.995713 
L 65.782364 93.995713 
L 65.802313 95.495838 
L 65.862645 92.495588 
L 65.882655 92.495588 
L 66.003167 90.995463 
L 66.083508 95.495838 
L 66.143876 93.995713 
L 66.163851 93.995713 
L 66.284362 89.495338 
L 66.304586 90.995463 
L 66.445046 93.995713 
L 66.485219 93.995713 
L 66.686074 86.495088 
L 66.726244 86.495088 
L 66.94731 77.494338 
L 67.127955 77.494338 
L 67.168312 75.994213 
L 67.228501 77.494338 
L 67.248469 77.494338 
L 67.52993 90.995463 
L 67.590006 90.995463 
L 67.750754 95.495838 
L 67.871271 95.495838 
L 68.011713 92.495588 
L 68.112306 92.495588 
L 68.232745 90.995463 
L 68.252739 90.995463 
L 68.473823 95.495838 
L 68.513981 95.495838 
L 68.654675 98.496088 
L 68.69462 98.496088 
L 69.015988 116.497588 
L 69.116547 116.497588 
L 69.237046 114.997463 
L 69.337355 114.997463 
L 69.538212 122.498088 
L 69.598607 122.498088 
L 69.719126 123.998213 
L 69.859582 123.998213 
L 70.000356 126.998463 
L 70.020266 126.998463 
L 70.181189 131.498838 
L 70.201062 131.498838 
L 70.381804 137.499338 
L 70.402057 137.499338 
L 70.582662 143.499838 
L 70.643072 143.499838 
L 70.783515 146.500088 
L 70.863858 146.500088 
L 70.984372 148.000213 
L 71.004594 148.000213 
L 71.145056 151.000463 
L 71.386087 151.000463 
L 71.506601 152.500588 
L 71.667508 152.500588 
L 71.808048 154.000713 
L 72.149341 154.000713 
L 72.269853 155.500838 
L 72.430796 155.500838 
L 72.571302 152.500588 
L 72.591223 152.500588 
L 72.711736 154.000713 
L 72.932836 154.000713 
L 73.013164 155.500838 
L 73.033104 154.000713 
L 73.213888 154.000713 
L 73.233959 152.500588 
L 73.314302 154.000713 
L 73.474984 154.000713 
L 73.595498 152.500588 
L 73.716012 152.500588 
L 73.836525 154.000713 
L 73.856795 154.000713 
L 73.977157 155.500838 
L 74.09776 155.500838 
L 74.218279 154.000713 
L 74.238235 154.000713 
L 74.358747 155.500838 
L 74.479261 155.500838 
L 74.599775 154.000713 
L 74.820895 154.000713 
L 74.941396 155.500838 
L 74.961313 155.500838 
L 75.082026 154.000713 
L 75.162169 154.000713 
L 75.282682 155.500838 
L 75.403196 155.500838 
L 75.523709 157.000963 
L 75.724563 157.000963 
L 75.84507 158.501088 
L 76.648498 158.501088 
L 76.769009 160.001213 
L 77.190965 160.001213 
L 77.311502 161.501338 
L 77.6126 161.501338 
L 77.733112 160.001213 
L 78.094856 160.001213 
L 78.215164 161.501338 
L 78.315721 161.501338 
L 78.436257 160.001213 
L 78.817729 160.001213 
L 78.898071 161.501338 
L 78.918274 160.001213 
L 79.761903 160.001213 
L 79.882412 161.501338 
L 80.022859 161.501338 
L 80.143375 160.001213 
L 80.424571 160.001213 
L 80.545085 161.501338 
L 80.565317 161.501338 
L 80.685852 160.001213 
L 81.067309 160.001213 
L 81.187822 161.501338 
L 81.609738 161.501338 
L 81.730242 163.001463 
L 83.256745 163.001463 
L 83.357267 164.501588 
L 83.497788 163.001463 
L 83.578124 164.501588 
L 83.598089 163.001463 
L 84.200659 163.001463 
L 84.281001 161.501338 
L 84.30121 163.001463 
L 86.209222 163.001463 
L 86.329736 161.501338 
L 91.130294 161.501338 
L 91.250807 163.001463 
L 91.712659 163.001463 
L 91.83317 161.501338 
L 92.01406 161.501338 
L 92.134597 163.001463 
L 92.375654 163.001463 
L 92.4961 164.501588 
L 93.600695 164.501588 
L 93.721209 166.001713 
L 93.801551 166.001713 
L 93.92229 164.501588 
L 94.645142 164.501588 
L 94.785905 166.001713 
L 94.906424 164.501588 
L 94.92634 166.001713 
L 95.006683 164.501588 
L 96.4329 164.501588 
L 96.553348 166.001713 
L 96.573589 166.001713 
L 96.714114 164.501588 
L 97.959401 164.501588 
L 98.039758 166.001713 
L 98.059683 164.501588 
L 98.180196 166.001713 
L 98.300709 164.501588 
L 98.501564 164.501588 
L 98.622077 163.001463 
L 99.084211 163.001463 
L 99.184474 161.501338 
L 99.365349 161.501338 
L 99.48591 160.001213 
L 99.927817 160.001213 
L 100.048266 158.501088 
L 100.429778 158.501088 
L 100.550293 160.001213 
L 100.670806 158.501088 
L 101.072519 158.501088 
L 101.213245 160.001213 
L 101.474433 160.001213 
L 101.615002 161.501338 
L 102.177397 161.501338 
L 102.297822 160.001213 
L 102.418371 160.001213 
L 102.538948 161.501338 
L 102.639203 161.501338 
L 102.759716 160.001213 
L 103.00095 160.001213 
L 103.121254 161.501338 
L 104.92895 161.501338 
L 105.049462 163.001463 
L 106.334938 163.001463 
L 106.455449 164.501588 
L 106.636326 164.501588 
L 106.77702 167.501838 
L 106.917532 167.501838 
L 107.218699 182.503088 
L 107.258871 182.503088 
L 107.439783 188.503588 
L 107.479987 188.503588 
L 107.640575 193.003963 
L 107.761143 193.003963 
L 107.90186 196.004213 
L 107.921706 196.004213 
L 108.062294 199.004463 
L 108.102466 199.004463 
L 108.243216 202.004713 
L 108.263396 202.004713 
L 108.444059 205.004963 
L 108.544351 205.004963 
L 108.665042 206.505088 
L 108.705032 206.505088 
L 108.825548 208.005213 
L 109.167088 208.005213 
L 109.267432 209.505338 
L 109.387945 208.005213 
L 109.508459 208.005213 
L 109.628974 206.505088 
L 109.709314 206.505088 
L 109.82983 205.004963 
L 109.930323 205.004963 
L 110.050938 203.504838 
L 110.131242 203.504838 
L 110.251773 202.004713 
L 110.372281 202.004713 
L 110.512741 199.004463 
L 110.653459 199.004463 
L 110.773979 197.504338 
L 110.83411 197.504338 
L 110.954623 196.004213 
L 111.034969 196.004213 
L 111.175661 193.003963 
L 111.637534 193.003963 
L 111.778317 190.003713 
L 111.858613 190.003713 
L 111.979129 188.503588 
L 112.079422 188.503588 
L 112.199935 187.003463 
L 112.240104 187.003463 
L 112.360619 185.503338 
L 112.400788 185.503338 
L 112.541557 184.003213 
L 113.164043 184.003213 
L 113.344977 181.002963 
L 113.605927 181.002963 
L 113.746633 178.002713 
L 113.927531 178.002713 
L 114.068055 176.502588 
L 114.811061 176.502588 
L 114.931574 178.002713 
L 114.951802 178.002713 
L 115.052086 176.502588 
L 115.273118 176.502588 
L 115.393664 175.002463 
L 115.514147 176.502588 
L 115.634708 175.002463 
L 115.875652 175.002463 
L 115.996272 173.502338 
L 116.056364 173.502338 
L 116.136707 175.002463 
L 116.156876 173.502338 
L 116.257218 173.502338 
L 116.417905 169.001963 
L 116.438107 169.001963 
L 116.578815 172.002213 
L 116.759512 172.002213 
L 116.920205 167.501838 
L 116.94013 167.501838 
L 117.121076 170.502088 
L 117.181157 170.502088 
L 117.30167 173.502338 
L 117.442431 173.502338 
L 117.562876 175.002463 
L 118.185434 175.002463 
L 118.326116 172.002213 
L 118.366371 172.002213 
L 118.526968 167.501838 
L 118.546975 167.501838 
L 118.687637 164.501588 
L 118.808228 164.501588 
L 118.928734 166.001713 
L 118.948688 166.001713 
L 119.069201 167.501838 
L 119.230135 167.501838 
L 119.350399 169.001963 
L 119.370613 169.001963 
L 119.511082 172.002213 
L 119.692005 172.002213 
L 119.812521 173.502338 
L 121.660427 173.502338 
L 121.720498 172.002213 
L 121.760669 173.502338 
L 121.981771 173.502338 
L 122.082037 175.002463 
L 122.48375 175.002463 
L 122.564091 176.502588 
L 122.584328 175.002463 
L 123.206829 175.002463 
L 123.327345 176.502588 
L 123.367735 176.502588 
L 123.508277 175.002463 
L 123.5282 175.002463 
L 123.628753 173.502338 
L 123.729055 175.002463 
L 124.070644 175.002463 
L 124.19111 173.502338 
L 124.231341 173.502338 
L 124.351835 172.002213 
L 124.392023 173.502338 
L 124.452136 172.002213 
L 124.713403 172.002213 
L 124.833884 173.502338 
L 125.094875 173.502338 
L 125.215389 175.002463 
L 125.315885 175.002463 
L 125.43647 176.502588 
L 125.456418 176.502588 
L 125.57693 178.002713 
L 125.838208 178.002713 
L 125.958688 179.502838 
L 126.21967 179.502838 
L 126.340182 181.002963 
L 126.822237 181.002963 
L 127.003144 187.003463 
L 127.043254 187.003463 
L 127.183775 190.003713 
L 127.223948 190.003713 
L 127.344459 191.503838 
L 127.464974 191.503838 
L 127.585488 193.003963 
L 127.62566 193.003963 
L 127.786342 197.504338 
L 127.846736 197.504338 
L 127.967194 199.004463 
L 127.9872 199.004463 
L 128.127952 202.004713 
L 128.248469 202.004713 
L 128.368958 203.504838 
L 128.549595 203.504838 
L 128.670288 202.004713 
L 128.790621 202.004713 
L 128.911132 200.504588 
L 128.951305 200.504588 
L 129.071818 202.004713 
L 129.152162 202.004713 
L 129.272675 200.504588 
L 130.297164 200.504588 
L 130.417682 202.004713 
L 130.437637 202.004713 
L 130.558332 203.504838 
L 130.959863 203.504838 
L 131.060408 202.004713 
L 131.080379 203.504838 
L 131.160719 202.004713 
L 131.221078 202.004713 
L 131.361577 199.004463 
L 131.421995 199.004463 
L 131.582684 194.504088 
L 131.62285 194.504088 
L 131.763286 191.503838 
L 131.78351 191.503838 
L 131.923972 188.503588 
L 132.325683 188.503588 
L 132.446441 190.003713 
L 132.727396 190.003713 
L 132.847912 191.503838 
L 133.249623 191.503838 
L 133.390389 188.503588 
L 133.410306 188.503588 
L 133.530822 187.003463 
L 133.611165 187.003463 
L 133.631325 185.503338 
L 133.711703 187.003463 
L 133.771849 187.003463 
L 133.912607 184.003213 
L 134.073289 184.003213 
L 134.193809 182.503088 
L 134.233942 182.503088 
L 134.354339 181.002963 
L 134.414593 181.002963 
L 134.535108 179.502838 
L 134.595438 179.502838 
L 134.696028 178.002713 
L 134.796294 178.002713 
L 134.936816 175.002463 
L 134.95702 175.002463 
L 135.11761 179.502838 
L 135.137672 179.502838 
L 135.318584 185.503338 
L 135.358763 185.503338 
L 135.459271 187.003463 
L 136.061612 187.003463 
L 136.182125 188.503588 
L 136.32287 187.003463 
L 136.403233 187.003463 
L 136.543664 184.003213 
L 136.584092 184.003213 
L 136.764737 181.002963 
L 136.905205 181.002963 
L 137.005652 178.002713 
L 137.025716 179.502838 
L 137.166497 179.502838 
L 137.286958 181.002963 
L 137.447658 181.002963 
L 137.588114 178.002713 
L 137.648518 178.002713 
L 137.74879 176.502588 
L 137.909483 181.002963 
L 137.949655 181.002963 
L 138.150511 173.502338 
L 138.170686 173.502338 
L 138.311194 170.502088 
L 138.41176 170.502088 
L 138.572451 166.001713 
L 138.612606 166.001713 
L 138.753077 163.001463 
L 138.813467 163.001463 
L 138.933953 161.501338 
L 138.994105 161.501338 
L 139.114617 160.001213 
L 139.154786 160.001213 
L 139.235381 161.501338 
L 139.375873 158.501088 
L 139.395813 160.001213 
L 139.476156 158.501088 
L 139.636838 158.501088 
L 139.777519 155.500838 
L 139.797523 155.500838 
L 139.95821 160.001213 
L 140.139144 163.001463 
L 140.159067 163.001463 
L 140.199237 161.501338 
L 140.259671 163.001463 
L 140.279579 163.001463 
L 140.42024 166.001713 
L 140.540856 166.001713 
L 140.580958 164.501588 
L 140.641119 166.001713 
L 140.721461 166.001713 
L 140.922318 170.502088 
L 140.94258 169.001963 
L 141.022907 170.502088 
L 141.103256 172.002213 
L 141.123404 170.502088 
L 141.163346 170.502088 
L 141.304114 167.501838 
L 141.404373 167.501838 
L 141.565058 172.002213 
L 141.6454 172.002213 
L 141.765915 173.502338 
L 141.966771 173.502338 
L 142.087283 175.002463 
L 142.147703 175.002463 
L 142.248194 176.502588 
L 142.388722 176.502588 
L 142.488993 178.002713 
L 142.569337 178.002713 
L 142.689851 179.502838 
L 142.951126 179.502838 
L 143.071553 181.002963 
L 143.192146 181.002963 
L 143.332587 184.003213 
L 143.372759 184.003213 
L 143.553706 187.003463 
L 143.653957 187.003463 
L 143.774714 188.503588 
L 143.834823 188.503588 
L 143.975328 191.503838 
L 144.075869 191.503838 
L 144.216353 194.504088 
L 144.276724 194.504088 
L 144.41721 197.504338 
L 144.477639 197.504338 
L 144.618068 200.504588 
L 144.698409 200.504588 
L 144.839115 203.504838 
L 145.140291 203.504838 
L 145.260803 200.504588 
L 145.441744 203.504838 
L 145.501833 203.504838 
L 145.622345 206.505088 
L 145.682608 206.505088 
L 145.823201 209.505338 
L 145.863372 209.505338 
L 145.983886 211.005463 
L 146.024265 211.005463 
L 146.325502 218.506088 
L 146.345427 218.506088 
L 146.465944 220.006213 
L 146.747143 220.006213 
L 146.887882 223.006463 
L 146.927976 223.006463 
L 147.068511 220.006213 
L 147.088636 220.006213 
L 147.209147 218.506088 
L 147.249366 218.506088 
L 147.369883 220.006213 
L 147.430056 220.006213 
L 147.550829 218.506088 
L 147.711253 218.506088 
L 147.87194 223.006463 
L 147.912372 223.006463 
L 148.052817 224.506588 
L 148.072795 224.506588 
L 148.213477 227.506838 
L 148.233481 227.506838 
L 148.353995 224.506588 
L 148.374182 226.006713 
L 148.414337 223.006463 
L 148.534852 218.506088 
L 148.55485 220.006213 
L 148.635194 220.006213 
L 148.775873 223.006463 
L 148.816054 223.006463 
L 148.936572 224.506588 
L 149.237764 224.506588 
L 149.358278 221.506338 
L 149.438896 223.006463 
L 149.579323 221.506338 
L 149.619504 221.506338 
L 149.780141 226.006713 
L 149.860463 226.006713 
L 149.981001 227.506838 
L 150.161706 227.506838 
L 150.422902 233.507338 
L 150.483076 233.507338 
L 150.543418 232.007213 
L 150.56364 233.507338 
L 150.623733 233.507338 
L 150.74428 235.007463 
L 150.764274 235.007463 
L 150.904972 238.007713 
L 150.924958 238.007713 
L 151.045476 236.507588 
L 151.065662 238.007713 
L 151.146008 236.507588 
L 151.246332 236.507588 
L 151.366844 235.007463 
L 151.567704 235.007463 
L 151.688214 236.507588 
L 151.869115 236.507588 
L 151.989546 233.507338 
L 152.1301 236.507588 
L 152.170271 236.507588 
L 152.330957 232.007213 
L 152.612154 232.007213 
L 152.732671 233.507338 
L 152.752855 233.507338 
L 152.893355 236.507588 
L 153.01387 235.007463 
L 153.154627 235.007463 
L 153.214897 233.507338 
L 153.254898 235.007463 
L 153.275047 235.007463 
L 153.435815 239.507838 
L 153.455755 239.507838 
L 153.616624 244.008213 
L 153.656615 244.008213 
L 153.797386 247.008463 
L 153.877672 247.008463 
L 154.018155 250.008713 
L 154.058327 250.008713 
L 154.178843 251.508838 
L 154.279409 251.508838 
L 154.399822 250.008713 
L 154.440082 250.008713 
L 154.520428 248.508588 
L 154.540382 250.008713 
L 154.640958 250.008713 
L 154.801586 245.508338 
L 154.861756 245.508338 
L 154.982268 244.008213 
L 155.02244 244.008213 
L 155.163091 241.007963 
L 155.323886 241.007963 
L 155.464324 244.008213 
L 155.50474 244.008213 
L 155.625009 245.508338 
L 155.785697 245.508338 
L 155.946384 250.008713 
L 155.986553 250.008713 
L 156.127329 253.008963 
L 156.227584 253.008963 
L 156.287868 254.509088 
L 156.328129 253.008963 
L 156.508785 247.008463 
L 156.548955 247.008463 
L 156.669469 248.508588 
L 156.789984 247.008463 
L 156.830154 247.008463 
L 156.95067 248.508588 
L 157.071184 248.508588 
L 157.1917 250.008713 
L 157.332415 247.008463 
L 157.553243 247.008463 
L 157.673755 245.508338 
L 157.834444 245.508338 
L 157.975149 248.508588 
L 158.07547 248.508588 
L 158.216119 245.508338 
L 158.336715 245.508338 
L 158.457222 244.008213 
L 158.497397 244.008213 
L 158.658064 248.508588 
L 158.678042 248.508588 
L 158.818767 251.508838 
L 158.878897 251.508838 
L 158.979448 250.008713 
L 159.119929 253.008963 
L 159.140186 253.008963 
L 159.280768 256.009213 
L 159.340952 256.009213 
L 159.461527 257.509338 
L 159.622247 257.509338 
L 159.702458 259.009463 
L 159.722499 257.509338 
L 159.903419 257.509338 
L 160.0037 254.509088 
L 160.144472 256.009213 
L 160.164383 256.009213 
L 160.305132 259.009463 
L 160.365241 259.009463 
L 160.485756 257.509338 
L 160.586315 257.509338 
L 160.766956 251.508838 
L 160.827232 251.508838 
L 160.847298 253.008963 
L 160.927641 251.508838 
L 161.028145 251.508838 
L 161.148696 253.008963 
L 161.208843 253.008963 
L 161.329356 251.508838 
L 161.510246 251.508838 
L 161.731071 260.509588 
L 161.831592 260.509588 
L 161.992268 256.009213 
L 162.01227 256.009213 
L 162.172955 251.508838 
L 162.213128 251.508838 
L 162.333643 253.008963 
L 162.454155 251.508838 
L 162.594918 254.509088 
L 162.635071 254.509088 
L 162.775526 257.509338 
L 162.835884 257.509338 
L 162.976386 254.509088 
L 162.996609 254.509088 
L 163.117045 253.008963 
L 163.297757 253.008963 
L 163.418272 251.508838 
L 163.639361 256.009213 
L 163.659297 256.009213 
L 163.779811 254.509088 
L 163.860157 254.509088 
L 164.000927 257.509338 
L 164.061013 257.509338 
L 164.181528 259.009463 
L 164.221689 259.009463 
L 164.342214 257.509338 
L 164.382385 257.509338 
L 164.583477 265.009963 
L 164.663586 265.009963 
L 164.743929 266.510088 
L 164.764151 265.009963 
L 164.824273 265.009963 
L 164.944945 263.509838 
L 165.165873 268.010213 
L 165.406854 268.010213 
L 165.567601 263.509838 
L 165.64781 265.009963 
L 165.667871 263.509838 
L 165.708301 263.509838 
L 165.888972 260.509588 
L 166.029416 260.509588 
L 166.129862 259.009463 
L 166.170122 260.509588 
L 166.230275 259.009463 
L 166.250513 259.009463 
L 166.371034 260.509588 
L 166.390958 260.509588 
L 166.531626 263.509838 
L 166.612065 263.509838 
L 166.672159 262.009713 
L 166.712331 263.509838 
L 167.174453 263.509838 
L 167.515757 230.507088 
L 167.877301 167.501838 
L 168.098398 161.501338 
L 168.319183 190.003713 
L 168.359354 188.503588 
L 168.500093 185.503338 
L 168.520039 185.503338 
L 168.821393 155.500838 
L 168.94196 141.999713 
L 168.961922 144.999963 
L 169.122608 167.501838 
L 169.142826 166.001713 
L 169.765343 117.997713 
L 169.825612 120.997963 
L 169.946252 122.498088 
L 170.006369 120.997963 
L 170.026568 123.998213 
L 170.126881 131.498838 
L 170.167273 129.998713 
L 170.207223 129.998713 
L 170.38809 123.998213 
L 170.408079 123.998213 
L 170.508644 117.997713 
L 170.528589 120.997963 
L 170.689273 129.998713 
L 170.729444 128.498588 
L 170.809785 128.498588 
L 171.03086 116.497588 
L 171.050813 117.997713 
L 171.231742 129.998713 
L 171.332011 129.998713 
L 171.432579 131.498838 
L 171.713655 108.996963 
L 171.773892 111.997213 
L 172.035151 123.998213 
L 172.07516 123.998213 
L 172.276184 107.496838 
L 172.316374 111.997213 
L 172.376454 122.498088 
L 172.557337 140.499588 
L 172.59754 140.499588 
L 172.878691 157.000963 
L 172.898678 155.500838 
L 172.918904 155.500838 
L 173.059363 152.500588 
L 173.240197 158.501088 
L 173.260218 158.501088 
L 173.380733 154.000713 
L 173.400897 155.500838 
L 173.541415 158.501088 
L 173.581801 160.001213 
L 173.641961 158.501088 
L 173.661928 158.501088 
L 173.782443 160.001213 
L 173.802671 160.001213 
L 173.963206 164.501588 
L 174.023469 164.501588 
L 174.124053 166.001713 
L 174.344838 152.500588 
L 174.364971 154.000713 
L 174.405232 155.500838 
L 174.445412 152.500588 
L 174.626037 141.999713 
L 174.706578 141.999713 
L 175.007777 157.000963 
L 175.027746 157.000963 
L 175.068121 158.501088 
L 175.12824 157.000963 
L 175.409515 143.499838 
L 175.469845 143.499838 
L 175.590142 141.999713 
L 175.630313 141.999713 
L 175.771054 148.000213 
L 175.790998 146.500088 
L 176.072197 129.998713 
L 176.092406 131.498838 
L 176.232878 134.499088 
L 176.253017 134.499088 
L 176.514077 146.500088 
L 176.735128 151.000463 
L 176.895845 151.000463 
L 177.056544 146.500088 
L 177.096674 146.500088 
L 177.217149 144.999963 
L 177.317499 144.999963 
L 177.458268 146.500088 
L 177.498398 146.500088 
L 177.638867 149.500338 
L 177.699195 149.500338 
L 177.859931 154.000713 
L 178.020666 154.000713 
L 178.040576 152.500588 
L 178.081011 155.500838 
L 178.783893 178.002713 
L 178.844221 178.002713 
L 179.024917 181.002963 
L 179.044858 181.002963 
L 179.205541 185.503338 
L 179.30609 185.503338 
L 179.446567 188.503588 
L 179.486738 188.503588 
L 179.627335 191.503838 
L 180.189887 191.503838 
L 180.310358 193.003963 
L 180.49102 193.003963 
L 180.611533 194.504088 
L 181.194104 194.504088 
L 181.314662 193.003963 
L 181.595816 193.003963 
L 181.716292 194.504088 
L 181.756549 194.504088 
L 181.897013 197.504338 
L 181.917146 197.504338 
L 182.057697 200.504588 
L 182.118108 200.504588 
L 182.218383 202.004713 
L 182.318893 202.004713 
L 182.439448 203.504838 
L 182.579922 203.504838 
L 182.700439 205.004963 
L 182.820952 205.004963 
L 182.941462 206.505088 
L 183.022002 206.505088 
L 183.142321 208.005213 
L 183.162511 208.005213 
L 183.283072 209.505338 
L 183.624376 209.505338 
L 183.74489 211.005463 
L 184.467972 211.005463 
L 184.50836 212.505588 
L 184.568461 211.005463 
L 184.628658 211.005463 
L 184.749172 212.505588 
L 184.950028 212.505588 
L 185.070541 211.005463 
L 185.171122 211.005463 
L 185.271592 212.505588 
L 185.391912 212.505588 
L 185.532676 214.005713 
L 185.934388 214.005713 
L 186.054742 212.505588 
L 186.114997 212.505588 
L 186.23551 214.005713 
L 186.657442 214.005713 
L 186.757733 215.505838 
L 186.858271 215.505838 
L 186.998763 218.506088 
L 187.079104 218.506088 
L 187.219776 221.506338 
L 187.279964 221.506338 
L 187.440651 226.006713 
L 187.520993 226.006713 
L 187.661677 227.506838 
L 187.902756 227.506838 
L 188.043216 230.507088 
L 188.063391 230.507088 
L 188.203904 233.507338 
L 188.244076 233.507338 
L 188.364589 236.507588 
L 188.384812 235.007463 
L 188.465089 236.507588 
L 188.605618 239.507838 
L 188.786517 239.507838 
L 188.907082 241.007963 
L 189.148081 241.007963 
L 189.268604 242.508088 
L 190.11218 242.508088 
L 190.232598 244.008213 
L 190.493674 244.008213 
L 190.614186 242.508088 
L 191.096245 242.508088 
L 191.21676 241.007963 
L 192.10079 241.007963 
L 192.221042 239.507838 
L 192.863783 239.507838 
L 193.004536 236.507588 
L 193.104812 236.507588 
L 193.225567 238.007713 
L 193.587079 238.007713 
L 193.727625 236.507588 
L 194.149268 236.507588 
L 194.269783 238.007713 
L 194.430469 238.007713 
L 194.550982 239.507838 
L 194.651558 239.507838 
L 194.771951 241.007963 
L 195.013023 241.007963 
L 195.173714 236.507588 
L 195.314236 236.507588 
L 195.434754 238.007713 
L 195.575478 238.007713 
L 195.696011 236.507588 
L 195.816514 236.507588 
L 195.93698 238.007713 
L 195.95698 238.007713 
L 196.097678 241.007963 
L 196.238421 241.007963 
L 196.378923 242.508088 
L 196.599722 242.508088 
L 196.780663 245.508338 
L 197.001694 245.508338 
L 197.182358 242.508088 
L 197.242464 242.508088 
L 197.362979 244.008213 
L 197.664426 244.008213 
L 197.764896 245.508338 
L 197.925378 245.508338 
L 198.045892 247.008463 
L 198.768978 247.008463 
L 198.889492 245.508338 
L 199.030273 245.508338 
L 199.150791 244.008213 
L 199.592639 244.008213 
L 199.713054 242.508088 
L 199.753314 242.508088 
L 199.873833 241.007963 
L 200.456175 241.007963 
L 200.57669 239.507838 
L 200.737375 239.507838 
L 200.857891 241.007963 
L 201.119155 241.007963 
L 201.239587 242.508088 
L 201.380116 242.508088 
L 201.500631 241.007963 
L 201.540803 241.007963 
L 201.68158 239.507838 
L 201.982687 239.507838 
L 202.103201 238.007713 
L 202.163622 238.007713 
L 202.284123 236.507588 
L 202.304057 236.507588 
L 202.444779 235.007463 
L 202.525184 235.007463 
L 202.665601 232.007213 
L 202.786115 232.007213 
L 202.906627 230.507088 
L 203.208112 230.507088 
L 203.328555 229.006963 
L 203.408911 229.006963 
L 203.54937 226.006713 
L 203.569593 226.006713 
L 203.710054 223.006463 
L 203.830794 224.506588 
L 203.870738 224.506588 
L 203.991255 223.006463 
L 204.051657 223.006463 
L 204.192111 220.006213 
L 204.332876 218.506088 
L 204.373055 218.506088 
L 204.513481 215.505838 
L 204.694388 215.505838 
L 204.834851 218.506088 
L 204.995529 218.506088 
L 205.17644 212.505588 
L 205.196392 212.505588 
L 205.357325 208.005213 
L 205.598105 208.005213 
L 205.758789 203.504838 
L 205.778926 203.504838 
L 205.879304 202.004713 
L 205.999819 203.504838 
L 206.18069 197.504338 
L 206.261077 197.504338 
L 206.381587 200.504588 
L 206.522045 197.504338 
L 206.562216 197.504338 
L 206.68273 196.004213 
L 206.722901 196.004213 
L 206.903698 190.003713 
L 206.923758 190.003713 
L 207.08444 185.503338 
L 207.104677 185.503338 
L 207.245365 182.503088 
L 207.285295 182.503088 
L 207.385872 185.503338 
L 207.405809 184.003213 
L 207.506308 184.003213 
L 207.687009 178.002713 
L 207.707226 178.002713 
L 207.887865 169.001963 
L 207.908107 170.502088 
L 207.928034 170.502088 
L 208.068731 173.502338 
L 208.10894 173.502338 
L 208.229461 172.002213 
L 208.309842 172.002213 
L 208.410091 157.000963 
L 208.791737 116.497588 
L 208.811797 116.497588 
L 208.872201 114.997463 
L 208.892138 116.497588 
L 209.012654 123.998213 
L 209.052825 122.498088 
L 209.092995 117.997713 
L 209.153241 122.498088 
L 209.193501 123.998213 
L 209.233741 122.498088 
L 209.534875 92.495588 
L 209.65539 84.994963 
L 209.695558 87.995213 
L 209.775901 90.995463 
L 209.796164 87.995213 
L 209.896584 80.494588 
L 209.936586 83.494838 
L 210.31827 148.000213 
L 210.39871 137.499338 
L 210.599587 107.496838 
L 210.679774 110.497088 
L 210.720035 110.497088 
L 210.780176 104.496588 
L 210.840588 107.496838 
L 210.96106 107.496838 
L 211.041278 95.495838 
L 211.202132 72.993963 
L 211.222058 74.494088 
L 211.46308 93.995713 
L 211.663939 101.496338 
L 211.804546 101.496338 
L 211.965359 105.996713 
L 212.065646 104.496588 
L 212.547688 134.499088 
L 212.567818 132.998963 
L 212.62804 135.999213 
L 212.688412 135.999213 
L 212.869066 141.999713 
L 212.929322 141.999713 
L 213.029752 144.999963 
L 213.049959 143.499838 
L 213.090185 143.499838 
L 213.250812 138.999463 
L 213.27105 138.999463 
L 213.391291 137.499338 
L 213.572226 143.499838 
L 213.592148 143.499838 
L 213.71266 141.999713 
L 213.752831 141.999713 
L 213.933764 148.000213 
L 213.953684 148.000213 
L 214.094359 151.000463 
L 214.194712 151.000463 
L 214.335461 154.000713 
L 214.556252 154.000713 
L 214.696993 157.000963 
L 214.938013 157.000963 
L 215.0585 158.501088 
L 215.159025 158.501088 
L 215.339767 161.501338 
L 215.399847 161.501338 
L 215.520359 163.001463 
L 215.661139 166.001713 
L 215.681044 164.501588 
L 215.761386 166.001713 
L 215.922297 170.502088 
L 216.042583 170.502088 
L 216.163097 172.002213 
L 216.263638 172.002213 
L 216.384169 173.502338 
L 216.404125 173.502338 
L 216.524636 175.002463 
L 216.564807 175.002463 
L 216.685554 176.502588 
L 216.745674 176.502588 
L 216.866275 178.002713 
L 217.047119 178.002713 
L 217.187589 179.502838 
L 217.468684 179.502838 
L 217.589352 178.002713 
L 217.609258 178.002713 
L 217.70986 179.502838 
L 217.810316 178.002713 
L 217.970798 178.002713 
L 218.111551 181.002963 
L 218.131485 181.002963 
L 218.251995 182.503088 
L 218.392739 179.502838 
L 219.015249 179.502838 
L 219.135761 181.002963 
L 219.457132 181.002963 
L 219.577647 179.502838 
L 219.657987 179.502838 
L 219.798753 176.502588 
L 220.180214 176.502588 
L 220.320909 173.502338 
L 220.421239 175.002463 
L 220.581925 175.002463 
L 220.702438 176.502588 
L 220.762863 176.502588 
L 220.883265 178.002713 
L 221.003892 178.002713 
L 221.144323 181.002963 
L 221.244769 181.002963 
L 221.365399 179.502838 
L 221.405523 179.502838 
L 221.526099 181.002963 
L 221.546033 181.002963 
L 221.686787 184.003213 
L 221.847476 184.003213 
L 222.008039 188.503588 
L 222.028086 188.503588 
L 222.188772 193.003963 
L 222.289332 193.003963 
L 222.450036 197.504338 
L 223.152881 197.504338 
L 223.273396 196.004213 
L 223.313565 196.004213 
L 223.434078 194.504088 
L 223.735486 194.504088 
L 223.83579 193.003963 
L 223.956304 193.003963 
L 224.116989 188.503588 
L 224.15716 188.503588 
L 224.277675 187.003463 
L 224.338057 187.003463 
L 224.458494 185.503338 
L 224.558871 185.503338 
L 224.679387 184.003213 
L 224.799899 184.003213 
L 224.920413 185.503338 
L 225.322125 185.503338 
L 225.442639 187.003463 
L 225.643493 187.003463 
L 225.723835 185.503338 
L 225.904735 188.503588 
L 226.025193 187.003463 
L 226.085376 187.003463 
L 226.20589 188.503588 
L 226.406746 188.503588 
L 226.446917 187.003463 
L 226.487089 188.503588 
L 226.647775 188.503588 
L 226.76829 190.003713 
L 226.808457 190.003713 
L 226.908898 188.503588 
L 227.049488 191.503838 
L 227.250555 191.503838 
L 227.431274 194.504088 
L 227.591929 194.504088 
L 227.712427 193.003963 
L 227.893083 193.003963 
L 228.013787 194.504088 
L 228.093939 194.504088 
L 228.23468 197.504338 
L 228.254623 197.504338 
L 228.415305 202.004713 
L 228.475641 202.004713 
L 228.636392 197.504338 
L 228.8372 197.504338 
L 228.977705 200.504588 
L 229.098219 199.004463 
L 229.118426 199.004463 
L 229.299076 205.004963 
L 229.379417 205.004963 
L 229.499931 206.505088 
L 229.56021 206.505088 
L 229.700788 203.504838 
L 229.961973 203.504838 
L 230.122735 199.004463 
L 230.223014 199.004463 
L 230.303347 200.504588 
L 230.323477 199.004463 
L 230.423869 199.004463 
L 230.544384 200.504588 
L 230.604792 200.504588 
L 230.644932 199.004463 
L 230.705068 200.504588 
L 230.80568 200.504588 
L 230.946096 197.504338 
L 231.06661 197.504338 
L 231.086745 199.004463 
L 231.167196 197.504338 
L 231.187122 197.504338 
L 231.347809 202.004713 
L 231.48851 202.004713 
L 231.568901 203.504838 
L 231.588835 202.004713 
L 231.689417 202.004713 
L 231.910207 211.005463 
L 231.950377 211.005463 
L 232.091087 214.005713 
L 232.271746 214.005713 
L 232.412473 211.005463 
L 232.512777 211.005463 
L 232.673463 215.505838 
L 232.774028 215.505838 
L 232.894556 214.005713 
L 232.914489 214.005713 
L 233.095426 211.005463 
L 233.135579 211.005463 
L 233.215911 212.505588 
L 233.235859 211.005463 
L 233.27603 211.005463 
L 233.416795 208.005213 
L 233.557228 211.005463 
L 233.5974 211.005463 
L 233.758085 215.505838 
L 233.979192 215.505838 
L 234.139826 220.006213 
L 234.220231 220.006213 
L 234.340739 221.506338 
L 234.441219 220.006213 
L 234.581696 220.006213 
L 234.722199 217.005963 
L 234.862835 220.006213 
L 235.103979 220.006213 
L 235.244426 223.006463 
L 235.264601 223.006463 
L 235.40511 226.006713 
L 235.425342 226.006713 
L 235.565981 229.006963 
L 235.706529 227.506838 
L 235.867245 227.506838 
L 236.047852 221.506338 
L 236.088021 221.506338 
L 236.208536 224.506588 
L 236.329288 221.506338 
L 236.570078 221.506338 
L 236.69059 220.006213 
L 236.770934 220.006213 
L 236.931622 224.506588 
L 237.072355 224.506588 
L 237.212817 227.506838 
L 237.373504 227.506838 
L 237.413675 226.006713 
L 237.453847 227.506838 
L 237.514149 227.506838 
L 237.634695 229.006963 
L 237.755316 229.006963 
L 237.875654 230.507088 
L 237.976074 230.507088 
L 238.116839 233.507338 
L 238.17693 233.507338 
L 238.217331 235.007463 
L 238.277419 233.507338 
L 238.337617 233.507338 
L 238.43816 235.007463 
L 238.558697 233.507338 
L 238.578645 233.507338 
L 238.7194 232.007213 
L 238.799705 232.007213 
L 238.859844 233.507338 
L 238.900016 232.007213 
L 239.080924 226.006713 
L 239.221387 226.006713 
L 239.382061 221.506338 
L 239.462415 221.506338 
L 239.603139 218.506088 
L 239.683481 218.506088 
L 240.024812 185.503338 
L 240.205722 169.001963 
L 240.245906 169.001963 
L 240.747892 138.999463 
L 240.788062 138.999463 
L 240.948746 143.499838 
L 241.109429 132.998963 
L 241.1496 135.999213 
L 241.169805 135.999213 
L 241.210004 137.499338 
L 241.229942 135.999213 
L 241.591482 92.495588 
L 241.651742 93.995713 
L 241.752166 95.495838 
L 241.912848 89.495338 
L 241.993396 83.494838 
L 242.033365 84.994963 
L 242.153875 98.496088 
L 242.214191 95.495838 
L 242.354729 90.995463 
L 242.575813 107.496838 
L 242.595755 107.496838 
L 242.957296 72.993963 
L 243.01771 80.494588 
L 243.118196 89.495338 
L 243.178284 87.995213 
L 243.318833 84.994963 
L 243.419412 87.995213 
L 243.439343 86.495088 
L 243.720543 72.993963 
L 243.760711 72.993963 
L 243.941553 78.994463 
L 243.961568 78.994463 
L 244.001737 77.494338 
L 244.04191 78.994463 
L 244.142491 78.994463 
L 244.323106 84.994963 
L 244.363276 84.994963 
L 244.443618 83.494838 
L 244.503936 87.995213 
L 244.523958 87.995213 
L 244.64447 90.995463 
L 245.186935 93.995713 
L 245.528234 72.993963 
L 245.58861 77.494338 
L 245.648747 74.494088 
L 245.829658 56.492588 
L 245.869806 63.993213 
L 246.030464 81.994713 
L 246.050457 80.494588 
L 246.231366 86.495088 
L 246.351841 80.494588 
L 246.371824 83.494838 
L 246.391991 83.494838 
L 246.432146 84.994963 
L 246.452314 83.494838 
L 246.894044 38.491088 
L 246.934213 39.991213 
L 246.954441 39.991213 
L 246.974387 38.491088 
L 247.034708 39.991213 
L 247.175238 44.491588 
L 247.335924 36.990963 
L 248.099166 89.495338 
L 248.119395 87.995213 
L 248.139338 87.995213 
L 248.320248 78.994463 
L 248.340443 80.494588 
L 248.420537 80.494588 
L 248.541051 71.493838 
L 248.561184 72.993963 
L 248.661562 74.494088 
L 248.701733 71.493838 
L 248.762021 74.494088 
L 248.902587 77.494338 
L 248.922825 77.494338 
L 249.123526 69.993713 
L 249.163787 69.993713 
L 249.364683 77.494338 
L 249.424809 77.494338 
L 250.328785 137.499338 
L 250.348742 137.499338 
L 250.509428 141.999713 
L 250.529605 141.999713 
L 250.690322 146.500088 
L 250.710282 146.500088 
L 252.718838 164.501588 
L 252.85956 167.501838 
L 252.960031 167.501838 
L 253.100601 169.001963 
L 253.321405 169.001963 
L 253.462154 170.502088 
L 253.58256 169.001963 
L 253.602797 169.001963 
L 253.723304 172.002213 
L 253.763286 172.002213 
L 253.884034 170.502088 
L 253.923968 170.502088 
L 254.064665 173.502338 
L 254.084654 173.502338 
L 254.386085 181.002963 
L 254.446196 181.002963 
L 254.627091 184.003213 
L 254.747589 184.003213 
L 254.888076 187.003463 
L 254.928247 187.003463 
L 255.068967 184.003213 
L 255.109065 184.003213 
L 255.209445 182.503088 
L 255.249856 182.503088 
L 255.269723 184.003213 
L 255.510862 185.503338 
L 255.631387 184.003213 
L 255.671509 184.003213 
L 255.6915 185.503338 
L 255.832232 185.503338 
L 255.95273 184.003213 
L 256.033086 184.003213 
L 256.173559 187.003463 
L 256.253898 187.003463 
L 256.394588 190.003713 
L 256.414584 190.003713 
L 256.555253 193.003963 
L 256.695782 193.003963 
L 256.816298 191.503838 
L 256.896629 191.503838 
L 257.017154 193.003963 
L 257.418861 193.003963 
L 257.559579 196.004213 
L 257.900916 196.004213 
L 258.041531 193.003963 
L 258.222287 193.003963 
L 258.3428 194.504088 
L 258.363001 194.504088 
L 258.503485 191.503838 
L 258.744511 191.503838 
L 258.925373 188.503588 
L 258.945369 188.503588 
L 259.065882 187.003463 
L 259.166306 188.503588 
L 259.306909 185.503338 
L 259.447636 185.503338 
L 259.588107 179.502838 
L 259.608293 181.002963 
L 259.728857 181.002963 
L 259.869304 184.003213 
L 259.969836 184.003213 
L 260.110334 181.002963 
L 260.271231 181.002963 
L 260.411776 182.503088 
L 260.532271 182.503088 
L 260.632558 184.003213 
L 260.672952 184.003213 
L 260.813428 187.003463 
L 261.074444 187.003463 
L 261.215153 184.003213 
L 261.255375 184.003213 
L 261.355639 185.503338 
L 261.476155 184.003213 
L 261.556498 184.003213 
L 261.6972 187.003463 
L 261.757354 187.003463 
L 261.857883 185.503338 
L 261.978407 187.003463 
L 261.99838 187.003463 
L 262.118895 188.503588 
L 262.139093 188.503588 
L 262.25964 187.003463 
L 262.400095 187.003463 
L 262.520605 188.503588 
L 262.600949 188.503588 
L 262.721464 190.003713 
L 262.882151 190.003713 
L 263.002664 188.503588 
L 263.504932 188.503588 
L 263.645399 185.503338 
L 263.806085 185.503338 
L 263.9266 187.003463 
L 263.986986 187.003463 
L 264.006941 188.503588 
L 264.087285 187.003463 
L 264.468942 187.003463 
L 264.589513 185.503338 
L 264.649683 185.503338 
L 264.770197 184.003213 
L 265.252251 184.003213 
L 265.372764 182.503088 
L 265.453107 182.503088 
L 265.573819 184.003213 
L 266.035692 184.003213 
L 266.156214 182.503088 
L 266.236581 182.503088 
L 266.377045 185.503338 
L 266.417213 185.503338 
L 266.537728 184.003213 
L 266.718491 184.003213 
L 266.738585 185.503338 
L 266.818926 184.003213 
L 266.879321 184.003213 
L 266.959647 185.503338 
L 266.97961 184.003213 
L 267.300981 184.003213 
L 267.421492 185.503338 
L 267.562245 187.003463 
L 267.70269 187.003463 
L 267.823354 188.503588 
L 267.863375 188.503588 
L 267.983892 190.003713 
L 268.144574 190.003713 
L 268.245029 191.503838 
L 268.385601 188.503588 
L 268.566489 188.503588 
L 268.687012 190.003713 
L 268.767365 190.003713 
L 268.887835 191.503838 
L 268.928027 191.503838 
L 269.048558 193.003963 
L 269.410064 193.003963 
L 269.530587 191.503838 
L 269.711416 191.503838 
L 269.851983 190.003713 
L 269.912106 190.003713 
L 270.032619 191.503838 
L 270.133074 191.503838 
L 270.233477 193.003963 
L 270.353989 191.503838 
L 270.575072 191.503838 
L 270.695556 193.003963 
L 270.775946 193.003963 
L 270.916386 196.004213 
L 271.097275 196.004213 
L 271.177625 197.504338 
L 271.197584 196.004213 
L 271.418697 196.004213 
L 271.53913 194.504088 
L 271.80015 194.504088 
L 271.960837 188.503588 
L 272.021118 188.503588 
L 272.08135 187.003463 
L 272.12152 188.503588 
L 272.402721 188.503588 
L 272.543485 191.503838 
L 272.683919 191.503838 
L 272.804435 193.003963 
L 272.90498 193.003963 
L 272.965119 191.503838 
L 273.005289 193.003963 
L 273.266513 193.003963 
L 273.38704 191.503838 
L 273.788768 191.503838 
L 273.909167 190.003713 
L 274.110135 190.003713 
L 274.250811 193.003963 
L 274.351135 193.003963 
L 274.471665 194.504088 
L 274.91357 194.504088 
L 275.033941 193.003963 
L 275.315242 193.003963 
L 275.435707 191.503838 
L 276.03833 191.503838 
L 276.138837 190.003713 
L 276.500186 190.003713 
L 276.64094 188.503588 
L 277.223267 188.503588 
L 277.34378 187.003463 
L 277.424122 187.003463 
L 277.564883 190.003713 
L 277.665362 190.003713 
L 277.785661 191.503838 
L 277.805917 191.503838 
L 277.946343 194.504088 
L 278.006764 194.504088 
L 278.127259 196.004213 
L 278.488731 196.004213 
L 278.629258 199.004463 
L 278.669429 199.004463 
L 278.790112 200.504588 
L 278.970831 200.504588 
L 279.091391 199.004463 
L 279.332382 199.004463 
L 279.452887 200.504588 
L 279.734112 200.504588 
L 279.854635 199.004463 
L 279.874564 199.004463 
L 279.995078 197.504338 
L 280.015246 197.504338 
L 280.155759 194.504088 
L 280.216166 194.504088 
L 280.356618 191.503838 
L 280.376829 191.503838 
L 280.517302 188.503588 
L 280.557474 188.503588 
L 280.698073 185.503338 
L 281.099838 185.503338 
L 281.220443 184.003213 
L 281.260606 184.003213 
L 281.381089 185.503338 
L 281.76261 185.503338 
L 281.923299 181.002963 
L 281.963469 181.002963 
L 282.164325 173.502338 
L 282.20473 173.502338 
L 282.345169 170.502088 
L 282.525864 170.502088 
L 282.62638 172.002213 
L 282.746956 170.502088 
L 282.807063 170.502088 
L 282.92781 169.001963 
L 283.128435 169.001963 
L 283.248947 170.502088 
L 283.570316 170.502088 
L 283.691053 167.501838 
L 283.731 167.501838 
L 283.851515 166.001713 
L 283.871726 166.001713 
L 284.333569 138.999463 
L 284.353778 138.999463 
L 284.514427 134.499088 
L 284.554609 134.499088 
L 284.895963 116.497588 
L 284.916192 116.497588 
L 285.217578 131.498838 
L 285.277698 131.498838 
L 285.458361 125.498338 
L 285.579128 125.498338 
L 285.920467 116.497588 
L 286.000709 116.497588 
L 286.663489 158.501088 
L 286.784004 158.501088 
L 286.92476 161.501338 
L 286.984861 161.501338 
L 287.145547 166.001713 
L 287.185716 166.001713 
L 287.38657 173.502338 
L 287.406792 173.502338 
L 287.547255 176.502588 
L 287.748113 176.502588 
L 287.868625 178.002713 
L 287.908796 178.002713 
L 288.029311 179.502838 
L 288.149823 178.002713 
L 288.270337 178.002713 
L 288.39085 179.502838 
L 288.752394 179.502838 
L 288.872906 181.002963 
L 289.013528 182.503088 
L 289.134135 182.503088 
L 289.254602 184.003213 
L 289.395129 184.003213 
L 289.515645 185.503338 
L 290.540063 185.503338 
L 290.680602 188.503588 
L 290.941801 188.503588 
L 291.062351 190.003713 
L 291.102512 190.003713 
L 291.223013 191.503838 
L 291.343509 191.503838 
L 291.464 193.003963 
L 291.845562 193.003963 
L 291.966075 194.504088 
L 292.106791 194.504088 
L 292.247275 197.504338 
L 292.367982 197.504338 
L 292.428101 196.004213 
L 292.468361 197.504338 
L 292.648988 197.504338 
L 292.72933 199.004463 
L 292.870086 197.504338 
L 292.970359 197.504338 
L 293.090872 199.004463 
L 293.613095 199.004463 
L 293.733609 200.504588 
L 293.874351 200.504588 
L 293.994877 202.004713 
L 294.095151 202.004713 
L 294.215667 203.504838 
L 294.717908 203.504838 
L 294.878562 199.004463 
L 294.938747 199.004463 
L 294.999084 197.504338 
L 295.019322 199.004463 
L 295.119655 199.004463 
L 295.260119 202.004713 
L 295.340462 202.004713 
L 295.481178 205.004963 
L 295.62166 202.004713 
L 295.641901 202.004713 
L 295.802424 208.005213 
L 295.822515 206.505088 
L 295.902859 208.005213 
L 295.94303 208.005213 
L 296.063545 209.505338 
L 296.143888 209.505338 
L 296.244446 211.005463 
L 296.304574 209.505338 
L 296.344745 211.005463 
L 296.384917 211.005463 
L 296.505432 214.005713 
L 296.78663 214.005713 
L 296.907384 212.505588 
L 297.088053 209.505338 
L 297.509717 209.505338 
L 297.65042 212.505588 
L 297.770995 211.005463 
L 297.931638 211.005463 
L 298.031944 209.505338 
L 298.252996 214.005713 
L 298.514001 214.005713 
L 298.654708 217.005963 
L 298.674683 217.005963 
L 298.795412 215.505838 
L 298.875542 215.505838 
L 298.935905 217.005963 
L 298.976103 215.505838 
L 299.0764 215.505838 
L 299.21702 212.505588 
L 299.317424 212.505588 
L 299.437941 214.005713 
L 299.598625 214.005713 
L 299.739387 212.505588 
L 299.779551 212.505588 
L 299.879825 211.005463 
L 300.060749 217.005963 
L 300.221432 217.005963 
L 300.341794 218.506088 
L 300.542783 218.506088 
L 300.683477 221.506338 
L 300.823999 223.006463 
L 301.044792 223.006463 
L 301.225647 226.006713 
L 301.265876 226.006713 
L 301.406333 229.006963 
L 301.667575 229.006963 
L 301.808045 226.006713 
L 301.84842 226.006713 
L 301.988982 223.006463 
L 302.149578 223.006463 
L 302.249932 226.006713 
L 302.270097 224.506588 
L 302.310325 224.506588 
L 302.450786 227.506838 
L 302.571299 227.506838 
L 302.712039 226.006713 
L 302.792325 226.006713 
L 302.912845 227.506838 
L 303.053354 227.506838 
L 303.173869 226.006713 
L 303.374724 226.006713 
L 303.515459 229.006963 
L 303.615751 229.006963 
L 303.756373 227.506838 
L 303.876996 227.506838 
L 303.997528 226.006713 
L 304.439327 226.006713 
L 304.579859 223.006463 
L 304.700549 223.006463 
L 304.84111 226.006713 
L 304.921376 226.006713 
L 304.941401 227.506838 
L 305.021744 226.006713 
L 305.182428 226.006713 
L 305.343112 230.507088 
L 305.363327 230.507088 
L 305.483815 232.007213 
L 305.5038 232.007213 
L 305.664483 236.507588 
L 305.704653 236.507588 
L 305.82517 238.007713 
L 305.986101 238.007713 
L 306.126567 236.507588 
L 306.186715 236.507588 
L 306.307231 238.007713 
L 306.427746 236.507588 
L 306.628602 236.507588 
L 306.78929 241.007963 
L 306.869631 241.007963 
L 306.990145 242.508088 
L 307.010352 242.508088 
L 307.110659 241.007963 
L 307.271347 241.007963 
L 307.432031 236.507588 
L 307.592715 236.507588 
L 307.653098 235.007463 
L 307.69331 236.507588 
L 307.71323 236.507588 
L 307.853899 239.507838 
L 307.87407 239.507838 
L 308.014685 241.007963 
L 308.034602 241.007963 
L 308.195289 245.508338 
L 308.23546 245.508338 
L 308.376218 244.008213 
L 308.436317 244.008213 
L 308.637401 236.507588 
L 308.717517 236.507588 
L 308.858251 239.507838 
L 308.898438 239.507838 
L 308.998718 238.007713 
L 309.320088 238.007713 
L 309.420509 236.507588 
L 309.541145 238.007713 
L 309.641461 238.007713 
L 309.681633 236.507588 
L 309.742001 238.007713 
L 310.043175 238.007713 
L 310.123519 236.507588 
L 310.284205 239.507838 
L 310.404718 238.007713 
L 310.766262 238.007713 
L 310.886776 239.507838 
L 311.067578 236.507588 
L 311.368832 236.507588 
L 311.489346 235.007463 
L 311.750586 235.007463 
L 311.971405 226.006713 
L 312.011577 226.006713 
L 312.152289 223.006463 
L 312.192405 223.006463 
L 312.312962 221.506338 
L 312.393295 221.506338 
L 312.533803 218.506088 
L 312.553993 218.506088 
L 312.614147 217.005963 
L 312.654319 218.506088 
L 312.734661 218.506088 
L 312.875364 215.505838 
L 312.935518 215.505838 
L 313.116431 209.505338 
L 313.176733 209.505338 
L 313.799342 184.003213 
L 314.140639 146.500088 
L 314.201038 146.500088 
L 314.301565 149.500338 
L 314.401888 141.999713 
L 314.462006 137.499338 
L 314.502346 140.499588 
L 314.582519 144.999963 
L 314.622692 141.999713 
L 314.803559 110.497088 
L 314.8839 119.497838 
L 314.964242 120.997963 
L 314.984231 119.497838 
L 315.225255 99.996213 
L 315.486402 84.994963 
L 315.506452 86.495088 
L 315.526635 86.495088 
L 315.747478 77.494338 
L 315.767683 77.494338 
L 315.828032 78.994463 
L 315.867994 77.494338 
L 315.888167 77.494338 
L 316.089033 90.995463 
L 316.129216 89.495338 
L 316.28984 83.494838 
L 316.450597 96.995963 
L 316.470554 95.495838 
L 316.530912 93.995713 
L 316.550895 95.495838 
L 316.832092 102.996463 
L 316.952768 93.995713 
L 317.012942 96.995963 
L 317.053152 96.995963 
L 317.133514 99.996213 
L 317.153462 96.995963 
L 317.37445 78.994463 
L 317.394489 78.994463 
L 317.535203 86.495088 
L 317.575375 84.994963 
L 317.756028 72.993963 
L 317.7962 72.993963 
L 317.856547 75.994213 
L 317.91671 74.494088 
L 317.936867 74.494088 
L 318.017291 77.494338 
L 318.037225 75.994213 
L 318.13772 65.493338 
L 318.19791 71.493838 
L 318.238081 72.993963 
L 318.27825 69.993713 
L 318.298472 69.993713 
L 318.358592 68.493588 
L 318.378812 71.493838 
L 318.519277 84.994963 
L 318.579669 78.994463 
L 318.800474 56.492588 
L 319.021546 68.493588 
L 319.041499 66.993463 
L 319.101893 66.993463 
L 319.18222 60.992963 
L 319.202395 62.493088 
L 319.282526 68.493588 
L 319.322695 65.493338 
L 319.362867 60.992963 
L 319.443208 63.993213 
L 319.503522 63.993213 
L 319.563721 59.492838 
L 319.604087 62.493088 
L 319.885087 89.495338 
L 320.146316 101.496338 
L 320.186523 101.496338 
L 320.327183 98.496088 
L 320.588218 104.496588 
L 320.608167 104.496588 
L 320.748782 107.496838 
L 320.768852 107.496838 
L 320.909566 111.997213 
L 320.98988 110.497088 
L 321.009879 111.997213 
L 321.05005 111.997213 
L 321.090445 110.497088 
L 321.150549 111.997213 
L 321.572272 135.999213 
L 321.592444 135.999213 
L 321.753156 140.499588 
L 321.793352 140.499588 
L 322.074474 154.000713 
L 322.174839 154.000713 
L 322.355736 148.000213 
L 322.415867 148.000213 
L 322.998337 184.003213 
L 323.038598 184.003213 
L 323.179119 187.003463 
L 323.23954 187.003463 
L 323.379972 190.003713 
L 323.420146 190.003713 
L 323.440363 188.503588 
L 323.500489 190.003713 
L 323.621002 191.503838 
L 323.681335 191.503838 
L 323.701345 193.003963 
L 323.781688 191.503838 
L 323.982543 191.503838 
L 324.103251 193.003963 
L 324.404441 193.003963 
L 324.544942 196.004213 
L 324.565139 196.004213 
L 324.685659 197.504338 
L 324.86644 197.504338 
L 324.966814 199.004463 
L 325.06717 197.504338 
L 325.187681 199.004463 
L 325.227854 199.004463 
L 325.368588 200.504588 
L 325.388539 200.504588 
L 325.52926 203.504838 
L 325.649654 202.004713 
L 325.950933 202.004713 
L 326.071447 203.504838 
L 326.252349 203.504838 
L 326.352644 205.004963 
L 326.47316 205.004963 
L 326.593672 203.504838 
L 326.613895 203.504838 
L 326.734379 206.505088 
L 326.834697 206.505088 
L 326.975424 209.505338 
L 327.196237 209.505338 
L 327.316755 211.005463 
L 327.49768 211.005463 
L 327.658329 215.505838 
L 327.818997 215.505838 
L 327.959489 212.505588 
L 328.039833 212.505588 
L 328.160346 214.005713 
L 328.200516 214.005713 
L 328.32103 212.505588 
L 328.361203 212.505588 
L 328.481714 211.005463 
L 328.501919 212.505588 
L 328.582281 211.005463 
L 328.88343 211.005463 
L 329.003941 209.505338 
L 329.144621 211.005463 
L 329.365485 211.005463 
L 329.485997 212.505588 
L 329.686853 212.505588 
L 329.807365 211.005463 
L 330.329595 211.005463 
L 330.490279 215.505838 
L 330.530655 215.505838 
L 330.791695 221.506338 
L 330.811651 220.006213 
L 330.891994 221.506338 
L 330.95227 223.006463 
L 330.99253 221.506338 
L 331.052677 221.506338 
L 331.17319 223.006463 
L 331.333878 223.006463 
L 331.474597 226.006713 
L 331.534733 226.006713 
L 331.655249 229.006963 
L 331.69541 229.006963 
L 331.815934 230.507088 
L 332.157506 230.507088 
L 332.278042 232.007213 
L 332.378331 230.507088 
L 332.579189 230.507088 
L 332.719882 233.507338 
L 332.900561 233.507338 
L 333.021076 235.007463 
L 333.101418 235.007463 
L 333.181915 236.507588 
L 333.443039 230.507088 
L 333.483138 230.507088 
L 333.623644 233.507338 
L 333.864672 233.507338 
L 333.985189 235.007463 
L 334.005349 235.007463 
L 334.125903 233.507338 
L 334.166113 235.007463 
L 334.226215 233.507338 
L 334.246426 233.507338 
L 334.366854 232.007213 
L 334.547586 232.007213 
L 334.668103 233.507338 
L 334.76862 233.507338 
L 334.88913 235.007463 
L 334.90913 235.007463 
L 334.929343 236.507588 
L 335.009715 235.007463 
L 335.029643 235.007463 
L 335.130126 232.007213 
L 335.150157 233.507338 
L 335.310841 233.507338 
L 335.431355 236.507588 
L 335.49163 236.507588 
L 335.612284 238.007713 
L 335.652442 238.007713 
L 335.692571 239.507838 
L 335.752728 238.007713 
L 335.833256 238.007713 
L 335.9738 236.507588 
L 336.174678 236.507588 
L 336.315129 239.507838 
L 336.335379 239.507838 
L 336.455844 241.007963 
L 336.556157 241.007963 
L 336.676671 242.508088 
L 336.716842 242.508088 
L 336.837359 241.007963 
L 336.9177 241.007963 
L 337.058419 238.007713 
L 337.198902 238.007713 
L 337.319414 239.507838 
L 337.460114 241.007963 
L 337.58062 238.007713 
L 337.701109 239.507838 
L 337.721353 239.507838 
L 337.861843 241.007963 
L 338.163015 241.007963 
L 338.283528 239.507838 
L 338.303743 239.507838 
L 338.424282 238.007713 
L 338.56473 241.007963 
L 338.584894 241.007963 
L 338.705462 242.508088 
L 338.785782 242.508088 
L 338.926273 239.507838 
L 339.026871 239.507838 
L 339.227688 247.008463 
L 339.287817 247.008463 
L 339.408329 248.508588 
L 339.528844 248.508588 
L 339.68953 253.008963 
L 339.749916 253.008963 
L 339.850215 254.509088 
L 339.970728 251.508838 
L 340.051071 251.508838 
L 340.171586 253.008963 
L 340.6738 253.008963 
L 340.794261 254.509088 
L 340.874684 254.509088 
L 340.995179 256.009213 
L 341.115665 254.509088 
L 341.135904 254.509088 
L 341.276416 256.009213 
L 341.296385 256.009213 
L 341.437093 253.008963 
L 341.477293 253.008963 
L 341.617759 250.008713 
L 341.678139 250.008713 
L 341.798704 251.508838 
L 341.939129 251.508838 
L 342.059644 253.008963 
L 342.240528 253.008963 
L 342.340844 251.508838 
L 342.461359 254.509088 
L 342.762755 254.509088 
L 342.923426 259.009463 
L 343.084068 259.009463 
L 343.204646 257.509338 
L 343.264785 257.509338 
L 343.445574 262.009713 
L 343.586159 259.009463 
L 343.78723 259.009463 
L 343.967893 256.009213 
L 344.088426 256.009213 
L 344.148556 257.509338 
L 344.188911 256.009213 
L 344.349414 256.009213 
L 344.490128 253.008963 
L 344.510102 253.008963 
L 344.630615 254.509088 
L 344.650745 254.509088 
L 344.811485 259.009463 
L 344.911816 259.009463 
L 345.072501 256.009213 
L 345.213223 259.009463 
L 345.313694 259.009463 
L 345.434043 257.509338 
L 345.675289 257.509338 
L 345.815838 256.009213 
L 346.016655 256.009213 
L 346.177298 251.508838 
L 346.398158 251.508838 
L 346.538851 254.509088 
L 346.57902 254.509088 
L 346.699486 256.009213 
L 346.900365 256.009213 
L 347.0409 253.008963 
L 347.322099 253.008963 
L 347.402443 251.508838 
L 347.422644 253.008963 
L 347.703777 253.008963 
L 347.824325 251.508838 
L 347.844327 251.508838 
L 348.005012 247.008463 
L 348.025194 247.008463 
L 348.165698 244.008213 
L 348.246042 244.008213 
L 348.446896 236.507588 
L 348.507265 236.507588 
L 348.728344 227.506838 
L 348.748202 227.506838 
L 348.989363 217.005963 
L 349.009299 217.005963 
L 349.370837 197.504338 
L 349.391059 197.504338 
L 349.551705 188.503588 
L 349.571694 190.003713 
L 349.712438 197.504338 
L 349.752611 196.004213 
L 350.174262 169.001963 
L 350.194442 170.502088 
L 350.375119 185.503338 
L 350.41529 181.002963 
L 350.495632 176.502588 
L 350.535804 178.002713 
L 350.575974 179.502838 
L 350.636252 178.002713 
L 350.656316 178.002713 
L 350.817201 172.002213 
L 350.877311 172.002213 
L 351.07823 164.501588 
L 351.098197 164.501588 
L 351.238958 161.501338 
L 351.279096 161.501338 
L 351.459738 178.002713 
L 351.479956 176.502588 
L 351.540081 176.502588 
L 351.560291 175.002463 
L 351.640573 176.502588 
L 351.680799 176.502588 
L 352.062307 197.504338 
L 352.263163 197.504338 
L 352.403852 194.504088 
L 352.504369 194.504088 
L 352.664876 190.003713 
L 352.685082 190.003713 
L 352.785389 188.503588 
L 352.865929 188.503588 
L 352.986246 181.002963 
L 353.146931 166.001713 
L 353.272215 172.002213 
L 353.307617 170.502088 
L 353.327826 170.502088 
L 353.528718 178.002713 
L 353.649076 176.502588 
L 353.709327 176.502588 
L 353.729572 178.002713 
L 353.789672 176.502588 
L 353.910184 175.002463 
L 353.950358 175.002463 
L 354.131285 169.001963 
L 354.291975 169.001963 
L 354.492824 161.501338 
L 354.552922 161.501338 
L 354.693666 164.501588 
L 354.753976 164.501588 
L 354.9347 161.501338 
L 355.014995 161.501338 
L 355.11532 163.001463 
L 355.215858 163.001463 
L 355.41672 170.502088 
L 355.47686 170.502088 
L 355.657746 173.502338 
L 355.69792 173.502338 
L 355.818458 172.002213 
L 355.8384 172.002213 
L 355.958915 170.502088 
L 356.340649 170.502088 
L 356.461193 172.002213 
L 356.621874 172.002213 
L 356.802508 178.002713 
L 356.88285 178.002713 
L 357.043528 182.503088 
L 357.083704 182.503088 
L 357.204218 184.003213 
L 357.284562 184.003213 
L 357.445246 188.503588 
L 357.6461 188.503588 
L 357.806785 193.003963 
L 357.907308 193.003963 
L 357.927301 194.504088 
L 358.007645 193.003963 
L 358.208499 193.003963 
L 358.369186 188.503588 
L 358.409358 188.503588 
L 358.570043 184.003213 
L 358.610212 184.003213 
L 358.730725 182.503088 
L 358.770897 182.503088 
L 358.891412 181.002963 
L 358.991872 181.002963 
L 359.112439 182.503088 
L 359.59448 182.503088 
L 359.714973 184.003213 
L 360.377925 184.003213 
L 360.518379 187.003463 
L 360.538427 187.003463 
L 360.658942 188.503588 
L 360.980312 188.503588 
L 361.100828 190.003713 
L 361.121001 190.003713 
L 361.241516 191.503838 
L 361.261511 191.503838 
L 361.402205 194.504088 
L 361.422195 194.504088 
L 361.58288 199.004463 
L 361.603021 199.004463 
L 361.743566 202.004713 
L 361.823908 202.004713 
L 361.944515 203.504838 
L 362.044997 203.504838 
L 362.165429 205.004963 
L 362.225621 205.004963 
L 362.346134 206.505088 
L 362.386303 206.505088 
L 362.50682 208.005213 
L 362.526999 208.005213 
L 362.647518 206.505088 
L 363.390585 206.505088 
L 363.511102 205.004963 
L 363.611631 205.004963 
L 363.752128 208.005213 
L 363.792298 208.005213 
L 363.973175 211.005463 
L 364.053514 211.005463 
L 364.174048 212.505588 
L 364.876921 212.505588 
L 364.997438 214.005713 
L 365.03761 214.005713 
L 365.178316 212.505588 
L 365.218476 212.505588 
L 365.318805 214.005713 
L 365.600005 214.005713 
L 365.7207 212.505588 
L 365.961547 212.505588 
L 366.082267 214.005713 
L 366.122233 214.005713 
L 366.242744 215.505838 
L 366.343294 215.505838 
L 366.443602 217.005963 
L 367.026132 217.005963 
L 367.146711 218.506088 
L 367.769254 218.506088 
L 367.889769 217.005963 
L 368.150994 217.005963 
L 368.271516 215.505838 
L 368.813708 215.505838 
L 368.934222 217.005963 
L 369.195425 217.005963 
L 369.31591 218.506088 
L 370.260064 218.506088 
L 370.380389 220.006213 
L 370.882648 220.006213 
L 370.982961 221.506338 
L 371.625701 221.506338 
L 371.746216 223.006463 
L 371.866731 223.006463 
L 371.987243 224.506588 
L 372.047635 224.506588 
L 372.16802 226.006713 
L 372.328788 226.006713 
L 372.44932 227.506838 
L 372.509652 227.506838 
L 372.650191 229.006963 
L 372.770664 229.006963 
L 372.871014 230.507088 
L 373.453618 230.507088 
L 373.574096 232.007213 
L 374.156497 232.007213 
L 374.277013 230.507088 
L 375.100652 230.507088 
L 375.160994 229.006963 
L 375.200954 230.507088 
L 375.703229 230.507088 
L 375.843694 227.506838 
L 375.944112 227.506838 
L 376.064721 229.006963 
L 377.852261 229.006963 
L 377.972774 227.506838 
L 379.37877 227.506838 
L 379.499282 226.006713 
L 379.900994 226.006713 
L 380.02151 227.506838 
L 380.262539 227.506838 
L 380.383051 229.006963 
L 380.463547 229.006963 
L 380.583909 227.506838 
L 380.724653 227.506838 
L 380.824937 226.006713 
L 381.306995 226.006713 
L 381.367368 227.506838 
L 381.407542 226.006713 
L 381.929714 226.006713 
L 382.070247 223.006463 
L 382.190759 223.006463 
L 382.311275 221.506338 
L 382.331481 221.506338 
L 382.451975 223.006463 
L 383.034357 223.006463 
L 383.15487 224.506588 
L 383.737445 224.506588 
L 383.837784 223.006463 
L 384.118983 223.006463 
L 384.239668 221.506338 
L 384.279666 221.506338 
L 384.420348 218.506088 
L 384.701564 218.506088 
L 384.822055 217.005963 
L 384.842065 217.005963 
L 385.002919 212.505588 
L 385.083094 212.505588 
L 385.243778 208.005213 
L 385.304119 208.005213 
L 385.344295 206.505088 
L 385.404464 208.005213 
L 385.545178 208.005213 
L 385.685661 205.004963 
L 385.725833 205.004963 
L 385.946859 200.504588 
L 385.966862 200.504588 
L 386.127719 196.004213 
L 386.348546 191.503838 
L 386.549371 191.503838 
L 386.689944 188.503588 
L 386.730115 188.503588 
L 386.850629 187.003463 
L 386.870822 187.003463 
L 386.991301 185.503338 
L 387.031529 185.503338 
L 387.152038 184.003213 
L 387.212168 184.003213 
L 387.332682 185.503338 
L 387.433215 185.503338 
L 387.613881 178.002713 
L 387.654283 178.002713 
L 387.875115 169.001963 
L 387.955429 169.001963 
L 388.136106 175.002463 
L 388.216448 175.002463 
L 388.336963 176.502588 
L 388.377134 176.502588 
L 388.718653 167.501838 
L 388.758809 167.501838 
L 388.879367 166.001713 
L 388.9797 166.001713 
L 389.100213 164.501588 
L 389.120351 164.501588 
L 389.34124 173.502338 
L 389.381413 173.502338 
L 389.542288 178.002713 
L 389.602447 178.002713 
L 389.763118 173.502338 
L 389.783123 173.502338 
L 389.803282 172.002213 
L 389.883621 173.502338 
L 389.903811 173.502338 
L 390.064322 176.502588 
L 390.184836 175.002463 
L 390.205016 175.002463 
L 390.385691 169.001963 
L 390.405883 169.001963 
L 390.64693 158.501088 
L 390.667095 158.501088 
L 390.887937 154.000713 
L 391.008475 154.000713 
L 391.209333 146.500088 
L 391.229284 146.500088 
L 391.389968 152.500588 
L 391.470311 152.500588 
L 391.490493 151.000463 
L 391.570833 152.500588 
L 391.611027 152.500588 
L 391.731524 151.000463 
L 391.892229 151.000463 
L 392.032707 148.000213 
L 392.15322 148.000213 
L 392.273732 146.500088 
L 392.354076 148.000213 
L 392.37428 146.500088 
L 392.414446 146.500088 
L 392.595101 140.499588 
L 392.695648 140.499588 
L 392.856316 135.999213 
L 393.017021 135.999213 
L 393.157498 132.998963 
L 393.17772 132.998963 
L 393.478866 117.997713 
L 393.800235 134.499088 
L 393.880575 134.499088 
L 393.900752 135.999213 
L 393.9811 134.499088 
L 394.001089 134.499088 
L 394.121606 135.999213 
L 394.141772 135.999213 
L 394.36263 144.999963 
L 394.382823 144.999963 
L 394.583657 152.500588 
L 394.603658 152.500588 
L 394.784499 158.501088 
L 394.844685 158.501088 
L 394.985331 161.501338 
L 395.025576 161.501338 
L 395.166053 164.501588 
L 395.507656 164.501588 
L 395.628084 166.001713 
L 395.748609 166.001713 
L 395.889133 169.001963 
L 396.190496 169.001963 
L 396.331146 172.002213 
L 396.351093 172.002213 
L 396.491701 175.002463 
L 396.552039 175.002463 
L 396.692753 178.002713 
L 396.953758 184.003213 
L 397.094413 184.003213 
L 397.214779 185.503338 
L 397.234988 185.503338 
L 397.355474 187.003463 
L 398.098545 187.003463 
L 398.219239 185.503338 
L 398.359775 185.503338 
L 398.4803 187.003463 
L 398.620767 187.003463 
L 398.741282 188.503588 
L 398.861797 188.503588 
L 398.982472 190.003713 
L 399.384022 190.003713 
L 399.544704 185.503338 
L 399.564907 185.503338 
L 399.705392 182.503088 
L 399.886223 185.503338 
L 400.006761 185.503338 
L 400.147275 188.503588 
L 400.167435 188.503588 
L 400.287971 190.003713 
L 400.328109 190.003713 
L 400.468646 193.003963 
L 400.72985 199.004463 
L 400.749844 199.004463 
L 400.790015 200.504588 
L 400.85033 199.004463 
L 400.970863 197.504338 
L 401.071214 197.504338 
L 401.211895 200.504588 
L 401.59344 200.504588 
L 401.734138 199.004463 
L 401.854662 199.004463 
L 401.975125 197.504338 
L 402.256389 197.504338 
L 402.356695 199.004463 
L 402.437036 199.004463 
L 402.557549 200.504588 
L 403.340993 200.504588 
L 403.461497 202.004713 
L 403.642175 202.004713 
L 403.762689 203.504838 
L 403.88337 205.004963 
L 404.586302 205.004963 
L 404.726797 202.004713 
L 405.148677 202.004713 
L 405.269208 203.504838 
L 405.369538 203.504838 
L 405.470052 202.004713 
L 405.590578 203.504838 
L 405.630739 203.504838 
L 405.75126 205.004963 
L 406.132791 205.004963 
L 406.213134 203.504838 
L 406.233314 205.004963 
L 406.474334 205.004963 
L 406.614847 208.005213 
L 406.675247 208.005213 
L 406.855874 214.005713 
L 406.896045 214.005713 
L 407.076902 217.005963 
L 407.25759 217.005963 
L 407.398277 218.506088 
L 407.498616 218.506088 
L 407.63935 221.506338 
L 407.84016 221.506338 
L 407.980672 224.506588 
L 408.000876 224.506588 
L 408.121361 226.006713 
L 408.241901 224.506588 
L 408.282065 224.506588 
L 408.402599 223.006463 
L 408.48289 223.006463 
L 408.623411 226.006713 
L 408.703756 226.006713 
L 408.844395 229.006963 
L 408.904614 229.006963 
L 409.025125 230.507088 
L 409.08546 230.507088 
L 409.225983 233.507338 
L 409.246156 233.507338 
L 409.386667 236.507588 
L 409.647882 236.507588 
L 409.768386 238.007713 
L 409.908894 235.007463 
L 410.049603 233.507338 
L 410.10975 233.507338 
L 410.210271 236.507588 
L 410.230266 235.007463 
L 410.390953 235.007463 
L 410.551636 239.507838 
L 410.612005 239.507838 
L 410.772629 244.008213 
L 410.792664 244.008213 
L 410.973514 238.007713 
L 411.23455 238.007713 
L 411.375253 235.007463 
L 411.515751 235.007463 
L 411.676436 239.507838 
L 411.756777 239.507838 
L 411.897476 242.508088 
L 411.957636 241.007963 
L 411.997805 242.508088 
L 412.158491 242.508088 
L 412.279004 244.008213 
L 412.399519 242.508088 
L 412.540195 242.508088 
L 412.660736 241.007963 
L 412.801236 241.007963 
L 412.921747 242.508088 
L 412.96208 242.508088 
L 413.1026 244.008213 
L 413.243118 244.008213 
L 413.383756 247.008463 
L 413.524318 247.008463 
L 413.664976 244.008213 
L 413.705161 244.008213 
L 413.825689 245.508338 
L 413.946235 244.008213 
L 414.006377 244.008213 
L 414.12689 245.508338 
L 414.147028 245.508338 
L 414.167063 247.008463 
L 414.227438 245.508338 
L 414.347986 244.008213 
L 414.367917 244.008213 
L 414.548793 238.007713 
L 414.608949 238.007713 
L 414.729462 236.507588 
L 414.749661 236.507588 
L 414.890147 239.507838 
L 414.910297 239.507838 
L 414.950512 241.007963 
L 415.010662 239.507838 
L 415.131176 238.007713 
L 415.151387 238.007713 
L 415.171347 236.507588 
L 415.211517 238.007713 
L 415.332033 241.007963 
L 415.352249 239.507838 
L 415.372202 239.507838 
L 415.532889 244.008213 
L 415.653402 242.508088 
L 416.075293 242.508088 
L 416.195794 244.008213 
L 416.235955 244.008213 
L 416.45683 235.007463 
L 416.537174 235.007463 
L 416.657688 236.507588 
L 416.738196 236.507588 
L 416.918927 239.507838 
L 416.979234 239.507838 
L 417.099575 238.007713 
L 417.179916 238.007713 
L 417.320649 241.007963 
L 417.682163 241.007963 
L 417.822658 238.007713 
L 417.86283 238.007713 
L 418.164217 245.508338 
L 418.204388 245.508338 
L 418.344888 248.508588 
L 418.4654 248.508588 
L 418.525742 250.008713 
L 418.545743 248.508588 
L 418.666258 247.008463 
L 418.746604 247.008463 
L 418.786772 248.508588 
L 418.826942 245.508338 
L 418.847139 245.508338 
L 419.047897 238.007713 
L 419.148314 238.007713 
L 419.268829 236.507588 
L 419.289003 236.507588 
L 419.449651 241.007963 
L 419.489876 241.007963 
L 419.630372 244.008213 
L 419.811167 247.008463 
L 419.831229 247.008463 
L 419.931751 248.508588 
L 420.092476 244.008213 
L 420.152809 244.008213 
L 420.333415 233.507338 
L 420.594484 211.005463 
L 420.75517 197.504338 
L 420.795342 202.004713 
L 420.875682 208.005213 
L 420.91605 205.004963 
L 420.935944 205.004963 
L 421.237222 182.503088 
L 421.2776 184.003213 
L 421.397908 185.503338 
L 421.598765 175.002463 
L 421.618945 176.502588 
L 421.638938 176.502588 
L 421.719281 172.002213 
L 421.779647 173.502338 
L 421.799621 173.502338 
L 421.980497 184.003213 
L 422.161164 163.001463 
L 422.321848 154.000713 
L 422.342033 154.000713 
L 422.683385 123.998213 
L 422.743748 129.998713 
L 422.804072 131.498838 
L 422.844071 129.998713 
L 422.86423 128.498588 
L 422.904429 131.498838 
L 423.205607 146.500088 
L 423.265951 146.500088 
L 423.346309 149.500338 
L 423.366292 148.000213 
L 423.506976 131.498838 
L 423.64749 117.997713 
L 423.868522 134.499088 
L 423.888515 134.499088 
L 423.928854 132.998963 
L 423.968858 134.499088 
L 424.009028 137.499338 
L 424.069404 132.998963 
L 424.551444 92.495588 
L 424.631777 96.995963 
L 424.692133 98.496088 
L 424.732106 96.995963 
L 424.752277 96.995963 
L 424.872786 101.496338 
L 424.89279 99.996213 
L 424.912926 98.496088 
L 424.932959 104.496588 
L 425.033463 114.997463 
L 425.053639 111.997213 
L 425.173988 108.996963 
L 425.194195 110.497088 
L 425.234331 107.496838 
L 425.254327 107.496838 
L 425.294499 104.496588 
L 425.334671 108.996963 
L 425.495354 117.997713 
L 425.535524 116.497588 
L 425.736379 98.496088 
L 425.776551 105.996713 
L 425.897066 108.996963 
L 425.957397 107.496838 
L 425.97741 108.996963 
L 426.118107 111.997213 
L 426.178427 111.997213 
L 426.338945 102.996463 
L 426.51979 90.995463 
L 426.5398 90.995463 
L 426.600078 87.995213 
L 426.620143 90.995463 
L 426.780827 96.995963 
L 426.921548 90.995463 
L 426.941689 92.495588 
L 426.981678 92.495588 
L 427.122406 95.495838 
L 427.142365 95.495838 
L 427.303048 105.996713 
L 427.343218 102.996463 
L 427.423559 102.996463 
L 427.463731 104.496588 
L 427.503904 102.996463 
L 427.825273 81.994713 
L 427.865445 83.494838 
L 428.18681 102.996463 
L 428.206983 101.496338 
L 428.28732 101.496338 
L 428.76941 129.998713 
L 428.789375 129.998713 
L 429.010417 138.999463 
L 429.050559 138.999463 
L 429.191251 135.999213 
L 429.231254 135.999213 
L 429.371931 138.999463 
L 429.632966 138.999463 
L 429.773635 135.999213 
L 429.83382 135.999213 
L 429.954505 138.999463 
L 429.994506 138.999463 
L 430.235531 149.500338 
L 430.255728 149.500338 
L 430.396216 152.500588 
L 430.536901 152.500588 
L 430.677415 149.500338 
L 430.898436 149.500338 
L 431.139439 160.001213 
L 431.179654 160.001213 
L 431.340359 164.501588 
L 431.420642 164.501588 
L 431.541205 166.001713 
L 431.681692 166.001713 
L 431.802207 164.501588 
L 431.822383 164.501588 
L 431.962892 167.501838 
L 432.043233 167.501838 
L 432.163748 169.001963 
L 432.183944 169.001963 
L 432.364603 163.001463 
L 432.505302 166.001713 
L 432.605815 166.001713 
L 432.726145 164.501588 
L 432.886827 169.001963 
L 432.90707 169.001963 
L 433.047511 172.002213 
L 433.148033 172.002213 
L 433.369074 181.002963 
L 433.409052 181.002963 
L 433.650079 191.503838 
L 433.911309 197.504338 
L 434.05179 197.504338 
L 434.192486 200.504588 
L 434.373162 200.504588 
L 434.493879 199.004463 
L 434.574017 200.504588 
L 434.594193 199.004463 
L 434.815046 199.004463 
L 434.935557 197.504338 
L 435.216759 197.504338 
L 435.357459 199.004463 
L 435.377442 199.004463 
L 435.538128 203.504838 
L 435.558318 203.504838 
L 435.738984 209.505338 
L 435.819326 209.505338 
L 435.879688 211.005463 
L 435.919856 209.505338 
L 436.080551 209.505338 
L 436.221038 212.505588 
L 436.241169 212.505588 
L 436.361769 211.005463 
L 436.582579 211.005463 
L 436.642925 209.505338 
L 436.683157 211.005463 
L 436.803574 211.005463 
L 436.924116 212.505588 
L 436.964288 212.505588 
L 436.984291 211.005463 
L 437.044681 214.005713 
L 437.084794 214.005713 
L 437.245473 218.506088 
L 437.265493 218.506088 
L 437.386006 217.005963 
L 437.406203 217.005963 
L 437.506727 215.505838 
L 437.627033 215.505838 
L 437.767679 218.506088 
L 437.868061 218.506088 
L 438.048937 215.505838 
L 438.269982 215.505838 
L 438.410513 218.506088 
L 438.5108 218.506088 
L 438.63153 215.505838 
L 438.792002 215.505838 
L 438.912513 214.005713 
L 439.093385 214.005713 
L 439.233885 217.005963 
L 439.515083 217.005963 
L 439.675768 212.505588 
L 439.796477 214.005713 
L 439.816393 214.005713 
L 439.937009 215.505838 
L 440.419076 215.505838 
L 440.519365 217.005963 
L 440.59971 217.005963 
L 440.720427 218.506088 
L 440.740409 218.506088 
L 440.860937 217.005963 
L 441.021598 217.005963 
L 441.162108 220.006213 
L 441.362962 220.006213 
L 441.403136 221.506338 
L 441.463498 220.006213 
L 441.744699 220.006213 
L 441.905393 215.505838 
L 441.925361 215.505838 
L 442.025873 214.005713 
L 442.246732 214.005713 
L 442.38741 217.005963 
L 442.487761 217.005963 
L 442.608276 215.505838 
L 442.648446 215.505838 
L 442.789147 218.506088 
L 442.829216 218.506088 
L 442.949843 217.005963 
L 443.009989 217.005963 
L 443.150689 220.006213 
L 443.170842 220.006213 
L 443.43191 226.006713 
L 443.57259 226.006713 
L 443.753256 232.007213 
L 444.054644 232.007213 
L 444.195147 235.007463 
L 444.295473 235.007463 
L 444.516538 239.507838 
L 444.59685 239.507838 
L 444.737356 236.507588 
L 444.757524 236.507588 
L 444.878064 238.007713 
L 444.998571 236.507588 
L 445.018556 236.507588 
L 445.13907 238.007713 
L 445.159247 238.007713 
L 445.29976 241.007963 
L 445.460597 241.007963 
L 445.601162 244.008213 
L 445.902326 244.008213 
L 446.022844 239.507838 
L 446.043015 241.007963 
L 446.163524 241.007963 
L 446.304042 244.008213 
L 446.344213 244.008213 
L 446.464729 241.007963 
L 446.565254 244.008213 
L 447.027129 235.007463 
L 447.16783 235.007463 
L 447.288305 236.507588 
L 447.6297 236.507588 
L 447.710231 238.007713 
L 447.890896 235.007463 
L 447.991241 235.007463 
L 448.111924 236.507588 
L 448.23227 236.507588 
L 448.352785 238.007713 
L 448.392956 238.007713 
L 448.55364 242.508088 
L 448.573836 242.508088 
L 448.734491 247.008463 
L 448.814804 247.008463 
L 448.975527 242.508088 
L 449.015706 242.508088 
L 449.136187 241.007963 
L 449.236763 241.007963 
L 449.598097 251.508838 
L 449.678438 251.508838 
L 449.798955 250.008713 
L 449.879298 250.008713 
L 450 251.508838 
L 450 251.508838 
" clip-path="url(#pc6640b3b6b)" style="fill: none; stroke: #1f77b4; stroke-width: 1.5; stroke-linecap: square"/>
   </g>
   <g id="patch_3">
    <path d="M 46.46 279.561175 
L 46.46 25.44 
" style="fill: none; stroke: #000000; stroke-width: 0.8; stroke-linejoin: miter; stroke-linecap: square"/>
   </g>
   <g id="patch_4">
    <path d="M 450 279.561175 
L 450 25.44 
" style="fill: none; stroke: #000000; stroke-width: 0.8; stroke-linejoin: miter; stroke-linecap: square"/>
   </g>
   <g id="patch_5">
    <path d="M 46.46 279.561175 
L 450 279.561175 
" style="fill: none; stroke: #000000; stroke-width: 0.8; stroke-linejoin: miter; stroke-linecap: square"/>
   </g>
   <g id="patch_6">
    <path d="M 46.46 25.44 
L 450 25.44 
" style="fill: none; stroke: #000000; stroke-width: 0.8; stroke-linejoin: miter; stroke-linecap: square"/>
   </g>
   <g id="text_15">
    <!-- November 2023 -->
    <g transform="translate(199.838125 19.44) scale(0.12 -0.12)">
     <defs>
      <path id="DejaVuSans-4e" d="M 628 4666 
L 1478 4666 
L 3547 763 
L 3547 4666 
L 4159 4666 
L 4159 0 
L 3309 0 
L 1241 3903 
L 1241 0 
L 628 0 
L 628 4666 
z
" transform="scale(0.015625)"/>
      <path id="DejaVuSans-6f" d="M 1959 3097 
Q 1497 3097 1228 2736 
Q 959 2375 959 1747 
Q 959 1119 1226 758 
Q 1494 397 1959 397 
Q 2419 397 2687 759 
Q 2956 1122 2956 1747 
Q 2956 2369 2687 2733 
Q 2419 3097 1959 3097 
z
M 1959 3584 
Q 2709 3584 3137 3096 
Q 3566 2609 3566 1747 
Q 3566 888 3137 398 
Q 2709 -91 1959 -91 
Q 1206 -91 779 398 
Q 353 888 353 1747 
Q 353 2609 779 3096 
Q 1206 3584 1959 3584 
z
" transform="scale(0.015625)"/>
      <path id="DejaVuSans-76" d="M 191 3500 
L 800 3500 
L 1894 563 
L 2988 3500 
L 3597 3500 
L 2284 0 
L 1503 0 
L 191 3500 
z
" transform="scale(0.015625)"/>
      <path id="DejaVuSans-62" d="M 3116 1747 
Q 3116 2381 2855 2742 
Q 2594 3103 2138 3103 
Q 1681 3103 1420 2742 
Q 1159 2381 1159 1747 
Q 1159 1113 1420 752 
Q 1681 391 2138 391 
Q 2594 391 2855 752 
Q 3116 1113 3116 1747 
z
M 1159 2969 
Q 1341 3281 1617 3432 
Q 1894 3584 2278 3584 
Q 2916 3584 3314 3078 
Q 3713 2572 3713 1747 
Q 3713 922 3314 415 
Q 2916 -91 2278 -91 
Q 1894 -91 1617 61 
Q 1341 213 1159 525 
L 1159 0 
L 581 0 
L 581 4863 
L 1159 4863 
L 1159 2969 
z
" transform="scale(0.015625)"/>
     </defs>
     <use xlink:href="#DejaVuSans-4e"/>
     <use xlink:href="#DejaVuSans-6f" x="74.804688"/>
     <use xlink:href="#DejaVuSans-76" x="135.986328"/>
     <use xlink:href="#DejaVuSans-65" x="195.166016"/>
     <use xlink:href="#DejaVuSans-6d" x="256.689453"/>
     <use xlink:href="#DejaVuSans-62" x="354.101562"/>
     <use xlink:href="#DejaVuSans-65" x="417.578125"/>
     <use xlink:href="#DejaVuSans-72" x="479.101562"/>
     <use xlink:href="#DejaVuSans-20" x="520.214844"/>
     <use xlink:href="#DejaVuSans-32" x="552.001953"/>
     <use xlink:href="#DejaVuSans-30" x="615.625"/>
     <use xlink:href="#DejaVuSans-32" x="679.248047"/>
     <use xlink:href="#DejaVuSans-33" x="742.871094"/>
    </g>
   </g>
  </g>
 </g>
 <defs>
  <clipPath id="pc6640b3b6b">
   <rect x="46.46" y="25.44" width="403.54" height="254.121175"/>
  </clipPath>
 </defs>
</svg>
