<?xml version="1.0" encoding="utf-8" standalone="no"?>
<!DOCTYPE svg PUBLIC "-//W3C//DTD SVG 1.1//EN"
  "http://www.w3.org/Graphics/SVG/1.1/DTD/svg11.dtd">
<svg xmlns:xlink="http://www.w3.org/1999/xlink" width="460.8pt" height="345.6pt" viewBox="0 0 460.8 345.6" xmlns="http://www.w3.org/2000/svg" version="1.1">
 <metadata>
  <rdf:RDF xmlns:dc="http://purl.org/dc/elements/1.1/" xmlns:cc="http://creativecommons.org/ns#" xmlns:rdf="http://www.w3.org/1999/02/22-rdf-syntax-ns#">
   <cc:Work>
    <dc:type rdf:resource="http://purl.org/dc/dcmitype/StillImage"/>
    <dc:date>2023-11-08T03:33:36.159015</dc:date>
    <dc:format>image/svg+xml</dc:format>
    <dc:creator>
     <cc:Agent>
      <dc:title>Matplotlib v3.6.3, https://matplotlib.org/</dc:title>
     </cc:Agent>
    </dc:creator>
   </cc:Work>
  </rdf:RDF>
 </metadata>
 <defs>
  <style type="text/css">*{stroke-linejoin: round; stroke-linecap: butt}</style>
 </defs>
 <g id="figure_1">
  <g id="patch_1">
   <path d="M 0 345.6 
L 460.8 345.6 
L 460.8 0 
L 0 0 
z
" style="fill: #ffffff"/>
  </g>
  <g id="axes_1">
   <g id="patch_2">
    <path d="M 51.05 279.561175 
L 450 279.561175 
L 450 25.44 
L 51.05 25.44 
z
" style="fill: #ffffff"/>
   </g>
   <g id="matplotlib.axis_1">
    <g id="xtick_1">
     <g id="line2d_1">
      <path d="M 106.839675 279.561175 
L 106.839675 25.44 
" clip-path="url(#pc7f9c21efc)" style="fill: none; stroke: #b0b0b0; stroke-width: 0.8; stroke-linecap: square"/>
     </g>
     <g id="line2d_2">
      <defs>
       <path id="mb713b675c9" d="M 0 0 
L 0 3.5 
" style="stroke: #000000; stroke-width: 0.8"/>
      </defs>
      <g>
       <use xlink:href="#mb713b675c9" x="106.839675" y="279.561175" style="stroke: #000000; stroke-width: 0.8"/>
      </g>
     </g>
     <g id="text_1">
      <!-- 2023-11-02 -->
      <g transform="translate(64.275161 333.028035) rotate(-45) scale(0.1 -0.1)">
       <defs>
        <path id="DejaVuSans-32" d="M 1228 531 
L 3431 531 
L 3431 0 
L 469 0 
L 469 531 
Q 828 903 1448 1529 
Q 2069 2156 2228 2338 
Q 2531 2678 2651 2914 
Q 2772 3150 2772 3378 
Q 2772 3750 2511 3984 
Q 2250 4219 1831 4219 
Q 1534 4219 1204 4116 
Q 875 4013 500 3803 
L 500 4441 
Q 881 4594 1212 4672 
Q 1544 4750 1819 4750 
Q 2544 4750 2975 4387 
Q 3406 4025 3406 3419 
Q 3406 3131 3298 2873 
Q 3191 2616 2906 2266 
Q 2828 2175 2409 1742 
Q 1991 1309 1228 531 
z
" transform="scale(0.015625)"/>
        <path id="DejaVuSans-30" d="M 2034 4250 
Q 1547 4250 1301 3770 
Q 1056 3291 1056 2328 
Q 1056 1369 1301 889 
Q 1547 409 2034 409 
Q 2525 409 2770 889 
Q 3016 1369 3016 2328 
Q 3016 3291 2770 3770 
Q 2525 4250 2034 4250 
z
M 2034 4750 
Q 2819 4750 3233 4129 
Q 3647 3509 3647 2328 
Q 3647 1150 3233 529 
Q 2819 -91 2034 -91 
Q 1250 -91 836 529 
Q 422 1150 422 2328 
Q 422 3509 836 4129 
Q 1250 4750 2034 4750 
z
" transform="scale(0.015625)"/>
        <path id="DejaVuSans-33" d="M 2597 2516 
Q 3050 2419 3304 2112 
Q 3559 1806 3559 1356 
Q 3559 666 3084 287 
Q 2609 -91 1734 -91 
Q 1441 -91 1130 -33 
Q 819 25 488 141 
L 488 750 
Q 750 597 1062 519 
Q 1375 441 1716 441 
Q 2309 441 2620 675 
Q 2931 909 2931 1356 
Q 2931 1769 2642 2001 
Q 2353 2234 1838 2234 
L 1294 2234 
L 1294 2753 
L 1863 2753 
Q 2328 2753 2575 2939 
Q 2822 3125 2822 3475 
Q 2822 3834 2567 4026 
Q 2313 4219 1838 4219 
Q 1578 4219 1281 4162 
Q 984 4106 628 3988 
L 628 4550 
Q 988 4650 1302 4700 
Q 1616 4750 1894 4750 
Q 2613 4750 3031 4423 
Q 3450 4097 3450 3541 
Q 3450 3153 3228 2886 
Q 3006 2619 2597 2516 
z
" transform="scale(0.015625)"/>
        <path id="DejaVuSans-2d" d="M 313 2009 
L 1997 2009 
L 1997 1497 
L 313 1497 
L 313 2009 
z
" transform="scale(0.015625)"/>
        <path id="DejaVuSans-31" d="M 794 531 
L 1825 531 
L 1825 4091 
L 703 3866 
L 703 4441 
L 1819 4666 
L 2450 4666 
L 2450 531 
L 3481 531 
L 3481 0 
L 794 0 
L 794 531 
z
" transform="scale(0.015625)"/>
       </defs>
       <use xlink:href="#DejaVuSans-32"/>
       <use xlink:href="#DejaVuSans-30" x="63.623047"/>
       <use xlink:href="#DejaVuSans-32" x="127.246094"/>
       <use xlink:href="#DejaVuSans-33" x="190.869141"/>
       <use xlink:href="#DejaVuSans-2d" x="254.492188"/>
       <use xlink:href="#DejaVuSans-31" x="290.576172"/>
       <use xlink:href="#DejaVuSans-31" x="354.199219"/>
       <use xlink:href="#DejaVuSans-2d" x="417.822266"/>
       <use xlink:href="#DejaVuSans-30" x="453.90625"/>
       <use xlink:href="#DejaVuSans-32" x="517.529297"/>
      </g>
     </g>
    </g>
    <g id="xtick_2">
     <g id="line2d_3">
      <path d="M 162.659047 279.561175 
L 162.659047 25.44 
" clip-path="url(#pc7f9c21efc)" style="fill: none; stroke: #b0b0b0; stroke-width: 0.8; stroke-linecap: square"/>
     </g>
     <g id="line2d_4">
      <g>
       <use xlink:href="#mb713b675c9" x="162.659047" y="279.561175" style="stroke: #000000; stroke-width: 0.8"/>
      </g>
     </g>
     <g id="text_2">
      <!-- 2023-11-03 -->
      <g transform="translate(120.094533 333.028035) rotate(-45) scale(0.1 -0.1)">
       <use xlink:href="#DejaVuSans-32"/>
       <use xlink:href="#DejaVuSans-30" x="63.623047"/>
       <use xlink:href="#DejaVuSans-32" x="127.246094"/>
       <use xlink:href="#DejaVuSans-33" x="190.869141"/>
       <use xlink:href="#DejaVuSans-2d" x="254.492188"/>
       <use xlink:href="#DejaVuSans-31" x="290.576172"/>
       <use xlink:href="#DejaVuSans-31" x="354.199219"/>
       <use xlink:href="#DejaVuSans-2d" x="417.822266"/>
       <use xlink:href="#DejaVuSans-30" x="453.90625"/>
       <use xlink:href="#DejaVuSans-33" x="517.529297"/>
      </g>
     </g>
    </g>
    <g id="xtick_3">
     <g id="line2d_5">
      <path d="M 218.478418 279.561175 
L 218.478418 25.44 
" clip-path="url(#pc7f9c21efc)" style="fill: none; stroke: #b0b0b0; stroke-width: 0.8; stroke-linecap: square"/>
     </g>
     <g id="line2d_6">
      <g>
       <use xlink:href="#mb713b675c9" x="218.478418" y="279.561175" style="stroke: #000000; stroke-width: 0.8"/>
      </g>
     </g>
     <g id="text_3">
      <!-- 2023-11-04 -->
      <g transform="translate(175.913904 333.028035) rotate(-45) scale(0.1 -0.1)">
       <defs>
        <path id="DejaVuSans-34" d="M 2419 4116 
L 825 1625 
L 2419 1625 
L 2419 4116 
z
M 2253 4666 
L 3047 4666 
L 3047 1625 
L 3713 1625 
L 3713 1100 
L 3047 1100 
L 3047 0 
L 2419 0 
L 2419 1100 
L 313 1100 
L 313 1709 
L 2253 4666 
z
" transform="scale(0.015625)"/>
       </defs>
       <use xlink:href="#DejaVuSans-32"/>
       <use xlink:href="#DejaVuSans-30" x="63.623047"/>
       <use xlink:href="#DejaVuSans-32" x="127.246094"/>
       <use xlink:href="#DejaVuSans-33" x="190.869141"/>
       <use xlink:href="#DejaVuSans-2d" x="254.492188"/>
       <use xlink:href="#DejaVuSans-31" x="290.576172"/>
       <use xlink:href="#DejaVuSans-31" x="354.199219"/>
       <use xlink:href="#DejaVuSans-2d" x="417.822266"/>
       <use xlink:href="#DejaVuSans-30" x="453.90625"/>
       <use xlink:href="#DejaVuSans-34" x="517.529297"/>
      </g>
     </g>
    </g>
    <g id="xtick_4">
     <g id="line2d_7">
      <path d="M 274.29779 279.561175 
L 274.29779 25.44 
" clip-path="url(#pc7f9c21efc)" style="fill: none; stroke: #b0b0b0; stroke-width: 0.8; stroke-linecap: square"/>
     </g>
     <g id="line2d_8">
      <g>
       <use xlink:href="#mb713b675c9" x="274.29779" y="279.561175" style="stroke: #000000; stroke-width: 0.8"/>
      </g>
     </g>
     <g id="text_4">
      <!-- 2023-11-05 -->
      <g transform="translate(231.733276 333.028035) rotate(-45) scale(0.1 -0.1)">
       <defs>
        <path id="DejaVuSans-35" d="M 691 4666 
L 3169 4666 
L 3169 4134 
L 1269 4134 
L 1269 2991 
Q 1406 3038 1543 3061 
Q 1681 3084 1819 3084 
Q 2600 3084 3056 2656 
Q 3513 2228 3513 1497 
Q 3513 744 3044 326 
Q 2575 -91 1722 -91 
Q 1428 -91 1123 -41 
Q 819 9 494 109 
L 494 744 
Q 775 591 1075 516 
Q 1375 441 1709 441 
Q 2250 441 2565 725 
Q 2881 1009 2881 1497 
Q 2881 1984 2565 2268 
Q 2250 2553 1709 2553 
Q 1456 2553 1204 2497 
Q 953 2441 691 2322 
L 691 4666 
z
" transform="scale(0.015625)"/>
       </defs>
       <use xlink:href="#DejaVuSans-32"/>
       <use xlink:href="#DejaVuSans-30" x="63.623047"/>
       <use xlink:href="#DejaVuSans-32" x="127.246094"/>
       <use xlink:href="#DejaVuSans-33" x="190.869141"/>
       <use xlink:href="#DejaVuSans-2d" x="254.492188"/>
       <use xlink:href="#DejaVuSans-31" x="290.576172"/>
       <use xlink:href="#DejaVuSans-31" x="354.199219"/>
       <use xlink:href="#DejaVuSans-2d" x="417.822266"/>
       <use xlink:href="#DejaVuSans-30" x="453.90625"/>
       <use xlink:href="#DejaVuSans-35" x="517.529297"/>
      </g>
     </g>
    </g>
    <g id="xtick_5">
     <g id="line2d_9">
      <path d="M 330.117161 279.561175 
L 330.117161 25.44 
" clip-path="url(#pc7f9c21efc)" style="fill: none; stroke: #b0b0b0; stroke-width: 0.8; stroke-linecap: square"/>
     </g>
     <g id="line2d_10">
      <g>
       <use xlink:href="#mb713b675c9" x="330.117161" y="279.561175" style="stroke: #000000; stroke-width: 0.8"/>
      </g>
     </g>
     <g id="text_5">
      <!-- 2023-11-06 -->
      <g transform="translate(287.552647 333.028035) rotate(-45) scale(0.1 -0.1)">
       <defs>
        <path id="DejaVuSans-36" d="M 2113 2584 
Q 1688 2584 1439 2293 
Q 1191 2003 1191 1497 
Q 1191 994 1439 701 
Q 1688 409 2113 409 
Q 2538 409 2786 701 
Q 3034 994 3034 1497 
Q 3034 2003 2786 2293 
Q 2538 2584 2113 2584 
z
M 3366 4563 
L 3366 3988 
Q 3128 4100 2886 4159 
Q 2644 4219 2406 4219 
Q 1781 4219 1451 3797 
Q 1122 3375 1075 2522 
Q 1259 2794 1537 2939 
Q 1816 3084 2150 3084 
Q 2853 3084 3261 2657 
Q 3669 2231 3669 1497 
Q 3669 778 3244 343 
Q 2819 -91 2113 -91 
Q 1303 -91 875 529 
Q 447 1150 447 2328 
Q 447 3434 972 4092 
Q 1497 4750 2381 4750 
Q 2619 4750 2861 4703 
Q 3103 4656 3366 4563 
z
" transform="scale(0.015625)"/>
       </defs>
       <use xlink:href="#DejaVuSans-32"/>
       <use xlink:href="#DejaVuSans-30" x="63.623047"/>
       <use xlink:href="#DejaVuSans-32" x="127.246094"/>
       <use xlink:href="#DejaVuSans-33" x="190.869141"/>
       <use xlink:href="#DejaVuSans-2d" x="254.492188"/>
       <use xlink:href="#DejaVuSans-31" x="290.576172"/>
       <use xlink:href="#DejaVuSans-31" x="354.199219"/>
       <use xlink:href="#DejaVuSans-2d" x="417.822266"/>
       <use xlink:href="#DejaVuSans-30" x="453.90625"/>
       <use xlink:href="#DejaVuSans-36" x="517.529297"/>
      </g>
     </g>
    </g>
    <g id="xtick_6">
     <g id="line2d_11">
      <path d="M 385.936533 279.561175 
L 385.936533 25.44 
" clip-path="url(#pc7f9c21efc)" style="fill: none; stroke: #b0b0b0; stroke-width: 0.8; stroke-linecap: square"/>
     </g>
     <g id="line2d_12">
      <g>
       <use xlink:href="#mb713b675c9" x="385.936533" y="279.561175" style="stroke: #000000; stroke-width: 0.8"/>
      </g>
     </g>
     <g id="text_6">
      <!-- 2023-11-07 -->
      <g transform="translate(343.372019 333.028035) rotate(-45) scale(0.1 -0.1)">
       <defs>
        <path id="DejaVuSans-37" d="M 525 4666 
L 3525 4666 
L 3525 4397 
L 1831 0 
L 1172 0 
L 2766 4134 
L 525 4134 
L 525 4666 
z
" transform="scale(0.015625)"/>
       </defs>
       <use xlink:href="#DejaVuSans-32"/>
       <use xlink:href="#DejaVuSans-30" x="63.623047"/>
       <use xlink:href="#DejaVuSans-32" x="127.246094"/>
       <use xlink:href="#DejaVuSans-33" x="190.869141"/>
       <use xlink:href="#DejaVuSans-2d" x="254.492188"/>
       <use xlink:href="#DejaVuSans-31" x="290.576172"/>
       <use xlink:href="#DejaVuSans-31" x="354.199219"/>
       <use xlink:href="#DejaVuSans-2d" x="417.822266"/>
       <use xlink:href="#DejaVuSans-30" x="453.90625"/>
       <use xlink:href="#DejaVuSans-37" x="517.529297"/>
      </g>
     </g>
    </g>
    <g id="xtick_7">
     <g id="line2d_13">
      <path d="M 441.755904 279.561175 
L 441.755904 25.44 
" clip-path="url(#pc7f9c21efc)" style="fill: none; stroke: #b0b0b0; stroke-width: 0.8; stroke-linecap: square"/>
     </g>
     <g id="line2d_14">
      <g>
       <use xlink:href="#mb713b675c9" x="441.755904" y="279.561175" style="stroke: #000000; stroke-width: 0.8"/>
      </g>
     </g>
     <g id="text_7">
      <!-- 2023-11-08 -->
      <g transform="translate(399.19139 333.028035) rotate(-45) scale(0.1 -0.1)">
       <defs>
        <path id="DejaVuSans-38" d="M 2034 2216 
Q 1584 2216 1326 1975 
Q 1069 1734 1069 1313 
Q 1069 891 1326 650 
Q 1584 409 2034 409 
Q 2484 409 2743 651 
Q 3003 894 3003 1313 
Q 3003 1734 2745 1975 
Q 2488 2216 2034 2216 
z
M 1403 2484 
Q 997 2584 770 2862 
Q 544 3141 544 3541 
Q 544 4100 942 4425 
Q 1341 4750 2034 4750 
Q 2731 4750 3128 4425 
Q 3525 4100 3525 3541 
Q 3525 3141 3298 2862 
Q 3072 2584 2669 2484 
Q 3125 2378 3379 2068 
Q 3634 1759 3634 1313 
Q 3634 634 3220 271 
Q 2806 -91 2034 -91 
Q 1263 -91 848 271 
Q 434 634 434 1313 
Q 434 1759 690 2068 
Q 947 2378 1403 2484 
z
M 1172 3481 
Q 1172 3119 1398 2916 
Q 1625 2713 2034 2713 
Q 2441 2713 2670 2916 
Q 2900 3119 2900 3481 
Q 2900 3844 2670 4047 
Q 2441 4250 2034 4250 
Q 1625 4250 1398 4047 
Q 1172 3844 1172 3481 
z
" transform="scale(0.015625)"/>
       </defs>
       <use xlink:href="#DejaVuSans-32"/>
       <use xlink:href="#DejaVuSans-30" x="63.623047"/>
       <use xlink:href="#DejaVuSans-32" x="127.246094"/>
       <use xlink:href="#DejaVuSans-33" x="190.869141"/>
       <use xlink:href="#DejaVuSans-2d" x="254.492188"/>
       <use xlink:href="#DejaVuSans-31" x="290.576172"/>
       <use xlink:href="#DejaVuSans-31" x="354.199219"/>
       <use xlink:href="#DejaVuSans-2d" x="417.822266"/>
       <use xlink:href="#DejaVuSans-30" x="453.90625"/>
       <use xlink:href="#DejaVuSans-38" x="517.529297"/>
      </g>
     </g>
    </g>
   </g>
   <g id="matplotlib.axis_2">
    <g id="ytick_1">
     <g id="line2d_15">
      <path d="M 51.05 274.829969 
L 450 274.829969 
" clip-path="url(#pc7f9c21efc)" style="fill: none; stroke: #b0b0b0; stroke-width: 0.8; stroke-linecap: square"/>
     </g>
     <g id="line2d_16">
      <defs>
       <path id="mf0cb845cee" d="M 0 0 
L -3.5 0 
" style="stroke: #000000; stroke-width: 0.8"/>
      </defs>
      <g>
       <use xlink:href="#mf0cb845cee" x="51.05" y="274.829969" style="stroke: #000000; stroke-width: 0.8"/>
      </g>
     </g>
     <g id="text_8">
      <!-- 330 -->
      <g transform="translate(24.9625 278.629188) scale(0.1 -0.1)">
       <use xlink:href="#DejaVuSans-33"/>
       <use xlink:href="#DejaVuSans-33" x="63.623047"/>
       <use xlink:href="#DejaVuSans-30" x="127.246094"/>
      </g>
     </g>
    </g>
    <g id="ytick_2">
     <g id="line2d_17">
      <path d="M 51.05 246.414317 
L 450 246.414317 
" clip-path="url(#pc7f9c21efc)" style="fill: none; stroke: #b0b0b0; stroke-width: 0.8; stroke-linecap: square"/>
     </g>
     <g id="line2d_18">
      <g>
       <use xlink:href="#mf0cb845cee" x="51.05" y="246.414317" style="stroke: #000000; stroke-width: 0.8"/>
      </g>
     </g>
     <g id="text_9">
      <!-- 340 -->
      <g transform="translate(24.9625 250.213536) scale(0.1 -0.1)">
       <use xlink:href="#DejaVuSans-33"/>
       <use xlink:href="#DejaVuSans-34" x="63.623047"/>
       <use xlink:href="#DejaVuSans-30" x="127.246094"/>
      </g>
     </g>
    </g>
    <g id="ytick_3">
     <g id="line2d_19">
      <path d="M 51.05 217.998665 
L 450 217.998665 
" clip-path="url(#pc7f9c21efc)" style="fill: none; stroke: #b0b0b0; stroke-width: 0.8; stroke-linecap: square"/>
     </g>
     <g id="line2d_20">
      <g>
       <use xlink:href="#mf0cb845cee" x="51.05" y="217.998665" style="stroke: #000000; stroke-width: 0.8"/>
      </g>
     </g>
     <g id="text_10">
      <!-- 350 -->
      <g transform="translate(24.9625 221.797884) scale(0.1 -0.1)">
       <use xlink:href="#DejaVuSans-33"/>
       <use xlink:href="#DejaVuSans-35" x="63.623047"/>
       <use xlink:href="#DejaVuSans-30" x="127.246094"/>
      </g>
     </g>
    </g>
    <g id="ytick_4">
     <g id="line2d_21">
      <path d="M 51.05 189.583013 
L 450 189.583013 
" clip-path="url(#pc7f9c21efc)" style="fill: none; stroke: #b0b0b0; stroke-width: 0.8; stroke-linecap: square"/>
     </g>
     <g id="line2d_22">
      <g>
       <use xlink:href="#mf0cb845cee" x="51.05" y="189.583013" style="stroke: #000000; stroke-width: 0.8"/>
      </g>
     </g>
     <g id="text_11">
      <!-- 360 -->
      <g transform="translate(24.9625 193.382232) scale(0.1 -0.1)">
       <use xlink:href="#DejaVuSans-33"/>
       <use xlink:href="#DejaVuSans-36" x="63.623047"/>
       <use xlink:href="#DejaVuSans-30" x="127.246094"/>
      </g>
     </g>
    </g>
    <g id="ytick_5">
     <g id="line2d_23">
      <path d="M 51.05 161.167362 
L 450 161.167362 
" clip-path="url(#pc7f9c21efc)" style="fill: none; stroke: #b0b0b0; stroke-width: 0.8; stroke-linecap: square"/>
     </g>
     <g id="line2d_24">
      <g>
       <use xlink:href="#mf0cb845cee" x="51.05" y="161.167362" style="stroke: #000000; stroke-width: 0.8"/>
      </g>
     </g>
     <g id="text_12">
      <!-- 370 -->
      <g transform="translate(24.9625 164.96658) scale(0.1 -0.1)">
       <use xlink:href="#DejaVuSans-33"/>
       <use xlink:href="#DejaVuSans-37" x="63.623047"/>
       <use xlink:href="#DejaVuSans-30" x="127.246094"/>
      </g>
     </g>
    </g>
    <g id="ytick_6">
     <g id="line2d_25">
      <path d="M 51.05 132.75171 
L 450 132.75171 
" clip-path="url(#pc7f9c21efc)" style="fill: none; stroke: #b0b0b0; stroke-width: 0.8; stroke-linecap: square"/>
     </g>
     <g id="line2d_26">
      <g>
       <use xlink:href="#mf0cb845cee" x="51.05" y="132.75171" style="stroke: #000000; stroke-width: 0.8"/>
      </g>
     </g>
     <g id="text_13">
      <!-- 380 -->
      <g transform="translate(24.9625 136.550928) scale(0.1 -0.1)">
       <use xlink:href="#DejaVuSans-33"/>
       <use xlink:href="#DejaVuSans-38" x="63.623047"/>
       <use xlink:href="#DejaVuSans-30" x="127.246094"/>
      </g>
     </g>
    </g>
    <g id="ytick_7">
     <g id="line2d_27">
      <path d="M 51.05 104.336058 
L 450 104.336058 
" clip-path="url(#pc7f9c21efc)" style="fill: none; stroke: #b0b0b0; stroke-width: 0.8; stroke-linecap: square"/>
     </g>
     <g id="line2d_28">
      <g>
       <use xlink:href="#mf0cb845cee" x="51.05" y="104.336058" style="stroke: #000000; stroke-width: 0.8"/>
      </g>
     </g>
     <g id="text_14">
      <!-- 390 -->
      <g transform="translate(24.9625 108.135276) scale(0.1 -0.1)">
       <defs>
        <path id="DejaVuSans-39" d="M 703 97 
L 703 672 
Q 941 559 1184 500 
Q 1428 441 1663 441 
Q 2288 441 2617 861 
Q 2947 1281 2994 2138 
Q 2813 1869 2534 1725 
Q 2256 1581 1919 1581 
Q 1219 1581 811 2004 
Q 403 2428 403 3163 
Q 403 3881 828 4315 
Q 1253 4750 1959 4750 
Q 2769 4750 3195 4129 
Q 3622 3509 3622 2328 
Q 3622 1225 3098 567 
Q 2575 -91 1691 -91 
Q 1453 -91 1209 -44 
Q 966 3 703 97 
z
M 1959 2075 
Q 2384 2075 2632 2365 
Q 2881 2656 2881 3163 
Q 2881 3666 2632 3958 
Q 2384 4250 1959 4250 
Q 1534 4250 1286 3958 
Q 1038 3666 1038 3163 
Q 1038 2656 1286 2365 
Q 1534 2075 1959 2075 
z
" transform="scale(0.015625)"/>
       </defs>
       <use xlink:href="#DejaVuSans-33"/>
       <use xlink:href="#DejaVuSans-39" x="63.623047"/>
       <use xlink:href="#DejaVuSans-30" x="127.246094"/>
      </g>
     </g>
    </g>
    <g id="ytick_8">
     <g id="line2d_29">
      <path d="M 51.05 75.920406 
L 450 75.920406 
" clip-path="url(#pc7f9c21efc)" style="fill: none; stroke: #b0b0b0; stroke-width: 0.8; stroke-linecap: square"/>
     </g>
     <g id="line2d_30">
      <g>
       <use xlink:href="#mf0cb845cee" x="51.05" y="75.920406" style="stroke: #000000; stroke-width: 0.8"/>
      </g>
     </g>
     <g id="text_15">
      <!-- 400 -->
      <g transform="translate(24.9625 79.719624) scale(0.1 -0.1)">
       <use xlink:href="#DejaVuSans-34"/>
       <use xlink:href="#DejaVuSans-30" x="63.623047"/>
       <use xlink:href="#DejaVuSans-30" x="127.246094"/>
      </g>
     </g>
    </g>
    <g id="ytick_9">
     <g id="line2d_31">
      <path d="M 51.05 47.504754 
L 450 47.504754 
" clip-path="url(#pc7f9c21efc)" style="fill: none; stroke: #b0b0b0; stroke-width: 0.8; stroke-linecap: square"/>
     </g>
     <g id="line2d_32">
      <g>
       <use xlink:href="#mf0cb845cee" x="51.05" y="47.504754" style="stroke: #000000; stroke-width: 0.8"/>
      </g>
     </g>
     <g id="text_16">
      <!-- 410 -->
      <g transform="translate(24.9625 51.303972) scale(0.1 -0.1)">
       <use xlink:href="#DejaVuSans-34"/>
       <use xlink:href="#DejaVuSans-31" x="63.623047"/>
       <use xlink:href="#DejaVuSans-30" x="127.246094"/>
      </g>
     </g>
    </g>
    <g id="text_17">
     <!-- Rain [mm] -->
     <g transform="translate(18.882812 178.715431) rotate(-90) scale(0.1 -0.1)">
      <defs>
       <path id="DejaVuSans-52" d="M 2841 2188 
Q 3044 2119 3236 1894 
Q 3428 1669 3622 1275 
L 4263 0 
L 3584 0 
L 2988 1197 
Q 2756 1666 2539 1819 
Q 2322 1972 1947 1972 
L 1259 1972 
L 1259 0 
L 628 0 
L 628 4666 
L 2053 4666 
Q 2853 4666 3247 4331 
Q 3641 3997 3641 3322 
Q 3641 2881 3436 2590 
Q 3231 2300 2841 2188 
z
M 1259 4147 
L 1259 2491 
L 2053 2491 
Q 2509 2491 2742 2702 
Q 2975 2913 2975 3322 
Q 2975 3731 2742 3939 
Q 2509 4147 2053 4147 
L 1259 4147 
z
" transform="scale(0.015625)"/>
       <path id="DejaVuSans-61" d="M 2194 1759 
Q 1497 1759 1228 1600 
Q 959 1441 959 1056 
Q 959 750 1161 570 
Q 1363 391 1709 391 
Q 2188 391 2477 730 
Q 2766 1069 2766 1631 
L 2766 1759 
L 2194 1759 
z
M 3341 1997 
L 3341 0 
L 2766 0 
L 2766 531 
Q 2569 213 2275 61 
Q 1981 -91 1556 -91 
Q 1019 -91 701 211 
Q 384 513 384 1019 
Q 384 1609 779 1909 
Q 1175 2209 1959 2209 
L 2766 2209 
L 2766 2266 
Q 2766 2663 2505 2880 
Q 2244 3097 1772 3097 
Q 1472 3097 1187 3025 
Q 903 2953 641 2809 
L 641 3341 
Q 956 3463 1253 3523 
Q 1550 3584 1831 3584 
Q 2591 3584 2966 3190 
Q 3341 2797 3341 1997 
z
" transform="scale(0.015625)"/>
       <path id="DejaVuSans-69" d="M 603 3500 
L 1178 3500 
L 1178 0 
L 603 0 
L 603 3500 
z
M 603 4863 
L 1178 4863 
L 1178 4134 
L 603 4134 
L 603 4863 
z
" transform="scale(0.015625)"/>
       <path id="DejaVuSans-6e" d="M 3513 2113 
L 3513 0 
L 2938 0 
L 2938 2094 
Q 2938 2591 2744 2837 
Q 2550 3084 2163 3084 
Q 1697 3084 1428 2787 
Q 1159 2491 1159 1978 
L 1159 0 
L 581 0 
L 581 3500 
L 1159 3500 
L 1159 2956 
Q 1366 3272 1645 3428 
Q 1925 3584 2291 3584 
Q 2894 3584 3203 3211 
Q 3513 2838 3513 2113 
z
" transform="scale(0.015625)"/>
       <path id="DejaVuSans-20" transform="scale(0.015625)"/>
       <path id="DejaVuSans-5b" d="M 550 4863 
L 1875 4863 
L 1875 4416 
L 1125 4416 
L 1125 -397 
L 1875 -397 
L 1875 -844 
L 550 -844 
L 550 4863 
z
" transform="scale(0.015625)"/>
       <path id="DejaVuSans-6d" d="M 3328 2828 
Q 3544 3216 3844 3400 
Q 4144 3584 4550 3584 
Q 5097 3584 5394 3201 
Q 5691 2819 5691 2113 
L 5691 0 
L 5113 0 
L 5113 2094 
Q 5113 2597 4934 2840 
Q 4756 3084 4391 3084 
Q 3944 3084 3684 2787 
Q 3425 2491 3425 1978 
L 3425 0 
L 2847 0 
L 2847 2094 
Q 2847 2600 2669 2842 
Q 2491 3084 2119 3084 
Q 1678 3084 1418 2786 
Q 1159 2488 1159 1978 
L 1159 0 
L 581 0 
L 581 3500 
L 1159 3500 
L 1159 2956 
Q 1356 3278 1631 3431 
Q 1906 3584 2284 3584 
Q 2666 3584 2933 3390 
Q 3200 3197 3328 2828 
z
" transform="scale(0.015625)"/>
       <path id="DejaVuSans-5d" d="M 1947 4863 
L 1947 -844 
L 622 -844 
L 622 -397 
L 1369 -397 
L 1369 4416 
L 622 4416 
L 622 4863 
L 1947 4863 
z
" transform="scale(0.015625)"/>
      </defs>
      <use xlink:href="#DejaVuSans-52"/>
      <use xlink:href="#DejaVuSans-61" x="67.232422"/>
      <use xlink:href="#DejaVuSans-69" x="128.511719"/>
      <use xlink:href="#DejaVuSans-6e" x="156.294922"/>
      <use xlink:href="#DejaVuSans-20" x="219.673828"/>
      <use xlink:href="#DejaVuSans-5b" x="251.460938"/>
      <use xlink:href="#DejaVuSans-6d" x="290.474609"/>
      <use xlink:href="#DejaVuSans-6d" x="387.886719"/>
      <use xlink:href="#DejaVuSans-5d" x="485.298828"/>
     </g>
    </g>
   </g>
   <g id="line2d_33">
    <path d="M 51.05 268.010213 
L 95.58108 268.010213 
L 95.70509 267.157743 
L 95.767071 267.157743 
L 95.891043 266.305274 
L 96.108002 266.305274 
L 96.232042 265.452804 
L 96.914268 265.452804 
L 97.069467 264.600335 
L 97.162353 264.600335 
L 97.286393 263.747865 
L 97.472455 263.747865 
L 97.596498 262.895396 
L 97.720541 262.895396 
L 97.844579 262.042926 
L 98.092662 262.042926 
L 98.24789 261.190456 
L 98.682144 261.190456 
L 98.806022 260.337987 
L 99.7052 260.337987 
L 99.829243 259.485517 
L 101.379756 259.485517 
L 101.503799 258.633048 
L 102.868251 258.633048 
L 102.992296 257.780578 
L 103.643743 257.780578 
L 103.767795 256.928109 
L 106.496667 256.928109 
L 106.62075 256.075639 
L 109.442468 256.075639 
L 109.566507 255.223169 
L 111.768413 255.223169 
L 111.892456 254.3707 
L 119.769055 254.3707 
L 119.893269 253.51823 
L 120.916327 253.51823 
L 121.040368 252.665761 
L 122.125895 252.665761 
L 122.250012 251.813291 
L 123.490463 251.813291 
L 123.614484 250.960822 
L 125.19575 250.960822 
L 125.319793 250.108352 
L 126.064406 250.108352 
L 126.219242 249.255883 
L 126.994361 249.255883 
L 127.118401 248.403413 
L 127.552546 248.403413 
L 127.676588 247.550943 
L 128.141996 247.550943 
L 128.265987 246.698474 
L 129.072113 246.698474 
L 129.196329 245.846004 
L 129.909332 245.846004 
L 130.033374 244.993535 
L 130.374732 244.993535 
L 130.498733 244.141065 
L 130.715602 244.141065 
L 130.870824 243.288596 
L 131.149746 243.288596 
L 131.273788 242.436126 
L 131.521872 242.436126 
L 131.67714 241.583657 
L 131.98709 241.583657 
L 132.111312 240.731187 
L 132.297388 240.731187 
L 132.42142 239.878717 
L 132.576225 239.878717 
L 132.700272 239.026248 
L 132.824313 239.026248 
L 132.948352 238.173778 
L 133.072698 238.173778 
L 133.227675 237.321309 
L 133.382497 237.321309 
L 133.506538 236.468839 
L 133.847862 236.468839 
L 133.97189 235.61637 
L 134.312811 235.61637 
L 134.436854 234.7639 
L 134.654143 234.7639 
L 134.778184 233.911431 
L 134.871002 233.911431 
L 134.995044 233.058961 
L 135.119088 233.058961 
L 135.243127 232.206491 
L 135.367169 232.206491 
L 135.522376 231.354022 
L 135.615253 231.354022 
L 135.7393 230.501552 
L 135.801322 230.501552 
L 135.925362 229.649083 
L 135.987692 229.649083 
L 136.142671 228.796613 
L 136.204719 228.796613 
L 136.32875 227.944144 
L 136.514813 227.944144 
L 136.638647 227.091674 
L 136.762875 227.091674 
L 136.886801 226.239205 
L 137.010971 226.239205 
L 137.13497 225.386735 
L 137.166117 225.386735 
L 137.289827 224.534265 
L 137.383101 224.534265 
L 137.507143 223.681796 
L 137.56915 223.681796 
L 137.69319 222.829326 
L 137.785998 222.829326 
L 137.910038 221.976857 
L 138.065321 221.976857 
L 138.189362 221.124387 
L 138.375216 221.124387 
L 138.49949 220.271918 
L 138.623465 220.271918 
L 138.747559 219.419448 
L 138.902705 219.419448 
L 139.057667 218.566978 
L 139.150451 218.566978 
L 139.274493 217.714509 
L 139.522561 217.714509 
L 139.646621 216.862039 
L 139.77066 216.862039 
L 139.8947 216.00957 
L 140.049976 216.00957 
L 140.173931 215.1571 
L 140.236079 215.1571 
L 140.360018 214.304631 
L 140.422122 214.304631 
L 140.546123 213.452161 
L 140.639315 213.452161 
L 140.794138 212.599692 
L 140.825013 212.599692 
L 140.949054 211.747222 
L 141.011074 211.747222 
L 141.135113 210.894752 
L 141.166327 210.894752 
L 141.290199 210.042283 
L 141.321177 210.042283 
L 141.445218 209.189813 
L 141.538426 209.189813 
L 141.662497 208.337344 
L 141.693302 208.337344 
L 141.817744 207.484874 
L 142.03471 205.779935 
L 142.096654 205.779935 
L 142.251486 204.074996 
L 142.375529 204.074996 
L 142.530785 203.222526 
L 142.592841 203.222526 
L 142.747654 201.517587 
L 142.840861 201.517587 
L 142.933716 200.665118 
L 143.057759 200.665118 
L 143.181801 199.812648 
L 143.213071 199.812648 
L 143.367865 198.107709 
L 143.491906 198.107709 
L 143.615946 197.25524 
L 143.709209 197.25524 
L 143.833226 196.40277 
L 143.864026 196.40277 
L 144.050091 193.845361 
L 144.112112 193.845361 
L 144.329349 192.140422 
L 144.360197 192.140422 
L 144.484237 191.287953 
L 144.515459 191.287953 
L 144.639544 190.435483 
L 144.763316 190.435483 
L 144.918381 188.730544 
L 145.073695 188.730544 
L 145.197694 187.878074 
L 145.290503 187.878074 
L 145.445748 187.025605 
L 145.538589 187.025605 
L 145.693846 185.320666 
L 145.786676 185.320666 
L 145.941742 183.615727 
L 146.158799 183.615727 
L 146.282841 182.763257 
L 146.314091 182.763257 
L 146.438127 181.910787 
L 146.530925 181.910787 
L 146.654966 181.058318 
L 146.68612 181.058318 
L 146.810134 180.205848 
L 146.841033 180.205848 
L 146.965071 179.353379 
L 147.120165 179.353379 
L 147.244361 178.500909 
L 147.368418 178.500909 
L 147.492474 177.64844 
L 147.55449 177.64844 
L 147.678296 176.79597 
L 147.740454 176.79597 
L 147.864508 175.943501 
L 148.050677 175.943501 
L 148.174658 175.091031 
L 148.298585 175.091031 
L 148.422835 174.238561 
L 148.515597 174.238561 
L 148.63964 173.386092 
L 148.70166 173.386092 
L 148.856721 171.681153 
L 148.949745 171.681153 
L 149.073789 170.828683 
L 149.104953 170.828683 
L 149.229098 169.976214 
L 149.291075 169.976214 
L 149.445915 168.271275 
L 149.569957 168.271275 
L 149.693999 167.418805 
L 149.787256 167.418805 
L 149.911265 166.566335 
L 149.942084 166.566335 
L 150.097307 165.713866 
L 150.128146 165.713866 
L 150.252189 164.861396 
L 150.31421 164.861396 
L 150.469506 163.156457 
L 150.624314 163.156457 
L 150.74836 162.303988 
L 150.779597 162.303988 
L 150.903661 161.451518 
L 150.965577 161.451518 
L 151.120486 159.746579 
L 151.337823 159.746579 
L 151.46185 158.894109 
L 151.523852 158.894109 
L 151.647879 158.04164 
L 151.802714 158.04164 
L 151.926756 157.18917 
L 152.112823 157.18917 
L 152.236864 156.336701 
L 152.268092 156.336701 
L 152.392003 155.484231 
L 152.454162 155.484231 
L 152.578133 154.631762 
L 152.73303 154.631762 
L 152.857071 153.779292 
L 152.950137 153.779292 
L 153.074407 152.926822 
L 153.136427 152.926822 
L 153.291219 151.221883 
L 153.663346 151.221883 
L 153.787387 150.369414 
L 153.849407 150.369414 
L 153.97345 149.516944 
L 154.035474 149.516944 
L 154.190719 148.664475 
L 154.31482 148.664475 
L 154.438851 147.812005 
L 154.810977 147.812005 
L 154.934943 146.959536 
L 155.183044 146.959536 
L 155.306985 146.107066 
L 155.679291 146.107066 
L 155.772059 145.254596 
L 155.958122 145.254596 
L 156.082165 144.402127 
L 156.23739 144.402127 
L 156.361402 143.549657 
L 162.78042 143.549657 
L 162.935674 142.697188 
L 163.0285 142.697188 
L 163.152545 141.844718 
L 163.276586 141.844718 
L 163.401013 140.992249 
L 163.493809 140.992249 
L 163.617899 140.139779 
L 163.741998 140.139779 
L 163.866008 139.28731 
L 163.959216 139.28731 
L 164.114101 138.43484 
L 164.268922 138.43484 
L 164.392962 137.58237 
L 164.517005 137.58237 
L 164.672233 136.729901 
L 164.858322 136.729901 
L 164.982299 135.877431 
L 165.106471 135.877431 
L 165.230366 135.024962 
L 165.447318 135.024962 
L 165.571361 134.172492 
L 165.695402 134.172492 
L 165.850658 133.320023 
L 165.881465 133.320023 
L 166.005507 132.467553 
L 166.253592 132.467553 
L 166.408793 131.615084 
L 166.874086 131.615084 
L 167.029054 130.762614 
L 170.036865 130.762614 
L 170.160908 129.910144 
L 170.284948 129.910144 
L 170.4093 129.057675 
L 170.595057 129.057675 
L 170.719095 128.205205 
L 170.874354 128.205205 
L 170.998185 127.352736 
L 171.184433 127.352736 
L 171.308489 126.500266 
L 171.370536 126.500266 
L 171.494553 125.647797 
L 171.525687 125.647797 
L 171.680597 124.795327 
L 171.866721 124.795327 
L 171.990723 123.942857 
L 172.176611 123.942857 
L 172.300861 123.090388 
L 172.57972 123.090388 
L 172.7041 122.237918 
L 172.859056 122.237918 
L 172.983076 121.385449 
L 173.851294 121.385449 
L 173.975326 120.532979 
L 174.25429 120.532979 
L 174.378332 119.68051 
L 174.564397 119.68051 
L 174.688436 118.82804 
L 174.71959 118.82804 
L 174.874498 117.123101 
L 174.967729 117.123101 
L 175.15375 114.565692 
L 175.246621 114.565692 
L 175.370664 113.713223 
L 175.401889 113.713223 
L 175.556727 112.008284 
L 175.680769 112.008284 
L 175.804812 111.155814 
L 175.835986 111.155814 
L 175.960054 110.303345 
L 176.084175 110.303345 
L 176.239377 108.598405 
L 176.270014 108.598405 
L 176.425019 106.893466 
L 176.487043 106.893466 
L 176.642191 105.188527 
L 176.673103 105.188527 
L 176.797538 104.336058 
L 176.859166 104.336058 
L 176.983205 103.483588 
L 177.23129 103.483588 
L 177.355333 102.631119 
L 177.510592 101.778649 
L 177.541398 101.778649 
L 177.66544 100.926179 
L 177.851498 100.926179 
L 177.975821 100.07371 
L 189.015283 100.07371 
L 189.170531 99.22124 
L 262.076091 99.22124 
L 262.200133 98.368771 
L 264.991083 98.368771 
L 265.115127 97.516301 
L 266.107464 97.516301 
L 266.231506 96.663832 
L 266.851717 96.663832 
L 266.975759 95.811362 
L 267.595969 95.811362 
L 267.72038 94.958892 
L 268.278563 94.958892 
L 268.433484 94.106423 
L 268.929476 94.106423 
L 269.0536 93.253953 
L 292.776595 93.253953 
L 292.900638 92.401484 
L 293.52085 92.401484 
L 293.644892 91.549014 
L 294.203082 91.549014 
L 294.327128 90.696545 
L 294.792539 90.696545 
L 294.916617 89.844075 
L 295.443503 89.844075 
L 295.567547 88.991606 
L 295.877655 88.991606 
L 296.001694 88.139136 
L 296.249779 88.139136 
L 296.374204 87.286666 
L 296.715192 87.286666 
L 296.839222 86.434197 
L 297.211346 86.434197 
L 297.335335 85.581727 
L 297.707467 85.581727 
L 297.83152 84.729258 
L 298.234454 84.729258 
L 298.358497 83.876788 
L 298.668603 83.876788 
L 298.823833 83.024319 
L 299.040724 83.024319 
L 299.164768 82.171849 
L 299.381965 82.171849 
L 299.50611 81.31938 
L 299.568125 81.31938 
L 299.692054 80.46691 
L 299.909016 80.46691 
L 300.03306 79.61444 
L 300.126371 79.61444 
L 300.250365 78.761971 
L 300.281146 78.761971 
L 300.405184 77.909501 
L 300.498229 77.909501 
L 300.622468 77.057032 
L 300.684505 77.057032 
L 300.808541 76.204562 
L 300.839331 76.204562 
L 300.994649 74.499623 
L 301.087418 74.499623 
L 301.211457 73.647154 
L 301.242691 73.647154 
L 301.397518 71.942214 
L 301.428803 71.942214 
L 301.583581 70.237275 
L 302.048934 65.122458 
L 302.079746 65.122458 
L 302.265807 62.565049 
L 302.32783 62.565049 
L 302.513889 60.007641 
L 302.575914 60.007641 
L 302.731227 58.302701 
L 302.761974 58.302701 
L 302.979269 56.597762 
L 303.010056 56.597762 
L 303.165297 54.892823 
L 303.320162 54.892823 
L 303.475359 54.040354 
L 392.785463 54.040354 
L 392.909434 53.187884 
L 405.933899 53.187884 
L 406.057992 52.335415 
L 406.98836 52.335415 
L 407.112396 51.482945 
L 407.577299 51.482945 
L 407.70134 50.630475 
L 407.856644 50.630475 
L 408.011775 48.925536 
L 408.166697 48.925536 
L 408.290657 48.073067 
L 408.383569 48.073067 
L 408.507607 47.220597 
L 408.56998 47.220597 
L 408.78695 45.515658 
L 408.879738 45.515658 
L 409.003777 44.663189 
L 409.035037 44.663189 
L 409.12782 43.810719 
L 409.251859 43.810719 
L 409.375906 42.958249 
L 409.686014 42.958249 
L 409.841178 42.10578 
L 412.725039 42.10578 
L 412.849081 41.25331 
L 413.34525 41.25331 
L 413.469291 40.400841 
L 413.59333 40.400841 
L 413.717375 39.548371 
L 413.96546 39.548371 
L 414.089501 38.695902 
L 414.864953 38.695902 
L 414.957798 37.843432 
L 434.587519 37.843432 
L 434.711655 36.990963 
L 450 36.990963 
L 450 36.990963 
" clip-path="url(#pc7f9c21efc)" style="fill: none; stroke: #9467bd; stroke-width: 1.5; stroke-linecap: square"/>
   </g>
   <g id="patch_3">
    <path d="M 51.05 279.561175 
L 51.05 25.44 
" style="fill: none; stroke: #000000; stroke-width: 0.8; stroke-linejoin: miter; stroke-linecap: square"/>
   </g>
   <g id="patch_4">
    <path d="M 450 279.561175 
L 450 25.44 
" style="fill: none; stroke: #000000; stroke-width: 0.8; stroke-linejoin: miter; stroke-linecap: square"/>
   </g>
   <g id="patch_5">
    <path d="M 51.05 279.561175 
L 450 279.561175 
" style="fill: none; stroke: #000000; stroke-width: 0.8; stroke-linejoin: miter; stroke-linecap: square"/>
   </g>
   <g id="patch_6">
    <path d="M 51.05 25.44 
L 450 25.44 
" style="fill: none; stroke: #000000; stroke-width: 0.8; stroke-linejoin: miter; stroke-linecap: square"/>
   </g>
   <g id="text_18">
    <!-- November 2023 -->
    <g transform="translate(202.133125 19.44) scale(0.12 -0.12)">
     <defs>
      <path id="DejaVuSans-4e" d="M 628 4666 
L 1478 4666 
L 3547 763 
L 3547 4666 
L 4159 4666 
L 4159 0 
L 3309 0 
L 1241 3903 
L 1241 0 
L 628 0 
L 628 4666 
z
" transform="scale(0.015625)"/>
      <path id="DejaVuSans-6f" d="M 1959 3097 
Q 1497 3097 1228 2736 
Q 959 2375 959 1747 
Q 959 1119 1226 758 
Q 1494 397 1959 397 
Q 2419 397 2687 759 
Q 2956 1122 2956 1747 
Q 2956 2369 2687 2733 
Q 2419 3097 1959 3097 
z
M 1959 3584 
Q 2709 3584 3137 3096 
Q 3566 2609 3566 1747 
Q 3566 888 3137 398 
Q 2709 -91 1959 -91 
Q 1206 -91 779 398 
Q 353 888 353 1747 
Q 353 2609 779 3096 
Q 1206 3584 1959 3584 
z
" transform="scale(0.015625)"/>
      <path id="DejaVuSans-76" d="M 191 3500 
L 800 3500 
L 1894 563 
L 2988 3500 
L 3597 3500 
L 2284 0 
L 1503 0 
L 191 3500 
z
" transform="scale(0.015625)"/>
      <path id="DejaVuSans-65" d="M 3597 1894 
L 3597 1613 
L 953 1613 
Q 991 1019 1311 708 
Q 1631 397 2203 397 
Q 2534 397 2845 478 
Q 3156 559 3463 722 
L 3463 178 
Q 3153 47 2828 -22 
Q 2503 -91 2169 -91 
Q 1331 -91 842 396 
Q 353 884 353 1716 
Q 353 2575 817 3079 
Q 1281 3584 2069 3584 
Q 2775 3584 3186 3129 
Q 3597 2675 3597 1894 
z
M 3022 2063 
Q 3016 2534 2758 2815 
Q 2500 3097 2075 3097 
Q 1594 3097 1305 2825 
Q 1016 2553 972 2059 
L 3022 2063 
z
" transform="scale(0.015625)"/>
      <path id="DejaVuSans-62" d="M 3116 1747 
Q 3116 2381 2855 2742 
Q 2594 3103 2138 3103 
Q 1681 3103 1420 2742 
Q 1159 2381 1159 1747 
Q 1159 1113 1420 752 
Q 1681 391 2138 391 
Q 2594 391 2855 752 
Q 3116 1113 3116 1747 
z
M 1159 2969 
Q 1341 3281 1617 3432 
Q 1894 3584 2278 3584 
Q 2916 3584 3314 3078 
Q 3713 2572 3713 1747 
Q 3713 922 3314 415 
Q 2916 -91 2278 -91 
Q 1894 -91 1617 61 
Q 1341 213 1159 525 
L 1159 0 
L 581 0 
L 581 4863 
L 1159 4863 
L 1159 2969 
z
" transform="scale(0.015625)"/>
      <path id="DejaVuSans-72" d="M 2631 2963 
Q 2534 3019 2420 3045 
Q 2306 3072 2169 3072 
Q 1681 3072 1420 2755 
Q 1159 2438 1159 1844 
L 1159 0 
L 581 0 
L 581 3500 
L 1159 3500 
L 1159 2956 
Q 1341 3275 1631 3429 
Q 1922 3584 2338 3584 
Q 2397 3584 2469 3576 
Q 2541 3569 2628 3553 
L 2631 2963 
z
" transform="scale(0.015625)"/>
     </defs>
     <use xlink:href="#DejaVuSans-4e"/>
     <use xlink:href="#DejaVuSans-6f" x="74.804688"/>
     <use xlink:href="#DejaVuSans-76" x="135.986328"/>
     <use xlink:href="#DejaVuSans-65" x="195.166016"/>
     <use xlink:href="#DejaVuSans-6d" x="256.689453"/>
     <use xlink:href="#DejaVuSans-62" x="354.101562"/>
     <use xlink:href="#DejaVuSans-65" x="417.578125"/>
     <use xlink:href="#DejaVuSans-72" x="479.101562"/>
     <use xlink:href="#DejaVuSans-20" x="520.214844"/>
     <use xlink:href="#DejaVuSans-32" x="552.001953"/>
     <use xlink:href="#DejaVuSans-30" x="615.625"/>
     <use xlink:href="#DejaVuSans-32" x="679.248047"/>
     <use xlink:href="#DejaVuSans-33" x="742.871094"/>
    </g>
   </g>
  </g>
 </g>
 <defs>
  <clipPath id="pc7f9c21efc">
   <rect x="51.05" y="25.44" width="398.95" height="254.121175"/>
  </clipPath>
 </defs>
</svg>
