<?xml version="1.0" encoding="utf-8" standalone="no"?>
<!DOCTYPE svg PUBLIC "-//W3C//DTD SVG 1.1//EN"
  "http://www.w3.org/Graphics/SVG/1.1/DTD/svg11.dtd">
<svg xmlns:xlink="http://www.w3.org/1999/xlink" width="460.8pt" height="345.6pt" viewBox="0 0 460.8 345.6" xmlns="http://www.w3.org/2000/svg" version="1.1">
 <metadata>
  <rdf:RDF xmlns:dc="http://purl.org/dc/elements/1.1/" xmlns:cc="http://creativecommons.org/ns#" xmlns:rdf="http://www.w3.org/1999/02/22-rdf-syntax-ns#">
   <cc:Work>
    <dc:type rdf:resource="http://purl.org/dc/dcmitype/StillImage"/>
    <dc:date>2023-11-08T07:34:23.870404</dc:date>
    <dc:format>image/svg+xml</dc:format>
    <dc:creator>
     <cc:Agent>
      <dc:title>Matplotlib v3.6.3, https://matplotlib.org/</dc:title>
     </cc:Agent>
    </dc:creator>
   </cc:Work>
  </rdf:RDF>
 </metadata>
 <defs>
  <style type="text/css">*{stroke-linejoin: round; stroke-linecap: butt}</style>
 </defs>
 <g id="figure_1">
  <g id="patch_1">
   <path d="M 0 345.6 
L 460.8 345.6 
L 460.8 0 
L 0 0 
z
" style="fill: #ffffff"/>
  </g>
  <g id="axes_1">
   <g id="patch_2">
    <path d="M 46.46 279.561175 
L 450 279.561175 
L 450 25.44 
L 46.46 25.44 
z
" style="fill: #ffffff"/>
   </g>
   <g id="matplotlib.axis_1">
    <g id="xtick_1">
     <g id="line2d_1">
      <path d="M 101.60564 279.561175 
L 101.60564 25.44 
" clip-path="url(#p7e6ecd3387)" style="fill: none; stroke: #b0b0b0; stroke-width: 0.8; stroke-linecap: square"/>
     </g>
     <g id="line2d_2">
      <defs>
       <path id="mecd2377db5" d="M 0 0 
L 0 3.5 
" style="stroke: #000000; stroke-width: 0.8"/>
      </defs>
      <g>
       <use xlink:href="#mecd2377db5" x="101.60564" y="279.561175" style="stroke: #000000; stroke-width: 0.8"/>
      </g>
     </g>
     <g id="text_1">
      <!-- 2023-11-02 -->
      <g transform="translate(59.041126 333.028035) rotate(-45) scale(0.1 -0.1)">
       <defs>
        <path id="DejaVuSans-32" d="M 1228 531 
L 3431 531 
L 3431 0 
L 469 0 
L 469 531 
Q 828 903 1448 1529 
Q 2069 2156 2228 2338 
Q 2531 2678 2651 2914 
Q 2772 3150 2772 3378 
Q 2772 3750 2511 3984 
Q 2250 4219 1831 4219 
Q 1534 4219 1204 4116 
Q 875 4013 500 3803 
L 500 4441 
Q 881 4594 1212 4672 
Q 1544 4750 1819 4750 
Q 2544 4750 2975 4387 
Q 3406 4025 3406 3419 
Q 3406 3131 3298 2873 
Q 3191 2616 2906 2266 
Q 2828 2175 2409 1742 
Q 1991 1309 1228 531 
z
" transform="scale(0.015625)"/>
        <path id="DejaVuSans-30" d="M 2034 4250 
Q 1547 4250 1301 3770 
Q 1056 3291 1056 2328 
Q 1056 1369 1301 889 
Q 1547 409 2034 409 
Q 2525 409 2770 889 
Q 3016 1369 3016 2328 
Q 3016 3291 2770 3770 
Q 2525 4250 2034 4250 
z
M 2034 4750 
Q 2819 4750 3233 4129 
Q 3647 3509 3647 2328 
Q 3647 1150 3233 529 
Q 2819 -91 2034 -91 
Q 1250 -91 836 529 
Q 422 1150 422 2328 
Q 422 3509 836 4129 
Q 1250 4750 2034 4750 
z
" transform="scale(0.015625)"/>
        <path id="DejaVuSans-33" d="M 2597 2516 
Q 3050 2419 3304 2112 
Q 3559 1806 3559 1356 
Q 3559 666 3084 287 
Q 2609 -91 1734 -91 
Q 1441 -91 1130 -33 
Q 819 25 488 141 
L 488 750 
Q 750 597 1062 519 
Q 1375 441 1716 441 
Q 2309 441 2620 675 
Q 2931 909 2931 1356 
Q 2931 1769 2642 2001 
Q 2353 2234 1838 2234 
L 1294 2234 
L 1294 2753 
L 1863 2753 
Q 2328 2753 2575 2939 
Q 2822 3125 2822 3475 
Q 2822 3834 2567 4026 
Q 2313 4219 1838 4219 
Q 1578 4219 1281 4162 
Q 984 4106 628 3988 
L 628 4550 
Q 988 4650 1302 4700 
Q 1616 4750 1894 4750 
Q 2613 4750 3031 4423 
Q 3450 4097 3450 3541 
Q 3450 3153 3228 2886 
Q 3006 2619 2597 2516 
z
" transform="scale(0.015625)"/>
        <path id="DejaVuSans-2d" d="M 313 2009 
L 1997 2009 
L 1997 1497 
L 313 1497 
L 313 2009 
z
" transform="scale(0.015625)"/>
        <path id="DejaVuSans-31" d="M 794 531 
L 1825 531 
L 1825 4091 
L 703 3866 
L 703 4441 
L 1819 4666 
L 2450 4666 
L 2450 531 
L 3481 531 
L 3481 0 
L 794 0 
L 794 531 
z
" transform="scale(0.015625)"/>
       </defs>
       <use xlink:href="#DejaVuSans-32"/>
       <use xlink:href="#DejaVuSans-30" x="63.623047"/>
       <use xlink:href="#DejaVuSans-32" x="127.246094"/>
       <use xlink:href="#DejaVuSans-33" x="190.869141"/>
       <use xlink:href="#DejaVuSans-2d" x="254.492188"/>
       <use xlink:href="#DejaVuSans-31" x="290.576172"/>
       <use xlink:href="#DejaVuSans-31" x="354.199219"/>
       <use xlink:href="#DejaVuSans-2d" x="417.822266"/>
       <use xlink:href="#DejaVuSans-30" x="453.90625"/>
       <use xlink:href="#DejaVuSans-32" x="517.529297"/>
      </g>
     </g>
    </g>
    <g id="xtick_2">
     <g id="line2d_3">
      <path d="M 156.780633 279.561175 
L 156.780633 25.44 
" clip-path="url(#p7e6ecd3387)" style="fill: none; stroke: #b0b0b0; stroke-width: 0.8; stroke-linecap: square"/>
     </g>
     <g id="line2d_4">
      <g>
       <use xlink:href="#mecd2377db5" x="156.780633" y="279.561175" style="stroke: #000000; stroke-width: 0.8"/>
      </g>
     </g>
     <g id="text_2">
      <!-- 2023-11-03 -->
      <g transform="translate(114.21612 333.028035) rotate(-45) scale(0.1 -0.1)">
       <use xlink:href="#DejaVuSans-32"/>
       <use xlink:href="#DejaVuSans-30" x="63.623047"/>
       <use xlink:href="#DejaVuSans-32" x="127.246094"/>
       <use xlink:href="#DejaVuSans-33" x="190.869141"/>
       <use xlink:href="#DejaVuSans-2d" x="254.492188"/>
       <use xlink:href="#DejaVuSans-31" x="290.576172"/>
       <use xlink:href="#DejaVuSans-31" x="354.199219"/>
       <use xlink:href="#DejaVuSans-2d" x="417.822266"/>
       <use xlink:href="#DejaVuSans-30" x="453.90625"/>
       <use xlink:href="#DejaVuSans-33" x="517.529297"/>
      </g>
     </g>
    </g>
    <g id="xtick_3">
     <g id="line2d_5">
      <path d="M 211.955627 279.561175 
L 211.955627 25.44 
" clip-path="url(#p7e6ecd3387)" style="fill: none; stroke: #b0b0b0; stroke-width: 0.8; stroke-linecap: square"/>
     </g>
     <g id="line2d_6">
      <g>
       <use xlink:href="#mecd2377db5" x="211.955627" y="279.561175" style="stroke: #000000; stroke-width: 0.8"/>
      </g>
     </g>
     <g id="text_3">
      <!-- 2023-11-04 -->
      <g transform="translate(169.391113 333.028035) rotate(-45) scale(0.1 -0.1)">
       <defs>
        <path id="DejaVuSans-34" d="M 2419 4116 
L 825 1625 
L 2419 1625 
L 2419 4116 
z
M 2253 4666 
L 3047 4666 
L 3047 1625 
L 3713 1625 
L 3713 1100 
L 3047 1100 
L 3047 0 
L 2419 0 
L 2419 1100 
L 313 1100 
L 313 1709 
L 2253 4666 
z
" transform="scale(0.015625)"/>
       </defs>
       <use xlink:href="#DejaVuSans-32"/>
       <use xlink:href="#DejaVuSans-30" x="63.623047"/>
       <use xlink:href="#DejaVuSans-32" x="127.246094"/>
       <use xlink:href="#DejaVuSans-33" x="190.869141"/>
       <use xlink:href="#DejaVuSans-2d" x="254.492188"/>
       <use xlink:href="#DejaVuSans-31" x="290.576172"/>
       <use xlink:href="#DejaVuSans-31" x="354.199219"/>
       <use xlink:href="#DejaVuSans-2d" x="417.822266"/>
       <use xlink:href="#DejaVuSans-30" x="453.90625"/>
       <use xlink:href="#DejaVuSans-34" x="517.529297"/>
      </g>
     </g>
    </g>
    <g id="xtick_4">
     <g id="line2d_7">
      <path d="M 267.13062 279.561175 
L 267.13062 25.44 
" clip-path="url(#p7e6ecd3387)" style="fill: none; stroke: #b0b0b0; stroke-width: 0.8; stroke-linecap: square"/>
     </g>
     <g id="line2d_8">
      <g>
       <use xlink:href="#mecd2377db5" x="267.13062" y="279.561175" style="stroke: #000000; stroke-width: 0.8"/>
      </g>
     </g>
     <g id="text_4">
      <!-- 2023-11-05 -->
      <g transform="translate(224.566107 333.028035) rotate(-45) scale(0.1 -0.1)">
       <defs>
        <path id="DejaVuSans-35" d="M 691 4666 
L 3169 4666 
L 3169 4134 
L 1269 4134 
L 1269 2991 
Q 1406 3038 1543 3061 
Q 1681 3084 1819 3084 
Q 2600 3084 3056 2656 
Q 3513 2228 3513 1497 
Q 3513 744 3044 326 
Q 2575 -91 1722 -91 
Q 1428 -91 1123 -41 
Q 819 9 494 109 
L 494 744 
Q 775 591 1075 516 
Q 1375 441 1709 441 
Q 2250 441 2565 725 
Q 2881 1009 2881 1497 
Q 2881 1984 2565 2268 
Q 2250 2553 1709 2553 
Q 1456 2553 1204 2497 
Q 953 2441 691 2322 
L 691 4666 
z
" transform="scale(0.015625)"/>
       </defs>
       <use xlink:href="#DejaVuSans-32"/>
       <use xlink:href="#DejaVuSans-30" x="63.623047"/>
       <use xlink:href="#DejaVuSans-32" x="127.246094"/>
       <use xlink:href="#DejaVuSans-33" x="190.869141"/>
       <use xlink:href="#DejaVuSans-2d" x="254.492188"/>
       <use xlink:href="#DejaVuSans-31" x="290.576172"/>
       <use xlink:href="#DejaVuSans-31" x="354.199219"/>
       <use xlink:href="#DejaVuSans-2d" x="417.822266"/>
       <use xlink:href="#DejaVuSans-30" x="453.90625"/>
       <use xlink:href="#DejaVuSans-35" x="517.529297"/>
      </g>
     </g>
    </g>
    <g id="xtick_5">
     <g id="line2d_9">
      <path d="M 322.305614 279.561175 
L 322.305614 25.44 
" clip-path="url(#p7e6ecd3387)" style="fill: none; stroke: #b0b0b0; stroke-width: 0.8; stroke-linecap: square"/>
     </g>
     <g id="line2d_10">
      <g>
       <use xlink:href="#mecd2377db5" x="322.305614" y="279.561175" style="stroke: #000000; stroke-width: 0.8"/>
      </g>
     </g>
     <g id="text_5">
      <!-- 2023-11-06 -->
      <g transform="translate(279.7411 333.028035) rotate(-45) scale(0.1 -0.1)">
       <defs>
        <path id="DejaVuSans-36" d="M 2113 2584 
Q 1688 2584 1439 2293 
Q 1191 2003 1191 1497 
Q 1191 994 1439 701 
Q 1688 409 2113 409 
Q 2538 409 2786 701 
Q 3034 994 3034 1497 
Q 3034 2003 2786 2293 
Q 2538 2584 2113 2584 
z
M 3366 4563 
L 3366 3988 
Q 3128 4100 2886 4159 
Q 2644 4219 2406 4219 
Q 1781 4219 1451 3797 
Q 1122 3375 1075 2522 
Q 1259 2794 1537 2939 
Q 1816 3084 2150 3084 
Q 2853 3084 3261 2657 
Q 3669 2231 3669 1497 
Q 3669 778 3244 343 
Q 2819 -91 2113 -91 
Q 1303 -91 875 529 
Q 447 1150 447 2328 
Q 447 3434 972 4092 
Q 1497 4750 2381 4750 
Q 2619 4750 2861 4703 
Q 3103 4656 3366 4563 
z
" transform="scale(0.015625)"/>
       </defs>
       <use xlink:href="#DejaVuSans-32"/>
       <use xlink:href="#DejaVuSans-30" x="63.623047"/>
       <use xlink:href="#DejaVuSans-32" x="127.246094"/>
       <use xlink:href="#DejaVuSans-33" x="190.869141"/>
       <use xlink:href="#DejaVuSans-2d" x="254.492188"/>
       <use xlink:href="#DejaVuSans-31" x="290.576172"/>
       <use xlink:href="#DejaVuSans-31" x="354.199219"/>
       <use xlink:href="#DejaVuSans-2d" x="417.822266"/>
       <use xlink:href="#DejaVuSans-30" x="453.90625"/>
       <use xlink:href="#DejaVuSans-36" x="517.529297"/>
      </g>
     </g>
    </g>
    <g id="xtick_6">
     <g id="line2d_11">
      <path d="M 377.480607 279.561175 
L 377.480607 25.44 
" clip-path="url(#p7e6ecd3387)" style="fill: none; stroke: #b0b0b0; stroke-width: 0.8; stroke-linecap: square"/>
     </g>
     <g id="line2d_12">
      <g>
       <use xlink:href="#mecd2377db5" x="377.480607" y="279.561175" style="stroke: #000000; stroke-width: 0.8"/>
      </g>
     </g>
     <g id="text_6">
      <!-- 2023-11-07 -->
      <g transform="translate(334.916094 333.028035) rotate(-45) scale(0.1 -0.1)">
       <defs>
        <path id="DejaVuSans-37" d="M 525 4666 
L 3525 4666 
L 3525 4397 
L 1831 0 
L 1172 0 
L 2766 4134 
L 525 4134 
L 525 4666 
z
" transform="scale(0.015625)"/>
       </defs>
       <use xlink:href="#DejaVuSans-32"/>
       <use xlink:href="#DejaVuSans-30" x="63.623047"/>
       <use xlink:href="#DejaVuSans-32" x="127.246094"/>
       <use xlink:href="#DejaVuSans-33" x="190.869141"/>
       <use xlink:href="#DejaVuSans-2d" x="254.492188"/>
       <use xlink:href="#DejaVuSans-31" x="290.576172"/>
       <use xlink:href="#DejaVuSans-31" x="354.199219"/>
       <use xlink:href="#DejaVuSans-2d" x="417.822266"/>
       <use xlink:href="#DejaVuSans-30" x="453.90625"/>
       <use xlink:href="#DejaVuSans-37" x="517.529297"/>
      </g>
     </g>
    </g>
    <g id="xtick_7">
     <g id="line2d_13">
      <path d="M 432.655601 279.561175 
L 432.655601 25.44 
" clip-path="url(#p7e6ecd3387)" style="fill: none; stroke: #b0b0b0; stroke-width: 0.8; stroke-linecap: square"/>
     </g>
     <g id="line2d_14">
      <g>
       <use xlink:href="#mecd2377db5" x="432.655601" y="279.561175" style="stroke: #000000; stroke-width: 0.8"/>
      </g>
     </g>
     <g id="text_7">
      <!-- 2023-11-08 -->
      <g transform="translate(390.091087 333.028035) rotate(-45) scale(0.1 -0.1)">
       <defs>
        <path id="DejaVuSans-38" d="M 2034 2216 
Q 1584 2216 1326 1975 
Q 1069 1734 1069 1313 
Q 1069 891 1326 650 
Q 1584 409 2034 409 
Q 2484 409 2743 651 
Q 3003 894 3003 1313 
Q 3003 1734 2745 1975 
Q 2488 2216 2034 2216 
z
M 1403 2484 
Q 997 2584 770 2862 
Q 544 3141 544 3541 
Q 544 4100 942 4425 
Q 1341 4750 2034 4750 
Q 2731 4750 3128 4425 
Q 3525 4100 3525 3541 
Q 3525 3141 3298 2862 
Q 3072 2584 2669 2484 
Q 3125 2378 3379 2068 
Q 3634 1759 3634 1313 
Q 3634 634 3220 271 
Q 2806 -91 2034 -91 
Q 1263 -91 848 271 
Q 434 634 434 1313 
Q 434 1759 690 2068 
Q 947 2378 1403 2484 
z
M 1172 3481 
Q 1172 3119 1398 2916 
Q 1625 2713 2034 2713 
Q 2441 2713 2670 2916 
Q 2900 3119 2900 3481 
Q 2900 3844 2670 4047 
Q 2441 4250 2034 4250 
Q 1625 4250 1398 4047 
Q 1172 3844 1172 3481 
z
" transform="scale(0.015625)"/>
       </defs>
       <use xlink:href="#DejaVuSans-32"/>
       <use xlink:href="#DejaVuSans-30" x="63.623047"/>
       <use xlink:href="#DejaVuSans-32" x="127.246094"/>
       <use xlink:href="#DejaVuSans-33" x="190.869141"/>
       <use xlink:href="#DejaVuSans-2d" x="254.492188"/>
       <use xlink:href="#DejaVuSans-31" x="290.576172"/>
       <use xlink:href="#DejaVuSans-31" x="354.199219"/>
       <use xlink:href="#DejaVuSans-2d" x="417.822266"/>
       <use xlink:href="#DejaVuSans-30" x="453.90625"/>
       <use xlink:href="#DejaVuSans-38" x="517.529297"/>
      </g>
     </g>
    </g>
   </g>
   <g id="matplotlib.axis_2">
    <g id="ytick_1">
     <g id="line2d_15">
      <path d="M 46.46 253.008963 
L 450 253.008963 
" clip-path="url(#p7e6ecd3387)" style="fill: none; stroke: #b0b0b0; stroke-width: 0.8; stroke-linecap: square"/>
     </g>
     <g id="line2d_16">
      <defs>
       <path id="m2daae9c026" d="M 0 0 
L -3.5 0 
" style="stroke: #000000; stroke-width: 0.8"/>
      </defs>
      <g>
       <use xlink:href="#m2daae9c026" x="46.46" y="253.008963" style="stroke: #000000; stroke-width: 0.8"/>
      </g>
     </g>
     <g id="text_8">
      <!-- 0 -->
      <g transform="translate(33.0975 256.808182) scale(0.1 -0.1)">
       <use xlink:href="#DejaVuSans-30"/>
      </g>
     </g>
    </g>
    <g id="ytick_2">
     <g id="line2d_17">
      <path d="M 46.46 223.006463 
L 450 223.006463 
" clip-path="url(#p7e6ecd3387)" style="fill: none; stroke: #b0b0b0; stroke-width: 0.8; stroke-linecap: square"/>
     </g>
     <g id="line2d_18">
      <g>
       <use xlink:href="#m2daae9c026" x="46.46" y="223.006463" style="stroke: #000000; stroke-width: 0.8"/>
      </g>
     </g>
     <g id="text_9">
      <!-- 2 -->
      <g transform="translate(33.0975 226.805682) scale(0.1 -0.1)">
       <use xlink:href="#DejaVuSans-32"/>
      </g>
     </g>
    </g>
    <g id="ytick_3">
     <g id="line2d_19">
      <path d="M 46.46 193.003963 
L 450 193.003963 
" clip-path="url(#p7e6ecd3387)" style="fill: none; stroke: #b0b0b0; stroke-width: 0.8; stroke-linecap: square"/>
     </g>
     <g id="line2d_20">
      <g>
       <use xlink:href="#m2daae9c026" x="46.46" y="193.003963" style="stroke: #000000; stroke-width: 0.8"/>
      </g>
     </g>
     <g id="text_10">
      <!-- 4 -->
      <g transform="translate(33.0975 196.803182) scale(0.1 -0.1)">
       <use xlink:href="#DejaVuSans-34"/>
      </g>
     </g>
    </g>
    <g id="ytick_4">
     <g id="line2d_21">
      <path d="M 46.46 163.001463 
L 450 163.001463 
" clip-path="url(#p7e6ecd3387)" style="fill: none; stroke: #b0b0b0; stroke-width: 0.8; stroke-linecap: square"/>
     </g>
     <g id="line2d_22">
      <g>
       <use xlink:href="#m2daae9c026" x="46.46" y="163.001463" style="stroke: #000000; stroke-width: 0.8"/>
      </g>
     </g>
     <g id="text_11">
      <!-- 6 -->
      <g transform="translate(33.0975 166.800681) scale(0.1 -0.1)">
       <use xlink:href="#DejaVuSans-36"/>
      </g>
     </g>
    </g>
    <g id="ytick_5">
     <g id="line2d_23">
      <path d="M 46.46 132.998963 
L 450 132.998963 
" clip-path="url(#p7e6ecd3387)" style="fill: none; stroke: #b0b0b0; stroke-width: 0.8; stroke-linecap: square"/>
     </g>
     <g id="line2d_24">
      <g>
       <use xlink:href="#m2daae9c026" x="46.46" y="132.998963" style="stroke: #000000; stroke-width: 0.8"/>
      </g>
     </g>
     <g id="text_12">
      <!-- 8 -->
      <g transform="translate(33.0975 136.798181) scale(0.1 -0.1)">
       <use xlink:href="#DejaVuSans-38"/>
      </g>
     </g>
    </g>
    <g id="ytick_6">
     <g id="line2d_25">
      <path d="M 46.46 102.996463 
L 450 102.996463 
" clip-path="url(#p7e6ecd3387)" style="fill: none; stroke: #b0b0b0; stroke-width: 0.8; stroke-linecap: square"/>
     </g>
     <g id="line2d_26">
      <g>
       <use xlink:href="#m2daae9c026" x="46.46" y="102.996463" style="stroke: #000000; stroke-width: 0.8"/>
      </g>
     </g>
     <g id="text_13">
      <!-- 10 -->
      <g transform="translate(26.735 106.795681) scale(0.1 -0.1)">
       <use xlink:href="#DejaVuSans-31"/>
       <use xlink:href="#DejaVuSans-30" x="63.623047"/>
      </g>
     </g>
    </g>
    <g id="ytick_7">
     <g id="line2d_27">
      <path d="M 46.46 72.993963 
L 450 72.993963 
" clip-path="url(#p7e6ecd3387)" style="fill: none; stroke: #b0b0b0; stroke-width: 0.8; stroke-linecap: square"/>
     </g>
     <g id="line2d_28">
      <g>
       <use xlink:href="#m2daae9c026" x="46.46" y="72.993963" style="stroke: #000000; stroke-width: 0.8"/>
      </g>
     </g>
     <g id="text_14">
      <!-- 12 -->
      <g transform="translate(26.735 76.793181) scale(0.1 -0.1)">
       <use xlink:href="#DejaVuSans-31"/>
       <use xlink:href="#DejaVuSans-32" x="63.623047"/>
      </g>
     </g>
    </g>
    <g id="ytick_8">
     <g id="line2d_29">
      <path d="M 46.46 42.991463 
L 450 42.991463 
" clip-path="url(#p7e6ecd3387)" style="fill: none; stroke: #b0b0b0; stroke-width: 0.8; stroke-linecap: square"/>
     </g>
     <g id="line2d_30">
      <g>
       <use xlink:href="#m2daae9c026" x="46.46" y="42.991463" style="stroke: #000000; stroke-width: 0.8"/>
      </g>
     </g>
     <g id="text_15">
      <!-- 14 -->
      <g transform="translate(26.735 46.790681) scale(0.1 -0.1)">
       <use xlink:href="#DejaVuSans-31"/>
       <use xlink:href="#DejaVuSans-34" x="63.623047"/>
      </g>
     </g>
    </g>
    <g id="text_16">
     <!-- Temperature [°C] -->
     <g transform="translate(20.655313 199.072463) rotate(-90) scale(0.1 -0.1)">
      <defs>
       <path id="DejaVuSans-54" d="M -19 4666 
L 3928 4666 
L 3928 4134 
L 2272 4134 
L 2272 0 
L 1638 0 
L 1638 4134 
L -19 4134 
L -19 4666 
z
" transform="scale(0.015625)"/>
       <path id="DejaVuSans-65" d="M 3597 1894 
L 3597 1613 
L 953 1613 
Q 991 1019 1311 708 
Q 1631 397 2203 397 
Q 2534 397 2845 478 
Q 3156 559 3463 722 
L 3463 178 
Q 3153 47 2828 -22 
Q 2503 -91 2169 -91 
Q 1331 -91 842 396 
Q 353 884 353 1716 
Q 353 2575 817 3079 
Q 1281 3584 2069 3584 
Q 2775 3584 3186 3129 
Q 3597 2675 3597 1894 
z
M 3022 2063 
Q 3016 2534 2758 2815 
Q 2500 3097 2075 3097 
Q 1594 3097 1305 2825 
Q 1016 2553 972 2059 
L 3022 2063 
z
" transform="scale(0.015625)"/>
       <path id="DejaVuSans-6d" d="M 3328 2828 
Q 3544 3216 3844 3400 
Q 4144 3584 4550 3584 
Q 5097 3584 5394 3201 
Q 5691 2819 5691 2113 
L 5691 0 
L 5113 0 
L 5113 2094 
Q 5113 2597 4934 2840 
Q 4756 3084 4391 3084 
Q 3944 3084 3684 2787 
Q 3425 2491 3425 1978 
L 3425 0 
L 2847 0 
L 2847 2094 
Q 2847 2600 2669 2842 
Q 2491 3084 2119 3084 
Q 1678 3084 1418 2786 
Q 1159 2488 1159 1978 
L 1159 0 
L 581 0 
L 581 3500 
L 1159 3500 
L 1159 2956 
Q 1356 3278 1631 3431 
Q 1906 3584 2284 3584 
Q 2666 3584 2933 3390 
Q 3200 3197 3328 2828 
z
" transform="scale(0.015625)"/>
       <path id="DejaVuSans-70" d="M 1159 525 
L 1159 -1331 
L 581 -1331 
L 581 3500 
L 1159 3500 
L 1159 2969 
Q 1341 3281 1617 3432 
Q 1894 3584 2278 3584 
Q 2916 3584 3314 3078 
Q 3713 2572 3713 1747 
Q 3713 922 3314 415 
Q 2916 -91 2278 -91 
Q 1894 -91 1617 61 
Q 1341 213 1159 525 
z
M 3116 1747 
Q 3116 2381 2855 2742 
Q 2594 3103 2138 3103 
Q 1681 3103 1420 2742 
Q 1159 2381 1159 1747 
Q 1159 1113 1420 752 
Q 1681 391 2138 391 
Q 2594 391 2855 752 
Q 3116 1113 3116 1747 
z
" transform="scale(0.015625)"/>
       <path id="DejaVuSans-72" d="M 2631 2963 
Q 2534 3019 2420 3045 
Q 2306 3072 2169 3072 
Q 1681 3072 1420 2755 
Q 1159 2438 1159 1844 
L 1159 0 
L 581 0 
L 581 3500 
L 1159 3500 
L 1159 2956 
Q 1341 3275 1631 3429 
Q 1922 3584 2338 3584 
Q 2397 3584 2469 3576 
Q 2541 3569 2628 3553 
L 2631 2963 
z
" transform="scale(0.015625)"/>
       <path id="DejaVuSans-61" d="M 2194 1759 
Q 1497 1759 1228 1600 
Q 959 1441 959 1056 
Q 959 750 1161 570 
Q 1363 391 1709 391 
Q 2188 391 2477 730 
Q 2766 1069 2766 1631 
L 2766 1759 
L 2194 1759 
z
M 3341 1997 
L 3341 0 
L 2766 0 
L 2766 531 
Q 2569 213 2275 61 
Q 1981 -91 1556 -91 
Q 1019 -91 701 211 
Q 384 513 384 1019 
Q 384 1609 779 1909 
Q 1175 2209 1959 2209 
L 2766 2209 
L 2766 2266 
Q 2766 2663 2505 2880 
Q 2244 3097 1772 3097 
Q 1472 3097 1187 3025 
Q 903 2953 641 2809 
L 641 3341 
Q 956 3463 1253 3523 
Q 1550 3584 1831 3584 
Q 2591 3584 2966 3190 
Q 3341 2797 3341 1997 
z
" transform="scale(0.015625)"/>
       <path id="DejaVuSans-74" d="M 1172 4494 
L 1172 3500 
L 2356 3500 
L 2356 3053 
L 1172 3053 
L 1172 1153 
Q 1172 725 1289 603 
Q 1406 481 1766 481 
L 2356 481 
L 2356 0 
L 1766 0 
Q 1100 0 847 248 
Q 594 497 594 1153 
L 594 3053 
L 172 3053 
L 172 3500 
L 594 3500 
L 594 4494 
L 1172 4494 
z
" transform="scale(0.015625)"/>
       <path id="DejaVuSans-75" d="M 544 1381 
L 544 3500 
L 1119 3500 
L 1119 1403 
Q 1119 906 1312 657 
Q 1506 409 1894 409 
Q 2359 409 2629 706 
Q 2900 1003 2900 1516 
L 2900 3500 
L 3475 3500 
L 3475 0 
L 2900 0 
L 2900 538 
Q 2691 219 2414 64 
Q 2138 -91 1772 -91 
Q 1169 -91 856 284 
Q 544 659 544 1381 
z
M 1991 3584 
L 1991 3584 
z
" transform="scale(0.015625)"/>
       <path id="DejaVuSans-20" transform="scale(0.015625)"/>
       <path id="DejaVuSans-5b" d="M 550 4863 
L 1875 4863 
L 1875 4416 
L 1125 4416 
L 1125 -397 
L 1875 -397 
L 1875 -844 
L 550 -844 
L 550 4863 
z
" transform="scale(0.015625)"/>
       <path id="DejaVuSans-c2" d="M 2188 4044 
L 1331 1722 
L 3047 1722 
L 2188 4044 
z
M 1831 4666 
L 2547 4666 
L 4325 0 
L 3669 0 
L 3244 1197 
L 1141 1197 
L 716 0 
L 50 0 
L 1831 4666 
z
M 1894 5941 
L 2481 5941 
L 3141 5110 
L 2706 5110 
L 2188 5666 
L 1669 5110 
L 1234 5110 
L 1894 5941 
z
" transform="scale(0.015625)"/>
       <path id="DejaVuSans-b0" d="M 1600 4347 
Q 1350 4347 1178 4173 
Q 1006 4000 1006 3750 
Q 1006 3503 1178 3333 
Q 1350 3163 1600 3163 
Q 1850 3163 2022 3333 
Q 2194 3503 2194 3750 
Q 2194 3997 2020 4172 
Q 1847 4347 1600 4347 
z
M 1600 4750 
Q 1800 4750 1984 4673 
Q 2169 4597 2303 4453 
Q 2447 4313 2519 4134 
Q 2591 3956 2591 3750 
Q 2591 3338 2302 3052 
Q 2013 2766 1594 2766 
Q 1172 2766 890 3047 
Q 609 3328 609 3750 
Q 609 4169 896 4459 
Q 1184 4750 1600 4750 
z
" transform="scale(0.015625)"/>
       <path id="DejaVuSans-43" d="M 4122 4306 
L 4122 3641 
Q 3803 3938 3442 4084 
Q 3081 4231 2675 4231 
Q 1875 4231 1450 3742 
Q 1025 3253 1025 2328 
Q 1025 1406 1450 917 
Q 1875 428 2675 428 
Q 3081 428 3442 575 
Q 3803 722 4122 1019 
L 4122 359 
Q 3791 134 3420 21 
Q 3050 -91 2638 -91 
Q 1578 -91 968 557 
Q 359 1206 359 2328 
Q 359 3453 968 4101 
Q 1578 4750 2638 4750 
Q 3056 4750 3426 4639 
Q 3797 4528 4122 4306 
z
" transform="scale(0.015625)"/>
       <path id="DejaVuSans-5d" d="M 1947 4863 
L 1947 -844 
L 622 -844 
L 622 -397 
L 1369 -397 
L 1369 4416 
L 622 4416 
L 622 4863 
L 1947 4863 
z
" transform="scale(0.015625)"/>
      </defs>
      <use xlink:href="#DejaVuSans-54"/>
      <use xlink:href="#DejaVuSans-65" x="44.083984"/>
      <use xlink:href="#DejaVuSans-6d" x="105.607422"/>
      <use xlink:href="#DejaVuSans-70" x="203.019531"/>
      <use xlink:href="#DejaVuSans-65" x="266.496094"/>
      <use xlink:href="#DejaVuSans-72" x="328.019531"/>
      <use xlink:href="#DejaVuSans-61" x="369.132812"/>
      <use xlink:href="#DejaVuSans-74" x="430.412109"/>
      <use xlink:href="#DejaVuSans-75" x="469.621094"/>
      <use xlink:href="#DejaVuSans-72" x="533"/>
      <use xlink:href="#DejaVuSans-65" x="571.863281"/>
      <use xlink:href="#DejaVuSans-20" x="633.386719"/>
      <use xlink:href="#DejaVuSans-5b" x="665.173828"/>
      <use xlink:href="#DejaVuSans-c2" x="704.1875"/>
      <use xlink:href="#DejaVuSans-b0" x="772.595703"/>
      <use xlink:href="#DejaVuSans-43" x="822.595703"/>
      <use xlink:href="#DejaVuSans-5d" x="892.419922"/>
     </g>
    </g>
   </g>
   <g id="line2d_31">
    <path d="M 46.46 188.503588 
L 46.490527 188.503588 
L 46.643953 191.503838 
L 46.858357 191.503838 
L 46.980969 193.003963 
L 47.16488 193.003963 
L 47.257045 194.504088 
L 47.379664 193.003963 
L 47.777932 193.003963 
L 47.961844 188.503588 
L 48.023152 188.503588 
L 48.084826 187.003463 
L 48.237812 188.503588 
L 48.390983 188.503588 
L 48.513591 190.003713 
L 48.789624 190.003713 
L 48.850896 191.503838 
L 48.881419 190.003713 
L 49.12664 190.003713 
L 49.249606 191.503838 
L 49.586566 191.503838 
L 49.709245 190.003713 
L 49.9544 190.003713 
L 50.077032 191.503838 
L 50.168826 191.503838 
L 50.291437 193.003963 
L 50.506155 193.003963 
L 50.597961 194.504088 
L 50.628783 193.003963 
L 50.690071 194.504088 
L 50.812739 194.504088 
L 50.904487 196.004213 
L 51.027098 194.504088 
L 51.057844 194.504088 
L 51.180533 193.003963 
L 51.333624 196.004213 
L 51.517537 196.004213 
L 51.670965 194.504088 
L 51.701456 194.504088 
L 51.7323 193.003963 
L 51.793551 194.504088 
L 52.069284 194.504088 
L 52.191893 196.004213 
L 52.498421 196.004213 
L 52.621031 194.504088 
L 53.203597 194.504088 
L 53.356696 197.504338 
L 53.387493 197.504338 
L 53.510112 199.004463 
L 54.031051 199.004463 
L 54.153659 197.504338 
L 54.337572 197.504338 
L 54.490875 200.504588 
L 54.552316 200.504588 
L 54.67493 202.004713 
L 54.797532 202.004713 
L 54.950624 199.004463 
L 55.349302 199.004463 
L 55.471871 197.504338 
L 55.778382 197.504338 
L 55.9315 200.504588 
L 56.054116 200.504588 
L 56.11542 199.004463 
L 56.268825 200.504588 
L 56.299332 200.504588 
L 56.391485 202.004713 
L 56.544555 199.004463 
L 56.605861 199.004463 
L 56.728849 202.004713 
L 56.789774 202.004713 
L 56.943192 205.004963 
L 56.973691 205.004963 
L 57.096299 206.505088 
L 57.28021 206.505088 
L 57.556226 202.004713 
L 57.617554 202.004713 
L 57.770655 205.004963 
L 58.046698 205.004963 
L 58.261409 199.004463 
L 58.353215 199.004463 
L 58.445012 197.504338 
L 58.506307 197.504338 
L 58.659721 194.504088 
L 58.751534 194.504088 
L 58.874146 196.004213 
L 58.935449 196.004213 
L 59.088718 199.004463 
L 59.364586 199.004463 
L 59.548504 203.504838 
L 59.67111 203.504838 
L 59.855029 199.004463 
L 59.916329 199.004463 
L 60.038942 197.504338 
L 60.161551 197.504338 
L 60.314982 199.004463 
L 60.437555 199.004463 
L 60.468076 200.504588 
L 60.52938 199.004463 
L 60.560212 199.004463 
L 60.713298 196.004213 
L 60.744121 196.004213 
L 60.866674 197.504338 
L 60.897395 197.504338 
L 61.019825 199.004463 
L 61.142435 199.004463 
L 61.29589 202.004713 
L 61.326347 202.004713 
L 61.510262 206.505088 
L 61.632871 206.505088 
L 61.755482 208.005213 
L 61.786313 208.005213 
L 61.939763 211.005463 
L 61.970053 211.005463 
L 62.092836 212.505588 
L 62.338054 212.505588 
L 62.491503 215.505838 
L 62.675057 215.505838 
L 62.797668 214.005713 
L 62.828504 214.005713 
L 62.951112 215.505838 
L 63.042891 215.505838 
L 63.288109 211.005463 
L 63.380275 212.505588 
L 63.502867 209.505338 
L 63.748009 209.505338 
L 63.870706 211.005463 
L 64.054609 211.005463 
L 64.177221 209.505338 
L 64.299697 209.505338 
L 64.483748 205.004963 
L 64.54506 205.004963 
L 64.759435 199.004463 
L 64.912827 199.004463 
L 65.065958 194.504088 
L 65.249873 199.004463 
L 65.372865 199.004463 
L 65.556399 185.503338 
L 65.985848 138.999463 
L 66.506821 116.497588 
L 66.629341 119.497838 
L 66.782494 116.497588 
L 66.905106 117.997713 
L 66.935961 117.997713 
L 67.150311 105.996713 
L 67.181032 105.996713 
L 67.39554 99.996213 
L 67.42634 99.996213 
L 67.64076 93.995713 
L 67.732722 93.995713 
L 67.824673 96.995963 
L 67.855468 95.495838 
L 68.069892 89.495338 
L 68.16206 89.495338 
L 68.468528 71.493838 
L 68.499026 72.993963 
L 68.775073 105.996713 
L 68.867107 105.996713 
L 68.989462 108.996963 
L 69.510675 81.994713 
L 69.572083 84.994963 
L 69.60251 84.994963 
L 69.725118 83.494838 
L 70.246399 104.496588 
L 70.276854 104.496588 
L 70.430334 92.495588 
L 70.644684 81.994713 
L 70.675437 81.994713 
L 70.767297 80.494588 
L 70.889905 81.994713 
L 70.95121 81.994713 
L 71.472515 104.496588 
L 71.625556 101.496338 
L 71.778878 104.496588 
L 71.80947 104.496588 
L 72.085525 114.997463 
L 72.208141 113.497338 
L 72.238602 113.497338 
L 72.575959 104.496588 
L 72.759881 96.995963 
L 72.851919 96.995963 
L 73.066437 99.996213 
L 73.342086 90.995463 
L 73.372986 90.995463 
L 73.648608 74.494088 
L 73.801995 71.493838 
L 73.832526 71.493838 
L 74.047079 78.994463 
L 74.20035 75.994213 
L 74.415159 86.495088 
L 74.629478 92.495588 
L 74.660209 92.495588 
L 74.782948 90.995463 
L 74.874695 90.995463 
L 74.997306 92.495588 
L 75.24253 84.994963 
L 75.273342 84.994963 
L 75.334687 83.494838 
L 75.365137 84.994963 
L 75.641241 93.995713 
L 75.733272 93.995713 
L 75.855569 95.495838 
L 75.947736 93.995713 
L 75.97818 95.495838 
L 76.039484 93.995713 
L 76.162092 90.995463 
L 76.284702 90.995463 
L 76.40731 95.495838 
L 76.438162 93.995713 
L 76.529919 93.995713 
L 76.713832 89.495338 
L 76.898015 93.995713 
L 77.020357 93.995713 
L 77.204268 89.495338 
L 77.235003 89.495338 
L 77.449895 83.494838 
L 77.786837 77.494338 
L 78.001233 77.494338 
L 78.062822 75.994213 
L 78.093234 77.494338 
L 78.185148 77.494338 
L 78.552971 90.995463 
L 78.706366 90.995463 
L 78.859493 93.995713 
L 78.890375 93.995713 
L 79.012977 95.495838 
L 79.135603 95.495838 
L 79.258057 93.995713 
L 79.319496 93.995713 
L 79.442119 92.495588 
L 79.503445 92.495588 
L 79.626053 90.995463 
L 79.717759 90.995463 
L 79.932568 93.995713 
L 79.993846 93.995713 
L 80.14713 96.995963 
L 80.30036 96.995963 
L 80.790818 116.497588 
L 81.036011 116.497588 
L 81.158642 114.997463 
L 81.372985 114.997463 
L 81.5877 120.997963 
L 81.618204 120.997963 
L 81.740814 122.498088 
L 81.77168 122.498088 
L 81.894228 123.998213 
L 82.169951 123.998213 
L 82.292559 125.498338 
L 82.323483 125.498338 
L 82.476472 128.498588 
L 82.537779 128.498588 
L 82.721695 132.998963 
L 82.782999 132.998963 
L 82.966911 137.499338 
L 82.997819 137.499338 
L 83.181742 141.999713 
L 83.212421 141.999713 
L 83.334742 143.499838 
L 83.365631 143.499838 
L 83.488204 144.999963 
L 83.518657 144.999963 
L 83.641267 146.500088 
L 83.702571 146.500088 
L 83.825182 148.000213 
L 83.917346 148.000213 
L 84.039994 149.500338 
L 84.101145 149.500338 
L 84.223764 151.000463 
L 84.499541 151.000463 
L 84.622152 152.500588 
L 84.929016 152.500588 
L 85.082155 154.000713 
L 85.664338 154.000713 
L 85.786949 155.500838 
L 86.093864 155.500838 
L 86.216078 154.000713 
L 86.277384 154.000713 
L 86.399992 152.500588 
L 86.492199 152.500588 
L 86.614792 154.000713 
L 86.860025 154.000713 
L 86.982612 155.500838 
L 87.105245 154.000713 
L 87.288936 154.000713 
L 87.319567 152.500588 
L 87.380871 154.000713 
L 87.687394 154.000713 
L 87.810337 152.500588 
L 88.055225 152.500588 
L 88.177832 154.000713 
L 88.270072 154.000713 
L 88.361747 155.500838 
L 88.637808 155.500838 
L 88.760434 154.000713 
L 88.852185 154.000713 
L 88.975093 155.500838 
L 89.220014 155.500838 
L 89.342625 154.000713 
L 89.74138 154.000713 
L 89.863999 155.500838 
L 89.95567 155.500838 
L 90.078281 154.000713 
L 90.262196 154.000713 
L 90.384802 155.500838 
L 90.630024 155.500838 
L 90.752634 157.000963 
L 91.120461 157.000963 
L 91.243069 158.501088 
L 92.530472 158.501088 
L 92.653078 160.001213 
L 93.358327 160.001213 
L 93.480934 161.501338 
L 94.001783 161.501338 
L 94.124715 160.001213 
L 94.73775 160.001213 
L 94.860048 161.501338 
L 95.07481 161.501338 
L 95.19742 160.001213 
L 95.840922 160.001213 
L 95.963532 161.501338 
L 96.086142 160.001213 
L 97.28182 160.001213 
L 97.404475 161.501338 
L 97.680062 161.501338 
L 97.802675 160.001213 
L 98.293113 160.001213 
L 98.415723 161.501338 
L 98.507905 161.501338 
L 98.630516 160.001213 
L 99.273991 160.001213 
L 99.3966 161.501338 
L 100.101789 161.501338 
L 100.224369 163.001463 
L 102.615275 163.001463 
L 102.737936 164.501588 
L 102.768682 164.501588 
L 102.921855 163.001463 
L 102.983129 163.001463 
L 103.10573 164.501588 
L 103.228341 163.001463 
L 104.055776 163.001463 
L 104.178386 161.501338 
L 104.300994 163.001463 
L 107.121032 163.001463 
L 107.243641 161.501338 
L 114.631049 161.501338 
L 114.753655 163.001463 
L 115.519791 163.001463 
L 115.642401 161.501338 
L 115.979758 161.501338 
L 116.102267 163.001463 
L 116.531584 163.001463 
L 116.653956 164.501588 
L 118.401112 164.501588 
L 118.523722 166.001713 
L 118.707636 166.001713 
L 118.830244 164.501588 
L 119.995035 164.501588 
L 120.148411 166.001713 
L 120.209852 166.001713 
L 120.332395 164.501588 
L 120.393776 164.501588 
L 120.42417 166.001713 
L 120.485474 164.501588 
L 122.723322 164.501588 
L 122.845908 166.001713 
L 122.938025 166.001713 
L 123.09113 164.501588 
L 125.052904 164.501588 
L 125.175536 166.001713 
L 125.205944 164.501588 
L 125.26761 166.001713 
L 125.389858 166.001713 
L 125.512466 164.501588 
L 125.880295 164.501588 
L 126.002905 163.001463 
L 126.769469 163.001463 
L 126.892069 161.501338 
L 127.198513 161.501338 
L 127.321179 160.001213 
L 128.05689 160.001213 
L 128.179267 158.501088 
L 128.82293 158.501088 
L 128.945543 160.001213 
L 129.006848 160.001213 
L 129.129459 158.501088 
L 129.803813 158.501088 
L 129.957228 160.001213 
L 130.417172 160.001213 
L 130.570362 161.501338 
L 131.489961 161.501338 
L 131.612309 160.001213 
L 131.857709 160.001213 
L 131.980374 161.501338 
L 132.194719 161.501338 
L 132.317327 160.001213 
L 132.746779 160.001213 
L 132.869069 161.501338 
L 135.689088 161.501338 
L 135.811697 163.001463 
L 137.834758 163.001463 
L 137.957366 164.501588 
L 138.294704 164.501588 
L 138.417324 166.001713 
L 138.447804 166.001713 
L 138.601242 167.501838 
L 138.723851 167.501838 
L 138.999544 176.502588 
L 139.03038 176.502588 
L 139.275647 184.003213 
L 139.336939 184.003213 
L 139.520855 188.503588 
L 139.582208 188.503588 
L 139.735204 191.503838 
L 139.796512 191.503838 
L 139.919123 193.003963 
L 140.011279 193.003963 
L 140.16434 196.004213 
L 140.256313 196.004213 
L 140.379135 197.504338 
L 140.409561 197.504338 
L 140.563019 200.504588 
L 140.685611 200.504588 
L 140.838695 203.504838 
L 140.961303 203.504838 
L 141.083914 205.004963 
L 141.206527 205.004963 
L 141.329415 206.505088 
L 141.451742 206.505088 
L 141.574357 208.005213 
L 142.156883 208.005213 
L 142.279605 209.505338 
L 142.310017 209.505338 
L 142.432625 208.005213 
L 142.677847 208.005213 
L 142.800456 206.505088 
L 142.984371 206.505088 
L 143.107374 205.004963 
L 143.32165 205.004963 
L 143.444362 203.504838 
L 143.628273 203.504838 
L 143.750772 202.004713 
L 143.99612 202.004713 
L 144.149168 199.004463 
L 144.425224 199.004463 
L 144.547854 197.504338 
L 144.700914 197.504338 
L 144.823917 196.004213 
L 145.007444 196.004213 
L 145.160952 193.003963 
L 145.927015 193.003963 
L 146.049627 191.503838 
L 146.110933 191.503838 
L 146.23354 190.003713 
L 146.264403 190.003713 
L 146.38706 188.503588 
L 146.601377 188.503588 
L 146.723983 187.003463 
L 146.846593 187.003463 
L 146.969203 185.503338 
L 147.091811 185.503338 
L 147.245243 184.003213 
L 148.256611 184.003213 
L 148.410064 182.503088 
L 148.471433 182.503088 
L 148.594013 181.002963 
L 148.930966 181.002963 
L 149.053575 179.502838 
L 149.084439 179.502838 
L 149.207027 178.002713 
L 149.421764 178.002713 
L 149.574886 176.502588 
L 150.770114 176.502588 
L 150.892722 178.002713 
L 150.984898 178.002713 
L 151.1075 176.502588 
L 151.475256 176.502588 
L 151.597936 175.002463 
L 151.65922 175.002463 
L 151.781648 176.502588 
L 151.843089 176.502588 
L 151.965753 175.002463 
L 152.394779 175.002463 
L 152.517472 173.502338 
L 152.670563 173.502338 
L 152.793173 175.002463 
L 152.916053 173.502338 
L 152.977084 173.502338 
L 153.161002 169.001963 
L 153.253138 169.001963 
L 153.406224 172.002213 
L 153.743632 172.002213 
L 153.927574 167.501838 
L 154.019272 167.501838 
L 154.172731 169.001963 
L 154.234098 169.001963 
L 154.356691 170.502088 
L 154.387102 170.502088 
L 154.509711 172.002213 
L 154.540601 172.002213 
L 154.66298 173.502338 
L 154.785831 173.502338 
L 154.908437 175.002463 
L 155.919722 175.002463 
L 156.042333 173.502338 
L 156.103639 173.502338 
L 156.287554 169.001963 
L 156.410162 169.001963 
L 156.594079 164.501588 
L 156.870165 164.501588 
L 156.992628 166.001713 
L 157.08452 166.001713 
L 157.176715 167.501838 
L 157.207126 166.001713 
L 157.268434 167.501838 
L 157.514035 167.501838 
L 157.636264 169.001963 
L 157.728417 169.001963 
L 157.851083 170.502088 
L 157.91239 170.502088 
L 158.035013 172.002213 
L 158.218891 172.002213 
L 158.341529 173.502338 
L 161.222887 173.502338 
L 161.314561 172.002213 
L 161.437171 173.502338 
L 161.713288 173.502338 
L 161.835913 175.002463 
L 162.479355 175.002463 
L 162.601963 176.502588 
L 162.724575 175.002463 
L 163.582842 175.002463 
L 163.705455 176.502588 
L 163.828398 176.502588 
L 163.981541 175.002463 
L 164.073283 175.002463 
L 164.195893 173.502338 
L 164.226737 173.502338 
L 164.349434 175.002463 
L 164.901104 175.002463 
L 165.023505 173.502338 
L 165.146343 173.502338 
L 165.176773 172.002213 
L 165.238074 173.502338 
L 165.268937 173.502338 
L 165.330227 172.002213 
L 165.360686 173.502338 
L 165.391558 173.502338 
L 165.514143 172.002213 
L 165.882014 172.002213 
L 166.004585 173.502338 
L 166.464176 173.502338 
L 166.586783 175.002463 
L 166.801458 175.002463 
L 166.92418 176.502588 
L 167.015924 176.502588 
L 167.138532 178.002713 
L 167.598571 178.002713 
L 167.721128 179.502838 
L 168.180718 179.502838 
L 168.30333 181.002963 
L 169.100292 181.002963 
L 169.25382 184.003213 
L 169.284203 184.003213 
L 169.468116 188.503588 
L 169.560305 188.503588 
L 169.682788 190.003713 
L 169.71334 190.003713 
L 169.835948 191.503838 
L 170.081169 191.503838 
L 170.204192 193.003963 
L 170.326391 193.003963 
L 170.479889 196.004213 
L 170.541187 196.004213 
L 170.694218 199.004463 
L 170.878134 199.004463 
L 171.00074 200.504588 
L 171.031531 200.504588 
L 171.154208 202.004713 
L 171.276856 202.004713 
L 171.399293 203.504838 
L 171.736402 203.504838 
L 171.859011 202.004713 
L 172.10423 202.004713 
L 172.226839 200.504588 
L 172.349449 200.504588 
L 172.472398 202.004713 
L 172.655976 202.004713 
L 172.778582 200.504588 
L 174.403355 200.504588 
L 174.525982 202.004713 
L 174.617731 202.004713 
L 174.740339 203.504838 
L 175.414697 203.504838 
L 175.537306 202.004713 
L 175.568138 202.004713 
L 175.598614 203.504838 
L 175.659918 202.004713 
L 175.813336 202.004713 
L 175.905139 200.504588 
L 175.99713 200.504588 
L 176.15036 197.504338 
L 176.242599 197.504338 
L 176.395577 194.504088 
L 176.426477 194.504088 
L 176.518535 193.003963 
L 176.579493 193.003963 
L 176.732947 190.003713 
L 176.794262 190.003713 
L 176.916959 188.503588 
L 177.499066 188.503588 
L 177.621681 190.003713 
L 178.112117 190.003713 
L 178.235017 191.503838 
L 178.909084 191.503838 
L 179.06261 188.503588 
L 179.154302 188.503588 
L 179.276916 187.003463 
L 179.460832 187.003463 
L 179.491597 185.503338 
L 179.553023 187.003463 
L 179.70605 187.003463 
L 179.859573 184.003213 
L 180.166076 184.003213 
L 180.288685 182.503088 
L 180.411248 182.503088 
L 180.503024 181.002963 
L 180.686937 181.002963 
L 180.80955 179.502838 
L 180.962923 179.502838 
L 181.085635 178.002713 
L 181.26945 178.002713 
L 181.392142 176.502588 
L 181.453401 176.502588 
L 181.514731 175.002463 
L 181.545205 176.502588 
L 181.667818 176.502588 
L 182.189102 187.003463 
L 183.200443 187.003463 
L 183.323053 188.503588 
L 183.384356 188.503588 
L 183.53776 187.003463 
L 183.721788 187.003463 
L 183.844396 185.503338 
L 183.874795 185.503338 
L 183.997797 184.003213 
L 184.21222 181.002963 
L 184.487845 181.002963 
L 184.641137 178.002713 
L 184.763988 179.502838 
L 184.8866 179.502838 
L 185.009188 181.002963 
L 185.315678 181.002963 
L 185.468721 178.002713 
L 185.62221 178.002713 
L 185.713945 176.502588 
L 185.775235 176.502588 
L 185.959162 181.002963 
L 186.081773 181.002963 
L 186.296535 175.002463 
L 186.357645 175.002463 
L 186.541742 170.502088 
L 186.786988 170.502088 
L 186.940038 167.501838 
L 186.970777 167.501838 
L 187.123955 164.501588 
L 187.277403 164.501588 
L 187.430479 161.501338 
L 187.675701 161.501338 
L 187.798308 160.001213 
L 187.920916 160.001213 
L 188.043912 161.501338 
L 188.197043 160.001213 
L 188.227442 160.001213 
L 188.350053 158.501088 
L 188.656572 158.501088 
L 188.779189 157.000963 
L 188.810033 157.000963 
L 188.901793 155.500838 
L 189.05531 158.501088 
L 189.085711 158.501088 
L 189.269627 163.001463 
L 189.453542 163.001463 
L 189.514846 161.501338 
L 189.545749 163.001463 
L 189.637456 163.001463 
L 189.76045 166.001713 
L 190.036188 166.001713 
L 190.097388 164.501588 
L 190.127897 166.001713 
L 190.311809 166.001713 
L 190.587892 170.502088 
L 190.618334 170.502088 
L 190.649257 169.001963 
L 190.710545 170.502088 
L 190.771843 170.502088 
L 190.894464 172.002213 
L 191.047472 169.001963 
L 191.139652 169.001963 
L 191.262225 167.501838 
L 191.353996 167.501838 
L 191.476608 169.001963 
L 191.691337 172.002213 
L 191.721826 172.002213 
L 191.844436 173.502338 
L 192.212268 173.502338 
L 192.334875 175.002463 
L 192.488387 175.002463 
L 192.610994 176.502588 
L 192.856205 176.502588 
L 192.978814 178.002713 
L 193.13184 178.002713 
L 193.254827 179.502838 
L 193.714486 179.502838 
L 193.806611 181.002963 
L 194.082305 181.002963 
L 194.204952 182.503088 
L 194.235325 182.503088 
L 194.357937 184.003213 
L 194.572755 187.003463 
L 194.787072 187.003463 
L 194.909684 188.503588 
L 195.063091 188.503588 
L 195.185746 190.003713 
L 195.247154 190.003713 
L 195.369747 191.503838 
L 195.430949 191.503838 
L 195.523046 193.003963 
L 195.614781 193.003963 
L 195.767953 196.004213 
L 195.890563 196.004213 
L 196.013174 197.504338 
L 196.044087 197.504338 
L 196.197086 200.504588 
L 196.381003 200.504588 
L 196.503612 202.004713 
L 196.534545 202.004713 
L 196.657151 203.504838 
L 197.055356 203.504838 
L 197.208862 200.504588 
L 197.239269 200.504588 
L 197.454095 203.504838 
L 197.607104 203.504838 
L 197.729713 205.004963 
L 197.760506 205.004963 
L 197.913628 208.005213 
L 198.036238 208.005213 
L 198.189715 211.005463 
L 198.404383 211.005463 
L 198.618888 214.005713 
L 198.649291 214.005713 
L 198.833206 218.506088 
L 198.894507 218.506088 
L 199.01749 220.006213 
L 199.507563 220.006213 
L 199.630171 221.506338 
L 199.66092 221.506338 
L 199.78353 223.006463 
L 199.936696 220.006213 
L 200.028713 220.006213 
L 200.120611 218.506088 
L 200.274002 218.506088 
L 200.396624 220.006213 
L 200.549751 220.006213 
L 200.672359 218.506088 
L 200.978885 218.506088 
L 201.132269 221.506338 
L 201.193586 221.506338 
L 201.346716 224.506588 
L 201.530631 224.506588 
L 201.684044 227.506838 
L 201.775853 227.506838 
L 201.898846 226.006713 
L 201.929135 226.006713 
L 202.174463 218.506088 
L 202.235774 218.506088 
L 202.358306 220.006213 
L 202.388905 220.006213 
L 202.511517 221.506338 
L 202.542266 221.506338 
L 202.695431 224.506588 
L 203.308483 224.506588 
L 203.431095 223.006463 
L 203.461913 223.006463 
L 203.553707 221.506338 
L 203.615429 223.006463 
L 203.768457 221.506338 
L 203.891054 221.506338 
L 204.044146 224.506588 
L 204.105452 224.506588 
L 204.22806 226.006713 
L 204.258781 226.006713 
L 204.381476 227.506838 
L 204.718506 227.506838 
L 205.055808 233.507338 
L 205.208947 233.507338 
L 205.301034 232.007213 
L 205.45417 235.007463 
L 205.638081 235.007463 
L 205.760692 236.507588 
L 205.821997 236.507588 
L 205.8833 238.007713 
L 206.036719 236.507588 
L 206.067222 236.507588 
L 206.098027 238.007713 
L 206.159336 236.507588 
L 206.373746 236.507588 
L 206.465869 235.007463 
L 206.864189 235.007463 
L 206.986795 236.507588 
L 207.324171 236.507588 
L 207.477242 233.507338 
L 207.50796 233.507338 
L 207.661566 236.507588 
L 207.783763 236.507588 
L 207.967678 232.007213 
L 208.458119 232.007213 
L 208.580732 233.507338 
L 208.672841 233.507338 
L 208.826196 236.507588 
L 208.887257 236.507588 
L 209.009869 235.007463 
L 209.285982 235.007463 
L 209.37796 233.507338 
L 209.653818 238.007713 
L 209.684228 238.007713 
L 209.868143 242.508088 
L 209.898997 242.508088 
L 210.021444 244.008213 
L 210.052064 244.008213 
L 210.20557 247.008463 
L 210.389417 247.008463 
L 210.512026 248.508588 
L 210.542799 248.508588 
L 210.757254 251.508838 
L 211.002505 251.508838 
L 211.094252 250.008713 
L 211.247708 250.008713 
L 211.370324 248.508588 
L 211.492971 250.008713 
L 211.554263 250.008713 
L 211.707637 247.008463 
L 211.768607 247.008463 
L 211.922106 244.008213 
L 212.13644 244.008213 
L 212.25931 242.508088 
L 212.412528 241.007963 
L 212.596476 241.007963 
L 212.749493 244.008213 
L 212.872476 244.008213 
L 212.994712 245.508338 
L 213.301241 245.508338 
L 213.424184 248.508588 
L 213.515911 248.508588 
L 213.669071 251.508838 
L 213.76129 251.508838 
L 213.88391 253.008963 
L 213.975604 253.008963 
L 214.067602 254.509088 
L 214.251742 250.008713 
L 214.282127 250.008713 
L 214.435667 247.008463 
L 214.466045 247.008463 
L 214.588975 248.508588 
L 214.64996 248.508588 
L 214.772573 247.008463 
L 214.895182 247.008463 
L 215.017795 248.508588 
L 215.263016 248.508588 
L 215.385629 250.008713 
L 215.446935 250.008713 
L 215.600401 247.008463 
L 215.998683 247.008463 
L 216.12129 245.508338 
L 216.427822 245.508338 
L 216.550429 247.008463 
L 216.58128 247.008463 
L 216.703835 248.508588 
L 216.795649 248.508588 
L 216.948943 245.508338 
L 217.194334 245.508338 
L 217.316942 244.008213 
L 217.43955 244.008213 
L 217.592626 247.008463 
L 217.653927 247.008463 
L 217.837843 251.508838 
L 218.021754 251.508838 
L 218.175204 250.008713 
L 218.297865 251.508838 
L 218.328286 251.508838 
L 218.481771 254.509088 
L 218.512197 254.509088 
L 218.635048 256.009213 
L 218.726893 256.009213 
L 218.849615 257.509338 
L 219.156176 257.509338 
L 219.278585 259.009463 
L 219.401345 257.509338 
L 219.585271 257.509338 
L 219.738309 254.509088 
L 219.891716 256.009213 
L 219.983527 256.009213 
L 220.136993 259.009463 
L 220.290055 259.009463 
L 220.412669 257.509338 
L 220.627435 257.509338 
L 220.811385 253.008963 
L 220.841804 253.008963 
L 220.964632 251.508838 
L 220.995097 251.508838 
L 221.025719 253.008963 
L 221.087026 251.508838 
L 221.301708 251.508838 
L 221.4244 253.008963 
L 221.57747 253.008963 
L 221.669606 251.508838 
L 221.700078 253.008963 
L 221.761384 251.508838 
L 222.03744 251.508838 
L 222.221252 256.009213 
L 222.251829 256.009213 
L 222.435741 260.509588 
L 222.527843 260.509588 
L 222.681178 257.509338 
L 222.742267 257.509338 
L 222.926185 253.008963 
L 222.957123 253.008963 
L 223.079632 251.508838 
L 223.110104 251.508838 
L 223.233031 253.008963 
L 223.29402 253.008963 
L 223.416627 251.508838 
L 223.477933 251.508838 
L 223.600547 253.008963 
L 223.661855 253.008963 
L 223.784463 256.009213 
L 223.937874 256.009213 
L 224.060486 257.509338 
L 224.213598 254.509088 
L 224.305768 254.509088 
L 224.397832 253.008963 
L 224.765348 253.008963 
L 224.887961 251.508838 
L 224.949265 251.508838 
L 225.102697 253.008963 
L 225.133181 253.008963 
L 225.286669 256.009213 
L 225.317093 256.009213 
L 225.439704 254.509088 
L 225.623623 254.509088 
L 225.777147 257.509338 
L 225.930148 257.509338 
L 226.052758 259.009463 
L 226.175355 259.009463 
L 226.297981 257.509338 
L 226.420593 257.509338 
L 226.635411 263.509838 
L 226.696654 263.509838 
L 226.819206 265.009963 
L 226.84973 265.009963 
L 226.972342 266.510088 
L 227.125836 263.509838 
L 227.279111 263.509838 
L 227.432337 265.009963 
L 227.462785 265.009963 
L 227.616268 268.010213 
L 227.984028 268.010213 
L 228.137143 265.009963 
L 228.198449 265.009963 
L 228.229342 263.509838 
L 228.290636 265.009963 
L 228.351749 265.009963 
L 228.504978 262.009713 
L 228.566283 262.009713 
L 228.688893 260.509588 
L 228.934116 260.509588 
L 229.057095 259.009463 
L 229.087406 259.009463 
L 229.148846 260.509588 
L 229.179337 259.009463 
L 229.27153 259.009463 
L 229.394125 260.509588 
L 229.485863 260.509588 
L 229.608809 262.009713 
L 229.669782 262.009713 
L 229.792391 263.509838 
L 229.823292 263.509838 
L 229.915002 262.009713 
L 230.037612 263.509838 
L 230.68155 263.509838 
L 230.865358 259.009463 
L 230.895889 259.009463 
L 231.079804 247.008463 
L 231.72373 169.001963 
L 231.876773 166.001713 
L 231.907574 166.001713 
L 232.091576 161.501338 
L 232.428514 190.003713 
L 232.459264 188.503588 
L 232.489819 188.503588 
L 232.643297 185.503338 
L 232.735039 185.503338 
L 232.857649 184.003213 
L 232.888548 184.003213 
L 233.041565 172.002213 
L 233.37893 141.999713 
L 233.409394 144.999963 
L 233.62404 167.501838 
L 233.654615 167.501838 
L 233.93075 149.500338 
L 234.145055 138.999463 
L 234.206359 138.999463 
L 234.63549 117.997713 
L 234.819403 122.498088 
L 234.911573 122.498088 
L 235.003317 120.997963 
L 235.18723 131.498838 
L 235.340596 128.498588 
L 235.371145 129.998713 
L 235.43245 128.498588 
L 235.67767 120.997963 
L 235.708521 120.997963 
L 235.769837 117.997713 
L 235.800274 120.997963 
L 236.045493 129.998713 
L 236.168102 128.498588 
L 236.229405 128.498588 
L 236.566787 116.497588 
L 236.934641 129.998713 
L 237.026372 129.998713 
L 237.148979 131.498838 
L 237.179848 131.498838 
L 237.608796 108.996963 
L 237.670237 111.997213 
L 237.700723 111.997213 
L 237.854118 114.997463 
L 237.884634 114.997463 
L 238.068548 123.998213 
L 238.160486 123.998213 
L 238.467268 107.496838 
L 238.497681 108.996963 
L 238.926813 140.499588 
L 238.957687 140.499588 
L 239.38675 157.000963 
L 239.570728 152.500588 
L 239.662472 152.500588 
L 239.846752 158.501088 
L 239.968996 158.501088 
L 240.152913 154.000713 
L 240.306406 157.000963 
L 240.336829 157.000963 
L 240.459762 160.001213 
L 240.582043 158.501088 
L 240.704654 160.001213 
L 240.796829 160.001213 
L 240.949876 163.001463 
L 241.011567 163.001463 
L 241.164576 166.001713 
L 241.287289 166.001713 
L 241.624227 152.500588 
L 241.716394 155.500838 
L 241.746839 154.000713 
L 242.084238 141.999713 
L 242.176277 141.999713 
L 242.57469 157.000963 
L 242.666409 157.000963 
L 242.728024 158.501088 
L 243.003781 154.000713 
L 243.03424 154.000713 
L 243.371465 141.999713 
L 243.585982 141.999713 
L 243.800766 148.000213 
L 244.260338 129.998713 
L 244.444568 134.499088 
L 244.536288 134.499088 
L 244.781637 141.999713 
L 244.812078 141.999713 
L 245.057623 149.500338 
L 245.179908 149.500338 
L 245.302516 151.000463 
L 245.517303 151.000463 
L 245.670347 148.000213 
L 245.701104 148.000213 
L 245.854263 144.999963 
L 246.160787 144.999963 
L 246.314223 146.500088 
L 246.436856 146.500088 
L 246.589918 149.500338 
L 246.74329 149.500338 
L 246.896442 152.500588 
L 246.927266 152.500588 
L 247.04986 154.000713 
L 247.233884 154.000713 
L 247.26427 152.500588 
L 247.295172 154.000713 
L 247.632103 166.001713 
L 247.663004 166.001713 
L 247.78561 167.501838 
L 247.846899 167.501838 
L 248.030745 172.002213 
L 248.061235 172.002213 
L 248.214721 175.002463 
L 248.24515 175.002463 
L 248.39864 178.002713 
L 248.490707 178.002713 
L 248.643817 179.502838 
L 248.674287 179.502838 
L 248.827754 182.503088 
L 248.88911 182.503088 
L 249.042114 185.503338 
L 249.195563 185.503338 
L 249.318196 187.003463 
L 249.348639 187.003463 
L 249.502025 190.003713 
L 249.593858 190.003713 
L 249.716469 191.503838 
L 250.54432 191.503838 
L 250.666772 193.003963 
L 251.003876 193.003963 
L 251.126484 194.504088 
L 252.076849 194.504088 
L 252.168672 193.003963 
L 252.229975 194.504088 
L 252.260831 193.003963 
L 252.689898 193.003963 
L 252.812524 194.504088 
L 252.935192 194.504088 
L 253.088566 197.504338 
L 253.180278 197.504338 
L 253.303011 199.004463 
L 253.333467 199.004463 
L 253.456077 200.504588 
L 253.486964 200.504588 
L 253.609519 202.004713 
L 253.793381 202.004713 
L 253.916069 203.504838 
L 254.191736 203.504838 
L 254.31435 205.004963 
L 254.559571 205.004963 
L 254.682177 206.505088 
L 254.866392 206.505088 
L 254.988706 208.005213 
L 255.080822 208.005213 
L 255.203556 209.505338 
L 255.78567 209.505338 
L 255.908282 211.005463 
L 257.073077 211.005463 
L 257.134713 212.505588 
L 257.287875 211.005463 
L 257.318299 211.005463 
L 257.440909 212.505588 
L 257.808739 212.505588 
L 257.93135 211.005463 
L 258.146149 211.005463 
L 258.268747 212.505588 
L 258.483095 212.505588 
L 258.636619 214.005713 
L 259.310966 214.005713 
L 259.402676 212.505588 
L 259.586591 212.505588 
L 259.709197 214.005713 
L 260.414413 214.005713 
L 260.537043 215.505838 
L 260.720897 215.505838 
L 260.843555 217.005963 
L 260.904922 217.005963 
L 261.027469 218.506088 
L 261.057909 218.506088 
L 261.18088 220.006213 
L 261.334013 221.506338 
L 261.36444 221.506338 
L 261.517925 224.506588 
L 261.57923 224.506588 
L 261.701876 226.006713 
L 261.732273 226.006713 
L 261.88572 227.506838 
L 262.314878 227.506838 
L 262.437409 229.006963 
L 262.467936 229.006963 
L 262.621381 232.007213 
L 262.713153 232.007213 
L 262.866674 235.007463 
L 262.989101 235.007463 
L 263.111847 236.507588 
L 263.173052 236.507588 
L 263.29576 238.007713 
L 263.326206 238.007713 
L 263.448818 239.507838 
L 263.66358 239.507838 
L 263.786266 241.007963 
L 264.215362 241.007963 
L 264.337853 242.508088 
L 265.686667 242.508088 
L 265.778419 244.008213 
L 266.268861 244.008213 
L 266.391792 242.508088 
L 267.188442 242.508088 
L 267.311053 241.007963 
L 268.721471 241.007963 
L 268.843682 239.507838 
L 269.88587 239.507838 
L 270.008483 238.007713 
L 270.039351 238.007713 
L 270.161879 236.507588 
L 270.253703 236.507588 
L 270.376314 238.007713 
L 270.989687 238.007713 
L 271.142848 236.507588 
L 271.84764 236.507588 
L 271.970252 238.007713 
L 272.276779 238.007713 
L 272.399387 239.507838 
L 272.614182 239.507838 
L 272.705915 241.007963 
L 273.165811 241.007963 
L 273.319209 236.507588 
L 273.62549 236.507588 
L 273.748106 238.007713 
L 274.02417 238.007713 
L 274.146764 236.507588 
L 274.392014 236.507588 
L 274.514414 238.007713 
L 274.606378 238.007713 
L 274.728989 239.507838 
L 274.759838 239.507838 
L 274.882444 241.007963 
L 275.035883 241.007963 
L 275.188984 242.508088 
L 275.587263 242.508088 
L 275.740672 244.008213 
L 275.771178 244.008213 
L 275.893787 245.508338 
L 276.20071 245.508338 
L 276.415143 242.508088 
L 276.568146 242.508088 
L 276.690758 244.008213 
L 277.212101 244.008213 
L 277.334708 245.508338 
L 277.610337 245.508338 
L 277.732948 247.008463 
L 278.897749 247.008463 
L 279.02036 245.508338 
L 279.296511 245.508338 
L 279.419121 244.008213 
L 280.154734 244.008213 
L 280.246796 242.508088 
L 280.399939 242.508088 
L 280.522596 241.007963 
L 281.472571 241.007963 
L 281.595183 239.507838 
L 281.901709 239.507838 
L 282.02464 241.007963 
L 282.48434 241.007963 
L 282.545625 242.508088 
L 282.882592 242.508088 
L 283.005204 241.007963 
L 283.127814 241.007963 
L 283.281261 239.507838 
L 283.802171 239.507838 
L 283.924782 238.007713 
L 284.078294 238.007713 
L 284.200903 236.507588 
L 284.292611 236.507588 
L 284.446051 235.007463 
L 284.630071 235.007463 
L 284.752605 233.507338 
L 284.783057 233.507338 
L 284.905956 232.007213 
L 285.028276 232.007213 
L 285.150885 230.507088 
L 285.672283 230.507088 
L 285.794857 229.006963 
L 285.978722 229.006963 
L 286.10114 227.506838 
L 286.13177 227.506838 
L 286.315687 223.006463 
L 286.438294 223.006463 
L 286.560905 224.506588 
L 286.683513 224.506588 
L 286.806127 223.006463 
L 286.959612 223.006463 
L 287.112655 220.006213 
L 287.173959 220.006213 
L 287.327375 218.506088 
L 287.450095 218.506088 
L 287.603094 215.505838 
L 287.94048 215.505838 
L 288.093533 218.506088 
L 288.40005 218.506088 
L 288.583975 214.005713 
L 288.614831 214.005713 
L 288.767891 211.005463 
L 288.798749 211.005463 
L 288.952185 208.005213 
L 289.319637 208.005213 
L 289.473044 205.004963 
L 289.503753 205.004963 
L 289.71839 202.004713 
L 289.748773 202.004713 
L 289.871386 203.504838 
L 289.932689 203.504838 
L 290.055299 200.504588 
L 290.117015 200.504588 
L 290.270057 197.504338 
L 290.331394 197.504338 
L 290.484434 200.504588 
L 290.515304 200.504588 
L 290.668671 197.504338 
L 290.79096 197.504338 
L 290.913572 196.004213 
L 291.036181 196.004213 
L 291.189703 193.003963 
L 291.220097 193.003963 
L 291.680089 184.003213 
L 291.741425 184.003213 
L 291.863782 182.503088 
L 291.894447 182.503088 
L 292.047936 185.503338 
L 292.170523 184.003213 
L 292.231734 184.003213 
L 292.354411 182.503088 
L 292.384891 182.503088 
L 292.59972 175.002463 
L 292.814025 169.001963 
L 292.998299 173.502338 
L 293.151407 173.502338 
L 293.274016 172.002213 
L 293.458002 172.002213 
L 293.550004 163.001463 
L 294.101425 119.497838 
L 294.316214 114.997463 
L 294.530558 123.998213 
L 294.561406 122.498088 
L 294.591862 122.498088 
L 294.653166 117.997713 
L 294.71488 119.497838 
L 294.806548 123.998213 
L 294.837083 122.498088 
L 294.867957 122.498088 
L 295.143604 105.996713 
L 295.358237 90.995463 
L 295.511433 84.994963 
L 295.695344 90.995463 
L 295.879518 80.494588 
L 296.063173 93.995713 
L 296.52305 148.000213 
L 296.645809 137.499338 
L 296.952366 107.496838 
L 296.982743 108.996963 
L 297.136181 110.497088 
L 297.227962 104.496588 
L 297.258874 105.996713 
L 297.381469 107.496838 
L 297.504008 107.496838 
L 297.596142 98.496088 
L 297.871906 72.993963 
L 297.902315 74.494088 
L 298.147529 90.995463 
L 298.668886 101.496338 
L 298.791247 101.496338 
L 298.821882 102.996463 
L 298.883184 101.496338 
L 298.914022 101.496338 
L 299.036661 105.996713 
L 299.067101 104.496588 
L 299.18971 104.496588 
L 299.864063 134.499088 
L 299.92535 134.499088 
L 299.956071 132.998963 
L 300.017512 134.499088 
L 300.20144 138.999463 
L 300.231891 138.999463 
L 300.385419 141.999713 
L 300.50776 141.999713 
L 300.661026 144.999963 
L 300.814554 141.999713 
L 300.844938 141.999713 
L 300.998383 138.999463 
L 301.029268 138.999463 
L 301.182335 137.499338 
L 301.212767 137.499338 
L 301.396682 141.999713 
L 301.427574 141.999713 
L 301.519294 143.499838 
L 301.642302 141.999713 
L 301.764512 141.999713 
L 301.948425 146.500088 
L 301.979238 146.500088 
L 302.132341 149.500338 
L 302.194003 149.500338 
L 302.347132 151.000463 
L 302.438864 151.000463 
L 302.561472 152.500588 
L 302.592343 152.500588 
L 302.714827 154.000713 
L 302.990607 154.000713 
L 303.113217 155.500838 
L 303.174522 155.500838 
L 303.297131 157.000963 
L 303.57321 157.000963 
L 303.695803 158.501088 
L 303.910495 158.501088 
L 304.12489 161.501338 
L 304.278012 161.501338 
L 304.40062 163.001463 
L 304.461925 163.001463 
L 304.615358 164.501588 
L 304.645841 164.501588 
L 304.768449 166.001713 
L 304.829754 166.001713 
L 304.983221 169.001963 
L 305.044519 169.001963 
L 305.167049 170.502088 
L 305.258888 170.502088 
L 305.381499 172.002213 
L 305.596237 172.002213 
L 305.718739 173.502338 
L 305.810635 173.502338 
L 305.933242 175.002463 
L 306.05585 175.002463 
L 306.178458 176.502588 
L 306.331869 176.502588 
L 306.454583 178.002713 
L 306.791903 178.002713 
L 306.945001 179.502838 
L 307.435251 179.502838 
L 307.558034 178.002713 
L 307.64978 178.002713 
L 307.772389 179.502838 
L 307.803308 179.502838 
L 307.925884 178.002713 
L 308.201525 178.002713 
L 308.354992 181.002963 
L 308.446747 181.002963 
L 308.56935 182.503088 
L 308.630657 182.503088 
L 308.784186 179.502838 
L 309.795454 179.502838 
L 309.918065 181.002963 
L 310.469808 181.002963 
L 310.592421 179.502838 
L 310.776333 179.502838 
L 310.898944 178.002713 
L 310.960246 178.002713 
L 311.082858 176.502588 
L 311.573299 176.502588 
L 311.69591 175.002463 
L 311.726845 175.002463 
L 311.788014 173.502338 
L 311.818519 175.002463 
L 312.186347 175.002463 
L 312.308957 176.502588 
L 312.462477 176.502588 
L 312.554552 178.002713 
L 312.830309 178.002713 
L 312.98331 181.002963 
L 313.19791 181.002963 
L 313.320734 179.502838 
L 313.443236 179.502838 
L 313.565895 181.002963 
L 313.657667 181.002963 
L 313.780276 182.503088 
L 313.841581 182.503088 
L 313.964191 184.003213 
L 314.117698 184.003213 
L 314.270714 187.003463 
L 314.546775 191.503838 
L 314.607951 191.503838 
L 314.730755 193.003963 
L 314.79201 193.003963 
L 314.945073 196.004213 
L 314.975865 196.004213 
L 315.098526 197.504338 
L 316.109868 197.504338 
L 316.232479 196.004213 
L 316.355086 196.004213 
L 316.477696 194.504088 
L 316.998977 194.504088 
L 317.121619 193.003963 
L 317.335966 193.003963 
L 317.458576 191.503838 
L 317.734712 187.003463 
L 317.918557 187.003463 
L 318.041163 185.503338 
L 318.25554 185.503338 
L 318.37815 184.003213 
L 318.623372 184.003213 
L 318.745983 185.503338 
L 319.420337 185.503338 
L 319.542948 187.003463 
L 319.910775 187.003463 
L 320.033384 185.503338 
L 320.248093 188.503588 
L 320.309454 188.503588 
L 320.432019 187.003463 
L 320.585129 187.003463 
L 320.707738 188.503588 
L 321.075569 188.503588 
L 321.136875 187.003463 
L 321.167737 188.503588 
L 321.443402 188.503588 
L 321.566014 190.003713 
L 321.688619 190.003713 
L 321.811556 188.503588 
L 321.8419 188.503588 
L 321.995146 191.503838 
L 322.363301 191.503838 
L 322.516416 193.003963 
L 322.577802 193.003963 
L 322.700359 194.504088 
L 322.88427 194.504088 
L 323.00672 193.003963 
L 323.343859 193.003963 
L 323.466466 194.504088 
L 323.650384 194.504088 
L 323.803849 197.504338 
L 323.895603 197.504338 
L 324.049114 200.504588 
L 324.079518 200.504588 
L 324.232897 202.004713 
L 324.355614 200.504588 
L 324.386408 200.504588 
L 324.539607 197.504338 
L 324.78467 197.504338 
L 324.937789 200.504588 
L 324.999095 200.504588 
L 325.121704 199.004463 
L 325.213847 199.004463 
L 325.428232 205.004963 
L 325.612144 205.004963 
L 325.734757 206.505088 
L 325.88805 206.505088 
L 326.041283 203.504838 
L 326.501179 203.504838 
L 326.685252 199.004463 
L 326.899552 199.004463 
L 327.022147 200.504588 
L 327.144772 199.004463 
L 327.206076 199.004463 
L 327.328687 200.504588 
L 327.48218 200.504588 
L 327.543438 199.004463 
L 327.574262 200.504588 
L 327.788754 200.504588 
L 327.941738 197.504338 
L 328.186958 197.504338 
L 328.217686 199.004463 
L 328.279127 197.504338 
L 328.370871 197.504338 
L 328.524362 200.504588 
L 328.585609 200.504588 
L 328.677402 202.004713 
L 328.830817 202.004713 
L 328.953502 203.504838 
L 329.076156 202.004713 
L 329.137419 202.004713 
L 329.382507 209.505338 
L 329.443882 209.505338 
L 329.596976 212.505588 
L 329.689203 212.505588 
L 329.811714 214.005713 
L 330.026109 214.005713 
L 330.179572 211.005463 
L 330.393945 211.005463 
L 330.54733 214.005713 
L 330.608684 214.005713 
L 330.731289 215.505838 
L 330.792638 215.505838 
L 330.915255 214.005713 
L 331.006995 214.005713 
L 331.2217 211.005463 
L 331.344398 211.005463 
L 331.466993 212.505588 
L 331.650711 208.005213 
L 331.77356 208.005213 
L 331.92657 211.005463 
L 332.049181 211.005463 
L 332.172119 214.005713 
L 332.263843 214.005713 
L 332.386491 215.505838 
L 332.631831 215.505838 
L 332.785218 218.506088 
L 332.84615 218.506088 
L 332.968761 220.006213 
L 332.999678 220.006213 
L 333.122264 221.506338 
L 333.183586 221.506338 
L 333.30621 220.006213 
L 333.551308 220.006213 
L 333.704418 217.005963 
L 333.765728 217.005963 
L 333.888339 218.506088 
L 334.041795 220.006213 
L 334.348361 220.006213 
L 334.501727 223.006463 
L 334.593485 223.006463 
L 334.746609 226.006713 
L 334.838791 226.006713 
L 334.99183 229.006963 
L 335.053419 229.006963 
L 335.206614 227.506838 
L 335.513176 227.506838 
L 335.727492 221.506338 
L 335.850101 221.506338 
L 336.003615 224.506588 
L 336.034019 224.506588 
L 336.187516 221.506338 
L 336.585765 221.506338 
L 336.708376 220.006213 
L 336.892291 220.006213 
L 337.04566 223.006463 
L 337.076207 223.006463 
L 337.198816 224.506588 
L 337.352288 224.506588 
L 337.50534 227.506838 
L 337.811869 227.506838 
L 337.873174 226.006713 
L 337.904029 227.506838 
L 338.026506 227.506838 
L 338.149251 229.006963 
L 338.39455 229.006963 
L 338.486225 230.507088 
L 338.731447 230.507088 
L 338.884928 233.507338 
L 339.037972 233.507338 
L 339.099628 235.007463 
L 339.252769 233.507338 
L 339.283196 233.507338 
L 339.405805 235.007463 
L 339.436634 235.007463 
L 339.559272 233.507338 
L 339.651026 233.507338 
L 339.804456 232.007213 
L 339.988384 232.007213 
L 340.080162 233.507338 
L 340.32539 226.006713 
L 340.63191 226.006713 
L 340.815828 221.506338 
L 340.999743 221.506338 
L 341.153161 218.506088 
L 341.337109 218.506088 
L 341.796705 191.503838 
L 342.134099 169.001963 
L 342.195422 169.001963 
L 342.440575 152.500588 
L 342.593973 148.000213 
L 342.71628 148.000213 
L 342.992394 138.999463 
L 343.022803 138.999463 
L 343.145778 143.499838 
L 343.206716 141.999713 
L 343.268023 143.499838 
L 343.298879 141.999713 
L 343.360189 141.999713 
L 343.51324 132.998963 
L 343.574545 135.999213 
L 343.60538 135.999213 
L 343.666726 137.499338 
L 343.697154 135.999213 
L 344.248898 92.495588 
L 344.34086 93.995713 
L 344.494116 95.495838 
L 344.586145 93.995713 
L 344.862256 83.494838 
L 344.923252 84.994963 
L 345.107162 98.496088 
L 345.137999 96.995963 
L 345.168468 96.995963 
L 345.321883 93.995713 
L 345.352382 93.995713 
L 345.413684 90.995463 
L 345.628454 102.996463 
L 345.658904 102.996463 
L 345.781512 107.496838 
L 346.088034 87.995213 
L 346.333258 72.993963 
L 346.578806 89.495338 
L 346.701077 86.495088 
L 346.823688 86.495088 
L 346.884996 84.994963 
L 346.91589 86.495088 
L 346.946298 86.495088 
L 347.03849 87.995213 
L 347.344947 74.494088 
L 347.375433 75.994213 
L 347.406259 75.994213 
L 347.559345 72.993963 
L 347.71278 77.494338 
L 347.865871 78.994463 
L 347.927172 77.494338 
L 347.958015 78.994463 
L 348.141976 78.994463 
L 348.295001 84.994963 
L 348.325759 83.494838 
L 348.387133 83.494838 
L 348.540215 86.495088 
L 348.601524 83.494838 
L 348.632409 84.994963 
L 348.755037 89.495338 
L 348.785433 87.995213 
L 348.846729 87.995213 
L 348.908043 90.995463 
L 349.735896 93.995713 
L 350.256749 72.993963 
L 350.348889 77.494338 
L 350.37936 75.994213 
L 350.410231 75.994213 
L 350.62458 60.992963 
L 350.71675 56.492588 
L 350.992404 81.994713 
L 351.023199 81.994713 
L 351.05371 80.494588 
L 351.115374 81.994713 
L 351.298923 86.495088 
L 351.329794 86.495088 
L 351.513651 80.494588 
L 351.636204 84.994963 
L 351.758785 74.494088 
L 352.157188 45.991713 
L 352.188008 45.991713 
L 352.341103 38.491088 
L 352.433274 39.991213 
L 352.463714 38.491088 
L 352.525018 39.991213 
L 352.555769 39.991213 
L 352.73967 44.491588 
L 352.770231 44.491588 
L 352.892841 41.491338 
L 352.92361 41.491338 
L 353.015453 36.990963 
L 353.046317 38.491088 
L 354.180232 89.495338 
L 354.486764 78.994463 
L 354.517625 78.994463 
L 354.640119 80.494588 
L 354.670675 80.494588 
L 354.85459 71.493838 
L 355.007999 74.494088 
L 355.038501 74.494088 
L 355.099806 71.493838 
L 355.161448 72.993963 
L 355.314606 75.994213 
L 355.345024 75.994213 
L 355.437213 77.494338 
L 355.651549 71.493838 
L 355.682318 71.493838 
L 355.804943 69.993713 
L 356.05026 77.494338 
L 356.203288 77.494338 
L 356.81633 111.997213 
L 357.092424 125.498338 
L 357.122856 125.498338 
L 357.368074 132.998963 
L 357.398954 132.998963 
L 357.58284 137.499338 
L 357.613295 137.499338 
L 357.797212 141.999713 
L 357.889309 141.999713 
L 358.042428 144.999963 
L 358.073148 144.999963 
L 358.16504 146.500088 
L 361.230284 164.501588 
L 361.352893 166.001713 
L 361.383653 166.001713 
L 361.506412 167.501838 
L 361.598367 167.501838 
L 361.751523 169.001963 
L 362.149858 169.001963 
L 362.303265 170.502088 
L 362.364654 170.502088 
L 362.487229 169.001963 
L 362.579288 169.001963 
L 362.701601 170.502088 
L 362.732401 170.502088 
L 362.82421 172.002213 
L 362.946819 170.502088 
L 363.069425 170.502088 
L 363.22293 173.502338 
L 363.314647 173.502338 
L 363.65198 179.502838 
L 363.713246 179.502838 
L 363.835927 181.002963 
L 363.866393 181.002963 
L 364.019794 182.503088 
L 364.050304 182.503088 
L 364.172913 184.003213 
L 364.326348 184.003213 
L 364.479804 187.003463 
L 364.602049 187.003463 
L 364.755443 184.003213 
L 364.877993 184.003213 
L 365.000727 182.503088 
L 365.092854 182.503088 
L 365.123172 184.003213 
L 365.491174 185.503338 
L 365.613761 184.003213 
L 365.736336 184.003213 
L 365.766845 185.503338 
L 365.981614 185.503338 
L 366.104201 184.003213 
L 366.288137 184.003213 
L 366.379895 185.503338 
L 366.471882 185.503338 
L 366.594644 187.003463 
L 366.625115 187.003463 
L 366.747726 188.503588 
L 366.778534 188.503588 
L 366.93164 191.503838 
L 366.993223 191.503838 
L 367.146355 193.003963 
L 367.299473 193.003963 
L 367.422083 191.503838 
L 367.605984 191.503838 
L 367.728611 193.003963 
L 368.402959 193.003963 
L 368.556371 196.004213 
L 369.13862 196.004213 
L 369.26123 194.504088 
L 369.414608 193.003963 
L 369.629061 193.003963 
L 369.751668 194.504088 
L 369.843805 194.504088 
L 369.996889 191.503838 
L 370.426025 191.503838 
L 370.579433 190.003713 
L 370.609943 190.003713 
L 370.76338 187.003463 
L 370.916466 187.003463 
L 371.039386 188.503588 
L 371.069723 188.503588 
L 371.192456 187.003463 
L 371.253797 187.003463 
L 371.376401 185.503338 
L 371.49906 185.503338 
L 371.713431 179.502838 
L 371.836043 181.002963 
L 371.928229 181.002963 
L 372.050827 182.503088 
L 372.11215 182.503088 
L 372.234544 184.003213 
L 372.295985 184.003213 
L 372.418593 182.503088 
L 372.449092 182.503088 
L 372.571703 181.002963 
L 372.755943 181.002963 
L 372.909078 182.503088 
L 373.154313 182.503088 
L 373.276955 184.003213 
L 373.369005 184.003213 
L 373.522063 187.003463 
L 373.98172 187.003463 
L 374.104325 185.503338 
L 374.135155 185.503338 
L 374.257838 184.003213 
L 374.380323 185.503338 
L 374.41085 185.503338 
L 374.533461 184.003213 
L 374.717379 184.003213 
L 374.870772 187.003463 
L 375.023906 187.003463 
L 375.177321 185.503338 
L 375.299964 187.003463 
L 375.391733 187.003463 
L 375.514345 188.503588 
L 375.606474 188.503588 
L 375.729011 187.003463 
L 376.004788 187.003463 
L 376.127395 188.503588 
L 376.311311 188.503588 
L 376.433923 190.003713 
L 376.74045 190.003713 
L 376.863056 188.503588 
L 377.690872 188.503588 
L 377.813536 187.003463 
L 377.8748 187.003463 
L 377.997217 185.503338 
L 378.15046 185.503338 
L 378.273072 187.003463 
L 378.426532 187.003463 
L 378.456985 188.503588 
L 378.518625 187.003463 
L 379.162042 187.003463 
L 379.284766 185.503338 
L 379.437869 185.503338 
L 379.560481 184.003213 
L 380.357444 184.003213 
L 380.480054 182.503088 
L 380.66397 182.503088 
L 380.786577 184.003213 
L 381.553049 184.003213 
L 381.675681 182.503088 
L 381.859624 182.503088 
L 381.951372 184.003213 
L 382.013053 184.003213 
L 382.135286 185.503338 
L 382.257898 184.003213 
L 382.595063 184.003213 
L 382.62573 185.503338 
L 382.687033 184.003213 
L 382.840506 184.003213 
L 382.963091 185.503338 
L 383.085704 184.003213 
L 383.483998 184.003213 
L 383.606604 185.503338 
L 383.66791 185.503338 
L 383.821324 187.003463 
L 384.097044 187.003463 
L 384.219653 188.503588 
L 384.342264 188.503588 
L 384.464875 190.003713 
L 384.771401 190.003713 
L 384.894286 191.503838 
L 384.924704 191.503838 
L 385.077923 188.503588 
L 385.415281 188.503588 
L 385.53783 190.003713 
L 385.721837 190.003713 
L 385.844491 191.503838 
L 385.967022 191.503838 
L 386.089524 193.003963 
L 386.702656 193.003963 
L 386.825296 191.503838 
L 387.162547 191.503838 
L 387.315716 190.003713 
L 387.46882 190.003713 
L 387.591427 191.503838 
L 387.806037 191.503838 
L 387.928798 193.003963 
L 387.959261 193.003963 
L 388.081868 191.503838 
L 388.480568 191.503838 
L 388.6031 193.003963 
L 388.787121 193.003963 
L 388.94014 196.004213 
L 389.277498 196.004213 
L 389.400119 197.504338 
L 389.52255 196.004213 
L 389.768018 196.004213 
L 389.890644 194.504088 
L 390.350152 194.504088 
L 390.503599 191.503838 
L 390.534072 191.503838 
L 390.717986 187.003463 
L 390.779289 187.003463 
L 390.901899 188.503588 
L 391.269731 188.503588 
L 391.423233 191.503838 
L 391.698866 191.503838 
L 391.821473 193.003963 
L 392.036224 193.003963 
L 392.128002 191.503838 
L 392.250611 193.003963 
L 392.587959 193.003963 
L 392.710557 191.503838 
L 393.384968 191.503838 
L 393.476714 190.003713 
L 393.875404 190.003713 
L 393.99798 191.503838 
L 394.059311 191.503838 
L 394.181825 193.003963 
L 394.243193 193.003963 
L 394.365808 194.504088 
L 395.101522 194.504088 
L 395.193257 193.003963 
L 395.71451 193.003963 
L 395.806645 191.503838 
L 396.818011 191.503838 
L 396.940675 190.003713 
L 397.522846 190.003713 
L 397.67629 188.503588 
L 398.626336 188.503588 
L 398.748944 187.003463 
L 398.932859 187.003463 
L 399.055466 188.503588 
L 399.086285 188.503588 
L 399.17808 190.003713 
L 399.301014 190.003713 
L 399.423298 191.503838 
L 399.515514 191.503838 
L 399.668515 194.504088 
L 399.822025 194.504088 
L 399.944504 196.004213 
L 400.557552 196.004213 
L 400.680197 197.504338 
L 400.710703 197.504338 
L 400.864178 200.504588 
L 401.293281 200.504588 
L 401.415946 199.004463 
L 401.845042 199.004463 
L 401.967689 200.504588 
L 402.458119 200.504588 
L 402.580707 199.004463 
L 402.672462 199.004463 
L 402.795072 197.504338 
L 402.887156 197.504338 
L 403.04029 194.504088 
L 403.193779 194.504088 
L 403.347192 191.503838 
L 403.438965 191.503838 
L 403.592037 188.503588 
L 403.714646 188.503588 
L 403.868063 185.503338 
L 404.542345 185.503338 
L 404.664983 184.003213 
L 404.787692 184.003213 
L 404.910274 185.503338 
L 405.553797 185.503338 
L 405.707169 182.503088 
L 405.768519 182.503088 
L 405.952386 178.002713 
L 405.982935 178.002713 
L 406.166851 173.502338 
L 406.228514 173.502338 
L 406.381573 170.502088 
L 406.718594 170.502088 
L 406.841206 172.002213 
L 406.871991 172.002213 
L 406.99463 170.502088 
L 407.147729 170.502088 
L 407.270343 169.001963 
L 407.638174 169.001963 
L 407.760779 170.502088 
L 408.312525 170.502088 
L 408.466 167.501838 
L 408.557745 167.501838 
L 408.680356 166.001713 
L 408.772506 166.001713 
L 408.925579 163.001463 
L 408.956445 163.001463 
L 409.569486 137.499338 
L 409.599932 137.499338 
L 409.753328 134.499088 
L 409.814648 134.499088 
L 410.090371 125.498338 
L 410.121277 125.498338 
L 410.366459 116.497588 
L 410.672967 126.998463 
L 410.73419 126.998463 
L 410.918151 131.498838 
L 411.102157 126.998463 
L 411.16342 126.998463 
L 411.286053 125.498338 
L 411.378161 125.498338 
L 411.837773 116.497588 
L 412.021533 116.497588 
L 412.297342 125.498338 
L 412.328242 125.498338 
L 412.481254 135.999213 
L 412.726474 154.000713 
L 412.879946 157.000963 
L 412.910391 157.000963 
L 413.032997 158.501088 
L 413.216914 158.501088 
L 413.339524 160.001213 
L 413.40083 160.001213 
L 413.554297 163.001463 
L 413.646053 163.001463 
L 414.228675 175.002463 
L 414.289737 175.002463 
L 414.412604 176.502588 
L 414.688235 176.502588 
L 414.810842 178.002713 
L 414.933452 178.002713 
L 415.056065 179.502838 
L 415.117369 179.502838 
L 415.23998 178.002713 
L 415.485198 178.002713 
L 415.607807 179.502838 
L 416.220861 179.502838 
L 416.343469 181.002963 
L 416.404775 181.002963 
L 416.527381 182.503088 
L 416.803435 182.503088 
L 416.926075 184.003213 
L 417.201735 184.003213 
L 417.324346 185.503338 
L 418.949012 185.503338 
L 419.071718 187.003463 
L 419.132913 187.003463 
L 419.255618 188.503588 
L 419.562102 188.503588 
L 419.684755 190.003713 
L 419.807361 190.003713 
L 419.92991 191.503838 
L 420.175146 191.503838 
L 420.297773 193.003963 
L 420.941325 193.003963 
L 421.063939 194.504088 
L 421.339985 194.504088 
L 421.462597 196.004213 
L 421.523814 196.004213 
L 421.646418 197.504338 
L 421.738587 197.504338 
L 421.830334 196.004213 
L 421.953123 197.504338 
L 422.167429 197.504338 
L 422.290038 199.004463 
L 422.443466 197.504338 
L 422.657871 197.504338 
L 422.688663 199.004463 
L 422.749985 197.504338 
L 422.811365 197.504338 
L 422.903435 199.004463 
L 423.638746 199.004463 
L 423.761359 200.504588 
L 424.037447 200.504588 
L 424.159973 202.004713 
L 424.374408 202.004713 
L 424.497021 203.504838 
L 425.324793 203.504838 
L 425.447435 202.004713 
L 425.477902 202.004713 
L 425.631344 199.004463 
L 425.661816 199.004463 
L 425.753896 197.504338 
L 425.876484 199.004463 
L 425.937898 199.004463 
L 426.090955 202.004713 
L 426.274869 202.004713 
L 426.397855 203.504838 
L 426.428174 203.504838 
L 426.489615 205.004963 
L 426.520091 203.504838 
L 426.581392 203.504838 
L 426.704003 202.004713 
L 426.734894 202.004713 
L 426.918736 206.505088 
L 426.949604 206.505088 
L 427.071836 208.005213 
L 427.194444 208.005213 
L 427.317057 209.505338 
L 427.500972 209.505338 
L 427.654433 211.005463 
L 427.746195 209.505338 
L 427.89964 212.505588 
L 427.930109 212.505588 
L 428.052723 214.005713 
L 428.481857 214.005713 
L 428.604468 212.505588 
L 428.666139 212.505588 
L 428.880565 209.505338 
L 429.585355 209.505338 
L 429.707963 211.005463 
L 429.738882 211.005463 
L 429.800081 212.505588 
L 429.830922 211.005463 
L 430.229246 211.005463 
L 430.351842 209.505338 
L 430.382323 209.505338 
L 430.658453 214.005713 
L 431.117987 214.005713 
L 431.271433 217.005963 
L 431.363203 217.005963 
L 431.485817 215.505838 
L 431.669732 215.505838 
L 431.761853 217.005963 
L 431.884506 215.505838 
L 431.97626 215.505838 
L 432.098869 214.005713 
L 432.252225 212.505588 
L 432.344086 212.505588 
L 432.4667 214.005713 
L 432.773224 214.005713 
L 432.926679 212.505588 
L 433.049335 212.505588 
L 433.141058 211.005463 
L 433.263667 212.505588 
L 433.539768 217.005963 
L 433.723686 217.005963 
L 433.846236 218.506088 
L 434.214098 218.506088 
L 434.367159 221.506338 
L 434.428811 221.506338 
L 434.581901 223.006463 
L 434.98021 223.006463 
L 435.195 226.006713 
L 435.317605 226.006713 
L 435.470654 229.006963 
L 435.930635 229.006963 
L 436.05327 227.506838 
L 436.083701 227.506838 
L 436.23701 224.506588 
L 436.267617 224.506588 
L 436.390227 223.006463 
L 436.666218 223.006463 
L 436.819368 226.006713 
L 436.911533 224.506588 
L 437.034186 226.006713 
L 437.095379 226.006713 
L 437.218058 227.506838 
L 437.309804 227.506838 
L 437.463269 226.006713 
L 437.64711 226.006713 
L 437.769813 227.506838 
L 438.045464 227.506838 
L 438.168071 226.006713 
L 438.535905 226.006713 
L 438.689271 229.006963 
L 438.903736 229.006963 
L 439.026344 227.506838 
L 439.30242 227.506838 
L 439.425023 226.006713 
L 440.16059 226.006713 
L 440.31375 223.006463 
L 440.559238 223.006463 
L 440.68158 224.506588 
L 440.712445 224.506588 
L 440.834843 226.006713 
L 440.896241 226.006713 
L 440.926801 227.506838 
L 440.988108 226.006713 
L 441.294631 226.006713 
L 441.447971 229.006963 
L 441.47855 229.006963 
L 441.631981 232.007213 
L 441.785074 232.007213 
L 441.969327 236.507588 
L 442.091595 236.507588 
L 442.152901 238.007713 
L 442.183791 236.507588 
L 442.245069 236.507588 
L 442.367639 238.007713 
L 442.52111 238.007713 
L 442.674206 236.507588 
L 442.827266 236.507588 
L 442.94988 238.007713 
L 443.011185 238.007713 
L 443.134122 236.507588 
L 443.501628 236.507588 
L 443.655012 239.507838 
L 443.685864 239.507838 
L 443.839032 241.007963 
L 443.86946 241.007963 
L 443.99207 242.508088 
L 444.084213 242.508088 
L 444.206841 241.007963 
L 444.482517 241.007963 
L 444.666429 236.507588 
L 444.972954 236.507588 
L 445.065104 235.007463 
L 445.218182 238.007713 
L 445.249001 238.007713 
L 445.371546 239.507838 
L 445.402328 239.507838 
L 445.555497 241.007963 
L 445.647314 241.007963 
L 445.800838 244.008213 
L 445.862086 244.008213 
L 445.953843 245.508338 
L 446.107268 244.008213 
L 446.260369 244.008213 
L 446.444287 239.507838 
L 446.475158 239.507838 
L 446.628205 236.507588 
L 446.689507 236.507588 
L 446.842983 239.507838 
L 446.96561 239.507838 
L 447.088198 238.007713 
L 447.609086 238.007713 
L 447.732038 236.507588 
L 447.762339 236.507588 
L 447.88502 238.007713 
L 448.099532 238.007713 
L 448.160838 236.507588 
L 448.191646 238.007713 
L 448.712586 238.007713 
L 448.835198 236.507588 
L 448.988599 238.007713 
L 449.049927 238.007713 
L 449.08042 239.507838 
L 449.141722 238.007713 
L 449.816084 238.007713 
L 449.938695 239.507838 
L 450 239.507838 
L 450 239.507838 
" clip-path="url(#p7e6ecd3387)" style="fill: none; stroke: #1f77b4; stroke-width: 1.5; stroke-linecap: square"/>
   </g>
   <g id="patch_3">
    <path d="M 46.46 279.561175 
L 46.46 25.44 
" style="fill: none; stroke: #000000; stroke-width: 0.8; stroke-linejoin: miter; stroke-linecap: square"/>
   </g>
   <g id="patch_4">
    <path d="M 450 279.561175 
L 450 25.44 
" style="fill: none; stroke: #000000; stroke-width: 0.8; stroke-linejoin: miter; stroke-linecap: square"/>
   </g>
   <g id="patch_5">
    <path d="M 46.46 279.561175 
L 450 279.561175 
" style="fill: none; stroke: #000000; stroke-width: 0.8; stroke-linejoin: miter; stroke-linecap: square"/>
   </g>
   <g id="patch_6">
    <path d="M 46.46 25.44 
L 450 25.44 
" style="fill: none; stroke: #000000; stroke-width: 0.8; stroke-linejoin: miter; stroke-linecap: square"/>
   </g>
   <g id="text_17">
    <!-- November 2023 -->
    <g transform="translate(199.838125 19.44) scale(0.12 -0.12)">
     <defs>
      <path id="DejaVuSans-4e" d="M 628 4666 
L 1478 4666 
L 3547 763 
L 3547 4666 
L 4159 4666 
L 4159 0 
L 3309 0 
L 1241 3903 
L 1241 0 
L 628 0 
L 628 4666 
z
" transform="scale(0.015625)"/>
      <path id="DejaVuSans-6f" d="M 1959 3097 
Q 1497 3097 1228 2736 
Q 959 2375 959 1747 
Q 959 1119 1226 758 
Q 1494 397 1959 397 
Q 2419 397 2687 759 
Q 2956 1122 2956 1747 
Q 2956 2369 2687 2733 
Q 2419 3097 1959 3097 
z
M 1959 3584 
Q 2709 3584 3137 3096 
Q 3566 2609 3566 1747 
Q 3566 888 3137 398 
Q 2709 -91 1959 -91 
Q 1206 -91 779 398 
Q 353 888 353 1747 
Q 353 2609 779 3096 
Q 1206 3584 1959 3584 
z
" transform="scale(0.015625)"/>
      <path id="DejaVuSans-76" d="M 191 3500 
L 800 3500 
L 1894 563 
L 2988 3500 
L 3597 3500 
L 2284 0 
L 1503 0 
L 191 3500 
z
" transform="scale(0.015625)"/>
      <path id="DejaVuSans-62" d="M 3116 1747 
Q 3116 2381 2855 2742 
Q 2594 3103 2138 3103 
Q 1681 3103 1420 2742 
Q 1159 2381 1159 1747 
Q 1159 1113 1420 752 
Q 1681 391 2138 391 
Q 2594 391 2855 752 
Q 3116 1113 3116 1747 
z
M 1159 2969 
Q 1341 3281 1617 3432 
Q 1894 3584 2278 3584 
Q 2916 3584 3314 3078 
Q 3713 2572 3713 1747 
Q 3713 922 3314 415 
Q 2916 -91 2278 -91 
Q 1894 -91 1617 61 
Q 1341 213 1159 525 
L 1159 0 
L 581 0 
L 581 4863 
L 1159 4863 
L 1159 2969 
z
" transform="scale(0.015625)"/>
     </defs>
     <use xlink:href="#DejaVuSans-4e"/>
     <use xlink:href="#DejaVuSans-6f" x="74.804688"/>
     <use xlink:href="#DejaVuSans-76" x="135.986328"/>
     <use xlink:href="#DejaVuSans-65" x="195.166016"/>
     <use xlink:href="#DejaVuSans-6d" x="256.689453"/>
     <use xlink:href="#DejaVuSans-62" x="354.101562"/>
     <use xlink:href="#DejaVuSans-65" x="417.578125"/>
     <use xlink:href="#DejaVuSans-72" x="479.101562"/>
     <use xlink:href="#DejaVuSans-20" x="520.214844"/>
     <use xlink:href="#DejaVuSans-32" x="552.001953"/>
     <use xlink:href="#DejaVuSans-30" x="615.625"/>
     <use xlink:href="#DejaVuSans-32" x="679.248047"/>
     <use xlink:href="#DejaVuSans-33" x="742.871094"/>
    </g>
   </g>
  </g>
 </g>
 <defs>
  <clipPath id="p7e6ecd3387">
   <rect x="46.46" y="25.44" width="403.54" height="254.121175"/>
  </clipPath>
 </defs>
</svg>
