<?xml version="1.0" encoding="utf-8" standalone="no"?>
<!DOCTYPE svg PUBLIC "-//W3C//DTD SVG 1.1//EN"
  "http://www.w3.org/Graphics/SVG/1.1/DTD/svg11.dtd">
<svg xmlns:xlink="http://www.w3.org/1999/xlink" width="460.8pt" height="345.6pt" viewBox="0 0 460.8 345.6" xmlns="http://www.w3.org/2000/svg" version="1.1">
 <metadata>
  <rdf:RDF xmlns:dc="http://purl.org/dc/elements/1.1/" xmlns:cc="http://creativecommons.org/ns#" xmlns:rdf="http://www.w3.org/1999/02/22-rdf-syntax-ns#">
   <cc:Work>
    <dc:type rdf:resource="http://purl.org/dc/dcmitype/StillImage"/>
    <dc:date>2023-11-08T19:36:47.223669</dc:date>
    <dc:format>image/svg+xml</dc:format>
    <dc:creator>
     <cc:Agent>
      <dc:title>Matplotlib v3.6.3, https://matplotlib.org/</dc:title>
     </cc:Agent>
    </dc:creator>
   </cc:Work>
  </rdf:RDF>
 </metadata>
 <defs>
  <style type="text/css">*{stroke-linejoin: round; stroke-linecap: butt}</style>
 </defs>
 <g id="figure_1">
  <g id="patch_1">
   <path d="M 0 345.6 
L 460.8 345.6 
L 460.8 0 
L 0 0 
z
" style="fill: #ffffff"/>
  </g>
  <g id="axes_1">
   <g id="patch_2">
    <path d="M 46.46 279.561175 
L 450 279.561175 
L 450 25.44 
L 46.46 25.44 
z
" style="fill: #ffffff"/>
   </g>
   <g id="matplotlib.axis_1">
    <g id="xtick_1">
     <g id="line2d_1">
      <path d="M 98.062239 279.561175 
L 98.062239 25.44 
" clip-path="url(#pc69b456e56)" style="fill: none; stroke: #b0b0b0; stroke-width: 0.8; stroke-linecap: square"/>
     </g>
     <g id="line2d_2">
      <defs>
       <path id="m0f995789ad" d="M 0 0 
L 0 3.5 
" style="stroke: #000000; stroke-width: 0.8"/>
      </defs>
      <g>
       <use xlink:href="#m0f995789ad" x="98.062239" y="279.561175" style="stroke: #000000; stroke-width: 0.8"/>
      </g>
     </g>
     <g id="text_1">
      <!-- 2023-11-02 -->
      <g transform="translate(55.497725 333.028035) rotate(-45) scale(0.1 -0.1)">
       <defs>
        <path id="DejaVuSans-32" d="M 1228 531 
L 3431 531 
L 3431 0 
L 469 0 
L 469 531 
Q 828 903 1448 1529 
Q 2069 2156 2228 2338 
Q 2531 2678 2651 2914 
Q 2772 3150 2772 3378 
Q 2772 3750 2511 3984 
Q 2250 4219 1831 4219 
Q 1534 4219 1204 4116 
Q 875 4013 500 3803 
L 500 4441 
Q 881 4594 1212 4672 
Q 1544 4750 1819 4750 
Q 2544 4750 2975 4387 
Q 3406 4025 3406 3419 
Q 3406 3131 3298 2873 
Q 3191 2616 2906 2266 
Q 2828 2175 2409 1742 
Q 1991 1309 1228 531 
z
" transform="scale(0.015625)"/>
        <path id="DejaVuSans-30" d="M 2034 4250 
Q 1547 4250 1301 3770 
Q 1056 3291 1056 2328 
Q 1056 1369 1301 889 
Q 1547 409 2034 409 
Q 2525 409 2770 889 
Q 3016 1369 3016 2328 
Q 3016 3291 2770 3770 
Q 2525 4250 2034 4250 
z
M 2034 4750 
Q 2819 4750 3233 4129 
Q 3647 3509 3647 2328 
Q 3647 1150 3233 529 
Q 2819 -91 2034 -91 
Q 1250 -91 836 529 
Q 422 1150 422 2328 
Q 422 3509 836 4129 
Q 1250 4750 2034 4750 
z
" transform="scale(0.015625)"/>
        <path id="DejaVuSans-33" d="M 2597 2516 
Q 3050 2419 3304 2112 
Q 3559 1806 3559 1356 
Q 3559 666 3084 287 
Q 2609 -91 1734 -91 
Q 1441 -91 1130 -33 
Q 819 25 488 141 
L 488 750 
Q 750 597 1062 519 
Q 1375 441 1716 441 
Q 2309 441 2620 675 
Q 2931 909 2931 1356 
Q 2931 1769 2642 2001 
Q 2353 2234 1838 2234 
L 1294 2234 
L 1294 2753 
L 1863 2753 
Q 2328 2753 2575 2939 
Q 2822 3125 2822 3475 
Q 2822 3834 2567 4026 
Q 2313 4219 1838 4219 
Q 1578 4219 1281 4162 
Q 984 4106 628 3988 
L 628 4550 
Q 988 4650 1302 4700 
Q 1616 4750 1894 4750 
Q 2613 4750 3031 4423 
Q 3450 4097 3450 3541 
Q 3450 3153 3228 2886 
Q 3006 2619 2597 2516 
z
" transform="scale(0.015625)"/>
        <path id="DejaVuSans-2d" d="M 313 2009 
L 1997 2009 
L 1997 1497 
L 313 1497 
L 313 2009 
z
" transform="scale(0.015625)"/>
        <path id="DejaVuSans-31" d="M 794 531 
L 1825 531 
L 1825 4091 
L 703 3866 
L 703 4441 
L 1819 4666 
L 2450 4666 
L 2450 531 
L 3481 531 
L 3481 0 
L 794 0 
L 794 531 
z
" transform="scale(0.015625)"/>
       </defs>
       <use xlink:href="#DejaVuSans-32"/>
       <use xlink:href="#DejaVuSans-30" x="63.623047"/>
       <use xlink:href="#DejaVuSans-32" x="127.246094"/>
       <use xlink:href="#DejaVuSans-33" x="190.869141"/>
       <use xlink:href="#DejaVuSans-2d" x="254.492188"/>
       <use xlink:href="#DejaVuSans-31" x="290.576172"/>
       <use xlink:href="#DejaVuSans-31" x="354.199219"/>
       <use xlink:href="#DejaVuSans-2d" x="417.822266"/>
       <use xlink:href="#DejaVuSans-30" x="453.90625"/>
       <use xlink:href="#DejaVuSans-32" x="517.529297"/>
      </g>
     </g>
    </g>
    <g id="xtick_2">
     <g id="line2d_3">
      <path d="M 149.691945 279.561175 
L 149.691945 25.44 
" clip-path="url(#pc69b456e56)" style="fill: none; stroke: #b0b0b0; stroke-width: 0.8; stroke-linecap: square"/>
     </g>
     <g id="line2d_4">
      <g>
       <use xlink:href="#m0f995789ad" x="149.691945" y="279.561175" style="stroke: #000000; stroke-width: 0.8"/>
      </g>
     </g>
     <g id="text_2">
      <!-- 2023-11-03 -->
      <g transform="translate(107.127431 333.028035) rotate(-45) scale(0.1 -0.1)">
       <use xlink:href="#DejaVuSans-32"/>
       <use xlink:href="#DejaVuSans-30" x="63.623047"/>
       <use xlink:href="#DejaVuSans-32" x="127.246094"/>
       <use xlink:href="#DejaVuSans-33" x="190.869141"/>
       <use xlink:href="#DejaVuSans-2d" x="254.492188"/>
       <use xlink:href="#DejaVuSans-31" x="290.576172"/>
       <use xlink:href="#DejaVuSans-31" x="354.199219"/>
       <use xlink:href="#DejaVuSans-2d" x="417.822266"/>
       <use xlink:href="#DejaVuSans-30" x="453.90625"/>
       <use xlink:href="#DejaVuSans-33" x="517.529297"/>
      </g>
     </g>
    </g>
    <g id="xtick_3">
     <g id="line2d_5">
      <path d="M 201.321651 279.561175 
L 201.321651 25.44 
" clip-path="url(#pc69b456e56)" style="fill: none; stroke: #b0b0b0; stroke-width: 0.8; stroke-linecap: square"/>
     </g>
     <g id="line2d_6">
      <g>
       <use xlink:href="#m0f995789ad" x="201.321651" y="279.561175" style="stroke: #000000; stroke-width: 0.8"/>
      </g>
     </g>
     <g id="text_3">
      <!-- 2023-11-04 -->
      <g transform="translate(158.757137 333.028035) rotate(-45) scale(0.1 -0.1)">
       <defs>
        <path id="DejaVuSans-34" d="M 2419 4116 
L 825 1625 
L 2419 1625 
L 2419 4116 
z
M 2253 4666 
L 3047 4666 
L 3047 1625 
L 3713 1625 
L 3713 1100 
L 3047 1100 
L 3047 0 
L 2419 0 
L 2419 1100 
L 313 1100 
L 313 1709 
L 2253 4666 
z
" transform="scale(0.015625)"/>
       </defs>
       <use xlink:href="#DejaVuSans-32"/>
       <use xlink:href="#DejaVuSans-30" x="63.623047"/>
       <use xlink:href="#DejaVuSans-32" x="127.246094"/>
       <use xlink:href="#DejaVuSans-33" x="190.869141"/>
       <use xlink:href="#DejaVuSans-2d" x="254.492188"/>
       <use xlink:href="#DejaVuSans-31" x="290.576172"/>
       <use xlink:href="#DejaVuSans-31" x="354.199219"/>
       <use xlink:href="#DejaVuSans-2d" x="417.822266"/>
       <use xlink:href="#DejaVuSans-30" x="453.90625"/>
       <use xlink:href="#DejaVuSans-34" x="517.529297"/>
      </g>
     </g>
    </g>
    <g id="xtick_4">
     <g id="line2d_7">
      <path d="M 252.951357 279.561175 
L 252.951357 25.44 
" clip-path="url(#pc69b456e56)" style="fill: none; stroke: #b0b0b0; stroke-width: 0.8; stroke-linecap: square"/>
     </g>
     <g id="line2d_8">
      <g>
       <use xlink:href="#m0f995789ad" x="252.951357" y="279.561175" style="stroke: #000000; stroke-width: 0.8"/>
      </g>
     </g>
     <g id="text_4">
      <!-- 2023-11-05 -->
      <g transform="translate(210.386843 333.028035) rotate(-45) scale(0.1 -0.1)">
       <defs>
        <path id="DejaVuSans-35" d="M 691 4666 
L 3169 4666 
L 3169 4134 
L 1269 4134 
L 1269 2991 
Q 1406 3038 1543 3061 
Q 1681 3084 1819 3084 
Q 2600 3084 3056 2656 
Q 3513 2228 3513 1497 
Q 3513 744 3044 326 
Q 2575 -91 1722 -91 
Q 1428 -91 1123 -41 
Q 819 9 494 109 
L 494 744 
Q 775 591 1075 516 
Q 1375 441 1709 441 
Q 2250 441 2565 725 
Q 2881 1009 2881 1497 
Q 2881 1984 2565 2268 
Q 2250 2553 1709 2553 
Q 1456 2553 1204 2497 
Q 953 2441 691 2322 
L 691 4666 
z
" transform="scale(0.015625)"/>
       </defs>
       <use xlink:href="#DejaVuSans-32"/>
       <use xlink:href="#DejaVuSans-30" x="63.623047"/>
       <use xlink:href="#DejaVuSans-32" x="127.246094"/>
       <use xlink:href="#DejaVuSans-33" x="190.869141"/>
       <use xlink:href="#DejaVuSans-2d" x="254.492188"/>
       <use xlink:href="#DejaVuSans-31" x="290.576172"/>
       <use xlink:href="#DejaVuSans-31" x="354.199219"/>
       <use xlink:href="#DejaVuSans-2d" x="417.822266"/>
       <use xlink:href="#DejaVuSans-30" x="453.90625"/>
       <use xlink:href="#DejaVuSans-35" x="517.529297"/>
      </g>
     </g>
    </g>
    <g id="xtick_5">
     <g id="line2d_9">
      <path d="M 304.581063 279.561175 
L 304.581063 25.44 
" clip-path="url(#pc69b456e56)" style="fill: none; stroke: #b0b0b0; stroke-width: 0.8; stroke-linecap: square"/>
     </g>
     <g id="line2d_10">
      <g>
       <use xlink:href="#m0f995789ad" x="304.581063" y="279.561175" style="stroke: #000000; stroke-width: 0.8"/>
      </g>
     </g>
     <g id="text_5">
      <!-- 2023-11-06 -->
      <g transform="translate(262.016549 333.028035) rotate(-45) scale(0.1 -0.1)">
       <defs>
        <path id="DejaVuSans-36" d="M 2113 2584 
Q 1688 2584 1439 2293 
Q 1191 2003 1191 1497 
Q 1191 994 1439 701 
Q 1688 409 2113 409 
Q 2538 409 2786 701 
Q 3034 994 3034 1497 
Q 3034 2003 2786 2293 
Q 2538 2584 2113 2584 
z
M 3366 4563 
L 3366 3988 
Q 3128 4100 2886 4159 
Q 2644 4219 2406 4219 
Q 1781 4219 1451 3797 
Q 1122 3375 1075 2522 
Q 1259 2794 1537 2939 
Q 1816 3084 2150 3084 
Q 2853 3084 3261 2657 
Q 3669 2231 3669 1497 
Q 3669 778 3244 343 
Q 2819 -91 2113 -91 
Q 1303 -91 875 529 
Q 447 1150 447 2328 
Q 447 3434 972 4092 
Q 1497 4750 2381 4750 
Q 2619 4750 2861 4703 
Q 3103 4656 3366 4563 
z
" transform="scale(0.015625)"/>
       </defs>
       <use xlink:href="#DejaVuSans-32"/>
       <use xlink:href="#DejaVuSans-30" x="63.623047"/>
       <use xlink:href="#DejaVuSans-32" x="127.246094"/>
       <use xlink:href="#DejaVuSans-33" x="190.869141"/>
       <use xlink:href="#DejaVuSans-2d" x="254.492188"/>
       <use xlink:href="#DejaVuSans-31" x="290.576172"/>
       <use xlink:href="#DejaVuSans-31" x="354.199219"/>
       <use xlink:href="#DejaVuSans-2d" x="417.822266"/>
       <use xlink:href="#DejaVuSans-30" x="453.90625"/>
       <use xlink:href="#DejaVuSans-36" x="517.529297"/>
      </g>
     </g>
    </g>
    <g id="xtick_6">
     <g id="line2d_11">
      <path d="M 356.210769 279.561175 
L 356.210769 25.44 
" clip-path="url(#pc69b456e56)" style="fill: none; stroke: #b0b0b0; stroke-width: 0.8; stroke-linecap: square"/>
     </g>
     <g id="line2d_12">
      <g>
       <use xlink:href="#m0f995789ad" x="356.210769" y="279.561175" style="stroke: #000000; stroke-width: 0.8"/>
      </g>
     </g>
     <g id="text_6">
      <!-- 2023-11-07 -->
      <g transform="translate(313.646256 333.028035) rotate(-45) scale(0.1 -0.1)">
       <defs>
        <path id="DejaVuSans-37" d="M 525 4666 
L 3525 4666 
L 3525 4397 
L 1831 0 
L 1172 0 
L 2766 4134 
L 525 4134 
L 525 4666 
z
" transform="scale(0.015625)"/>
       </defs>
       <use xlink:href="#DejaVuSans-32"/>
       <use xlink:href="#DejaVuSans-30" x="63.623047"/>
       <use xlink:href="#DejaVuSans-32" x="127.246094"/>
       <use xlink:href="#DejaVuSans-33" x="190.869141"/>
       <use xlink:href="#DejaVuSans-2d" x="254.492188"/>
       <use xlink:href="#DejaVuSans-31" x="290.576172"/>
       <use xlink:href="#DejaVuSans-31" x="354.199219"/>
       <use xlink:href="#DejaVuSans-2d" x="417.822266"/>
       <use xlink:href="#DejaVuSans-30" x="453.90625"/>
       <use xlink:href="#DejaVuSans-37" x="517.529297"/>
      </g>
     </g>
    </g>
    <g id="xtick_7">
     <g id="line2d_13">
      <path d="M 407.840475 279.561175 
L 407.840475 25.44 
" clip-path="url(#pc69b456e56)" style="fill: none; stroke: #b0b0b0; stroke-width: 0.8; stroke-linecap: square"/>
     </g>
     <g id="line2d_14">
      <g>
       <use xlink:href="#m0f995789ad" x="407.840475" y="279.561175" style="stroke: #000000; stroke-width: 0.8"/>
      </g>
     </g>
     <g id="text_7">
      <!-- 2023-11-08 -->
      <g transform="translate(365.275962 333.028035) rotate(-45) scale(0.1 -0.1)">
       <defs>
        <path id="DejaVuSans-38" d="M 2034 2216 
Q 1584 2216 1326 1975 
Q 1069 1734 1069 1313 
Q 1069 891 1326 650 
Q 1584 409 2034 409 
Q 2484 409 2743 651 
Q 3003 894 3003 1313 
Q 3003 1734 2745 1975 
Q 2488 2216 2034 2216 
z
M 1403 2484 
Q 997 2584 770 2862 
Q 544 3141 544 3541 
Q 544 4100 942 4425 
Q 1341 4750 2034 4750 
Q 2731 4750 3128 4425 
Q 3525 4100 3525 3541 
Q 3525 3141 3298 2862 
Q 3072 2584 2669 2484 
Q 3125 2378 3379 2068 
Q 3634 1759 3634 1313 
Q 3634 634 3220 271 
Q 2806 -91 2034 -91 
Q 1263 -91 848 271 
Q 434 634 434 1313 
Q 434 1759 690 2068 
Q 947 2378 1403 2484 
z
M 1172 3481 
Q 1172 3119 1398 2916 
Q 1625 2713 2034 2713 
Q 2441 2713 2670 2916 
Q 2900 3119 2900 3481 
Q 2900 3844 2670 4047 
Q 2441 4250 2034 4250 
Q 1625 4250 1398 4047 
Q 1172 3844 1172 3481 
z
" transform="scale(0.015625)"/>
       </defs>
       <use xlink:href="#DejaVuSans-32"/>
       <use xlink:href="#DejaVuSans-30" x="63.623047"/>
       <use xlink:href="#DejaVuSans-32" x="127.246094"/>
       <use xlink:href="#DejaVuSans-33" x="190.869141"/>
       <use xlink:href="#DejaVuSans-2d" x="254.492188"/>
       <use xlink:href="#DejaVuSans-31" x="290.576172"/>
       <use xlink:href="#DejaVuSans-31" x="354.199219"/>
       <use xlink:href="#DejaVuSans-2d" x="417.822266"/>
       <use xlink:href="#DejaVuSans-30" x="453.90625"/>
       <use xlink:href="#DejaVuSans-38" x="517.529297"/>
      </g>
     </g>
    </g>
   </g>
   <g id="matplotlib.axis_2">
    <g id="ytick_1">
     <g id="line2d_15">
      <path d="M 46.46 253.008963 
L 450 253.008963 
" clip-path="url(#pc69b456e56)" style="fill: none; stroke: #b0b0b0; stroke-width: 0.8; stroke-linecap: square"/>
     </g>
     <g id="line2d_16">
      <defs>
       <path id="m7dad01f403" d="M 0 0 
L -3.5 0 
" style="stroke: #000000; stroke-width: 0.8"/>
      </defs>
      <g>
       <use xlink:href="#m7dad01f403" x="46.46" y="253.008963" style="stroke: #000000; stroke-width: 0.8"/>
      </g>
     </g>
     <g id="text_8">
      <!-- 0 -->
      <g transform="translate(33.0975 256.808182) scale(0.1 -0.1)">
       <use xlink:href="#DejaVuSans-30"/>
      </g>
     </g>
    </g>
    <g id="ytick_2">
     <g id="line2d_17">
      <path d="M 46.46 223.006463 
L 450 223.006463 
" clip-path="url(#pc69b456e56)" style="fill: none; stroke: #b0b0b0; stroke-width: 0.8; stroke-linecap: square"/>
     </g>
     <g id="line2d_18">
      <g>
       <use xlink:href="#m7dad01f403" x="46.46" y="223.006463" style="stroke: #000000; stroke-width: 0.8"/>
      </g>
     </g>
     <g id="text_9">
      <!-- 2 -->
      <g transform="translate(33.0975 226.805682) scale(0.1 -0.1)">
       <use xlink:href="#DejaVuSans-32"/>
      </g>
     </g>
    </g>
    <g id="ytick_3">
     <g id="line2d_19">
      <path d="M 46.46 193.003963 
L 450 193.003963 
" clip-path="url(#pc69b456e56)" style="fill: none; stroke: #b0b0b0; stroke-width: 0.8; stroke-linecap: square"/>
     </g>
     <g id="line2d_20">
      <g>
       <use xlink:href="#m7dad01f403" x="46.46" y="193.003963" style="stroke: #000000; stroke-width: 0.8"/>
      </g>
     </g>
     <g id="text_10">
      <!-- 4 -->
      <g transform="translate(33.0975 196.803182) scale(0.1 -0.1)">
       <use xlink:href="#DejaVuSans-34"/>
      </g>
     </g>
    </g>
    <g id="ytick_4">
     <g id="line2d_21">
      <path d="M 46.46 163.001463 
L 450 163.001463 
" clip-path="url(#pc69b456e56)" style="fill: none; stroke: #b0b0b0; stroke-width: 0.8; stroke-linecap: square"/>
     </g>
     <g id="line2d_22">
      <g>
       <use xlink:href="#m7dad01f403" x="46.46" y="163.001463" style="stroke: #000000; stroke-width: 0.8"/>
      </g>
     </g>
     <g id="text_11">
      <!-- 6 -->
      <g transform="translate(33.0975 166.800681) scale(0.1 -0.1)">
       <use xlink:href="#DejaVuSans-36"/>
      </g>
     </g>
    </g>
    <g id="ytick_5">
     <g id="line2d_23">
      <path d="M 46.46 132.998963 
L 450 132.998963 
" clip-path="url(#pc69b456e56)" style="fill: none; stroke: #b0b0b0; stroke-width: 0.8; stroke-linecap: square"/>
     </g>
     <g id="line2d_24">
      <g>
       <use xlink:href="#m7dad01f403" x="46.46" y="132.998963" style="stroke: #000000; stroke-width: 0.8"/>
      </g>
     </g>
     <g id="text_12">
      <!-- 8 -->
      <g transform="translate(33.0975 136.798181) scale(0.1 -0.1)">
       <use xlink:href="#DejaVuSans-38"/>
      </g>
     </g>
    </g>
    <g id="ytick_6">
     <g id="line2d_25">
      <path d="M 46.46 102.996463 
L 450 102.996463 
" clip-path="url(#pc69b456e56)" style="fill: none; stroke: #b0b0b0; stroke-width: 0.8; stroke-linecap: square"/>
     </g>
     <g id="line2d_26">
      <g>
       <use xlink:href="#m7dad01f403" x="46.46" y="102.996463" style="stroke: #000000; stroke-width: 0.8"/>
      </g>
     </g>
     <g id="text_13">
      <!-- 10 -->
      <g transform="translate(26.735 106.795681) scale(0.1 -0.1)">
       <use xlink:href="#DejaVuSans-31"/>
       <use xlink:href="#DejaVuSans-30" x="63.623047"/>
      </g>
     </g>
    </g>
    <g id="ytick_7">
     <g id="line2d_27">
      <path d="M 46.46 72.993963 
L 450 72.993963 
" clip-path="url(#pc69b456e56)" style="fill: none; stroke: #b0b0b0; stroke-width: 0.8; stroke-linecap: square"/>
     </g>
     <g id="line2d_28">
      <g>
       <use xlink:href="#m7dad01f403" x="46.46" y="72.993963" style="stroke: #000000; stroke-width: 0.8"/>
      </g>
     </g>
     <g id="text_14">
      <!-- 12 -->
      <g transform="translate(26.735 76.793181) scale(0.1 -0.1)">
       <use xlink:href="#DejaVuSans-31"/>
       <use xlink:href="#DejaVuSans-32" x="63.623047"/>
      </g>
     </g>
    </g>
    <g id="ytick_8">
     <g id="line2d_29">
      <path d="M 46.46 42.991463 
L 450 42.991463 
" clip-path="url(#pc69b456e56)" style="fill: none; stroke: #b0b0b0; stroke-width: 0.8; stroke-linecap: square"/>
     </g>
     <g id="line2d_30">
      <g>
       <use xlink:href="#m7dad01f403" x="46.46" y="42.991463" style="stroke: #000000; stroke-width: 0.8"/>
      </g>
     </g>
     <g id="text_15">
      <!-- 14 -->
      <g transform="translate(26.735 46.790681) scale(0.1 -0.1)">
       <use xlink:href="#DejaVuSans-31"/>
       <use xlink:href="#DejaVuSans-34" x="63.623047"/>
      </g>
     </g>
    </g>
    <g id="text_16">
     <!-- Temperature [°C] -->
     <g transform="translate(20.655313 199.072463) rotate(-90) scale(0.1 -0.1)">
      <defs>
       <path id="DejaVuSans-54" d="M -19 4666 
L 3928 4666 
L 3928 4134 
L 2272 4134 
L 2272 0 
L 1638 0 
L 1638 4134 
L -19 4134 
L -19 4666 
z
" transform="scale(0.015625)"/>
       <path id="DejaVuSans-65" d="M 3597 1894 
L 3597 1613 
L 953 1613 
Q 991 1019 1311 708 
Q 1631 397 2203 397 
Q 2534 397 2845 478 
Q 3156 559 3463 722 
L 3463 178 
Q 3153 47 2828 -22 
Q 2503 -91 2169 -91 
Q 1331 -91 842 396 
Q 353 884 353 1716 
Q 353 2575 817 3079 
Q 1281 3584 2069 3584 
Q 2775 3584 3186 3129 
Q 3597 2675 3597 1894 
z
M 3022 2063 
Q 3016 2534 2758 2815 
Q 2500 3097 2075 3097 
Q 1594 3097 1305 2825 
Q 1016 2553 972 2059 
L 3022 2063 
z
" transform="scale(0.015625)"/>
       <path id="DejaVuSans-6d" d="M 3328 2828 
Q 3544 3216 3844 3400 
Q 4144 3584 4550 3584 
Q 5097 3584 5394 3201 
Q 5691 2819 5691 2113 
L 5691 0 
L 5113 0 
L 5113 2094 
Q 5113 2597 4934 2840 
Q 4756 3084 4391 3084 
Q 3944 3084 3684 2787 
Q 3425 2491 3425 1978 
L 3425 0 
L 2847 0 
L 2847 2094 
Q 2847 2600 2669 2842 
Q 2491 3084 2119 3084 
Q 1678 3084 1418 2786 
Q 1159 2488 1159 1978 
L 1159 0 
L 581 0 
L 581 3500 
L 1159 3500 
L 1159 2956 
Q 1356 3278 1631 3431 
Q 1906 3584 2284 3584 
Q 2666 3584 2933 3390 
Q 3200 3197 3328 2828 
z
" transform="scale(0.015625)"/>
       <path id="DejaVuSans-70" d="M 1159 525 
L 1159 -1331 
L 581 -1331 
L 581 3500 
L 1159 3500 
L 1159 2969 
Q 1341 3281 1617 3432 
Q 1894 3584 2278 3584 
Q 2916 3584 3314 3078 
Q 3713 2572 3713 1747 
Q 3713 922 3314 415 
Q 2916 -91 2278 -91 
Q 1894 -91 1617 61 
Q 1341 213 1159 525 
z
M 3116 1747 
Q 3116 2381 2855 2742 
Q 2594 3103 2138 3103 
Q 1681 3103 1420 2742 
Q 1159 2381 1159 1747 
Q 1159 1113 1420 752 
Q 1681 391 2138 391 
Q 2594 391 2855 752 
Q 3116 1113 3116 1747 
z
" transform="scale(0.015625)"/>
       <path id="DejaVuSans-72" d="M 2631 2963 
Q 2534 3019 2420 3045 
Q 2306 3072 2169 3072 
Q 1681 3072 1420 2755 
Q 1159 2438 1159 1844 
L 1159 0 
L 581 0 
L 581 3500 
L 1159 3500 
L 1159 2956 
Q 1341 3275 1631 3429 
Q 1922 3584 2338 3584 
Q 2397 3584 2469 3576 
Q 2541 3569 2628 3553 
L 2631 2963 
z
" transform="scale(0.015625)"/>
       <path id="DejaVuSans-61" d="M 2194 1759 
Q 1497 1759 1228 1600 
Q 959 1441 959 1056 
Q 959 750 1161 570 
Q 1363 391 1709 391 
Q 2188 391 2477 730 
Q 2766 1069 2766 1631 
L 2766 1759 
L 2194 1759 
z
M 3341 1997 
L 3341 0 
L 2766 0 
L 2766 531 
Q 2569 213 2275 61 
Q 1981 -91 1556 -91 
Q 1019 -91 701 211 
Q 384 513 384 1019 
Q 384 1609 779 1909 
Q 1175 2209 1959 2209 
L 2766 2209 
L 2766 2266 
Q 2766 2663 2505 2880 
Q 2244 3097 1772 3097 
Q 1472 3097 1187 3025 
Q 903 2953 641 2809 
L 641 3341 
Q 956 3463 1253 3523 
Q 1550 3584 1831 3584 
Q 2591 3584 2966 3190 
Q 3341 2797 3341 1997 
z
" transform="scale(0.015625)"/>
       <path id="DejaVuSans-74" d="M 1172 4494 
L 1172 3500 
L 2356 3500 
L 2356 3053 
L 1172 3053 
L 1172 1153 
Q 1172 725 1289 603 
Q 1406 481 1766 481 
L 2356 481 
L 2356 0 
L 1766 0 
Q 1100 0 847 248 
Q 594 497 594 1153 
L 594 3053 
L 172 3053 
L 172 3500 
L 594 3500 
L 594 4494 
L 1172 4494 
z
" transform="scale(0.015625)"/>
       <path id="DejaVuSans-75" d="M 544 1381 
L 544 3500 
L 1119 3500 
L 1119 1403 
Q 1119 906 1312 657 
Q 1506 409 1894 409 
Q 2359 409 2629 706 
Q 2900 1003 2900 1516 
L 2900 3500 
L 3475 3500 
L 3475 0 
L 2900 0 
L 2900 538 
Q 2691 219 2414 64 
Q 2138 -91 1772 -91 
Q 1169 -91 856 284 
Q 544 659 544 1381 
z
M 1991 3584 
L 1991 3584 
z
" transform="scale(0.015625)"/>
       <path id="DejaVuSans-20" transform="scale(0.015625)"/>
       <path id="DejaVuSans-5b" d="M 550 4863 
L 1875 4863 
L 1875 4416 
L 1125 4416 
L 1125 -397 
L 1875 -397 
L 1875 -844 
L 550 -844 
L 550 4863 
z
" transform="scale(0.015625)"/>
       <path id="DejaVuSans-c2" d="M 2188 4044 
L 1331 1722 
L 3047 1722 
L 2188 4044 
z
M 1831 4666 
L 2547 4666 
L 4325 0 
L 3669 0 
L 3244 1197 
L 1141 1197 
L 716 0 
L 50 0 
L 1831 4666 
z
M 1894 5941 
L 2481 5941 
L 3141 5110 
L 2706 5110 
L 2188 5666 
L 1669 5110 
L 1234 5110 
L 1894 5941 
z
" transform="scale(0.015625)"/>
       <path id="DejaVuSans-b0" d="M 1600 4347 
Q 1350 4347 1178 4173 
Q 1006 4000 1006 3750 
Q 1006 3503 1178 3333 
Q 1350 3163 1600 3163 
Q 1850 3163 2022 3333 
Q 2194 3503 2194 3750 
Q 2194 3997 2020 4172 
Q 1847 4347 1600 4347 
z
M 1600 4750 
Q 1800 4750 1984 4673 
Q 2169 4597 2303 4453 
Q 2447 4313 2519 4134 
Q 2591 3956 2591 3750 
Q 2591 3338 2302 3052 
Q 2013 2766 1594 2766 
Q 1172 2766 890 3047 
Q 609 3328 609 3750 
Q 609 4169 896 4459 
Q 1184 4750 1600 4750 
z
" transform="scale(0.015625)"/>
       <path id="DejaVuSans-43" d="M 4122 4306 
L 4122 3641 
Q 3803 3938 3442 4084 
Q 3081 4231 2675 4231 
Q 1875 4231 1450 3742 
Q 1025 3253 1025 2328 
Q 1025 1406 1450 917 
Q 1875 428 2675 428 
Q 3081 428 3442 575 
Q 3803 722 4122 1019 
L 4122 359 
Q 3791 134 3420 21 
Q 3050 -91 2638 -91 
Q 1578 -91 968 557 
Q 359 1206 359 2328 
Q 359 3453 968 4101 
Q 1578 4750 2638 4750 
Q 3056 4750 3426 4639 
Q 3797 4528 4122 4306 
z
" transform="scale(0.015625)"/>
       <path id="DejaVuSans-5d" d="M 1947 4863 
L 1947 -844 
L 622 -844 
L 622 -397 
L 1369 -397 
L 1369 4416 
L 622 4416 
L 622 4863 
L 1947 4863 
z
" transform="scale(0.015625)"/>
      </defs>
      <use xlink:href="#DejaVuSans-54"/>
      <use xlink:href="#DejaVuSans-65" x="44.083984"/>
      <use xlink:href="#DejaVuSans-6d" x="105.607422"/>
      <use xlink:href="#DejaVuSans-70" x="203.019531"/>
      <use xlink:href="#DejaVuSans-65" x="266.496094"/>
      <use xlink:href="#DejaVuSans-72" x="328.019531"/>
      <use xlink:href="#DejaVuSans-61" x="369.132812"/>
      <use xlink:href="#DejaVuSans-74" x="430.412109"/>
      <use xlink:href="#DejaVuSans-75" x="469.621094"/>
      <use xlink:href="#DejaVuSans-72" x="533"/>
      <use xlink:href="#DejaVuSans-65" x="571.863281"/>
      <use xlink:href="#DejaVuSans-20" x="633.386719"/>
      <use xlink:href="#DejaVuSans-5b" x="665.173828"/>
      <use xlink:href="#DejaVuSans-c2" x="704.1875"/>
      <use xlink:href="#DejaVuSans-b0" x="772.595703"/>
      <use xlink:href="#DejaVuSans-43" x="822.595703"/>
      <use xlink:href="#DejaVuSans-5d" x="892.419922"/>
     </g>
    </g>
   </g>
   <g id="line2d_31">
    <path d="M 46.46 188.503588 
L 46.488566 188.503588 
L 46.632133 191.503838 
L 46.832761 191.503838 
L 46.947494 193.003963 
L 47.119588 193.003963 
L 47.20583 194.504088 
L 47.320571 193.003963 
L 47.693247 193.003963 
L 47.865342 188.503588 
L 47.922711 188.503588 
L 47.980423 187.003463 
L 48.123578 188.503588 
L 48.266907 188.503588 
L 48.381636 190.003713 
L 48.639934 190.003713 
L 48.697269 191.503838 
L 48.72583 190.003713 
L 48.955295 190.003713 
L 49.070359 191.503838 
L 49.385667 191.503838 
L 49.500463 190.003713 
L 49.729867 190.003713 
L 49.844619 191.503838 
L 49.930515 191.503838 
L 50.045247 193.003963 
L 50.246168 193.003963 
L 50.332075 194.504088 
L 50.360917 193.003963 
L 50.418266 194.504088 
L 50.533052 194.504088 
L 50.618905 196.004213 
L 50.733638 194.504088 
L 50.762408 194.504088 
L 50.877213 193.003963 
L 51.020467 196.004213 
L 51.192563 196.004213 
L 51.336133 194.504088 
L 51.364665 194.504088 
L 51.393526 193.003963 
L 51.450842 194.504088 
L 51.708857 194.504088 
L 51.823589 196.004213 
L 52.11042 196.004213 
L 52.225152 194.504088 
L 52.770285 194.504088 
L 52.913547 197.504338 
L 52.942365 197.504338 
L 53.057105 199.004463 
L 53.54457 199.004463 
L 53.6593 197.504338 
L 53.831396 197.504338 
L 53.974849 200.504588 
L 54.032342 200.504588 
L 54.147077 202.004713 
L 54.261801 202.004713 
L 54.405056 199.004463 
L 54.778117 199.004463 
L 54.89281 197.504338 
L 55.179626 197.504338 
L 55.322906 200.504588 
L 55.437643 200.504588 
L 55.495008 199.004463 
L 55.638556 200.504588 
L 55.667103 200.504588 
L 55.753335 202.004713 
L 55.896569 199.004463 
L 55.953935 199.004463 
L 56.06902 202.004713 
L 56.126031 202.004713 
L 56.269591 205.004963 
L 56.29813 205.004963 
L 56.41286 206.505088 
L 56.584954 206.505088 
L 56.843235 202.004713 
L 56.900622 202.004713 
L 57.043885 205.004963 
L 57.302191 205.004963 
L 57.503106 199.004463 
L 57.589012 199.004463 
L 57.674911 197.504338 
L 57.732268 197.504338 
L 57.875824 194.504088 
L 57.961737 194.504088 
L 58.076471 196.004213 
L 58.133835 196.004213 
L 58.277255 199.004463 
L 58.535397 199.004463 
L 58.707498 203.504838 
L 58.822226 203.504838 
L 58.994327 199.004463 
L 59.051689 199.004463 
L 59.166422 197.504338 
L 59.281153 197.504338 
L 59.424726 199.004463 
L 59.539423 199.004463 
L 59.567982 200.504588 
L 59.625348 199.004463 
L 59.654198 199.004463 
L 59.797447 196.004213 
L 59.82629 196.004213 
L 59.940969 197.504338 
L 59.969716 197.504338 
L 60.084278 199.004463 
L 60.19901 199.004463 
L 60.342605 202.004713 
L 60.371105 202.004713 
L 60.543202 206.505088 
L 60.657933 206.505088 
L 60.772666 208.005213 
L 60.801516 208.005213 
L 60.945106 211.005463 
L 60.97345 211.005463 
L 61.088343 212.505588 
L 61.317805 212.505588 
L 61.461393 215.505838 
L 61.633154 215.505838 
L 61.747886 214.005713 
L 61.776741 214.005713 
L 61.89147 215.505838 
L 61.977352 215.505838 
L 62.206813 211.005463 
L 62.293057 212.505588 
L 62.407772 209.505338 
L 62.637162 209.505338 
L 62.751975 211.005463 
L 62.924062 211.005463 
L 63.038795 209.505338 
L 63.153401 209.505338 
L 63.325626 205.004963 
L 63.382999 205.004963 
L 63.583599 199.004463 
L 63.727134 199.004463 
L 63.870426 194.504088 
L 64.042523 199.004463 
L 64.157613 199.004463 
L 64.329353 185.503338 
L 64.731208 138.999463 
L 65.218706 116.497588 
L 65.333354 119.497838 
L 65.476665 116.497588 
L 65.591399 117.997713 
L 65.620271 117.997713 
L 65.820848 105.996713 
L 65.849595 105.996713 
L 66.05032 99.996213 
L 66.079141 99.996213 
L 66.279783 93.995713 
L 66.365836 93.995713 
L 66.451879 96.995963 
L 66.480696 95.495838 
L 66.681341 89.495338 
L 66.767587 89.495338 
L 67.054363 71.493838 
L 67.082902 72.993963 
L 67.34121 105.996713 
L 67.427331 105.996713 
L 67.541824 108.996963 
L 68.029546 81.994713 
L 68.087008 84.994963 
L 68.11548 84.994963 
L 68.23021 83.494838 
L 68.717996 104.496588 
L 68.746495 104.496588 
L 68.890112 92.495588 
L 69.09069 81.994713 
L 69.119466 81.994713 
L 69.205423 80.494588 
L 69.320153 81.994713 
L 69.37752 81.994713 
L 69.865328 104.496588 
L 70.008535 101.496338 
L 70.152006 104.496588 
L 70.180632 104.496588 
L 70.438949 114.997463 
L 70.553686 113.497338 
L 70.58219 113.497338 
L 70.897869 104.496588 
L 71.069973 96.995963 
L 71.156097 96.995963 
L 71.356831 99.996213 
L 71.614769 90.995463 
L 71.643683 90.995463 
L 71.901595 74.494088 
L 72.045126 71.493838 
L 72.073696 71.493838 
L 72.274462 78.994463 
L 72.417885 75.994213 
L 72.618891 86.495088 
L 72.819439 92.495588 
L 72.848195 92.495588 
L 72.963047 90.995463 
L 73.048899 90.995463 
L 73.163632 92.495588 
L 73.393099 84.994963 
L 73.421931 84.994963 
L 73.479335 83.494838 
L 73.507828 84.994963 
L 73.766191 93.995713 
L 73.852309 93.995713 
L 73.966747 95.495838 
L 74.052992 93.995713 
L 74.081479 95.495838 
L 74.138845 93.995713 
L 74.253574 90.995463 
L 74.368306 90.995463 
L 74.483035 95.495838 
L 74.511905 93.995713 
L 74.597767 93.995713 
L 74.769862 89.495338 
L 74.94221 93.995713 
L 75.056691 93.995713 
L 75.228785 89.495338 
L 75.257545 89.495338 
L 75.458629 83.494838 
L 75.773921 77.494338 
L 75.974541 77.494338 
L 76.032172 75.994213 
L 76.060631 77.494338 
L 76.146638 77.494338 
L 76.490826 90.995463 
L 76.634365 90.995463 
L 76.777653 93.995713 
L 76.806551 93.995713 
L 76.921275 95.495838 
L 77.036021 95.495838 
L 77.150608 93.995713 
L 77.208098 93.995713 
L 77.322843 92.495588 
L 77.380227 92.495588 
L 77.494957 90.995463 
L 77.580771 90.995463 
L 77.781777 93.995713 
L 77.839118 93.995713 
L 77.982552 96.995963 
L 78.125937 96.995963 
L 78.58488 116.497588 
L 78.814318 116.497588 
L 78.92907 114.997463 
L 79.129639 114.997463 
L 79.330559 120.997963 
L 79.359102 120.997963 
L 79.473834 122.498088 
L 79.502716 122.498088 
L 79.61739 123.998213 
L 79.875396 123.998213 
L 79.990126 125.498338 
L 80.019063 125.498338 
L 80.162222 128.498588 
L 80.219589 128.498588 
L 80.391688 132.998963 
L 80.449053 132.998963 
L 80.621147 137.499338 
L 80.65007 137.499338 
L 80.822174 141.999713 
L 80.850882 141.999713 
L 80.965344 143.499838 
L 80.994247 143.499838 
L 81.108945 144.999963 
L 81.137441 144.999963 
L 81.252173 146.500088 
L 81.309537 146.500088 
L 81.42427 148.000213 
L 81.510512 148.000213 
L 81.625279 149.500338 
L 81.682501 149.500338 
L 81.797241 151.000463 
L 82.055297 151.000463 
L 82.17003 152.500588 
L 82.457177 152.500588 
L 82.600476 154.000713 
L 83.14525 154.000713 
L 83.259983 155.500838 
L 83.547177 155.500838 
L 83.661538 154.000713 
L 83.718904 154.000713 
L 83.833635 152.500588 
L 83.919917 152.500588 
L 84.034632 154.000713 
L 84.264108 154.000713 
L 84.378818 155.500838 
L 84.493571 154.000713 
L 84.665459 154.000713 
L 84.694122 152.500588 
L 84.751487 154.000713 
L 85.038314 154.000713 
L 85.153358 152.500588 
L 85.38251 152.500588 
L 85.497239 154.000713 
L 85.583552 154.000713 
L 85.669336 155.500838 
L 85.927659 155.500838 
L 86.042406 154.000713 
L 86.128261 154.000713 
L 86.243272 155.500838 
L 86.472455 155.500838 
L 86.587188 154.000713 
L 86.96032 154.000713 
L 87.075061 155.500838 
L 87.160841 155.500838 
L 87.275574 154.000713 
L 87.447671 154.000713 
L 87.562399 155.500838 
L 87.791865 155.500838 
L 87.906596 157.000963 
L 88.250788 157.000963 
L 88.365518 158.501088 
L 89.570199 158.501088 
L 89.684927 160.001213 
L 90.34486 160.001213 
L 90.459588 161.501338 
L 90.94697 161.501338 
L 91.062003 160.001213 
L 91.635647 160.001213 
L 91.750087 161.501338 
L 91.95105 161.501338 
L 92.065781 160.001213 
L 92.667935 160.001213 
L 92.782666 161.501338 
L 92.897398 160.001213 
L 94.016247 160.001213 
L 94.131021 161.501338 
L 94.3889 161.501338 
L 94.503635 160.001213 
L 94.962559 160.001213 
L 95.077291 161.501338 
L 95.16355 161.501338 
L 95.278282 160.001213 
L 95.880411 160.001213 
L 95.995142 161.501338 
L 96.655018 161.501338 
L 96.769722 163.001463 
L 99.006999 163.001463 
L 99.121779 164.501588 
L 99.150549 164.501588 
L 99.29388 163.001463 
L 99.351217 163.001463 
L 99.46594 164.501588 
L 99.580672 163.001463 
L 100.35494 163.001463 
L 100.469672 161.501338 
L 100.584402 163.001463 
L 103.223238 163.001463 
L 103.337968 161.501338 
L 110.250695 161.501338 
L 110.365424 163.001463 
L 111.082332 163.001463 
L 111.197063 161.501338 
L 111.512743 161.501338 
L 111.62738 163.001463 
L 112.029111 163.001463 
L 112.14362 164.501588 
L 113.778512 164.501588 
L 113.893244 166.001713 
L 114.065341 166.001713 
L 114.18007 164.501588 
L 115.270017 164.501588 
L 115.413538 166.001713 
L 115.471031 166.001713 
L 115.5857 164.501588 
L 115.643137 164.501588 
L 115.671578 166.001713 
L 115.728943 164.501588 
L 117.822997 164.501588 
L 117.937707 166.001713 
L 118.023905 166.001713 
L 118.167172 164.501588 
L 120.002891 164.501588 
L 120.117643 166.001713 
L 120.146097 164.501588 
L 120.203801 166.001713 
L 120.318194 166.001713 
L 120.432923 164.501588 
L 120.777118 164.501588 
L 120.89185 163.001463 
L 121.609158 163.001463 
L 121.72388 161.501338 
L 122.010633 161.501338 
L 122.125417 160.001213 
L 122.813855 160.001213 
L 122.928368 158.501088 
L 123.530673 158.501088 
L 123.645407 160.001213 
L 123.702773 160.001213 
L 123.817506 158.501088 
L 124.448529 158.501088 
L 124.592086 160.001213 
L 125.022477 160.001213 
L 125.165823 161.501338 
L 126.026333 161.501338 
L 126.140819 160.001213 
L 126.370451 160.001213 
L 126.485234 161.501338 
L 126.685807 161.501338 
L 126.800536 160.001213 
L 127.202394 160.001213 
L 127.316826 161.501338 
L 129.955643 161.501338 
L 130.070374 163.001463 
L 131.963443 163.001463 
L 132.078173 164.501588 
L 132.393834 164.501588 
L 132.508575 166.001713 
L 132.537098 166.001713 
L 132.680676 167.501838 
L 132.795407 167.501838 
L 133.053385 176.502588 
L 133.08224 176.502588 
L 133.311747 184.003213 
L 133.369101 184.003213 
L 133.541199 188.503588 
L 133.59861 188.503588 
L 133.741776 191.503838 
L 133.799143 191.503838 
L 133.913876 193.003963 
L 134.000111 193.003963 
L 134.143337 196.004213 
L 134.2294 196.004213 
L 134.34433 197.504338 
L 134.372801 197.504338 
L 134.516398 200.504588 
L 134.631113 200.504588 
L 134.774361 203.504838 
L 134.889091 203.504838 
L 135.003823 205.004963 
L 135.118558 205.004963 
L 135.23355 206.505088 
L 135.348016 206.505088 
L 135.462752 208.005213 
L 136.007848 208.005213 
L 136.122684 209.505338 
L 136.151143 209.505338 
L 136.265872 208.005213 
L 136.495338 208.005213 
L 136.610068 206.505088 
L 136.782165 206.505088 
L 136.897265 205.004963 
L 137.097773 205.004963 
L 137.2126 203.504838 
L 137.384693 203.504838 
L 137.499321 202.004713 
L 137.728905 202.004713 
L 137.872119 199.004463 
L 138.130437 199.004463 
L 138.245187 197.504338 
L 138.388412 197.504338 
L 138.503511 196.004213 
L 138.675245 196.004213 
L 138.81889 193.003963 
L 139.535729 193.003963 
L 139.650462 191.503838 
L 139.70783 191.503838 
L 139.822558 190.003713 
L 139.851438 190.003713 
L 139.966214 188.503588 
L 140.16676 188.503588 
L 140.281487 187.003463 
L 140.39622 187.003463 
L 140.510951 185.503338 
L 140.625681 185.503338 
L 140.769254 184.003213 
L 141.715636 184.003213 
L 141.859229 182.503088 
L 141.916654 182.503088 
L 142.031359 181.002963 
L 142.346661 181.002963 
L 142.461391 179.502838 
L 142.490272 179.502838 
L 142.604983 178.002713 
L 142.805922 178.002713 
L 142.949205 176.502588 
L 144.067634 176.502588 
L 144.182363 178.002713 
L 144.268616 178.002713 
L 144.38334 176.502588 
L 144.727466 176.502588 
L 144.842264 175.002463 
L 144.899609 175.002463 
L 145.014171 176.502588 
L 145.071664 176.502588 
L 145.186446 175.002463 
L 145.587905 175.002463 
L 145.702714 173.502338 
L 145.845968 173.502338 
L 145.9607 175.002463 
L 146.075684 173.502338 
L 146.132794 173.502338 
L 146.304894 169.001963 
L 146.39111 169.001963 
L 146.534359 172.002213 
L 146.850087 172.002213 
L 147.02221 167.501838 
L 147.108015 167.501838 
L 147.251614 169.001963 
L 147.309038 169.001963 
L 147.423753 170.502088 
L 147.45221 170.502088 
L 147.566941 172.002213 
L 147.595846 172.002213 
L 147.710362 173.502338 
L 147.825319 173.502338 
L 147.940047 175.002463 
L 148.886352 175.002463 
L 149.001084 173.502338 
L 149.058451 173.502338 
L 149.230548 169.001963 
L 149.345278 169.001963 
L 149.517377 164.501588 
L 149.775724 164.501588 
L 149.890317 166.001713 
L 149.976305 166.001713 
L 150.062576 167.501838 
L 150.091033 166.001713 
L 150.148402 167.501838 
L 150.378221 167.501838 
L 150.492596 169.001963 
L 150.578828 169.001963 
L 150.693613 170.502088 
L 150.75098 170.502088 
L 150.865723 172.002213 
L 151.037787 172.002213 
L 151.152544 173.502338 
L 153.84876 173.502338 
L 153.934543 172.002213 
L 154.049275 173.502338 
L 154.30765 173.502338 
L 154.422396 175.002463 
L 155.024494 175.002463 
L 155.139223 176.502588 
L 155.253956 175.002463 
L 156.057075 175.002463 
L 156.17181 176.502588 
L 156.286853 176.502588 
L 156.430155 175.002463 
L 156.516003 175.002463 
L 156.630735 173.502338 
L 156.659596 173.502338 
L 156.774409 175.002463 
L 157.290631 175.002463 
L 157.405168 173.502338 
L 157.520113 173.502338 
L 157.548588 172.002213 
L 157.605949 173.502338 
L 157.63483 173.502338 
L 157.692181 172.002213 
L 157.720683 173.502338 
L 157.749571 173.502338 
L 157.86428 172.002213 
L 158.208514 172.002213 
L 158.323209 173.502338 
L 158.753268 173.502338 
L 158.867997 175.002463 
L 159.068878 175.002463 
L 159.183715 176.502588 
L 159.269563 176.502588 
L 159.384294 178.002713 
L 159.814772 178.002713 
L 159.929454 179.502838 
L 160.359513 179.502838 
L 160.474247 181.002963 
L 161.22 181.002963 
L 161.363663 184.003213 
L 161.392094 184.003213 
L 161.564189 188.503588 
L 161.650455 188.503588 
L 161.765067 190.003713 
L 161.793656 190.003713 
L 161.908386 191.503838 
L 162.13785 191.503838 
L 162.252969 193.003963 
L 162.367315 193.003963 
L 162.51095 196.004213 
L 162.568309 196.004213 
L 162.711507 199.004463 
L 162.883606 199.004463 
L 162.998334 200.504588 
L 163.027147 200.504588 
L 163.141941 202.004713 
L 163.256708 202.004713 
L 163.371277 203.504838 
L 163.686726 203.504838 
L 163.801456 202.004713 
L 164.030919 202.004713 
L 164.145649 200.504588 
L 164.260381 200.504588 
L 164.37543 202.004713 
L 164.547212 202.004713 
L 164.66194 200.504588 
L 166.182313 200.504588 
L 166.29706 202.004713 
L 166.382914 202.004713 
L 166.497644 203.504838 
L 167.12867 203.504838 
L 167.243401 202.004713 
L 167.272252 202.004713 
L 167.30077 203.504838 
L 167.358135 202.004713 
L 167.501695 202.004713 
L 167.587599 200.504588 
L 167.67368 200.504588 
L 167.817063 197.504338 
L 167.903375 197.504338 
L 168.046524 194.504088 
L 168.075438 194.504088 
L 168.161581 193.003963 
L 168.218623 193.003963 
L 168.362216 190.003713 
L 168.419591 190.003713 
L 168.534404 188.503588 
L 169.079107 188.503588 
L 169.193844 190.003713 
L 169.652767 190.003713 
L 169.76777 191.503838 
L 170.398525 191.503838 
L 170.542186 188.503588 
L 170.627986 188.503588 
L 170.742721 187.003463 
L 170.91482 187.003463 
L 170.943608 185.503338 
L 171.001087 187.003463 
L 171.144281 187.003463 
L 171.28794 184.003213 
L 171.574748 184.003213 
L 171.689479 182.503088 
L 171.804166 182.503088 
L 171.890045 181.002963 
L 172.062141 181.002963 
L 172.176875 179.502838 
L 172.320394 179.502838 
L 172.43522 178.002713 
L 172.607224 178.002713 
L 172.722033 176.502588 
L 172.779355 176.502588 
L 172.836745 175.002463 
L 172.865261 176.502588 
L 172.979995 176.502588 
L 173.467784 187.003463 
L 174.414141 187.003463 
L 174.528873 188.503588 
L 174.586237 188.503588 
L 174.729783 187.003463 
L 174.901987 187.003463 
L 175.016717 185.503338 
L 175.045163 185.503338 
L 175.16026 184.003213 
L 175.360906 181.002963 
L 175.618821 181.002963 
L 175.762262 178.002713 
L 175.87722 179.502838 
L 175.991953 179.502838 
L 176.106664 181.002963 
L 176.393461 181.002963 
L 176.53667 178.002713 
L 176.680296 178.002713 
L 176.766137 176.502588 
L 176.823488 176.502588 
L 176.995598 181.002963 
L 177.11033 181.002963 
L 177.311293 175.002463 
L 177.368476 175.002463 
L 177.540743 170.502088 
L 177.770231 170.502088 
L 177.913447 167.501838 
L 177.942211 167.501838 
L 178.085546 164.501588 
L 178.229134 164.501588 
L 178.372375 161.501338 
L 178.601839 161.501338 
L 178.716568 160.001213 
L 178.831299 160.001213 
L 178.946391 161.501338 
L 179.089682 160.001213 
L 179.118128 160.001213 
L 179.232861 158.501088 
L 179.519684 158.501088 
L 179.634423 157.000963 
L 179.663285 157.000963 
L 179.749149 155.500838 
L 179.892802 158.501088 
L 179.921249 158.501088 
L 180.093348 163.001463 
L 180.265445 163.001463 
L 180.322809 161.501338 
L 180.351727 163.001463 
L 180.437541 163.001463 
L 180.552632 166.001713 
L 180.810653 166.001713 
L 180.867921 164.501588 
L 180.896469 166.001713 
L 181.068564 166.001713 
L 181.326907 170.502088 
L 181.355393 170.502088 
L 181.384329 169.001963 
L 181.441678 170.502088 
L 181.499038 170.502088 
L 181.61378 172.002213 
L 181.756957 169.001963 
L 181.843213 169.001963 
L 181.95791 167.501838 
L 182.043785 167.501838 
L 182.158518 169.001963 
L 182.35945 172.002213 
L 182.38798 172.002213 
L 182.502711 173.502338 
L 182.846908 173.502338 
L 182.961637 175.002463 
L 183.105285 175.002463 
L 183.220014 176.502588 
L 183.449469 176.502588 
L 183.5642 178.002713 
L 183.707393 178.002713 
L 183.822477 179.502838 
L 184.2526 179.502838 
L 184.338806 181.002963 
L 184.596785 181.002963 
L 184.711551 182.503088 
L 184.739972 182.503088 
L 184.854706 184.003213 
L 185.055721 187.003463 
L 185.256267 187.003463 
L 185.371 188.503588 
L 185.51455 188.503588 
L 185.629324 190.003713 
L 185.686787 190.003713 
L 185.801502 191.503838 
L 185.858771 191.503838 
L 185.94495 193.003963 
L 186.030792 193.003963 
L 186.174121 196.004213 
L 186.288853 196.004213 
L 186.403586 197.504338 
L 186.432512 197.504338 
L 186.57568 200.504588 
L 186.74778 200.504588 
L 186.862511 202.004713 
L 186.891456 202.004713 
L 187.006184 203.504838 
L 187.378801 203.504838 
L 187.522444 200.504588 
L 187.550897 200.504588 
L 187.75192 203.504838 
L 187.895097 203.504838 
L 188.009828 205.004963 
L 188.038642 205.004963 
L 188.181925 208.005213 
L 188.296657 208.005213 
L 188.440272 211.005463 
L 188.641147 211.005463 
L 188.841869 214.005713 
L 188.870318 214.005713 
L 189.042416 218.506088 
L 189.099778 218.506088 
L 189.214858 220.006213 
L 189.673442 220.006213 
L 189.788171 221.506338 
L 189.816945 221.506338 
L 189.931677 223.006463 
L 190.075001 220.006213 
L 190.161105 220.006213 
L 190.247098 218.506088 
L 190.390633 218.506088 
L 190.505375 220.006213 
L 190.648664 220.006213 
L 190.763393 218.506088 
L 191.050223 218.506088 
L 191.193751 221.506338 
L 191.251128 221.506338 
L 191.394419 224.506588 
L 191.566517 224.506588 
L 191.710072 227.506838 
L 191.795982 227.506838 
L 191.911072 226.006713 
L 191.939414 226.006713 
L 192.168979 218.506088 
L 192.226351 218.506088 
L 192.341009 220.006213 
L 192.369642 220.006213 
L 192.484376 221.506338 
L 192.513149 221.506338 
L 192.656472 224.506588 
L 193.230132 224.506588 
L 193.344865 223.006463 
L 193.373703 223.006463 
L 193.459599 221.506338 
L 193.517355 223.006463 
L 193.660551 221.506338 
L 193.77527 221.506338 
L 193.918525 224.506588 
L 193.975891 224.506588 
L 194.090621 226.006713 
L 194.119368 226.006713 
L 194.23418 227.506838 
L 194.549553 227.506838 
L 194.865183 233.507338 
L 195.008481 233.507338 
L 195.094651 232.007213 
L 195.237947 235.007463 
L 195.410041 235.007463 
L 195.524773 236.507588 
L 195.582139 236.507588 
L 195.639503 238.007713 
L 195.783065 236.507588 
L 195.811607 236.507588 
L 195.840433 238.007713 
L 195.897802 236.507588 
L 196.098436 236.507588 
L 196.184639 235.007463 
L 196.557365 235.007463 
L 196.672093 236.507588 
L 196.987791 236.507588 
L 197.131026 233.507338 
L 197.15977 233.507338 
L 197.303506 236.507588 
L 197.417852 236.507588 
L 197.589949 232.007213 
L 198.048876 232.007213 
L 198.163611 233.507338 
L 198.249802 233.507338 
L 198.393303 236.507588 
L 198.45044 236.507588 
L 198.565174 235.007463 
L 198.823545 235.007463 
L 198.909613 233.507338 
L 199.167745 238.007713 
L 199.196202 238.007713 
L 199.368299 242.508088 
L 199.397171 242.508088 
L 199.511749 244.008213 
L 199.540402 244.008213 
L 199.684045 247.008463 
L 199.856078 247.008463 
L 199.970809 248.508588 
L 199.999605 248.508588 
L 200.20028 251.508838 
L 200.429772 251.508838 
L 200.515624 250.008713 
L 200.65922 250.008713 
L 200.773957 248.508588 
L 200.888723 250.008713 
L 200.946076 250.008713 
L 201.089596 247.008463 
L 201.146648 247.008463 
L 201.290284 244.008213 
L 201.490846 244.008213 
L 201.60582 242.508088 
L 201.749194 241.007963 
L 201.921322 241.007963 
L 202.064507 244.008213 
L 202.179587 244.008213 
L 202.29397 245.508338 
L 202.580802 245.508338 
L 202.695846 248.508588 
L 202.781678 248.508588 
L 202.924997 251.508838 
L 203.011291 251.508838 
L 203.126031 253.008963 
L 203.211833 253.008963 
L 203.297921 254.509088 
L 203.470228 250.008713 
L 203.498661 250.008713 
L 203.642335 247.008463 
L 203.670762 247.008463 
L 203.785792 248.508588 
L 203.842859 248.508588 
L 203.957593 247.008463 
L 204.072324 247.008463 
L 204.187058 248.508588 
L 204.416523 248.508588 
L 204.531257 250.008713 
L 204.588624 250.008713 
L 204.732229 247.008463 
L 205.104919 247.008463 
L 205.219648 245.508338 
L 205.506484 245.508338 
L 205.621213 247.008463 
L 205.650081 247.008463 
L 205.764761 248.508588 
L 205.850676 248.508588 
L 205.994119 245.508338 
L 206.223743 245.508338 
L 206.338473 244.008213 
L 206.453203 244.008213 
L 206.596443 247.008463 
L 206.653805 247.008463 
L 206.825903 251.508838 
L 206.997997 251.508838 
L 207.141587 250.008713 
L 207.256366 251.508838 
L 207.284833 251.508838 
L 207.428456 254.509088 
L 207.456926 254.509088 
L 207.571883 256.009213 
L 207.657827 256.009213 
L 207.772663 257.509338 
L 208.059526 257.509338 
L 208.17407 259.009463 
L 208.288942 257.509338 
L 208.46105 257.509338 
L 208.604254 254.509088 
L 208.747804 256.009213 
L 208.833716 256.009213 
L 208.97732 259.009463 
L 209.120547 259.009463 
L 209.235283 257.509338 
L 209.436249 257.509338 
L 209.60838 253.008963 
L 209.636843 253.008963 
L 209.75178 251.508838 
L 209.780287 251.508838 
L 209.808941 253.008963 
L 209.866309 251.508838 
L 210.067197 251.508838 
L 210.182005 253.008963 
L 210.325239 253.008963 
L 210.411455 251.508838 
L 210.439969 253.008963 
L 210.497336 251.508838 
L 210.755653 251.508838 
L 210.927655 256.009213 
L 210.956267 256.009213 
L 211.128362 260.509588 
L 211.214546 260.509588 
L 211.358028 257.509338 
L 211.415192 257.509338 
L 211.587292 253.008963 
L 211.616243 253.008963 
L 211.73088 251.508838 
L 211.759393 251.508838 
L 211.874422 253.008963 
L 211.931492 253.008963 
L 212.046221 251.508838 
L 212.103587 251.508838 
L 212.218323 253.008963 
L 212.275691 253.008963 
L 212.390421 256.009213 
L 212.533975 256.009213 
L 212.648708 257.509338 
L 212.791982 254.509088 
L 212.878229 254.509088 
L 212.964378 253.008963 
L 213.308279 253.008963 
L 213.423013 251.508838 
L 213.480379 251.508838 
L 213.623952 253.008963 
L 213.652477 253.008963 
L 213.796102 256.009213 
L 213.824571 256.009213 
L 213.939304 254.509088 
L 214.111406 254.509088 
L 214.255065 257.509338 
L 214.398234 257.509338 
L 214.512966 259.009463 
L 214.627685 259.009463 
L 214.742432 257.509338 
L 214.857166 257.509338 
L 215.058181 263.509838 
L 215.115488 263.509838 
L 215.230166 265.009963 
L 215.258729 265.009963 
L 215.373462 266.510088 
L 215.517093 263.509838 
L 215.660519 263.509838 
L 215.8039 265.009963 
L 215.832391 265.009963 
L 215.976012 268.010213 
L 216.320142 268.010213 
L 216.463419 265.009963 
L 216.520785 265.009963 
L 216.549693 263.509838 
L 216.607049 265.009963 
L 216.664235 265.009963 
L 216.807618 262.009713 
L 216.864984 262.009713 
L 216.979716 260.509588 
L 217.209181 260.509588 
L 217.324259 259.009463 
L 217.352622 259.009463 
L 217.410114 260.509588 
L 217.438646 259.009463 
L 217.524915 259.009463 
L 217.639632 260.509588 
L 217.725476 260.509588 
L 217.840522 262.009713 
L 217.897577 262.009713 
L 218.012308 263.509838 
L 218.041224 263.509838 
L 218.12704 262.009713 
L 218.241772 263.509838 
L 218.844333 263.509838 
L 219.016331 259.009463 
L 219.0449 259.009463 
L 219.216997 247.008463 
L 219.819548 169.001963 
L 219.962757 166.001713 
L 219.991579 166.001713 
L 220.163758 161.501338 
L 220.479046 190.003713 
L 220.50782 188.503588 
L 220.536411 188.503588 
L 220.680028 185.503338 
L 220.765875 185.503338 
L 220.880607 184.003213 
L 220.90952 184.003213 
L 221.052705 172.002213 
L 221.368393 141.999713 
L 221.396899 144.999963 
L 221.597753 167.501838 
L 221.626364 167.501838 
L 221.884755 149.500338 
L 222.08529 138.999463 
L 222.142655 138.999463 
L 222.544212 117.997713 
L 222.716308 122.498088 
L 222.802555 122.498088 
L 222.888404 120.997963 
L 223.0605 131.498838 
L 223.204012 128.498588 
L 223.232597 129.998713 
L 223.289963 128.498588 
L 223.519427 120.997963 
L 223.548295 120.997963 
L 223.605671 117.997713 
L 223.634152 120.997963 
L 223.863615 129.998713 
L 223.978345 128.498588 
L 224.03571 128.498588 
L 224.351413 116.497588 
L 224.69563 129.998713 
L 224.781467 129.998713 
L 224.896196 131.498838 
L 224.925081 131.498838 
L 225.326467 108.996963 
L 225.383961 111.997213 
L 225.412487 111.997213 
L 225.556026 114.997463 
L 225.584581 114.997463 
L 225.756677 123.998213 
L 225.842709 123.998213 
L 226.129778 107.496838 
L 226.158237 108.996963 
L 226.559794 140.499588 
L 226.588685 140.499588 
L 226.990178 157.000963 
L 227.162334 152.500588 
L 227.248184 152.500588 
L 227.420623 158.501088 
L 227.535011 158.501088 
L 227.707111 154.000713 
L 227.850741 157.000963 
L 227.879209 157.000963 
L 227.994243 160.001213 
L 228.108668 158.501088 
L 228.2234 160.001213 
L 228.309653 160.001213 
L 228.452865 163.001463 
L 228.510592 163.001463 
L 228.653769 166.001713 
L 228.768598 166.001713 
L 229.083885 152.500588 
L 229.17013 155.500838 
L 229.198619 154.000713 
L 229.514338 141.999713 
L 229.600463 141.999713 
L 229.973276 157.000963 
L 230.059102 157.000963 
L 230.116758 158.501088 
L 230.374795 154.000713 
L 230.403297 154.000713 
L 230.718854 141.999713 
L 230.919587 141.999713 
L 231.12057 148.000213 
L 231.550612 129.998713 
L 231.723004 134.499088 
L 231.808831 134.499088 
L 232.038415 141.999713 
L 232.0669 141.999713 
L 232.296667 149.500338 
L 232.411095 149.500338 
L 232.525825 151.000463 
L 232.726811 151.000463 
L 232.87002 148.000213 
L 232.898801 148.000213 
L 233.042119 144.999963 
L 233.328947 144.999963 
L 233.472524 146.500088 
L 233.587277 146.500088 
L 233.730504 149.500338 
L 233.874022 149.500338 
L 234.017332 152.500588 
L 234.046176 152.500588 
L 234.160892 154.000713 
L 234.333092 154.000713 
L 234.361525 152.500588 
L 234.390442 154.000713 
L 234.705723 166.001713 
L 234.734639 166.001713 
L 234.849367 167.501838 
L 234.906718 167.501838 
L 235.07875 172.002213 
L 235.107281 172.002213 
L 235.250905 175.002463 
L 235.279379 175.002463 
L 235.423006 178.002713 
L 235.509158 178.002713 
L 235.652429 179.502838 
L 235.680941 179.502838 
L 235.824548 182.503088 
L 235.881961 182.503088 
L 236.025134 185.503338 
L 236.168722 185.503338 
L 236.283476 187.003463 
L 236.311962 187.003463 
L 236.455493 190.003713 
L 236.541425 190.003713 
L 236.656158 191.503838 
L 237.430814 191.503838 
L 237.545399 193.003963 
L 237.860842 193.003963 
L 237.975572 194.504088 
L 238.86487 194.504088 
L 238.950793 193.003963 
L 239.008157 194.504088 
L 239.03703 193.003963 
L 239.438528 193.003963 
L 239.553275 194.504088 
L 239.668061 194.504088 
L 239.811579 197.504338 
L 239.897399 197.504338 
L 240.012246 199.004463 
L 240.040744 199.004463 
L 240.155476 200.504588 
L 240.184378 200.504588 
L 240.299059 202.004713 
L 240.471106 202.004713 
L 240.585911 203.504838 
L 240.843865 203.504838 
L 240.9586 205.004963 
L 241.188064 205.004963 
L 241.302792 206.505088 
L 241.475171 206.505088 
L 241.589625 208.005213 
L 241.675822 208.005213 
L 241.79067 209.505338 
L 242.33538 209.505338 
L 242.450113 211.005463 
L 243.540065 211.005463 
L 243.59774 212.505588 
L 243.74106 211.005463 
L 243.769529 211.005463 
L 243.884262 212.505588 
L 244.228456 212.505588 
L 244.343189 211.005463 
L 244.544186 211.005463 
L 244.658906 212.505588 
L 244.859481 212.505588 
L 245.00314 214.005713 
L 245.634157 214.005713 
L 245.719974 212.505588 
L 245.892072 212.505588 
L 246.0068 214.005713 
L 246.666702 214.005713 
L 246.781452 215.505838 
L 246.953492 215.505838 
L 247.068269 217.005963 
L 247.125693 217.005963 
L 247.240365 218.506088 
L 247.268849 218.506088 
L 247.383919 220.006213 
L 247.527212 221.506338 
L 247.555684 221.506338 
L 247.699307 224.506588 
L 247.756673 224.506588 
L 247.871438 226.006713 
L 247.899882 226.006713 
L 248.043469 227.506838 
L 248.445052 227.506838 
L 248.559709 229.006963 
L 248.588275 229.006963 
L 248.73186 232.007213 
L 248.817736 232.007213 
L 248.961392 235.007463 
L 249.075952 235.007463 
L 249.190811 236.507588 
L 249.248084 236.507588 
L 249.362907 238.007713 
L 249.391396 238.007713 
L 249.50613 239.507838 
L 249.707092 239.507838 
L 249.821896 241.007963 
L 250.223419 241.007963 
L 250.33804 242.508088 
L 251.600185 242.508088 
L 251.686042 244.008213 
L 252.144971 244.008213 
L 252.260002 242.508088 
L 253.005463 242.508088 
L 253.120196 241.007963 
L 254.439987 241.007963 
L 254.554345 239.507838 
L 255.529567 239.507838 
L 255.644301 238.007713 
L 255.673186 238.007713 
L 255.787841 236.507588 
L 255.873765 236.507588 
L 255.988498 238.007713 
L 256.562458 238.007713 
L 256.705778 236.507588 
L 257.365283 236.507588 
L 257.480016 238.007713 
L 257.766848 238.007713 
L 257.881577 239.507838 
L 258.08257 239.507838 
L 258.16841 241.007963 
L 258.598755 241.007963 
L 258.742296 236.507588 
L 259.028897 236.507588 
L 259.143634 238.007713 
L 259.401959 238.007713 
L 259.516676 236.507588 
L 259.746167 236.507588 
L 259.860703 238.007713 
L 259.946757 238.007713 
L 260.06149 239.507838 
L 260.090357 239.507838 
L 260.205084 241.007963 
L 260.348665 241.007963 
L 260.491928 242.508088 
L 260.864616 242.508088 
L 261.008167 244.008213 
L 261.036712 244.008213 
L 261.151444 245.508338 
L 261.438645 245.508338 
L 261.6393 242.508088 
L 261.782472 242.508088 
L 261.897204 244.008213 
L 262.385048 244.008213 
L 262.499778 245.508338 
L 262.757696 245.508338 
L 262.872428 247.008463 
L 263.962385 247.008463 
L 264.077118 245.508338 
L 264.335525 245.508338 
L 264.450256 244.008213 
L 265.138602 244.008213 
L 265.224748 242.508088 
L 265.368051 242.508088 
L 265.482827 241.007963 
L 266.371761 241.007963 
L 266.486494 239.507838 
L 266.773324 239.507838 
L 266.888356 241.007963 
L 267.318519 241.007963 
L 267.375865 242.508088 
L 267.69118 242.508088 
L 267.805914 241.007963 
L 267.920646 241.007963 
L 268.064233 239.507838 
L 268.551672 239.507838 
L 268.666405 238.007713 
L 268.810053 238.007713 
L 268.924783 236.507588 
L 269.010598 236.507588 
L 269.154179 235.007463 
L 269.326375 235.007463 
L 269.441035 233.507338 
L 269.46953 233.507338 
L 269.584532 232.007213 
L 269.698993 232.007213 
L 269.813724 230.507088 
L 270.301619 230.507088 
L 270.416317 229.006963 
L 270.588368 229.006963 
L 270.70292 227.506838 
L 270.731582 227.506838 
L 270.903681 223.006463 
L 271.01841 223.006463 
L 271.133142 224.506588 
L 271.247872 224.506588 
L 271.362607 223.006463 
L 271.50623 223.006463 
L 271.64944 220.006213 
L 271.706804 220.006213 
L 271.850362 218.506088 
L 271.965197 218.506088 
L 272.108366 215.505838 
L 272.424072 215.505838 
L 272.567291 218.506088 
L 272.854112 218.506088 
L 273.026219 214.005713 
L 273.055093 214.005713 
L 273.198318 211.005463 
L 273.227193 211.005463 
L 273.370769 208.005213 
L 273.714611 208.005213 
L 273.858161 205.004963 
L 273.886897 205.004963 
L 274.087742 202.004713 
L 274.116173 202.004713 
L 274.230907 203.504838 
L 274.288272 203.504838 
L 274.403003 200.504588 
L 274.460754 200.504588 
L 274.603961 197.504338 
L 274.661358 197.504338 
L 274.804564 200.504588 
L 274.83345 200.504588 
L 274.976962 197.504338 
L 275.091394 197.504338 
L 275.206127 196.004213 
L 275.320858 196.004213 
L 275.464515 193.003963 
L 275.492957 193.003963 
L 275.923392 184.003213 
L 275.980786 184.003213 
L 276.095281 182.503088 
L 276.123976 182.503088 
L 276.267603 185.503338 
L 276.382313 184.003213 
L 276.43959 184.003213 
L 276.554385 182.503088 
L 276.582906 182.503088 
L 276.783931 175.002463 
L 276.984466 169.001963 
L 277.1569 173.502338 
L 277.300169 173.502338 
L 277.4149 172.002213 
L 277.587064 172.002213 
L 277.673154 163.001463 
L 278.189144 119.497838 
L 278.390131 114.997463 
L 278.590703 123.998213 
L 278.619569 122.498088 
L 278.648068 122.498088 
L 278.705433 117.997713 
L 278.763181 119.497838 
L 278.848958 123.998213 
L 278.877531 122.498088 
L 278.906422 122.498088 
L 279.164357 105.996713 
L 279.365199 90.995463 
L 279.508551 84.994963 
L 279.680645 90.995463 
L 279.852985 80.494588 
L 280.024839 93.995713 
L 280.455167 148.000213 
L 280.570037 137.499338 
L 280.856896 107.496838 
L 280.885322 108.996963 
L 281.0289 110.497088 
L 281.114784 104.496588 
L 281.14371 105.996713 
L 281.258427 107.496838 
L 281.373093 107.496838 
L 281.459307 98.496088 
L 281.717351 72.993963 
L 281.745807 74.494088 
L 281.975264 90.995463 
L 282.463121 101.496338 
L 282.57762 101.496338 
L 282.606287 102.996463 
L 282.663649 101.496338 
L 282.692506 101.496338 
L 282.807265 105.996713 
L 282.835749 104.496588 
L 282.950479 104.496588 
L 283.638851 134.499088 
L 283.667597 132.998963 
L 283.72509 134.499088 
L 283.8972 138.999463 
L 283.925695 138.999463 
L 284.069357 141.999713 
L 284.183838 141.999713 
L 284.327255 144.999963 
L 284.470919 141.999713 
L 284.49935 141.999713 
L 284.642936 138.999463 
L 284.671836 138.999463 
L 284.815067 137.499338 
L 284.843544 137.499338 
L 285.015642 141.999713 
L 285.044549 141.999713 
L 285.130375 143.499838 
L 285.24548 141.999713 
L 285.359836 141.999713 
L 285.531932 146.500088 
L 285.560765 146.500088 
L 285.704031 149.500338 
L 285.761731 149.500338 
L 285.90502 151.000463 
L 285.990858 151.000463 
L 286.105587 152.500588 
L 286.134475 152.500588 
L 286.249089 154.000713 
L 286.507149 154.000713 
L 286.62188 155.500838 
L 286.679246 155.500838 
L 286.793977 157.000963 
L 287.052316 157.000963 
L 287.167032 158.501088 
L 287.367929 158.501088 
L 287.568548 161.501338 
L 287.71183 161.501338 
L 287.826561 163.001463 
L 287.883926 163.001463 
L 288.027501 164.501588 
L 288.056025 164.501588 
L 288.170754 166.001713 
L 288.22812 166.001713 
L 288.371726 169.001963 
L 288.429086 169.001963 
L 288.543742 170.502088 
L 288.62968 170.502088 
L 288.744413 172.002213 
L 288.945353 172.002213 
L 289.059984 173.502338 
L 289.145974 173.502338 
L 289.260703 175.002463 
L 289.375433 175.002463 
L 289.490163 176.502588 
L 289.633717 176.502588 
L 289.748545 178.002713 
L 290.064191 178.002713 
L 290.207451 179.502838 
L 290.6662 179.502838 
L 290.781094 178.002713 
L 290.866945 178.002713 
L 290.981676 179.502838 
L 291.010608 179.502838 
L 291.125307 178.002713 
L 291.383237 178.002713 
L 291.526843 181.002963 
L 291.612702 181.002963 
L 291.727428 182.503088 
L 291.784796 182.503088 
L 291.928459 179.502838 
L 292.874748 179.502838 
L 292.98948 181.002963 
L 293.505771 181.002963 
L 293.620505 179.502838 
L 293.7926 179.502838 
L 293.907332 178.002713 
L 293.964696 178.002713 
L 294.079429 176.502588 
L 294.538357 176.502588 
L 294.653089 175.002463 
L 294.682037 175.002463 
L 294.739275 173.502338 
L 294.76782 175.002463 
L 295.112013 175.002463 
L 295.226745 176.502588 
L 295.3704 176.502588 
L 295.456559 178.002713 
L 295.714598 178.002713 
L 295.857767 181.002963 
L 296.058578 181.002963 
L 296.173509 179.502838 
L 296.28814 179.502838 
L 296.402917 181.002963 
L 296.488793 181.002963 
L 296.603524 182.503088 
L 296.660889 182.503088 
L 296.775622 184.003213 
L 296.919264 184.003213 
L 297.062448 187.003463 
L 297.320771 191.503838 
L 297.378016 191.503838 
L 297.492929 193.003963 
L 297.550249 193.003963 
L 297.693476 196.004213 
L 297.722289 196.004213 
L 297.837069 197.504338 
L 298.783427 197.504338 
L 298.898159 196.004213 
L 299.012888 196.004213 
L 299.12762 194.504088 
L 299.615406 194.504088 
L 299.730167 193.003963 
L 299.930741 193.003963 
L 300.045473 191.503838 
L 300.303866 187.003463 
L 300.475898 187.003463 
L 300.590626 185.503338 
L 300.791228 185.503338 
L 300.90596 184.003213 
L 301.135425 184.003213 
L 301.250158 185.503338 
L 301.88118 185.503338 
L 301.995913 187.003463 
L 302.340105 187.003463 
L 302.454836 185.503338 
L 302.655749 188.503588 
L 302.713167 188.503588 
L 302.827856 187.003463 
L 302.971129 187.003463 
L 303.085859 188.503588 
L 303.430056 188.503588 
L 303.487422 187.003463 
L 303.516301 188.503588 
L 303.774253 188.503588 
L 303.888986 190.003713 
L 304.003714 190.003713 
L 304.118751 188.503588 
L 304.147145 188.503588 
L 304.290545 191.503838 
L 304.635043 191.503838 
L 304.77832 193.003963 
L 304.835762 193.003963 
L 304.950444 194.504088 
L 305.122537 194.504088 
L 305.23712 193.003963 
L 305.552595 193.003963 
L 305.667325 194.504088 
L 305.839425 194.504088 
L 305.983029 197.504338 
L 306.068887 197.504338 
L 306.212535 200.504588 
L 306.240985 200.504588 
L 306.384508 202.004713 
L 306.49934 200.504588 
L 306.528155 200.504588 
L 306.67151 197.504338 
L 306.900827 197.504338 
L 307.044107 200.504588 
L 307.101473 200.504588 
L 307.216205 199.004463 
L 307.302427 199.004463 
L 307.503037 205.004963 
L 307.675131 205.004963 
L 307.789865 206.505088 
L 307.933309 206.505088 
L 308.076696 203.504838 
L 308.507041 203.504838 
L 308.679286 199.004463 
L 308.879816 199.004463 
L 308.994534 200.504588 
L 309.10928 199.004463 
L 309.166644 199.004463 
L 309.281378 200.504588 
L 309.425008 200.504588 
L 309.48233 199.004463 
L 309.511172 200.504588 
L 309.711883 200.504588 
L 309.855036 197.504338 
L 310.0845 197.504338 
L 310.113253 199.004463 
L 310.170746 197.504338 
L 310.256595 197.504338 
L 310.400223 200.504588 
L 310.457535 200.504588 
L 310.54343 202.004713 
L 310.686987 202.004713 
L 310.801789 203.504838 
L 310.916562 202.004713 
L 310.973889 202.004713 
L 311.203229 209.505338 
L 311.26066 209.505338 
L 311.403916 212.505588 
L 311.490218 212.505588 
L 311.604856 214.005713 
L 311.805475 214.005713 
L 311.949078 211.005463 
L 312.149676 211.005463 
L 312.293205 214.005713 
L 312.350617 214.005713 
L 312.465344 215.505838 
L 312.522751 215.505838 
L 312.637489 214.005713 
L 312.723334 214.005713 
L 312.924243 211.005463 
L 313.039058 211.005463 
L 313.153775 212.505588 
L 313.325688 208.005213 
L 313.440644 208.005213 
L 313.583822 211.005463 
L 313.698554 211.005463 
L 313.813593 214.005713 
L 313.899423 214.005713 
L 314.014191 215.505838 
L 314.243766 215.505838 
L 314.387297 218.506088 
L 314.444314 218.506088 
L 314.559046 220.006213 
L 314.587977 220.006213 
L 314.702686 221.506338 
L 314.760067 221.506338 
L 314.874812 220.006213 
L 315.104161 220.006213 
L 315.247434 217.005963 
L 315.304804 217.005963 
L 315.419537 218.506088 
L 315.563132 220.006213 
L 315.849999 220.006213 
L 315.993512 223.006463 
L 316.079373 223.006463 
L 316.222658 226.006713 
L 316.308917 226.006713 
L 316.452122 229.006963 
L 316.509754 229.006963 
L 316.653106 227.506838 
L 316.939969 227.506838 
L 317.140514 221.506338 
L 317.255245 221.506338 
L 317.398895 224.506588 
L 317.427345 224.506588 
L 317.57098 221.506338 
L 317.943639 221.506338 
L 318.058371 220.006213 
L 318.230468 220.006213 
L 318.373983 223.006463 
L 318.402567 223.006463 
L 318.517298 224.506588 
L 318.660908 224.506588 
L 318.804126 227.506838 
L 319.090959 227.506838 
L 319.148324 226.006713 
L 319.177197 227.506838 
L 319.291804 227.506838 
L 319.406662 229.006963 
L 319.636199 229.006963 
L 319.721983 230.507088 
L 319.951449 230.507088 
L 320.095068 233.507338 
L 320.238278 233.507338 
L 320.295972 235.007463 
L 320.439273 233.507338 
L 320.467745 233.507338 
L 320.582476 235.007463 
L 320.611324 235.007463 
L 320.726082 233.507338 
L 320.81194 233.507338 
L 320.955511 232.007213 
L 321.127621 232.007213 
L 321.213502 233.507338 
L 321.442972 226.006713 
L 321.729797 226.006713 
L 321.901898 221.506338 
L 322.073995 221.506338 
L 322.217555 218.506088 
L 322.389684 218.506088 
L 322.84864 188.503588 
L 323.135462 169.001963 
L 323.192845 169.001963 
L 323.422245 152.500588 
L 323.565787 148.000213 
L 323.680235 148.000213 
L 323.938608 138.999463 
L 323.967063 138.999463 
L 324.082136 143.499838 
L 324.139158 141.999713 
L 324.196526 143.499838 
L 324.225399 141.999713 
L 324.28277 141.999713 
L 324.425986 132.998963 
L 324.483352 135.999213 
L 324.512206 135.999213 
L 324.56961 137.499338 
L 324.598083 135.999213 
L 325.114374 92.495588 
L 325.200427 93.995713 
L 325.343836 95.495838 
L 325.429951 93.995713 
L 325.688321 83.494838 
L 325.745398 84.994963 
L 325.91749 98.496088 
L 325.946346 96.995963 
L 325.974857 96.995963 
L 326.118414 93.995713 
L 326.146953 93.995713 
L 326.204316 90.995463 
L 326.405286 102.996463 
L 326.43378 102.996463 
L 326.54851 107.496838 
L 326.835337 87.995213 
L 327.064803 72.993963 
L 327.294574 89.495338 
L 327.408988 86.495088 
L 327.52372 86.495088 
L 327.581089 84.994963 
L 327.609998 86.495088 
L 327.638452 86.495088 
L 327.724721 87.995213 
L 328.011486 74.494088 
L 328.040013 75.994213 
L 328.068858 75.994213 
L 328.212107 72.993963 
L 328.355684 77.494338 
L 328.498938 78.994463 
L 328.5563 77.494338 
L 328.585161 78.994463 
L 328.757302 78.994463 
L 328.900494 84.994963 
L 328.929275 83.494838 
L 328.986706 83.494838 
L 329.129951 86.495088 
L 329.187321 83.494838 
L 329.216221 84.994963 
L 329.33097 89.495338 
L 329.359413 87.995213 
L 329.41677 87.995213 
L 329.474144 90.995463 
L 330.248803 93.995713 
L 330.736189 72.993963 
L 330.822408 77.494338 
L 330.850921 75.994213 
L 330.879809 75.994213 
L 331.080385 60.992963 
L 331.166632 56.492588 
L 331.424574 81.994713 
L 331.453391 81.994713 
L 331.481941 80.494588 
L 331.539642 81.994713 
L 331.711397 86.495088 
L 331.740285 86.495088 
L 331.912328 80.494588 
L 332.027006 84.994963 
L 332.141711 74.494088 
L 332.514515 45.991713 
L 332.543355 45.991713 
L 332.686612 38.491088 
L 332.772861 39.991213 
L 332.801344 38.491088 
L 332.858709 39.991213 
L 332.887485 39.991213 
L 333.059569 44.491588 
L 333.088167 44.491588 
L 333.202898 41.491338 
L 333.23169 41.491338 
L 333.317632 36.990963 
L 333.346513 38.491088 
L 334.407568 89.495338 
L 334.694403 78.994463 
L 334.723281 78.994463 
L 334.837904 80.494588 
L 334.866497 80.494588 
L 335.038594 71.493838 
L 335.182145 74.494088 
L 335.210687 74.494088 
L 335.268054 71.493838 
L 335.325735 72.993963 
L 335.469052 75.994213 
L 335.497515 75.994213 
L 335.58378 77.494338 
L 335.784345 71.493838 
L 335.813136 71.493838 
L 335.927882 69.993713 
L 336.157436 77.494338 
L 336.300631 77.494338 
L 336.874281 111.997213 
L 337.132635 125.498338 
L 337.161112 125.498338 
L 337.390574 132.998963 
L 337.419469 132.998963 
L 337.591539 137.499338 
L 337.620038 137.499338 
L 337.792137 141.999713 
L 337.878316 141.999713 
L 338.021597 144.999963 
L 338.050343 144.999963 
L 338.13633 146.500088 
L 341.004616 164.501588 
L 341.119346 166.001713 
L 341.14813 166.001713 
L 341.263001 167.501838 
L 341.349048 167.501838 
L 341.492362 169.001963 
L 341.865103 169.001963 
L 342.008652 170.502088 
L 342.066096 170.502088 
L 342.180795 169.001963 
L 342.266939 169.001963 
L 342.381393 170.502088 
L 342.410214 170.502088 
L 342.496123 172.002213 
L 342.610854 170.502088 
L 342.725582 170.502088 
L 342.869224 173.502338 
L 342.955047 173.502338 
L 343.270705 179.502838 
L 343.328034 179.502838 
L 343.442833 181.002963 
L 343.471341 181.002963 
L 343.614885 182.503088 
L 343.643434 182.503088 
L 343.758166 184.003213 
L 343.901741 184.003213 
L 344.045337 187.003463 
L 344.159727 187.003463 
L 344.303265 184.003213 
L 344.41794 184.003213 
L 344.532787 182.503088 
L 344.618995 182.503088 
L 344.647365 184.003213 
L 344.991721 185.503338 
L 345.106431 184.003213 
L 345.22113 184.003213 
L 345.249678 185.503338 
L 345.450648 185.503338 
L 345.565358 184.003213 
L 345.737475 184.003213 
L 345.823337 185.503338 
L 345.909413 185.503338 
L 346.024287 187.003463 
L 346.052801 187.003463 
L 346.167532 188.503588 
L 346.196361 188.503588 
L 346.339629 191.503838 
L 346.397256 191.503838 
L 346.540548 193.003963 
L 346.683827 193.003963 
L 346.798559 191.503838 
L 346.970643 191.503838 
L 347.08539 193.003963 
L 347.716409 193.003963 
L 347.859962 196.004213 
L 348.404799 196.004213 
L 348.519531 194.504088 
L 348.663054 193.003963 
L 348.863727 193.003963 
L 348.978456 194.504088 
L 349.064672 194.504088 
L 349.20792 191.503838 
L 349.609481 191.503838 
L 349.753032 190.003713 
L 349.781581 190.003713 
L 349.92516 187.003463 
L 350.068409 187.003463 
L 350.183431 188.503588 
L 350.211818 188.503588 
L 350.326665 187.003463 
L 350.384065 187.003463 
L 350.49879 185.503338 
L 350.613568 185.503338 
L 350.814165 179.502838 
L 350.928899 181.002963 
L 351.015161 181.002963 
L 351.129881 182.503088 
L 351.187264 182.503088 
L 351.301793 184.003213 
L 351.359286 184.003213 
L 351.474017 182.503088 
L 351.502555 182.503088 
L 351.617289 181.002963 
L 351.78969 181.002963 
L 351.932985 182.503088 
L 352.162463 182.503088 
L 352.277224 184.003213 
L 352.36336 184.003213 
L 352.506582 187.003463 
L 352.936704 187.003463 
L 353.051431 185.503338 
L 353.08028 185.503338 
L 353.19508 184.003213 
L 353.309695 185.503338 
L 353.33826 185.503338 
L 353.452993 184.003213 
L 353.625093 184.003213 
L 353.76863 187.003463 
L 353.911924 187.003463 
L 354.055481 185.503338 
L 354.170244 187.003463 
L 354.256117 187.003463 
L 354.370849 188.503588 
L 354.457059 188.503588 
L 354.571722 187.003463 
L 354.829779 187.003463 
L 354.944508 188.503588 
L 355.116606 188.503588 
L 355.23134 190.003713 
L 355.518171 190.003713 
L 355.632899 188.503588 
L 356.407523 188.503588 
L 356.522305 187.003463 
L 356.579633 187.003463 
L 356.694184 185.503338 
L 356.83758 185.503338 
L 356.952313 187.003463 
L 357.095913 187.003463 
L 357.12441 188.503588 
L 357.182089 187.003463 
L 357.784162 187.003463 
L 357.899001 185.503338 
L 358.042267 185.503338 
L 358.157 184.003213 
L 358.902754 184.003213 
L 359.017486 182.503088 
L 359.189584 182.503088 
L 359.304312 184.003213 
L 360.021535 184.003213 
L 360.136287 182.503088 
L 360.308411 182.503088 
L 360.394264 184.003213 
L 360.451981 184.003213 
L 360.56636 185.503338 
L 360.681093 184.003213 
L 360.996594 184.003213 
L 361.02529 185.503338 
L 361.082655 184.003213 
L 361.226266 184.003213 
L 361.340974 185.503338 
L 361.455709 184.003213 
L 361.82841 184.003213 
L 361.943138 185.503338 
L 362.000505 185.503338 
L 362.144061 187.003463 
L 362.402064 187.003463 
L 362.516795 188.503588 
L 362.631528 188.503588 
L 362.746261 190.003713 
L 363.03309 190.003713 
L 363.14808 191.503838 
L 363.176543 191.503838 
L 363.319917 188.503588 
L 363.635598 188.503588 
L 363.750273 190.003713 
L 363.922456 190.003713 
L 364.037229 191.503838 
L 364.151887 191.503838 
L 364.266517 193.003963 
L 364.840252 193.003963 
L 364.955012 191.503838 
L 365.270593 191.503838 
L 365.41392 190.003713 
L 365.557186 190.003713 
L 365.671915 191.503838 
L 365.872735 191.503838 
L 365.987608 193.003963 
L 366.016114 193.003963 
L 366.130842 191.503838 
L 366.503924 191.503838 
L 366.618582 193.003963 
L 366.790779 193.003963 
L 366.933966 196.004213 
L 367.249647 196.004213 
L 367.364389 197.504338 
L 367.478953 196.004213 
L 367.708649 196.004213 
L 367.823395 194.504088 
L 368.253377 194.504088 
L 368.396964 191.503838 
L 368.425479 191.503838 
L 368.597576 187.003463 
L 368.65494 187.003463 
L 368.769672 188.503588 
L 369.113868 188.503588 
L 369.257507 191.503838 
L 369.515429 191.503838 
L 369.630158 193.003963 
L 369.83111 193.003963 
L 369.916991 191.503838 
L 370.031722 193.003963 
L 370.347393 193.003963 
L 370.462114 191.503838 
L 371.09319 191.503838 
L 371.179041 190.003713 
L 371.552113 190.003713 
L 371.666813 191.503838 
L 371.724203 191.503838 
L 371.838845 193.003963 
L 371.896269 193.003963 
L 372.011006 194.504088 
L 372.699446 194.504088 
L 372.785287 193.003963 
L 373.273047 193.003963 
L 373.359262 191.503838 
L 374.305641 191.503838 
L 374.420424 190.003713 
L 374.965188 190.003713 
L 375.108771 188.503588 
L 375.997772 188.503588 
L 376.112502 187.003463 
L 376.2846 187.003463 
L 376.399328 188.503588 
L 376.428167 188.503588 
L 376.514063 190.003713 
L 376.629098 190.003713 
L 376.743525 191.503838 
L 376.829815 191.503838 
L 376.972986 194.504088 
L 377.116632 194.504088 
L 377.231241 196.004213 
L 377.804897 196.004213 
L 377.919661 197.504338 
L 377.948207 197.504338 
L 378.091821 200.504588 
L 378.493352 200.504588 
L 378.608135 199.004463 
L 379.009659 199.004463 
L 379.124425 200.504588 
L 379.583343 200.504588 
L 379.698054 199.004463 
L 379.783913 199.004463 
L 379.898644 197.504338 
L 379.984812 197.504338 
L 380.128106 194.504088 
L 380.271733 194.504088 
L 380.415288 191.503838 
L 380.501164 191.503838 
L 380.6444 188.503588 
L 380.759132 188.503588 
L 380.90269 185.503338 
L 381.533646 185.503338 
L 381.648404 184.003213 
L 381.763228 184.003213 
L 381.877934 185.503338 
L 382.480107 185.503338 
L 382.623624 182.503088 
L 382.681032 182.503088 
L 382.853085 178.002713 
L 382.88167 178.002713 
L 383.053769 173.502338 
L 383.11147 173.502338 
L 383.254694 170.502088 
L 383.570059 170.502088 
L 383.684793 172.002213 
L 383.7136 172.002213 
L 383.828358 170.502088 
L 383.971621 170.502088 
L 384.086356 169.001963 
L 384.430551 169.001963 
L 384.545278 170.502088 
L 385.061572 170.502088 
L 385.205186 167.501838 
L 385.291035 167.501838 
L 385.405767 166.001713 
L 385.491996 166.001713 
L 385.635234 163.001463 
L 385.664117 163.001463 
L 386.237766 137.499338 
L 386.266256 137.499338 
L 386.409795 134.499088 
L 386.467176 134.499088 
L 386.725182 125.498338 
L 386.754102 125.498338 
L 386.98353 116.497588 
L 387.270343 126.998463 
L 387.327632 126.998463 
L 387.499773 131.498838 
L 387.671955 126.998463 
L 387.729281 126.998463 
L 387.844035 125.498338 
L 387.930224 125.498338 
L 388.360304 116.497588 
L 388.532257 116.497588 
L 388.790343 125.498338 
L 388.819258 125.498338 
L 388.962438 135.999213 
L 389.220703 155.500838 
L 389.249268 155.500838 
L 389.392836 158.501088 
L 389.650828 158.501088 
L 389.76556 160.001213 
L 389.822926 160.001213 
L 389.966532 163.001463 
L 390.052392 163.001463 
L 390.597577 175.002463 
L 390.654716 175.002463 
L 390.769688 176.502588 
L 391.027608 176.502588 
L 391.142337 178.002713 
L 391.257069 178.002713 
L 391.371804 179.502838 
L 391.429168 179.502838 
L 391.543901 178.002713 
L 391.773362 178.002713 
L 391.888093 179.502838 
L 392.461755 179.502838 
L 392.576485 181.002963 
L 392.633852 181.002963 
L 392.74858 182.503088 
L 393.006895 182.503088 
L 393.121655 184.003213 
L 393.379603 184.003213 
L 393.494335 185.503338 
L 395.014608 185.503338 
L 395.129429 187.003463 
L 395.186692 187.003463 
L 395.301513 188.503588 
L 395.588303 188.503588 
L 395.703075 190.003713 
L 395.817803 190.003713 
L 395.932478 191.503838 
L 396.161956 191.503838 
L 396.276704 193.003963 
L 396.878904 193.003963 
L 396.99364 194.504088 
L 397.251948 194.504088 
L 397.366682 196.004213 
L 397.423965 196.004213 
L 397.538691 197.504338 
L 397.624938 197.504338 
L 397.71079 196.004213 
L 397.825689 197.504338 
L 398.026224 197.504338 
L 398.140955 199.004463 
L 398.284525 197.504338 
L 398.485153 197.504338 
L 398.513967 199.004463 
L 398.571348 197.504338 
L 398.628784 197.504338 
L 398.714938 199.004463 
L 399.403002 199.004463 
L 399.517736 200.504588 
L 399.776084 200.504588 
L 399.890737 202.004713 
L 400.091394 202.004713 
L 400.206128 203.504838 
L 400.980712 203.504838 
L 401.095473 202.004713 
L 401.123982 202.004713 
L 401.267564 199.004463 
L 401.296078 199.004463 
L 401.382241 197.504338 
L 401.496953 199.004463 
L 401.554421 199.004463 
L 401.697643 202.004713 
L 401.86974 202.004713 
L 401.984823 203.504838 
L 402.013194 203.504838 
L 402.070687 205.004963 
L 402.099204 203.504838 
L 402.156567 203.504838 
L 402.2713 202.004713 
L 402.300205 202.004713 
L 402.472234 206.505088 
L 402.501119 206.505088 
L 402.615497 208.005213 
L 402.730227 208.005213 
L 402.844962 209.505338 
L 403.017059 209.505338 
L 403.160659 211.005463 
L 403.246525 209.505338 
L 403.390111 212.505588 
L 403.418622 212.505588 
L 403.533357 214.005713 
L 403.934917 214.005713 
L 404.04965 212.505588 
L 404.107358 212.505588 
L 404.308005 209.505338 
L 404.967509 209.505338 
L 405.082239 211.005463 
L 405.111172 211.005463 
L 405.168438 212.505588 
L 405.197297 211.005463 
L 405.570027 211.005463 
L 405.684746 209.505338 
L 405.713268 209.505338 
L 405.971655 214.005713 
L 406.401661 214.005713 
L 406.545248 217.005963 
L 406.631121 217.005963 
L 406.745856 215.505838 
L 406.917954 215.505838 
L 407.004155 217.005963 
L 407.118927 215.505838 
L 407.204786 215.505838 
L 407.319516 214.005713 
L 407.463019 212.505588 
L 407.548978 212.505588 
L 407.663712 214.005713 
L 407.950541 214.005713 
L 408.094136 212.505588 
L 408.20891 212.505588 
L 408.294739 211.005463 
L 408.409471 212.505588 
L 408.66783 217.005963 
L 408.83993 217.005963 
L 408.954606 218.506088 
L 409.298831 218.506088 
L 409.442057 221.506338 
L 409.499748 221.506338 
L 409.643001 223.006463 
L 410.015717 223.006463 
L 410.216705 226.006713 
L 410.331432 226.006713 
L 410.474646 229.006963 
L 410.905072 229.006963 
L 411.019827 227.506838 
L 411.048301 227.506838 
L 411.19176 224.506588 
L 411.2204 224.506588 
L 411.335132 223.006463 
L 411.593389 223.006463 
L 411.736698 226.006713 
L 411.822941 224.506588 
L 411.937713 226.006713 
L 411.994974 226.006713 
L 412.10977 227.506838 
L 412.195621 227.506838 
L 412.339225 226.006713 
L 412.511253 226.006713 
L 412.626072 227.506838 
L 412.884012 227.506838 
L 412.99874 226.006713 
L 413.342938 226.006713 
L 413.48645 229.006963 
L 413.687134 229.006963 
L 413.801864 227.506838 
L 414.060201 227.506838 
L 414.174926 226.006713 
L 414.863229 226.006713 
L 415.006548 223.006463 
L 415.236262 223.006463 
L 415.350742 224.506588 
L 415.379624 224.506588 
L 415.494158 226.006713 
L 415.55161 226.006713 
L 415.580207 227.506838 
L 415.637575 226.006713 
L 415.924402 226.006713 
L 416.067889 229.006963 
L 416.096503 229.006963 
L 416.240076 232.007213 
L 416.383331 232.007213 
L 416.555745 236.507588 
L 416.670157 236.507588 
L 416.727524 238.007713 
L 416.756428 236.507588 
L 416.813769 236.507588 
L 416.928463 238.007713 
L 417.072073 238.007713 
L 417.215332 236.507588 
L 417.358557 236.507588 
L 417.473292 238.007713 
L 417.530658 238.007713 
L 417.645695 236.507588 
L 417.989587 236.507588 
L 418.133115 239.507838 
L 418.161986 239.507838 
L 418.305312 241.007963 
L 418.333785 241.007963 
L 418.448516 242.508088 
L 418.534739 242.508088 
L 418.649487 241.007963 
L 418.907449 241.007963 
L 419.079544 236.507588 
L 419.366373 236.507588 
L 419.452602 235.007463 
L 419.595843 238.007713 
L 419.624683 238.007713 
L 419.739353 239.507838 
L 419.768158 239.507838 
L 419.911484 241.007963 
L 419.997402 241.007963 
L 420.141061 244.008213 
L 420.198374 244.008213 
L 420.284235 245.508338 
L 420.427801 244.008213 
L 420.571065 244.008213 
L 420.743165 239.507838 
L 420.772053 239.507838 
L 420.915265 236.507588 
L 420.972628 236.507588 
L 421.116242 239.507838 
L 421.23099 239.507838 
L 421.345702 238.007713 
L 421.83312 238.007713 
L 421.948171 236.507588 
L 421.976525 236.507588 
L 422.091324 238.007713 
L 422.292051 238.007713 
L 422.349419 236.507588 
L 422.378247 238.007713 
L 422.865713 238.007713 
L 422.980447 236.507588 
L 423.123992 238.007713 
L 423.181379 238.007713 
L 423.209912 239.507838 
L 423.267275 238.007713 
L 423.898306 238.007713 
L 424.013039 239.507838 
L 424.070405 239.507838 
L 424.213972 238.007713 
L 424.271265 238.007713 
L 424.386149 236.507588 
L 424.758797 236.507588 
L 424.873532 235.007463 
L 425.303954 235.007463 
L 425.533425 227.506838 
L 425.561923 227.506838 
L 425.734309 223.006463 
L 425.934886 223.006463 
L 426.049683 221.506338 
L 426.221764 221.506338 
L 426.336438 220.006213 
L 426.365049 220.006213 
L 426.508599 217.005963 
L 426.537148 217.005963 
L 426.651881 218.506088 
L 426.709246 218.506088 
L 426.852681 215.505838 
L 426.996078 215.505838 
L 427.139688 212.505588 
L 427.168174 212.505588 
L 427.311778 209.505338 
L 427.34054 209.505338 
L 427.59853 205.004963 
L 427.627103 205.004963 
L 427.799199 200.504588 
L 427.828061 200.504588 
L 428.057549 193.003963 
L 428.086027 193.003963 
L 428.258117 181.002963 
L 428.544937 152.500588 
L 428.745902 146.500088 
L 428.803282 146.500088 
L 428.946838 149.500338 
L 429.061224 144.999963 
L 429.175953 137.499338 
L 429.204779 138.999463 
L 429.34805 144.999963 
L 429.376915 143.499838 
L 429.462784 134.499088 
L 429.663703 110.497088 
L 429.721121 114.997463 
L 429.864343 120.997963 
L 429.893163 120.997963 
L 430.638826 84.994963 
L 430.69628 86.495088 
L 430.724827 84.994963 
L 430.753657 84.994963 
L 430.896923 80.494588 
L 430.925807 80.494588 
L 431.040504 77.494338 
L 431.126685 78.994463 
L 431.21256 77.494338 
L 431.499404 90.995463 
L 431.527938 89.495338 
L 431.556787 89.495338 
L 431.757404 83.494838 
L 431.786163 83.494838 
L 432.015729 96.995963 
L 432.130421 93.995713 
L 432.216653 96.995963 
L 432.245042 95.495838 
L 432.27369 95.495838 
L 432.503151 102.996463 
L 432.560517 102.996463 
L 432.732846 93.995713 
L 432.761283 96.995963 
L 432.876198 96.995963 
L 432.990957 99.996213 
L 433.191543 78.994463 
L 433.248909 80.494588 
L 433.363639 78.994463 
L 433.564583 86.495088 
L 433.908756 72.993963 
L 433.937296 72.993963 
L 434.023474 75.994213 
L 434.052024 74.494088 
L 434.138173 74.494088 
L 434.253022 77.494338 
L 434.424998 65.493338 
L 434.482436 69.993713 
L 434.568316 72.993963 
L 434.597203 71.493838 
L 434.74041 68.493588 
L 434.969874 84.994963 
L 435.113463 72.993963 
L 435.371432 56.492588 
L 435.687132 68.493588 
L 435.91658 60.992963 
L 436.05982 68.493588 
L 436.088676 66.993463 
L 436.174549 60.992963 
L 436.231912 62.493088 
L 436.346647 63.993213 
L 436.37541 63.993213 
L 436.461376 59.492838 
L 436.719686 77.494338 
L 436.949194 90.995463 
L 437.23601 101.496338 
L 437.264492 99.996213 
L 437.321856 101.496338 
L 437.350758 101.496338 
L 437.493956 98.496088 
L 437.551625 98.496088 
L 437.752338 101.496338 
L 437.80963 101.496338 
L 438.010246 107.496838 
L 438.182344 107.496838 
L 438.325868 110.497088 
L 438.354438 110.497088 
L 438.383287 111.997213 
L 438.44065 110.497088 
L 438.497979 110.497088 
L 438.583904 111.997213 
L 438.641589 110.497088 
L 439.042827 122.498088 
L 439.243662 132.998963 
L 439.444387 138.999463 
L 439.530555 138.999463 
L 439.673851 141.999713 
L 439.731398 141.999713 
L 440.046817 154.000713 
L 440.190141 154.000713 
L 440.391113 148.000213 
L 440.534337 148.000213 
L 440.706433 161.501338 
L 440.907375 173.502338 
L 440.935897 173.502338 
L 441.165361 181.002963 
L 441.19422 181.002963 
L 441.337765 184.003213 
L 441.423618 184.003213 
L 441.53844 185.503338 
L 441.595766 185.503338 
L 441.739016 188.503588 
L 441.853751 188.503588 
L 441.968482 190.003713 
L 441.997352 188.503588 
L 442.054666 190.003713 
L 442.083214 190.003713 
L 442.197943 191.503838 
L 442.341468 191.503838 
L 442.370043 193.003963 
L 442.42769 191.503838 
L 442.771603 191.503838 
L 442.886339 193.003963 
L 443.374089 193.003963 
L 443.517581 196.004213 
L 443.60357 196.004213 
L 443.718296 197.504338 
L 444.033839 197.504338 
L 444.09102 199.004463 
L 444.119811 197.504338 
L 444.148388 197.504338 
L 444.177176 199.004463 
L 444.234664 197.504338 
L 444.320487 197.504338 
L 444.435216 199.004463 
L 444.549949 199.004463 
L 444.693505 200.504588 
L 444.779413 200.504588 
L 444.894141 202.004713 
L 444.922988 202.004713 
L 444.980368 203.504838 
L 445.008876 202.004713 
L 445.582531 202.004713 
L 445.697261 203.504838 
L 446.012963 203.504838 
L 446.127668 205.004963 
L 446.328288 205.004963 
L 446.443017 203.504838 
L 446.529263 203.504838 
L 446.67248 206.505088 
L 446.844576 206.505088 
L 446.959311 208.005213 
L 447.016672 208.005213 
L 447.131405 209.505338 
L 447.360867 209.505338 
L 447.475602 211.005463 
L 447.791339 211.005463 
L 447.963381 215.505838 
L 448.25019 215.505838 
L 448.393452 212.505588 
L 448.565551 212.505588 
L 448.680283 214.005713 
L 448.795011 214.005713 
L 448.910032 212.505588 
L 449.024478 212.505588 
L 449.13921 211.005463 
L 449.196573 211.005463 
L 449.225425 212.505588 
L 449.282791 211.005463 
L 449.770237 211.005463 
L 449.884965 209.505338 
L 449.94233 209.505338 
L 450 211.005463 
L 450 211.005463 
" clip-path="url(#pc69b456e56)" style="fill: none; stroke: #1f77b4; stroke-width: 1.5; stroke-linecap: square"/>
   </g>
   <g id="patch_3">
    <path d="M 46.46 279.561175 
L 46.46 25.44 
" style="fill: none; stroke: #000000; stroke-width: 0.8; stroke-linejoin: miter; stroke-linecap: square"/>
   </g>
   <g id="patch_4">
    <path d="M 450 279.561175 
L 450 25.44 
" style="fill: none; stroke: #000000; stroke-width: 0.8; stroke-linejoin: miter; stroke-linecap: square"/>
   </g>
   <g id="patch_5">
    <path d="M 46.46 279.561175 
L 450 279.561175 
" style="fill: none; stroke: #000000; stroke-width: 0.8; stroke-linejoin: miter; stroke-linecap: square"/>
   </g>
   <g id="patch_6">
    <path d="M 46.46 25.44 
L 450 25.44 
" style="fill: none; stroke: #000000; stroke-width: 0.8; stroke-linejoin: miter; stroke-linecap: square"/>
   </g>
   <g id="text_17">
    <!-- November 2023 -->
    <g transform="translate(199.838125 19.44) scale(0.12 -0.12)">
     <defs>
      <path id="DejaVuSans-4e" d="M 628 4666 
L 1478 4666 
L 3547 763 
L 3547 4666 
L 4159 4666 
L 4159 0 
L 3309 0 
L 1241 3903 
L 1241 0 
L 628 0 
L 628 4666 
z
" transform="scale(0.015625)"/>
      <path id="DejaVuSans-6f" d="M 1959 3097 
Q 1497 3097 1228 2736 
Q 959 2375 959 1747 
Q 959 1119 1226 758 
Q 1494 397 1959 397 
Q 2419 397 2687 759 
Q 2956 1122 2956 1747 
Q 2956 2369 2687 2733 
Q 2419 3097 1959 3097 
z
M 1959 3584 
Q 2709 3584 3137 3096 
Q 3566 2609 3566 1747 
Q 3566 888 3137 398 
Q 2709 -91 1959 -91 
Q 1206 -91 779 398 
Q 353 888 353 1747 
Q 353 2609 779 3096 
Q 1206 3584 1959 3584 
z
" transform="scale(0.015625)"/>
      <path id="DejaVuSans-76" d="M 191 3500 
L 800 3500 
L 1894 563 
L 2988 3500 
L 3597 3500 
L 2284 0 
L 1503 0 
L 191 3500 
z
" transform="scale(0.015625)"/>
      <path id="DejaVuSans-62" d="M 3116 1747 
Q 3116 2381 2855 2742 
Q 2594 3103 2138 3103 
Q 1681 3103 1420 2742 
Q 1159 2381 1159 1747 
Q 1159 1113 1420 752 
Q 1681 391 2138 391 
Q 2594 391 2855 752 
Q 3116 1113 3116 1747 
z
M 1159 2969 
Q 1341 3281 1617 3432 
Q 1894 3584 2278 3584 
Q 2916 3584 3314 3078 
Q 3713 2572 3713 1747 
Q 3713 922 3314 415 
Q 2916 -91 2278 -91 
Q 1894 -91 1617 61 
Q 1341 213 1159 525 
L 1159 0 
L 581 0 
L 581 4863 
L 1159 4863 
L 1159 2969 
z
" transform="scale(0.015625)"/>
     </defs>
     <use xlink:href="#DejaVuSans-4e"/>
     <use xlink:href="#DejaVuSans-6f" x="74.804688"/>
     <use xlink:href="#DejaVuSans-76" x="135.986328"/>
     <use xlink:href="#DejaVuSans-65" x="195.166016"/>
     <use xlink:href="#DejaVuSans-6d" x="256.689453"/>
     <use xlink:href="#DejaVuSans-62" x="354.101562"/>
     <use xlink:href="#DejaVuSans-65" x="417.578125"/>
     <use xlink:href="#DejaVuSans-72" x="479.101562"/>
     <use xlink:href="#DejaVuSans-20" x="520.214844"/>
     <use xlink:href="#DejaVuSans-32" x="552.001953"/>
     <use xlink:href="#DejaVuSans-30" x="615.625"/>
     <use xlink:href="#DejaVuSans-32" x="679.248047"/>
     <use xlink:href="#DejaVuSans-33" x="742.871094"/>
    </g>
   </g>
  </g>
 </g>
 <defs>
  <clipPath id="pc69b456e56">
   <rect x="46.46" y="25.44" width="403.54" height="254.121175"/>
  </clipPath>
 </defs>
</svg>
