<?xml version="1.0" encoding="utf-8" standalone="no"?>
<!DOCTYPE svg PUBLIC "-//W3C//DTD SVG 1.1//EN"
  "http://www.w3.org/Graphics/SVG/1.1/DTD/svg11.dtd">
<svg xmlns:xlink="http://www.w3.org/1999/xlink" width="460.8pt" height="345.6pt" viewBox="0 0 460.8 345.6" xmlns="http://www.w3.org/2000/svg" version="1.1">
 <metadata>
  <rdf:RDF xmlns:dc="http://purl.org/dc/elements/1.1/" xmlns:cc="http://creativecommons.org/ns#" xmlns:rdf="http://www.w3.org/1999/02/22-rdf-syntax-ns#">
   <cc:Work>
    <dc:type rdf:resource="http://purl.org/dc/dcmitype/StillImage"/>
    <dc:date>2023-11-09T15:41:35.347745</dc:date>
    <dc:format>image/svg+xml</dc:format>
    <dc:creator>
     <cc:Agent>
      <dc:title>Matplotlib v3.6.3, https://matplotlib.org/</dc:title>
     </cc:Agent>
    </dc:creator>
   </cc:Work>
  </rdf:RDF>
 </metadata>
 <defs>
  <style type="text/css">*{stroke-linejoin: round; stroke-linecap: butt}</style>
 </defs>
 <g id="figure_1">
  <g id="patch_1">
   <path d="M 0 345.6 
L 460.8 345.6 
L 460.8 0 
L 0 0 
z
" style="fill: #ffffff"/>
  </g>
  <g id="axes_1">
   <g id="patch_2">
    <path d="M 51.05 279.561175 
L 450 279.561175 
L 450 25.44 
L 51.05 25.44 
z
" style="fill: #ffffff"/>
   </g>
   <g id="matplotlib.axis_1">
    <g id="xtick_1">
     <g id="line2d_1">
      <path d="M 97.13245 279.561175 
L 97.13245 25.44 
" clip-path="url(#p020fda76d8)" style="fill: none; stroke: #b0b0b0; stroke-width: 0.8; stroke-linecap: square"/>
     </g>
     <g id="line2d_2">
      <defs>
       <path id="mc28323e3cb" d="M 0 0 
L 0 3.5 
" style="stroke: #000000; stroke-width: 0.8"/>
      </defs>
      <g>
       <use xlink:href="#mc28323e3cb" x="97.13245" y="279.561175" style="stroke: #000000; stroke-width: 0.8"/>
      </g>
     </g>
     <g id="text_1">
      <!-- 2023-11-02 -->
      <g transform="translate(54.567936 333.028035) rotate(-45) scale(0.1 -0.1)">
       <defs>
        <path id="DejaVuSans-32" d="M 1228 531 
L 3431 531 
L 3431 0 
L 469 0 
L 469 531 
Q 828 903 1448 1529 
Q 2069 2156 2228 2338 
Q 2531 2678 2651 2914 
Q 2772 3150 2772 3378 
Q 2772 3750 2511 3984 
Q 2250 4219 1831 4219 
Q 1534 4219 1204 4116 
Q 875 4013 500 3803 
L 500 4441 
Q 881 4594 1212 4672 
Q 1544 4750 1819 4750 
Q 2544 4750 2975 4387 
Q 3406 4025 3406 3419 
Q 3406 3131 3298 2873 
Q 3191 2616 2906 2266 
Q 2828 2175 2409 1742 
Q 1991 1309 1228 531 
z
" transform="scale(0.015625)"/>
        <path id="DejaVuSans-30" d="M 2034 4250 
Q 1547 4250 1301 3770 
Q 1056 3291 1056 2328 
Q 1056 1369 1301 889 
Q 1547 409 2034 409 
Q 2525 409 2770 889 
Q 3016 1369 3016 2328 
Q 3016 3291 2770 3770 
Q 2525 4250 2034 4250 
z
M 2034 4750 
Q 2819 4750 3233 4129 
Q 3647 3509 3647 2328 
Q 3647 1150 3233 529 
Q 2819 -91 2034 -91 
Q 1250 -91 836 529 
Q 422 1150 422 2328 
Q 422 3509 836 4129 
Q 1250 4750 2034 4750 
z
" transform="scale(0.015625)"/>
        <path id="DejaVuSans-33" d="M 2597 2516 
Q 3050 2419 3304 2112 
Q 3559 1806 3559 1356 
Q 3559 666 3084 287 
Q 2609 -91 1734 -91 
Q 1441 -91 1130 -33 
Q 819 25 488 141 
L 488 750 
Q 750 597 1062 519 
Q 1375 441 1716 441 
Q 2309 441 2620 675 
Q 2931 909 2931 1356 
Q 2931 1769 2642 2001 
Q 2353 2234 1838 2234 
L 1294 2234 
L 1294 2753 
L 1863 2753 
Q 2328 2753 2575 2939 
Q 2822 3125 2822 3475 
Q 2822 3834 2567 4026 
Q 2313 4219 1838 4219 
Q 1578 4219 1281 4162 
Q 984 4106 628 3988 
L 628 4550 
Q 988 4650 1302 4700 
Q 1616 4750 1894 4750 
Q 2613 4750 3031 4423 
Q 3450 4097 3450 3541 
Q 3450 3153 3228 2886 
Q 3006 2619 2597 2516 
z
" transform="scale(0.015625)"/>
        <path id="DejaVuSans-2d" d="M 313 2009 
L 1997 2009 
L 1997 1497 
L 313 1497 
L 313 2009 
z
" transform="scale(0.015625)"/>
        <path id="DejaVuSans-31" d="M 794 531 
L 1825 531 
L 1825 4091 
L 703 3866 
L 703 4441 
L 1819 4666 
L 2450 4666 
L 2450 531 
L 3481 531 
L 3481 0 
L 794 0 
L 794 531 
z
" transform="scale(0.015625)"/>
       </defs>
       <use xlink:href="#DejaVuSans-32"/>
       <use xlink:href="#DejaVuSans-30" x="63.623047"/>
       <use xlink:href="#DejaVuSans-32" x="127.246094"/>
       <use xlink:href="#DejaVuSans-33" x="190.869141"/>
       <use xlink:href="#DejaVuSans-2d" x="254.492188"/>
       <use xlink:href="#DejaVuSans-31" x="290.576172"/>
       <use xlink:href="#DejaVuSans-31" x="354.199219"/>
       <use xlink:href="#DejaVuSans-2d" x="417.822266"/>
       <use xlink:href="#DejaVuSans-30" x="453.90625"/>
       <use xlink:href="#DejaVuSans-32" x="517.529297"/>
      </g>
     </g>
    </g>
    <g id="xtick_2">
     <g id="line2d_3">
      <path d="M 143.239429 279.561175 
L 143.239429 25.44 
" clip-path="url(#p020fda76d8)" style="fill: none; stroke: #b0b0b0; stroke-width: 0.8; stroke-linecap: square"/>
     </g>
     <g id="line2d_4">
      <g>
       <use xlink:href="#mc28323e3cb" x="143.239429" y="279.561175" style="stroke: #000000; stroke-width: 0.8"/>
      </g>
     </g>
     <g id="text_2">
      <!-- 2023-11-03 -->
      <g transform="translate(100.674915 333.028035) rotate(-45) scale(0.1 -0.1)">
       <use xlink:href="#DejaVuSans-32"/>
       <use xlink:href="#DejaVuSans-30" x="63.623047"/>
       <use xlink:href="#DejaVuSans-32" x="127.246094"/>
       <use xlink:href="#DejaVuSans-33" x="190.869141"/>
       <use xlink:href="#DejaVuSans-2d" x="254.492188"/>
       <use xlink:href="#DejaVuSans-31" x="290.576172"/>
       <use xlink:href="#DejaVuSans-31" x="354.199219"/>
       <use xlink:href="#DejaVuSans-2d" x="417.822266"/>
       <use xlink:href="#DejaVuSans-30" x="453.90625"/>
       <use xlink:href="#DejaVuSans-33" x="517.529297"/>
      </g>
     </g>
    </g>
    <g id="xtick_3">
     <g id="line2d_5">
      <path d="M 189.346408 279.561175 
L 189.346408 25.44 
" clip-path="url(#p020fda76d8)" style="fill: none; stroke: #b0b0b0; stroke-width: 0.8; stroke-linecap: square"/>
     </g>
     <g id="line2d_6">
      <g>
       <use xlink:href="#mc28323e3cb" x="189.346408" y="279.561175" style="stroke: #000000; stroke-width: 0.8"/>
      </g>
     </g>
     <g id="text_3">
      <!-- 2023-11-04 -->
      <g transform="translate(146.781894 333.028035) rotate(-45) scale(0.1 -0.1)">
       <defs>
        <path id="DejaVuSans-34" d="M 2419 4116 
L 825 1625 
L 2419 1625 
L 2419 4116 
z
M 2253 4666 
L 3047 4666 
L 3047 1625 
L 3713 1625 
L 3713 1100 
L 3047 1100 
L 3047 0 
L 2419 0 
L 2419 1100 
L 313 1100 
L 313 1709 
L 2253 4666 
z
" transform="scale(0.015625)"/>
       </defs>
       <use xlink:href="#DejaVuSans-32"/>
       <use xlink:href="#DejaVuSans-30" x="63.623047"/>
       <use xlink:href="#DejaVuSans-32" x="127.246094"/>
       <use xlink:href="#DejaVuSans-33" x="190.869141"/>
       <use xlink:href="#DejaVuSans-2d" x="254.492188"/>
       <use xlink:href="#DejaVuSans-31" x="290.576172"/>
       <use xlink:href="#DejaVuSans-31" x="354.199219"/>
       <use xlink:href="#DejaVuSans-2d" x="417.822266"/>
       <use xlink:href="#DejaVuSans-30" x="453.90625"/>
       <use xlink:href="#DejaVuSans-34" x="517.529297"/>
      </g>
     </g>
    </g>
    <g id="xtick_4">
     <g id="line2d_7">
      <path d="M 235.453387 279.561175 
L 235.453387 25.44 
" clip-path="url(#p020fda76d8)" style="fill: none; stroke: #b0b0b0; stroke-width: 0.8; stroke-linecap: square"/>
     </g>
     <g id="line2d_8">
      <g>
       <use xlink:href="#mc28323e3cb" x="235.453387" y="279.561175" style="stroke: #000000; stroke-width: 0.8"/>
      </g>
     </g>
     <g id="text_4">
      <!-- 2023-11-05 -->
      <g transform="translate(192.888873 333.028035) rotate(-45) scale(0.1 -0.1)">
       <defs>
        <path id="DejaVuSans-35" d="M 691 4666 
L 3169 4666 
L 3169 4134 
L 1269 4134 
L 1269 2991 
Q 1406 3038 1543 3061 
Q 1681 3084 1819 3084 
Q 2600 3084 3056 2656 
Q 3513 2228 3513 1497 
Q 3513 744 3044 326 
Q 2575 -91 1722 -91 
Q 1428 -91 1123 -41 
Q 819 9 494 109 
L 494 744 
Q 775 591 1075 516 
Q 1375 441 1709 441 
Q 2250 441 2565 725 
Q 2881 1009 2881 1497 
Q 2881 1984 2565 2268 
Q 2250 2553 1709 2553 
Q 1456 2553 1204 2497 
Q 953 2441 691 2322 
L 691 4666 
z
" transform="scale(0.015625)"/>
       </defs>
       <use xlink:href="#DejaVuSans-32"/>
       <use xlink:href="#DejaVuSans-30" x="63.623047"/>
       <use xlink:href="#DejaVuSans-32" x="127.246094"/>
       <use xlink:href="#DejaVuSans-33" x="190.869141"/>
       <use xlink:href="#DejaVuSans-2d" x="254.492188"/>
       <use xlink:href="#DejaVuSans-31" x="290.576172"/>
       <use xlink:href="#DejaVuSans-31" x="354.199219"/>
       <use xlink:href="#DejaVuSans-2d" x="417.822266"/>
       <use xlink:href="#DejaVuSans-30" x="453.90625"/>
       <use xlink:href="#DejaVuSans-35" x="517.529297"/>
      </g>
     </g>
    </g>
    <g id="xtick_5">
     <g id="line2d_9">
      <path d="M 281.560366 279.561175 
L 281.560366 25.44 
" clip-path="url(#p020fda76d8)" style="fill: none; stroke: #b0b0b0; stroke-width: 0.8; stroke-linecap: square"/>
     </g>
     <g id="line2d_10">
      <g>
       <use xlink:href="#mc28323e3cb" x="281.560366" y="279.561175" style="stroke: #000000; stroke-width: 0.8"/>
      </g>
     </g>
     <g id="text_5">
      <!-- 2023-11-06 -->
      <g transform="translate(238.995852 333.028035) rotate(-45) scale(0.1 -0.1)">
       <defs>
        <path id="DejaVuSans-36" d="M 2113 2584 
Q 1688 2584 1439 2293 
Q 1191 2003 1191 1497 
Q 1191 994 1439 701 
Q 1688 409 2113 409 
Q 2538 409 2786 701 
Q 3034 994 3034 1497 
Q 3034 2003 2786 2293 
Q 2538 2584 2113 2584 
z
M 3366 4563 
L 3366 3988 
Q 3128 4100 2886 4159 
Q 2644 4219 2406 4219 
Q 1781 4219 1451 3797 
Q 1122 3375 1075 2522 
Q 1259 2794 1537 2939 
Q 1816 3084 2150 3084 
Q 2853 3084 3261 2657 
Q 3669 2231 3669 1497 
Q 3669 778 3244 343 
Q 2819 -91 2113 -91 
Q 1303 -91 875 529 
Q 447 1150 447 2328 
Q 447 3434 972 4092 
Q 1497 4750 2381 4750 
Q 2619 4750 2861 4703 
Q 3103 4656 3366 4563 
z
" transform="scale(0.015625)"/>
       </defs>
       <use xlink:href="#DejaVuSans-32"/>
       <use xlink:href="#DejaVuSans-30" x="63.623047"/>
       <use xlink:href="#DejaVuSans-32" x="127.246094"/>
       <use xlink:href="#DejaVuSans-33" x="190.869141"/>
       <use xlink:href="#DejaVuSans-2d" x="254.492188"/>
       <use xlink:href="#DejaVuSans-31" x="290.576172"/>
       <use xlink:href="#DejaVuSans-31" x="354.199219"/>
       <use xlink:href="#DejaVuSans-2d" x="417.822266"/>
       <use xlink:href="#DejaVuSans-30" x="453.90625"/>
       <use xlink:href="#DejaVuSans-36" x="517.529297"/>
      </g>
     </g>
    </g>
    <g id="xtick_6">
     <g id="line2d_11">
      <path d="M 327.667345 279.561175 
L 327.667345 25.44 
" clip-path="url(#p020fda76d8)" style="fill: none; stroke: #b0b0b0; stroke-width: 0.8; stroke-linecap: square"/>
     </g>
     <g id="line2d_12">
      <g>
       <use xlink:href="#mc28323e3cb" x="327.667345" y="279.561175" style="stroke: #000000; stroke-width: 0.8"/>
      </g>
     </g>
     <g id="text_6">
      <!-- 2023-11-07 -->
      <g transform="translate(285.102831 333.028035) rotate(-45) scale(0.1 -0.1)">
       <defs>
        <path id="DejaVuSans-37" d="M 525 4666 
L 3525 4666 
L 3525 4397 
L 1831 0 
L 1172 0 
L 2766 4134 
L 525 4134 
L 525 4666 
z
" transform="scale(0.015625)"/>
       </defs>
       <use xlink:href="#DejaVuSans-32"/>
       <use xlink:href="#DejaVuSans-30" x="63.623047"/>
       <use xlink:href="#DejaVuSans-32" x="127.246094"/>
       <use xlink:href="#DejaVuSans-33" x="190.869141"/>
       <use xlink:href="#DejaVuSans-2d" x="254.492188"/>
       <use xlink:href="#DejaVuSans-31" x="290.576172"/>
       <use xlink:href="#DejaVuSans-31" x="354.199219"/>
       <use xlink:href="#DejaVuSans-2d" x="417.822266"/>
       <use xlink:href="#DejaVuSans-30" x="453.90625"/>
       <use xlink:href="#DejaVuSans-37" x="517.529297"/>
      </g>
     </g>
    </g>
    <g id="xtick_7">
     <g id="line2d_13">
      <path d="M 373.774324 279.561175 
L 373.774324 25.44 
" clip-path="url(#p020fda76d8)" style="fill: none; stroke: #b0b0b0; stroke-width: 0.8; stroke-linecap: square"/>
     </g>
     <g id="line2d_14">
      <g>
       <use xlink:href="#mc28323e3cb" x="373.774324" y="279.561175" style="stroke: #000000; stroke-width: 0.8"/>
      </g>
     </g>
     <g id="text_7">
      <!-- 2023-11-08 -->
      <g transform="translate(331.20981 333.028035) rotate(-45) scale(0.1 -0.1)">
       <defs>
        <path id="DejaVuSans-38" d="M 2034 2216 
Q 1584 2216 1326 1975 
Q 1069 1734 1069 1313 
Q 1069 891 1326 650 
Q 1584 409 2034 409 
Q 2484 409 2743 651 
Q 3003 894 3003 1313 
Q 3003 1734 2745 1975 
Q 2488 2216 2034 2216 
z
M 1403 2484 
Q 997 2584 770 2862 
Q 544 3141 544 3541 
Q 544 4100 942 4425 
Q 1341 4750 2034 4750 
Q 2731 4750 3128 4425 
Q 3525 4100 3525 3541 
Q 3525 3141 3298 2862 
Q 3072 2584 2669 2484 
Q 3125 2378 3379 2068 
Q 3634 1759 3634 1313 
Q 3634 634 3220 271 
Q 2806 -91 2034 -91 
Q 1263 -91 848 271 
Q 434 634 434 1313 
Q 434 1759 690 2068 
Q 947 2378 1403 2484 
z
M 1172 3481 
Q 1172 3119 1398 2916 
Q 1625 2713 2034 2713 
Q 2441 2713 2670 2916 
Q 2900 3119 2900 3481 
Q 2900 3844 2670 4047 
Q 2441 4250 2034 4250 
Q 1625 4250 1398 4047 
Q 1172 3844 1172 3481 
z
" transform="scale(0.015625)"/>
       </defs>
       <use xlink:href="#DejaVuSans-32"/>
       <use xlink:href="#DejaVuSans-30" x="63.623047"/>
       <use xlink:href="#DejaVuSans-32" x="127.246094"/>
       <use xlink:href="#DejaVuSans-33" x="190.869141"/>
       <use xlink:href="#DejaVuSans-2d" x="254.492188"/>
       <use xlink:href="#DejaVuSans-31" x="290.576172"/>
       <use xlink:href="#DejaVuSans-31" x="354.199219"/>
       <use xlink:href="#DejaVuSans-2d" x="417.822266"/>
       <use xlink:href="#DejaVuSans-30" x="453.90625"/>
       <use xlink:href="#DejaVuSans-38" x="517.529297"/>
      </g>
     </g>
    </g>
    <g id="xtick_8">
     <g id="line2d_15">
      <path d="M 419.881303 279.561175 
L 419.881303 25.44 
" clip-path="url(#p020fda76d8)" style="fill: none; stroke: #b0b0b0; stroke-width: 0.8; stroke-linecap: square"/>
     </g>
     <g id="line2d_16">
      <g>
       <use xlink:href="#mc28323e3cb" x="419.881303" y="279.561175" style="stroke: #000000; stroke-width: 0.8"/>
      </g>
     </g>
     <g id="text_8">
      <!-- 2023-11-09 -->
      <g transform="translate(377.31679 333.028035) rotate(-45) scale(0.1 -0.1)">
       <defs>
        <path id="DejaVuSans-39" d="M 703 97 
L 703 672 
Q 941 559 1184 500 
Q 1428 441 1663 441 
Q 2288 441 2617 861 
Q 2947 1281 2994 2138 
Q 2813 1869 2534 1725 
Q 2256 1581 1919 1581 
Q 1219 1581 811 2004 
Q 403 2428 403 3163 
Q 403 3881 828 4315 
Q 1253 4750 1959 4750 
Q 2769 4750 3195 4129 
Q 3622 3509 3622 2328 
Q 3622 1225 3098 567 
Q 2575 -91 1691 -91 
Q 1453 -91 1209 -44 
Q 966 3 703 97 
z
M 1959 2075 
Q 2384 2075 2632 2365 
Q 2881 2656 2881 3163 
Q 2881 3666 2632 3958 
Q 2384 4250 1959 4250 
Q 1534 4250 1286 3958 
Q 1038 3666 1038 3163 
Q 1038 2656 1286 2365 
Q 1534 2075 1959 2075 
z
" transform="scale(0.015625)"/>
       </defs>
       <use xlink:href="#DejaVuSans-32"/>
       <use xlink:href="#DejaVuSans-30" x="63.623047"/>
       <use xlink:href="#DejaVuSans-32" x="127.246094"/>
       <use xlink:href="#DejaVuSans-33" x="190.869141"/>
       <use xlink:href="#DejaVuSans-2d" x="254.492188"/>
       <use xlink:href="#DejaVuSans-31" x="290.576172"/>
       <use xlink:href="#DejaVuSans-31" x="354.199219"/>
       <use xlink:href="#DejaVuSans-2d" x="417.822266"/>
       <use xlink:href="#DejaVuSans-30" x="453.90625"/>
       <use xlink:href="#DejaVuSans-39" x="517.529297"/>
      </g>
     </g>
    </g>
   </g>
   <g id="matplotlib.axis_2">
    <g id="ytick_1">
     <g id="line2d_17">
      <path d="M 51.05 279.561175 
L 450 279.561175 
" clip-path="url(#p020fda76d8)" style="fill: none; stroke: #b0b0b0; stroke-width: 0.8; stroke-linecap: square"/>
     </g>
     <g id="line2d_18">
      <defs>
       <path id="mb99cd27c47" d="M 0 0 
L -3.5 0 
" style="stroke: #000000; stroke-width: 0.8"/>
      </defs>
      <g>
       <use xlink:href="#mb99cd27c47" x="51.05" y="279.561175" style="stroke: #000000; stroke-width: 0.8"/>
      </g>
     </g>
     <g id="text_9">
      <!-- 0 -->
      <g transform="translate(37.6875 283.360394) scale(0.1 -0.1)">
       <use xlink:href="#DejaVuSans-30"/>
      </g>
     </g>
    </g>
    <g id="ytick_2">
     <g id="line2d_19">
      <path d="M 51.05 228.73694 
L 450 228.73694 
" clip-path="url(#p020fda76d8)" style="fill: none; stroke: #b0b0b0; stroke-width: 0.8; stroke-linecap: square"/>
     </g>
     <g id="line2d_20">
      <g>
       <use xlink:href="#mb99cd27c47" x="51.05" y="228.73694" style="stroke: #000000; stroke-width: 0.8"/>
      </g>
     </g>
     <g id="text_10">
      <!-- 20 -->
      <g transform="translate(31.325 232.536159) scale(0.1 -0.1)">
       <use xlink:href="#DejaVuSans-32"/>
       <use xlink:href="#DejaVuSans-30" x="63.623047"/>
      </g>
     </g>
    </g>
    <g id="ytick_3">
     <g id="line2d_21">
      <path d="M 51.05 177.912705 
L 450 177.912705 
" clip-path="url(#p020fda76d8)" style="fill: none; stroke: #b0b0b0; stroke-width: 0.8; stroke-linecap: square"/>
     </g>
     <g id="line2d_22">
      <g>
       <use xlink:href="#mb99cd27c47" x="51.05" y="177.912705" style="stroke: #000000; stroke-width: 0.8"/>
      </g>
     </g>
     <g id="text_11">
      <!-- 40 -->
      <g transform="translate(31.325 181.711924) scale(0.1 -0.1)">
       <use xlink:href="#DejaVuSans-34"/>
       <use xlink:href="#DejaVuSans-30" x="63.623047"/>
      </g>
     </g>
    </g>
    <g id="ytick_4">
     <g id="line2d_23">
      <path d="M 51.05 127.08847 
L 450 127.08847 
" clip-path="url(#p020fda76d8)" style="fill: none; stroke: #b0b0b0; stroke-width: 0.8; stroke-linecap: square"/>
     </g>
     <g id="line2d_24">
      <g>
       <use xlink:href="#mb99cd27c47" x="51.05" y="127.08847" style="stroke: #000000; stroke-width: 0.8"/>
      </g>
     </g>
     <g id="text_12">
      <!-- 60 -->
      <g transform="translate(31.325 130.887689) scale(0.1 -0.1)">
       <use xlink:href="#DejaVuSans-36"/>
       <use xlink:href="#DejaVuSans-30" x="63.623047"/>
      </g>
     </g>
    </g>
    <g id="ytick_5">
     <g id="line2d_25">
      <path d="M 51.05 76.264235 
L 450 76.264235 
" clip-path="url(#p020fda76d8)" style="fill: none; stroke: #b0b0b0; stroke-width: 0.8; stroke-linecap: square"/>
     </g>
     <g id="line2d_26">
      <g>
       <use xlink:href="#mb99cd27c47" x="51.05" y="76.264235" style="stroke: #000000; stroke-width: 0.8"/>
      </g>
     </g>
     <g id="text_13">
      <!-- 80 -->
      <g transform="translate(31.325 80.063454) scale(0.1 -0.1)">
       <use xlink:href="#DejaVuSans-38"/>
       <use xlink:href="#DejaVuSans-30" x="63.623047"/>
      </g>
     </g>
    </g>
    <g id="ytick_6">
     <g id="line2d_27">
      <path d="M 51.05 25.44 
L 450 25.44 
" clip-path="url(#p020fda76d8)" style="fill: none; stroke: #b0b0b0; stroke-width: 0.8; stroke-linecap: square"/>
     </g>
     <g id="line2d_28">
      <g>
       <use xlink:href="#mb99cd27c47" x="51.05" y="25.44" style="stroke: #000000; stroke-width: 0.8"/>
      </g>
     </g>
     <g id="text_14">
      <!-- 100 -->
      <g transform="translate(24.9625 29.239219) scale(0.1 -0.1)">
       <use xlink:href="#DejaVuSans-31"/>
       <use xlink:href="#DejaVuSans-30" x="63.623047"/>
       <use xlink:href="#DejaVuSans-30" x="127.246094"/>
      </g>
     </g>
    </g>
    <g id="text_15">
     <!-- Humidity [%RH] -->
     <g transform="translate(18.882812 192.647463) rotate(-90) scale(0.1 -0.1)">
      <defs>
       <path id="DejaVuSans-48" d="M 628 4666 
L 1259 4666 
L 1259 2753 
L 3553 2753 
L 3553 4666 
L 4184 4666 
L 4184 0 
L 3553 0 
L 3553 2222 
L 1259 2222 
L 1259 0 
L 628 0 
L 628 4666 
z
" transform="scale(0.015625)"/>
       <path id="DejaVuSans-75" d="M 544 1381 
L 544 3500 
L 1119 3500 
L 1119 1403 
Q 1119 906 1312 657 
Q 1506 409 1894 409 
Q 2359 409 2629 706 
Q 2900 1003 2900 1516 
L 2900 3500 
L 3475 3500 
L 3475 0 
L 2900 0 
L 2900 538 
Q 2691 219 2414 64 
Q 2138 -91 1772 -91 
Q 1169 -91 856 284 
Q 544 659 544 1381 
z
M 1991 3584 
L 1991 3584 
z
" transform="scale(0.015625)"/>
       <path id="DejaVuSans-6d" d="M 3328 2828 
Q 3544 3216 3844 3400 
Q 4144 3584 4550 3584 
Q 5097 3584 5394 3201 
Q 5691 2819 5691 2113 
L 5691 0 
L 5113 0 
L 5113 2094 
Q 5113 2597 4934 2840 
Q 4756 3084 4391 3084 
Q 3944 3084 3684 2787 
Q 3425 2491 3425 1978 
L 3425 0 
L 2847 0 
L 2847 2094 
Q 2847 2600 2669 2842 
Q 2491 3084 2119 3084 
Q 1678 3084 1418 2786 
Q 1159 2488 1159 1978 
L 1159 0 
L 581 0 
L 581 3500 
L 1159 3500 
L 1159 2956 
Q 1356 3278 1631 3431 
Q 1906 3584 2284 3584 
Q 2666 3584 2933 3390 
Q 3200 3197 3328 2828 
z
" transform="scale(0.015625)"/>
       <path id="DejaVuSans-69" d="M 603 3500 
L 1178 3500 
L 1178 0 
L 603 0 
L 603 3500 
z
M 603 4863 
L 1178 4863 
L 1178 4134 
L 603 4134 
L 603 4863 
z
" transform="scale(0.015625)"/>
       <path id="DejaVuSans-64" d="M 2906 2969 
L 2906 4863 
L 3481 4863 
L 3481 0 
L 2906 0 
L 2906 525 
Q 2725 213 2448 61 
Q 2172 -91 1784 -91 
Q 1150 -91 751 415 
Q 353 922 353 1747 
Q 353 2572 751 3078 
Q 1150 3584 1784 3584 
Q 2172 3584 2448 3432 
Q 2725 3281 2906 2969 
z
M 947 1747 
Q 947 1113 1208 752 
Q 1469 391 1925 391 
Q 2381 391 2643 752 
Q 2906 1113 2906 1747 
Q 2906 2381 2643 2742 
Q 2381 3103 1925 3103 
Q 1469 3103 1208 2742 
Q 947 2381 947 1747 
z
" transform="scale(0.015625)"/>
       <path id="DejaVuSans-74" d="M 1172 4494 
L 1172 3500 
L 2356 3500 
L 2356 3053 
L 1172 3053 
L 1172 1153 
Q 1172 725 1289 603 
Q 1406 481 1766 481 
L 2356 481 
L 2356 0 
L 1766 0 
Q 1100 0 847 248 
Q 594 497 594 1153 
L 594 3053 
L 172 3053 
L 172 3500 
L 594 3500 
L 594 4494 
L 1172 4494 
z
" transform="scale(0.015625)"/>
       <path id="DejaVuSans-79" d="M 2059 -325 
Q 1816 -950 1584 -1140 
Q 1353 -1331 966 -1331 
L 506 -1331 
L 506 -850 
L 844 -850 
Q 1081 -850 1212 -737 
Q 1344 -625 1503 -206 
L 1606 56 
L 191 3500 
L 800 3500 
L 1894 763 
L 2988 3500 
L 3597 3500 
L 2059 -325 
z
" transform="scale(0.015625)"/>
       <path id="DejaVuSans-20" transform="scale(0.015625)"/>
       <path id="DejaVuSans-5b" d="M 550 4863 
L 1875 4863 
L 1875 4416 
L 1125 4416 
L 1125 -397 
L 1875 -397 
L 1875 -844 
L 550 -844 
L 550 4863 
z
" transform="scale(0.015625)"/>
       <path id="DejaVuSans-25" d="M 4653 2053 
Q 4381 2053 4226 1822 
Q 4072 1591 4072 1178 
Q 4072 772 4226 539 
Q 4381 306 4653 306 
Q 4919 306 5073 539 
Q 5228 772 5228 1178 
Q 5228 1588 5073 1820 
Q 4919 2053 4653 2053 
z
M 4653 2450 
Q 5147 2450 5437 2106 
Q 5728 1763 5728 1178 
Q 5728 594 5436 251 
Q 5144 -91 4653 -91 
Q 4153 -91 3862 251 
Q 3572 594 3572 1178 
Q 3572 1766 3864 2108 
Q 4156 2450 4653 2450 
z
M 1428 4353 
Q 1159 4353 1004 4120 
Q 850 3888 850 3481 
Q 850 3069 1003 2837 
Q 1156 2606 1428 2606 
Q 1700 2606 1854 2837 
Q 2009 3069 2009 3481 
Q 2009 3884 1853 4118 
Q 1697 4353 1428 4353 
z
M 4250 4750 
L 4750 4750 
L 1831 -91 
L 1331 -91 
L 4250 4750 
z
M 1428 4750 
Q 1922 4750 2215 4408 
Q 2509 4066 2509 3481 
Q 2509 2891 2217 2550 
Q 1925 2209 1428 2209 
Q 931 2209 642 2551 
Q 353 2894 353 3481 
Q 353 4063 643 4406 
Q 934 4750 1428 4750 
z
" transform="scale(0.015625)"/>
       <path id="DejaVuSans-52" d="M 2841 2188 
Q 3044 2119 3236 1894 
Q 3428 1669 3622 1275 
L 4263 0 
L 3584 0 
L 2988 1197 
Q 2756 1666 2539 1819 
Q 2322 1972 1947 1972 
L 1259 1972 
L 1259 0 
L 628 0 
L 628 4666 
L 2053 4666 
Q 2853 4666 3247 4331 
Q 3641 3997 3641 3322 
Q 3641 2881 3436 2590 
Q 3231 2300 2841 2188 
z
M 1259 4147 
L 1259 2491 
L 2053 2491 
Q 2509 2491 2742 2702 
Q 2975 2913 2975 3322 
Q 2975 3731 2742 3939 
Q 2509 4147 2053 4147 
L 1259 4147 
z
" transform="scale(0.015625)"/>
       <path id="DejaVuSans-5d" d="M 1947 4863 
L 1947 -844 
L 622 -844 
L 622 -397 
L 1369 -397 
L 1369 4416 
L 622 4416 
L 622 4863 
L 1947 4863 
z
" transform="scale(0.015625)"/>
      </defs>
      <use xlink:href="#DejaVuSans-48"/>
      <use xlink:href="#DejaVuSans-75" x="75.195312"/>
      <use xlink:href="#DejaVuSans-6d" x="138.574219"/>
      <use xlink:href="#DejaVuSans-69" x="235.986328"/>
      <use xlink:href="#DejaVuSans-64" x="263.769531"/>
      <use xlink:href="#DejaVuSans-69" x="327.246094"/>
      <use xlink:href="#DejaVuSans-74" x="355.029297"/>
      <use xlink:href="#DejaVuSans-79" x="394.238281"/>
      <use xlink:href="#DejaVuSans-20" x="453.417969"/>
      <use xlink:href="#DejaVuSans-5b" x="485.205078"/>
      <use xlink:href="#DejaVuSans-25" x="524.21875"/>
      <use xlink:href="#DejaVuSans-52" x="619.238281"/>
      <use xlink:href="#DejaVuSans-48" x="688.720703"/>
      <use xlink:href="#DejaVuSans-5d" x="763.916016"/>
     </g>
    </g>
   </g>
   <g id="line2d_29">
    <path d="M 51.05 58.475753 
L 51.177967 58.475753 
L 51.331656 53.393329 
L 51.382887 53.393329 
L 51.511019 50.852118 
L 51.690262 50.852118 
L 51.818517 48.310906 
L 52.305016 48.310906 
L 52.407786 50.852118 
L 52.535628 50.852118 
L 52.663626 53.393329 
L 52.791839 53.393329 
L 52.920076 55.934541 
L 53.406441 55.934541 
L 53.534526 58.475753 
L 53.790673 58.475753 
L 53.893133 61.016965 
L 54.021351 58.475753 
L 54.866495 58.475753 
L 54.994713 61.016965 
L 55.148436 55.934541 
L 55.199617 55.934541 
L 55.327866 53.393329 
L 55.404542 53.393329 
L 55.53248 55.934541 
L 56.070526 55.934541 
L 56.198465 58.475753 
L 56.249697 58.475753 
L 56.403382 61.016965 
L 56.582871 61.016965 
L 56.710764 63.558176 
L 56.91568 63.558176 
L 57.043894 61.016965 
L 57.17183 63.558176 
L 57.73567 63.558176 
L 57.914805 55.934541 
L 58.170965 55.934541 
L 58.298876 58.475753 
L 58.427096 58.475753 
L 58.555026 61.016965 
L 58.606256 61.016965 
L 58.734382 63.558176 
L 58.759943 63.558176 
L 58.888142 66.099388 
L 59.195401 66.099388 
L 59.349245 61.016965 
L 59.400447 61.016965 
L 59.528388 63.558176 
L 59.912748 63.558176 
L 60.040682 61.016965 
L 60.399288 61.016965 
L 60.527518 58.475753 
L 60.809122 58.475753 
L 60.988564 66.099388 
L 61.039792 66.099388 
L 61.193442 71.181812 
L 61.218963 71.181812 
L 61.347174 73.723023 
L 61.42388 73.723023 
L 61.526338 76.264235 
L 61.680026 73.723023 
L 61.782486 76.264235 
L 61.936176 71.181812 
L 62.269312 71.181812 
L 62.397242 73.723023 
L 62.781624 73.723023 
L 62.909535 76.264235 
L 63.473062 76.264235 
L 63.67798 71.181812 
L 63.703718 71.181812 
L 63.831668 68.6406 
L 63.934127 68.6406 
L 64.139045 63.558176 
L 64.190273 63.558176 
L 64.318495 61.016965 
L 64.523339 61.016965 
L 64.651343 58.475753 
L 65.163637 58.475753 
L 65.29187 61.016965 
L 65.420107 63.558176 
L 65.778394 63.558176 
L 65.880851 66.099388 
L 65.957741 66.099388 
L 66.111544 71.181812 
L 66.162779 71.181812 
L 66.316501 76.264235 
L 66.41876 76.264235 
L 66.572616 86.429082 
L 66.598067 83.88787 
L 66.777528 76.264235 
L 67.212824 76.264235 
L 67.315282 86.429082 
L 67.494752 114.382411 
L 67.520203 114.382411 
L 67.750894 127.08847 
L 67.776343 127.08847 
L 67.930033 122.006047 
L 68.058276 122.006047 
L 68.160735 124.547258 
L 68.186178 122.006047 
L 68.237407 124.547258 
L 68.493555 139.794529 
L 68.544782 139.794529 
L 68.596011 142.335741 
L 68.621733 139.794529 
L 68.724257 134.712105 
L 68.7497 137.253317 
L 68.929122 144.876952 
L 68.954615 142.335741 
L 68.980372 142.335741 
L 69.082877 139.794529 
L 69.236555 147.418164 
L 69.364453 144.876952 
L 69.390244 144.876952 
L 69.466911 147.418164 
L 69.492593 144.876952 
L 69.543799 144.876952 
L 69.825512 127.08847 
L 69.876743 127.08847 
L 70.030429 122.006047 
L 70.081658 122.006047 
L 70.235665 127.08847 
L 70.901325 127.08847 
L 71.055012 122.006047 
L 71.106239 122.006047 
L 71.234335 124.547258 
L 71.285628 124.547258 
L 71.413619 127.08847 
L 71.567306 127.08847 
L 71.669941 129.629682 
L 71.874679 124.547258 
L 71.925907 124.547258 
L 72.054149 122.006047 
L 72.182047 122.006047 
L 72.310265 124.547258 
L 72.38697 124.547258 
L 72.540655 119.464835 
L 72.566432 119.464835 
L 72.591887 122.006047 
L 72.668738 119.464835 
L 72.925018 119.464835 
L 73.078693 124.547258 
L 73.309093 124.547258 
L 73.437375 122.006047 
L 73.514013 127.08847 
L 73.565241 124.547258 
L 73.616716 124.547258 
L 73.744703 127.08847 
L 73.872618 127.08847 
L 74.000816 144.876952 
L 74.026306 142.335741 
L 74.154483 132.170894 
L 74.179993 134.712105 
L 74.257047 139.794529 
L 74.308268 137.253317 
L 74.436134 137.253317 
L 74.6668 124.547258 
L 74.692281 124.547258 
L 74.718069 127.08847 
L 74.794737 124.547258 
L 74.922991 124.547258 
L 75.051139 122.006047 
L 75.102119 122.006047 
L 75.127867 119.464835 
L 75.204575 122.006047 
L 75.230369 122.006047 
L 75.358259 124.547258 
L 75.40949 124.547258 
L 75.512208 122.006047 
L 75.768094 122.006047 
L 75.793804 119.464835 
L 75.870551 122.006047 
L 75.947598 122.006047 
L 76.075467 124.547258 
L 76.177926 124.547258 
L 76.306141 122.006047 
L 76.331612 122.006047 
L 76.434072 124.547258 
L 76.58776 124.547258 
L 76.715988 122.006047 
L 77.048824 122.006047 
L 77.279526 134.712105 
L 77.356202 134.712105 
L 77.458896 129.629682 
L 77.48431 132.170894 
L 77.58691 132.170894 
L 77.740491 127.08847 
L 77.894318 127.08847 
L 78.022175 124.547258 
L 78.278323 124.547258 
L 78.381086 122.006047 
L 78.457694 122.006047 
L 78.509035 124.547258 
L 78.560261 122.006047 
L 79.328694 122.006047 
L 79.482358 116.923623 
L 79.507825 116.923623 
L 79.661513 111.8412 
L 79.8152 111.8412 
L 80.122577 101.676353 
L 80.481182 101.676353 
L 80.60944 99.135141 
L 80.711897 99.135141 
L 80.839789 96.593929 
L 80.891018 96.593929 
L 80.993475 94.052717 
L 81.121728 96.593929 
L 81.249623 96.593929 
L 81.403312 94.052717 
L 81.710686 94.052717 
L 81.838866 76.264235 
L 81.966834 73.723023 
L 82.043863 73.723023 
L 82.197579 68.6406 
L 82.376671 68.6406 
L 82.50482 66.099388 
L 83.042657 66.099388 
L 83.170963 63.558176 
L 83.273274 63.558176 
L 83.401265 61.016965 
L 83.657414 61.016965 
L 83.862331 55.934541 
L 83.913562 55.934541 
L 84.041795 53.393329 
L 84.272163 53.393329 
L 84.400435 55.934541 
L 85.450442 55.934541 
L 85.578728 53.393329 
L 85.886112 53.393329 
L 86.013962 50.852118 
L 86.628713 50.852118 
L 86.757014 48.310906 
L 87.730323 48.310906 
L 87.858217 45.769694 
L 88.012153 45.769694 
L 88.165594 43.228482 
L 88.421738 43.228482 
L 88.549863 40.687271 
L 88.806161 40.687271 
L 88.934032 38.146059 
L 90.112306 38.146059 
L 90.240584 35.604847 
L 90.957645 35.604847 
L 91.085664 33.063635 
L 92.136026 33.063635 
L 92.263934 30.522424 
L 93.390978 30.522424 
L 93.51925 27.981212 
L 128.406431 27.981212 
L 128.585582 35.604847 
L 128.662607 35.604847 
L 128.790497 38.146059 
L 128.816296 38.146059 
L 128.969861 43.228482 
L 129.430882 43.228482 
L 129.558944 45.769694 
L 129.763861 45.769694 
L 129.866633 48.310906 
L 130.455607 48.310906 
L 130.583534 45.769694 
L 131.019093 45.769694 
L 131.14706 43.228482 
L 131.761818 43.228482 
L 131.915502 40.687271 
L 133.452391 40.687271 
L 133.580586 43.228482 
L 133.913459 43.228482 
L 134.041723 40.687271 
L 135.399114 40.687271 
L 135.527386 38.146059 
L 135.962638 38.146059 
L 136.090923 35.604847 
L 136.42371 35.604847 
L 136.551976 33.063635 
L 136.859294 33.063635 
L 136.987232 30.522424 
L 137.755671 30.522424 
L 137.883928 27.981212 
L 138.805991 27.981212 
L 138.933949 30.522424 
L 139.138865 30.522424 
L 139.292556 33.063635 
L 139.343784 33.063635 
L 139.472018 35.604847 
L 139.57439 35.604847 
L 139.70239 38.146059 
L 139.83068 38.146059 
L 139.958538 40.687271 
L 140.138051 40.687271 
L 140.265915 43.228482 
L 140.778208 43.228482 
L 140.906487 45.769694 
L 141.469812 45.769694 
L 141.597881 43.228482 
L 141.726073 43.228482 
L 141.854028 40.687271 
L 142.033517 40.687271 
L 142.161404 38.146059 
L 142.41782 38.146059 
L 142.545804 35.604847 
L 142.801978 35.604847 
L 142.929844 38.146059 
L 142.955561 38.146059 
L 143.109306 43.228482 
L 143.185993 43.228482 
L 143.314246 45.769694 
L 143.64706 45.769694 
L 143.775355 43.228482 
L 143.954436 43.228482 
L 144.082709 40.687271 
L 144.313373 40.687271 
L 144.46673 38.146059 
L 144.825631 38.146059 
L 144.953609 35.604847 
L 145.414671 35.604847 
L 145.54255 33.063635 
L 146.336731 33.063635 
L 146.464682 30.522424 
L 146.900295 30.522424 
L 147.028205 33.063635 
L 147.130664 33.063635 
L 147.258773 35.604847 
L 147.38681 35.604847 
L 147.489269 38.146059 
L 147.694449 38.146059 
L 147.82238 40.687271 
L 149.384761 40.687271 
L 149.513022 38.146059 
L 149.922862 38.146059 
L 150.050743 35.604847 
L 150.281425 35.604847 
L 150.409349 38.146059 
L 150.716726 38.146059 
L 150.844997 40.687271 
L 151.331481 40.687271 
L 151.459744 43.228482 
L 152.433085 43.228482 
L 152.560992 40.687271 
L 153.431891 40.687271 
L 153.636806 45.769694 
L 153.662647 45.769694 
L 153.816209 50.852118 
L 153.995414 50.852118 
L 154.123623 48.310906 
L 154.328628 48.310906 
L 154.456825 45.769694 
L 154.610166 45.769694 
L 154.738434 48.310906 
L 154.917868 48.310906 
L 155.045834 45.769694 
L 155.763028 45.769694 
L 155.891134 43.228482 
L 156.915493 43.228482 
L 157.043742 40.687271 
L 157.29992 40.687271 
L 157.427787 43.228482 
L 158.298918 43.228482 
L 158.426905 45.769694 
L 158.478143 45.769694 
L 158.606068 43.228482 
L 158.964673 43.228482 
L 159.092929 45.769694 
L 159.144105 45.769694 
L 159.22082 48.310906 
L 159.349036 45.769694 
L 159.42574 48.310906 
L 159.451587 45.769694 
L 159.810042 45.769694 
L 159.938033 43.228482 
L 160.296639 43.228482 
L 160.424864 40.687271 
L 160.706786 40.687271 
L 160.834755 43.228482 
L 161.167783 43.228482 
L 161.321231 45.769694 
L 161.474917 45.769694 
L 161.603196 48.310906 
L 161.935983 48.310906 
L 162.064284 45.769694 
L 163.626567 45.769694 
L 163.754811 48.310906 
L 166.162632 48.310906 
L 166.290499 50.852118 
L 166.444186 50.852118 
L 166.597874 48.310906 
L 166.956746 48.310906 
L 167.11017 50.852118 
L 167.135961 50.852118 
L 167.263858 48.310906 
L 167.417549 48.310906 
L 167.622464 53.393329 
L 167.801939 53.393329 
L 167.930147 50.852118 
L 168.134758 50.852118 
L 168.288446 55.934541 
L 168.339678 55.934541 
L 168.493365 61.016965 
L 168.595823 61.016965 
L 168.724052 63.558176 
L 168.85197 63.558176 
L 168.980179 66.099388 
L 169.005658 63.558176 
L 169.082649 66.099388 
L 169.210576 66.099388 
L 169.338845 68.6406 
L 169.569181 68.6406 
L 169.697474 66.099388 
L 169.7741 66.099388 
L 169.927788 71.181812 
L 169.953552 71.181812 
L 170.081473 68.6406 
L 170.388854 68.6406 
L 170.542543 63.558176 
L 170.593771 63.558176 
L 170.722066 61.016965 
L 170.952379 61.016965 
L 171.080572 58.475753 
L 171.82328 58.475753 
L 171.95154 55.934541 
L 172.233117 55.934541 
L 172.386803 58.475753 
L 172.438034 58.475753 
L 172.566286 61.016965 
L 172.771031 61.016965 
L 172.822375 58.475753 
L 172.873675 61.016965 
L 173.052788 61.016965 
L 173.181067 63.558176 
L 173.334739 63.558176 
L 173.462623 61.016965 
L 173.719086 61.016965 
L 173.872459 55.934541 
L 174.077377 55.934541 
L 174.180184 53.393329 
L 174.333526 53.393329 
L 174.46181 50.852118 
L 174.948276 50.852118 
L 175.076577 48.310906 
L 175.332658 48.310906 
L 175.511802 55.934541 
L 175.614523 55.934541 
L 175.767947 58.475753 
L 175.793708 58.475753 
L 175.921638 55.934541 
L 175.972867 55.934541 
L 176.075328 53.393329 
L 176.433933 53.393329 
L 176.536394 50.852118 
L 176.715847 58.475753 
L 176.818368 58.475753 
L 176.997457 66.099388 
L 177.176928 66.099388 
L 177.304835 68.6406 
L 177.509752 68.6406 
L 177.586604 71.181812 
L 177.612212 68.6406 
L 178.252777 68.6406 
L 178.380658 66.099388 
L 178.406474 66.099388 
L 178.534655 63.558176 
L 178.713835 63.558176 
L 178.739267 61.016965 
L 178.816302 63.558176 
L 179.072337 63.558176 
L 179.200331 61.016965 
L 179.30279 61.016965 
L 179.430962 63.558176 
L 179.815089 63.558176 
L 179.943263 66.099388 
L 180.506751 66.099388 
L 180.634761 63.558176 
L 180.839681 63.558176 
L 180.96777 61.016965 
L 181.044598 61.016965 
L 181.224014 68.6406 
L 181.351978 68.6406 
L 181.480134 71.181812 
L 181.633864 71.181812 
L 181.761813 68.6406 
L 181.915743 68.6406 
L 182.043704 71.181812 
L 182.120423 71.181812 
L 182.248636 73.723023 
L 182.299836 73.723023 
L 182.427802 76.264235 
L 182.5048 76.264235 
L 182.58149 78.805447 
L 182.607248 76.264235 
L 182.99133 76.264235 
L 183.09379 73.723023 
L 183.221953 76.264235 
L 183.273184 76.264235 
L 183.426878 71.181812 
L 183.913466 71.181812 
L 184.041653 68.6406 
L 184.374529 68.6406 
L 184.476986 66.099388 
L 184.605198 68.6406 
L 184.938057 68.6406 
L 185.066283 71.181812 
L 185.450354 71.181812 
L 185.604046 76.264235 
L 185.629715 76.264235 
L 185.758076 73.723023 
L 185.834688 73.723023 
L 185.988408 78.805447 
L 186.039676 78.805447 
L 186.193346 83.88787 
L 186.218987 83.88787 
L 186.372491 86.429082 
L 186.398296 86.429082 
L 186.526177 83.88787 
L 186.577408 83.88787 
L 186.679869 81.346659 
L 186.884786 86.429082 
L 187.013072 86.429082 
L 187.140933 88.970294 
L 187.166765 88.970294 
L 187.192381 91.511506 
L 187.269089 88.970294 
L 187.294625 88.970294 
L 187.422901 86.429082 
L 187.499543 86.429082 
L 187.704695 76.264235 
L 188.165778 76.264235 
L 188.31922 73.723023 
L 188.421682 73.723023 
L 188.549932 71.181812 
L 189.036436 71.181812 
L 189.139175 73.723023 
L 189.241355 73.723023 
L 189.369637 76.264235 
L 189.42085 76.264235 
L 189.651193 88.970294 
L 189.779461 88.970294 
L 189.907344 91.511506 
L 190.061031 91.511506 
L 190.21472 88.970294 
L 190.265949 88.970294 
L 190.394249 91.511506 
L 190.4967 91.511506 
L 190.675792 83.88787 
L 190.727019 83.88787 
L 190.88071 78.805447 
L 190.957777 78.805447 
L 191.085901 76.264235 
L 191.11128 76.264235 
L 191.316382 86.429082 
L 191.36752 86.429082 
L 191.495466 88.970294 
L 191.649159 88.970294 
L 191.777342 91.511506 
L 191.854078 91.511506 
L 191.982295 94.052717 
L 192.13601 94.052717 
L 192.263919 91.511506 
L 192.417607 96.593929 
L 192.724987 96.593929 
L 192.853219 99.135141 
L 193.032365 99.135141 
L 193.058041 101.676353 
L 193.134824 99.135141 
L 193.237285 99.135141 
L 193.36552 101.676353 
L 193.442204 101.676353 
L 193.595891 106.758776 
L 193.647125 106.758776 
L 193.800816 111.8412 
L 194.005732 111.8412 
L 194.236406 99.135141 
L 194.415567 99.135141 
L 194.569261 101.676353 
L 194.72295 101.676353 
L 194.876634 96.593929 
L 195.004816 96.593929 
L 195.132786 94.052717 
L 195.286477 94.052717 
L 195.388935 91.511506 
L 195.670879 91.511506 
L 195.824587 96.593929 
L 196.029529 96.593929 
L 196.157383 94.052717 
L 196.336894 94.052717 
L 196.464762 96.593929 
L 196.567223 94.052717 
L 196.720913 99.135141 
L 196.874783 99.135141 
L 197.002864 101.676353 
L 197.335932 101.676353 
L 197.643048 111.8412 
L 197.771274 109.299988 
L 197.796737 109.299988 
L 198.001656 99.135141 
L 198.052887 99.135141 
L 198.155348 96.593929 
L 198.283563 99.135141 
L 198.309214 99.135141 
L 198.43731 101.676353 
L 198.462722 101.676353 
L 198.642182 109.299988 
L 198.77037 109.299988 
L 198.923792 111.8412 
L 199.026253 111.8412 
L 199.103285 114.382411 
L 199.128716 111.8412 
L 199.179944 111.8412 
L 199.308028 109.299988 
L 199.384861 109.299988 
L 199.410681 106.758776 
L 199.48732 109.299988 
L 199.53855 109.299988 
L 199.692241 114.382411 
L 200.05085 114.382411 
L 200.179072 116.923623 
L 200.204541 116.923623 
L 200.460688 109.299988 
L 200.588995 111.8412 
L 200.614376 111.8412 
L 200.717149 114.382411 
L 200.870526 111.8412 
L 200.89636 111.8412 
L 201.024215 109.299988 
L 201.280365 109.299988 
L 201.382826 111.8412 
L 201.562332 104.217564 
L 201.741437 104.217564 
L 201.869701 101.676353 
L 201.920914 101.676353 
L 202.048814 99.135141 
L 202.228176 99.135141 
L 202.27952 101.676353 
L 202.330761 99.135141 
L 202.433221 99.135141 
L 202.612342 91.511506 
L 202.714799 88.970294 
L 202.843014 91.511506 
L 202.868491 91.511506 
L 202.996757 94.052717 
L 203.099212 94.052717 
L 203.227102 96.593929 
L 203.252901 96.593929 
L 203.380787 99.135141 
L 203.509055 99.135141 
L 203.637249 101.676353 
L 204.661537 101.676353 
L 204.789803 99.135141 
L 204.866456 99.135141 
L 204.994724 96.593929 
L 205.122605 96.593929 
L 205.250784 94.052717 
L 205.327525 94.052717 
L 205.634906 114.382411 
L 205.660685 114.382411 
L 206.070514 144.876952 
L 206.09597 144.876952 
L 206.224226 147.418164 
L 206.377906 147.418164 
L 206.505804 144.876952 
L 206.582838 144.876952 
L 206.608261 142.335741 
L 206.685286 144.876952 
L 206.736532 144.876952 
L 206.864409 147.418164 
L 207.018101 147.418164 
L 207.146334 152.500588 
L 207.171786 149.959376 
L 207.248789 152.500588 
L 207.274246 152.500588 
L 207.351277 157.583011 
L 207.377007 155.041799 
L 207.504951 152.500588 
L 207.530396 152.500588 
L 207.684084 147.418164 
L 207.735312 147.418164 
L 208.119714 175.371493 
L 208.145147 175.371493 
L 208.350394 185.53634 
L 208.375694 185.53634 
L 208.55498 177.912705 
L 208.606209 177.912705 
L 208.759896 185.53634 
L 208.939389 177.912705 
L 209.195513 177.912705 
L 209.323402 175.371493 
L 209.349074 175.371493 
L 209.374646 177.912705 
L 209.451701 175.371493 
L 209.502924 175.371493 
L 209.554146 172.830282 
L 209.605356 175.371493 
L 209.682021 175.371493 
L 209.733248 172.830282 
L 209.784685 175.371493 
L 209.88694 175.371493 
L 210.015074 177.912705 
L 210.066435 177.912705 
L 210.245839 170.28907 
L 210.501687 162.665435 
L 210.62991 162.665435 
L 210.757973 165.206646 
L 210.783477 165.206646 
L 210.886088 167.747858 
L 211.013981 165.206646 
L 211.193474 165.206646 
L 211.372586 157.583011 
L 211.475046 157.583011 
L 211.654585 167.747858 
L 211.884877 155.041799 
L 211.910677 157.583011 
L 212.038833 147.418164 
L 212.115519 147.418164 
L 212.294713 139.794529 
L 212.550861 139.794529 
L 212.653625 142.335741 
L 212.884065 134.712105 
L 213.011927 137.253317 
L 213.165886 132.170894 
L 213.345126 132.170894 
L 213.37053 129.629682 
L 213.447557 132.170894 
L 213.780367 132.170894 
L 213.934055 127.08847 
L 213.959861 127.08847 
L 214.190202 142.335741 
L 214.343891 137.253317 
L 214.369657 137.253317 
L 214.523379 142.335741 
L 214.600292 142.335741 
L 214.677011 147.418164 
L 214.702497 144.876952 
L 215.035637 144.876952 
L 215.214791 137.253317 
L 215.317249 137.253317 
L 215.470938 132.170894 
L 215.496733 132.170894 
L 215.650394 137.253317 
L 215.752915 137.253317 
L 215.880768 144.876952 
L 215.906604 142.335741 
L 215.932001 142.335741 
L 216.060072 137.253317 
L 216.188148 149.959376 
L 216.213984 149.959376 
L 216.239377 147.418164 
L 216.316436 149.959376 
L 216.444293 152.500588 
L 216.70044 152.500588 
L 217.008088 132.170894 
L 217.13608 132.170894 
L 217.212733 129.629682 
L 217.238538 132.170894 
L 217.340944 132.170894 
L 217.469166 127.08847 
L 217.750842 127.08847 
L 217.878717 129.629682 
L 217.981163 129.629682 
L 218.109467 127.08847 
L 218.134861 127.08847 
L 218.263131 129.629682 
L 218.339781 129.629682 
L 218.467853 127.08847 
L 218.698388 127.08847 
L 218.826681 124.547258 
L 218.903639 124.547258 
L 219.056992 127.08847 
L 219.185275 127.08847 
L 219.313139 124.547258 
L 219.543886 124.547258 
L 219.646317 122.006047 
L 219.774203 124.547258 
L 219.927894 119.464835 
L 219.979123 119.464835 
L 220.158598 111.8412 
L 220.465957 111.8412 
L 220.568436 114.382411 
L 220.722053 109.299988 
L 220.85034 109.299988 
L 220.978288 111.8412 
L 221.003712 109.299988 
L 221.080696 111.8412 
L 221.234402 111.8412 
L 221.387998 106.758776 
L 221.695374 106.758776 
L 221.849019 101.676353 
L 221.977074 101.676353 
L 222.105374 99.135141 
L 222.130762 99.135141 
L 222.156556 101.676353 
L 222.233218 99.135141 
L 222.284752 99.135141 
L 222.463927 94.052717 
L 222.591828 96.593929 
L 222.643057 96.593929 
L 222.745518 99.135141 
L 222.822402 99.135141 
L 222.950436 96.593929 
L 223.001664 96.593929 
L 223.129909 99.135141 
L 223.258068 99.135141 
L 223.4115 94.052717 
L 223.437223 94.052717 
L 223.590978 88.970294 
L 223.667647 88.970294 
L 223.821337 83.88787 
L 223.923797 83.88787 
L 224.052067 81.346659 
L 224.077488 81.346659 
L 224.179945 78.805447 
L 224.333633 78.805447 
L 224.461865 76.264235 
L 225.230186 76.264235 
L 225.358225 73.723023 
L 225.409455 73.723023 
L 225.537723 71.181812 
L 225.76806 71.181812 
L 225.896331 68.6406 
L 226.818475 68.6406 
L 226.946345 66.099388 
L 227.151263 66.099388 
L 227.279528 63.558176 
L 227.330775 63.558176 
L 227.458642 61.016965 
L 227.714789 61.016965 
L 227.843078 58.475753 
L 228.227083 58.475753 
L 228.380776 55.934541 
L 229.149219 55.934541 
L 229.277471 53.393329 
L 229.405366 53.393329 
L 229.508133 55.934541 
L 229.687316 55.934541 
L 229.815203 53.393329 
L 230.532418 53.393329 
L 230.66071 55.934541 
L 230.942259 55.934541 
L 231.095943 58.475753 
L 231.147174 58.475753 
L 231.275401 55.934541 
L 232.991447 55.934541 
L 233.119611 53.393329 
L 233.683213 53.393329 
L 233.811122 50.852118 
L 235.681207 50.852118 
L 235.809374 48.310906 
L 238.165651 48.310906 
L 238.268111 45.769694 
L 238.396396 48.310906 
L 238.447616 48.310906 
L 238.57549 45.769694 
L 239.779555 45.769694 
L 239.907462 48.310906 
L 240.522218 48.310906 
L 240.624881 45.769694 
L 242.007885 45.769694 
L 242.136015 48.310906 
L 243.032807 48.310906 
L 243.186166 45.769694 
L 249.589887 45.769694 
L 249.718167 43.228482 
L 252.817353 43.228482 
L 252.945662 45.769694 
L 253.175962 45.769694 
L 253.329652 48.310906 
L 254.431302 48.310906 
L 254.559163 50.852118 
L 254.866539 50.852118 
L 254.994796 53.393329 
L 255.020231 53.393329 
L 255.122957 55.934541 
L 255.276378 55.934541 
L 255.302081 53.393329 
L 255.378838 55.934541 
L 255.788674 55.934541 
L 255.916938 58.475753 
L 255.942359 58.475753 
L 256.070627 61.016965 
L 256.172996 61.016965 
L 256.300965 63.558176 
L 256.37798 63.558176 
L 256.531646 68.6406 
L 256.762033 68.6406 
L 256.890298 71.181812 
L 257.197655 71.181812 
L 257.325557 68.6406 
L 257.428015 68.6406 
L 257.453861 71.181812 
L 257.530743 68.6406 
L 257.684162 68.6406 
L 257.812376 88.970294 
L 257.991538 96.593929 
L 258.043064 96.593929 
L 258.273495 109.299988 
L 258.350143 109.299988 
L 258.4526 104.217564 
L 258.478425 106.758776 
L 258.504171 106.758776 
L 258.555058 109.299988 
L 258.60629 106.758776 
L 258.632091 106.758776 
L 258.708747 101.676353 
L 258.759975 104.217564 
L 258.939497 111.8412 
L 258.964894 111.8412 
L 259.298041 124.547258 
L 259.400506 122.006047 
L 259.579641 129.629682 
L 259.682367 129.629682 
L 260.091936 91.511506 
L 260.117752 101.676353 
L 260.220211 99.135141 
L 260.348081 101.676353 
L 260.578835 101.676353 
L 260.757916 109.299988 
L 260.783773 109.299988 
L 260.962831 101.676353 
L 260.988549 101.676353 
L 261.295984 124.547258 
L 261.347284 122.006047 
L 261.372665 124.547258 
L 261.500911 124.547258 
L 261.654599 119.464835 
L 261.705848 119.464835 
L 261.885275 111.8412 
L 261.96193 111.8412 
L 261.987414 109.299988 
L 262.013184 114.382411 
L 262.038647 114.382411 
L 262.089877 114.382411 
L 262.21809 106.758776 
L 262.243563 109.299988 
L 262.346301 109.299988 
L 262.550937 104.217564 
L 262.576729 104.217564 
L 262.627976 106.758776 
L 262.653397 104.217564 
L 262.807086 99.135141 
L 263.140251 99.135141 
L 263.421837 81.346659 
L 263.473068 81.346659 
L 263.626754 76.264235 
L 263.754981 94.052717 
L 263.831672 91.511506 
L 263.857356 94.052717 
L 264.036587 94.052717 
L 264.164873 76.264235 
L 264.7541 76.264235 
L 264.907488 73.723023 
L 265.317325 73.723023 
L 265.445548 71.181812 
L 265.522241 71.181812 
L 265.650454 68.6406 
L 265.906634 68.6406 
L 266.034536 66.099388 
L 266.521424 66.099388 
L 266.649289 63.558176 
L 266.982464 63.558176 
L 267.110356 61.016965 
L 267.341065 61.016965 
L 267.46896 58.475753 
L 267.57142 58.475753 
L 267.673874 55.934541 
L 267.802093 58.475753 
L 268.211908 58.475753 
L 268.33986 61.016965 
L 268.468163 61.016965 
L 268.596334 58.475753 
L 269.057069 58.475753 
L 269.210762 61.016965 
L 269.748872 61.016965 
L 269.876747 58.475753 
L 269.927974 58.475753 
L 270.005004 55.934541 
L 270.030431 58.475753 
L 270.184122 58.475753 
L 270.312377 61.016965 
L 270.440267 61.016965 
L 270.56835 63.558176 
L 271.259939 63.558176 
L 271.388176 61.016965 
L 272.028383 61.016965 
L 272.156659 63.558176 
L 273.591076 63.558176 
L 273.718956 61.016965 
L 273.821417 61.016965 
L 273.872645 58.475753 
L 273.924179 61.016965 
L 274.180023 61.016965 
L 274.308288 63.558176 
L 274.538624 63.558176 
L 274.641084 61.016965 
L 274.769321 63.558176 
L 274.794773 63.558176 
L 274.922897 61.016965 
L 275.153382 61.016965 
L 275.281624 58.475753 
L 275.307072 58.475753 
L 275.460759 55.934541 
L 275.71691 55.934541 
L 275.819626 53.393329 
L 275.973055 53.393329 
L 276.075511 50.852118 
L 276.459905 50.852118 
L 276.587808 48.310906 
L 277.100102 48.310906 
L 277.228361 45.769694 
L 277.40748 45.769694 
L 277.509939 48.310906 
L 277.7917 48.310906 
L 277.919776 50.852118 
L 278.124695 50.852118 
L 278.278382 55.934541 
L 278.483301 55.934541 
L 278.611523 58.475753 
L 278.816423 58.475753 
L 278.944366 55.934541 
L 279.456663 55.934541 
L 279.584908 58.475753 
L 279.866496 58.475753 
L 279.994696 61.016965 
L 280.276332 61.016965 
L 280.404572 63.558176 
L 280.63494 63.558176 
L 280.788628 66.099388 
L 281.044774 66.099388 
L 281.172864 68.6406 
L 282.069367 68.6406 
L 282.223058 71.181812 
L 282.453784 71.181812 
L 282.581907 73.723023 
L 282.863607 73.723023 
L 282.9915 71.181812 
L 283.913632 71.181812 
L 283.964861 73.723023 
L 284.016392 71.181812 
L 284.246792 71.181812 
L 284.374697 68.6406 
L 284.682078 68.6406 
L 284.810289 71.181812 
L 285.117621 71.181812 
L 285.245603 73.723023 
L 285.29683 73.723023 
L 285.425083 76.264235 
L 285.783715 76.264235 
L 285.911585 78.805447 
L 286.116502 78.805447 
L 286.295946 86.429082 
L 286.526343 86.429082 
L 286.628798 88.970294 
L 286.757062 86.429082 
L 286.88495 86.429082 
L 287.038638 83.88787 
L 287.115673 83.88787 
L 287.243554 86.429082 
L 287.294786 86.429082 
L 287.499703 76.264235 
L 287.653392 76.264235 
L 287.781606 73.723023 
L 288.089005 73.723023 
L 288.216919 76.264235 
L 288.524299 76.264235 
L 288.652548 73.723023 
L 288.806254 73.723023 
L 288.934133 76.264235 
L 289.011093 76.264235 
L 289.139052 78.805447 
L 289.216072 78.805447 
L 289.395201 86.429082 
L 289.548888 86.429082 
L 289.677194 83.88787 
L 289.856264 83.88787 
L 289.984451 81.346659 
L 290.189469 81.346659 
L 290.342979 76.264235 
L 290.573483 76.264235 
L 290.599299 73.723023 
L 290.675939 76.264235 
L 290.82963 76.264235 
L 290.88086 73.723023 
L 290.932089 76.264235 
L 291.905455 76.264235 
L 292.033714 73.723023 
L 292.443528 73.723023 
L 292.571439 71.181812 
L 292.597265 71.181812 
L 292.750762 76.264235 
L 293.083736 76.264235 
L 293.237427 81.346659 
L 293.339882 81.346659 
L 293.493574 86.429082 
L 293.544801 86.429082 
L 293.647261 88.970294 
L 293.852182 88.970294 
L 293.980425 86.429082 
L 294.134118 86.429082 
L 294.313246 78.805447 
L 294.364475 78.805447 
L 294.492751 76.264235 
L 294.8001 76.264235 
L 294.825549 78.805447 
L 294.902588 76.264235 
L 295.36363 76.264235 
L 295.491531 73.723023 
L 295.517258 73.723023 
L 295.645218 71.181812 
L 296.259978 71.181812 
L 296.285784 73.723023 
L 296.362436 71.181812 
L 296.439472 71.181812 
L 296.567642 73.723023 
L 296.721045 76.264235 
L 296.823506 76.264235 
L 297.028426 86.429082 
L 297.156654 86.429082 
L 297.310317 91.511506 
L 297.387029 91.511506 
L 297.515262 88.970294 
L 297.541065 88.970294 
L 297.822655 106.758776 
L 297.899326 106.758776 
L 297.925133 104.217564 
L 297.976353 106.758776 
L 298.257932 124.547258 
L 298.437391 124.547258 
L 298.565309 127.08847 
L 298.591058 127.08847 
L 298.718995 129.629682 
L 298.744671 127.08847 
L 298.872684 147.418164 
L 298.898476 149.959376 
L 299.02637 137.253317 
L 299.129093 137.253317 
L 299.15462 134.712105 
L 299.231289 147.418164 
L 299.257067 144.876952 
L 299.410778 139.794529 
L 299.513097 139.794529 
L 299.743583 152.500588 
L 299.89727 152.500588 
L 299.974118 160.124223 
L 300.102186 157.583011 
L 300.281668 152.500588 
L 300.307101 152.500588 
L 300.460794 157.583011 
L 300.563248 157.583011 
L 300.640247 152.500588 
L 300.691397 155.041799 
L 300.716937 155.041799 
L 300.742769 152.500588 
L 300.79391 157.583011 
L 300.819396 157.583011 
L 300.84521 155.041799 
L 300.922136 157.583011 
L 300.998846 157.583011 
L 301.050095 152.500588 
L 301.101355 157.583011 
L 301.126769 157.583011 
L 301.306259 149.959376 
L 301.408522 149.959376 
L 301.536604 152.500588 
L 301.562392 152.500588 
L 301.793056 167.747858 
L 301.946433 160.124223 
L 302.048893 165.206646 
L 302.074709 162.665435 
L 302.151352 162.665435 
L 302.177208 165.206646 
L 302.228393 162.665435 
L 302.356544 157.583011 
L 302.535718 165.206646 
L 302.561188 162.665435 
L 302.638124 165.206646 
L 302.791863 165.206646 
L 303.022251 157.583011 
L 303.141217 157.583011 
L 303.175935 160.124223 
L 303.227435 157.583011 
L 303.432083 152.500588 
L 303.688225 152.500588 
L 303.790684 149.959376 
L 304.507894 137.253317 
L 304.610352 139.794529 
L 304.636173 137.253317 
L 304.661903 139.794529 
L 304.815273 142.335741 
L 304.866502 142.335741 
L 304.943524 147.418164 
L 304.994726 144.876952 
L 305.174139 144.876952 
L 305.35333 160.124223 
L 305.48125 149.959376 
L 305.53248 149.959376 
L 305.660542 147.418164 
L 305.81442 147.418164 
L 305.891084 144.876952 
L 305.916907 147.418164 
L 305.96806 147.418164 
L 306.044773 149.959376 
L 306.070471 147.418164 
L 306.096191 147.418164 
L 306.19846 142.335741 
L 306.22425 144.876952 
L 306.249689 144.876952 
L 306.37794 152.500588 
L 306.557062 162.665435 
L 306.633927 162.665435 
L 306.78767 167.747858 
L 306.838906 167.747858 
L 306.890219 170.28907 
L 306.915666 167.747858 
L 307.043921 165.206646 
L 307.120581 170.28907 
L 307.171811 167.747858 
L 307.223041 167.747858 
L 307.376728 172.830282 
L 307.504959 170.28907 
L 307.530413 170.28907 
L 307.684101 165.206646 
L 307.709901 167.747858 
L 307.837789 152.500588 
L 307.991479 152.500588 
L 308.145162 149.959376 
L 308.196389 149.959376 
L 308.350082 144.876952 
L 308.478331 144.876952 
L 308.504085 147.418164 
L 308.580693 144.876952 
L 308.606227 144.876952 
L 308.683287 142.335741 
L 308.708686 144.876952 
L 308.734483 144.876952 
L 308.888111 149.959376 
L 308.9136 149.959376 
L 308.964831 147.418164 
L 309.016342 149.959376 
L 309.041714 152.500588 
L 309.118518 149.959376 
L 309.144328 149.959376 
L 309.220976 152.500588 
L 309.246784 149.959376 
L 309.272208 149.959376 
L 309.400491 147.418164 
L 309.554078 147.418164 
L 309.707837 152.500588 
L 309.733268 152.500588 
L 309.886955 147.418164 
L 309.989415 147.418164 
L 310.143101 142.335741 
L 310.168907 142.335741 
L 310.322529 147.418164 
L 310.348017 147.418164 
L 310.476117 142.335741 
L 310.681207 142.335741 
L 310.783575 139.794529 
L 310.860309 142.335741 
L 310.886113 139.794529 
L 311.167687 122.006047 
L 311.193521 122.006047 
L 311.321377 106.758776 
L 311.449504 106.758776 
L 311.526293 104.217564 
L 314.164761 96.593929 
L 314.31851 91.511506 
L 314.625834 91.511506 
L 314.753744 88.970294 
L 315.061123 88.970294 
L 315.189251 91.511506 
L 315.31727 91.511506 
L 315.445435 94.052717 
L 315.599214 88.970294 
L 315.701608 88.970294 
L 315.880783 81.346659 
L 316.034477 81.346659 
L 316.136935 78.805447 
L 316.265169 81.346659 
L 316.367474 81.346659 
L 316.470107 78.805447 
L 316.700458 78.805447 
L 316.803225 76.264235 
L 316.98239 76.264235 
L 317.135972 81.346659 
L 317.161526 81.346659 
L 317.263985 83.88787 
L 317.750816 83.88787 
L 317.87874 86.429082 
L 318.647186 86.429082 
L 318.800874 81.346659 
L 318.877862 81.346659 
L 319.031528 76.264235 
L 319.595015 76.264235 
L 319.697538 78.805447 
L 319.825465 76.264235 
L 319.876938 76.264235 
L 320.004891 78.805447 
L 320.056111 78.805447 
L 320.184073 76.264235 
L 320.209807 76.264235 
L 320.338026 73.723023 
L 320.670871 73.723023 
L 320.798823 76.264235 
L 321.106201 76.264235 
L 321.234422 73.723023 
L 321.772184 73.723023 
L 321.925875 76.264235 
L 322.796776 76.264235 
L 322.924911 78.805447 
L 323.41153 78.805447 
L 323.539737 81.346659 
L 323.61645 81.346659 
L 323.66768 83.88787 
L 323.71918 81.346659 
L 323.872596 83.88787 
L 324.154564 83.88787 
L 324.333662 76.264235 
L 324.410632 76.264235 
L 324.538579 78.805447 
L 324.666835 76.264235 
L 325.076593 76.264235 
L 325.204563 78.805447 
L 325.230241 78.805447 
L 325.307024 81.346659 
L 325.332824 78.805447 
L 325.409482 78.805447 
L 325.537688 76.264235 
L 326.562277 76.264235 
L 326.690222 73.723023 
L 327.125666 73.723023 
L 327.253748 76.264235 
L 327.38193 73.723023 
L 328.380798 73.723023 
L 328.457807 71.181812 
L 328.483256 73.723023 
L 329.072436 73.723023 
L 329.200472 76.264235 
L 329.866455 76.264235 
L 329.943477 73.723023 
L 329.969191 76.264235 
L 330.378751 76.264235 
L 330.506839 78.805447 
L 330.686126 78.805447 
L 330.814385 76.264235 
L 331.249653 76.264235 
L 331.377924 73.723023 
L 331.480221 73.723023 
L 331.608256 76.264235 
L 332.786534 76.264235 
L 332.889273 73.723023 
L 333.017263 76.264235 
L 333.119686 76.264235 
L 333.2476 73.723023 
L 333.273389 73.723023 
L 333.401288 71.181812 
L 333.554981 71.181812 
L 333.683222 68.6406 
L 333.734469 68.6406 
L 333.862585 66.099388 
L 333.939343 66.099388 
L 334.067273 63.558176 
L 334.3237 63.558176 
L 334.451655 61.016965 
L 334.784483 61.016965 
L 334.938175 58.475753 
L 335.066411 58.475753 
L 335.194324 55.934541 
L 335.245553 55.934541 
L 335.297014 58.475753 
L 335.348013 55.934541 
L 335.425033 55.934541 
L 335.552924 58.475753 
L 335.809075 58.475753 
L 335.93732 61.016965 
L 336.142231 61.016965 
L 336.270365 58.475753 
L 337.576661 58.475753 
L 337.704787 55.934541 
L 337.755798 55.934541 
L 337.884066 53.393329 
L 338.601227 53.393329 
L 338.754864 58.475753 
L 339.446373 58.475753 
L 339.574614 61.016965 
L 339.933205 61.016965 
L 340.061127 58.475753 
L 340.189325 58.475753 
L 340.317276 55.934541 
L 340.57365 55.934541 
L 340.727113 53.393329 
L 341.213992 53.393329 
L 341.341867 50.852118 
L 341.418819 50.852118 
L 341.547057 53.393329 
L 341.777462 53.393329 
L 341.905394 50.852118 
L 343.673021 50.852118 
L 343.800887 48.310906 
L 346.311124 48.310906 
L 346.439299 50.852118 
L 347.771399 50.852118 
L 347.899248 53.393329 
L 348.46277 53.393329 
L 348.590997 55.934541 
L 349.077519 55.934541 
L 349.205754 58.475753 
L 349.692277 58.475753 
L 349.820464 55.934541 
L 350.43529 55.934541 
L 350.563178 58.475753 
L 350.7681 58.475753 
L 350.896371 55.934541 
L 351.382856 55.934541 
L 351.511054 53.393329 
L 351.587773 53.393329 
L 351.715889 50.852118 
L 351.997608 50.852118 
L 352.125801 53.393329 
L 352.970968 53.393329 
L 353.073429 55.934541 
L 353.304059 55.934541 
L 353.432035 58.475753 
L 353.816418 58.475753 
L 353.970127 63.558176 
L 354.123677 63.558176 
L 354.251709 61.016965 
L 354.302936 61.016965 
L 354.431169 78.805447 
L 354.456624 78.805447 
L 354.687284 91.511506 
L 354.738502 91.511506 
L 354.866463 88.970294 
L 355.071379 88.970294 
L 355.097062 86.429082 
L 355.148404 88.970294 
L 355.353295 99.135141 
L 355.583673 99.135141 
L 355.737361 94.052717 
L 355.968019 94.052717 
L 356.095963 91.511506 
L 356.147196 91.511506 
L 356.300882 96.593929 
L 356.403341 96.593929 
L 356.531467 99.135141 
L 356.608259 99.135141 
L 356.710719 101.676353 
L 356.838864 99.135141 
L 356.864405 99.135141 
L 356.915633 101.676353 
L 357.095058 83.88787 
L 357.120551 83.88787 
L 357.299992 76.264235 
L 357.402448 76.264235 
L 357.530387 73.723023 
L 357.709891 73.723023 
L 357.837766 71.181812 
L 357.863548 71.181812 
L 357.991456 68.6406 
L 358.11972 68.6406 
L 358.247599 66.099388 
L 358.350061 66.099388 
L 358.478235 63.558176 
L 358.836953 63.558176 
L 358.964812 61.016965 
L 359.016041 61.016965 
L 359.144173 63.558176 
L 359.220962 63.558176 
L 359.323419 61.016965 
L 359.400273 61.016965 
L 359.528337 58.475753 
L 359.810252 58.475753 
L 359.938173 55.934541 
L 360.424988 55.934541 
L 360.552927 53.393329 
L 360.937322 53.393329 
L 361.065222 50.852118 
L 362.832743 50.852118 
L 362.960703 53.393329 
L 363.217076 53.393329 
L 363.370539 55.934541 
L 363.626689 55.934541 
L 363.780375 61.016965 
L 363.908593 61.016965 
L 364.062226 66.099388 
L 364.753734 66.099388 
L 364.881992 68.6406 
L 365.112342 68.6406 
L 365.26603 71.181812 
L 366.009023 71.181812 
L 366.137219 73.723023 
L 366.26521 71.181812 
L 366.470083 71.181812 
L 366.598297 73.723023 
L 367.059349 73.723023 
L 367.135973 71.181812 
L 367.161525 73.723023 
L 367.750821 73.723023 
L 367.878739 76.264235 
L 367.929968 76.264235 
L 367.981199 78.805447 
L 368.032723 76.264235 
L 368.442266 76.264235 
L 368.570376 73.723023 
L 368.929096 73.723023 
L 369.057019 71.181812 
L 369.748683 71.181812 
L 369.876698 68.6406 
L 370.056123 68.6406 
L 370.184077 66.099388 
L 370.363568 66.099388 
L 370.491456 68.6406 
L 370.593914 68.6406 
L 370.722182 71.181812 
L 370.978171 71.181812 
L 371.106212 73.723023 
L 371.234483 73.723023 
L 371.36236 71.181812 
L 371.746741 71.181812 
L 371.87466 73.723023 
L 372.028349 71.181812 
L 372.387124 71.181812 
L 372.515265 68.6406 
L 372.643104 68.6406 
L 372.771337 66.099388 
L 373.155403 66.099388 
L 373.283646 68.6406 
L 373.462777 68.6406 
L 373.591008 71.181812 
L 373.975076 71.181812 
L 374.103348 73.723023 
L 374.41069 73.723023 
L 374.538604 71.181812 
L 375.230315 71.181812 
L 375.358278 68.6406 
L 375.460737 68.6406 
L 375.58899 66.099388 
L 375.870573 66.099388 
L 375.998828 63.558176 
L 376.177951 63.558176 
L 376.30611 61.016965 
L 376.792705 61.016965 
L 376.920991 63.558176 
L 376.972171 63.558176 
L 377.100082 66.099388 
L 377.382009 66.099388 
L 377.50992 68.6406 
L 377.586941 68.6406 
L 377.663609 66.099388 
L 377.817299 68.6406 
L 378.406629 68.6406 
L 378.534511 71.181812 
L 379.277501 71.181812 
L 379.405417 73.723023 
L 379.687271 73.723023 
L 379.815251 76.264235 
L 379.994736 76.264235 
L 380.148288 81.346659 
L 380.199628 81.346659 
L 380.327546 83.88787 
L 380.737383 83.88787 
L 380.865626 86.429082 
L 381.01925 86.429082 
L 381.173006 81.346659 
L 381.249678 81.346659 
L 381.377881 78.805447 
L 381.403367 78.805447 
L 381.505826 76.264235 
L 381.608284 76.264235 
L 381.736556 73.723023 
L 382.453796 73.723023 
L 382.581658 76.264235 
L 383.170943 76.264235 
L 383.298874 73.723023 
L 383.683268 73.723023 
L 383.811172 76.264235 
L 383.913631 76.264235 
L 384.093097 83.88787 
L 384.579621 83.88787 
L 384.707879 81.346659 
L 384.733311 81.346659 
L 384.887 76.264235 
L 385.168934 76.264235 
L 385.373844 86.429082 
L 385.630009 86.429082 
L 385.757906 88.970294 
L 385.834923 88.970294 
L 385.962824 91.511506 
L 385.988554 91.511506 
L 386.116516 94.052717 
L 386.167748 94.052717 
L 386.321433 99.135141 
L 386.628813 99.135141 
L 386.757019 101.676353 
L 386.833733 101.676353 
L 386.987423 104.217564 
L 387.03865 104.217564 
L 387.192342 109.299988 
L 387.499723 109.299988 
L 387.62792 111.8412 
L 387.704643 111.8412 
L 387.85833 116.923623 
L 387.90956 116.923623 
L 387.960792 114.382411 
L 388.01202 116.923623 
L 388.037766 116.923623 
L 388.165709 114.382411 
L 388.216941 114.382411 
L 388.345037 116.923623 
L 388.396381 116.923623 
L 388.524314 119.464835 
L 388.626775 119.464835 
L 388.754974 122.006047 
L 388.780707 122.006047 
L 388.934159 124.547258 
L 389.369769 124.547258 
L 389.497688 127.08847 
L 389.574695 127.08847 
L 389.728367 132.170894 
L 389.856295 132.170894 
L 390.009981 137.253317 
L 390.061216 137.253317 
L 390.086956 139.794529 
L 390.163671 137.253317 
L 390.215148 137.253317 
L 390.29181 134.712105 
L 390.317361 137.253317 
L 390.343155 137.253317 
L 390.496842 132.170894 
L 390.573511 132.170894 
L 390.727392 137.253317 
L 390.752832 137.253317 
L 390.88089 139.794529 
L 390.932118 139.794529 
L 391.085811 144.876952 
L 391.162821 144.876952 
L 391.188505 142.335741 
L 391.265197 144.876952 
L 391.470193 144.876952 
L 391.598103 149.959376 
L 391.726217 147.418164 
L 391.751791 147.418164 
L 391.905475 152.500588 
L 391.956701 152.500588 
L 392.136178 139.794529 
L 392.161857 142.335741 
L 392.187222 142.335741 
L 392.366529 149.959376 
L 392.392223 149.959376 
L 392.520213 152.500588 
L 392.699578 152.500588 
L 392.750921 149.959376 
L 392.879034 175.371493 
L 393.007054 157.583011 
L 393.032508 155.041799 
L 393.160598 172.830282 
L 393.211942 172.830282 
L 393.339884 182.995129 
L 393.365622 180.453917 
L 393.493571 177.912705 
L 393.647257 188.077552 
L 393.775478 193.159976 
L 393.852175 190.618764 
L 393.877939 193.159976 
L 393.980414 193.159976 
L 394.10855 190.618764 
L 394.133981 190.618764 
L 394.236529 195.701188 
L 394.262012 193.159976 
L 394.287821 193.159976 
L 394.4157 195.701188 
L 394.492692 195.701188 
L 394.518158 193.159976 
L 394.595 195.701188 
L 394.646344 195.701188 
L 394.774301 193.159976 
L 394.825529 198.242399 
L 394.876756 195.701188 
L 395.030686 190.618764 
L 395.132906 190.618764 
L 395.261063 195.701188 
L 395.286589 195.701188 
L 395.491508 182.995129 
L 395.54303 182.995129 
L 395.619716 177.912705 
L 395.645194 182.995129 
L 395.722234 190.618764 
L 395.747652 185.53634 
L 395.798882 185.53634 
L 395.978374 177.912705 
L 396.004008 177.912705 
L 396.18323 190.618764 
L 396.208718 188.077552 
L 396.234509 188.077552 
L 396.36241 177.912705 
L 396.388153 180.453917 
L 396.54177 190.618764 
L 396.721013 198.242399 
L 396.849207 195.701188 
L 396.925933 198.242399 
L 396.97743 193.159976 
L 397.02839 198.242399 
L 397.130847 198.242399 
L 397.284534 193.159976 
L 397.335765 195.701188 
L 397.386994 193.159976 
L 397.489452 188.077552 
L 397.515154 195.701188 
L 397.591912 193.159976 
L 397.7456 188.077552 
L 397.771356 188.077552 
L 397.899287 195.701188 
L 397.976175 195.701188 
L 398.181213 185.53634 
L 398.309119 193.159976 
L 398.360349 193.159976 
L 398.514038 195.701188 
L 398.642279 185.53634 
L 398.847184 195.701188 
L 398.872912 195.701188 
L 399.000871 188.077552 
L 399.026328 193.159976 
L 399.077558 193.159976 
L 399.205715 195.701188 
L 399.256934 195.701188 
L 399.308235 193.159976 
L 399.333704 195.701188 
L 399.410579 200.783611 
L 399.513157 190.618764 
L 399.538622 193.159976 
L 399.564383 193.159976 
L 399.666831 190.618764 
L 399.743535 193.159976 
L 399.769341 190.618764 
L 399.794764 190.618764 
L 399.948454 185.53634 
L 399.974212 185.53634 
L 400.15337 177.912705 
L 400.409518 177.912705 
L 400.537738 175.371493 
L 400.588949 177.912705 
L 400.640225 175.371493 
L 400.691466 175.371493 
L 400.819619 172.830282 
L 400.844989 172.830282 
L 400.870583 170.28907 
L 400.947575 172.830282 
L 401.024269 172.830282 
L 401.152456 170.28907 
L 401.203747 170.28907 
L 401.280704 167.747858 
L 401.434104 170.28907 
L 401.639022 170.28907 
L 401.664739 172.830282 
L 401.741479 170.28907 
L 401.997628 162.665435 
L 402.023443 162.665435 
L 402.253938 144.876952 
L 402.279395 147.418164 
L 402.305003 147.418164 
L 402.433205 149.959376 
L 402.561153 149.959376 
L 402.715127 144.876952 
L 402.996777 144.876952 
L 403.124676 147.418164 
L 403.278365 142.335741 
L 403.329594 142.335741 
L 403.483281 137.253317 
L 403.61149 137.253317 
L 403.739431 134.712105 
L 403.765145 134.712105 
L 403.867684 137.253317 
L 404.021402 132.170894 
L 404.046806 134.712105 
L 404.123836 132.170894 
L 404.149267 132.170894 
L 404.200493 129.629682 
L 404.251726 132.170894 
L 404.277508 132.170894 
L 404.37996 127.08847 
L 404.405415 129.629682 
L 404.533622 132.170894 
L 404.610333 132.170894 
L 404.86648 139.794529 
L 405.404501 139.794529 
L 405.455773 142.335741 
L 405.506978 139.794529 
L 405.558212 139.794529 
L 405.686155 137.253317 
L 405.865609 137.253317 
L 405.942305 134.712105 
L 405.968097 137.253317 
L 406.044765 137.253317 
L 406.096155 134.712105 
L 406.14722 137.253317 
L 406.685258 137.253317 
L 406.813207 134.712105 
L 406.941436 134.712105 
L 407.0696 137.253317 
L 407.223044 137.253317 
L 407.351268 134.712105 
L 407.786563 134.712105 
L 407.914723 137.253317 
L 408.401316 137.253317 
L 408.4783 134.712105 
L 408.606234 134.712105 
L 408.734489 132.170894 
L 409.041729 132.170894 
L 409.195478 127.08847 
L 409.477412 127.08847 
L 409.605363 124.547258 
L 409.886972 124.547258 
L 410.015108 127.08847 
L 410.245578 127.08847 
L 410.296807 124.547258 
L 410.348035 127.08847 
L 410.834893 127.08847 
L 410.962793 129.629682 
L 411.014023 129.629682 
L 411.091036 127.08847 
L 411.116479 129.629682 
L 411.218942 129.629682 
L 411.347187 132.170894 
L 411.372627 132.170894 
L 411.526317 129.629682 
L 411.603352 129.629682 
L 411.680006 132.170894 
L 411.705748 129.629682 
L 412.26937 129.629682 
L 412.397218 132.170894 
L 412.474233 132.170894 
L 412.602138 134.712105 
L 412.653367 134.712105 
L 412.755828 132.170894 
L 412.88391 134.712105 
L 413.088972 134.712105 
L 413.242686 129.629682 
L 413.293863 129.629682 
L 413.421815 127.08847 
L 413.447538 127.08847 
L 413.575502 124.547258 
L 413.831949 124.547258 
L 413.959902 122.006047 
L 414.164798 122.006047 
L 414.190258 124.547258 
L 414.267268 122.006047 
L 414.702555 122.006047 
L 414.856246 116.923623 
L 415.471003 116.923623 
L 415.599232 119.464835 
L 416.06032 119.464835 
L 416.188219 116.923623 
L 416.341909 116.923623 
L 416.4701 114.382411 
L 416.751747 114.382411 
L 416.905433 119.464835 
L 417.007892 119.464835 
L 417.110352 122.006047 
L 417.238461 119.464835 
L 417.57142 119.464835 
L 417.674144 116.923623 
L 417.725113 116.923623 
L 417.802098 119.464835 
L 417.827574 116.923623 
L 417.955842 116.923623 
L 418.109503 122.006047 
L 418.672863 122.006047 
L 418.826674 116.923623 
L 418.929174 116.923623 
L 419.057085 119.464835 
L 419.825532 119.464835 
L 419.902503 116.923623 
L 419.92799 119.464835 
L 420.184139 119.464835 
L 420.312392 122.006047 
L 420.41487 122.006047 
L 420.619629 111.8412 
L 420.670956 111.8412 
L 420.798896 109.299988 
L 421.23446 109.299988 
L 421.362428 111.8412 
L 421.439418 111.8412 
L 421.567341 114.382411 
L 421.644341 114.382411 
L 421.772267 116.923623 
L 421.977183 116.923623 
L 422.105376 114.382411 
L 422.233332 116.923623 
L 422.463952 116.923623 
L 422.591943 114.382411 
L 423.027416 114.382411 
L 423.155469 116.923623 
L 423.181271 116.923623 
L 423.309157 119.464835 
L 423.411616 119.464835 
L 423.565309 114.382411 
L 423.898475 114.382411 
L 424.026378 116.923623 
L 424.333756 116.923623 
L 424.46182 114.382411 
L 424.769364 114.382411 
L 424.897286 111.8412 
L 425.102201 111.8412 
L 425.230435 109.299988 
L 425.460811 109.299988 
L 425.640269 101.676353 
L 425.665731 101.676353 
L 425.793975 99.135141 
L 425.921881 99.135141 
L 425.97311 96.593929 
L 426.024341 99.135141 
L 426.331719 99.135141 
L 426.408586 101.676353 
L 426.43418 99.135141 
L 426.587867 99.135141 
L 426.741559 101.676353 
L 426.997705 101.676353 
L 427.126004 99.135141 
L 427.305085 99.135141 
L 427.458776 101.676353 
L 427.510005 101.676353 
L 427.638246 99.135141 
L 427.766155 99.135141 
L 427.894331 101.676353 
L 428.40668 101.676353 
L 428.534602 104.217564 
L 428.585831 104.217564 
L 428.714027 101.676353 
L 429.226371 101.676353 
L 429.354278 99.135141 
L 430.532563 99.135141 
L 430.660806 96.593929 
L 430.788713 96.593929 
L 430.916977 94.052717 
L 431.044863 94.052717 
L 431.19881 99.135141 
L 431.249779 99.135141 
L 431.378017 96.593929 
L 431.710846 96.593929 
L 431.839101 99.135141 
L 431.941531 99.135141 
L 432.044 96.593929 
L 432.172128 99.135141 
L 432.556333 99.135141 
L 432.684214 96.593929 
L 432.863666 96.593929 
L 432.991595 94.052717 
L 433.042825 94.052717 
L 433.170922 96.593929 
L 433.196515 96.593929 
L 433.324708 99.135141 
L 433.478396 99.135141 
L 433.606598 101.676353 
L 433.9394 101.676353 
L 434.067419 99.135141 
L 434.169877 99.135141 
L 434.29815 96.593929 
L 434.400541 96.593929 
L 434.528488 99.135141 
L 434.707948 99.135141 
L 434.835868 101.676353 
L 434.912867 101.676353 
L 435.040788 99.135141 
L 435.47637 99.135141 
L 435.604312 96.593929 
L 435.911692 96.593929 
L 435.96292 94.052717 
L 436.014382 96.593929 
L 436.142382 96.593929 
L 436.270301 99.135141 
L 436.423985 99.135141 
L 436.552088 101.676353 
L 436.603432 101.676353 
L 436.731368 104.217564 
L 436.757152 104.217564 
L 436.936288 111.8412 
L 436.987802 111.8412 
L 437.192437 116.923623 
L 437.218159 116.923623 
L 437.37191 122.006047 
L 437.525474 122.006047 
L 437.679252 127.08847 
L 438.268258 127.08847 
L 438.498859 139.794529 
L 438.550151 139.794529 
L 438.729321 129.629682 
L 438.883009 137.253317 
L 439.139155 137.253317 
L 439.267298 139.794529 
L 439.497761 139.794529 
L 439.523526 137.253317 
L 439.600219 139.794529 
L 439.728498 139.794529 
L 439.856366 144.876952 
L 440.163743 134.712105 
L 440.317433 134.712105 
L 440.41989 132.170894 
L 440.548104 134.712105 
L 440.57358 134.712105 
L 440.753063 127.08847 
L 440.932186 127.08847 
L 441.060381 124.547258 
L 441.495715 124.547258 
L 441.623948 127.08847 
L 441.777619 127.08847 
L 441.905548 129.629682 
L 441.956781 129.629682 
L 442.084974 127.08847 
L 442.264158 139.794529 
L 442.417848 137.253317 
L 442.443636 137.253317 
L 442.494746 139.794529 
L 442.546093 137.253317 
L 442.673995 134.712105 
L 442.725224 134.712105 
L 442.904729 139.794529 
L 443.058422 134.712105 
L 443.160835 137.253317 
L 443.288748 134.712105 
L 443.314436 134.712105 
L 443.339979 132.170894 
L 443.417025 134.712105 
L 443.442439 134.712105 
L 443.596127 139.794529 
L 443.673146 137.253317 
L 443.698585 139.794529 
L 443.980543 139.794529 
L 444.00596 142.335741 
L 444.082996 139.794529 
L 444.21113 137.253317 
L 444.262109 137.253317 
L 444.390305 134.712105 
L 444.467027 134.712105 
L 444.620714 139.794529 
L 444.748838 137.253317 
L 444.800159 137.253317 
L 444.928091 139.794529 
L 444.979322 139.794529 
L 445.107549 137.253317 
L 445.13301 137.253317 
L 445.440387 127.08847 
L 446.208829 127.08847 
L 446.337075 124.547258 
L 447.694483 124.547258 
L 447.822624 122.006047 
L 447.976299 122.006047 
L 448.104317 119.464835 
L 448.155549 119.464835 
L 448.283731 116.923623 
L 448.360469 116.923623 
L 448.386165 119.464835 
L 448.462929 116.923623 
L 448.616615 116.923623 
L 448.744769 114.382411 
L 448.770306 114.382411 
L 448.923995 109.299988 
L 449.077684 109.299988 
L 449.205808 106.758776 
L 449.385063 106.758776 
L 449.48752 109.299988 
L 449.538737 109.299988 
L 449.564408 106.758776 
L 449.641204 109.299988 
L 449.692434 109.299988 
L 449.820623 111.8412 
L 449.974297 111.8412 
L 450 109.299988 
L 450 109.299988 
" clip-path="url(#p020fda76d8)" style="fill: none; stroke: #ff7f0e; stroke-width: 1.5; stroke-linecap: square"/>
   </g>
   <g id="patch_3">
    <path d="M 51.05 279.561175 
L 51.05 25.44 
" style="fill: none; stroke: #000000; stroke-width: 0.8; stroke-linejoin: miter; stroke-linecap: square"/>
   </g>
   <g id="patch_4">
    <path d="M 450 279.561175 
L 450 25.44 
" style="fill: none; stroke: #000000; stroke-width: 0.8; stroke-linejoin: miter; stroke-linecap: square"/>
   </g>
   <g id="patch_5">
    <path d="M 51.05 279.561175 
L 450 279.561175 
" style="fill: none; stroke: #000000; stroke-width: 0.8; stroke-linejoin: miter; stroke-linecap: square"/>
   </g>
   <g id="patch_6">
    <path d="M 51.05 25.44 
L 450 25.44 
" style="fill: none; stroke: #000000; stroke-width: 0.8; stroke-linejoin: miter; stroke-linecap: square"/>
   </g>
   <g id="text_16">
    <!-- November 2023 -->
    <g transform="translate(202.133125 19.44) scale(0.12 -0.12)">
     <defs>
      <path id="DejaVuSans-4e" d="M 628 4666 
L 1478 4666 
L 3547 763 
L 3547 4666 
L 4159 4666 
L 4159 0 
L 3309 0 
L 1241 3903 
L 1241 0 
L 628 0 
L 628 4666 
z
" transform="scale(0.015625)"/>
      <path id="DejaVuSans-6f" d="M 1959 3097 
Q 1497 3097 1228 2736 
Q 959 2375 959 1747 
Q 959 1119 1226 758 
Q 1494 397 1959 397 
Q 2419 397 2687 759 
Q 2956 1122 2956 1747 
Q 2956 2369 2687 2733 
Q 2419 3097 1959 3097 
z
M 1959 3584 
Q 2709 3584 3137 3096 
Q 3566 2609 3566 1747 
Q 3566 888 3137 398 
Q 2709 -91 1959 -91 
Q 1206 -91 779 398 
Q 353 888 353 1747 
Q 353 2609 779 3096 
Q 1206 3584 1959 3584 
z
" transform="scale(0.015625)"/>
      <path id="DejaVuSans-76" d="M 191 3500 
L 800 3500 
L 1894 563 
L 2988 3500 
L 3597 3500 
L 2284 0 
L 1503 0 
L 191 3500 
z
" transform="scale(0.015625)"/>
      <path id="DejaVuSans-65" d="M 3597 1894 
L 3597 1613 
L 953 1613 
Q 991 1019 1311 708 
Q 1631 397 2203 397 
Q 2534 397 2845 478 
Q 3156 559 3463 722 
L 3463 178 
Q 3153 47 2828 -22 
Q 2503 -91 2169 -91 
Q 1331 -91 842 396 
Q 353 884 353 1716 
Q 353 2575 817 3079 
Q 1281 3584 2069 3584 
Q 2775 3584 3186 3129 
Q 3597 2675 3597 1894 
z
M 3022 2063 
Q 3016 2534 2758 2815 
Q 2500 3097 2075 3097 
Q 1594 3097 1305 2825 
Q 1016 2553 972 2059 
L 3022 2063 
z
" transform="scale(0.015625)"/>
      <path id="DejaVuSans-62" d="M 3116 1747 
Q 3116 2381 2855 2742 
Q 2594 3103 2138 3103 
Q 1681 3103 1420 2742 
Q 1159 2381 1159 1747 
Q 1159 1113 1420 752 
Q 1681 391 2138 391 
Q 2594 391 2855 752 
Q 3116 1113 3116 1747 
z
M 1159 2969 
Q 1341 3281 1617 3432 
Q 1894 3584 2278 3584 
Q 2916 3584 3314 3078 
Q 3713 2572 3713 1747 
Q 3713 922 3314 415 
Q 2916 -91 2278 -91 
Q 1894 -91 1617 61 
Q 1341 213 1159 525 
L 1159 0 
L 581 0 
L 581 4863 
L 1159 4863 
L 1159 2969 
z
" transform="scale(0.015625)"/>
      <path id="DejaVuSans-72" d="M 2631 2963 
Q 2534 3019 2420 3045 
Q 2306 3072 2169 3072 
Q 1681 3072 1420 2755 
Q 1159 2438 1159 1844 
L 1159 0 
L 581 0 
L 581 3500 
L 1159 3500 
L 1159 2956 
Q 1341 3275 1631 3429 
Q 1922 3584 2338 3584 
Q 2397 3584 2469 3576 
Q 2541 3569 2628 3553 
L 2631 2963 
z
" transform="scale(0.015625)"/>
     </defs>
     <use xlink:href="#DejaVuSans-4e"/>
     <use xlink:href="#DejaVuSans-6f" x="74.804688"/>
     <use xlink:href="#DejaVuSans-76" x="135.986328"/>
     <use xlink:href="#DejaVuSans-65" x="195.166016"/>
     <use xlink:href="#DejaVuSans-6d" x="256.689453"/>
     <use xlink:href="#DejaVuSans-62" x="354.101562"/>
     <use xlink:href="#DejaVuSans-65" x="417.578125"/>
     <use xlink:href="#DejaVuSans-72" x="479.101562"/>
     <use xlink:href="#DejaVuSans-20" x="520.214844"/>
     <use xlink:href="#DejaVuSans-32" x="552.001953"/>
     <use xlink:href="#DejaVuSans-30" x="615.625"/>
     <use xlink:href="#DejaVuSans-32" x="679.248047"/>
     <use xlink:href="#DejaVuSans-33" x="742.871094"/>
    </g>
   </g>
  </g>
 </g>
 <defs>
  <clipPath id="p020fda76d8">
   <rect x="51.05" y="25.44" width="398.95" height="254.121175"/>
  </clipPath>
 </defs>
</svg>
