<?xml version="1.0" encoding="utf-8" standalone="no"?>
<!DOCTYPE svg PUBLIC "-//W3C//DTD SVG 1.1//EN"
  "http://www.w3.org/Graphics/SVG/1.1/DTD/svg11.dtd">
<svg xmlns:xlink="http://www.w3.org/1999/xlink" width="460.8pt" height="345.6pt" viewBox="0 0 460.8 345.6" xmlns="http://www.w3.org/2000/svg" version="1.1">
 <metadata>
  <rdf:RDF xmlns:dc="http://purl.org/dc/elements/1.1/" xmlns:cc="http://creativecommons.org/ns#" xmlns:rdf="http://www.w3.org/1999/02/22-rdf-syntax-ns#">
   <cc:Work>
    <dc:type rdf:resource="http://purl.org/dc/dcmitype/StillImage"/>
    <dc:date>2023-11-06T19:24:01.201299</dc:date>
    <dc:format>image/svg+xml</dc:format>
    <dc:creator>
     <cc:Agent>
      <dc:title>Matplotlib v3.6.3, https://matplotlib.org/</dc:title>
     </cc:Agent>
    </dc:creator>
   </cc:Work>
  </rdf:RDF>
 </metadata>
 <defs>
  <style type="text/css">*{stroke-linejoin: round; stroke-linecap: butt}</style>
 </defs>
 <g id="figure_1">
  <g id="patch_1">
   <path d="M 0 345.6 
L 460.8 345.6 
L 460.8 0 
L 0 0 
z
" style="fill: #ffffff"/>
  </g>
  <g id="axes_1">
   <g id="patch_2">
    <path d="M 51.05 279.561175 
L 450 279.561175 
L 450 25.44 
L 51.05 25.44 
z
" style="fill: #ffffff"/>
   </g>
   <g id="matplotlib.axis_1">
    <g id="xtick_1">
     <g id="line2d_1">
      <path d="M 119.713056 279.561175 
L 119.713056 25.44 
" clip-path="url(#p94216f9cd9)" style="fill: none; stroke: #b0b0b0; stroke-width: 0.8; stroke-linecap: square"/>
     </g>
     <g id="line2d_2">
      <defs>
       <path id="m7d83d98949" d="M 0 0 
L 0 3.5 
" style="stroke: #000000; stroke-width: 0.8"/>
      </defs>
      <g>
       <use xlink:href="#m7d83d98949" x="119.713056" y="279.561175" style="stroke: #000000; stroke-width: 0.8"/>
      </g>
     </g>
     <g id="text_1">
      <!-- 2023-11-02 -->
      <g transform="translate(77.148543 333.028035) rotate(-45) scale(0.1 -0.1)">
       <defs>
        <path id="DejaVuSans-32" d="M 1228 531 
L 3431 531 
L 3431 0 
L 469 0 
L 469 531 
Q 828 903 1448 1529 
Q 2069 2156 2228 2338 
Q 2531 2678 2651 2914 
Q 2772 3150 2772 3378 
Q 2772 3750 2511 3984 
Q 2250 4219 1831 4219 
Q 1534 4219 1204 4116 
Q 875 4013 500 3803 
L 500 4441 
Q 881 4594 1212 4672 
Q 1544 4750 1819 4750 
Q 2544 4750 2975 4387 
Q 3406 4025 3406 3419 
Q 3406 3131 3298 2873 
Q 3191 2616 2906 2266 
Q 2828 2175 2409 1742 
Q 1991 1309 1228 531 
z
" transform="scale(0.015625)"/>
        <path id="DejaVuSans-30" d="M 2034 4250 
Q 1547 4250 1301 3770 
Q 1056 3291 1056 2328 
Q 1056 1369 1301 889 
Q 1547 409 2034 409 
Q 2525 409 2770 889 
Q 3016 1369 3016 2328 
Q 3016 3291 2770 3770 
Q 2525 4250 2034 4250 
z
M 2034 4750 
Q 2819 4750 3233 4129 
Q 3647 3509 3647 2328 
Q 3647 1150 3233 529 
Q 2819 -91 2034 -91 
Q 1250 -91 836 529 
Q 422 1150 422 2328 
Q 422 3509 836 4129 
Q 1250 4750 2034 4750 
z
" transform="scale(0.015625)"/>
        <path id="DejaVuSans-33" d="M 2597 2516 
Q 3050 2419 3304 2112 
Q 3559 1806 3559 1356 
Q 3559 666 3084 287 
Q 2609 -91 1734 -91 
Q 1441 -91 1130 -33 
Q 819 25 488 141 
L 488 750 
Q 750 597 1062 519 
Q 1375 441 1716 441 
Q 2309 441 2620 675 
Q 2931 909 2931 1356 
Q 2931 1769 2642 2001 
Q 2353 2234 1838 2234 
L 1294 2234 
L 1294 2753 
L 1863 2753 
Q 2328 2753 2575 2939 
Q 2822 3125 2822 3475 
Q 2822 3834 2567 4026 
Q 2313 4219 1838 4219 
Q 1578 4219 1281 4162 
Q 984 4106 628 3988 
L 628 4550 
Q 988 4650 1302 4700 
Q 1616 4750 1894 4750 
Q 2613 4750 3031 4423 
Q 3450 4097 3450 3541 
Q 3450 3153 3228 2886 
Q 3006 2619 2597 2516 
z
" transform="scale(0.015625)"/>
        <path id="DejaVuSans-2d" d="M 313 2009 
L 1997 2009 
L 1997 1497 
L 313 1497 
L 313 2009 
z
" transform="scale(0.015625)"/>
        <path id="DejaVuSans-31" d="M 794 531 
L 1825 531 
L 1825 4091 
L 703 3866 
L 703 4441 
L 1819 4666 
L 2450 4666 
L 2450 531 
L 3481 531 
L 3481 0 
L 794 0 
L 794 531 
z
" transform="scale(0.015625)"/>
       </defs>
       <use xlink:href="#DejaVuSans-32"/>
       <use xlink:href="#DejaVuSans-30" x="63.623047"/>
       <use xlink:href="#DejaVuSans-32" x="127.246094"/>
       <use xlink:href="#DejaVuSans-33" x="190.869141"/>
       <use xlink:href="#DejaVuSans-2d" x="254.492188"/>
       <use xlink:href="#DejaVuSans-31" x="290.576172"/>
       <use xlink:href="#DejaVuSans-31" x="354.199219"/>
       <use xlink:href="#DejaVuSans-2d" x="417.822266"/>
       <use xlink:href="#DejaVuSans-30" x="453.90625"/>
       <use xlink:href="#DejaVuSans-32" x="517.529297"/>
      </g>
     </g>
    </g>
    <g id="xtick_2">
     <g id="line2d_3">
      <path d="M 188.412661 279.561175 
L 188.412661 25.44 
" clip-path="url(#p94216f9cd9)" style="fill: none; stroke: #b0b0b0; stroke-width: 0.8; stroke-linecap: square"/>
     </g>
     <g id="line2d_4">
      <g>
       <use xlink:href="#m7d83d98949" x="188.412661" y="279.561175" style="stroke: #000000; stroke-width: 0.8"/>
      </g>
     </g>
     <g id="text_2">
      <!-- 2023-11-03 -->
      <g transform="translate(145.848148 333.028035) rotate(-45) scale(0.1 -0.1)">
       <use xlink:href="#DejaVuSans-32"/>
       <use xlink:href="#DejaVuSans-30" x="63.623047"/>
       <use xlink:href="#DejaVuSans-32" x="127.246094"/>
       <use xlink:href="#DejaVuSans-33" x="190.869141"/>
       <use xlink:href="#DejaVuSans-2d" x="254.492188"/>
       <use xlink:href="#DejaVuSans-31" x="290.576172"/>
       <use xlink:href="#DejaVuSans-31" x="354.199219"/>
       <use xlink:href="#DejaVuSans-2d" x="417.822266"/>
       <use xlink:href="#DejaVuSans-30" x="453.90625"/>
       <use xlink:href="#DejaVuSans-33" x="517.529297"/>
      </g>
     </g>
    </g>
    <g id="xtick_3">
     <g id="line2d_5">
      <path d="M 257.112267 279.561175 
L 257.112267 25.44 
" clip-path="url(#p94216f9cd9)" style="fill: none; stroke: #b0b0b0; stroke-width: 0.8; stroke-linecap: square"/>
     </g>
     <g id="line2d_6">
      <g>
       <use xlink:href="#m7d83d98949" x="257.112267" y="279.561175" style="stroke: #000000; stroke-width: 0.8"/>
      </g>
     </g>
     <g id="text_3">
      <!-- 2023-11-04 -->
      <g transform="translate(214.547753 333.028035) rotate(-45) scale(0.1 -0.1)">
       <defs>
        <path id="DejaVuSans-34" d="M 2419 4116 
L 825 1625 
L 2419 1625 
L 2419 4116 
z
M 2253 4666 
L 3047 4666 
L 3047 1625 
L 3713 1625 
L 3713 1100 
L 3047 1100 
L 3047 0 
L 2419 0 
L 2419 1100 
L 313 1100 
L 313 1709 
L 2253 4666 
z
" transform="scale(0.015625)"/>
       </defs>
       <use xlink:href="#DejaVuSans-32"/>
       <use xlink:href="#DejaVuSans-30" x="63.623047"/>
       <use xlink:href="#DejaVuSans-32" x="127.246094"/>
       <use xlink:href="#DejaVuSans-33" x="190.869141"/>
       <use xlink:href="#DejaVuSans-2d" x="254.492188"/>
       <use xlink:href="#DejaVuSans-31" x="290.576172"/>
       <use xlink:href="#DejaVuSans-31" x="354.199219"/>
       <use xlink:href="#DejaVuSans-2d" x="417.822266"/>
       <use xlink:href="#DejaVuSans-30" x="453.90625"/>
       <use xlink:href="#DejaVuSans-34" x="517.529297"/>
      </g>
     </g>
    </g>
    <g id="xtick_4">
     <g id="line2d_7">
      <path d="M 325.811872 279.561175 
L 325.811872 25.44 
" clip-path="url(#p94216f9cd9)" style="fill: none; stroke: #b0b0b0; stroke-width: 0.8; stroke-linecap: square"/>
     </g>
     <g id="line2d_8">
      <g>
       <use xlink:href="#m7d83d98949" x="325.811872" y="279.561175" style="stroke: #000000; stroke-width: 0.8"/>
      </g>
     </g>
     <g id="text_4">
      <!-- 2023-11-05 -->
      <g transform="translate(283.247358 333.028035) rotate(-45) scale(0.1 -0.1)">
       <defs>
        <path id="DejaVuSans-35" d="M 691 4666 
L 3169 4666 
L 3169 4134 
L 1269 4134 
L 1269 2991 
Q 1406 3038 1543 3061 
Q 1681 3084 1819 3084 
Q 2600 3084 3056 2656 
Q 3513 2228 3513 1497 
Q 3513 744 3044 326 
Q 2575 -91 1722 -91 
Q 1428 -91 1123 -41 
Q 819 9 494 109 
L 494 744 
Q 775 591 1075 516 
Q 1375 441 1709 441 
Q 2250 441 2565 725 
Q 2881 1009 2881 1497 
Q 2881 1984 2565 2268 
Q 2250 2553 1709 2553 
Q 1456 2553 1204 2497 
Q 953 2441 691 2322 
L 691 4666 
z
" transform="scale(0.015625)"/>
       </defs>
       <use xlink:href="#DejaVuSans-32"/>
       <use xlink:href="#DejaVuSans-30" x="63.623047"/>
       <use xlink:href="#DejaVuSans-32" x="127.246094"/>
       <use xlink:href="#DejaVuSans-33" x="190.869141"/>
       <use xlink:href="#DejaVuSans-2d" x="254.492188"/>
       <use xlink:href="#DejaVuSans-31" x="290.576172"/>
       <use xlink:href="#DejaVuSans-31" x="354.199219"/>
       <use xlink:href="#DejaVuSans-2d" x="417.822266"/>
       <use xlink:href="#DejaVuSans-30" x="453.90625"/>
       <use xlink:href="#DejaVuSans-35" x="517.529297"/>
      </g>
     </g>
    </g>
    <g id="xtick_5">
     <g id="line2d_9">
      <path d="M 394.511477 279.561175 
L 394.511477 25.44 
" clip-path="url(#p94216f9cd9)" style="fill: none; stroke: #b0b0b0; stroke-width: 0.8; stroke-linecap: square"/>
     </g>
     <g id="line2d_10">
      <g>
       <use xlink:href="#m7d83d98949" x="394.511477" y="279.561175" style="stroke: #000000; stroke-width: 0.8"/>
      </g>
     </g>
     <g id="text_5">
      <!-- 2023-11-06 -->
      <g transform="translate(351.946963 333.028035) rotate(-45) scale(0.1 -0.1)">
       <defs>
        <path id="DejaVuSans-36" d="M 2113 2584 
Q 1688 2584 1439 2293 
Q 1191 2003 1191 1497 
Q 1191 994 1439 701 
Q 1688 409 2113 409 
Q 2538 409 2786 701 
Q 3034 994 3034 1497 
Q 3034 2003 2786 2293 
Q 2538 2584 2113 2584 
z
M 3366 4563 
L 3366 3988 
Q 3128 4100 2886 4159 
Q 2644 4219 2406 4219 
Q 1781 4219 1451 3797 
Q 1122 3375 1075 2522 
Q 1259 2794 1537 2939 
Q 1816 3084 2150 3084 
Q 2853 3084 3261 2657 
Q 3669 2231 3669 1497 
Q 3669 778 3244 343 
Q 2819 -91 2113 -91 
Q 1303 -91 875 529 
Q 447 1150 447 2328 
Q 447 3434 972 4092 
Q 1497 4750 2381 4750 
Q 2619 4750 2861 4703 
Q 3103 4656 3366 4563 
z
" transform="scale(0.015625)"/>
       </defs>
       <use xlink:href="#DejaVuSans-32"/>
       <use xlink:href="#DejaVuSans-30" x="63.623047"/>
       <use xlink:href="#DejaVuSans-32" x="127.246094"/>
       <use xlink:href="#DejaVuSans-33" x="190.869141"/>
       <use xlink:href="#DejaVuSans-2d" x="254.492188"/>
       <use xlink:href="#DejaVuSans-31" x="290.576172"/>
       <use xlink:href="#DejaVuSans-31" x="354.199219"/>
       <use xlink:href="#DejaVuSans-2d" x="417.822266"/>
       <use xlink:href="#DejaVuSans-30" x="453.90625"/>
       <use xlink:href="#DejaVuSans-36" x="517.529297"/>
      </g>
     </g>
    </g>
   </g>
   <g id="matplotlib.axis_2">
    <g id="ytick_1">
     <g id="line2d_11">
      <path d="M 51.05 279.561175 
L 450 279.561175 
" clip-path="url(#p94216f9cd9)" style="fill: none; stroke: #b0b0b0; stroke-width: 0.8; stroke-linecap: square"/>
     </g>
     <g id="line2d_12">
      <defs>
       <path id="m2921b348ab" d="M 0 0 
L -3.5 0 
" style="stroke: #000000; stroke-width: 0.8"/>
      </defs>
      <g>
       <use xlink:href="#m2921b348ab" x="51.05" y="279.561175" style="stroke: #000000; stroke-width: 0.8"/>
      </g>
     </g>
     <g id="text_6">
      <!-- 0 -->
      <g transform="translate(37.6875 283.360394) scale(0.1 -0.1)">
       <use xlink:href="#DejaVuSans-30"/>
      </g>
     </g>
    </g>
    <g id="ytick_2">
     <g id="line2d_13">
      <path d="M 51.05 228.73694 
L 450 228.73694 
" clip-path="url(#p94216f9cd9)" style="fill: none; stroke: #b0b0b0; stroke-width: 0.8; stroke-linecap: square"/>
     </g>
     <g id="line2d_14">
      <g>
       <use xlink:href="#m2921b348ab" x="51.05" y="228.73694" style="stroke: #000000; stroke-width: 0.8"/>
      </g>
     </g>
     <g id="text_7">
      <!-- 20 -->
      <g transform="translate(31.325 232.536159) scale(0.1 -0.1)">
       <use xlink:href="#DejaVuSans-32"/>
       <use xlink:href="#DejaVuSans-30" x="63.623047"/>
      </g>
     </g>
    </g>
    <g id="ytick_3">
     <g id="line2d_15">
      <path d="M 51.05 177.912705 
L 450 177.912705 
" clip-path="url(#p94216f9cd9)" style="fill: none; stroke: #b0b0b0; stroke-width: 0.8; stroke-linecap: square"/>
     </g>
     <g id="line2d_16">
      <g>
       <use xlink:href="#m2921b348ab" x="51.05" y="177.912705" style="stroke: #000000; stroke-width: 0.8"/>
      </g>
     </g>
     <g id="text_8">
      <!-- 40 -->
      <g transform="translate(31.325 181.711924) scale(0.1 -0.1)">
       <use xlink:href="#DejaVuSans-34"/>
       <use xlink:href="#DejaVuSans-30" x="63.623047"/>
      </g>
     </g>
    </g>
    <g id="ytick_4">
     <g id="line2d_17">
      <path d="M 51.05 127.08847 
L 450 127.08847 
" clip-path="url(#p94216f9cd9)" style="fill: none; stroke: #b0b0b0; stroke-width: 0.8; stroke-linecap: square"/>
     </g>
     <g id="line2d_18">
      <g>
       <use xlink:href="#m2921b348ab" x="51.05" y="127.08847" style="stroke: #000000; stroke-width: 0.8"/>
      </g>
     </g>
     <g id="text_9">
      <!-- 60 -->
      <g transform="translate(31.325 130.887689) scale(0.1 -0.1)">
       <use xlink:href="#DejaVuSans-36"/>
       <use xlink:href="#DejaVuSans-30" x="63.623047"/>
      </g>
     </g>
    </g>
    <g id="ytick_5">
     <g id="line2d_19">
      <path d="M 51.05 76.264235 
L 450 76.264235 
" clip-path="url(#p94216f9cd9)" style="fill: none; stroke: #b0b0b0; stroke-width: 0.8; stroke-linecap: square"/>
     </g>
     <g id="line2d_20">
      <g>
       <use xlink:href="#m2921b348ab" x="51.05" y="76.264235" style="stroke: #000000; stroke-width: 0.8"/>
      </g>
     </g>
     <g id="text_10">
      <!-- 80 -->
      <g transform="translate(31.325 80.063454) scale(0.1 -0.1)">
       <defs>
        <path id="DejaVuSans-38" d="M 2034 2216 
Q 1584 2216 1326 1975 
Q 1069 1734 1069 1313 
Q 1069 891 1326 650 
Q 1584 409 2034 409 
Q 2484 409 2743 651 
Q 3003 894 3003 1313 
Q 3003 1734 2745 1975 
Q 2488 2216 2034 2216 
z
M 1403 2484 
Q 997 2584 770 2862 
Q 544 3141 544 3541 
Q 544 4100 942 4425 
Q 1341 4750 2034 4750 
Q 2731 4750 3128 4425 
Q 3525 4100 3525 3541 
Q 3525 3141 3298 2862 
Q 3072 2584 2669 2484 
Q 3125 2378 3379 2068 
Q 3634 1759 3634 1313 
Q 3634 634 3220 271 
Q 2806 -91 2034 -91 
Q 1263 -91 848 271 
Q 434 634 434 1313 
Q 434 1759 690 2068 
Q 947 2378 1403 2484 
z
M 1172 3481 
Q 1172 3119 1398 2916 
Q 1625 2713 2034 2713 
Q 2441 2713 2670 2916 
Q 2900 3119 2900 3481 
Q 2900 3844 2670 4047 
Q 2441 4250 2034 4250 
Q 1625 4250 1398 4047 
Q 1172 3844 1172 3481 
z
" transform="scale(0.015625)"/>
       </defs>
       <use xlink:href="#DejaVuSans-38"/>
       <use xlink:href="#DejaVuSans-30" x="63.623047"/>
      </g>
     </g>
    </g>
    <g id="ytick_6">
     <g id="line2d_21">
      <path d="M 51.05 25.44 
L 450 25.44 
" clip-path="url(#p94216f9cd9)" style="fill: none; stroke: #b0b0b0; stroke-width: 0.8; stroke-linecap: square"/>
     </g>
     <g id="line2d_22">
      <g>
       <use xlink:href="#m2921b348ab" x="51.05" y="25.44" style="stroke: #000000; stroke-width: 0.8"/>
      </g>
     </g>
     <g id="text_11">
      <!-- 100 -->
      <g transform="translate(24.9625 29.239219) scale(0.1 -0.1)">
       <use xlink:href="#DejaVuSans-31"/>
       <use xlink:href="#DejaVuSans-30" x="63.623047"/>
       <use xlink:href="#DejaVuSans-30" x="127.246094"/>
      </g>
     </g>
    </g>
    <g id="text_12">
     <!-- Humidity [%RH] -->
     <g transform="translate(18.882812 192.647463) rotate(-90) scale(0.1 -0.1)">
      <defs>
       <path id="DejaVuSans-48" d="M 628 4666 
L 1259 4666 
L 1259 2753 
L 3553 2753 
L 3553 4666 
L 4184 4666 
L 4184 0 
L 3553 0 
L 3553 2222 
L 1259 2222 
L 1259 0 
L 628 0 
L 628 4666 
z
" transform="scale(0.015625)"/>
       <path id="DejaVuSans-75" d="M 544 1381 
L 544 3500 
L 1119 3500 
L 1119 1403 
Q 1119 906 1312 657 
Q 1506 409 1894 409 
Q 2359 409 2629 706 
Q 2900 1003 2900 1516 
L 2900 3500 
L 3475 3500 
L 3475 0 
L 2900 0 
L 2900 538 
Q 2691 219 2414 64 
Q 2138 -91 1772 -91 
Q 1169 -91 856 284 
Q 544 659 544 1381 
z
M 1991 3584 
L 1991 3584 
z
" transform="scale(0.015625)"/>
       <path id="DejaVuSans-6d" d="M 3328 2828 
Q 3544 3216 3844 3400 
Q 4144 3584 4550 3584 
Q 5097 3584 5394 3201 
Q 5691 2819 5691 2113 
L 5691 0 
L 5113 0 
L 5113 2094 
Q 5113 2597 4934 2840 
Q 4756 3084 4391 3084 
Q 3944 3084 3684 2787 
Q 3425 2491 3425 1978 
L 3425 0 
L 2847 0 
L 2847 2094 
Q 2847 2600 2669 2842 
Q 2491 3084 2119 3084 
Q 1678 3084 1418 2786 
Q 1159 2488 1159 1978 
L 1159 0 
L 581 0 
L 581 3500 
L 1159 3500 
L 1159 2956 
Q 1356 3278 1631 3431 
Q 1906 3584 2284 3584 
Q 2666 3584 2933 3390 
Q 3200 3197 3328 2828 
z
" transform="scale(0.015625)"/>
       <path id="DejaVuSans-69" d="M 603 3500 
L 1178 3500 
L 1178 0 
L 603 0 
L 603 3500 
z
M 603 4863 
L 1178 4863 
L 1178 4134 
L 603 4134 
L 603 4863 
z
" transform="scale(0.015625)"/>
       <path id="DejaVuSans-64" d="M 2906 2969 
L 2906 4863 
L 3481 4863 
L 3481 0 
L 2906 0 
L 2906 525 
Q 2725 213 2448 61 
Q 2172 -91 1784 -91 
Q 1150 -91 751 415 
Q 353 922 353 1747 
Q 353 2572 751 3078 
Q 1150 3584 1784 3584 
Q 2172 3584 2448 3432 
Q 2725 3281 2906 2969 
z
M 947 1747 
Q 947 1113 1208 752 
Q 1469 391 1925 391 
Q 2381 391 2643 752 
Q 2906 1113 2906 1747 
Q 2906 2381 2643 2742 
Q 2381 3103 1925 3103 
Q 1469 3103 1208 2742 
Q 947 2381 947 1747 
z
" transform="scale(0.015625)"/>
       <path id="DejaVuSans-74" d="M 1172 4494 
L 1172 3500 
L 2356 3500 
L 2356 3053 
L 1172 3053 
L 1172 1153 
Q 1172 725 1289 603 
Q 1406 481 1766 481 
L 2356 481 
L 2356 0 
L 1766 0 
Q 1100 0 847 248 
Q 594 497 594 1153 
L 594 3053 
L 172 3053 
L 172 3500 
L 594 3500 
L 594 4494 
L 1172 4494 
z
" transform="scale(0.015625)"/>
       <path id="DejaVuSans-79" d="M 2059 -325 
Q 1816 -950 1584 -1140 
Q 1353 -1331 966 -1331 
L 506 -1331 
L 506 -850 
L 844 -850 
Q 1081 -850 1212 -737 
Q 1344 -625 1503 -206 
L 1606 56 
L 191 3500 
L 800 3500 
L 1894 763 
L 2988 3500 
L 3597 3500 
L 2059 -325 
z
" transform="scale(0.015625)"/>
       <path id="DejaVuSans-20" transform="scale(0.015625)"/>
       <path id="DejaVuSans-5b" d="M 550 4863 
L 1875 4863 
L 1875 4416 
L 1125 4416 
L 1125 -397 
L 1875 -397 
L 1875 -844 
L 550 -844 
L 550 4863 
z
" transform="scale(0.015625)"/>
       <path id="DejaVuSans-25" d="M 4653 2053 
Q 4381 2053 4226 1822 
Q 4072 1591 4072 1178 
Q 4072 772 4226 539 
Q 4381 306 4653 306 
Q 4919 306 5073 539 
Q 5228 772 5228 1178 
Q 5228 1588 5073 1820 
Q 4919 2053 4653 2053 
z
M 4653 2450 
Q 5147 2450 5437 2106 
Q 5728 1763 5728 1178 
Q 5728 594 5436 251 
Q 5144 -91 4653 -91 
Q 4153 -91 3862 251 
Q 3572 594 3572 1178 
Q 3572 1766 3864 2108 
Q 4156 2450 4653 2450 
z
M 1428 4353 
Q 1159 4353 1004 4120 
Q 850 3888 850 3481 
Q 850 3069 1003 2837 
Q 1156 2606 1428 2606 
Q 1700 2606 1854 2837 
Q 2009 3069 2009 3481 
Q 2009 3884 1853 4118 
Q 1697 4353 1428 4353 
z
M 4250 4750 
L 4750 4750 
L 1831 -91 
L 1331 -91 
L 4250 4750 
z
M 1428 4750 
Q 1922 4750 2215 4408 
Q 2509 4066 2509 3481 
Q 2509 2891 2217 2550 
Q 1925 2209 1428 2209 
Q 931 2209 642 2551 
Q 353 2894 353 3481 
Q 353 4063 643 4406 
Q 934 4750 1428 4750 
z
" transform="scale(0.015625)"/>
       <path id="DejaVuSans-52" d="M 2841 2188 
Q 3044 2119 3236 1894 
Q 3428 1669 3622 1275 
L 4263 0 
L 3584 0 
L 2988 1197 
Q 2756 1666 2539 1819 
Q 2322 1972 1947 1972 
L 1259 1972 
L 1259 0 
L 628 0 
L 628 4666 
L 2053 4666 
Q 2853 4666 3247 4331 
Q 3641 3997 3641 3322 
Q 3641 2881 3436 2590 
Q 3231 2300 2841 2188 
z
M 1259 4147 
L 1259 2491 
L 2053 2491 
Q 2509 2491 2742 2702 
Q 2975 2913 2975 3322 
Q 2975 3731 2742 3939 
Q 2509 4147 2053 4147 
L 1259 4147 
z
" transform="scale(0.015625)"/>
       <path id="DejaVuSans-5d" d="M 1947 4863 
L 1947 -844 
L 622 -844 
L 622 -397 
L 1369 -397 
L 1369 4416 
L 622 4416 
L 622 4863 
L 1947 4863 
z
" transform="scale(0.015625)"/>
      </defs>
      <use xlink:href="#DejaVuSans-48"/>
      <use xlink:href="#DejaVuSans-75" x="75.195312"/>
      <use xlink:href="#DejaVuSans-6d" x="138.574219"/>
      <use xlink:href="#DejaVuSans-69" x="235.986328"/>
      <use xlink:href="#DejaVuSans-64" x="263.769531"/>
      <use xlink:href="#DejaVuSans-69" x="327.246094"/>
      <use xlink:href="#DejaVuSans-74" x="355.029297"/>
      <use xlink:href="#DejaVuSans-79" x="394.238281"/>
      <use xlink:href="#DejaVuSans-20" x="453.417969"/>
      <use xlink:href="#DejaVuSans-5b" x="485.205078"/>
      <use xlink:href="#DejaVuSans-25" x="524.21875"/>
      <use xlink:href="#DejaVuSans-52" x="619.238281"/>
      <use xlink:href="#DejaVuSans-48" x="688.720703"/>
      <use xlink:href="#DejaVuSans-5d" x="763.916016"/>
     </g>
    </g>
   </g>
   <g id="line2d_23">
    <path d="M 51.05 58.475753 
L 51.240672 58.475753 
L 51.355433 55.934541 
L 51.393337 55.934541 
L 51.508045 53.393329 
L 51.546004 53.393329 
L 51.622817 50.852118 
L 52.003994 50.852118 
L 52.118715 48.310906 
L 52.919979 48.310906 
L 53.034696 50.852118 
L 53.263592 50.852118 
L 53.377974 53.393329 
L 53.645347 53.393329 
L 53.759638 55.934541 
L 54.561108 55.934541 
L 54.675624 58.475753 
L 55.133614 58.475753 
L 55.209949 61.016965 
L 55.286282 61.016965 
L 55.400955 58.475753 
L 56.736595 58.475753 
L 56.851244 61.016965 
L 56.92764 61.016965 
L 57.041922 58.475753 
L 57.080291 58.475753 
L 57.194588 55.934541 
L 57.232948 55.934541 
L 57.347251 53.393329 
L 57.538288 53.393329 
L 57.652586 55.934541 
L 58.530607 55.934541 
L 58.644907 58.475753 
L 58.797572 58.475753 
L 58.950232 61.016965 
L 59.294003 61.016965 
L 59.40823 63.558176 
L 59.78989 63.558176 
L 59.904599 61.016965 
L 59.98093 61.016965 
L 60.09522 63.558176 
L 61.011678 63.558176 
L 61.163865 58.475753 
L 61.240202 58.475753 
L 61.354898 55.934541 
L 61.66027 55.934541 
L 61.774529 58.475753 
L 62.041906 58.475753 
L 62.156186 61.016965 
L 62.308856 61.016965 
L 62.385185 63.558176 
L 62.537849 63.558176 
L 62.652523 66.099388 
L 63.186683 66.099388 
L 63.30117 63.558176 
L 63.339527 63.558176 
L 63.453837 61.016965 
L 63.492203 61.016965 
L 63.606502 63.558176 
L 64.255534 63.558176 
L 64.369821 61.016965 
L 64.980481 61.016965 
L 65.095183 58.475753 
L 65.591135 58.475753 
L 65.744195 63.558176 
L 65.820136 63.558176 
L 65.972803 68.6406 
L 66.049123 68.6406 
L 66.163774 71.181812 
L 66.2018 71.181812 
L 66.316496 73.723023 
L 66.507128 73.723023 
L 66.621828 76.264235 
L 66.659791 76.264235 
L 66.812459 73.723023 
L 66.888786 73.723023 
L 67.00343 76.264235 
L 67.041453 76.264235 
L 67.156154 73.723023 
L 67.194117 73.723023 
L 67.308867 71.181812 
L 67.766825 71.181812 
L 67.881108 73.723023 
L 68.530173 73.723023 
L 68.644431 76.264235 
L 69.560417 76.264235 
L 69.789414 71.181812 
L 69.904097 71.181812 
L 70.018411 68.6406 
L 70.247407 68.6406 
L 70.400074 66.099388 
L 70.438412 66.099388 
L 70.552736 63.558176 
L 70.629066 63.558176 
L 70.743785 61.016965 
L 71.125335 61.016965 
L 71.239727 58.475753 
L 72.079383 58.475753 
L 72.194121 61.016965 
L 72.27045 61.016965 
L 72.423107 63.558176 
L 72.995373 63.558176 
L 73.110103 66.099388 
L 73.262601 66.099388 
L 73.377037 68.6406 
L 73.41543 68.6406 
L 73.529699 71.181812 
L 73.568109 71.181812 
L 73.682364 73.723023 
L 73.720759 73.723023 
L 73.835032 76.264235 
L 73.949522 76.264235 
L 74.178767 86.429082 
L 74.407728 76.264235 
L 75.13268 76.264235 
L 75.285342 86.429082 
L 75.476369 111.8412 
L 75.514338 111.8412 
L 75.819663 127.08847 
L 75.972326 127.08847 
L 76.01074 124.547258 
L 76.049075 127.08847 
L 76.277654 122.006047 
L 76.392407 122.006047 
L 76.506654 124.547258 
L 76.545072 124.547258 
L 76.582981 122.006047 
L 76.621421 124.547258 
L 76.659313 124.547258 
L 76.735647 127.08847 
L 76.850215 127.08847 
L 77.155654 142.335741 
L 77.193635 142.335741 
L 77.384722 134.712105 
L 77.61356 144.876952 
L 77.689971 144.876952 
L 77.842728 139.794529 
L 77.919067 139.794529 
L 78.109618 147.418164 
L 78.148049 147.418164 
L 78.262285 144.876952 
L 78.377046 144.876952 
L 78.491279 147.418164 
L 78.682345 139.794529 
L 78.720267 139.794529 
L 78.987482 127.08847 
L 79.101931 127.08847 
L 79.216712 124.547258 
L 79.254591 124.547258 
L 79.369366 122.006047 
L 79.407256 122.006047 
L 79.521954 124.547258 
L 79.598373 124.547258 
L 79.712587 127.08847 
L 80.628563 127.08847 
L 80.781222 122.006047 
L 80.933886 122.006047 
L 81.01022 124.547258 
L 81.201177 124.547258 
L 81.315553 127.08847 
L 81.620877 127.08847 
L 81.735608 129.629682 
L 81.773804 129.629682 
L 81.926204 127.08847 
L 81.964613 127.08847 
L 82.078864 124.547258 
L 82.155195 124.547258 
L 82.269815 122.006047 
L 82.536845 122.006047 
L 82.651598 124.547258 
L 82.842181 124.547258 
L 82.956908 122.006047 
L 82.994841 122.006047 
L 83.10958 119.464835 
L 83.147508 122.006047 
L 83.300172 119.464835 
L 83.643875 119.464835 
L 83.75816 122.006047 
L 83.834493 122.006047 
L 83.911162 124.547258 
L 84.216148 124.547258 
L 84.330902 122.006047 
L 84.40729 122.006047 
L 84.52148 127.08847 
L 84.597811 124.547258 
L 84.674507 124.547258 
L 84.750474 127.08847 
L 85.055803 127.08847 
L 85.246818 144.876952 
L 85.475783 132.170894 
L 85.628604 139.794529 
L 85.742787 137.253317 
L 85.895444 137.253317 
L 86.124441 127.08847 
L 86.200774 127.08847 
L 86.277104 124.547258 
L 86.315529 127.08847 
L 86.353435 124.547258 
L 86.620864 124.547258 
L 86.735093 122.006047 
L 86.887764 122.006047 
L 86.926129 119.464835 
L 86.964094 122.006047 
L 87.078859 122.006047 
L 87.193081 124.547258 
L 87.345749 124.547258 
L 87.460512 122.006047 
L 87.88007 122.006047 
L 87.918379 119.464835 
L 87.956402 122.006047 
L 88.147532 122.006047 
L 88.261719 124.547258 
L 88.490722 124.547258 
L 88.605411 122.006047 
L 88.719715 122.006047 
L 88.834438 124.547258 
L 89.101377 124.547258 
L 89.216061 122.006047 
L 89.788364 122.006047 
L 90.01736 132.170894 
L 90.055738 132.170894 
L 90.170025 134.712105 
L 90.246359 134.712105 
L 90.399373 129.629682 
L 90.513742 132.170894 
L 90.590114 132.170894 
L 90.704342 129.629682 
L 90.742724 129.629682 
L 90.857006 127.08847 
L 91.048154 127.08847 
L 91.162332 124.547258 
L 91.620324 124.547258 
L 91.735116 122.006047 
L 91.887587 122.006047 
L 91.964085 124.547258 
L 92.078313 122.006047 
L 93.185381 122.006047 
L 93.337931 116.923623 
L 93.452287 116.923623 
L 93.567124 114.382411 
L 93.604949 114.382411 
L 93.719611 111.8412 
L 93.910276 111.8412 
L 94.291937 101.676353 
L 94.902592 101.676353 
L 95.017353 99.135141 
L 95.246359 99.135141 
L 95.360971 96.593929 
L 95.51325 96.593929 
L 95.628038 94.052717 
L 95.665912 94.052717 
L 95.780745 96.593929 
L 96.047574 96.593929 
L 96.200238 94.052717 
L 96.734559 94.052717 
L 96.849046 76.264235 
L 96.925548 76.264235 
L 97.03989 73.723023 
L 97.230994 73.723023 
L 97.345218 71.181812 
L 97.421549 71.181812 
L 97.498345 68.6406 
L 97.72688 68.6406 
L 97.841682 66.099388 
L 98.719202 66.099388 
L 98.834017 63.558176 
L 99.062823 63.558176 
L 99.177199 61.016965 
L 99.635192 61.016965 
L 99.787855 58.475753 
L 99.864188 58.475753 
L 99.978947 55.934541 
L 100.016855 55.934541 
L 100.131639 53.393329 
L 100.551172 53.393329 
L 100.665988 55.934541 
L 102.306812 55.934541 
L 102.421507 53.393329 
L 102.955963 53.393329 
L 103.07013 50.852118 
L 104.062441 50.852118 
L 104.177252 48.310906 
L 105.703845 48.310906 
L 105.818079 45.769694 
L 106.123774 45.769694 
L 106.276072 43.228482 
L 106.734057 43.228482 
L 106.81039 40.687271 
L 107.306848 40.687271 
L 107.421041 38.146059 
L 109.253011 38.146059 
L 109.367813 35.604847 
L 110.512569 35.604847 
L 110.626987 33.063635 
L 112.268363 33.063635 
L 112.382615 30.522424 
L 114.138247 30.522424 
L 114.253062 27.981212 
L 166.311428 27.981212 
L 166.464021 33.063635 
L 166.50203 33.063635 
L 166.616815 35.604847 
L 166.693132 35.604847 
L 166.807361 38.146059 
L 166.922129 38.146059 
L 167.036353 40.687271 
L 167.112692 40.687271 
L 167.227421 43.228482 
L 167.837865 43.228482 
L 167.952339 45.769694 
L 168.334005 45.769694 
L 168.44879 48.310906 
L 169.364709 48.310906 
L 169.47899 45.769694 
L 170.204306 45.769694 
L 170.318645 43.228482 
L 171.310969 43.228482 
L 171.463631 40.687271 
L 173.829931 40.687271 
L 173.944739 43.228482 
L 174.516925 43.228482 
L 174.631729 40.687271 
L 176.730557 40.687271 
L 176.845183 38.146059 
L 177.570211 38.146059 
L 177.684994 35.604847 
L 178.257211 35.604847 
L 178.371937 33.063635 
L 178.906233 33.063635 
L 179.020528 30.522424 
L 180.241838 30.522424 
L 180.356517 27.981212 
L 181.806819 27.981212 
L 181.921148 30.522424 
L 182.302802 30.522424 
L 182.45547 33.063635 
L 182.608134 33.063635 
L 182.722868 35.604847 
L 182.951737 35.604847 
L 183.066123 38.146059 
L 183.33361 38.146059 
L 183.447787 40.687271 
L 183.791594 40.687271 
L 183.905778 43.228482 
L 184.745431 43.228482 
L 184.860254 45.769694 
L 185.775924 45.769694 
L 185.890415 43.228482 
L 186.157755 43.228482 
L 186.272078 40.687271 
L 186.615847 40.687271 
L 186.730065 38.146059 
L 187.18846 38.146059 
L 187.302655 35.604847 
L 187.760857 35.604847 
L 187.87555 38.146059 
L 187.989696 38.146059 
L 188.104044 40.687271 
L 188.14249 40.687271 
L 188.25671 43.228482 
L 188.333041 43.228482 
L 188.447781 45.769694 
L 189.020033 45.769694 
L 189.134875 43.228482 
L 189.478026 43.228482 
L 189.592768 40.687271 
L 190.012843 40.687271 
L 190.165015 38.146059 
L 190.77611 38.146059 
L 190.890388 35.604847 
L 191.653782 35.604847 
L 191.767991 33.063635 
L 193.027656 33.063635 
L 193.141972 30.522424 
L 193.867369 30.522424 
L 193.981623 33.063635 
L 194.21062 33.063635 
L 194.286949 35.604847 
L 194.592278 35.604847 
L 194.707102 38.146059 
L 195.050662 38.146059 
L 195.164928 40.687271 
L 197.569235 40.687271 
L 197.68397 38.146059 
L 198.371006 38.146059 
L 198.485223 35.604847 
L 198.905268 35.604847 
L 199.019542 38.146059 
L 199.553868 38.146059 
L 199.668674 40.687271 
L 200.469855 40.687271 
L 200.584559 43.228482 
L 202.11125 43.228482 
L 202.225947 40.687271 
L 203.599475 40.687271 
L 203.752142 43.228482 
L 203.82875 43.228482 
L 203.981133 48.310906 
L 204.095895 48.310906 
L 204.210127 50.852118 
L 204.439127 50.852118 
L 204.55382 48.310906 
L 204.935618 48.310906 
L 205.049785 45.769694 
L 205.355111 45.769694 
L 205.469907 48.310906 
L 205.813588 48.310906 
L 205.927757 45.769694 
L 207.072881 45.769694 
L 207.187083 43.228482 
L 208.790058 43.228482 
L 208.904822 40.687271 
L 209.362856 40.687271 
L 209.477049 43.228482 
L 210.851368 43.228482 
L 210.965707 45.769694 
L 211.118414 45.769694 
L 211.232688 43.228482 
L 211.843346 43.228482 
L 211.958074 45.769694 
L 212.1107 45.769694 
L 212.225006 48.310906 
L 212.377672 45.769694 
L 212.416048 45.769694 
L 212.530337 48.310906 
L 212.645185 45.769694 
L 213.102949 45.769694 
L 213.217322 43.228482 
L 213.827982 43.228482 
L 213.942645 40.687271 
L 214.439102 40.687271 
L 214.553263 43.228482 
L 215.125989 43.228482 
L 215.278297 45.769694 
L 215.58362 45.769694 
L 215.698465 48.310906 
L 216.270611 48.310906 
L 216.385422 45.769694 
L 218.789589 45.769694 
L 218.904229 48.310906 
L 222.568337 48.310906 
L 222.682525 50.852118 
L 222.987854 50.852118 
L 223.140516 48.310906 
L 223.75157 48.310906 
L 223.903841 50.852118 
L 224.018601 50.852118 
L 224.132835 48.310906 
L 224.438168 48.310906 
L 224.590831 50.852118 
L 224.667158 50.852118 
L 224.781884 53.393329 
L 225.010911 53.393329 
L 225.125152 50.852118 
L 225.506813 50.852118 
L 225.659476 55.934541 
L 225.812145 55.934541 
L 225.888891 58.475753 
L 226.003077 58.475753 
L 226.117469 61.016965 
L 226.193803 61.016965 
L 226.308569 63.558176 
L 226.575462 63.558176 
L 226.728124 66.099388 
L 226.766495 66.099388 
L 226.804459 63.558176 
L 226.842892 66.099388 
L 227.109787 66.099388 
L 227.22451 68.6406 
L 227.64411 68.6406 
L 227.758897 66.099388 
L 227.94944 66.099388 
L 228.102098 71.181812 
L 228.216825 71.181812 
L 228.331098 68.6406 
L 228.865427 68.6406 
L 228.980221 66.099388 
L 229.01809 66.099388 
L 229.132886 63.558176 
L 229.170753 63.558176 
L 229.285589 61.016965 
L 229.705081 61.016965 
L 229.819889 58.475753 
L 231.002728 58.475753 
L 231.117543 55.934541 
L 231.613387 55.934541 
L 231.766049 58.475753 
L 231.918714 58.475753 
L 232.033448 61.016965 
L 232.414881 61.016965 
L 232.491383 58.475753 
L 232.605704 61.016965 
L 232.8347 61.016965 
L 232.949377 63.558176 
L 233.254808 63.558176 
L 233.369023 61.016965 
L 233.827487 61.016965 
L 233.941729 58.475753 
L 234.018153 58.475753 
L 234.132345 55.934541 
L 234.361343 55.934541 
L 234.476122 53.393329 
L 234.743006 53.393329 
L 234.857798 50.852118 
L 235.658986 50.852118 
L 235.773811 48.310906 
L 236.231717 48.310906 
L 236.345978 50.852118 
L 236.384241 50.852118 
L 236.537024 55.934541 
L 236.651696 55.934541 
L 236.803969 58.475753 
L 236.918683 58.475753 
L 237.03297 55.934541 
L 237.185631 55.934541 
L 237.300456 53.393329 
L 237.872621 53.393329 
L 237.987324 50.852118 
L 238.025288 50.852118 
L 238.177952 55.934541 
L 238.254284 55.934541 
L 238.369013 58.475753 
L 238.445431 58.475753 
L 238.559609 61.016965 
L 238.597999 61.016965 
L 238.750743 66.099388 
L 238.979687 66.099388 
L 239.093936 68.6406 
L 239.475596 68.6406 
L 239.590107 71.181812 
L 239.704594 68.6406 
L 240.582706 68.6406 
L 240.696921 66.099388 
L 240.811716 66.099388 
L 240.925916 63.558176 
L 241.269686 63.558176 
L 241.30758 61.016965 
L 241.346061 63.558176 
L 241.803855 63.558176 
L 241.918236 61.016965 
L 242.14723 61.016965 
L 242.261802 63.558176 
L 242.910559 63.558176 
L 243.025233 66.099388 
L 243.941138 66.099388 
L 244.055541 63.558176 
L 244.437205 63.558176 
L 244.513536 61.016965 
L 244.742533 61.016965 
L 244.8952 66.099388 
L 244.971533 66.099388 
L 245.08618 68.6406 
L 245.20053 68.6406 
L 245.277298 71.181812 
L 245.620541 71.181812 
L 245.734856 68.6406 
L 246.040543 68.6406 
L 246.15489 71.181812 
L 246.345517 71.181812 
L 246.46021 73.723023 
L 246.612843 73.723023 
L 246.727702 76.264235 
L 246.918241 76.264235 
L 247.032509 78.805447 
L 247.147198 76.264235 
L 247.643173 76.264235 
L 247.681524 73.723023 
L 247.719509 76.264235 
L 247.757796 76.264235 
L 247.795838 73.723023 
L 247.83418 76.264235 
L 248.063136 76.264235 
L 248.177905 73.723023 
L 248.253827 73.723023 
L 248.368478 71.181812 
L 249.017158 71.181812 
L 249.131826 68.6406 
L 249.704144 68.6406 
L 249.81884 66.099388 
L 249.856807 66.099388 
L 249.97151 68.6406 
L 250.543805 68.6406 
L 250.658527 71.181812 
L 251.307128 71.181812 
L 251.421874 73.723023 
L 251.459793 73.723023 
L 251.574378 76.264235 
L 251.688794 73.723023 
L 251.879788 73.723023 
L 251.994124 76.264235 
L 252.07045 76.264235 
L 252.223118 81.346659 
L 252.337892 81.346659 
L 252.452395 83.88787 
L 252.604779 86.429082 
L 252.719566 86.429082 
L 252.833777 83.88787 
L 252.986444 83.88787 
L 253.101213 81.346659 
L 253.139111 81.346659 
L 253.291772 83.88787 
L 253.368103 83.88787 
L 253.482885 86.429082 
L 253.635586 86.429082 
L 253.749766 88.970294 
L 253.864589 88.970294 
L 253.902757 91.511506 
L 254.13143 86.429082 
L 254.36043 86.429082 
L 254.551511 78.805447 
L 254.589426 78.805447 
L 254.742098 76.264235 
L 255.353123 76.264235 
L 255.505421 73.723023 
L 255.73442 73.723023 
L 255.849176 71.181812 
L 256.650407 71.181812 
L 256.765142 73.723023 
L 256.955738 73.723023 
L 257.070529 76.264235 
L 257.223186 76.264235 
L 257.413729 83.88787 
L 257.490389 83.88787 
L 257.642728 88.970294 
L 257.757518 88.970294 
L 257.871729 91.511506 
L 258.177058 91.511506 
L 258.329722 88.970294 
L 258.482387 88.970294 
L 258.597188 91.511506 
L 258.826207 91.511506 
L 258.9408 88.970294 
L 259.322048 78.805447 
L 259.513214 78.805447 
L 259.627384 76.264235 
L 259.741934 76.264235 
L 259.894872 81.346659 
L 259.97121 81.346659 
L 260.161714 88.970294 
L 260.543377 88.970294 
L 260.658126 91.511506 
L 260.848706 91.511506 
L 260.963406 94.052717 
L 261.268786 94.052717 
L 261.383038 91.511506 
L 261.459371 91.511506 
L 261.57413 94.052717 
L 261.650456 94.052717 
L 261.764698 96.593929 
L 262.146365 96.593929 
L 262.261099 99.135141 
L 262.60436 99.135141 
L 262.642616 101.676353 
L 262.680696 99.135141 
L 262.90969 99.135141 
L 263.024366 101.676353 
L 263.215021 101.676353 
L 263.367686 106.758776 
L 263.520354 106.758776 
L 263.635096 109.299988 
L 263.673018 109.299988 
L 263.787759 111.8412 
L 264.054681 111.8412 
L 264.283678 101.676353 
L 264.360011 101.676353 
L 264.474746 99.135141 
L 264.665336 99.135141 
L 264.818008 101.676353 
L 265.123339 101.676353 
L 265.238113 99.135141 
L 265.314365 99.135141 
L 265.428961 96.593929 
L 265.54332 96.593929 
L 265.657664 94.052717 
L 265.962996 94.052717 
L 266.07783 91.511506 
L 266.535757 91.511506 
L 266.64999 94.052717 
L 266.688347 94.052717 
L 266.802656 96.593929 
L 267.070147 96.593929 
L 267.184319 94.052717 
L 267.528122 94.052717 
L 267.642316 96.593929 
L 267.718647 96.593929 
L 267.833415 94.052717 
L 267.871313 94.052717 
L 267.986091 96.593929 
L 268.023979 96.593929 
L 268.138768 99.135141 
L 268.329579 99.135141 
L 268.443972 101.676353 
L 269.016693 101.676353 
L 269.168966 104.217564 
L 269.207357 104.217564 
L 269.397968 111.8412 
L 269.474297 111.8412 
L 269.589043 109.299988 
L 269.703295 109.299988 
L 269.894224 101.676353 
L 269.97068 101.676353 
L 270.123398 96.593929 
L 270.237627 96.593929 
L 270.352401 99.135141 
L 270.466887 99.135141 
L 270.581279 101.676353 
L 270.695616 101.676353 
L 270.886799 109.299988 
L 271.154013 109.299988 
L 271.306284 111.8412 
L 271.535279 111.8412 
L 271.650056 114.382411 
L 271.802716 109.299988 
L 272.069606 109.299988 
L 272.108079 106.758776 
L 272.145941 109.299988 
L 272.298603 109.299988 
L 272.413391 111.8412 
L 272.4897 111.8412 
L 272.604331 114.382411 
L 273.061933 114.382411 
L 273.176698 116.923623 
L 273.290933 116.923623 
L 273.443598 114.382411 
L 273.519931 114.382411 
L 273.672594 109.299988 
L 273.787379 111.8412 
L 273.901589 111.8412 
L 274.016397 114.382411 
L 274.054721 114.382411 
L 274.206923 111.8412 
L 274.321748 111.8412 
L 274.435919 109.299988 
L 274.893916 109.299988 
L 275.008696 111.8412 
L 275.046583 111.8412 
L 275.199248 106.758776 
L 275.27558 106.758776 
L 275.390391 104.217564 
L 275.580915 104.217564 
L 275.695659 101.676353 
L 275.848337 101.676353 
L 275.962578 99.135141 
L 276.306159 99.135141 
L 276.382661 101.676353 
L 276.4969 99.135141 
L 276.611677 99.135141 
L 276.764319 94.052717 
L 276.802232 94.052717 
L 276.955301 88.970294 
L 277.031229 88.970294 
L 277.146041 91.511506 
L 277.260231 91.511506 
L 277.375029 94.052717 
L 277.604006 94.052717 
L 277.71823 96.593929 
L 277.833004 96.593929 
L 277.947227 99.135141 
L 277.98569 96.593929 
L 278.023554 99.135141 
L 278.214674 99.135141 
L 278.328892 101.676353 
L 279.931878 101.676353 
L 280.046659 99.135141 
L 280.237207 99.135141 
L 280.352041 96.593929 
L 280.618871 96.593929 
L 280.733624 94.052717 
L 280.924202 94.052717 
L 281.115301 101.676353 
L 281.153203 101.676353 
L 281.458532 116.923623 
L 282.221851 147.418164 
L 282.489275 147.418164 
L 282.603512 144.876952 
L 282.794625 144.876952 
L 282.832505 142.335741 
L 282.870942 144.876952 
L 283.023629 144.876952 
L 283.137837 147.418164 
L 283.443169 147.418164 
L 283.59583 152.500588 
L 283.634236 152.500588 
L 283.672159 149.959376 
L 283.710583 152.500588 
L 283.824826 152.500588 
L 283.939603 157.583011 
L 284.092087 152.500588 
L 284.20649 152.500588 
L 284.321248 149.959376 
L 284.359151 149.959376 
L 284.473978 147.418164 
L 284.511816 147.418164 
L 284.664917 152.500588 
L 284.855571 172.830282 
L 284.893474 172.830282 
L 285.008113 175.371493 
L 285.122472 175.371493 
L 285.237195 177.912705 
L 285.313569 177.912705 
L 285.465988 185.53634 
L 285.656793 177.912705 
L 285.809456 177.912705 
L 286.000537 185.53634 
L 286.03845 185.53634 
L 286.22941 177.912705 
L 286.687521 177.912705 
L 286.801764 175.371493 
L 286.916328 175.371493 
L 286.954431 177.912705 
L 286.99283 175.371493 
L 287.145566 175.371493 
L 287.221887 172.830282 
L 287.336085 175.371493 
L 287.412421 175.371493 
L 287.48875 172.830282 
L 287.603249 175.371493 
L 287.717751 175.371493 
L 287.832475 177.912705 
L 287.985199 177.912705 
L 288.099405 175.371493 
L 288.137877 175.371493 
L 288.328406 167.747858 
L 288.443154 167.747858 
L 288.595743 162.665435 
L 288.82478 162.665435 
L 288.939057 165.206646 
L 289.053595 165.206646 
L 289.168055 167.747858 
L 289.206487 167.747858 
L 289.320714 165.206646 
L 289.664493 165.206646 
L 289.817019 160.124223 
L 289.893478 160.124223 
L 290.007704 157.583011 
L 290.084036 157.583011 
L 290.313028 167.747858 
L 290.35155 167.747858 
L 290.503941 162.665435 
L 290.542024 162.665435 
L 290.694687 155.041799 
L 290.733129 157.583011 
L 290.847352 147.418164 
L 291.038344 147.418164 
L 291.153098 144.876952 
L 291.190863 144.876952 
L 291.343776 139.794529 
L 291.687006 139.794529 
L 291.801733 142.335741 
L 291.840124 142.335741 
L 292.144997 134.712105 
L 292.183481 134.712105 
L 292.297662 137.253317 
L 292.373997 137.253317 
L 292.488769 134.712105 
L 292.526655 134.712105 
L 292.679319 132.170894 
L 292.870464 132.170894 
L 292.908316 129.629682 
L 292.946751 132.170894 
L 293.518976 132.170894 
L 293.633769 129.629682 
L 293.709926 129.629682 
L 293.786422 127.08847 
L 293.900637 129.629682 
L 293.939051 129.629682 
L 294.129631 142.335741 
L 294.168056 139.794529 
L 294.205964 139.794529 
L 294.320763 137.253317 
L 294.397019 137.253317 
L 294.511289 139.794529 
L 294.549696 139.794529 
L 294.663951 142.335741 
L 294.740666 142.335741 
L 294.854978 147.418164 
L 294.969284 144.876952 
L 295.389333 144.876952 
L 295.541897 139.794529 
L 295.618353 139.794529 
L 295.732604 137.253317 
L 295.808935 137.253317 
L 295.961599 132.170894 
L 296.076368 132.170894 
L 296.191006 134.712105 
L 296.228821 134.712105 
L 296.343259 137.253317 
L 296.45808 137.253317 
L 296.648582 144.876952 
L 296.839653 137.253317 
L 296.915745 137.253317 
L 297.06872 149.959376 
L 297.145075 149.959376 
L 297.182911 147.418164 
L 297.221381 149.959376 
L 297.297729 149.959376 
L 297.411904 152.500588 
L 297.869897 152.500588 
L 297.908329 149.959376 
L 298.022561 139.794529 
L 298.060873 139.794529 
L 298.175227 137.253317 
L 298.404223 132.170894 
L 298.519002 132.170894 
L 298.633216 129.629682 
L 298.747999 132.170894 
L 298.824251 132.170894 
L 298.976932 127.08847 
L 299.435 127.08847 
L 299.549202 129.629682 
L 299.778179 129.629682 
L 299.892915 127.08847 
L 300.00719 127.08847 
L 300.121978 129.629682 
L 300.312522 129.629682 
L 300.427156 127.08847 
L 300.846848 127.08847 
L 300.961494 124.547258 
L 301.152673 124.547258 
L 301.304837 127.08847 
L 301.572312 127.08847 
L 301.686501 124.547258 
L 302.106644 124.547258 
L 302.220821 122.006047 
L 302.259266 122.006047 
L 302.373484 124.547258 
L 302.449817 124.547258 
L 302.564583 122.006047 
L 302.602903 122.006047 
L 302.907816 114.382411 
L 302.946257 114.382411 
L 303.060479 111.8412 
L 303.480535 111.8412 
L 303.594803 114.382411 
L 303.633228 114.382411 
L 303.747465 111.8412 
L 303.78592 111.8412 
L 303.900127 109.299988 
L 304.053267 109.299988 
L 304.090954 111.8412 
L 304.129127 109.299988 
L 304.205459 109.299988 
L 304.320308 111.8412 
L 304.625521 111.8412 
L 304.740119 109.299988 
L 304.816119 109.299988 
L 304.930882 106.758776 
L 305.31237 106.758776 
L 305.426778 104.217564 
L 305.57944 101.676353 
L 305.732105 101.676353 
L 305.846878 99.135141 
L 305.9611 99.135141 
L 305.999534 101.676353 
L 306.037429 99.135141 
L 306.190546 99.135141 
L 306.419088 94.052717 
L 306.457518 94.052717 
L 306.57176 96.593929 
L 306.724422 96.593929 
L 306.839223 99.135141 
L 306.991648 99.135141 
L 307.10608 96.593929 
L 307.258748 96.593929 
L 307.373543 99.135141 
L 307.640792 99.135141 
L 307.755071 96.593929 
L 307.793078 96.593929 
L 307.945738 91.511506 
L 308.060333 91.511506 
L 308.174736 88.970294 
L 308.251067 88.970294 
L 308.327799 86.429082 
L 308.441992 86.429082 
L 308.556396 83.88787 
L 308.632731 83.88787 
L 308.747565 81.346659 
L 308.861732 81.346659 
L 308.97645 78.805447 
L 309.243388 78.805447 
L 309.358142 76.264235 
L 310.579257 76.264235 
L 310.693705 73.723023 
L 310.846368 73.723023 
L 310.96122 71.181812 
L 311.380691 71.181812 
L 311.495475 68.6406 
L 312.945814 68.6406 
L 313.060009 66.099388 
L 313.44167 66.099388 
L 313.556451 63.558176 
L 313.709143 63.558176 
L 313.82333 61.016965 
L 314.281325 61.016965 
L 314.396125 58.475753 
L 315.044647 58.475753 
L 315.197315 55.934541 
L 316.418634 55.934541 
L 316.533377 53.393329 
L 316.800294 53.393329 
L 316.915027 55.934541 
L 317.2204 55.934541 
L 317.33462 53.393329 
L 318.479606 53.393329 
L 318.594387 55.934541 
L 319.09027 55.934541 
L 319.242934 58.475753 
L 319.395595 58.475753 
L 319.510341 55.934541 
L 322.14357 55.934541 
L 322.258298 53.393329 
L 323.174305 53.393329 
L 323.288556 50.852118 
L 326.151325 50.852118 
L 326.265532 48.310906 
L 329.853157 48.310906 
L 330.005823 45.769694 
L 330.120617 48.310906 
L 330.273286 48.310906 
L 330.387487 45.769694 
L 332.257882 45.769694 
L 332.372129 48.310906 
L 333.364453 48.310906 
L 333.479184 45.769694 
L 335.578102 45.769694 
L 335.65489 48.310906 
L 337.105241 48.310906 
L 337.257417 45.769694 
L 346.875319 45.769694 
L 346.990018 43.228482 
L 351.684259 43.228482 
L 351.799099 45.769694 
L 352.218588 45.769694 
L 352.371258 48.310906 
L 354.089049 48.310906 
L 354.203232 50.852118 
L 354.737554 50.852118 
L 354.85231 53.393329 
L 354.966557 53.393329 
L 355.081315 55.934541 
L 355.348217 55.934541 
L 355.386515 53.393329 
L 355.42455 55.934541 
L 356.11154 55.934541 
L 356.226289 58.475753 
L 356.340532 58.475753 
L 356.455329 61.016965 
L 356.684181 61.016965 
L 356.798524 63.558176 
L 356.989609 63.558176 
L 357.142228 68.6406 
L 357.561849 68.6406 
L 357.676536 71.181812 
L 358.210928 71.181812 
L 358.32517 68.6406 
L 358.554166 68.6406 
L 358.592677 71.181812 
L 358.630499 68.6406 
L 358.935826 68.6406 
L 359.088492 86.429082 
L 359.279646 94.052717 
L 359.35594 94.052717 
L 359.508361 99.135141 
L 359.584861 99.135141 
L 359.813935 109.299988 
L 359.928141 109.299988 
L 360.080803 104.217564 
L 360.233465 109.299988 
L 360.424599 101.676353 
L 360.462462 101.676353 
L 360.691458 111.8412 
L 360.844123 111.8412 
L 360.996785 114.382411 
L 361.073123 114.382411 
L 361.302109 124.547258 
L 361.340512 124.547258 
L 361.454771 122.006047 
L 361.493186 122.006047 
L 361.60776 124.547258 
L 361.645618 124.547258 
L 361.79857 129.629682 
L 361.913161 129.629682 
L 362.027517 127.08847 
L 362.06543 127.08847 
L 362.218091 119.464835 
L 362.370755 99.135141 
L 362.523419 91.511506 
L 362.561886 101.676353 
L 362.638218 99.135141 
L 362.714551 99.135141 
L 362.828744 101.676353 
L 363.248902 101.676353 
L 363.439399 109.299988 
L 363.55426 109.299988 
L 363.745167 101.676353 
L 363.859378 101.676353 
L 364.279049 124.547258 
L 364.317457 124.547258 
L 364.393895 122.006047 
L 364.50804 124.547258 
L 364.622798 124.547258 
L 364.775491 119.464835 
L 364.928157 119.464835 
L 365.118698 111.8412 
L 365.30972 111.8412 
L 365.347691 109.299988 
L 365.462443 114.382411 
L 365.500361 114.382411 
L 365.6914 106.758776 
L 365.805683 109.299988 
L 365.882434 109.299988 
L 366.111013 104.217564 
L 366.225772 104.217564 
L 366.302132 106.758776 
L 366.454723 101.676353 
L 366.492669 101.676353 
L 366.569006 99.135141 
L 367.065423 99.135141 
L 367.103329 96.593929 
L 367.25599 81.346659 
L 367.561322 81.346659 
L 367.713987 76.264235 
L 367.790315 76.264235 
L 367.905159 94.052717 
L 367.981373 94.052717 
L 368.095644 91.511506 
L 368.210414 94.052717 
L 368.400967 94.052717 
L 368.515768 76.264235 
L 369.470065 76.264235 
L 369.622282 73.723023 
L 370.309273 73.723023 
L 370.424064 71.181812 
L 370.614599 71.181812 
L 370.729367 68.6406 
L 371.187347 68.6406 
L 371.301586 66.099388 
L 372.103386 66.099388 
L 372.217573 63.558176 
L 372.790338 63.558176 
L 372.904565 61.016965 
L 373.324655 61.016965 
L 373.438887 58.475753 
L 373.667884 58.475753 
L 373.744215 55.934541 
L 373.820541 55.934541 
L 373.935293 58.475753 
L 374.622214 58.475753 
L 374.736531 61.016965 
L 375.004035 61.016965 
L 375.118191 58.475753 
L 375.881508 58.475753 
L 376.034179 61.016965 
L 376.912298 61.016965 
L 377.026494 58.475753 
L 377.17916 58.475753 
L 377.293936 55.934541 
L 377.408151 58.475753 
L 377.560822 58.475753 
L 377.675648 61.016965 
L 377.942479 61.016965 
L 378.018813 63.558176 
L 379.163794 63.558176 
L 379.278494 61.016965 
L 380.308779 61.016965 
L 380.423592 63.558176 
L 382.637199 63.558176 
L 382.751407 61.016965 
L 382.980409 61.016965 
L 383.056738 58.475753 
L 383.209397 61.016965 
L 383.514732 61.016965 
L 383.629459 63.558176 
L 384.04905 63.558176 
L 384.163864 61.016965 
L 384.201716 61.016965 
L 384.316522 63.558176 
L 384.430713 63.558176 
L 384.507045 61.016965 
L 384.965042 61.016965 
L 385.079852 58.475753 
L 385.19404 58.475753 
L 385.346704 55.934541 
L 385.804701 55.934541 
L 385.919399 53.393329 
L 386.186358 53.393329 
L 386.301067 50.852118 
L 386.911767 50.852118 
L 387.026014 48.310906 
L 387.865664 48.310906 
L 387.980479 45.769694 
L 388.323658 45.769694 
L 388.4384 48.310906 
L 388.896148 48.310906 
L 389.010651 50.852118 
L 389.392311 50.852118 
L 389.507102 53.393329 
L 389.545358 53.393329 
L 389.697641 55.934541 
L 389.926636 55.934541 
L 390.041396 58.475753 
L 390.422989 58.475753 
L 390.537295 55.934541 
L 391.37695 55.934541 
L 391.491731 58.475753 
L 391.987603 58.475753 
L 392.102307 61.016965 
L 392.59826 61.016965 
L 392.713063 63.558176 
L 393.132588 63.558176 
L 393.285252 66.099388 
L 393.743243 66.099388 
L 393.819578 68.6406 
L 395.26989 68.6406 
L 395.422556 71.181812 
L 395.842674 71.181812 
L 395.95688 73.723023 
L 396.453312 73.723023 
L 396.567542 71.181812 
L 398.017854 71.181812 
L 398.094185 73.723023 
L 398.170966 71.181812 
L 398.514263 71.181812 
L 398.628511 68.6406 
L 399.162841 68.6406 
L 399.277613 71.181812 
L 399.811803 71.181812 
L 399.926161 73.723023 
L 400.078825 73.723023 
L 400.193627 76.264235 
L 400.804286 76.264235 
L 400.918476 78.805447 
L 401.30014 78.805447 
L 401.452804 83.88787 
L 401.529139 83.88787 
L 401.643948 86.429082 
L 401.910804 86.429082 
L 402.0256 88.970294 
L 402.063463 88.970294 
L 402.178218 86.429082 
L 402.445131 86.429082 
L 402.597788 83.88787 
L 402.788909 83.88787 
L 402.903119 86.429082 
L 403.055788 86.429082 
L 403.20888 81.346659 
L 403.437448 76.264235 
L 403.590113 76.264235 
L 403.704948 73.723023 
L 404.239178 73.723023 
L 404.353437 76.264235 
L 404.887768 76.264235 
L 405.002472 73.723023 
L 405.307882 73.723023 
L 405.422087 76.264235 
L 405.613093 76.264235 
L 405.727421 78.805447 
L 405.918513 78.805447 
L 406.109429 86.429082 
L 406.41441 86.429082 
L 406.529204 83.88787 
L 406.872402 83.88787 
L 406.98719 81.346659 
L 407.368878 81.346659 
L 407.483064 76.264235 
L 407.941062 76.264235 
L 407.979527 73.723023 
L 408.017393 76.264235 
L 408.322721 76.264235 
L 408.399054 73.723023 
L 408.513739 76.264235 
L 409.925706 76.264235 
L 410.040458 73.723023 
L 410.727437 73.723023 
L 410.841692 71.181812 
L 410.956505 71.181812 
L 411.071101 73.723023 
L 411.147497 73.723023 
L 411.261719 76.264235 
L 411.68135 76.264235 
L 411.834467 81.346659 
L 412.063008 81.346659 
L 412.177827 83.88787 
L 412.215675 83.88787 
L 412.330418 86.429082 
L 412.368338 86.429082 
L 412.483097 88.970294 
L 412.826338 88.970294 
L 412.941082 86.429082 
L 413.246423 86.429082 
L 413.436992 78.805447 
L 413.589657 78.805447 
L 413.704381 76.264235 
L 414.23874 76.264235 
L 414.276659 78.805447 
L 414.314965 76.264235 
L 415.078402 76.264235 
L 415.192641 73.723023 
L 415.307309 73.723023 
L 415.422076 71.181812 
L 416.413964 71.181812 
L 416.452416 73.723023 
L 416.490297 71.181812 
L 416.681411 71.181812 
L 416.795627 73.723023 
L 416.872385 73.723023 
L 417.024622 76.264235 
L 417.253624 76.264235 
L 417.444679 83.88787 
L 417.521103 83.88787 
L 417.635264 86.429082 
L 417.750016 86.429082 
L 417.902752 91.511506 
L 418.093276 91.511506 
L 418.208013 88.970294 
L 418.322789 88.970294 
L 418.589728 101.676353 
L 418.627604 101.676353 
L 418.780266 106.758776 
L 418.8566 106.758776 
L 418.895053 104.217564 
L 418.932934 106.758776 
L 418.971371 106.758776 
L 419.314594 124.547258 
L 419.658319 124.547258 
L 419.772962 127.08847 
L 419.887284 127.08847 
L 420.001577 129.629682 
L 420.07791 129.629682 
L 420.116168 127.08847 
L 420.269045 147.418164 
L 420.306908 147.418164 
L 420.345338 149.959376 
L 420.460027 137.253317 
L 420.688958 137.253317 
L 420.726994 134.712105 
L 420.841231 147.418164 
L 420.993893 142.335741 
L 421.032287 142.335741 
L 421.146557 139.794529 
L 421.261127 139.794529 
L 421.528222 152.500588 
L 421.833545 152.500588 
L 421.948049 160.124223 
L 422.138872 157.583011 
L 422.253459 152.500588 
L 422.444196 152.500588 
L 422.520532 157.583011 
L 422.558911 155.041799 
L 422.597251 155.041799 
L 422.749526 157.583011 
L 422.825857 157.583011 
L 422.940585 152.500588 
L 423.054853 155.041799 
L 423.093342 152.500588 
L 423.131186 155.041799 
L 423.207517 157.583011 
L 423.245981 155.041799 
L 423.283846 157.583011 
L 423.4749 157.583011 
L 423.551261 152.500588 
L 423.589175 155.041799 
L 423.665504 157.583011 
L 423.818171 152.500588 
L 423.894501 152.500588 
L 424.009264 149.959376 
L 424.085318 149.959376 
L 424.199831 152.500588 
L 424.314584 152.500588 
L 424.619901 167.747858 
L 424.658275 167.747858 
L 424.848742 160.124223 
L 424.886808 160.124223 
L 425.039473 165.206646 
L 425.154277 162.665435 
L 425.192138 162.665435 
L 425.230664 165.206646 
L 425.268468 162.665435 
L 425.306929 162.665435 
L 425.421136 157.583011 
L 425.497876 157.583011 
L 425.612165 160.124223 
L 425.650131 160.124223 
L 425.764845 165.206646 
L 425.802796 162.665435 
L 425.841205 165.206646 
L 426.146502 165.206646 
L 426.489782 157.583011 
L 426.667042 157.583011 
L 426.718771 160.124223 
L 426.757232 157.583011 
L 426.795507 157.583011 
L 427.024103 152.500588 
L 427.482085 152.500588 
L 427.63475 149.959376 
L 428.703396 137.253317 
L 428.856059 139.794529 
L 428.894532 137.253317 
L 428.932871 139.794529 
L 429.085062 142.335741 
L 429.237723 142.335741 
L 429.352486 147.418164 
L 429.466719 144.876952 
L 429.696105 144.876952 
L 429.84838 152.500588 
L 429.886811 152.500588 
L 429.9631 160.124223 
L 430.077369 152.500588 
L 430.115759 152.500588 
L 430.268378 147.418164 
L 430.650126 147.418164 
L 430.764356 144.876952 
L 430.91702 149.959376 
L 430.993353 149.959376 
L 431.184272 142.335741 
L 431.222348 142.335741 
L 431.451342 152.500588 
L 431.489773 152.500588 
L 431.718708 162.665435 
L 431.871195 162.665435 
L 431.947698 167.747858 
L 431.985658 165.206646 
L 432.024094 165.206646 
L 432.138325 167.747858 
L 432.176614 167.747858 
L 432.253071 170.28907 
L 432.329406 165.206646 
L 432.367315 167.747858 
L 432.443646 167.747858 
L 432.482087 165.206646 
L 432.520437 167.747858 
L 432.596311 170.28907 
L 432.711096 167.747858 
L 432.748977 167.747858 
L 432.863742 170.28907 
L 432.901635 170.28907 
L 432.977971 172.830282 
L 433.092579 170.28907 
L 433.206964 170.28907 
L 433.435959 165.206646 
L 433.474401 167.747858 
L 433.627056 152.500588 
L 433.893953 152.500588 
L 434.046608 149.959376 
L 434.19927 149.959376 
L 434.314013 144.876952 
L 434.390413 147.418164 
L 434.504603 144.876952 
L 434.619364 144.876952 
L 434.657738 147.418164 
L 434.886266 142.335741 
L 434.924751 142.335741 
L 435.115255 149.959376 
L 435.267918 149.959376 
L 435.344252 147.418164 
L 435.458808 152.500588 
L 435.496916 149.959376 
L 435.611703 149.959376 
L 435.725909 152.500588 
L 435.878575 147.418164 
L 436.222232 147.418164 
L 436.374993 152.500588 
L 436.489226 152.500588 
L 436.64189 147.418164 
L 436.870888 147.418164 
L 437.023548 142.335741 
L 437.138331 142.335741 
L 437.290962 147.418164 
L 437.405205 147.418164 
L 437.481533 142.335741 
L 437.90166 142.335741 
L 438.015857 139.794529 
L 438.054189 139.794529 
L 438.168522 142.335741 
L 438.550184 122.006047 
L 438.66501 122.006047 
L 438.817523 106.758776 
L 439.046425 106.758776 
L 439.160842 104.217564 
L 443.053779 96.593929 
L 443.092171 96.593929 
L 443.20644 94.052717 
L 443.282771 94.052717 
L 443.397537 91.511506 
L 443.779171 91.511506 
L 443.893428 88.970294 
L 444.427755 88.970294 
L 444.542495 91.511506 
L 444.809414 91.511506 
L 444.886104 94.052717 
L 445.000381 94.052717 
L 445.153132 88.970294 
L 445.382079 88.970294 
L 445.534749 83.88787 
L 445.572731 83.88787 
L 445.725398 81.346659 
L 445.878056 81.346659 
L 445.992753 78.805447 
L 446.03072 78.805447 
L 446.145503 81.346659 
L 446.374223 81.346659 
L 446.488714 78.805447 
L 446.870372 78.805447 
L 446.984993 76.264235 
L 447.290451 76.264235 
L 447.404697 78.805447 
L 447.443096 78.805447 
L 447.595758 83.88787 
L 448.435409 83.88787 
L 448.549685 86.429082 
L 449.771005 86.429082 
L 449.885694 83.88787 
L 449.962005 83.88787 
L 450 81.346659 
L 450 81.346659 
" clip-path="url(#p94216f9cd9)" style="fill: none; stroke: #ff7f0e; stroke-width: 1.5; stroke-linecap: square"/>
   </g>
   <g id="patch_3">
    <path d="M 51.05 279.561175 
L 51.05 25.44 
" style="fill: none; stroke: #000000; stroke-width: 0.8; stroke-linejoin: miter; stroke-linecap: square"/>
   </g>
   <g id="patch_4">
    <path d="M 450 279.561175 
L 450 25.44 
" style="fill: none; stroke: #000000; stroke-width: 0.8; stroke-linejoin: miter; stroke-linecap: square"/>
   </g>
   <g id="patch_5">
    <path d="M 51.05 279.561175 
L 450 279.561175 
" style="fill: none; stroke: #000000; stroke-width: 0.8; stroke-linejoin: miter; stroke-linecap: square"/>
   </g>
   <g id="patch_6">
    <path d="M 51.05 25.44 
L 450 25.44 
" style="fill: none; stroke: #000000; stroke-width: 0.8; stroke-linejoin: miter; stroke-linecap: square"/>
   </g>
   <g id="text_13">
    <!-- November 2023 -->
    <g transform="translate(202.133125 19.44) scale(0.12 -0.12)">
     <defs>
      <path id="DejaVuSans-4e" d="M 628 4666 
L 1478 4666 
L 3547 763 
L 3547 4666 
L 4159 4666 
L 4159 0 
L 3309 0 
L 1241 3903 
L 1241 0 
L 628 0 
L 628 4666 
z
" transform="scale(0.015625)"/>
      <path id="DejaVuSans-6f" d="M 1959 3097 
Q 1497 3097 1228 2736 
Q 959 2375 959 1747 
Q 959 1119 1226 758 
Q 1494 397 1959 397 
Q 2419 397 2687 759 
Q 2956 1122 2956 1747 
Q 2956 2369 2687 2733 
Q 2419 3097 1959 3097 
z
M 1959 3584 
Q 2709 3584 3137 3096 
Q 3566 2609 3566 1747 
Q 3566 888 3137 398 
Q 2709 -91 1959 -91 
Q 1206 -91 779 398 
Q 353 888 353 1747 
Q 353 2609 779 3096 
Q 1206 3584 1959 3584 
z
" transform="scale(0.015625)"/>
      <path id="DejaVuSans-76" d="M 191 3500 
L 800 3500 
L 1894 563 
L 2988 3500 
L 3597 3500 
L 2284 0 
L 1503 0 
L 191 3500 
z
" transform="scale(0.015625)"/>
      <path id="DejaVuSans-65" d="M 3597 1894 
L 3597 1613 
L 953 1613 
Q 991 1019 1311 708 
Q 1631 397 2203 397 
Q 2534 397 2845 478 
Q 3156 559 3463 722 
L 3463 178 
Q 3153 47 2828 -22 
Q 2503 -91 2169 -91 
Q 1331 -91 842 396 
Q 353 884 353 1716 
Q 353 2575 817 3079 
Q 1281 3584 2069 3584 
Q 2775 3584 3186 3129 
Q 3597 2675 3597 1894 
z
M 3022 2063 
Q 3016 2534 2758 2815 
Q 2500 3097 2075 3097 
Q 1594 3097 1305 2825 
Q 1016 2553 972 2059 
L 3022 2063 
z
" transform="scale(0.015625)"/>
      <path id="DejaVuSans-62" d="M 3116 1747 
Q 3116 2381 2855 2742 
Q 2594 3103 2138 3103 
Q 1681 3103 1420 2742 
Q 1159 2381 1159 1747 
Q 1159 1113 1420 752 
Q 1681 391 2138 391 
Q 2594 391 2855 752 
Q 3116 1113 3116 1747 
z
M 1159 2969 
Q 1341 3281 1617 3432 
Q 1894 3584 2278 3584 
Q 2916 3584 3314 3078 
Q 3713 2572 3713 1747 
Q 3713 922 3314 415 
Q 2916 -91 2278 -91 
Q 1894 -91 1617 61 
Q 1341 213 1159 525 
L 1159 0 
L 581 0 
L 581 4863 
L 1159 4863 
L 1159 2969 
z
" transform="scale(0.015625)"/>
      <path id="DejaVuSans-72" d="M 2631 2963 
Q 2534 3019 2420 3045 
Q 2306 3072 2169 3072 
Q 1681 3072 1420 2755 
Q 1159 2438 1159 1844 
L 1159 0 
L 581 0 
L 581 3500 
L 1159 3500 
L 1159 2956 
Q 1341 3275 1631 3429 
Q 1922 3584 2338 3584 
Q 2397 3584 2469 3576 
Q 2541 3569 2628 3553 
L 2631 2963 
z
" transform="scale(0.015625)"/>
     </defs>
     <use xlink:href="#DejaVuSans-4e"/>
     <use xlink:href="#DejaVuSans-6f" x="74.804688"/>
     <use xlink:href="#DejaVuSans-76" x="135.986328"/>
     <use xlink:href="#DejaVuSans-65" x="195.166016"/>
     <use xlink:href="#DejaVuSans-6d" x="256.689453"/>
     <use xlink:href="#DejaVuSans-62" x="354.101562"/>
     <use xlink:href="#DejaVuSans-65" x="417.578125"/>
     <use xlink:href="#DejaVuSans-72" x="479.101562"/>
     <use xlink:href="#DejaVuSans-20" x="520.214844"/>
     <use xlink:href="#DejaVuSans-32" x="552.001953"/>
     <use xlink:href="#DejaVuSans-30" x="615.625"/>
     <use xlink:href="#DejaVuSans-32" x="679.248047"/>
     <use xlink:href="#DejaVuSans-33" x="742.871094"/>
    </g>
   </g>
  </g>
 </g>
 <defs>
  <clipPath id="p94216f9cd9">
   <rect x="51.05" y="25.44" width="398.95" height="254.121175"/>
  </clipPath>
 </defs>
</svg>
