<?xml version="1.0" encoding="utf-8" standalone="no"?>
<!DOCTYPE svg PUBLIC "-//W3C//DTD SVG 1.1//EN"
  "http://www.w3.org/Graphics/SVG/1.1/DTD/svg11.dtd">
<svg xmlns:xlink="http://www.w3.org/1999/xlink" width="460.8pt" height="345.6pt" viewBox="0 0 460.8 345.6" xmlns="http://www.w3.org/2000/svg" version="1.1">
 <metadata>
  <rdf:RDF xmlns:dc="http://purl.org/dc/elements/1.1/" xmlns:cc="http://creativecommons.org/ns#" xmlns:rdf="http://www.w3.org/1999/02/22-rdf-syntax-ns#">
   <cc:Work>
    <dc:type rdf:resource="http://purl.org/dc/dcmitype/StillImage"/>
    <dc:date>2023-11-11T23:53:34.070701</dc:date>
    <dc:format>image/svg+xml</dc:format>
    <dc:creator>
     <cc:Agent>
      <dc:title>Matplotlib v3.6.3, https://matplotlib.org/</dc:title>
     </cc:Agent>
    </dc:creator>
   </cc:Work>
  </rdf:RDF>
 </metadata>
 <defs>
  <style type="text/css">*{stroke-linejoin: round; stroke-linecap: butt}</style>
 </defs>
 <g id="figure_1">
  <g id="patch_1">
   <path d="M 0 345.6 
L 460.8 345.6 
L 460.8 0 
L 0 0 
z
" style="fill: #ffffff"/>
  </g>
  <g id="axes_1">
   <g id="patch_2">
    <path d="M 51.05 279.561175 
L 450 279.561175 
L 450 25.44 
L 51.05 25.44 
z
" style="fill: #ffffff"/>
   </g>
   <g id="matplotlib.axis_1">
    <g id="xtick_1">
     <g id="line2d_1">
      <path d="M 87.319336 279.561175 
L 87.319336 25.44 
" clip-path="url(#paf1d4e1a06)" style="fill: none; stroke: #b0b0b0; stroke-width: 0.8; stroke-linecap: square"/>
     </g>
     <g id="line2d_2">
      <defs>
       <path id="m4f8e3b36a7" d="M 0 0 
L 0 3.5 
" style="stroke: #000000; stroke-width: 0.8"/>
      </defs>
      <g>
       <use xlink:href="#m4f8e3b36a7" x="87.319336" y="279.561175" style="stroke: #000000; stroke-width: 0.8"/>
      </g>
     </g>
     <g id="text_1">
      <!-- 2023-11-02 -->
      <g transform="translate(44.754823 333.028035) rotate(-45) scale(0.1 -0.1)">
       <defs>
        <path id="DejaVuSans-32" d="M 1228 531 
L 3431 531 
L 3431 0 
L 469 0 
L 469 531 
Q 828 903 1448 1529 
Q 2069 2156 2228 2338 
Q 2531 2678 2651 2914 
Q 2772 3150 2772 3378 
Q 2772 3750 2511 3984 
Q 2250 4219 1831 4219 
Q 1534 4219 1204 4116 
Q 875 4013 500 3803 
L 500 4441 
Q 881 4594 1212 4672 
Q 1544 4750 1819 4750 
Q 2544 4750 2975 4387 
Q 3406 4025 3406 3419 
Q 3406 3131 3298 2873 
Q 3191 2616 2906 2266 
Q 2828 2175 2409 1742 
Q 1991 1309 1228 531 
z
" transform="scale(0.015625)"/>
        <path id="DejaVuSans-30" d="M 2034 4250 
Q 1547 4250 1301 3770 
Q 1056 3291 1056 2328 
Q 1056 1369 1301 889 
Q 1547 409 2034 409 
Q 2525 409 2770 889 
Q 3016 1369 3016 2328 
Q 3016 3291 2770 3770 
Q 2525 4250 2034 4250 
z
M 2034 4750 
Q 2819 4750 3233 4129 
Q 3647 3509 3647 2328 
Q 3647 1150 3233 529 
Q 2819 -91 2034 -91 
Q 1250 -91 836 529 
Q 422 1150 422 2328 
Q 422 3509 836 4129 
Q 1250 4750 2034 4750 
z
" transform="scale(0.015625)"/>
        <path id="DejaVuSans-33" d="M 2597 2516 
Q 3050 2419 3304 2112 
Q 3559 1806 3559 1356 
Q 3559 666 3084 287 
Q 2609 -91 1734 -91 
Q 1441 -91 1130 -33 
Q 819 25 488 141 
L 488 750 
Q 750 597 1062 519 
Q 1375 441 1716 441 
Q 2309 441 2620 675 
Q 2931 909 2931 1356 
Q 2931 1769 2642 2001 
Q 2353 2234 1838 2234 
L 1294 2234 
L 1294 2753 
L 1863 2753 
Q 2328 2753 2575 2939 
Q 2822 3125 2822 3475 
Q 2822 3834 2567 4026 
Q 2313 4219 1838 4219 
Q 1578 4219 1281 4162 
Q 984 4106 628 3988 
L 628 4550 
Q 988 4650 1302 4700 
Q 1616 4750 1894 4750 
Q 2613 4750 3031 4423 
Q 3450 4097 3450 3541 
Q 3450 3153 3228 2886 
Q 3006 2619 2597 2516 
z
" transform="scale(0.015625)"/>
        <path id="DejaVuSans-2d" d="M 313 2009 
L 1997 2009 
L 1997 1497 
L 313 1497 
L 313 2009 
z
" transform="scale(0.015625)"/>
        <path id="DejaVuSans-31" d="M 794 531 
L 1825 531 
L 1825 4091 
L 703 3866 
L 703 4441 
L 1819 4666 
L 2450 4666 
L 2450 531 
L 3481 531 
L 3481 0 
L 794 0 
L 794 531 
z
" transform="scale(0.015625)"/>
       </defs>
       <use xlink:href="#DejaVuSans-32"/>
       <use xlink:href="#DejaVuSans-30" x="63.623047"/>
       <use xlink:href="#DejaVuSans-32" x="127.246094"/>
       <use xlink:href="#DejaVuSans-33" x="190.869141"/>
       <use xlink:href="#DejaVuSans-2d" x="254.492188"/>
       <use xlink:href="#DejaVuSans-31" x="290.576172"/>
       <use xlink:href="#DejaVuSans-31" x="354.199219"/>
       <use xlink:href="#DejaVuSans-2d" x="417.822266"/>
       <use xlink:href="#DejaVuSans-30" x="453.90625"/>
       <use xlink:href="#DejaVuSans-32" x="517.529297"/>
      </g>
     </g>
    </g>
    <g id="xtick_2">
     <g id="line2d_3">
      <path d="M 123.607979 279.561175 
L 123.607979 25.44 
" clip-path="url(#paf1d4e1a06)" style="fill: none; stroke: #b0b0b0; stroke-width: 0.8; stroke-linecap: square"/>
     </g>
     <g id="line2d_4">
      <g>
       <use xlink:href="#m4f8e3b36a7" x="123.607979" y="279.561175" style="stroke: #000000; stroke-width: 0.8"/>
      </g>
     </g>
     <g id="text_2">
      <!-- 2023-11-03 -->
      <g transform="translate(81.043465 333.028035) rotate(-45) scale(0.1 -0.1)">
       <use xlink:href="#DejaVuSans-32"/>
       <use xlink:href="#DejaVuSans-30" x="63.623047"/>
       <use xlink:href="#DejaVuSans-32" x="127.246094"/>
       <use xlink:href="#DejaVuSans-33" x="190.869141"/>
       <use xlink:href="#DejaVuSans-2d" x="254.492188"/>
       <use xlink:href="#DejaVuSans-31" x="290.576172"/>
       <use xlink:href="#DejaVuSans-31" x="354.199219"/>
       <use xlink:href="#DejaVuSans-2d" x="417.822266"/>
       <use xlink:href="#DejaVuSans-30" x="453.90625"/>
       <use xlink:href="#DejaVuSans-33" x="517.529297"/>
      </g>
     </g>
    </g>
    <g id="xtick_3">
     <g id="line2d_5">
      <path d="M 159.896621 279.561175 
L 159.896621 25.44 
" clip-path="url(#paf1d4e1a06)" style="fill: none; stroke: #b0b0b0; stroke-width: 0.8; stroke-linecap: square"/>
     </g>
     <g id="line2d_6">
      <g>
       <use xlink:href="#m4f8e3b36a7" x="159.896621" y="279.561175" style="stroke: #000000; stroke-width: 0.8"/>
      </g>
     </g>
     <g id="text_3">
      <!-- 2023-11-04 -->
      <g transform="translate(117.332107 333.028035) rotate(-45) scale(0.1 -0.1)">
       <defs>
        <path id="DejaVuSans-34" d="M 2419 4116 
L 825 1625 
L 2419 1625 
L 2419 4116 
z
M 2253 4666 
L 3047 4666 
L 3047 1625 
L 3713 1625 
L 3713 1100 
L 3047 1100 
L 3047 0 
L 2419 0 
L 2419 1100 
L 313 1100 
L 313 1709 
L 2253 4666 
z
" transform="scale(0.015625)"/>
       </defs>
       <use xlink:href="#DejaVuSans-32"/>
       <use xlink:href="#DejaVuSans-30" x="63.623047"/>
       <use xlink:href="#DejaVuSans-32" x="127.246094"/>
       <use xlink:href="#DejaVuSans-33" x="190.869141"/>
       <use xlink:href="#DejaVuSans-2d" x="254.492188"/>
       <use xlink:href="#DejaVuSans-31" x="290.576172"/>
       <use xlink:href="#DejaVuSans-31" x="354.199219"/>
       <use xlink:href="#DejaVuSans-2d" x="417.822266"/>
       <use xlink:href="#DejaVuSans-30" x="453.90625"/>
       <use xlink:href="#DejaVuSans-34" x="517.529297"/>
      </g>
     </g>
    </g>
    <g id="xtick_4">
     <g id="line2d_7">
      <path d="M 196.185263 279.561175 
L 196.185263 25.44 
" clip-path="url(#paf1d4e1a06)" style="fill: none; stroke: #b0b0b0; stroke-width: 0.8; stroke-linecap: square"/>
     </g>
     <g id="line2d_8">
      <g>
       <use xlink:href="#m4f8e3b36a7" x="196.185263" y="279.561175" style="stroke: #000000; stroke-width: 0.8"/>
      </g>
     </g>
     <g id="text_4">
      <!-- 2023-11-05 -->
      <g transform="translate(153.620749 333.028035) rotate(-45) scale(0.1 -0.1)">
       <defs>
        <path id="DejaVuSans-35" d="M 691 4666 
L 3169 4666 
L 3169 4134 
L 1269 4134 
L 1269 2991 
Q 1406 3038 1543 3061 
Q 1681 3084 1819 3084 
Q 2600 3084 3056 2656 
Q 3513 2228 3513 1497 
Q 3513 744 3044 326 
Q 2575 -91 1722 -91 
Q 1428 -91 1123 -41 
Q 819 9 494 109 
L 494 744 
Q 775 591 1075 516 
Q 1375 441 1709 441 
Q 2250 441 2565 725 
Q 2881 1009 2881 1497 
Q 2881 1984 2565 2268 
Q 2250 2553 1709 2553 
Q 1456 2553 1204 2497 
Q 953 2441 691 2322 
L 691 4666 
z
" transform="scale(0.015625)"/>
       </defs>
       <use xlink:href="#DejaVuSans-32"/>
       <use xlink:href="#DejaVuSans-30" x="63.623047"/>
       <use xlink:href="#DejaVuSans-32" x="127.246094"/>
       <use xlink:href="#DejaVuSans-33" x="190.869141"/>
       <use xlink:href="#DejaVuSans-2d" x="254.492188"/>
       <use xlink:href="#DejaVuSans-31" x="290.576172"/>
       <use xlink:href="#DejaVuSans-31" x="354.199219"/>
       <use xlink:href="#DejaVuSans-2d" x="417.822266"/>
       <use xlink:href="#DejaVuSans-30" x="453.90625"/>
       <use xlink:href="#DejaVuSans-35" x="517.529297"/>
      </g>
     </g>
    </g>
    <g id="xtick_5">
     <g id="line2d_9">
      <path d="M 232.473905 279.561175 
L 232.473905 25.44 
" clip-path="url(#paf1d4e1a06)" style="fill: none; stroke: #b0b0b0; stroke-width: 0.8; stroke-linecap: square"/>
     </g>
     <g id="line2d_10">
      <g>
       <use xlink:href="#m4f8e3b36a7" x="232.473905" y="279.561175" style="stroke: #000000; stroke-width: 0.8"/>
      </g>
     </g>
     <g id="text_5">
      <!-- 2023-11-06 -->
      <g transform="translate(189.909391 333.028035) rotate(-45) scale(0.1 -0.1)">
       <defs>
        <path id="DejaVuSans-36" d="M 2113 2584 
Q 1688 2584 1439 2293 
Q 1191 2003 1191 1497 
Q 1191 994 1439 701 
Q 1688 409 2113 409 
Q 2538 409 2786 701 
Q 3034 994 3034 1497 
Q 3034 2003 2786 2293 
Q 2538 2584 2113 2584 
z
M 3366 4563 
L 3366 3988 
Q 3128 4100 2886 4159 
Q 2644 4219 2406 4219 
Q 1781 4219 1451 3797 
Q 1122 3375 1075 2522 
Q 1259 2794 1537 2939 
Q 1816 3084 2150 3084 
Q 2853 3084 3261 2657 
Q 3669 2231 3669 1497 
Q 3669 778 3244 343 
Q 2819 -91 2113 -91 
Q 1303 -91 875 529 
Q 447 1150 447 2328 
Q 447 3434 972 4092 
Q 1497 4750 2381 4750 
Q 2619 4750 2861 4703 
Q 3103 4656 3366 4563 
z
" transform="scale(0.015625)"/>
       </defs>
       <use xlink:href="#DejaVuSans-32"/>
       <use xlink:href="#DejaVuSans-30" x="63.623047"/>
       <use xlink:href="#DejaVuSans-32" x="127.246094"/>
       <use xlink:href="#DejaVuSans-33" x="190.869141"/>
       <use xlink:href="#DejaVuSans-2d" x="254.492188"/>
       <use xlink:href="#DejaVuSans-31" x="290.576172"/>
       <use xlink:href="#DejaVuSans-31" x="354.199219"/>
       <use xlink:href="#DejaVuSans-2d" x="417.822266"/>
       <use xlink:href="#DejaVuSans-30" x="453.90625"/>
       <use xlink:href="#DejaVuSans-36" x="517.529297"/>
      </g>
     </g>
    </g>
    <g id="xtick_6">
     <g id="line2d_11">
      <path d="M 268.762547 279.561175 
L 268.762547 25.44 
" clip-path="url(#paf1d4e1a06)" style="fill: none; stroke: #b0b0b0; stroke-width: 0.8; stroke-linecap: square"/>
     </g>
     <g id="line2d_12">
      <g>
       <use xlink:href="#m4f8e3b36a7" x="268.762547" y="279.561175" style="stroke: #000000; stroke-width: 0.8"/>
      </g>
     </g>
     <g id="text_6">
      <!-- 2023-11-07 -->
      <g transform="translate(226.198034 333.028035) rotate(-45) scale(0.1 -0.1)">
       <defs>
        <path id="DejaVuSans-37" d="M 525 4666 
L 3525 4666 
L 3525 4397 
L 1831 0 
L 1172 0 
L 2766 4134 
L 525 4134 
L 525 4666 
z
" transform="scale(0.015625)"/>
       </defs>
       <use xlink:href="#DejaVuSans-32"/>
       <use xlink:href="#DejaVuSans-30" x="63.623047"/>
       <use xlink:href="#DejaVuSans-32" x="127.246094"/>
       <use xlink:href="#DejaVuSans-33" x="190.869141"/>
       <use xlink:href="#DejaVuSans-2d" x="254.492188"/>
       <use xlink:href="#DejaVuSans-31" x="290.576172"/>
       <use xlink:href="#DejaVuSans-31" x="354.199219"/>
       <use xlink:href="#DejaVuSans-2d" x="417.822266"/>
       <use xlink:href="#DejaVuSans-30" x="453.90625"/>
       <use xlink:href="#DejaVuSans-37" x="517.529297"/>
      </g>
     </g>
    </g>
    <g id="xtick_7">
     <g id="line2d_13">
      <path d="M 305.051189 279.561175 
L 305.051189 25.44 
" clip-path="url(#paf1d4e1a06)" style="fill: none; stroke: #b0b0b0; stroke-width: 0.8; stroke-linecap: square"/>
     </g>
     <g id="line2d_14">
      <g>
       <use xlink:href="#m4f8e3b36a7" x="305.051189" y="279.561175" style="stroke: #000000; stroke-width: 0.8"/>
      </g>
     </g>
     <g id="text_7">
      <!-- 2023-11-08 -->
      <g transform="translate(262.486676 333.028035) rotate(-45) scale(0.1 -0.1)">
       <defs>
        <path id="DejaVuSans-38" d="M 2034 2216 
Q 1584 2216 1326 1975 
Q 1069 1734 1069 1313 
Q 1069 891 1326 650 
Q 1584 409 2034 409 
Q 2484 409 2743 651 
Q 3003 894 3003 1313 
Q 3003 1734 2745 1975 
Q 2488 2216 2034 2216 
z
M 1403 2484 
Q 997 2584 770 2862 
Q 544 3141 544 3541 
Q 544 4100 942 4425 
Q 1341 4750 2034 4750 
Q 2731 4750 3128 4425 
Q 3525 4100 3525 3541 
Q 3525 3141 3298 2862 
Q 3072 2584 2669 2484 
Q 3125 2378 3379 2068 
Q 3634 1759 3634 1313 
Q 3634 634 3220 271 
Q 2806 -91 2034 -91 
Q 1263 -91 848 271 
Q 434 634 434 1313 
Q 434 1759 690 2068 
Q 947 2378 1403 2484 
z
M 1172 3481 
Q 1172 3119 1398 2916 
Q 1625 2713 2034 2713 
Q 2441 2713 2670 2916 
Q 2900 3119 2900 3481 
Q 2900 3844 2670 4047 
Q 2441 4250 2034 4250 
Q 1625 4250 1398 4047 
Q 1172 3844 1172 3481 
z
" transform="scale(0.015625)"/>
       </defs>
       <use xlink:href="#DejaVuSans-32"/>
       <use xlink:href="#DejaVuSans-30" x="63.623047"/>
       <use xlink:href="#DejaVuSans-32" x="127.246094"/>
       <use xlink:href="#DejaVuSans-33" x="190.869141"/>
       <use xlink:href="#DejaVuSans-2d" x="254.492188"/>
       <use xlink:href="#DejaVuSans-31" x="290.576172"/>
       <use xlink:href="#DejaVuSans-31" x="354.199219"/>
       <use xlink:href="#DejaVuSans-2d" x="417.822266"/>
       <use xlink:href="#DejaVuSans-30" x="453.90625"/>
       <use xlink:href="#DejaVuSans-38" x="517.529297"/>
      </g>
     </g>
    </g>
    <g id="xtick_8">
     <g id="line2d_15">
      <path d="M 341.339832 279.561175 
L 341.339832 25.44 
" clip-path="url(#paf1d4e1a06)" style="fill: none; stroke: #b0b0b0; stroke-width: 0.8; stroke-linecap: square"/>
     </g>
     <g id="line2d_16">
      <g>
       <use xlink:href="#m4f8e3b36a7" x="341.339832" y="279.561175" style="stroke: #000000; stroke-width: 0.8"/>
      </g>
     </g>
     <g id="text_8">
      <!-- 2023-11-09 -->
      <g transform="translate(298.775318 333.028035) rotate(-45) scale(0.1 -0.1)">
       <defs>
        <path id="DejaVuSans-39" d="M 703 97 
L 703 672 
Q 941 559 1184 500 
Q 1428 441 1663 441 
Q 2288 441 2617 861 
Q 2947 1281 2994 2138 
Q 2813 1869 2534 1725 
Q 2256 1581 1919 1581 
Q 1219 1581 811 2004 
Q 403 2428 403 3163 
Q 403 3881 828 4315 
Q 1253 4750 1959 4750 
Q 2769 4750 3195 4129 
Q 3622 3509 3622 2328 
Q 3622 1225 3098 567 
Q 2575 -91 1691 -91 
Q 1453 -91 1209 -44 
Q 966 3 703 97 
z
M 1959 2075 
Q 2384 2075 2632 2365 
Q 2881 2656 2881 3163 
Q 2881 3666 2632 3958 
Q 2384 4250 1959 4250 
Q 1534 4250 1286 3958 
Q 1038 3666 1038 3163 
Q 1038 2656 1286 2365 
Q 1534 2075 1959 2075 
z
" transform="scale(0.015625)"/>
       </defs>
       <use xlink:href="#DejaVuSans-32"/>
       <use xlink:href="#DejaVuSans-30" x="63.623047"/>
       <use xlink:href="#DejaVuSans-32" x="127.246094"/>
       <use xlink:href="#DejaVuSans-33" x="190.869141"/>
       <use xlink:href="#DejaVuSans-2d" x="254.492188"/>
       <use xlink:href="#DejaVuSans-31" x="290.576172"/>
       <use xlink:href="#DejaVuSans-31" x="354.199219"/>
       <use xlink:href="#DejaVuSans-2d" x="417.822266"/>
       <use xlink:href="#DejaVuSans-30" x="453.90625"/>
       <use xlink:href="#DejaVuSans-39" x="517.529297"/>
      </g>
     </g>
    </g>
    <g id="xtick_9">
     <g id="line2d_17">
      <path d="M 377.628474 279.561175 
L 377.628474 25.44 
" clip-path="url(#paf1d4e1a06)" style="fill: none; stroke: #b0b0b0; stroke-width: 0.8; stroke-linecap: square"/>
     </g>
     <g id="line2d_18">
      <g>
       <use xlink:href="#m4f8e3b36a7" x="377.628474" y="279.561175" style="stroke: #000000; stroke-width: 0.8"/>
      </g>
     </g>
     <g id="text_9">
      <!-- 2023-11-10 -->
      <g transform="translate(335.06396 333.028035) rotate(-45) scale(0.1 -0.1)">
       <use xlink:href="#DejaVuSans-32"/>
       <use xlink:href="#DejaVuSans-30" x="63.623047"/>
       <use xlink:href="#DejaVuSans-32" x="127.246094"/>
       <use xlink:href="#DejaVuSans-33" x="190.869141"/>
       <use xlink:href="#DejaVuSans-2d" x="254.492188"/>
       <use xlink:href="#DejaVuSans-31" x="290.576172"/>
       <use xlink:href="#DejaVuSans-31" x="354.199219"/>
       <use xlink:href="#DejaVuSans-2d" x="417.822266"/>
       <use xlink:href="#DejaVuSans-31" x="453.90625"/>
       <use xlink:href="#DejaVuSans-30" x="517.529297"/>
      </g>
     </g>
    </g>
    <g id="xtick_10">
     <g id="line2d_19">
      <path d="M 413.917116 279.561175 
L 413.917116 25.44 
" clip-path="url(#paf1d4e1a06)" style="fill: none; stroke: #b0b0b0; stroke-width: 0.8; stroke-linecap: square"/>
     </g>
     <g id="line2d_20">
      <g>
       <use xlink:href="#m4f8e3b36a7" x="413.917116" y="279.561175" style="stroke: #000000; stroke-width: 0.8"/>
      </g>
     </g>
     <g id="text_10">
      <!-- 2023-11-11 -->
      <g transform="translate(371.352602 333.028035) rotate(-45) scale(0.1 -0.1)">
       <use xlink:href="#DejaVuSans-32"/>
       <use xlink:href="#DejaVuSans-30" x="63.623047"/>
       <use xlink:href="#DejaVuSans-32" x="127.246094"/>
       <use xlink:href="#DejaVuSans-33" x="190.869141"/>
       <use xlink:href="#DejaVuSans-2d" x="254.492188"/>
       <use xlink:href="#DejaVuSans-31" x="290.576172"/>
       <use xlink:href="#DejaVuSans-31" x="354.199219"/>
       <use xlink:href="#DejaVuSans-2d" x="417.822266"/>
       <use xlink:href="#DejaVuSans-31" x="453.90625"/>
       <use xlink:href="#DejaVuSans-31" x="517.529297"/>
      </g>
     </g>
    </g>
   </g>
   <g id="matplotlib.axis_2">
    <g id="ytick_1">
     <g id="line2d_21">
      <path d="M 51.05 279.561175 
L 450 279.561175 
" clip-path="url(#paf1d4e1a06)" style="fill: none; stroke: #b0b0b0; stroke-width: 0.8; stroke-linecap: square"/>
     </g>
     <g id="line2d_22">
      <defs>
       <path id="m6fc2a909ae" d="M 0 0 
L -3.5 0 
" style="stroke: #000000; stroke-width: 0.8"/>
      </defs>
      <g>
       <use xlink:href="#m6fc2a909ae" x="51.05" y="279.561175" style="stroke: #000000; stroke-width: 0.8"/>
      </g>
     </g>
     <g id="text_11">
      <!-- 0 -->
      <g transform="translate(37.6875 283.360394) scale(0.1 -0.1)">
       <use xlink:href="#DejaVuSans-30"/>
      </g>
     </g>
    </g>
    <g id="ytick_2">
     <g id="line2d_23">
      <path d="M 51.05 228.73694 
L 450 228.73694 
" clip-path="url(#paf1d4e1a06)" style="fill: none; stroke: #b0b0b0; stroke-width: 0.8; stroke-linecap: square"/>
     </g>
     <g id="line2d_24">
      <g>
       <use xlink:href="#m6fc2a909ae" x="51.05" y="228.73694" style="stroke: #000000; stroke-width: 0.8"/>
      </g>
     </g>
     <g id="text_12">
      <!-- 20 -->
      <g transform="translate(31.325 232.536159) scale(0.1 -0.1)">
       <use xlink:href="#DejaVuSans-32"/>
       <use xlink:href="#DejaVuSans-30" x="63.623047"/>
      </g>
     </g>
    </g>
    <g id="ytick_3">
     <g id="line2d_25">
      <path d="M 51.05 177.912705 
L 450 177.912705 
" clip-path="url(#paf1d4e1a06)" style="fill: none; stroke: #b0b0b0; stroke-width: 0.8; stroke-linecap: square"/>
     </g>
     <g id="line2d_26">
      <g>
       <use xlink:href="#m6fc2a909ae" x="51.05" y="177.912705" style="stroke: #000000; stroke-width: 0.8"/>
      </g>
     </g>
     <g id="text_13">
      <!-- 40 -->
      <g transform="translate(31.325 181.711924) scale(0.1 -0.1)">
       <use xlink:href="#DejaVuSans-34"/>
       <use xlink:href="#DejaVuSans-30" x="63.623047"/>
      </g>
     </g>
    </g>
    <g id="ytick_4">
     <g id="line2d_27">
      <path d="M 51.05 127.08847 
L 450 127.08847 
" clip-path="url(#paf1d4e1a06)" style="fill: none; stroke: #b0b0b0; stroke-width: 0.8; stroke-linecap: square"/>
     </g>
     <g id="line2d_28">
      <g>
       <use xlink:href="#m6fc2a909ae" x="51.05" y="127.08847" style="stroke: #000000; stroke-width: 0.8"/>
      </g>
     </g>
     <g id="text_14">
      <!-- 60 -->
      <g transform="translate(31.325 130.887689) scale(0.1 -0.1)">
       <use xlink:href="#DejaVuSans-36"/>
       <use xlink:href="#DejaVuSans-30" x="63.623047"/>
      </g>
     </g>
    </g>
    <g id="ytick_5">
     <g id="line2d_29">
      <path d="M 51.05 76.264235 
L 450 76.264235 
" clip-path="url(#paf1d4e1a06)" style="fill: none; stroke: #b0b0b0; stroke-width: 0.8; stroke-linecap: square"/>
     </g>
     <g id="line2d_30">
      <g>
       <use xlink:href="#m6fc2a909ae" x="51.05" y="76.264235" style="stroke: #000000; stroke-width: 0.8"/>
      </g>
     </g>
     <g id="text_15">
      <!-- 80 -->
      <g transform="translate(31.325 80.063454) scale(0.1 -0.1)">
       <use xlink:href="#DejaVuSans-38"/>
       <use xlink:href="#DejaVuSans-30" x="63.623047"/>
      </g>
     </g>
    </g>
    <g id="ytick_6">
     <g id="line2d_31">
      <path d="M 51.05 25.44 
L 450 25.44 
" clip-path="url(#paf1d4e1a06)" style="fill: none; stroke: #b0b0b0; stroke-width: 0.8; stroke-linecap: square"/>
     </g>
     <g id="line2d_32">
      <g>
       <use xlink:href="#m6fc2a909ae" x="51.05" y="25.44" style="stroke: #000000; stroke-width: 0.8"/>
      </g>
     </g>
     <g id="text_16">
      <!-- 100 -->
      <g transform="translate(24.9625 29.239219) scale(0.1 -0.1)">
       <use xlink:href="#DejaVuSans-31"/>
       <use xlink:href="#DejaVuSans-30" x="63.623047"/>
       <use xlink:href="#DejaVuSans-30" x="127.246094"/>
      </g>
     </g>
    </g>
    <g id="text_17">
     <!-- Humidity [%RH] -->
     <g transform="translate(18.882812 192.647463) rotate(-90) scale(0.1 -0.1)">
      <defs>
       <path id="DejaVuSans-48" d="M 628 4666 
L 1259 4666 
L 1259 2753 
L 3553 2753 
L 3553 4666 
L 4184 4666 
L 4184 0 
L 3553 0 
L 3553 2222 
L 1259 2222 
L 1259 0 
L 628 0 
L 628 4666 
z
" transform="scale(0.015625)"/>
       <path id="DejaVuSans-75" d="M 544 1381 
L 544 3500 
L 1119 3500 
L 1119 1403 
Q 1119 906 1312 657 
Q 1506 409 1894 409 
Q 2359 409 2629 706 
Q 2900 1003 2900 1516 
L 2900 3500 
L 3475 3500 
L 3475 0 
L 2900 0 
L 2900 538 
Q 2691 219 2414 64 
Q 2138 -91 1772 -91 
Q 1169 -91 856 284 
Q 544 659 544 1381 
z
M 1991 3584 
L 1991 3584 
z
" transform="scale(0.015625)"/>
       <path id="DejaVuSans-6d" d="M 3328 2828 
Q 3544 3216 3844 3400 
Q 4144 3584 4550 3584 
Q 5097 3584 5394 3201 
Q 5691 2819 5691 2113 
L 5691 0 
L 5113 0 
L 5113 2094 
Q 5113 2597 4934 2840 
Q 4756 3084 4391 3084 
Q 3944 3084 3684 2787 
Q 3425 2491 3425 1978 
L 3425 0 
L 2847 0 
L 2847 2094 
Q 2847 2600 2669 2842 
Q 2491 3084 2119 3084 
Q 1678 3084 1418 2786 
Q 1159 2488 1159 1978 
L 1159 0 
L 581 0 
L 581 3500 
L 1159 3500 
L 1159 2956 
Q 1356 3278 1631 3431 
Q 1906 3584 2284 3584 
Q 2666 3584 2933 3390 
Q 3200 3197 3328 2828 
z
" transform="scale(0.015625)"/>
       <path id="DejaVuSans-69" d="M 603 3500 
L 1178 3500 
L 1178 0 
L 603 0 
L 603 3500 
z
M 603 4863 
L 1178 4863 
L 1178 4134 
L 603 4134 
L 603 4863 
z
" transform="scale(0.015625)"/>
       <path id="DejaVuSans-64" d="M 2906 2969 
L 2906 4863 
L 3481 4863 
L 3481 0 
L 2906 0 
L 2906 525 
Q 2725 213 2448 61 
Q 2172 -91 1784 -91 
Q 1150 -91 751 415 
Q 353 922 353 1747 
Q 353 2572 751 3078 
Q 1150 3584 1784 3584 
Q 2172 3584 2448 3432 
Q 2725 3281 2906 2969 
z
M 947 1747 
Q 947 1113 1208 752 
Q 1469 391 1925 391 
Q 2381 391 2643 752 
Q 2906 1113 2906 1747 
Q 2906 2381 2643 2742 
Q 2381 3103 1925 3103 
Q 1469 3103 1208 2742 
Q 947 2381 947 1747 
z
" transform="scale(0.015625)"/>
       <path id="DejaVuSans-74" d="M 1172 4494 
L 1172 3500 
L 2356 3500 
L 2356 3053 
L 1172 3053 
L 1172 1153 
Q 1172 725 1289 603 
Q 1406 481 1766 481 
L 2356 481 
L 2356 0 
L 1766 0 
Q 1100 0 847 248 
Q 594 497 594 1153 
L 594 3053 
L 172 3053 
L 172 3500 
L 594 3500 
L 594 4494 
L 1172 4494 
z
" transform="scale(0.015625)"/>
       <path id="DejaVuSans-79" d="M 2059 -325 
Q 1816 -950 1584 -1140 
Q 1353 -1331 966 -1331 
L 506 -1331 
L 506 -850 
L 844 -850 
Q 1081 -850 1212 -737 
Q 1344 -625 1503 -206 
L 1606 56 
L 191 3500 
L 800 3500 
L 1894 763 
L 2988 3500 
L 3597 3500 
L 2059 -325 
z
" transform="scale(0.015625)"/>
       <path id="DejaVuSans-20" transform="scale(0.015625)"/>
       <path id="DejaVuSans-5b" d="M 550 4863 
L 1875 4863 
L 1875 4416 
L 1125 4416 
L 1125 -397 
L 1875 -397 
L 1875 -844 
L 550 -844 
L 550 4863 
z
" transform="scale(0.015625)"/>
       <path id="DejaVuSans-25" d="M 4653 2053 
Q 4381 2053 4226 1822 
Q 4072 1591 4072 1178 
Q 4072 772 4226 539 
Q 4381 306 4653 306 
Q 4919 306 5073 539 
Q 5228 772 5228 1178 
Q 5228 1588 5073 1820 
Q 4919 2053 4653 2053 
z
M 4653 2450 
Q 5147 2450 5437 2106 
Q 5728 1763 5728 1178 
Q 5728 594 5436 251 
Q 5144 -91 4653 -91 
Q 4153 -91 3862 251 
Q 3572 594 3572 1178 
Q 3572 1766 3864 2108 
Q 4156 2450 4653 2450 
z
M 1428 4353 
Q 1159 4353 1004 4120 
Q 850 3888 850 3481 
Q 850 3069 1003 2837 
Q 1156 2606 1428 2606 
Q 1700 2606 1854 2837 
Q 2009 3069 2009 3481 
Q 2009 3884 1853 4118 
Q 1697 4353 1428 4353 
z
M 4250 4750 
L 4750 4750 
L 1831 -91 
L 1331 -91 
L 4250 4750 
z
M 1428 4750 
Q 1922 4750 2215 4408 
Q 2509 4066 2509 3481 
Q 2509 2891 2217 2550 
Q 1925 2209 1428 2209 
Q 931 2209 642 2551 
Q 353 2894 353 3481 
Q 353 4063 643 4406 
Q 934 4750 1428 4750 
z
" transform="scale(0.015625)"/>
       <path id="DejaVuSans-52" d="M 2841 2188 
Q 3044 2119 3236 1894 
Q 3428 1669 3622 1275 
L 4263 0 
L 3584 0 
L 2988 1197 
Q 2756 1666 2539 1819 
Q 2322 1972 1947 1972 
L 1259 1972 
L 1259 0 
L 628 0 
L 628 4666 
L 2053 4666 
Q 2853 4666 3247 4331 
Q 3641 3997 3641 3322 
Q 3641 2881 3436 2590 
Q 3231 2300 2841 2188 
z
M 1259 4147 
L 1259 2491 
L 2053 2491 
Q 2509 2491 2742 2702 
Q 2975 2913 2975 3322 
Q 2975 3731 2742 3939 
Q 2509 4147 2053 4147 
L 1259 4147 
z
" transform="scale(0.015625)"/>
       <path id="DejaVuSans-5d" d="M 1947 4863 
L 1947 -844 
L 622 -844 
L 622 -397 
L 1369 -397 
L 1369 4416 
L 622 4416 
L 622 4863 
L 1947 4863 
z
" transform="scale(0.015625)"/>
      </defs>
      <use xlink:href="#DejaVuSans-48"/>
      <use xlink:href="#DejaVuSans-75" x="75.195312"/>
      <use xlink:href="#DejaVuSans-6d" x="138.574219"/>
      <use xlink:href="#DejaVuSans-69" x="235.986328"/>
      <use xlink:href="#DejaVuSans-64" x="263.769531"/>
      <use xlink:href="#DejaVuSans-69" x="327.246094"/>
      <use xlink:href="#DejaVuSans-74" x="355.029297"/>
      <use xlink:href="#DejaVuSans-79" x="394.238281"/>
      <use xlink:href="#DejaVuSans-20" x="453.417969"/>
      <use xlink:href="#DejaVuSans-5b" x="485.205078"/>
      <use xlink:href="#DejaVuSans-25" x="524.21875"/>
      <use xlink:href="#DejaVuSans-52" x="619.238281"/>
      <use xlink:href="#DejaVuSans-48" x="688.720703"/>
      <use xlink:href="#DejaVuSans-5d" x="763.916016"/>
     </g>
    </g>
   </g>
   <g id="line2d_33">
    <path d="M 51.05 58.475753 
L 51.150717 58.475753 
L 51.291949 53.393329 
L 51.312 53.393329 
L 51.43296 50.852118 
L 51.553921 50.852118 
L 51.674881 48.310906 
L 52.037764 48.310906 
L 52.158727 50.852118 
L 52.219268 50.852118 
L 52.340303 53.393329 
L 52.420919 53.393329 
L 52.541797 55.934541 
L 52.904644 55.934541 
L 53.025718 58.475753 
L 53.207055 58.475753 
L 53.287697 61.016965 
L 53.307902 58.475753 
L 54.053784 58.475753 
L 54.154699 61.016965 
L 54.295707 55.934541 
L 54.315969 55.934541 
L 54.436856 53.393329 
L 54.477256 53.393329 
L 54.598223 55.934541 
L 55.001421 55.934541 
L 55.122373 58.475753 
L 55.142438 58.475753 
L 55.283654 61.016965 
L 55.404664 61.016965 
L 55.505322 63.558176 
L 55.666602 63.558176 
L 55.767513 61.016965 
L 55.888473 63.558176 
L 56.311977 63.558176 
L 56.473007 55.934541 
L 56.654578 55.934541 
L 56.775558 58.475753 
L 56.856167 58.475753 
L 56.977115 61.016965 
L 56.997175 61.016965 
L 57.138414 66.099388 
L 57.460863 66.099388 
L 57.60198 61.016965 
L 57.622245 61.016965 
L 57.743209 63.558176 
L 58.025453 63.558176 
L 58.146421 61.016965 
L 58.408386 61.016965 
L 58.529348 58.475753 
L 58.730947 58.475753 
L 58.892231 66.099388 
L 58.912497 66.099388 
L 59.073768 73.723023 
L 59.214795 73.723023 
L 59.295435 76.264235 
L 59.416395 73.723023 
L 59.497037 76.264235 
L 59.517315 73.723023 
L 59.577678 73.723023 
L 59.698871 71.181812 
L 59.880195 71.181812 
L 60.001151 73.723023 
L 60.283412 73.723023 
L 60.404362 76.264235 
L 60.82761 76.264235 
L 61.049488 68.6406 
L 61.190493 68.6406 
L 61.37205 63.558176 
L 61.392093 63.558176 
L 61.513055 61.016965 
L 61.654233 61.016965 
L 61.775202 58.475753 
L 62.158182 58.475753 
L 62.299376 63.558176 
L 62.642029 63.558176 
L 62.762979 66.099388 
L 62.783185 66.099388 
L 62.924271 71.181812 
L 62.94456 71.181812 
L 63.085555 76.264235 
L 63.146031 76.264235 
L 63.267123 86.429082 
L 63.287155 83.88787 
L 63.448436 76.264235 
L 63.771001 76.264235 
L 63.892167 104.217564 
L 64.07354 124.547258 
L 64.09356 124.547258 
L 64.21452 127.08847 
L 64.355772 122.006047 
L 64.436417 122.006047 
L 64.557387 124.547258 
L 64.577402 124.547258 
L 64.799302 139.794529 
L 64.819323 139.794529 
L 64.859643 142.335741 
L 64.899963 137.253317 
L 64.940284 137.253317 
L 64.960579 134.712105 
L 65.021146 139.794529 
L 65.121819 144.876952 
L 65.141883 142.335741 
L 65.162155 142.335741 
L 65.242832 139.794529 
L 65.262845 142.335741 
L 65.363785 147.418164 
L 65.384001 144.876952 
L 65.484747 144.876952 
L 65.545087 147.418164 
L 65.585407 144.876952 
L 65.605602 144.876952 
L 65.847602 127.08847 
L 65.867647 127.08847 
L 66.008912 122.006047 
L 66.028926 122.006047 
L 66.170039 127.08847 
L 66.674048 127.08847 
L 66.81531 122.006047 
L 66.835326 122.006047 
L 66.956288 124.547258 
L 66.976515 124.547258 
L 67.097542 127.08847 
L 67.19821 127.08847 
L 67.278989 129.629682 
L 67.460436 124.547258 
L 67.480448 124.547258 
L 67.601408 122.006047 
L 67.682044 122.006047 
L 67.803008 124.547258 
L 67.843329 124.547258 
L 67.984575 119.464835 
L 68.00461 122.006047 
L 68.08525 119.464835 
L 68.266801 119.464835 
L 68.407988 124.547258 
L 68.569089 124.547258 
L 68.670054 122.006047 
L 68.730372 127.08847 
L 68.770691 124.547258 
L 68.811204 124.547258 
L 68.931971 127.08847 
L 69.012613 127.08847 
L 69.113511 144.876952 
L 69.17413 139.794529 
L 69.234456 132.170894 
L 69.294853 137.253317 
L 69.315179 139.794529 
L 69.395817 137.253317 
L 69.45613 137.253317 
L 69.657731 124.547258 
L 69.678028 127.08847 
L 69.758601 124.547258 
L 69.839313 124.547258 
L 69.96015 122.006047 
L 69.980295 122.006047 
L 70.00056 119.464835 
L 70.081235 122.006047 
L 70.202184 124.547258 
L 70.222213 124.547258 
L 70.343172 122.006047 
L 70.504453 122.006047 
L 70.524688 119.464835 
L 70.585092 122.006047 
L 70.645732 122.006047 
L 70.766664 124.547258 
L 70.827013 124.547258 
L 70.947972 122.006047 
L 71.06911 124.547258 
L 71.149574 124.547258 
L 71.270533 122.006047 
L 71.512456 122.006047 
L 71.714057 134.712105 
L 71.754379 134.712105 
L 71.835204 129.629682 
L 71.875339 132.170894 
L 71.935958 132.170894 
L 72.076936 127.08847 
L 72.177905 127.08847 
L 72.298873 124.547258 
L 72.480137 124.547258 
L 72.601097 122.006047 
L 72.621312 122.006047 
L 72.661719 124.547258 
L 72.722057 122.006047 
L 73.306835 122.006047 
L 73.46814 114.382411 
L 73.52846 114.382411 
L 73.64942 111.8412 
L 73.689741 111.8412 
L 73.951969 101.676353 
L 74.213904 101.676353 
L 74.334865 99.135141 
L 74.395489 99.135141 
L 74.516368 96.593929 
L 74.536466 96.593929 
L 74.617106 94.052717 
L 74.637444 96.593929 
L 74.818708 96.593929 
L 74.959984 94.052717 
L 75.181589 94.052717 
L 75.302551 73.723023 
L 75.443816 73.723023 
L 75.585037 68.6406 
L 75.705754 68.6406 
L 75.826714 66.099388 
L 76.229921 66.099388 
L 76.351106 63.558176 
L 76.411429 63.558176 
L 76.532494 61.016965 
L 76.713767 61.016965 
L 76.895346 55.934541 
L 76.91537 55.934541 
L 77.036328 53.393329 
L 77.197608 53.393329 
L 77.318568 55.934541 
L 78.124975 55.934541 
L 78.246153 53.393329 
L 78.467871 53.393329 
L 78.5888 50.852118 
L 79.052337 50.852118 
L 79.173299 48.310906 
L 79.919363 48.310906 
L 80.040325 45.769694 
L 80.141178 45.769694 
L 80.28223 43.228482 
L 80.463544 43.228482 
L 80.584504 40.687271 
L 80.766104 40.687271 
L 80.866746 38.146059 
L 81.79411 38.146059 
L 81.915072 35.604847 
L 82.459437 35.604847 
L 82.580525 33.063635 
L 83.386885 33.063635 
L 83.507856 30.522424 
L 84.374599 30.522424 
L 84.495561 27.981212 
L 111.933621 27.981212 
L 112.094933 35.604847 
L 112.135245 35.604847 
L 112.276223 40.687271 
L 112.356866 40.687271 
L 112.477825 43.228482 
L 112.739919 43.228482 
L 112.86105 45.769694 
L 113.00199 45.769694 
L 113.122951 48.310906 
L 113.546431 48.310906 
L 113.667412 45.769694 
L 113.989925 45.769694 
L 114.110955 43.228482 
L 114.574489 43.228482 
L 114.715743 40.687271 
L 115.905059 40.687271 
L 116.026022 43.228482 
L 116.267945 43.228482 
L 116.388906 40.687271 
L 117.437234 40.687271 
L 117.558195 38.146059 
L 117.880758 38.146059 
L 118.001721 35.604847 
L 118.243646 35.604847 
L 118.364604 33.063635 
L 118.586474 33.063635 
L 118.707492 30.522424 
L 119.29197 30.522424 
L 119.412931 27.981212 
L 120.118627 27.981212 
L 120.23962 30.522424 
L 120.380617 30.522424 
L 120.521878 33.063635 
L 120.541899 33.063635 
L 120.663096 35.604847 
L 120.723398 35.604847 
L 120.844467 38.146059 
L 120.925112 38.146059 
L 121.025743 40.687271 
L 121.167029 40.687271 
L 121.287942 43.228482 
L 121.670867 43.228482 
L 121.791829 45.769694 
L 122.215196 45.769694 
L 122.336308 43.228482 
L 122.416887 43.228482 
L 122.537848 40.687271 
L 122.658862 40.687271 
L 122.779792 38.146059 
L 122.961328 38.146059 
L 123.082079 35.604847 
L 123.263681 35.604847 
L 123.40464 40.687271 
L 123.465268 40.687271 
L 123.60624 45.769694 
L 123.928806 45.769694 
L 124.049767 43.228482 
L 124.170727 43.228482 
L 124.291687 40.687271 
L 124.453229 40.687271 
L 124.594256 38.146059 
L 124.856404 38.146059 
L 124.977135 35.604847 
L 125.32001 35.604847 
L 125.440981 33.063635 
L 126.04572 33.063635 
L 126.166643 30.522424 
L 126.489275 30.522424 
L 126.610293 33.063635 
L 126.670588 33.063635 
L 126.791549 35.604847 
L 126.872188 35.604847 
L 126.99315 38.146059 
L 127.114316 38.146059 
L 127.23507 40.687271 
L 128.444682 40.687271 
L 128.565641 38.146059 
L 128.868195 38.146059 
L 128.989154 35.604847 
L 129.150404 35.604847 
L 129.271391 38.146059 
L 129.493009 38.146059 
L 129.613972 40.687271 
L 129.976853 40.687271 
L 130.097815 43.228482 
L 130.843874 43.228482 
L 130.964787 40.687271 
L 131.629988 40.687271 
L 131.851887 48.310906 
L 131.892208 48.310906 
L 132.01318 50.852118 
L 132.07351 50.852118 
L 132.19447 48.310906 
L 132.335768 48.310906 
L 132.456583 45.769694 
L 132.557353 45.769694 
L 132.678314 48.310906 
L 132.799531 48.310906 
L 132.920234 45.769694 
L 133.464717 45.769694 
L 133.58553 43.228482 
L 134.371767 43.228482 
L 134.492727 40.687271 
L 134.674332 40.687271 
L 134.795241 43.228482 
L 135.460597 43.228482 
L 135.581378 45.769694 
L 135.601656 45.769694 
L 135.722589 43.228482 
L 135.984581 43.228482 
L 136.105542 45.769694 
L 136.125804 45.769694 
L 136.186183 48.310906 
L 136.226706 45.769694 
L 136.287095 45.769694 
L 136.347465 48.310906 
L 136.387785 45.769694 
L 136.649931 45.769694 
L 136.77096 43.228482 
L 137.032909 43.228482 
L 137.15387 40.687271 
L 137.355717 40.687271 
L 137.476433 43.228482 
L 137.718546 43.228482 
L 137.859557 45.769694 
L 137.960277 45.769694 
L 138.08124 48.310906 
L 138.32316 48.310906 
L 138.444124 45.769694 
L 139.653739 45.769694 
L 139.774701 48.310906 
L 141.649757 48.310906 
L 141.770729 50.852118 
L 141.871356 50.852118 
L 142.012656 48.310906 
L 142.274767 48.310906 
L 142.415819 50.852118 
L 142.536758 48.310906 
L 142.637444 48.310906 
L 142.819002 53.393329 
L 142.939979 53.393329 
L 143.060806 50.852118 
L 143.201925 50.852118 
L 143.343185 55.934541 
L 143.363208 55.934541 
L 143.504473 61.016965 
L 143.564808 61.016965 
L 143.685769 63.558176 
L 143.766409 63.558176 
L 143.867317 66.099388 
L 143.88737 63.558176 
L 143.968009 66.099388 
L 144.048651 66.099388 
L 144.169864 68.6406 
L 144.330892 68.6406 
L 144.451854 66.099388 
L 144.492174 66.099388 
L 144.633413 71.181812 
L 144.754315 68.6406 
L 144.976019 68.6406 
L 145.117297 63.558176 
L 145.137299 63.558176 
L 145.258259 61.016965 
L 145.419542 61.016965 
L 145.540503 58.475753 
L 146.104988 58.475753 
L 146.226219 55.934541 
L 146.427552 55.934541 
L 146.568779 58.475753 
L 146.588832 58.475753 
L 146.709794 61.016965 
L 146.850919 61.016965 
L 146.891329 58.475753 
L 146.951715 61.016965 
L 147.072676 61.016965 
L 147.193864 63.558176 
L 147.294586 63.558176 
L 147.415554 61.016965 
L 147.597088 61.016965 
L 147.738121 55.934541 
L 147.879082 55.934541 
L 148.000045 53.393329 
L 148.080685 53.393329 
L 148.201642 50.852118 
L 148.564526 50.852118 
L 148.685489 48.310906 
L 148.867055 48.310906 
L 149.028325 55.934541 
L 149.088897 55.934541 
L 149.229926 58.475753 
L 149.350914 55.934541 
L 149.370934 55.934541 
L 149.492171 53.393329 
L 149.733817 53.393329 
L 149.814459 50.852118 
L 149.8348 53.393329 
L 149.874926 53.393329 
L 150.016058 58.475753 
L 150.036388 58.475753 
L 150.19766 66.099388 
L 150.318594 66.099388 
L 150.439611 68.6406 
L 150.580544 68.6406 
L 150.641031 71.181812 
L 150.681441 68.6406 
L 151.165344 68.6406 
L 151.306311 63.558176 
L 151.528221 63.558176 
L 151.548237 61.016965 
L 151.628877 63.558176 
L 151.810381 63.558176 
L 151.931348 61.016965 
L 151.991759 61.016965 
L 152.11272 63.558176 
L 152.394966 63.558176 
L 152.516188 66.099388 
L 152.939341 66.099388 
L 153.060348 63.558176 
L 153.201375 63.558176 
L 153.322336 61.016965 
L 153.362655 61.016965 
L 153.523938 68.6406 
L 153.60458 68.6406 
L 153.725541 71.181812 
L 153.826439 71.181812 
L 153.94739 68.6406 
L 154.048293 68.6406 
L 154.169066 71.181812 
L 154.209387 71.181812 
L 154.330348 73.723023 
L 154.350594 73.723023 
L 154.471549 76.264235 
L 154.511912 76.264235 
L 154.572271 78.805447 
L 154.612595 76.264235 
L 154.894837 76.264235 
L 154.975478 73.723023 
L 154.995731 76.264235 
L 155.116671 76.264235 
L 155.25772 71.181812 
L 155.620606 71.181812 
L 155.741565 68.6406 
L 155.983487 68.6406 
L 156.064127 66.099388 
L 156.084395 68.6406 
L 156.427015 68.6406 
L 156.547978 71.181812 
L 156.830219 71.181812 
L 156.971386 76.264235 
L 157.0923 73.723023 
L 157.13271 73.723023 
L 157.273743 78.805447 
L 157.294047 78.805447 
L 157.435174 83.88787 
L 157.5763 86.429082 
L 157.697265 83.88787 
L 157.717271 83.88787 
L 157.797913 81.346659 
L 157.979502 86.429082 
L 158.060161 86.429082 
L 158.201287 91.511506 
L 158.382719 86.429082 
L 158.44304 86.429082 
L 158.624507 76.264235 
L 158.967402 76.264235 
L 159.10845 73.723023 
L 159.168812 73.723023 
L 159.289771 71.181812 
L 159.652656 71.181812 
L 159.773618 73.723023 
L 159.813939 73.723023 
L 159.934902 76.264235 
L 159.955211 76.264235 
L 160.156715 88.970294 
L 160.237456 88.970294 
L 160.358408 91.511506 
L 160.459067 91.511506 
L 160.600288 88.970294 
L 160.620349 88.970294 
L 160.741311 91.511506 
L 160.801962 91.511506 
L 160.963202 83.88787 
L 160.983235 83.88787 
L 161.124534 78.805447 
L 161.164854 78.805447 
L 161.285669 76.264235 
L 161.467083 86.429082 
L 161.487343 86.429082 
L 161.608313 88.970294 
L 161.709008 88.970294 
L 161.829968 91.511506 
L 161.87029 91.511506 
L 161.991254 94.052717 
L 162.092186 94.052717 
L 162.192857 91.511506 
L 162.334094 96.593929 
L 162.555742 96.593929 
L 162.676702 99.135141 
L 162.797665 99.135141 
L 162.817873 101.676353 
L 162.89862 99.135141 
L 162.958947 99.135141 
L 163.079908 101.676353 
L 163.12023 101.676353 
L 163.261473 106.758776 
L 163.281514 106.758776 
L 163.422762 111.8412 
L 163.563757 111.8412 
L 163.765359 99.135141 
L 163.886318 99.135141 
L 164.027561 101.676353 
L 164.128245 101.676353 
L 164.269545 96.593929 
L 164.350089 96.593929 
L 164.471112 94.052717 
L 164.571771 94.052717 
L 164.692732 91.511506 
L 164.874316 91.511506 
L 165.015298 96.593929 
L 165.156592 96.593929 
L 165.277512 94.052717 
L 165.398505 94.052717 
L 165.499144 96.593929 
L 165.579786 94.052717 
L 165.600076 96.593929 
L 165.660427 96.593929 
L 165.781388 99.135141 
L 165.821852 99.135141 
L 165.942669 101.676353 
L 166.1848 101.676353 
L 166.426517 111.8412 
L 166.587987 104.217564 
L 166.607992 104.217564 
L 166.769386 96.593929 
L 166.829725 96.593929 
L 166.970839 101.676353 
L 167.071645 101.676353 
L 167.23293 109.299988 
L 167.31378 109.299988 
L 167.454861 111.8412 
L 167.515173 111.8412 
L 167.575801 114.382411 
L 167.616137 111.8412 
L 167.636136 111.8412 
L 167.757096 109.299988 
L 167.797416 109.299988 
L 167.817739 106.758776 
L 167.898388 109.299988 
L 167.918378 109.299988 
L 168.059619 114.382411 
L 168.321585 114.382411 
L 168.442548 116.923623 
L 168.64415 109.299988 
L 168.785445 114.382411 
L 168.845998 114.382411 
L 169.027367 109.299988 
L 169.289279 109.299988 
L 169.369921 111.8412 
L 169.390172 109.299988 
L 169.430546 109.299988 
L 169.571522 104.217564 
L 169.652167 104.217564 
L 169.773128 101.676353 
L 169.793425 101.676353 
L 169.914396 99.135141 
L 170.035257 99.135141 
L 170.075667 101.676353 
L 170.136011 99.135141 
L 170.196638 99.135141 
L 170.378148 88.970294 
L 170.418255 88.970294 
L 170.559539 94.052717 
L 170.720808 94.052717 
L 170.861784 99.135141 
L 170.902105 99.135141 
L 170.922422 96.593929 
L 171.003018 99.135141 
L 171.043376 99.135141 
L 171.164207 101.676353 
L 171.950441 101.676353 
L 172.071402 99.135141 
L 172.111723 99.135141 
L 172.232686 96.593929 
L 172.313326 96.593929 
L 172.43429 94.052717 
L 172.474609 94.052717 
L 172.756854 116.923623 
L 173.220668 147.418164 
L 173.301315 147.418164 
L 173.422282 144.876952 
L 173.462607 144.876952 
L 173.482616 142.335741 
L 173.563259 144.876952 
L 173.583572 144.876952 
L 173.684219 147.418164 
L 173.805182 147.418164 
L 173.946436 152.500588 
L 174.006782 152.500588 
L 174.06741 157.583011 
L 174.107576 152.500588 
L 174.208385 152.500588 
L 174.349678 147.418164 
L 174.369665 147.418164 
L 174.712554 177.912705 
L 174.793169 177.912705 
L 174.87368 185.53634 
L 174.914089 182.995129 
L 175.055107 177.912705 
L 175.176067 185.53634 
L 175.19639 182.995129 
L 175.337348 177.912705 
L 175.518921 177.912705 
L 175.639781 175.371493 
L 175.659908 177.912705 
L 175.740547 175.371493 
L 175.76087 175.371493 
L 175.801184 172.830282 
L 175.861506 175.371493 
L 175.901828 175.371493 
L 175.942147 172.830282 
L 176.002628 175.371493 
L 176.063111 175.371493 
L 176.184069 177.912705 
L 176.204383 177.912705 
L 176.385672 167.747858 
L 176.446284 167.747858 
L 176.587271 162.665435 
L 176.647868 162.665435 
L 176.788871 167.747858 
L 176.849494 167.747858 
L 176.970476 165.206646 
L 177.091423 165.206646 
L 177.252662 157.583011 
L 177.313034 157.583011 
L 177.454341 167.747858 
L 177.474316 165.206646 
L 177.978457 139.794529 
L 178.159758 139.794529 
L 178.240639 142.335741 
L 178.422007 134.712105 
L 178.522642 137.253317 
L 178.663788 132.170894 
L 178.784887 132.170894 
L 178.804881 129.629682 
L 178.885523 132.170894 
L 179.127445 132.170894 
L 179.268716 127.08847 
L 179.450007 142.335741 
L 179.470304 139.794529 
L 179.490328 139.794529 
L 179.591247 137.253317 
L 179.732246 142.335741 
L 179.772769 142.335741 
L 179.833151 147.418164 
L 179.89353 144.876952 
L 180.115409 144.876952 
L 180.276703 137.253317 
L 180.337052 137.253317 
L 180.478316 132.170894 
L 180.619293 137.253317 
L 180.679945 137.253317 
L 180.780572 144.876952 
L 180.820895 142.335741 
L 180.921693 137.253317 
L 181.04283 149.959376 
L 181.062816 147.418164 
L 181.123466 149.959376 
L 181.244407 152.500588 
L 181.425698 152.500588 
L 181.687796 132.170894 
L 181.768569 132.170894 
L 181.828899 129.629682 
L 181.869221 132.170894 
L 181.929808 132.170894 
L 182.070822 127.08847 
L 182.252419 127.08847 
L 182.373394 129.629682 
L 182.433694 129.629682 
L 182.554663 127.08847 
L 182.675625 129.629682 
L 182.715946 129.629682 
L 182.836906 127.08847 
L 182.998188 127.08847 
L 183.119147 124.547258 
L 183.159732 124.547258 
L 183.300756 127.08847 
L 183.381394 127.08847 
L 183.502343 124.547258 
L 183.663641 124.547258 
L 183.744259 122.006047 
L 183.764272 124.547258 
L 183.844912 124.547258 
L 183.986104 119.464835 
L 184.006195 119.464835 
L 184.167477 111.8412 
L 184.38936 111.8412 
L 184.470016 114.382411 
L 184.490038 111.8412 
L 184.550671 111.8412 
L 184.671649 109.299988 
L 184.691889 109.299988 
L 184.792591 111.8412 
L 184.812601 109.299988 
L 184.893242 111.8412 
L 184.994166 111.8412 
L 185.135163 106.758776 
L 185.356975 106.758776 
L 185.498048 101.676353 
L 185.578689 101.676353 
L 185.699649 99.135141 
L 185.71995 101.676353 
L 185.800607 99.135141 
L 185.820847 99.135141 
L 185.961868 94.052717 
L 186.082831 96.593929 
L 186.102852 96.593929 
L 186.223801 99.135141 
L 186.244007 99.135141 
L 186.365124 96.593929 
L 186.385095 96.593929 
L 186.506056 99.135141 
L 186.586899 99.135141 
L 186.747978 91.511506 
L 186.80851 91.511506 
L 186.949791 86.429082 
L 187.01011 86.429082 
L 187.151183 81.346659 
L 187.231826 81.346659 
L 187.353038 78.805447 
L 187.433425 78.805447 
L 187.554389 76.264235 
L 188.139061 76.264235 
L 188.2601 73.723023 
L 188.280155 73.723023 
L 188.401115 71.181812 
L 188.562396 71.181812 
L 188.683358 68.6406 
L 189.389128 68.6406 
L 189.509996 66.099388 
L 189.65105 66.099388 
L 189.772011 63.558176 
L 189.792335 63.558176 
L 189.913293 61.016965 
L 190.094575 61.016965 
L 190.215537 58.475753 
L 190.497778 58.475753 
L 190.639065 55.934541 
L 191.223548 55.934541 
L 191.344509 53.393329 
L 191.425149 53.393329 
L 191.54611 55.934541 
L 191.647059 55.934541 
L 191.768008 53.393329 
L 192.312199 53.393329 
L 192.433162 55.934541 
L 192.634765 55.934541 
L 192.775971 58.475753 
L 192.796044 58.475753 
L 192.917007 55.934541 
L 194.247585 55.934541 
L 194.368545 53.393329 
L 194.792042 53.393329 
L 194.913026 50.852118 
L 196.364569 50.852118 
L 196.48539 48.310906 
L 198.319959 48.310906 
L 198.4006 45.769694 
L 198.420854 48.310906 
L 198.54188 48.310906 
L 198.662828 45.769694 
L 199.590187 45.769694 
L 199.711048 48.310906 
L 200.174702 48.310906 
L 200.295666 45.769694 
L 201.344001 45.769694 
L 201.464959 48.310906 
L 202.150669 48.310906 
L 202.291702 45.769694 
L 207.311439 45.769694 
L 207.432401 43.228482 
L 209.851627 43.228482 
L 209.972589 45.769694 
L 210.133871 45.769694 
L 210.275129 48.310906 
L 211.12189 48.310906 
L 211.242835 50.852118 
L 211.464445 50.852118 
L 211.605628 55.934541 
L 211.78701 55.934541 
L 211.80724 53.393329 
L 211.887944 55.934541 
L 212.190214 55.934541 
L 212.33147 61.016965 
L 212.492696 61.016965 
L 212.61372 63.558176 
L 212.654029 63.558176 
L 212.795019 68.6406 
L 212.956299 68.6406 
L 213.077261 71.181812 
L 213.299157 71.181812 
L 213.420125 68.6406 
L 213.480463 68.6406 
L 213.500805 71.181812 
L 213.561315 68.6406 
L 213.682064 68.6406 
L 213.823363 91.511506 
L 213.984489 99.135141 
L 214.024899 99.135141 
L 214.206227 109.299988 
L 214.286866 104.217564 
L 214.327455 106.758776 
L 214.367506 109.299988 
L 214.428134 106.758776 
L 214.488467 101.676353 
L 214.528786 104.217564 
L 214.690068 111.8412 
L 214.952272 124.547258 
L 215.032918 122.006047 
L 215.052951 124.547258 
L 215.113436 124.547258 
L 215.254758 129.629682 
L 215.57711 91.511506 
L 215.698071 101.676353 
L 215.960325 101.676353 
L 216.121622 109.299988 
L 216.282792 101.676353 
L 216.52476 124.547258 
L 216.544792 122.006047 
L 216.565136 122.006047 
L 216.686048 124.547258 
L 216.827031 119.464835 
L 216.847345 119.464835 
L 217.008485 111.8412 
L 217.048895 111.8412 
L 217.068952 109.299988 
L 217.089235 114.382411 
L 217.129566 114.382411 
L 217.149596 114.382411 
L 217.250506 106.758776 
L 217.290846 109.299988 
L 217.351415 109.299988 
L 217.532774 104.217564 
L 217.573109 106.758776 
L 217.613422 101.676353 
L 217.673755 101.676353 
L 217.794715 99.135141 
L 217.976296 99.135141 
L 218.21821 81.346659 
L 218.23824 81.346659 
L 218.3592 76.264235 
L 218.460121 94.052717 
L 218.480434 91.511506 
L 218.520481 91.511506 
L 218.641441 94.052717 
L 218.68176 94.052717 
L 218.802724 76.264235 
L 219.246481 76.264235 
L 219.38751 73.723023 
L 219.689769 73.723023 
L 219.810729 71.181812 
L 219.851049 71.181812 
L 219.972009 68.6406 
L 220.153587 68.6406 
L 220.274521 66.099388 
L 220.637459 66.099388 
L 220.738095 63.558176 
L 221.000322 63.558176 
L 221.121268 61.016965 
L 221.28256 61.016965 
L 221.403496 58.475753 
L 221.463861 58.475753 
L 221.544498 55.934541 
L 221.564703 58.475753 
L 221.967959 58.475753 
L 222.089009 61.016965 
L 222.169645 61.016965 
L 222.270523 58.475753 
L 222.633146 58.475753 
L 222.774409 61.016965 
L 223.177632 61.016965 
L 223.298569 58.475753 
L 223.318594 58.475753 
L 223.379221 55.934541 
L 223.399234 58.475753 
L 223.520196 58.475753 
L 223.641156 61.016965 
L 223.721796 61.016965 
L 223.84276 63.558176 
L 224.366922 63.558176 
L 224.487885 61.016965 
L 224.971728 61.016965 
L 225.092689 63.558176 
L 226.20165 63.558176 
L 226.322637 61.016965 
L 226.382941 61.016965 
L 226.42326 58.475753 
L 226.48376 61.016965 
L 226.665183 61.016965 
L 226.786143 63.558176 
L 226.947421 63.558176 
L 227.028063 61.016965 
L 227.048369 63.558176 
L 227.149024 63.558176 
L 227.269986 61.016965 
L 227.431269 61.016965 
L 227.55223 58.475753 
L 227.693503 55.934541 
L 227.874794 55.934541 
L 227.995754 53.393329 
L 228.076394 53.393329 
L 228.197353 50.852118 
L 228.459571 50.852118 
L 228.580501 48.310906 
L 228.96344 48.310906 
L 229.084402 45.769694 
L 229.205363 45.769694 
L 229.326324 48.310906 
L 229.507765 48.310906 
L 229.628856 50.852118 
L 229.769849 50.852118 
L 229.91102 55.934541 
L 230.052091 55.934541 
L 230.173053 58.475753 
L 230.314276 58.475753 
L 230.435237 55.934541 
L 230.818179 55.934541 
L 230.939137 58.475753 
L 231.140739 58.475753 
L 231.261701 61.016965 
L 231.463302 61.016965 
L 231.584264 63.558176 
L 231.745546 63.558176 
L 231.886794 66.099388 
L 232.068107 66.099388 
L 232.189069 68.6406 
L 232.874516 68.6406 
L 233.015784 71.181812 
L 233.177073 71.181812 
L 233.29787 73.723023 
L 233.499625 73.723023 
L 233.620607 71.181812 
L 234.32605 71.181812 
L 234.36637 73.723023 
L 234.406928 71.181812 
L 234.588265 71.181812 
L 234.709237 68.6406 
L 234.930858 68.6406 
L 235.051817 71.181812 
L 235.273654 71.181812 
L 235.394691 73.723023 
L 235.414701 73.723023 
L 235.535663 76.264235 
L 235.797905 76.264235 
L 235.918827 78.805447 
L 236.059826 78.805447 
L 236.221109 86.429082 
L 236.382393 86.429082 
L 236.46303 88.970294 
L 236.483306 86.429082 
L 236.664636 86.429082 
L 236.785596 83.88787 
L 236.846227 83.88787 
L 236.96719 86.429082 
L 236.987198 86.429082 
L 237.16875 76.264235 
L 237.26944 76.264235 
L 237.390402 73.723023 
L 237.612291 73.723023 
L 237.733282 76.264235 
L 237.95489 76.264235 
L 238.075851 73.723023 
L 238.176804 73.723023 
L 238.297747 76.264235 
L 238.338023 76.264235 
L 238.459044 78.805447 
L 238.499352 78.805447 
L 238.660594 86.429082 
L 238.761296 86.429082 
L 238.882258 83.88787 
L 239.003218 83.88787 
L 239.124181 81.346659 
L 239.265467 81.346659 
L 239.406425 76.264235 
L 239.567707 76.264235 
L 239.588025 73.723023 
L 239.668679 76.264235 
L 239.769308 76.264235 
L 239.809629 73.723023 
L 239.870208 76.264235 
L 240.61604 76.264235 
L 240.737001 73.723023 
L 241.039532 73.723023 
L 241.160531 71.181812 
L 241.301486 76.264235 
L 241.54341 76.264235 
L 241.684599 81.346659 
L 241.74501 81.346659 
L 241.886261 86.429082 
L 241.906292 86.429082 
L 242.027487 88.970294 
L 242.148217 88.970294 
L 242.269178 86.429082 
L 242.370116 86.429082 
L 242.531396 78.805447 
L 242.551419 78.805447 
L 242.672383 76.264235 
L 242.894279 76.264235 
L 242.914309 78.805447 
L 242.994949 76.264235 
L 243.337807 76.264235 
L 243.478792 71.181812 
L 244.04328 71.181812 
L 244.063591 73.723023 
L 244.144231 71.181812 
L 244.184552 71.181812 
L 244.325528 76.264235 
L 244.486807 76.264235 
L 244.64809 86.429082 
L 244.749012 86.429082 
L 244.890009 91.511506 
L 244.93033 91.511506 
L 245.051564 88.970294 
L 245.293213 106.758776 
L 245.333535 106.758776 
L 245.353846 104.217564 
L 245.414372 109.299988 
L 245.636089 124.547258 
L 245.75702 124.547258 
L 245.898018 129.629682 
L 245.978657 129.629682 
L 245.998866 127.08847 
L 246.119919 149.959376 
L 246.220578 137.253317 
L 246.301426 137.253317 
L 246.321518 134.712105 
L 246.38186 147.418164 
L 246.442466 142.335741 
L 246.48278 142.335741 
L 246.603658 139.794529 
L 246.805345 152.500588 
L 246.906022 152.500588 
L 246.966506 160.124223 
L 247.067303 157.583011 
L 247.228582 152.500588 
L 247.369765 157.583011 
L 247.430183 157.583011 
L 247.571475 152.500588 
L 247.712647 157.583011 
L 247.773022 157.583011 
L 247.914024 152.500588 
L 247.994664 152.500588 
L 248.095459 149.959376 
L 248.236586 155.041799 
L 248.256895 155.041799 
L 248.398107 167.747858 
L 248.438405 165.206646 
L 248.518823 160.124223 
L 248.539122 162.665435 
L 248.599464 165.206646 
L 248.639787 162.665435 
L 248.680105 162.665435 
L 248.700455 165.206646 
L 248.760744 160.124223 
L 248.841602 157.583011 
L 248.861562 160.124223 
L 248.922027 160.124223 
L 249.06322 165.206646 
L 249.184221 165.206646 
L 249.459182 157.583011 
L 249.486506 160.124223 
L 249.52704 157.583011 
L 249.708413 152.500588 
L 249.889706 152.500588 
L 249.970346 149.959376 
L 250.534829 137.253317 
L 250.756732 142.335741 
L 250.817072 142.335741 
L 250.877693 147.418164 
L 250.938033 144.876952 
L 251.059199 144.876952 
L 251.200232 160.124223 
L 251.321194 149.959376 
L 251.341232 149.959376 
L 251.462193 147.418164 
L 251.563134 147.418164 
L 251.623473 144.876952 
L 251.663791 147.418164 
L 251.684057 147.418164 
L 251.744434 149.959376 
L 251.784903 147.418164 
L 251.865394 142.335741 
L 251.905714 144.876952 
L 252.046986 157.583011 
L 252.066995 157.583011 
L 252.24854 167.747858 
L 252.288894 165.206646 
L 252.349234 167.747858 
L 252.369459 167.747858 
L 252.409845 170.28907 
L 252.450167 165.206646 
L 252.470191 167.747858 
L 252.510511 167.747858 
L 252.530816 165.206646 
L 252.591152 170.28907 
L 252.611389 167.747858 
L 252.671794 167.747858 
L 252.792753 172.830282 
L 252.913712 170.28907 
L 253.337081 149.959376 
L 253.43787 149.959376 
L 253.558835 144.876952 
L 253.659773 144.876952 
L 253.680043 147.418164 
L 253.760435 144.876952 
L 253.821085 142.335741 
L 253.861379 144.876952 
L 254.002354 149.959376 
L 254.042675 147.418164 
L 254.083217 149.959376 
L 254.203955 152.500588 
L 254.244274 152.500588 
L 254.385563 147.418164 
L 254.506443 147.418164 
L 254.647475 152.500588 
L 254.78871 147.418164 
L 254.849077 147.418164 
L 254.990347 142.335741 
L 255.131316 147.418164 
L 255.252275 142.335741 
L 255.393554 142.335741 
L 255.474123 139.794529 
L 255.494196 142.335741 
L 255.534517 142.335741 
L 255.917689 106.758776 
L 255.998244 106.758776 
L 256.058682 104.217564 
L 258.135296 96.593929 
L 258.276296 91.511506 
L 258.498185 91.511506 
L 258.61907 88.970294 
L 258.840781 88.970294 
L 258.961936 91.511506 
L 259.042382 91.511506 
L 259.143254 94.052717 
L 259.2843 88.970294 
L 259.344876 88.970294 
L 259.506102 81.346659 
L 259.606862 81.346659 
L 259.687502 78.805447 
L 259.707741 81.346659 
L 259.868948 81.346659 
L 259.990034 78.805447 
L 260.131025 78.805447 
L 260.251988 76.264235 
L 260.35292 76.264235 
L 260.51419 83.88787 
L 260.957712 83.88787 
L 261.058395 86.429082 
L 261.663203 86.429082 
L 261.804425 81.346659 
L 261.844757 81.346659 
L 261.985766 76.264235 
L 262.409194 76.264235 
L 262.489885 78.805447 
L 262.509931 76.264235 
L 262.631083 76.264235 
L 262.751853 78.805447 
L 262.772102 78.805447 
L 262.913131 73.723023 
L 263.255951 73.723023 
L 263.356656 76.264235 
L 263.598579 76.264235 
L 263.71954 73.723023 
L 264.122742 73.723023 
L 264.26399 76.264235 
L 264.929151 76.264235 
L 265.050113 78.805447 
L 265.412995 78.805447 
L 265.533957 81.346659 
L 265.574277 81.346659 
L 265.695237 83.88787 
L 265.997802 83.88787 
L 266.159009 76.264235 
L 266.199341 76.264235 
L 266.300042 78.805447 
L 266.421219 76.264235 
L 266.723487 76.264235 
L 266.864529 81.346659 
L 266.904849 81.346659 
L 267.046056 76.264235 
L 267.8928 76.264235 
L 268.013709 73.723023 
L 268.336217 73.723023 
L 268.437024 76.264235 
L 268.557986 73.723023 
L 269.324073 73.723023 
L 269.384683 71.181812 
L 269.42502 73.723023 
L 269.868428 73.723023 
L 269.989447 76.264235 
L 270.493363 76.264235 
L 270.553984 73.723023 
L 270.574222 76.264235 
L 270.896568 76.264235 
L 271.017528 78.805447 
L 271.138488 78.805447 
L 271.259449 76.264235 
L 271.582014 76.264235 
L 271.702973 73.723023 
L 271.763483 73.723023 
L 271.88457 76.264235 
L 272.791621 76.264235 
L 272.872482 73.723023 
L 272.892432 76.264235 
L 273.053829 76.264235 
L 273.194824 71.181812 
L 273.396429 71.181812 
L 273.51739 68.6406 
L 273.537696 68.6406 
L 273.658536 66.099388 
L 273.698943 66.099388 
L 273.819919 63.558176 
L 274.001453 63.558176 
L 274.122192 61.016965 
L 274.364113 61.016965 
L 274.505353 58.475753 
L 274.586005 58.475753 
L 274.706973 55.934541 
L 274.727 55.934541 
L 274.767502 58.475753 
L 274.827897 55.934541 
L 274.86826 55.934541 
L 274.989208 58.475753 
L 275.170521 58.475753 
L 275.291482 61.016965 
L 275.432733 61.016965 
L 275.553592 58.475753 
L 276.561705 58.475753 
L 276.682544 55.934541 
L 276.702696 55.934541 
L 276.823657 53.393329 
L 277.368094 53.393329 
L 277.509102 58.475753 
L 278.033268 58.475753 
L 278.154228 61.016965 
L 278.416431 61.016965 
L 278.517112 58.475753 
L 278.618011 58.475753 
L 278.739003 55.934541 
L 278.920495 55.934541 
L 279.061566 53.393329 
L 279.424478 53.393329 
L 279.545419 50.852118 
L 279.585688 50.852118 
L 279.706552 53.393329 
L 279.867959 53.393329 
L 279.988912 50.852118 
L 281.359864 50.852118 
L 281.480775 48.310906 
L 283.436192 48.310906 
L 283.557156 50.852118 
L 284.585506 50.852118 
L 284.706393 53.393329 
L 285.129651 53.393329 
L 285.250613 55.934541 
L 285.613492 55.934541 
L 285.734455 58.475753 
L 286.097339 58.475753 
L 286.218301 55.934541 
L 286.682129 55.934541 
L 286.803063 58.475753 
L 286.944068 58.475753 
L 287.065028 55.934541 
L 287.427914 55.934541 
L 287.548874 53.393329 
L 287.589195 53.393329 
L 287.710157 50.852118 
L 287.911756 50.852118 
L 288.032981 53.393329 
L 288.677843 53.393329 
L 288.798964 55.934541 
L 288.940003 55.934541 
L 289.060934 58.475753 
L 289.343257 58.475753 
L 289.484253 63.558176 
L 289.585086 63.558176 
L 289.706057 61.016965 
L 289.726172 61.016965 
L 289.867431 81.346659 
L 289.887456 81.346659 
L 290.068986 91.511506 
L 290.189994 88.970294 
L 290.330978 88.970294 
L 290.351191 86.429082 
L 290.411618 91.511506 
L 290.572897 99.135141 
L 290.73418 99.135141 
L 290.87547 94.052717 
L 291.036681 94.052717 
L 291.157671 91.511506 
L 291.177703 91.511506 
L 291.318929 96.593929 
L 291.379303 96.593929 
L 291.500265 99.135141 
L 291.540584 99.135141 
L 291.621225 101.676353 
L 291.641494 99.135141 
L 291.742184 99.135141 
L 291.782504 101.676353 
L 291.943785 83.88787 
L 292.105067 76.264235 
L 292.165653 76.264235 
L 292.28666 73.723023 
L 292.407627 73.723023 
L 292.548593 68.6406 
L 292.730184 68.6406 
L 292.851131 66.099388 
L 292.911475 66.099388 
L 293.032434 63.558176 
L 293.294684 63.558176 
L 293.415579 61.016965 
L 293.435637 61.016965 
L 293.556598 63.558176 
L 293.596921 63.558176 
L 293.718075 61.016965 
L 293.738047 61.016965 
L 293.859142 58.475753 
L 294.060723 58.475753 
L 294.181711 55.934541 
L 294.544553 55.934541 
L 294.665485 53.393329 
L 294.947786 53.393329 
L 295.068672 50.852118 
L 296.439583 50.852118 
L 296.560581 53.393329 
L 296.742074 53.393329 
L 296.88307 55.934541 
L 297.064462 55.934541 
L 297.205647 61.016965 
L 297.286335 61.016965 
L 297.427343 66.099388 
L 297.951505 66.099388 
L 298.072468 68.6406 
L 298.23375 68.6406 
L 298.375028 71.181812 
L 298.939485 71.181812 
L 299.040382 73.723023 
L 299.161117 71.181812 
L 299.302364 71.181812 
L 299.423198 73.723023 
L 299.766147 73.723023 
L 299.826455 71.181812 
L 299.866846 73.723023 
L 300.310372 73.723023 
L 300.431329 76.264235 
L 300.451371 76.264235 
L 300.491692 78.805447 
L 300.532244 76.264235 
L 300.854576 76.264235 
L 300.975537 73.723023 
L 301.237738 73.723023 
L 301.358636 71.181812 
L 301.882796 71.181812 
L 302.003873 68.6406 
L 302.124768 68.6406 
L 302.245773 66.099388 
L 302.366743 66.099388 
L 302.487618 68.6406 
L 302.548038 68.6406 
L 302.669001 71.181812 
L 302.850468 71.181812 
L 302.971456 73.723023 
L 303.052199 73.723023 
L 303.173112 71.181812 
L 303.455374 71.181812 
L 303.556053 73.723023 
L 303.697305 71.181812 
L 303.959389 71.181812 
L 304.080219 68.6406 
L 304.160859 68.6406 
L 304.281821 66.099388 
L 304.564065 66.099388 
L 304.685026 68.6406 
L 304.805985 68.6406 
L 304.926949 71.181812 
L 305.209192 71.181812 
L 305.330156 73.723023 
L 305.552043 73.723023 
L 305.672947 71.181812 
L 306.197132 71.181812 
L 306.318119 68.6406 
L 306.378486 68.6406 
L 306.499447 66.099388 
L 306.701049 66.099388 
L 306.82201 63.558176 
L 306.942971 63.558176 
L 307.063931 61.016965 
L 307.426816 61.016965 
L 307.547777 63.558176 
L 307.568065 63.558176 
L 307.688976 66.099388 
L 307.890629 66.099388 
L 308.011612 68.6406 
L 308.051921 68.6406 
L 308.112263 66.099388 
L 308.152583 68.6406 
L 308.69706 68.6406 
L 308.818007 71.181812 
L 309.382482 71.181812 
L 309.503444 73.723023 
L 309.704993 73.723023 
L 309.826026 76.264235 
L 309.946984 76.264235 
L 310.087961 81.346659 
L 310.108245 81.346659 
L 310.229212 83.88787 
L 310.531487 83.88787 
L 310.652448 86.429082 
L 310.753331 86.429082 
L 310.894368 81.346659 
L 310.93469 81.346659 
L 311.075933 76.264235 
L 311.216932 76.264235 
L 311.337894 73.723023 
L 311.882395 73.723023 
L 312.003267 76.264235 
L 312.446828 76.264235 
L 312.567798 73.723023 
L 312.850054 73.723023 
L 312.970961 76.264235 
L 313.031362 76.264235 
L 313.192645 83.88787 
L 313.555532 83.88787 
L 313.696824 78.805447 
L 313.737107 78.805447 
L 313.857953 76.264235 
L 314.019353 76.264235 
L 314.200889 86.429082 
L 314.382243 86.429082 
L 314.50321 88.970294 
L 314.543522 88.970294 
L 314.684508 94.052717 
L 314.805472 94.052717 
L 314.94674 99.135141 
L 315.168355 99.135141 
L 315.289317 101.676353 
L 315.329638 101.676353 
L 315.470907 104.217564 
L 315.490918 104.217564 
L 315.632159 109.299988 
L 315.853808 109.299988 
L 315.974768 111.8412 
L 316.01509 111.8412 
L 316.156267 116.923623 
L 316.176371 116.923623 
L 316.297334 114.382411 
L 316.418296 114.382411 
L 316.539257 116.923623 
L 316.559525 116.923623 
L 316.680542 119.464835 
L 316.740858 119.464835 
L 316.86201 122.006047 
L 317.003046 124.547258 
L 317.325633 124.547258 
L 317.446583 127.08847 
L 317.48692 127.08847 
L 317.628114 132.170894 
L 317.708555 132.170894 
L 317.849779 137.253317 
L 317.869838 137.253317 
L 317.890097 139.794529 
L 317.970728 137.253317 
L 317.990992 137.253317 
L 318.172334 132.170894 
L 318.273042 132.170894 
L 318.434324 139.794529 
L 318.555285 139.794529 
L 318.69655 144.876952 
L 318.73686 144.876952 
L 318.757075 142.335741 
L 318.837528 144.876952 
L 318.978778 144.876952 
L 319.07945 149.959376 
L 319.099736 147.418164 
L 319.200411 147.418164 
L 319.341659 152.500588 
L 319.361686 152.500588 
L 319.502944 139.794529 
L 319.543118 142.335741 
L 319.724561 152.500588 
L 319.94637 152.500588 
L 319.98678 149.959376 
L 320.087611 175.371493 
L 320.107686 160.124223 
L 320.127761 162.665435 
L 320.188369 157.583011 
L 320.208403 155.041799 
L 320.329364 172.830282 
L 320.349627 172.830282 
L 320.450324 182.995129 
L 320.490644 177.912705 
L 320.571285 177.912705 
L 320.732565 190.618764 
L 320.83343 193.159976 
L 320.853524 190.618764 
L 320.934165 193.159976 
L 320.954456 193.159976 
L 321.075321 190.618764 
L 321.216407 195.701188 
L 321.357646 195.701188 
L 321.377689 193.159976 
L 321.45833 195.701188 
L 321.478578 195.701188 
L 321.579287 193.159976 
L 321.619606 198.242399 
L 321.68019 193.159976 
L 321.700245 193.159976 
L 321.821208 190.618764 
L 321.861528 190.618764 
L 321.982485 195.701188 
L 322.224407 177.912705 
L 322.244674 177.912705 
L 322.32536 190.618764 
L 322.385687 185.53634 
L 322.547132 177.912705 
L 322.688189 190.618764 
L 322.728548 188.077552 
L 322.829213 177.912705 
L 322.849474 180.453917 
L 323.010728 195.701188 
L 323.051084 195.701188 
L 323.111452 198.242399 
L 323.151775 195.701188 
L 323.212348 195.701188 
L 323.272735 198.242399 
L 323.313267 193.159976 
L 323.373635 198.242399 
L 323.434014 198.242399 
L 323.554974 193.159976 
L 323.595295 195.701188 
L 323.635615 193.159976 
L 323.716255 188.077552 
L 323.736484 195.701188 
L 323.817175 190.618764 
L 323.938129 188.077552 
L 324.079127 195.701188 
L 324.099332 195.701188 
L 324.260707 185.53634 
L 324.381662 193.159976 
L 324.401698 193.159976 
L 324.522659 195.701188 
L 324.623591 185.53634 
L 324.643618 188.077552 
L 324.6639 188.077552 
L 324.704236 185.53634 
L 324.724258 190.618764 
L 324.744516 190.618764 
L 324.805112 195.701188 
L 324.84522 193.159976 
L 324.905822 188.077552 
L 324.946134 193.159976 
L 324.966179 193.159976 
L 325.08714 195.701188 
L 325.107357 195.701188 
L 325.147734 193.159976 
L 325.167779 195.701188 
L 325.228284 200.783611 
L 325.309018 190.618764 
L 325.349336 193.159976 
L 325.429968 190.618764 
L 325.450021 193.159976 
L 325.490338 193.159976 
L 325.65162 185.53634 
L 325.671894 185.53634 
L 325.833152 177.912705 
L 326.014502 177.912705 
L 326.115418 175.371493 
L 326.155724 177.912705 
L 326.216103 175.371493 
L 326.23641 175.371493 
L 326.377385 170.28907 
L 326.498344 172.830282 
L 326.619306 170.28907 
L 326.639603 170.28907 
L 326.700172 167.747858 
L 326.740265 170.28907 
L 326.982187 170.28907 
L 327.002427 172.830282 
L 327.062826 170.28907 
L 327.365344 157.583011 
L 327.405689 157.583011 
L 327.466159 144.876952 
L 327.526604 149.959376 
L 327.707953 149.959376 
L 327.829139 144.876952 
L 328.050812 144.876952 
L 328.151475 147.418164 
L 328.29271 142.335741 
L 328.312757 142.335741 
L 328.454026 137.253317 
L 328.534625 137.253317 
L 328.655559 134.712105 
L 328.736263 137.253317 
L 328.756279 134.712105 
L 328.796602 134.712105 
L 328.917562 132.170894 
L 328.957883 132.170894 
L 329.139451 127.08847 
L 329.280444 132.170894 
L 329.320767 132.170894 
L 329.54257 139.794529 
L 329.945819 139.794529 
L 329.986173 142.335741 
L 330.046535 139.794529 
L 330.066798 139.794529 
L 330.187768 137.253317 
L 330.308736 137.253317 
L 330.3691 134.712105 
L 330.409418 137.253317 
L 330.449741 137.253317 
L 330.490188 134.712105 
L 330.550615 137.253317 
L 330.953843 137.253317 
L 331.074812 134.712105 
L 331.155469 134.712105 
L 331.27631 137.253317 
L 331.377109 137.253317 
L 331.498067 134.712105 
L 331.820628 134.712105 
L 331.941591 137.253317 
L 332.304472 137.253317 
L 332.425433 134.712105 
L 332.465753 134.712105 
L 332.586713 132.170894 
L 332.808511 132.170894 
L 332.949601 127.08847 
L 333.151416 127.08847 
L 333.272159 124.547258 
L 333.473762 124.547258 
L 333.594722 127.08847 
L 333.756004 127.08847 
L 333.796324 124.547258 
L 333.85687 127.08847 
L 334.219826 127.08847 
L 334.340715 129.629682 
L 334.360811 129.629682 
L 334.421424 127.08847 
L 334.461748 129.629682 
L 334.522093 129.629682 
L 334.643051 132.170894 
L 334.784254 129.629682 
L 334.824644 129.629682 
L 334.884975 132.170894 
L 334.925298 129.629682 
L 335.348835 129.629682 
L 335.469664 132.170894 
L 335.510074 132.170894 
L 335.631017 134.712105 
L 335.651062 134.712105 
L 335.731704 132.170894 
L 335.751976 134.712105 
L 335.993906 134.712105 
L 336.134909 129.629682 
L 336.155166 129.629682 
L 336.296191 124.547258 
L 336.578668 124.547258 
L 336.699395 122.006047 
L 336.840638 122.006047 
L 336.860677 124.547258 
L 336.941536 122.006047 
L 337.263882 122.006047 
L 337.405102 116.923623 
L 337.868691 116.923623 
L 337.989652 119.464835 
L 338.332515 119.464835 
L 338.433178 116.923623 
L 338.55414 116.923623 
L 338.675103 114.382411 
L 338.876705 114.382411 
L 339.018002 119.464835 
L 339.078304 119.464835 
L 339.158946 122.006047 
L 339.179268 119.464835 
L 339.521831 119.464835 
L 339.642796 116.923623 
L 339.703387 119.464835 
L 339.743694 116.923623 
L 339.824391 116.923623 
L 339.965357 122.006047 
L 340.388725 122.006047 
L 340.529847 116.923623 
L 340.590455 116.923623 
L 340.711435 119.464835 
L 341.295937 119.464835 
L 341.356517 116.923623 
L 341.396837 119.464835 
L 341.578179 119.464835 
L 341.69914 122.006047 
L 341.759777 122.006047 
L 341.941067 111.8412 
L 341.96133 111.8412 
L 342.082297 109.299988 
L 342.404838 109.299988 
L 342.525835 111.8412 
L 342.56615 111.8412 
L 342.687038 114.382411 
L 342.727436 114.382411 
L 342.848397 116.923623 
L 342.9894 116.923623 
L 343.090295 114.382411 
L 343.211284 116.923623 
L 343.372513 116.923623 
L 343.49352 114.382411 
L 343.81599 114.382411 
L 343.957095 119.464835 
L 344.118375 119.464835 
L 344.259579 114.382411 
L 344.501559 114.382411 
L 344.622504 116.923623 
L 344.844148 116.923623 
L 344.965112 114.382411 
L 345.186995 114.382411 
L 345.287676 111.8412 
L 345.448956 111.8412 
L 345.569919 109.299988 
L 345.7312 109.299988 
L 345.912756 99.135141 
L 345.973124 101.676353 
L 346.013444 99.135141 
L 346.094088 99.135141 
L 346.134407 96.593929 
L 346.195032 99.135141 
L 346.416652 99.135141 
L 346.47715 101.676353 
L 346.51756 99.135141 
L 346.618254 99.135141 
L 346.759547 101.676353 
L 346.940818 101.676353 
L 347.061781 99.135141 
L 347.182743 99.135141 
L 347.323974 101.676353 
L 347.344025 101.676353 
L 347.464988 99.135141 
L 347.545629 99.135141 
L 347.666591 101.676353 
L 348.049756 101.676353 
L 348.150438 104.217564 
L 348.190757 104.217564 
L 348.311721 101.676353 
L 348.694896 101.676353 
L 348.815833 99.135141 
L 349.722939 99.135141 
L 349.8439 96.593929 
L 349.924543 96.593929 
L 350.045504 94.052717 
L 350.126147 94.052717 
L 350.267259 99.135141 
L 350.287426 99.135141 
L 350.408391 96.593929 
L 350.65031 96.593929 
L 350.771276 99.135141 
L 350.831871 99.135141 
L 350.91252 96.593929 
L 350.932556 99.135141 
L 351.315753 99.135141 
L 351.43662 96.593929 
L 351.55764 96.593929 
L 351.678638 94.052717 
L 351.698649 94.052717 
L 351.839878 99.135141 
L 352.041466 99.135141 
L 352.142368 101.676353 
L 352.404301 101.676353 
L 352.505059 99.135141 
L 352.585698 99.135141 
L 352.706663 96.593929 
L 352.767244 96.593929 
L 352.867944 99.135141 
L 353.009188 99.135141 
L 353.130145 101.676353 
L 353.170471 101.676353 
L 353.271152 99.135141 
L 353.613978 99.135141 
L 353.734932 96.593929 
L 353.9566 96.593929 
L 353.996919 94.052717 
L 354.037422 96.593929 
L 354.138165 96.593929 
L 354.238844 99.135141 
L 354.359801 99.135141 
L 354.480766 101.676353 
L 354.501035 101.676353 
L 354.662335 109.299988 
L 354.682369 109.299988 
L 354.803555 111.8412 
L 355.065495 122.006047 
L 355.226731 122.006047 
L 355.367814 127.08847 
L 355.811342 127.08847 
L 356.012939 139.794529 
L 356.033207 139.794529 
L 356.174223 129.629682 
L 356.194498 132.170894 
L 356.335725 137.253317 
L 356.496784 137.253317 
L 356.617743 139.794529 
L 356.779026 139.794529 
L 356.799304 137.253317 
L 356.879984 139.794529 
L 356.960629 139.794529 
L 357.061267 144.876952 
L 357.303189 134.712105 
L 357.424151 134.712105 
L 357.504791 132.170894 
L 357.525047 134.712105 
L 357.625753 134.712105 
L 357.787035 127.08847 
L 357.907995 127.08847 
L 358.028958 124.547258 
L 358.351522 124.547258 
L 358.472481 127.08847 
L 358.573396 127.08847 
L 358.69436 129.629682 
L 358.714405 129.629682 
L 358.8153 127.08847 
L 358.956328 139.794529 
L 359.001436 137.253317 
L 359.097586 137.253317 
L 359.137812 139.794529 
L 359.178226 137.253317 
L 359.299191 134.712105 
L 359.319211 134.712105 
L 359.460491 139.794529 
L 359.581455 134.712105 
L 359.66206 137.253317 
L 359.682096 134.712105 
L 359.782952 134.712105 
L 359.803056 132.170894 
L 359.883697 134.712105 
L 360.004658 139.794529 
L 360.065276 137.253317 
L 360.085298 139.794529 
L 360.307214 139.794529 
L 360.327218 142.335741 
L 360.387849 139.794529 
L 360.488698 137.253317 
L 360.528821 137.253317 
L 360.649782 134.712105 
L 360.690102 134.712105 
L 360.811062 139.794529 
L 360.932025 137.253317 
L 360.952295 137.253317 
L 361.073266 139.794529 
L 361.093306 139.794529 
L 361.214266 137.253317 
L 361.476485 127.08847 
L 362.060993 127.08847 
L 362.181954 124.547258 
L 363.230282 124.547258 
L 363.351242 122.006047 
L 363.452086 122.006047 
L 363.573061 119.464835 
L 363.593165 119.464835 
L 363.714127 116.923623 
L 363.754448 116.923623 
L 363.774672 119.464835 
L 363.855322 116.923623 
L 363.956049 116.923623 
L 364.097238 111.8412 
L 364.177876 111.8412 
L 364.278768 109.299988 
L 364.318935 109.299988 
L 364.439894 106.758776 
L 364.560858 106.758776 
L 364.681807 109.299988 
L 364.702012 106.758776 
L 364.78271 109.299988 
L 364.802776 109.299988 
L 364.923737 111.8412 
L 365.024617 111.8412 
L 365.145595 109.299988 
L 365.226238 109.299988 
L 365.387504 101.676353 
L 365.851106 101.676353 
L 365.972065 104.217564 
L 366.052706 104.217564 
L 366.173796 99.135141 
L 366.213988 99.135141 
L 366.35521 94.052717 
L 366.455911 94.052717 
L 366.576865 96.593929 
L 366.617194 96.593929 
L 366.738154 94.052717 
L 366.859117 96.593929 
L 367.12131 96.593929 
L 367.24227 94.052717 
L 367.504241 94.052717 
L 367.625202 91.511506 
L 367.847038 91.511506 
L 367.907446 88.970294 
L 367.947766 91.511506 
L 368.109047 91.511506 
L 368.250258 86.429082 
L 368.41155 86.429082 
L 368.552571 81.346659 
L 368.85497 81.346659 
L 368.976048 78.805447 
L 369.056708 78.805447 
L 369.17764 81.346659 
L 369.621074 81.346659 
L 369.742129 78.805447 
L 369.923464 78.805447 
L 370.044427 81.346659 
L 370.084746 81.346659 
L 370.205709 83.88787 
L 370.225965 83.88787 
L 370.326668 81.346659 
L 370.568592 81.346659 
L 370.689553 78.805447 
L 370.750025 78.805447 
L 370.871122 76.264235 
L 371.737884 76.264235 
L 371.859053 73.723023 
L 372.463653 73.723023 
L 372.584613 71.181812 
L 373.18942 71.181812 
L 373.310381 68.6406 
L 373.693525 68.6406 
L 373.814441 66.099388 
L 373.935461 68.6406 
L 374.016062 68.6406 
L 374.116791 66.099388 
L 374.580544 66.099388 
L 374.70154 63.558176 
L 375.588619 63.558176 
L 375.709496 61.016965 
L 379.842488 61.016965 
L 379.963263 58.475753 
L 381.717272 58.475753 
L 381.838227 55.934541 
L 385.265526 55.934541 
L 385.38648 53.393329 
L 388.551525 53.393329 
L 388.692743 50.852118 
L 392.321587 50.852118 
L 392.442549 53.393329 
L 392.523185 53.393329 
L 392.644162 55.934541 
L 392.745014 55.934541 
L 392.865809 58.475753 
L 392.986769 58.475753 
L 393.107732 61.016965 
L 393.289278 66.099388 
L 393.309333 66.099388 
L 393.430296 63.558176 
L 393.470615 63.558176 
L 393.511167 66.099388 
L 393.571512 63.558176 
L 393.652187 63.558176 
L 393.793178 68.6406 
L 393.813432 68.6406 
L 393.954459 73.723023 
L 394.055374 73.723023 
L 394.176327 76.264235 
L 395.48663 76.264235 
L 395.607592 73.723023 
L 395.728553 73.723023 
L 395.849516 76.264235 
L 396.595516 76.264235 
L 396.776878 86.429082 
L 396.797187 86.429082 
L 396.938158 91.511506 
L 396.958363 91.511506 
L 397.079418 88.970294 
L 397.220403 94.052717 
L 397.321211 94.052717 
L 397.361621 91.511506 
L 397.422004 94.052717 
L 397.563244 94.052717 
L 397.603548 91.511506 
L 397.664113 94.052717 
L 397.805179 94.052717 
L 397.825207 91.511506 
L 397.905849 94.052717 
L 397.926135 94.052717 
L 398.026809 96.593929 
L 398.107449 96.593929 
L 398.228411 99.135141 
L 398.289005 99.135141 
L 398.430216 94.052717 
L 398.571251 114.382411 
L 398.651899 109.299988 
L 398.692167 109.299988 
L 398.833213 114.382411 
L 398.913854 114.382411 
L 399.034817 111.8412 
L 399.095409 111.8412 
L 399.216267 106.758776 
L 399.417953 119.464835 
L 399.438016 119.464835 
L 399.538901 122.006047 
L 399.659889 119.464835 
L 399.67994 119.464835 
L 399.760578 122.006047 
L 399.78083 119.464835 
L 399.800899 119.464835 
L 400.002504 106.758776 
L 400.103429 106.758776 
L 400.224341 94.052717 
L 400.284744 94.052717 
L 400.405705 91.511506 
L 400.546943 91.511506 
L 400.687947 86.429082 
L 400.748475 86.429082 
L 400.929868 76.264235 
L 401.59522 76.264235 
L 401.716244 73.723023 
L 401.917801 73.723023 
L 402.038821 71.181812 
L 402.401643 71.181812 
L 402.522605 68.6406 
L 402.82492 68.6406 
L 402.945881 66.099388 
L 403.127447 66.099388 
L 403.268443 61.016965 
L 403.450007 61.016965 
L 403.570971 58.475753 
L 403.812884 58.475753 
L 403.933864 55.934541 
L 404.316773 55.934541 
L 404.437734 53.393329 
L 405.365101 53.393329 
L 405.889264 106.758776 
L 405.929585 106.758776 
L 406.070782 101.676353 
L 406.131189 101.676353 
L 406.373111 83.88787 
L 406.675596 71.181812 
L 406.735993 71.181812 
L 406.856954 68.6406 
L 406.897276 68.6406 
L 407.018238 66.099388 
L 407.361059 66.099388 
L 407.481997 63.558176 
L 407.502082 63.558176 
L 407.643302 61.016965 
L 407.703683 61.016965 
L 407.824644 58.475753 
L 407.945606 58.475753 
L 408.066568 61.016965 
L 408.308708 61.016965 
L 408.429451 63.558176 
L 409.3165 63.558176 
L 409.437627 61.016965 
L 409.739947 61.016965 
L 409.860893 58.475753 
L 410.425392 58.475753 
L 410.506056 55.934541 
L 410.526113 58.475753 
L 410.667302 58.475753 
L 410.808354 63.558176 
L 410.90927 63.558176 
L 411.030197 66.099388 
L 411.07052 66.099388 
L 411.191498 68.6406 
L 411.211557 68.6406 
L 411.352694 73.723023 
L 411.816365 73.723023 
L 411.937326 76.264235 
L 412.239802 76.264235 
L 412.360801 78.805447 
L 412.42117 78.805447 
L 412.542134 76.264235 
L 412.562374 76.264235 
L 412.683339 73.723023 
L 412.784056 73.723023 
L 412.925279 68.6406 
L 413.02598 68.6406 
L 413.14694 66.099388 
L 413.570441 66.099388 
L 413.711427 71.181812 
L 414.094589 71.181812 
L 414.215542 73.723023 
L 414.255891 73.723023 
L 414.356765 76.264235 
L 414.457464 76.264235 
L 414.578422 81.346659 
L 414.699369 78.805447 
L 414.77996 78.805447 
L 414.900947 76.264235 
L 415.082324 76.264235 
L 415.142809 78.805447 
L 415.183213 76.264235 
L 415.788044 76.264235 
L 415.969375 86.429082 
L 416.029949 86.429082 
L 416.090335 83.88787 
L 416.130658 86.429082 
L 416.23157 86.429082 
L 416.352491 88.970294 
L 416.412899 88.970294 
L 416.554134 83.88787 
L 416.59445 83.88787 
L 416.735463 78.805447 
L 416.816105 78.805447 
L 416.977388 86.429082 
L 417.098349 86.429082 
L 417.219311 88.970294 
L 417.239571 88.970294 
L 417.380593 94.052717 
L 417.945079 94.052717 
L 418.06604 91.511506 
L 418.086294 91.511506 
L 418.207225 88.970294 
L 418.287864 88.970294 
L 418.408858 94.052717 
L 418.509567 91.511506 
L 418.650813 94.052717 
L 419.053976 94.052717 
L 419.094312 96.593929 
L 419.154697 94.052717 
L 419.275659 88.970294 
L 419.47726 88.970294 
L 419.61844 94.052717 
L 419.820047 94.052717 
L 419.941065 96.593929 
L 420.021691 96.593929 
L 420.142654 94.052717 
L 420.344267 94.052717 
L 420.485274 99.135141 
L 420.545826 99.135141 
L 420.666853 101.676353 
L 420.928802 101.676353 
L 421.049763 104.217564 
L 421.150696 104.217564 
L 421.271645 101.676353 
L 421.392621 101.676353 
L 421.493289 96.593929 
L 421.513567 99.135141 
L 421.594082 99.135141 
L 421.735213 94.052717 
L 421.755449 94.052717 
L 421.836096 96.593929 
L 421.856175 94.052717 
L 421.916765 94.052717 
L 422.037707 96.593929 
L 422.178739 91.511506 
L 422.299702 96.593929 
L 422.340201 96.593929 
L 422.481205 101.676353 
L 422.602198 99.135141 
L 422.642512 99.135141 
L 422.763445 101.676353 
L 422.844124 101.676353 
L 422.924729 99.135141 
L 422.945005 101.676353 
L 423.02547 101.676353 
L 423.146431 99.135141 
L 423.287687 99.135141 
L 423.408637 101.676353 
L 423.549639 96.593929 
L 423.650543 96.593929 
L 423.79156 101.676353 
L 423.892397 101.676353 
L 424.033484 96.593929 
L 424.194767 96.593929 
L 424.335989 91.511506 
L 424.396367 91.511506 
L 424.51733 88.970294 
L 424.698857 88.970294 
L 424.779492 86.429082 
L 424.799573 88.970294 
L 424.839895 88.970294 
L 425.001344 96.593929 
L 425.06172 96.593929 
L 425.202782 101.676353 
L 425.26335 101.676353 
L 425.364238 99.135141 
L 425.605987 99.135141 
L 425.726949 96.593929 
L 425.787452 96.593929 
L 425.928551 91.511506 
L 425.948802 91.511506 
L 425.989107 88.970294 
L 426.049513 91.511506 
L 426.190681 91.511506 
L 426.31164 88.970294 
L 426.331754 88.970294 
L 426.49304 96.593929 
L 427.037459 124.547258 
L 427.118115 124.547258 
L 427.239028 122.006047 
L 427.319663 122.006047 
L 427.359996 124.547258 
L 427.420406 122.006047 
L 427.460727 122.006047 
L 427.601943 127.08847 
L 427.964837 127.08847 
L 428.085767 124.547258 
L 428.206755 127.08847 
L 428.226816 127.08847 
L 428.367999 132.170894 
L 428.448616 132.170894 
L 428.750975 162.665435 
L 428.851852 157.583011 
L 428.8922 160.124223 
L 429.013183 162.665435 
L 429.073535 162.665435 
L 429.093804 165.206646 
L 429.214716 149.959376 
L 429.275137 149.959376 
L 429.295391 152.500588 
L 429.376071 149.959376 
L 429.396099 149.959376 
L 429.51706 165.206646 
L 429.557562 165.206646 
L 429.698602 175.371493 
L 429.718662 172.830282 
L 429.738943 172.830282 
L 429.87994 167.747858 
L 429.920429 167.747858 
L 429.980821 170.28907 
L 430.021165 167.747858 
L 430.04122 167.747858 
L 430.142134 162.665435 
L 430.162181 165.206646 
L 430.182423 165.206646 
L 430.34367 172.830282 
L 430.464675 172.830282 
L 430.545331 170.28907 
L 430.565382 172.830282 
L 430.605703 172.830282 
L 430.646023 175.371493 
L 430.706516 172.830282 
L 430.968584 172.830282 
L 431.04939 167.747858 
L 431.089545 170.28907 
L 431.109774 170.28907 
L 431.150138 167.747858 
L 431.210668 170.28907 
L 431.271101 170.28907 
L 431.392039 172.830282 
L 431.472621 172.830282 
L 431.613707 167.747858 
L 431.674277 167.747858 
L 431.835468 177.912705 
L 431.956505 175.371493 
L 432.299149 213.48967 
L 432.420108 203.324823 
L 432.460428 203.324823 
L 432.520986 200.783611 
L 432.541069 203.324823 
L 432.581553 203.324823 
L 432.74267 228.73694 
L 432.984589 228.73694 
L 433.105551 231.278152 
L 433.166155 228.73694 
L 433.206404 231.278152 
L 433.488704 231.278152 
L 433.529006 228.73694 
L 433.589393 231.278152 
L 433.710552 231.278152 
L 433.770932 213.48967 
L 433.831316 228.73694 
L 434.032913 228.73694 
L 434.153872 231.278152 
L 434.234514 231.278152 
L 434.315155 228.73694 
L 434.335338 231.278152 
L 434.416088 231.278152 
L 434.436112 221.113305 
L 434.516755 228.73694 
L 434.577316 228.73694 
L 434.698316 221.113305 
L 435.927963 221.113305 
L 436.089241 200.783611 
L 436.129564 203.324823 
L 436.190177 200.783611 
L 436.452124 200.783611 
L 436.553012 195.701188 
L 436.613407 200.783611 
L 436.653727 195.701188 
L 436.79494 195.701188 
L 436.835284 200.783611 
L 436.895648 195.701188 
L 437.036863 188.077552 
L 437.097467 188.077552 
L 437.278778 177.912705 
L 437.319167 177.912705 
L 437.440035 175.371493 
L 437.661735 175.371493 
L 437.742375 177.912705 
L 437.762612 175.371493 
L 437.802949 175.371493 
L 437.923892 172.830282 
L 438.004537 172.830282 
L 438.125508 167.747858 
L 438.30686 188.077552 
L 438.327148 182.995129 
L 438.46814 175.371493 
L 438.488388 175.371493 
L 438.649586 182.995129 
L 438.669741 182.995129 
L 438.710062 188.077552 
L 438.770663 182.995129 
L 438.790702 182.995129 
L 438.911664 177.912705 
L 439.032625 177.912705 
L 439.052842 175.371493 
L 439.133532 177.912705 
L 439.173839 177.912705 
L 439.314868 172.830282 
L 439.395701 172.830282 
L 439.859304 149.959376 
L 439.980216 149.959376 
L 440.101223 147.418164 
L 440.181794 147.418164 
L 440.302812 144.876952 
L 440.403517 144.876952 
L 440.443838 147.418164 
L 440.484158 144.876952 
L 440.584983 144.876952 
L 440.706037 147.418164 
L 440.847042 147.418164 
L 440.968001 149.959376 
L 441.290789 149.959376 
L 441.310745 147.418164 
L 441.39147 149.959376 
L 441.431752 149.959376 
L 441.55275 147.418164 
L 441.593074 147.418164 
L 441.774411 137.253317 
L 441.794672 139.794529 
L 441.855052 137.253317 
L 441.895372 134.712105 
L 441.935691 139.794529 
L 442.07685 139.794529 
L 442.197843 137.253317 
L 442.338896 137.253317 
L 442.459856 139.794529 
L 442.560754 139.794529 
L 442.681708 142.335741 
L 442.984025 142.335741 
L 443.004264 144.876952 
L 443.064665 142.335741 
L 443.246151 132.170894 
L 443.407506 139.794529 
L 443.46787 139.794529 
L 443.58883 142.335741 
L 443.609059 142.335741 
L 443.750114 137.253317 
L 443.871075 137.253317 
L 443.891334 134.712105 
L 443.971907 137.253317 
L 444.032355 137.253317 
L 444.153316 139.794529 
L 444.173547 139.794529 
L 444.294533 142.335741 
L 444.314807 142.335741 
L 444.435561 139.794529 
L 444.496147 139.794529 
L 444.536506 137.253317 
L 444.59684 139.794529 
L 444.617136 139.794529 
L 444.738011 142.335741 
L 444.778376 142.335741 
L 444.879084 144.876952 
L 444.89936 142.335741 
L 444.979994 144.876952 
L 445.040365 144.876952 
L 445.262256 137.253317 
L 445.342811 137.253317 
L 445.443735 134.712105 
L 445.483893 134.712105 
L 445.625123 139.794529 
L 445.766134 139.794529 
L 445.907356 134.712105 
L 446.02832 134.712105 
L 446.149273 137.253317 
L 446.209823 137.253317 
L 446.350888 134.712105 
L 446.411263 134.712105 
L 446.471881 137.253317 
L 446.512194 134.712105 
L 446.633067 132.170894 
L 446.794407 132.170894 
L 446.89511 137.253317 
L 446.915382 134.712105 
L 447.05639 134.712105 
L 447.237938 124.547258 
L 447.540234 124.547258 
L 447.661194 122.006047 
L 447.782157 124.547258 
L 447.842728 124.547258 
L 447.983758 129.629682 
L 448.004047 129.629682 
L 448.084644 132.170894 
L 448.165274 132.170894 
L 448.286277 134.712105 
L 448.427284 129.629682 
L 448.467606 129.629682 
L 448.689472 137.253317 
L 448.830488 124.547258 
L 448.850752 124.547258 
L 448.991773 129.629682 
L 449.012045 129.629682 
L 449.133004 127.08847 
L 449.737799 127.08847 
L 449.858791 124.547258 
L 449.939389 124.547258 
L 450 127.08847 
L 450 127.08847 
" clip-path="url(#paf1d4e1a06)" style="fill: none; stroke: #ff7f0e; stroke-width: 1.5; stroke-linecap: square"/>
   </g>
   <g id="patch_3">
    <path d="M 51.05 279.561175 
L 51.05 25.44 
" style="fill: none; stroke: #000000; stroke-width: 0.8; stroke-linejoin: miter; stroke-linecap: square"/>
   </g>
   <g id="patch_4">
    <path d="M 450 279.561175 
L 450 25.44 
" style="fill: none; stroke: #000000; stroke-width: 0.8; stroke-linejoin: miter; stroke-linecap: square"/>
   </g>
   <g id="patch_5">
    <path d="M 51.05 279.561175 
L 450 279.561175 
" style="fill: none; stroke: #000000; stroke-width: 0.8; stroke-linejoin: miter; stroke-linecap: square"/>
   </g>
   <g id="patch_6">
    <path d="M 51.05 25.44 
L 450 25.44 
" style="fill: none; stroke: #000000; stroke-width: 0.8; stroke-linejoin: miter; stroke-linecap: square"/>
   </g>
   <g id="text_18">
    <!-- November 2023 -->
    <g transform="translate(202.133125 19.44) scale(0.12 -0.12)">
     <defs>
      <path id="DejaVuSans-4e" d="M 628 4666 
L 1478 4666 
L 3547 763 
L 3547 4666 
L 4159 4666 
L 4159 0 
L 3309 0 
L 1241 3903 
L 1241 0 
L 628 0 
L 628 4666 
z
" transform="scale(0.015625)"/>
      <path id="DejaVuSans-6f" d="M 1959 3097 
Q 1497 3097 1228 2736 
Q 959 2375 959 1747 
Q 959 1119 1226 758 
Q 1494 397 1959 397 
Q 2419 397 2687 759 
Q 2956 1122 2956 1747 
Q 2956 2369 2687 2733 
Q 2419 3097 1959 3097 
z
M 1959 3584 
Q 2709 3584 3137 3096 
Q 3566 2609 3566 1747 
Q 3566 888 3137 398 
Q 2709 -91 1959 -91 
Q 1206 -91 779 398 
Q 353 888 353 1747 
Q 353 2609 779 3096 
Q 1206 3584 1959 3584 
z
" transform="scale(0.015625)"/>
      <path id="DejaVuSans-76" d="M 191 3500 
L 800 3500 
L 1894 563 
L 2988 3500 
L 3597 3500 
L 2284 0 
L 1503 0 
L 191 3500 
z
" transform="scale(0.015625)"/>
      <path id="DejaVuSans-65" d="M 3597 1894 
L 3597 1613 
L 953 1613 
Q 991 1019 1311 708 
Q 1631 397 2203 397 
Q 2534 397 2845 478 
Q 3156 559 3463 722 
L 3463 178 
Q 3153 47 2828 -22 
Q 2503 -91 2169 -91 
Q 1331 -91 842 396 
Q 353 884 353 1716 
Q 353 2575 817 3079 
Q 1281 3584 2069 3584 
Q 2775 3584 3186 3129 
Q 3597 2675 3597 1894 
z
M 3022 2063 
Q 3016 2534 2758 2815 
Q 2500 3097 2075 3097 
Q 1594 3097 1305 2825 
Q 1016 2553 972 2059 
L 3022 2063 
z
" transform="scale(0.015625)"/>
      <path id="DejaVuSans-62" d="M 3116 1747 
Q 3116 2381 2855 2742 
Q 2594 3103 2138 3103 
Q 1681 3103 1420 2742 
Q 1159 2381 1159 1747 
Q 1159 1113 1420 752 
Q 1681 391 2138 391 
Q 2594 391 2855 752 
Q 3116 1113 3116 1747 
z
M 1159 2969 
Q 1341 3281 1617 3432 
Q 1894 3584 2278 3584 
Q 2916 3584 3314 3078 
Q 3713 2572 3713 1747 
Q 3713 922 3314 415 
Q 2916 -91 2278 -91 
Q 1894 -91 1617 61 
Q 1341 213 1159 525 
L 1159 0 
L 581 0 
L 581 4863 
L 1159 4863 
L 1159 2969 
z
" transform="scale(0.015625)"/>
      <path id="DejaVuSans-72" d="M 2631 2963 
Q 2534 3019 2420 3045 
Q 2306 3072 2169 3072 
Q 1681 3072 1420 2755 
Q 1159 2438 1159 1844 
L 1159 0 
L 581 0 
L 581 3500 
L 1159 3500 
L 1159 2956 
Q 1341 3275 1631 3429 
Q 1922 3584 2338 3584 
Q 2397 3584 2469 3576 
Q 2541 3569 2628 3553 
L 2631 2963 
z
" transform="scale(0.015625)"/>
     </defs>
     <use xlink:href="#DejaVuSans-4e"/>
     <use xlink:href="#DejaVuSans-6f" x="74.804688"/>
     <use xlink:href="#DejaVuSans-76" x="135.986328"/>
     <use xlink:href="#DejaVuSans-65" x="195.166016"/>
     <use xlink:href="#DejaVuSans-6d" x="256.689453"/>
     <use xlink:href="#DejaVuSans-62" x="354.101562"/>
     <use xlink:href="#DejaVuSans-65" x="417.578125"/>
     <use xlink:href="#DejaVuSans-72" x="479.101562"/>
     <use xlink:href="#DejaVuSans-20" x="520.214844"/>
     <use xlink:href="#DejaVuSans-32" x="552.001953"/>
     <use xlink:href="#DejaVuSans-30" x="615.625"/>
     <use xlink:href="#DejaVuSans-32" x="679.248047"/>
     <use xlink:href="#DejaVuSans-33" x="742.871094"/>
    </g>
   </g>
  </g>
 </g>
 <defs>
  <clipPath id="paf1d4e1a06">
   <rect x="51.05" y="25.44" width="398.95" height="254.121175"/>
  </clipPath>
 </defs>
</svg>
