<?xml version="1.0" encoding="utf-8" standalone="no"?>
<!DOCTYPE svg PUBLIC "-//W3C//DTD SVG 1.1//EN"
  "http://www.w3.org/Graphics/SVG/1.1/DTD/svg11.dtd">
<svg xmlns:xlink="http://www.w3.org/1999/xlink" width="460.8pt" height="345.6pt" viewBox="0 0 460.8 345.6" xmlns="http://www.w3.org/2000/svg" version="1.1">
 <metadata>
  <rdf:RDF xmlns:dc="http://purl.org/dc/elements/1.1/" xmlns:cc="http://creativecommons.org/ns#" xmlns:rdf="http://www.w3.org/1999/02/22-rdf-syntax-ns#">
   <cc:Work>
    <dc:type rdf:resource="http://purl.org/dc/dcmitype/StillImage"/>
    <dc:date>2023-11-08T15:35:59.543105</dc:date>
    <dc:format>image/svg+xml</dc:format>
    <dc:creator>
     <cc:Agent>
      <dc:title>Matplotlib v3.6.3, https://matplotlib.org/</dc:title>
     </cc:Agent>
    </dc:creator>
   </cc:Work>
  </rdf:RDF>
 </metadata>
 <defs>
  <style type="text/css">*{stroke-linejoin: round; stroke-linecap: butt}</style>
 </defs>
 <g id="figure_1">
  <g id="patch_1">
   <path d="M 0 345.6 
L 460.8 345.6 
L 460.8 0 
L 0 0 
z
" style="fill: #ffffff"/>
  </g>
  <g id="axes_1">
   <g id="patch_2">
    <path d="M 51.05 279.561175 
L 450 279.561175 
L 450 25.44 
L 51.05 25.44 
z
" style="fill: #ffffff"/>
   </g>
   <g id="matplotlib.axis_1">
    <g id="xtick_1">
     <g id="line2d_1">
      <path d="M 103.18065 279.561175 
L 103.18065 25.44 
" clip-path="url(#pa4fc80aafa)" style="fill: none; stroke: #b0b0b0; stroke-width: 0.8; stroke-linecap: square"/>
     </g>
     <g id="line2d_2">
      <defs>
       <path id="mca02ca460d" d="M 0 0 
L 0 3.5 
" style="stroke: #000000; stroke-width: 0.8"/>
      </defs>
      <g>
       <use xlink:href="#mca02ca460d" x="103.18065" y="279.561175" style="stroke: #000000; stroke-width: 0.8"/>
      </g>
     </g>
     <g id="text_1">
      <!-- 2023-11-02 -->
      <g transform="translate(60.616137 333.028035) rotate(-45) scale(0.1 -0.1)">
       <defs>
        <path id="DejaVuSans-32" d="M 1228 531 
L 3431 531 
L 3431 0 
L 469 0 
L 469 531 
Q 828 903 1448 1529 
Q 2069 2156 2228 2338 
Q 2531 2678 2651 2914 
Q 2772 3150 2772 3378 
Q 2772 3750 2511 3984 
Q 2250 4219 1831 4219 
Q 1534 4219 1204 4116 
Q 875 4013 500 3803 
L 500 4441 
Q 881 4594 1212 4672 
Q 1544 4750 1819 4750 
Q 2544 4750 2975 4387 
Q 3406 4025 3406 3419 
Q 3406 3131 3298 2873 
Q 3191 2616 2906 2266 
Q 2828 2175 2409 1742 
Q 1991 1309 1228 531 
z
" transform="scale(0.015625)"/>
        <path id="DejaVuSans-30" d="M 2034 4250 
Q 1547 4250 1301 3770 
Q 1056 3291 1056 2328 
Q 1056 1369 1301 889 
Q 1547 409 2034 409 
Q 2525 409 2770 889 
Q 3016 1369 3016 2328 
Q 3016 3291 2770 3770 
Q 2525 4250 2034 4250 
z
M 2034 4750 
Q 2819 4750 3233 4129 
Q 3647 3509 3647 2328 
Q 3647 1150 3233 529 
Q 2819 -91 2034 -91 
Q 1250 -91 836 529 
Q 422 1150 422 2328 
Q 422 3509 836 4129 
Q 1250 4750 2034 4750 
z
" transform="scale(0.015625)"/>
        <path id="DejaVuSans-33" d="M 2597 2516 
Q 3050 2419 3304 2112 
Q 3559 1806 3559 1356 
Q 3559 666 3084 287 
Q 2609 -91 1734 -91 
Q 1441 -91 1130 -33 
Q 819 25 488 141 
L 488 750 
Q 750 597 1062 519 
Q 1375 441 1716 441 
Q 2309 441 2620 675 
Q 2931 909 2931 1356 
Q 2931 1769 2642 2001 
Q 2353 2234 1838 2234 
L 1294 2234 
L 1294 2753 
L 1863 2753 
Q 2328 2753 2575 2939 
Q 2822 3125 2822 3475 
Q 2822 3834 2567 4026 
Q 2313 4219 1838 4219 
Q 1578 4219 1281 4162 
Q 984 4106 628 3988 
L 628 4550 
Q 988 4650 1302 4700 
Q 1616 4750 1894 4750 
Q 2613 4750 3031 4423 
Q 3450 4097 3450 3541 
Q 3450 3153 3228 2886 
Q 3006 2619 2597 2516 
z
" transform="scale(0.015625)"/>
        <path id="DejaVuSans-2d" d="M 313 2009 
L 1997 2009 
L 1997 1497 
L 313 1497 
L 313 2009 
z
" transform="scale(0.015625)"/>
        <path id="DejaVuSans-31" d="M 794 531 
L 1825 531 
L 1825 4091 
L 703 3866 
L 703 4441 
L 1819 4666 
L 2450 4666 
L 2450 531 
L 3481 531 
L 3481 0 
L 794 0 
L 794 531 
z
" transform="scale(0.015625)"/>
       </defs>
       <use xlink:href="#DejaVuSans-32"/>
       <use xlink:href="#DejaVuSans-30" x="63.623047"/>
       <use xlink:href="#DejaVuSans-32" x="127.246094"/>
       <use xlink:href="#DejaVuSans-33" x="190.869141"/>
       <use xlink:href="#DejaVuSans-2d" x="254.492188"/>
       <use xlink:href="#DejaVuSans-31" x="290.576172"/>
       <use xlink:href="#DejaVuSans-31" x="354.199219"/>
       <use xlink:href="#DejaVuSans-2d" x="417.822266"/>
       <use xlink:href="#DejaVuSans-30" x="453.90625"/>
       <use xlink:href="#DejaVuSans-32" x="517.529297"/>
      </g>
     </g>
    </g>
    <g id="xtick_2">
     <g id="line2d_3">
      <path d="M 155.33905 279.561175 
L 155.33905 25.44 
" clip-path="url(#pa4fc80aafa)" style="fill: none; stroke: #b0b0b0; stroke-width: 0.8; stroke-linecap: square"/>
     </g>
     <g id="line2d_4">
      <g>
       <use xlink:href="#mca02ca460d" x="155.33905" y="279.561175" style="stroke: #000000; stroke-width: 0.8"/>
      </g>
     </g>
     <g id="text_2">
      <!-- 2023-11-03 -->
      <g transform="translate(112.774536 333.028035) rotate(-45) scale(0.1 -0.1)">
       <use xlink:href="#DejaVuSans-32"/>
       <use xlink:href="#DejaVuSans-30" x="63.623047"/>
       <use xlink:href="#DejaVuSans-32" x="127.246094"/>
       <use xlink:href="#DejaVuSans-33" x="190.869141"/>
       <use xlink:href="#DejaVuSans-2d" x="254.492188"/>
       <use xlink:href="#DejaVuSans-31" x="290.576172"/>
       <use xlink:href="#DejaVuSans-31" x="354.199219"/>
       <use xlink:href="#DejaVuSans-2d" x="417.822266"/>
       <use xlink:href="#DejaVuSans-30" x="453.90625"/>
       <use xlink:href="#DejaVuSans-33" x="517.529297"/>
      </g>
     </g>
    </g>
    <g id="xtick_3">
     <g id="line2d_5">
      <path d="M 207.497449 279.561175 
L 207.497449 25.44 
" clip-path="url(#pa4fc80aafa)" style="fill: none; stroke: #b0b0b0; stroke-width: 0.8; stroke-linecap: square"/>
     </g>
     <g id="line2d_6">
      <g>
       <use xlink:href="#mca02ca460d" x="207.497449" y="279.561175" style="stroke: #000000; stroke-width: 0.8"/>
      </g>
     </g>
     <g id="text_3">
      <!-- 2023-11-04 -->
      <g transform="translate(164.932935 333.028035) rotate(-45) scale(0.1 -0.1)">
       <defs>
        <path id="DejaVuSans-34" d="M 2419 4116 
L 825 1625 
L 2419 1625 
L 2419 4116 
z
M 2253 4666 
L 3047 4666 
L 3047 1625 
L 3713 1625 
L 3713 1100 
L 3047 1100 
L 3047 0 
L 2419 0 
L 2419 1100 
L 313 1100 
L 313 1709 
L 2253 4666 
z
" transform="scale(0.015625)"/>
       </defs>
       <use xlink:href="#DejaVuSans-32"/>
       <use xlink:href="#DejaVuSans-30" x="63.623047"/>
       <use xlink:href="#DejaVuSans-32" x="127.246094"/>
       <use xlink:href="#DejaVuSans-33" x="190.869141"/>
       <use xlink:href="#DejaVuSans-2d" x="254.492188"/>
       <use xlink:href="#DejaVuSans-31" x="290.576172"/>
       <use xlink:href="#DejaVuSans-31" x="354.199219"/>
       <use xlink:href="#DejaVuSans-2d" x="417.822266"/>
       <use xlink:href="#DejaVuSans-30" x="453.90625"/>
       <use xlink:href="#DejaVuSans-34" x="517.529297"/>
      </g>
     </g>
    </g>
    <g id="xtick_4">
     <g id="line2d_7">
      <path d="M 259.655848 279.561175 
L 259.655848 25.44 
" clip-path="url(#pa4fc80aafa)" style="fill: none; stroke: #b0b0b0; stroke-width: 0.8; stroke-linecap: square"/>
     </g>
     <g id="line2d_8">
      <g>
       <use xlink:href="#mca02ca460d" x="259.655848" y="279.561175" style="stroke: #000000; stroke-width: 0.8"/>
      </g>
     </g>
     <g id="text_4">
      <!-- 2023-11-05 -->
      <g transform="translate(217.091334 333.028035) rotate(-45) scale(0.1 -0.1)">
       <defs>
        <path id="DejaVuSans-35" d="M 691 4666 
L 3169 4666 
L 3169 4134 
L 1269 4134 
L 1269 2991 
Q 1406 3038 1543 3061 
Q 1681 3084 1819 3084 
Q 2600 3084 3056 2656 
Q 3513 2228 3513 1497 
Q 3513 744 3044 326 
Q 2575 -91 1722 -91 
Q 1428 -91 1123 -41 
Q 819 9 494 109 
L 494 744 
Q 775 591 1075 516 
Q 1375 441 1709 441 
Q 2250 441 2565 725 
Q 2881 1009 2881 1497 
Q 2881 1984 2565 2268 
Q 2250 2553 1709 2553 
Q 1456 2553 1204 2497 
Q 953 2441 691 2322 
L 691 4666 
z
" transform="scale(0.015625)"/>
       </defs>
       <use xlink:href="#DejaVuSans-32"/>
       <use xlink:href="#DejaVuSans-30" x="63.623047"/>
       <use xlink:href="#DejaVuSans-32" x="127.246094"/>
       <use xlink:href="#DejaVuSans-33" x="190.869141"/>
       <use xlink:href="#DejaVuSans-2d" x="254.492188"/>
       <use xlink:href="#DejaVuSans-31" x="290.576172"/>
       <use xlink:href="#DejaVuSans-31" x="354.199219"/>
       <use xlink:href="#DejaVuSans-2d" x="417.822266"/>
       <use xlink:href="#DejaVuSans-30" x="453.90625"/>
       <use xlink:href="#DejaVuSans-35" x="517.529297"/>
      </g>
     </g>
    </g>
    <g id="xtick_5">
     <g id="line2d_9">
      <path d="M 311.814247 279.561175 
L 311.814247 25.44 
" clip-path="url(#pa4fc80aafa)" style="fill: none; stroke: #b0b0b0; stroke-width: 0.8; stroke-linecap: square"/>
     </g>
     <g id="line2d_10">
      <g>
       <use xlink:href="#mca02ca460d" x="311.814247" y="279.561175" style="stroke: #000000; stroke-width: 0.8"/>
      </g>
     </g>
     <g id="text_5">
      <!-- 2023-11-06 -->
      <g transform="translate(269.249733 333.028035) rotate(-45) scale(0.1 -0.1)">
       <defs>
        <path id="DejaVuSans-36" d="M 2113 2584 
Q 1688 2584 1439 2293 
Q 1191 2003 1191 1497 
Q 1191 994 1439 701 
Q 1688 409 2113 409 
Q 2538 409 2786 701 
Q 3034 994 3034 1497 
Q 3034 2003 2786 2293 
Q 2538 2584 2113 2584 
z
M 3366 4563 
L 3366 3988 
Q 3128 4100 2886 4159 
Q 2644 4219 2406 4219 
Q 1781 4219 1451 3797 
Q 1122 3375 1075 2522 
Q 1259 2794 1537 2939 
Q 1816 3084 2150 3084 
Q 2853 3084 3261 2657 
Q 3669 2231 3669 1497 
Q 3669 778 3244 343 
Q 2819 -91 2113 -91 
Q 1303 -91 875 529 
Q 447 1150 447 2328 
Q 447 3434 972 4092 
Q 1497 4750 2381 4750 
Q 2619 4750 2861 4703 
Q 3103 4656 3366 4563 
z
" transform="scale(0.015625)"/>
       </defs>
       <use xlink:href="#DejaVuSans-32"/>
       <use xlink:href="#DejaVuSans-30" x="63.623047"/>
       <use xlink:href="#DejaVuSans-32" x="127.246094"/>
       <use xlink:href="#DejaVuSans-33" x="190.869141"/>
       <use xlink:href="#DejaVuSans-2d" x="254.492188"/>
       <use xlink:href="#DejaVuSans-31" x="290.576172"/>
       <use xlink:href="#DejaVuSans-31" x="354.199219"/>
       <use xlink:href="#DejaVuSans-2d" x="417.822266"/>
       <use xlink:href="#DejaVuSans-30" x="453.90625"/>
       <use xlink:href="#DejaVuSans-36" x="517.529297"/>
      </g>
     </g>
    </g>
    <g id="xtick_6">
     <g id="line2d_11">
      <path d="M 363.972646 279.561175 
L 363.972646 25.44 
" clip-path="url(#pa4fc80aafa)" style="fill: none; stroke: #b0b0b0; stroke-width: 0.8; stroke-linecap: square"/>
     </g>
     <g id="line2d_12">
      <g>
       <use xlink:href="#mca02ca460d" x="363.972646" y="279.561175" style="stroke: #000000; stroke-width: 0.8"/>
      </g>
     </g>
     <g id="text_6">
      <!-- 2023-11-07 -->
      <g transform="translate(321.408132 333.028035) rotate(-45) scale(0.1 -0.1)">
       <defs>
        <path id="DejaVuSans-37" d="M 525 4666 
L 3525 4666 
L 3525 4397 
L 1831 0 
L 1172 0 
L 2766 4134 
L 525 4134 
L 525 4666 
z
" transform="scale(0.015625)"/>
       </defs>
       <use xlink:href="#DejaVuSans-32"/>
       <use xlink:href="#DejaVuSans-30" x="63.623047"/>
       <use xlink:href="#DejaVuSans-32" x="127.246094"/>
       <use xlink:href="#DejaVuSans-33" x="190.869141"/>
       <use xlink:href="#DejaVuSans-2d" x="254.492188"/>
       <use xlink:href="#DejaVuSans-31" x="290.576172"/>
       <use xlink:href="#DejaVuSans-31" x="354.199219"/>
       <use xlink:href="#DejaVuSans-2d" x="417.822266"/>
       <use xlink:href="#DejaVuSans-30" x="453.90625"/>
       <use xlink:href="#DejaVuSans-37" x="517.529297"/>
      </g>
     </g>
    </g>
    <g id="xtick_7">
     <g id="line2d_13">
      <path d="M 416.131045 279.561175 
L 416.131045 25.44 
" clip-path="url(#pa4fc80aafa)" style="fill: none; stroke: #b0b0b0; stroke-width: 0.8; stroke-linecap: square"/>
     </g>
     <g id="line2d_14">
      <g>
       <use xlink:href="#mca02ca460d" x="416.131045" y="279.561175" style="stroke: #000000; stroke-width: 0.8"/>
      </g>
     </g>
     <g id="text_7">
      <!-- 2023-11-08 -->
      <g transform="translate(373.566532 333.028035) rotate(-45) scale(0.1 -0.1)">
       <defs>
        <path id="DejaVuSans-38" d="M 2034 2216 
Q 1584 2216 1326 1975 
Q 1069 1734 1069 1313 
Q 1069 891 1326 650 
Q 1584 409 2034 409 
Q 2484 409 2743 651 
Q 3003 894 3003 1313 
Q 3003 1734 2745 1975 
Q 2488 2216 2034 2216 
z
M 1403 2484 
Q 997 2584 770 2862 
Q 544 3141 544 3541 
Q 544 4100 942 4425 
Q 1341 4750 2034 4750 
Q 2731 4750 3128 4425 
Q 3525 4100 3525 3541 
Q 3525 3141 3298 2862 
Q 3072 2584 2669 2484 
Q 3125 2378 3379 2068 
Q 3634 1759 3634 1313 
Q 3634 634 3220 271 
Q 2806 -91 2034 -91 
Q 1263 -91 848 271 
Q 434 634 434 1313 
Q 434 1759 690 2068 
Q 947 2378 1403 2484 
z
M 1172 3481 
Q 1172 3119 1398 2916 
Q 1625 2713 2034 2713 
Q 2441 2713 2670 2916 
Q 2900 3119 2900 3481 
Q 2900 3844 2670 4047 
Q 2441 4250 2034 4250 
Q 1625 4250 1398 4047 
Q 1172 3844 1172 3481 
z
" transform="scale(0.015625)"/>
       </defs>
       <use xlink:href="#DejaVuSans-32"/>
       <use xlink:href="#DejaVuSans-30" x="63.623047"/>
       <use xlink:href="#DejaVuSans-32" x="127.246094"/>
       <use xlink:href="#DejaVuSans-33" x="190.869141"/>
       <use xlink:href="#DejaVuSans-2d" x="254.492188"/>
       <use xlink:href="#DejaVuSans-31" x="290.576172"/>
       <use xlink:href="#DejaVuSans-31" x="354.199219"/>
       <use xlink:href="#DejaVuSans-2d" x="417.822266"/>
       <use xlink:href="#DejaVuSans-30" x="453.90625"/>
       <use xlink:href="#DejaVuSans-38" x="517.529297"/>
      </g>
     </g>
    </g>
   </g>
   <g id="matplotlib.axis_2">
    <g id="ytick_1">
     <g id="line2d_15">
      <path d="M 51.05 279.561175 
L 450 279.561175 
" clip-path="url(#pa4fc80aafa)" style="fill: none; stroke: #b0b0b0; stroke-width: 0.8; stroke-linecap: square"/>
     </g>
     <g id="line2d_16">
      <defs>
       <path id="m32fef5b5eb" d="M 0 0 
L -3.5 0 
" style="stroke: #000000; stroke-width: 0.8"/>
      </defs>
      <g>
       <use xlink:href="#m32fef5b5eb" x="51.05" y="279.561175" style="stroke: #000000; stroke-width: 0.8"/>
      </g>
     </g>
     <g id="text_8">
      <!-- 0 -->
      <g transform="translate(37.6875 283.360394) scale(0.1 -0.1)">
       <use xlink:href="#DejaVuSans-30"/>
      </g>
     </g>
    </g>
    <g id="ytick_2">
     <g id="line2d_17">
      <path d="M 51.05 228.73694 
L 450 228.73694 
" clip-path="url(#pa4fc80aafa)" style="fill: none; stroke: #b0b0b0; stroke-width: 0.8; stroke-linecap: square"/>
     </g>
     <g id="line2d_18">
      <g>
       <use xlink:href="#m32fef5b5eb" x="51.05" y="228.73694" style="stroke: #000000; stroke-width: 0.8"/>
      </g>
     </g>
     <g id="text_9">
      <!-- 20 -->
      <g transform="translate(31.325 232.536159) scale(0.1 -0.1)">
       <use xlink:href="#DejaVuSans-32"/>
       <use xlink:href="#DejaVuSans-30" x="63.623047"/>
      </g>
     </g>
    </g>
    <g id="ytick_3">
     <g id="line2d_19">
      <path d="M 51.05 177.912705 
L 450 177.912705 
" clip-path="url(#pa4fc80aafa)" style="fill: none; stroke: #b0b0b0; stroke-width: 0.8; stroke-linecap: square"/>
     </g>
     <g id="line2d_20">
      <g>
       <use xlink:href="#m32fef5b5eb" x="51.05" y="177.912705" style="stroke: #000000; stroke-width: 0.8"/>
      </g>
     </g>
     <g id="text_10">
      <!-- 40 -->
      <g transform="translate(31.325 181.711924) scale(0.1 -0.1)">
       <use xlink:href="#DejaVuSans-34"/>
       <use xlink:href="#DejaVuSans-30" x="63.623047"/>
      </g>
     </g>
    </g>
    <g id="ytick_4">
     <g id="line2d_21">
      <path d="M 51.05 127.08847 
L 450 127.08847 
" clip-path="url(#pa4fc80aafa)" style="fill: none; stroke: #b0b0b0; stroke-width: 0.8; stroke-linecap: square"/>
     </g>
     <g id="line2d_22">
      <g>
       <use xlink:href="#m32fef5b5eb" x="51.05" y="127.08847" style="stroke: #000000; stroke-width: 0.8"/>
      </g>
     </g>
     <g id="text_11">
      <!-- 60 -->
      <g transform="translate(31.325 130.887689) scale(0.1 -0.1)">
       <use xlink:href="#DejaVuSans-36"/>
       <use xlink:href="#DejaVuSans-30" x="63.623047"/>
      </g>
     </g>
    </g>
    <g id="ytick_5">
     <g id="line2d_23">
      <path d="M 51.05 76.264235 
L 450 76.264235 
" clip-path="url(#pa4fc80aafa)" style="fill: none; stroke: #b0b0b0; stroke-width: 0.8; stroke-linecap: square"/>
     </g>
     <g id="line2d_24">
      <g>
       <use xlink:href="#m32fef5b5eb" x="51.05" y="76.264235" style="stroke: #000000; stroke-width: 0.8"/>
      </g>
     </g>
     <g id="text_12">
      <!-- 80 -->
      <g transform="translate(31.325 80.063454) scale(0.1 -0.1)">
       <use xlink:href="#DejaVuSans-38"/>
       <use xlink:href="#DejaVuSans-30" x="63.623047"/>
      </g>
     </g>
    </g>
    <g id="ytick_6">
     <g id="line2d_25">
      <path d="M 51.05 25.44 
L 450 25.44 
" clip-path="url(#pa4fc80aafa)" style="fill: none; stroke: #b0b0b0; stroke-width: 0.8; stroke-linecap: square"/>
     </g>
     <g id="line2d_26">
      <g>
       <use xlink:href="#m32fef5b5eb" x="51.05" y="25.44" style="stroke: #000000; stroke-width: 0.8"/>
      </g>
     </g>
     <g id="text_13">
      <!-- 100 -->
      <g transform="translate(24.9625 29.239219) scale(0.1 -0.1)">
       <use xlink:href="#DejaVuSans-31"/>
       <use xlink:href="#DejaVuSans-30" x="63.623047"/>
       <use xlink:href="#DejaVuSans-30" x="127.246094"/>
      </g>
     </g>
    </g>
    <g id="text_14">
     <!-- Humidity [%RH] -->
     <g transform="translate(18.882812 192.647463) rotate(-90) scale(0.1 -0.1)">
      <defs>
       <path id="DejaVuSans-48" d="M 628 4666 
L 1259 4666 
L 1259 2753 
L 3553 2753 
L 3553 4666 
L 4184 4666 
L 4184 0 
L 3553 0 
L 3553 2222 
L 1259 2222 
L 1259 0 
L 628 0 
L 628 4666 
z
" transform="scale(0.015625)"/>
       <path id="DejaVuSans-75" d="M 544 1381 
L 544 3500 
L 1119 3500 
L 1119 1403 
Q 1119 906 1312 657 
Q 1506 409 1894 409 
Q 2359 409 2629 706 
Q 2900 1003 2900 1516 
L 2900 3500 
L 3475 3500 
L 3475 0 
L 2900 0 
L 2900 538 
Q 2691 219 2414 64 
Q 2138 -91 1772 -91 
Q 1169 -91 856 284 
Q 544 659 544 1381 
z
M 1991 3584 
L 1991 3584 
z
" transform="scale(0.015625)"/>
       <path id="DejaVuSans-6d" d="M 3328 2828 
Q 3544 3216 3844 3400 
Q 4144 3584 4550 3584 
Q 5097 3584 5394 3201 
Q 5691 2819 5691 2113 
L 5691 0 
L 5113 0 
L 5113 2094 
Q 5113 2597 4934 2840 
Q 4756 3084 4391 3084 
Q 3944 3084 3684 2787 
Q 3425 2491 3425 1978 
L 3425 0 
L 2847 0 
L 2847 2094 
Q 2847 2600 2669 2842 
Q 2491 3084 2119 3084 
Q 1678 3084 1418 2786 
Q 1159 2488 1159 1978 
L 1159 0 
L 581 0 
L 581 3500 
L 1159 3500 
L 1159 2956 
Q 1356 3278 1631 3431 
Q 1906 3584 2284 3584 
Q 2666 3584 2933 3390 
Q 3200 3197 3328 2828 
z
" transform="scale(0.015625)"/>
       <path id="DejaVuSans-69" d="M 603 3500 
L 1178 3500 
L 1178 0 
L 603 0 
L 603 3500 
z
M 603 4863 
L 1178 4863 
L 1178 4134 
L 603 4134 
L 603 4863 
z
" transform="scale(0.015625)"/>
       <path id="DejaVuSans-64" d="M 2906 2969 
L 2906 4863 
L 3481 4863 
L 3481 0 
L 2906 0 
L 2906 525 
Q 2725 213 2448 61 
Q 2172 -91 1784 -91 
Q 1150 -91 751 415 
Q 353 922 353 1747 
Q 353 2572 751 3078 
Q 1150 3584 1784 3584 
Q 2172 3584 2448 3432 
Q 2725 3281 2906 2969 
z
M 947 1747 
Q 947 1113 1208 752 
Q 1469 391 1925 391 
Q 2381 391 2643 752 
Q 2906 1113 2906 1747 
Q 2906 2381 2643 2742 
Q 2381 3103 1925 3103 
Q 1469 3103 1208 2742 
Q 947 2381 947 1747 
z
" transform="scale(0.015625)"/>
       <path id="DejaVuSans-74" d="M 1172 4494 
L 1172 3500 
L 2356 3500 
L 2356 3053 
L 1172 3053 
L 1172 1153 
Q 1172 725 1289 603 
Q 1406 481 1766 481 
L 2356 481 
L 2356 0 
L 1766 0 
Q 1100 0 847 248 
Q 594 497 594 1153 
L 594 3053 
L 172 3053 
L 172 3500 
L 594 3500 
L 594 4494 
L 1172 4494 
z
" transform="scale(0.015625)"/>
       <path id="DejaVuSans-79" d="M 2059 -325 
Q 1816 -950 1584 -1140 
Q 1353 -1331 966 -1331 
L 506 -1331 
L 506 -850 
L 844 -850 
Q 1081 -850 1212 -737 
Q 1344 -625 1503 -206 
L 1606 56 
L 191 3500 
L 800 3500 
L 1894 763 
L 2988 3500 
L 3597 3500 
L 2059 -325 
z
" transform="scale(0.015625)"/>
       <path id="DejaVuSans-20" transform="scale(0.015625)"/>
       <path id="DejaVuSans-5b" d="M 550 4863 
L 1875 4863 
L 1875 4416 
L 1125 4416 
L 1125 -397 
L 1875 -397 
L 1875 -844 
L 550 -844 
L 550 4863 
z
" transform="scale(0.015625)"/>
       <path id="DejaVuSans-25" d="M 4653 2053 
Q 4381 2053 4226 1822 
Q 4072 1591 4072 1178 
Q 4072 772 4226 539 
Q 4381 306 4653 306 
Q 4919 306 5073 539 
Q 5228 772 5228 1178 
Q 5228 1588 5073 1820 
Q 4919 2053 4653 2053 
z
M 4653 2450 
Q 5147 2450 5437 2106 
Q 5728 1763 5728 1178 
Q 5728 594 5436 251 
Q 5144 -91 4653 -91 
Q 4153 -91 3862 251 
Q 3572 594 3572 1178 
Q 3572 1766 3864 2108 
Q 4156 2450 4653 2450 
z
M 1428 4353 
Q 1159 4353 1004 4120 
Q 850 3888 850 3481 
Q 850 3069 1003 2837 
Q 1156 2606 1428 2606 
Q 1700 2606 1854 2837 
Q 2009 3069 2009 3481 
Q 2009 3884 1853 4118 
Q 1697 4353 1428 4353 
z
M 4250 4750 
L 4750 4750 
L 1831 -91 
L 1331 -91 
L 4250 4750 
z
M 1428 4750 
Q 1922 4750 2215 4408 
Q 2509 4066 2509 3481 
Q 2509 2891 2217 2550 
Q 1925 2209 1428 2209 
Q 931 2209 642 2551 
Q 353 2894 353 3481 
Q 353 4063 643 4406 
Q 934 4750 1428 4750 
z
" transform="scale(0.015625)"/>
       <path id="DejaVuSans-52" d="M 2841 2188 
Q 3044 2119 3236 1894 
Q 3428 1669 3622 1275 
L 4263 0 
L 3584 0 
L 2988 1197 
Q 2756 1666 2539 1819 
Q 2322 1972 1947 1972 
L 1259 1972 
L 1259 0 
L 628 0 
L 628 4666 
L 2053 4666 
Q 2853 4666 3247 4331 
Q 3641 3997 3641 3322 
Q 3641 2881 3436 2590 
Q 3231 2300 2841 2188 
z
M 1259 4147 
L 1259 2491 
L 2053 2491 
Q 2509 2491 2742 2702 
Q 2975 2913 2975 3322 
Q 2975 3731 2742 3939 
Q 2509 4147 2053 4147 
L 1259 4147 
z
" transform="scale(0.015625)"/>
       <path id="DejaVuSans-5d" d="M 1947 4863 
L 1947 -844 
L 622 -844 
L 622 -397 
L 1369 -397 
L 1369 4416 
L 622 4416 
L 622 4863 
L 1947 4863 
z
" transform="scale(0.015625)"/>
      </defs>
      <use xlink:href="#DejaVuSans-48"/>
      <use xlink:href="#DejaVuSans-75" x="75.195312"/>
      <use xlink:href="#DejaVuSans-6d" x="138.574219"/>
      <use xlink:href="#DejaVuSans-69" x="235.986328"/>
      <use xlink:href="#DejaVuSans-64" x="263.769531"/>
      <use xlink:href="#DejaVuSans-69" x="327.246094"/>
      <use xlink:href="#DejaVuSans-74" x="355.029297"/>
      <use xlink:href="#DejaVuSans-79" x="394.238281"/>
      <use xlink:href="#DejaVuSans-20" x="453.417969"/>
      <use xlink:href="#DejaVuSans-5b" x="485.205078"/>
      <use xlink:href="#DejaVuSans-25" x="524.21875"/>
      <use xlink:href="#DejaVuSans-52" x="619.238281"/>
      <use xlink:href="#DejaVuSans-48" x="688.720703"/>
      <use xlink:href="#DejaVuSans-5d" x="763.916016"/>
     </g>
    </g>
   </g>
   <g id="line2d_27">
    <path d="M 51.05 58.475753 
L 51.194763 58.475753 
L 51.339839 53.393329 
L 51.426578 53.393329 
L 51.542486 50.852118 
L 51.774295 50.852118 
L 51.890203 48.310906 
L 52.469733 48.310906 
L 52.585992 50.852118 
L 52.730613 50.852118 
L 52.846624 53.393329 
L 53.02045 53.393329 
L 53.107222 55.934541 
L 53.715718 55.934541 
L 53.831762 58.475753 
L 54.150379 58.475753 
L 54.266287 61.016965 
L 54.382192 58.475753 
L 55.3674 58.475753 
L 55.483308 61.016965 
L 55.512446 61.016965 
L 55.657167 55.934541 
L 55.744243 55.934541 
L 55.831025 53.393329 
L 55.976065 53.393329 
L 56.091949 55.934541 
L 56.729457 55.934541 
L 56.845344 58.475753 
L 56.932144 58.475753 
L 57.077128 61.016965 
L 57.309046 61.016965 
L 57.424903 63.558176 
L 57.685535 63.558176 
L 57.801443 61.016965 
L 57.830577 61.016965 
L 57.946465 63.558176 
L 58.613146 63.558176 
L 58.757818 58.475753 
L 58.786647 58.475753 
L 58.902552 55.934541 
L 59.105573 55.934541 
L 59.22141 58.475753 
L 59.395321 58.475753 
L 59.511206 61.016965 
L 59.597995 61.016965 
L 59.714093 63.558176 
L 59.771852 63.558176 
L 59.88776 66.099388 
L 60.264463 66.099388 
L 60.409339 61.016965 
L 60.496421 61.016965 
L 60.612339 63.558176 
L 61.07596 63.558176 
L 61.191863 61.016965 
L 61.626357 61.016965 
L 61.742265 58.475753 
L 62.089981 58.475753 
L 62.235019 63.558176 
L 62.263844 63.558176 
L 62.379752 68.6406 
L 62.437697 68.6406 
L 62.582723 73.723023 
L 62.785425 73.723023 
L 62.90133 76.264235 
L 63.046347 73.723023 
L 63.075189 73.723023 
L 63.191097 76.264235 
L 63.336134 71.181812 
L 63.741817 71.181812 
L 63.85772 73.723023 
L 64.321369 73.723023 
L 64.43728 76.264235 
L 65.103556 76.264235 
L 65.306567 71.181812 
L 65.364486 71.181812 
L 65.480423 68.6406 
L 65.625135 68.6406 
L 65.828138 63.558176 
L 65.9149 63.558176 
L 66.030807 61.016965 
L 66.291679 61.016965 
L 66.40768 58.475753 
L 67.016015 58.475753 
L 67.131922 61.016965 
L 67.161078 61.016965 
L 67.306146 63.558176 
L 67.711457 63.558176 
L 67.827361 66.099388 
L 67.914343 66.099388 
L 68.059179 71.181812 
L 68.146292 71.181812 
L 68.29099 76.264235 
L 68.43587 76.264235 
L 68.609919 86.429082 
L 68.81257 76.264235 
L 69.334152 76.264235 
L 69.450057 86.429082 
L 69.623916 111.8412 
L 69.884845 127.08847 
L 69.971631 127.08847 
L 70.087541 124.547258 
L 70.116618 124.547258 
L 70.232477 122.006047 
L 70.290567 122.006047 
L 70.406474 124.547258 
L 70.435256 122.006047 
L 70.493209 124.547258 
L 70.609105 127.08847 
L 70.638147 127.08847 
L 70.898879 142.335741 
L 71.043957 134.712105 
L 71.246597 144.876952 
L 71.275709 144.876952 
L 71.420454 139.794529 
L 71.449645 139.794529 
L 71.623493 147.418164 
L 71.739283 144.876952 
L 71.797353 144.876952 
L 71.884082 147.418164 
L 72.173843 127.08847 
L 72.347703 127.08847 
L 72.492646 122.006047 
L 72.579513 122.006047 
L 72.695419 124.547258 
L 72.724614 124.547258 
L 72.840421 127.08847 
L 73.506759 127.08847 
L 73.651849 122.006047 
L 73.738568 122.006047 
L 73.854727 124.547258 
L 73.941502 124.547258 
L 74.057526 127.08847 
L 74.260148 127.08847 
L 74.376254 129.629682 
L 74.579091 124.547258 
L 74.665815 124.547258 
L 74.781723 122.006047 
L 74.955573 122.006047 
L 75.071485 124.547258 
L 75.187391 124.547258 
L 75.332464 119.464835 
L 75.390407 119.464835 
L 75.419203 122.006047 
L 75.477423 119.464835 
L 75.796057 119.464835 
L 75.911982 122.006047 
L 75.940779 122.006047 
L 76.056684 124.547258 
L 76.230541 124.547258 
L 76.346449 122.006047 
L 76.37566 122.006047 
L 76.462356 127.08847 
L 76.491566 124.547258 
L 76.578538 124.547258 
L 76.694167 127.08847 
L 76.868026 127.08847 
L 77.01305 144.876952 
L 77.041885 142.335741 
L 77.186886 132.170894 
L 77.215744 134.712105 
L 77.302911 139.794529 
L 77.331649 137.253317 
L 77.505503 137.253317 
L 77.708413 127.08847 
L 77.737317 127.08847 
L 77.85322 124.547258 
L 78.056259 124.547258 
L 78.142984 122.006047 
L 78.258896 122.006047 
L 78.288024 119.464835 
L 78.346015 122.006047 
L 78.40398 122.006047 
L 78.519847 124.547258 
L 78.606609 124.547258 
L 78.722809 122.006047 
L 79.012279 122.006047 
L 79.041363 119.464835 
L 79.099451 122.006047 
L 79.215342 122.006047 
L 79.331077 124.547258 
L 79.4759 124.547258 
L 79.591807 122.006047 
L 79.649758 122.006047 
L 79.765664 124.547258 
L 79.939524 124.547258 
L 80.055429 122.006047 
L 80.461102 122.006047 
L 80.693118 134.712105 
L 80.808822 134.712105 
L 80.924994 129.629682 
L 81.040632 132.170894 
L 81.06981 132.170894 
L 81.21449 127.08847 
L 81.417565 127.08847 
L 81.533353 124.547258 
L 81.851969 124.547258 
L 81.968219 122.006047 
L 82.054882 122.006047 
L 82.112961 124.547258 
L 82.141732 122.006047 
L 83.040199 122.006047 
L 83.184885 116.923623 
L 83.24284 116.923623 
L 83.387868 111.8412 
L 83.590557 111.8412 
L 83.909468 101.676353 
L 84.343947 101.676353 
L 84.45985 99.135141 
L 84.604943 99.135141 
L 84.691959 96.593929 
L 84.807573 96.593929 
L 84.923478 94.052717 
L 85.039386 96.593929 
L 85.213245 96.593929 
L 85.358295 94.052717 
L 85.73482 94.052717 
L 85.85073 76.264235 
L 85.879824 76.264235 
L 85.995826 73.723023 
L 86.111726 73.723023 
L 86.22763 71.181812 
L 86.256399 71.181812 
L 86.372307 68.6406 
L 86.488214 68.6406 
L 86.604118 66.099388 
L 87.241609 66.099388 
L 87.357517 63.558176 
L 87.502495 63.558176 
L 87.618542 61.016965 
L 87.937051 61.016965 
L 88.082105 58.475753 
L 88.11091 58.475753 
L 88.256009 53.393329 
L 88.632485 53.393329 
L 88.748394 55.934541 
L 89.96541 55.934541 
L 90.081312 53.393329 
L 90.45826 53.393329 
L 90.574181 50.852118 
L 91.298326 50.852118 
L 91.414232 48.310906 
L 92.544519 48.310906 
L 92.660463 45.769694 
L 92.863339 45.769694 
L 93.008178 43.228482 
L 93.326681 43.228482 
L 93.442581 40.687271 
L 93.761558 40.687271 
L 93.877478 38.146059 
L 95.239132 38.146059 
L 95.355038 35.604847 
L 96.195418 35.604847 
L 96.311519 33.063635 
L 97.528459 33.063635 
L 97.644363 30.522424 
L 98.94812 30.522424 
L 99.064026 27.981212 
L 138.559259 27.981212 
L 138.733126 35.604847 
L 138.849058 35.604847 
L 138.964981 38.146059 
L 139.022919 38.146059 
L 139.10964 40.687271 
L 139.167598 40.687271 
L 139.283504 43.228482 
L 139.718167 43.228482 
L 139.834274 45.769694 
L 140.094848 45.769694 
L 140.211109 48.310906 
L 140.877384 48.310906 
L 140.99326 45.769694 
L 141.514827 45.769694 
L 141.630839 43.228482 
L 142.355032 43.228482 
L 142.500046 40.687271 
L 144.267488 40.687271 
L 144.383397 43.228482 
L 144.789071 43.228482 
L 144.904977 40.687271 
L 146.469714 40.687271 
L 146.58562 38.146059 
L 147.107199 38.146059 
L 147.223107 35.604847 
L 147.628786 35.604847 
L 147.744689 33.063635 
L 148.121539 33.063635 
L 148.237452 30.522424 
L 149.135563 30.522424 
L 149.251471 27.981212 
L 150.323734 27.981212 
L 150.439707 30.522424 
L 150.700297 30.522424 
L 150.845385 33.063635 
L 150.932112 33.063635 
L 151.048021 35.604847 
L 151.192984 35.604847 
L 151.308969 38.146059 
L 151.482911 38.146059 
L 151.598693 40.687271 
L 151.830624 40.687271 
L 151.946443 43.228482 
L 152.5548 43.228482 
L 152.670708 45.769694 
L 153.337175 45.769694 
L 153.453309 43.228482 
L 153.62707 43.228482 
L 153.743038 40.687271 
L 153.974865 40.687271 
L 154.090755 38.146059 
L 154.409606 38.146059 
L 154.525207 35.604847 
L 154.844184 35.604847 
L 154.959841 38.146059 
L 155.017924 38.146059 
L 155.162695 43.228482 
L 155.2786 43.228482 
L 155.394505 45.769694 
L 155.800181 45.769694 
L 155.916087 43.228482 
L 156.1479 43.228482 
L 156.263802 40.687271 
L 156.553946 40.687271 
L 156.698673 38.146059 
L 157.133436 38.146059 
L 157.24901 35.604847 
L 157.799787 35.604847 
L 157.915646 33.063635 
L 158.842865 33.063635 
L 158.958842 30.522424 
L 159.480395 30.522424 
L 159.596333 33.063635 
L 159.741 33.063635 
L 159.857224 35.604847 
L 160.030764 35.604847 
L 160.14667 38.146059 
L 160.37878 38.146059 
L 160.494391 40.687271 
L 162.290941 40.687271 
L 162.406848 38.146059 
L 162.899665 38.146059 
L 163.015548 35.604847 
L 163.30529 35.604847 
L 163.421209 38.146059 
L 163.797723 38.146059 
L 163.913629 40.687271 
L 164.493162 40.687271 
L 164.609065 43.228482 
L 165.739349 43.228482 
L 165.855058 40.687271 
L 166.869245 40.687271 
L 167.014274 43.228482 
L 167.043316 43.228482 
L 167.188186 48.310906 
L 167.246139 48.310906 
L 167.362092 50.852118 
L 167.506729 50.852118 
L 167.622636 48.310906 
L 167.883677 48.310906 
L 167.970355 45.769694 
L 168.202167 45.769694 
L 168.318074 48.310906 
L 168.550253 48.310906 
L 168.665794 45.769694 
L 169.506339 45.769694 
L 169.593044 43.228482 
L 170.810061 43.228482 
L 170.925967 40.687271 
L 171.244943 40.687271 
L 171.360731 43.228482 
L 172.375057 43.228482 
L 172.490703 45.769694 
L 172.577805 45.769694 
L 172.693652 43.228482 
L 173.128191 43.228482 
L 173.244094 45.769694 
L 173.331173 45.769694 
L 173.417957 48.310906 
L 173.563 45.769694 
L 173.649771 48.310906 
L 173.765677 45.769694 
L 174.084512 45.769694 
L 174.200506 43.228482 
L 174.634974 43.228482 
L 174.750881 40.687271 
L 175.098952 40.687271 
L 175.214506 43.228482 
L 175.620453 43.228482 
L 175.765224 45.769694 
L 175.967898 45.769694 
L 176.083808 48.310906 
L 176.489478 48.310906 
L 176.605388 45.769694 
L 178.401946 45.769694 
L 178.517854 48.310906 
L 181.270863 48.310906 
L 181.386776 50.852118 
L 181.589371 50.852118 
L 181.734411 48.310906 
L 182.169202 48.310906 
L 182.313992 50.852118 
L 182.371938 50.852118 
L 182.48785 48.310906 
L 182.690484 48.310906 
L 182.835546 50.852118 
L 182.864339 50.852118 
L 182.980248 53.393329 
L 183.125325 53.393329 
L 183.241222 50.852118 
L 183.501825 50.852118 
L 183.646921 55.934541 
L 183.733641 55.934541 
L 183.849542 58.475753 
L 183.878601 58.475753 
L 183.994612 61.016965 
L 184.023404 61.016965 
L 184.139308 63.558176 
L 184.31317 63.558176 
L 184.458206 66.099388 
L 184.487029 63.558176 
L 184.544984 66.099388 
L 184.718842 66.099388 
L 184.834746 68.6406 
L 185.124513 68.6406 
L 185.240419 66.099388 
L 185.356326 66.099388 
L 185.501269 71.181812 
L 185.559332 71.181812 
L 185.675183 68.6406 
L 186.051766 68.6406 
L 186.196883 63.558176 
L 186.283577 63.558176 
L 186.399484 61.016965 
L 186.689251 61.016965 
L 186.805156 58.475753 
L 187.674457 58.475753 
L 187.790365 55.934541 
L 188.138083 55.934541 
L 188.283153 58.475753 
L 188.369895 58.475753 
L 188.485801 61.016965 
L 188.746597 61.016965 
L 188.804679 58.475753 
L 188.833523 61.016965 
L 189.065334 61.016965 
L 189.181239 63.558176 
L 189.38429 63.558176 
L 189.500142 61.016965 
L 189.819082 61.016965 
L 189.934633 58.475753 
L 189.96384 58.475753 
L 190.079767 55.934541 
L 190.224398 55.934541 
L 190.340698 53.393329 
L 190.514166 53.393329 
L 190.63007 50.852118 
L 191.2096 50.852118 
L 191.325509 48.310906 
L 191.644431 48.310906 
L 191.789133 53.393329 
L 191.818372 53.393329 
L 191.934286 55.934541 
L 191.963289 55.934541 
L 192.108092 58.475753 
L 192.165993 58.475753 
L 192.281918 55.934541 
L 192.368666 55.934541 
L 192.484575 53.393329 
L 192.890245 53.393329 
L 193.006154 50.852118 
L 193.151146 55.934541 
L 193.180013 55.934541 
L 193.295916 58.475753 
L 193.325136 58.475753 
L 193.469777 63.558176 
L 193.498973 63.558176 
L 193.585681 66.099388 
L 193.730757 66.099388 
L 193.846717 68.6406 
L 194.107263 68.6406 
L 194.194202 71.181812 
L 194.310366 68.6406 
L 194.947808 68.6406 
L 195.063749 66.099388 
L 195.121677 66.099388 
L 195.208381 63.558176 
L 195.469379 63.558176 
L 195.498149 61.016965 
L 195.556097 63.558176 
L 195.874933 63.558176 
L 195.99084 61.016965 
L 196.135632 61.016965 
L 196.251537 63.558176 
L 196.715169 63.558176 
L 196.831073 66.099388 
L 197.49761 66.099388 
L 197.6136 63.558176 
L 197.874236 63.558176 
L 197.990504 61.016965 
L 198.106048 61.016965 
L 198.251052 66.099388 
L 198.279911 66.099388 
L 198.395815 68.6406 
L 198.453771 68.6406 
L 198.569679 71.181812 
L 198.772653 71.181812 
L 198.888556 68.6406 
L 199.091528 68.6406 
L 199.207166 71.181812 
L 199.323072 71.181812 
L 199.43898 73.723023 
L 199.526033 73.723023 
L 199.613236 76.264235 
L 199.757898 76.264235 
L 199.844653 78.805447 
L 199.96056 76.264235 
L 200.308284 76.264235 
L 200.424191 73.723023 
L 200.540098 76.264235 
L 200.62713 76.264235 
L 200.742942 73.723023 
L 200.771907 73.723023 
L 200.887816 71.181812 
L 201.351447 71.181812 
L 201.467352 68.6406 
L 201.873023 68.6406 
L 201.988928 66.099388 
L 202.104838 68.6406 
L 202.510514 68.6406 
L 202.626422 71.181812 
L 203.090048 71.181812 
L 203.235117 76.264235 
L 203.29295 76.264235 
L 203.408985 73.723023 
L 203.524825 73.723023 
L 203.640803 76.264235 
L 203.66958 76.264235 
L 203.814673 81.346659 
L 203.872628 81.346659 
L 204.017301 86.429082 
L 204.162404 86.429082 
L 204.278259 83.88787 
L 204.365025 83.88787 
L 204.480933 81.346659 
L 204.625959 83.88787 
L 204.654789 83.88787 
L 204.770698 86.429082 
L 204.857869 86.429082 
L 204.973762 88.970294 
L 205.031734 88.970294 
L 205.060712 91.511506 
L 205.118419 88.970294 
L 205.176375 88.970294 
L 205.292282 86.429082 
L 205.408188 86.429082 
L 205.582048 78.805447 
L 205.727096 76.264235 
L 206.161865 76.264235 
L 206.306666 73.723023 
L 206.451355 73.723023 
L 206.567258 71.181812 
L 207.146794 71.181812 
L 207.263018 73.723023 
L 207.378608 73.723023 
L 207.494516 76.264235 
L 207.581661 76.264235 
L 207.755437 83.88787 
L 207.784528 83.88787 
L 207.92937 88.970294 
L 207.987339 88.970294 
L 208.10326 91.511506 
L 208.305864 91.511506 
L 208.4509 88.970294 
L 208.537678 88.970294 
L 208.653583 91.511506 
L 208.798713 91.511506 
L 208.943356 86.429082 
L 208.972427 86.429082 
L 209.146357 78.805447 
L 209.320306 78.805447 
L 209.406987 76.264235 
L 209.493956 76.264235 
L 209.638799 81.346659 
L 209.668027 81.346659 
L 209.841897 88.970294 
L 210.10243 88.970294 
L 210.218337 91.511506 
L 210.334244 91.511506 
L 210.450151 94.052717 
L 210.653179 94.052717 
L 210.769093 91.511506 
L 210.797876 91.511506 
L 210.913781 94.052717 
L 210.942952 94.052717 
L 211.029687 96.593929 
L 211.319458 96.593929 
L 211.435361 99.135141 
L 211.667178 99.135141 
L 211.696224 101.676353 
L 211.754292 99.135141 
L 211.898993 99.135141 
L 212.014901 101.676353 
L 212.130807 101.676353 
L 212.27576 106.758776 
L 212.362624 106.758776 
L 212.507685 111.8412 
L 212.768297 111.8412 
L 212.971313 101.676353 
L 213.000112 101.676353 
L 213.116017 99.135141 
L 213.231921 99.135141 
L 213.376982 101.676353 
L 213.579648 101.676353 
L 213.69555 99.135141 
L 213.72468 99.135141 
L 213.840426 96.593929 
L 213.898508 96.593929 
L 214.01452 94.052717 
L 214.217136 94.052717 
L 214.333042 91.511506 
L 214.65199 91.511506 
L 214.796672 96.593929 
L 215.057712 96.593929 
L 215.173601 94.052717 
L 215.405418 94.052717 
L 215.521176 96.593929 
L 215.550069 96.593929 
L 215.665977 94.052717 
L 215.811054 99.135141 
L 216.013903 99.135141 
L 216.129605 101.676353 
L 216.535576 101.676353 
L 216.854211 111.8412 
L 216.883001 111.8412 
L 216.998908 109.299988 
L 217.056861 109.299988 
L 217.230724 101.676353 
L 217.259867 101.676353 
L 217.404581 96.593929 
L 217.462539 96.593929 
L 217.578444 99.135141 
L 217.636599 99.135141 
L 217.752305 101.676353 
L 217.810256 101.676353 
L 217.984118 109.299988 
L 218.158281 109.299988 
L 218.303025 111.8412 
L 218.447748 111.8412 
L 218.53489 114.382411 
L 218.679564 109.299988 
L 218.853422 109.299988 
L 218.882632 106.758776 
L 218.940496 109.299988 
L 219.027282 109.299988 
L 219.143193 111.8412 
L 219.172368 111.8412 
L 219.259399 114.382411 
L 219.606821 114.382411 
L 219.72273 116.923623 
L 219.780683 116.923623 
L 219.925726 114.382411 
L 219.954543 114.382411 
L 220.070449 109.299988 
L 220.186355 111.8412 
L 220.244308 111.8412 
L 220.36057 114.382411 
L 220.50525 111.8412 
L 220.563302 111.8412 
L 220.679132 109.299988 
L 220.997706 109.299988 
L 221.113615 111.8412 
L 221.258722 106.758776 
L 221.287475 106.758776 
L 221.40338 104.217564 
L 221.519293 104.217564 
L 221.635198 101.676353 
L 221.722326 101.676353 
L 221.838253 99.135141 
L 222.069915 99.135141 
L 222.127998 101.676353 
L 222.15678 99.135141 
L 222.301872 99.135141 
L 222.475746 91.511506 
L 222.504502 91.511506 
L 222.620406 88.970294 
L 222.736318 91.511506 
L 222.79427 91.511506 
L 222.910179 94.052717 
L 223.055272 94.052717 
L 223.171051 96.593929 
L 223.229133 96.593929 
L 223.315853 99.135141 
L 223.345056 96.593929 
L 223.40303 99.135141 
L 223.518906 99.135141 
L 223.605623 101.676353 
L 224.822648 101.676353 
L 224.938556 99.135141 
L 225.054462 99.135141 
L 225.170371 96.593929 
L 225.344231 96.593929 
L 225.460139 94.052717 
L 225.576045 94.052717 
L 225.894851 114.382411 
L 225.952932 114.382411 
L 226.358559 142.335741 
L 226.387394 142.335741 
L 226.503302 147.418164 
L 226.532501 144.876952 
L 226.590436 147.418164 
L 226.764286 147.418164 
L 226.880086 144.876952 
L 226.996115 144.876952 
L 227.024875 142.335741 
L 227.082831 144.876952 
L 227.169981 144.876952 
L 227.2859 147.418164 
L 227.488506 147.418164 
L 227.633569 152.500588 
L 227.662361 149.959376 
L 227.720314 152.500588 
L 227.778269 152.500588 
L 227.86541 157.583011 
L 227.894516 155.041799 
L 228.010084 152.500588 
L 228.068037 152.500588 
L 228.213149 147.418164 
L 228.299849 147.418164 
L 228.705521 175.371493 
L 228.763473 175.371493 
L 228.87938 177.912705 
L 228.908558 177.912705 
L 229.024279 185.53634 
L 229.053234 182.995129 
L 229.08236 182.995129 
L 229.227096 177.912705 
L 229.285048 177.912705 
L 229.458906 185.53634 
L 229.632765 177.912705 
L 229.951696 177.912705 
L 230.038432 175.371493 
L 230.125412 175.371493 
L 230.154341 177.912705 
L 230.212292 175.371493 
L 230.299455 175.371493 
L 230.3574 172.830282 
L 230.38615 175.371493 
L 230.502057 175.371493 
L 230.560009 172.830282 
L 230.58915 175.371493 
L 230.733871 175.371493 
L 230.849773 177.912705 
L 230.936925 177.912705 
L 231.11078 170.28907 
L 231.139875 170.28907 
L 231.400464 162.665435 
L 231.574355 162.665435 
L 231.661116 165.206646 
L 231.748077 165.206646 
L 231.864156 167.747858 
L 231.979986 165.206646 
L 232.211885 165.206646 
L 232.356551 160.124223 
L 232.385736 160.124223 
L 232.501665 157.583011 
L 232.530412 157.583011 
L 232.733515 167.747858 
L 232.907296 160.124223 
L 232.936081 160.124223 
L 233.168195 147.418164 
L 233.254946 147.418164 
L 233.399707 142.335741 
L 233.428824 142.335741 
L 233.544723 139.794529 
L 233.747426 139.794529 
L 233.863677 142.335741 
L 234.124362 134.712105 
L 234.240227 137.253317 
L 234.269006 137.253317 
L 234.384908 134.712105 
L 234.52996 132.170894 
L 234.645936 132.170894 
L 234.674674 129.629682 
L 234.732628 132.170894 
L 235.138301 132.170894 
L 235.254205 129.629682 
L 235.283275 129.629682 
L 235.341353 127.08847 
L 235.370111 129.629682 
L 235.457233 129.629682 
L 235.601926 142.335741 
L 235.65988 139.794529 
L 235.775786 137.253317 
L 235.804933 137.253317 
L 235.949645 142.335741 
L 236.065838 142.335741 
L 236.152627 147.418164 
L 236.181458 144.876952 
L 236.558322 144.876952 
L 236.703032 139.794529 
L 236.732199 139.794529 
L 236.8481 137.253317 
L 236.876894 137.253317 
L 237.021967 132.170894 
L 237.079935 132.170894 
L 237.224613 137.253317 
L 237.369741 137.253317 
L 237.514374 144.876952 
L 237.688552 137.253317 
L 237.717211 137.253317 
L 237.862097 149.959376 
L 237.891323 149.959376 
L 237.920049 147.418164 
L 237.978003 149.959376 
L 238.007222 149.959376 
L 238.123138 152.500588 
L 238.441626 152.500588 
L 238.731392 134.712105 
L 238.876415 132.170894 
L 238.934442 132.170894 
L 239.021156 129.629682 
L 239.137066 132.170894 
L 239.166194 132.170894 
L 239.311245 127.08847 
L 239.62989 127.08847 
L 239.745791 129.629682 
L 239.89044 129.629682 
L 240.00636 127.08847 
L 240.06431 127.08847 
L 240.18022 129.629682 
L 240.296126 129.629682 
L 240.412349 127.08847 
L 240.701799 127.08847 
L 240.817704 124.547258 
L 240.933989 124.547258 
L 241.078697 127.08847 
L 241.252589 127.08847 
L 241.368492 124.547258 
L 241.658267 124.547258 
L 241.774141 122.006047 
L 241.889951 124.547258 
L 241.918812 124.547258 
L 242.035039 122.006047 
L 242.353658 111.8412 
L 242.701358 111.8412 
L 242.817286 114.382411 
L 242.96197 109.299988 
L 243.13619 109.299988 
L 243.164803 111.8412 
L 243.222874 109.299988 
L 243.251737 109.299988 
L 243.367644 111.8412 
L 243.570659 111.8412 
L 243.657664 109.299988 
L 243.715365 109.299988 
L 243.831274 106.758776 
L 244.092131 106.758776 
L 244.237197 101.676353 
L 244.410804 101.676353 
L 244.526709 99.135141 
L 244.584663 99.135141 
L 244.613843 101.676353 
L 244.671824 99.135141 
L 244.758864 99.135141 
L 244.961555 94.052717 
L 245.077438 96.593929 
L 245.164196 96.593929 
L 245.280104 99.135141 
L 245.367079 99.135141 
L 245.48314 96.593929 
L 245.569869 96.593929 
L 245.685774 99.135141 
L 245.859925 99.135141 
L 246.004647 94.052717 
L 246.062594 94.052717 
L 246.207356 88.970294 
L 246.323261 88.970294 
L 246.439171 86.429082 
L 246.468216 86.429082 
L 246.584239 83.88787 
L 246.613029 83.88787 
L 246.728936 81.346659 
L 246.786892 81.346659 
L 246.902797 78.805447 
L 247.076655 78.805447 
L 247.192566 76.264235 
L 248.090879 76.264235 
L 248.206959 73.723023 
L 248.293676 73.723023 
L 248.409582 71.181812 
L 248.699347 71.181812 
L 248.815253 68.6406 
L 249.887626 68.6406 
L 250.00353 66.099388 
L 250.264092 66.099388 
L 250.379997 63.558176 
L 250.467164 63.558176 
L 250.58307 61.016965 
L 250.901579 61.016965 
L 251.017484 58.475753 
L 251.481111 58.475753 
L 251.626241 55.934541 
L 252.524275 55.934541 
L 252.640178 53.393329 
L 252.81404 53.393329 
L 252.930295 55.934541 
L 253.132995 55.934541 
L 253.248915 53.393329 
L 254.089015 53.393329 
L 254.204923 55.934541 
L 254.552646 55.934541 
L 254.697703 58.475753 
L 254.784455 58.475753 
L 254.900367 55.934541 
L 256.870785 55.934541 
L 256.986689 53.393329 
L 257.653344 53.393329 
L 257.769291 50.852118 
L 259.913569 50.852118 
L 260.000277 48.310906 
L 262.724089 48.310906 
L 262.839997 45.769694 
L 262.955904 48.310906 
L 263.043062 48.310906 
L 263.158937 45.769694 
L 264.549814 45.769694 
L 264.66579 48.310906 
L 265.38995 48.310906 
L 265.506087 45.769694 
L 267.070606 45.769694 
L 267.186512 48.310906 
L 268.230047 48.310906 
L 268.374767 45.769694 
L 275.647726 45.769694 
L 275.763633 43.228482 
L 279.298789 43.228482 
L 279.414697 45.769694 
L 279.704464 45.769694 
L 279.849533 48.310906 
L 281.124564 48.310906 
L 281.240453 50.852118 
L 281.616925 50.852118 
L 281.732834 53.393329 
L 281.790789 53.393329 
L 281.906998 55.934541 
L 282.080554 55.934541 
L 282.109631 53.393329 
L 282.167639 55.934541 
L 282.660088 55.934541 
L 282.775991 58.475753 
L 282.833944 58.475753 
L 282.949852 61.016965 
L 283.094851 61.016965 
L 283.210854 63.558176 
L 283.326739 63.558176 
L 283.47143 68.6406 
L 283.761198 68.6406 
L 283.877105 71.181812 
L 284.253994 71.181812 
L 284.3699 68.6406 
L 284.514589 68.6406 
L 284.543827 71.181812 
L 284.601766 68.6406 
L 284.804354 68.6406 
L 284.949396 88.970294 
L 285.094118 94.052717 
L 285.123315 94.052717 
L 285.267975 99.135141 
L 285.297117 99.135141 
L 285.499789 109.299988 
L 285.557743 109.299988 
L 285.673648 104.217564 
L 285.789553 109.299988 
L 285.963413 101.676353 
L 286.166468 111.8412 
L 286.253179 111.8412 
L 286.398252 114.382411 
L 286.427041 114.382411 
L 286.63005 124.547258 
L 286.745963 122.006047 
L 286.89066 127.08847 
L 286.919775 127.08847 
L 287.035784 129.629682 
L 287.064818 129.629682 
L 287.238373 122.006047 
L 287.267532 122.006047 
L 287.296329 119.464835 
L 287.441299 96.593929 
L 287.528141 91.511506 
L 287.557346 101.676353 
L 287.644049 99.135141 
L 287.673253 99.135141 
L 287.78913 101.676353 
L 288.078945 101.676353 
L 288.252785 109.299988 
L 288.310781 109.299988 
L 288.484352 101.676353 
L 288.542433 101.676353 
L 288.890218 124.547258 
L 288.948251 122.006047 
L 288.976963 124.547258 
L 289.122041 124.547258 
L 289.266725 119.464835 
L 289.353876 119.464835 
L 289.49854 111.8412 
L 289.643568 111.8412 
L 289.672397 109.299988 
L 289.701549 114.382411 
L 289.788307 114.382411 
L 289.933348 106.758776 
L 290.04927 109.299988 
L 290.078386 109.299988 
L 290.281113 104.217564 
L 290.339057 104.217564 
L 290.397031 106.758776 
L 290.425787 104.217564 
L 290.570778 99.135141 
L 290.97654 99.135141 
L 291.00532 96.593929 
L 291.150386 81.346659 
L 291.353038 81.346659 
L 291.498173 76.264235 
L 291.526896 76.264235 
L 291.642803 94.052717 
L 291.671951 94.052717 
L 291.758709 91.511506 
L 291.874614 94.052717 
L 291.990518 94.052717 
L 292.106429 76.264235 
L 292.802203 76.264235 
L 292.94696 73.723023 
L 293.43935 73.723023 
L 293.555254 71.181812 
L 293.671161 71.181812 
L 293.787068 68.6406 
L 294.106004 68.6406 
L 294.221895 66.099388 
L 294.801483 66.099388 
L 294.917387 63.558176 
L 295.323034 63.558176 
L 295.438925 61.016965 
L 295.7287 61.016965 
L 295.84458 58.475753 
L 295.989288 58.475753 
L 296.105189 55.934541 
L 296.221101 58.475753 
L 296.713839 58.475753 
L 296.829843 61.016965 
L 297.003726 61.016965 
L 297.119614 58.475753 
L 297.669925 58.475753 
L 297.814976 61.016965 
L 298.452525 61.016965 
L 298.568378 58.475753 
L 298.655134 58.475753 
L 298.742274 55.934541 
L 298.85803 58.475753 
L 298.9449 58.475753 
L 299.060805 61.016965 
L 299.234664 61.016965 
L 299.350958 63.558176 
L 300.161916 63.558176 
L 300.277823 61.016965 
L 301.031216 61.016965 
L 301.147124 63.558176 
L 302.799009 63.558176 
L 302.91494 61.016965 
L 303.059582 61.016965 
L 303.117533 58.475753 
L 303.262572 61.016965 
L 303.465253 61.016965 
L 303.58116 63.558176 
L 303.87092 63.558176 
L 303.986827 61.016965 
L 304.102735 63.558176 
L 304.160688 63.558176 
L 304.276587 61.016965 
L 304.566364 61.016965 
L 304.682266 58.475753 
L 304.740224 58.475753 
L 304.885239 55.934541 
L 305.203852 55.934541 
L 305.32005 53.393329 
L 305.493616 53.393329 
L 305.609519 50.852118 
L 306.044364 50.852118 
L 306.160243 48.310906 
L 306.768585 48.310906 
L 306.884495 45.769694 
L 307.116305 45.769694 
L 307.232212 48.310906 
L 307.550954 48.310906 
L 307.667044 50.852118 
L 307.927653 50.852118 
L 308.04385 53.393329 
L 308.188602 55.934541 
L 308.333325 55.934541 
L 308.449233 58.475753 
L 308.710168 58.475753 
L 308.826119 55.934541 
L 309.434438 55.934541 
L 309.550341 58.475753 
L 309.898061 58.475753 
L 310.013969 61.016965 
L 310.361686 61.016965 
L 310.477597 63.558176 
L 310.767361 63.558176 
L 310.91244 66.099388 
L 311.230985 66.099388 
L 311.347201 68.6406 
L 312.390053 68.6406 
L 312.535103 71.181812 
L 312.824924 71.181812 
L 312.940841 73.723023 
L 313.288535 73.723023 
L 313.404376 71.181812 
L 314.476373 71.181812 
L 314.534326 73.723023 
L 314.563478 71.181812 
L 314.853259 71.181812 
L 314.969177 68.6406 
L 315.345675 68.6406 
L 315.46158 71.181812 
L 315.838383 71.181812 
L 315.954436 73.723023 
L 316.041112 73.723023 
L 316.15702 76.264235 
L 316.5919 76.264235 
L 316.707794 78.805447 
L 316.968364 78.805447 
L 317.113488 83.88787 
L 317.142226 83.88787 
L 317.258132 86.429082 
L 317.431995 86.429082 
L 317.547897 88.970294 
L 317.663807 86.429082 
L 317.837669 86.429082 
L 317.982696 83.88787 
L 318.098674 83.88787 
L 318.214622 86.429082 
L 318.301295 86.429082 
L 318.504224 76.264235 
L 318.706967 76.264235 
L 318.822873 73.723023 
L 319.199752 73.723023 
L 319.315658 76.264235 
L 319.692178 76.264235 
L 319.80808 73.723023 
L 320.011138 73.723023 
L 320.126891 76.264235 
L 320.242862 76.264235 
L 320.358852 78.805447 
L 320.474744 78.805447 
L 320.648417 86.429082 
L 320.851241 86.429082 
L 320.967147 83.88787 
L 321.19896 83.88787 
L 321.314867 81.346659 
L 321.575897 81.346659 
L 321.720898 76.264235 
L 322.010312 76.264235 
L 322.039516 73.723023 
L 322.097485 76.264235 
L 322.300077 76.264235 
L 322.358031 73.723023 
L 322.387245 76.264235 
L 323.517102 76.264235 
L 323.633008 73.723023 
L 324.125796 73.723023 
L 324.241709 71.181812 
L 324.29971 71.181812 
L 324.386714 73.723023 
L 324.444715 73.723023 
L 324.560263 76.264235 
L 324.85003 76.264235 
L 324.96628 81.346659 
L 325.139793 81.346659 
L 325.28487 86.429082 
L 325.371607 86.429082 
L 325.487515 88.970294 
L 325.719332 88.970294 
L 325.83524 86.429082 
L 326.038271 86.429082 
L 326.212117 78.805447 
L 326.298862 78.805447 
L 326.41477 76.264235 
L 326.791661 76.264235 
L 326.82045 78.805447 
L 326.878403 76.264235 
L 327.429153 76.264235 
L 327.545102 73.723023 
L 327.602945 73.723023 
L 327.690079 71.181812 
L 328.443144 71.181812 
L 328.472338 73.723023 
L 328.530243 71.181812 
L 328.646197 71.181812 
L 328.762071 73.723023 
L 328.791188 73.723023 
L 328.935947 76.264235 
L 329.080634 76.264235 
L 329.254492 83.88787 
L 329.283711 83.88787 
L 329.399425 86.429082 
L 329.457507 86.429082 
L 329.602212 91.511506 
L 329.718118 91.511506 
L 329.834024 88.970294 
L 329.89237 88.970294 
L 330.181746 106.758776 
L 330.297653 106.758776 
L 330.326847 104.217564 
L 330.384789 106.758776 
L 330.674579 124.547258 
L 330.906337 124.547258 
L 331.02209 127.08847 
L 331.080173 127.08847 
L 331.196107 129.629682 
L 331.2249 129.629682 
L 331.253947 127.08847 
L 331.370015 147.418164 
L 331.398761 147.418164 
L 331.427938 149.959376 
L 331.515013 137.253317 
L 331.688823 137.253317 
L 331.717701 134.712105 
L 331.804432 147.418164 
L 331.833593 144.876952 
L 331.97829 139.794529 
L 332.123227 139.794529 
L 332.355081 152.500588 
L 332.557821 152.500588 
L 332.644756 160.124223 
L 332.789633 157.583011 
L 332.87663 152.500588 
L 333.021442 152.500588 
L 333.079398 157.583011 
L 333.137645 155.041799 
L 333.28245 157.583011 
L 333.311208 157.583011 
L 333.398313 152.500588 
L 333.427115 155.041799 
L 333.485068 155.041799 
L 333.51429 152.500588 
L 333.543021 155.041799 
L 333.658924 157.583011 
L 333.803977 157.583011 
L 333.861952 152.500588 
L 333.890738 155.041799 
L 333.948689 157.583011 
L 333.977873 155.041799 
L 334.093753 152.500588 
L 334.122548 152.500588 
L 334.238805 149.959376 
L 334.267422 149.959376 
L 334.383585 152.500588 
L 334.441486 152.500588 
L 334.702424 167.747858 
L 334.875932 160.124223 
L 334.991839 165.206646 
L 335.107746 162.665435 
L 335.136996 165.206646 
L 335.194898 162.665435 
L 335.339869 157.583011 
L 335.513419 165.206646 
L 335.542559 165.206646 
L 335.571372 162.665435 
L 335.629326 165.206646 
L 335.832322 165.206646 
L 336.092949 157.583011 
L 336.227528 157.583011 
L 336.266803 160.124223 
L 336.325062 157.583011 
L 336.527782 152.500588 
L 336.846329 152.500588 
L 336.962236 149.959376 
L 337.773578 137.253317 
L 337.889483 139.794529 
L 337.918693 137.253317 
L 337.947801 139.794529 
L 338.092524 142.335741 
L 338.179252 142.335741 
L 338.266383 147.418164 
L 338.295159 144.876952 
L 338.527266 144.876952 
L 338.700829 157.583011 
L 338.729975 160.124223 
L 338.874684 149.959376 
L 338.932638 149.959376 
L 339.048885 147.418164 
L 339.251582 147.418164 
L 339.338308 144.876952 
L 339.483309 149.959376 
L 339.512168 149.959376 
L 339.686027 142.335741 
L 339.947032 157.583011 
L 339.975791 157.583011 
L 340.091694 162.665435 
L 340.178647 162.665435 
L 340.323506 167.747858 
L 340.410529 167.747858 
L 340.468577 170.28907 
L 340.497364 167.747858 
L 340.526532 165.206646 
L 340.584376 167.747858 
L 340.613266 167.747858 
L 340.642451 165.206646 
L 340.671567 167.747858 
L 340.729173 170.28907 
L 340.758259 167.747858 
L 340.845081 167.747858 
L 340.990164 172.830282 
L 341.018939 172.830282 
L 341.134843 170.28907 
L 341.192795 170.28907 
L 341.366654 165.206646 
L 341.39584 167.747858 
L 341.540513 152.500588 
L 341.714374 152.500588 
L 341.859378 149.959376 
L 341.946178 149.959376 
L 342.033294 144.876952 
L 342.062088 147.418164 
L 342.091298 147.418164 
L 342.207192 144.876952 
L 342.265124 144.876952 
L 342.294258 147.418164 
L 342.351853 144.876952 
L 342.409806 144.876952 
L 342.49698 142.335741 
L 342.670766 149.959376 
L 342.757522 149.959376 
L 342.815476 147.418164 
L 342.902449 152.500588 
L 342.960532 149.959376 
L 343.018532 149.959376 
L 343.105239 152.500588 
L 343.250334 147.418164 
L 343.48206 147.418164 
L 343.626817 152.500588 
L 343.684768 152.500588 
L 343.829822 147.418164 
L 343.974535 147.418164 
L 344.119497 142.335741 
L 344.177584 142.335741 
L 344.322247 147.418164 
L 344.380201 147.418164 
L 344.496413 142.335741 
L 344.757122 142.335741 
L 344.872925 139.794529 
L 344.95973 142.335741 
L 345.278689 122.006047 
L 345.336676 122.006047 
L 345.481313 106.758776 
L 345.626256 106.758776 
L 345.713123 104.217564 
L 348.697883 96.593929 
L 348.813794 94.052717 
L 348.842591 94.052717 
L 348.958739 91.511506 
L 349.219471 91.511506 
L 349.335384 88.970294 
L 349.711891 88.970294 
L 349.827794 91.511506 
L 350.001656 91.511506 
L 350.117561 94.052717 
L 350.146642 94.052717 
L 350.291758 88.970294 
L 350.436437 88.970294 
L 350.581184 83.88787 
L 350.726223 81.346659 
L 350.812994 81.346659 
L 350.928901 78.805447 
L 351.044811 81.346659 
L 351.189697 81.346659 
L 351.3058 78.805447 
L 351.566384 78.805447 
L 351.682638 76.264235 
L 351.885318 76.264235 
L 352.030011 81.346659 
L 352.087966 81.346659 
L 352.203872 83.88787 
L 352.754599 83.88787 
L 352.870472 86.429082 
L 353.768615 86.429082 
L 353.88452 83.88787 
L 353.913627 83.88787 
L 354.058641 78.805447 
L 354.145412 78.805447 
L 354.2613 76.264235 
L 354.840843 76.264235 
L 354.956822 78.805447 
L 355.072719 76.264235 
L 355.159768 76.264235 
L 355.275398 78.805447 
L 355.362458 78.805447 
L 355.478413 76.264235 
L 355.536326 76.264235 
L 355.652236 73.723023 
L 356.057903 73.723023 
L 356.173844 76.264235 
L 356.55037 76.264235 
L 356.666273 73.723023 
L 357.303761 73.723023 
L 357.448781 76.264235 
L 358.462828 76.264235 
L 358.578736 78.805447 
L 359.158267 78.805447 
L 359.274175 81.346659 
L 359.390081 81.346659 
L 359.448035 83.88787 
L 359.477173 81.346659 
L 359.506294 81.346659 
L 359.651057 83.88787 
L 359.998822 83.88787 
L 360.143471 78.805447 
L 360.172621 78.805447 
L 360.288498 76.264235 
L 360.404454 78.805447 
L 360.433238 78.805447 
L 360.549146 76.264235 
L 361.041864 76.264235 
L 361.128976 78.805447 
L 361.215678 78.805447 
L 361.302539 81.346659 
L 361.447568 76.264235 
L 362.722541 76.264235 
L 362.838344 73.723023 
L 363.359873 73.723023 
L 363.47596 76.264235 
L 363.504766 76.264235 
L 363.62067 73.723023 
L 364.779738 73.723023 
L 364.866854 71.181812 
L 364.953913 73.723023 
L 365.562151 73.723023 
L 365.678165 76.264235 
L 366.460383 76.264235 
L 366.547514 73.723023 
L 366.66329 76.264235 
L 367.039917 76.264235 
L 367.156109 78.805447 
L 367.387634 78.805447 
L 367.50354 76.264235 
L 368.025123 76.264235 
L 368.141028 73.723023 
L 368.285952 73.723023 
L 368.401955 76.264235 
L 369.763715 76.264235 
L 369.879938 73.723023 
L 369.995532 76.264235 
L 370.140592 76.264235 
L 370.256469 73.723023 
L 370.314468 73.723023 
L 370.401418 71.181812 
L 370.633018 71.181812 
L 370.748922 68.6406 
L 370.836064 68.6406 
L 370.922782 66.099388 
L 371.067827 66.099388 
L 371.183741 63.558176 
L 371.502631 63.558176 
L 371.618219 61.016965 
L 372.02389 61.016965 
L 372.168967 58.475753 
L 372.34282 58.475753 
L 372.45865 55.934541 
L 372.545474 55.934541 
L 372.603689 58.475753 
L 372.632414 55.934541 
L 372.74851 55.934541 
L 372.864369 58.475753 
L 373.182957 58.475753 
L 373.298865 61.016965 
L 373.559839 61.016965 
L 373.64658 58.475753 
L 375.182534 58.475753 
L 375.269274 55.934541 
L 375.385183 55.934541 
L 375.501087 53.393329 
L 376.341572 53.393329 
L 376.486295 58.475753 
L 377.297641 58.475753 
L 377.413547 61.016965 
L 377.848368 61.016965 
L 377.964291 58.475753 
L 378.138103 58.475753 
L 378.25403 55.934541 
L 378.572869 55.934541 
L 378.717697 53.393329 
L 379.297254 53.393329 
L 379.413112 50.852118 
L 379.528965 50.852118 
L 379.644939 53.393329 
L 379.934679 53.393329 
L 380.0506 50.852118 
L 382.079025 50.852118 
L 382.194911 48.310906 
L 385.063373 48.310906 
L 385.179283 50.852118 
L 386.715304 50.852118 
L 386.831038 53.393329 
L 387.497416 53.393329 
L 387.613321 55.934541 
L 388.19285 55.934541 
L 388.308759 58.475753 
L 388.888293 58.475753 
L 389.0042 55.934541 
L 389.728824 55.934541 
L 389.844598 58.475753 
L 390.105314 58.475753 
L 390.221219 55.934541 
L 390.800755 55.934541 
L 390.91666 53.393329 
L 391.032567 53.393329 
L 391.148813 50.852118 
L 391.496192 50.852118 
L 391.612098 53.393329 
L 392.597303 53.393329 
L 392.713212 55.934541 
L 392.974111 55.934541 
L 393.090092 58.475753 
L 393.553716 58.475753 
L 393.69842 63.558176 
L 393.901302 63.558176 
L 394.017358 61.016965 
L 394.104088 61.016965 
L 394.249151 78.805447 
L 394.277947 78.805447 
L 394.509759 91.511506 
L 394.596822 91.511506 
L 394.712782 88.970294 
L 394.973387 88.970294 
L 395.002441 86.429082 
L 395.060522 88.970294 
L 395.263151 99.135141 
L 395.552919 99.135141 
L 395.697926 94.052717 
L 395.987709 94.052717 
L 396.103581 91.511506 
L 396.190403 91.511506 
L 396.335438 96.593929 
L 396.480166 96.593929 
L 396.596068 99.135141 
L 396.711979 99.135141 
L 396.827886 101.676353 
L 396.94379 99.135141 
L 397.001743 99.135141 
L 397.059695 101.676353 
L 397.233555 86.429082 
L 397.436589 76.264235 
L 397.610404 76.264235 
L 397.726248 73.723023 
L 397.958197 73.723023 
L 398.074071 71.181812 
L 398.132021 71.181812 
L 398.247775 68.6406 
L 398.421815 68.6406 
L 398.537757 66.099388 
L 398.682388 66.099388 
L 398.798293 63.558176 
L 399.233183 63.558176 
L 399.348911 61.016965 
L 399.435777 61.016965 
L 399.551685 63.558176 
L 399.667593 63.558176 
L 399.783496 61.016965 
L 399.870437 61.016965 
L 399.986499 58.475753 
L 400.334225 58.475753 
L 400.450047 55.934541 
L 401.029644 55.934541 
L 401.145568 53.393329 
L 401.60922 53.393329 
L 401.725109 50.852118 
L 403.75341 50.852118 
L 403.869357 53.393329 
L 404.188185 53.393329 
L 404.332937 55.934541 
L 404.65156 55.934541 
L 404.767453 58.475753 
L 404.796494 58.475753 
L 404.912433 61.016965 
L 404.970463 61.016965 
L 405.086365 63.558176 
L 405.11518 63.558176 
L 405.231086 66.099388 
L 405.926526 66.099388 
L 406.042436 68.6406 
L 406.332201 68.6406 
L 406.477241 71.181812 
L 407.346569 71.181812 
L 407.433313 73.723023 
L 407.49159 73.723023 
L 407.607171 71.181812 
L 407.868142 71.181812 
L 407.984074 73.723023 
L 408.534747 73.723023 
L 408.621428 71.181812 
L 408.737455 73.723023 
L 409.316973 73.723023 
L 409.432806 76.264235 
L 409.519633 76.264235 
L 409.577588 78.805447 
L 409.606679 76.264235 
L 410.099169 76.264235 
L 410.215431 73.723023 
L 410.649894 73.723023 
L 410.765622 71.181812 
L 411.577049 71.181812 
L 411.69302 68.6406 
L 411.92484 68.6406 
L 412.040786 66.099388 
L 412.272636 66.099388 
L 412.359701 68.6406 
L 412.533215 68.6406 
L 412.649125 71.181812 
L 412.967904 71.181812 
L 413.083951 73.723023 
L 413.257856 73.723023 
L 413.373793 71.181812 
L 413.837347 71.181812 
L 413.953241 73.723023 
L 413.982055 73.723023 
L 414.12712 71.181812 
L 414.561778 71.181812 
L 414.677498 68.6406 
L 414.851356 68.6406 
L 414.967265 66.099388 
L 415.430892 66.099388 
L 415.546799 68.6406 
L 415.778608 68.6406 
L 415.89452 71.181812 
L 416.358145 71.181812 
L 416.474053 73.723023 
L 416.850933 73.723023 
L 416.966872 71.181812 
L 417.778131 71.181812 
L 417.893988 68.6406 
L 418.038795 68.6406 
L 418.154701 66.099388 
L 418.502421 66.099388 
L 418.618329 63.558176 
L 418.850142 63.558176 
L 418.96605 61.016965 
L 419.545581 61.016965 
L 419.661487 63.558176 
L 419.748601 63.558176 
L 419.864512 66.099388 
L 420.21223 66.099388 
L 420.328086 68.6406 
L 420.444058 68.6406 
L 420.530788 66.099388 
L 420.675863 68.6406 
L 421.371329 68.6406 
L 421.487166 71.181812 
L 422.3565 71.181812 
L 422.472419 73.723023 
L 422.820051 73.723023 
L 422.93606 76.264235 
L 423.16787 76.264235 
L 423.312535 81.346659 
L 423.399653 81.346659 
L 423.515587 83.88787 
L 424.007988 83.88787 
L 424.123894 86.429082 
L 424.326849 86.429082 
L 424.471616 81.346659 
L 424.58752 81.346659 
L 424.703424 78.805447 
L 424.761381 78.805447 
L 424.877287 76.264235 
L 424.993191 76.264235 
L 425.109098 73.723023 
L 425.949675 73.723023 
L 426.065377 76.264235 
L 426.760946 76.264235 
L 426.876882 73.723023 
L 427.340512 73.723023 
L 427.456406 76.264235 
L 427.601109 76.264235 
L 427.774969 83.88787 
L 428.354509 83.88787 
L 428.470413 81.346659 
L 428.52837 81.346659 
L 428.673491 76.264235 
L 429.021168 76.264235 
L 429.195043 83.88787 
L 429.223815 83.88787 
L 429.339722 86.429082 
L 429.542757 86.429082 
L 429.65868 88.970294 
L 429.774566 88.970294 
L 429.890323 91.511506 
L 429.948361 91.511506 
L 430.064292 94.052717 
L 430.151073 94.052717 
L 430.266976 96.593929 
L 430.296167 96.593929 
L 430.41185 99.135141 
L 430.672652 99.135141 
L 430.788562 101.676353 
L 430.904467 101.676353 
L 431.049517 104.217564 
L 431.136279 104.217564 
L 431.281302 109.299988 
L 431.657867 109.299988 
L 431.773772 111.8412 
L 431.889682 111.8412 
L 432.005956 116.923623 
L 432.121493 116.923623 
L 432.17945 114.382411 
L 432.208587 116.923623 
L 432.266527 116.923623 
L 432.382419 114.382411 
L 432.469218 114.382411 
L 432.585421 116.923623 
L 432.672208 116.923623 
L 432.788005 119.464835 
L 432.932842 119.464835 
L 433.048752 122.006047 
L 433.106977 122.006047 
L 433.251746 124.547258 
L 433.773352 124.547258 
L 433.889101 127.08847 
L 434.005173 127.08847 
L 434.149871 132.170894 
L 434.323732 132.170894 
L 434.468754 137.253317 
L 434.555548 137.253317 
L 434.584667 139.794529 
L 434.642551 137.253317 
L 434.729684 137.253317 
L 434.816408 134.712105 
L 434.874491 137.253317 
L 434.903265 134.712105 
L 434.932392 134.712105 
L 435.04835 132.170894 
L 435.135081 132.170894 
L 435.250988 134.712105 
L 435.454012 139.794529 
L 435.540755 139.794529 
L 435.685862 144.876952 
L 435.801736 144.876952 
L 435.830792 142.335741 
L 435.888475 144.876952 
L 436.149451 144.876952 
L 436.294148 149.959376 
L 436.410396 147.418164 
L 436.468008 147.418164 
L 436.613078 152.500588 
L 436.699812 152.500588 
L 436.902844 139.794529 
L 437.105475 149.959376 
L 437.192494 149.959376 
L 437.308513 152.500588 
L 437.540189 152.500588 
L 437.598271 149.959376 
L 437.743198 175.371493 
L 437.85886 160.124223 
L 437.916815 155.041799 
L 438.061717 172.830282 
L 438.119799 172.830282 
L 438.264533 182.995129 
L 438.29365 180.453917 
L 438.409555 177.912705 
L 438.438392 177.912705 
L 438.554635 188.077552 
L 438.612248 188.077552 
L 438.757298 193.159976 
L 438.844061 190.618764 
L 438.959968 193.159976 
L 438.989131 193.159976 
L 439.075871 190.618764 
L 439.162853 190.618764 
L 439.27886 195.701188 
L 439.336885 193.159976 
L 439.365639 195.701188 
L 439.568645 195.701188 
L 439.597453 193.159976 
L 439.655708 195.701188 
L 439.742462 195.701188 
L 439.858416 193.159976 
L 439.887214 193.159976 
L 439.945165 198.242399 
L 440.003115 195.701188 
L 440.148187 190.618764 
L 440.292885 190.618764 
L 440.408788 195.701188 
L 440.466739 195.701188 
L 440.698552 182.995129 
L 440.756837 182.995129 
L 440.843588 177.912705 
L 440.95956 190.618764 
L 440.988315 185.53634 
L 441.046269 185.53634 
L 441.220128 177.912705 
L 441.278317 177.912705 
L 441.481061 190.618764 
L 441.683758 177.912705 
L 441.973522 195.701188 
L 442.002657 195.701188 
L 442.089426 198.242399 
L 442.205336 195.701188 
L 442.234446 195.701188 
L 442.321242 198.242399 
L 442.379498 193.159976 
L 442.408186 195.701188 
L 442.524256 198.242399 
L 442.553051 198.242399 
L 442.640057 193.159976 
L 442.668955 195.701188 
L 442.698034 195.701188 
L 442.814059 193.159976 
L 442.842816 193.159976 
L 442.958722 188.077552 
L 442.987796 195.701188 
L 443.074629 193.159976 
L 443.219706 188.077552 
L 443.277625 188.077552 
L 443.422346 195.701188 
L 443.509325 195.701188 
L 443.712111 185.53634 
L 443.741274 185.53634 
L 443.857172 193.159976 
L 443.943922 193.159976 
L 444.088936 195.701188 
L 444.117782 195.701188 
L 444.262854 185.53634 
L 444.320791 188.077552 
L 444.349593 185.53634 
L 444.378766 185.53634 
L 444.523757 195.701188 
L 444.66851 188.077552 
L 444.813213 195.701188 
L 444.95818 195.701188 
L 445.016215 193.159976 
L 445.045027 195.701188 
L 445.131992 200.783611 
L 445.248032 190.618764 
L 445.305982 193.159976 
L 445.334792 190.618764 
L 445.421876 190.618764 
L 445.508647 193.159976 
L 445.653522 188.077552 
L 445.682508 188.077552 
L 445.856366 180.453917 
L 445.943516 180.453917 
L 446.059423 177.912705 
L 446.262039 177.912705 
L 446.377946 175.371493 
L 446.407087 175.371493 
L 446.465019 177.912705 
L 446.493852 175.371493 
L 446.580992 175.371493 
L 446.66771 172.830282 
L 446.754664 172.830282 
L 446.783617 170.28907 
L 446.841569 172.830282 
L 446.957474 172.830282 
L 447.073378 170.28907 
L 447.160508 170.28907 
L 447.247565 167.747858 
L 447.392291 170.28907 
L 447.652912 170.28907 
L 447.682004 172.830282 
L 447.740019 170.28907 
L 447.768815 170.28907 
L 448.02977 162.665435 
L 448.087786 162.665435 
L 448.232443 157.583011 
L 448.261619 157.583011 
L 448.348534 144.876952 
L 448.377331 147.418164 
L 448.406301 147.418164 
L 448.522208 149.959376 
L 448.69607 149.959376 
L 448.841159 144.876952 
L 449.188868 144.876952 
L 449.304732 147.418164 
L 449.333554 147.418164 
L 449.478471 142.335741 
L 449.565367 142.335741 
L 449.710452 137.253317 
L 449.884261 137.253317 
L 450 134.712105 
L 450 134.712105 
" clip-path="url(#pa4fc80aafa)" style="fill: none; stroke: #ff7f0e; stroke-width: 1.5; stroke-linecap: square"/>
   </g>
   <g id="patch_3">
    <path d="M 51.05 279.561175 
L 51.05 25.44 
" style="fill: none; stroke: #000000; stroke-width: 0.8; stroke-linejoin: miter; stroke-linecap: square"/>
   </g>
   <g id="patch_4">
    <path d="M 450 279.561175 
L 450 25.44 
" style="fill: none; stroke: #000000; stroke-width: 0.8; stroke-linejoin: miter; stroke-linecap: square"/>
   </g>
   <g id="patch_5">
    <path d="M 51.05 279.561175 
L 450 279.561175 
" style="fill: none; stroke: #000000; stroke-width: 0.8; stroke-linejoin: miter; stroke-linecap: square"/>
   </g>
   <g id="patch_6">
    <path d="M 51.05 25.44 
L 450 25.44 
" style="fill: none; stroke: #000000; stroke-width: 0.8; stroke-linejoin: miter; stroke-linecap: square"/>
   </g>
   <g id="text_15">
    <!-- November 2023 -->
    <g transform="translate(202.133125 19.44) scale(0.12 -0.12)">
     <defs>
      <path id="DejaVuSans-4e" d="M 628 4666 
L 1478 4666 
L 3547 763 
L 3547 4666 
L 4159 4666 
L 4159 0 
L 3309 0 
L 1241 3903 
L 1241 0 
L 628 0 
L 628 4666 
z
" transform="scale(0.015625)"/>
      <path id="DejaVuSans-6f" d="M 1959 3097 
Q 1497 3097 1228 2736 
Q 959 2375 959 1747 
Q 959 1119 1226 758 
Q 1494 397 1959 397 
Q 2419 397 2687 759 
Q 2956 1122 2956 1747 
Q 2956 2369 2687 2733 
Q 2419 3097 1959 3097 
z
M 1959 3584 
Q 2709 3584 3137 3096 
Q 3566 2609 3566 1747 
Q 3566 888 3137 398 
Q 2709 -91 1959 -91 
Q 1206 -91 779 398 
Q 353 888 353 1747 
Q 353 2609 779 3096 
Q 1206 3584 1959 3584 
z
" transform="scale(0.015625)"/>
      <path id="DejaVuSans-76" d="M 191 3500 
L 800 3500 
L 1894 563 
L 2988 3500 
L 3597 3500 
L 2284 0 
L 1503 0 
L 191 3500 
z
" transform="scale(0.015625)"/>
      <path id="DejaVuSans-65" d="M 3597 1894 
L 3597 1613 
L 953 1613 
Q 991 1019 1311 708 
Q 1631 397 2203 397 
Q 2534 397 2845 478 
Q 3156 559 3463 722 
L 3463 178 
Q 3153 47 2828 -22 
Q 2503 -91 2169 -91 
Q 1331 -91 842 396 
Q 353 884 353 1716 
Q 353 2575 817 3079 
Q 1281 3584 2069 3584 
Q 2775 3584 3186 3129 
Q 3597 2675 3597 1894 
z
M 3022 2063 
Q 3016 2534 2758 2815 
Q 2500 3097 2075 3097 
Q 1594 3097 1305 2825 
Q 1016 2553 972 2059 
L 3022 2063 
z
" transform="scale(0.015625)"/>
      <path id="DejaVuSans-62" d="M 3116 1747 
Q 3116 2381 2855 2742 
Q 2594 3103 2138 3103 
Q 1681 3103 1420 2742 
Q 1159 2381 1159 1747 
Q 1159 1113 1420 752 
Q 1681 391 2138 391 
Q 2594 391 2855 752 
Q 3116 1113 3116 1747 
z
M 1159 2969 
Q 1341 3281 1617 3432 
Q 1894 3584 2278 3584 
Q 2916 3584 3314 3078 
Q 3713 2572 3713 1747 
Q 3713 922 3314 415 
Q 2916 -91 2278 -91 
Q 1894 -91 1617 61 
Q 1341 213 1159 525 
L 1159 0 
L 581 0 
L 581 4863 
L 1159 4863 
L 1159 2969 
z
" transform="scale(0.015625)"/>
      <path id="DejaVuSans-72" d="M 2631 2963 
Q 2534 3019 2420 3045 
Q 2306 3072 2169 3072 
Q 1681 3072 1420 2755 
Q 1159 2438 1159 1844 
L 1159 0 
L 581 0 
L 581 3500 
L 1159 3500 
L 1159 2956 
Q 1341 3275 1631 3429 
Q 1922 3584 2338 3584 
Q 2397 3584 2469 3576 
Q 2541 3569 2628 3553 
L 2631 2963 
z
" transform="scale(0.015625)"/>
     </defs>
     <use xlink:href="#DejaVuSans-4e"/>
     <use xlink:href="#DejaVuSans-6f" x="74.804688"/>
     <use xlink:href="#DejaVuSans-76" x="135.986328"/>
     <use xlink:href="#DejaVuSans-65" x="195.166016"/>
     <use xlink:href="#DejaVuSans-6d" x="256.689453"/>
     <use xlink:href="#DejaVuSans-62" x="354.101562"/>
     <use xlink:href="#DejaVuSans-65" x="417.578125"/>
     <use xlink:href="#DejaVuSans-72" x="479.101562"/>
     <use xlink:href="#DejaVuSans-20" x="520.214844"/>
     <use xlink:href="#DejaVuSans-32" x="552.001953"/>
     <use xlink:href="#DejaVuSans-30" x="615.625"/>
     <use xlink:href="#DejaVuSans-32" x="679.248047"/>
     <use xlink:href="#DejaVuSans-33" x="742.871094"/>
    </g>
   </g>
  </g>
 </g>
 <defs>
  <clipPath id="pa4fc80aafa">
   <rect x="51.05" y="25.44" width="398.95" height="254.121175"/>
  </clipPath>
 </defs>
</svg>
