<?xml version="1.0" encoding="utf-8" standalone="no"?>
<!DOCTYPE svg PUBLIC "-//W3C//DTD SVG 1.1//EN"
  "http://www.w3.org/Graphics/SVG/1.1/DTD/svg11.dtd">
<svg xmlns:xlink="http://www.w3.org/1999/xlink" width="460.8pt" height="345.6pt" viewBox="0 0 460.8 345.6" xmlns="http://www.w3.org/2000/svg" version="1.1">
 <metadata>
  <rdf:RDF xmlns:dc="http://purl.org/dc/elements/1.1/" xmlns:cc="http://creativecommons.org/ns#" xmlns:rdf="http://www.w3.org/1999/02/22-rdf-syntax-ns#">
   <cc:Work>
    <dc:type rdf:resource="http://purl.org/dc/dcmitype/StillImage"/>
    <dc:date>2023-11-06T18:48:49.596061</dc:date>
    <dc:format>image/svg+xml</dc:format>
    <dc:creator>
     <cc:Agent>
      <dc:title>Matplotlib v3.6.3, https://matplotlib.org/</dc:title>
     </cc:Agent>
    </dc:creator>
   </cc:Work>
  </rdf:RDF>
 </metadata>
 <defs>
  <style type="text/css">*{stroke-linejoin: round; stroke-linecap: butt}</style>
 </defs>
 <g id="figure_1">
  <g id="patch_1">
   <path d="M 0 345.6 
L 460.8 345.6 
L 460.8 0 
L 0 0 
z
" style="fill: #ffffff"/>
  </g>
  <g id="axes_1">
   <g id="patch_2">
    <path d="M 51.05 279.561175 
L 450 279.561175 
L 450 25.44 
L 51.05 25.44 
z
" style="fill: #ffffff"/>
   </g>
   <g id="matplotlib.axis_1">
    <g id="xtick_1">
     <g id="line2d_1">
      <path d="M 120.003304 279.561175 
L 120.003304 25.44 
" clip-path="url(#p76300485b2)" style="fill: none; stroke: #b0b0b0; stroke-width: 0.8; stroke-linecap: square"/>
     </g>
     <g id="line2d_2">
      <defs>
       <path id="m488cc77551" d="M 0 0 
L 0 3.5 
" style="stroke: #000000; stroke-width: 0.8"/>
      </defs>
      <g>
       <use xlink:href="#m488cc77551" x="120.003304" y="279.561175" style="stroke: #000000; stroke-width: 0.8"/>
      </g>
     </g>
     <g id="text_1">
      <!-- 2023-11-02 -->
      <g transform="translate(77.43879 333.028035) rotate(-45) scale(0.1 -0.1)">
       <defs>
        <path id="DejaVuSans-32" d="M 1228 531 
L 3431 531 
L 3431 0 
L 469 0 
L 469 531 
Q 828 903 1448 1529 
Q 2069 2156 2228 2338 
Q 2531 2678 2651 2914 
Q 2772 3150 2772 3378 
Q 2772 3750 2511 3984 
Q 2250 4219 1831 4219 
Q 1534 4219 1204 4116 
Q 875 4013 500 3803 
L 500 4441 
Q 881 4594 1212 4672 
Q 1544 4750 1819 4750 
Q 2544 4750 2975 4387 
Q 3406 4025 3406 3419 
Q 3406 3131 3298 2873 
Q 3191 2616 2906 2266 
Q 2828 2175 2409 1742 
Q 1991 1309 1228 531 
z
" transform="scale(0.015625)"/>
        <path id="DejaVuSans-30" d="M 2034 4250 
Q 1547 4250 1301 3770 
Q 1056 3291 1056 2328 
Q 1056 1369 1301 889 
Q 1547 409 2034 409 
Q 2525 409 2770 889 
Q 3016 1369 3016 2328 
Q 3016 3291 2770 3770 
Q 2525 4250 2034 4250 
z
M 2034 4750 
Q 2819 4750 3233 4129 
Q 3647 3509 3647 2328 
Q 3647 1150 3233 529 
Q 2819 -91 2034 -91 
Q 1250 -91 836 529 
Q 422 1150 422 2328 
Q 422 3509 836 4129 
Q 1250 4750 2034 4750 
z
" transform="scale(0.015625)"/>
        <path id="DejaVuSans-33" d="M 2597 2516 
Q 3050 2419 3304 2112 
Q 3559 1806 3559 1356 
Q 3559 666 3084 287 
Q 2609 -91 1734 -91 
Q 1441 -91 1130 -33 
Q 819 25 488 141 
L 488 750 
Q 750 597 1062 519 
Q 1375 441 1716 441 
Q 2309 441 2620 675 
Q 2931 909 2931 1356 
Q 2931 1769 2642 2001 
Q 2353 2234 1838 2234 
L 1294 2234 
L 1294 2753 
L 1863 2753 
Q 2328 2753 2575 2939 
Q 2822 3125 2822 3475 
Q 2822 3834 2567 4026 
Q 2313 4219 1838 4219 
Q 1578 4219 1281 4162 
Q 984 4106 628 3988 
L 628 4550 
Q 988 4650 1302 4700 
Q 1616 4750 1894 4750 
Q 2613 4750 3031 4423 
Q 3450 4097 3450 3541 
Q 3450 3153 3228 2886 
Q 3006 2619 2597 2516 
z
" transform="scale(0.015625)"/>
        <path id="DejaVuSans-2d" d="M 313 2009 
L 1997 2009 
L 1997 1497 
L 313 1497 
L 313 2009 
z
" transform="scale(0.015625)"/>
        <path id="DejaVuSans-31" d="M 794 531 
L 1825 531 
L 1825 4091 
L 703 3866 
L 703 4441 
L 1819 4666 
L 2450 4666 
L 2450 531 
L 3481 531 
L 3481 0 
L 794 0 
L 794 531 
z
" transform="scale(0.015625)"/>
       </defs>
       <use xlink:href="#DejaVuSans-32"/>
       <use xlink:href="#DejaVuSans-30" x="63.623047"/>
       <use xlink:href="#DejaVuSans-32" x="127.246094"/>
       <use xlink:href="#DejaVuSans-33" x="190.869141"/>
       <use xlink:href="#DejaVuSans-2d" x="254.492188"/>
       <use xlink:href="#DejaVuSans-31" x="290.576172"/>
       <use xlink:href="#DejaVuSans-31" x="354.199219"/>
       <use xlink:href="#DejaVuSans-2d" x="417.822266"/>
       <use xlink:href="#DejaVuSans-30" x="453.90625"/>
       <use xlink:href="#DejaVuSans-32" x="517.529297"/>
      </g>
     </g>
    </g>
    <g id="xtick_2">
     <g id="line2d_3">
      <path d="M 188.993311 279.561175 
L 188.993311 25.44 
" clip-path="url(#p76300485b2)" style="fill: none; stroke: #b0b0b0; stroke-width: 0.8; stroke-linecap: square"/>
     </g>
     <g id="line2d_4">
      <g>
       <use xlink:href="#m488cc77551" x="188.993311" y="279.561175" style="stroke: #000000; stroke-width: 0.8"/>
      </g>
     </g>
     <g id="text_2">
      <!-- 2023-11-03 -->
      <g transform="translate(146.428797 333.028035) rotate(-45) scale(0.1 -0.1)">
       <use xlink:href="#DejaVuSans-32"/>
       <use xlink:href="#DejaVuSans-30" x="63.623047"/>
       <use xlink:href="#DejaVuSans-32" x="127.246094"/>
       <use xlink:href="#DejaVuSans-33" x="190.869141"/>
       <use xlink:href="#DejaVuSans-2d" x="254.492188"/>
       <use xlink:href="#DejaVuSans-31" x="290.576172"/>
       <use xlink:href="#DejaVuSans-31" x="354.199219"/>
       <use xlink:href="#DejaVuSans-2d" x="417.822266"/>
       <use xlink:href="#DejaVuSans-30" x="453.90625"/>
       <use xlink:href="#DejaVuSans-33" x="517.529297"/>
      </g>
     </g>
    </g>
    <g id="xtick_3">
     <g id="line2d_5">
      <path d="M 257.983318 279.561175 
L 257.983318 25.44 
" clip-path="url(#p76300485b2)" style="fill: none; stroke: #b0b0b0; stroke-width: 0.8; stroke-linecap: square"/>
     </g>
     <g id="line2d_6">
      <g>
       <use xlink:href="#m488cc77551" x="257.983318" y="279.561175" style="stroke: #000000; stroke-width: 0.8"/>
      </g>
     </g>
     <g id="text_3">
      <!-- 2023-11-04 -->
      <g transform="translate(215.418804 333.028035) rotate(-45) scale(0.1 -0.1)">
       <defs>
        <path id="DejaVuSans-34" d="M 2419 4116 
L 825 1625 
L 2419 1625 
L 2419 4116 
z
M 2253 4666 
L 3047 4666 
L 3047 1625 
L 3713 1625 
L 3713 1100 
L 3047 1100 
L 3047 0 
L 2419 0 
L 2419 1100 
L 313 1100 
L 313 1709 
L 2253 4666 
z
" transform="scale(0.015625)"/>
       </defs>
       <use xlink:href="#DejaVuSans-32"/>
       <use xlink:href="#DejaVuSans-30" x="63.623047"/>
       <use xlink:href="#DejaVuSans-32" x="127.246094"/>
       <use xlink:href="#DejaVuSans-33" x="190.869141"/>
       <use xlink:href="#DejaVuSans-2d" x="254.492188"/>
       <use xlink:href="#DejaVuSans-31" x="290.576172"/>
       <use xlink:href="#DejaVuSans-31" x="354.199219"/>
       <use xlink:href="#DejaVuSans-2d" x="417.822266"/>
       <use xlink:href="#DejaVuSans-30" x="453.90625"/>
       <use xlink:href="#DejaVuSans-34" x="517.529297"/>
      </g>
     </g>
    </g>
    <g id="xtick_4">
     <g id="line2d_7">
      <path d="M 326.973325 279.561175 
L 326.973325 25.44 
" clip-path="url(#p76300485b2)" style="fill: none; stroke: #b0b0b0; stroke-width: 0.8; stroke-linecap: square"/>
     </g>
     <g id="line2d_8">
      <g>
       <use xlink:href="#m488cc77551" x="326.973325" y="279.561175" style="stroke: #000000; stroke-width: 0.8"/>
      </g>
     </g>
     <g id="text_4">
      <!-- 2023-11-05 -->
      <g transform="translate(284.408811 333.028035) rotate(-45) scale(0.1 -0.1)">
       <defs>
        <path id="DejaVuSans-35" d="M 691 4666 
L 3169 4666 
L 3169 4134 
L 1269 4134 
L 1269 2991 
Q 1406 3038 1543 3061 
Q 1681 3084 1819 3084 
Q 2600 3084 3056 2656 
Q 3513 2228 3513 1497 
Q 3513 744 3044 326 
Q 2575 -91 1722 -91 
Q 1428 -91 1123 -41 
Q 819 9 494 109 
L 494 744 
Q 775 591 1075 516 
Q 1375 441 1709 441 
Q 2250 441 2565 725 
Q 2881 1009 2881 1497 
Q 2881 1984 2565 2268 
Q 2250 2553 1709 2553 
Q 1456 2553 1204 2497 
Q 953 2441 691 2322 
L 691 4666 
z
" transform="scale(0.015625)"/>
       </defs>
       <use xlink:href="#DejaVuSans-32"/>
       <use xlink:href="#DejaVuSans-30" x="63.623047"/>
       <use xlink:href="#DejaVuSans-32" x="127.246094"/>
       <use xlink:href="#DejaVuSans-33" x="190.869141"/>
       <use xlink:href="#DejaVuSans-2d" x="254.492188"/>
       <use xlink:href="#DejaVuSans-31" x="290.576172"/>
       <use xlink:href="#DejaVuSans-31" x="354.199219"/>
       <use xlink:href="#DejaVuSans-2d" x="417.822266"/>
       <use xlink:href="#DejaVuSans-30" x="453.90625"/>
       <use xlink:href="#DejaVuSans-35" x="517.529297"/>
      </g>
     </g>
    </g>
    <g id="xtick_5">
     <g id="line2d_9">
      <path d="M 395.963332 279.561175 
L 395.963332 25.44 
" clip-path="url(#p76300485b2)" style="fill: none; stroke: #b0b0b0; stroke-width: 0.8; stroke-linecap: square"/>
     </g>
     <g id="line2d_10">
      <g>
       <use xlink:href="#m488cc77551" x="395.963332" y="279.561175" style="stroke: #000000; stroke-width: 0.8"/>
      </g>
     </g>
     <g id="text_5">
      <!-- 2023-11-06 -->
      <g transform="translate(353.398818 333.028035) rotate(-45) scale(0.1 -0.1)">
       <defs>
        <path id="DejaVuSans-36" d="M 2113 2584 
Q 1688 2584 1439 2293 
Q 1191 2003 1191 1497 
Q 1191 994 1439 701 
Q 1688 409 2113 409 
Q 2538 409 2786 701 
Q 3034 994 3034 1497 
Q 3034 2003 2786 2293 
Q 2538 2584 2113 2584 
z
M 3366 4563 
L 3366 3988 
Q 3128 4100 2886 4159 
Q 2644 4219 2406 4219 
Q 1781 4219 1451 3797 
Q 1122 3375 1075 2522 
Q 1259 2794 1537 2939 
Q 1816 3084 2150 3084 
Q 2853 3084 3261 2657 
Q 3669 2231 3669 1497 
Q 3669 778 3244 343 
Q 2819 -91 2113 -91 
Q 1303 -91 875 529 
Q 447 1150 447 2328 
Q 447 3434 972 4092 
Q 1497 4750 2381 4750 
Q 2619 4750 2861 4703 
Q 3103 4656 3366 4563 
z
" transform="scale(0.015625)"/>
       </defs>
       <use xlink:href="#DejaVuSans-32"/>
       <use xlink:href="#DejaVuSans-30" x="63.623047"/>
       <use xlink:href="#DejaVuSans-32" x="127.246094"/>
       <use xlink:href="#DejaVuSans-33" x="190.869141"/>
       <use xlink:href="#DejaVuSans-2d" x="254.492188"/>
       <use xlink:href="#DejaVuSans-31" x="290.576172"/>
       <use xlink:href="#DejaVuSans-31" x="354.199219"/>
       <use xlink:href="#DejaVuSans-2d" x="417.822266"/>
       <use xlink:href="#DejaVuSans-30" x="453.90625"/>
       <use xlink:href="#DejaVuSans-36" x="517.529297"/>
      </g>
     </g>
    </g>
   </g>
   <g id="matplotlib.axis_2">
    <g id="ytick_1">
     <g id="line2d_11">
      <path d="M 51.05 275.373376 
L 450 275.373376 
" clip-path="url(#p76300485b2)" style="fill: none; stroke: #b0b0b0; stroke-width: 0.8; stroke-linecap: square"/>
     </g>
     <g id="line2d_12">
      <defs>
       <path id="m768623aabe" d="M 0 0 
L -3.5 0 
" style="stroke: #000000; stroke-width: 0.8"/>
      </defs>
      <g>
       <use xlink:href="#m768623aabe" x="51.05" y="275.373376" style="stroke: #000000; stroke-width: 0.8"/>
      </g>
     </g>
     <g id="text_6">
      <!-- 330 -->
      <g transform="translate(24.9625 279.172595) scale(0.1 -0.1)">
       <use xlink:href="#DejaVuSans-33"/>
       <use xlink:href="#DejaVuSans-33" x="63.623047"/>
       <use xlink:href="#DejaVuSans-30" x="127.246094"/>
      </g>
     </g>
    </g>
    <g id="ytick_2">
     <g id="line2d_13">
      <path d="M 51.05 244.693529 
L 450 244.693529 
" clip-path="url(#p76300485b2)" style="fill: none; stroke: #b0b0b0; stroke-width: 0.8; stroke-linecap: square"/>
     </g>
     <g id="line2d_14">
      <g>
       <use xlink:href="#m768623aabe" x="51.05" y="244.693529" style="stroke: #000000; stroke-width: 0.8"/>
      </g>
     </g>
     <g id="text_7">
      <!-- 340 -->
      <g transform="translate(24.9625 248.492748) scale(0.1 -0.1)">
       <use xlink:href="#DejaVuSans-33"/>
       <use xlink:href="#DejaVuSans-34" x="63.623047"/>
       <use xlink:href="#DejaVuSans-30" x="127.246094"/>
      </g>
     </g>
    </g>
    <g id="ytick_3">
     <g id="line2d_15">
      <path d="M 51.05 214.013682 
L 450 214.013682 
" clip-path="url(#p76300485b2)" style="fill: none; stroke: #b0b0b0; stroke-width: 0.8; stroke-linecap: square"/>
     </g>
     <g id="line2d_16">
      <g>
       <use xlink:href="#m768623aabe" x="51.05" y="214.013682" style="stroke: #000000; stroke-width: 0.8"/>
      </g>
     </g>
     <g id="text_8">
      <!-- 350 -->
      <g transform="translate(24.9625 217.8129) scale(0.1 -0.1)">
       <use xlink:href="#DejaVuSans-33"/>
       <use xlink:href="#DejaVuSans-35" x="63.623047"/>
       <use xlink:href="#DejaVuSans-30" x="127.246094"/>
      </g>
     </g>
    </g>
    <g id="ytick_4">
     <g id="line2d_17">
      <path d="M 51.05 183.333834 
L 450 183.333834 
" clip-path="url(#p76300485b2)" style="fill: none; stroke: #b0b0b0; stroke-width: 0.8; stroke-linecap: square"/>
     </g>
     <g id="line2d_18">
      <g>
       <use xlink:href="#m768623aabe" x="51.05" y="183.333834" style="stroke: #000000; stroke-width: 0.8"/>
      </g>
     </g>
     <g id="text_9">
      <!-- 360 -->
      <g transform="translate(24.9625 187.133053) scale(0.1 -0.1)">
       <use xlink:href="#DejaVuSans-33"/>
       <use xlink:href="#DejaVuSans-36" x="63.623047"/>
       <use xlink:href="#DejaVuSans-30" x="127.246094"/>
      </g>
     </g>
    </g>
    <g id="ytick_5">
     <g id="line2d_19">
      <path d="M 51.05 152.653987 
L 450 152.653987 
" clip-path="url(#p76300485b2)" style="fill: none; stroke: #b0b0b0; stroke-width: 0.8; stroke-linecap: square"/>
     </g>
     <g id="line2d_20">
      <g>
       <use xlink:href="#m768623aabe" x="51.05" y="152.653987" style="stroke: #000000; stroke-width: 0.8"/>
      </g>
     </g>
     <g id="text_10">
      <!-- 370 -->
      <g transform="translate(24.9625 156.453206) scale(0.1 -0.1)">
       <defs>
        <path id="DejaVuSans-37" d="M 525 4666 
L 3525 4666 
L 3525 4397 
L 1831 0 
L 1172 0 
L 2766 4134 
L 525 4134 
L 525 4666 
z
" transform="scale(0.015625)"/>
       </defs>
       <use xlink:href="#DejaVuSans-33"/>
       <use xlink:href="#DejaVuSans-37" x="63.623047"/>
       <use xlink:href="#DejaVuSans-30" x="127.246094"/>
      </g>
     </g>
    </g>
    <g id="ytick_6">
     <g id="line2d_21">
      <path d="M 51.05 121.97414 
L 450 121.97414 
" clip-path="url(#p76300485b2)" style="fill: none; stroke: #b0b0b0; stroke-width: 0.8; stroke-linecap: square"/>
     </g>
     <g id="line2d_22">
      <g>
       <use xlink:href="#m768623aabe" x="51.05" y="121.97414" style="stroke: #000000; stroke-width: 0.8"/>
      </g>
     </g>
     <g id="text_11">
      <!-- 380 -->
      <g transform="translate(24.9625 125.773358) scale(0.1 -0.1)">
       <defs>
        <path id="DejaVuSans-38" d="M 2034 2216 
Q 1584 2216 1326 1975 
Q 1069 1734 1069 1313 
Q 1069 891 1326 650 
Q 1584 409 2034 409 
Q 2484 409 2743 651 
Q 3003 894 3003 1313 
Q 3003 1734 2745 1975 
Q 2488 2216 2034 2216 
z
M 1403 2484 
Q 997 2584 770 2862 
Q 544 3141 544 3541 
Q 544 4100 942 4425 
Q 1341 4750 2034 4750 
Q 2731 4750 3128 4425 
Q 3525 4100 3525 3541 
Q 3525 3141 3298 2862 
Q 3072 2584 2669 2484 
Q 3125 2378 3379 2068 
Q 3634 1759 3634 1313 
Q 3634 634 3220 271 
Q 2806 -91 2034 -91 
Q 1263 -91 848 271 
Q 434 634 434 1313 
Q 434 1759 690 2068 
Q 947 2378 1403 2484 
z
M 1172 3481 
Q 1172 3119 1398 2916 
Q 1625 2713 2034 2713 
Q 2441 2713 2670 2916 
Q 2900 3119 2900 3481 
Q 2900 3844 2670 4047 
Q 2441 4250 2034 4250 
Q 1625 4250 1398 4047 
Q 1172 3844 1172 3481 
z
" transform="scale(0.015625)"/>
       </defs>
       <use xlink:href="#DejaVuSans-33"/>
       <use xlink:href="#DejaVuSans-38" x="63.623047"/>
       <use xlink:href="#DejaVuSans-30" x="127.246094"/>
      </g>
     </g>
    </g>
    <g id="ytick_7">
     <g id="line2d_23">
      <path d="M 51.05 91.294292 
L 450 91.294292 
" clip-path="url(#p76300485b2)" style="fill: none; stroke: #b0b0b0; stroke-width: 0.8; stroke-linecap: square"/>
     </g>
     <g id="line2d_24">
      <g>
       <use xlink:href="#m768623aabe" x="51.05" y="91.294292" style="stroke: #000000; stroke-width: 0.8"/>
      </g>
     </g>
     <g id="text_12">
      <!-- 390 -->
      <g transform="translate(24.9625 95.093511) scale(0.1 -0.1)">
       <defs>
        <path id="DejaVuSans-39" d="M 703 97 
L 703 672 
Q 941 559 1184 500 
Q 1428 441 1663 441 
Q 2288 441 2617 861 
Q 2947 1281 2994 2138 
Q 2813 1869 2534 1725 
Q 2256 1581 1919 1581 
Q 1219 1581 811 2004 
Q 403 2428 403 3163 
Q 403 3881 828 4315 
Q 1253 4750 1959 4750 
Q 2769 4750 3195 4129 
Q 3622 3509 3622 2328 
Q 3622 1225 3098 567 
Q 2575 -91 1691 -91 
Q 1453 -91 1209 -44 
Q 966 3 703 97 
z
M 1959 2075 
Q 2384 2075 2632 2365 
Q 2881 2656 2881 3163 
Q 2881 3666 2632 3958 
Q 2384 4250 1959 4250 
Q 1534 4250 1286 3958 
Q 1038 3666 1038 3163 
Q 1038 2656 1286 2365 
Q 1534 2075 1959 2075 
z
" transform="scale(0.015625)"/>
       </defs>
       <use xlink:href="#DejaVuSans-33"/>
       <use xlink:href="#DejaVuSans-39" x="63.623047"/>
       <use xlink:href="#DejaVuSans-30" x="127.246094"/>
      </g>
     </g>
    </g>
    <g id="ytick_8">
     <g id="line2d_25">
      <path d="M 51.05 60.614445 
L 450 60.614445 
" clip-path="url(#p76300485b2)" style="fill: none; stroke: #b0b0b0; stroke-width: 0.8; stroke-linecap: square"/>
     </g>
     <g id="line2d_26">
      <g>
       <use xlink:href="#m768623aabe" x="51.05" y="60.614445" style="stroke: #000000; stroke-width: 0.8"/>
      </g>
     </g>
     <g id="text_13">
      <!-- 400 -->
      <g transform="translate(24.9625 64.413664) scale(0.1 -0.1)">
       <use xlink:href="#DejaVuSans-34"/>
       <use xlink:href="#DejaVuSans-30" x="63.623047"/>
       <use xlink:href="#DejaVuSans-30" x="127.246094"/>
      </g>
     </g>
    </g>
    <g id="ytick_9">
     <g id="line2d_27">
      <path d="M 51.05 29.934598 
L 450 29.934598 
" clip-path="url(#p76300485b2)" style="fill: none; stroke: #b0b0b0; stroke-width: 0.8; stroke-linecap: square"/>
     </g>
     <g id="line2d_28">
      <g>
       <use xlink:href="#m768623aabe" x="51.05" y="29.934598" style="stroke: #000000; stroke-width: 0.8"/>
      </g>
     </g>
     <g id="text_14">
      <!-- 410 -->
      <g transform="translate(24.9625 33.733816) scale(0.1 -0.1)">
       <use xlink:href="#DejaVuSans-34"/>
       <use xlink:href="#DejaVuSans-31" x="63.623047"/>
       <use xlink:href="#DejaVuSans-30" x="127.246094"/>
      </g>
     </g>
    </g>
    <g id="text_15">
     <!-- Rain [mm] -->
     <g transform="translate(18.882812 178.715431) rotate(-90) scale(0.1 -0.1)">
      <defs>
       <path id="DejaVuSans-52" d="M 2841 2188 
Q 3044 2119 3236 1894 
Q 3428 1669 3622 1275 
L 4263 0 
L 3584 0 
L 2988 1197 
Q 2756 1666 2539 1819 
Q 2322 1972 1947 1972 
L 1259 1972 
L 1259 0 
L 628 0 
L 628 4666 
L 2053 4666 
Q 2853 4666 3247 4331 
Q 3641 3997 3641 3322 
Q 3641 2881 3436 2590 
Q 3231 2300 2841 2188 
z
M 1259 4147 
L 1259 2491 
L 2053 2491 
Q 2509 2491 2742 2702 
Q 2975 2913 2975 3322 
Q 2975 3731 2742 3939 
Q 2509 4147 2053 4147 
L 1259 4147 
z
" transform="scale(0.015625)"/>
       <path id="DejaVuSans-61" d="M 2194 1759 
Q 1497 1759 1228 1600 
Q 959 1441 959 1056 
Q 959 750 1161 570 
Q 1363 391 1709 391 
Q 2188 391 2477 730 
Q 2766 1069 2766 1631 
L 2766 1759 
L 2194 1759 
z
M 3341 1997 
L 3341 0 
L 2766 0 
L 2766 531 
Q 2569 213 2275 61 
Q 1981 -91 1556 -91 
Q 1019 -91 701 211 
Q 384 513 384 1019 
Q 384 1609 779 1909 
Q 1175 2209 1959 2209 
L 2766 2209 
L 2766 2266 
Q 2766 2663 2505 2880 
Q 2244 3097 1772 3097 
Q 1472 3097 1187 3025 
Q 903 2953 641 2809 
L 641 3341 
Q 956 3463 1253 3523 
Q 1550 3584 1831 3584 
Q 2591 3584 2966 3190 
Q 3341 2797 3341 1997 
z
" transform="scale(0.015625)"/>
       <path id="DejaVuSans-69" d="M 603 3500 
L 1178 3500 
L 1178 0 
L 603 0 
L 603 3500 
z
M 603 4863 
L 1178 4863 
L 1178 4134 
L 603 4134 
L 603 4863 
z
" transform="scale(0.015625)"/>
       <path id="DejaVuSans-6e" d="M 3513 2113 
L 3513 0 
L 2938 0 
L 2938 2094 
Q 2938 2591 2744 2837 
Q 2550 3084 2163 3084 
Q 1697 3084 1428 2787 
Q 1159 2491 1159 1978 
L 1159 0 
L 581 0 
L 581 3500 
L 1159 3500 
L 1159 2956 
Q 1366 3272 1645 3428 
Q 1925 3584 2291 3584 
Q 2894 3584 3203 3211 
Q 3513 2838 3513 2113 
z
" transform="scale(0.015625)"/>
       <path id="DejaVuSans-20" transform="scale(0.015625)"/>
       <path id="DejaVuSans-5b" d="M 550 4863 
L 1875 4863 
L 1875 4416 
L 1125 4416 
L 1125 -397 
L 1875 -397 
L 1875 -844 
L 550 -844 
L 550 4863 
z
" transform="scale(0.015625)"/>
       <path id="DejaVuSans-6d" d="M 3328 2828 
Q 3544 3216 3844 3400 
Q 4144 3584 4550 3584 
Q 5097 3584 5394 3201 
Q 5691 2819 5691 2113 
L 5691 0 
L 5113 0 
L 5113 2094 
Q 5113 2597 4934 2840 
Q 4756 3084 4391 3084 
Q 3944 3084 3684 2787 
Q 3425 2491 3425 1978 
L 3425 0 
L 2847 0 
L 2847 2094 
Q 2847 2600 2669 2842 
Q 2491 3084 2119 3084 
Q 1678 3084 1418 2786 
Q 1159 2488 1159 1978 
L 1159 0 
L 581 0 
L 581 3500 
L 1159 3500 
L 1159 2956 
Q 1356 3278 1631 3431 
Q 1906 3584 2284 3584 
Q 2666 3584 2933 3390 
Q 3200 3197 3328 2828 
z
" transform="scale(0.015625)"/>
       <path id="DejaVuSans-5d" d="M 1947 4863 
L 1947 -844 
L 622 -844 
L 622 -397 
L 1369 -397 
L 1369 4416 
L 622 4416 
L 622 4863 
L 1947 4863 
z
" transform="scale(0.015625)"/>
      </defs>
      <use xlink:href="#DejaVuSans-52"/>
      <use xlink:href="#DejaVuSans-61" x="67.232422"/>
      <use xlink:href="#DejaVuSans-69" x="128.511719"/>
      <use xlink:href="#DejaVuSans-6e" x="156.294922"/>
      <use xlink:href="#DejaVuSans-20" x="219.673828"/>
      <use xlink:href="#DejaVuSans-5b" x="251.460938"/>
      <use xlink:href="#DejaVuSans-6d" x="290.474609"/>
      <use xlink:href="#DejaVuSans-6d" x="387.886719"/>
      <use xlink:href="#DejaVuSans-5d" x="485.298828"/>
     </g>
    </g>
   </g>
   <g id="line2d_29">
    <path d="M 51.05 268.010213 
L 106.088233 268.010213 
L 106.202899 267.089817 
L 106.318108 267.089817 
L 106.432864 266.169422 
L 106.739482 266.169422 
L 106.854747 265.249027 
L 107.735987 265.249027 
L 107.889299 264.328631 
L 108.042608 264.328631 
L 108.157862 263.408236 
L 108.425879 263.408236 
L 108.502928 262.48784 
L 108.732501 262.48784 
L 108.847724 261.567445 
L 109.192425 261.567445 
L 109.345735 260.64705 
L 109.920995 260.64705 
L 110.035626 259.726654 
L 111.185442 259.726654 
L 111.300665 258.806259 
L 113.255112 258.806259 
L 113.370452 257.885863 
L 115.094819 257.885863 
L 115.210086 256.965468 
L 116.053288 256.965468 
L 116.167988 256.045072 
L 119.579362 256.045072 
L 119.694107 255.124677 
L 123.220228 255.124677 
L 123.335466 254.204282 
L 126.094982 254.204282 
L 126.209779 253.283886 
L 135.983384 253.283886 
L 136.09823 252.363491 
L 137.401356 252.363491 
L 137.516663 251.443095 
L 138.896323 251.443095 
L 139.011096 250.5227 
L 140.582862 250.5227 
L 140.6975 249.602304 
L 142.690512 249.602304 
L 142.805735 248.681909 
L 143.764129 248.681909 
L 143.916992 247.761514 
L 144.913507 247.761514 
L 145.028766 246.841118 
L 145.603397 246.841118 
L 145.71865 245.920723 
L 146.331928 245.920723 
L 146.4466 245.000327 
L 147.481507 245.000327 
L 147.596415 244.079932 
L 148.516269 244.079932 
L 148.631546 243.159537 
L 149.091481 243.159537 
L 149.206162 242.239141 
L 149.51278 242.239141 
L 149.666087 241.318746 
L 150.049359 241.318746 
L 150.16461 240.39835 
L 150.509289 240.39835 
L 150.662599 239.477955 
L 151.084276 239.477955 
L 151.199182 238.557559 
L 151.467789 238.557559 
L 151.582454 237.637164 
L 151.812418 237.637164 
L 151.927652 236.716769 
L 152.119042 236.716769 
L 152.234314 235.796373 
L 152.426034 235.796373 
L 152.578966 234.875978 
L 152.808931 234.875978 
L 152.924157 233.955582 
L 153.384099 233.955582 
L 153.49882 233.035187 
L 153.958753 233.035187 
L 154.074026 232.114792 
L 154.380623 232.114792 
L 154.495338 231.194396 
L 154.64865 231.194396 
L 154.763768 230.274001 
L 154.955272 230.274001 
L 155.070552 229.353605 
L 155.261888 229.353605 
L 155.376891 228.43321 
L 155.568508 228.43321 
L 155.683735 227.512814 
L 155.79848 227.512814 
L 155.913756 226.592419 
L 156.028824 226.592419 
L 156.181752 225.672024 
L 156.297058 225.672024 
L 156.411715 224.751628 
L 156.68032 224.751628 
L 156.795472 223.831233 
L 156.986912 223.831233 
L 157.101611 222.910837 
L 157.293546 222.910837 
L 157.408231 221.990442 
L 157.4853 221.990442 
L 157.600018 221.070046 
L 157.753481 221.070046 
L 157.868165 220.149651 
L 157.983428 220.149651 
L 158.098131 219.229256 
L 158.251442 219.229256 
L 158.366638 218.30886 
L 158.596672 218.30886 
L 158.711365 217.388465 
L 158.979687 217.388465 
L 159.09464 216.468069 
L 159.28651 216.468069 
L 159.401255 215.547674 
L 159.631637 215.547674 
L 159.784528 214.627279 
L 159.937839 214.627279 
L 160.053112 213.706883 
L 160.397749 213.706883 
L 160.512859 212.786488 
L 160.704387 212.786488 
L 160.819695 211.866092 
L 161.049608 211.866092 
L 161.164313 210.945697 
L 161.279622 210.945697 
L 161.394275 210.025301 
L 161.509562 210.025301 
L 161.624241 209.104906 
L 161.778001 209.104906 
L 161.930861 208.184511 
L 162.007515 208.184511 
L 162.122683 207.264115 
L 162.237478 207.264115 
L 162.352807 206.34372 
L 162.429364 206.34372 
L 162.544555 205.423324 
L 162.62075 205.423324 
L 162.735911 204.502929 
L 162.889259 204.502929 
L 163.004023 203.582533 
L 163.080678 203.582533 
L 163.19595 202.662138 
L 163.234482 202.662138 
L 163.387296 201.741743 
L 163.425834 201.741743 
L 163.540606 200.821347 
L 163.579201 200.821347 
L 163.732437 198.980556 
L 163.923877 198.980556 
L 164.077192 198.060161 
L 164.192465 198.060161 
L 164.307151 197.139766 
L 164.34571 197.139766 
L 164.460461 196.21937 
L 164.499005 196.21937 
L 164.613769 195.298975 
L 164.76708 195.298975 
L 164.88221 194.378579 
L 164.959039 194.378579 
L 165.073699 193.458184 
L 165.112295 193.458184 
L 165.22701 192.537788 
L 165.303664 192.537788 
L 165.380676 191.617393 
L 165.57224 191.617393 
L 165.686936 190.696998 
L 165.763587 190.696998 
L 165.9169 188.856207 
L 165.95546 188.856207 
L 166.070209 187.935811 
L 166.300171 186.095021 
L 166.376829 186.095021 
L 166.492111 185.174625 
L 166.568726 185.174625 
L 166.68344 184.25423 
L 166.875065 184.25423 
L 166.990061 183.333834 
L 167.028626 183.333834 
L 167.143373 182.413439 
L 167.258678 182.413439 
L 167.373332 181.493043 
L 167.526642 181.493043 
L 167.679955 180.572648 
L 167.833264 180.572648 
L 167.948525 179.652253 
L 167.986577 179.652253 
L 168.101827 178.731857 
L 168.139887 178.731857 
L 168.21654 177.811462 
L 168.293671 177.811462 
L 168.408348 176.891066 
L 168.599814 176.891066 
L 168.715042 175.970671 
L 168.791747 175.970671 
L 168.906433 175.050275 
L 169.059744 175.050275 
L 169.174982 174.12988 
L 169.251557 174.12988 
L 169.366362 173.209485 
L 169.443021 173.209485 
L 169.558232 172.289089 
L 169.788015 172.289089 
L 169.902944 171.368694 
L 170.094843 171.368694 
L 170.209563 170.448298 
L 170.32482 170.448298 
L 170.439992 169.527903 
L 170.554662 169.527903 
L 170.669503 168.607508 
L 170.938082 168.607508 
L 171.05277 167.687112 
L 171.244485 167.687112 
L 171.359392 166.766717 
L 171.512701 166.766717 
L 171.627992 165.846321 
L 171.742665 165.846321 
L 171.819328 164.925926 
L 171.896466 164.925926 
L 172.011138 164.00553 
L 172.049286 164.00553 
L 172.164395 163.085135 
L 172.241116 163.085135 
L 172.35591 162.16474 
L 172.471153 162.16474 
L 172.586291 161.244344 
L 172.739183 160.323949 
L 172.815837 160.323949 
L 172.931114 159.403553 
L 173.084409 159.403553 
L 173.199111 158.483158 
L 173.275769 158.483158 
L 173.429079 157.562763 
L 173.505732 157.562763 
L 173.620857 156.642367 
L 173.735698 156.642367 
L 173.850857 155.721972 
L 173.889006 155.721972 
L 174.004171 154.801576 
L 174.118971 154.801576 
L 174.234247 153.881181 
L 174.310893 153.881181 
L 174.425598 152.960785 
L 174.540756 152.960785 
L 174.655558 152.04039 
L 174.694188 152.04039 
L 174.808857 151.119995 
L 175.000833 151.119995 
L 175.115489 150.199599 
L 175.230757 150.199599 
L 175.345454 149.279204 
L 175.575416 149.279204 
L 175.690748 148.358808 
L 175.958695 148.358808 
L 176.073937 147.438413 
L 176.150601 147.438413 
L 176.265317 146.518017 
L 176.380574 146.518017 
L 176.495281 145.597622 
L 176.725241 145.597622 
L 176.840521 144.677227 
L 176.993574 144.677227 
L 177.108517 143.756831 
L 177.223819 143.756831 
L 177.33848 142.836436 
L 177.376935 142.836436 
L 177.491789 141.91604 
L 177.875066 141.91604 
L 177.990182 140.995645 
L 178.105028 140.995645 
L 178.220296 140.07525 
L 178.334997 140.07525 
L 178.488309 139.154854 
L 178.680256 139.154854 
L 178.794932 138.234459 
L 179.293481 138.234459 
L 179.408165 137.314063 
L 179.753338 137.314063 
L 179.868091 136.393668 
L 180.366676 136.393668 
L 180.481332 135.473272 
L 180.711296 135.473272 
L 180.826602 134.552877 
L 181.056458 134.552877 
L 181.171223 133.632482 
L 189.143322 133.632482 
L 189.296632 132.712086 
L 189.449937 132.712086 
L 189.565239 131.791691 
L 189.756559 131.791691 
L 189.833215 130.871295 
L 190.025036 130.871295 
L 190.139832 129.9509 
L 190.331786 129.9509 
L 190.44645 129.030504 
L 190.600256 129.030504 
L 190.753072 128.110109 
L 190.983037 128.110109 
L 191.098241 127.189714 
L 191.289656 127.189714 
L 191.442967 126.269318 
L 191.711508 126.269318 
L 191.82624 125.348923 
L 192.018207 125.348923 
L 192.132859 124.428527 
L 192.439478 124.428527 
L 192.55469 123.508132 
L 192.746097 123.508132 
L 192.899406 122.587737 
L 192.976063 122.587737 
L 193.091331 121.667341 
L 193.435993 121.667341 
L 193.5893 120.746946 
L 194.202893 120.746946 
L 194.355848 119.82655 
L 198.111933 119.82655 
L 198.227138 118.906155 
L 198.418551 118.906155 
L 198.495207 117.985759 
L 198.80183 117.985759 
L 198.917057 117.065364 
L 199.147028 117.065364 
L 199.26217 116.144969 
L 199.530271 116.144969 
L 199.645028 115.224573 
L 199.760285 115.224573 
L 199.874993 114.304178 
L 199.952044 114.304178 
L 200.104959 113.383782 
L 200.373545 113.383782 
L 200.488233 112.463387 
L 200.756554 112.463387 
L 200.87151 111.542992 
L 201.254777 111.542992 
L 201.370009 110.622596 
L 201.600022 110.622596 
L 201.714718 109.702201 
L 202.82638 109.702201 
L 202.941193 108.781805 
L 203.324463 108.781805 
L 203.439713 107.86141 
L 203.70774 107.86141 
L 203.822878 106.941014 
L 203.899551 106.941014 
L 204.014356 106.020619 
L 204.052967 106.020619 
L 204.167667 105.100224 
L 204.206239 105.100224 
L 204.359328 103.259433 
L 204.397633 103.259433 
L 204.51288 102.339037 
L 204.550936 102.339037 
L 204.666184 101.418642 
L 204.74284 101.418642 
L 204.857555 100.498246 
L 204.896211 100.498246 
L 205.011343 99.577851 
L 205.087522 99.577851 
L 205.2027 98.657456 
L 205.279362 98.657456 
L 205.39414 97.73706 
L 205.586112 97.73706 
L 205.700762 96.816665 
L 206.007379 94.055479 
L 206.084036 94.055479 
L 206.237343 92.214688 
L 206.313998 92.214688 
L 206.429262 91.294292 
L 206.543962 91.294292 
L 206.659269 90.373897 
L 207.003889 90.373897 
L 207.119176 89.453501 
L 207.157201 89.453501 
L 207.310509 88.533106 
L 207.387168 88.533106 
L 207.502458 87.612711 
L 207.770436 87.612711 
L 207.847094 86.692315 
L 221.568327 86.692315 
L 221.721635 85.77192 
L 311.867905 85.77192 
L 311.983096 84.851524 
L 315.470692 84.851524 
L 315.585997 83.931129 
L 316.850485 83.931129 
L 316.965705 83.010734 
L 317.770344 83.010734 
L 317.88558 82.090338 
L 318.690203 82.090338 
L 318.766854 81.169943 
L 319.533856 81.169943 
L 319.686724 80.249547 
L 320.338352 80.249547 
L 320.45327 79.329152 
L 349.812222 79.329152 
L 349.889292 78.408756 
L 350.732086 78.408756 
L 350.847331 77.488361 
L 351.575291 77.488361 
L 351.690564 76.567966 
L 352.303831 76.567966 
L 352.418496 75.64757 
L 353.10839 75.64757 
L 353.22369 74.727175 
L 353.644981 74.727175 
L 353.760217 73.806779 
L 354.104908 73.806779 
L 354.220129 72.886384 
L 354.680135 72.886384 
L 354.794799 71.965988 
L 355.293357 71.965988 
L 355.408047 71.045593 
L 355.906539 71.045593 
L 356.02128 70.125198 
L 356.557869 70.125198 
L 356.672984 69.204802 
L 357.094456 69.204802 
L 357.247765 68.284407 
L 357.55438 68.284407 
L 357.669623 67.364011 
L 357.976136 67.364011 
L 358.090962 66.443616 
L 358.206221 66.443616 
L 358.32093 65.523221 
L 358.627546 65.523221 
L 358.742784 64.602825 
L 358.896185 64.602825 
L 359.010824 63.68243 
L 359.08748 63.68243 
L 359.20275 62.762034 
L 359.355783 62.762034 
L 359.470751 61.841639 
L 359.586012 61.841639 
L 359.700716 60.921243 
L 359.777369 60.921243 
L 359.892699 60.000848 
L 359.930681 60.000848 
L 360.007736 59.080453 
L 360.083993 59.080453 
L 360.199249 58.160057 
L 360.275902 58.160057 
L 360.429145 56.319266 
L 360.505928 56.319266 
L 360.659189 54.478475 
L 360.697226 54.478475 
L 361.003839 51.717289 
L 361.042415 51.717289 
L 361.233808 48.956103 
L 361.310462 48.956103 
L 361.502077 46.194917 
L 361.617081 46.194917 
L 361.770388 44.354126 
L 361.808998 44.354126 
L 361.962292 42.513335 
L 362.038969 42.513335 
L 362.153662 41.59294 
L 362.38363 39.752149 
L 362.460279 39.752149 
L 362.575505 38.831753 
L 362.613584 38.831753 
L 362.728904 37.911358 
L 362.843554 37.911358 
L 362.99686 36.990963 
L 450 36.990963 
L 450 36.990963 
" clip-path="url(#p76300485b2)" style="fill: none; stroke: #9467bd; stroke-width: 1.5; stroke-linecap: square"/>
   </g>
   <g id="patch_3">
    <path d="M 51.05 279.561175 
L 51.05 25.44 
" style="fill: none; stroke: #000000; stroke-width: 0.8; stroke-linejoin: miter; stroke-linecap: square"/>
   </g>
   <g id="patch_4">
    <path d="M 450 279.561175 
L 450 25.44 
" style="fill: none; stroke: #000000; stroke-width: 0.8; stroke-linejoin: miter; stroke-linecap: square"/>
   </g>
   <g id="patch_5">
    <path d="M 51.05 279.561175 
L 450 279.561175 
" style="fill: none; stroke: #000000; stroke-width: 0.8; stroke-linejoin: miter; stroke-linecap: square"/>
   </g>
   <g id="patch_6">
    <path d="M 51.05 25.44 
L 450 25.44 
" style="fill: none; stroke: #000000; stroke-width: 0.8; stroke-linejoin: miter; stroke-linecap: square"/>
   </g>
   <g id="text_16">
    <!-- November 2023 -->
    <g transform="translate(202.133125 19.44) scale(0.12 -0.12)">
     <defs>
      <path id="DejaVuSans-4e" d="M 628 4666 
L 1478 4666 
L 3547 763 
L 3547 4666 
L 4159 4666 
L 4159 0 
L 3309 0 
L 1241 3903 
L 1241 0 
L 628 0 
L 628 4666 
z
" transform="scale(0.015625)"/>
      <path id="DejaVuSans-6f" d="M 1959 3097 
Q 1497 3097 1228 2736 
Q 959 2375 959 1747 
Q 959 1119 1226 758 
Q 1494 397 1959 397 
Q 2419 397 2687 759 
Q 2956 1122 2956 1747 
Q 2956 2369 2687 2733 
Q 2419 3097 1959 3097 
z
M 1959 3584 
Q 2709 3584 3137 3096 
Q 3566 2609 3566 1747 
Q 3566 888 3137 398 
Q 2709 -91 1959 -91 
Q 1206 -91 779 398 
Q 353 888 353 1747 
Q 353 2609 779 3096 
Q 1206 3584 1959 3584 
z
" transform="scale(0.015625)"/>
      <path id="DejaVuSans-76" d="M 191 3500 
L 800 3500 
L 1894 563 
L 2988 3500 
L 3597 3500 
L 2284 0 
L 1503 0 
L 191 3500 
z
" transform="scale(0.015625)"/>
      <path id="DejaVuSans-65" d="M 3597 1894 
L 3597 1613 
L 953 1613 
Q 991 1019 1311 708 
Q 1631 397 2203 397 
Q 2534 397 2845 478 
Q 3156 559 3463 722 
L 3463 178 
Q 3153 47 2828 -22 
Q 2503 -91 2169 -91 
Q 1331 -91 842 396 
Q 353 884 353 1716 
Q 353 2575 817 3079 
Q 1281 3584 2069 3584 
Q 2775 3584 3186 3129 
Q 3597 2675 3597 1894 
z
M 3022 2063 
Q 3016 2534 2758 2815 
Q 2500 3097 2075 3097 
Q 1594 3097 1305 2825 
Q 1016 2553 972 2059 
L 3022 2063 
z
" transform="scale(0.015625)"/>
      <path id="DejaVuSans-62" d="M 3116 1747 
Q 3116 2381 2855 2742 
Q 2594 3103 2138 3103 
Q 1681 3103 1420 2742 
Q 1159 2381 1159 1747 
Q 1159 1113 1420 752 
Q 1681 391 2138 391 
Q 2594 391 2855 752 
Q 3116 1113 3116 1747 
z
M 1159 2969 
Q 1341 3281 1617 3432 
Q 1894 3584 2278 3584 
Q 2916 3584 3314 3078 
Q 3713 2572 3713 1747 
Q 3713 922 3314 415 
Q 2916 -91 2278 -91 
Q 1894 -91 1617 61 
Q 1341 213 1159 525 
L 1159 0 
L 581 0 
L 581 4863 
L 1159 4863 
L 1159 2969 
z
" transform="scale(0.015625)"/>
      <path id="DejaVuSans-72" d="M 2631 2963 
Q 2534 3019 2420 3045 
Q 2306 3072 2169 3072 
Q 1681 3072 1420 2755 
Q 1159 2438 1159 1844 
L 1159 0 
L 581 0 
L 581 3500 
L 1159 3500 
L 1159 2956 
Q 1341 3275 1631 3429 
Q 1922 3584 2338 3584 
Q 2397 3584 2469 3576 
Q 2541 3569 2628 3553 
L 2631 2963 
z
" transform="scale(0.015625)"/>
     </defs>
     <use xlink:href="#DejaVuSans-4e"/>
     <use xlink:href="#DejaVuSans-6f" x="74.804688"/>
     <use xlink:href="#DejaVuSans-76" x="135.986328"/>
     <use xlink:href="#DejaVuSans-65" x="195.166016"/>
     <use xlink:href="#DejaVuSans-6d" x="256.689453"/>
     <use xlink:href="#DejaVuSans-62" x="354.101562"/>
     <use xlink:href="#DejaVuSans-65" x="417.578125"/>
     <use xlink:href="#DejaVuSans-72" x="479.101562"/>
     <use xlink:href="#DejaVuSans-20" x="520.214844"/>
     <use xlink:href="#DejaVuSans-32" x="552.001953"/>
     <use xlink:href="#DejaVuSans-30" x="615.625"/>
     <use xlink:href="#DejaVuSans-32" x="679.248047"/>
     <use xlink:href="#DejaVuSans-33" x="742.871094"/>
    </g>
   </g>
  </g>
 </g>
 <defs>
  <clipPath id="p76300485b2">
   <rect x="51.05" y="25.44" width="398.95" height="254.121175"/>
  </clipPath>
 </defs>
</svg>
