<?xml version="1.0" encoding="utf-8" standalone="no"?>
<!DOCTYPE svg PUBLIC "-//W3C//DTD SVG 1.1//EN"
  "http://www.w3.org/Graphics/SVG/1.1/DTD/svg11.dtd">
<svg xmlns:xlink="http://www.w3.org/1999/xlink" width="432pt" height="288pt" viewBox="0 0 432 288" xmlns="http://www.w3.org/2000/svg" version="1.1">
 <metadata>
  <rdf:RDF xmlns:dc="http://purl.org/dc/elements/1.1/" xmlns:cc="http://creativecommons.org/ns#" xmlns:rdf="http://www.w3.org/1999/02/22-rdf-syntax-ns#">
   <cc:Work>
    <dc:type rdf:resource="http://purl.org/dc/dcmitype/StillImage"/>
    <dc:date>2023-11-06T17:49:19.674226</dc:date>
    <dc:format>image/svg+xml</dc:format>
    <dc:creator>
     <cc:Agent>
      <dc:title>Matplotlib v3.6.3, https://matplotlib.org/</dc:title>
     </cc:Agent>
    </dc:creator>
   </cc:Work>
  </rdf:RDF>
 </metadata>
 <defs>
  <style type="text/css">*{stroke-linejoin: round; stroke-linecap: butt}</style>
 </defs>
 <g id="figure_1">
  <g id="patch_1">
   <path d="M 0 288 
L 432 288 
L 432 0 
L 0 0 
z
" style="fill: #ffffff"/>
  </g>
  <g id="axes_1">
   <g id="patch_2">
    <path d="M 50.925 221.939962 
L 421.2 221.939962 
L 421.2 26.8 
L 50.925 26.8 
z
" style="fill: #ffffff"/>
   </g>
   <g id="matplotlib.axis_1">
    <g id="xtick_1">
     <g id="line2d_1">
      <path d="M 98.697244 221.939962 
L 98.697244 26.8 
" clip-path="url(#pf1188de9b4)" style="fill: none; stroke: #b0b0b0; stroke-width: 0.8; stroke-linecap: square"/>
     </g>
     <g id="line2d_2">
      <defs>
       <path id="m21b0b26561" d="M 0 0 
L 0 3.5 
" style="stroke: #000000; stroke-width: 0.8"/>
      </defs>
      <g>
       <use xlink:href="#m21b0b26561" x="98.697244" y="221.939962" style="stroke: #000000; stroke-width: 0.8"/>
      </g>
     </g>
     <g id="text_1">
      <!-- 2023-10-05 -->
      <g transform="translate(56.13273 275.406821) rotate(-45) scale(0.1 -0.1)">
       <defs>
        <path id="DejaVuSans-32" d="M 1228 531 
L 3431 531 
L 3431 0 
L 469 0 
L 469 531 
Q 828 903 1448 1529 
Q 2069 2156 2228 2338 
Q 2531 2678 2651 2914 
Q 2772 3150 2772 3378 
Q 2772 3750 2511 3984 
Q 2250 4219 1831 4219 
Q 1534 4219 1204 4116 
Q 875 4013 500 3803 
L 500 4441 
Q 881 4594 1212 4672 
Q 1544 4750 1819 4750 
Q 2544 4750 2975 4387 
Q 3406 4025 3406 3419 
Q 3406 3131 3298 2873 
Q 3191 2616 2906 2266 
Q 2828 2175 2409 1742 
Q 1991 1309 1228 531 
z
" transform="scale(0.015625)"/>
        <path id="DejaVuSans-30" d="M 2034 4250 
Q 1547 4250 1301 3770 
Q 1056 3291 1056 2328 
Q 1056 1369 1301 889 
Q 1547 409 2034 409 
Q 2525 409 2770 889 
Q 3016 1369 3016 2328 
Q 3016 3291 2770 3770 
Q 2525 4250 2034 4250 
z
M 2034 4750 
Q 2819 4750 3233 4129 
Q 3647 3509 3647 2328 
Q 3647 1150 3233 529 
Q 2819 -91 2034 -91 
Q 1250 -91 836 529 
Q 422 1150 422 2328 
Q 422 3509 836 4129 
Q 1250 4750 2034 4750 
z
" transform="scale(0.015625)"/>
        <path id="DejaVuSans-33" d="M 2597 2516 
Q 3050 2419 3304 2112 
Q 3559 1806 3559 1356 
Q 3559 666 3084 287 
Q 2609 -91 1734 -91 
Q 1441 -91 1130 -33 
Q 819 25 488 141 
L 488 750 
Q 750 597 1062 519 
Q 1375 441 1716 441 
Q 2309 441 2620 675 
Q 2931 909 2931 1356 
Q 2931 1769 2642 2001 
Q 2353 2234 1838 2234 
L 1294 2234 
L 1294 2753 
L 1863 2753 
Q 2328 2753 2575 2939 
Q 2822 3125 2822 3475 
Q 2822 3834 2567 4026 
Q 2313 4219 1838 4219 
Q 1578 4219 1281 4162 
Q 984 4106 628 3988 
L 628 4550 
Q 988 4650 1302 4700 
Q 1616 4750 1894 4750 
Q 2613 4750 3031 4423 
Q 3450 4097 3450 3541 
Q 3450 3153 3228 2886 
Q 3006 2619 2597 2516 
z
" transform="scale(0.015625)"/>
        <path id="DejaVuSans-2d" d="M 313 2009 
L 1997 2009 
L 1997 1497 
L 313 1497 
L 313 2009 
z
" transform="scale(0.015625)"/>
        <path id="DejaVuSans-31" d="M 794 531 
L 1825 531 
L 1825 4091 
L 703 3866 
L 703 4441 
L 1819 4666 
L 2450 4666 
L 2450 531 
L 3481 531 
L 3481 0 
L 794 0 
L 794 531 
z
" transform="scale(0.015625)"/>
        <path id="DejaVuSans-35" d="M 691 4666 
L 3169 4666 
L 3169 4134 
L 1269 4134 
L 1269 2991 
Q 1406 3038 1543 3061 
Q 1681 3084 1819 3084 
Q 2600 3084 3056 2656 
Q 3513 2228 3513 1497 
Q 3513 744 3044 326 
Q 2575 -91 1722 -91 
Q 1428 -91 1123 -41 
Q 819 9 494 109 
L 494 744 
Q 775 591 1075 516 
Q 1375 441 1709 441 
Q 2250 441 2565 725 
Q 2881 1009 2881 1497 
Q 2881 1984 2565 2268 
Q 2250 2553 1709 2553 
Q 1456 2553 1204 2497 
Q 953 2441 691 2322 
L 691 4666 
z
" transform="scale(0.015625)"/>
       </defs>
       <use xlink:href="#DejaVuSans-32"/>
       <use xlink:href="#DejaVuSans-30" x="63.623047"/>
       <use xlink:href="#DejaVuSans-32" x="127.246094"/>
       <use xlink:href="#DejaVuSans-33" x="190.869141"/>
       <use xlink:href="#DejaVuSans-2d" x="254.492188"/>
       <use xlink:href="#DejaVuSans-31" x="290.576172"/>
       <use xlink:href="#DejaVuSans-30" x="354.199219"/>
       <use xlink:href="#DejaVuSans-2d" x="417.822266"/>
       <use xlink:href="#DejaVuSans-30" x="453.90625"/>
       <use xlink:href="#DejaVuSans-35" x="517.529297"/>
      </g>
     </g>
    </g>
    <g id="xtick_2">
     <g id="line2d_3">
      <path d="M 146.475476 221.939962 
L 146.475476 26.8 
" clip-path="url(#pf1188de9b4)" style="fill: none; stroke: #b0b0b0; stroke-width: 0.8; stroke-linecap: square"/>
     </g>
     <g id="line2d_4">
      <g>
       <use xlink:href="#m21b0b26561" x="146.475476" y="221.939962" style="stroke: #000000; stroke-width: 0.8"/>
      </g>
     </g>
     <g id="text_2">
      <!-- 2023-10-09 -->
      <g transform="translate(103.910962 275.406821) rotate(-45) scale(0.1 -0.1)">
       <defs>
        <path id="DejaVuSans-39" d="M 703 97 
L 703 672 
Q 941 559 1184 500 
Q 1428 441 1663 441 
Q 2288 441 2617 861 
Q 2947 1281 2994 2138 
Q 2813 1869 2534 1725 
Q 2256 1581 1919 1581 
Q 1219 1581 811 2004 
Q 403 2428 403 3163 
Q 403 3881 828 4315 
Q 1253 4750 1959 4750 
Q 2769 4750 3195 4129 
Q 3622 3509 3622 2328 
Q 3622 1225 3098 567 
Q 2575 -91 1691 -91 
Q 1453 -91 1209 -44 
Q 966 3 703 97 
z
M 1959 2075 
Q 2384 2075 2632 2365 
Q 2881 2656 2881 3163 
Q 2881 3666 2632 3958 
Q 2384 4250 1959 4250 
Q 1534 4250 1286 3958 
Q 1038 3666 1038 3163 
Q 1038 2656 1286 2365 
Q 1534 2075 1959 2075 
z
" transform="scale(0.015625)"/>
       </defs>
       <use xlink:href="#DejaVuSans-32"/>
       <use xlink:href="#DejaVuSans-30" x="63.623047"/>
       <use xlink:href="#DejaVuSans-32" x="127.246094"/>
       <use xlink:href="#DejaVuSans-33" x="190.869141"/>
       <use xlink:href="#DejaVuSans-2d" x="254.492188"/>
       <use xlink:href="#DejaVuSans-31" x="290.576172"/>
       <use xlink:href="#DejaVuSans-30" x="354.199219"/>
       <use xlink:href="#DejaVuSans-2d" x="417.822266"/>
       <use xlink:href="#DejaVuSans-30" x="453.90625"/>
       <use xlink:href="#DejaVuSans-39" x="517.529297"/>
      </g>
     </g>
    </g>
    <g id="xtick_3">
     <g id="line2d_5">
      <path d="M 194.253708 221.939962 
L 194.253708 26.8 
" clip-path="url(#pf1188de9b4)" style="fill: none; stroke: #b0b0b0; stroke-width: 0.8; stroke-linecap: square"/>
     </g>
     <g id="line2d_6">
      <g>
       <use xlink:href="#m21b0b26561" x="194.253708" y="221.939962" style="stroke: #000000; stroke-width: 0.8"/>
      </g>
     </g>
     <g id="text_3">
      <!-- 2023-10-13 -->
      <g transform="translate(151.689194 275.406821) rotate(-45) scale(0.1 -0.1)">
       <use xlink:href="#DejaVuSans-32"/>
       <use xlink:href="#DejaVuSans-30" x="63.623047"/>
       <use xlink:href="#DejaVuSans-32" x="127.246094"/>
       <use xlink:href="#DejaVuSans-33" x="190.869141"/>
       <use xlink:href="#DejaVuSans-2d" x="254.492188"/>
       <use xlink:href="#DejaVuSans-31" x="290.576172"/>
       <use xlink:href="#DejaVuSans-30" x="354.199219"/>
       <use xlink:href="#DejaVuSans-2d" x="417.822266"/>
       <use xlink:href="#DejaVuSans-31" x="453.90625"/>
       <use xlink:href="#DejaVuSans-33" x="517.529297"/>
      </g>
     </g>
    </g>
    <g id="xtick_4">
     <g id="line2d_7">
      <path d="M 242.031939 221.939962 
L 242.031939 26.8 
" clip-path="url(#pf1188de9b4)" style="fill: none; stroke: #b0b0b0; stroke-width: 0.8; stroke-linecap: square"/>
     </g>
     <g id="line2d_8">
      <g>
       <use xlink:href="#m21b0b26561" x="242.031939" y="221.939962" style="stroke: #000000; stroke-width: 0.8"/>
      </g>
     </g>
     <g id="text_4">
      <!-- 2023-10-17 -->
      <g transform="translate(199.467426 275.406821) rotate(-45) scale(0.1 -0.1)">
       <defs>
        <path id="DejaVuSans-37" d="M 525 4666 
L 3525 4666 
L 3525 4397 
L 1831 0 
L 1172 0 
L 2766 4134 
L 525 4134 
L 525 4666 
z
" transform="scale(0.015625)"/>
       </defs>
       <use xlink:href="#DejaVuSans-32"/>
       <use xlink:href="#DejaVuSans-30" x="63.623047"/>
       <use xlink:href="#DejaVuSans-32" x="127.246094"/>
       <use xlink:href="#DejaVuSans-33" x="190.869141"/>
       <use xlink:href="#DejaVuSans-2d" x="254.492188"/>
       <use xlink:href="#DejaVuSans-31" x="290.576172"/>
       <use xlink:href="#DejaVuSans-30" x="354.199219"/>
       <use xlink:href="#DejaVuSans-2d" x="417.822266"/>
       <use xlink:href="#DejaVuSans-31" x="453.90625"/>
       <use xlink:href="#DejaVuSans-37" x="517.529297"/>
      </g>
     </g>
    </g>
    <g id="xtick_5">
     <g id="line2d_9">
      <path d="M 289.810171 221.939962 
L 289.810171 26.8 
" clip-path="url(#pf1188de9b4)" style="fill: none; stroke: #b0b0b0; stroke-width: 0.8; stroke-linecap: square"/>
     </g>
     <g id="line2d_10">
      <g>
       <use xlink:href="#m21b0b26561" x="289.810171" y="221.939962" style="stroke: #000000; stroke-width: 0.8"/>
      </g>
     </g>
     <g id="text_5">
      <!-- 2023-10-21 -->
      <g transform="translate(247.245658 275.406821) rotate(-45) scale(0.1 -0.1)">
       <use xlink:href="#DejaVuSans-32"/>
       <use xlink:href="#DejaVuSans-30" x="63.623047"/>
       <use xlink:href="#DejaVuSans-32" x="127.246094"/>
       <use xlink:href="#DejaVuSans-33" x="190.869141"/>
       <use xlink:href="#DejaVuSans-2d" x="254.492188"/>
       <use xlink:href="#DejaVuSans-31" x="290.576172"/>
       <use xlink:href="#DejaVuSans-30" x="354.199219"/>
       <use xlink:href="#DejaVuSans-2d" x="417.822266"/>
       <use xlink:href="#DejaVuSans-32" x="453.90625"/>
       <use xlink:href="#DejaVuSans-31" x="517.529297"/>
      </g>
     </g>
    </g>
    <g id="xtick_6">
     <g id="line2d_11">
      <path d="M 337.588403 221.939962 
L 337.588403 26.8 
" clip-path="url(#pf1188de9b4)" style="fill: none; stroke: #b0b0b0; stroke-width: 0.8; stroke-linecap: square"/>
     </g>
     <g id="line2d_12">
      <g>
       <use xlink:href="#m21b0b26561" x="337.588403" y="221.939962" style="stroke: #000000; stroke-width: 0.8"/>
      </g>
     </g>
     <g id="text_6">
      <!-- 2023-10-25 -->
      <g transform="translate(295.023889 275.406821) rotate(-45) scale(0.1 -0.1)">
       <use xlink:href="#DejaVuSans-32"/>
       <use xlink:href="#DejaVuSans-30" x="63.623047"/>
       <use xlink:href="#DejaVuSans-32" x="127.246094"/>
       <use xlink:href="#DejaVuSans-33" x="190.869141"/>
       <use xlink:href="#DejaVuSans-2d" x="254.492188"/>
       <use xlink:href="#DejaVuSans-31" x="290.576172"/>
       <use xlink:href="#DejaVuSans-30" x="354.199219"/>
       <use xlink:href="#DejaVuSans-2d" x="417.822266"/>
       <use xlink:href="#DejaVuSans-32" x="453.90625"/>
       <use xlink:href="#DejaVuSans-35" x="517.529297"/>
      </g>
     </g>
    </g>
    <g id="xtick_7">
     <g id="line2d_13">
      <path d="M 385.366635 221.939962 
L 385.366635 26.8 
" clip-path="url(#pf1188de9b4)" style="fill: none; stroke: #b0b0b0; stroke-width: 0.8; stroke-linecap: square"/>
     </g>
     <g id="line2d_14">
      <g>
       <use xlink:href="#m21b0b26561" x="385.366635" y="221.939962" style="stroke: #000000; stroke-width: 0.8"/>
      </g>
     </g>
     <g id="text_7">
      <!-- 2023-10-29 -->
      <g transform="translate(342.802121 275.406821) rotate(-45) scale(0.1 -0.1)">
       <use xlink:href="#DejaVuSans-32"/>
       <use xlink:href="#DejaVuSans-30" x="63.623047"/>
       <use xlink:href="#DejaVuSans-32" x="127.246094"/>
       <use xlink:href="#DejaVuSans-33" x="190.869141"/>
       <use xlink:href="#DejaVuSans-2d" x="254.492188"/>
       <use xlink:href="#DejaVuSans-31" x="290.576172"/>
       <use xlink:href="#DejaVuSans-30" x="354.199219"/>
       <use xlink:href="#DejaVuSans-2d" x="417.822266"/>
       <use xlink:href="#DejaVuSans-32" x="453.90625"/>
       <use xlink:href="#DejaVuSans-39" x="517.529297"/>
      </g>
     </g>
    </g>
   </g>
   <g id="matplotlib.axis_2">
    <g id="ytick_1">
     <g id="line2d_15">
      <path d="M 50.925 194.559152 
L 421.2 194.559152 
" clip-path="url(#pf1188de9b4)" style="fill: none; stroke: #b0b0b0; stroke-width: 0.8; stroke-linecap: square"/>
     </g>
     <g id="line2d_16">
      <defs>
       <path id="mf598137449" d="M 0 0 
L -3.5 0 
" style="stroke: #000000; stroke-width: 0.8"/>
      </defs>
      <g>
       <use xlink:href="#mf598137449" x="50.925" y="194.559152" style="stroke: #000000; stroke-width: 0.8"/>
      </g>
     </g>
     <g id="text_8">
      <!-- 50 -->
      <g transform="translate(31.2 198.358371) scale(0.1 -0.1)">
       <use xlink:href="#DejaVuSans-35"/>
       <use xlink:href="#DejaVuSans-30" x="63.623047"/>
      </g>
     </g>
    </g>
    <g id="ytick_2">
     <g id="line2d_17">
      <path d="M 50.925 166.42722 
L 421.2 166.42722 
" clip-path="url(#pf1188de9b4)" style="fill: none; stroke: #b0b0b0; stroke-width: 0.8; stroke-linecap: square"/>
     </g>
     <g id="line2d_18">
      <g>
       <use xlink:href="#mf598137449" x="50.925" y="166.42722" style="stroke: #000000; stroke-width: 0.8"/>
      </g>
     </g>
     <g id="text_9">
      <!-- 100 -->
      <g transform="translate(24.8375 170.226439) scale(0.1 -0.1)">
       <use xlink:href="#DejaVuSans-31"/>
       <use xlink:href="#DejaVuSans-30" x="63.623047"/>
       <use xlink:href="#DejaVuSans-30" x="127.246094"/>
      </g>
     </g>
    </g>
    <g id="ytick_3">
     <g id="line2d_19">
      <path d="M 50.925 138.295288 
L 421.2 138.295288 
" clip-path="url(#pf1188de9b4)" style="fill: none; stroke: #b0b0b0; stroke-width: 0.8; stroke-linecap: square"/>
     </g>
     <g id="line2d_20">
      <g>
       <use xlink:href="#mf598137449" x="50.925" y="138.295288" style="stroke: #000000; stroke-width: 0.8"/>
      </g>
     </g>
     <g id="text_10">
      <!-- 150 -->
      <g transform="translate(24.8375 142.094506) scale(0.1 -0.1)">
       <use xlink:href="#DejaVuSans-31"/>
       <use xlink:href="#DejaVuSans-35" x="63.623047"/>
       <use xlink:href="#DejaVuSans-30" x="127.246094"/>
      </g>
     </g>
    </g>
    <g id="ytick_4">
     <g id="line2d_21">
      <path d="M 50.925 110.163355 
L 421.2 110.163355 
" clip-path="url(#pf1188de9b4)" style="fill: none; stroke: #b0b0b0; stroke-width: 0.8; stroke-linecap: square"/>
     </g>
     <g id="line2d_22">
      <g>
       <use xlink:href="#mf598137449" x="50.925" y="110.163355" style="stroke: #000000; stroke-width: 0.8"/>
      </g>
     </g>
     <g id="text_11">
      <!-- 200 -->
      <g transform="translate(24.8375 113.962574) scale(0.1 -0.1)">
       <use xlink:href="#DejaVuSans-32"/>
       <use xlink:href="#DejaVuSans-30" x="63.623047"/>
       <use xlink:href="#DejaVuSans-30" x="127.246094"/>
      </g>
     </g>
    </g>
    <g id="ytick_5">
     <g id="line2d_23">
      <path d="M 50.925 82.031423 
L 421.2 82.031423 
" clip-path="url(#pf1188de9b4)" style="fill: none; stroke: #b0b0b0; stroke-width: 0.8; stroke-linecap: square"/>
     </g>
     <g id="line2d_24">
      <g>
       <use xlink:href="#mf598137449" x="50.925" y="82.031423" style="stroke: #000000; stroke-width: 0.8"/>
      </g>
     </g>
     <g id="text_12">
      <!-- 250 -->
      <g transform="translate(24.8375 85.830642) scale(0.1 -0.1)">
       <use xlink:href="#DejaVuSans-32"/>
       <use xlink:href="#DejaVuSans-35" x="63.623047"/>
       <use xlink:href="#DejaVuSans-30" x="127.246094"/>
      </g>
     </g>
    </g>
    <g id="ytick_6">
     <g id="line2d_25">
      <path d="M 50.925 53.89949 
L 421.2 53.89949 
" clip-path="url(#pf1188de9b4)" style="fill: none; stroke: #b0b0b0; stroke-width: 0.8; stroke-linecap: square"/>
     </g>
     <g id="line2d_26">
      <g>
       <use xlink:href="#mf598137449" x="50.925" y="53.89949" style="stroke: #000000; stroke-width: 0.8"/>
      </g>
     </g>
     <g id="text_13">
      <!-- 300 -->
      <g transform="translate(24.8375 57.698709) scale(0.1 -0.1)">
       <use xlink:href="#DejaVuSans-33"/>
       <use xlink:href="#DejaVuSans-30" x="63.623047"/>
       <use xlink:href="#DejaVuSans-30" x="127.246094"/>
      </g>
     </g>
    </g>
    <g id="text_14">
     <!-- Rain [mm] -->
     <g transform="translate(18.757812 150.584825) rotate(-90) scale(0.1 -0.1)">
      <defs>
       <path id="DejaVuSans-52" d="M 2841 2188 
Q 3044 2119 3236 1894 
Q 3428 1669 3622 1275 
L 4263 0 
L 3584 0 
L 2988 1197 
Q 2756 1666 2539 1819 
Q 2322 1972 1947 1972 
L 1259 1972 
L 1259 0 
L 628 0 
L 628 4666 
L 2053 4666 
Q 2853 4666 3247 4331 
Q 3641 3997 3641 3322 
Q 3641 2881 3436 2590 
Q 3231 2300 2841 2188 
z
M 1259 4147 
L 1259 2491 
L 2053 2491 
Q 2509 2491 2742 2702 
Q 2975 2913 2975 3322 
Q 2975 3731 2742 3939 
Q 2509 4147 2053 4147 
L 1259 4147 
z
" transform="scale(0.015625)"/>
       <path id="DejaVuSans-61" d="M 2194 1759 
Q 1497 1759 1228 1600 
Q 959 1441 959 1056 
Q 959 750 1161 570 
Q 1363 391 1709 391 
Q 2188 391 2477 730 
Q 2766 1069 2766 1631 
L 2766 1759 
L 2194 1759 
z
M 3341 1997 
L 3341 0 
L 2766 0 
L 2766 531 
Q 2569 213 2275 61 
Q 1981 -91 1556 -91 
Q 1019 -91 701 211 
Q 384 513 384 1019 
Q 384 1609 779 1909 
Q 1175 2209 1959 2209 
L 2766 2209 
L 2766 2266 
Q 2766 2663 2505 2880 
Q 2244 3097 1772 3097 
Q 1472 3097 1187 3025 
Q 903 2953 641 2809 
L 641 3341 
Q 956 3463 1253 3523 
Q 1550 3584 1831 3584 
Q 2591 3584 2966 3190 
Q 3341 2797 3341 1997 
z
" transform="scale(0.015625)"/>
       <path id="DejaVuSans-69" d="M 603 3500 
L 1178 3500 
L 1178 0 
L 603 0 
L 603 3500 
z
M 603 4863 
L 1178 4863 
L 1178 4134 
L 603 4134 
L 603 4863 
z
" transform="scale(0.015625)"/>
       <path id="DejaVuSans-6e" d="M 3513 2113 
L 3513 0 
L 2938 0 
L 2938 2094 
Q 2938 2591 2744 2837 
Q 2550 3084 2163 3084 
Q 1697 3084 1428 2787 
Q 1159 2491 1159 1978 
L 1159 0 
L 581 0 
L 581 3500 
L 1159 3500 
L 1159 2956 
Q 1366 3272 1645 3428 
Q 1925 3584 2291 3584 
Q 2894 3584 3203 3211 
Q 3513 2838 3513 2113 
z
" transform="scale(0.015625)"/>
       <path id="DejaVuSans-20" transform="scale(0.015625)"/>
       <path id="DejaVuSans-5b" d="M 550 4863 
L 1875 4863 
L 1875 4416 
L 1125 4416 
L 1125 -397 
L 1875 -397 
L 1875 -844 
L 550 -844 
L 550 4863 
z
" transform="scale(0.015625)"/>
       <path id="DejaVuSans-6d" d="M 3328 2828 
Q 3544 3216 3844 3400 
Q 4144 3584 4550 3584 
Q 5097 3584 5394 3201 
Q 5691 2819 5691 2113 
L 5691 0 
L 5113 0 
L 5113 2094 
Q 5113 2597 4934 2840 
Q 4756 3084 4391 3084 
Q 3944 3084 3684 2787 
Q 3425 2491 3425 1978 
L 3425 0 
L 2847 0 
L 2847 2094 
Q 2847 2600 2669 2842 
Q 2491 3084 2119 3084 
Q 1678 3084 1418 2786 
Q 1159 2488 1159 1978 
L 1159 0 
L 581 0 
L 581 3500 
L 1159 3500 
L 1159 2956 
Q 1356 3278 1631 3431 
Q 1906 3584 2284 3584 
Q 2666 3584 2933 3390 
Q 3200 3197 3328 2828 
z
" transform="scale(0.015625)"/>
       <path id="DejaVuSans-5d" d="M 1947 4863 
L 1947 -844 
L 622 -844 
L 622 -397 
L 1369 -397 
L 1369 4416 
L 622 4416 
L 622 4863 
L 1947 4863 
z
" transform="scale(0.015625)"/>
      </defs>
      <use xlink:href="#DejaVuSans-52"/>
      <use xlink:href="#DejaVuSans-61" x="67.232422"/>
      <use xlink:href="#DejaVuSans-69" x="128.511719"/>
      <use xlink:href="#DejaVuSans-6e" x="156.294922"/>
      <use xlink:href="#DejaVuSans-20" x="219.673828"/>
      <use xlink:href="#DejaVuSans-5b" x="251.460938"/>
      <use xlink:href="#DejaVuSans-6d" x="290.474609"/>
      <use xlink:href="#DejaVuSans-6d" x="387.886719"/>
      <use xlink:href="#DejaVuSans-5d" x="485.298828"/>
     </g>
    </g>
   </g>
   <g id="line2d_27">
    <path d="M 50.925 213.069964 
L 141.097934 213.069964 
L 141.210788 212.901172 
L 215.710151 212.901172 
L 215.836284 212.394798 
L 222.664425 212.394798 
L 222.777273 212.226006 
L 273.939103 212.226006 
L 274.05187 212.057214 
L 274.184585 212.057214 
L 274.304029 211.719631 
L 274.536331 211.719631 
L 274.64909 211.55084 
L 274.987565 211.55084 
L 275.100319 211.382048 
L 275.571458 211.382048 
L 275.684347 211.213256 
L 276.27489 211.213256 
L 276.394336 210.875673 
L 276.454014 210.875673 
L 276.573457 210.53809 
L 276.593414 210.53809 
L 276.719444 210.031715 
L 276.739404 210.031715 
L 276.858856 209.694132 
L 276.898666 209.694132 
L 277.011417 209.52534 
L 277.051309 209.52534 
L 277.170675 209.356549 
L 277.217168 209.356549 
L 277.329933 209.187757 
L 277.343205 209.187757 
L 277.469325 208.681382 
L 277.582091 208.681382 
L 277.701536 208.343799 
L 277.754622 208.343799 
L 277.867471 208.175008 
L 277.940424 208.175008 
L 278.046595 208.006216 
L 278.066517 208.006216 
L 278.18595 207.668633 
L 278.199245 207.668633 
L 278.318684 207.33105 
L 278.331985 207.33105 
L 278.451415 206.993467 
L 278.464703 206.993467 
L 278.597384 206.3183 
L 278.683629 206.3183 
L 278.789801 206.149509 
L 278.829615 206.149509 
L 278.949059 205.811925 
L 278.995553 205.811925 
L 279.114987 205.474342 
L 279.161403 205.474342 
L 279.307389 204.967967 
L 279.373746 204.967967 
L 279.499873 204.461593 
L 279.533004 204.461593 
L 279.67899 203.955218 
L 279.705533 203.955218 
L 279.844934 203.11126 
L 279.851519 203.11126 
L 279.990914 202.267302 
L 280.010776 202.267302 
L 280.150142 201.423344 
L 280.156763 201.423344 
L 280.627951 196.865971 
L 280.634536 196.865971 
L 280.773936 196.022013 
L 280.780523 196.022013 
L 281.085768 193.490139 
L 281.092458 193.490139 
L 281.25168 192.139806 
L 281.258298 192.139806 
L 281.417556 190.789473 
L 281.430827 190.789473 
L 281.576814 189.776724 
L 281.590086 189.776724 
L 281.749344 188.426391 
L 281.756032 188.426391 
L 281.928541 186.738475 
L 281.968386 186.738475 
L 282.101076 185.556934 
L 282.107674 185.556934 
L 282.247083 183.869018 
L 282.253662 183.869018 
L 282.399716 182.856269 
L 282.439464 182.856269 
L 282.592133 181.674727 
L 282.598723 181.674727 
L 282.751387 180.493186 
L 282.784521 180.493186 
L 282.910606 179.986811 
L 282.923903 179.986811 
L 283.063223 179.142853 
L 283.089766 179.142853 
L 283.222481 178.467687 
L 283.229149 178.467687 
L 283.368467 177.623729 
L 283.388414 177.623729 
L 283.514453 177.117354 
L 283.527721 177.117354 
L 283.673712 176.104605 
L 283.686983 176.104605 
L 283.879468 173.910314 
L 283.886055 173.910314 
L 284.861563 160.238195 
L 285.279563 152.30499 
L 285.286235 152.30499 
L 285.505178 149.435533 
L 285.916596 142.852661 
L 286.274926 136.607372 
L 286.2816 136.607372 
L 286.513815 133.400331 
L 286.520466 133.400331 
L 286.752779 130.0245 
L 286.765973 130.0245 
L 286.892065 129.518125 
L 286.898689 129.518125 
L 287.190662 124.79196 
L 287.197343 124.79196 
L 287.376543 122.935253 
L 287.396397 122.935253 
L 287.522449 122.428878 
L 287.668436 122.428878 
L 287.787878 122.091295 
L 287.79456 122.091295 
L 287.907321 121.922503 
L 287.947134 121.922503 
L 288.066578 121.58492 
L 288.139591 121.58492 
L 288.252447 121.416128 
L 288.378458 121.416128 
L 288.491311 121.247337 
L 288.915954 121.247337 
L 289.028821 121.078545 
L 291.079211 121.078545 
L 291.192065 120.909753 
L 291.35799 120.909753 
L 291.477426 120.57217 
L 291.523852 120.57217 
L 291.656578 119.897004 
L 291.895465 119.897004 
L 292.008217 119.728212 
L 292.247104 119.728212 
L 292.366547 119.390629 
L 293.61407 119.390629 
L 293.726882 119.221837 
L 295.246468 119.221837 
L 295.359315 119.053046 
L 295.764058 119.053046 
L 295.876908 118.884254 
L 295.929991 118.884254 
L 296.04945 118.546671 
L 296.089211 118.546671 
L 296.202087 118.209088 
L 296.348004 118.209088 
L 296.47411 117.702713 
L 296.500681 117.702713 
L 296.626705 117.196338 
L 296.66652 117.196338 
L 296.785962 116.858755 
L 296.9453 116.858755 
L 297.078002 116.521172 
L 297.164239 116.521172 
L 297.310249 115.508422 
L 297.316823 115.508422 
L 297.502624 114.495673 
L 297.535834 114.495673 
L 297.648611 114.326881 
L 297.708338 114.326881 
L 297.821221 114.15809 
L 297.854373 114.15809 
L 297.973806 113.820506 
L 298.09324 113.820506 
L 298.206016 113.651715 
L 299.672563 113.651715 
L 299.785327 113.482923 
L 299.898178 113.482923 
L 300.010943 113.314132 
L 300.024214 113.314132 
L 300.137038 113.14534 
L 300.482099 113.14534 
L 300.594889 112.976548 
L 301.56371 112.976548 
L 301.669882 112.807757 
L 301.722968 112.807757 
L 301.835813 112.638965 
L 301.922042 112.638965 
L 302.068028 112.132591 
L 302.187472 112.132591 
L 302.293645 111.963799 
L 302.44629 111.963799 
L 302.565728 111.626216 
L 302.605558 111.626216 
L 302.725 111.288633 
L 302.73827 111.288633 
L 302.857718 110.951049 
L 302.890863 110.951049 
L 303.010307 110.613466 
L 303.063393 110.613466 
L 303.189494 110.107091 
L 303.235923 110.107091 
L 303.355367 109.769508 
L 303.362048 109.769508 
L 303.494752 109.094342 
L 303.514625 109.094342 
L 303.660614 107.912801 
L 303.673942 107.912801 
L 303.8066 107.237634 
L 303.833143 107.237634 
L 303.945994 107.068843 
L 303.979131 107.068843 
L 304.098574 106.731259 
L 305.697851 106.731259 
L 305.810602 106.562468 
L 312.433092 106.562468 
L 312.545956 106.393676 
L 328.159862 106.393676 
L 328.272718 106.224885 
L 328.657588 106.224885 
L 328.770351 106.056093 
L 328.909748 106.056093 
L 329.02251 105.887302 
L 329.29463 105.887302 
L 329.407384 105.71851 
L 329.433978 105.71851 
L 329.54679 105.549718 
L 329.798951 105.549718 
L 329.918385 105.212135 
L 330.037834 105.212135 
L 330.157268 104.874552 
L 330.23022 104.874552 
L 330.349663 104.536969 
L 330.369615 104.536969 
L 330.489064 104.199386 
L 330.49565 104.199386 
L 330.628366 103.524219 
L 330.661592 103.524219 
L 330.787624 103.017844 
L 330.794305 103.017844 
L 330.920339 102.342678 
L 330.960154 102.342678 
L 331.079597 102.005095 
L 331.086281 102.005095 
L 331.212313 101.49872 
L 331.225584 101.49872 
L 331.345028 101.161137 
L 331.371571 101.161137 
L 331.484422 100.992345 
L 331.517558 100.992345 
L 331.637001 100.654762 
L 331.676887 100.654762 
L 331.796328 100.317179 
L 331.856039 100.317179 
L 331.975469 99.979596 
L 331.988754 99.979596 
L 332.101505 99.810804 
L 332.114776 99.810804 
L 332.240912 99.304429 
L 332.260762 99.304429 
L 332.380206 98.966846 
L 332.393478 98.966846 
L 332.512921 98.629263 
L 332.771765 98.629263 
L 332.884526 98.460471 
L 335.645003 98.460471 
L 335.764447 98.29168 
L 337.854763 98.29168 
L 337.96752 98.122888 
L 346.52766 98.122888 
L 346.640526 97.954097 
L 350.900675 97.954097 
L 351.013438 97.785305 
L 354.304779 97.785305 
L 354.424259 97.27893 
L 359.288293 97.27893 
L 359.401046 97.110139 
L 359.566964 97.110139 
L 359.679746 96.941347 
L 359.938564 96.941347 
L 360.051413 96.772555 
L 360.064623 96.772555 
L 360.184066 96.434972 
L 360.290278 96.434972 
L 360.409682 96.266181 
L 360.701656 96.266181 
L 360.814483 96.097389 
L 360.854333 96.097389 
L 360.967086 95.928597 
L 360.973772 95.928597 
L 361.086531 95.759806 
L 361.126345 95.759806 
L 361.239191 95.591014 
L 361.597536 95.591014 
L 361.710294 95.422223 
L 362.533208 95.422223 
L 362.652574 95.253431 
L 362.765433 95.253431 
L 362.878191 95.084639 
L 362.991046 95.084639 
L 363.110496 94.747056 
L 363.150313 94.747056 
L 363.269743 94.409473 
L 363.276337 94.409473 
L 363.409128 94.07189 
L 363.581581 94.07189 
L 363.694407 93.903098 
L 363.707707 93.903098 
L 363.820469 93.734307 
L 363.900098 93.734307 
L 364.032887 93.396724 
L 364.099171 93.396724 
L 364.225317 92.890349 
L 364.271701 92.890349 
L 364.391146 92.721557 
L 364.417689 92.721557 
L 364.53713 92.383974 
L 364.623442 92.383974 
L 364.736205 92.215182 
L 365.851014 92.215182 
L 365.970458 92.046391 
L 391.783666 92.046391 
L 391.909686 91.371224 
L 391.936228 91.371224 
L 392.082215 90.358475 
L 392.15527 90.358475 
L 392.274696 90.020892 
L 392.367596 90.020892 
L 392.480362 89.8521 
L 392.6728 89.8521 
L 392.78568 89.683308 
L 393.661603 89.683308 
L 393.780975 89.514517 
L 394.099492 89.514517 
L 394.212351 89.345725 
L 395.771706 89.345725 
L 395.89115 89.176934 
L 396.017281 89.176934 
L 396.130038 89.008142 
L 396.262753 89.008142 
L 396.382197 88.670559 
L 396.448556 88.670559 
L 396.567999 88.332976 
L 396.574686 88.332976 
L 396.694133 87.995393 
L 396.767072 87.995393 
L 396.886515 87.826601 
L 396.933014 87.826601 
L 397.045775 87.657809 
L 397.961511 87.657809 
L 398.080955 87.320226 
L 401.219722 87.320226 
L 401.332481 87.151435 
L 401.359024 87.151435 
L 401.471887 86.982643 
L 401.505097 86.982643 
L 401.637726 86.64506 
L 401.896543 86.64506 
L 402.009326 86.476268 
L 402.029277 86.476268 
L 402.142045 86.307477 
L 402.400876 86.307477 
L 402.513648 86.138685 
L 402.712721 86.138685 
L 402.825573 85.969893 
L 403.044509 85.969893 
L 403.163953 85.63231 
L 403.270125 85.63231 
L 403.389569 85.294727 
L 403.429382 85.294727 
L 403.542206 85.125935 
L 403.588641 85.125935 
L 403.701503 84.957144 
L 403.728047 84.957144 
L 403.847495 84.619561 
L 403.940381 84.619561 
L 404.059812 84.281977 
L 404.066417 84.281977 
L 404.199132 83.606811 
L 404.212404 83.606811 
L 404.338529 83.100436 
L 404.378303 83.100436 
L 404.511037 82.42527 
L 404.517648 82.42527 
L 404.650364 81.750104 
L 404.676906 81.750104 
L 404.803026 81.243729 
L 404.856119 81.243729 
L 404.982152 80.737354 
L 405.194497 79.387021 
L 405.201186 79.387021 
L 405.367107 77.867897 
L 405.380299 77.867897 
L 405.513015 77.19273 
L 405.546248 77.19273 
L 405.692224 76.179981 
L 405.698817 76.179981 
L 405.844804 75.167231 
L 405.858126 75.167231 
L 406.030605 74.323273 
L 406.050524 74.323273 
L 406.196553 73.310524 
L 406.203135 73.310524 
L 406.349122 72.297774 
L 406.548195 71.116233 
L 406.554889 71.116233 
L 406.694182 70.272275 
L 406.720725 70.272275 
L 406.879983 68.921942 
L 406.893254 68.921942 
L 407.03924 67.909193 
L 407.045885 67.909193 
L 407.205159 66.55886 
L 407.22504 66.55886 
L 407.503742 64.364569 
L 407.510427 64.364569 
L 407.682953 62.676653 
L 407.696228 62.676653 
L 407.848885 61.495112 
L 408.326578 56.768948 
L 408.33323 56.768948 
L 408.492492 55.418615 
L 408.499109 55.418615 
L 408.7248 52.380366 
L 408.731358 52.380366 
L 408.930453 50.017284 
L 408.956995 50.017284 
L 409.116256 48.666951 
L 409.136144 48.666951 
L 409.275557 47.822993 
L 409.302059 47.822993 
L 409.421533 47.48541 
L 409.86608 47.48541 
L 409.97889 47.316618 
L 410.058536 47.316618 
L 410.184598 46.810244 
L 410.224486 46.810244 
L 410.35049 46.303869 
L 410.39033 46.303869 
L 410.516387 45.797494 
L 410.529658 45.797494 
L 410.649102 45.459911 
L 410.662373 45.459911 
L 410.781817 45.122328 
L 410.788471 45.122328 
L 410.921193 44.447161 
L 410.954347 44.447161 
L 411.100334 43.434412 
L 411.146806 43.434412 
L 411.272864 42.928037 
L 411.279523 42.928037 
L 411.412239 42.25287 
L 411.511752 42.25287 
L 411.637852 41.746496 
L 411.644466 41.746496 
L 411.783838 40.902538 
L 411.890017 40.902538 
L 412.029338 40.05858 
L 412.115648 40.05858 
L 412.241684 39.552205 
L 412.261621 39.552205 
L 412.394364 38.877039 
L 412.434144 38.877039 
L 412.560203 38.370664 
L 412.626561 38.370664 
L 412.746006 38.033081 
L 412.865451 38.033081 
L 412.984895 37.695497 
L 413.024709 37.695497 
L 413.144154 37.357914 
L 413.150816 37.357914 
L 413.27687 36.851539 
L 413.303413 36.851539 
L 413.43613 36.176373 
L 413.462732 36.176373 
L 413.575505 36.007581 
L 413.940451 36.007581 
L 414.053277 35.83879 
L 414.172721 35.83879 
L 414.285513 35.669998 
L 421.2 35.669998 
L 421.2 35.669998 
" clip-path="url(#pf1188de9b4)" style="fill: none; stroke: #9467bd; stroke-width: 1.5; stroke-linecap: square"/>
   </g>
   <g id="patch_3">
    <path d="M 50.925 221.939962 
L 50.925 26.8 
" style="fill: none; stroke: #000000; stroke-width: 0.8; stroke-linejoin: miter; stroke-linecap: square"/>
   </g>
   <g id="patch_4">
    <path d="M 421.2 221.939962 
L 421.2 26.8 
" style="fill: none; stroke: #000000; stroke-width: 0.8; stroke-linejoin: miter; stroke-linecap: square"/>
   </g>
   <g id="patch_5">
    <path d="M 50.925 221.939962 
L 421.2 221.939962 
" style="fill: none; stroke: #000000; stroke-width: 0.8; stroke-linejoin: miter; stroke-linecap: square"/>
   </g>
   <g id="patch_6">
    <path d="M 50.925 26.8 
L 421.2 26.8 
" style="fill: none; stroke: #000000; stroke-width: 0.8; stroke-linejoin: miter; stroke-linecap: square"/>
   </g>
   <g id="text_15">
    <!-- October 2023 -->
    <g transform="translate(194.8725 20.8) scale(0.12 -0.12)">
     <defs>
      <path id="DejaVuSans-4f" d="M 2522 4238 
Q 1834 4238 1429 3725 
Q 1025 3213 1025 2328 
Q 1025 1447 1429 934 
Q 1834 422 2522 422 
Q 3209 422 3611 934 
Q 4013 1447 4013 2328 
Q 4013 3213 3611 3725 
Q 3209 4238 2522 4238 
z
M 2522 4750 
Q 3503 4750 4090 4092 
Q 4678 3434 4678 2328 
Q 4678 1225 4090 567 
Q 3503 -91 2522 -91 
Q 1538 -91 948 565 
Q 359 1222 359 2328 
Q 359 3434 948 4092 
Q 1538 4750 2522 4750 
z
" transform="scale(0.015625)"/>
      <path id="DejaVuSans-63" d="M 3122 3366 
L 3122 2828 
Q 2878 2963 2633 3030 
Q 2388 3097 2138 3097 
Q 1578 3097 1268 2742 
Q 959 2388 959 1747 
Q 959 1106 1268 751 
Q 1578 397 2138 397 
Q 2388 397 2633 464 
Q 2878 531 3122 666 
L 3122 134 
Q 2881 22 2623 -34 
Q 2366 -91 2075 -91 
Q 1284 -91 818 406 
Q 353 903 353 1747 
Q 353 2603 823 3093 
Q 1294 3584 2113 3584 
Q 2378 3584 2631 3529 
Q 2884 3475 3122 3366 
z
" transform="scale(0.015625)"/>
      <path id="DejaVuSans-74" d="M 1172 4494 
L 1172 3500 
L 2356 3500 
L 2356 3053 
L 1172 3053 
L 1172 1153 
Q 1172 725 1289 603 
Q 1406 481 1766 481 
L 2356 481 
L 2356 0 
L 1766 0 
Q 1100 0 847 248 
Q 594 497 594 1153 
L 594 3053 
L 172 3053 
L 172 3500 
L 594 3500 
L 594 4494 
L 1172 4494 
z
" transform="scale(0.015625)"/>
      <path id="DejaVuSans-6f" d="M 1959 3097 
Q 1497 3097 1228 2736 
Q 959 2375 959 1747 
Q 959 1119 1226 758 
Q 1494 397 1959 397 
Q 2419 397 2687 759 
Q 2956 1122 2956 1747 
Q 2956 2369 2687 2733 
Q 2419 3097 1959 3097 
z
M 1959 3584 
Q 2709 3584 3137 3096 
Q 3566 2609 3566 1747 
Q 3566 888 3137 398 
Q 2709 -91 1959 -91 
Q 1206 -91 779 398 
Q 353 888 353 1747 
Q 353 2609 779 3096 
Q 1206 3584 1959 3584 
z
" transform="scale(0.015625)"/>
      <path id="DejaVuSans-62" d="M 3116 1747 
Q 3116 2381 2855 2742 
Q 2594 3103 2138 3103 
Q 1681 3103 1420 2742 
Q 1159 2381 1159 1747 
Q 1159 1113 1420 752 
Q 1681 391 2138 391 
Q 2594 391 2855 752 
Q 3116 1113 3116 1747 
z
M 1159 2969 
Q 1341 3281 1617 3432 
Q 1894 3584 2278 3584 
Q 2916 3584 3314 3078 
Q 3713 2572 3713 1747 
Q 3713 922 3314 415 
Q 2916 -91 2278 -91 
Q 1894 -91 1617 61 
Q 1341 213 1159 525 
L 1159 0 
L 581 0 
L 581 4863 
L 1159 4863 
L 1159 2969 
z
" transform="scale(0.015625)"/>
      <path id="DejaVuSans-65" d="M 3597 1894 
L 3597 1613 
L 953 1613 
Q 991 1019 1311 708 
Q 1631 397 2203 397 
Q 2534 397 2845 478 
Q 3156 559 3463 722 
L 3463 178 
Q 3153 47 2828 -22 
Q 2503 -91 2169 -91 
Q 1331 -91 842 396 
Q 353 884 353 1716 
Q 353 2575 817 3079 
Q 1281 3584 2069 3584 
Q 2775 3584 3186 3129 
Q 3597 2675 3597 1894 
z
M 3022 2063 
Q 3016 2534 2758 2815 
Q 2500 3097 2075 3097 
Q 1594 3097 1305 2825 
Q 1016 2553 972 2059 
L 3022 2063 
z
" transform="scale(0.015625)"/>
      <path id="DejaVuSans-72" d="M 2631 2963 
Q 2534 3019 2420 3045 
Q 2306 3072 2169 3072 
Q 1681 3072 1420 2755 
Q 1159 2438 1159 1844 
L 1159 0 
L 581 0 
L 581 3500 
L 1159 3500 
L 1159 2956 
Q 1341 3275 1631 3429 
Q 1922 3584 2338 3584 
Q 2397 3584 2469 3576 
Q 2541 3569 2628 3553 
L 2631 2963 
z
" transform="scale(0.015625)"/>
     </defs>
     <use xlink:href="#DejaVuSans-4f"/>
     <use xlink:href="#DejaVuSans-63" x="78.710938"/>
     <use xlink:href="#DejaVuSans-74" x="133.691406"/>
     <use xlink:href="#DejaVuSans-6f" x="172.900391"/>
     <use xlink:href="#DejaVuSans-62" x="234.082031"/>
     <use xlink:href="#DejaVuSans-65" x="297.558594"/>
     <use xlink:href="#DejaVuSans-72" x="359.082031"/>
     <use xlink:href="#DejaVuSans-20" x="400.195312"/>
     <use xlink:href="#DejaVuSans-32" x="431.982422"/>
     <use xlink:href="#DejaVuSans-30" x="495.605469"/>
     <use xlink:href="#DejaVuSans-32" x="559.228516"/>
     <use xlink:href="#DejaVuSans-33" x="622.851562"/>
    </g>
   </g>
  </g>
 </g>
 <defs>
  <clipPath id="pf1188de9b4">
   <rect x="50.925" y="26.8" width="370.275" height="195.139962"/>
  </clipPath>
 </defs>
</svg>
