<?xml version="1.0" encoding="utf-8" standalone="no"?>
<!DOCTYPE svg PUBLIC "-//W3C//DTD SVG 1.1//EN"
  "http://www.w3.org/Graphics/SVG/1.1/DTD/svg11.dtd">
<svg xmlns:xlink="http://www.w3.org/1999/xlink" width="460.8pt" height="345.6pt" viewBox="0 0 460.8 345.6" xmlns="http://www.w3.org/2000/svg" version="1.1">
 <metadata>
  <rdf:RDF xmlns:dc="http://purl.org/dc/elements/1.1/" xmlns:cc="http://creativecommons.org/ns#" xmlns:rdf="http://www.w3.org/1999/02/22-rdf-syntax-ns#">
   <cc:Work>
    <dc:type rdf:resource="http://purl.org/dc/dcmitype/StillImage"/>
    <dc:date>2023-11-10T19:47:58.712197</dc:date>
    <dc:format>image/svg+xml</dc:format>
    <dc:creator>
     <cc:Agent>
      <dc:title>Matplotlib v3.6.3, https://matplotlib.org/</dc:title>
     </cc:Agent>
    </dc:creator>
   </cc:Work>
  </rdf:RDF>
 </metadata>
 <defs>
  <style type="text/css">*{stroke-linejoin: round; stroke-linecap: butt}</style>
 </defs>
 <g id="figure_1">
  <g id="patch_1">
   <path d="M 0 345.6 
L 460.8 345.6 
L 460.8 0 
L 0 0 
z
" style="fill: #ffffff"/>
  </g>
  <g id="axes_1">
   <g id="patch_2">
    <path d="M 51.05 279.561175 
L 450 279.561175 
L 450 25.44 
L 51.05 25.44 
z
" style="fill: #ffffff"/>
   </g>
   <g id="matplotlib.axis_1">
    <g id="xtick_1">
     <g id="line2d_1">
      <path d="M 91.638929 279.561175 
L 91.638929 25.44 
" clip-path="url(#pe0ab180b8d)" style="fill: none; stroke: #b0b0b0; stroke-width: 0.8; stroke-linecap: square"/>
     </g>
     <g id="line2d_2">
      <defs>
       <path id="m06fb548c23" d="M 0 0 
L 0 3.5 
" style="stroke: #000000; stroke-width: 0.8"/>
      </defs>
      <g>
       <use xlink:href="#m06fb548c23" x="91.638929" y="279.561175" style="stroke: #000000; stroke-width: 0.8"/>
      </g>
     </g>
     <g id="text_1">
      <!-- 2023-11-02 -->
      <g transform="translate(49.074415 333.028035) rotate(-45) scale(0.1 -0.1)">
       <defs>
        <path id="DejaVuSans-32" d="M 1228 531 
L 3431 531 
L 3431 0 
L 469 0 
L 469 531 
Q 828 903 1448 1529 
Q 2069 2156 2228 2338 
Q 2531 2678 2651 2914 
Q 2772 3150 2772 3378 
Q 2772 3750 2511 3984 
Q 2250 4219 1831 4219 
Q 1534 4219 1204 4116 
Q 875 4013 500 3803 
L 500 4441 
Q 881 4594 1212 4672 
Q 1544 4750 1819 4750 
Q 2544 4750 2975 4387 
Q 3406 4025 3406 3419 
Q 3406 3131 3298 2873 
Q 3191 2616 2906 2266 
Q 2828 2175 2409 1742 
Q 1991 1309 1228 531 
z
" transform="scale(0.015625)"/>
        <path id="DejaVuSans-30" d="M 2034 4250 
Q 1547 4250 1301 3770 
Q 1056 3291 1056 2328 
Q 1056 1369 1301 889 
Q 1547 409 2034 409 
Q 2525 409 2770 889 
Q 3016 1369 3016 2328 
Q 3016 3291 2770 3770 
Q 2525 4250 2034 4250 
z
M 2034 4750 
Q 2819 4750 3233 4129 
Q 3647 3509 3647 2328 
Q 3647 1150 3233 529 
Q 2819 -91 2034 -91 
Q 1250 -91 836 529 
Q 422 1150 422 2328 
Q 422 3509 836 4129 
Q 1250 4750 2034 4750 
z
" transform="scale(0.015625)"/>
        <path id="DejaVuSans-33" d="M 2597 2516 
Q 3050 2419 3304 2112 
Q 3559 1806 3559 1356 
Q 3559 666 3084 287 
Q 2609 -91 1734 -91 
Q 1441 -91 1130 -33 
Q 819 25 488 141 
L 488 750 
Q 750 597 1062 519 
Q 1375 441 1716 441 
Q 2309 441 2620 675 
Q 2931 909 2931 1356 
Q 2931 1769 2642 2001 
Q 2353 2234 1838 2234 
L 1294 2234 
L 1294 2753 
L 1863 2753 
Q 2328 2753 2575 2939 
Q 2822 3125 2822 3475 
Q 2822 3834 2567 4026 
Q 2313 4219 1838 4219 
Q 1578 4219 1281 4162 
Q 984 4106 628 3988 
L 628 4550 
Q 988 4650 1302 4700 
Q 1616 4750 1894 4750 
Q 2613 4750 3031 4423 
Q 3450 4097 3450 3541 
Q 3450 3153 3228 2886 
Q 3006 2619 2597 2516 
z
" transform="scale(0.015625)"/>
        <path id="DejaVuSans-2d" d="M 313 2009 
L 1997 2009 
L 1997 1497 
L 313 1497 
L 313 2009 
z
" transform="scale(0.015625)"/>
        <path id="DejaVuSans-31" d="M 794 531 
L 1825 531 
L 1825 4091 
L 703 3866 
L 703 4441 
L 1819 4666 
L 2450 4666 
L 2450 531 
L 3481 531 
L 3481 0 
L 794 0 
L 794 531 
z
" transform="scale(0.015625)"/>
       </defs>
       <use xlink:href="#DejaVuSans-32"/>
       <use xlink:href="#DejaVuSans-30" x="63.623047"/>
       <use xlink:href="#DejaVuSans-32" x="127.246094"/>
       <use xlink:href="#DejaVuSans-33" x="190.869141"/>
       <use xlink:href="#DejaVuSans-2d" x="254.492188"/>
       <use xlink:href="#DejaVuSans-31" x="290.576172"/>
       <use xlink:href="#DejaVuSans-31" x="354.199219"/>
       <use xlink:href="#DejaVuSans-2d" x="417.822266"/>
       <use xlink:href="#DejaVuSans-30" x="453.90625"/>
       <use xlink:href="#DejaVuSans-32" x="517.529297"/>
      </g>
     </g>
    </g>
    <g id="xtick_2">
     <g id="line2d_3">
      <path d="M 132.249462 279.561175 
L 132.249462 25.44 
" clip-path="url(#pe0ab180b8d)" style="fill: none; stroke: #b0b0b0; stroke-width: 0.8; stroke-linecap: square"/>
     </g>
     <g id="line2d_4">
      <g>
       <use xlink:href="#m06fb548c23" x="132.249462" y="279.561175" style="stroke: #000000; stroke-width: 0.8"/>
      </g>
     </g>
     <g id="text_2">
      <!-- 2023-11-03 -->
      <g transform="translate(89.684949 333.028035) rotate(-45) scale(0.1 -0.1)">
       <use xlink:href="#DejaVuSans-32"/>
       <use xlink:href="#DejaVuSans-30" x="63.623047"/>
       <use xlink:href="#DejaVuSans-32" x="127.246094"/>
       <use xlink:href="#DejaVuSans-33" x="190.869141"/>
       <use xlink:href="#DejaVuSans-2d" x="254.492188"/>
       <use xlink:href="#DejaVuSans-31" x="290.576172"/>
       <use xlink:href="#DejaVuSans-31" x="354.199219"/>
       <use xlink:href="#DejaVuSans-2d" x="417.822266"/>
       <use xlink:href="#DejaVuSans-30" x="453.90625"/>
       <use xlink:href="#DejaVuSans-33" x="517.529297"/>
      </g>
     </g>
    </g>
    <g id="xtick_3">
     <g id="line2d_5">
      <path d="M 172.859996 279.561175 
L 172.859996 25.44 
" clip-path="url(#pe0ab180b8d)" style="fill: none; stroke: #b0b0b0; stroke-width: 0.8; stroke-linecap: square"/>
     </g>
     <g id="line2d_6">
      <g>
       <use xlink:href="#m06fb548c23" x="172.859996" y="279.561175" style="stroke: #000000; stroke-width: 0.8"/>
      </g>
     </g>
     <g id="text_3">
      <!-- 2023-11-04 -->
      <g transform="translate(130.295482 333.028035) rotate(-45) scale(0.1 -0.1)">
       <defs>
        <path id="DejaVuSans-34" d="M 2419 4116 
L 825 1625 
L 2419 1625 
L 2419 4116 
z
M 2253 4666 
L 3047 4666 
L 3047 1625 
L 3713 1625 
L 3713 1100 
L 3047 1100 
L 3047 0 
L 2419 0 
L 2419 1100 
L 313 1100 
L 313 1709 
L 2253 4666 
z
" transform="scale(0.015625)"/>
       </defs>
       <use xlink:href="#DejaVuSans-32"/>
       <use xlink:href="#DejaVuSans-30" x="63.623047"/>
       <use xlink:href="#DejaVuSans-32" x="127.246094"/>
       <use xlink:href="#DejaVuSans-33" x="190.869141"/>
       <use xlink:href="#DejaVuSans-2d" x="254.492188"/>
       <use xlink:href="#DejaVuSans-31" x="290.576172"/>
       <use xlink:href="#DejaVuSans-31" x="354.199219"/>
       <use xlink:href="#DejaVuSans-2d" x="417.822266"/>
       <use xlink:href="#DejaVuSans-30" x="453.90625"/>
       <use xlink:href="#DejaVuSans-34" x="517.529297"/>
      </g>
     </g>
    </g>
    <g id="xtick_4">
     <g id="line2d_7">
      <path d="M 213.47053 279.561175 
L 213.47053 25.44 
" clip-path="url(#pe0ab180b8d)" style="fill: none; stroke: #b0b0b0; stroke-width: 0.8; stroke-linecap: square"/>
     </g>
     <g id="line2d_8">
      <g>
       <use xlink:href="#m06fb548c23" x="213.47053" y="279.561175" style="stroke: #000000; stroke-width: 0.8"/>
      </g>
     </g>
     <g id="text_4">
      <!-- 2023-11-05 -->
      <g transform="translate(170.906016 333.028035) rotate(-45) scale(0.1 -0.1)">
       <defs>
        <path id="DejaVuSans-35" d="M 691 4666 
L 3169 4666 
L 3169 4134 
L 1269 4134 
L 1269 2991 
Q 1406 3038 1543 3061 
Q 1681 3084 1819 3084 
Q 2600 3084 3056 2656 
Q 3513 2228 3513 1497 
Q 3513 744 3044 326 
Q 2575 -91 1722 -91 
Q 1428 -91 1123 -41 
Q 819 9 494 109 
L 494 744 
Q 775 591 1075 516 
Q 1375 441 1709 441 
Q 2250 441 2565 725 
Q 2881 1009 2881 1497 
Q 2881 1984 2565 2268 
Q 2250 2553 1709 2553 
Q 1456 2553 1204 2497 
Q 953 2441 691 2322 
L 691 4666 
z
" transform="scale(0.015625)"/>
       </defs>
       <use xlink:href="#DejaVuSans-32"/>
       <use xlink:href="#DejaVuSans-30" x="63.623047"/>
       <use xlink:href="#DejaVuSans-32" x="127.246094"/>
       <use xlink:href="#DejaVuSans-33" x="190.869141"/>
       <use xlink:href="#DejaVuSans-2d" x="254.492188"/>
       <use xlink:href="#DejaVuSans-31" x="290.576172"/>
       <use xlink:href="#DejaVuSans-31" x="354.199219"/>
       <use xlink:href="#DejaVuSans-2d" x="417.822266"/>
       <use xlink:href="#DejaVuSans-30" x="453.90625"/>
       <use xlink:href="#DejaVuSans-35" x="517.529297"/>
      </g>
     </g>
    </g>
    <g id="xtick_5">
     <g id="line2d_9">
      <path d="M 254.081064 279.561175 
L 254.081064 25.44 
" clip-path="url(#pe0ab180b8d)" style="fill: none; stroke: #b0b0b0; stroke-width: 0.8; stroke-linecap: square"/>
     </g>
     <g id="line2d_10">
      <g>
       <use xlink:href="#m06fb548c23" x="254.081064" y="279.561175" style="stroke: #000000; stroke-width: 0.8"/>
      </g>
     </g>
     <g id="text_5">
      <!-- 2023-11-06 -->
      <g transform="translate(211.51655 333.028035) rotate(-45) scale(0.1 -0.1)">
       <defs>
        <path id="DejaVuSans-36" d="M 2113 2584 
Q 1688 2584 1439 2293 
Q 1191 2003 1191 1497 
Q 1191 994 1439 701 
Q 1688 409 2113 409 
Q 2538 409 2786 701 
Q 3034 994 3034 1497 
Q 3034 2003 2786 2293 
Q 2538 2584 2113 2584 
z
M 3366 4563 
L 3366 3988 
Q 3128 4100 2886 4159 
Q 2644 4219 2406 4219 
Q 1781 4219 1451 3797 
Q 1122 3375 1075 2522 
Q 1259 2794 1537 2939 
Q 1816 3084 2150 3084 
Q 2853 3084 3261 2657 
Q 3669 2231 3669 1497 
Q 3669 778 3244 343 
Q 2819 -91 2113 -91 
Q 1303 -91 875 529 
Q 447 1150 447 2328 
Q 447 3434 972 4092 
Q 1497 4750 2381 4750 
Q 2619 4750 2861 4703 
Q 3103 4656 3366 4563 
z
" transform="scale(0.015625)"/>
       </defs>
       <use xlink:href="#DejaVuSans-32"/>
       <use xlink:href="#DejaVuSans-30" x="63.623047"/>
       <use xlink:href="#DejaVuSans-32" x="127.246094"/>
       <use xlink:href="#DejaVuSans-33" x="190.869141"/>
       <use xlink:href="#DejaVuSans-2d" x="254.492188"/>
       <use xlink:href="#DejaVuSans-31" x="290.576172"/>
       <use xlink:href="#DejaVuSans-31" x="354.199219"/>
       <use xlink:href="#DejaVuSans-2d" x="417.822266"/>
       <use xlink:href="#DejaVuSans-30" x="453.90625"/>
       <use xlink:href="#DejaVuSans-36" x="517.529297"/>
      </g>
     </g>
    </g>
    <g id="xtick_6">
     <g id="line2d_11">
      <path d="M 294.691597 279.561175 
L 294.691597 25.44 
" clip-path="url(#pe0ab180b8d)" style="fill: none; stroke: #b0b0b0; stroke-width: 0.8; stroke-linecap: square"/>
     </g>
     <g id="line2d_12">
      <g>
       <use xlink:href="#m06fb548c23" x="294.691597" y="279.561175" style="stroke: #000000; stroke-width: 0.8"/>
      </g>
     </g>
     <g id="text_6">
      <!-- 2023-11-07 -->
      <g transform="translate(252.127084 333.028035) rotate(-45) scale(0.1 -0.1)">
       <defs>
        <path id="DejaVuSans-37" d="M 525 4666 
L 3525 4666 
L 3525 4397 
L 1831 0 
L 1172 0 
L 2766 4134 
L 525 4134 
L 525 4666 
z
" transform="scale(0.015625)"/>
       </defs>
       <use xlink:href="#DejaVuSans-32"/>
       <use xlink:href="#DejaVuSans-30" x="63.623047"/>
       <use xlink:href="#DejaVuSans-32" x="127.246094"/>
       <use xlink:href="#DejaVuSans-33" x="190.869141"/>
       <use xlink:href="#DejaVuSans-2d" x="254.492188"/>
       <use xlink:href="#DejaVuSans-31" x="290.576172"/>
       <use xlink:href="#DejaVuSans-31" x="354.199219"/>
       <use xlink:href="#DejaVuSans-2d" x="417.822266"/>
       <use xlink:href="#DejaVuSans-30" x="453.90625"/>
       <use xlink:href="#DejaVuSans-37" x="517.529297"/>
      </g>
     </g>
    </g>
    <g id="xtick_7">
     <g id="line2d_13">
      <path d="M 335.302131 279.561175 
L 335.302131 25.44 
" clip-path="url(#pe0ab180b8d)" style="fill: none; stroke: #b0b0b0; stroke-width: 0.8; stroke-linecap: square"/>
     </g>
     <g id="line2d_14">
      <g>
       <use xlink:href="#m06fb548c23" x="335.302131" y="279.561175" style="stroke: #000000; stroke-width: 0.8"/>
      </g>
     </g>
     <g id="text_7">
      <!-- 2023-11-08 -->
      <g transform="translate(292.737617 333.028035) rotate(-45) scale(0.1 -0.1)">
       <defs>
        <path id="DejaVuSans-38" d="M 2034 2216 
Q 1584 2216 1326 1975 
Q 1069 1734 1069 1313 
Q 1069 891 1326 650 
Q 1584 409 2034 409 
Q 2484 409 2743 651 
Q 3003 894 3003 1313 
Q 3003 1734 2745 1975 
Q 2488 2216 2034 2216 
z
M 1403 2484 
Q 997 2584 770 2862 
Q 544 3141 544 3541 
Q 544 4100 942 4425 
Q 1341 4750 2034 4750 
Q 2731 4750 3128 4425 
Q 3525 4100 3525 3541 
Q 3525 3141 3298 2862 
Q 3072 2584 2669 2484 
Q 3125 2378 3379 2068 
Q 3634 1759 3634 1313 
Q 3634 634 3220 271 
Q 2806 -91 2034 -91 
Q 1263 -91 848 271 
Q 434 634 434 1313 
Q 434 1759 690 2068 
Q 947 2378 1403 2484 
z
M 1172 3481 
Q 1172 3119 1398 2916 
Q 1625 2713 2034 2713 
Q 2441 2713 2670 2916 
Q 2900 3119 2900 3481 
Q 2900 3844 2670 4047 
Q 2441 4250 2034 4250 
Q 1625 4250 1398 4047 
Q 1172 3844 1172 3481 
z
" transform="scale(0.015625)"/>
       </defs>
       <use xlink:href="#DejaVuSans-32"/>
       <use xlink:href="#DejaVuSans-30" x="63.623047"/>
       <use xlink:href="#DejaVuSans-32" x="127.246094"/>
       <use xlink:href="#DejaVuSans-33" x="190.869141"/>
       <use xlink:href="#DejaVuSans-2d" x="254.492188"/>
       <use xlink:href="#DejaVuSans-31" x="290.576172"/>
       <use xlink:href="#DejaVuSans-31" x="354.199219"/>
       <use xlink:href="#DejaVuSans-2d" x="417.822266"/>
       <use xlink:href="#DejaVuSans-30" x="453.90625"/>
       <use xlink:href="#DejaVuSans-38" x="517.529297"/>
      </g>
     </g>
    </g>
    <g id="xtick_8">
     <g id="line2d_15">
      <path d="M 375.912665 279.561175 
L 375.912665 25.44 
" clip-path="url(#pe0ab180b8d)" style="fill: none; stroke: #b0b0b0; stroke-width: 0.8; stroke-linecap: square"/>
     </g>
     <g id="line2d_16">
      <g>
       <use xlink:href="#m06fb548c23" x="375.912665" y="279.561175" style="stroke: #000000; stroke-width: 0.8"/>
      </g>
     </g>
     <g id="text_8">
      <!-- 2023-11-09 -->
      <g transform="translate(333.348151 333.028035) rotate(-45) scale(0.1 -0.1)">
       <defs>
        <path id="DejaVuSans-39" d="M 703 97 
L 703 672 
Q 941 559 1184 500 
Q 1428 441 1663 441 
Q 2288 441 2617 861 
Q 2947 1281 2994 2138 
Q 2813 1869 2534 1725 
Q 2256 1581 1919 1581 
Q 1219 1581 811 2004 
Q 403 2428 403 3163 
Q 403 3881 828 4315 
Q 1253 4750 1959 4750 
Q 2769 4750 3195 4129 
Q 3622 3509 3622 2328 
Q 3622 1225 3098 567 
Q 2575 -91 1691 -91 
Q 1453 -91 1209 -44 
Q 966 3 703 97 
z
M 1959 2075 
Q 2384 2075 2632 2365 
Q 2881 2656 2881 3163 
Q 2881 3666 2632 3958 
Q 2384 4250 1959 4250 
Q 1534 4250 1286 3958 
Q 1038 3666 1038 3163 
Q 1038 2656 1286 2365 
Q 1534 2075 1959 2075 
z
" transform="scale(0.015625)"/>
       </defs>
       <use xlink:href="#DejaVuSans-32"/>
       <use xlink:href="#DejaVuSans-30" x="63.623047"/>
       <use xlink:href="#DejaVuSans-32" x="127.246094"/>
       <use xlink:href="#DejaVuSans-33" x="190.869141"/>
       <use xlink:href="#DejaVuSans-2d" x="254.492188"/>
       <use xlink:href="#DejaVuSans-31" x="290.576172"/>
       <use xlink:href="#DejaVuSans-31" x="354.199219"/>
       <use xlink:href="#DejaVuSans-2d" x="417.822266"/>
       <use xlink:href="#DejaVuSans-30" x="453.90625"/>
       <use xlink:href="#DejaVuSans-39" x="517.529297"/>
      </g>
     </g>
    </g>
    <g id="xtick_9">
     <g id="line2d_17">
      <path d="M 416.523198 279.561175 
L 416.523198 25.44 
" clip-path="url(#pe0ab180b8d)" style="fill: none; stroke: #b0b0b0; stroke-width: 0.8; stroke-linecap: square"/>
     </g>
     <g id="line2d_18">
      <g>
       <use xlink:href="#m06fb548c23" x="416.523198" y="279.561175" style="stroke: #000000; stroke-width: 0.8"/>
      </g>
     </g>
     <g id="text_9">
      <!-- 2023-11-10 -->
      <g transform="translate(373.958685 333.028035) rotate(-45) scale(0.1 -0.1)">
       <use xlink:href="#DejaVuSans-32"/>
       <use xlink:href="#DejaVuSans-30" x="63.623047"/>
       <use xlink:href="#DejaVuSans-32" x="127.246094"/>
       <use xlink:href="#DejaVuSans-33" x="190.869141"/>
       <use xlink:href="#DejaVuSans-2d" x="254.492188"/>
       <use xlink:href="#DejaVuSans-31" x="290.576172"/>
       <use xlink:href="#DejaVuSans-31" x="354.199219"/>
       <use xlink:href="#DejaVuSans-2d" x="417.822266"/>
       <use xlink:href="#DejaVuSans-31" x="453.90625"/>
       <use xlink:href="#DejaVuSans-30" x="517.529297"/>
      </g>
     </g>
    </g>
   </g>
   <g id="matplotlib.axis_2">
    <g id="ytick_1">
     <g id="line2d_19">
      <path d="M 51.05 279.561175 
L 450 279.561175 
" clip-path="url(#pe0ab180b8d)" style="fill: none; stroke: #b0b0b0; stroke-width: 0.8; stroke-linecap: square"/>
     </g>
     <g id="line2d_20">
      <defs>
       <path id="mdfc4441262" d="M 0 0 
L -3.5 0 
" style="stroke: #000000; stroke-width: 0.8"/>
      </defs>
      <g>
       <use xlink:href="#mdfc4441262" x="51.05" y="279.561175" style="stroke: #000000; stroke-width: 0.8"/>
      </g>
     </g>
     <g id="text_10">
      <!-- 0 -->
      <g transform="translate(37.6875 283.360394) scale(0.1 -0.1)">
       <use xlink:href="#DejaVuSans-30"/>
      </g>
     </g>
    </g>
    <g id="ytick_2">
     <g id="line2d_21">
      <path d="M 51.05 228.73694 
L 450 228.73694 
" clip-path="url(#pe0ab180b8d)" style="fill: none; stroke: #b0b0b0; stroke-width: 0.8; stroke-linecap: square"/>
     </g>
     <g id="line2d_22">
      <g>
       <use xlink:href="#mdfc4441262" x="51.05" y="228.73694" style="stroke: #000000; stroke-width: 0.8"/>
      </g>
     </g>
     <g id="text_11">
      <!-- 20 -->
      <g transform="translate(31.325 232.536159) scale(0.1 -0.1)">
       <use xlink:href="#DejaVuSans-32"/>
       <use xlink:href="#DejaVuSans-30" x="63.623047"/>
      </g>
     </g>
    </g>
    <g id="ytick_3">
     <g id="line2d_23">
      <path d="M 51.05 177.912705 
L 450 177.912705 
" clip-path="url(#pe0ab180b8d)" style="fill: none; stroke: #b0b0b0; stroke-width: 0.8; stroke-linecap: square"/>
     </g>
     <g id="line2d_24">
      <g>
       <use xlink:href="#mdfc4441262" x="51.05" y="177.912705" style="stroke: #000000; stroke-width: 0.8"/>
      </g>
     </g>
     <g id="text_12">
      <!-- 40 -->
      <g transform="translate(31.325 181.711924) scale(0.1 -0.1)">
       <use xlink:href="#DejaVuSans-34"/>
       <use xlink:href="#DejaVuSans-30" x="63.623047"/>
      </g>
     </g>
    </g>
    <g id="ytick_4">
     <g id="line2d_25">
      <path d="M 51.05 127.08847 
L 450 127.08847 
" clip-path="url(#pe0ab180b8d)" style="fill: none; stroke: #b0b0b0; stroke-width: 0.8; stroke-linecap: square"/>
     </g>
     <g id="line2d_26">
      <g>
       <use xlink:href="#mdfc4441262" x="51.05" y="127.08847" style="stroke: #000000; stroke-width: 0.8"/>
      </g>
     </g>
     <g id="text_13">
      <!-- 60 -->
      <g transform="translate(31.325 130.887689) scale(0.1 -0.1)">
       <use xlink:href="#DejaVuSans-36"/>
       <use xlink:href="#DejaVuSans-30" x="63.623047"/>
      </g>
     </g>
    </g>
    <g id="ytick_5">
     <g id="line2d_27">
      <path d="M 51.05 76.264235 
L 450 76.264235 
" clip-path="url(#pe0ab180b8d)" style="fill: none; stroke: #b0b0b0; stroke-width: 0.8; stroke-linecap: square"/>
     </g>
     <g id="line2d_28">
      <g>
       <use xlink:href="#mdfc4441262" x="51.05" y="76.264235" style="stroke: #000000; stroke-width: 0.8"/>
      </g>
     </g>
     <g id="text_14">
      <!-- 80 -->
      <g transform="translate(31.325 80.063454) scale(0.1 -0.1)">
       <use xlink:href="#DejaVuSans-38"/>
       <use xlink:href="#DejaVuSans-30" x="63.623047"/>
      </g>
     </g>
    </g>
    <g id="ytick_6">
     <g id="line2d_29">
      <path d="M 51.05 25.44 
L 450 25.44 
" clip-path="url(#pe0ab180b8d)" style="fill: none; stroke: #b0b0b0; stroke-width: 0.8; stroke-linecap: square"/>
     </g>
     <g id="line2d_30">
      <g>
       <use xlink:href="#mdfc4441262" x="51.05" y="25.44" style="stroke: #000000; stroke-width: 0.8"/>
      </g>
     </g>
     <g id="text_15">
      <!-- 100 -->
      <g transform="translate(24.9625 29.239219) scale(0.1 -0.1)">
       <use xlink:href="#DejaVuSans-31"/>
       <use xlink:href="#DejaVuSans-30" x="63.623047"/>
       <use xlink:href="#DejaVuSans-30" x="127.246094"/>
      </g>
     </g>
    </g>
    <g id="text_16">
     <!-- Humidity [%RH] -->
     <g transform="translate(18.882812 192.647463) rotate(-90) scale(0.1 -0.1)">
      <defs>
       <path id="DejaVuSans-48" d="M 628 4666 
L 1259 4666 
L 1259 2753 
L 3553 2753 
L 3553 4666 
L 4184 4666 
L 4184 0 
L 3553 0 
L 3553 2222 
L 1259 2222 
L 1259 0 
L 628 0 
L 628 4666 
z
" transform="scale(0.015625)"/>
       <path id="DejaVuSans-75" d="M 544 1381 
L 544 3500 
L 1119 3500 
L 1119 1403 
Q 1119 906 1312 657 
Q 1506 409 1894 409 
Q 2359 409 2629 706 
Q 2900 1003 2900 1516 
L 2900 3500 
L 3475 3500 
L 3475 0 
L 2900 0 
L 2900 538 
Q 2691 219 2414 64 
Q 2138 -91 1772 -91 
Q 1169 -91 856 284 
Q 544 659 544 1381 
z
M 1991 3584 
L 1991 3584 
z
" transform="scale(0.015625)"/>
       <path id="DejaVuSans-6d" d="M 3328 2828 
Q 3544 3216 3844 3400 
Q 4144 3584 4550 3584 
Q 5097 3584 5394 3201 
Q 5691 2819 5691 2113 
L 5691 0 
L 5113 0 
L 5113 2094 
Q 5113 2597 4934 2840 
Q 4756 3084 4391 3084 
Q 3944 3084 3684 2787 
Q 3425 2491 3425 1978 
L 3425 0 
L 2847 0 
L 2847 2094 
Q 2847 2600 2669 2842 
Q 2491 3084 2119 3084 
Q 1678 3084 1418 2786 
Q 1159 2488 1159 1978 
L 1159 0 
L 581 0 
L 581 3500 
L 1159 3500 
L 1159 2956 
Q 1356 3278 1631 3431 
Q 1906 3584 2284 3584 
Q 2666 3584 2933 3390 
Q 3200 3197 3328 2828 
z
" transform="scale(0.015625)"/>
       <path id="DejaVuSans-69" d="M 603 3500 
L 1178 3500 
L 1178 0 
L 603 0 
L 603 3500 
z
M 603 4863 
L 1178 4863 
L 1178 4134 
L 603 4134 
L 603 4863 
z
" transform="scale(0.015625)"/>
       <path id="DejaVuSans-64" d="M 2906 2969 
L 2906 4863 
L 3481 4863 
L 3481 0 
L 2906 0 
L 2906 525 
Q 2725 213 2448 61 
Q 2172 -91 1784 -91 
Q 1150 -91 751 415 
Q 353 922 353 1747 
Q 353 2572 751 3078 
Q 1150 3584 1784 3584 
Q 2172 3584 2448 3432 
Q 2725 3281 2906 2969 
z
M 947 1747 
Q 947 1113 1208 752 
Q 1469 391 1925 391 
Q 2381 391 2643 752 
Q 2906 1113 2906 1747 
Q 2906 2381 2643 2742 
Q 2381 3103 1925 3103 
Q 1469 3103 1208 2742 
Q 947 2381 947 1747 
z
" transform="scale(0.015625)"/>
       <path id="DejaVuSans-74" d="M 1172 4494 
L 1172 3500 
L 2356 3500 
L 2356 3053 
L 1172 3053 
L 1172 1153 
Q 1172 725 1289 603 
Q 1406 481 1766 481 
L 2356 481 
L 2356 0 
L 1766 0 
Q 1100 0 847 248 
Q 594 497 594 1153 
L 594 3053 
L 172 3053 
L 172 3500 
L 594 3500 
L 594 4494 
L 1172 4494 
z
" transform="scale(0.015625)"/>
       <path id="DejaVuSans-79" d="M 2059 -325 
Q 1816 -950 1584 -1140 
Q 1353 -1331 966 -1331 
L 506 -1331 
L 506 -850 
L 844 -850 
Q 1081 -850 1212 -737 
Q 1344 -625 1503 -206 
L 1606 56 
L 191 3500 
L 800 3500 
L 1894 763 
L 2988 3500 
L 3597 3500 
L 2059 -325 
z
" transform="scale(0.015625)"/>
       <path id="DejaVuSans-20" transform="scale(0.015625)"/>
       <path id="DejaVuSans-5b" d="M 550 4863 
L 1875 4863 
L 1875 4416 
L 1125 4416 
L 1125 -397 
L 1875 -397 
L 1875 -844 
L 550 -844 
L 550 4863 
z
" transform="scale(0.015625)"/>
       <path id="DejaVuSans-25" d="M 4653 2053 
Q 4381 2053 4226 1822 
Q 4072 1591 4072 1178 
Q 4072 772 4226 539 
Q 4381 306 4653 306 
Q 4919 306 5073 539 
Q 5228 772 5228 1178 
Q 5228 1588 5073 1820 
Q 4919 2053 4653 2053 
z
M 4653 2450 
Q 5147 2450 5437 2106 
Q 5728 1763 5728 1178 
Q 5728 594 5436 251 
Q 5144 -91 4653 -91 
Q 4153 -91 3862 251 
Q 3572 594 3572 1178 
Q 3572 1766 3864 2108 
Q 4156 2450 4653 2450 
z
M 1428 4353 
Q 1159 4353 1004 4120 
Q 850 3888 850 3481 
Q 850 3069 1003 2837 
Q 1156 2606 1428 2606 
Q 1700 2606 1854 2837 
Q 2009 3069 2009 3481 
Q 2009 3884 1853 4118 
Q 1697 4353 1428 4353 
z
M 4250 4750 
L 4750 4750 
L 1831 -91 
L 1331 -91 
L 4250 4750 
z
M 1428 4750 
Q 1922 4750 2215 4408 
Q 2509 4066 2509 3481 
Q 2509 2891 2217 2550 
Q 1925 2209 1428 2209 
Q 931 2209 642 2551 
Q 353 2894 353 3481 
Q 353 4063 643 4406 
Q 934 4750 1428 4750 
z
" transform="scale(0.015625)"/>
       <path id="DejaVuSans-52" d="M 2841 2188 
Q 3044 2119 3236 1894 
Q 3428 1669 3622 1275 
L 4263 0 
L 3584 0 
L 2988 1197 
Q 2756 1666 2539 1819 
Q 2322 1972 1947 1972 
L 1259 1972 
L 1259 0 
L 628 0 
L 628 4666 
L 2053 4666 
Q 2853 4666 3247 4331 
Q 3641 3997 3641 3322 
Q 3641 2881 3436 2590 
Q 3231 2300 2841 2188 
z
M 1259 4147 
L 1259 2491 
L 2053 2491 
Q 2509 2491 2742 2702 
Q 2975 2913 2975 3322 
Q 2975 3731 2742 3939 
Q 2509 4147 2053 4147 
L 1259 4147 
z
" transform="scale(0.015625)"/>
       <path id="DejaVuSans-5d" d="M 1947 4863 
L 1947 -844 
L 622 -844 
L 622 -397 
L 1369 -397 
L 1369 4416 
L 622 4416 
L 622 4863 
L 1947 4863 
z
" transform="scale(0.015625)"/>
      </defs>
      <use xlink:href="#DejaVuSans-48"/>
      <use xlink:href="#DejaVuSans-75" x="75.195312"/>
      <use xlink:href="#DejaVuSans-6d" x="138.574219"/>
      <use xlink:href="#DejaVuSans-69" x="235.986328"/>
      <use xlink:href="#DejaVuSans-64" x="263.769531"/>
      <use xlink:href="#DejaVuSans-69" x="327.246094"/>
      <use xlink:href="#DejaVuSans-74" x="355.029297"/>
      <use xlink:href="#DejaVuSans-79" x="394.238281"/>
      <use xlink:href="#DejaVuSans-20" x="453.417969"/>
      <use xlink:href="#DejaVuSans-5b" x="485.205078"/>
      <use xlink:href="#DejaVuSans-25" x="524.21875"/>
      <use xlink:href="#DejaVuSans-52" x="619.238281"/>
      <use xlink:href="#DejaVuSans-48" x="688.720703"/>
      <use xlink:href="#DejaVuSans-5d" x="763.916016"/>
     </g>
    </g>
   </g>
   <g id="line2d_31">
    <path d="M 51.05 58.475753 
L 51.162712 58.475753 
L 51.29808 53.393329 
L 51.343204 53.393329 
L 51.456061 50.852118 
L 51.613936 50.852118 
L 51.726902 48.310906 
L 52.155404 48.310906 
L 52.245923 50.852118 
L 52.358525 50.852118 
L 52.471264 53.393329 
L 52.584193 53.393329 
L 52.697143 55.934541 
L 53.125528 55.934541 
L 53.238343 58.475753 
L 53.463955 58.475753 
L 53.554202 61.016965 
L 53.667134 58.475753 
L 54.411528 58.475753 
L 54.524461 61.016965 
L 54.659858 55.934541 
L 54.704938 55.934541 
L 54.817899 53.393329 
L 54.885434 53.393329 
L 54.998121 55.934541 
L 55.472026 55.934541 
L 55.584713 58.475753 
L 55.629838 58.475753 
L 55.765201 61.016965 
L 55.923294 61.016965 
L 56.03594 63.558176 
L 56.216428 63.558176 
L 56.329358 61.016965 
L 56.442042 63.558176 
L 56.938666 63.558176 
L 57.096447 55.934541 
L 57.32207 55.934541 
L 57.434733 58.475753 
L 57.547667 58.475753 
L 57.660346 61.016965 
L 57.70547 61.016965 
L 57.818321 63.558176 
L 57.840835 63.558176 
L 57.953751 66.099388 
L 58.224382 66.099388 
L 58.359886 61.016965 
L 58.404984 61.016965 
L 58.517673 63.558176 
L 58.856213 63.558176 
L 58.968897 61.016965 
L 59.284753 61.016965 
L 59.397697 58.475753 
L 59.64573 58.475753 
L 59.803781 66.099388 
L 59.848902 66.099388 
L 59.984235 71.181812 
L 60.006714 71.181812 
L 60.119641 73.723023 
L 60.187203 73.723023 
L 60.277447 76.264235 
L 60.412813 73.723023 
L 60.503059 76.264235 
L 60.638428 71.181812 
L 60.93185 71.181812 
L 61.044529 73.723023 
L 61.383089 73.723023 
L 61.495752 76.264235 
L 61.9921 76.264235 
L 62.172589 71.181812 
L 62.19526 71.181812 
L 62.307957 68.6406 
L 62.398201 68.6406 
L 62.578691 63.558176 
L 62.623812 63.558176 
L 62.736748 61.016965 
L 62.917172 61.016965 
L 63.029917 58.475753 
L 63.481141 58.475753 
L 63.594087 61.016965 
L 63.707036 63.558176 
L 64.022612 63.558176 
L 64.112855 66.099388 
L 64.180579 66.099388 
L 64.316047 71.181812 
L 64.361174 71.181812 
L 64.49657 76.264235 
L 64.58664 76.264235 
L 64.722154 86.429082 
L 64.744571 83.88787 
L 64.902638 76.264235 
L 65.286042 76.264235 
L 65.376286 86.429082 
L 65.556778 114.382411 
L 65.759969 127.08847 
L 65.782384 127.08847 
L 65.917752 122.006047 
L 66.030707 122.006047 
L 66.120952 124.547258 
L 66.143362 122.006047 
L 66.188484 124.547258 
L 66.414096 139.794529 
L 66.459217 139.794529 
L 66.504339 142.335741 
L 66.526994 139.794529 
L 66.617297 134.712105 
L 66.639707 137.253317 
L 66.797739 144.876952 
L 66.820193 142.335741 
L 66.84288 142.335741 
L 66.933165 139.794529 
L 67.068523 147.418164 
L 67.181174 144.876952 
L 67.203891 144.876952 
L 67.271418 147.418164 
L 67.294038 144.876952 
L 67.33914 144.876952 
L 67.58727 127.08847 
L 67.632394 127.08847 
L 67.767759 122.006047 
L 67.812881 122.006047 
L 67.948528 127.08847 
L 68.534835 127.08847 
L 68.6702 122.006047 
L 68.715321 122.006047 
L 68.828146 124.547258 
L 68.873325 124.547258 
L 68.986058 127.08847 
L 69.121423 127.08847 
L 69.211823 129.629682 
L 69.392154 124.547258 
L 69.437276 124.547258 
L 69.55023 122.006047 
L 69.662881 122.006047 
L 69.775814 124.547258 
L 69.843375 124.547258 
L 69.978739 119.464835 
L 70.001443 119.464835 
L 70.023864 122.006047 
L 70.091553 119.464835 
L 70.317282 119.464835 
L 70.452637 124.547258 
L 70.655571 124.547258 
L 70.768561 122.006047 
L 70.836063 127.08847 
L 70.881184 124.547258 
L 70.926522 124.547258 
L 71.039252 127.08847 
L 71.151917 127.08847 
L 71.264833 144.876952 
L 71.31002 139.794529 
L 71.332671 139.794529 
L 71.400181 132.170894 
L 71.445396 137.253317 
L 71.467772 137.253317 
L 71.490519 139.794529 
L 71.558016 137.253317 
L 71.648257 137.253317 
L 71.851425 124.547258 
L 71.873868 124.547258 
L 71.896582 127.08847 
L 71.964111 124.547258 
L 72.077075 124.547258 
L 72.189947 122.006047 
L 72.234849 122.006047 
L 72.257527 119.464835 
L 72.325091 122.006047 
L 72.347811 122.006047 
L 72.460455 124.547258 
L 72.505578 124.547258 
L 72.596051 122.006047 
L 72.821432 122.006047 
L 72.844078 119.464835 
L 72.911676 122.006047 
L 72.979538 122.006047 
L 73.092164 124.547258 
L 73.182408 124.547258 
L 73.295338 122.006047 
L 73.317774 122.006047 
L 73.408019 124.547258 
L 73.543386 124.547258 
L 73.656328 122.006047 
L 73.949486 122.006047 
L 74.152686 134.712105 
L 74.220221 134.712105 
L 74.310673 129.629682 
L 74.333057 132.170894 
L 74.423426 132.170894 
L 74.558698 127.08847 
L 74.694188 127.08847 
L 74.806803 124.547258 
L 75.032416 124.547258 
L 75.122928 122.006047 
L 75.190404 122.006047 
L 75.235624 124.547258 
L 75.280743 122.006047 
L 75.957571 122.006047 
L 76.092916 116.923623 
L 76.115348 116.923623 
L 76.250714 111.8412 
L 76.38608 111.8412 
L 76.656814 101.676353 
L 76.97267 101.676353 
L 77.085638 99.135141 
L 77.175881 99.135141 
L 77.288527 96.593929 
L 77.333649 96.593929 
L 77.423893 94.052717 
L 77.536857 96.593929 
L 77.649505 96.593929 
L 77.784872 94.052717 
L 78.055604 94.052717 
L 78.190972 73.723023 
L 78.349062 73.723023 
L 78.484454 68.6406 
L 78.642196 68.6406 
L 78.755069 66.099388 
L 79.22879 66.099388 
L 79.341801 63.558176 
L 79.431915 63.558176 
L 79.544648 61.016965 
L 79.770261 61.016965 
L 79.95075 55.934541 
L 79.995874 55.934541 
L 80.10882 53.393329 
L 80.311726 53.393329 
L 80.424706 55.934541 
L 81.349541 55.934541 
L 81.462534 53.393329 
L 81.733275 53.393329 
L 81.845884 50.852118 
L 82.38735 50.852118 
L 82.500356 48.310906 
L 83.357636 48.310906 
L 83.470284 45.769694 
L 83.605869 45.769694 
L 83.741018 43.228482 
L 83.966627 43.228482 
L 84.079478 40.687271 
L 84.305222 40.687271 
L 84.41785 38.146059 
L 85.455661 38.146059 
L 85.568647 35.604847 
L 86.200226 35.604847 
L 86.312984 33.063635 
L 87.238132 33.063635 
L 87.350792 30.522424 
L 88.34348 30.522424 
L 88.456461 27.981212 
L 119.184716 27.981212 
L 119.342511 35.604847 
L 119.410354 35.604847 
L 119.522997 38.146059 
L 119.545721 38.146059 
L 119.68098 43.228482 
L 120.087042 43.228482 
L 120.199837 45.769694 
L 120.380326 45.769694 
L 120.470847 48.310906 
L 120.989609 48.310906 
L 121.102286 45.769694 
L 121.485921 45.769694 
L 121.598633 43.228482 
L 122.140105 43.228482 
L 122.275469 40.687271 
L 123.629144 40.687271 
L 123.742057 43.228482 
L 124.035248 43.228482 
L 124.148221 40.687271 
L 125.343797 40.687271 
L 125.456777 38.146059 
L 125.840143 38.146059 
L 125.953135 35.604847 
L 126.24625 35.604847 
L 126.359226 33.063635 
L 126.629908 33.063635 
L 126.742594 30.522424 
L 127.419427 30.522424 
L 127.532394 27.981212 
L 128.344537 27.981212 
L 128.457242 30.522424 
L 128.637729 30.522424 
L 128.773099 33.063635 
L 128.81822 33.063635 
L 128.931167 35.604847 
L 129.021335 35.604847 
L 129.134077 38.146059 
L 129.247073 38.146059 
L 129.359689 40.687271 
L 129.517802 40.687271 
L 129.630423 43.228482 
L 130.081645 43.228482 
L 130.194633 45.769694 
L 130.690802 45.769694 
L 130.803605 43.228482 
L 130.916515 43.228482 
L 131.029216 40.687271 
L 131.187308 40.687271 
L 131.299949 38.146059 
L 131.525798 38.146059 
L 131.638525 35.604847 
L 131.86416 35.604847 
L 131.976783 38.146059 
L 131.999434 38.146059 
L 132.134851 43.228482 
L 132.202396 43.228482 
L 132.315361 45.769694 
L 132.608499 45.769694 
L 132.721501 43.228482 
L 132.879233 43.228482 
L 132.992215 40.687271 
L 133.195381 40.687271 
L 133.330456 38.146059 
L 133.646572 38.146059 
L 133.759293 35.604847 
L 134.165392 35.604847 
L 134.278027 33.063635 
L 134.977533 33.063635 
L 135.090231 30.522424 
L 135.473914 30.522424 
L 135.586576 33.063635 
L 135.676821 33.063635 
L 135.789658 35.604847 
L 135.902431 35.604847 
L 135.992676 38.146059 
L 136.173397 38.146059 
L 136.286077 40.687271 
L 137.662206 40.687271 
L 137.775176 38.146059 
L 138.136158 38.146059 
L 138.248795 35.604847 
L 138.451977 35.604847 
L 138.564651 38.146059 
L 138.835386 38.146059 
L 138.948366 40.687271 
L 139.376855 40.687271 
L 139.489828 43.228482 
L 140.347136 43.228482 
L 140.459796 40.687271 
L 141.226874 40.687271 
L 141.40736 45.769694 
L 141.430121 45.769694 
L 141.565377 50.852118 
L 141.723219 50.852118 
L 141.836144 48.310906 
L 142.01671 48.310906 
L 142.129625 45.769694 
L 142.264686 45.769694 
L 142.377663 48.310906 
L 142.535707 48.310906 
L 142.648418 45.769694 
L 143.280115 45.769694 
L 143.392949 43.228482 
L 144.295193 43.228482 
L 144.408154 40.687271 
L 144.633792 40.687271 
L 144.746416 43.228482 
L 145.513699 43.228482 
L 145.626429 45.769694 
L 145.671559 45.769694 
L 145.784233 43.228482 
L 146.100089 43.228482 
L 146.213056 45.769694 
L 146.258131 45.769694 
L 146.325701 48.310906 
L 146.438632 45.769694 
L 146.506192 48.310906 
L 146.528958 45.769694 
L 146.844681 45.769694 
L 146.957414 43.228482 
L 147.273271 43.228482 
L 147.38621 40.687271 
L 147.634524 40.687271 
L 147.747237 43.228482 
L 148.040565 43.228482 
L 148.17572 45.769694 
L 148.311085 45.769694 
L 148.424072 48.310906 
L 148.717187 48.310906 
L 148.830193 45.769694 
L 150.206235 45.769694 
L 150.319191 48.310906 
L 152.439974 48.310906 
L 152.552599 50.852118 
L 152.687965 50.852118 
L 152.823331 48.310906 
L 153.139421 48.310906 
L 153.274555 50.852118 
L 153.297272 50.852118 
L 153.409922 48.310906 
L 153.545292 48.310906 
L 153.725779 53.393329 
L 153.883858 53.393329 
L 153.996782 50.852118 
L 154.177002 50.852118 
L 154.312369 55.934541 
L 154.357493 55.934541 
L 154.492859 61.016965 
L 154.583103 61.016965 
L 154.696045 63.558176 
L 154.808715 63.558176 
L 154.92164 66.099388 
L 154.944081 63.558176 
L 155.011894 66.099388 
L 155.124571 66.099388 
L 155.237549 68.6406 
L 155.440426 68.6406 
L 155.553425 66.099388 
L 155.620916 66.099388 
L 155.756284 71.181812 
L 155.778977 71.181812 
L 155.891648 68.6406 
L 156.162386 68.6406 
L 156.297753 63.558176 
L 156.342874 63.558176 
L 156.455875 61.016965 
L 156.658732 61.016965 
L 156.771644 58.475753 
L 157.425813 58.475753 
L 157.538783 55.934541 
L 157.786793 55.934541 
L 157.922157 58.475753 
L 157.967281 58.475753 
L 158.080244 61.016965 
L 158.260582 61.016965 
L 158.305804 58.475753 
L 158.350989 61.016965 
L 158.50875 61.016965 
L 158.621737 63.558176 
L 158.757089 63.558176 
L 158.869728 61.016965 
L 159.095618 61.016965 
L 159.230708 55.934541 
L 159.411197 55.934541 
L 159.501748 53.393329 
L 159.636811 53.393329 
L 159.749802 50.852118 
L 160.178276 50.852118 
L 160.291282 48.310906 
L 160.516835 48.310906 
L 160.674623 55.934541 
L 160.765098 55.934541 
L 160.900233 58.475753 
L 160.922923 58.475753 
L 161.035603 55.934541 
L 161.080725 55.934541 
L 161.170971 53.393329 
L 161.486826 53.393329 
L 161.577072 50.852118 
L 161.735133 58.475753 
L 161.825433 58.475753 
L 161.983173 66.099388 
L 162.141249 66.099388 
L 162.253908 68.6406 
L 162.434396 68.6406 
L 162.502087 71.181812 
L 162.524642 68.6406 
L 163.088844 68.6406 
L 163.201481 66.099388 
L 163.224219 66.099388 
L 163.33712 63.558176 
L 163.49494 63.558176 
L 163.51734 61.016965 
L 163.585191 63.558176 
L 163.810705 63.558176 
L 163.92344 61.016965 
L 164.013685 61.016965 
L 164.126577 63.558176 
L 164.464912 63.558176 
L 164.577807 66.099388 
L 165.074121 66.099388 
L 165.186871 63.558176 
L 165.367362 63.558176 
L 165.480182 61.016965 
L 165.547851 61.016965 
L 165.705878 68.6406 
L 165.818588 68.6406 
L 165.931466 71.181812 
L 166.06687 71.181812 
L 166.179566 68.6406 
L 166.315146 68.6406 
L 166.427852 71.181812 
L 166.495426 71.181812 
L 166.608355 73.723023 
L 166.653451 73.723023 
L 166.766162 76.264235 
L 166.833981 76.264235 
L 166.901529 78.805447 
L 166.924216 76.264235 
L 167.262512 76.264235 
L 167.352757 73.723023 
L 167.465642 76.264235 
L 167.510766 76.264235 
L 167.646138 71.181812 
L 168.074719 71.181812 
L 168.187625 68.6406 
L 168.480818 68.6406 
L 168.571062 66.099388 
L 168.683989 68.6406 
L 168.977168 68.6406 
L 169.090107 71.181812 
L 169.428393 71.181812 
L 169.563764 76.264235 
L 169.586373 76.264235 
L 169.699432 73.723023 
L 169.766911 73.723023 
L 169.902305 78.805447 
L 169.947462 78.805447 
L 170.082813 83.88787 
L 170.105397 83.88787 
L 170.240602 86.429082 
L 170.26333 86.429082 
L 170.375967 83.88787 
L 170.42109 83.88787 
L 170.511337 81.346659 
L 170.691826 86.429082 
L 170.804819 86.429082 
L 170.917437 88.970294 
L 170.94019 88.970294 
L 170.962752 91.511506 
L 171.030316 88.970294 
L 171.052808 88.970294 
L 171.165792 86.429082 
L 171.233297 86.429082 
L 171.413993 76.264235 
L 171.82011 76.264235 
L 171.95526 73.723023 
L 172.045507 73.723023 
L 172.158468 71.181812 
L 172.586976 71.181812 
L 172.677468 73.723023 
L 172.767467 73.723023 
L 172.880456 76.264235 
L 172.925564 76.264235 
L 173.128447 88.970294 
L 173.241425 88.970294 
L 173.354063 91.511506 
L 173.489428 91.511506 
L 173.624796 88.970294 
L 173.669918 88.970294 
L 173.782923 91.511506 
L 173.873161 91.511506 
L 174.030904 83.88787 
L 174.076023 83.88787 
L 174.211393 78.805447 
L 174.279273 78.805447 
L 174.392123 76.264235 
L 174.414477 76.264235 
L 174.595128 86.429082 
L 174.64017 86.429082 
L 174.752864 88.970294 
L 174.888235 88.970294 
L 175.001137 91.511506 
L 175.068725 91.511506 
L 175.181657 94.052717 
L 175.317048 94.052717 
L 175.429709 91.511506 
L 175.565076 96.593929 
L 175.835813 96.593929 
L 175.948757 99.135141 
L 176.106548 99.135141 
L 176.129162 101.676353 
L 176.196793 99.135141 
L 176.287039 99.135141 
L 176.399987 101.676353 
L 176.467529 101.676353 
L 176.602896 106.758776 
L 176.648022 106.758776 
L 176.783391 111.8412 
L 176.963879 111.8412 
L 177.167054 99.135141 
L 177.324857 99.135141 
L 177.460229 101.676353 
L 177.595597 101.676353 
L 177.73096 96.593929 
L 177.843861 96.593929 
L 177.956576 94.052717 
L 178.091945 94.052717 
L 178.18219 91.511506 
L 178.430523 91.511506 
L 178.565906 96.593929 
L 178.746417 96.593929 
L 178.85903 94.052717 
L 179.017141 94.052717 
L 179.129766 96.593929 
L 179.220012 94.052717 
L 179.355381 99.135141 
L 179.490908 99.135141 
L 179.603721 101.676353 
L 179.897083 101.676353 
L 180.167587 111.8412 
L 180.280528 109.299988 
L 180.302956 109.299988 
L 180.483446 99.135141 
L 180.52857 99.135141 
L 180.618817 96.593929 
L 180.731746 99.135141 
L 180.754339 99.135141 
L 180.867165 101.676353 
L 180.889548 101.676353 
L 181.047615 109.299988 
L 181.160521 109.299988 
L 181.295654 111.8412 
L 181.3859 111.8412 
L 181.453749 114.382411 
L 181.476149 111.8412 
L 181.52127 111.8412 
L 181.634085 109.299988 
L 181.701758 109.299988 
L 181.7245 106.758776 
L 181.792003 109.299988 
L 181.837125 109.299988 
L 181.972495 114.382411 
L 182.288354 114.382411 
L 182.401291 116.923623 
L 182.423723 116.923623 
L 182.649335 109.299988 
L 182.762347 111.8412 
L 182.784702 111.8412 
L 182.875223 114.382411 
L 183.010316 111.8412 
L 183.033071 111.8412 
L 183.145684 109.299988 
L 183.371298 109.299988 
L 183.461544 111.8412 
L 183.619651 104.217564 
L 183.777405 104.217564 
L 183.890379 101.676353 
L 183.935486 101.676353 
L 184.048139 99.135141 
L 184.20612 99.135141 
L 184.251343 101.676353 
L 184.296475 99.135141 
L 184.386721 99.135141 
L 184.544489 91.511506 
L 184.634732 88.970294 
L 184.747662 91.511506 
L 184.770102 91.511506 
L 184.883078 94.052717 
L 184.973319 94.052717 
L 185.085963 96.593929 
L 185.108686 96.593929 
L 185.221327 99.135141 
L 185.334304 99.135141 
L 185.447216 101.676353 
L 186.349398 101.676353 
L 186.462373 99.135141 
L 186.529888 99.135141 
L 186.642865 96.593929 
L 186.755502 96.593929 
L 186.8684 94.052717 
L 186.935993 94.052717 
L 187.206731 114.382411 
L 187.229437 114.382411 
L 187.59041 144.876952 
L 187.612831 144.876952 
L 187.725798 147.418164 
L 187.861157 147.418164 
L 187.973808 144.876952 
L 188.04166 144.876952 
L 188.064052 142.335741 
L 188.131894 144.876952 
L 188.177031 144.876952 
L 188.289664 147.418164 
L 188.425035 147.418164 
L 188.537981 152.500588 
L 188.560398 149.959376 
L 188.628222 152.500588 
L 188.650644 152.500588 
L 188.718493 157.583011 
L 188.741154 155.041799 
L 188.853846 152.500588 
L 188.876258 152.500588 
L 189.011625 147.418164 
L 189.056746 147.418164 
L 189.440472 177.912705 
L 189.530688 177.912705 
L 189.620788 185.53634 
L 189.66601 182.995129 
L 189.80142 177.912705 
L 189.823822 177.912705 
L 189.959188 185.53634 
L 190.117284 177.912705 
L 190.342875 177.912705 
L 190.455519 175.371493 
L 190.47813 175.371493 
L 190.500654 177.912705 
L 190.568523 175.371493 
L 190.61364 175.371493 
L 190.658756 172.830282 
L 190.70386 175.371493 
L 190.771386 175.371493 
L 190.816507 172.830282 
L 190.861812 175.371493 
L 190.951877 175.371493 
L 191.064736 177.912705 
L 191.109974 177.912705 
L 191.267991 170.28907 
L 191.493339 162.665435 
L 191.606277 162.665435 
L 191.719073 165.206646 
L 191.741537 165.206646 
L 191.831916 167.747858 
L 191.944562 165.206646 
L 192.102658 165.206646 
L 192.260418 157.583011 
L 192.350664 157.583011 
L 192.508799 167.747858 
L 192.711639 155.041799 
L 192.734363 157.583011 
L 192.847241 147.418164 
L 192.914785 147.418164 
L 193.072618 139.794529 
L 193.29823 139.794529 
L 193.388743 142.335741 
L 193.591713 134.712105 
L 193.704332 137.253317 
L 193.839938 132.170894 
L 193.99781 132.170894 
L 194.020186 129.629682 
L 194.08803 132.170894 
L 194.381166 132.170894 
L 194.516533 127.08847 
L 194.539263 127.08847 
L 194.742144 142.335741 
L 194.877512 137.253317 
L 194.900206 137.253317 
L 195.035603 142.335741 
L 195.103346 142.335741 
L 195.17092 147.418164 
L 195.193368 144.876952 
L 195.486794 144.876952 
L 195.644591 137.253317 
L 195.734835 137.253317 
L 195.870202 132.170894 
L 195.892922 132.170894 
L 196.028265 137.253317 
L 196.118565 137.253317 
L 196.231176 144.876952 
L 196.253933 142.335741 
L 196.276302 142.335741 
L 196.389105 137.253317 
L 196.524669 149.959376 
L 196.547035 147.418164 
L 196.614908 149.959376 
L 196.727523 152.500588 
L 196.953135 152.500588 
L 197.224108 132.170894 
L 197.336842 132.170894 
L 197.404357 129.629682 
L 197.427085 132.170894 
L 197.517284 132.170894 
L 197.63022 127.08847 
L 197.878318 127.08847 
L 197.990949 129.629682 
L 198.081182 129.629682 
L 198.19419 127.08847 
L 198.216557 127.08847 
L 198.329536 129.629682 
L 198.397049 129.629682 
L 198.509853 127.08847 
L 198.712906 127.08847 
L 198.825905 124.547258 
L 198.893689 124.547258 
L 199.02876 127.08847 
L 199.141751 127.08847 
L 199.254372 124.547258 
L 199.457612 124.547258 
L 199.547832 122.006047 
L 199.660472 124.547258 
L 199.795841 119.464835 
L 199.840964 119.464835 
L 199.999044 111.8412 
L 200.269762 111.8412 
L 200.360024 114.382411 
L 200.495328 109.299988 
L 200.608323 109.299988 
L 200.721017 111.8412 
L 200.743411 109.299988 
L 200.811218 111.8412 
L 200.9466 111.8412 
L 201.081886 106.758776 
L 201.352619 106.758776 
L 201.487948 101.676353 
L 201.600738 101.676353 
L 201.713743 99.135141 
L 201.736104 99.135141 
L 201.758823 101.676353 
L 201.826347 99.135141 
L 201.871737 99.135141 
L 202.029552 94.052717 
L 202.142207 96.593929 
L 202.187328 96.593929 
L 202.277575 99.135141 
L 202.345293 99.135141 
L 202.458064 96.593929 
L 202.503185 96.593929 
L 202.616143 99.135141 
L 202.729023 99.135141 
L 202.864165 94.052717 
L 202.886821 94.052717 
L 203.022247 88.970294 
L 203.089777 88.970294 
L 203.225145 83.88787 
L 203.31539 83.88787 
L 203.428369 81.346659 
L 203.45076 81.346659 
L 203.541003 78.805447 
L 203.676369 78.805447 
L 203.789315 76.264235 
L 204.466044 76.264235 
L 204.578819 73.723023 
L 204.623942 73.723023 
L 204.736919 71.181812 
L 204.939797 71.181812 
L 205.052778 68.6406 
L 205.864992 68.6406 
L 205.977618 66.099388 
L 206.158108 66.099388 
L 206.271083 63.558176 
L 206.31622 63.558176 
L 206.428844 61.016965 
L 206.654455 61.016965 
L 206.767451 58.475753 
L 207.105679 58.475753 
L 207.241049 55.934541 
L 207.917886 55.934541 
L 208.030849 53.393329 
L 208.143498 53.393329 
L 208.234014 55.934541 
L 208.391836 55.934541 
L 208.504478 53.393329 
L 209.136193 53.393329 
L 209.249191 55.934541 
L 209.497176 55.934541 
L 209.63254 58.475753 
L 209.677663 58.475753 
L 209.790604 55.934541 
L 211.302079 55.934541 
L 211.414965 53.393329 
L 211.91138 53.393329 
L 212.02404 50.852118 
L 213.671191 50.852118 
L 213.784079 48.310906 
L 215.859463 48.310906 
L 215.949708 45.769694 
L 216.062701 48.310906 
L 216.107815 48.310906 
L 216.220445 45.769694 
L 217.280973 45.769694 
L 217.393631 48.310906 
L 217.935102 48.310906 
L 218.025526 45.769694 
L 219.243661 45.769694 
L 219.356517 48.310906 
L 220.146402 48.310906 
L 220.281479 45.769694 
L 225.921807 45.769694 
L 226.034796 43.228482 
L 228.764525 43.228482 
L 228.877538 45.769694 
L 229.080384 45.769694 
L 229.215753 48.310906 
L 230.186074 48.310906 
L 230.298693 50.852118 
L 230.569426 50.852118 
L 230.682394 53.393329 
L 230.704797 53.393329 
L 230.795277 55.934541 
L 230.930408 55.934541 
L 230.953047 53.393329 
L 231.020653 55.934541 
L 231.381633 55.934541 
L 231.494606 58.475753 
L 231.516997 58.475753 
L 231.629974 61.016965 
L 231.720139 61.016965 
L 231.832853 63.558176 
L 231.900687 63.558176 
L 232.036035 68.6406 
L 232.238957 68.6406 
L 232.351931 71.181812 
L 232.622648 71.181812 
L 232.735303 68.6406 
L 232.825547 68.6406 
L 232.848312 71.181812 
L 232.916028 68.6406 
L 233.051159 68.6406 
L 233.186524 91.511506 
L 233.209286 91.511506 
L 233.321892 96.593929 
L 233.367276 96.593929 
L 233.570237 109.299988 
L 233.637748 109.299988 
L 233.727991 104.217564 
L 233.750736 106.758776 
L 233.773414 106.758776 
L 233.818235 109.299988 
L 233.863359 106.758776 
L 233.886084 106.758776 
L 233.953602 101.676353 
L 233.998724 104.217564 
L 234.156844 111.8412 
L 234.179214 111.8412 
L 234.472646 124.547258 
L 234.562896 122.006047 
L 234.720676 129.629682 
L 234.811156 129.629682 
L 235.1719 91.511506 
L 235.194639 101.676353 
L 235.284884 99.135141 
L 235.39751 101.676353 
L 235.600756 101.676353 
L 235.758488 109.299988 
L 235.781263 109.299988 
L 235.938975 101.676353 
L 235.961627 101.676353 
L 236.232413 124.547258 
L 236.277598 122.006047 
L 236.299952 124.547258 
L 236.41291 124.547258 
L 236.548277 119.464835 
L 236.593417 119.464835 
L 236.751454 111.8412 
L 236.818971 111.8412 
L 236.841417 109.299988 
L 236.864115 114.382411 
L 236.886542 114.382411 
L 236.931665 114.382411 
L 237.044594 106.758776 
L 237.06703 109.299988 
L 237.15752 109.299988 
L 237.337762 104.217564 
L 237.360479 104.217564 
L 237.405617 106.758776 
L 237.428007 104.217564 
L 237.563375 99.135141 
L 237.856823 99.135141 
L 238.104841 81.346659 
L 238.149965 81.346659 
L 238.28533 76.264235 
L 238.398271 94.052717 
L 238.46582 91.511506 
L 238.488442 94.052717 
L 238.646306 94.052717 
L 238.7593 76.264235 
L 239.278284 76.264235 
L 239.413387 73.723023 
L 239.774367 73.723023 
L 239.887304 71.181812 
L 239.954855 71.181812 
L 240.067783 68.6406 
L 240.293424 68.6406 
L 240.406078 66.099388 
L 240.834924 66.099388 
L 240.947546 63.558176 
L 241.241004 63.558176 
L 241.353649 61.016965 
L 241.556855 61.016965 
L 241.669504 58.475753 
L 241.759749 58.475753 
L 241.84999 55.934541 
L 241.962924 58.475753 
L 242.323884 58.475753 
L 242.436583 61.016965 
L 242.549591 61.016965 
L 242.662483 58.475753 
L 243.068293 58.475753 
L 243.203664 61.016965 
L 243.677626 61.016965 
L 243.790257 58.475753 
L 243.835377 58.475753 
L 243.903224 55.934541 
L 243.925621 58.475753 
L 244.060989 58.475753 
L 244.173955 61.016965 
L 244.286599 61.016965 
L 244.399413 63.558176 
L 245.008558 63.558176 
L 245.121507 61.016965 
L 245.685395 61.016965 
L 245.798379 63.558176 
L 247.061798 63.558176 
L 247.174433 61.016965 
L 247.26468 61.016965 
L 247.309801 58.475753 
L 247.355192 61.016965 
L 247.580536 61.016965 
L 247.693511 63.558176 
L 247.896388 63.558176 
L 247.986634 61.016965 
L 248.099583 63.558176 
L 248.122002 63.558176 
L 248.234852 61.016965 
L 248.437861 61.016965 
L 248.550815 58.475753 
L 248.573229 58.475753 
L 248.708595 55.934541 
L 248.93421 55.934541 
L 249.024681 53.393329 
L 249.15982 53.393329 
L 249.250062 50.852118 
L 249.588632 50.852118 
L 249.701288 48.310906 
L 250.152511 48.310906 
L 250.26548 45.769694 
L 250.423246 45.769694 
L 250.513491 48.310906 
L 250.761663 48.310906 
L 250.874471 50.852118 
L 251.054961 50.852118 
L 251.190327 55.934541 
L 251.370817 55.934541 
L 251.483754 58.475753 
L 251.664228 58.475753 
L 251.776919 55.934541 
L 252.228144 55.934541 
L 252.341102 58.475753 
L 252.589121 58.475753 
L 252.702038 61.016965 
L 252.9501 61.016965 
L 253.063052 63.558176 
L 253.265958 63.558176 
L 253.401325 66.099388 
L 253.626936 66.099388 
L 253.739756 68.6406 
L 254.529386 68.6406 
L 254.664755 71.181812 
L 254.867977 71.181812 
L 254.980826 73.723023 
L 255.228944 73.723023 
L 255.341591 71.181812 
L 256.153795 71.181812 
L 256.198917 73.723023 
L 256.244305 71.181812 
L 256.447238 71.181812 
L 256.559896 68.6406 
L 256.830634 68.6406 
L 256.943561 71.181812 
L 257.214256 71.181812 
L 257.326981 73.723023 
L 257.372101 73.723023 
L 257.485065 76.264235 
L 257.800944 76.264235 
L 257.913571 78.805447 
L 258.094059 78.805447 
L 258.252111 86.429082 
L 258.455043 86.429082 
L 258.545284 88.970294 
L 258.658258 86.429082 
L 258.7709 86.429082 
L 258.906267 83.88787 
L 258.974119 83.88787 
L 259.086755 86.429082 
L 259.131879 86.429082 
L 259.312368 76.264235 
L 259.447736 76.264235 
L 259.560665 73.723023 
L 259.831419 73.723023 
L 259.944084 76.264235 
L 260.214821 76.264235 
L 260.327781 73.723023 
L 260.463164 73.723023 
L 260.575799 76.264235 
L 260.643584 76.264235 
L 260.756289 78.805447 
L 260.824127 78.805447 
L 260.981902 86.429082 
L 261.117268 86.429082 
L 261.230279 83.88787 
L 261.388002 83.88787 
L 261.500907 81.346659 
L 261.681485 81.346659 
L 261.816695 76.264235 
L 262.019721 76.264235 
L 262.042459 73.723023 
L 262.109963 76.264235 
L 262.245332 76.264235 
L 262.290455 73.723023 
L 262.335577 76.264235 
L 263.192908 76.264235 
L 263.305877 73.723023 
L 263.666836 73.723023 
L 263.779499 71.181812 
L 263.802246 71.181812 
L 263.937444 76.264235 
L 264.230725 76.264235 
L 264.366094 81.346659 
L 264.456335 81.346659 
L 264.591705 86.429082 
L 264.636825 86.429082 
L 264.727071 88.970294 
L 264.907564 88.970294 
L 265.020519 86.429082 
L 265.15589 86.429082 
L 265.313663 78.805447 
L 265.358786 78.805447 
L 265.47177 76.264235 
L 265.74248 76.264235 
L 265.764895 78.805447 
L 265.83275 76.264235 
L 266.238831 76.264235 
L 266.351485 73.723023 
L 266.374145 73.723023 
L 266.486851 71.181812 
L 267.028324 71.181812 
L 267.051054 73.723023 
L 267.118568 71.181812 
L 267.186421 71.181812 
L 267.299311 73.723023 
L 267.434428 76.264235 
L 267.524674 76.264235 
L 267.705165 86.429082 
L 267.818107 86.429082 
L 267.953452 91.511506 
L 268.021019 91.511506 
L 268.133965 88.970294 
L 268.156692 88.970294 
L 268.404713 106.758776 
L 268.472245 106.758776 
L 268.494975 104.217564 
L 268.540089 106.758776 
L 268.788101 124.547258 
L 268.946166 124.547258 
L 269.058835 127.08847 
L 269.081515 127.08847 
L 269.1942 129.629682 
L 269.216815 127.08847 
L 269.352285 149.959376 
L 269.464933 137.253317 
L 269.55541 137.253317 
L 269.577894 134.712105 
L 269.645423 147.418164 
L 269.690545 142.335741 
L 269.758362 142.335741 
L 269.871026 139.794529 
L 269.893637 139.794529 
L 270.096646 152.500588 
L 270.232012 152.500588 
L 270.299699 160.124223 
L 270.4125 157.583011 
L 270.570586 152.500588 
L 270.592987 152.500588 
L 270.728358 157.583011 
L 270.818599 157.583011 
L 270.886419 152.500588 
L 270.931471 155.041799 
L 270.953966 155.041799 
L 270.976718 152.500588 
L 271.021763 157.583011 
L 271.044211 157.583011 
L 271.066948 155.041799 
L 271.134704 157.583011 
L 271.202269 157.583011 
L 271.247409 152.500588 
L 271.292557 157.583011 
L 271.314942 157.583011 
L 271.473035 149.959376 
L 271.563107 149.959376 
L 271.67592 152.500588 
L 271.698634 152.500588 
L 271.9018 167.747858 
L 272.036893 160.124223 
L 272.127138 165.206646 
L 272.149877 162.665435 
L 272.217384 162.665435 
L 272.240158 165.206646 
L 272.28524 162.665435 
L 272.398115 157.583011 
L 272.555929 165.206646 
L 272.578363 162.665435 
L 272.646127 165.206646 
L 272.781539 165.206646 
L 273.089246 157.583011 
L 273.119825 160.124223 
L 273.165186 157.583011 
L 273.345438 152.500588 
L 273.571045 152.500588 
L 273.66129 149.959376 
L 274.293001 137.253317 
L 274.383245 139.794529 
L 274.405987 137.253317 
L 274.42865 139.794529 
L 274.563737 142.335741 
L 274.608858 142.335741 
L 274.676699 147.418164 
L 274.721797 144.876952 
L 274.879822 144.876952 
L 275.037652 160.124223 
L 275.17302 149.959376 
L 275.195445 149.959376 
L 275.30824 147.418164 
L 275.443775 147.418164 
L 275.5113 144.876952 
L 275.534045 147.418164 
L 275.579099 147.418164 
L 275.646667 149.959376 
L 275.669302 147.418164 
L 275.691956 147.418164 
L 275.782033 142.335741 
L 275.804749 144.876952 
L 275.827155 144.876952 
L 275.962521 155.041799 
L 276.097886 162.665435 
L 276.165588 162.665435 
L 276.301003 167.747858 
L 276.346131 167.747858 
L 276.391327 170.28907 
L 276.413741 167.747858 
L 276.526706 165.206646 
L 276.594227 170.28907 
L 276.63935 167.747858 
L 276.684473 167.747858 
L 276.819839 172.830282 
L 276.932784 170.28907 
L 276.955203 170.28907 
L 277.09057 165.206646 
L 277.113294 167.747858 
L 277.248643 152.500588 
L 277.361305 152.500588 
L 277.496667 149.959376 
L 277.541787 149.959376 
L 277.677158 144.876952 
L 277.790119 144.876952 
L 277.812803 147.418164 
L 277.880279 144.876952 
L 277.902768 144.876952 
L 277.970642 142.335741 
L 277.993014 144.876952 
L 278.015735 144.876952 
L 278.151049 149.959376 
L 278.1735 149.959376 
L 278.218623 147.418164 
L 278.263993 149.959376 
L 278.28634 152.500588 
L 278.353989 149.959376 
L 278.376722 149.959376 
L 278.444232 152.500588 
L 278.466964 149.959376 
L 278.489357 149.959376 
L 278.602348 147.418164 
L 278.737625 147.418164 
L 278.873055 152.500588 
L 278.895454 152.500588 
L 279.03082 147.418164 
L 279.121066 147.418164 
L 279.256431 142.335741 
L 279.279161 142.335741 
L 279.414469 147.418164 
L 279.436918 147.418164 
L 279.549748 142.335741 
L 279.730388 142.335741 
L 279.820553 139.794529 
L 279.888139 142.335741 
L 279.910868 139.794529 
L 280.158875 122.006047 
L 280.181629 122.006047 
L 280.316946 106.758776 
L 280.407096 106.758776 
L 280.474731 104.217564 
L 282.798665 96.593929 
L 282.934086 91.511506 
L 283.204774 91.511506 
L 283.317436 88.970294 
L 283.588172 88.970294 
L 283.701025 91.511506 
L 283.813783 91.511506 
L 283.926669 94.052717 
L 284.062117 88.970294 
L 284.152304 88.970294 
L 284.31012 81.346659 
L 284.445491 81.346659 
L 284.535736 78.805447 
L 284.648683 81.346659 
L 284.738792 81.346659 
L 284.82919 78.805447 
L 285.032081 78.805447 
L 285.122596 76.264235 
L 285.280403 76.264235 
L 285.415676 81.346659 
L 285.438184 81.346659 
L 285.528429 83.88787 
L 285.957225 83.88787 
L 286.069899 86.429082 
L 286.746738 86.429082 
L 286.882104 81.346659 
L 286.949914 81.346659 
L 287.085262 76.264235 
L 287.581575 76.264235 
L 287.671876 78.805447 
L 287.784553 76.264235 
L 287.82989 76.264235 
L 287.94259 78.805447 
L 287.987704 78.805447 
L 288.100411 76.264235 
L 288.123078 76.264235 
L 288.236011 73.723023 
L 288.529178 73.723023 
L 288.641877 76.264235 
L 288.912612 76.264235 
L 289.025548 73.723023 
L 289.499202 73.723023 
L 289.634572 76.264235 
L 290.401652 76.264235 
L 290.514512 78.805447 
L 290.943121 78.805447 
L 291.056044 81.346659 
L 291.123612 81.346659 
L 291.168735 83.88787 
L 291.214095 81.346659 
L 291.349223 83.88787 
L 291.597577 83.88787 
L 291.755325 76.264235 
L 291.823119 76.264235 
L 291.935814 78.805447 
L 292.04878 76.264235 
L 292.40969 76.264235 
L 292.522405 78.805447 
L 292.545022 78.805447 
L 292.612651 81.346659 
L 292.635376 78.805447 
L 292.702895 78.805447 
L 292.815818 76.264235 
L 293.718265 76.264235 
L 293.830958 73.723023 
L 294.214492 73.723023 
L 294.327306 76.264235 
L 294.440207 73.723023 
L 295.319999 73.723023 
L 295.387828 71.181812 
L 295.410242 73.723023 
L 295.929186 73.723023 
L 296.041959 76.264235 
L 296.628549 76.264235 
L 296.69639 73.723023 
L 296.719039 76.264235 
L 297.079775 76.264235 
L 297.192593 78.805447 
L 297.350507 78.805447 
L 297.463476 76.264235 
L 297.846856 76.264235 
L 297.959835 73.723023 
L 298.049938 73.723023 
L 298.16271 76.264235 
L 299.200524 76.264235 
L 299.291015 73.723023 
L 299.403747 76.264235 
L 299.493961 76.264235 
L 299.606627 73.723023 
L 299.629341 73.723023 
L 299.741993 71.181812 
L 299.877364 71.181812 
L 299.990318 68.6406 
L 300.035455 68.6406 
L 300.148299 66.099388 
L 300.215906 66.099388 
L 300.328585 63.558176 
L 300.554444 63.558176 
L 300.667145 61.016965 
L 300.960296 61.016965 
L 301.095666 58.475753 
L 301.208615 58.475753 
L 301.32128 55.934541 
L 301.366402 55.934541 
L 301.411728 58.475753 
L 301.456647 55.934541 
L 301.524486 55.934541 
L 301.637131 58.475753 
L 301.862746 58.475753 
L 301.975703 61.016965 
L 302.156186 61.016965 
L 302.269045 58.475753 
L 303.419617 58.475753 
L 303.532469 55.934541 
L 303.577399 55.934541 
L 303.690376 53.393329 
L 304.322044 53.393329 
L 304.457365 58.475753 
L 305.066439 58.475753 
L 305.179392 61.016965 
L 305.495235 61.016965 
L 305.607908 58.475753 
L 305.720823 58.475753 
L 305.833521 55.934541 
L 306.059332 55.934541 
L 306.194501 53.393329 
L 306.623338 53.393329 
L 306.73597 50.852118 
L 306.803748 50.852118 
L 306.916699 53.393329 
L 307.119637 53.393329 
L 307.232319 50.852118 
L 308.789225 50.852118 
L 308.901848 48.310906 
L 311.112839 48.310906 
L 311.225733 50.852118 
L 312.399033 50.852118 
L 312.511641 53.393329 
L 313.007985 53.393329 
L 313.120926 55.934541 
L 313.54945 55.934541 
L 313.662397 58.475753 
L 314.090922 58.475753 
L 314.203827 55.934541 
L 314.745359 55.934541 
L 314.858002 58.475753 
L 315.038495 58.475753 
L 315.151475 55.934541 
L 315.579965 55.934541 
L 315.692881 53.393329 
L 315.760454 53.393329 
L 315.873297 50.852118 
L 316.121432 50.852118 
L 316.234344 53.393329 
L 316.978758 53.393329 
L 317.069004 55.934541 
L 317.27214 55.934541 
L 317.38486 58.475753 
L 317.723421 58.475753 
L 317.858806 63.558176 
L 317.994051 63.558176 
L 318.10682 61.016965 
L 318.15194 61.016965 
L 318.287307 78.805447 
L 318.49047 91.511506 
L 318.535583 91.511506 
L 318.648289 88.970294 
L 318.828777 88.970294 
L 318.851398 86.429082 
L 318.89662 88.970294 
L 319.077085 99.135141 
L 319.28 99.135141 
L 319.415367 94.052717 
L 319.618528 94.052717 
L 319.73122 91.511506 
L 319.776345 91.511506 
L 319.91171 96.593929 
L 320.001955 96.593929 
L 320.114807 99.135141 
L 320.182445 99.135141 
L 320.27269 101.676353 
L 320.385559 99.135141 
L 320.408055 99.135141 
L 320.453177 101.676353 
L 320.611212 83.88787 
L 320.633666 83.88787 
L 320.791716 76.264235 
L 320.881958 76.264235 
L 320.994645 73.723023 
L 321.15275 73.723023 
L 321.265382 71.181812 
L 321.288089 71.181812 
L 321.40075 68.6406 
L 321.513723 68.6406 
L 321.626358 66.099388 
L 321.716605 66.099388 
L 321.8295 63.558176 
L 322.145454 63.558176 
L 322.258071 61.016965 
L 322.303193 61.016965 
L 322.41605 63.558176 
L 322.483686 63.558176 
L 322.573928 61.016965 
L 322.64162 61.016965 
L 322.754418 58.475753 
L 323.002726 58.475753 
L 323.115397 55.934541 
L 323.544179 55.934541 
L 323.656866 53.393329 
L 323.995437 53.393329 
L 324.10809 50.852118 
L 325.664903 50.852118 
L 325.777609 53.393329 
L 326.003419 53.393329 
L 326.138588 55.934541 
L 326.364203 55.934541 
L 326.499568 61.016965 
L 326.612501 61.016965 
L 326.747819 66.099388 
L 327.356891 66.099388 
L 327.46986 68.6406 
L 327.67275 68.6406 
L 327.808117 71.181812 
L 328.462537 71.181812 
L 328.57545 73.723023 
L 328.688184 71.181812 
L 328.868634 71.181812 
L 328.981563 73.723023 
L 329.387652 73.723023 
L 329.455143 71.181812 
L 329.477648 73.723023 
L 329.996694 73.723023 
L 330.109363 76.264235 
L 330.154485 76.264235 
L 330.199608 78.805447 
L 330.24499 76.264235 
L 330.605711 76.264235 
L 330.718549 73.723023 
L 331.034506 73.723023 
L 331.147179 71.181812 
L 331.756389 71.181812 
L 331.869144 68.6406 
L 332.027179 68.6406 
L 332.139879 66.099388 
L 332.297973 66.099388 
L 332.410616 68.6406 
L 332.50086 68.6406 
L 332.613836 71.181812 
L 332.839309 71.181812 
L 332.952086 73.723023 
L 333.065066 73.723023 
L 333.177699 71.181812 
L 333.516258 71.181812 
L 333.628927 73.723023 
L 333.764295 71.181812 
L 334.0803 71.181812 
L 334.193165 68.6406 
L 334.305765 68.6406 
L 334.418711 66.099388 
L 334.756992 66.099388 
L 334.869947 68.6406 
L 335.027724 68.6406 
L 335.140668 71.181812 
L 335.478951 71.181812 
L 335.591932 73.723023 
L 335.862635 73.723023 
L 335.975301 71.181812 
L 336.584552 71.181812 
L 336.697261 68.6406 
L 336.787505 68.6406 
L 336.900469 66.099388 
L 337.148485 66.099388 
L 337.26145 63.558176 
L 337.41922 63.558176 
L 337.532101 61.016965 
L 337.960689 61.016965 
L 338.073682 63.558176 
L 338.11876 63.558176 
L 338.231423 66.099388 
L 338.479741 66.099388 
L 338.592404 68.6406 
L 338.660243 68.6406 
L 338.727771 66.099388 
L 338.86314 68.6406 
L 339.382216 68.6406 
L 339.494852 71.181812 
L 340.14927 71.181812 
L 340.261937 73.723023 
L 340.510191 73.723023 
L 340.622915 76.264235 
L 340.781003 76.264235 
L 340.91625 81.346659 
L 340.96147 81.346659 
L 341.074138 83.88787 
L 341.435119 83.88787 
L 341.548074 86.429082 
L 341.683384 86.429082 
L 341.818811 81.346659 
L 341.886343 81.346659 
L 341.999263 78.805447 
L 342.021711 78.805447 
L 342.111955 76.264235 
L 342.202199 76.264235 
L 342.315179 73.723023 
L 342.946917 73.723023 
L 343.059536 76.264235 
L 343.578572 76.264235 
L 343.691252 73.723023 
L 344.029822 73.723023 
L 344.142479 76.264235 
L 344.232724 76.264235 
L 344.390795 83.88787 
L 344.819321 83.88787 
L 344.932289 81.346659 
L 344.954689 81.346659 
L 345.090057 76.264235 
L 345.338382 76.264235 
L 345.518864 86.429082 
L 345.744491 86.429082 
L 345.857142 88.970294 
L 345.924978 88.970294 
L 346.037631 91.511506 
L 346.060294 91.511506 
L 346.173002 94.052717 
L 346.218126 94.052717 
L 346.35349 99.135141 
L 346.624227 99.135141 
L 346.73715 101.676353 
L 346.804719 101.676353 
L 346.940087 104.217564 
L 346.985207 104.217564 
L 347.120578 109.299988 
L 347.391315 109.299988 
L 347.50423 111.8412 
L 347.571807 111.8412 
L 347.707173 116.923623 
L 347.752295 116.923623 
L 347.79742 114.382411 
L 347.842541 116.923623 
L 347.865218 116.923623 
L 347.977909 114.382411 
L 348.023033 114.382411 
L 348.135859 116.923623 
L 348.181082 116.923623 
L 348.293764 119.464835 
L 348.384011 119.464835 
L 348.496927 122.006047 
L 348.519593 122.006047 
L 348.654751 124.547258 
L 349.038432 124.547258 
L 349.151101 127.08847 
L 349.218928 127.08847 
L 349.354281 132.170894 
L 349.466959 132.170894 
L 349.602324 137.253317 
L 349.647451 137.253317 
L 349.670122 139.794529 
L 349.737693 137.253317 
L 349.783033 137.253317 
L 349.850556 134.712105 
L 349.873061 137.253317 
L 349.895779 137.253317 
L 350.031146 132.170894 
L 350.098675 132.170894 
L 350.234212 137.253317 
L 350.256619 137.253317 
L 350.369411 139.794529 
L 350.414533 139.794529 
L 350.549903 144.876952 
L 350.617733 144.876952 
L 350.640356 142.335741 
L 350.707905 144.876952 
L 350.888463 144.876952 
L 351.001124 149.959376 
L 351.113967 147.418164 
L 351.136492 147.418164 
L 351.271855 152.500588 
L 351.316974 152.500588 
L 351.475055 139.794529 
L 351.497673 142.335741 
L 351.520014 142.335741 
L 351.677946 149.959376 
L 351.700577 149.959376 
L 351.813309 152.500588 
L 351.971292 152.500588 
L 352.016515 149.959376 
L 352.129355 175.371493 
L 352.264533 155.041799 
L 352.399901 172.830282 
L 352.422577 172.830282 
L 352.535267 182.995129 
L 352.557936 180.453917 
L 352.670633 177.912705 
L 352.828636 190.618764 
L 352.851121 190.618764 
L 352.963999 193.159976 
L 352.986487 190.618764 
L 353.054236 193.159976 
L 353.099439 193.159976 
L 353.2123 190.618764 
L 353.234699 190.618764 
L 353.325022 195.701188 
L 353.347467 193.159976 
L 353.370199 193.159976 
L 353.482834 195.701188 
L 353.550648 195.701188 
L 353.573078 193.159976 
L 353.64076 195.701188 
L 353.685982 195.701188 
L 353.798686 193.159976 
L 353.843807 198.242399 
L 353.888927 195.701188 
L 354.024507 190.618764 
L 354.114542 190.618764 
L 354.22742 195.701188 
L 354.249904 195.701188 
L 354.430394 182.995129 
L 354.475774 182.995129 
L 354.543319 177.912705 
L 354.565759 182.995129 
L 354.633615 190.618764 
L 354.678703 185.53634 
L 354.701126 185.53634 
L 354.85922 177.912705 
L 354.881799 177.912705 
L 355.039655 190.618764 
L 355.062105 188.077552 
L 355.084821 188.077552 
L 355.197475 177.912705 
L 355.220149 180.453917 
L 355.377963 193.159976 
L 355.513329 198.242399 
L 355.626241 195.701188 
L 355.69382 198.242399 
L 355.739179 193.159976 
L 355.784063 198.242399 
L 355.874307 198.242399 
L 356.009673 193.159976 
L 356.054796 195.701188 
L 356.099918 193.159976 
L 356.190162 188.077552 
L 356.212799 195.701188 
L 356.303101 190.618764 
L 356.415774 188.077552 
L 356.43846 188.077552 
L 356.55114 195.701188 
L 356.618862 195.701188 
L 356.799457 185.53634 
L 356.912116 193.159976 
L 356.957239 193.159976 
L 357.092606 195.701188 
L 357.20556 185.53634 
L 357.386037 195.701188 
L 357.408699 195.701188 
L 357.521403 188.077552 
L 357.543826 193.159976 
L 357.588949 193.159976 
L 357.701828 195.701188 
L 357.746941 195.701188 
L 357.792127 193.159976 
L 357.814559 195.701188 
L 357.88227 200.783611 
L 357.972619 190.618764 
L 357.995048 193.159976 
L 358.017739 193.159976 
L 358.107974 190.618764 
L 358.175534 193.159976 
L 358.198264 190.618764 
L 358.220656 190.618764 
L 358.356024 185.53634 
L 358.378712 185.53634 
L 358.536512 177.912705 
L 358.762125 177.912705 
L 358.875059 175.371493 
L 358.920166 177.912705 
L 358.965329 175.371493 
L 359.010462 175.371493 
L 359.123338 172.830282 
L 359.145683 172.830282 
L 359.168226 170.28907 
L 359.23604 172.830282 
L 359.303591 172.830282 
L 359.416496 170.28907 
L 359.461673 170.28907 
L 359.529456 167.747858 
L 359.664569 170.28907 
L 359.845059 170.28907 
L 359.86771 172.830282 
L 359.935301 170.28907 
L 360.160915 162.665435 
L 360.183652 162.665435 
L 360.38667 144.876952 
L 360.409092 147.418164 
L 360.431648 147.418164 
L 360.544566 149.959376 
L 360.657262 149.959376 
L 360.792881 144.876952 
L 361.040955 144.876952 
L 361.153607 147.418164 
L 361.288974 142.335741 
L 361.334097 142.335741 
L 361.469462 137.253317 
L 361.582388 137.253317 
L 361.695076 134.712105 
L 361.717725 134.712105 
L 361.808041 137.253317 
L 361.943433 132.170894 
L 361.965809 134.712105 
L 362.033657 132.170894 
L 362.056056 132.170894 
L 362.101175 129.629682 
L 362.1463 132.170894 
L 362.169009 132.170894 
L 362.259247 127.08847 
L 362.281668 129.629682 
L 362.394592 132.170894 
L 362.462158 132.170894 
L 362.687769 139.794529 
L 363.161653 139.794529 
L 363.206812 142.335741 
L 363.251913 139.794529 
L 363.297039 139.794529 
L 363.40973 137.253317 
L 363.567791 137.253317 
L 363.635345 134.712105 
L 363.658062 137.253317 
L 363.72559 137.253317 
L 363.770854 134.712105 
L 363.815831 137.253317 
L 364.28973 137.253317 
L 364.402425 134.712105 
L 364.515369 134.712105 
L 364.628254 137.253317 
L 364.763405 137.253317 
L 364.876344 134.712105 
L 365.259747 134.712105 
L 365.372629 137.253317 
L 365.801215 137.253317 
L 365.869021 134.712105 
L 365.981705 134.712105 
L 366.09467 132.170894 
L 366.365284 132.170894 
L 366.500704 127.08847 
L 366.749029 127.08847 
L 366.861726 124.547258 
L 367.109765 124.547258 
L 367.222626 127.08847 
L 367.425621 127.08847 
L 367.470743 124.547258 
L 367.515864 127.08847 
L 367.944683 127.08847 
L 368.057337 129.629682 
L 368.10246 129.629682 
L 368.170291 127.08847 
L 368.192701 129.629682 
L 368.28295 129.629682 
L 368.395906 132.170894 
L 368.418314 132.170894 
L 368.553682 129.629682 
L 368.621534 129.629682 
L 368.68905 132.170894 
L 368.711724 129.629682 
L 369.208155 129.629682 
L 369.320763 132.170894 
L 369.388596 132.170894 
L 369.501254 134.712105 
L 369.546376 134.712105 
L 369.636622 132.170894 
L 369.749436 134.712105 
L 369.930052 134.712105 
L 370.065442 129.629682 
L 370.110518 129.629682 
L 370.223216 127.08847 
L 370.245873 127.08847 
L 370.358582 124.547258 
L 370.584458 124.547258 
L 370.697157 122.006047 
L 370.877628 122.006047 
L 370.900053 124.547258 
L 370.967883 122.006047 
L 371.351279 122.006047 
L 371.486648 116.923623 
L 372.028119 116.923623 
L 372.141063 119.464835 
L 372.547184 119.464835 
L 372.659836 116.923623 
L 372.795204 116.923623 
L 372.908113 114.382411 
L 373.156185 114.382411 
L 373.29155 119.464835 
L 373.381795 119.464835 
L 373.472041 122.006047 
L 373.584877 119.464835 
L 373.878144 119.464835 
L 373.968622 116.923623 
L 374.013516 116.923623 
L 374.081323 119.464835 
L 374.103762 116.923623 
L 374.216739 116.923623 
L 374.352082 122.006047 
L 374.848284 122.006047 
L 374.983759 116.923623 
L 375.074039 116.923623 
L 375.186702 119.464835 
L 375.863542 119.464835 
L 375.931337 116.923623 
L 375.953786 119.464835 
L 376.179399 119.464835 
L 376.292363 122.006047 
L 376.382624 122.006047 
L 376.562974 111.8412 
L 376.608183 111.8412 
L 376.720871 109.299988 
L 377.104511 109.299988 
L 377.217224 111.8412 
L 377.285035 111.8412 
L 377.397709 114.382411 
L 377.46553 114.382411 
L 377.578205 116.923623 
L 377.758693 116.923623 
L 377.871604 114.382411 
L 377.984307 116.923623 
L 378.187434 116.923623 
L 378.300167 114.382411 
L 378.683727 114.382411 
L 378.796515 116.923623 
L 378.819241 116.923623 
L 378.931882 119.464835 
L 379.022126 119.464835 
L 379.157498 114.382411 
L 379.450947 114.382411 
L 379.563602 116.923623 
L 379.834337 116.923623 
L 379.947135 114.382411 
L 380.218016 114.382411 
L 380.330689 111.8412 
L 380.511176 111.8412 
L 380.624123 109.299988 
L 380.827035 109.299988 
L 380.9851 101.676353 
L 381.007527 101.676353 
L 381.120483 99.135141 
L 381.233141 99.135141 
L 381.278263 96.593929 
L 381.323387 99.135141 
L 381.594122 99.135141 
L 381.661825 101.676353 
L 381.684369 99.135141 
L 381.819735 99.135141 
L 381.955104 101.676353 
L 382.180716 101.676353 
L 382.29372 99.135141 
L 382.451453 99.135141 
L 382.586822 101.676353 
L 382.631943 101.676353 
L 382.744897 99.135141 
L 382.857558 99.135141 
L 382.970454 101.676353 
L 383.421725 101.676353 
L 383.534398 104.217564 
L 383.579519 104.217564 
L 383.692434 101.676353 
L 384.1437 101.676353 
L 384.25636 99.135141 
L 385.29418 99.135141 
L 385.407135 96.593929 
L 385.519795 96.593929 
L 385.632768 94.052717 
L 385.745409 94.052717 
L 385.881003 99.135141 
L 385.925896 99.135141 
L 386.038847 96.593929 
L 386.332 96.593929 
L 386.444965 99.135141 
L 386.535184 99.135141 
L 386.625438 96.593929 
L 386.738292 99.135141 
L 387.076695 99.135141 
L 387.189332 96.593929 
L 387.347391 96.593929 
L 387.46007 94.052717 
L 387.505193 94.052717 
L 387.618019 96.593929 
L 387.640561 96.593929 
L 387.753472 99.135141 
L 387.888839 99.135141 
L 388.001758 101.676353 
L 388.294886 101.676353 
L 388.407644 99.135141 
L 388.497887 99.135141 
L 388.61087 96.593929 
L 388.701054 96.593929 
L 388.813748 99.135141 
L 388.971814 99.135141 
L 389.084485 101.676353 
L 389.152305 101.676353 
L 389.264977 99.135141 
L 389.648633 99.135141 
L 389.761323 96.593929 
L 390.03206 96.593929 
L 390.077181 94.052717 
L 390.122508 96.593929 
L 390.235249 96.593929 
L 390.347919 99.135141 
L 390.483282 99.135141 
L 390.596114 101.676353 
L 390.641336 101.676353 
L 390.754022 104.217564 
L 390.776732 104.217564 
L 390.934513 111.8412 
L 390.979886 111.8412 
L 391.160126 116.923623 
L 391.182782 116.923623 
L 391.318204 122.006047 
L 391.453462 122.006047 
L 391.588908 127.08847 
L 392.107698 127.08847 
L 392.310809 139.794529 
L 392.355986 139.794529 
L 392.513797 129.629682 
L 392.649164 137.253317 
L 392.874775 137.253317 
L 392.987641 139.794529 
L 393.190631 139.794529 
L 393.213324 137.253317 
L 393.280875 139.794529 
L 393.393862 139.794529 
L 393.506486 144.876952 
L 393.77722 134.712105 
L 393.912589 134.712105 
L 394.002832 132.170894 
L 394.115762 134.712105 
L 394.138201 134.712105 
L 394.296287 127.08847 
L 394.454057 127.08847 
L 394.566969 124.547258 
L 394.950407 124.547258 
L 395.063353 127.08847 
L 395.198705 127.08847 
L 395.311384 129.629682 
L 395.356509 129.629682 
L 395.46942 127.08847 
L 395.627244 139.794529 
L 395.762612 137.253317 
L 395.785326 137.253317 
L 395.830343 139.794529 
L 395.875569 137.253317 
L 395.988224 134.712105 
L 396.033346 134.712105 
L 396.191452 139.794529 
L 396.326823 134.712105 
L 396.417027 137.253317 
L 396.529692 134.712105 
L 396.552317 134.712105 
L 396.574815 132.170894 
L 396.642677 134.712105 
L 396.665061 134.712105 
L 396.800427 139.794529 
L 396.868265 137.253317 
L 396.890672 139.794529 
L 397.139017 139.794529 
L 397.161404 142.335741 
L 397.229257 139.794529 
L 397.342116 137.253317 
L 397.387018 137.253317 
L 397.499931 134.712105 
L 397.567507 134.712105 
L 397.702873 139.794529 
L 397.815723 137.253317 
L 397.860926 137.253317 
L 397.973607 139.794529 
L 398.018731 139.794529 
L 398.131672 137.253317 
L 398.154098 137.253317 
L 398.424832 127.08847 
L 399.101667 127.08847 
L 399.214625 124.547258 
L 400.410216 124.547258 
L 400.523081 122.006047 
L 400.658436 122.006047 
L 400.771193 119.464835 
L 400.816318 119.464835 
L 400.929219 116.923623 
L 400.996809 116.923623 
L 401.019442 119.464835 
L 401.087055 116.923623 
L 401.22242 116.923623 
L 401.335297 114.382411 
L 401.357789 114.382411 
L 401.493157 109.299988 
L 401.628525 109.299988 
L 401.741375 106.758776 
L 401.89926 106.758776 
L 401.989504 109.299988 
L 402.034615 109.299988 
L 402.057226 106.758776 
L 402.124866 109.299988 
L 402.16999 109.299988 
L 402.282897 111.8412 
L 402.418252 111.8412 
L 402.530969 109.299988 
L 402.643885 109.299988 
L 402.801703 101.676353 
L 403.343174 101.676353 
L 403.456114 104.217564 
L 403.568784 104.217564 
L 403.704295 99.135141 
L 403.749274 99.135141 
L 403.88464 94.052717 
L 404.020009 94.052717 
L 404.110256 96.593929 
L 404.200501 96.593929 
L 404.313384 94.052717 
L 404.335867 94.052717 
L 404.448732 96.593929 
L 404.764656 96.593929 
L 404.877337 94.052717 
L 405.193194 94.052717 
L 405.306148 91.511506 
L 405.576817 91.511506 
L 405.644419 88.970294 
L 405.667053 91.511506 
L 405.87003 91.511506 
L 406.005399 86.429082 
L 406.208561 86.429082 
L 406.343932 81.346659 
L 406.704791 81.346659 
L 406.817601 78.805447 
L 406.930556 78.805447 
L 407.043213 81.346659 
L 407.562137 81.346659 
L 407.674928 78.805447 
L 407.900541 78.805447 
L 408.013418 81.346659 
L 408.08103 81.346659 
L 408.193958 83.88787 
L 408.239068 83.88787 
L 408.351765 81.346659 
L 408.622501 81.346659 
L 408.73542 78.805447 
L 408.825543 78.805447 
L 408.938359 76.264235 
L 409.931054 76.264235 
L 410.044009 73.723023 
L 410.74326 73.723023 
L 410.856192 71.181812 
L 411.555463 71.181812 
L 411.668366 68.6406 
L 412.119606 68.6406 
L 412.232301 66.099388 
L 412.254924 66.099388 
L 412.36767 68.6406 
L 412.480557 68.6406 
L 412.593283 66.099388 
L 413.112268 66.099388 
L 413.224997 63.558176 
L 414.240401 63.558176 
L 414.353061 61.016965 
L 419.000897 61.016965 
L 419.113583 58.475753 
L 421.098963 58.475753 
L 421.211696 55.934541 
L 425.069805 55.934541 
L 425.182478 53.393329 
L 428.747159 53.393329 
L 428.882526 50.852118 
L 432.966226 50.852118 
L 433.07892 53.393329 
L 433.191835 53.393329 
L 433.304531 55.934541 
L 433.440083 55.934541 
L 433.552786 58.475753 
L 433.710631 58.475753 
L 433.823526 61.016965 
L 433.845999 61.016965 
L 434.026489 66.099388 
L 434.071611 66.099388 
L 434.184559 63.558176 
L 434.252102 63.558176 
L 434.297483 66.099388 
L 434.342346 63.558176 
L 434.455299 63.558176 
L 434.590657 68.6406 
L 434.635746 68.6406 
L 434.771076 73.723023 
L 434.906504 73.723023 
L 435.019182 76.264235 
L 436.508218 76.264235 
L 436.621129 73.723023 
L 436.778954 73.723023 
L 436.891824 76.264235 
L 437.74917 76.264235 
L 437.907011 83.88787 
L 437.929695 83.88787 
L 438.065089 91.511506 
L 438.177747 88.970294 
L 438.290704 88.970294 
L 438.426055 94.052717 
L 438.561294 94.052717 
L 438.606517 91.511506 
L 438.651613 94.052717 
L 438.832152 94.052717 
L 438.877257 91.511506 
L 438.922366 94.052717 
L 439.102902 94.052717 
L 439.125315 91.511506 
L 439.193102 94.052717 
L 439.238263 94.052717 
L 439.350927 96.593929 
L 439.441172 96.593929 
L 439.554107 99.135141 
L 439.64435 99.135141 
L 439.779705 94.052717 
L 439.802379 94.052717 
L 439.960211 114.382411 
L 440.027764 111.8412 
L 440.095528 109.299988 
L 440.118008 111.8412 
L 440.185751 111.8412 
L 440.298495 114.382411 
L 440.343617 114.382411 
L 440.411432 111.8412 
L 440.433863 114.382411 
L 440.45653 114.382411 
L 440.59192 109.299988 
L 440.614351 109.299988 
L 440.682046 106.758776 
L 440.704595 109.299988 
L 440.885085 119.464835 
L 440.930206 119.464835 
L 441.043106 122.006047 
L 441.15582 119.464835 
L 441.200942 119.464835 
L 441.291184 122.006047 
L 441.471675 111.8412 
L 441.652165 106.758776 
L 441.674868 106.758776 
L 441.81018 94.052717 
L 441.877777 94.052717 
L 441.990676 91.511506 
L 442.171203 91.511506 
L 442.283878 88.970294 
L 442.306519 88.970294 
L 442.464366 81.346659 
L 442.50949 81.346659 
L 442.644857 76.264235 
L 443.344328 76.264235 
L 443.457055 73.723023 
L 443.705328 73.723023 
L 443.818037 71.181812 
L 444.246793 71.181812 
L 444.359503 68.6406 
L 444.720481 68.6406 
L 444.833385 66.099388 
L 445.059039 66.099388 
L 445.171704 63.558176 
L 445.194375 63.558176 
L 445.307236 61.016965 
L 445.420015 61.016965 
L 445.532687 58.475753 
L 445.82611 58.475753 
L 445.938789 55.934541 
L 446.390011 55.934541 
L 446.502936 53.393329 
L 447.563192 53.393329 
L 447.766307 86.429082 
L 447.924169 99.135141 
L 448.082255 106.758776 
L 448.194906 106.758776 
L 448.330273 101.676353 
L 448.42052 101.676353 
L 448.623673 88.970294 
L 448.646132 88.970294 
L 448.849279 76.264235 
L 448.871743 76.264235 
L 449.00711 71.181812 
L 449.097355 71.181812 
L 449.210216 68.6406 
L 449.277846 68.6406 
L 449.390739 66.099388 
L 449.796865 66.099388 
L 449.909558 63.558176 
L 449.954682 63.558176 
L 450 61.016965 
L 450 61.016965 
" clip-path="url(#pe0ab180b8d)" style="fill: none; stroke: #ff7f0e; stroke-width: 1.5; stroke-linecap: square"/>
   </g>
   <g id="patch_3">
    <path d="M 51.05 279.561175 
L 51.05 25.44 
" style="fill: none; stroke: #000000; stroke-width: 0.8; stroke-linejoin: miter; stroke-linecap: square"/>
   </g>
   <g id="patch_4">
    <path d="M 450 279.561175 
L 450 25.44 
" style="fill: none; stroke: #000000; stroke-width: 0.8; stroke-linejoin: miter; stroke-linecap: square"/>
   </g>
   <g id="patch_5">
    <path d="M 51.05 279.561175 
L 450 279.561175 
" style="fill: none; stroke: #000000; stroke-width: 0.8; stroke-linejoin: miter; stroke-linecap: square"/>
   </g>
   <g id="patch_6">
    <path d="M 51.05 25.44 
L 450 25.44 
" style="fill: none; stroke: #000000; stroke-width: 0.8; stroke-linejoin: miter; stroke-linecap: square"/>
   </g>
   <g id="text_17">
    <!-- November 2023 -->
    <g transform="translate(202.133125 19.44) scale(0.12 -0.12)">
     <defs>
      <path id="DejaVuSans-4e" d="M 628 4666 
L 1478 4666 
L 3547 763 
L 3547 4666 
L 4159 4666 
L 4159 0 
L 3309 0 
L 1241 3903 
L 1241 0 
L 628 0 
L 628 4666 
z
" transform="scale(0.015625)"/>
      <path id="DejaVuSans-6f" d="M 1959 3097 
Q 1497 3097 1228 2736 
Q 959 2375 959 1747 
Q 959 1119 1226 758 
Q 1494 397 1959 397 
Q 2419 397 2687 759 
Q 2956 1122 2956 1747 
Q 2956 2369 2687 2733 
Q 2419 3097 1959 3097 
z
M 1959 3584 
Q 2709 3584 3137 3096 
Q 3566 2609 3566 1747 
Q 3566 888 3137 398 
Q 2709 -91 1959 -91 
Q 1206 -91 779 398 
Q 353 888 353 1747 
Q 353 2609 779 3096 
Q 1206 3584 1959 3584 
z
" transform="scale(0.015625)"/>
      <path id="DejaVuSans-76" d="M 191 3500 
L 800 3500 
L 1894 563 
L 2988 3500 
L 3597 3500 
L 2284 0 
L 1503 0 
L 191 3500 
z
" transform="scale(0.015625)"/>
      <path id="DejaVuSans-65" d="M 3597 1894 
L 3597 1613 
L 953 1613 
Q 991 1019 1311 708 
Q 1631 397 2203 397 
Q 2534 397 2845 478 
Q 3156 559 3463 722 
L 3463 178 
Q 3153 47 2828 -22 
Q 2503 -91 2169 -91 
Q 1331 -91 842 396 
Q 353 884 353 1716 
Q 353 2575 817 3079 
Q 1281 3584 2069 3584 
Q 2775 3584 3186 3129 
Q 3597 2675 3597 1894 
z
M 3022 2063 
Q 3016 2534 2758 2815 
Q 2500 3097 2075 3097 
Q 1594 3097 1305 2825 
Q 1016 2553 972 2059 
L 3022 2063 
z
" transform="scale(0.015625)"/>
      <path id="DejaVuSans-62" d="M 3116 1747 
Q 3116 2381 2855 2742 
Q 2594 3103 2138 3103 
Q 1681 3103 1420 2742 
Q 1159 2381 1159 1747 
Q 1159 1113 1420 752 
Q 1681 391 2138 391 
Q 2594 391 2855 752 
Q 3116 1113 3116 1747 
z
M 1159 2969 
Q 1341 3281 1617 3432 
Q 1894 3584 2278 3584 
Q 2916 3584 3314 3078 
Q 3713 2572 3713 1747 
Q 3713 922 3314 415 
Q 2916 -91 2278 -91 
Q 1894 -91 1617 61 
Q 1341 213 1159 525 
L 1159 0 
L 581 0 
L 581 4863 
L 1159 4863 
L 1159 2969 
z
" transform="scale(0.015625)"/>
      <path id="DejaVuSans-72" d="M 2631 2963 
Q 2534 3019 2420 3045 
Q 2306 3072 2169 3072 
Q 1681 3072 1420 2755 
Q 1159 2438 1159 1844 
L 1159 0 
L 581 0 
L 581 3500 
L 1159 3500 
L 1159 2956 
Q 1341 3275 1631 3429 
Q 1922 3584 2338 3584 
Q 2397 3584 2469 3576 
Q 2541 3569 2628 3553 
L 2631 2963 
z
" transform="scale(0.015625)"/>
     </defs>
     <use xlink:href="#DejaVuSans-4e"/>
     <use xlink:href="#DejaVuSans-6f" x="74.804688"/>
     <use xlink:href="#DejaVuSans-76" x="135.986328"/>
     <use xlink:href="#DejaVuSans-65" x="195.166016"/>
     <use xlink:href="#DejaVuSans-6d" x="256.689453"/>
     <use xlink:href="#DejaVuSans-62" x="354.101562"/>
     <use xlink:href="#DejaVuSans-65" x="417.578125"/>
     <use xlink:href="#DejaVuSans-72" x="479.101562"/>
     <use xlink:href="#DejaVuSans-20" x="520.214844"/>
     <use xlink:href="#DejaVuSans-32" x="552.001953"/>
     <use xlink:href="#DejaVuSans-30" x="615.625"/>
     <use xlink:href="#DejaVuSans-32" x="679.248047"/>
     <use xlink:href="#DejaVuSans-33" x="742.871094"/>
    </g>
   </g>
  </g>
 </g>
 <defs>
  <clipPath id="pe0ab180b8d">
   <rect x="51.05" y="25.44" width="398.95" height="254.121175"/>
  </clipPath>
 </defs>
</svg>
