<?xml version="1.0" encoding="utf-8" standalone="no"?>
<!DOCTYPE svg PUBLIC "-//W3C//DTD SVG 1.1//EN"
  "http://www.w3.org/Graphics/SVG/1.1/DTD/svg11.dtd">
<svg xmlns:xlink="http://www.w3.org/1999/xlink" width="460.8pt" height="345.6pt" viewBox="0 0 460.8 345.6" xmlns="http://www.w3.org/2000/svg" version="1.1">
 <metadata>
  <rdf:RDF xmlns:dc="http://purl.org/dc/elements/1.1/" xmlns:cc="http://creativecommons.org/ns#" xmlns:rdf="http://www.w3.org/1999/02/22-rdf-syntax-ns#">
   <cc:Work>
    <dc:type rdf:resource="http://purl.org/dc/dcmitype/StillImage"/>
    <dc:date>2023-11-09T23:43:59.462796</dc:date>
    <dc:format>image/svg+xml</dc:format>
    <dc:creator>
     <cc:Agent>
      <dc:title>Matplotlib v3.6.3, https://matplotlib.org/</dc:title>
     </cc:Agent>
    </dc:creator>
   </cc:Work>
  </rdf:RDF>
 </metadata>
 <defs>
  <style type="text/css">*{stroke-linejoin: round; stroke-linecap: butt}</style>
 </defs>
 <g id="figure_1">
  <g id="patch_1">
   <path d="M 0 345.6 
L 460.8 345.6 
L 460.8 0 
L 0 0 
z
" style="fill: #ffffff"/>
  </g>
  <g id="axes_1">
   <g id="patch_2">
    <path d="M 51.05 279.561175 
L 450 279.561175 
L 450 25.44 
L 51.05 25.44 
z
" style="fill: #ffffff"/>
   </g>
   <g id="matplotlib.axis_1">
    <g id="xtick_1">
     <g id="line2d_1">
      <path d="M 95.41756 279.561175 
L 95.41756 25.44 
" clip-path="url(#p4ea9a67b71)" style="fill: none; stroke: #b0b0b0; stroke-width: 0.8; stroke-linecap: square"/>
     </g>
     <g id="line2d_2">
      <defs>
       <path id="mf5f0a10b78" d="M 0 0 
L 0 3.5 
" style="stroke: #000000; stroke-width: 0.8"/>
      </defs>
      <g>
       <use xlink:href="#mf5f0a10b78" x="95.41756" y="279.561175" style="stroke: #000000; stroke-width: 0.8"/>
      </g>
     </g>
     <g id="text_1">
      <!-- 2023-11-02 -->
      <g transform="translate(52.853047 333.028035) rotate(-45) scale(0.1 -0.1)">
       <defs>
        <path id="DejaVuSans-32" d="M 1228 531 
L 3431 531 
L 3431 0 
L 469 0 
L 469 531 
Q 828 903 1448 1529 
Q 2069 2156 2228 2338 
Q 2531 2678 2651 2914 
Q 2772 3150 2772 3378 
Q 2772 3750 2511 3984 
Q 2250 4219 1831 4219 
Q 1534 4219 1204 4116 
Q 875 4013 500 3803 
L 500 4441 
Q 881 4594 1212 4672 
Q 1544 4750 1819 4750 
Q 2544 4750 2975 4387 
Q 3406 4025 3406 3419 
Q 3406 3131 3298 2873 
Q 3191 2616 2906 2266 
Q 2828 2175 2409 1742 
Q 1991 1309 1228 531 
z
" transform="scale(0.015625)"/>
        <path id="DejaVuSans-30" d="M 2034 4250 
Q 1547 4250 1301 3770 
Q 1056 3291 1056 2328 
Q 1056 1369 1301 889 
Q 1547 409 2034 409 
Q 2525 409 2770 889 
Q 3016 1369 3016 2328 
Q 3016 3291 2770 3770 
Q 2525 4250 2034 4250 
z
M 2034 4750 
Q 2819 4750 3233 4129 
Q 3647 3509 3647 2328 
Q 3647 1150 3233 529 
Q 2819 -91 2034 -91 
Q 1250 -91 836 529 
Q 422 1150 422 2328 
Q 422 3509 836 4129 
Q 1250 4750 2034 4750 
z
" transform="scale(0.015625)"/>
        <path id="DejaVuSans-33" d="M 2597 2516 
Q 3050 2419 3304 2112 
Q 3559 1806 3559 1356 
Q 3559 666 3084 287 
Q 2609 -91 1734 -91 
Q 1441 -91 1130 -33 
Q 819 25 488 141 
L 488 750 
Q 750 597 1062 519 
Q 1375 441 1716 441 
Q 2309 441 2620 675 
Q 2931 909 2931 1356 
Q 2931 1769 2642 2001 
Q 2353 2234 1838 2234 
L 1294 2234 
L 1294 2753 
L 1863 2753 
Q 2328 2753 2575 2939 
Q 2822 3125 2822 3475 
Q 2822 3834 2567 4026 
Q 2313 4219 1838 4219 
Q 1578 4219 1281 4162 
Q 984 4106 628 3988 
L 628 4550 
Q 988 4650 1302 4700 
Q 1616 4750 1894 4750 
Q 2613 4750 3031 4423 
Q 3450 4097 3450 3541 
Q 3450 3153 3228 2886 
Q 3006 2619 2597 2516 
z
" transform="scale(0.015625)"/>
        <path id="DejaVuSans-2d" d="M 313 2009 
L 1997 2009 
L 1997 1497 
L 313 1497 
L 313 2009 
z
" transform="scale(0.015625)"/>
        <path id="DejaVuSans-31" d="M 794 531 
L 1825 531 
L 1825 4091 
L 703 3866 
L 703 4441 
L 1819 4666 
L 2450 4666 
L 2450 531 
L 3481 531 
L 3481 0 
L 794 0 
L 794 531 
z
" transform="scale(0.015625)"/>
       </defs>
       <use xlink:href="#DejaVuSans-32"/>
       <use xlink:href="#DejaVuSans-30" x="63.623047"/>
       <use xlink:href="#DejaVuSans-32" x="127.246094"/>
       <use xlink:href="#DejaVuSans-33" x="190.869141"/>
       <use xlink:href="#DejaVuSans-2d" x="254.492188"/>
       <use xlink:href="#DejaVuSans-31" x="290.576172"/>
       <use xlink:href="#DejaVuSans-31" x="354.199219"/>
       <use xlink:href="#DejaVuSans-2d" x="417.822266"/>
       <use xlink:href="#DejaVuSans-30" x="453.90625"/>
       <use xlink:href="#DejaVuSans-32" x="517.529297"/>
      </g>
     </g>
    </g>
    <g id="xtick_2">
     <g id="line2d_3">
      <path d="M 139.808737 279.561175 
L 139.808737 25.44 
" clip-path="url(#p4ea9a67b71)" style="fill: none; stroke: #b0b0b0; stroke-width: 0.8; stroke-linecap: square"/>
     </g>
     <g id="line2d_4">
      <g>
       <use xlink:href="#mf5f0a10b78" x="139.808737" y="279.561175" style="stroke: #000000; stroke-width: 0.8"/>
      </g>
     </g>
     <g id="text_2">
      <!-- 2023-11-03 -->
      <g transform="translate(97.244224 333.028035) rotate(-45) scale(0.1 -0.1)">
       <use xlink:href="#DejaVuSans-32"/>
       <use xlink:href="#DejaVuSans-30" x="63.623047"/>
       <use xlink:href="#DejaVuSans-32" x="127.246094"/>
       <use xlink:href="#DejaVuSans-33" x="190.869141"/>
       <use xlink:href="#DejaVuSans-2d" x="254.492188"/>
       <use xlink:href="#DejaVuSans-31" x="290.576172"/>
       <use xlink:href="#DejaVuSans-31" x="354.199219"/>
       <use xlink:href="#DejaVuSans-2d" x="417.822266"/>
       <use xlink:href="#DejaVuSans-30" x="453.90625"/>
       <use xlink:href="#DejaVuSans-33" x="517.529297"/>
      </g>
     </g>
    </g>
    <g id="xtick_3">
     <g id="line2d_5">
      <path d="M 184.199914 279.561175 
L 184.199914 25.44 
" clip-path="url(#p4ea9a67b71)" style="fill: none; stroke: #b0b0b0; stroke-width: 0.8; stroke-linecap: square"/>
     </g>
     <g id="line2d_6">
      <g>
       <use xlink:href="#mf5f0a10b78" x="184.199914" y="279.561175" style="stroke: #000000; stroke-width: 0.8"/>
      </g>
     </g>
     <g id="text_3">
      <!-- 2023-11-04 -->
      <g transform="translate(141.6354 333.028035) rotate(-45) scale(0.1 -0.1)">
       <defs>
        <path id="DejaVuSans-34" d="M 2419 4116 
L 825 1625 
L 2419 1625 
L 2419 4116 
z
M 2253 4666 
L 3047 4666 
L 3047 1625 
L 3713 1625 
L 3713 1100 
L 3047 1100 
L 3047 0 
L 2419 0 
L 2419 1100 
L 313 1100 
L 313 1709 
L 2253 4666 
z
" transform="scale(0.015625)"/>
       </defs>
       <use xlink:href="#DejaVuSans-32"/>
       <use xlink:href="#DejaVuSans-30" x="63.623047"/>
       <use xlink:href="#DejaVuSans-32" x="127.246094"/>
       <use xlink:href="#DejaVuSans-33" x="190.869141"/>
       <use xlink:href="#DejaVuSans-2d" x="254.492188"/>
       <use xlink:href="#DejaVuSans-31" x="290.576172"/>
       <use xlink:href="#DejaVuSans-31" x="354.199219"/>
       <use xlink:href="#DejaVuSans-2d" x="417.822266"/>
       <use xlink:href="#DejaVuSans-30" x="453.90625"/>
       <use xlink:href="#DejaVuSans-34" x="517.529297"/>
      </g>
     </g>
    </g>
    <g id="xtick_4">
     <g id="line2d_7">
      <path d="M 228.591091 279.561175 
L 228.591091 25.44 
" clip-path="url(#p4ea9a67b71)" style="fill: none; stroke: #b0b0b0; stroke-width: 0.8; stroke-linecap: square"/>
     </g>
     <g id="line2d_8">
      <g>
       <use xlink:href="#mf5f0a10b78" x="228.591091" y="279.561175" style="stroke: #000000; stroke-width: 0.8"/>
      </g>
     </g>
     <g id="text_4">
      <!-- 2023-11-05 -->
      <g transform="translate(186.026577 333.028035) rotate(-45) scale(0.1 -0.1)">
       <defs>
        <path id="DejaVuSans-35" d="M 691 4666 
L 3169 4666 
L 3169 4134 
L 1269 4134 
L 1269 2991 
Q 1406 3038 1543 3061 
Q 1681 3084 1819 3084 
Q 2600 3084 3056 2656 
Q 3513 2228 3513 1497 
Q 3513 744 3044 326 
Q 2575 -91 1722 -91 
Q 1428 -91 1123 -41 
Q 819 9 494 109 
L 494 744 
Q 775 591 1075 516 
Q 1375 441 1709 441 
Q 2250 441 2565 725 
Q 2881 1009 2881 1497 
Q 2881 1984 2565 2268 
Q 2250 2553 1709 2553 
Q 1456 2553 1204 2497 
Q 953 2441 691 2322 
L 691 4666 
z
" transform="scale(0.015625)"/>
       </defs>
       <use xlink:href="#DejaVuSans-32"/>
       <use xlink:href="#DejaVuSans-30" x="63.623047"/>
       <use xlink:href="#DejaVuSans-32" x="127.246094"/>
       <use xlink:href="#DejaVuSans-33" x="190.869141"/>
       <use xlink:href="#DejaVuSans-2d" x="254.492188"/>
       <use xlink:href="#DejaVuSans-31" x="290.576172"/>
       <use xlink:href="#DejaVuSans-31" x="354.199219"/>
       <use xlink:href="#DejaVuSans-2d" x="417.822266"/>
       <use xlink:href="#DejaVuSans-30" x="453.90625"/>
       <use xlink:href="#DejaVuSans-35" x="517.529297"/>
      </g>
     </g>
    </g>
    <g id="xtick_5">
     <g id="line2d_9">
      <path d="M 272.982268 279.561175 
L 272.982268 25.44 
" clip-path="url(#p4ea9a67b71)" style="fill: none; stroke: #b0b0b0; stroke-width: 0.8; stroke-linecap: square"/>
     </g>
     <g id="line2d_10">
      <g>
       <use xlink:href="#mf5f0a10b78" x="272.982268" y="279.561175" style="stroke: #000000; stroke-width: 0.8"/>
      </g>
     </g>
     <g id="text_5">
      <!-- 2023-11-06 -->
      <g transform="translate(230.417754 333.028035) rotate(-45) scale(0.1 -0.1)">
       <defs>
        <path id="DejaVuSans-36" d="M 2113 2584 
Q 1688 2584 1439 2293 
Q 1191 2003 1191 1497 
Q 1191 994 1439 701 
Q 1688 409 2113 409 
Q 2538 409 2786 701 
Q 3034 994 3034 1497 
Q 3034 2003 2786 2293 
Q 2538 2584 2113 2584 
z
M 3366 4563 
L 3366 3988 
Q 3128 4100 2886 4159 
Q 2644 4219 2406 4219 
Q 1781 4219 1451 3797 
Q 1122 3375 1075 2522 
Q 1259 2794 1537 2939 
Q 1816 3084 2150 3084 
Q 2853 3084 3261 2657 
Q 3669 2231 3669 1497 
Q 3669 778 3244 343 
Q 2819 -91 2113 -91 
Q 1303 -91 875 529 
Q 447 1150 447 2328 
Q 447 3434 972 4092 
Q 1497 4750 2381 4750 
Q 2619 4750 2861 4703 
Q 3103 4656 3366 4563 
z
" transform="scale(0.015625)"/>
       </defs>
       <use xlink:href="#DejaVuSans-32"/>
       <use xlink:href="#DejaVuSans-30" x="63.623047"/>
       <use xlink:href="#DejaVuSans-32" x="127.246094"/>
       <use xlink:href="#DejaVuSans-33" x="190.869141"/>
       <use xlink:href="#DejaVuSans-2d" x="254.492188"/>
       <use xlink:href="#DejaVuSans-31" x="290.576172"/>
       <use xlink:href="#DejaVuSans-31" x="354.199219"/>
       <use xlink:href="#DejaVuSans-2d" x="417.822266"/>
       <use xlink:href="#DejaVuSans-30" x="453.90625"/>
       <use xlink:href="#DejaVuSans-36" x="517.529297"/>
      </g>
     </g>
    </g>
    <g id="xtick_6">
     <g id="line2d_11">
      <path d="M 317.373445 279.561175 
L 317.373445 25.44 
" clip-path="url(#p4ea9a67b71)" style="fill: none; stroke: #b0b0b0; stroke-width: 0.8; stroke-linecap: square"/>
     </g>
     <g id="line2d_12">
      <g>
       <use xlink:href="#mf5f0a10b78" x="317.373445" y="279.561175" style="stroke: #000000; stroke-width: 0.8"/>
      </g>
     </g>
     <g id="text_6">
      <!-- 2023-11-07 -->
      <g transform="translate(274.808931 333.028035) rotate(-45) scale(0.1 -0.1)">
       <defs>
        <path id="DejaVuSans-37" d="M 525 4666 
L 3525 4666 
L 3525 4397 
L 1831 0 
L 1172 0 
L 2766 4134 
L 525 4134 
L 525 4666 
z
" transform="scale(0.015625)"/>
       </defs>
       <use xlink:href="#DejaVuSans-32"/>
       <use xlink:href="#DejaVuSans-30" x="63.623047"/>
       <use xlink:href="#DejaVuSans-32" x="127.246094"/>
       <use xlink:href="#DejaVuSans-33" x="190.869141"/>
       <use xlink:href="#DejaVuSans-2d" x="254.492188"/>
       <use xlink:href="#DejaVuSans-31" x="290.576172"/>
       <use xlink:href="#DejaVuSans-31" x="354.199219"/>
       <use xlink:href="#DejaVuSans-2d" x="417.822266"/>
       <use xlink:href="#DejaVuSans-30" x="453.90625"/>
       <use xlink:href="#DejaVuSans-37" x="517.529297"/>
      </g>
     </g>
    </g>
    <g id="xtick_7">
     <g id="line2d_13">
      <path d="M 361.764621 279.561175 
L 361.764621 25.44 
" clip-path="url(#p4ea9a67b71)" style="fill: none; stroke: #b0b0b0; stroke-width: 0.8; stroke-linecap: square"/>
     </g>
     <g id="line2d_14">
      <g>
       <use xlink:href="#mf5f0a10b78" x="361.764621" y="279.561175" style="stroke: #000000; stroke-width: 0.8"/>
      </g>
     </g>
     <g id="text_7">
      <!-- 2023-11-08 -->
      <g transform="translate(319.200108 333.028035) rotate(-45) scale(0.1 -0.1)">
       <defs>
        <path id="DejaVuSans-38" d="M 2034 2216 
Q 1584 2216 1326 1975 
Q 1069 1734 1069 1313 
Q 1069 891 1326 650 
Q 1584 409 2034 409 
Q 2484 409 2743 651 
Q 3003 894 3003 1313 
Q 3003 1734 2745 1975 
Q 2488 2216 2034 2216 
z
M 1403 2484 
Q 997 2584 770 2862 
Q 544 3141 544 3541 
Q 544 4100 942 4425 
Q 1341 4750 2034 4750 
Q 2731 4750 3128 4425 
Q 3525 4100 3525 3541 
Q 3525 3141 3298 2862 
Q 3072 2584 2669 2484 
Q 3125 2378 3379 2068 
Q 3634 1759 3634 1313 
Q 3634 634 3220 271 
Q 2806 -91 2034 -91 
Q 1263 -91 848 271 
Q 434 634 434 1313 
Q 434 1759 690 2068 
Q 947 2378 1403 2484 
z
M 1172 3481 
Q 1172 3119 1398 2916 
Q 1625 2713 2034 2713 
Q 2441 2713 2670 2916 
Q 2900 3119 2900 3481 
Q 2900 3844 2670 4047 
Q 2441 4250 2034 4250 
Q 1625 4250 1398 4047 
Q 1172 3844 1172 3481 
z
" transform="scale(0.015625)"/>
       </defs>
       <use xlink:href="#DejaVuSans-32"/>
       <use xlink:href="#DejaVuSans-30" x="63.623047"/>
       <use xlink:href="#DejaVuSans-32" x="127.246094"/>
       <use xlink:href="#DejaVuSans-33" x="190.869141"/>
       <use xlink:href="#DejaVuSans-2d" x="254.492188"/>
       <use xlink:href="#DejaVuSans-31" x="290.576172"/>
       <use xlink:href="#DejaVuSans-31" x="354.199219"/>
       <use xlink:href="#DejaVuSans-2d" x="417.822266"/>
       <use xlink:href="#DejaVuSans-30" x="453.90625"/>
       <use xlink:href="#DejaVuSans-38" x="517.529297"/>
      </g>
     </g>
    </g>
    <g id="xtick_8">
     <g id="line2d_15">
      <path d="M 406.155798 279.561175 
L 406.155798 25.44 
" clip-path="url(#p4ea9a67b71)" style="fill: none; stroke: #b0b0b0; stroke-width: 0.8; stroke-linecap: square"/>
     </g>
     <g id="line2d_16">
      <g>
       <use xlink:href="#mf5f0a10b78" x="406.155798" y="279.561175" style="stroke: #000000; stroke-width: 0.8"/>
      </g>
     </g>
     <g id="text_8">
      <!-- 2023-11-09 -->
      <g transform="translate(363.591285 333.028035) rotate(-45) scale(0.1 -0.1)">
       <defs>
        <path id="DejaVuSans-39" d="M 703 97 
L 703 672 
Q 941 559 1184 500 
Q 1428 441 1663 441 
Q 2288 441 2617 861 
Q 2947 1281 2994 2138 
Q 2813 1869 2534 1725 
Q 2256 1581 1919 1581 
Q 1219 1581 811 2004 
Q 403 2428 403 3163 
Q 403 3881 828 4315 
Q 1253 4750 1959 4750 
Q 2769 4750 3195 4129 
Q 3622 3509 3622 2328 
Q 3622 1225 3098 567 
Q 2575 -91 1691 -91 
Q 1453 -91 1209 -44 
Q 966 3 703 97 
z
M 1959 2075 
Q 2384 2075 2632 2365 
Q 2881 2656 2881 3163 
Q 2881 3666 2632 3958 
Q 2384 4250 1959 4250 
Q 1534 4250 1286 3958 
Q 1038 3666 1038 3163 
Q 1038 2656 1286 2365 
Q 1534 2075 1959 2075 
z
" transform="scale(0.015625)"/>
       </defs>
       <use xlink:href="#DejaVuSans-32"/>
       <use xlink:href="#DejaVuSans-30" x="63.623047"/>
       <use xlink:href="#DejaVuSans-32" x="127.246094"/>
       <use xlink:href="#DejaVuSans-33" x="190.869141"/>
       <use xlink:href="#DejaVuSans-2d" x="254.492188"/>
       <use xlink:href="#DejaVuSans-31" x="290.576172"/>
       <use xlink:href="#DejaVuSans-31" x="354.199219"/>
       <use xlink:href="#DejaVuSans-2d" x="417.822266"/>
       <use xlink:href="#DejaVuSans-30" x="453.90625"/>
       <use xlink:href="#DejaVuSans-39" x="517.529297"/>
      </g>
     </g>
    </g>
   </g>
   <g id="matplotlib.axis_2">
    <g id="ytick_1">
     <g id="line2d_17">
      <path d="M 51.05 246.572529 
L 450 246.572529 
" clip-path="url(#p4ea9a67b71)" style="fill: none; stroke: #b0b0b0; stroke-width: 0.8; stroke-linecap: square"/>
     </g>
     <g id="line2d_18">
      <defs>
       <path id="m2c09ae8316" d="M 0 0 
L -3.5 0 
" style="stroke: #000000; stroke-width: 0.8"/>
      </defs>
      <g>
       <use xlink:href="#m2c09ae8316" x="51.05" y="246.572529" style="stroke: #000000; stroke-width: 0.8"/>
      </g>
     </g>
     <g id="text_9">
      <!-- 340 -->
      <g transform="translate(24.9625 250.371748) scale(0.1 -0.1)">
       <use xlink:href="#DejaVuSans-33"/>
       <use xlink:href="#DejaVuSans-34" x="63.623047"/>
       <use xlink:href="#DejaVuSans-30" x="127.246094"/>
      </g>
     </g>
    </g>
    <g id="ytick_2">
     <g id="line2d_19">
      <path d="M 51.05 190.157572 
L 450 190.157572 
" clip-path="url(#p4ea9a67b71)" style="fill: none; stroke: #b0b0b0; stroke-width: 0.8; stroke-linecap: square"/>
     </g>
     <g id="line2d_20">
      <g>
       <use xlink:href="#m2c09ae8316" x="51.05" y="190.157572" style="stroke: #000000; stroke-width: 0.8"/>
      </g>
     </g>
     <g id="text_10">
      <!-- 360 -->
      <g transform="translate(24.9625 193.95679) scale(0.1 -0.1)">
       <use xlink:href="#DejaVuSans-33"/>
       <use xlink:href="#DejaVuSans-36" x="63.623047"/>
       <use xlink:href="#DejaVuSans-30" x="127.246094"/>
      </g>
     </g>
    </g>
    <g id="ytick_3">
     <g id="line2d_21">
      <path d="M 51.05 133.742614 
L 450 133.742614 
" clip-path="url(#p4ea9a67b71)" style="fill: none; stroke: #b0b0b0; stroke-width: 0.8; stroke-linecap: square"/>
     </g>
     <g id="line2d_22">
      <g>
       <use xlink:href="#m2c09ae8316" x="51.05" y="133.742614" style="stroke: #000000; stroke-width: 0.8"/>
      </g>
     </g>
     <g id="text_11">
      <!-- 380 -->
      <g transform="translate(24.9625 137.541833) scale(0.1 -0.1)">
       <use xlink:href="#DejaVuSans-33"/>
       <use xlink:href="#DejaVuSans-38" x="63.623047"/>
       <use xlink:href="#DejaVuSans-30" x="127.246094"/>
      </g>
     </g>
    </g>
    <g id="ytick_4">
     <g id="line2d_23">
      <path d="M 51.05 77.327657 
L 450 77.327657 
" clip-path="url(#p4ea9a67b71)" style="fill: none; stroke: #b0b0b0; stroke-width: 0.8; stroke-linecap: square"/>
     </g>
     <g id="line2d_24">
      <g>
       <use xlink:href="#m2c09ae8316" x="51.05" y="77.327657" style="stroke: #000000; stroke-width: 0.8"/>
      </g>
     </g>
     <g id="text_12">
      <!-- 400 -->
      <g transform="translate(24.9625 81.126876) scale(0.1 -0.1)">
       <use xlink:href="#DejaVuSans-34"/>
       <use xlink:href="#DejaVuSans-30" x="63.623047"/>
       <use xlink:href="#DejaVuSans-30" x="127.246094"/>
      </g>
     </g>
    </g>
    <g id="text_13">
     <!-- Rain [mm] -->
     <g transform="translate(18.882812 178.715431) rotate(-90) scale(0.1 -0.1)">
      <defs>
       <path id="DejaVuSans-52" d="M 2841 2188 
Q 3044 2119 3236 1894 
Q 3428 1669 3622 1275 
L 4263 0 
L 3584 0 
L 2988 1197 
Q 2756 1666 2539 1819 
Q 2322 1972 1947 1972 
L 1259 1972 
L 1259 0 
L 628 0 
L 628 4666 
L 2053 4666 
Q 2853 4666 3247 4331 
Q 3641 3997 3641 3322 
Q 3641 2881 3436 2590 
Q 3231 2300 2841 2188 
z
M 1259 4147 
L 1259 2491 
L 2053 2491 
Q 2509 2491 2742 2702 
Q 2975 2913 2975 3322 
Q 2975 3731 2742 3939 
Q 2509 4147 2053 4147 
L 1259 4147 
z
" transform="scale(0.015625)"/>
       <path id="DejaVuSans-61" d="M 2194 1759 
Q 1497 1759 1228 1600 
Q 959 1441 959 1056 
Q 959 750 1161 570 
Q 1363 391 1709 391 
Q 2188 391 2477 730 
Q 2766 1069 2766 1631 
L 2766 1759 
L 2194 1759 
z
M 3341 1997 
L 3341 0 
L 2766 0 
L 2766 531 
Q 2569 213 2275 61 
Q 1981 -91 1556 -91 
Q 1019 -91 701 211 
Q 384 513 384 1019 
Q 384 1609 779 1909 
Q 1175 2209 1959 2209 
L 2766 2209 
L 2766 2266 
Q 2766 2663 2505 2880 
Q 2244 3097 1772 3097 
Q 1472 3097 1187 3025 
Q 903 2953 641 2809 
L 641 3341 
Q 956 3463 1253 3523 
Q 1550 3584 1831 3584 
Q 2591 3584 2966 3190 
Q 3341 2797 3341 1997 
z
" transform="scale(0.015625)"/>
       <path id="DejaVuSans-69" d="M 603 3500 
L 1178 3500 
L 1178 0 
L 603 0 
L 603 3500 
z
M 603 4863 
L 1178 4863 
L 1178 4134 
L 603 4134 
L 603 4863 
z
" transform="scale(0.015625)"/>
       <path id="DejaVuSans-6e" d="M 3513 2113 
L 3513 0 
L 2938 0 
L 2938 2094 
Q 2938 2591 2744 2837 
Q 2550 3084 2163 3084 
Q 1697 3084 1428 2787 
Q 1159 2491 1159 1978 
L 1159 0 
L 581 0 
L 581 3500 
L 1159 3500 
L 1159 2956 
Q 1366 3272 1645 3428 
Q 1925 3584 2291 3584 
Q 2894 3584 3203 3211 
Q 3513 2838 3513 2113 
z
" transform="scale(0.015625)"/>
       <path id="DejaVuSans-20" transform="scale(0.015625)"/>
       <path id="DejaVuSans-5b" d="M 550 4863 
L 1875 4863 
L 1875 4416 
L 1125 4416 
L 1125 -397 
L 1875 -397 
L 1875 -844 
L 550 -844 
L 550 4863 
z
" transform="scale(0.015625)"/>
       <path id="DejaVuSans-6d" d="M 3328 2828 
Q 3544 3216 3844 3400 
Q 4144 3584 4550 3584 
Q 5097 3584 5394 3201 
Q 5691 2819 5691 2113 
L 5691 0 
L 5113 0 
L 5113 2094 
Q 5113 2597 4934 2840 
Q 4756 3084 4391 3084 
Q 3944 3084 3684 2787 
Q 3425 2491 3425 1978 
L 3425 0 
L 2847 0 
L 2847 2094 
Q 2847 2600 2669 2842 
Q 2491 3084 2119 3084 
Q 1678 3084 1418 2786 
Q 1159 2488 1159 1978 
L 1159 0 
L 581 0 
L 581 3500 
L 1159 3500 
L 1159 2956 
Q 1356 3278 1631 3431 
Q 1906 3584 2284 3584 
Q 2666 3584 2933 3390 
Q 3200 3197 3328 2828 
z
" transform="scale(0.015625)"/>
       <path id="DejaVuSans-5d" d="M 1947 4863 
L 1947 -844 
L 622 -844 
L 622 -397 
L 1369 -397 
L 1369 4416 
L 622 4416 
L 622 4863 
L 1947 4863 
z
" transform="scale(0.015625)"/>
      </defs>
      <use xlink:href="#DejaVuSans-52"/>
      <use xlink:href="#DejaVuSans-61" x="67.232422"/>
      <use xlink:href="#DejaVuSans-69" x="128.511719"/>
      <use xlink:href="#DejaVuSans-6e" x="156.294922"/>
      <use xlink:href="#DejaVuSans-20" x="219.673828"/>
      <use xlink:href="#DejaVuSans-5b" x="251.460938"/>
      <use xlink:href="#DejaVuSans-6d" x="290.474609"/>
      <use xlink:href="#DejaVuSans-6d" x="387.886719"/>
      <use xlink:href="#DejaVuSans-5d" x="485.298828"/>
     </g>
    </g>
   </g>
   <g id="line2d_25">
    <path d="M 51.05 268.010213 
L 86.463997 268.010213 
L 86.587102 267.163989 
L 86.611909 267.163989 
L 86.735071 266.317764 
L 86.88304 266.317764 
L 87.006555 265.47154 
L 87.524234 265.47154 
L 87.672204 264.625315 
L 87.721527 264.625315 
L 87.845012 263.779091 
L 87.968141 263.779091 
L 88.09152 262.932867 
L 88.165435 262.932867 
L 88.288862 262.086642 
L 88.46137 262.086642 
L 88.60934 261.240418 
L 88.930163 261.240418 
L 89.053244 260.394194 
L 89.743764 260.394194 
L 89.842411 259.547969 
L 91.07548 259.547969 
L 91.198967 258.701745 
L 92.259227 258.701745 
L 92.382735 257.855521 
L 92.875948 257.855521 
L 92.999074 257.009296 
L 95.144778 257.009296 
L 95.267932 256.163072 
L 97.48747 256.163072 
L 97.610941 255.316847 
L 99.337211 255.316847 
L 99.460399 254.470623 
L 105.69984 254.470623 
L 105.823057 253.624399 
L 106.612225 253.624399 
L 106.73576 252.778174 
L 107.574152 252.778174 
L 107.697327 251.93195 
L 108.659345 251.93195 
L 108.782429 251.085726 
L 110.015499 251.085726 
L 110.138978 250.239501 
L 110.706311 250.239501 
L 110.853992 249.393277 
L 111.445871 249.393277 
L 111.569379 248.547053 
L 111.889776 248.547053 
L 112.013265 247.700828 
L 112.358544 247.700828 
L 112.481653 246.854604 
L 113.098233 246.854604 
L 113.221496 246.00838 
L 113.764045 246.00838 
L 113.887521 245.162155 
L 114.134161 245.162155 
L 114.257274 244.315931 
L 114.405243 244.315931 
L 114.553212 243.469706 
L 114.750502 243.469706 
L 114.874016 242.623482 
L 115.04644 242.623482 
L 115.19441 241.777258 
L 115.416413 241.777258 
L 115.53967 240.931033 
L 115.663181 240.931033 
L 115.786287 240.084809 
L 115.884931 240.084809 
L 116.008369 239.238585 
L 116.082226 239.238585 
L 116.205694 238.39236 
L 116.279758 238.39236 
L 116.427483 237.546136 
L 116.52613 237.546136 
L 116.649606 236.699912 
L 116.896219 236.699912 
L 117.01936 235.853687 
L 117.265976 235.853687 
L 117.389426 235.007463 
L 117.537425 235.007463 
L 117.660565 234.161238 
L 117.709886 234.161238 
L 117.833349 233.315014 
L 117.90718 233.315014 
L 118.03064 232.46879 
L 118.10447 232.46879 
L 118.252441 231.622565 
L 118.301762 231.622565 
L 118.425235 230.776341 
L 118.449737 230.776341 
L 118.573231 229.930117 
L 118.59795 229.930117 
L 118.745672 229.083892 
L 118.770544 229.083892 
L 118.893642 228.237668 
L 119.017151 228.237668 
L 119.140259 227.391444 
L 119.214425 227.391444 
L 119.337549 226.545219 
L 119.411727 226.545219 
L 119.5595 224.85277 
L 119.70767 224.85277 
L 119.830784 224.006546 
L 119.855627 224.006546 
L 119.978999 223.160322 
L 120.028079 223.160322 
L 120.151565 222.314097 
L 120.250215 222.314097 
L 120.373338 221.467873 
L 120.496663 221.467873 
L 120.619952 220.621649 
L 120.694087 220.621649 
L 120.817244 219.775424 
L 120.916157 219.775424 
L 121.063856 218.9292 
L 121.113181 218.9292 
L 121.236606 218.082976 
L 121.409106 218.082976 
L 121.532588 217.236751 
L 121.606411 217.236751 
L 121.729891 216.390527 
L 121.828541 216.390527 
L 121.95167 215.544303 
L 121.976542 215.544303 
L 122.099638 214.698078 
L 122.124496 214.698078 
L 122.247606 213.851854 
L 122.297221 213.851854 
L 122.494222 212.159405 
L 122.592868 212.159405 
L 122.740836 210.466956 
L 122.839482 210.466956 
L 122.962945 209.620732 
L 123.012253 209.620732 
L 123.160233 207.928283 
L 123.234384 207.928283 
L 123.431358 206.235835 
L 123.456192 206.235835 
L 123.604157 204.543386 
L 123.677971 204.543386 
L 123.82594 203.697161 
L 123.850792 203.697161 
L 123.99875 202.004713 
L 124.048033 202.004713 
L 124.171519 201.158488 
L 124.220525 201.158488 
L 124.368495 199.46604 
L 124.442651 199.46604 
L 124.590626 197.773591 
L 124.7386 197.773591 
L 124.886527 196.081142 
L 124.935837 196.081142 
L 125.108584 193.542469 
L 125.157659 193.542469 
L 125.305629 191.85002 
L 125.379782 191.85002 
L 125.502918 191.003796 
L 125.576894 191.003796 
L 125.725057 189.311347 
L 125.823727 189.311347 
L 125.946825 188.465123 
L 125.996147 188.465123 
L 126.14412 187.618899 
L 126.193441 187.618899 
L 126.341411 185.92645 
L 126.390736 185.92645 
L 126.538702 184.234001 
L 126.686672 184.234001 
L 126.834642 182.541552 
L 126.982611 182.541552 
L 127.130579 180.849104 
L 127.229229 180.849104 
L 127.352665 180.002879 
L 127.451213 180.002879 
L 127.57449 179.156655 
L 127.64864 179.156655 
L 127.771779 178.310431 
L 127.796617 178.310431 
L 127.919751 177.464206 
L 127.944507 177.464206 
L 128.067722 176.617982 
L 128.191216 176.617982 
L 128.314336 175.771758 
L 128.388369 175.771758 
L 128.511628 174.925533 
L 128.560951 174.925533 
L 128.684409 174.079309 
L 128.70892 174.079309 
L 128.856892 172.38686 
L 128.906213 172.38686 
L 129.054186 170.694411 
L 129.177661 170.694411 
L 129.32553 169.001963 
L 129.399446 169.001963 
L 129.522925 168.155738 
L 129.572256 168.155738 
L 129.695386 167.309514 
L 129.892677 165.617065 
L 129.991324 165.617065 
L 130.139296 163.924617 
L 130.237939 163.924617 
L 130.385909 162.232168 
L 130.509333 162.232168 
L 130.632527 160.539719 
L 130.805367 160.539719 
L 130.928466 159.693495 
L 130.95331 159.693495 
L 131.076432 158.84727 
L 131.175079 158.84727 
L 131.298603 158.001046 
L 131.421697 158.001046 
L 131.569928 156.308597 
L 131.693153 156.308597 
L 131.816281 155.462373 
L 131.914927 155.462373 
L 132.013571 154.616149 
L 132.087584 154.616149 
L 132.210864 153.769924 
L 132.235734 153.769924 
L 132.383686 152.077476 
L 132.654774 152.077476 
L 132.778248 151.231251 
L 132.802741 151.231251 
L 132.926252 150.385027 
L 132.950714 150.385027 
L 133.098683 149.538802 
L 133.172868 149.538802 
L 133.295976 148.692578 
L 133.567444 148.692578 
L 133.690559 147.846354 
L 133.863336 147.846354 
L 133.986498 147.000129 
L 134.257984 147.000129 
L 134.381376 146.153905 
L 134.479728 146.153905 
L 134.603151 145.307681 
L 134.70182 145.307681 
L 134.825304 144.461456 
L 139.905261 144.461456 
L 140.05323 143.615232 
L 140.102551 143.615232 
L 140.225975 142.769008 
L 140.299844 142.769008 
L 140.423161 141.922783 
L 140.472594 141.922783 
L 140.595779 141.076559 
L 140.66997 141.076559 
L 140.793076 140.230334 
L 140.842716 140.230334 
L 140.990366 139.38411 
L 141.089014 139.38411 
L 141.21251 138.537886 
L 141.286306 138.537886 
L 141.434274 137.691661 
L 141.557744 137.691661 
L 141.680891 136.845437 
L 141.755087 136.845437 
L 141.878184 135.999213 
L 142.026151 135.999213 
L 142.149623 135.152988 
L 142.223443 135.152988 
L 142.420735 133.46054 
L 142.667352 133.46054 
L 142.815322 132.614315 
L 143.16081 132.614315 
L 143.308551 131.768091 
L 145.676056 131.768091 
L 145.799518 130.921867 
L 145.873347 130.921867 
L 145.996695 130.075642 
L 146.119966 130.075642 
L 146.243456 129.229418 
L 146.342081 129.229418 
L 146.465226 128.383193 
L 146.588676 128.383193 
L 146.71184 127.536969 
L 146.736678 127.536969 
L 146.860063 126.690745 
L 147.007778 125.84452 
L 147.131276 125.84452 
L 147.254395 124.998296 
L 147.37772 124.998296 
L 147.501009 124.152072 
L 147.698299 124.152072 
L 147.797213 123.305847 
L 147.920445 123.305847 
L 148.043565 122.459623 
L 148.709537 122.459623 
L 148.832736 121.613399 
L 149.030025 121.613399 
L 149.15349 120.767174 
L 149.276642 120.767174 
L 149.424612 119.074725 
L 149.498776 119.074725 
L 149.671434 116.536052 
L 149.720549 116.536052 
L 149.868515 114.843604 
L 149.94267 114.843604 
L 150.090654 113.151155 
L 150.164454 113.151155 
L 150.312423 111.458706 
L 150.485269 111.458706 
L 150.657685 108.920033 
L 150.70701 108.920033 
L 150.879824 106.38136 
L 150.953622 106.38136 
L 151.07692 105.535136 
L 151.101591 105.535136 
L 151.225071 104.688911 
L 151.397528 104.688911 
L 151.545497 102.996463 
L 151.644146 102.996463 
L 151.76765 102.150238 
L 151.890758 102.150238 
L 152.014078 101.304014 
L 160.768922 101.304014 
L 160.916891 100.45779 
L 218.871605 100.45779 
L 218.995142 99.611565 
L 221.189795 99.611565 
L 221.313257 98.765341 
L 222.077614 98.765341 
L 222.201106 97.919116 
L 222.669492 97.919116 
L 222.792988 97.072892 
L 223.261369 97.072892 
L 223.384699 96.226668 
L 223.804213 96.226668 
L 223.951896 95.380443 
L 224.32186 95.380443 
L 224.445127 94.534219 
L 243.286633 94.534219 
L 243.410008 93.687995 
L 243.878513 93.687995 
L 244.001914 92.84177 
L 244.421068 92.84177 
L 244.544555 91.995546 
L 244.889842 91.995546 
L 245.012947 91.149322 
L 245.407531 91.149322 
L 245.531015 90.303097 
L 245.752797 90.303097 
L 245.876266 89.456873 
L 246.048734 89.456873 
L 246.172041 88.610648 
L 246.41886 88.610648 
L 246.541966 87.764424 
L 246.813434 87.764424 
L 246.936552 86.9182 
L 247.207981 86.9182 
L 247.331134 86.071975 
L 247.627075 86.071975 
L 247.750515 85.225751 
L 247.972339 85.225751 
L 248.120307 84.379527 
L 248.268274 84.379527 
L 248.391774 83.533302 
L 248.53965 83.533302 
L 248.662857 82.687078 
L 248.687697 82.687078 
L 248.810827 81.840854 
L 248.958796 81.840854 
L 249.082318 80.994629 
L 249.13165 80.994629 
L 249.27959 79.302181 
L 249.427376 79.302181 
L 249.550674 78.455956 
L 249.575515 78.455956 
L 249.723532 76.763507 
L 249.79729 76.763507 
L 249.945259 75.071059 
L 250.01942 75.071059 
L 250.191872 72.532386 
L 250.241194 72.532386 
L 250.413964 69.993713 
L 250.438486 69.993713 
L 250.635779 66.608815 
L 250.685101 66.608815 
L 250.857826 64.070142 
L 250.882393 64.070142 
L 251.05522 61.531469 
L 251.079686 61.531469 
L 251.227652 59.83902 
L 251.474263 57.300347 
L 251.523587 57.300347 
L 251.647054 56.454123 
L 251.67156 56.454123 
L 251.819523 55.607898 
L 322.820157 55.607898 
L 322.943332 54.761674 
L 333.276644 54.761674 
L 333.39983 53.91545 
L 334.11522 53.91545 
L 334.238323 53.069225 
L 334.583582 53.069225 
L 334.707042 52.223001 
L 334.805736 52.223001 
L 334.953534 50.530552 
L 335.05231 50.530552 
L 335.175457 49.684328 
L 335.22478 49.684328 
L 335.348287 48.838104 
L 335.373027 48.838104 
L 335.570044 47.145655 
L 335.619366 47.145655 
L 335.767334 45.453206 
L 335.915301 45.453206 
L 336.038731 44.606982 
L 336.260569 44.606982 
L 336.408537 43.760757 
L 338.677398 43.760757 
L 338.800893 42.914533 
L 339.17063 42.914533 
L 339.294114 42.068309 
L 339.36792 42.068309 
L 339.491359 41.222084 
L 339.663861 41.222084 
L 339.787355 40.37586 
L 340.379196 40.37586 
L 340.502644 39.529636 
L 356.063858 39.529636 
L 356.187079 38.683411 
L 447.854297 38.683411 
L 447.977514 37.837187 
L 449.259919 37.837187 
L 449.383371 36.990963 
L 450 36.990963 
L 450 36.990963 
" clip-path="url(#p4ea9a67b71)" style="fill: none; stroke: #9467bd; stroke-width: 1.5; stroke-linecap: square"/>
   </g>
   <g id="patch_3">
    <path d="M 51.05 279.561175 
L 51.05 25.44 
" style="fill: none; stroke: #000000; stroke-width: 0.8; stroke-linejoin: miter; stroke-linecap: square"/>
   </g>
   <g id="patch_4">
    <path d="M 450 279.561175 
L 450 25.44 
" style="fill: none; stroke: #000000; stroke-width: 0.8; stroke-linejoin: miter; stroke-linecap: square"/>
   </g>
   <g id="patch_5">
    <path d="M 51.05 279.561175 
L 450 279.561175 
" style="fill: none; stroke: #000000; stroke-width: 0.8; stroke-linejoin: miter; stroke-linecap: square"/>
   </g>
   <g id="patch_6">
    <path d="M 51.05 25.44 
L 450 25.44 
" style="fill: none; stroke: #000000; stroke-width: 0.8; stroke-linejoin: miter; stroke-linecap: square"/>
   </g>
   <g id="text_14">
    <!-- November 2023 -->
    <g transform="translate(202.133125 19.44) scale(0.12 -0.12)">
     <defs>
      <path id="DejaVuSans-4e" d="M 628 4666 
L 1478 4666 
L 3547 763 
L 3547 4666 
L 4159 4666 
L 4159 0 
L 3309 0 
L 1241 3903 
L 1241 0 
L 628 0 
L 628 4666 
z
" transform="scale(0.015625)"/>
      <path id="DejaVuSans-6f" d="M 1959 3097 
Q 1497 3097 1228 2736 
Q 959 2375 959 1747 
Q 959 1119 1226 758 
Q 1494 397 1959 397 
Q 2419 397 2687 759 
Q 2956 1122 2956 1747 
Q 2956 2369 2687 2733 
Q 2419 3097 1959 3097 
z
M 1959 3584 
Q 2709 3584 3137 3096 
Q 3566 2609 3566 1747 
Q 3566 888 3137 398 
Q 2709 -91 1959 -91 
Q 1206 -91 779 398 
Q 353 888 353 1747 
Q 353 2609 779 3096 
Q 1206 3584 1959 3584 
z
" transform="scale(0.015625)"/>
      <path id="DejaVuSans-76" d="M 191 3500 
L 800 3500 
L 1894 563 
L 2988 3500 
L 3597 3500 
L 2284 0 
L 1503 0 
L 191 3500 
z
" transform="scale(0.015625)"/>
      <path id="DejaVuSans-65" d="M 3597 1894 
L 3597 1613 
L 953 1613 
Q 991 1019 1311 708 
Q 1631 397 2203 397 
Q 2534 397 2845 478 
Q 3156 559 3463 722 
L 3463 178 
Q 3153 47 2828 -22 
Q 2503 -91 2169 -91 
Q 1331 -91 842 396 
Q 353 884 353 1716 
Q 353 2575 817 3079 
Q 1281 3584 2069 3584 
Q 2775 3584 3186 3129 
Q 3597 2675 3597 1894 
z
M 3022 2063 
Q 3016 2534 2758 2815 
Q 2500 3097 2075 3097 
Q 1594 3097 1305 2825 
Q 1016 2553 972 2059 
L 3022 2063 
z
" transform="scale(0.015625)"/>
      <path id="DejaVuSans-62" d="M 3116 1747 
Q 3116 2381 2855 2742 
Q 2594 3103 2138 3103 
Q 1681 3103 1420 2742 
Q 1159 2381 1159 1747 
Q 1159 1113 1420 752 
Q 1681 391 2138 391 
Q 2594 391 2855 752 
Q 3116 1113 3116 1747 
z
M 1159 2969 
Q 1341 3281 1617 3432 
Q 1894 3584 2278 3584 
Q 2916 3584 3314 3078 
Q 3713 2572 3713 1747 
Q 3713 922 3314 415 
Q 2916 -91 2278 -91 
Q 1894 -91 1617 61 
Q 1341 213 1159 525 
L 1159 0 
L 581 0 
L 581 4863 
L 1159 4863 
L 1159 2969 
z
" transform="scale(0.015625)"/>
      <path id="DejaVuSans-72" d="M 2631 2963 
Q 2534 3019 2420 3045 
Q 2306 3072 2169 3072 
Q 1681 3072 1420 2755 
Q 1159 2438 1159 1844 
L 1159 0 
L 581 0 
L 581 3500 
L 1159 3500 
L 1159 2956 
Q 1341 3275 1631 3429 
Q 1922 3584 2338 3584 
Q 2397 3584 2469 3576 
Q 2541 3569 2628 3553 
L 2631 2963 
z
" transform="scale(0.015625)"/>
     </defs>
     <use xlink:href="#DejaVuSans-4e"/>
     <use xlink:href="#DejaVuSans-6f" x="74.804688"/>
     <use xlink:href="#DejaVuSans-76" x="135.986328"/>
     <use xlink:href="#DejaVuSans-65" x="195.166016"/>
     <use xlink:href="#DejaVuSans-6d" x="256.689453"/>
     <use xlink:href="#DejaVuSans-62" x="354.101562"/>
     <use xlink:href="#DejaVuSans-65" x="417.578125"/>
     <use xlink:href="#DejaVuSans-72" x="479.101562"/>
     <use xlink:href="#DejaVuSans-20" x="520.214844"/>
     <use xlink:href="#DejaVuSans-32" x="552.001953"/>
     <use xlink:href="#DejaVuSans-30" x="615.625"/>
     <use xlink:href="#DejaVuSans-32" x="679.248047"/>
     <use xlink:href="#DejaVuSans-33" x="742.871094"/>
    </g>
   </g>
  </g>
 </g>
 <defs>
  <clipPath id="p4ea9a67b71">
   <rect x="51.05" y="25.44" width="398.95" height="254.121175"/>
  </clipPath>
 </defs>
</svg>
