<?xml version="1.0" encoding="utf-8" standalone="no"?>
<!DOCTYPE svg PUBLIC "-//W3C//DTD SVG 1.1//EN"
  "http://www.w3.org/Graphics/SVG/1.1/DTD/svg11.dtd">
<svg xmlns:xlink="http://www.w3.org/1999/xlink" width="460.8pt" height="345.6pt" viewBox="0 0 460.8 345.6" xmlns="http://www.w3.org/2000/svg" version="1.1">
 <metadata>
  <rdf:RDF xmlns:dc="http://purl.org/dc/elements/1.1/" xmlns:cc="http://creativecommons.org/ns#" xmlns:rdf="http://www.w3.org/1999/02/22-rdf-syntax-ns#">
   <cc:Work>
    <dc:type rdf:resource="http://purl.org/dc/dcmitype/StillImage"/>
    <dc:date>2023-11-06T19:21:36.478301</dc:date>
    <dc:format>image/svg+xml</dc:format>
    <dc:creator>
     <cc:Agent>
      <dc:title>Matplotlib v3.6.3, https://matplotlib.org/</dc:title>
     </cc:Agent>
    </dc:creator>
   </cc:Work>
  </rdf:RDF>
 </metadata>
 <defs>
  <style type="text/css">*{stroke-linejoin: round; stroke-linecap: butt}</style>
 </defs>
 <g id="figure_1">
  <g id="patch_1">
   <path d="M 0 345.6 
L 460.8 345.6 
L 460.8 0 
L 0 0 
z
" style="fill: #ffffff"/>
  </g>
  <g id="axes_1">
   <g id="patch_2">
    <path d="M 46.46 279.561175 
L 450 279.561175 
L 450 25.44 
L 46.46 25.44 
z
" style="fill: #ffffff"/>
   </g>
   <g id="matplotlib.axis_1">
    <g id="xtick_1">
     <g id="line2d_1">
      <path d="M 115.932944 279.561175 
L 115.932944 25.44 
" clip-path="url(#p1824150efd)" style="fill: none; stroke: #b0b0b0; stroke-width: 0.8; stroke-linecap: square"/>
     </g>
     <g id="line2d_2">
      <defs>
       <path id="mda7fc92fd9" d="M 0 0 
L 0 3.5 
" style="stroke: #000000; stroke-width: 0.8"/>
      </defs>
      <g>
       <use xlink:href="#mda7fc92fd9" x="115.932944" y="279.561175" style="stroke: #000000; stroke-width: 0.8"/>
      </g>
     </g>
     <g id="text_1">
      <!-- 2023-11-02 -->
      <g transform="translate(73.36843 333.028035) rotate(-45) scale(0.1 -0.1)">
       <defs>
        <path id="DejaVuSans-32" d="M 1228 531 
L 3431 531 
L 3431 0 
L 469 0 
L 469 531 
Q 828 903 1448 1529 
Q 2069 2156 2228 2338 
Q 2531 2678 2651 2914 
Q 2772 3150 2772 3378 
Q 2772 3750 2511 3984 
Q 2250 4219 1831 4219 
Q 1534 4219 1204 4116 
Q 875 4013 500 3803 
L 500 4441 
Q 881 4594 1212 4672 
Q 1544 4750 1819 4750 
Q 2544 4750 2975 4387 
Q 3406 4025 3406 3419 
Q 3406 3131 3298 2873 
Q 3191 2616 2906 2266 
Q 2828 2175 2409 1742 
Q 1991 1309 1228 531 
z
" transform="scale(0.015625)"/>
        <path id="DejaVuSans-30" d="M 2034 4250 
Q 1547 4250 1301 3770 
Q 1056 3291 1056 2328 
Q 1056 1369 1301 889 
Q 1547 409 2034 409 
Q 2525 409 2770 889 
Q 3016 1369 3016 2328 
Q 3016 3291 2770 3770 
Q 2525 4250 2034 4250 
z
M 2034 4750 
Q 2819 4750 3233 4129 
Q 3647 3509 3647 2328 
Q 3647 1150 3233 529 
Q 2819 -91 2034 -91 
Q 1250 -91 836 529 
Q 422 1150 422 2328 
Q 422 3509 836 4129 
Q 1250 4750 2034 4750 
z
" transform="scale(0.015625)"/>
        <path id="DejaVuSans-33" d="M 2597 2516 
Q 3050 2419 3304 2112 
Q 3559 1806 3559 1356 
Q 3559 666 3084 287 
Q 2609 -91 1734 -91 
Q 1441 -91 1130 -33 
Q 819 25 488 141 
L 488 750 
Q 750 597 1062 519 
Q 1375 441 1716 441 
Q 2309 441 2620 675 
Q 2931 909 2931 1356 
Q 2931 1769 2642 2001 
Q 2353 2234 1838 2234 
L 1294 2234 
L 1294 2753 
L 1863 2753 
Q 2328 2753 2575 2939 
Q 2822 3125 2822 3475 
Q 2822 3834 2567 4026 
Q 2313 4219 1838 4219 
Q 1578 4219 1281 4162 
Q 984 4106 628 3988 
L 628 4550 
Q 988 4650 1302 4700 
Q 1616 4750 1894 4750 
Q 2613 4750 3031 4423 
Q 3450 4097 3450 3541 
Q 3450 3153 3228 2886 
Q 3006 2619 2597 2516 
z
" transform="scale(0.015625)"/>
        <path id="DejaVuSans-2d" d="M 313 2009 
L 1997 2009 
L 1997 1497 
L 313 1497 
L 313 2009 
z
" transform="scale(0.015625)"/>
        <path id="DejaVuSans-31" d="M 794 531 
L 1825 531 
L 1825 4091 
L 703 3866 
L 703 4441 
L 1819 4666 
L 2450 4666 
L 2450 531 
L 3481 531 
L 3481 0 
L 794 0 
L 794 531 
z
" transform="scale(0.015625)"/>
       </defs>
       <use xlink:href="#DejaVuSans-32"/>
       <use xlink:href="#DejaVuSans-30" x="63.623047"/>
       <use xlink:href="#DejaVuSans-32" x="127.246094"/>
       <use xlink:href="#DejaVuSans-33" x="190.869141"/>
       <use xlink:href="#DejaVuSans-2d" x="254.492188"/>
       <use xlink:href="#DejaVuSans-31" x="290.576172"/>
       <use xlink:href="#DejaVuSans-31" x="354.199219"/>
       <use xlink:href="#DejaVuSans-2d" x="417.822266"/>
       <use xlink:href="#DejaVuSans-30" x="453.90625"/>
       <use xlink:href="#DejaVuSans-32" x="517.529297"/>
      </g>
     </g>
    </g>
    <g id="xtick_2">
     <g id="line2d_3">
      <path d="M 185.442868 279.561175 
L 185.442868 25.44 
" clip-path="url(#p1824150efd)" style="fill: none; stroke: #b0b0b0; stroke-width: 0.8; stroke-linecap: square"/>
     </g>
     <g id="line2d_4">
      <g>
       <use xlink:href="#mda7fc92fd9" x="185.442868" y="279.561175" style="stroke: #000000; stroke-width: 0.8"/>
      </g>
     </g>
     <g id="text_2">
      <!-- 2023-11-03 -->
      <g transform="translate(142.878354 333.028035) rotate(-45) scale(0.1 -0.1)">
       <use xlink:href="#DejaVuSans-32"/>
       <use xlink:href="#DejaVuSans-30" x="63.623047"/>
       <use xlink:href="#DejaVuSans-32" x="127.246094"/>
       <use xlink:href="#DejaVuSans-33" x="190.869141"/>
       <use xlink:href="#DejaVuSans-2d" x="254.492188"/>
       <use xlink:href="#DejaVuSans-31" x="290.576172"/>
       <use xlink:href="#DejaVuSans-31" x="354.199219"/>
       <use xlink:href="#DejaVuSans-2d" x="417.822266"/>
       <use xlink:href="#DejaVuSans-30" x="453.90625"/>
       <use xlink:href="#DejaVuSans-33" x="517.529297"/>
      </g>
     </g>
    </g>
    <g id="xtick_3">
     <g id="line2d_5">
      <path d="M 254.952791 279.561175 
L 254.952791 25.44 
" clip-path="url(#p1824150efd)" style="fill: none; stroke: #b0b0b0; stroke-width: 0.8; stroke-linecap: square"/>
     </g>
     <g id="line2d_6">
      <g>
       <use xlink:href="#mda7fc92fd9" x="254.952791" y="279.561175" style="stroke: #000000; stroke-width: 0.8"/>
      </g>
     </g>
     <g id="text_3">
      <!-- 2023-11-04 -->
      <g transform="translate(212.388278 333.028035) rotate(-45) scale(0.1 -0.1)">
       <defs>
        <path id="DejaVuSans-34" d="M 2419 4116 
L 825 1625 
L 2419 1625 
L 2419 4116 
z
M 2253 4666 
L 3047 4666 
L 3047 1625 
L 3713 1625 
L 3713 1100 
L 3047 1100 
L 3047 0 
L 2419 0 
L 2419 1100 
L 313 1100 
L 313 1709 
L 2253 4666 
z
" transform="scale(0.015625)"/>
       </defs>
       <use xlink:href="#DejaVuSans-32"/>
       <use xlink:href="#DejaVuSans-30" x="63.623047"/>
       <use xlink:href="#DejaVuSans-32" x="127.246094"/>
       <use xlink:href="#DejaVuSans-33" x="190.869141"/>
       <use xlink:href="#DejaVuSans-2d" x="254.492188"/>
       <use xlink:href="#DejaVuSans-31" x="290.576172"/>
       <use xlink:href="#DejaVuSans-31" x="354.199219"/>
       <use xlink:href="#DejaVuSans-2d" x="417.822266"/>
       <use xlink:href="#DejaVuSans-30" x="453.90625"/>
       <use xlink:href="#DejaVuSans-34" x="517.529297"/>
      </g>
     </g>
    </g>
    <g id="xtick_4">
     <g id="line2d_7">
      <path d="M 324.462715 279.561175 
L 324.462715 25.44 
" clip-path="url(#p1824150efd)" style="fill: none; stroke: #b0b0b0; stroke-width: 0.8; stroke-linecap: square"/>
     </g>
     <g id="line2d_8">
      <g>
       <use xlink:href="#mda7fc92fd9" x="324.462715" y="279.561175" style="stroke: #000000; stroke-width: 0.8"/>
      </g>
     </g>
     <g id="text_4">
      <!-- 2023-11-05 -->
      <g transform="translate(281.898201 333.028035) rotate(-45) scale(0.1 -0.1)">
       <defs>
        <path id="DejaVuSans-35" d="M 691 4666 
L 3169 4666 
L 3169 4134 
L 1269 4134 
L 1269 2991 
Q 1406 3038 1543 3061 
Q 1681 3084 1819 3084 
Q 2600 3084 3056 2656 
Q 3513 2228 3513 1497 
Q 3513 744 3044 326 
Q 2575 -91 1722 -91 
Q 1428 -91 1123 -41 
Q 819 9 494 109 
L 494 744 
Q 775 591 1075 516 
Q 1375 441 1709 441 
Q 2250 441 2565 725 
Q 2881 1009 2881 1497 
Q 2881 1984 2565 2268 
Q 2250 2553 1709 2553 
Q 1456 2553 1204 2497 
Q 953 2441 691 2322 
L 691 4666 
z
" transform="scale(0.015625)"/>
       </defs>
       <use xlink:href="#DejaVuSans-32"/>
       <use xlink:href="#DejaVuSans-30" x="63.623047"/>
       <use xlink:href="#DejaVuSans-32" x="127.246094"/>
       <use xlink:href="#DejaVuSans-33" x="190.869141"/>
       <use xlink:href="#DejaVuSans-2d" x="254.492188"/>
       <use xlink:href="#DejaVuSans-31" x="290.576172"/>
       <use xlink:href="#DejaVuSans-31" x="354.199219"/>
       <use xlink:href="#DejaVuSans-2d" x="417.822266"/>
       <use xlink:href="#DejaVuSans-30" x="453.90625"/>
       <use xlink:href="#DejaVuSans-35" x="517.529297"/>
      </g>
     </g>
    </g>
    <g id="xtick_5">
     <g id="line2d_9">
      <path d="M 393.972639 279.561175 
L 393.972639 25.44 
" clip-path="url(#p1824150efd)" style="fill: none; stroke: #b0b0b0; stroke-width: 0.8; stroke-linecap: square"/>
     </g>
     <g id="line2d_10">
      <g>
       <use xlink:href="#mda7fc92fd9" x="393.972639" y="279.561175" style="stroke: #000000; stroke-width: 0.8"/>
      </g>
     </g>
     <g id="text_5">
      <!-- 2023-11-06 -->
      <g transform="translate(351.408125 333.028035) rotate(-45) scale(0.1 -0.1)">
       <defs>
        <path id="DejaVuSans-36" d="M 2113 2584 
Q 1688 2584 1439 2293 
Q 1191 2003 1191 1497 
Q 1191 994 1439 701 
Q 1688 409 2113 409 
Q 2538 409 2786 701 
Q 3034 994 3034 1497 
Q 3034 2003 2786 2293 
Q 2538 2584 2113 2584 
z
M 3366 4563 
L 3366 3988 
Q 3128 4100 2886 4159 
Q 2644 4219 2406 4219 
Q 1781 4219 1451 3797 
Q 1122 3375 1075 2522 
Q 1259 2794 1537 2939 
Q 1816 3084 2150 3084 
Q 2853 3084 3261 2657 
Q 3669 2231 3669 1497 
Q 3669 778 3244 343 
Q 2819 -91 2113 -91 
Q 1303 -91 875 529 
Q 447 1150 447 2328 
Q 447 3434 972 4092 
Q 1497 4750 2381 4750 
Q 2619 4750 2861 4703 
Q 3103 4656 3366 4563 
z
" transform="scale(0.015625)"/>
       </defs>
       <use xlink:href="#DejaVuSans-32"/>
       <use xlink:href="#DejaVuSans-30" x="63.623047"/>
       <use xlink:href="#DejaVuSans-32" x="127.246094"/>
       <use xlink:href="#DejaVuSans-33" x="190.869141"/>
       <use xlink:href="#DejaVuSans-2d" x="254.492188"/>
       <use xlink:href="#DejaVuSans-31" x="290.576172"/>
       <use xlink:href="#DejaVuSans-31" x="354.199219"/>
       <use xlink:href="#DejaVuSans-2d" x="417.822266"/>
       <use xlink:href="#DejaVuSans-30" x="453.90625"/>
       <use xlink:href="#DejaVuSans-36" x="517.529297"/>
      </g>
     </g>
    </g>
   </g>
   <g id="matplotlib.axis_2">
    <g id="ytick_1">
     <g id="line2d_11">
      <path d="M 46.46 253.008963 
L 450 253.008963 
" clip-path="url(#p1824150efd)" style="fill: none; stroke: #b0b0b0; stroke-width: 0.8; stroke-linecap: square"/>
     </g>
     <g id="line2d_12">
      <defs>
       <path id="m6d3c9f54d2" d="M 0 0 
L -3.5 0 
" style="stroke: #000000; stroke-width: 0.8"/>
      </defs>
      <g>
       <use xlink:href="#m6d3c9f54d2" x="46.46" y="253.008963" style="stroke: #000000; stroke-width: 0.8"/>
      </g>
     </g>
     <g id="text_6">
      <!-- 0 -->
      <g transform="translate(33.0975 256.808182) scale(0.1 -0.1)">
       <use xlink:href="#DejaVuSans-30"/>
      </g>
     </g>
    </g>
    <g id="ytick_2">
     <g id="line2d_13">
      <path d="M 46.46 223.006463 
L 450 223.006463 
" clip-path="url(#p1824150efd)" style="fill: none; stroke: #b0b0b0; stroke-width: 0.8; stroke-linecap: square"/>
     </g>
     <g id="line2d_14">
      <g>
       <use xlink:href="#m6d3c9f54d2" x="46.46" y="223.006463" style="stroke: #000000; stroke-width: 0.8"/>
      </g>
     </g>
     <g id="text_7">
      <!-- 2 -->
      <g transform="translate(33.0975 226.805682) scale(0.1 -0.1)">
       <use xlink:href="#DejaVuSans-32"/>
      </g>
     </g>
    </g>
    <g id="ytick_3">
     <g id="line2d_15">
      <path d="M 46.46 193.003963 
L 450 193.003963 
" clip-path="url(#p1824150efd)" style="fill: none; stroke: #b0b0b0; stroke-width: 0.8; stroke-linecap: square"/>
     </g>
     <g id="line2d_16">
      <g>
       <use xlink:href="#m6d3c9f54d2" x="46.46" y="193.003963" style="stroke: #000000; stroke-width: 0.8"/>
      </g>
     </g>
     <g id="text_8">
      <!-- 4 -->
      <g transform="translate(33.0975 196.803182) scale(0.1 -0.1)">
       <use xlink:href="#DejaVuSans-34"/>
      </g>
     </g>
    </g>
    <g id="ytick_4">
     <g id="line2d_17">
      <path d="M 46.46 163.001463 
L 450 163.001463 
" clip-path="url(#p1824150efd)" style="fill: none; stroke: #b0b0b0; stroke-width: 0.8; stroke-linecap: square"/>
     </g>
     <g id="line2d_18">
      <g>
       <use xlink:href="#m6d3c9f54d2" x="46.46" y="163.001463" style="stroke: #000000; stroke-width: 0.8"/>
      </g>
     </g>
     <g id="text_9">
      <!-- 6 -->
      <g transform="translate(33.0975 166.800681) scale(0.1 -0.1)">
       <use xlink:href="#DejaVuSans-36"/>
      </g>
     </g>
    </g>
    <g id="ytick_5">
     <g id="line2d_19">
      <path d="M 46.46 132.998963 
L 450 132.998963 
" clip-path="url(#p1824150efd)" style="fill: none; stroke: #b0b0b0; stroke-width: 0.8; stroke-linecap: square"/>
     </g>
     <g id="line2d_20">
      <g>
       <use xlink:href="#m6d3c9f54d2" x="46.46" y="132.998963" style="stroke: #000000; stroke-width: 0.8"/>
      </g>
     </g>
     <g id="text_10">
      <!-- 8 -->
      <g transform="translate(33.0975 136.798181) scale(0.1 -0.1)">
       <defs>
        <path id="DejaVuSans-38" d="M 2034 2216 
Q 1584 2216 1326 1975 
Q 1069 1734 1069 1313 
Q 1069 891 1326 650 
Q 1584 409 2034 409 
Q 2484 409 2743 651 
Q 3003 894 3003 1313 
Q 3003 1734 2745 1975 
Q 2488 2216 2034 2216 
z
M 1403 2484 
Q 997 2584 770 2862 
Q 544 3141 544 3541 
Q 544 4100 942 4425 
Q 1341 4750 2034 4750 
Q 2731 4750 3128 4425 
Q 3525 4100 3525 3541 
Q 3525 3141 3298 2862 
Q 3072 2584 2669 2484 
Q 3125 2378 3379 2068 
Q 3634 1759 3634 1313 
Q 3634 634 3220 271 
Q 2806 -91 2034 -91 
Q 1263 -91 848 271 
Q 434 634 434 1313 
Q 434 1759 690 2068 
Q 947 2378 1403 2484 
z
M 1172 3481 
Q 1172 3119 1398 2916 
Q 1625 2713 2034 2713 
Q 2441 2713 2670 2916 
Q 2900 3119 2900 3481 
Q 2900 3844 2670 4047 
Q 2441 4250 2034 4250 
Q 1625 4250 1398 4047 
Q 1172 3844 1172 3481 
z
" transform="scale(0.015625)"/>
       </defs>
       <use xlink:href="#DejaVuSans-38"/>
      </g>
     </g>
    </g>
    <g id="ytick_6">
     <g id="line2d_21">
      <path d="M 46.46 102.996463 
L 450 102.996463 
" clip-path="url(#p1824150efd)" style="fill: none; stroke: #b0b0b0; stroke-width: 0.8; stroke-linecap: square"/>
     </g>
     <g id="line2d_22">
      <g>
       <use xlink:href="#m6d3c9f54d2" x="46.46" y="102.996463" style="stroke: #000000; stroke-width: 0.8"/>
      </g>
     </g>
     <g id="text_11">
      <!-- 10 -->
      <g transform="translate(26.735 106.795681) scale(0.1 -0.1)">
       <use xlink:href="#DejaVuSans-31"/>
       <use xlink:href="#DejaVuSans-30" x="63.623047"/>
      </g>
     </g>
    </g>
    <g id="ytick_7">
     <g id="line2d_23">
      <path d="M 46.46 72.993963 
L 450 72.993963 
" clip-path="url(#p1824150efd)" style="fill: none; stroke: #b0b0b0; stroke-width: 0.8; stroke-linecap: square"/>
     </g>
     <g id="line2d_24">
      <g>
       <use xlink:href="#m6d3c9f54d2" x="46.46" y="72.993963" style="stroke: #000000; stroke-width: 0.8"/>
      </g>
     </g>
     <g id="text_12">
      <!-- 12 -->
      <g transform="translate(26.735 76.793181) scale(0.1 -0.1)">
       <use xlink:href="#DejaVuSans-31"/>
       <use xlink:href="#DejaVuSans-32" x="63.623047"/>
      </g>
     </g>
    </g>
    <g id="ytick_8">
     <g id="line2d_25">
      <path d="M 46.46 42.991463 
L 450 42.991463 
" clip-path="url(#p1824150efd)" style="fill: none; stroke: #b0b0b0; stroke-width: 0.8; stroke-linecap: square"/>
     </g>
     <g id="line2d_26">
      <g>
       <use xlink:href="#m6d3c9f54d2" x="46.46" y="42.991463" style="stroke: #000000; stroke-width: 0.8"/>
      </g>
     </g>
     <g id="text_13">
      <!-- 14 -->
      <g transform="translate(26.735 46.790681) scale(0.1 -0.1)">
       <use xlink:href="#DejaVuSans-31"/>
       <use xlink:href="#DejaVuSans-34" x="63.623047"/>
      </g>
     </g>
    </g>
    <g id="text_14">
     <!-- Temperature [°C] -->
     <g transform="translate(20.655313 199.072463) rotate(-90) scale(0.1 -0.1)">
      <defs>
       <path id="DejaVuSans-54" d="M -19 4666 
L 3928 4666 
L 3928 4134 
L 2272 4134 
L 2272 0 
L 1638 0 
L 1638 4134 
L -19 4134 
L -19 4666 
z
" transform="scale(0.015625)"/>
       <path id="DejaVuSans-65" d="M 3597 1894 
L 3597 1613 
L 953 1613 
Q 991 1019 1311 708 
Q 1631 397 2203 397 
Q 2534 397 2845 478 
Q 3156 559 3463 722 
L 3463 178 
Q 3153 47 2828 -22 
Q 2503 -91 2169 -91 
Q 1331 -91 842 396 
Q 353 884 353 1716 
Q 353 2575 817 3079 
Q 1281 3584 2069 3584 
Q 2775 3584 3186 3129 
Q 3597 2675 3597 1894 
z
M 3022 2063 
Q 3016 2534 2758 2815 
Q 2500 3097 2075 3097 
Q 1594 3097 1305 2825 
Q 1016 2553 972 2059 
L 3022 2063 
z
" transform="scale(0.015625)"/>
       <path id="DejaVuSans-6d" d="M 3328 2828 
Q 3544 3216 3844 3400 
Q 4144 3584 4550 3584 
Q 5097 3584 5394 3201 
Q 5691 2819 5691 2113 
L 5691 0 
L 5113 0 
L 5113 2094 
Q 5113 2597 4934 2840 
Q 4756 3084 4391 3084 
Q 3944 3084 3684 2787 
Q 3425 2491 3425 1978 
L 3425 0 
L 2847 0 
L 2847 2094 
Q 2847 2600 2669 2842 
Q 2491 3084 2119 3084 
Q 1678 3084 1418 2786 
Q 1159 2488 1159 1978 
L 1159 0 
L 581 0 
L 581 3500 
L 1159 3500 
L 1159 2956 
Q 1356 3278 1631 3431 
Q 1906 3584 2284 3584 
Q 2666 3584 2933 3390 
Q 3200 3197 3328 2828 
z
" transform="scale(0.015625)"/>
       <path id="DejaVuSans-70" d="M 1159 525 
L 1159 -1331 
L 581 -1331 
L 581 3500 
L 1159 3500 
L 1159 2969 
Q 1341 3281 1617 3432 
Q 1894 3584 2278 3584 
Q 2916 3584 3314 3078 
Q 3713 2572 3713 1747 
Q 3713 922 3314 415 
Q 2916 -91 2278 -91 
Q 1894 -91 1617 61 
Q 1341 213 1159 525 
z
M 3116 1747 
Q 3116 2381 2855 2742 
Q 2594 3103 2138 3103 
Q 1681 3103 1420 2742 
Q 1159 2381 1159 1747 
Q 1159 1113 1420 752 
Q 1681 391 2138 391 
Q 2594 391 2855 752 
Q 3116 1113 3116 1747 
z
" transform="scale(0.015625)"/>
       <path id="DejaVuSans-72" d="M 2631 2963 
Q 2534 3019 2420 3045 
Q 2306 3072 2169 3072 
Q 1681 3072 1420 2755 
Q 1159 2438 1159 1844 
L 1159 0 
L 581 0 
L 581 3500 
L 1159 3500 
L 1159 2956 
Q 1341 3275 1631 3429 
Q 1922 3584 2338 3584 
Q 2397 3584 2469 3576 
Q 2541 3569 2628 3553 
L 2631 2963 
z
" transform="scale(0.015625)"/>
       <path id="DejaVuSans-61" d="M 2194 1759 
Q 1497 1759 1228 1600 
Q 959 1441 959 1056 
Q 959 750 1161 570 
Q 1363 391 1709 391 
Q 2188 391 2477 730 
Q 2766 1069 2766 1631 
L 2766 1759 
L 2194 1759 
z
M 3341 1997 
L 3341 0 
L 2766 0 
L 2766 531 
Q 2569 213 2275 61 
Q 1981 -91 1556 -91 
Q 1019 -91 701 211 
Q 384 513 384 1019 
Q 384 1609 779 1909 
Q 1175 2209 1959 2209 
L 2766 2209 
L 2766 2266 
Q 2766 2663 2505 2880 
Q 2244 3097 1772 3097 
Q 1472 3097 1187 3025 
Q 903 2953 641 2809 
L 641 3341 
Q 956 3463 1253 3523 
Q 1550 3584 1831 3584 
Q 2591 3584 2966 3190 
Q 3341 2797 3341 1997 
z
" transform="scale(0.015625)"/>
       <path id="DejaVuSans-74" d="M 1172 4494 
L 1172 3500 
L 2356 3500 
L 2356 3053 
L 1172 3053 
L 1172 1153 
Q 1172 725 1289 603 
Q 1406 481 1766 481 
L 2356 481 
L 2356 0 
L 1766 0 
Q 1100 0 847 248 
Q 594 497 594 1153 
L 594 3053 
L 172 3053 
L 172 3500 
L 594 3500 
L 594 4494 
L 1172 4494 
z
" transform="scale(0.015625)"/>
       <path id="DejaVuSans-75" d="M 544 1381 
L 544 3500 
L 1119 3500 
L 1119 1403 
Q 1119 906 1312 657 
Q 1506 409 1894 409 
Q 2359 409 2629 706 
Q 2900 1003 2900 1516 
L 2900 3500 
L 3475 3500 
L 3475 0 
L 2900 0 
L 2900 538 
Q 2691 219 2414 64 
Q 2138 -91 1772 -91 
Q 1169 -91 856 284 
Q 544 659 544 1381 
z
M 1991 3584 
L 1991 3584 
z
" transform="scale(0.015625)"/>
       <path id="DejaVuSans-20" transform="scale(0.015625)"/>
       <path id="DejaVuSans-5b" d="M 550 4863 
L 1875 4863 
L 1875 4416 
L 1125 4416 
L 1125 -397 
L 1875 -397 
L 1875 -844 
L 550 -844 
L 550 4863 
z
" transform="scale(0.015625)"/>
       <path id="DejaVuSans-c2" d="M 2188 4044 
L 1331 1722 
L 3047 1722 
L 2188 4044 
z
M 1831 4666 
L 2547 4666 
L 4325 0 
L 3669 0 
L 3244 1197 
L 1141 1197 
L 716 0 
L 50 0 
L 1831 4666 
z
M 1894 5941 
L 2481 5941 
L 3141 5110 
L 2706 5110 
L 2188 5666 
L 1669 5110 
L 1234 5110 
L 1894 5941 
z
" transform="scale(0.015625)"/>
       <path id="DejaVuSans-b0" d="M 1600 4347 
Q 1350 4347 1178 4173 
Q 1006 4000 1006 3750 
Q 1006 3503 1178 3333 
Q 1350 3163 1600 3163 
Q 1850 3163 2022 3333 
Q 2194 3503 2194 3750 
Q 2194 3997 2020 4172 
Q 1847 4347 1600 4347 
z
M 1600 4750 
Q 1800 4750 1984 4673 
Q 2169 4597 2303 4453 
Q 2447 4313 2519 4134 
Q 2591 3956 2591 3750 
Q 2591 3338 2302 3052 
Q 2013 2766 1594 2766 
Q 1172 2766 890 3047 
Q 609 3328 609 3750 
Q 609 4169 896 4459 
Q 1184 4750 1600 4750 
z
" transform="scale(0.015625)"/>
       <path id="DejaVuSans-43" d="M 4122 4306 
L 4122 3641 
Q 3803 3938 3442 4084 
Q 3081 4231 2675 4231 
Q 1875 4231 1450 3742 
Q 1025 3253 1025 2328 
Q 1025 1406 1450 917 
Q 1875 428 2675 428 
Q 3081 428 3442 575 
Q 3803 722 4122 1019 
L 4122 359 
Q 3791 134 3420 21 
Q 3050 -91 2638 -91 
Q 1578 -91 968 557 
Q 359 1206 359 2328 
Q 359 3453 968 4101 
Q 1578 4750 2638 4750 
Q 3056 4750 3426 4639 
Q 3797 4528 4122 4306 
z
" transform="scale(0.015625)"/>
       <path id="DejaVuSans-5d" d="M 1947 4863 
L 1947 -844 
L 622 -844 
L 622 -397 
L 1369 -397 
L 1369 4416 
L 622 4416 
L 622 4863 
L 1947 4863 
z
" transform="scale(0.015625)"/>
      </defs>
      <use xlink:href="#DejaVuSans-54"/>
      <use xlink:href="#DejaVuSans-65" x="44.083984"/>
      <use xlink:href="#DejaVuSans-6d" x="105.607422"/>
      <use xlink:href="#DejaVuSans-70" x="203.019531"/>
      <use xlink:href="#DejaVuSans-65" x="266.496094"/>
      <use xlink:href="#DejaVuSans-72" x="328.019531"/>
      <use xlink:href="#DejaVuSans-61" x="369.132812"/>
      <use xlink:href="#DejaVuSans-74" x="430.412109"/>
      <use xlink:href="#DejaVuSans-75" x="469.621094"/>
      <use xlink:href="#DejaVuSans-72" x="533"/>
      <use xlink:href="#DejaVuSans-65" x="571.863281"/>
      <use xlink:href="#DejaVuSans-20" x="633.386719"/>
      <use xlink:href="#DejaVuSans-5b" x="665.173828"/>
      <use xlink:href="#DejaVuSans-c2" x="704.1875"/>
      <use xlink:href="#DejaVuSans-b0" x="772.595703"/>
      <use xlink:href="#DejaVuSans-43" x="822.595703"/>
      <use xlink:href="#DejaVuSans-5d" x="892.419922"/>
     </g>
    </g>
   </g>
   <g id="line2d_27">
    <path d="M 46.46 188.503588 
L 46.498459 188.503588 
L 46.652921 191.503838 
L 46.961854 191.503838 
L 47.039573 193.003963 
L 47.348014 193.003963 
L 47.464124 194.504088 
L 47.579713 193.003963 
L 48.120341 193.003963 
L 48.274804 190.003713 
L 48.313568 190.003713 
L 48.468106 187.003463 
L 48.50697 187.003463 
L 48.660967 188.503588 
L 48.892668 188.503588 
L 49.008778 190.003713 
L 49.39488 190.003713 
L 49.472072 191.503838 
L 49.587761 190.003713 
L 49.819456 190.003713 
L 49.935497 191.503838 
L 50.398874 191.503838 
L 50.51455 190.003713 
L 50.862275 190.003713 
L 50.977949 191.503838 
L 51.132411 191.503838 
L 51.248429 193.003963 
L 51.557381 193.003963 
L 51.673038 194.504088 
L 51.711868 193.003963 
L 51.750273 194.504088 
L 51.943618 194.504088 
L 52.059203 196.004213 
L 52.136889 194.504088 
L 52.252403 194.504088 
L 52.368136 193.003963 
L 52.406967 193.003963 
L 52.522597 194.504088 
L 52.561419 194.504088 
L 52.677064 196.004213 
L 52.831528 196.004213 
L 52.985997 194.504088 
L 53.063231 194.504088 
L 53.102088 193.003963 
L 53.140464 194.504088 
L 53.526623 194.504088 
L 53.604328 196.004213 
L 54.067253 196.004213 
L 54.183281 194.504088 
L 54.95564 194.504088 
L 55.109909 197.504338 
L 55.187314 197.504338 
L 55.302978 199.004463 
L 55.998074 199.004463 
L 56.114114 197.504338 
L 56.384232 197.504338 
L 56.461464 199.004463 
L 56.539177 199.004463 
L 56.69316 202.004713 
L 56.963694 202.004713 
L 57.118129 199.004463 
L 57.658818 199.004463 
L 57.774421 197.504338 
L 58.199376 197.504338 
L 58.315047 199.004463 
L 58.353884 199.004463 
L 58.469511 200.504588 
L 58.546748 200.504588 
L 58.62398 199.004463 
L 58.77844 200.504588 
L 58.855674 200.504588 
L 58.971769 202.004713 
L 59.126182 199.004463 
L 59.241841 199.004463 
L 59.396782 202.004713 
L 59.473537 202.004713 
L 59.628004 205.004963 
L 59.705237 205.004963 
L 59.821294 206.505088 
L 60.091393 206.505088 
L 60.323094 203.504838 
L 60.361924 203.504838 
L 60.477559 202.004713 
L 60.516381 202.004713 
L 60.670847 205.004963 
L 61.05702 205.004963 
L 61.211486 202.004713 
L 61.249889 202.004713 
L 61.404351 199.004463 
L 61.443173 199.004463 
L 61.558819 197.504338 
L 61.63604 197.504338 
L 61.752042 196.004213 
L 61.790517 196.004213 
L 61.906566 194.504088 
L 61.944978 194.504088 
L 62.061089 196.004213 
L 62.176677 196.004213 
L 62.25391 197.504338 
L 62.331602 197.504338 
L 62.44717 199.004463 
L 62.717306 199.004463 
L 62.871773 202.004713 
L 62.910642 202.004713 
L 63.026682 203.504838 
L 63.103469 203.504838 
L 63.257933 200.504588 
L 63.296761 200.504588 
L 63.451227 197.504338 
L 63.72133 197.504338 
L 63.875795 199.004463 
L 64.069042 199.004463 
L 64.107492 200.504588 
L 64.146353 199.004463 
L 64.223567 199.004463 
L 64.378031 196.004213 
L 64.455257 196.004213 
L 64.570888 197.504338 
L 64.648353 197.504338 
L 64.764183 199.004463 
L 64.957055 199.004463 
L 65.111521 202.004713 
L 65.18875 202.004713 
L 65.382078 206.505088 
L 65.574911 206.505088 
L 65.69099 208.005213 
L 65.768219 208.005213 
L 65.883842 211.005463 
L 65.999696 211.005463 
L 66.115537 212.505588 
L 66.463307 212.505588 
L 66.578939 214.005713 
L 66.617775 214.005713 
L 66.733403 215.505838 
L 66.887867 215.505838 
L 67.003838 214.005713 
L 67.08118 214.005713 
L 67.196797 215.505838 
L 67.351266 215.505838 
L 67.660194 211.005463 
L 67.776305 212.505588 
L 67.930748 209.505338 
L 68.23958 209.505338 
L 68.35529 211.005463 
L 68.625837 211.005463 
L 68.741452 209.505338 
L 68.934601 209.505338 
L 69.127619 205.004963 
L 69.243712 205.004963 
L 69.436547 200.504588 
L 69.475459 200.504588 
L 69.59146 199.004463 
L 69.707027 199.004463 
L 69.899944 194.504088 
L 70.093235 199.004463 
L 70.286587 199.004463 
L 70.479417 188.503588 
L 71.406243 123.998213 
L 71.521824 122.498088 
L 71.560629 122.498088 
L 71.715154 116.497588 
L 71.869507 119.497838 
L 72.023907 116.497588 
L 72.06245 116.497588 
L 72.178566 117.997713 
L 72.255789 117.997713 
L 72.448612 108.996963 
L 72.641869 104.496588 
L 72.680309 104.496588 
L 72.950779 96.995963 
L 72.989235 96.995963 
L 73.1437 93.995713 
L 73.259555 93.995713 
L 73.375395 96.995963 
L 73.64599 89.495338 
L 73.800438 89.495338 
L 74.186529 71.493838 
L 74.224952 72.993963 
L 74.533875 104.496588 
L 74.611108 105.996713 
L 74.688663 105.996713 
L 74.842806 108.996963 
L 75.38391 84.994963 
L 75.499436 81.994713 
L 75.61513 84.994963 
L 75.731264 83.494838 
L 75.769592 83.494838 
L 76.387445 104.496588 
L 76.464675 104.496588 
L 76.61914 95.495838 
L 76.851171 84.994963 
L 77.044046 80.494588 
L 77.082538 80.494588 
L 77.198638 81.994713 
L 77.314234 81.994713 
L 77.970978 104.496588 
L 78.125419 101.496338 
L 78.16378 101.496338 
L 78.241014 102.996463 
L 78.318235 102.996463 
L 78.704406 114.997463 
L 78.743254 114.997463 
L 78.858865 113.497338 
L 78.936102 113.497338 
L 79.090566 111.997213 
L 79.129364 111.997213 
L 79.592812 96.995963 
L 79.708763 96.995963 
L 79.862885 99.996213 
L 79.901768 98.496088 
L 79.940116 99.996213 
L 79.979014 99.996213 
L 80.249044 90.995463 
L 80.287912 92.495588 
L 80.32628 90.995463 
L 80.365207 90.995463 
L 80.635207 77.494338 
L 80.866904 71.493838 
L 80.94414 71.493838 
L 81.214436 78.994463 
L 81.369229 75.994213 
L 81.407528 75.994213 
L 81.63922 86.495088 
L 81.678146 86.495088 
L 81.871381 92.495588 
L 81.986862 92.495588 
L 82.102611 90.995463 
L 82.257073 90.995463 
L 82.373117 92.495588 
L 82.41154 92.495588 
L 82.643619 86.495088 
L 82.681887 86.495088 
L 82.836575 83.494838 
L 83.145496 92.495588 
L 83.183861 92.495588 
L 83.299978 93.995713 
L 83.338716 93.995713 
L 83.492787 95.495838 
L 83.608899 93.995713 
L 83.647252 95.495838 
L 83.686142 93.995713 
L 83.724484 93.995713 
L 83.878947 90.995463 
L 84.033412 90.995463 
L 84.187874 95.495838 
L 84.303936 93.995713 
L 84.342339 93.995713 
L 84.535633 89.495338 
L 84.574033 89.495338 
L 84.728499 93.995713 
L 84.960197 93.995713 
L 85.15351 89.495338 
L 85.230609 89.495338 
L 85.385184 86.495088 
L 85.423588 86.495088 
L 85.732519 77.494338 
L 86.195912 77.494338 
L 86.273502 75.994213 
L 86.389221 77.494338 
L 86.42761 77.494338 
L 86.775389 87.995213 
L 86.813763 87.995213 
L 86.968743 90.995463 
L 87.084245 90.995463 
L 87.199923 92.495588 
L 87.431622 95.495838 
L 87.625001 95.495838 
L 87.740549 93.995713 
L 87.856671 93.995713 
L 87.972246 92.495588 
L 88.088411 92.495588 
L 88.203941 90.995463 
L 88.358406 90.995463 
L 88.512871 92.495588 
L 88.551699 92.495588 
L 88.667335 93.995713 
L 88.706223 93.995713 
L 88.821801 95.495838 
L 88.860666 95.495838 
L 88.976265 96.995963 
L 89.092372 96.995963 
L 89.246721 99.996213 
L 89.285191 99.996213 
L 89.787437 116.497588 
L 90.019151 116.497588 
L 90.134746 114.997463 
L 90.443673 114.997463 
L 90.63677 119.497838 
L 90.67537 119.497838 
L 90.829838 122.498088 
L 90.945953 122.498088 
L 91.061537 123.998213 
L 91.447698 123.998213 
L 91.56384 125.498338 
L 91.641119 125.498338 
L 91.795513 128.498588 
L 91.911091 128.498588 
L 92.066016 131.498838 
L 92.104224 131.498838 
L 92.258934 134.499088 
L 92.33619 134.499088 
L 92.52895 138.999463 
L 92.567717 138.999463 
L 92.722361 141.999713 
L 92.761011 141.999713 
L 92.876655 143.499838 
L 92.954026 143.499838 
L 93.069576 144.999963 
L 93.14681 144.999963 
L 93.26284 146.500088 
L 93.378506 146.500088 
L 93.456208 148.000213 
L 93.649082 148.000213 
L 93.764669 149.500338 
L 93.880633 149.500338 
L 93.996365 151.000463 
L 94.382535 151.000463 
L 94.498738 152.500588 
L 94.923592 152.500588 
L 95.000397 154.000713 
L 95.039139 152.500588 
L 95.077628 154.000713 
L 95.849956 154.000713 
L 95.966069 155.500838 
L 96.391078 155.500838 
L 96.506593 154.000713 
L 96.622277 154.000713 
L 96.699512 152.500588 
L 96.738422 154.000713 
L 96.77674 152.500588 
L 96.892903 152.500588 
L 97.00844 154.000713 
L 97.356293 154.000713 
L 97.471832 155.500838 
L 97.510729 155.500838 
L 97.626298 154.000713 
L 97.896639 154.000713 
L 97.935228 152.500588 
L 97.974043 154.000713 
L 98.398619 154.000713 
L 98.514792 152.500588 
L 98.862016 152.500588 
L 98.978199 154.000713 
L 99.132682 154.000713 
L 99.248175 155.500838 
L 99.59596 155.500838 
L 99.711568 154.000713 
L 99.866034 154.000713 
L 99.982145 155.500838 
L 100.329427 155.500838 
L 100.445603 154.000713 
L 100.986248 154.000713 
L 101.101751 155.500838 
L 101.256213 155.500838 
L 101.37227 154.000713 
L 101.642377 154.000713 
L 101.758492 155.500838 
L 102.10577 155.500838 
L 102.183374 157.000963 
L 102.723627 157.000963 
L 102.839744 158.501088 
L 104.499971 158.501088 
L 104.616059 160.001213 
L 105.54291 160.001213 
L 105.658451 161.501338 
L 106.35354 161.501338 
L 106.469703 160.001213 
L 107.280718 160.001213 
L 107.396361 161.501338 
L 107.705349 161.501338 
L 107.820951 160.001213 
L 108.670504 160.001213 
L 108.824968 161.501338 
L 108.941064 160.001213 
L 110.485759 160.001213 
L 110.601309 161.501338 
L 110.987468 161.501338 
L 111.103604 160.001213 
L 111.759794 160.001213 
L 111.876012 161.501338 
L 112.030391 161.501338 
L 112.145957 160.001213 
L 112.995513 160.001213 
L 113.111362 161.501338 
L 114.03838 161.501338 
L 114.154002 163.001463 
L 117.204891 163.001463 
L 117.320524 164.501588 
L 117.398154 164.501588 
L 117.552224 163.001463 
L 117.668317 163.001463 
L 117.783922 164.501588 
L 117.822771 164.501588 
L 117.938387 163.001463 
L 119.019646 163.001463 
L 119.135689 161.501338 
L 119.174111 161.501338 
L 119.290217 163.001463 
L 122.881282 163.001463 
L 122.997419 161.501338 
L 132.342464 161.501338 
L 132.45809 163.001463 
L 133.462109 163.001463 
L 133.578286 161.501338 
L 134.041579 161.501338 
L 134.157197 163.001463 
L 134.736774 163.001463 
L 134.852725 164.501588 
L 137.092021 164.501588 
L 137.208192 166.001713 
L 137.478184 166.001713 
L 137.594351 164.501588 
L 139.10006 164.501588 
L 139.254525 166.001713 
L 139.370687 166.001713 
L 139.48622 164.501588 
L 139.602397 164.501588 
L 139.640687 166.001713 
L 139.679642 164.501588 
L 142.537178 164.501588 
L 142.652753 166.001713 
L 142.807664 166.001713 
L 142.961684 164.501588 
L 145.472006 164.501588 
L 145.587575 166.001713 
L 145.626498 166.001713 
L 145.664806 164.501588 
L 145.819269 166.001713 
L 145.896503 166.001713 
L 146.012544 164.501588 
L 146.51436 164.501588 
L 146.63052 163.001463 
L 147.634549 163.001463 
L 147.750079 161.501338 
L 148.175062 161.501338 
L 148.29071 160.001213 
L 149.256453 160.001213 
L 149.372383 158.501088 
L 150.221516 158.501088 
L 150.337589 160.001213 
L 150.453218 160.001213 
L 150.569334 158.501088 
L 151.457241 158.501088 
L 151.57311 160.001213 
L 152.229956 160.001213 
L 152.384037 161.501338 
L 153.581464 161.501338 
L 153.697408 160.001213 
L 154.044757 160.001213 
L 154.16039 161.501338 
L 154.469325 161.501338 
L 154.585389 160.001213 
L 155.164814 160.001213 
L 155.280376 161.501338 
L 158.87156 161.501338 
L 158.987589 163.001463 
L 161.574693 163.001463 
L 161.652285 164.501588 
L 162.154137 164.501588 
L 162.269782 166.001713 
L 162.347014 166.001713 
L 162.501478 167.501838 
L 162.69478 167.501838 
L 162.849289 170.502088 
L 162.887637 170.502088 
L 163.273798 182.503088 
L 163.351033 182.503088 
L 163.505494 185.503338 
L 163.54444 185.503338 
L 163.698852 188.503588 
L 163.776146 188.503588 
L 163.930364 191.503838 
L 164.046127 191.503838 
L 164.162263 193.003963 
L 164.316693 193.003963 
L 164.471131 196.004213 
L 164.625389 196.004213 
L 164.741214 197.504338 
L 164.818452 197.504338 
L 164.93462 199.004463 
L 164.972916 199.004463 
L 165.089062 200.504588 
L 165.166222 200.504588 
L 165.282318 202.004713 
L 165.436307 203.504838 
L 165.513542 203.504838 
L 165.629658 205.004963 
L 165.822477 205.004963 
L 165.938528 206.505088 
L 166.1314 206.505088 
L 166.247495 208.005213 
L 167.019743 208.005213 
L 167.13543 209.505338 
L 167.212663 209.505338 
L 167.328843 208.005213 
L 167.676058 208.005213 
L 167.792214 206.505088 
L 168.062219 206.505088 
L 168.139459 205.004963 
L 168.487127 205.004963 
L 168.602853 203.504838 
L 168.873412 203.504838 
L 168.989013 202.004713 
L 169.336829 202.004713 
L 169.452409 200.504588 
L 169.491254 200.504588 
L 169.606876 199.004463 
L 169.877419 199.004463 
L 169.993039 197.504338 
L 170.224735 197.504338 
L 170.340768 196.004213 
L 170.610903 196.004213 
L 170.72705 194.504088 
L 170.765371 194.504088 
L 170.881396 193.003963 
L 171.769387 193.003963 
L 171.885246 191.503838 
L 172.001089 191.503838 
L 172.117274 190.003713 
L 172.194431 190.003713 
L 172.310021 188.503588 
L 172.618955 188.503588 
L 172.73508 187.003463 
L 172.92788 187.003463 
L 173.044067 185.503338 
L 173.236807 185.503338 
L 173.391275 184.003213 
L 174.704232 184.003213 
L 174.858699 182.503088 
L 174.974866 182.503088 
L 175.090395 181.002963 
L 175.553791 181.002963 
L 175.669939 179.502838 
L 175.747137 179.502838 
L 175.862718 178.002713 
L 176.172102 178.002713 
L 176.326114 176.502588 
L 177.870765 176.502588 
L 177.986941 178.002713 
L 178.141351 178.002713 
L 178.256921 176.502588 
L 178.759108 176.502588 
L 178.874786 175.002463 
L 178.990868 175.002463 
L 179.106952 176.502588 
L 179.222507 176.502588 
L 179.338176 175.002463 
L 179.917531 175.002463 
L 180.033267 173.502338 
L 180.264966 173.502338 
L 180.38115 175.002463 
L 180.419431 175.002463 
L 180.496665 173.502338 
L 180.651124 173.502338 
L 180.844498 169.001963 
L 180.998899 169.001963 
L 181.114521 170.502088 
L 181.15345 170.502088 
L 181.269423 172.002213 
L 181.616828 172.002213 
L 181.809614 167.501838 
L 181.964081 167.501838 
L 182.11855 169.001963 
L 182.234721 169.001963 
L 182.350243 170.502088 
L 182.427476 170.502088 
L 182.543645 172.002213 
L 182.620855 172.002213 
L 182.73677 173.502338 
L 182.929798 173.502338 
L 183.045335 175.002463 
L 184.358284 175.002463 
L 184.474393 173.502338 
L 184.589984 173.502338 
L 184.74445 170.502088 
L 184.783375 170.502088 
L 184.899421 169.001963 
L 184.976144 169.001963 
L 185.13061 166.001713 
L 185.169509 166.001713 
L 185.285077 164.501588 
L 185.555661 164.501588 
L 185.671237 166.001713 
L 185.825706 166.001713 
L 185.941855 167.501838 
L 185.980167 166.001713 
L 186.019105 167.501838 
L 186.366813 167.501838 
L 186.482368 169.001963 
L 186.636893 169.001963 
L 186.752493 170.502088 
L 186.868665 170.502088 
L 186.984194 172.002213 
L 187.254796 172.002213 
L 187.370355 173.502338 
L 191.039257 173.502338 
L 191.154748 172.002213 
L 191.270835 173.502338 
L 191.657067 173.502338 
L 191.772609 175.002463 
L 192.622166 175.002463 
L 192.73833 176.502588 
L 192.776627 176.502588 
L 192.853865 175.002463 
L 194.012348 175.002463 
L 194.128501 176.502588 
L 194.321701 176.502588 
L 194.475747 175.002463 
L 194.630209 175.002463 
L 194.746282 173.502338 
L 194.823532 173.502338 
L 194.939137 175.002463 
L 195.673105 175.002463 
L 195.789114 173.502338 
L 195.982059 173.502338 
L 196.020395 172.002213 
L 196.059235 173.502338 
L 196.136504 173.502338 
L 196.213718 172.002213 
L 196.290983 173.502338 
L 196.406555 172.002213 
L 196.908864 172.002213 
L 197.024417 173.502338 
L 197.642277 173.502338 
L 197.758334 175.002463 
L 198.067187 175.002463 
L 198.182904 176.502588 
L 198.337373 176.502588 
L 198.453488 178.002713 
L 199.071397 178.002713 
L 199.186933 179.502838 
L 199.804791 179.502838 
L 199.920945 181.002963 
L 200.963278 181.002963 
L 201.117737 184.003213 
L 201.194971 184.003213 
L 201.349436 187.003463 
L 201.388202 187.003463 
L 201.5039 188.503588 
L 201.542806 188.503588 
L 201.658367 190.003713 
L 201.735601 190.003713 
L 201.851652 191.503838 
L 202.198995 191.503838 
L 202.276228 193.003963 
L 202.507927 193.003963 
L 202.662391 196.004213 
L 202.778529 196.004213 
L 202.894086 197.504338 
L 202.932964 197.504338 
L 203.04904 199.004463 
L 203.203018 199.004463 
L 203.319134 200.504588 
L 203.396269 200.504588 
L 203.511944 202.004713 
L 203.705331 202.004713 
L 203.820873 203.504838 
L 204.284271 203.504838 
L 204.40031 202.004713 
L 204.747665 202.004713 
L 204.86372 200.504588 
L 205.056594 200.504588 
L 205.172679 202.004713 
L 205.442759 202.004713 
L 205.558792 200.504588 
L 207.644122 200.504588 
L 207.759729 202.004713 
L 207.914194 202.004713 
L 208.030345 203.504838 
L 208.918218 203.504838 
L 209.03433 202.004713 
L 209.111524 202.004713 
L 209.149919 203.504838 
L 209.188796 202.004713 
L 209.420427 202.004713 
L 209.536081 200.504588 
L 209.651973 200.504588 
L 209.767778 199.004463 
L 209.806707 199.004463 
L 209.922245 197.504338 
L 209.961216 197.504338 
L 210.115645 194.504088 
L 210.192868 194.504088 
L 210.308843 193.003963 
L 210.385639 193.003963 
L 210.540102 190.003713 
L 210.656206 190.003713 
L 210.7718 188.503588 
L 211.544124 188.503588 
L 211.660242 190.003713 
L 212.316451 190.003713 
L 212.432567 191.503838 
L 213.320477 191.503838 
L 213.474941 188.503588 
L 213.629405 188.503588 
L 213.745569 187.003463 
L 214.015574 187.003463 
L 214.054332 185.503338 
L 214.092803 187.003463 
L 214.324501 187.003463 
L 214.440607 185.503338 
L 214.478969 185.503338 
L 214.595122 184.003213 
L 214.904046 184.003213 
L 215.019603 182.503088 
L 215.212916 182.503088 
L 215.328536 181.002963 
L 215.560232 181.002963 
L 215.676294 179.502838 
L 215.907921 179.502838 
L 215.985205 178.002713 
L 216.023626 179.502838 
L 216.062514 178.002713 
L 216.294086 178.002713 
L 216.409792 176.502588 
L 216.525828 176.502588 
L 216.603094 175.002463 
L 216.718718 176.502588 
L 216.795954 176.502588 
L 217.336575 185.503338 
L 217.37548 185.503338 
L 217.491042 187.003463 
L 218.726767 187.003463 
L 218.842937 188.503588 
L 218.958463 188.503588 
L 219.11293 187.003463 
L 219.383562 187.003463 
L 219.499091 185.503338 
L 219.576322 185.503338 
L 219.692398 184.003213 
L 219.73128 184.003213 
L 219.885249 182.503088 
L 219.924146 182.503088 
L 220.039715 181.002963 
L 220.348648 181.002963 
L 220.425878 179.502838 
L 220.503532 179.502838 
L 220.541766 178.002713 
L 220.58034 179.502838 
L 220.851002 179.502838 
L 220.966505 181.002963 
L 221.391558 181.002963 
L 221.545931 178.002713 
L 221.77773 178.002713 
L 221.893299 176.502588 
L 221.970512 176.502588 
L 222.163844 181.002963 
L 222.356692 181.002963 
L 222.550017 176.502588 
L 222.588385 176.502588 
L 222.742854 173.502338 
L 222.781642 173.502338 
L 222.936164 170.502088 
L 223.245127 170.502088 
L 223.361133 169.001963 
L 223.592407 166.001713 
L 223.631271 166.001713 
L 223.74687 164.501588 
L 223.862956 164.501588 
L 223.978571 163.001463 
L 224.017444 163.001463 
L 224.133456 161.501338 
L 224.364735 161.501338 
L 224.480751 160.001213 
L 224.673659 160.001213 
L 224.789806 161.501338 
L 224.82861 161.501338 
L 224.98259 160.001213 
L 225.059823 160.001213 
L 225.175999 158.501088 
L 225.600445 158.501088 
L 225.716525 157.000963 
L 225.793777 157.000963 
L 225.909376 155.500838 
L 226.063847 158.501088 
L 226.141078 158.501088 
L 226.295993 161.501338 
L 226.334174 161.501338 
L 226.450008 163.001463 
L 226.604475 163.001463 
L 226.681705 161.501338 
L 226.797895 163.001463 
L 226.83617 163.001463 
L 226.99112 166.001713 
L 227.338497 166.001713 
L 227.415597 164.501588 
L 227.531262 166.001713 
L 227.685726 166.001713 
L 227.994656 170.502088 
L 228.07189 170.502088 
L 228.110846 169.001963 
L 228.149124 170.502088 
L 228.265281 170.502088 
L 228.380826 172.002213 
L 228.41976 172.002213 
L 228.574053 169.001963 
L 228.72865 169.001963 
L 228.844221 167.501838 
L 228.998683 167.501838 
L 229.114747 169.001963 
L 229.15315 169.001963 
L 229.384843 172.002213 
L 229.462078 172.002213 
L 229.578166 173.502338 
L 230.079941 173.502338 
L 230.196093 175.002463 
L 230.427798 175.002463 
L 230.543331 176.502588 
L 230.891178 176.502588 
L 231.006727 178.002713 
L 231.238426 178.002713 
L 231.315657 179.502838 
L 231.972447 179.502838 
L 232.088507 181.002963 
L 232.435829 181.002963 
L 232.551372 182.503088 
L 232.628605 182.503088 
L 232.744789 184.003213 
L 232.783072 184.003213 
L 232.937538 185.503338 
L 232.976406 185.503338 
L 233.092001 187.003463 
L 233.3237 187.003463 
L 233.439891 188.503588 
L 233.671431 188.503588 
L 233.787094 190.003713 
L 233.903316 190.003713 
L 234.018794 191.503838 
L 234.134862 191.503838 
L 234.250886 193.003963 
L 234.366456 193.003963 
L 234.482186 194.504088 
L 234.521023 194.504088 
L 234.636657 196.004213 
L 234.713887 196.004213 
L 234.829984 197.504338 
L 234.907299 197.504338 
L 235.023346 199.004463 
L 235.06148 199.004463 
L 235.177286 200.504588 
L 235.331749 200.504588 
L 235.447931 202.004713 
L 235.525182 202.004713 
L 235.64068 203.504838 
L 236.181303 203.504838 
L 236.33577 200.504588 
L 236.412999 200.504588 
L 236.644699 203.504838 
L 236.8764 203.504838 
L 236.992505 205.004963 
L 237.069658 205.004963 
L 237.185716 206.505088 
L 237.223956 206.505088 
L 237.339793 208.005213 
L 237.417027 208.005213 
L 237.53317 209.505338 
L 237.571489 209.505338 
L 237.687534 211.005463 
L 237.88082 211.005463 
L 238.034891 212.505588 
L 238.073788 212.505588 
L 238.228263 215.505838 
L 238.266589 215.505838 
L 238.421055 218.506088 
L 238.498282 218.506088 
L 238.575521 220.006213 
L 239.270616 220.006213 
L 239.348302 221.506338 
L 239.463816 221.506338 
L 239.579546 223.006463 
L 239.618281 223.006463 
L 239.734009 221.506338 
L 239.772919 221.506338 
L 239.888473 220.006213 
L 239.927164 220.006213 
L 240.042939 218.506088 
L 240.236181 218.506088 
L 240.351869 220.006213 
L 240.583573 220.006213 
L 240.6996 218.506088 
L 241.124199 218.506088 
L 241.278667 221.506338 
L 241.394681 221.506338 
L 241.510868 223.006463 
L 241.66483 224.506588 
L 241.819294 224.506588 
L 241.935342 226.006713 
L 241.973759 226.006713 
L 242.089767 227.506838 
L 242.128227 227.506838 
L 242.205457 226.006713 
L 242.321332 226.006713 
L 242.514388 221.506338 
L 242.553181 221.506338 
L 242.707639 218.506088 
L 242.823319 220.006213 
L 242.900555 220.006213 
L 242.978229 221.506338 
L 243.09376 221.506338 
L 243.209487 223.006463 
L 243.248272 223.006463 
L 243.363953 224.506588 
L 244.059047 224.506588 
L 244.175093 223.006463 
L 244.252338 223.006463 
L 244.367981 221.506338 
L 244.44574 223.006463 
L 244.599678 221.506338 
L 244.792974 221.506338 
L 244.94735 224.506588 
L 245.063074 224.506588 
L 245.140307 226.006713 
L 245.256239 226.006713 
L 245.372008 227.506838 
L 245.835405 227.506838 
L 246.221566 233.507338 
L 246.453267 233.507338 
L 246.569279 232.007213 
L 246.684963 233.507338 
L 246.72369 233.507338 
L 246.839426 235.007463 
L 246.993894 235.007463 
L 247.109925 236.507588 
L 247.225593 236.507588 
L 247.302822 238.007713 
L 247.457289 236.507588 
L 247.534529 236.507588 
L 247.573338 238.007713 
L 247.611753 236.507588 
L 247.920691 236.507588 
L 248.036748 235.007463 
L 248.538555 235.007463 
L 248.654631 236.507588 
L 249.118044 236.507588 
L 249.27251 233.507338 
L 249.349583 233.507338 
L 249.504219 236.507588 
L 249.697042 236.507588 
L 249.89034 232.007213 
L 250.546601 232.007213 
L 250.662675 233.507338 
L 250.81711 233.507338 
L 250.932772 235.007463 
L 251.087233 236.507588 
L 251.203357 235.007463 
L 251.58955 235.007463 
L 251.705425 233.507338 
L 251.936796 236.507588 
L 251.975699 236.507588 
L 252.130159 239.507838 
L 252.168496 239.507838 
L 252.322962 242.508088 
L 252.361832 242.508088 
L 252.477779 244.008213 
L 252.554667 244.008213 
L 252.670847 245.508338 
L 252.709126 245.508338 
L 252.825311 247.008463 
L 252.979667 247.008463 
L 253.095288 248.508588 
L 253.172899 248.508588 
L 253.404225 251.508838 
L 253.75204 251.508838 
L 253.867624 250.008713 
L 254.060949 250.008713 
L 254.176557 248.508588 
L 254.215421 248.508588 
L 254.331021 250.008713 
L 254.447149 250.008713 
L 254.601572 247.008463 
L 254.717182 247.008463 
L 254.833317 245.508338 
L 254.871654 245.508338 
L 254.987811 244.008213 
L 255.180581 244.008213 
L 255.296605 242.508088 
L 255.335373 242.508088 
L 255.489509 241.007963 
L 255.760138 241.007963 
L 255.914617 244.008213 
L 256.107845 244.008213 
L 256.223427 245.508338 
L 256.648008 245.508338 
L 256.802892 248.508588 
L 256.91845 248.508588 
L 257.073013 251.508838 
L 257.227581 251.508838 
L 257.34311 253.008963 
L 257.497575 253.008963 
L 257.613476 254.509088 
L 257.806505 250.008713 
L 257.883736 250.008713 
L 258.038208 247.008463 
L 258.115438 247.008463 
L 258.192667 248.508588 
L 258.231491 247.008463 
L 258.270306 248.508588 
L 258.347136 248.508588 
L 258.46326 247.008463 
L 258.656067 247.008463 
L 258.772218 248.508588 
L 259.119468 248.508588 
L 259.23556 250.008713 
L 259.351171 250.008713 
L 259.505634 247.008463 
L 260.046267 247.008463 
L 260.162355 245.508338 
L 260.5869 245.508338 
L 260.70304 247.008463 
L 260.780228 247.008463 
L 260.895832 248.508588 
L 261.050293 248.508588 
L 261.205172 245.508338 
L 261.552559 245.508338 
L 261.668164 244.008213 
L 261.861484 244.008213 
L 261.977092 245.508338 
L 262.015823 245.508338 
L 262.17038 248.508588 
L 262.20879 248.508588 
L 262.363257 251.508838 
L 262.59495 251.508838 
L 262.749423 250.008713 
L 262.788267 250.008713 
L 262.903887 251.508838 
L 262.981121 251.508838 
L 263.135581 254.509088 
L 263.212813 254.509088 
L 263.329011 256.009213 
L 263.48329 256.009213 
L 263.598983 257.509338 
L 264.024104 257.509338 
L 264.139614 259.009463 
L 264.178316 259.009463 
L 264.294077 257.509338 
L 264.564682 257.509338 
L 264.680246 256.009213 
L 264.719159 256.009213 
L 264.75748 254.509088 
L 264.911944 256.009213 
L 265.066408 256.009213 
L 265.220876 259.009463 
L 265.452574 259.009463 
L 265.530173 257.509338 
L 265.877608 257.509338 
L 266.070442 253.008963 
L 266.147672 253.008963 
L 266.224906 251.508838 
L 266.340792 251.508838 
L 266.37937 253.008963 
L 266.418155 251.508838 
L 266.727064 251.508838 
L 266.842772 253.008963 
L 267.074471 253.008963 
L 267.190545 251.508838 
L 267.228933 253.008963 
L 267.267784 251.508838 
L 267.653944 251.508838 
L 267.808244 254.509088 
L 267.846801 254.509088 
L 268.078499 260.509588 
L 268.271759 260.509588 
L 268.42626 257.509338 
L 268.541892 257.509338 
L 268.735308 253.008963 
L 268.81257 253.008963 
L 268.928059 251.508838 
L 269.005295 251.508838 
L 269.121481 253.008963 
L 269.236995 253.008963 
L 269.353057 251.508838 
L 269.46869 251.508838 
L 269.584857 253.008963 
L 269.700396 253.008963 
L 269.854859 256.009213 
L 270.048128 256.009213 
L 270.163789 257.509338 
L 270.202596 257.509338 
L 270.357128 254.509088 
L 270.511603 254.509088 
L 270.627587 253.008963 
L 271.090586 253.008963 
L 271.206704 251.508838 
L 271.322287 251.508838 
L 271.476753 253.008963 
L 271.553985 253.008963 
L 271.708449 256.009213 
L 271.785679 256.009213 
L 271.901882 254.509088 
L 272.171849 254.509088 
L 272.287896 256.009213 
L 272.326312 256.009213 
L 272.442491 257.509338 
L 272.558011 257.509338 
L 272.6741 259.009463 
L 272.866925 259.009463 
L 272.98303 257.509338 
L 273.175878 257.509338 
L 273.369265 262.009713 
L 273.407578 262.009713 
L 273.562493 265.009963 
L 273.716509 265.009963 
L 273.832648 266.510088 
L 273.870976 266.510088 
L 273.987039 265.009963 
L 274.025444 265.009963 
L 274.141572 263.509838 
L 274.257446 263.509838 
L 274.411605 265.009963 
L 274.48884 265.009963 
L 274.643307 268.010213 
L 275.145506 268.010213 
L 275.261172 266.510088 
L 275.299995 266.510088 
L 275.454555 263.509838 
L 275.570101 265.009963 
L 275.608765 265.009963 
L 275.725063 263.509838 
L 275.956268 260.509588 
L 276.342435 260.509588 
L 276.419669 259.009463 
L 276.535551 259.009463 
L 276.612955 260.509588 
L 276.728603 259.009463 
L 276.767513 259.009463 
L 276.883065 260.509588 
L 277.037531 260.509588 
L 277.153667 262.009713 
L 277.269234 262.009713 
L 277.38538 263.509838 
L 277.462628 263.509838 
L 277.578164 262.009713 
L 277.694204 263.509838 
L 278.543867 263.509838 
L 278.698026 260.509588 
L 278.736659 260.509588 
L 279.045591 247.008463 
L 279.779579 173.502338 
L 279.972807 166.001713 
L 280.088423 166.001713 
L 280.242828 163.001463 
L 280.281318 163.001463 
L 280.32023 161.501338 
L 280.744708 190.003713 
L 280.938076 185.503338 
L 281.130871 185.503338 
L 281.246976 184.003213 
L 281.324262 184.003213 
L 281.478472 175.002463 
L 281.94205 141.999713 
L 282.289361 167.501838 
L 282.328233 166.001713 
L 282.55998 154.000713 
L 282.791563 141.999713 
L 282.830428 141.999713 
L 283.525074 117.997713 
L 283.718351 122.498088 
L 283.872887 122.498088 
L 283.988467 120.997963 
L 284.220162 131.498838 
L 284.297818 129.998713 
L 284.374627 129.998713 
L 284.490762 128.498588 
L 284.529092 128.498588 
L 284.722359 123.998213 
L 284.760789 123.998213 
L 284.954135 117.997713 
L 285.185799 129.998713 
L 285.301409 129.998713 
L 285.417558 128.498588 
L 285.533103 128.498588 
L 285.91927 116.497588 
L 285.958139 116.497588 
L 286.382661 129.998713 
L 286.537128 129.998713 
L 286.65323 131.498838 
L 286.730479 131.498838 
L 287.270871 108.996963 
L 287.309445 110.497088 
L 287.425566 113.497338 
L 287.502805 111.997213 
L 287.888974 123.998213 
L 287.965895 123.998213 
L 288.352381 107.496838 
L 288.390696 108.996963 
L 288.892922 140.499588 
L 288.970215 140.499588 
L 289.471949 157.000963 
L 289.510752 157.000963 
L 289.665207 154.000713 
L 289.703645 154.000713 
L 289.819775 152.500588 
L 289.858109 152.500588 
L 290.090267 158.501088 
L 290.24427 158.501088 
L 290.437674 154.000713 
L 290.47597 154.000713 
L 290.630437 157.000963 
L 290.70767 157.000963 
L 290.862542 160.001213 
L 290.978203 158.501088 
L 291.016593 158.501088 
L 291.13276 160.001213 
L 291.287182 160.001213 
L 291.402756 161.501338 
L 291.441561 161.501338 
L 291.595825 164.501588 
L 291.711685 164.501588 
L 291.827826 166.001713 
L 291.905068 166.001713 
L 292.329545 152.500588 
L 292.445658 155.500838 
L 292.870174 141.999713 
L 293.025022 141.999713 
L 293.410801 154.000713 
L 293.449483 154.000713 
L 293.604102 157.000963 
L 293.642495 157.000963 
L 293.720118 158.501088 
L 294.02866 154.000713 
L 294.105891 154.000713 
L 294.414819 143.499838 
L 294.492468 143.499838 
L 294.608134 141.999713 
L 294.80098 141.999713 
L 295.032679 148.000213 
L 295.071567 148.000213 
L 295.612245 129.998713 
L 295.65054 129.998713 
L 295.843905 134.499088 
L 295.998183 134.499088 
L 296.268391 141.999713 
L 296.345627 141.999713 
L 296.577324 148.000213 
L 296.731791 149.500338 
L 296.809022 149.500338 
L 296.925082 151.000463 
L 297.234075 151.000463 
L 297.350077 148.000213 
L 297.465629 148.000213 
L 297.581346 146.500088 
L 297.620186 146.500088 
L 297.735813 144.999963 
L 298.044741 144.999963 
L 298.199206 146.500088 
L 298.392535 146.500088 
L 298.508133 148.000213 
L 298.547042 148.000213 
L 298.662598 149.500338 
L 298.778584 149.500338 
L 298.933081 152.500588 
L 299.010359 152.500588 
L 299.125992 154.000713 
L 299.396638 154.000713 
L 299.434919 152.500588 
L 299.47385 154.000713 
L 299.821084 164.501588 
L 300.052783 167.501838 
L 300.16892 167.501838 
L 300.36171 172.002213 
L 300.438942 172.002213 
L 300.555039 173.502338 
L 300.593406 173.502338 
L 300.74787 176.502588 
L 300.786641 176.502588 
L 300.902339 178.002713 
L 300.979995 178.002713 
L 301.134036 179.502838 
L 301.21127 179.502838 
L 301.327398 181.002963 
L 301.365736 181.002963 
L 301.520199 184.003213 
L 301.636315 184.003213 
L 301.752363 185.503338 
L 301.867978 185.503338 
L 301.983594 187.003463 
L 302.060824 187.003463 
L 302.176965 188.503588 
L 302.215288 188.503588 
L 302.331491 190.003713 
L 302.369753 190.003713 
L 302.485597 191.503838 
L 303.567153 191.503838 
L 303.682713 193.003963 
L 304.146106 193.003963 
L 304.262233 194.504088 
L 305.497846 194.504088 
L 305.613525 193.003963 
L 305.690756 194.504088 
L 305.806905 193.003963 
L 306.270171 193.003963 
L 306.385848 194.504088 
L 306.579194 194.504088 
L 306.694779 196.004213 
L 306.733666 196.004213 
L 306.849249 197.504338 
L 306.887956 197.504338 
L 307.003709 199.004463 
L 307.080945 199.004463 
L 307.197133 200.504588 
L 307.274321 200.504588 
L 307.389876 202.004713 
L 307.660348 202.004713 
L 307.776042 203.504838 
L 308.162199 203.504838 
L 308.239817 205.004963 
L 308.6256 205.004963 
L 308.741756 206.505088 
L 309.012136 206.505088 
L 309.127835 208.005213 
L 309.282277 208.005213 
L 309.397923 209.505338 
L 310.170251 209.505338 
L 310.286353 211.005463 
L 311.792137 211.005463 
L 311.869786 212.505588 
L 312.023836 211.005463 
L 312.101069 211.005463 
L 312.217233 212.505588 
L 312.71893 212.505588 
L 312.835087 211.005463 
L 313.144002 211.005463 
L 313.259561 212.505588 
L 313.56849 212.505588 
L 313.722959 214.005713 
L 314.611448 214.005713 
L 314.726985 212.505588 
L 314.958683 212.505588 
L 315.07478 214.005713 
L 316.001581 214.005713 
L 316.117171 215.505838 
L 316.387691 215.505838 
L 316.503332 217.005963 
L 316.619528 217.005963 
L 316.735029 218.506088 
L 316.812261 218.506088 
L 316.928363 220.006213 
L 316.967182 220.006213 
L 317.121202 221.506338 
L 317.198432 221.506338 
L 317.314569 223.006463 
L 317.352898 223.006463 
L 317.507366 226.006713 
L 317.661831 226.006713 
L 317.816296 227.506838 
L 318.395802 227.506838 
L 318.511389 229.006963 
L 318.588626 229.006963 
L 318.743087 232.007213 
L 318.897552 232.007213 
L 319.01369 233.507338 
L 319.05202 233.507338 
L 319.129629 235.007463 
L 319.245194 235.007463 
L 319.360949 236.507588 
L 319.476937 236.507588 
L 319.59265 238.007713 
L 319.669882 238.007713 
L 319.786057 239.507838 
L 320.094908 239.507838 
L 320.210514 241.007963 
L 320.790048 241.007963 
L 320.905608 242.508088 
L 322.64361 242.508088 
L 322.7592 244.008213 
L 323.377064 244.008213 
L 323.454294 242.508088 
L 324.535559 242.508088 
L 324.651655 241.007963 
L 326.466883 241.007963 
L 326.582436 239.507838 
L 327.933802 239.507838 
L 328.049907 238.007713 
L 328.127159 238.007713 
L 328.242737 236.507588 
L 328.397201 236.507588 
L 328.513266 238.007713 
L 329.3244 238.007713 
L 329.478465 236.507588 
L 330.405256 236.507588 
L 330.521359 238.007713 
L 330.94589 238.007713 
L 331.062067 239.507838 
L 331.370952 239.507838 
L 331.486519 241.007963 
L 332.0659 241.007963 
L 332.259152 236.507588 
L 332.645007 236.507588 
L 332.761137 238.007713 
L 333.147267 238.007713 
L 333.262873 236.507588 
L 333.61068 236.507588 
L 333.726692 238.007713 
L 333.880738 238.007713 
L 333.996883 239.507838 
L 334.074068 239.507838 
L 334.189675 241.007963 
L 334.421832 241.007963 
L 334.575832 242.508088 
L 335.116465 242.508088 
L 335.270927 244.008213 
L 335.348162 244.008213 
L 335.464339 245.508338 
L 335.889291 245.508338 
L 336.043262 244.008213 
L 336.082156 244.008213 
L 336.197725 242.508088 
L 336.35219 242.508088 
L 336.468362 244.008213 
L 337.163449 244.008213 
L 337.278988 245.508338 
L 337.665151 245.508338 
L 337.781347 247.008463 
L 339.287044 247.008463 
L 339.403218 245.508338 
L 339.789407 245.508338 
L 339.904908 244.008213 
L 340.870604 244.008213 
L 340.986584 242.508088 
L 341.179515 242.508088 
L 341.295101 241.007963 
L 342.530826 241.007963 
L 342.646944 239.507838 
L 343.071457 239.507838 
L 343.148692 241.007963 
L 343.805461 241.007963 
L 343.882668 242.508088 
L 344.307182 242.508088 
L 344.423206 241.007963 
L 344.616115 241.007963 
L 344.770577 239.507838 
L 345.465676 239.507838 
L 345.581844 238.007713 
L 345.813538 238.007713 
L 345.929074 236.507588 
L 346.083536 236.507588 
L 346.238005 235.007463 
L 346.508672 235.007463 
L 346.624168 233.507338 
L 346.701404 233.507338 
L 346.778636 232.007213 
L 347.010334 232.007213 
L 347.126448 230.507088 
L 347.821659 230.507088 
L 347.93713 229.006963 
L 348.207713 229.006963 
L 348.32368 227.506838 
L 348.400525 227.506838 
L 348.554989 224.506588 
L 348.593752 224.506588 
L 348.709454 223.006463 
L 348.786686 223.006463 
L 348.902811 224.506588 
L 349.095615 224.506588 
L 349.211733 223.006463 
L 349.443446 223.006463 
L 349.559016 221.506338 
L 349.597901 221.506338 
L 349.713483 220.006213 
L 349.867945 218.506088 
L 350.061361 218.506088 
L 350.176878 217.005963 
L 350.215797 217.005963 
L 350.331342 215.505838 
L 350.679152 215.505838 
L 350.833705 218.506088 
L 351.258122 218.506088 
L 351.412601 215.505838 
L 351.451476 215.505838 
L 351.605939 212.505588 
L 351.644299 212.505588 
L 351.798765 209.505338 
L 351.914854 209.505338 
L 352.03046 208.005213 
L 352.416626 208.005213 
L 352.571092 205.004963 
L 352.648577 205.004963 
L 352.880024 202.004713 
L 352.957256 202.004713 
L 353.073425 203.504838 
L 353.188955 203.504838 
L 353.343419 200.504588 
L 353.42117 200.504588 
L 353.575113 197.504338 
L 353.691246 197.504338 
L 353.845688 200.504588 
L 353.922938 200.504588 
L 354.038518 199.004463 
L 354.077394 199.004463 
L 354.192979 197.504338 
L 354.270211 197.504338 
L 354.386194 196.004213 
L 354.579142 196.004213 
L 354.6953 194.504088 
L 354.733603 194.504088 
L 354.92674 190.003713 
L 354.965307 190.003713 
L 355.158663 185.503338 
L 355.313139 185.503338 
L 355.428699 184.003213 
L 355.467615 184.003213 
L 355.583625 182.503088 
L 355.660393 182.503088 
L 355.814858 185.503338 
L 355.853761 185.503338 
L 355.969327 184.003213 
L 356.08531 184.003213 
L 356.201022 182.503088 
L 356.278258 182.503088 
L 356.509953 176.502588 
L 356.780556 169.001963 
L 356.818886 169.001963 
L 356.973346 172.002213 
L 357.127816 173.502338 
L 357.243922 173.502338 
L 357.359511 172.002213 
L 357.630173 172.002213 
L 357.707387 167.501838 
L 358.131836 129.998713 
L 358.170662 129.998713 
L 358.634061 114.997463 
L 358.711356 114.997463 
L 358.981389 123.998213 
L 359.135851 117.997713 
L 359.174783 119.497838 
L 359.213598 119.497838 
L 359.329082 123.998213 
L 359.830942 101.496338 
L 360.139876 84.994963 
L 360.217103 84.994963 
L 360.448796 90.995463 
L 360.68082 80.494588 
L 360.87388 89.495338 
L 361.452814 148.000213 
L 361.491547 148.000213 
L 361.607279 141.999713 
L 361.993439 108.996963 
L 362.032402 107.496838 
L 362.070672 108.996963 
L 362.225132 110.497088 
L 362.263974 110.497088 
L 362.3796 104.496588 
L 362.418544 105.996713 
L 362.534063 107.496838 
L 362.727366 107.496838 
L 362.804727 102.996463 
L 363.113568 78.994463 
L 363.190847 72.993963 
L 363.229157 74.494088 
L 363.538079 90.995463 
L 363.924237 96.995963 
L 363.963118 96.995963 
L 364.155938 101.496338 
L 364.34904 101.496338 
L 364.387635 102.996463 
L 364.426444 101.496338 
L 364.503714 101.496338 
L 364.658216 105.996713 
L 364.773797 104.496588 
L 364.851027 104.496588 
L 365.700584 134.499088 
L 365.777793 134.499088 
L 365.816495 132.998963 
L 365.855043 134.499088 
L 365.893899 134.499088 
L 366.009513 135.999213 
L 366.048348 135.999213 
L 366.280053 141.999713 
L 366.511519 141.999713 
L 366.666235 144.999963 
L 366.704604 144.999963 
L 366.85907 141.999713 
L 366.936298 141.999713 
L 367.090764 138.999463 
L 367.168519 138.999463 
L 367.32246 137.499338 
L 367.399692 137.499338 
L 367.593099 141.999713 
L 367.670308 141.999713 
L 367.785857 143.499838 
L 367.863089 141.999713 
L 368.094785 141.999713 
L 368.249249 144.999963 
L 368.288184 144.999963 
L 368.442643 148.000213 
L 368.480942 148.000213 
L 368.597075 149.500338 
L 368.635862 149.500338 
L 368.789873 151.000463 
L 368.944339 151.000463 
L 369.060401 152.500588 
L 369.137694 152.500588 
L 369.253266 154.000713 
L 369.63943 154.000713 
L 369.75552 155.500838 
L 369.871127 155.500838 
L 369.987186 157.000963 
L 370.373398 157.000963 
L 370.488985 158.501088 
L 370.798312 158.501088 
L 370.952382 160.001213 
L 370.991255 160.001213 
L 371.106846 161.501338 
L 371.261313 161.501338 
L 371.37753 163.001463 
L 371.493008 163.001463 
L 371.647475 164.501588 
L 371.724707 164.501588 
L 371.840834 166.001713 
L 371.956403 166.001713 
L 372.110872 169.001963 
L 372.226965 169.001963 
L 372.342564 170.502088 
L 372.497029 170.502088 
L 372.612974 172.002213 
L 372.922025 172.002213 
L 373.037652 173.502338 
L 373.192124 173.502338 
L 373.308249 175.002463 
L 373.501049 175.002463 
L 373.617204 176.502588 
L 373.848781 176.502588 
L 373.964445 178.002713 
L 374.428334 178.002713 
L 374.582306 179.502838 
L 375.23883 179.502838 
L 375.354632 178.002713 
L 375.509096 178.002713 
L 375.625261 179.502838 
L 375.702512 179.502838 
L 375.818028 178.002713 
L 376.204188 178.002713 
L 376.320269 179.502838 
L 376.358657 179.502838 
L 376.474797 181.002963 
L 376.513121 181.002963 
L 376.590349 182.503088 
L 376.744813 182.503088 
L 376.89928 179.502838 
L 378.212233 179.502838 
L 378.328414 181.002963 
L 379.061791 181.002963 
L 379.177984 179.502838 
L 379.447953 179.502838 
L 379.525663 178.002713 
L 379.679649 178.002713 
L 379.795805 176.502588 
L 380.451978 176.502588 
L 380.568132 175.002463 
L 380.645416 175.002463 
L 380.722477 173.502338 
L 380.838141 175.002463 
L 381.224301 175.002463 
L 381.340352 176.502588 
L 381.572172 176.502588 
L 381.688168 178.002713 
L 382.03557 178.002713 
L 382.151092 179.502838 
L 382.19005 179.502838 
L 382.305561 181.002963 
L 382.498677 181.002963 
L 382.614485 179.502838 
L 382.80774 179.502838 
L 382.923419 181.002963 
L 383.077882 181.002963 
L 383.155585 182.503088 
L 383.309579 182.503088 
L 383.4257 184.003213 
L 383.657433 184.003213 
L 383.811907 187.003463 
L 383.850204 187.003463 
L 384.081903 190.003713 
L 384.120729 190.003713 
L 384.23637 191.503838 
L 384.275058 191.503838 
L 384.390831 193.003963 
L 384.506937 193.003963 
L 384.623027 194.504088 
L 384.661154 194.504088 
L 384.815906 197.504338 
L 386.167185 197.504338 
L 386.28329 196.004213 
L 386.476113 196.004213 
L 386.592267 194.504088 
L 387.287293 194.504088 
L 387.402907 193.003963 
L 387.711834 193.003963 
L 387.82793 191.503838 
L 387.866299 191.503838 
L 388.175231 187.003463 
L 388.445787 187.003463 
L 388.561391 185.503338 
L 388.870322 185.503338 
L 388.947945 184.003213 
L 389.333719 184.003213 
L 389.449833 185.503338 
L 390.337742 185.503338 
L 390.41534 187.003463 
L 390.9556 187.003463 
L 391.071685 185.503338 
L 391.110064 185.503338 
L 391.341761 188.503588 
L 391.457859 188.503588 
L 391.573462 187.003463 
L 391.805157 187.003463 
L 391.920994 188.503588 
L 392.423019 188.503588 
L 392.500252 187.003463 
L 392.577486 188.503588 
L 392.886417 188.503588 
L 393.002485 190.003713 
L 393.195344 190.003713 
L 393.272579 188.503588 
L 393.388448 188.503588 
L 393.542977 191.503838 
L 394.045313 191.503838 
L 394.199369 193.003963 
L 394.315544 193.003963 
L 394.431066 194.504088 
L 394.701635 194.504088 
L 394.817701 193.003963 
L 395.280628 193.003963 
L 395.396722 194.504088 
L 395.666792 194.504088 
L 395.782848 196.004213 
L 395.821254 196.004213 
L 395.937378 197.504338 
L 395.975721 197.504338 
L 396.130186 200.504588 
L 396.207418 200.504588 
L 396.361885 202.004713 
L 396.400646 202.004713 
L 396.51635 200.504588 
L 396.59404 200.504588 
L 396.748048 197.504338 
L 397.095775 197.504338 
L 397.250347 200.504588 
L 397.365909 200.504588 
L 397.482062 199.004463 
L 397.636456 199.004463 
L 397.790798 202.004713 
L 397.829306 202.004713 
L 397.983771 205.004963 
L 398.138234 205.004963 
L 398.254358 206.505088 
L 398.485822 206.505088 
L 398.640535 203.504838 
L 399.258247 203.504838 
L 399.412849 200.504588 
L 399.45119 200.504588 
L 399.567326 199.004463 
L 399.760121 199.004463 
L 399.837355 200.504588 
L 399.914568 200.504588 
L 400.030674 199.004463 
L 400.146282 199.004463 
L 400.262353 200.504588 
L 400.494121 200.504588 
L 400.571295 199.004463 
L 400.686911 200.504588 
L 400.880346 200.504588 
L 401.034777 197.504338 
L 401.382006 197.504338 
L 401.420717 199.004463 
L 401.459242 197.504338 
L 401.613701 197.504338 
L 401.768171 200.504588 
L 401.88423 200.504588 
L 401.999871 202.004713 
L 402.193145 202.004713 
L 402.308798 203.504838 
L 402.347704 203.504838 
L 402.463262 202.004713 
L 402.579405 202.004713 
L 402.772629 206.505088 
L 403.158359 212.505588 
L 403.274547 212.505588 
L 403.390057 214.005713 
L 403.698984 214.005713 
L 403.853454 211.005463 
L 404.162387 211.005463 
L 404.31685 214.005713 
L 404.432917 214.005713 
L 404.548545 215.505838 
L 404.664664 215.505838 
L 404.78025 214.005713 
L 404.934712 214.005713 
L 405.166409 211.005463 
L 405.359776 211.005463 
L 405.47534 212.505588 
L 405.514222 212.505588 
L 405.70739 208.005213 
L 405.900438 208.005213 
L 406.054882 211.005463 
L 406.247667 211.005463 
L 406.402546 214.005713 
L 406.5181 214.005713 
L 406.633828 215.505838 
L 406.981694 215.505838 
L 407.097228 218.506088 
L 407.251696 218.506088 
L 407.367861 220.006213 
L 407.445112 220.006213 
L 407.560627 221.506338 
L 407.6768 221.506338 
L 407.792323 220.006213 
L 408.140059 220.006213 
L 408.294643 217.005963 
L 408.410188 217.005963 
L 408.526337 218.506088 
L 408.564654 218.506088 
L 408.719116 220.006213 
L 409.144193 220.006213 
L 409.298642 223.006463 
L 409.453003 223.006463 
L 409.568681 224.506588 
L 409.607435 224.506588 
L 409.723145 226.006713 
L 409.762041 226.006713 
L 409.916424 229.006963 
L 410.032431 229.006963 
L 410.186538 227.506838 
L 410.611638 227.506838 
L 410.843047 221.506338 
L 411.036098 221.506338 
L 411.190566 224.506588 
L 411.2678 224.506588 
L 411.422262 221.506338 
L 411.962895 221.506338 
L 412.078972 220.006213 
L 412.349058 220.006213 
L 412.503525 223.006463 
L 412.580757 223.006463 
L 412.696862 224.506588 
L 412.928566 224.506588 
L 413.082928 227.506838 
L 413.50755 227.506838 
L 413.584782 226.006713 
L 413.662016 227.506838 
L 413.777951 227.506838 
L 413.893719 229.006963 
L 414.241616 229.006963 
L 414.357109 230.507088 
L 414.666042 230.507088 
L 414.782153 232.007213 
L 414.820507 232.007213 
L 414.936675 233.507338 
L 415.052205 233.507338 
L 415.12988 235.007463 
L 415.283902 233.507338 
L 415.36114 233.507338 
L 415.477111 235.007463 
L 415.554443 235.007463 
L 415.670071 233.507338 
L 415.824536 233.507338 
L 415.979004 232.007213 
L 416.249542 232.007213 
L 416.365165 233.507338 
L 416.597296 227.506838 
L 416.751329 226.006713 
L 417.060262 226.006713 
L 417.214726 223.006463 
L 417.253666 223.006463 
L 417.369173 221.506338 
L 417.523661 221.506338 
L 417.678123 218.506088 
L 417.948678 218.506088 
L 418.45045 196.004213 
L 418.875327 170.502088 
L 418.991079 169.001963 
L 419.029988 169.001963 
L 419.300006 155.500838 
L 419.45447 148.000213 
L 419.686169 148.000213 
L 419.995099 138.999463 
L 420.072329 138.999463 
L 420.227254 143.499838 
L 420.304024 141.999713 
L 420.381259 143.499838 
L 420.690186 132.998963 
L 420.883549 137.499338 
L 421.037804 129.998713 
L 421.346788 104.496588 
L 421.616974 92.495588 
L 421.694573 93.995713 
L 421.732829 93.995713 
L 421.925902 95.495838 
L 422.04184 93.995713 
L 422.389688 83.494838 
L 422.466531 84.994963 
L 422.698222 98.496088 
L 422.89163 93.995713 
L 423.007152 93.995713 
L 423.084381 90.995463 
L 423.316078 101.496338 
L 423.547774 107.496838 
L 423.857171 92.495588 
L 424.127277 78.994463 
L 424.242868 72.993963 
L 424.281637 74.494088 
L 424.552212 89.495338 
L 424.783485 86.495088 
L 424.860716 86.495088 
L 424.937953 84.994963 
L 425.092411 87.995213 
L 425.131326 87.995213 
L 425.517403 74.494088 
L 425.594644 75.994213 
L 425.749028 72.993963 
L 425.787503 72.993963 
L 425.980802 77.494338 
L 426.173667 78.994463 
L 426.250894 77.494338 
L 426.328131 78.994463 
L 426.521507 78.994463 
L 426.714289 84.994963 
L 426.830357 83.494838 
L 426.984878 86.495088 
L 427.023211 86.495088 
L 427.10045 83.494838 
L 427.139358 84.994963 
L 427.293846 89.495338 
L 427.40936 87.995213 
L 427.486604 90.995463 
L 428.52954 93.995713 
L 429.147358 72.993963 
L 429.185716 72.993963 
L 429.301794 77.494338 
L 429.649112 60.992963 
L 429.765229 56.492588 
L 430.074117 81.994713 
L 430.151296 81.994713 
L 430.189734 80.494588 
L 430.228622 81.994713 
L 430.267418 81.994713 
L 430.460316 86.495088 
L 430.537547 86.495088 
L 430.769171 80.494588 
L 430.923564 84.994963 
L 431.039285 78.994463 
L 431.27098 63.993213 
L 431.579905 45.991713 
L 431.618732 45.991713 
L 431.811602 38.491088 
L 431.927721 39.991213 
L 431.966068 38.491088 
L 432.004799 39.991213 
L 432.08204 39.991213 
L 432.27499 44.491588 
L 432.352222 44.491588 
L 432.429918 41.491338 
L 432.54545 41.491338 
L 432.661154 36.990963 
L 432.700037 38.491088 
L 433.086169 56.492588 
L 433.240475 62.493088 
L 433.317878 62.493088 
L 434.090241 89.495338 
L 434.128553 89.495338 
L 434.437488 80.494588 
L 434.4764 80.494588 
L 434.553603 78.994463 
L 434.669184 80.494588 
L 434.746417 80.494588 
L 434.939773 72.993963 
L 434.978115 71.493838 
L 435.016821 72.993963 
L 435.132577 74.494088 
L 435.209807 74.494088 
L 435.28704 71.493838 
L 435.673199 77.494338 
L 435.712107 77.494338 
L 435.943833 71.493838 
L 436.020893 71.493838 
L 436.136592 69.993713 
L 436.175377 69.993713 
L 436.44552 77.494338 
L 436.677216 77.494338 
L 437.333878 105.996713 
L 437.603998 119.497838 
L 437.91293 128.498588 
L 437.990158 128.498588 
L 438.222185 134.499088 
L 438.530787 138.999463 
L 438.56969 138.999463 
L 438.724071 141.999713 
L 438.801279 141.999713 
L 438.916953 144.999963 
L 439.032882 144.999963 
L 439.148647 146.500088 
L 443.010268 164.501588 
L 443.126347 166.001713 
L 443.203484 166.001713 
L 443.319195 167.501838 
L 443.473982 167.501838 
L 443.628128 169.001963 
L 444.168755 169.001963 
L 444.323216 170.502088 
L 444.439356 170.502088 
L 444.554916 169.001963 
L 444.709754 169.001963 
L 444.825479 170.502088 
L 444.902648 170.502088 
L 445.018309 172.002213 
L 445.134423 170.502088 
L 445.327233 170.502088 
L 445.443265 172.002213 
L 445.4817 172.002213 
L 445.597736 173.502338 
L 445.636165 173.502338 
L 445.790633 175.002463 
L 445.829455 175.002463 
L 446.02233 179.502838 
L 446.138324 179.502838 
L 446.254027 181.002963 
L 446.33126 181.002963 
L 446.485718 182.503088 
L 446.562953 182.503088 
L 446.679048 184.003213 
L 446.910716 184.003213 
L 447.065085 187.003463 
L 447.258045 187.003463 
L 447.412509 184.003213 
L 447.605683 184.003213 
L 447.721437 182.503088 
L 447.876366 182.503088 
L 447.914561 184.003213 
L 448.378173 185.503338 
L 448.493764 184.003213 
L 448.687031 184.003213 
L 448.725465 185.503338 
L 448.996034 185.503338 
L 449.111627 184.003213 
L 449.382194 184.003213 
L 449.497791 185.503338 
L 449.613677 185.503338 
L 449.729493 187.003463 
L 449.806722 187.003463 
L 449.922849 188.503588 
L 450 188.503588 
L 450 188.503588 
" clip-path="url(#p1824150efd)" style="fill: none; stroke: #1f77b4; stroke-width: 1.5; stroke-linecap: square"/>
   </g>
   <g id="patch_3">
    <path d="M 46.46 279.561175 
L 46.46 25.44 
" style="fill: none; stroke: #000000; stroke-width: 0.8; stroke-linejoin: miter; stroke-linecap: square"/>
   </g>
   <g id="patch_4">
    <path d="M 450 279.561175 
L 450 25.44 
" style="fill: none; stroke: #000000; stroke-width: 0.8; stroke-linejoin: miter; stroke-linecap: square"/>
   </g>
   <g id="patch_5">
    <path d="M 46.46 279.561175 
L 450 279.561175 
" style="fill: none; stroke: #000000; stroke-width: 0.8; stroke-linejoin: miter; stroke-linecap: square"/>
   </g>
   <g id="patch_6">
    <path d="M 46.46 25.44 
L 450 25.44 
" style="fill: none; stroke: #000000; stroke-width: 0.8; stroke-linejoin: miter; stroke-linecap: square"/>
   </g>
   <g id="text_15">
    <!-- November 2023 -->
    <g transform="translate(199.838125 19.44) scale(0.12 -0.12)">
     <defs>
      <path id="DejaVuSans-4e" d="M 628 4666 
L 1478 4666 
L 3547 763 
L 3547 4666 
L 4159 4666 
L 4159 0 
L 3309 0 
L 1241 3903 
L 1241 0 
L 628 0 
L 628 4666 
z
" transform="scale(0.015625)"/>
      <path id="DejaVuSans-6f" d="M 1959 3097 
Q 1497 3097 1228 2736 
Q 959 2375 959 1747 
Q 959 1119 1226 758 
Q 1494 397 1959 397 
Q 2419 397 2687 759 
Q 2956 1122 2956 1747 
Q 2956 2369 2687 2733 
Q 2419 3097 1959 3097 
z
M 1959 3584 
Q 2709 3584 3137 3096 
Q 3566 2609 3566 1747 
Q 3566 888 3137 398 
Q 2709 -91 1959 -91 
Q 1206 -91 779 398 
Q 353 888 353 1747 
Q 353 2609 779 3096 
Q 1206 3584 1959 3584 
z
" transform="scale(0.015625)"/>
      <path id="DejaVuSans-76" d="M 191 3500 
L 800 3500 
L 1894 563 
L 2988 3500 
L 3597 3500 
L 2284 0 
L 1503 0 
L 191 3500 
z
" transform="scale(0.015625)"/>
      <path id="DejaVuSans-62" d="M 3116 1747 
Q 3116 2381 2855 2742 
Q 2594 3103 2138 3103 
Q 1681 3103 1420 2742 
Q 1159 2381 1159 1747 
Q 1159 1113 1420 752 
Q 1681 391 2138 391 
Q 2594 391 2855 752 
Q 3116 1113 3116 1747 
z
M 1159 2969 
Q 1341 3281 1617 3432 
Q 1894 3584 2278 3584 
Q 2916 3584 3314 3078 
Q 3713 2572 3713 1747 
Q 3713 922 3314 415 
Q 2916 -91 2278 -91 
Q 1894 -91 1617 61 
Q 1341 213 1159 525 
L 1159 0 
L 581 0 
L 581 4863 
L 1159 4863 
L 1159 2969 
z
" transform="scale(0.015625)"/>
     </defs>
     <use xlink:href="#DejaVuSans-4e"/>
     <use xlink:href="#DejaVuSans-6f" x="74.804688"/>
     <use xlink:href="#DejaVuSans-76" x="135.986328"/>
     <use xlink:href="#DejaVuSans-65" x="195.166016"/>
     <use xlink:href="#DejaVuSans-6d" x="256.689453"/>
     <use xlink:href="#DejaVuSans-62" x="354.101562"/>
     <use xlink:href="#DejaVuSans-65" x="417.578125"/>
     <use xlink:href="#DejaVuSans-72" x="479.101562"/>
     <use xlink:href="#DejaVuSans-20" x="520.214844"/>
     <use xlink:href="#DejaVuSans-32" x="552.001953"/>
     <use xlink:href="#DejaVuSans-30" x="615.625"/>
     <use xlink:href="#DejaVuSans-32" x="679.248047"/>
     <use xlink:href="#DejaVuSans-33" x="742.871094"/>
    </g>
   </g>
  </g>
 </g>
 <defs>
  <clipPath id="p1824150efd">
   <rect x="46.46" y="25.44" width="403.54" height="254.121175"/>
  </clipPath>
 </defs>
</svg>
