<?xml version="1.0" encoding="utf-8" standalone="no"?>
<!DOCTYPE svg PUBLIC "-//W3C//DTD SVG 1.1//EN"
  "http://www.w3.org/Graphics/SVG/1.1/DTD/svg11.dtd">
<svg xmlns:xlink="http://www.w3.org/1999/xlink" width="460.8pt" height="345.6pt" viewBox="0 0 460.8 345.6" xmlns="http://www.w3.org/2000/svg" version="1.1">
 <metadata>
  <rdf:RDF xmlns:dc="http://purl.org/dc/elements/1.1/" xmlns:cc="http://creativecommons.org/ns#" xmlns:rdf="http://www.w3.org/1999/02/22-rdf-syntax-ns#">
   <cc:Work>
    <dc:type rdf:resource="http://purl.org/dc/dcmitype/StillImage"/>
    <dc:date>2023-11-06T19:24:01.550026</dc:date>
    <dc:format>image/svg+xml</dc:format>
    <dc:creator>
     <cc:Agent>
      <dc:title>Matplotlib v3.6.3, https://matplotlib.org/</dc:title>
     </cc:Agent>
    </dc:creator>
   </cc:Work>
  </rdf:RDF>
 </metadata>
 <defs>
  <style type="text/css">*{stroke-linejoin: round; stroke-linecap: butt}</style>
 </defs>
 <g id="figure_1">
  <g id="patch_1">
   <path d="M 0 345.6 
L 460.8 345.6 
L 460.8 0 
L 0 0 
z
" style="fill: #ffffff"/>
  </g>
  <g id="axes_1">
   <g id="patch_2">
    <path d="M 51.05 279.561175 
L 450 279.561175 
L 450 25.44 
L 51.05 25.44 
z
" style="fill: #ffffff"/>
   </g>
   <g id="matplotlib.axis_1">
    <g id="xtick_1">
     <g id="line2d_1">
      <path d="M 119.713056 279.561175 
L 119.713056 25.44 
" clip-path="url(#p0660b88df6)" style="fill: none; stroke: #b0b0b0; stroke-width: 0.8; stroke-linecap: square"/>
     </g>
     <g id="line2d_2">
      <defs>
       <path id="m3904cd98bf" d="M 0 0 
L 0 3.5 
" style="stroke: #000000; stroke-width: 0.8"/>
      </defs>
      <g>
       <use xlink:href="#m3904cd98bf" x="119.713056" y="279.561175" style="stroke: #000000; stroke-width: 0.8"/>
      </g>
     </g>
     <g id="text_1">
      <!-- 2023-11-02 -->
      <g transform="translate(77.148543 333.028035) rotate(-45) scale(0.1 -0.1)">
       <defs>
        <path id="DejaVuSans-32" d="M 1228 531 
L 3431 531 
L 3431 0 
L 469 0 
L 469 531 
Q 828 903 1448 1529 
Q 2069 2156 2228 2338 
Q 2531 2678 2651 2914 
Q 2772 3150 2772 3378 
Q 2772 3750 2511 3984 
Q 2250 4219 1831 4219 
Q 1534 4219 1204 4116 
Q 875 4013 500 3803 
L 500 4441 
Q 881 4594 1212 4672 
Q 1544 4750 1819 4750 
Q 2544 4750 2975 4387 
Q 3406 4025 3406 3419 
Q 3406 3131 3298 2873 
Q 3191 2616 2906 2266 
Q 2828 2175 2409 1742 
Q 1991 1309 1228 531 
z
" transform="scale(0.015625)"/>
        <path id="DejaVuSans-30" d="M 2034 4250 
Q 1547 4250 1301 3770 
Q 1056 3291 1056 2328 
Q 1056 1369 1301 889 
Q 1547 409 2034 409 
Q 2525 409 2770 889 
Q 3016 1369 3016 2328 
Q 3016 3291 2770 3770 
Q 2525 4250 2034 4250 
z
M 2034 4750 
Q 2819 4750 3233 4129 
Q 3647 3509 3647 2328 
Q 3647 1150 3233 529 
Q 2819 -91 2034 -91 
Q 1250 -91 836 529 
Q 422 1150 422 2328 
Q 422 3509 836 4129 
Q 1250 4750 2034 4750 
z
" transform="scale(0.015625)"/>
        <path id="DejaVuSans-33" d="M 2597 2516 
Q 3050 2419 3304 2112 
Q 3559 1806 3559 1356 
Q 3559 666 3084 287 
Q 2609 -91 1734 -91 
Q 1441 -91 1130 -33 
Q 819 25 488 141 
L 488 750 
Q 750 597 1062 519 
Q 1375 441 1716 441 
Q 2309 441 2620 675 
Q 2931 909 2931 1356 
Q 2931 1769 2642 2001 
Q 2353 2234 1838 2234 
L 1294 2234 
L 1294 2753 
L 1863 2753 
Q 2328 2753 2575 2939 
Q 2822 3125 2822 3475 
Q 2822 3834 2567 4026 
Q 2313 4219 1838 4219 
Q 1578 4219 1281 4162 
Q 984 4106 628 3988 
L 628 4550 
Q 988 4650 1302 4700 
Q 1616 4750 1894 4750 
Q 2613 4750 3031 4423 
Q 3450 4097 3450 3541 
Q 3450 3153 3228 2886 
Q 3006 2619 2597 2516 
z
" transform="scale(0.015625)"/>
        <path id="DejaVuSans-2d" d="M 313 2009 
L 1997 2009 
L 1997 1497 
L 313 1497 
L 313 2009 
z
" transform="scale(0.015625)"/>
        <path id="DejaVuSans-31" d="M 794 531 
L 1825 531 
L 1825 4091 
L 703 3866 
L 703 4441 
L 1819 4666 
L 2450 4666 
L 2450 531 
L 3481 531 
L 3481 0 
L 794 0 
L 794 531 
z
" transform="scale(0.015625)"/>
       </defs>
       <use xlink:href="#DejaVuSans-32"/>
       <use xlink:href="#DejaVuSans-30" x="63.623047"/>
       <use xlink:href="#DejaVuSans-32" x="127.246094"/>
       <use xlink:href="#DejaVuSans-33" x="190.869141"/>
       <use xlink:href="#DejaVuSans-2d" x="254.492188"/>
       <use xlink:href="#DejaVuSans-31" x="290.576172"/>
       <use xlink:href="#DejaVuSans-31" x="354.199219"/>
       <use xlink:href="#DejaVuSans-2d" x="417.822266"/>
       <use xlink:href="#DejaVuSans-30" x="453.90625"/>
       <use xlink:href="#DejaVuSans-32" x="517.529297"/>
      </g>
     </g>
    </g>
    <g id="xtick_2">
     <g id="line2d_3">
      <path d="M 188.412661 279.561175 
L 188.412661 25.44 
" clip-path="url(#p0660b88df6)" style="fill: none; stroke: #b0b0b0; stroke-width: 0.8; stroke-linecap: square"/>
     </g>
     <g id="line2d_4">
      <g>
       <use xlink:href="#m3904cd98bf" x="188.412661" y="279.561175" style="stroke: #000000; stroke-width: 0.8"/>
      </g>
     </g>
     <g id="text_2">
      <!-- 2023-11-03 -->
      <g transform="translate(145.848148 333.028035) rotate(-45) scale(0.1 -0.1)">
       <use xlink:href="#DejaVuSans-32"/>
       <use xlink:href="#DejaVuSans-30" x="63.623047"/>
       <use xlink:href="#DejaVuSans-32" x="127.246094"/>
       <use xlink:href="#DejaVuSans-33" x="190.869141"/>
       <use xlink:href="#DejaVuSans-2d" x="254.492188"/>
       <use xlink:href="#DejaVuSans-31" x="290.576172"/>
       <use xlink:href="#DejaVuSans-31" x="354.199219"/>
       <use xlink:href="#DejaVuSans-2d" x="417.822266"/>
       <use xlink:href="#DejaVuSans-30" x="453.90625"/>
       <use xlink:href="#DejaVuSans-33" x="517.529297"/>
      </g>
     </g>
    </g>
    <g id="xtick_3">
     <g id="line2d_5">
      <path d="M 257.112267 279.561175 
L 257.112267 25.44 
" clip-path="url(#p0660b88df6)" style="fill: none; stroke: #b0b0b0; stroke-width: 0.8; stroke-linecap: square"/>
     </g>
     <g id="line2d_6">
      <g>
       <use xlink:href="#m3904cd98bf" x="257.112267" y="279.561175" style="stroke: #000000; stroke-width: 0.8"/>
      </g>
     </g>
     <g id="text_3">
      <!-- 2023-11-04 -->
      <g transform="translate(214.547753 333.028035) rotate(-45) scale(0.1 -0.1)">
       <defs>
        <path id="DejaVuSans-34" d="M 2419 4116 
L 825 1625 
L 2419 1625 
L 2419 4116 
z
M 2253 4666 
L 3047 4666 
L 3047 1625 
L 3713 1625 
L 3713 1100 
L 3047 1100 
L 3047 0 
L 2419 0 
L 2419 1100 
L 313 1100 
L 313 1709 
L 2253 4666 
z
" transform="scale(0.015625)"/>
       </defs>
       <use xlink:href="#DejaVuSans-32"/>
       <use xlink:href="#DejaVuSans-30" x="63.623047"/>
       <use xlink:href="#DejaVuSans-32" x="127.246094"/>
       <use xlink:href="#DejaVuSans-33" x="190.869141"/>
       <use xlink:href="#DejaVuSans-2d" x="254.492188"/>
       <use xlink:href="#DejaVuSans-31" x="290.576172"/>
       <use xlink:href="#DejaVuSans-31" x="354.199219"/>
       <use xlink:href="#DejaVuSans-2d" x="417.822266"/>
       <use xlink:href="#DejaVuSans-30" x="453.90625"/>
       <use xlink:href="#DejaVuSans-34" x="517.529297"/>
      </g>
     </g>
    </g>
    <g id="xtick_4">
     <g id="line2d_7">
      <path d="M 325.811872 279.561175 
L 325.811872 25.44 
" clip-path="url(#p0660b88df6)" style="fill: none; stroke: #b0b0b0; stroke-width: 0.8; stroke-linecap: square"/>
     </g>
     <g id="line2d_8">
      <g>
       <use xlink:href="#m3904cd98bf" x="325.811872" y="279.561175" style="stroke: #000000; stroke-width: 0.8"/>
      </g>
     </g>
     <g id="text_4">
      <!-- 2023-11-05 -->
      <g transform="translate(283.247358 333.028035) rotate(-45) scale(0.1 -0.1)">
       <defs>
        <path id="DejaVuSans-35" d="M 691 4666 
L 3169 4666 
L 3169 4134 
L 1269 4134 
L 1269 2991 
Q 1406 3038 1543 3061 
Q 1681 3084 1819 3084 
Q 2600 3084 3056 2656 
Q 3513 2228 3513 1497 
Q 3513 744 3044 326 
Q 2575 -91 1722 -91 
Q 1428 -91 1123 -41 
Q 819 9 494 109 
L 494 744 
Q 775 591 1075 516 
Q 1375 441 1709 441 
Q 2250 441 2565 725 
Q 2881 1009 2881 1497 
Q 2881 1984 2565 2268 
Q 2250 2553 1709 2553 
Q 1456 2553 1204 2497 
Q 953 2441 691 2322 
L 691 4666 
z
" transform="scale(0.015625)"/>
       </defs>
       <use xlink:href="#DejaVuSans-32"/>
       <use xlink:href="#DejaVuSans-30" x="63.623047"/>
       <use xlink:href="#DejaVuSans-32" x="127.246094"/>
       <use xlink:href="#DejaVuSans-33" x="190.869141"/>
       <use xlink:href="#DejaVuSans-2d" x="254.492188"/>
       <use xlink:href="#DejaVuSans-31" x="290.576172"/>
       <use xlink:href="#DejaVuSans-31" x="354.199219"/>
       <use xlink:href="#DejaVuSans-2d" x="417.822266"/>
       <use xlink:href="#DejaVuSans-30" x="453.90625"/>
       <use xlink:href="#DejaVuSans-35" x="517.529297"/>
      </g>
     </g>
    </g>
    <g id="xtick_5">
     <g id="line2d_9">
      <path d="M 394.511477 279.561175 
L 394.511477 25.44 
" clip-path="url(#p0660b88df6)" style="fill: none; stroke: #b0b0b0; stroke-width: 0.8; stroke-linecap: square"/>
     </g>
     <g id="line2d_10">
      <g>
       <use xlink:href="#m3904cd98bf" x="394.511477" y="279.561175" style="stroke: #000000; stroke-width: 0.8"/>
      </g>
     </g>
     <g id="text_5">
      <!-- 2023-11-06 -->
      <g transform="translate(351.946963 333.028035) rotate(-45) scale(0.1 -0.1)">
       <defs>
        <path id="DejaVuSans-36" d="M 2113 2584 
Q 1688 2584 1439 2293 
Q 1191 2003 1191 1497 
Q 1191 994 1439 701 
Q 1688 409 2113 409 
Q 2538 409 2786 701 
Q 3034 994 3034 1497 
Q 3034 2003 2786 2293 
Q 2538 2584 2113 2584 
z
M 3366 4563 
L 3366 3988 
Q 3128 4100 2886 4159 
Q 2644 4219 2406 4219 
Q 1781 4219 1451 3797 
Q 1122 3375 1075 2522 
Q 1259 2794 1537 2939 
Q 1816 3084 2150 3084 
Q 2853 3084 3261 2657 
Q 3669 2231 3669 1497 
Q 3669 778 3244 343 
Q 2819 -91 2113 -91 
Q 1303 -91 875 529 
Q 447 1150 447 2328 
Q 447 3434 972 4092 
Q 1497 4750 2381 4750 
Q 2619 4750 2861 4703 
Q 3103 4656 3366 4563 
z
" transform="scale(0.015625)"/>
       </defs>
       <use xlink:href="#DejaVuSans-32"/>
       <use xlink:href="#DejaVuSans-30" x="63.623047"/>
       <use xlink:href="#DejaVuSans-32" x="127.246094"/>
       <use xlink:href="#DejaVuSans-33" x="190.869141"/>
       <use xlink:href="#DejaVuSans-2d" x="254.492188"/>
       <use xlink:href="#DejaVuSans-31" x="290.576172"/>
       <use xlink:href="#DejaVuSans-31" x="354.199219"/>
       <use xlink:href="#DejaVuSans-2d" x="417.822266"/>
       <use xlink:href="#DejaVuSans-30" x="453.90625"/>
       <use xlink:href="#DejaVuSans-36" x="517.529297"/>
      </g>
     </g>
    </g>
   </g>
   <g id="matplotlib.axis_2">
    <g id="ytick_1">
     <g id="line2d_11">
      <path d="M 51.05 275.373376 
L 450 275.373376 
" clip-path="url(#p0660b88df6)" style="fill: none; stroke: #b0b0b0; stroke-width: 0.8; stroke-linecap: square"/>
     </g>
     <g id="line2d_12">
      <defs>
       <path id="m9ee0ee9667" d="M 0 0 
L -3.5 0 
" style="stroke: #000000; stroke-width: 0.8"/>
      </defs>
      <g>
       <use xlink:href="#m9ee0ee9667" x="51.05" y="275.373376" style="stroke: #000000; stroke-width: 0.8"/>
      </g>
     </g>
     <g id="text_6">
      <!-- 330 -->
      <g transform="translate(24.9625 279.172595) scale(0.1 -0.1)">
       <use xlink:href="#DejaVuSans-33"/>
       <use xlink:href="#DejaVuSans-33" x="63.623047"/>
       <use xlink:href="#DejaVuSans-30" x="127.246094"/>
      </g>
     </g>
    </g>
    <g id="ytick_2">
     <g id="line2d_13">
      <path d="M 51.05 244.693529 
L 450 244.693529 
" clip-path="url(#p0660b88df6)" style="fill: none; stroke: #b0b0b0; stroke-width: 0.8; stroke-linecap: square"/>
     </g>
     <g id="line2d_14">
      <g>
       <use xlink:href="#m9ee0ee9667" x="51.05" y="244.693529" style="stroke: #000000; stroke-width: 0.8"/>
      </g>
     </g>
     <g id="text_7">
      <!-- 340 -->
      <g transform="translate(24.9625 248.492748) scale(0.1 -0.1)">
       <use xlink:href="#DejaVuSans-33"/>
       <use xlink:href="#DejaVuSans-34" x="63.623047"/>
       <use xlink:href="#DejaVuSans-30" x="127.246094"/>
      </g>
     </g>
    </g>
    <g id="ytick_3">
     <g id="line2d_15">
      <path d="M 51.05 214.013682 
L 450 214.013682 
" clip-path="url(#p0660b88df6)" style="fill: none; stroke: #b0b0b0; stroke-width: 0.8; stroke-linecap: square"/>
     </g>
     <g id="line2d_16">
      <g>
       <use xlink:href="#m9ee0ee9667" x="51.05" y="214.013682" style="stroke: #000000; stroke-width: 0.8"/>
      </g>
     </g>
     <g id="text_8">
      <!-- 350 -->
      <g transform="translate(24.9625 217.8129) scale(0.1 -0.1)">
       <use xlink:href="#DejaVuSans-33"/>
       <use xlink:href="#DejaVuSans-35" x="63.623047"/>
       <use xlink:href="#DejaVuSans-30" x="127.246094"/>
      </g>
     </g>
    </g>
    <g id="ytick_4">
     <g id="line2d_17">
      <path d="M 51.05 183.333834 
L 450 183.333834 
" clip-path="url(#p0660b88df6)" style="fill: none; stroke: #b0b0b0; stroke-width: 0.8; stroke-linecap: square"/>
     </g>
     <g id="line2d_18">
      <g>
       <use xlink:href="#m9ee0ee9667" x="51.05" y="183.333834" style="stroke: #000000; stroke-width: 0.8"/>
      </g>
     </g>
     <g id="text_9">
      <!-- 360 -->
      <g transform="translate(24.9625 187.133053) scale(0.1 -0.1)">
       <use xlink:href="#DejaVuSans-33"/>
       <use xlink:href="#DejaVuSans-36" x="63.623047"/>
       <use xlink:href="#DejaVuSans-30" x="127.246094"/>
      </g>
     </g>
    </g>
    <g id="ytick_5">
     <g id="line2d_19">
      <path d="M 51.05 152.653987 
L 450 152.653987 
" clip-path="url(#p0660b88df6)" style="fill: none; stroke: #b0b0b0; stroke-width: 0.8; stroke-linecap: square"/>
     </g>
     <g id="line2d_20">
      <g>
       <use xlink:href="#m9ee0ee9667" x="51.05" y="152.653987" style="stroke: #000000; stroke-width: 0.8"/>
      </g>
     </g>
     <g id="text_10">
      <!-- 370 -->
      <g transform="translate(24.9625 156.453206) scale(0.1 -0.1)">
       <defs>
        <path id="DejaVuSans-37" d="M 525 4666 
L 3525 4666 
L 3525 4397 
L 1831 0 
L 1172 0 
L 2766 4134 
L 525 4134 
L 525 4666 
z
" transform="scale(0.015625)"/>
       </defs>
       <use xlink:href="#DejaVuSans-33"/>
       <use xlink:href="#DejaVuSans-37" x="63.623047"/>
       <use xlink:href="#DejaVuSans-30" x="127.246094"/>
      </g>
     </g>
    </g>
    <g id="ytick_6">
     <g id="line2d_21">
      <path d="M 51.05 121.97414 
L 450 121.97414 
" clip-path="url(#p0660b88df6)" style="fill: none; stroke: #b0b0b0; stroke-width: 0.8; stroke-linecap: square"/>
     </g>
     <g id="line2d_22">
      <g>
       <use xlink:href="#m9ee0ee9667" x="51.05" y="121.97414" style="stroke: #000000; stroke-width: 0.8"/>
      </g>
     </g>
     <g id="text_11">
      <!-- 380 -->
      <g transform="translate(24.9625 125.773358) scale(0.1 -0.1)">
       <defs>
        <path id="DejaVuSans-38" d="M 2034 2216 
Q 1584 2216 1326 1975 
Q 1069 1734 1069 1313 
Q 1069 891 1326 650 
Q 1584 409 2034 409 
Q 2484 409 2743 651 
Q 3003 894 3003 1313 
Q 3003 1734 2745 1975 
Q 2488 2216 2034 2216 
z
M 1403 2484 
Q 997 2584 770 2862 
Q 544 3141 544 3541 
Q 544 4100 942 4425 
Q 1341 4750 2034 4750 
Q 2731 4750 3128 4425 
Q 3525 4100 3525 3541 
Q 3525 3141 3298 2862 
Q 3072 2584 2669 2484 
Q 3125 2378 3379 2068 
Q 3634 1759 3634 1313 
Q 3634 634 3220 271 
Q 2806 -91 2034 -91 
Q 1263 -91 848 271 
Q 434 634 434 1313 
Q 434 1759 690 2068 
Q 947 2378 1403 2484 
z
M 1172 3481 
Q 1172 3119 1398 2916 
Q 1625 2713 2034 2713 
Q 2441 2713 2670 2916 
Q 2900 3119 2900 3481 
Q 2900 3844 2670 4047 
Q 2441 4250 2034 4250 
Q 1625 4250 1398 4047 
Q 1172 3844 1172 3481 
z
" transform="scale(0.015625)"/>
       </defs>
       <use xlink:href="#DejaVuSans-33"/>
       <use xlink:href="#DejaVuSans-38" x="63.623047"/>
       <use xlink:href="#DejaVuSans-30" x="127.246094"/>
      </g>
     </g>
    </g>
    <g id="ytick_7">
     <g id="line2d_23">
      <path d="M 51.05 91.294292 
L 450 91.294292 
" clip-path="url(#p0660b88df6)" style="fill: none; stroke: #b0b0b0; stroke-width: 0.8; stroke-linecap: square"/>
     </g>
     <g id="line2d_24">
      <g>
       <use xlink:href="#m9ee0ee9667" x="51.05" y="91.294292" style="stroke: #000000; stroke-width: 0.8"/>
      </g>
     </g>
     <g id="text_12">
      <!-- 390 -->
      <g transform="translate(24.9625 95.093511) scale(0.1 -0.1)">
       <defs>
        <path id="DejaVuSans-39" d="M 703 97 
L 703 672 
Q 941 559 1184 500 
Q 1428 441 1663 441 
Q 2288 441 2617 861 
Q 2947 1281 2994 2138 
Q 2813 1869 2534 1725 
Q 2256 1581 1919 1581 
Q 1219 1581 811 2004 
Q 403 2428 403 3163 
Q 403 3881 828 4315 
Q 1253 4750 1959 4750 
Q 2769 4750 3195 4129 
Q 3622 3509 3622 2328 
Q 3622 1225 3098 567 
Q 2575 -91 1691 -91 
Q 1453 -91 1209 -44 
Q 966 3 703 97 
z
M 1959 2075 
Q 2384 2075 2632 2365 
Q 2881 2656 2881 3163 
Q 2881 3666 2632 3958 
Q 2384 4250 1959 4250 
Q 1534 4250 1286 3958 
Q 1038 3666 1038 3163 
Q 1038 2656 1286 2365 
Q 1534 2075 1959 2075 
z
" transform="scale(0.015625)"/>
       </defs>
       <use xlink:href="#DejaVuSans-33"/>
       <use xlink:href="#DejaVuSans-39" x="63.623047"/>
       <use xlink:href="#DejaVuSans-30" x="127.246094"/>
      </g>
     </g>
    </g>
    <g id="ytick_8">
     <g id="line2d_25">
      <path d="M 51.05 60.614445 
L 450 60.614445 
" clip-path="url(#p0660b88df6)" style="fill: none; stroke: #b0b0b0; stroke-width: 0.8; stroke-linecap: square"/>
     </g>
     <g id="line2d_26">
      <g>
       <use xlink:href="#m9ee0ee9667" x="51.05" y="60.614445" style="stroke: #000000; stroke-width: 0.8"/>
      </g>
     </g>
     <g id="text_13">
      <!-- 400 -->
      <g transform="translate(24.9625 64.413664) scale(0.1 -0.1)">
       <use xlink:href="#DejaVuSans-34"/>
       <use xlink:href="#DejaVuSans-30" x="63.623047"/>
       <use xlink:href="#DejaVuSans-30" x="127.246094"/>
      </g>
     </g>
    </g>
    <g id="ytick_9">
     <g id="line2d_27">
      <path d="M 51.05 29.934598 
L 450 29.934598 
" clip-path="url(#p0660b88df6)" style="fill: none; stroke: #b0b0b0; stroke-width: 0.8; stroke-linecap: square"/>
     </g>
     <g id="line2d_28">
      <g>
       <use xlink:href="#m9ee0ee9667" x="51.05" y="29.934598" style="stroke: #000000; stroke-width: 0.8"/>
      </g>
     </g>
     <g id="text_14">
      <!-- 410 -->
      <g transform="translate(24.9625 33.733816) scale(0.1 -0.1)">
       <use xlink:href="#DejaVuSans-34"/>
       <use xlink:href="#DejaVuSans-31" x="63.623047"/>
       <use xlink:href="#DejaVuSans-30" x="127.246094"/>
      </g>
     </g>
    </g>
    <g id="text_15">
     <!-- Rain [mm] -->
     <g transform="translate(18.882812 178.715431) rotate(-90) scale(0.1 -0.1)">
      <defs>
       <path id="DejaVuSans-52" d="M 2841 2188 
Q 3044 2119 3236 1894 
Q 3428 1669 3622 1275 
L 4263 0 
L 3584 0 
L 2988 1197 
Q 2756 1666 2539 1819 
Q 2322 1972 1947 1972 
L 1259 1972 
L 1259 0 
L 628 0 
L 628 4666 
L 2053 4666 
Q 2853 4666 3247 4331 
Q 3641 3997 3641 3322 
Q 3641 2881 3436 2590 
Q 3231 2300 2841 2188 
z
M 1259 4147 
L 1259 2491 
L 2053 2491 
Q 2509 2491 2742 2702 
Q 2975 2913 2975 3322 
Q 2975 3731 2742 3939 
Q 2509 4147 2053 4147 
L 1259 4147 
z
" transform="scale(0.015625)"/>
       <path id="DejaVuSans-61" d="M 2194 1759 
Q 1497 1759 1228 1600 
Q 959 1441 959 1056 
Q 959 750 1161 570 
Q 1363 391 1709 391 
Q 2188 391 2477 730 
Q 2766 1069 2766 1631 
L 2766 1759 
L 2194 1759 
z
M 3341 1997 
L 3341 0 
L 2766 0 
L 2766 531 
Q 2569 213 2275 61 
Q 1981 -91 1556 -91 
Q 1019 -91 701 211 
Q 384 513 384 1019 
Q 384 1609 779 1909 
Q 1175 2209 1959 2209 
L 2766 2209 
L 2766 2266 
Q 2766 2663 2505 2880 
Q 2244 3097 1772 3097 
Q 1472 3097 1187 3025 
Q 903 2953 641 2809 
L 641 3341 
Q 956 3463 1253 3523 
Q 1550 3584 1831 3584 
Q 2591 3584 2966 3190 
Q 3341 2797 3341 1997 
z
" transform="scale(0.015625)"/>
       <path id="DejaVuSans-69" d="M 603 3500 
L 1178 3500 
L 1178 0 
L 603 0 
L 603 3500 
z
M 603 4863 
L 1178 4863 
L 1178 4134 
L 603 4134 
L 603 4863 
z
" transform="scale(0.015625)"/>
       <path id="DejaVuSans-6e" d="M 3513 2113 
L 3513 0 
L 2938 0 
L 2938 2094 
Q 2938 2591 2744 2837 
Q 2550 3084 2163 3084 
Q 1697 3084 1428 2787 
Q 1159 2491 1159 1978 
L 1159 0 
L 581 0 
L 581 3500 
L 1159 3500 
L 1159 2956 
Q 1366 3272 1645 3428 
Q 1925 3584 2291 3584 
Q 2894 3584 3203 3211 
Q 3513 2838 3513 2113 
z
" transform="scale(0.015625)"/>
       <path id="DejaVuSans-20" transform="scale(0.015625)"/>
       <path id="DejaVuSans-5b" d="M 550 4863 
L 1875 4863 
L 1875 4416 
L 1125 4416 
L 1125 -397 
L 1875 -397 
L 1875 -844 
L 550 -844 
L 550 4863 
z
" transform="scale(0.015625)"/>
       <path id="DejaVuSans-6d" d="M 3328 2828 
Q 3544 3216 3844 3400 
Q 4144 3584 4550 3584 
Q 5097 3584 5394 3201 
Q 5691 2819 5691 2113 
L 5691 0 
L 5113 0 
L 5113 2094 
Q 5113 2597 4934 2840 
Q 4756 3084 4391 3084 
Q 3944 3084 3684 2787 
Q 3425 2491 3425 1978 
L 3425 0 
L 2847 0 
L 2847 2094 
Q 2847 2600 2669 2842 
Q 2491 3084 2119 3084 
Q 1678 3084 1418 2786 
Q 1159 2488 1159 1978 
L 1159 0 
L 581 0 
L 581 3500 
L 1159 3500 
L 1159 2956 
Q 1356 3278 1631 3431 
Q 1906 3584 2284 3584 
Q 2666 3584 2933 3390 
Q 3200 3197 3328 2828 
z
" transform="scale(0.015625)"/>
       <path id="DejaVuSans-5d" d="M 1947 4863 
L 1947 -844 
L 622 -844 
L 622 -397 
L 1369 -397 
L 1369 4416 
L 622 4416 
L 622 4863 
L 1947 4863 
z
" transform="scale(0.015625)"/>
      </defs>
      <use xlink:href="#DejaVuSans-52"/>
      <use xlink:href="#DejaVuSans-61" x="67.232422"/>
      <use xlink:href="#DejaVuSans-69" x="128.511719"/>
      <use xlink:href="#DejaVuSans-6e" x="156.294922"/>
      <use xlink:href="#DejaVuSans-20" x="219.673828"/>
      <use xlink:href="#DejaVuSans-5b" x="251.460938"/>
      <use xlink:href="#DejaVuSans-6d" x="290.474609"/>
      <use xlink:href="#DejaVuSans-6d" x="387.886719"/>
      <use xlink:href="#DejaVuSans-5d" x="485.298828"/>
     </g>
    </g>
   </g>
   <g id="line2d_29">
    <path d="M 51.05 268.010213 
L 105.856558 268.010213 
L 105.970742 267.089817 
L 106.085466 267.089817 
L 106.199739 266.169422 
L 106.505067 266.169422 
L 106.619846 265.249027 
L 107.497376 265.249027 
L 107.650044 264.328631 
L 107.802707 264.328631 
L 107.917476 263.408236 
L 108.184365 263.408236 
L 108.261089 262.48784 
L 108.489696 262.48784 
L 108.604434 261.567445 
L 108.947684 261.567445 
L 109.100349 260.64705 
L 109.673187 260.64705 
L 109.787335 259.726654 
L 110.932312 259.726654 
L 111.04705 258.806259 
L 112.99327 258.806259 
L 113.108124 257.885863 
L 114.825233 257.885863 
L 114.940015 256.965468 
L 115.779667 256.965468 
L 115.893884 256.045072 
L 119.290899 256.045072 
L 119.405161 255.124677 
L 122.91644 255.124677 
L 123.031192 254.204282 
L 125.779092 254.204282 
L 125.893407 253.283886 
L 135.625871 253.283886 
L 135.740234 252.363491 
L 137.037874 252.363491 
L 137.152696 251.443095 
L 138.526548 251.443095 
L 138.640838 250.5227 
L 140.205988 250.5227 
L 140.320144 249.602304 
L 142.304767 249.602304 
L 142.419505 248.681909 
L 143.373865 248.681909 
L 143.526084 247.761514 
L 144.518404 247.761514 
L 144.633178 246.841118 
L 145.20539 246.841118 
L 145.320158 245.920723 
L 145.930855 245.920723 
L 146.045044 245.000327 
L 147.075594 245.000327 
L 147.190019 244.079932 
L 148.106001 244.079932 
L 148.220792 243.159537 
L 148.678791 243.159537 
L 148.79299 242.239141 
L 149.098317 242.239141 
L 149.250979 241.318746 
L 149.632638 241.318746 
L 149.747404 240.39835 
L 150.090631 240.39835 
L 150.243296 239.477955 
L 150.663199 239.477955 
L 150.777621 238.557559 
L 151.045097 238.557559 
L 151.15928 237.637164 
L 151.388276 237.637164 
L 151.503024 236.716769 
L 151.693609 236.716769 
L 151.808395 235.796373 
L 151.999309 235.796373 
L 152.151597 234.875978 
L 152.380594 234.875978 
L 152.495335 233.955582 
L 152.953341 233.955582 
L 153.067579 233.035187 
L 153.525576 233.035187 
L 153.640364 232.114792 
L 153.94567 232.114792 
L 154.059902 231.194396 
L 154.212569 231.194396 
L 154.327202 230.274001 
L 154.5179 230.274001 
L 154.632695 229.353605 
L 154.823225 229.353605 
L 154.937744 228.43321 
L 155.128554 228.43321 
L 155.243297 227.512814 
L 155.357559 227.512814 
L 155.47235 226.592419 
L 155.586933 226.592419 
L 155.739217 225.672024 
L 155.854038 225.672024 
L 155.968213 224.751628 
L 156.235687 224.751628 
L 156.350354 223.831233 
L 156.540988 223.831233 
L 156.655204 222.910837 
L 156.846332 222.910837 
L 156.960534 221.990442 
L 157.037278 221.990442 
L 157.151513 221.070046 
L 157.304331 221.070046 
L 157.418532 220.149651 
L 157.53331 220.149651 
L 157.64753 219.229256 
L 157.800196 219.229256 
L 157.914907 218.30886 
L 158.143972 218.30886 
L 158.258182 217.388465 
L 158.525374 217.388465 
L 158.639844 216.468069 
L 158.830906 216.468069 
L 158.945168 215.547674 
L 159.174581 215.547674 
L 159.326828 214.627279 
L 159.479494 214.627279 
L 159.594281 213.706883 
L 159.937468 213.706883 
L 160.052093 212.786488 
L 160.242815 212.786488 
L 160.357638 211.866092 
L 160.586583 211.866092 
L 160.700805 210.945697 
L 160.815629 210.945697 
L 160.929799 210.025301 
L 161.044601 210.025301 
L 161.158797 209.104906 
L 161.31191 209.104906 
L 161.464126 208.184511 
L 161.540458 208.184511 
L 161.655141 207.264115 
L 161.769453 207.264115 
L 161.884296 206.34372 
L 161.960531 206.34372 
L 162.075237 205.423324 
L 162.151111 205.423324 
L 162.265788 204.502929 
L 162.41849 204.502929 
L 162.532771 203.582533 
L 162.609103 203.582533 
L 162.723891 202.662138 
L 162.76226 202.662138 
L 162.914431 201.741743 
L 162.952807 201.741743 
L 163.067096 200.821347 
L 163.105528 200.821347 
L 163.258119 198.980556 
L 163.448754 198.980556 
L 163.601423 198.060161 
L 163.71621 198.060161 
L 163.830414 197.139766 
L 163.868811 197.139766 
L 163.983079 196.21937 
L 164.02146 196.21937 
L 164.135741 195.298975 
L 164.288407 195.298975 
L 164.403052 194.378579 
L 164.479558 194.378579 
L 164.593735 193.458184 
L 164.632169 193.458184 
L 164.746401 192.537788 
L 164.822732 192.537788 
L 164.89942 191.617393 
L 165.090178 191.617393 
L 165.20439 190.696998 
L 165.280719 190.696998 
L 165.433387 188.856207 
L 165.471785 188.856207 
L 165.58605 187.935811 
L 165.815044 186.095021 
L 165.89138 186.095021 
L 166.006176 185.174625 
L 166.08247 185.174625 
L 166.1967 184.25423 
L 166.387519 184.25423 
L 166.50203 183.333834 
L 166.540433 183.333834 
L 166.654698 182.413439 
L 166.769517 182.413439 
L 166.883688 181.493043 
L 167.036353 181.493043 
L 167.189021 180.572648 
L 167.341684 180.572648 
L 167.45646 179.652253 
L 167.494351 179.652253 
L 167.609117 178.731857 
L 167.647017 178.731857 
L 167.723347 177.811462 
L 167.800154 177.811462 
L 167.914348 176.891066 
L 168.105007 176.891066 
L 168.219751 175.970671 
L 168.296133 175.970671 
L 168.410336 175.050275 
L 168.563001 175.050275 
L 168.677754 174.12988 
L 168.754007 174.12988 
L 168.868329 173.209485 
L 168.944665 173.209485 
L 169.059391 172.289089 
L 169.288207 172.289089 
L 169.402653 171.368694 
L 169.593744 171.368694 
L 169.707981 170.448298 
L 169.822752 170.448298 
L 169.93744 169.527903 
L 170.051627 169.527903 
L 170.165984 168.607508 
L 170.433433 168.607508 
L 170.547639 167.687112 
L 170.738546 167.687112 
L 170.85297 166.766717 
L 171.005633 166.766717 
L 171.120439 165.846321 
L 171.234629 165.846321 
L 171.310969 164.925926 
L 171.387783 164.925926 
L 171.501972 164.00553 
L 171.53996 164.00553 
L 171.654584 163.085135 
L 171.730982 163.085135 
L 171.845293 162.16474 
L 171.960051 162.16474 
L 172.074704 161.244344 
L 172.226952 160.323949 
L 172.303284 160.323949 
L 172.418075 159.403553 
L 172.570725 159.403553 
L 172.684945 158.483158 
L 172.76128 158.483158 
L 172.913945 157.562763 
L 172.990275 157.562763 
L 173.104915 156.642367 
L 173.219273 156.642367 
L 173.333948 155.721972 
L 173.371936 155.721972 
L 173.486616 154.801576 
L 173.600932 154.801576 
L 173.715724 153.881181 
L 173.792047 153.881181 
L 173.906269 152.960785 
L 174.020942 152.960785 
L 174.135261 152.04039 
L 174.173729 152.04039 
L 174.287914 151.119995 
L 174.479083 151.119995 
L 174.593256 150.199599 
L 174.708038 150.199599 
L 174.822253 149.279204 
L 175.051247 149.279204 
L 175.166094 148.358808 
L 175.432912 148.358808 
L 175.54767 147.438413 
L 175.62401 147.438413 
L 175.738244 146.518017 
L 175.853016 146.518017 
L 175.96724 145.597622 
L 176.196232 145.597622 
L 176.311027 144.677227 
L 176.463435 144.677227 
L 176.577894 143.756831 
L 176.692712 143.756831 
L 176.80689 142.836436 
L 176.845183 142.836436 
L 176.959553 141.91604 
L 177.341217 141.91604 
L 177.455849 140.995645 
L 177.570211 140.995645 
L 177.684994 140.07525 
L 177.799212 140.07525 
L 177.951879 139.154854 
L 178.143018 139.154854 
L 178.257211 138.234459 
L 178.753661 138.234459 
L 178.867863 137.314063 
L 179.211582 137.314063 
L 179.325852 136.393668 
L 179.822339 136.393668 
L 179.936513 135.473272 
L 180.165509 135.473272 
L 180.280329 134.552877 
L 180.509217 134.552877 
L 180.6235 133.632482 
L 188.562041 133.632482 
L 188.714706 132.712086 
L 188.867366 132.712086 
L 188.982182 131.791691 
L 189.172697 131.791691 
L 189.24903 130.871295 
L 189.440044 130.871295 
L 189.554357 129.9509 
L 189.745502 129.9509 
L 189.859684 129.030504 
L 190.012843 129.030504 
L 190.165015 128.110109 
L 190.394013 128.110109 
L 190.508731 127.189714 
L 190.69934 127.189714 
L 190.852006 126.269318 
L 191.119417 126.269318 
L 191.233666 125.348923 
L 191.424825 125.348923 
L 191.538994 124.428527 
L 191.844322 124.428527 
L 191.959049 123.508132 
L 192.149651 123.508132 
L 192.302315 122.587737 
L 192.378648 122.587737 
L 192.493431 121.667341 
L 192.836642 121.667341 
L 192.989305 120.746946 
L 193.600315 120.746946 
L 193.752626 119.82655 
L 197.492901 119.82655 
L 197.607621 118.906155 
L 197.798228 118.906155 
L 197.874561 117.985759 
L 198.179893 117.985759 
L 198.294635 117.065364 
L 198.523639 117.065364 
L 198.638296 116.144969 
L 198.905268 116.144969 
L 199.019542 115.224573 
L 199.134314 115.224573 
L 199.248539 114.304178 
L 199.325265 114.304178 
L 199.477537 113.383782 
L 199.744992 113.383782 
L 199.859198 112.463387 
L 200.126389 112.463387 
L 200.240861 111.542992 
L 200.622515 111.542992 
L 200.737262 110.622596 
L 200.966307 110.622596 
L 201.08052 109.702201 
L 202.187503 109.702201 
L 202.301833 108.781805 
L 202.683489 108.781805 
L 202.798254 107.86141 
L 203.065153 107.86141 
L 203.179806 106.941014 
L 203.256156 106.941014 
L 203.370478 106.020619 
L 203.408926 106.020619 
L 203.523143 105.100224 
L 203.561554 105.100224 
L 203.713998 103.259433 
L 203.752142 103.259433 
L 203.866903 102.339037 
L 203.904799 102.339037 
L 204.019562 101.418642 
L 204.095895 101.418642 
L 204.210127 100.498246 
L 204.248621 100.498246 
L 204.363268 99.577851 
L 204.439127 99.577851 
L 204.55382 98.657456 
L 204.630159 98.657456 
L 204.744454 97.73706 
L 204.935618 97.73706 
L 205.049785 96.816665 
L 205.355111 94.055479 
L 205.431446 94.055479 
L 205.584107 92.214688 
L 205.66044 92.214688 
L 205.775219 91.294292 
L 205.889436 91.294292 
L 206.004258 90.373897 
L 206.347427 90.373897 
L 206.462229 89.453501 
L 206.500093 89.453501 
L 206.652756 88.533106 
L 206.729093 88.533106 
L 206.843897 87.612711 
L 207.110747 87.612711 
L 207.187083 86.692315 
L 220.850559 86.692315 
L 221.003221 85.77192 
L 310.770035 85.77192 
L 310.884741 84.851524 
L 314.357657 84.851524 
L 314.472477 83.931129 
L 315.731642 83.931129 
L 315.846377 83.010734 
L 316.64763 83.010734 
L 316.762381 82.090338 
L 317.563616 82.090338 
L 317.639944 81.169943 
L 318.403718 81.169943 
L 318.555943 80.249547 
L 319.204828 80.249547 
L 319.319261 79.329152 
L 348.554633 79.329152 
L 348.631378 78.408756 
L 349.470624 78.408756 
L 349.585384 77.488361 
L 350.31028 77.488361 
L 350.425068 76.567966 
L 351.035753 76.567966 
L 351.149936 75.64757 
L 351.836925 75.64757 
L 351.95174 74.727175 
L 352.371258 74.727175 
L 352.486009 73.806779 
L 352.829249 73.806779 
L 352.943985 72.886384 
L 353.402055 72.886384 
L 353.516235 71.965988 
L 354.012696 71.965988 
L 354.126902 71.045593 
L 354.623296 71.045593 
L 354.737554 70.125198 
L 355.271884 70.125198 
L 355.386515 69.204802 
L 355.806212 69.204802 
L 355.958877 68.284407 
L 356.2642 68.284407 
L 356.378958 67.364011 
L 356.684181 67.364011 
L 356.798524 66.443616 
L 356.913298 66.443616 
L 357.027524 65.523221 
L 357.332849 65.523221 
L 357.447602 64.602825 
L 357.600358 64.602825 
L 357.714514 63.68243 
L 357.790848 63.68243 
L 357.905632 62.762034 
L 358.058022 62.762034 
L 358.172506 61.841639 
L 358.287281 61.841639 
L 358.401502 60.921243 
L 358.477832 60.921243 
L 358.592677 60.000848 
L 358.630499 60.000848 
L 358.70723 59.080453 
L 358.783166 59.080453 
L 358.897936 58.160057 
L 358.974267 58.160057 
L 359.126865 56.319266 
L 359.203325 56.319266 
L 359.35594 54.478475 
L 359.393817 54.478475 
L 359.69914 51.717289 
L 359.737553 51.717289 
L 359.928141 48.956103 
L 360.004472 48.956103 
L 360.195281 46.194917 
L 360.309801 46.194917 
L 360.462462 44.354126 
L 360.50091 44.354126 
L 360.653559 42.513335 
L 360.729913 42.513335 
L 360.844123 41.59294 
L 361.073123 39.752149 
L 361.14945 39.752149 
L 361.26419 38.831753 
L 361.302109 38.831753 
L 361.416944 37.911358 
L 361.531111 37.911358 
L 361.683772 36.990963 
L 450 36.990963 
L 450 36.990963 
" clip-path="url(#p0660b88df6)" style="fill: none; stroke: #9467bd; stroke-width: 1.5; stroke-linecap: square"/>
   </g>
   <g id="patch_3">
    <path d="M 51.05 279.561175 
L 51.05 25.44 
" style="fill: none; stroke: #000000; stroke-width: 0.8; stroke-linejoin: miter; stroke-linecap: square"/>
   </g>
   <g id="patch_4">
    <path d="M 450 279.561175 
L 450 25.44 
" style="fill: none; stroke: #000000; stroke-width: 0.8; stroke-linejoin: miter; stroke-linecap: square"/>
   </g>
   <g id="patch_5">
    <path d="M 51.05 279.561175 
L 450 279.561175 
" style="fill: none; stroke: #000000; stroke-width: 0.8; stroke-linejoin: miter; stroke-linecap: square"/>
   </g>
   <g id="patch_6">
    <path d="M 51.05 25.44 
L 450 25.44 
" style="fill: none; stroke: #000000; stroke-width: 0.8; stroke-linejoin: miter; stroke-linecap: square"/>
   </g>
   <g id="text_16">
    <!-- November 2023 -->
    <g transform="translate(202.133125 19.44) scale(0.12 -0.12)">
     <defs>
      <path id="DejaVuSans-4e" d="M 628 4666 
L 1478 4666 
L 3547 763 
L 3547 4666 
L 4159 4666 
L 4159 0 
L 3309 0 
L 1241 3903 
L 1241 0 
L 628 0 
L 628 4666 
z
" transform="scale(0.015625)"/>
      <path id="DejaVuSans-6f" d="M 1959 3097 
Q 1497 3097 1228 2736 
Q 959 2375 959 1747 
Q 959 1119 1226 758 
Q 1494 397 1959 397 
Q 2419 397 2687 759 
Q 2956 1122 2956 1747 
Q 2956 2369 2687 2733 
Q 2419 3097 1959 3097 
z
M 1959 3584 
Q 2709 3584 3137 3096 
Q 3566 2609 3566 1747 
Q 3566 888 3137 398 
Q 2709 -91 1959 -91 
Q 1206 -91 779 398 
Q 353 888 353 1747 
Q 353 2609 779 3096 
Q 1206 3584 1959 3584 
z
" transform="scale(0.015625)"/>
      <path id="DejaVuSans-76" d="M 191 3500 
L 800 3500 
L 1894 563 
L 2988 3500 
L 3597 3500 
L 2284 0 
L 1503 0 
L 191 3500 
z
" transform="scale(0.015625)"/>
      <path id="DejaVuSans-65" d="M 3597 1894 
L 3597 1613 
L 953 1613 
Q 991 1019 1311 708 
Q 1631 397 2203 397 
Q 2534 397 2845 478 
Q 3156 559 3463 722 
L 3463 178 
Q 3153 47 2828 -22 
Q 2503 -91 2169 -91 
Q 1331 -91 842 396 
Q 353 884 353 1716 
Q 353 2575 817 3079 
Q 1281 3584 2069 3584 
Q 2775 3584 3186 3129 
Q 3597 2675 3597 1894 
z
M 3022 2063 
Q 3016 2534 2758 2815 
Q 2500 3097 2075 3097 
Q 1594 3097 1305 2825 
Q 1016 2553 972 2059 
L 3022 2063 
z
" transform="scale(0.015625)"/>
      <path id="DejaVuSans-62" d="M 3116 1747 
Q 3116 2381 2855 2742 
Q 2594 3103 2138 3103 
Q 1681 3103 1420 2742 
Q 1159 2381 1159 1747 
Q 1159 1113 1420 752 
Q 1681 391 2138 391 
Q 2594 391 2855 752 
Q 3116 1113 3116 1747 
z
M 1159 2969 
Q 1341 3281 1617 3432 
Q 1894 3584 2278 3584 
Q 2916 3584 3314 3078 
Q 3713 2572 3713 1747 
Q 3713 922 3314 415 
Q 2916 -91 2278 -91 
Q 1894 -91 1617 61 
Q 1341 213 1159 525 
L 1159 0 
L 581 0 
L 581 4863 
L 1159 4863 
L 1159 2969 
z
" transform="scale(0.015625)"/>
      <path id="DejaVuSans-72" d="M 2631 2963 
Q 2534 3019 2420 3045 
Q 2306 3072 2169 3072 
Q 1681 3072 1420 2755 
Q 1159 2438 1159 1844 
L 1159 0 
L 581 0 
L 581 3500 
L 1159 3500 
L 1159 2956 
Q 1341 3275 1631 3429 
Q 1922 3584 2338 3584 
Q 2397 3584 2469 3576 
Q 2541 3569 2628 3553 
L 2631 2963 
z
" transform="scale(0.015625)"/>
     </defs>
     <use xlink:href="#DejaVuSans-4e"/>
     <use xlink:href="#DejaVuSans-6f" x="74.804688"/>
     <use xlink:href="#DejaVuSans-76" x="135.986328"/>
     <use xlink:href="#DejaVuSans-65" x="195.166016"/>
     <use xlink:href="#DejaVuSans-6d" x="256.689453"/>
     <use xlink:href="#DejaVuSans-62" x="354.101562"/>
     <use xlink:href="#DejaVuSans-65" x="417.578125"/>
     <use xlink:href="#DejaVuSans-72" x="479.101562"/>
     <use xlink:href="#DejaVuSans-20" x="520.214844"/>
     <use xlink:href="#DejaVuSans-32" x="552.001953"/>
     <use xlink:href="#DejaVuSans-30" x="615.625"/>
     <use xlink:href="#DejaVuSans-32" x="679.248047"/>
     <use xlink:href="#DejaVuSans-33" x="742.871094"/>
    </g>
   </g>
  </g>
 </g>
 <defs>
  <clipPath id="p0660b88df6">
   <rect x="51.05" y="25.44" width="398.95" height="254.121175"/>
  </clipPath>
 </defs>
</svg>
