<?xml version="1.0" encoding="utf-8" standalone="no"?>
<!DOCTYPE svg PUBLIC "-//W3C//DTD SVG 1.1//EN"
  "http://www.w3.org/Graphics/SVG/1.1/DTD/svg11.dtd">
<svg xmlns:xlink="http://www.w3.org/1999/xlink" width="432pt" height="288pt" viewBox="0 0 432 288" xmlns="http://www.w3.org/2000/svg" version="1.1">
 <metadata>
  <rdf:RDF xmlns:dc="http://purl.org/dc/elements/1.1/" xmlns:cc="http://creativecommons.org/ns#" xmlns:rdf="http://www.w3.org/1999/02/22-rdf-syntax-ns#">
   <cc:Work>
    <dc:type rdf:resource="http://purl.org/dc/dcmitype/StillImage"/>
    <dc:date>2023-11-06T18:56:06.143698</dc:date>
    <dc:format>image/svg+xml</dc:format>
    <dc:creator>
     <cc:Agent>
      <dc:title>Matplotlib v3.6.3, https://matplotlib.org/</dc:title>
     </cc:Agent>
    </dc:creator>
   </cc:Work>
  </rdf:RDF>
 </metadata>
 <defs>
  <style type="text/css">*{stroke-linejoin: round; stroke-linecap: butt}</style>
 </defs>
 <g id="figure_1">
  <g id="patch_1">
   <path d="M 0 288 
L 432 288 
L 432 0 
L 0 0 
z
" style="fill: #ffffff"/>
  </g>
  <g id="axes_1">
   <g id="patch_2">
    <path d="M 50.925 221.939962 
L 421.2 221.939962 
L 421.2 26.8 
L 50.925 26.8 
z
" style="fill: #ffffff"/>
   </g>
   <g id="matplotlib.axis_1">
    <g id="xtick_1">
     <g id="line2d_1">
      <path d="M 114.879166 221.939962 
L 114.879166 26.8 
" clip-path="url(#p5b7f493041)" style="fill: none; stroke: #b0b0b0; stroke-width: 0.8; stroke-linecap: square"/>
     </g>
     <g id="line2d_2">
      <defs>
       <path id="m34c77866ad" d="M 0 0 
L 0 3.5 
" style="stroke: #000000; stroke-width: 0.8"/>
      </defs>
      <g>
       <use xlink:href="#m34c77866ad" x="114.879166" y="221.939962" style="stroke: #000000; stroke-width: 0.8"/>
      </g>
     </g>
     <g id="text_1">
      <!-- 2023-11-02 -->
      <g transform="translate(72.314652 275.406821) rotate(-45) scale(0.1 -0.1)">
       <defs>
        <path id="DejaVuSans-32" d="M 1228 531 
L 3431 531 
L 3431 0 
L 469 0 
L 469 531 
Q 828 903 1448 1529 
Q 2069 2156 2228 2338 
Q 2531 2678 2651 2914 
Q 2772 3150 2772 3378 
Q 2772 3750 2511 3984 
Q 2250 4219 1831 4219 
Q 1534 4219 1204 4116 
Q 875 4013 500 3803 
L 500 4441 
Q 881 4594 1212 4672 
Q 1544 4750 1819 4750 
Q 2544 4750 2975 4387 
Q 3406 4025 3406 3419 
Q 3406 3131 3298 2873 
Q 3191 2616 2906 2266 
Q 2828 2175 2409 1742 
Q 1991 1309 1228 531 
z
" transform="scale(0.015625)"/>
        <path id="DejaVuSans-30" d="M 2034 4250 
Q 1547 4250 1301 3770 
Q 1056 3291 1056 2328 
Q 1056 1369 1301 889 
Q 1547 409 2034 409 
Q 2525 409 2770 889 
Q 3016 1369 3016 2328 
Q 3016 3291 2770 3770 
Q 2525 4250 2034 4250 
z
M 2034 4750 
Q 2819 4750 3233 4129 
Q 3647 3509 3647 2328 
Q 3647 1150 3233 529 
Q 2819 -91 2034 -91 
Q 1250 -91 836 529 
Q 422 1150 422 2328 
Q 422 3509 836 4129 
Q 1250 4750 2034 4750 
z
" transform="scale(0.015625)"/>
        <path id="DejaVuSans-33" d="M 2597 2516 
Q 3050 2419 3304 2112 
Q 3559 1806 3559 1356 
Q 3559 666 3084 287 
Q 2609 -91 1734 -91 
Q 1441 -91 1130 -33 
Q 819 25 488 141 
L 488 750 
Q 750 597 1062 519 
Q 1375 441 1716 441 
Q 2309 441 2620 675 
Q 2931 909 2931 1356 
Q 2931 1769 2642 2001 
Q 2353 2234 1838 2234 
L 1294 2234 
L 1294 2753 
L 1863 2753 
Q 2328 2753 2575 2939 
Q 2822 3125 2822 3475 
Q 2822 3834 2567 4026 
Q 2313 4219 1838 4219 
Q 1578 4219 1281 4162 
Q 984 4106 628 3988 
L 628 4550 
Q 988 4650 1302 4700 
Q 1616 4750 1894 4750 
Q 2613 4750 3031 4423 
Q 3450 4097 3450 3541 
Q 3450 3153 3228 2886 
Q 3006 2619 2597 2516 
z
" transform="scale(0.015625)"/>
        <path id="DejaVuSans-2d" d="M 313 2009 
L 1997 2009 
L 1997 1497 
L 313 1497 
L 313 2009 
z
" transform="scale(0.015625)"/>
        <path id="DejaVuSans-31" d="M 794 531 
L 1825 531 
L 1825 4091 
L 703 3866 
L 703 4441 
L 1819 4666 
L 2450 4666 
L 2450 531 
L 3481 531 
L 3481 0 
L 794 0 
L 794 531 
z
" transform="scale(0.015625)"/>
       </defs>
       <use xlink:href="#DejaVuSans-32"/>
       <use xlink:href="#DejaVuSans-30" x="63.623047"/>
       <use xlink:href="#DejaVuSans-32" x="127.246094"/>
       <use xlink:href="#DejaVuSans-33" x="190.869141"/>
       <use xlink:href="#DejaVuSans-2d" x="254.492188"/>
       <use xlink:href="#DejaVuSans-31" x="290.576172"/>
       <use xlink:href="#DejaVuSans-31" x="354.199219"/>
       <use xlink:href="#DejaVuSans-2d" x="417.822266"/>
       <use xlink:href="#DejaVuSans-30" x="453.90625"/>
       <use xlink:href="#DejaVuSans-32" x="517.529297"/>
      </g>
     </g>
    </g>
    <g id="xtick_2">
     <g id="line2d_3">
      <path d="M 178.867374 221.939962 
L 178.867374 26.8 
" clip-path="url(#p5b7f493041)" style="fill: none; stroke: #b0b0b0; stroke-width: 0.8; stroke-linecap: square"/>
     </g>
     <g id="line2d_4">
      <g>
       <use xlink:href="#m34c77866ad" x="178.867374" y="221.939962" style="stroke: #000000; stroke-width: 0.8"/>
      </g>
     </g>
     <g id="text_2">
      <!-- 2023-11-03 -->
      <g transform="translate(136.302861 275.406821) rotate(-45) scale(0.1 -0.1)">
       <use xlink:href="#DejaVuSans-32"/>
       <use xlink:href="#DejaVuSans-30" x="63.623047"/>
       <use xlink:href="#DejaVuSans-32" x="127.246094"/>
       <use xlink:href="#DejaVuSans-33" x="190.869141"/>
       <use xlink:href="#DejaVuSans-2d" x="254.492188"/>
       <use xlink:href="#DejaVuSans-31" x="290.576172"/>
       <use xlink:href="#DejaVuSans-31" x="354.199219"/>
       <use xlink:href="#DejaVuSans-2d" x="417.822266"/>
       <use xlink:href="#DejaVuSans-30" x="453.90625"/>
       <use xlink:href="#DejaVuSans-33" x="517.529297"/>
      </g>
     </g>
    </g>
    <g id="xtick_3">
     <g id="line2d_5">
      <path d="M 242.855583 221.939962 
L 242.855583 26.8 
" clip-path="url(#p5b7f493041)" style="fill: none; stroke: #b0b0b0; stroke-width: 0.8; stroke-linecap: square"/>
     </g>
     <g id="line2d_6">
      <g>
       <use xlink:href="#m34c77866ad" x="242.855583" y="221.939962" style="stroke: #000000; stroke-width: 0.8"/>
      </g>
     </g>
     <g id="text_3">
      <!-- 2023-11-04 -->
      <g transform="translate(200.291069 275.406821) rotate(-45) scale(0.1 -0.1)">
       <defs>
        <path id="DejaVuSans-34" d="M 2419 4116 
L 825 1625 
L 2419 1625 
L 2419 4116 
z
M 2253 4666 
L 3047 4666 
L 3047 1625 
L 3713 1625 
L 3713 1100 
L 3047 1100 
L 3047 0 
L 2419 0 
L 2419 1100 
L 313 1100 
L 313 1709 
L 2253 4666 
z
" transform="scale(0.015625)"/>
       </defs>
       <use xlink:href="#DejaVuSans-32"/>
       <use xlink:href="#DejaVuSans-30" x="63.623047"/>
       <use xlink:href="#DejaVuSans-32" x="127.246094"/>
       <use xlink:href="#DejaVuSans-33" x="190.869141"/>
       <use xlink:href="#DejaVuSans-2d" x="254.492188"/>
       <use xlink:href="#DejaVuSans-31" x="290.576172"/>
       <use xlink:href="#DejaVuSans-31" x="354.199219"/>
       <use xlink:href="#DejaVuSans-2d" x="417.822266"/>
       <use xlink:href="#DejaVuSans-30" x="453.90625"/>
       <use xlink:href="#DejaVuSans-34" x="517.529297"/>
      </g>
     </g>
    </g>
    <g id="xtick_4">
     <g id="line2d_7">
      <path d="M 306.843791 221.939962 
L 306.843791 26.8 
" clip-path="url(#p5b7f493041)" style="fill: none; stroke: #b0b0b0; stroke-width: 0.8; stroke-linecap: square"/>
     </g>
     <g id="line2d_8">
      <g>
       <use xlink:href="#m34c77866ad" x="306.843791" y="221.939962" style="stroke: #000000; stroke-width: 0.8"/>
      </g>
     </g>
     <g id="text_4">
      <!-- 2023-11-05 -->
      <g transform="translate(264.279277 275.406821) rotate(-45) scale(0.1 -0.1)">
       <defs>
        <path id="DejaVuSans-35" d="M 691 4666 
L 3169 4666 
L 3169 4134 
L 1269 4134 
L 1269 2991 
Q 1406 3038 1543 3061 
Q 1681 3084 1819 3084 
Q 2600 3084 3056 2656 
Q 3513 2228 3513 1497 
Q 3513 744 3044 326 
Q 2575 -91 1722 -91 
Q 1428 -91 1123 -41 
Q 819 9 494 109 
L 494 744 
Q 775 591 1075 516 
Q 1375 441 1709 441 
Q 2250 441 2565 725 
Q 2881 1009 2881 1497 
Q 2881 1984 2565 2268 
Q 2250 2553 1709 2553 
Q 1456 2553 1204 2497 
Q 953 2441 691 2322 
L 691 4666 
z
" transform="scale(0.015625)"/>
       </defs>
       <use xlink:href="#DejaVuSans-32"/>
       <use xlink:href="#DejaVuSans-30" x="63.623047"/>
       <use xlink:href="#DejaVuSans-32" x="127.246094"/>
       <use xlink:href="#DejaVuSans-33" x="190.869141"/>
       <use xlink:href="#DejaVuSans-2d" x="254.492188"/>
       <use xlink:href="#DejaVuSans-31" x="290.576172"/>
       <use xlink:href="#DejaVuSans-31" x="354.199219"/>
       <use xlink:href="#DejaVuSans-2d" x="417.822266"/>
       <use xlink:href="#DejaVuSans-30" x="453.90625"/>
       <use xlink:href="#DejaVuSans-35" x="517.529297"/>
      </g>
     </g>
    </g>
    <g id="xtick_5">
     <g id="line2d_9">
      <path d="M 370.831999 221.939962 
L 370.831999 26.8 
" clip-path="url(#p5b7f493041)" style="fill: none; stroke: #b0b0b0; stroke-width: 0.8; stroke-linecap: square"/>
     </g>
     <g id="line2d_10">
      <g>
       <use xlink:href="#m34c77866ad" x="370.831999" y="221.939962" style="stroke: #000000; stroke-width: 0.8"/>
      </g>
     </g>
     <g id="text_5">
      <!-- 2023-11-06 -->
      <g transform="translate(328.267485 275.406821) rotate(-45) scale(0.1 -0.1)">
       <defs>
        <path id="DejaVuSans-36" d="M 2113 2584 
Q 1688 2584 1439 2293 
Q 1191 2003 1191 1497 
Q 1191 994 1439 701 
Q 1688 409 2113 409 
Q 2538 409 2786 701 
Q 3034 994 3034 1497 
Q 3034 2003 2786 2293 
Q 2538 2584 2113 2584 
z
M 3366 4563 
L 3366 3988 
Q 3128 4100 2886 4159 
Q 2644 4219 2406 4219 
Q 1781 4219 1451 3797 
Q 1122 3375 1075 2522 
Q 1259 2794 1537 2939 
Q 1816 3084 2150 3084 
Q 2853 3084 3261 2657 
Q 3669 2231 3669 1497 
Q 3669 778 3244 343 
Q 2819 -91 2113 -91 
Q 1303 -91 875 529 
Q 447 1150 447 2328 
Q 447 3434 972 4092 
Q 1497 4750 2381 4750 
Q 2619 4750 2861 4703 
Q 3103 4656 3366 4563 
z
" transform="scale(0.015625)"/>
       </defs>
       <use xlink:href="#DejaVuSans-32"/>
       <use xlink:href="#DejaVuSans-30" x="63.623047"/>
       <use xlink:href="#DejaVuSans-32" x="127.246094"/>
       <use xlink:href="#DejaVuSans-33" x="190.869141"/>
       <use xlink:href="#DejaVuSans-2d" x="254.492188"/>
       <use xlink:href="#DejaVuSans-31" x="290.576172"/>
       <use xlink:href="#DejaVuSans-31" x="354.199219"/>
       <use xlink:href="#DejaVuSans-2d" x="417.822266"/>
       <use xlink:href="#DejaVuSans-30" x="453.90625"/>
       <use xlink:href="#DejaVuSans-36" x="517.529297"/>
      </g>
     </g>
    </g>
   </g>
   <g id="matplotlib.axis_2">
    <g id="ytick_1">
     <g id="line2d_11">
      <path d="M 50.925 218.724146 
L 421.2 218.724146 
" clip-path="url(#p5b7f493041)" style="fill: none; stroke: #b0b0b0; stroke-width: 0.8; stroke-linecap: square"/>
     </g>
     <g id="line2d_12">
      <defs>
       <path id="mbd37a32105" d="M 0 0 
L -3.5 0 
" style="stroke: #000000; stroke-width: 0.8"/>
      </defs>
      <g>
       <use xlink:href="#mbd37a32105" x="50.925" y="218.724146" style="stroke: #000000; stroke-width: 0.8"/>
      </g>
     </g>
     <g id="text_6">
      <!-- 330 -->
      <g transform="translate(24.8375 222.523365) scale(0.1 -0.1)">
       <use xlink:href="#DejaVuSans-33"/>
       <use xlink:href="#DejaVuSans-33" x="63.623047"/>
       <use xlink:href="#DejaVuSans-30" x="127.246094"/>
      </g>
     </g>
    </g>
    <g id="ytick_2">
     <g id="line2d_13">
      <path d="M 50.925 195.165054 
L 421.2 195.165054 
" clip-path="url(#p5b7f493041)" style="fill: none; stroke: #b0b0b0; stroke-width: 0.8; stroke-linecap: square"/>
     </g>
     <g id="line2d_14">
      <g>
       <use xlink:href="#mbd37a32105" x="50.925" y="195.165054" style="stroke: #000000; stroke-width: 0.8"/>
      </g>
     </g>
     <g id="text_7">
      <!-- 340 -->
      <g transform="translate(24.8375 198.964272) scale(0.1 -0.1)">
       <use xlink:href="#DejaVuSans-33"/>
       <use xlink:href="#DejaVuSans-34" x="63.623047"/>
       <use xlink:href="#DejaVuSans-30" x="127.246094"/>
      </g>
     </g>
    </g>
    <g id="ytick_3">
     <g id="line2d_15">
      <path d="M 50.925 171.605961 
L 421.2 171.605961 
" clip-path="url(#p5b7f493041)" style="fill: none; stroke: #b0b0b0; stroke-width: 0.8; stroke-linecap: square"/>
     </g>
     <g id="line2d_16">
      <g>
       <use xlink:href="#mbd37a32105" x="50.925" y="171.605961" style="stroke: #000000; stroke-width: 0.8"/>
      </g>
     </g>
     <g id="text_8">
      <!-- 350 -->
      <g transform="translate(24.8375 175.40518) scale(0.1 -0.1)">
       <use xlink:href="#DejaVuSans-33"/>
       <use xlink:href="#DejaVuSans-35" x="63.623047"/>
       <use xlink:href="#DejaVuSans-30" x="127.246094"/>
      </g>
     </g>
    </g>
    <g id="ytick_4">
     <g id="line2d_17">
      <path d="M 50.925 148.046869 
L 421.2 148.046869 
" clip-path="url(#p5b7f493041)" style="fill: none; stroke: #b0b0b0; stroke-width: 0.8; stroke-linecap: square"/>
     </g>
     <g id="line2d_18">
      <g>
       <use xlink:href="#mbd37a32105" x="50.925" y="148.046869" style="stroke: #000000; stroke-width: 0.8"/>
      </g>
     </g>
     <g id="text_9">
      <!-- 360 -->
      <g transform="translate(24.8375 151.846088) scale(0.1 -0.1)">
       <use xlink:href="#DejaVuSans-33"/>
       <use xlink:href="#DejaVuSans-36" x="63.623047"/>
       <use xlink:href="#DejaVuSans-30" x="127.246094"/>
      </g>
     </g>
    </g>
    <g id="ytick_5">
     <g id="line2d_19">
      <path d="M 50.925 124.487777 
L 421.2 124.487777 
" clip-path="url(#p5b7f493041)" style="fill: none; stroke: #b0b0b0; stroke-width: 0.8; stroke-linecap: square"/>
     </g>
     <g id="line2d_20">
      <g>
       <use xlink:href="#mbd37a32105" x="50.925" y="124.487777" style="stroke: #000000; stroke-width: 0.8"/>
      </g>
     </g>
     <g id="text_10">
      <!-- 370 -->
      <g transform="translate(24.8375 128.286995) scale(0.1 -0.1)">
       <defs>
        <path id="DejaVuSans-37" d="M 525 4666 
L 3525 4666 
L 3525 4397 
L 1831 0 
L 1172 0 
L 2766 4134 
L 525 4134 
L 525 4666 
z
" transform="scale(0.015625)"/>
       </defs>
       <use xlink:href="#DejaVuSans-33"/>
       <use xlink:href="#DejaVuSans-37" x="63.623047"/>
       <use xlink:href="#DejaVuSans-30" x="127.246094"/>
      </g>
     </g>
    </g>
    <g id="ytick_6">
     <g id="line2d_21">
      <path d="M 50.925 100.928684 
L 421.2 100.928684 
" clip-path="url(#p5b7f493041)" style="fill: none; stroke: #b0b0b0; stroke-width: 0.8; stroke-linecap: square"/>
     </g>
     <g id="line2d_22">
      <g>
       <use xlink:href="#mbd37a32105" x="50.925" y="100.928684" style="stroke: #000000; stroke-width: 0.8"/>
      </g>
     </g>
     <g id="text_11">
      <!-- 380 -->
      <g transform="translate(24.8375 104.727903) scale(0.1 -0.1)">
       <defs>
        <path id="DejaVuSans-38" d="M 2034 2216 
Q 1584 2216 1326 1975 
Q 1069 1734 1069 1313 
Q 1069 891 1326 650 
Q 1584 409 2034 409 
Q 2484 409 2743 651 
Q 3003 894 3003 1313 
Q 3003 1734 2745 1975 
Q 2488 2216 2034 2216 
z
M 1403 2484 
Q 997 2584 770 2862 
Q 544 3141 544 3541 
Q 544 4100 942 4425 
Q 1341 4750 2034 4750 
Q 2731 4750 3128 4425 
Q 3525 4100 3525 3541 
Q 3525 3141 3298 2862 
Q 3072 2584 2669 2484 
Q 3125 2378 3379 2068 
Q 3634 1759 3634 1313 
Q 3634 634 3220 271 
Q 2806 -91 2034 -91 
Q 1263 -91 848 271 
Q 434 634 434 1313 
Q 434 1759 690 2068 
Q 947 2378 1403 2484 
z
M 1172 3481 
Q 1172 3119 1398 2916 
Q 1625 2713 2034 2713 
Q 2441 2713 2670 2916 
Q 2900 3119 2900 3481 
Q 2900 3844 2670 4047 
Q 2441 4250 2034 4250 
Q 1625 4250 1398 4047 
Q 1172 3844 1172 3481 
z
" transform="scale(0.015625)"/>
       </defs>
       <use xlink:href="#DejaVuSans-33"/>
       <use xlink:href="#DejaVuSans-38" x="63.623047"/>
       <use xlink:href="#DejaVuSans-30" x="127.246094"/>
      </g>
     </g>
    </g>
    <g id="ytick_7">
     <g id="line2d_23">
      <path d="M 50.925 77.369592 
L 421.2 77.369592 
" clip-path="url(#p5b7f493041)" style="fill: none; stroke: #b0b0b0; stroke-width: 0.8; stroke-linecap: square"/>
     </g>
     <g id="line2d_24">
      <g>
       <use xlink:href="#mbd37a32105" x="50.925" y="77.369592" style="stroke: #000000; stroke-width: 0.8"/>
      </g>
     </g>
     <g id="text_12">
      <!-- 390 -->
      <g transform="translate(24.8375 81.168811) scale(0.1 -0.1)">
       <defs>
        <path id="DejaVuSans-39" d="M 703 97 
L 703 672 
Q 941 559 1184 500 
Q 1428 441 1663 441 
Q 2288 441 2617 861 
Q 2947 1281 2994 2138 
Q 2813 1869 2534 1725 
Q 2256 1581 1919 1581 
Q 1219 1581 811 2004 
Q 403 2428 403 3163 
Q 403 3881 828 4315 
Q 1253 4750 1959 4750 
Q 2769 4750 3195 4129 
Q 3622 3509 3622 2328 
Q 3622 1225 3098 567 
Q 2575 -91 1691 -91 
Q 1453 -91 1209 -44 
Q 966 3 703 97 
z
M 1959 2075 
Q 2384 2075 2632 2365 
Q 2881 2656 2881 3163 
Q 2881 3666 2632 3958 
Q 2384 4250 1959 4250 
Q 1534 4250 1286 3958 
Q 1038 3666 1038 3163 
Q 1038 2656 1286 2365 
Q 1534 2075 1959 2075 
z
" transform="scale(0.015625)"/>
       </defs>
       <use xlink:href="#DejaVuSans-33"/>
       <use xlink:href="#DejaVuSans-39" x="63.623047"/>
       <use xlink:href="#DejaVuSans-30" x="127.246094"/>
      </g>
     </g>
    </g>
    <g id="ytick_8">
     <g id="line2d_25">
      <path d="M 50.925 53.810499 
L 421.2 53.810499 
" clip-path="url(#p5b7f493041)" style="fill: none; stroke: #b0b0b0; stroke-width: 0.8; stroke-linecap: square"/>
     </g>
     <g id="line2d_26">
      <g>
       <use xlink:href="#mbd37a32105" x="50.925" y="53.810499" style="stroke: #000000; stroke-width: 0.8"/>
      </g>
     </g>
     <g id="text_13">
      <!-- 400 -->
      <g transform="translate(24.8375 57.609718) scale(0.1 -0.1)">
       <use xlink:href="#DejaVuSans-34"/>
       <use xlink:href="#DejaVuSans-30" x="63.623047"/>
       <use xlink:href="#DejaVuSans-30" x="127.246094"/>
      </g>
     </g>
    </g>
    <g id="ytick_9">
     <g id="line2d_27">
      <path d="M 50.925 30.251407 
L 421.2 30.251407 
" clip-path="url(#p5b7f493041)" style="fill: none; stroke: #b0b0b0; stroke-width: 0.8; stroke-linecap: square"/>
     </g>
     <g id="line2d_28">
      <g>
       <use xlink:href="#mbd37a32105" x="50.925" y="30.251407" style="stroke: #000000; stroke-width: 0.8"/>
      </g>
     </g>
     <g id="text_14">
      <!-- 410 -->
      <g transform="translate(24.8375 34.050626) scale(0.1 -0.1)">
       <use xlink:href="#DejaVuSans-34"/>
       <use xlink:href="#DejaVuSans-31" x="63.623047"/>
       <use xlink:href="#DejaVuSans-30" x="127.246094"/>
      </g>
     </g>
    </g>
    <g id="text_15">
     <!-- Rain [mm] -->
     <g transform="translate(18.757812 150.584825) rotate(-90) scale(0.1 -0.1)">
      <defs>
       <path id="DejaVuSans-52" d="M 2841 2188 
Q 3044 2119 3236 1894 
Q 3428 1669 3622 1275 
L 4263 0 
L 3584 0 
L 2988 1197 
Q 2756 1666 2539 1819 
Q 2322 1972 1947 1972 
L 1259 1972 
L 1259 0 
L 628 0 
L 628 4666 
L 2053 4666 
Q 2853 4666 3247 4331 
Q 3641 3997 3641 3322 
Q 3641 2881 3436 2590 
Q 3231 2300 2841 2188 
z
M 1259 4147 
L 1259 2491 
L 2053 2491 
Q 2509 2491 2742 2702 
Q 2975 2913 2975 3322 
Q 2975 3731 2742 3939 
Q 2509 4147 2053 4147 
L 1259 4147 
z
" transform="scale(0.015625)"/>
       <path id="DejaVuSans-61" d="M 2194 1759 
Q 1497 1759 1228 1600 
Q 959 1441 959 1056 
Q 959 750 1161 570 
Q 1363 391 1709 391 
Q 2188 391 2477 730 
Q 2766 1069 2766 1631 
L 2766 1759 
L 2194 1759 
z
M 3341 1997 
L 3341 0 
L 2766 0 
L 2766 531 
Q 2569 213 2275 61 
Q 1981 -91 1556 -91 
Q 1019 -91 701 211 
Q 384 513 384 1019 
Q 384 1609 779 1909 
Q 1175 2209 1959 2209 
L 2766 2209 
L 2766 2266 
Q 2766 2663 2505 2880 
Q 2244 3097 1772 3097 
Q 1472 3097 1187 3025 
Q 903 2953 641 2809 
L 641 3341 
Q 956 3463 1253 3523 
Q 1550 3584 1831 3584 
Q 2591 3584 2966 3190 
Q 3341 2797 3341 1997 
z
" transform="scale(0.015625)"/>
       <path id="DejaVuSans-69" d="M 603 3500 
L 1178 3500 
L 1178 0 
L 603 0 
L 603 3500 
z
M 603 4863 
L 1178 4863 
L 1178 4134 
L 603 4134 
L 603 4863 
z
" transform="scale(0.015625)"/>
       <path id="DejaVuSans-6e" d="M 3513 2113 
L 3513 0 
L 2938 0 
L 2938 2094 
Q 2938 2591 2744 2837 
Q 2550 3084 2163 3084 
Q 1697 3084 1428 2787 
Q 1159 2491 1159 1978 
L 1159 0 
L 581 0 
L 581 3500 
L 1159 3500 
L 1159 2956 
Q 1366 3272 1645 3428 
Q 1925 3584 2291 3584 
Q 2894 3584 3203 3211 
Q 3513 2838 3513 2113 
z
" transform="scale(0.015625)"/>
       <path id="DejaVuSans-20" transform="scale(0.015625)"/>
       <path id="DejaVuSans-5b" d="M 550 4863 
L 1875 4863 
L 1875 4416 
L 1125 4416 
L 1125 -397 
L 1875 -397 
L 1875 -844 
L 550 -844 
L 550 4863 
z
" transform="scale(0.015625)"/>
       <path id="DejaVuSans-6d" d="M 3328 2828 
Q 3544 3216 3844 3400 
Q 4144 3584 4550 3584 
Q 5097 3584 5394 3201 
Q 5691 2819 5691 2113 
L 5691 0 
L 5113 0 
L 5113 2094 
Q 5113 2597 4934 2840 
Q 4756 3084 4391 3084 
Q 3944 3084 3684 2787 
Q 3425 2491 3425 1978 
L 3425 0 
L 2847 0 
L 2847 2094 
Q 2847 2600 2669 2842 
Q 2491 3084 2119 3084 
Q 1678 3084 1418 2786 
Q 1159 2488 1159 1978 
L 1159 0 
L 581 0 
L 581 3500 
L 1159 3500 
L 1159 2956 
Q 1356 3278 1631 3431 
Q 1906 3584 2284 3584 
Q 2666 3584 2933 3390 
Q 3200 3197 3328 2828 
z
" transform="scale(0.015625)"/>
       <path id="DejaVuSans-5d" d="M 1947 4863 
L 1947 -844 
L 622 -844 
L 622 -397 
L 1369 -397 
L 1369 4416 
L 622 4416 
L 622 4863 
L 1947 4863 
z
" transform="scale(0.015625)"/>
      </defs>
      <use xlink:href="#DejaVuSans-52"/>
      <use xlink:href="#DejaVuSans-61" x="67.232422"/>
      <use xlink:href="#DejaVuSans-69" x="128.511719"/>
      <use xlink:href="#DejaVuSans-6e" x="156.294922"/>
      <use xlink:href="#DejaVuSans-20" x="219.673828"/>
      <use xlink:href="#DejaVuSans-5b" x="251.460938"/>
      <use xlink:href="#DejaVuSans-6d" x="290.474609"/>
      <use xlink:href="#DejaVuSans-6d" x="387.886719"/>
      <use xlink:href="#DejaVuSans-5d" x="485.298828"/>
     </g>
    </g>
   </g>
   <g id="line2d_29">
    <path d="M 50.925 213.069964 
L 101.972942 213.069964 
L 102.1151 212.363191 
L 102.186151 212.363191 
L 102.328265 211.656418 
L 102.576976 211.656418 
L 102.719168 210.949646 
L 103.501234 210.949646 
L 103.679145 210.242873 
L 103.785625 210.242873 
L 103.927818 209.5361 
L 104.141109 209.5361 
L 104.283304 208.829327 
L 104.4255 208.829327 
L 104.567691 208.122555 
L 104.852079 208.122555 
L 105.030023 207.415782 
L 105.527828 207.415782 
L 105.669835 206.709009 
L 106.700602 206.709009 
L 106.842798 206.002236 
L 108.62022 206.002236 
L 108.762415 205.295463 
L 110.326548 205.295463 
L 110.468746 204.588691 
L 111.215528 204.588691 
L 111.357734 203.881918 
L 114.48596 203.881918 
L 114.628202 203.175145 
L 117.862862 203.175145 
L 118.005054 202.468372 
L 120.529195 202.468372 
L 120.671391 201.7616 
L 129.700685 201.7616 
L 129.843077 201.054827 
L 131.015853 201.054827 
L 131.158047 200.348054 
L 132.402435 200.348054 
L 132.544715 199.641281 
L 133.966699 199.641281 
L 134.108869 198.934508 
L 135.921544 198.934508 
L 136.063741 198.227736 
L 136.917324 198.227736 
L 137.094818 197.520963 
L 137.983371 197.520963 
L 138.125565 196.81419 
L 138.623244 196.81419 
L 138.765439 196.107417 
L 139.298956 196.107417 
L 139.441093 195.400645 
L 140.36519 195.400645 
L 140.507585 194.693872 
L 141.324932 194.693872 
L 141.467126 193.987099 
L 141.85844 193.987099 
L 142.000587 193.280326 
L 142.249195 193.280326 
L 142.427133 192.573554 
L 142.746872 192.573554 
L 142.889068 191.866781 
L 143.173457 191.866781 
L 143.351448 191.160008 
L 143.706758 191.160008 
L 143.849158 190.453235 
L 144.062465 190.453235 
L 144.204649 189.746462 
L 144.382109 189.746462 
L 144.524309 189.03969 
L 144.666502 189.03969 
L 144.808694 188.332917 
L 144.951237 188.332917 
L 145.128895 187.626144 
L 145.306374 187.626144 
L 145.448568 186.919371 
L 145.839843 186.919371 
L 145.982021 186.212599 
L 146.372834 186.212599 
L 146.51503 185.505826 
L 146.764118 185.505826 
L 146.906312 184.799053 
L 147.012713 184.799053 
L 147.154907 184.09228 
L 147.297105 184.09228 
L 147.439297 183.385508 
L 147.581491 183.385508 
L 147.759412 182.678735 
L 147.865881 182.678735 
L 148.008081 181.971962 
L 148.07918 181.971962 
L 148.221372 181.265189 
L 148.292824 181.265189 
L 148.470483 180.558416 
L 148.541611 180.558416 
L 148.683794 179.851644 
L 148.897086 179.851644 
L 149.039042 179.144871 
L 149.18145 179.144871 
L 149.323513 178.438098 
L 149.465853 178.438098 
L 149.607999 177.731325 
L 149.643704 177.731325 
L 149.785519 177.024553 
L 149.892443 177.024553 
L 150.034638 176.31778 
L 150.105719 176.31778 
L 150.247911 175.611007 
L 150.354302 175.611007 
L 150.496494 174.904234 
L 150.674502 174.904234 
L 150.816695 174.197461 
L 151.029748 174.197461 
L 151.172208 173.490689 
L 151.314326 173.490689 
L 151.456582 172.783916 
L 151.634432 172.783916 
L 151.812071 172.077143 
L 151.918434 172.077143 
L 152.060629 171.37037 
L 152.345 171.37037 
L 152.487215 170.663598 
L 152.629407 170.663598 
L 152.771599 169.956825 
L 152.9496 169.956825 
L 153.091695 169.250052 
L 153.162938 169.250052 
L 153.305014 168.543279 
L 153.376207 168.543279 
L 153.518354 167.836507 
L 153.625184 167.836507 
L 153.802664 167.129734 
L 153.838058 167.129734 
L 153.980251 166.422961 
L 154.051348 166.422961 
L 154.193539 165.716188 
L 154.229322 165.716188 
L 154.371321 165.009415 
L 154.406833 165.009415 
L 154.549026 164.302643 
L 154.655875 164.302643 
L 154.798103 163.59587 
L 154.833416 163.59587 
L 154.97607 162.889097 
L 155.224787 161.475552 
L 155.295796 161.475552 
L 155.473287 160.062006 
L 155.615483 160.062006 
L 155.79346 159.355233 
L 155.864598 159.355233 
L 156.042066 157.941688 
L 156.148914 157.941688 
L 156.255357 157.234915 
L 156.397553 157.234915 
L 156.539748 156.528142 
L 156.575595 156.528142 
L 156.753042 155.114597 
L 156.895235 155.114597 
L 157.037428 154.407824 
L 157.144339 154.407824 
L 157.286506 153.701051 
L 157.321813 153.701051 
L 157.535108 151.580733 
L 157.606205 151.580733 
L 157.855233 150.167187 
L 157.890595 150.167187 
L 158.032788 149.460414 
L 158.06858 149.460414 
L 158.210824 148.753642 
L 158.352709 148.753642 
L 158.530466 147.340096 
L 158.708509 147.340096 
L 158.850656 146.633323 
L 158.957046 146.633323 
L 159.135011 145.926551 
L 159.241438 145.926551 
L 159.419417 144.513005 
L 159.525831 144.513005 
L 159.703591 143.09946 
L 159.952412 143.09946 
L 160.094608 142.392687 
L 160.130431 142.392687 
L 160.272618 141.685914 
L 160.378997 141.685914 
L 160.52119 140.979141 
L 160.556904 140.979141 
L 160.699066 140.272368 
L 160.734487 140.272368 
L 160.876678 139.565596 
L 161.054469 139.565596 
L 161.19684 138.858823 
L 161.339052 138.858823 
L 161.481263 138.15205 
L 161.552355 138.15205 
L 161.694278 137.445277 
L 161.765534 137.445277 
L 161.907742 136.738505 
L 162.121156 136.738505 
L 162.263281 136.031732 
L 162.405344 136.031732 
L 162.547777 135.324959 
L 162.654115 135.324959 
L 162.79631 134.618186 
L 162.867406 134.618186 
L 163.045159 133.204641 
L 163.151797 133.204641 
L 163.293994 132.497868 
L 163.329719 132.497868 
L 163.472032 131.791095 
L 163.543079 131.791095 
L 163.720578 130.37755 
L 163.862773 130.37755 
L 164.004968 129.670777 
L 164.111873 129.670777 
L 164.25403 128.964004 
L 164.289359 128.964004 
L 164.467298 128.257231 
L 164.50265 128.257231 
L 164.644846 127.550459 
L 164.715943 127.550459 
L 164.893966 126.136913 
L 165.071429 126.136913 
L 165.213629 125.43014 
L 165.249437 125.43014 
L 165.391657 124.723367 
L 165.462634 124.723367 
L 165.640213 123.309822 
L 165.889356 123.309822 
L 166.031534 122.603049 
L 166.10261 122.603049 
L 166.244787 121.896276 
L 166.422282 121.896276 
L 166.564476 121.189504 
L 166.777772 121.189504 
L 166.919966 120.482731 
L 166.955765 120.482731 
L 167.097809 119.775958 
L 167.169065 119.775958 
L 167.311178 119.069185 
L 167.488744 119.069185 
L 167.630937 118.362413 
L 167.737622 118.362413 
L 167.880079 117.65564 
L 167.951175 117.65564 
L 168.12862 116.242094 
L 168.555206 116.242094 
L 168.6974 115.535321 
L 168.768495 115.535321 
L 168.910692 114.828549 
L 168.981792 114.828549 
L 169.159756 114.121776 
L 169.30202 114.121776 
L 169.444202 113.415003 
L 169.870785 113.415003 
L 170.012893 112.70823 
L 170.297302 112.70823 
L 170.439381 112.001458 
L 170.866173 112.001458 
L 170.972517 111.294685 
L 171.185809 111.294685 
L 171.328005 110.587912 
L 171.505946 110.587912 
L 171.648107 109.881139 
L 179.00651 109.881139 
L 179.184485 109.174367 
L 179.290895 109.174367 
L 179.433093 108.467594 
L 179.575287 108.467594 
L 179.717923 107.760821 
L 179.824299 107.760821 
L 179.966549 107.054048 
L 180.108809 107.054048 
L 180.250968 106.347275 
L 180.357816 106.347275 
L 180.535367 105.640503 
L 180.712845 105.640503 
L 180.855038 104.93373 
L 180.997233 104.93373 
L 181.175179 104.226957 
L 181.388501 104.226957 
L 181.530621 103.520184 
L 181.672965 103.520184 
L 181.814991 102.813412 
L 182.063693 102.813412 
L 182.205889 102.106639 
L 182.348082 102.106639 
L 182.52606 101.399866 
L 182.561375 101.399866 
L 182.70357 100.693093 
L 182.98796 100.693093 
L 183.165874 99.98632 
L 183.69926 99.98632 
L 183.876906 99.279548 
L 187.324894 99.279548 
L 187.467089 98.572775 
L 187.609281 98.572775 
L 187.751832 97.866002 
L 187.964773 97.866002 
L 188.106963 97.159229 
L 188.284944 97.159229 
L 188.426897 96.452457 
L 188.640401 96.452457 
L 188.782612 95.745684 
L 188.853739 95.745684 
L 188.995905 95.038911 
L 189.031595 95.038911 
L 189.209175 94.332138 
L 189.422538 94.332138 
L 189.564687 93.625366 
L 189.777778 93.625366 
L 189.920211 92.918593 
L 190.23988 92.918593 
L 190.382462 92.21182 
L 190.560095 92.21182 
L 190.702265 91.505047 
L 191.697541 91.505047 
L 191.839725 90.798274 
L 192.159513 90.798274 
L 192.301708 90.091502 
L 192.515002 90.091502 
L 192.657194 89.384729 
L 192.692907 89.384729 
L 192.870485 87.971183 
L 192.97736 87.971183 
L 193.190604 85.850865 
L 193.297066 85.850865 
L 193.439262 85.144092 
L 193.475057 85.144092 
L 193.652554 83.730547 
L 193.79475 83.730547 
L 193.936945 83.023774 
L 193.972681 83.023774 
L 194.114906 82.317001 
L 194.257192 82.317001 
L 194.435106 80.903456 
L 194.470227 80.903456 
L 194.647916 79.48991 
L 194.719016 79.48991 
L 194.89687 78.076365 
L 194.932306 78.076365 
L 195.074951 77.369592 
L 195.145597 77.369592 
L 195.287789 76.662819 
L 195.572179 76.662819 
L 195.714376 75.956046 
L 195.892357 75.249273 
L 195.927671 75.249273 
L 196.069865 74.542501 
L 196.283151 74.542501 
L 196.425669 73.835728 
L 209.080691 73.835728 
L 209.258659 73.128955 
L 292.833519 73.128955 
L 292.975713 72.422182 
L 296.175102 72.422182 
L 296.3173 71.71541 
L 297.45486 71.71541 
L 297.597054 71.008637 
L 298.308029 71.008637 
L 298.450224 70.301864 
L 299.161198 70.301864 
L 299.303816 69.595091 
L 299.943686 69.595091 
L 300.121279 68.888319 
L 300.689856 68.888319 
L 300.832144 68.181546 
L 328.02686 68.181546 
L 328.169057 67.474773 
L 328.880033 67.474773 
L 329.022228 66.768 
L 329.662106 66.768 
L 329.804305 66.061227 
L 330.337827 66.061227 
L 330.480063 65.354455 
L 331.084055 65.354455 
L 331.226252 64.647682 
L 331.581743 64.647682 
L 331.723934 63.940909 
L 332.008325 63.940909 
L 332.150958 63.234136 
L 332.541848 63.234136 
L 332.684029 62.527364 
L 333.110611 62.527364 
L 333.252746 61.820591 
L 333.679337 61.820591 
L 333.821544 61.113818 
L 334.283445 61.113818 
L 334.425642 60.407045 
L 334.781129 60.407045 
L 334.959076 59.700273 
L 335.207709 59.700273 
L 335.349905 58.9935 
L 335.598887 58.9935 
L 335.741201 58.286727 
L 335.812291 58.286727 
L 335.954356 57.579954 
L 336.20307 57.579954 
L 336.345267 56.873181 
L 336.452233 56.873181 
L 336.594374 56.166409 
L 336.629659 56.166409 
L 336.771849 55.459636 
L 336.87851 55.459636 
L 337.020931 54.752863 
L 337.092047 54.752863 
L 337.234234 54.04609 
L 337.26953 54.04609 
L 337.447579 52.632545 
L 337.553924 52.632545 
L 337.696115 51.925772 
L 337.73192 51.925772 
L 337.909405 50.512226 
L 337.945269 50.512226 
L 338.122697 49.098681 
L 338.656152 44.858044 
L 338.691473 44.858044 
L 338.904763 42.737726 
L 338.975863 42.737726 
L 339.189151 40.617408 
L 339.260253 40.617408 
L 339.438294 39.203862 
L 339.473541 39.203862 
L 339.722636 37.790317 
L 339.757929 37.790317 
L 339.935889 36.376771 
L 340.113416 36.376771 
L 340.291326 35.669998 
L 421.2 35.669998 
L 421.2 35.669998 
" clip-path="url(#p5b7f493041)" style="fill: none; stroke: #9467bd; stroke-width: 1.5; stroke-linecap: square"/>
   </g>
   <g id="patch_3">
    <path d="M 50.925 221.939962 
L 50.925 26.8 
" style="fill: none; stroke: #000000; stroke-width: 0.8; stroke-linejoin: miter; stroke-linecap: square"/>
   </g>
   <g id="patch_4">
    <path d="M 421.2 221.939962 
L 421.2 26.8 
" style="fill: none; stroke: #000000; stroke-width: 0.8; stroke-linejoin: miter; stroke-linecap: square"/>
   </g>
   <g id="patch_5">
    <path d="M 50.925 221.939962 
L 421.2 221.939962 
" style="fill: none; stroke: #000000; stroke-width: 0.8; stroke-linejoin: miter; stroke-linecap: square"/>
   </g>
   <g id="patch_6">
    <path d="M 50.925 26.8 
L 421.2 26.8 
" style="fill: none; stroke: #000000; stroke-width: 0.8; stroke-linejoin: miter; stroke-linecap: square"/>
   </g>
   <g id="text_16">
    <!-- November 2023 -->
    <g transform="translate(187.670625 20.8) scale(0.12 -0.12)">
     <defs>
      <path id="DejaVuSans-4e" d="M 628 4666 
L 1478 4666 
L 3547 763 
L 3547 4666 
L 4159 4666 
L 4159 0 
L 3309 0 
L 1241 3903 
L 1241 0 
L 628 0 
L 628 4666 
z
" transform="scale(0.015625)"/>
      <path id="DejaVuSans-6f" d="M 1959 3097 
Q 1497 3097 1228 2736 
Q 959 2375 959 1747 
Q 959 1119 1226 758 
Q 1494 397 1959 397 
Q 2419 397 2687 759 
Q 2956 1122 2956 1747 
Q 2956 2369 2687 2733 
Q 2419 3097 1959 3097 
z
M 1959 3584 
Q 2709 3584 3137 3096 
Q 3566 2609 3566 1747 
Q 3566 888 3137 398 
Q 2709 -91 1959 -91 
Q 1206 -91 779 398 
Q 353 888 353 1747 
Q 353 2609 779 3096 
Q 1206 3584 1959 3584 
z
" transform="scale(0.015625)"/>
      <path id="DejaVuSans-76" d="M 191 3500 
L 800 3500 
L 1894 563 
L 2988 3500 
L 3597 3500 
L 2284 0 
L 1503 0 
L 191 3500 
z
" transform="scale(0.015625)"/>
      <path id="DejaVuSans-65" d="M 3597 1894 
L 3597 1613 
L 953 1613 
Q 991 1019 1311 708 
Q 1631 397 2203 397 
Q 2534 397 2845 478 
Q 3156 559 3463 722 
L 3463 178 
Q 3153 47 2828 -22 
Q 2503 -91 2169 -91 
Q 1331 -91 842 396 
Q 353 884 353 1716 
Q 353 2575 817 3079 
Q 1281 3584 2069 3584 
Q 2775 3584 3186 3129 
Q 3597 2675 3597 1894 
z
M 3022 2063 
Q 3016 2534 2758 2815 
Q 2500 3097 2075 3097 
Q 1594 3097 1305 2825 
Q 1016 2553 972 2059 
L 3022 2063 
z
" transform="scale(0.015625)"/>
      <path id="DejaVuSans-62" d="M 3116 1747 
Q 3116 2381 2855 2742 
Q 2594 3103 2138 3103 
Q 1681 3103 1420 2742 
Q 1159 2381 1159 1747 
Q 1159 1113 1420 752 
Q 1681 391 2138 391 
Q 2594 391 2855 752 
Q 3116 1113 3116 1747 
z
M 1159 2969 
Q 1341 3281 1617 3432 
Q 1894 3584 2278 3584 
Q 2916 3584 3314 3078 
Q 3713 2572 3713 1747 
Q 3713 922 3314 415 
Q 2916 -91 2278 -91 
Q 1894 -91 1617 61 
Q 1341 213 1159 525 
L 1159 0 
L 581 0 
L 581 4863 
L 1159 4863 
L 1159 2969 
z
" transform="scale(0.015625)"/>
      <path id="DejaVuSans-72" d="M 2631 2963 
Q 2534 3019 2420 3045 
Q 2306 3072 2169 3072 
Q 1681 3072 1420 2755 
Q 1159 2438 1159 1844 
L 1159 0 
L 581 0 
L 581 3500 
L 1159 3500 
L 1159 2956 
Q 1341 3275 1631 3429 
Q 1922 3584 2338 3584 
Q 2397 3584 2469 3576 
Q 2541 3569 2628 3553 
L 2631 2963 
z
" transform="scale(0.015625)"/>
     </defs>
     <use xlink:href="#DejaVuSans-4e"/>
     <use xlink:href="#DejaVuSans-6f" x="74.804688"/>
     <use xlink:href="#DejaVuSans-76" x="135.986328"/>
     <use xlink:href="#DejaVuSans-65" x="195.166016"/>
     <use xlink:href="#DejaVuSans-6d" x="256.689453"/>
     <use xlink:href="#DejaVuSans-62" x="354.101562"/>
     <use xlink:href="#DejaVuSans-65" x="417.578125"/>
     <use xlink:href="#DejaVuSans-72" x="479.101562"/>
     <use xlink:href="#DejaVuSans-20" x="520.214844"/>
     <use xlink:href="#DejaVuSans-32" x="552.001953"/>
     <use xlink:href="#DejaVuSans-30" x="615.625"/>
     <use xlink:href="#DejaVuSans-32" x="679.248047"/>
     <use xlink:href="#DejaVuSans-33" x="742.871094"/>
    </g>
   </g>
  </g>
 </g>
 <defs>
  <clipPath id="p5b7f493041">
   <rect x="50.925" y="26.8" width="370.275" height="195.139962"/>
  </clipPath>
 </defs>
</svg>
