<?xml version="1.0" encoding="utf-8" standalone="no"?>
<!DOCTYPE svg PUBLIC "-//W3C//DTD SVG 1.1//EN"
  "http://www.w3.org/Graphics/SVG/1.1/DTD/svg11.dtd">
<svg xmlns:xlink="http://www.w3.org/1999/xlink" width="504pt" height="504pt" viewBox="0 0 504 504" xmlns="http://www.w3.org/2000/svg" version="1.1">
 <metadata>
  <rdf:RDF xmlns:dc="http://purl.org/dc/elements/1.1/" xmlns:cc="http://creativecommons.org/ns#" xmlns:rdf="http://www.w3.org/1999/02/22-rdf-syntax-ns#">
   <cc:Work>
    <dc:type rdf:resource="http://purl.org/dc/dcmitype/StillImage"/>
    <dc:date>2023-12-03T01:02:57.589104</dc:date>
    <dc:format>image/svg+xml</dc:format>
    <dc:creator>
     <cc:Agent>
      <dc:title>Matplotlib v3.6.3, https://matplotlib.org/</dc:title>
     </cc:Agent>
    </dc:creator>
   </cc:Work>
  </rdf:RDF>
 </metadata>
 <defs>
  <style type="text/css">*{stroke-linejoin: round; stroke-linecap: butt}</style>
 </defs>
 <g id="figure_1">
  <g id="patch_1">
   <path d="M 0 504 
L 504 504 
L 504 0 
L 0 0 
z
" style="fill: #ffffff"/>
  </g>
  <g id="axes_1">
   <g id="patch_2">
    <path d="M 51.05 158.510853 
L 481.959857 158.510853 
L 481.959857 32.4 
L 51.05 32.4 
z
" style="fill: #ffffff"/>
   </g>
   <g id="matplotlib.axis_1">
    <g id="xtick_1">
     <g id="line2d_1">
      <path d="M 103.723869 158.510853 
L 103.723869 32.4 
" clip-path="url(#pef66d93422)" style="fill: none; stroke: #b0b0b0; stroke-width: 0.8; stroke-linecap: square"/>
     </g>
     <g id="line2d_2">
      <defs>
       <path id="mc69059b9a8" d="M 0 0 
L 0 3.5 
" style="stroke: #000000; stroke-width: 0.8"/>
      </defs>
      <g>
       <use xlink:href="#mc69059b9a8" x="103.723869" y="158.510853" style="stroke: #000000; stroke-width: 0.8"/>
      </g>
     </g>
    </g>
    <g id="xtick_2">
     <g id="line2d_3">
      <path d="M 156.45997 158.510853 
L 156.45997 32.4 
" clip-path="url(#pef66d93422)" style="fill: none; stroke: #b0b0b0; stroke-width: 0.8; stroke-linecap: square"/>
     </g>
     <g id="line2d_4">
      <g>
       <use xlink:href="#mc69059b9a8" x="156.45997" y="158.510853" style="stroke: #000000; stroke-width: 0.8"/>
      </g>
     </g>
    </g>
    <g id="xtick_3">
     <g id="line2d_5">
      <path d="M 209.196071 158.510853 
L 209.196071 32.4 
" clip-path="url(#pef66d93422)" style="fill: none; stroke: #b0b0b0; stroke-width: 0.8; stroke-linecap: square"/>
     </g>
     <g id="line2d_6">
      <g>
       <use xlink:href="#mc69059b9a8" x="209.196071" y="158.510853" style="stroke: #000000; stroke-width: 0.8"/>
      </g>
     </g>
    </g>
    <g id="xtick_4">
     <g id="line2d_7">
      <path d="M 261.932171 158.510853 
L 261.932171 32.4 
" clip-path="url(#pef66d93422)" style="fill: none; stroke: #b0b0b0; stroke-width: 0.8; stroke-linecap: square"/>
     </g>
     <g id="line2d_8">
      <g>
       <use xlink:href="#mc69059b9a8" x="261.932171" y="158.510853" style="stroke: #000000; stroke-width: 0.8"/>
      </g>
     </g>
    </g>
    <g id="xtick_5">
     <g id="line2d_9">
      <path d="M 314.668272 158.510853 
L 314.668272 32.4 
" clip-path="url(#pef66d93422)" style="fill: none; stroke: #b0b0b0; stroke-width: 0.8; stroke-linecap: square"/>
     </g>
     <g id="line2d_10">
      <g>
       <use xlink:href="#mc69059b9a8" x="314.668272" y="158.510853" style="stroke: #000000; stroke-width: 0.8"/>
      </g>
     </g>
    </g>
    <g id="xtick_6">
     <g id="line2d_11">
      <path d="M 367.404373 158.510853 
L 367.404373 32.4 
" clip-path="url(#pef66d93422)" style="fill: none; stroke: #b0b0b0; stroke-width: 0.8; stroke-linecap: square"/>
     </g>
     <g id="line2d_12">
      <g>
       <use xlink:href="#mc69059b9a8" x="367.404373" y="158.510853" style="stroke: #000000; stroke-width: 0.8"/>
      </g>
     </g>
    </g>
    <g id="xtick_7">
     <g id="line2d_13">
      <path d="M 420.140474 158.510853 
L 420.140474 32.4 
" clip-path="url(#pef66d93422)" style="fill: none; stroke: #b0b0b0; stroke-width: 0.8; stroke-linecap: square"/>
     </g>
     <g id="line2d_14">
      <g>
       <use xlink:href="#mc69059b9a8" x="420.140474" y="158.510853" style="stroke: #000000; stroke-width: 0.8"/>
      </g>
     </g>
    </g>
    <g id="xtick_8">
     <g id="line2d_15">
      <path d="M 472.876575 158.510853 
L 472.876575 32.4 
" clip-path="url(#pef66d93422)" style="fill: none; stroke: #b0b0b0; stroke-width: 0.8; stroke-linecap: square"/>
     </g>
     <g id="line2d_16">
      <g>
       <use xlink:href="#mc69059b9a8" x="472.876575" y="158.510853" style="stroke: #000000; stroke-width: 0.8"/>
      </g>
     </g>
    </g>
   </g>
   <g id="matplotlib.axis_2">
    <g id="ytick_1">
     <g id="line2d_17">
      <path d="M 51.05 138.447763 
L 481.959857 138.447763 
" clip-path="url(#pef66d93422)" style="fill: none; stroke: #b0b0b0; stroke-width: 0.8; stroke-linecap: square"/>
     </g>
     <g id="line2d_18">
      <defs>
       <path id="mcd1242f9e0" d="M 0 0 
L -3.5 0 
" style="stroke: #000000; stroke-width: 0.8"/>
      </defs>
      <g>
       <use xlink:href="#mcd1242f9e0" x="51.05" y="138.447763" style="stroke: #000000; stroke-width: 0.8"/>
      </g>
     </g>
     <g id="text_1">
      <!-- −2 -->
      <g transform="translate(29.307813 142.246981) scale(0.1 -0.1)">
       <defs>
        <path id="DejaVuSans-2212" d="M 678 2272 
L 4684 2272 
L 4684 1741 
L 678 1741 
L 678 2272 
z
" transform="scale(0.015625)"/>
        <path id="DejaVuSans-32" d="M 1228 531 
L 3431 531 
L 3431 0 
L 469 0 
L 469 531 
Q 828 903 1448 1529 
Q 2069 2156 2228 2338 
Q 2531 2678 2651 2914 
Q 2772 3150 2772 3378 
Q 2772 3750 2511 3984 
Q 2250 4219 1831 4219 
Q 1534 4219 1204 4116 
Q 875 4013 500 3803 
L 500 4441 
Q 881 4594 1212 4672 
Q 1544 4750 1819 4750 
Q 2544 4750 2975 4387 
Q 3406 4025 3406 3419 
Q 3406 3131 3298 2873 
Q 3191 2616 2906 2266 
Q 2828 2175 2409 1742 
Q 1991 1309 1228 531 
z
" transform="scale(0.015625)"/>
       </defs>
       <use xlink:href="#DejaVuSans-2212"/>
       <use xlink:href="#DejaVuSans-32" x="83.789062"/>
      </g>
     </g>
    </g>
    <g id="ytick_2">
     <g id="line2d_19">
      <path d="M 51.05 109.786205 
L 481.959857 109.786205 
" clip-path="url(#pef66d93422)" style="fill: none; stroke: #b0b0b0; stroke-width: 0.8; stroke-linecap: square"/>
     </g>
     <g id="line2d_20">
      <g>
       <use xlink:href="#mcd1242f9e0" x="51.05" y="109.786205" style="stroke: #000000; stroke-width: 0.8"/>
      </g>
     </g>
     <g id="text_2">
      <!-- 0 -->
      <g transform="translate(37.6875 113.585424) scale(0.1 -0.1)">
       <defs>
        <path id="DejaVuSans-30" d="M 2034 4250 
Q 1547 4250 1301 3770 
Q 1056 3291 1056 2328 
Q 1056 1369 1301 889 
Q 1547 409 2034 409 
Q 2525 409 2770 889 
Q 3016 1369 3016 2328 
Q 3016 3291 2770 3770 
Q 2525 4250 2034 4250 
z
M 2034 4750 
Q 2819 4750 3233 4129 
Q 3647 3509 3647 2328 
Q 3647 1150 3233 529 
Q 2819 -91 2034 -91 
Q 1250 -91 836 529 
Q 422 1150 422 2328 
Q 422 3509 836 4129 
Q 1250 4750 2034 4750 
z
" transform="scale(0.015625)"/>
       </defs>
       <use xlink:href="#DejaVuSans-30"/>
      </g>
     </g>
    </g>
    <g id="ytick_3">
     <g id="line2d_21">
      <path d="M 51.05 81.124648 
L 481.959857 81.124648 
" clip-path="url(#pef66d93422)" style="fill: none; stroke: #b0b0b0; stroke-width: 0.8; stroke-linecap: square"/>
     </g>
     <g id="line2d_22">
      <g>
       <use xlink:href="#mcd1242f9e0" x="51.05" y="81.124648" style="stroke: #000000; stroke-width: 0.8"/>
      </g>
     </g>
     <g id="text_3">
      <!-- 2 -->
      <g transform="translate(37.6875 84.923866) scale(0.1 -0.1)">
       <use xlink:href="#DejaVuSans-32"/>
      </g>
     </g>
    </g>
    <g id="ytick_4">
     <g id="line2d_23">
      <path d="M 51.05 52.46309 
L 481.959857 52.46309 
" clip-path="url(#pef66d93422)" style="fill: none; stroke: #b0b0b0; stroke-width: 0.8; stroke-linecap: square"/>
     </g>
     <g id="line2d_24">
      <g>
       <use xlink:href="#mcd1242f9e0" x="51.05" y="52.46309" style="stroke: #000000; stroke-width: 0.8"/>
      </g>
     </g>
     <g id="text_4">
      <!-- 4 -->
      <g transform="translate(37.6875 56.262309) scale(0.1 -0.1)">
       <defs>
        <path id="DejaVuSans-34" d="M 2419 4116 
L 825 1625 
L 2419 1625 
L 2419 4116 
z
M 2253 4666 
L 3047 4666 
L 3047 1625 
L 3713 1625 
L 3713 1100 
L 3047 1100 
L 3047 0 
L 2419 0 
L 2419 1100 
L 313 1100 
L 313 1709 
L 2253 4666 
z
" transform="scale(0.015625)"/>
       </defs>
       <use xlink:href="#DejaVuSans-34"/>
      </g>
     </g>
    </g>
    <g id="text_5">
     <!-- Temperature [°C] -->
     <g transform="translate(23.228125 138.606989) rotate(-90) scale(0.1 -0.1)">
      <defs>
       <path id="DejaVuSans-54" d="M -19 4666 
L 3928 4666 
L 3928 4134 
L 2272 4134 
L 2272 0 
L 1638 0 
L 1638 4134 
L -19 4134 
L -19 4666 
z
" transform="scale(0.015625)"/>
       <path id="DejaVuSans-65" d="M 3597 1894 
L 3597 1613 
L 953 1613 
Q 991 1019 1311 708 
Q 1631 397 2203 397 
Q 2534 397 2845 478 
Q 3156 559 3463 722 
L 3463 178 
Q 3153 47 2828 -22 
Q 2503 -91 2169 -91 
Q 1331 -91 842 396 
Q 353 884 353 1716 
Q 353 2575 817 3079 
Q 1281 3584 2069 3584 
Q 2775 3584 3186 3129 
Q 3597 2675 3597 1894 
z
M 3022 2063 
Q 3016 2534 2758 2815 
Q 2500 3097 2075 3097 
Q 1594 3097 1305 2825 
Q 1016 2553 972 2059 
L 3022 2063 
z
" transform="scale(0.015625)"/>
       <path id="DejaVuSans-6d" d="M 3328 2828 
Q 3544 3216 3844 3400 
Q 4144 3584 4550 3584 
Q 5097 3584 5394 3201 
Q 5691 2819 5691 2113 
L 5691 0 
L 5113 0 
L 5113 2094 
Q 5113 2597 4934 2840 
Q 4756 3084 4391 3084 
Q 3944 3084 3684 2787 
Q 3425 2491 3425 1978 
L 3425 0 
L 2847 0 
L 2847 2094 
Q 2847 2600 2669 2842 
Q 2491 3084 2119 3084 
Q 1678 3084 1418 2786 
Q 1159 2488 1159 1978 
L 1159 0 
L 581 0 
L 581 3500 
L 1159 3500 
L 1159 2956 
Q 1356 3278 1631 3431 
Q 1906 3584 2284 3584 
Q 2666 3584 2933 3390 
Q 3200 3197 3328 2828 
z
" transform="scale(0.015625)"/>
       <path id="DejaVuSans-70" d="M 1159 525 
L 1159 -1331 
L 581 -1331 
L 581 3500 
L 1159 3500 
L 1159 2969 
Q 1341 3281 1617 3432 
Q 1894 3584 2278 3584 
Q 2916 3584 3314 3078 
Q 3713 2572 3713 1747 
Q 3713 922 3314 415 
Q 2916 -91 2278 -91 
Q 1894 -91 1617 61 
Q 1341 213 1159 525 
z
M 3116 1747 
Q 3116 2381 2855 2742 
Q 2594 3103 2138 3103 
Q 1681 3103 1420 2742 
Q 1159 2381 1159 1747 
Q 1159 1113 1420 752 
Q 1681 391 2138 391 
Q 2594 391 2855 752 
Q 3116 1113 3116 1747 
z
" transform="scale(0.015625)"/>
       <path id="DejaVuSans-72" d="M 2631 2963 
Q 2534 3019 2420 3045 
Q 2306 3072 2169 3072 
Q 1681 3072 1420 2755 
Q 1159 2438 1159 1844 
L 1159 0 
L 581 0 
L 581 3500 
L 1159 3500 
L 1159 2956 
Q 1341 3275 1631 3429 
Q 1922 3584 2338 3584 
Q 2397 3584 2469 3576 
Q 2541 3569 2628 3553 
L 2631 2963 
z
" transform="scale(0.015625)"/>
       <path id="DejaVuSans-61" d="M 2194 1759 
Q 1497 1759 1228 1600 
Q 959 1441 959 1056 
Q 959 750 1161 570 
Q 1363 391 1709 391 
Q 2188 391 2477 730 
Q 2766 1069 2766 1631 
L 2766 1759 
L 2194 1759 
z
M 3341 1997 
L 3341 0 
L 2766 0 
L 2766 531 
Q 2569 213 2275 61 
Q 1981 -91 1556 -91 
Q 1019 -91 701 211 
Q 384 513 384 1019 
Q 384 1609 779 1909 
Q 1175 2209 1959 2209 
L 2766 2209 
L 2766 2266 
Q 2766 2663 2505 2880 
Q 2244 3097 1772 3097 
Q 1472 3097 1187 3025 
Q 903 2953 641 2809 
L 641 3341 
Q 956 3463 1253 3523 
Q 1550 3584 1831 3584 
Q 2591 3584 2966 3190 
Q 3341 2797 3341 1997 
z
" transform="scale(0.015625)"/>
       <path id="DejaVuSans-74" d="M 1172 4494 
L 1172 3500 
L 2356 3500 
L 2356 3053 
L 1172 3053 
L 1172 1153 
Q 1172 725 1289 603 
Q 1406 481 1766 481 
L 2356 481 
L 2356 0 
L 1766 0 
Q 1100 0 847 248 
Q 594 497 594 1153 
L 594 3053 
L 172 3053 
L 172 3500 
L 594 3500 
L 594 4494 
L 1172 4494 
z
" transform="scale(0.015625)"/>
       <path id="DejaVuSans-75" d="M 544 1381 
L 544 3500 
L 1119 3500 
L 1119 1403 
Q 1119 906 1312 657 
Q 1506 409 1894 409 
Q 2359 409 2629 706 
Q 2900 1003 2900 1516 
L 2900 3500 
L 3475 3500 
L 3475 0 
L 2900 0 
L 2900 538 
Q 2691 219 2414 64 
Q 2138 -91 1772 -91 
Q 1169 -91 856 284 
Q 544 659 544 1381 
z
M 1991 3584 
L 1991 3584 
z
" transform="scale(0.015625)"/>
       <path id="DejaVuSans-20" transform="scale(0.015625)"/>
       <path id="DejaVuSans-5b" d="M 550 4863 
L 1875 4863 
L 1875 4416 
L 1125 4416 
L 1125 -397 
L 1875 -397 
L 1875 -844 
L 550 -844 
L 550 4863 
z
" transform="scale(0.015625)"/>
       <path id="DejaVuSans-b0" d="M 1600 4347 
Q 1350 4347 1178 4173 
Q 1006 4000 1006 3750 
Q 1006 3503 1178 3333 
Q 1350 3163 1600 3163 
Q 1850 3163 2022 3333 
Q 2194 3503 2194 3750 
Q 2194 3997 2020 4172 
Q 1847 4347 1600 4347 
z
M 1600 4750 
Q 1800 4750 1984 4673 
Q 2169 4597 2303 4453 
Q 2447 4313 2519 4134 
Q 2591 3956 2591 3750 
Q 2591 3338 2302 3052 
Q 2013 2766 1594 2766 
Q 1172 2766 890 3047 
Q 609 3328 609 3750 
Q 609 4169 896 4459 
Q 1184 4750 1600 4750 
z
" transform="scale(0.015625)"/>
       <path id="DejaVuSans-43" d="M 4122 4306 
L 4122 3641 
Q 3803 3938 3442 4084 
Q 3081 4231 2675 4231 
Q 1875 4231 1450 3742 
Q 1025 3253 1025 2328 
Q 1025 1406 1450 917 
Q 1875 428 2675 428 
Q 3081 428 3442 575 
Q 3803 722 4122 1019 
L 4122 359 
Q 3791 134 3420 21 
Q 3050 -91 2638 -91 
Q 1578 -91 968 557 
Q 359 1206 359 2328 
Q 359 3453 968 4101 
Q 1578 4750 2638 4750 
Q 3056 4750 3426 4639 
Q 3797 4528 4122 4306 
z
" transform="scale(0.015625)"/>
       <path id="DejaVuSans-5d" d="M 1947 4863 
L 1947 -844 
L 622 -844 
L 622 -397 
L 1369 -397 
L 1369 4416 
L 622 4416 
L 622 4863 
L 1947 4863 
z
" transform="scale(0.015625)"/>
      </defs>
      <use xlink:href="#DejaVuSans-54"/>
      <use xlink:href="#DejaVuSans-65" x="44.083984"/>
      <use xlink:href="#DejaVuSans-6d" x="105.607422"/>
      <use xlink:href="#DejaVuSans-70" x="203.019531"/>
      <use xlink:href="#DejaVuSans-65" x="266.496094"/>
      <use xlink:href="#DejaVuSans-72" x="328.019531"/>
      <use xlink:href="#DejaVuSans-61" x="369.132812"/>
      <use xlink:href="#DejaVuSans-74" x="430.412109"/>
      <use xlink:href="#DejaVuSans-75" x="469.621094"/>
      <use xlink:href="#DejaVuSans-72" x="533"/>
      <use xlink:href="#DejaVuSans-65" x="571.863281"/>
      <use xlink:href="#DejaVuSans-20" x="633.386719"/>
      <use xlink:href="#DejaVuSans-5b" x="665.173828"/>
      <use xlink:href="#DejaVuSans-b0" x="704.1875"/>
      <use xlink:href="#DejaVuSans-43" x="754.1875"/>
      <use xlink:href="#DejaVuSans-5d" x="824.011719"/>
     </g>
    </g>
   </g>
   <g id="line2d_25">
    <path d="M 51.05 104.053894 
L 51.869984 104.053894 
L 51.98748 102.620816 
L 53.393811 102.620816 
L 53.51064 101.187738 
L 54.096688 101.187738 
L 54.213793 99.75466 
L 55.151328 99.75466 
L 55.268993 101.187738 
L 56.323239 101.187738 
L 56.440809 102.620816 
L 61.245274 102.620816 
L 61.36279 101.187738 
L 64.526614 101.187738 
L 64.644117 99.75466 
L 66.870446 99.75466 
L 67.105652 98.321582 
L 67.925458 98.321582 
L 68.042344 96.888504 
L 69.449437 96.888504 
L 69.565929 98.321582 
L 71.206985 98.321582 
L 71.323717 99.75466 
L 71.558957 99.75466 
L 71.792485 101.187738 
L 76.597651 101.187738 
L 76.714512 99.75466 
L 77.886433 99.75466 
L 78.003989 98.321582 
L 83.511561 98.321582 
L 83.629028 96.888504 
L 85.035166 96.888504 
L 85.152243 95.455426 
L 86.324154 95.455426 
L 86.441795 94.022349 
L 86.910262 94.022349 
L 87.379102 92.589271 
L 87.49605 92.589271 
L 87.613525 94.022349 
L 88.551015 94.022349 
L 88.667967 95.455426 
L 88.785436 94.022349 
L 89.488497 94.022349 
L 89.605487 95.455426 
L 94.176071 95.455426 
L 94.2931 94.022349 
L 98.864102 94.022349 
L 98.980733 92.589271 
L 99.918263 92.589271 
L 100.036018 91.156193 
L 100.387793 91.156193 
L 100.504371 89.723115 
L 103.785887 89.723115 
L 103.902743 88.290037 
L 104.488961 88.290037 
L 104.605883 86.856959 
L 106.129623 86.856959 
L 106.246555 85.423881 
L 107.301529 85.423881 
L 107.418463 83.990803 
L 107.535954 83.990803 
L 107.652835 82.557726 
L 108.121602 82.557726 
L 108.239021 83.990803 
L 108.708052 83.990803 
L 108.824742 82.557726 
L 108.942189 82.557726 
L 109.059925 83.990803 
L 110.231032 83.990803 
L 110.348533 82.557726 
L 110.699798 82.557726 
L 110.817274 83.990803 
L 111.168567 83.990803 
L 111.404045 85.423881 
L 111.871702 85.423881 
L 111.989284 86.856959 
L 112.809249 86.856959 
L 112.926774 88.290037 
L 114.68428 88.290037 
L 114.801862 89.723115 
L 116.44243 89.723115 
L 116.559337 88.290037 
L 117.028096 88.290037 
L 117.145597 89.723115 
L 117.380018 89.723115 
L 117.496859 88.290037 
L 122.536121 88.290037 
L 122.653251 86.856959 
L 123.942658 86.856959 
L 124.059534 85.423881 
L 125.934589 85.423881 
L 126.052152 83.990803 
L 126.28648 83.990803 
L 126.403363 82.557726 
L 126.637745 82.557726 
L 126.872864 81.124648 
L 127.106503 81.124648 
L 127.224066 79.69157 
L 127.458394 79.69157 
L 127.575265 78.258492 
L 128.278405 78.258492 
L 128.395885 76.825414 
L 128.982375 76.825414 
L 129.215932 78.258492 
L 129.919074 78.258492 
L 130.036548 79.69157 
L 130.622216 79.69157 
L 130.739808 81.124648 
L 131.090993 81.124648 
L 131.325325 79.69157 
L 134.021027 79.69157 
L 134.137933 78.258492 
L 136.130547 78.258492 
L 136.247365 76.825414 
L 136.599296 76.825414 
L 136.716144 75.392336 
L 138.474381 75.392336 
L 138.591191 73.959258 
L 138.708704 75.392336 
L 139.411874 75.392336 
L 139.528721 73.959258 
L 139.6463 73.959258 
L 139.763112 75.392336 
L 139.880626 73.959258 
L 141.052536 73.959258 
L 141.169383 75.392336 
L 141.521182 75.392336 
L 141.638161 73.959258 
L 143.162132 73.959258 
L 143.278823 72.52618 
L 143.630877 72.52618 
L 143.74758 71.093103 
L 144.567877 71.093103 
L 144.685104 69.660025 
L 145.153875 69.660025 
L 145.271441 68.226947 
L 145.622621 68.226947 
L 145.857008 66.793869 
L 145.974609 66.793869 
L 146.091392 68.226947 
L 146.208932 66.793869 
L 146.560146 66.793869 
L 146.794543 68.226947 
L 147.028903 68.226947 
L 147.146332 66.793869 
L 149.138357 66.793869 
L 149.255938 65.360791 
L 149.724582 65.360791 
L 149.841492 63.927713 
L 150.662175 63.927713 
L 150.896594 62.494635 
L 151.950914 62.494635 
L 152.068515 63.927713 
L 152.419685 63.927713 
L 152.537259 65.360791 
L 152.771585 65.360791 
L 152.888442 66.793869 
L 153.122821 66.793869 
L 153.358072 68.226947 
L 153.47455 69.660025 
L 153.709181 69.660025 
L 153.825955 71.093103 
L 153.943507 71.093103 
L 154.177925 73.959258 
L 154.294725 73.959258 
L 154.412346 75.392336 
L 154.763495 75.392336 
L 154.881186 76.825414 
L 155.46748 76.825414 
L 155.935408 75.392336 
L 156.638543 75.392336 
L 156.756075 73.959258 
L 157.225013 73.959258 
L 157.341689 72.52618 
L 157.576059 72.52618 
L 157.810428 73.959258 
L 158.631157 73.959258 
L 158.747972 72.52618 
L 160.154254 72.52618 
L 160.271813 71.093103 
L 162.732447 71.093103 
L 162.849967 69.660025 
L 163.435585 69.660025 
L 163.55323 68.226947 
L 164.725139 68.226947 
L 164.841877 66.793869 
L 165.779397 66.793869 
L 165.896519 65.360791 
L 167.772139 65.360791 
L 167.888834 63.927713 
L 168.82737 63.927713 
L 168.94375 62.494635 
L 169.529507 62.494635 
L 169.647026 61.061557 
L 169.881447 61.061557 
L 169.998275 59.62848 
L 170.350193 59.62848 
L 170.467028 61.061557 
L 170.584612 61.061557 
L 170.701421 62.494635 
L 171.05297 62.494635 
L 171.170173 63.927713 
L 171.287784 62.494635 
L 171.404563 63.927713 
L 171.990862 63.927713 
L 172.810849 73.959258 
L 174.80334 73.959258 
L 174.920279 72.52618 
L 176.795321 72.52618 
L 176.912929 71.093103 
L 177.029702 71.093103 
L 177.147251 72.52618 
L 179.491081 72.52618 
L 179.607897 73.959258 
L 184.412974 73.959258 
L 184.529898 72.52618 
L 186.170569 72.52618 
L 186.405803 71.093103 
L 188.515305 71.093103 
L 188.866304 69.660025 
L 190.975515 69.660025 
L 191.210246 68.226947 
L 195.077032 68.226947 
L 195.311404 66.793869 
L 197.186465 66.793869 
L 197.421697 65.360791 
L 198.592758 65.360791 
L 198.710294 63.927713 
L 199.999042 63.927713 
L 200.116531 62.494635 
L 201.405325 62.494635 
L 201.522766 61.061557 
L 202.226126 61.061557 
L 202.34285 62.494635 
L 202.460263 62.494635 
L 202.577232 61.061557 
L 203.397854 61.061557 
L 203.514754 59.62848 
L 203.866601 59.62848 
L 203.984338 58.195402 
L 204.335347 58.195402 
L 204.452257 56.762324 
L 206.092937 56.762324 
L 206.327287 55.329246 
L 207.616945 55.329246 
L 207.733592 53.896168 
L 207.851179 53.896168 
L 207.967977 52.46309 
L 208.905497 52.46309 
L 209.02319 51.030012 
L 210.429134 51.030012 
L 210.546874 49.596934 
L 211.366722 49.596934 
L 211.483703 48.163857 
L 212.186836 48.163857 
L 212.304215 46.730779 
L 212.538631 46.730779 
L 212.655595 45.297701 
L 213.00726 45.297701 
L 213.124365 43.864623 
L 214.179291 43.864623 
L 214.413707 42.431545 
L 215.585623 42.431545 
L 215.702538 43.864623 
L 217.460591 43.864623 
L 217.577587 42.431545 
L 217.811961 42.431545 
L 217.929457 43.864623 
L 218.398207 43.864623 
L 218.515099 42.431545 
L 218.983865 42.431545 
L 219.101376 40.998467 
L 220.858917 40.998467 
L 220.976365 39.565389 
L 221.210786 39.565389 
L 221.327684 38.132311 
L 221.445195 39.565389 
L 221.913934 39.565389 
L 222.03082 40.998467 
L 222.382695 40.998467 
L 222.499572 42.431545 
L 222.617114 40.998467 
L 223.085778 40.998467 
L 223.202727 39.565389 
L 224.960856 39.565389 
L 225.077759 38.132311 
L 225.312138 38.132311 
L 225.429598 39.565389 
L 231.992326 39.565389 
L 232.10918 40.998467 
L 232.578998 40.998467 
L 232.812318 39.565389 
L 234.336242 39.565389 
L 234.452983 40.998467 
L 235.976619 40.998467 
L 236.093621 42.431545 
L 237.851785 42.431545 
L 237.968698 40.998467 
L 238.437449 40.998467 
L 238.554948 42.431545 
L 240.546856 42.431545 
L 240.664257 40.998467 
L 241.601535 40.998467 
L 241.718767 42.431545 
L 242.070496 42.431545 
L 242.187531 43.864623 
L 242.421908 43.864623 
L 242.539338 45.297701 
L 243.008004 45.297701 
L 243.125046 46.730779 
L 243.828196 46.730779 
L 243.945649 48.163857 
L 244.765719 48.163857 
L 244.883074 49.596934 
L 245.351913 49.596934 
L 245.468862 51.030012 
L 247.109521 51.030012 
L 247.227276 52.46309 
L 248.750194 52.46309 
L 248.867658 51.030012 
L 253.203418 51.030012 
L 253.320878 49.596934 
L 253.672174 49.596934 
L 253.789634 48.163857 
L 254.60969 48.163857 
L 254.844074 49.596934 
L 255.312847 49.596934 
L 255.430298 48.163857 
L 257.891035 48.163857 
L 258.008551 49.596934 
L 260.469227 49.596934 
L 260.586709 48.163857 
L 263.750553 48.163857 
L 263.868037 49.596934 
L 264.336794 49.596934 
L 264.453693 51.030012 
L 265.274361 51.030012 
L 265.391207 49.596934 
L 268.438147 49.596934 
L 268.555575 51.030012 
L 269.61005 51.030012 
L 269.72749 52.46309 
L 273.828917 52.46309 
L 273.94631 53.896168 
L 276.641483 53.896168 
L 276.875828 55.329246 
L 279.21968 55.329246 
L 279.33711 56.762324 
L 280.860357 56.762324 
L 280.977983 55.329246 
L 282.032268 55.329246 
L 282.149613 56.762324 
L 284.259209 56.762324 
L 284.37607 58.195402 
L 284.610454 58.195402 
L 284.727956 59.62848 
L 286.837641 59.62848 
L 286.954251 61.061557 
L 287.306101 61.061557 
L 287.423012 62.494635 
L 288.126166 62.494635 
L 288.243596 61.061557 
L 288.478018 61.061557 
L 288.594921 62.494635 
L 288.829319 62.494635 
L 288.946767 63.927713 
L 289.532444 63.927713 
L 289.649838 65.360791 
L 290.001903 65.360791 
L 290.118377 66.793869 
L 290.704364 66.793869 
L 290.82175 68.226947 
L 291.056164 68.226947 
L 291.173124 69.660025 
L 291.75933 69.660025 
L 291.87625 71.093103 
L 292.110644 71.093103 
L 292.345031 72.52618 
L 292.462402 73.959258 
L 292.697012 73.959258 
L 292.813788 75.392336 
L 293.165663 75.392336 
L 293.282535 76.825414 
L 293.516926 76.825414 
L 293.634601 78.258492 
L 293.985685 78.258492 
L 294.103247 79.69157 
L 294.220067 79.69157 
L 294.455412 81.124648 
L 295.626362 81.124648 
L 295.743802 82.557726 
L 296.21245 82.557726 
L 296.329507 83.990803 
L 296.798271 83.990803 
L 296.915708 85.423881 
L 297.501409 85.423881 
L 297.619059 86.856959 
L 297.970163 86.856959 
L 298.087622 88.290037 
L 298.438929 88.290037 
L 298.556366 89.723115 
L 298.673314 88.290037 
L 298.908526 89.723115 
L 301.018107 89.723115 
L 301.251511 88.290037 
L 301.603257 88.290037 
L 301.720278 86.856959 
L 303.126576 86.856959 
L 303.362032 85.423881 
L 303.829714 85.423881 
L 303.947082 83.990803 
L 304.181496 83.990803 
L 304.29847 82.557726 
L 304.532864 82.557726 
L 304.650526 81.124648 
L 304.767234 81.124648 
L 304.884851 79.69157 
L 305.822427 79.69157 
L 305.939142 78.258492 
L 307.111053 78.258492 
L 307.228583 76.825414 
L 307.579815 76.825414 
L 307.814192 78.258492 
L 308.166179 78.258492 
L 308.282958 79.69157 
L 308.751722 79.69157 
L 308.869244 81.124648 
L 310.275576 81.124648 
L 310.392383 82.557726 
L 312.736203 82.557726 
L 312.853814 81.124648 
L 314.142497 81.124648 
L 314.377789 79.69157 
L 315.54878 79.69157 
L 315.666386 81.124648 
L 316.838205 81.124648 
L 316.955076 82.557726 
L 318.12697 82.557726 
L 318.244359 83.990803 
L 318.36135 82.557726 
L 318.830057 82.557726 
L 318.947507 81.124648 
L 320.354047 81.124648 
L 320.470783 82.557726 
L 320.58847 81.124648 
L 323.400834 81.124648 
L 323.517737 79.69157 
L 323.869788 79.69157 
L 323.9865 78.258492 
L 324.104206 79.69157 
L 324.455266 79.69157 
L 324.572669 81.124648 
L 324.924024 81.124648 
L 325.041598 82.557726 
L 325.510049 82.557726 
L 325.627176 83.990803 
L 326.330316 83.990803 
L 326.447849 82.557726 
L 326.916683 82.557726 
L 327.033467 83.990803 
L 327.854168 83.990803 
L 327.970984 82.557726 
L 328.088501 82.557726 
L 328.205368 81.124648 
L 330.08041 81.124648 
L 330.198011 82.557726 
L 330.432424 82.557726 
L 330.549188 83.990803 
L 330.901268 83.990803 
L 331.017944 85.423881 
L 332.072592 85.423881 
L 332.189857 86.856959 
L 332.893011 86.856959 
L 333.01058 88.290037 
L 334.064905 88.290037 
L 334.299262 89.723115 
L 335.588547 89.723115 
L 335.705569 91.156193 
L 338.28377 91.156193 
L 338.401212 89.723115 
L 339.573314 89.723115 
L 339.690056 88.290037 
L 341.213724 88.290037 
L 341.448215 86.856959 
L 343.205783 86.856959 
L 343.323379 85.423881 
L 343.674549 85.423881 
L 343.79205 86.856959 
L 344.26079 86.856959 
L 344.377693 85.423881 
L 345.432594 85.423881 
L 345.549605 83.990803 
L 346.252743 83.990803 
L 346.487127 82.557726 
L 347.307884 82.557726 
L 347.425437 81.124648 
L 349.534092 81.124648 
L 349.768465 79.69157 
L 350.940365 79.69157 
L 351.057849 78.258492 
L 352.581022 78.258492 
L 352.815409 81.124648 
L 352.933032 81.124648 
L 353.049791 82.557726 
L 353.988169 82.557726 
L 354.221701 83.990803 
L 355.042541 83.990803 
L 355.159225 82.557726 
L 355.979852 82.557726 
L 356.096757 81.124648 
L 356.799902 81.124648 
L 356.917436 79.69157 
L 357.386279 79.69157 
L 357.503047 78.258492 
L 359.964432 78.258492 
L 360.081243 76.825414 
L 360.901816 76.825414 
L 361.018765 75.392336 
L 361.370585 75.392336 
L 361.487534 73.959258 
L 365.589593 73.959258 
L 365.706403 72.52618 
L 367.69901 72.52618 
L 367.815825 73.959258 
L 368.51896 73.959258 
L 368.636501 75.392336 
L 369.925248 75.392336 
L 370.042847 76.825414 
L 370.394014 76.825414 
L 370.511586 78.258492 
L 371.565928 78.258492 
L 371.800261 76.825414 
L 372.620904 76.825414 
L 372.737834 75.392336 
L 372.972214 75.392336 
L 373.089744 73.959258 
L 373.324158 73.959258 
L 373.440975 75.392336 
L 373.792909 75.392336 
L 373.910651 73.959258 
L 374.378509 73.959258 
L 374.495975 72.52618 
L 377.659838 72.52618 
L 377.777292 73.959258 
L 378.48025 73.959258 
L 378.714878 76.825414 
L 378.831737 76.825414 
L 378.949201 78.258492 
L 379.066119 78.258492 
L 379.183718 79.69157 
L 379.53489 79.69157 
L 379.652467 81.124648 
L 380.47318 81.124648 
L 380.706795 79.69157 
L 381.058612 79.69157 
L 381.176349 81.124648 
L 381.76187 81.124648 
L 381.879509 79.69157 
L 382.582428 79.69157 
L 382.817003 78.258492 
L 383.285746 78.258492 
L 383.402528 76.825414 
L 384.574359 76.825414 
L 384.691274 78.258492 
L 385.629667 78.258492 
L 385.863995 76.825414 
L 387.269451 76.825414 
L 387.738833 75.392336 
L 387.972609 76.825414 
L 388.910618 76.825414 
L 389.144513 75.392336 
L 390.785196 75.392336 
L 391.254723 73.959258 
L 391.95753 73.959258 
L 392.191475 75.392336 
L 392.660242 76.825414 
L 392.894616 76.825414 
L 393.012063 75.392336 
L 393.129003 75.392336 
L 393.597752 76.825414 
L 394.3009 78.258492 
L 394.652634 78.258492 
L 394.887324 79.69157 
L 395.239402 79.69157 
L 395.47281 81.124648 
L 396.41034 81.124648 
L 396.527912 82.557726 
L 396.879106 82.557726 
L 396.996754 83.990803 
L 398.989471 83.990803 
L 399.222918 85.423881 
L 400.629217 85.423881 
L 400.864282 86.856959 
L 400.981346 86.856959 
L 401.097968 88.290037 
L 401.332357 88.290037 
L 401.449998 89.723115 
L 401.566744 89.723115 
L 401.683945 91.156193 
L 401.802064 91.156193 
L 402.035515 92.589271 
L 402.153165 92.589271 
L 402.270805 94.022349 
L 402.505234 94.022349 
L 402.738649 95.455426 
L 404.496911 95.455426 
L 404.614138 96.888504 
L 405.08247 99.75466 
L 405.199988 99.75466 
L 405.316846 101.187738 
L 405.434262 101.187738 
L 405.551216 102.620816 
L 405.785615 102.620816 
L 405.90306 101.187738 
L 406.60623 101.187738 
L 406.723123 99.75466 
L 408.012567 99.75466 
L 408.129433 101.187738 
L 408.246798 101.187738 
L 408.363816 102.620816 
L 408.715827 102.620816 
L 408.832579 104.053894 
L 408.950344 104.053894 
L 409.302024 106.920049 
L 410.004495 106.920049 
L 410.121974 108.353127 
L 411.17641 108.353127 
L 411.41172 109.786205 
L 411.645172 109.786205 
L 411.762729 111.219283 
L 412.231569 111.219283 
L 412.348305 112.652361 
L 412.46599 111.219283 
L 412.934746 111.219283 
L 413.051459 112.652361 
L 413.168969 112.652361 
L 413.285838 114.085439 
L 413.403393 114.085439 
L 413.754583 112.652361 
L 413.871947 111.219283 
L 414.106558 111.219283 
L 414.223363 112.652361 
L 414.575506 112.652361 
L 414.692134 114.085439 
L 415.160896 114.085439 
L 415.278572 115.518517 
L 415.629659 115.518517 
L 415.864866 116.951595 
L 416.567182 116.951595 
L 416.68481 118.384672 
L 417.035946 118.384672 
L 417.153652 119.81775 
L 417.270333 119.81775 
L 417.387975 121.250828 
L 417.622304 121.250828 
L 417.739101 122.683906 
L 418.207875 122.683906 
L 418.325367 124.116984 
L 418.676634 124.116984 
L 418.794216 122.683906 
L 419.028642 122.683906 
L 419.145415 121.250828 
L 419.731612 121.250828 
L 419.848551 122.683906 
L 420.082936 122.683906 
L 420.318196 121.250828 
L 421.020466 121.250828 
L 421.137945 122.683906 
L 421.489228 122.683906 
L 421.606694 124.116984 
L 422.075438 124.116984 
L 422.192378 125.550062 
L 422.661144 125.550062 
L 422.778607 124.116984 
L 424.536197 124.116984 
L 424.771335 122.683906 
L 425.004963 122.683906 
L 425.12245 124.116984 
L 426.294637 124.116984 
L 426.411256 125.550062 
L 428.638275 125.550062 
L 428.755082 124.116984 
L 430.395756 124.116984 
L 430.51336 125.550062 
L 430.630145 124.116984 
L 431.21643 124.116984 
L 431.450462 122.683906 
L 432.037114 122.683906 
L 432.153927 124.116984 
L 432.973966 124.116984 
L 433.091518 122.683906 
L 433.20835 122.683906 
L 433.443486 119.81775 
L 433.677111 118.384672 
L 433.794495 116.951595 
L 433.911491 116.951595 
L 434.028823 115.518517 
L 434.614657 115.518517 
L 434.732178 116.951595 
L 435.43506 116.951595 
L 435.552179 115.518517 
L 435.903806 114.085439 
L 436.020931 112.652361 
L 436.489709 109.786205 
L 436.607171 109.786205 
L 436.724086 108.353127 
L 436.841592 108.353127 
L 436.95847 109.786205 
L 437.896819 109.786205 
L 438.130374 111.219283 
L 438.364755 114.085439 
L 438.59914 114.085439 
L 438.71658 115.518517 
L 439.536654 115.518517 
L 439.654175 114.085439 
L 439.771049 114.085439 
L 440.005421 111.219283 
L 440.474186 111.219283 
L 440.591768 109.786205 
L 440.825996 109.786205 
L 440.942952 108.353127 
L 441.060419 108.353127 
L 441.294839 105.486972 
L 441.529258 105.486972 
L 441.646109 104.053894 
L 441.880486 104.053894 
L 442.114863 102.620816 
L 442.232425 102.620816 
L 442.350072 101.187738 
L 442.583634 101.187738 
L 442.701084 102.620816 
L 442.818006 102.620816 
L 442.935507 101.187738 
L 443.28677 101.187738 
L 443.404346 99.75466 
L 443.638576 99.75466 
L 443.755526 101.187738 
L 445.045008 101.187738 
L 445.161828 99.75466 
L 445.279238 99.75466 
L 445.396209 101.187738 
L 445.748082 101.187738 
L 445.864977 102.620816 
L 446.099349 102.620816 
L 446.333735 101.187738 
L 446.568109 101.187738 
L 446.803313 102.620816 
L 447.857589 102.620816 
L 447.974413 104.053894 
L 448.912806 104.053894 
L 449.263812 105.486972 
L 449.615075 105.486972 
L 449.732563 104.053894 
L 450.201403 104.053894 
L 450.318215 105.486972 
L 451.021366 105.486972 
L 451.256437 106.920049 
L 453.130799 106.920049 
L 453.365944 108.353127 
L 455.709767 108.353127 
L 456.060876 109.786205 
L 456.646524 109.786205 
L 456.764042 111.219283 
L 457.11529 111.219283 
L 457.23279 112.652361 
L 457.349669 112.652361 
L 457.467113 114.085439 
L 457.584753 114.085439 
L 457.701441 115.518517 
L 458.639035 115.518517 
L 458.755952 114.085439 
L 458.99108 114.085439 
L 459.225603 115.518517 
L 459.576522 115.518517 
L 459.693483 116.951595 
L 459.810847 116.951595 
L 459.927867 118.384672 
L 460.396626 118.384672 
L 460.631007 116.951595 
L 460.748533 116.951595 
L 460.865394 118.384672 
L 461.099793 118.384672 
L 461.217281 119.81775 
L 462.506072 119.81775 
L 462.740463 122.683906 
L 462.974837 124.116984 
L 463.092171 125.550062 
L 463.209213 125.550062 
L 463.443597 126.98314 
L 463.56111 128.416217 
L 463.677984 128.416217 
L 463.912363 129.849295 
L 464.146759 129.849295 
L 464.264178 131.282373 
L 464.382008 131.282373 
L 464.615528 132.715451 
L 464.967374 132.715451 
L 465.08427 134.148529 
L 465.553033 134.148529 
L 465.670417 135.581607 
L 466.256189 135.581607 
L 466.37368 137.014685 
L 466.72575 137.014685 
L 466.842231 138.447763 
L 466.959329 138.447763 
L 467.076754 137.014685 
L 467.193715 137.014685 
L 467.428099 135.581607 
L 467.897597 135.581607 
L 468.014346 137.014685 
L 468.131249 137.014685 
L 468.248667 138.447763 
L 468.600012 138.447763 
L 468.717508 139.88084 
L 469.186347 139.88084 
L 469.303169 141.313918 
L 469.88943 141.313918 
L 470.006313 142.746996 
L 470.475075 142.746996 
L 470.592596 144.180074 
L 470.943846 144.180074 
L 471.178987 145.613152 
L 471.29557 147.04623 
L 471.530006 147.04623 
L 471.646998 148.479308 
L 471.881383 148.479308 
L 471.999028 149.912386 
L 472.350144 149.912386 
L 472.467708 151.345463 
L 472.81891 151.345463 
L 472.936516 149.912386 
L 473.053292 149.912386 
L 473.288572 151.345463 
L 475.632145 151.345463 
L 475.748889 152.778541 
L 476.21764 152.778541 
L 476.33466 151.345463 
L 476.686479 151.345463 
L 476.803418 149.912386 
L 476.920807 149.912386 
L 477.0378 148.479308 
L 477.155225 148.479308 
L 477.273048 147.04623 
L 477.506573 147.04623 
L 477.624355 145.613152 
L 477.741799 145.613152 
L 477.858102 144.180074 
L 478.092816 144.180074 
L 478.209713 142.746996 
L 478.795988 142.746996 
L 478.912876 144.180074 
L 479.147257 144.180074 
L 479.26471 145.613152 
L 479.382367 145.613152 
L 479.499048 147.04623 
L 479.61673 147.04623 
L 479.733396 148.479308 
L 480.084759 148.479308 
L 480.319658 149.912386 
L 480.436592 149.912386 
L 480.554189 151.345463 
L 481.608643 151.345463 
L 481.726237 152.778541 
L 481.959857 152.778541 
L 481.959857 152.778541 
" clip-path="url(#pef66d93422)" style="fill: none; stroke: #1f77b4; stroke-width: 1.5; stroke-linecap: square"/>
   </g>
   <g id="patch_3">
    <path d="M 51.05 158.510853 
L 51.05 32.4 
" style="fill: none; stroke: #000000; stroke-width: 0.8; stroke-linejoin: miter; stroke-linecap: square"/>
   </g>
   <g id="patch_4">
    <path d="M 481.959857 158.510853 
L 481.959857 32.4 
" style="fill: none; stroke: #000000; stroke-width: 0.8; stroke-linejoin: miter; stroke-linecap: square"/>
   </g>
   <g id="patch_5">
    <path d="M 51.05 158.510853 
L 481.959857 158.510853 
" style="fill: none; stroke: #000000; stroke-width: 0.8; stroke-linejoin: miter; stroke-linecap: square"/>
   </g>
   <g id="patch_6">
    <path d="M 51.05 32.4 
L 481.959857 32.4 
" style="fill: none; stroke: #000000; stroke-width: 0.8; stroke-linejoin: miter; stroke-linecap: square"/>
   </g>
  </g>
  <g id="axes_2">
   <g id="patch_7">
    <path d="M 51.05 302.881706 
L 481.959857 302.881706 
L 481.959857 176.770853 
L 51.05 176.770853 
z
" style="fill: #ffffff"/>
   </g>
   <g id="matplotlib.axis_3">
    <g id="xtick_9">
     <g id="line2d_26">
      <path d="M 103.723869 302.881706 
L 103.723869 176.770853 
" clip-path="url(#p305d5cc1ec)" style="fill: none; stroke: #b0b0b0; stroke-width: 0.8; stroke-linecap: square"/>
     </g>
     <g id="line2d_27">
      <g>
       <use xlink:href="#mc69059b9a8" x="103.723869" y="302.881706" style="stroke: #000000; stroke-width: 0.8"/>
      </g>
     </g>
    </g>
    <g id="xtick_10">
     <g id="line2d_28">
      <path d="M 156.45997 302.881706 
L 156.45997 176.770853 
" clip-path="url(#p305d5cc1ec)" style="fill: none; stroke: #b0b0b0; stroke-width: 0.8; stroke-linecap: square"/>
     </g>
     <g id="line2d_29">
      <g>
       <use xlink:href="#mc69059b9a8" x="156.45997" y="302.881706" style="stroke: #000000; stroke-width: 0.8"/>
      </g>
     </g>
    </g>
    <g id="xtick_11">
     <g id="line2d_30">
      <path d="M 209.196071 302.881706 
L 209.196071 176.770853 
" clip-path="url(#p305d5cc1ec)" style="fill: none; stroke: #b0b0b0; stroke-width: 0.8; stroke-linecap: square"/>
     </g>
     <g id="line2d_31">
      <g>
       <use xlink:href="#mc69059b9a8" x="209.196071" y="302.881706" style="stroke: #000000; stroke-width: 0.8"/>
      </g>
     </g>
    </g>
    <g id="xtick_12">
     <g id="line2d_32">
      <path d="M 261.932171 302.881706 
L 261.932171 176.770853 
" clip-path="url(#p305d5cc1ec)" style="fill: none; stroke: #b0b0b0; stroke-width: 0.8; stroke-linecap: square"/>
     </g>
     <g id="line2d_33">
      <g>
       <use xlink:href="#mc69059b9a8" x="261.932171" y="302.881706" style="stroke: #000000; stroke-width: 0.8"/>
      </g>
     </g>
    </g>
    <g id="xtick_13">
     <g id="line2d_34">
      <path d="M 314.668272 302.881706 
L 314.668272 176.770853 
" clip-path="url(#p305d5cc1ec)" style="fill: none; stroke: #b0b0b0; stroke-width: 0.8; stroke-linecap: square"/>
     </g>
     <g id="line2d_35">
      <g>
       <use xlink:href="#mc69059b9a8" x="314.668272" y="302.881706" style="stroke: #000000; stroke-width: 0.8"/>
      </g>
     </g>
    </g>
    <g id="xtick_14">
     <g id="line2d_36">
      <path d="M 367.404373 302.881706 
L 367.404373 176.770853 
" clip-path="url(#p305d5cc1ec)" style="fill: none; stroke: #b0b0b0; stroke-width: 0.8; stroke-linecap: square"/>
     </g>
     <g id="line2d_37">
      <g>
       <use xlink:href="#mc69059b9a8" x="367.404373" y="302.881706" style="stroke: #000000; stroke-width: 0.8"/>
      </g>
     </g>
    </g>
    <g id="xtick_15">
     <g id="line2d_38">
      <path d="M 420.140474 302.881706 
L 420.140474 176.770853 
" clip-path="url(#p305d5cc1ec)" style="fill: none; stroke: #b0b0b0; stroke-width: 0.8; stroke-linecap: square"/>
     </g>
     <g id="line2d_39">
      <g>
       <use xlink:href="#mc69059b9a8" x="420.140474" y="302.881706" style="stroke: #000000; stroke-width: 0.8"/>
      </g>
     </g>
    </g>
    <g id="xtick_16">
     <g id="line2d_40">
      <path d="M 472.876575 302.881706 
L 472.876575 176.770853 
" clip-path="url(#p305d5cc1ec)" style="fill: none; stroke: #b0b0b0; stroke-width: 0.8; stroke-linecap: square"/>
     </g>
     <g id="line2d_41">
      <g>
       <use xlink:href="#mc69059b9a8" x="472.876575" y="302.881706" style="stroke: #000000; stroke-width: 0.8"/>
      </g>
     </g>
    </g>
   </g>
   <g id="matplotlib.axis_4">
    <g id="ytick_5">
     <g id="line2d_42">
      <path d="M 51.05 302.881706 
L 481.959857 302.881706 
" clip-path="url(#p305d5cc1ec)" style="fill: none; stroke: #b0b0b0; stroke-width: 0.8; stroke-linecap: square"/>
     </g>
     <g id="line2d_43">
      <g>
       <use xlink:href="#mcd1242f9e0" x="51.05" y="302.881706" style="stroke: #000000; stroke-width: 0.8"/>
      </g>
     </g>
     <g id="text_6">
      <!-- 0 -->
      <g transform="translate(37.6875 306.680924) scale(0.1 -0.1)">
       <use xlink:href="#DejaVuSans-30"/>
      </g>
     </g>
    </g>
    <g id="ytick_6">
     <g id="line2d_44">
      <path d="M 51.05 277.659535 
L 481.959857 277.659535 
" clip-path="url(#p305d5cc1ec)" style="fill: none; stroke: #b0b0b0; stroke-width: 0.8; stroke-linecap: square"/>
     </g>
     <g id="line2d_45">
      <g>
       <use xlink:href="#mcd1242f9e0" x="51.05" y="277.659535" style="stroke: #000000; stroke-width: 0.8"/>
      </g>
     </g>
     <g id="text_7">
      <!-- 20 -->
      <g transform="translate(31.325 281.458754) scale(0.1 -0.1)">
       <use xlink:href="#DejaVuSans-32"/>
       <use xlink:href="#DejaVuSans-30" x="63.623047"/>
      </g>
     </g>
    </g>
    <g id="ytick_7">
     <g id="line2d_46">
      <path d="M 51.05 252.437365 
L 481.959857 252.437365 
" clip-path="url(#p305d5cc1ec)" style="fill: none; stroke: #b0b0b0; stroke-width: 0.8; stroke-linecap: square"/>
     </g>
     <g id="line2d_47">
      <g>
       <use xlink:href="#mcd1242f9e0" x="51.05" y="252.437365" style="stroke: #000000; stroke-width: 0.8"/>
      </g>
     </g>
     <g id="text_8">
      <!-- 40 -->
      <g transform="translate(31.325 256.236583) scale(0.1 -0.1)">
       <use xlink:href="#DejaVuSans-34"/>
       <use xlink:href="#DejaVuSans-30" x="63.623047"/>
      </g>
     </g>
    </g>
    <g id="ytick_8">
     <g id="line2d_48">
      <path d="M 51.05 227.215194 
L 481.959857 227.215194 
" clip-path="url(#p305d5cc1ec)" style="fill: none; stroke: #b0b0b0; stroke-width: 0.8; stroke-linecap: square"/>
     </g>
     <g id="line2d_49">
      <g>
       <use xlink:href="#mcd1242f9e0" x="51.05" y="227.215194" style="stroke: #000000; stroke-width: 0.8"/>
      </g>
     </g>
     <g id="text_9">
      <!-- 60 -->
      <g transform="translate(31.325 231.014413) scale(0.1 -0.1)">
       <defs>
        <path id="DejaVuSans-36" d="M 2113 2584 
Q 1688 2584 1439 2293 
Q 1191 2003 1191 1497 
Q 1191 994 1439 701 
Q 1688 409 2113 409 
Q 2538 409 2786 701 
Q 3034 994 3034 1497 
Q 3034 2003 2786 2293 
Q 2538 2584 2113 2584 
z
M 3366 4563 
L 3366 3988 
Q 3128 4100 2886 4159 
Q 2644 4219 2406 4219 
Q 1781 4219 1451 3797 
Q 1122 3375 1075 2522 
Q 1259 2794 1537 2939 
Q 1816 3084 2150 3084 
Q 2853 3084 3261 2657 
Q 3669 2231 3669 1497 
Q 3669 778 3244 343 
Q 2819 -91 2113 -91 
Q 1303 -91 875 529 
Q 447 1150 447 2328 
Q 447 3434 972 4092 
Q 1497 4750 2381 4750 
Q 2619 4750 2861 4703 
Q 3103 4656 3366 4563 
z
" transform="scale(0.015625)"/>
       </defs>
       <use xlink:href="#DejaVuSans-36"/>
       <use xlink:href="#DejaVuSans-30" x="63.623047"/>
      </g>
     </g>
    </g>
    <g id="ytick_9">
     <g id="line2d_50">
      <path d="M 51.05 201.993023 
L 481.959857 201.993023 
" clip-path="url(#p305d5cc1ec)" style="fill: none; stroke: #b0b0b0; stroke-width: 0.8; stroke-linecap: square"/>
     </g>
     <g id="line2d_51">
      <g>
       <use xlink:href="#mcd1242f9e0" x="51.05" y="201.993023" style="stroke: #000000; stroke-width: 0.8"/>
      </g>
     </g>
     <g id="text_10">
      <!-- 80 -->
      <g transform="translate(31.325 205.792242) scale(0.1 -0.1)">
       <defs>
        <path id="DejaVuSans-38" d="M 2034 2216 
Q 1584 2216 1326 1975 
Q 1069 1734 1069 1313 
Q 1069 891 1326 650 
Q 1584 409 2034 409 
Q 2484 409 2743 651 
Q 3003 894 3003 1313 
Q 3003 1734 2745 1975 
Q 2488 2216 2034 2216 
z
M 1403 2484 
Q 997 2584 770 2862 
Q 544 3141 544 3541 
Q 544 4100 942 4425 
Q 1341 4750 2034 4750 
Q 2731 4750 3128 4425 
Q 3525 4100 3525 3541 
Q 3525 3141 3298 2862 
Q 3072 2584 2669 2484 
Q 3125 2378 3379 2068 
Q 3634 1759 3634 1313 
Q 3634 634 3220 271 
Q 2806 -91 2034 -91 
Q 1263 -91 848 271 
Q 434 634 434 1313 
Q 434 1759 690 2068 
Q 947 2378 1403 2484 
z
M 1172 3481 
Q 1172 3119 1398 2916 
Q 1625 2713 2034 2713 
Q 2441 2713 2670 2916 
Q 2900 3119 2900 3481 
Q 2900 3844 2670 4047 
Q 2441 4250 2034 4250 
Q 1625 4250 1398 4047 
Q 1172 3844 1172 3481 
z
" transform="scale(0.015625)"/>
       </defs>
       <use xlink:href="#DejaVuSans-38"/>
       <use xlink:href="#DejaVuSans-30" x="63.623047"/>
      </g>
     </g>
    </g>
    <g id="ytick_10">
     <g id="line2d_52">
      <path d="M 51.05 176.770853 
L 481.959857 176.770853 
" clip-path="url(#p305d5cc1ec)" style="fill: none; stroke: #b0b0b0; stroke-width: 0.8; stroke-linecap: square"/>
     </g>
     <g id="line2d_53">
      <g>
       <use xlink:href="#mcd1242f9e0" x="51.05" y="176.770853" style="stroke: #000000; stroke-width: 0.8"/>
      </g>
     </g>
     <g id="text_11">
      <!-- 100 -->
      <g transform="translate(24.9625 180.570072) scale(0.1 -0.1)">
       <defs>
        <path id="DejaVuSans-31" d="M 794 531 
L 1825 531 
L 1825 4091 
L 703 3866 
L 703 4441 
L 1819 4666 
L 2450 4666 
L 2450 531 
L 3481 531 
L 3481 0 
L 794 0 
L 794 531 
z
" transform="scale(0.015625)"/>
       </defs>
       <use xlink:href="#DejaVuSans-31"/>
       <use xlink:href="#DejaVuSans-30" x="63.623047"/>
       <use xlink:href="#DejaVuSans-30" x="127.246094"/>
      </g>
     </g>
    </g>
    <g id="text_12">
     <!-- Humidity [%RH] -->
     <g transform="translate(18.882813 279.973154) rotate(-90) scale(0.1 -0.1)">
      <defs>
       <path id="DejaVuSans-48" d="M 628 4666 
L 1259 4666 
L 1259 2753 
L 3553 2753 
L 3553 4666 
L 4184 4666 
L 4184 0 
L 3553 0 
L 3553 2222 
L 1259 2222 
L 1259 0 
L 628 0 
L 628 4666 
z
" transform="scale(0.015625)"/>
       <path id="DejaVuSans-69" d="M 603 3500 
L 1178 3500 
L 1178 0 
L 603 0 
L 603 3500 
z
M 603 4863 
L 1178 4863 
L 1178 4134 
L 603 4134 
L 603 4863 
z
" transform="scale(0.015625)"/>
       <path id="DejaVuSans-64" d="M 2906 2969 
L 2906 4863 
L 3481 4863 
L 3481 0 
L 2906 0 
L 2906 525 
Q 2725 213 2448 61 
Q 2172 -91 1784 -91 
Q 1150 -91 751 415 
Q 353 922 353 1747 
Q 353 2572 751 3078 
Q 1150 3584 1784 3584 
Q 2172 3584 2448 3432 
Q 2725 3281 2906 2969 
z
M 947 1747 
Q 947 1113 1208 752 
Q 1469 391 1925 391 
Q 2381 391 2643 752 
Q 2906 1113 2906 1747 
Q 2906 2381 2643 2742 
Q 2381 3103 1925 3103 
Q 1469 3103 1208 2742 
Q 947 2381 947 1747 
z
" transform="scale(0.015625)"/>
       <path id="DejaVuSans-79" d="M 2059 -325 
Q 1816 -950 1584 -1140 
Q 1353 -1331 966 -1331 
L 506 -1331 
L 506 -850 
L 844 -850 
Q 1081 -850 1212 -737 
Q 1344 -625 1503 -206 
L 1606 56 
L 191 3500 
L 800 3500 
L 1894 763 
L 2988 3500 
L 3597 3500 
L 2059 -325 
z
" transform="scale(0.015625)"/>
       <path id="DejaVuSans-25" d="M 4653 2053 
Q 4381 2053 4226 1822 
Q 4072 1591 4072 1178 
Q 4072 772 4226 539 
Q 4381 306 4653 306 
Q 4919 306 5073 539 
Q 5228 772 5228 1178 
Q 5228 1588 5073 1820 
Q 4919 2053 4653 2053 
z
M 4653 2450 
Q 5147 2450 5437 2106 
Q 5728 1763 5728 1178 
Q 5728 594 5436 251 
Q 5144 -91 4653 -91 
Q 4153 -91 3862 251 
Q 3572 594 3572 1178 
Q 3572 1766 3864 2108 
Q 4156 2450 4653 2450 
z
M 1428 4353 
Q 1159 4353 1004 4120 
Q 850 3888 850 3481 
Q 850 3069 1003 2837 
Q 1156 2606 1428 2606 
Q 1700 2606 1854 2837 
Q 2009 3069 2009 3481 
Q 2009 3884 1853 4118 
Q 1697 4353 1428 4353 
z
M 4250 4750 
L 4750 4750 
L 1831 -91 
L 1331 -91 
L 4250 4750 
z
M 1428 4750 
Q 1922 4750 2215 4408 
Q 2509 4066 2509 3481 
Q 2509 2891 2217 2550 
Q 1925 2209 1428 2209 
Q 931 2209 642 2551 
Q 353 2894 353 3481 
Q 353 4063 643 4406 
Q 934 4750 1428 4750 
z
" transform="scale(0.015625)"/>
       <path id="DejaVuSans-52" d="M 2841 2188 
Q 3044 2119 3236 1894 
Q 3428 1669 3622 1275 
L 4263 0 
L 3584 0 
L 2988 1197 
Q 2756 1666 2539 1819 
Q 2322 1972 1947 1972 
L 1259 1972 
L 1259 0 
L 628 0 
L 628 4666 
L 2053 4666 
Q 2853 4666 3247 4331 
Q 3641 3997 3641 3322 
Q 3641 2881 3436 2590 
Q 3231 2300 2841 2188 
z
M 1259 4147 
L 1259 2491 
L 2053 2491 
Q 2509 2491 2742 2702 
Q 2975 2913 2975 3322 
Q 2975 3731 2742 3939 
Q 2509 4147 2053 4147 
L 1259 4147 
z
" transform="scale(0.015625)"/>
      </defs>
      <use xlink:href="#DejaVuSans-48"/>
      <use xlink:href="#DejaVuSans-75" x="75.195312"/>
      <use xlink:href="#DejaVuSans-6d" x="138.574219"/>
      <use xlink:href="#DejaVuSans-69" x="235.986328"/>
      <use xlink:href="#DejaVuSans-64" x="263.769531"/>
      <use xlink:href="#DejaVuSans-69" x="327.246094"/>
      <use xlink:href="#DejaVuSans-74" x="355.029297"/>
      <use xlink:href="#DejaVuSans-79" x="394.238281"/>
      <use xlink:href="#DejaVuSans-20" x="453.417969"/>
      <use xlink:href="#DejaVuSans-5b" x="485.205078"/>
      <use xlink:href="#DejaVuSans-25" x="524.21875"/>
      <use xlink:href="#DejaVuSans-52" x="619.238281"/>
      <use xlink:href="#DejaVuSans-48" x="688.720703"/>
      <use xlink:href="#DejaVuSans-5d" x="763.916016"/>
     </g>
    </g>
   </g>
   <g id="line2d_54">
    <path d="M 51.05 194.426372 
L 51.518834 194.426372 
L 51.636482 193.165264 
L 55.503221 193.165264 
L 55.620102 194.426372 
L 58.433515 194.426372 
L 58.55002 193.165264 
L 60.543033 193.165264 
L 60.7765 191.904155 
L 62.651553 191.904155 
L 62.885894 190.643047 
L 67.105652 190.643047 
L 67.339204 189.381938 
L 82.925952 189.381938 
L 83.042801 188.12083 
L 97.574441 188.12083 
L 97.691906 186.859721 
L 107.066902 186.859721 
L 107.184081 185.598613 
L 114.33311 185.598613 
L 114.449903 186.859721 
L 121.95011 186.859721 
L 122.06777 185.598613 
L 152.888442 185.598613 
L 153.006003 186.859721 
L 157.576059 186.859721 
L 157.810428 185.598613 
L 172.459602 185.598613 
L 172.576462 186.859721 
L 176.795321 186.859721 
L 176.912929 185.598613 
L 194.373889 185.598613 
L 194.491644 184.337504 
L 203.397854 184.337504 
L 203.514754 183.076395 
L 209.02319 183.076395 
L 209.139893 181.815287 
L 214.530631 181.815287 
L 214.648123 180.554178 
L 244.414432 180.554178 
L 244.53134 181.815287 
L 252.969043 181.815287 
L 253.086562 180.554178 
L 272.188253 180.554178 
L 272.42339 181.815287 
L 272.891394 181.815287 
L 273.008815 180.554178 
L 273.125772 181.815287 
L 285.431015 181.815287 
L 285.548756 183.076395 
L 285.89977 183.076395 
L 286.016721 184.337504 
L 286.251101 184.337504 
L 286.368605 185.598613 
L 286.602838 185.598613 
L 286.719866 186.859721 
L 287.071678 186.859721 
L 287.188635 188.12083 
L 287.540518 188.12083 
L 287.657394 189.381938 
L 288.243596 189.381938 
L 288.360534 190.643047 
L 288.594921 190.643047 
L 288.712449 191.904155 
L 289.181093 191.904155 
L 289.298058 193.165264 
L 291.75933 193.165264 
L 291.87625 191.904155 
L 292.813788 191.904155 
L 292.930933 190.643047 
L 294.688841 190.643047 
L 294.806129 189.381938 
L 299.72827 189.381938 
L 299.845233 188.12083 
L 302.54084 188.12083 
L 302.657817 186.859721 
L 305.587525 186.859721 
L 305.704756 188.12083 
L 306.994265 188.12083 
L 307.111053 189.381938 
L 310.510004 189.381938 
L 310.626758 188.12083 
L 315.666386 188.12083 
L 315.783165 189.381938 
L 319.416553 189.381938 
L 319.533256 190.643047 
L 320.236402 190.643047 
L 320.354047 191.904155 
L 321.52587 191.904155 
L 321.642695 193.165264 
L 322.814604 193.165264 
L 322.932298 194.426372 
L 323.517737 194.426372 
L 323.635369 195.687481 
L 324.104206 195.687481 
L 324.220887 196.948589 
L 325.510049 196.948589 
L 325.627176 195.687481 
L 328.205368 195.687481 
L 328.322922 196.948589 
L 329.260417 196.948589 
L 329.377273 198.209698 
L 331.017944 198.209698 
L 331.135583 196.948589 
L 331.721101 196.948589 
L 331.83876 195.687481 
L 332.54193 195.687481 
L 332.65862 194.426372 
L 333.596132 194.426372 
L 333.71366 193.165264 
L 334.651247 193.165264 
L 334.76805 191.904155 
L 335.939953 191.904155 
L 336.057405 190.643047 
L 337.463811 190.643047 
L 337.580627 189.381938 
L 341.448215 189.381938 
L 341.565116 188.12083 
L 352.933032 188.12083 
L 353.049791 189.381938 
L 365.004165 189.381938 
L 365.237639 190.643047 
L 365.589593 190.643047 
L 365.706403 189.381938 
L 367.464374 189.381938 
L 367.58144 190.643047 
L 367.69901 190.643047 
L 367.815825 191.904155 
L 367.933428 191.904155 
L 368.050197 193.165264 
L 368.284581 193.165264 
L 368.402177 194.426372 
L 368.636501 194.426372 
L 368.753352 195.687481 
L 369.457406 195.687481 
L 369.690876 196.948589 
L 369.925248 196.948589 
L 370.042847 198.209698 
L 370.394014 198.209698 
L 370.511586 199.470806 
L 370.862785 199.470806 
L 370.98024 200.731915 
L 371.449076 200.731915 
L 371.565928 199.470806 
L 373.792909 199.470806 
L 373.910651 198.209698 
L 376.019949 198.209698 
L 376.25355 199.470806 
L 378.48025 199.470806 
L 378.59736 200.731915 
L 378.949201 200.731915 
L 379.066119 201.993023 
L 381.879509 201.993023 
L 382.113069 203.254132 
L 382.230528 204.51524 
L 382.347461 204.51524 
L 382.582428 203.254132 
L 382.817003 204.51524 
L 383.402528 204.51524 
L 383.519359 203.254132 
L 383.754496 203.254132 
L 383.988131 207.037458 
L 384.691274 207.037458 
L 384.808769 208.298566 
L 384.926405 208.298566 
L 385.277514 209.559675 
L 385.512027 213.343 
L 385.629667 214.604109 
L 385.863995 220.909651 
L 385.980369 220.909651 
L 386.097552 222.17076 
L 386.801496 232.259628 
L 387.269451 234.781845 
L 387.738833 234.781845 
L 388.090086 228.476302 
L 388.206988 227.215194 
L 388.324509 227.215194 
L 388.44137 225.954085 
L 388.675747 224.692977 
L 388.910618 227.215194 
L 389.144513 230.99852 
L 389.379732 232.259628 
L 389.496113 233.520737 
L 389.847659 232.259628 
L 389.965163 233.520737 
L 390.082035 233.520737 
L 390.316429 236.042954 
L 390.433913 236.042954 
L 390.668243 238.565171 
L 390.785196 238.565171 
L 391.254723 239.826279 
L 391.722704 242.348496 
L 391.95753 242.348496 
L 392.191475 241.087388 
L 392.660242 242.348496 
L 392.894616 243.609605 
L 393.129003 243.609605 
L 393.597752 244.870713 
L 395.239402 244.870713 
L 395.47281 243.609605 
L 395.824832 243.609605 
L 395.942287 244.870713 
L 396.293483 244.870713 
L 396.41034 243.609605 
L 396.644712 243.609605 
L 396.76233 242.348496 
L 397.231143 242.348496 
L 397.348717 239.826279 
L 397.582252 242.348496 
L 397.699697 242.348496 
L 397.817672 243.609605 
L 398.051021 243.609605 
L 398.402791 239.826279 
L 398.754154 243.609605 
L 398.989471 241.087388 
L 399.222918 239.826279 
L 399.340309 239.826279 
L 399.691699 243.609605 
L 400.512013 243.609605 
L 400.629217 241.087388 
L 400.864282 239.826279 
L 400.981346 239.826279 
L 401.097968 238.565171 
L 401.332357 237.304062 
L 401.683945 233.520737 
L 401.802064 233.520737 
L 402.153165 229.737411 
L 402.270805 229.737411 
L 402.505234 232.259628 
L 402.856133 232.259628 
L 403.090568 234.781845 
L 403.20741 234.781845 
L 403.441777 237.304062 
L 403.559415 236.042954 
L 403.676169 237.304062 
L 404.380046 237.304062 
L 404.496911 236.042954 
L 404.614138 233.520737 
L 405.08247 227.215194 
L 405.434262 227.215194 
L 405.668832 229.737411 
L 405.785615 232.259628 
L 405.90306 230.99852 
L 406.137488 234.781845 
L 406.254379 236.042954 
L 406.488761 236.042954 
L 406.723123 238.565171 
L 406.958288 236.042954 
L 407.426932 237.304062 
L 407.661651 238.565171 
L 408.012567 238.565171 
L 408.246798 236.042954 
L 408.598197 236.042954 
L 408.950344 232.259628 
L 409.302024 233.520737 
L 409.418693 233.520737 
L 409.535733 232.259628 
L 409.653415 232.259628 
L 409.7701 233.520737 
L 410.356297 233.520737 
L 410.473259 234.781845 
L 410.942013 234.781845 
L 411.645172 227.215194 
L 411.879541 227.215194 
L 411.997148 225.954085 
L 413.051459 225.954085 
L 413.168969 224.692977 
L 413.285838 224.692977 
L 413.403393 225.954085 
L 413.988981 229.737411 
L 414.106558 227.215194 
L 414.223363 227.215194 
L 414.340696 228.476302 
L 414.457755 227.215194 
L 414.809638 227.215194 
L 415.044147 225.954085 
L 415.395285 225.954085 
L 415.512991 224.692977 
L 416.450484 224.692977 
L 416.567182 223.431868 
L 417.739101 223.431868 
L 417.85663 222.17076 
L 418.207875 223.431868 
L 418.794216 223.431868 
L 418.911018 222.17076 
L 419.262965 222.17076 
L 419.379792 220.909651 
L 419.497384 220.909651 
L 419.614172 222.17076 
L 420.082936 222.17076 
L 420.318196 223.431868 
L 421.020466 223.431868 
L 421.137945 222.17076 
L 422.895533 222.17076 
L 423.129908 219.648543 
L 423.247446 219.648543 
L 423.365091 218.387434 
L 423.598675 220.909651 
L 423.716005 220.909651 
L 423.950523 223.431868 
L 424.184852 223.431868 
L 424.30182 224.692977 
L 425.356773 224.692977 
L 425.473739 223.431868 
L 426.176877 223.431868 
L 426.411256 220.909651 
L 426.528687 220.909651 
L 426.645646 219.648543 
L 426.763293 219.648543 
L 427.114414 220.909651 
L 427.232035 219.648543 
L 427.583175 219.648543 
L 427.817572 222.17076 
L 427.93511 222.17076 
L 428.051934 223.431868 
L 428.638275 223.431868 
L 428.755082 224.692977 
L 429.341244 224.692977 
L 429.458235 225.954085 
L 430.278934 225.954085 
L 430.395756 224.692977 
L 430.51336 225.954085 
L 431.21643 225.954085 
L 431.450462 227.215194 
L 431.685181 227.215194 
L 431.802052 225.954085 
L 432.5052 225.954085 
L 432.739586 227.215194 
L 432.973966 227.215194 
L 433.20835 230.99852 
L 433.794495 237.304062 
L 433.911491 237.304062 
L 434.028823 238.565171 
L 434.145882 237.304062 
L 434.263244 237.304062 
L 434.380259 238.565171 
L 434.49776 238.565171 
L 434.614657 237.304062 
L 434.732178 237.304062 
L 434.849015 236.042954 
L 435.083404 238.565171 
L 435.43506 238.565171 
L 435.552179 239.826279 
L 435.903806 241.087388 
L 436.020931 242.348496 
L 436.255305 243.609605 
L 436.489709 247.39293 
L 436.724086 247.39293 
L 436.841592 246.131822 
L 437.192852 246.131822 
L 437.310338 247.39293 
L 437.427226 247.39293 
L 437.544756 246.131822 
L 437.662396 246.131822 
L 437.896819 243.609605 
L 438.130374 242.348496 
L 438.247922 241.087388 
L 438.951194 241.087388 
L 439.068738 239.826279 
L 439.30229 239.826279 
L 439.419752 241.087388 
L 439.536654 243.609605 
L 439.654175 243.609605 
L 440.005421 247.39293 
L 440.357147 246.131822 
L 440.474186 247.39293 
L 440.591768 247.39293 
L 440.942952 251.176256 
L 441.177344 251.176256 
L 441.294839 252.437365 
L 441.763398 252.437365 
L 441.880486 254.959582 
L 442.114863 254.959582 
L 442.232425 257.481799 
L 442.935507 257.481799 
L 443.05239 258.742907 
L 443.28677 258.742907 
L 443.404346 261.265124 
L 443.521161 258.742907 
L 443.755526 258.742907 
L 443.872997 261.265124 
L 446.803313 261.265124 
L 447.036867 263.787341 
L 447.154417 263.787341 
L 447.271264 261.265124 
L 448.091905 261.265124 
L 448.208783 263.787341 
L 448.443162 263.787341 
L 448.560653 261.265124 
L 449.498236 261.265124 
L 449.615075 263.787341 
L 450.083839 263.787341 
L 450.201403 261.265124 
L 450.552601 261.265124 
L 450.670055 263.787341 
L 450.904472 263.787341 
L 451.021366 261.265124 
L 455.709767 261.265124 
L 456.060876 258.742907 
L 456.178518 261.265124 
L 456.646524 261.265124 
L 456.764042 258.742907 
L 456.880901 258.742907 
L 457.11529 257.481799 
L 457.23279 257.481799 
L 457.467113 252.437365 
L 458.404514 252.437365 
L 458.522349 254.959582 
L 458.639035 252.437365 
L 458.755952 254.959582 
L 458.99108 254.959582 
L 459.225603 252.437365 
L 459.810847 252.437365 
L 459.927867 251.176256 
L 460.162234 252.437365 
L 460.748533 252.437365 
L 460.865394 251.176256 
L 461.451606 251.176256 
L 461.569361 252.437365 
L 462.037309 252.437365 
L 462.272466 251.176256 
L 462.506072 251.176256 
L 462.623521 249.915147 
L 462.740463 247.39293 
L 463.092171 243.609605 
L 463.443597 243.609605 
L 463.56111 242.348496 
L 463.677984 239.826279 
L 463.912363 239.826279 
L 464.029854 241.087388 
L 464.264178 241.087388 
L 464.382008 239.826279 
L 464.73297 239.826279 
L 464.84991 241.087388 
L 464.967374 241.087388 
L 465.08427 239.826279 
L 465.318652 239.826279 
L 465.553033 238.565171 
L 467.662483 238.565171 
L 467.897597 236.042954 
L 468.014346 236.042954 
L 468.131249 234.781845 
L 468.835153 234.781845 
L 469.068775 236.042954 
L 470.123849 236.042954 
L 470.240688 234.781845 
L 470.592596 234.781845 
L 470.709464 233.520737 
L 471.412605 233.520737 
L 471.530006 232.259628 
L 471.646998 233.520737 
L 471.764509 233.520737 
L 471.881383 232.259628 
L 472.115775 232.259628 
L 472.233359 230.99852 
L 472.350144 230.99852 
L 472.467708 229.737411 
L 473.990821 229.737411 
L 474.10852 228.476302 
L 474.459592 228.476302 
L 474.577268 229.737411 
L 474.929292 229.737411 
L 475.045817 230.99852 
L 475.397118 230.99852 
L 475.632145 232.259628 
L 476.686479 232.259628 
L 476.803418 233.520737 
L 476.920807 233.520737 
L 477.0378 234.781845 
L 477.741799 234.781845 
L 477.858102 236.042954 
L 478.327141 236.042954 
L 478.56156 237.304062 
L 480.084759 237.304062 
L 480.319658 236.042954 
L 481.608643 236.042954 
L 481.726237 234.781845 
L 481.959857 234.781845 
L 481.959857 234.781845 
" clip-path="url(#p305d5cc1ec)" style="fill: none; stroke: #ff7f0e; stroke-width: 1.5; stroke-linecap: square"/>
   </g>
   <g id="patch_8">
    <path d="M 51.05 302.881706 
L 51.05 176.770853 
" style="fill: none; stroke: #000000; stroke-width: 0.8; stroke-linejoin: miter; stroke-linecap: square"/>
   </g>
   <g id="patch_9">
    <path d="M 481.959857 302.881706 
L 481.959857 176.770853 
" style="fill: none; stroke: #000000; stroke-width: 0.8; stroke-linejoin: miter; stroke-linecap: square"/>
   </g>
   <g id="patch_10">
    <path d="M 51.05 302.881706 
L 481.959857 302.881706 
" style="fill: none; stroke: #000000; stroke-width: 0.8; stroke-linejoin: miter; stroke-linecap: square"/>
   </g>
   <g id="patch_11">
    <path d="M 51.05 176.770853 
L 481.959857 176.770853 
" style="fill: none; stroke: #000000; stroke-width: 0.8; stroke-linejoin: miter; stroke-linecap: square"/>
   </g>
  </g>
  <g id="axes_3">
   <g id="patch_12">
    <path d="M 51.05 447.252558 
L 481.959857 447.252558 
L 481.959857 321.141706 
L 51.05 321.141706 
z
" style="fill: #ffffff"/>
   </g>
   <g id="matplotlib.axis_5">
    <g id="xtick_17">
     <g id="line2d_55">
      <path d="M 103.723869 447.252558 
L 103.723869 321.141706 
" clip-path="url(#pa2f2d4b259)" style="fill: none; stroke: #b0b0b0; stroke-width: 0.8; stroke-linecap: square"/>
     </g>
     <g id="line2d_56">
      <g>
       <use xlink:href="#mc69059b9a8" x="103.723869" y="447.252558" style="stroke: #000000; stroke-width: 0.8"/>
      </g>
     </g>
     <g id="text_13">
      <!-- 12-01 06 -->
      <g transform="translate(89.778949 491.417649) rotate(-45) scale(0.1 -0.1)">
       <defs>
        <path id="DejaVuSans-2d" d="M 313 2009 
L 1997 2009 
L 1997 1497 
L 313 1497 
L 313 2009 
z
" transform="scale(0.015625)"/>
       </defs>
       <use xlink:href="#DejaVuSans-31"/>
       <use xlink:href="#DejaVuSans-32" x="63.623047"/>
       <use xlink:href="#DejaVuSans-2d" x="127.246094"/>
       <use xlink:href="#DejaVuSans-30" x="163.330078"/>
       <use xlink:href="#DejaVuSans-31" x="226.953125"/>
       <use xlink:href="#DejaVuSans-20" x="290.576172"/>
       <use xlink:href="#DejaVuSans-30" x="322.363281"/>
       <use xlink:href="#DejaVuSans-36" x="385.986328"/>
      </g>
     </g>
    </g>
    <g id="xtick_18">
     <g id="line2d_57">
      <path d="M 156.45997 447.252558 
L 156.45997 321.141706 
" clip-path="url(#pa2f2d4b259)" style="fill: none; stroke: #b0b0b0; stroke-width: 0.8; stroke-linecap: square"/>
     </g>
     <g id="line2d_58">
      <g>
       <use xlink:href="#mc69059b9a8" x="156.45997" y="447.252558" style="stroke: #000000; stroke-width: 0.8"/>
      </g>
     </g>
     <g id="text_14">
      <!-- 12-01 12 -->
      <g transform="translate(142.51505 491.417649) rotate(-45) scale(0.1 -0.1)">
       <use xlink:href="#DejaVuSans-31"/>
       <use xlink:href="#DejaVuSans-32" x="63.623047"/>
       <use xlink:href="#DejaVuSans-2d" x="127.246094"/>
       <use xlink:href="#DejaVuSans-30" x="163.330078"/>
       <use xlink:href="#DejaVuSans-31" x="226.953125"/>
       <use xlink:href="#DejaVuSans-20" x="290.576172"/>
       <use xlink:href="#DejaVuSans-31" x="322.363281"/>
       <use xlink:href="#DejaVuSans-32" x="385.986328"/>
      </g>
     </g>
    </g>
    <g id="xtick_19">
     <g id="line2d_59">
      <path d="M 209.196071 447.252558 
L 209.196071 321.141706 
" clip-path="url(#pa2f2d4b259)" style="fill: none; stroke: #b0b0b0; stroke-width: 0.8; stroke-linecap: square"/>
     </g>
     <g id="line2d_60">
      <g>
       <use xlink:href="#mc69059b9a8" x="209.196071" y="447.252558" style="stroke: #000000; stroke-width: 0.8"/>
      </g>
     </g>
     <g id="text_15">
      <!-- 12-01 18 -->
      <g transform="translate(195.251151 491.417649) rotate(-45) scale(0.1 -0.1)">
       <use xlink:href="#DejaVuSans-31"/>
       <use xlink:href="#DejaVuSans-32" x="63.623047"/>
       <use xlink:href="#DejaVuSans-2d" x="127.246094"/>
       <use xlink:href="#DejaVuSans-30" x="163.330078"/>
       <use xlink:href="#DejaVuSans-31" x="226.953125"/>
       <use xlink:href="#DejaVuSans-20" x="290.576172"/>
       <use xlink:href="#DejaVuSans-31" x="322.363281"/>
       <use xlink:href="#DejaVuSans-38" x="385.986328"/>
      </g>
     </g>
    </g>
    <g id="xtick_20">
     <g id="line2d_61">
      <path d="M 261.932171 447.252558 
L 261.932171 321.141706 
" clip-path="url(#pa2f2d4b259)" style="fill: none; stroke: #b0b0b0; stroke-width: 0.8; stroke-linecap: square"/>
     </g>
     <g id="line2d_62">
      <g>
       <use xlink:href="#mc69059b9a8" x="261.932171" y="447.252558" style="stroke: #000000; stroke-width: 0.8"/>
      </g>
     </g>
     <g id="text_16">
      <!-- 12-02 00 -->
      <g transform="translate(247.987252 491.417649) rotate(-45) scale(0.1 -0.1)">
       <use xlink:href="#DejaVuSans-31"/>
       <use xlink:href="#DejaVuSans-32" x="63.623047"/>
       <use xlink:href="#DejaVuSans-2d" x="127.246094"/>
       <use xlink:href="#DejaVuSans-30" x="163.330078"/>
       <use xlink:href="#DejaVuSans-32" x="226.953125"/>
       <use xlink:href="#DejaVuSans-20" x="290.576172"/>
       <use xlink:href="#DejaVuSans-30" x="322.363281"/>
       <use xlink:href="#DejaVuSans-30" x="385.986328"/>
      </g>
     </g>
    </g>
    <g id="xtick_21">
     <g id="line2d_63">
      <path d="M 314.668272 447.252558 
L 314.668272 321.141706 
" clip-path="url(#pa2f2d4b259)" style="fill: none; stroke: #b0b0b0; stroke-width: 0.8; stroke-linecap: square"/>
     </g>
     <g id="line2d_64">
      <g>
       <use xlink:href="#mc69059b9a8" x="314.668272" y="447.252558" style="stroke: #000000; stroke-width: 0.8"/>
      </g>
     </g>
     <g id="text_17">
      <!-- 12-02 06 -->
      <g transform="translate(300.723353 491.417649) rotate(-45) scale(0.1 -0.1)">
       <use xlink:href="#DejaVuSans-31"/>
       <use xlink:href="#DejaVuSans-32" x="63.623047"/>
       <use xlink:href="#DejaVuSans-2d" x="127.246094"/>
       <use xlink:href="#DejaVuSans-30" x="163.330078"/>
       <use xlink:href="#DejaVuSans-32" x="226.953125"/>
       <use xlink:href="#DejaVuSans-20" x="290.576172"/>
       <use xlink:href="#DejaVuSans-30" x="322.363281"/>
       <use xlink:href="#DejaVuSans-36" x="385.986328"/>
      </g>
     </g>
    </g>
    <g id="xtick_22">
     <g id="line2d_65">
      <path d="M 367.404373 447.252558 
L 367.404373 321.141706 
" clip-path="url(#pa2f2d4b259)" style="fill: none; stroke: #b0b0b0; stroke-width: 0.8; stroke-linecap: square"/>
     </g>
     <g id="line2d_66">
      <g>
       <use xlink:href="#mc69059b9a8" x="367.404373" y="447.252558" style="stroke: #000000; stroke-width: 0.8"/>
      </g>
     </g>
     <g id="text_18">
      <!-- 12-02 12 -->
      <g transform="translate(353.459454 491.417649) rotate(-45) scale(0.1 -0.1)">
       <use xlink:href="#DejaVuSans-31"/>
       <use xlink:href="#DejaVuSans-32" x="63.623047"/>
       <use xlink:href="#DejaVuSans-2d" x="127.246094"/>
       <use xlink:href="#DejaVuSans-30" x="163.330078"/>
       <use xlink:href="#DejaVuSans-32" x="226.953125"/>
       <use xlink:href="#DejaVuSans-20" x="290.576172"/>
       <use xlink:href="#DejaVuSans-31" x="322.363281"/>
       <use xlink:href="#DejaVuSans-32" x="385.986328"/>
      </g>
     </g>
    </g>
    <g id="xtick_23">
     <g id="line2d_67">
      <path d="M 420.140474 447.252558 
L 420.140474 321.141706 
" clip-path="url(#pa2f2d4b259)" style="fill: none; stroke: #b0b0b0; stroke-width: 0.8; stroke-linecap: square"/>
     </g>
     <g id="line2d_68">
      <g>
       <use xlink:href="#mc69059b9a8" x="420.140474" y="447.252558" style="stroke: #000000; stroke-width: 0.8"/>
      </g>
     </g>
     <g id="text_19">
      <!-- 12-02 18 -->
      <g transform="translate(406.195555 491.417649) rotate(-45) scale(0.1 -0.1)">
       <use xlink:href="#DejaVuSans-31"/>
       <use xlink:href="#DejaVuSans-32" x="63.623047"/>
       <use xlink:href="#DejaVuSans-2d" x="127.246094"/>
       <use xlink:href="#DejaVuSans-30" x="163.330078"/>
       <use xlink:href="#DejaVuSans-32" x="226.953125"/>
       <use xlink:href="#DejaVuSans-20" x="290.576172"/>
       <use xlink:href="#DejaVuSans-31" x="322.363281"/>
       <use xlink:href="#DejaVuSans-38" x="385.986328"/>
      </g>
     </g>
    </g>
    <g id="xtick_24">
     <g id="line2d_69">
      <path d="M 472.876575 447.252558 
L 472.876575 321.141706 
" clip-path="url(#pa2f2d4b259)" style="fill: none; stroke: #b0b0b0; stroke-width: 0.8; stroke-linecap: square"/>
     </g>
     <g id="line2d_70">
      <g>
       <use xlink:href="#mc69059b9a8" x="472.876575" y="447.252558" style="stroke: #000000; stroke-width: 0.8"/>
      </g>
     </g>
     <g id="text_20">
      <!-- 12-03 00 -->
      <g transform="translate(458.931656 491.417649) rotate(-45) scale(0.1 -0.1)">
       <defs>
        <path id="DejaVuSans-33" d="M 2597 2516 
Q 3050 2419 3304 2112 
Q 3559 1806 3559 1356 
Q 3559 666 3084 287 
Q 2609 -91 1734 -91 
Q 1441 -91 1130 -33 
Q 819 25 488 141 
L 488 750 
Q 750 597 1062 519 
Q 1375 441 1716 441 
Q 2309 441 2620 675 
Q 2931 909 2931 1356 
Q 2931 1769 2642 2001 
Q 2353 2234 1838 2234 
L 1294 2234 
L 1294 2753 
L 1863 2753 
Q 2328 2753 2575 2939 
Q 2822 3125 2822 3475 
Q 2822 3834 2567 4026 
Q 2313 4219 1838 4219 
Q 1578 4219 1281 4162 
Q 984 4106 628 3988 
L 628 4550 
Q 988 4650 1302 4700 
Q 1616 4750 1894 4750 
Q 2613 4750 3031 4423 
Q 3450 4097 3450 3541 
Q 3450 3153 3228 2886 
Q 3006 2619 2597 2516 
z
" transform="scale(0.015625)"/>
       </defs>
       <use xlink:href="#DejaVuSans-31"/>
       <use xlink:href="#DejaVuSans-32" x="63.623047"/>
       <use xlink:href="#DejaVuSans-2d" x="127.246094"/>
       <use xlink:href="#DejaVuSans-30" x="163.330078"/>
       <use xlink:href="#DejaVuSans-33" x="226.953125"/>
       <use xlink:href="#DejaVuSans-20" x="290.576172"/>
       <use xlink:href="#DejaVuSans-30" x="322.363281"/>
       <use xlink:href="#DejaVuSans-30" x="385.986328"/>
      </g>
     </g>
    </g>
   </g>
   <g id="matplotlib.axis_6">
    <g id="ytick_11">
     <g id="line2d_71">
      <path d="M 51.05 426.065486 
L 481.959857 426.065486 
" clip-path="url(#pa2f2d4b259)" style="fill: none; stroke: #b0b0b0; stroke-width: 0.8; stroke-linecap: square"/>
     </g>
     <g id="line2d_72">
      <g>
       <use xlink:href="#mcd1242f9e0" x="51.05" y="426.065486" style="stroke: #000000; stroke-width: 0.8"/>
      </g>
     </g>
     <g id="text_21">
      <!-- 430 -->
      <g transform="translate(24.9625 429.864704) scale(0.1 -0.1)">
       <use xlink:href="#DejaVuSans-34"/>
       <use xlink:href="#DejaVuSans-33" x="63.623047"/>
       <use xlink:href="#DejaVuSans-30" x="127.246094"/>
      </g>
     </g>
    </g>
    <g id="ytick_12">
     <g id="line2d_73">
      <path d="M 51.05 397.965919 
L 481.959857 397.965919 
" clip-path="url(#pa2f2d4b259)" style="fill: none; stroke: #b0b0b0; stroke-width: 0.8; stroke-linecap: square"/>
     </g>
     <g id="line2d_74">
      <g>
       <use xlink:href="#mcd1242f9e0" x="51.05" y="397.965919" style="stroke: #000000; stroke-width: 0.8"/>
      </g>
     </g>
     <g id="text_22">
      <!-- 440 -->
      <g transform="translate(24.9625 401.765138) scale(0.1 -0.1)">
       <use xlink:href="#DejaVuSans-34"/>
       <use xlink:href="#DejaVuSans-34" x="63.623047"/>
       <use xlink:href="#DejaVuSans-30" x="127.246094"/>
      </g>
     </g>
    </g>
    <g id="ytick_13">
     <g id="line2d_75">
      <path d="M 51.05 369.866353 
L 481.959857 369.866353 
" clip-path="url(#pa2f2d4b259)" style="fill: none; stroke: #b0b0b0; stroke-width: 0.8; stroke-linecap: square"/>
     </g>
     <g id="line2d_76">
      <g>
       <use xlink:href="#mcd1242f9e0" x="51.05" y="369.866353" style="stroke: #000000; stroke-width: 0.8"/>
      </g>
     </g>
     <g id="text_23">
      <!-- 450 -->
      <g transform="translate(24.9625 373.665572) scale(0.1 -0.1)">
       <defs>
        <path id="DejaVuSans-35" d="M 691 4666 
L 3169 4666 
L 3169 4134 
L 1269 4134 
L 1269 2991 
Q 1406 3038 1543 3061 
Q 1681 3084 1819 3084 
Q 2600 3084 3056 2656 
Q 3513 2228 3513 1497 
Q 3513 744 3044 326 
Q 2575 -91 1722 -91 
Q 1428 -91 1123 -41 
Q 819 9 494 109 
L 494 744 
Q 775 591 1075 516 
Q 1375 441 1709 441 
Q 2250 441 2565 725 
Q 2881 1009 2881 1497 
Q 2881 1984 2565 2268 
Q 2250 2553 1709 2553 
Q 1456 2553 1204 2497 
Q 953 2441 691 2322 
L 691 4666 
z
" transform="scale(0.015625)"/>
       </defs>
       <use xlink:href="#DejaVuSans-34"/>
       <use xlink:href="#DejaVuSans-35" x="63.623047"/>
       <use xlink:href="#DejaVuSans-30" x="127.246094"/>
      </g>
     </g>
    </g>
    <g id="ytick_14">
     <g id="line2d_77">
      <path d="M 51.05 341.766787 
L 481.959857 341.766787 
" clip-path="url(#pa2f2d4b259)" style="fill: none; stroke: #b0b0b0; stroke-width: 0.8; stroke-linecap: square"/>
     </g>
     <g id="line2d_78">
      <g>
       <use xlink:href="#mcd1242f9e0" x="51.05" y="341.766787" style="stroke: #000000; stroke-width: 0.8"/>
      </g>
     </g>
     <g id="text_24">
      <!-- 460 -->
      <g transform="translate(24.9625 345.566006) scale(0.1 -0.1)">
       <use xlink:href="#DejaVuSans-34"/>
       <use xlink:href="#DejaVuSans-36" x="63.623047"/>
       <use xlink:href="#DejaVuSans-30" x="127.246094"/>
      </g>
     </g>
    </g>
    <g id="text_25">
     <!-- Rain [mm] -->
     <g transform="translate(18.882813 410.411976) rotate(-90) scale(0.1 -0.1)">
      <defs>
       <path id="DejaVuSans-6e" d="M 3513 2113 
L 3513 0 
L 2938 0 
L 2938 2094 
Q 2938 2591 2744 2837 
Q 2550 3084 2163 3084 
Q 1697 3084 1428 2787 
Q 1159 2491 1159 1978 
L 1159 0 
L 581 0 
L 581 3500 
L 1159 3500 
L 1159 2956 
Q 1366 3272 1645 3428 
Q 1925 3584 2291 3584 
Q 2894 3584 3203 3211 
Q 3513 2838 3513 2113 
z
" transform="scale(0.015625)"/>
      </defs>
      <use xlink:href="#DejaVuSans-52"/>
      <use xlink:href="#DejaVuSans-61" x="67.232422"/>
      <use xlink:href="#DejaVuSans-69" x="128.511719"/>
      <use xlink:href="#DejaVuSans-6e" x="156.294922"/>
      <use xlink:href="#DejaVuSans-20" x="219.673828"/>
      <use xlink:href="#DejaVuSans-5b" x="251.460938"/>
      <use xlink:href="#DejaVuSans-6d" x="290.474609"/>
      <use xlink:href="#DejaVuSans-6d" x="387.886719"/>
      <use xlink:href="#DejaVuSans-5d" x="485.298828"/>
     </g>
    </g>
   </g>
   <g id="line2d_79">
    <path d="M 51.05 441.520247 
L 111.871702 441.520247 
L 111.989284 440.67726 
L 114.801862 440.67726 
L 114.918662 439.834273 
L 117.145597 439.834273 
L 117.262473 438.991286 
L 119.255003 438.991286 
L 119.371904 438.148299 
L 122.536121 438.148299 
L 122.653251 437.305312 
L 135.54511 437.305312 
L 135.778612 436.462325 
L 153.122821 436.462325 
L 153.358072 435.619338 
L 166.248161 435.619338 
L 166.3657 434.776351 
L 168.591982 434.776351 
L 168.82737 433.933364 
L 179.491081 433.933364 
L 179.607897 433.090377 
L 185.467423 433.090377 
L 185.584997 432.24739 
L 190.85914 432.24739 
L 190.975515 431.404403 
L 196.014569 431.404403 
L 196.131862 430.561416 
L 199.295901 430.561416 
L 199.41337 429.718429 
L 201.874827 429.718429 
L 201.991407 428.875442 
L 203.984338 428.875442 
L 204.452257 428.032455 
L 205.85855 428.032455 
L 205.976003 427.189468 
L 206.79608 427.189468 
L 206.913686 426.346481 
L 208.202356 426.346481 
L 208.31992 425.503494 
L 209.726069 425.503494 
L 209.843028 424.660507 
L 211.132299 424.660507 
L 211.249311 423.81752 
L 212.186836 423.81752 
L 212.304215 422.974533 
L 213.476212 422.974533 
L 213.593107 422.131546 
L 214.648123 422.131546 
L 214.765023 421.288559 
L 216.171299 421.288559 
L 216.288797 420.445572 
L 217.929457 420.445572 
L 218.046351 419.602585 
L 218.983865 419.602585 
L 219.101376 418.759598 
L 219.687027 418.759598 
L 219.804447 417.916611 
L 220.390144 417.916611 
L 220.507621 417.073624 
L 221.093297 417.073624 
L 221.210786 416.230637 
L 221.913934 416.230637 
L 222.03082 415.38765 
L 222.617114 415.38765 
L 222.733968 414.544664 
L 223.202727 414.544664 
L 223.320194 413.701677 
L 223.906954 413.701677 
L 224.023147 412.85869 
L 224.608996 412.85869 
L 224.726531 412.015703 
L 225.546523 412.015703 
L 225.664114 411.172716 
L 226.484052 411.172716 
L 226.601519 410.329729 
L 227.070255 410.329729 
L 227.187193 409.486742 
L 227.655952 409.486742 
L 227.773423 408.643755 
L 228.124712 408.643755 
L 228.359026 407.800768 
L 228.945341 407.800768 
L 229.06224 406.957781 
L 229.882726 406.957781 
L 229.999768 406.114794 
L 230.82059 406.114794 
L 230.937278 405.271807 
L 232.10918 405.271807 
L 232.226749 404.42882 
L 233.164046 404.42882 
L 233.281082 403.585833 
L 233.984228 403.585833 
L 234.102017 402.742846 
L 235.039006 402.742846 
L 235.156126 401.899859 
L 236.211035 401.899859 
L 236.328008 401.056872 
L 237.265538 401.056872 
L 237.383051 400.213885 
L 237.968698 400.213885 
L 238.086211 399.370898 
L 238.671821 399.370898 
L 238.789176 398.527911 
L 239.375748 398.527911 
L 239.492319 397.684924 
L 240.078095 397.684924 
L 240.195601 396.841937 
L 240.781255 396.841937 
L 240.898673 395.99895 
L 241.601535 395.99895 
L 241.718767 395.155963 
L 242.305298 395.155963 
L 242.421908 394.312976 
L 243.125046 394.312976 
L 243.242422 393.469989 
L 243.945649 393.469989 
L 244.062581 392.627002 
L 244.53134 392.627002 
L 244.64884 391.784015 
L 245.117495 391.784015 
L 245.234483 390.941028 
L 245.703244 390.941028 
L 245.938678 390.098041 
L 246.523825 390.098041 
L 246.640774 389.255054 
L 246.992572 389.255054 
L 247.109521 388.412067 
L 247.695744 388.412067 
L 247.812657 387.56908 
L 248.398912 387.56908 
L 248.515815 386.726093 
L 249.218955 386.726093 
L 249.336402 385.883106 
L 249.9221 385.883106 
L 250.039567 385.040119 
L 250.742742 385.040119 
L 250.859617 384.197132 
L 251.445901 384.197132 
L 251.562757 383.354145 
L 252.265903 383.354145 
L 252.38349 382.511158 
L 253.203418 382.511158 
L 253.320878 381.668171 
L 254.024064 381.668171 
L 254.140945 380.825184 
L 254.844074 380.825184 
L 254.961528 379.982197 
L 256.015989 379.982197 
L 256.133464 379.13921 
L 256.719136 379.13921 
L 256.95426 378.296223 
L 257.65666 378.296223 
L 257.774132 377.453236 
L 258.59418 377.453236 
L 258.711714 376.610249 
L 259.649208 376.610249 
L 259.766081 375.767262 
L 260.352283 375.767262 
L 260.469227 374.924275 
L 261.172373 374.924275 
L 261.407505 374.081288 
L 262.578638 374.081288 
L 262.81302 373.238301 
L 263.399288 373.238301 
L 263.517028 372.395314 
L 264.219316 372.395314 
L 264.336794 371.552327 
L 265.156826 371.552327 
L 265.274361 370.70934 
L 265.977414 370.70934 
L 266.094353 369.866353 
L 267.149247 369.866353 
L 267.266242 369.023366 
L 268.203773 369.023366 
L 268.32126 368.180379 
L 269.493162 368.180379 
L 269.61005 367.337392 
L 270.665077 367.337392 
L 270.781968 366.494405 
L 271.836992 366.494405 
L 271.953875 365.651418 
L 273.125772 365.651418 
L 273.243236 364.808431 
L 273.828917 364.808431 
L 273.94631 363.965444 
L 274.883803 363.965444 
L 275.000818 363.122457 
L 275.938342 363.122457 
L 276.055814 362.27947 
L 277.344619 362.27947 
L 277.462133 361.436484 
L 278.399816 361.436484 
L 278.516525 360.593497 
L 279.454059 360.593497 
L 279.571444 359.75051 
L 280.860357 359.75051 
L 280.977983 358.907523 
L 282.032268 358.907523 
L 282.149613 358.064536 
L 283.204171 358.064536 
L 283.439267 357.221549 
L 284.493732 357.221549 
L 284.610454 356.378562 
L 285.548756 356.378562 
L 285.78233 355.535575 
L 286.837641 355.535575 
L 286.954251 354.692588 
L 287.657394 354.692588 
L 288.126166 353.849601 
L 288.712449 353.849601 
L 288.829319 353.006614 
L 289.181093 353.006614 
L 289.298058 352.163627 
L 289.766804 352.163627 
L 289.884165 351.32064 
L 290.118377 351.32064 
L 290.235588 350.477653 
L 290.82175 350.477653 
L 290.938718 349.634666 
L 291.290486 349.634666 
L 291.407504 348.791679 
L 291.75933 348.791679 
L 291.87625 347.948692 
L 292.110644 347.948692 
L 292.345031 347.105705 
L 292.697012 347.105705 
L 292.813788 346.262718 
L 293.165663 346.262718 
L 293.282535 345.419731 
L 293.634601 345.419731 
L 293.751318 344.576744 
L 294.103247 344.576744 
L 294.220067 343.733757 
L 294.688841 343.733757 
L 294.806129 342.89077 
L 295.275156 342.89077 
L 295.391976 342.047783 
L 296.447158 342.047783 
L 296.564712 341.204796 
L 297.619059 341.204796 
L 297.735796 340.361809 
L 298.673314 340.361809 
L 298.908526 339.518822 
L 299.845233 339.518822 
L 299.962597 338.675835 
L 300.900273 338.675835 
L 301.018107 337.832848 
L 301.954663 337.832848 
L 302.072192 336.989861 
L 303.126576 336.989861 
L 303.362032 336.146874 
L 304.064088 336.146874 
L 304.181496 335.303887 
L 305.353602 335.303887 
L 305.471338 334.4609 
L 307.345435 334.4609 
L 307.463009 333.617913 
L 312.267435 333.617913 
L 312.38496 332.774926 
L 315.197642 332.774926 
L 315.314398 331.931939 
L 316.487294 331.931939 
L 316.720692 331.088952 
L 317.541469 331.088952 
L 317.658212 330.245965 
L 318.595729 330.245965 
L 318.830057 329.402978 
L 320.940438 329.402978 
L 321.056721 328.559991 
L 323.283363 328.559991 
L 323.400834 327.717004 
L 329.963379 327.717004 
L 330.08041 326.874017 
L 481.959857 326.874017 
L 481.959857 326.874017 
" clip-path="url(#pa2f2d4b259)" style="fill: none; stroke: #9467bd; stroke-width: 1.5; stroke-linecap: square"/>
   </g>
   <g id="patch_13">
    <path d="M 51.05 447.252558 
L 51.05 321.141706 
" style="fill: none; stroke: #000000; stroke-width: 0.8; stroke-linejoin: miter; stroke-linecap: square"/>
   </g>
   <g id="patch_14">
    <path d="M 481.959857 447.252558 
L 481.959857 321.141706 
" style="fill: none; stroke: #000000; stroke-width: 0.8; stroke-linejoin: miter; stroke-linecap: square"/>
   </g>
   <g id="patch_15">
    <path d="M 51.05 447.252558 
L 481.959857 447.252558 
" style="fill: none; stroke: #000000; stroke-width: 0.8; stroke-linejoin: miter; stroke-linecap: square"/>
   </g>
   <g id="patch_16">
    <path d="M 51.05 321.141706 
L 481.959857 321.141706 
" style="fill: none; stroke: #000000; stroke-width: 0.8; stroke-linejoin: miter; stroke-linecap: square"/>
   </g>
  </g>
  <g id="text_26">
   <!-- Weather data - December 2023 -->
   <g transform="translate(157.04625 19.198125) scale(0.12 -0.12)">
    <defs>
     <path id="DejaVuSans-57" d="M 213 4666 
L 850 4666 
L 1831 722 
L 2809 4666 
L 3519 4666 
L 4500 722 
L 5478 4666 
L 6119 4666 
L 4947 0 
L 4153 0 
L 3169 4050 
L 2175 0 
L 1381 0 
L 213 4666 
z
" transform="scale(0.015625)"/>
     <path id="DejaVuSans-68" d="M 3513 2113 
L 3513 0 
L 2938 0 
L 2938 2094 
Q 2938 2591 2744 2837 
Q 2550 3084 2163 3084 
Q 1697 3084 1428 2787 
Q 1159 2491 1159 1978 
L 1159 0 
L 581 0 
L 581 4863 
L 1159 4863 
L 1159 2956 
Q 1366 3272 1645 3428 
Q 1925 3584 2291 3584 
Q 2894 3584 3203 3211 
Q 3513 2838 3513 2113 
z
" transform="scale(0.015625)"/>
     <path id="DejaVuSans-44" d="M 1259 4147 
L 1259 519 
L 2022 519 
Q 2988 519 3436 956 
Q 3884 1394 3884 2338 
Q 3884 3275 3436 3711 
Q 2988 4147 2022 4147 
L 1259 4147 
z
M 628 4666 
L 1925 4666 
Q 3281 4666 3915 4102 
Q 4550 3538 4550 2338 
Q 4550 1131 3912 565 
Q 3275 0 1925 0 
L 628 0 
L 628 4666 
z
" transform="scale(0.015625)"/>
     <path id="DejaVuSans-63" d="M 3122 3366 
L 3122 2828 
Q 2878 2963 2633 3030 
Q 2388 3097 2138 3097 
Q 1578 3097 1268 2742 
Q 959 2388 959 1747 
Q 959 1106 1268 751 
Q 1578 397 2138 397 
Q 2388 397 2633 464 
Q 2878 531 3122 666 
L 3122 134 
Q 2881 22 2623 -34 
Q 2366 -91 2075 -91 
Q 1284 -91 818 406 
Q 353 903 353 1747 
Q 353 2603 823 3093 
Q 1294 3584 2113 3584 
Q 2378 3584 2631 3529 
Q 2884 3475 3122 3366 
z
" transform="scale(0.015625)"/>
     <path id="DejaVuSans-62" d="M 3116 1747 
Q 3116 2381 2855 2742 
Q 2594 3103 2138 3103 
Q 1681 3103 1420 2742 
Q 1159 2381 1159 1747 
Q 1159 1113 1420 752 
Q 1681 391 2138 391 
Q 2594 391 2855 752 
Q 3116 1113 3116 1747 
z
M 1159 2969 
Q 1341 3281 1617 3432 
Q 1894 3584 2278 3584 
Q 2916 3584 3314 3078 
Q 3713 2572 3713 1747 
Q 3713 922 3314 415 
Q 2916 -91 2278 -91 
Q 1894 -91 1617 61 
Q 1341 213 1159 525 
L 1159 0 
L 581 0 
L 581 4863 
L 1159 4863 
L 1159 2969 
z
" transform="scale(0.015625)"/>
    </defs>
    <use xlink:href="#DejaVuSans-57"/>
    <use xlink:href="#DejaVuSans-65" x="93.001953"/>
    <use xlink:href="#DejaVuSans-61" x="154.525391"/>
    <use xlink:href="#DejaVuSans-74" x="215.804688"/>
    <use xlink:href="#DejaVuSans-68" x="255.013672"/>
    <use xlink:href="#DejaVuSans-65" x="318.392578"/>
    <use xlink:href="#DejaVuSans-72" x="379.916016"/>
    <use xlink:href="#DejaVuSans-20" x="421.029297"/>
    <use xlink:href="#DejaVuSans-64" x="452.816406"/>
    <use xlink:href="#DejaVuSans-61" x="516.292969"/>
    <use xlink:href="#DejaVuSans-74" x="577.572266"/>
    <use xlink:href="#DejaVuSans-61" x="616.78125"/>
    <use xlink:href="#DejaVuSans-20" x="678.060547"/>
    <use xlink:href="#DejaVuSans-2d" x="709.847656"/>
    <use xlink:href="#DejaVuSans-20" x="745.931641"/>
    <use xlink:href="#DejaVuSans-44" x="777.71875"/>
    <use xlink:href="#DejaVuSans-65" x="854.720703"/>
    <use xlink:href="#DejaVuSans-63" x="916.244141"/>
    <use xlink:href="#DejaVuSans-65" x="971.224609"/>
    <use xlink:href="#DejaVuSans-6d" x="1032.748047"/>
    <use xlink:href="#DejaVuSans-62" x="1130.160156"/>
    <use xlink:href="#DejaVuSans-65" x="1193.636719"/>
    <use xlink:href="#DejaVuSans-72" x="1255.160156"/>
    <use xlink:href="#DejaVuSans-20" x="1296.273438"/>
    <use xlink:href="#DejaVuSans-32" x="1328.060547"/>
    <use xlink:href="#DejaVuSans-30" x="1391.683594"/>
    <use xlink:href="#DejaVuSans-32" x="1455.306641"/>
    <use xlink:href="#DejaVuSans-33" x="1518.929688"/>
   </g>
  </g>
 </g>
 <defs>
  <clipPath id="pef66d93422">
   <rect x="51.05" y="32.4" width="430.909857" height="126.110853"/>
  </clipPath>
  <clipPath id="p305d5cc1ec">
   <rect x="51.05" y="176.770853" width="430.909857" height="126.110853"/>
  </clipPath>
  <clipPath id="pa2f2d4b259">
   <rect x="51.05" y="321.141706" width="430.909857" height="126.110853"/>
  </clipPath>
 </defs>
</svg>
