<?xml version="1.0" encoding="utf-8" standalone="no"?>
<!DOCTYPE svg PUBLIC "-//W3C//DTD SVG 1.1//EN"
  "http://www.w3.org/Graphics/SVG/1.1/DTD/svg11.dtd">
<svg xmlns:xlink="http://www.w3.org/1999/xlink" width="432pt" height="288pt" viewBox="0 0 432 288" xmlns="http://www.w3.org/2000/svg" version="1.1">
 <metadata>
  <rdf:RDF xmlns:dc="http://purl.org/dc/elements/1.1/" xmlns:cc="http://creativecommons.org/ns#" xmlns:rdf="http://www.w3.org/1999/02/22-rdf-syntax-ns#">
   <cc:Work>
    <dc:type rdf:resource="http://purl.org/dc/dcmitype/StillImage"/>
    <dc:date>2023-11-06T18:06:38.157520</dc:date>
    <dc:format>image/svg+xml</dc:format>
    <dc:creator>
     <cc:Agent>
      <dc:title>Matplotlib v3.6.3, https://matplotlib.org/</dc:title>
     </cc:Agent>
    </dc:creator>
   </cc:Work>
  </rdf:RDF>
 </metadata>
 <defs>
  <style type="text/css">*{stroke-linejoin: round; stroke-linecap: butt}</style>
 </defs>
 <g id="figure_1">
  <g id="patch_1">
   <path d="M 0 288 
L 432 288 
L 432 0 
L 0 0 
z
" style="fill: #ffffff"/>
  </g>
  <g id="axes_1">
   <g id="patch_2">
    <path d="M 50.925 221.939962 
L 421.2 221.939962 
L 421.2 26.8 
L 50.925 26.8 
z
" style="fill: #ffffff"/>
   </g>
   <g id="matplotlib.axis_1">
    <g id="xtick_1">
     <g id="line2d_1">
      <path d="M 115.255941 221.939962 
L 115.255941 26.8 
" clip-path="url(#p72f30d410f)" style="fill: none; stroke: #b0b0b0; stroke-width: 0.8; stroke-linecap: square"/>
     </g>
     <g id="line2d_2">
      <defs>
       <path id="m694091bd78" d="M 0 0 
L 0 3.5 
" style="stroke: #000000; stroke-width: 0.8"/>
      </defs>
      <g>
       <use xlink:href="#m694091bd78" x="115.255941" y="221.939962" style="stroke: #000000; stroke-width: 0.8"/>
      </g>
     </g>
     <g id="text_1">
      <!-- 2023-11-02 -->
      <g transform="translate(72.691427 275.406821) rotate(-45) scale(0.1 -0.1)">
       <defs>
        <path id="DejaVuSans-32" d="M 1228 531 
L 3431 531 
L 3431 0 
L 469 0 
L 469 531 
Q 828 903 1448 1529 
Q 2069 2156 2228 2338 
Q 2531 2678 2651 2914 
Q 2772 3150 2772 3378 
Q 2772 3750 2511 3984 
Q 2250 4219 1831 4219 
Q 1534 4219 1204 4116 
Q 875 4013 500 3803 
L 500 4441 
Q 881 4594 1212 4672 
Q 1544 4750 1819 4750 
Q 2544 4750 2975 4387 
Q 3406 4025 3406 3419 
Q 3406 3131 3298 2873 
Q 3191 2616 2906 2266 
Q 2828 2175 2409 1742 
Q 1991 1309 1228 531 
z
" transform="scale(0.015625)"/>
        <path id="DejaVuSans-30" d="M 2034 4250 
Q 1547 4250 1301 3770 
Q 1056 3291 1056 2328 
Q 1056 1369 1301 889 
Q 1547 409 2034 409 
Q 2525 409 2770 889 
Q 3016 1369 3016 2328 
Q 3016 3291 2770 3770 
Q 2525 4250 2034 4250 
z
M 2034 4750 
Q 2819 4750 3233 4129 
Q 3647 3509 3647 2328 
Q 3647 1150 3233 529 
Q 2819 -91 2034 -91 
Q 1250 -91 836 529 
Q 422 1150 422 2328 
Q 422 3509 836 4129 
Q 1250 4750 2034 4750 
z
" transform="scale(0.015625)"/>
        <path id="DejaVuSans-33" d="M 2597 2516 
Q 3050 2419 3304 2112 
Q 3559 1806 3559 1356 
Q 3559 666 3084 287 
Q 2609 -91 1734 -91 
Q 1441 -91 1130 -33 
Q 819 25 488 141 
L 488 750 
Q 750 597 1062 519 
Q 1375 441 1716 441 
Q 2309 441 2620 675 
Q 2931 909 2931 1356 
Q 2931 1769 2642 2001 
Q 2353 2234 1838 2234 
L 1294 2234 
L 1294 2753 
L 1863 2753 
Q 2328 2753 2575 2939 
Q 2822 3125 2822 3475 
Q 2822 3834 2567 4026 
Q 2313 4219 1838 4219 
Q 1578 4219 1281 4162 
Q 984 4106 628 3988 
L 628 4550 
Q 988 4650 1302 4700 
Q 1616 4750 1894 4750 
Q 2613 4750 3031 4423 
Q 3450 4097 3450 3541 
Q 3450 3153 3228 2886 
Q 3006 2619 2597 2516 
z
" transform="scale(0.015625)"/>
        <path id="DejaVuSans-2d" d="M 313 2009 
L 1997 2009 
L 1997 1497 
L 313 1497 
L 313 2009 
z
" transform="scale(0.015625)"/>
        <path id="DejaVuSans-31" d="M 794 531 
L 1825 531 
L 1825 4091 
L 703 3866 
L 703 4441 
L 1819 4666 
L 2450 4666 
L 2450 531 
L 3481 531 
L 3481 0 
L 794 0 
L 794 531 
z
" transform="scale(0.015625)"/>
       </defs>
       <use xlink:href="#DejaVuSans-32"/>
       <use xlink:href="#DejaVuSans-30" x="63.623047"/>
       <use xlink:href="#DejaVuSans-32" x="127.246094"/>
       <use xlink:href="#DejaVuSans-33" x="190.869141"/>
       <use xlink:href="#DejaVuSans-2d" x="254.492188"/>
       <use xlink:href="#DejaVuSans-31" x="290.576172"/>
       <use xlink:href="#DejaVuSans-31" x="354.199219"/>
       <use xlink:href="#DejaVuSans-2d" x="417.822266"/>
       <use xlink:href="#DejaVuSans-30" x="453.90625"/>
       <use xlink:href="#DejaVuSans-32" x="517.529297"/>
      </g>
     </g>
    </g>
    <g id="xtick_2">
     <g id="line2d_3">
      <path d="M 179.621124 221.939962 
L 179.621124 26.8 
" clip-path="url(#p72f30d410f)" style="fill: none; stroke: #b0b0b0; stroke-width: 0.8; stroke-linecap: square"/>
     </g>
     <g id="line2d_4">
      <g>
       <use xlink:href="#m694091bd78" x="179.621124" y="221.939962" style="stroke: #000000; stroke-width: 0.8"/>
      </g>
     </g>
     <g id="text_2">
      <!-- 2023-11-03 -->
      <g transform="translate(137.05661 275.406821) rotate(-45) scale(0.1 -0.1)">
       <use xlink:href="#DejaVuSans-32"/>
       <use xlink:href="#DejaVuSans-30" x="63.623047"/>
       <use xlink:href="#DejaVuSans-32" x="127.246094"/>
       <use xlink:href="#DejaVuSans-33" x="190.869141"/>
       <use xlink:href="#DejaVuSans-2d" x="254.492188"/>
       <use xlink:href="#DejaVuSans-31" x="290.576172"/>
       <use xlink:href="#DejaVuSans-31" x="354.199219"/>
       <use xlink:href="#DejaVuSans-2d" x="417.822266"/>
       <use xlink:href="#DejaVuSans-30" x="453.90625"/>
       <use xlink:href="#DejaVuSans-33" x="517.529297"/>
      </g>
     </g>
    </g>
    <g id="xtick_3">
     <g id="line2d_5">
      <path d="M 243.986307 221.939962 
L 243.986307 26.8 
" clip-path="url(#p72f30d410f)" style="fill: none; stroke: #b0b0b0; stroke-width: 0.8; stroke-linecap: square"/>
     </g>
     <g id="line2d_6">
      <g>
       <use xlink:href="#m694091bd78" x="243.986307" y="221.939962" style="stroke: #000000; stroke-width: 0.8"/>
      </g>
     </g>
     <g id="text_3">
      <!-- 2023-11-04 -->
      <g transform="translate(201.421794 275.406821) rotate(-45) scale(0.1 -0.1)">
       <defs>
        <path id="DejaVuSans-34" d="M 2419 4116 
L 825 1625 
L 2419 1625 
L 2419 4116 
z
M 2253 4666 
L 3047 4666 
L 3047 1625 
L 3713 1625 
L 3713 1100 
L 3047 1100 
L 3047 0 
L 2419 0 
L 2419 1100 
L 313 1100 
L 313 1709 
L 2253 4666 
z
" transform="scale(0.015625)"/>
       </defs>
       <use xlink:href="#DejaVuSans-32"/>
       <use xlink:href="#DejaVuSans-30" x="63.623047"/>
       <use xlink:href="#DejaVuSans-32" x="127.246094"/>
       <use xlink:href="#DejaVuSans-33" x="190.869141"/>
       <use xlink:href="#DejaVuSans-2d" x="254.492188"/>
       <use xlink:href="#DejaVuSans-31" x="290.576172"/>
       <use xlink:href="#DejaVuSans-31" x="354.199219"/>
       <use xlink:href="#DejaVuSans-2d" x="417.822266"/>
       <use xlink:href="#DejaVuSans-30" x="453.90625"/>
       <use xlink:href="#DejaVuSans-34" x="517.529297"/>
      </g>
     </g>
    </g>
    <g id="xtick_4">
     <g id="line2d_7">
      <path d="M 308.351491 221.939962 
L 308.351491 26.8 
" clip-path="url(#p72f30d410f)" style="fill: none; stroke: #b0b0b0; stroke-width: 0.8; stroke-linecap: square"/>
     </g>
     <g id="line2d_8">
      <g>
       <use xlink:href="#m694091bd78" x="308.351491" y="221.939962" style="stroke: #000000; stroke-width: 0.8"/>
      </g>
     </g>
     <g id="text_4">
      <!-- 2023-11-05 -->
      <g transform="translate(265.786977 275.406821) rotate(-45) scale(0.1 -0.1)">
       <defs>
        <path id="DejaVuSans-35" d="M 691 4666 
L 3169 4666 
L 3169 4134 
L 1269 4134 
L 1269 2991 
Q 1406 3038 1543 3061 
Q 1681 3084 1819 3084 
Q 2600 3084 3056 2656 
Q 3513 2228 3513 1497 
Q 3513 744 3044 326 
Q 2575 -91 1722 -91 
Q 1428 -91 1123 -41 
Q 819 9 494 109 
L 494 744 
Q 775 591 1075 516 
Q 1375 441 1709 441 
Q 2250 441 2565 725 
Q 2881 1009 2881 1497 
Q 2881 1984 2565 2268 
Q 2250 2553 1709 2553 
Q 1456 2553 1204 2497 
Q 953 2441 691 2322 
L 691 4666 
z
" transform="scale(0.015625)"/>
       </defs>
       <use xlink:href="#DejaVuSans-32"/>
       <use xlink:href="#DejaVuSans-30" x="63.623047"/>
       <use xlink:href="#DejaVuSans-32" x="127.246094"/>
       <use xlink:href="#DejaVuSans-33" x="190.869141"/>
       <use xlink:href="#DejaVuSans-2d" x="254.492188"/>
       <use xlink:href="#DejaVuSans-31" x="290.576172"/>
       <use xlink:href="#DejaVuSans-31" x="354.199219"/>
       <use xlink:href="#DejaVuSans-2d" x="417.822266"/>
       <use xlink:href="#DejaVuSans-30" x="453.90625"/>
       <use xlink:href="#DejaVuSans-35" x="517.529297"/>
      </g>
     </g>
    </g>
    <g id="xtick_5">
     <g id="line2d_9">
      <path d="M 372.716674 221.939962 
L 372.716674 26.8 
" clip-path="url(#p72f30d410f)" style="fill: none; stroke: #b0b0b0; stroke-width: 0.8; stroke-linecap: square"/>
     </g>
     <g id="line2d_10">
      <g>
       <use xlink:href="#m694091bd78" x="372.716674" y="221.939962" style="stroke: #000000; stroke-width: 0.8"/>
      </g>
     </g>
     <g id="text_5">
      <!-- 2023-11-06 -->
      <g transform="translate(330.152161 275.406821) rotate(-45) scale(0.1 -0.1)">
       <defs>
        <path id="DejaVuSans-36" d="M 2113 2584 
Q 1688 2584 1439 2293 
Q 1191 2003 1191 1497 
Q 1191 994 1439 701 
Q 1688 409 2113 409 
Q 2538 409 2786 701 
Q 3034 994 3034 1497 
Q 3034 2003 2786 2293 
Q 2538 2584 2113 2584 
z
M 3366 4563 
L 3366 3988 
Q 3128 4100 2886 4159 
Q 2644 4219 2406 4219 
Q 1781 4219 1451 3797 
Q 1122 3375 1075 2522 
Q 1259 2794 1537 2939 
Q 1816 3084 2150 3084 
Q 2853 3084 3261 2657 
Q 3669 2231 3669 1497 
Q 3669 778 3244 343 
Q 2819 -91 2113 -91 
Q 1303 -91 875 529 
Q 447 1150 447 2328 
Q 447 3434 972 4092 
Q 1497 4750 2381 4750 
Q 2619 4750 2861 4703 
Q 3103 4656 3366 4563 
z
" transform="scale(0.015625)"/>
       </defs>
       <use xlink:href="#DejaVuSans-32"/>
       <use xlink:href="#DejaVuSans-30" x="63.623047"/>
       <use xlink:href="#DejaVuSans-32" x="127.246094"/>
       <use xlink:href="#DejaVuSans-33" x="190.869141"/>
       <use xlink:href="#DejaVuSans-2d" x="254.492188"/>
       <use xlink:href="#DejaVuSans-31" x="290.576172"/>
       <use xlink:href="#DejaVuSans-31" x="354.199219"/>
       <use xlink:href="#DejaVuSans-2d" x="417.822266"/>
       <use xlink:href="#DejaVuSans-30" x="453.90625"/>
       <use xlink:href="#DejaVuSans-36" x="517.529297"/>
      </g>
     </g>
    </g>
   </g>
   <g id="matplotlib.axis_2">
    <g id="ytick_1">
     <g id="line2d_11">
      <path d="M 50.925 218.724146 
L 421.2 218.724146 
" clip-path="url(#p72f30d410f)" style="fill: none; stroke: #b0b0b0; stroke-width: 0.8; stroke-linecap: square"/>
     </g>
     <g id="line2d_12">
      <defs>
       <path id="md58268e3e4" d="M 0 0 
L -3.5 0 
" style="stroke: #000000; stroke-width: 0.8"/>
      </defs>
      <g>
       <use xlink:href="#md58268e3e4" x="50.925" y="218.724146" style="stroke: #000000; stroke-width: 0.8"/>
      </g>
     </g>
     <g id="text_6">
      <!-- 330 -->
      <g transform="translate(24.8375 222.523365) scale(0.1 -0.1)">
       <use xlink:href="#DejaVuSans-33"/>
       <use xlink:href="#DejaVuSans-33" x="63.623047"/>
       <use xlink:href="#DejaVuSans-30" x="127.246094"/>
      </g>
     </g>
    </g>
    <g id="ytick_2">
     <g id="line2d_13">
      <path d="M 50.925 195.165054 
L 421.2 195.165054 
" clip-path="url(#p72f30d410f)" style="fill: none; stroke: #b0b0b0; stroke-width: 0.8; stroke-linecap: square"/>
     </g>
     <g id="line2d_14">
      <g>
       <use xlink:href="#md58268e3e4" x="50.925" y="195.165054" style="stroke: #000000; stroke-width: 0.8"/>
      </g>
     </g>
     <g id="text_7">
      <!-- 340 -->
      <g transform="translate(24.8375 198.964272) scale(0.1 -0.1)">
       <use xlink:href="#DejaVuSans-33"/>
       <use xlink:href="#DejaVuSans-34" x="63.623047"/>
       <use xlink:href="#DejaVuSans-30" x="127.246094"/>
      </g>
     </g>
    </g>
    <g id="ytick_3">
     <g id="line2d_15">
      <path d="M 50.925 171.605961 
L 421.2 171.605961 
" clip-path="url(#p72f30d410f)" style="fill: none; stroke: #b0b0b0; stroke-width: 0.8; stroke-linecap: square"/>
     </g>
     <g id="line2d_16">
      <g>
       <use xlink:href="#md58268e3e4" x="50.925" y="171.605961" style="stroke: #000000; stroke-width: 0.8"/>
      </g>
     </g>
     <g id="text_8">
      <!-- 350 -->
      <g transform="translate(24.8375 175.40518) scale(0.1 -0.1)">
       <use xlink:href="#DejaVuSans-33"/>
       <use xlink:href="#DejaVuSans-35" x="63.623047"/>
       <use xlink:href="#DejaVuSans-30" x="127.246094"/>
      </g>
     </g>
    </g>
    <g id="ytick_4">
     <g id="line2d_17">
      <path d="M 50.925 148.046869 
L 421.2 148.046869 
" clip-path="url(#p72f30d410f)" style="fill: none; stroke: #b0b0b0; stroke-width: 0.8; stroke-linecap: square"/>
     </g>
     <g id="line2d_18">
      <g>
       <use xlink:href="#md58268e3e4" x="50.925" y="148.046869" style="stroke: #000000; stroke-width: 0.8"/>
      </g>
     </g>
     <g id="text_9">
      <!-- 360 -->
      <g transform="translate(24.8375 151.846088) scale(0.1 -0.1)">
       <use xlink:href="#DejaVuSans-33"/>
       <use xlink:href="#DejaVuSans-36" x="63.623047"/>
       <use xlink:href="#DejaVuSans-30" x="127.246094"/>
      </g>
     </g>
    </g>
    <g id="ytick_5">
     <g id="line2d_19">
      <path d="M 50.925 124.487777 
L 421.2 124.487777 
" clip-path="url(#p72f30d410f)" style="fill: none; stroke: #b0b0b0; stroke-width: 0.8; stroke-linecap: square"/>
     </g>
     <g id="line2d_20">
      <g>
       <use xlink:href="#md58268e3e4" x="50.925" y="124.487777" style="stroke: #000000; stroke-width: 0.8"/>
      </g>
     </g>
     <g id="text_10">
      <!-- 370 -->
      <g transform="translate(24.8375 128.286995) scale(0.1 -0.1)">
       <defs>
        <path id="DejaVuSans-37" d="M 525 4666 
L 3525 4666 
L 3525 4397 
L 1831 0 
L 1172 0 
L 2766 4134 
L 525 4134 
L 525 4666 
z
" transform="scale(0.015625)"/>
       </defs>
       <use xlink:href="#DejaVuSans-33"/>
       <use xlink:href="#DejaVuSans-37" x="63.623047"/>
       <use xlink:href="#DejaVuSans-30" x="127.246094"/>
      </g>
     </g>
    </g>
    <g id="ytick_6">
     <g id="line2d_21">
      <path d="M 50.925 100.928684 
L 421.2 100.928684 
" clip-path="url(#p72f30d410f)" style="fill: none; stroke: #b0b0b0; stroke-width: 0.8; stroke-linecap: square"/>
     </g>
     <g id="line2d_22">
      <g>
       <use xlink:href="#md58268e3e4" x="50.925" y="100.928684" style="stroke: #000000; stroke-width: 0.8"/>
      </g>
     </g>
     <g id="text_11">
      <!-- 380 -->
      <g transform="translate(24.8375 104.727903) scale(0.1 -0.1)">
       <defs>
        <path id="DejaVuSans-38" d="M 2034 2216 
Q 1584 2216 1326 1975 
Q 1069 1734 1069 1313 
Q 1069 891 1326 650 
Q 1584 409 2034 409 
Q 2484 409 2743 651 
Q 3003 894 3003 1313 
Q 3003 1734 2745 1975 
Q 2488 2216 2034 2216 
z
M 1403 2484 
Q 997 2584 770 2862 
Q 544 3141 544 3541 
Q 544 4100 942 4425 
Q 1341 4750 2034 4750 
Q 2731 4750 3128 4425 
Q 3525 4100 3525 3541 
Q 3525 3141 3298 2862 
Q 3072 2584 2669 2484 
Q 3125 2378 3379 2068 
Q 3634 1759 3634 1313 
Q 3634 634 3220 271 
Q 2806 -91 2034 -91 
Q 1263 -91 848 271 
Q 434 634 434 1313 
Q 434 1759 690 2068 
Q 947 2378 1403 2484 
z
M 1172 3481 
Q 1172 3119 1398 2916 
Q 1625 2713 2034 2713 
Q 2441 2713 2670 2916 
Q 2900 3119 2900 3481 
Q 2900 3844 2670 4047 
Q 2441 4250 2034 4250 
Q 1625 4250 1398 4047 
Q 1172 3844 1172 3481 
z
" transform="scale(0.015625)"/>
       </defs>
       <use xlink:href="#DejaVuSans-33"/>
       <use xlink:href="#DejaVuSans-38" x="63.623047"/>
       <use xlink:href="#DejaVuSans-30" x="127.246094"/>
      </g>
     </g>
    </g>
    <g id="ytick_7">
     <g id="line2d_23">
      <path d="M 50.925 77.369592 
L 421.2 77.369592 
" clip-path="url(#p72f30d410f)" style="fill: none; stroke: #b0b0b0; stroke-width: 0.8; stroke-linecap: square"/>
     </g>
     <g id="line2d_24">
      <g>
       <use xlink:href="#md58268e3e4" x="50.925" y="77.369592" style="stroke: #000000; stroke-width: 0.8"/>
      </g>
     </g>
     <g id="text_12">
      <!-- 390 -->
      <g transform="translate(24.8375 81.168811) scale(0.1 -0.1)">
       <defs>
        <path id="DejaVuSans-39" d="M 703 97 
L 703 672 
Q 941 559 1184 500 
Q 1428 441 1663 441 
Q 2288 441 2617 861 
Q 2947 1281 2994 2138 
Q 2813 1869 2534 1725 
Q 2256 1581 1919 1581 
Q 1219 1581 811 2004 
Q 403 2428 403 3163 
Q 403 3881 828 4315 
Q 1253 4750 1959 4750 
Q 2769 4750 3195 4129 
Q 3622 3509 3622 2328 
Q 3622 1225 3098 567 
Q 2575 -91 1691 -91 
Q 1453 -91 1209 -44 
Q 966 3 703 97 
z
M 1959 2075 
Q 2384 2075 2632 2365 
Q 2881 2656 2881 3163 
Q 2881 3666 2632 3958 
Q 2384 4250 1959 4250 
Q 1534 4250 1286 3958 
Q 1038 3666 1038 3163 
Q 1038 2656 1286 2365 
Q 1534 2075 1959 2075 
z
" transform="scale(0.015625)"/>
       </defs>
       <use xlink:href="#DejaVuSans-33"/>
       <use xlink:href="#DejaVuSans-39" x="63.623047"/>
       <use xlink:href="#DejaVuSans-30" x="127.246094"/>
      </g>
     </g>
    </g>
    <g id="ytick_8">
     <g id="line2d_25">
      <path d="M 50.925 53.810499 
L 421.2 53.810499 
" clip-path="url(#p72f30d410f)" style="fill: none; stroke: #b0b0b0; stroke-width: 0.8; stroke-linecap: square"/>
     </g>
     <g id="line2d_26">
      <g>
       <use xlink:href="#md58268e3e4" x="50.925" y="53.810499" style="stroke: #000000; stroke-width: 0.8"/>
      </g>
     </g>
     <g id="text_13">
      <!-- 400 -->
      <g transform="translate(24.8375 57.609718) scale(0.1 -0.1)">
       <use xlink:href="#DejaVuSans-34"/>
       <use xlink:href="#DejaVuSans-30" x="63.623047"/>
       <use xlink:href="#DejaVuSans-30" x="127.246094"/>
      </g>
     </g>
    </g>
    <g id="ytick_9">
     <g id="line2d_27">
      <path d="M 50.925 30.251407 
L 421.2 30.251407 
" clip-path="url(#p72f30d410f)" style="fill: none; stroke: #b0b0b0; stroke-width: 0.8; stroke-linecap: square"/>
     </g>
     <g id="line2d_28">
      <g>
       <use xlink:href="#md58268e3e4" x="50.925" y="30.251407" style="stroke: #000000; stroke-width: 0.8"/>
      </g>
     </g>
     <g id="text_14">
      <!-- 410 -->
      <g transform="translate(24.8375 34.050626) scale(0.1 -0.1)">
       <use xlink:href="#DejaVuSans-34"/>
       <use xlink:href="#DejaVuSans-31" x="63.623047"/>
       <use xlink:href="#DejaVuSans-30" x="127.246094"/>
      </g>
     </g>
    </g>
    <g id="text_15">
     <!-- Rain [mm] -->
     <g transform="translate(18.757812 150.584825) rotate(-90) scale(0.1 -0.1)">
      <defs>
       <path id="DejaVuSans-52" d="M 2841 2188 
Q 3044 2119 3236 1894 
Q 3428 1669 3622 1275 
L 4263 0 
L 3584 0 
L 2988 1197 
Q 2756 1666 2539 1819 
Q 2322 1972 1947 1972 
L 1259 1972 
L 1259 0 
L 628 0 
L 628 4666 
L 2053 4666 
Q 2853 4666 3247 4331 
Q 3641 3997 3641 3322 
Q 3641 2881 3436 2590 
Q 3231 2300 2841 2188 
z
M 1259 4147 
L 1259 2491 
L 2053 2491 
Q 2509 2491 2742 2702 
Q 2975 2913 2975 3322 
Q 2975 3731 2742 3939 
Q 2509 4147 2053 4147 
L 1259 4147 
z
" transform="scale(0.015625)"/>
       <path id="DejaVuSans-61" d="M 2194 1759 
Q 1497 1759 1228 1600 
Q 959 1441 959 1056 
Q 959 750 1161 570 
Q 1363 391 1709 391 
Q 2188 391 2477 730 
Q 2766 1069 2766 1631 
L 2766 1759 
L 2194 1759 
z
M 3341 1997 
L 3341 0 
L 2766 0 
L 2766 531 
Q 2569 213 2275 61 
Q 1981 -91 1556 -91 
Q 1019 -91 701 211 
Q 384 513 384 1019 
Q 384 1609 779 1909 
Q 1175 2209 1959 2209 
L 2766 2209 
L 2766 2266 
Q 2766 2663 2505 2880 
Q 2244 3097 1772 3097 
Q 1472 3097 1187 3025 
Q 903 2953 641 2809 
L 641 3341 
Q 956 3463 1253 3523 
Q 1550 3584 1831 3584 
Q 2591 3584 2966 3190 
Q 3341 2797 3341 1997 
z
" transform="scale(0.015625)"/>
       <path id="DejaVuSans-69" d="M 603 3500 
L 1178 3500 
L 1178 0 
L 603 0 
L 603 3500 
z
M 603 4863 
L 1178 4863 
L 1178 4134 
L 603 4134 
L 603 4863 
z
" transform="scale(0.015625)"/>
       <path id="DejaVuSans-6e" d="M 3513 2113 
L 3513 0 
L 2938 0 
L 2938 2094 
Q 2938 2591 2744 2837 
Q 2550 3084 2163 3084 
Q 1697 3084 1428 2787 
Q 1159 2491 1159 1978 
L 1159 0 
L 581 0 
L 581 3500 
L 1159 3500 
L 1159 2956 
Q 1366 3272 1645 3428 
Q 1925 3584 2291 3584 
Q 2894 3584 3203 3211 
Q 3513 2838 3513 2113 
z
" transform="scale(0.015625)"/>
       <path id="DejaVuSans-20" transform="scale(0.015625)"/>
       <path id="DejaVuSans-5b" d="M 550 4863 
L 1875 4863 
L 1875 4416 
L 1125 4416 
L 1125 -397 
L 1875 -397 
L 1875 -844 
L 550 -844 
L 550 4863 
z
" transform="scale(0.015625)"/>
       <path id="DejaVuSans-6d" d="M 3328 2828 
Q 3544 3216 3844 3400 
Q 4144 3584 4550 3584 
Q 5097 3584 5394 3201 
Q 5691 2819 5691 2113 
L 5691 0 
L 5113 0 
L 5113 2094 
Q 5113 2597 4934 2840 
Q 4756 3084 4391 3084 
Q 3944 3084 3684 2787 
Q 3425 2491 3425 1978 
L 3425 0 
L 2847 0 
L 2847 2094 
Q 2847 2600 2669 2842 
Q 2491 3084 2119 3084 
Q 1678 3084 1418 2786 
Q 1159 2488 1159 1978 
L 1159 0 
L 581 0 
L 581 3500 
L 1159 3500 
L 1159 2956 
Q 1356 3278 1631 3431 
Q 1906 3584 2284 3584 
Q 2666 3584 2933 3390 
Q 3200 3197 3328 2828 
z
" transform="scale(0.015625)"/>
       <path id="DejaVuSans-5d" d="M 1947 4863 
L 1947 -844 
L 622 -844 
L 622 -397 
L 1369 -397 
L 1369 4416 
L 622 4416 
L 622 4863 
L 1947 4863 
z
" transform="scale(0.015625)"/>
      </defs>
      <use xlink:href="#DejaVuSans-52"/>
      <use xlink:href="#DejaVuSans-61" x="67.232422"/>
      <use xlink:href="#DejaVuSans-69" x="128.511719"/>
      <use xlink:href="#DejaVuSans-6e" x="156.294922"/>
      <use xlink:href="#DejaVuSans-20" x="219.673828"/>
      <use xlink:href="#DejaVuSans-5b" x="251.460938"/>
      <use xlink:href="#DejaVuSans-6d" x="290.474609"/>
      <use xlink:href="#DejaVuSans-6d" x="387.886719"/>
      <use xlink:href="#DejaVuSans-5d" x="485.298828"/>
     </g>
    </g>
   </g>
   <g id="line2d_29">
    <path d="M 50.925 213.069964 
L 102.273682 213.069964 
L 102.416678 212.363191 
L 102.488147 212.363191 
L 102.631099 211.656418 
L 102.881274 211.656418 
L 103.024304 210.949646 
L 103.810977 210.949646 
L 103.989937 210.242873 
L 104.097044 210.242873 
L 104.240074 209.5361 
L 104.454622 209.5361 
L 104.597655 208.829327 
L 104.740689 208.829327 
L 104.883717 208.122555 
L 105.169781 208.122555 
L 105.348773 207.415782 
L 105.849511 207.415782 
L 105.992354 206.709009 
L 107.029194 206.709009 
L 107.172228 206.002236 
L 108.960121 206.002236 
L 109.103154 205.295463 
L 110.676501 205.295463 
L 110.819537 204.588691 
L 111.570719 204.588691 
L 111.713763 203.881918 
L 114.860418 203.881918 
L 115.003498 203.175145 
L 118.257215 203.175145 
L 118.400244 202.468372 
L 120.939256 202.468372 
L 121.08229 201.7616 
L 130.164778 201.7616 
L 130.308009 201.054827 
L 131.487694 201.054827 
L 131.630726 200.348054 
L 132.882445 200.348054 
L 133.025564 199.641281 
L 134.455924 199.641281 
L 134.598932 198.934508 
L 136.422286 198.934508 
L 136.56532 198.227736 
L 137.423932 198.227736 
L 137.602473 197.520963 
L 138.49626 197.520963 
L 138.639291 196.81419 
L 139.139902 196.81419 
L 139.282935 196.107417 
L 139.819595 196.107417 
L 139.96257 195.400645 
L 140.892111 195.400645 
L 141.035345 194.693872 
L 141.857507 194.693872 
L 142.000539 193.987099 
L 142.394158 193.987099 
L 142.537143 193.280326 
L 142.787215 193.280326 
L 142.966201 192.573554 
L 143.287825 192.573554 
L 143.430858 191.866781 
L 143.716922 191.866781 
L 143.895962 191.160008 
L 144.253365 191.160008 
L 144.396604 190.453235 
L 144.611168 190.453235 
L 144.754189 189.746462 
L 144.932695 189.746462 
L 145.075732 189.03969 
L 145.218764 189.03969 
L 145.361793 188.332917 
L 145.505176 188.332917 
L 145.68388 187.626144 
L 145.862405 187.626144 
L 146.005437 186.919371 
L 146.399016 186.919371 
L 146.542032 186.212599 
L 146.935148 186.212599 
L 147.078182 185.505826 
L 147.328737 185.505826 
L 147.471769 184.799053 
L 147.578797 184.799053 
L 147.721829 184.09228 
L 147.864864 184.09228 
L 148.007893 183.385508 
L 148.150925 183.385508 
L 148.329894 182.678735 
L 148.43699 182.678735 
L 148.580029 181.971962 
L 148.651546 181.971962 
L 148.794576 181.265189 
L 148.866449 181.265189 
L 149.045155 180.558416 
L 149.116702 180.558416 
L 149.259723 179.851644 
L 149.474271 179.851644 
L 149.617063 179.144871 
L 149.76031 179.144871 
L 149.90321 178.438098 
L 150.046389 178.438098 
L 150.189372 177.731325 
L 150.225288 177.731325 
L 150.367938 177.024553 
L 150.475492 177.024553 
L 150.618524 176.31778 
L 150.690024 176.31778 
L 150.833054 175.611007 
L 150.940072 175.611007 
L 151.083102 174.904234 
L 151.262158 174.904234 
L 151.405189 174.197461 
L 151.619497 174.197461 
L 151.762797 173.490689 
L 151.905752 173.490689 
L 152.048845 172.783916 
L 152.227743 172.783916 
L 152.40643 172.077143 
L 152.513419 172.077143 
L 152.656451 171.37037 
L 152.942498 171.37037 
L 153.085551 170.663598 
L 153.22858 170.663598 
L 153.37161 169.956825 
L 153.550659 169.956825 
L 153.693592 169.250052 
L 153.765254 169.250052 
L 153.908168 168.543279 
L 153.97978 168.543279 
L 154.122764 167.836507 
L 154.230224 167.836507 
L 154.40875 167.129734 
L 154.444352 167.129734 
L 154.587383 166.422961 
L 154.658899 166.422961 
L 154.801928 165.716188 
L 154.837921 165.716188 
L 154.980757 165.009415 
L 155.016478 165.009415 
L 155.159509 164.302643 
L 155.266987 164.302643 
L 155.410053 163.59587 
L 155.445574 163.59587 
L 155.589068 162.889097 
L 155.839251 161.475552 
L 155.910678 161.475552 
L 156.089215 160.062006 
L 156.232249 160.062006 
L 156.411274 159.355233 
L 156.482831 159.355233 
L 156.661345 157.941688 
L 156.768822 157.941688 
L 156.875892 157.234915 
L 157.018926 157.234915 
L 157.161958 156.528142 
L 157.198017 156.528142 
L 157.376509 155.114597 
L 157.51954 155.114597 
L 157.66257 154.407824 
L 157.770112 154.407824 
L 157.913116 153.701051 
L 157.948631 153.701051 
L 158.163182 151.580733 
L 158.234698 151.580733 
L 158.485193 150.167187 
L 158.520764 150.167187 
L 158.663795 149.460414 
L 158.699797 149.460414 
L 158.842879 148.753642 
L 158.9856 148.753642 
L 159.164405 147.340096 
L 159.343497 147.340096 
L 159.486481 146.633323 
L 159.593498 146.633323 
L 159.772511 145.926551 
L 159.879565 145.926551 
L 160.058592 144.513005 
L 160.165634 144.513005 
L 160.34444 143.09946 
L 160.594728 143.09946 
L 160.737761 142.392687 
L 160.773795 142.392687 
L 160.91682 141.685914 
L 161.023826 141.685914 
L 161.166857 140.979141 
L 161.202781 140.979141 
L 161.345781 140.272368 
L 161.38141 140.272368 
L 161.524438 139.565596 
L 161.703277 139.565596 
L 161.846487 138.858823 
L 161.989537 138.858823 
L 162.132586 138.15205 
L 162.204096 138.15205 
L 162.346856 137.445277 
L 162.418531 137.445277 
L 162.561577 136.738505 
L 162.776248 136.738505 
L 162.919211 136.031732 
L 163.062111 136.031732 
L 163.205383 135.324959 
L 163.312347 135.324959 
L 163.45538 134.618186 
L 163.526895 134.618186 
L 163.705695 133.204641 
L 163.812961 133.204641 
L 163.955996 132.497868 
L 163.991931 132.497868 
L 164.135083 131.791095 
L 164.206548 131.791095 
L 164.385093 130.37755 
L 164.528126 130.37755 
L 164.671159 129.670777 
L 164.778693 129.670777 
L 164.921688 128.964004 
L 164.957225 128.964004 
L 165.136212 128.257231 
L 165.171773 128.257231 
L 165.314806 127.550459 
L 165.386323 127.550459 
L 165.565394 126.136913 
L 165.743902 126.136913 
L 165.88694 125.43014 
L 165.922959 125.43014 
L 166.066017 124.723367 
L 166.137412 124.723367 
L 166.316038 123.309822 
L 166.566648 123.309822 
L 166.709663 122.603049 
L 166.781158 122.603049 
L 166.924173 121.896276 
L 167.102713 121.896276 
L 167.245746 121.189504 
L 167.460298 121.189504 
L 167.60333 120.482731 
L 167.639339 120.482731 
L 167.78222 119.775958 
L 167.853896 119.775958 
L 167.996847 119.069185 
L 168.175459 119.069185 
L 168.318489 118.362413 
L 168.425803 118.362413 
L 168.569099 117.65564 
L 168.640614 117.65564 
L 168.819104 116.242094 
L 169.248204 116.242094 
L 169.391235 115.535321 
L 169.462749 115.535321 
L 169.605784 114.828549 
L 169.677303 114.828549 
L 169.856315 114.121776 
L 169.999417 114.121776 
L 170.142436 113.415003 
L 170.571533 113.415003 
L 170.714478 112.70823 
L 171.000563 112.70823 
L 171.143479 112.001458 
L 171.572785 112.001458 
L 171.679756 111.294685 
L 171.894304 111.294685 
L 172.037338 110.587912 
L 172.216327 110.587912 
L 172.359326 109.881139 
L 179.761079 109.881139 
L 179.940103 109.174367 
L 180.04714 109.174367 
L 180.190175 108.467594 
L 180.333207 108.467594 
L 180.476684 107.760821 
L 180.583686 107.760821 
L 180.726775 107.054048 
L 180.869873 107.054048 
L 181.012869 106.347275 
L 181.120346 106.347275 
L 181.298944 105.640503 
L 181.477467 105.640503 
L 181.620498 104.93373 
L 181.763531 104.93373 
L 181.942525 104.226957 
L 182.157103 104.226957 
L 182.300061 103.520184 
L 182.443243 103.520184 
L 182.586106 102.813412 
L 182.836273 102.813412 
L 182.979307 102.106639 
L 183.122338 102.106639 
L 183.301364 101.399866 
L 183.336887 101.399866 
L 183.47992 100.693093 
L 183.765985 100.693093 
L 183.944947 99.98632 
L 184.481476 99.98632 
L 184.660169 99.279548 
L 188.128469 99.279548 
L 188.271502 98.572775 
L 188.414532 98.572775 
L 188.557923 97.866002 
L 188.772118 97.866002 
L 188.915146 97.159229 
L 189.094175 97.159229 
L 189.236965 96.452457 
L 189.451727 96.452457 
L 189.594775 95.745684 
L 189.666322 95.745684 
L 189.809325 95.038911 
L 189.845226 95.038911 
L 190.023852 94.332138 
L 190.238471 94.332138 
L 190.381458 93.625366 
L 190.595804 93.625366 
L 190.739076 92.918593 
L 191.060629 92.918593 
L 191.20405 92.21182 
L 191.38273 92.21182 
L 191.525738 91.505047 
L 192.526878 91.505047 
L 192.669899 90.798274 
L 192.991571 90.798274 
L 193.134604 90.091502 
L 193.349155 90.091502 
L 193.492184 89.384729 
L 193.528107 89.384729 
L 193.706732 87.971183 
L 193.814236 87.971183 
L 194.028736 85.850865 
L 194.135826 85.850865 
L 194.27886 85.144092 
L 194.314865 85.144092 
L 194.493408 83.730547 
L 194.636441 83.730547 
L 194.779474 83.023774 
L 194.815421 83.023774 
L 194.958484 82.317001 
L 195.101608 82.317001 
L 195.28057 80.903456 
L 195.315898 80.903456 
L 195.494634 79.48991 
L 195.566153 79.48991 
L 195.745055 78.076365 
L 195.780699 78.076365 
L 195.924185 77.369592 
L 195.995247 77.369592 
L 196.138277 76.662819 
L 196.424343 76.662819 
L 196.567377 75.956046 
L 196.746406 75.249273 
L 196.781928 75.249273 
L 196.924961 74.542501 
L 197.139503 74.542501 
L 197.28286 73.835728 
L 210.012437 73.835728 
L 210.191453 73.128955 
L 294.25868 73.128955 
L 294.401712 72.422182 
L 297.61995 72.422182 
L 297.762985 71.71541 
L 298.907247 71.71541 
L 299.050279 71.008637 
L 299.765443 71.008637 
L 299.908475 70.301864 
L 300.623638 70.301864 
L 300.767095 69.595091 
L 301.410735 69.595091 
L 301.589375 68.888319 
L 302.161301 68.888319 
L 302.304428 68.181546 
L 329.659357 68.181546 
L 329.802391 67.474773 
L 330.517556 67.474773 
L 330.660588 66.768 
L 331.304236 66.768 
L 331.447273 66.061227 
L 331.983938 66.061227 
L 332.127012 65.354455 
L 332.734562 65.354455 
L 332.877597 64.647682 
L 333.235182 64.647682 
L 333.378211 63.940909 
L 333.664277 63.940909 
L 333.807751 63.234136 
L 334.200944 63.234136 
L 334.343962 62.527364 
L 334.773058 62.527364 
L 334.916029 61.820591 
L 335.345134 61.820591 
L 335.488179 61.113818 
L 335.952801 61.113818 
L 336.095835 60.407045 
L 336.453417 60.407045 
L 336.632412 59.700273 
L 336.88251 59.700273 
L 337.025544 58.9935 
L 337.275993 58.9935 
L 337.419145 58.286727 
L 337.490654 58.286727 
L 337.633556 57.579954 
L 337.883735 57.579954 
L 338.02677 56.873181 
L 338.134366 56.873181 
L 338.277344 56.166409 
L 338.312837 56.166409 
L 338.455865 55.459636 
L 338.563154 55.459636 
L 338.706414 54.752863 
L 338.777949 54.752863 
L 338.920974 54.04609 
L 338.956478 54.04609 
L 339.135576 52.632545 
L 339.242547 52.632545 
L 339.385576 51.925772 
L 339.421592 51.925772 
L 339.600122 50.512226 
L 339.636198 50.512226 
L 339.814671 49.098681 
L 340.351269 44.858044 
L 340.386798 44.858044 
L 340.601344 42.737726 
L 340.672863 42.737726 
L 340.887408 40.617408 
L 340.958929 40.617408 
L 341.138019 39.203862 
L 341.173473 39.203862 
L 341.424036 37.790317 
L 341.459537 37.790317 
L 341.638545 36.376771 
L 341.817119 36.376771 
L 341.996076 35.669998 
L 421.2 35.669998 
L 421.2 35.669998 
" clip-path="url(#p72f30d410f)" style="fill: none; stroke: #9467bd; stroke-width: 1.5; stroke-linecap: square"/>
   </g>
   <g id="patch_3">
    <path d="M 50.925 221.939962 
L 50.925 26.8 
" style="fill: none; stroke: #000000; stroke-width: 0.8; stroke-linejoin: miter; stroke-linecap: square"/>
   </g>
   <g id="patch_4">
    <path d="M 421.2 221.939962 
L 421.2 26.8 
" style="fill: none; stroke: #000000; stroke-width: 0.8; stroke-linejoin: miter; stroke-linecap: square"/>
   </g>
   <g id="patch_5">
    <path d="M 50.925 221.939962 
L 421.2 221.939962 
" style="fill: none; stroke: #000000; stroke-width: 0.8; stroke-linejoin: miter; stroke-linecap: square"/>
   </g>
   <g id="patch_6">
    <path d="M 50.925 26.8 
L 421.2 26.8 
" style="fill: none; stroke: #000000; stroke-width: 0.8; stroke-linejoin: miter; stroke-linecap: square"/>
   </g>
   <g id="text_16">
    <!-- November 2023 -->
    <g transform="translate(187.670625 20.8) scale(0.12 -0.12)">
     <defs>
      <path id="DejaVuSans-4e" d="M 628 4666 
L 1478 4666 
L 3547 763 
L 3547 4666 
L 4159 4666 
L 4159 0 
L 3309 0 
L 1241 3903 
L 1241 0 
L 628 0 
L 628 4666 
z
" transform="scale(0.015625)"/>
      <path id="DejaVuSans-6f" d="M 1959 3097 
Q 1497 3097 1228 2736 
Q 959 2375 959 1747 
Q 959 1119 1226 758 
Q 1494 397 1959 397 
Q 2419 397 2687 759 
Q 2956 1122 2956 1747 
Q 2956 2369 2687 2733 
Q 2419 3097 1959 3097 
z
M 1959 3584 
Q 2709 3584 3137 3096 
Q 3566 2609 3566 1747 
Q 3566 888 3137 398 
Q 2709 -91 1959 -91 
Q 1206 -91 779 398 
Q 353 888 353 1747 
Q 353 2609 779 3096 
Q 1206 3584 1959 3584 
z
" transform="scale(0.015625)"/>
      <path id="DejaVuSans-76" d="M 191 3500 
L 800 3500 
L 1894 563 
L 2988 3500 
L 3597 3500 
L 2284 0 
L 1503 0 
L 191 3500 
z
" transform="scale(0.015625)"/>
      <path id="DejaVuSans-65" d="M 3597 1894 
L 3597 1613 
L 953 1613 
Q 991 1019 1311 708 
Q 1631 397 2203 397 
Q 2534 397 2845 478 
Q 3156 559 3463 722 
L 3463 178 
Q 3153 47 2828 -22 
Q 2503 -91 2169 -91 
Q 1331 -91 842 396 
Q 353 884 353 1716 
Q 353 2575 817 3079 
Q 1281 3584 2069 3584 
Q 2775 3584 3186 3129 
Q 3597 2675 3597 1894 
z
M 3022 2063 
Q 3016 2534 2758 2815 
Q 2500 3097 2075 3097 
Q 1594 3097 1305 2825 
Q 1016 2553 972 2059 
L 3022 2063 
z
" transform="scale(0.015625)"/>
      <path id="DejaVuSans-62" d="M 3116 1747 
Q 3116 2381 2855 2742 
Q 2594 3103 2138 3103 
Q 1681 3103 1420 2742 
Q 1159 2381 1159 1747 
Q 1159 1113 1420 752 
Q 1681 391 2138 391 
Q 2594 391 2855 752 
Q 3116 1113 3116 1747 
z
M 1159 2969 
Q 1341 3281 1617 3432 
Q 1894 3584 2278 3584 
Q 2916 3584 3314 3078 
Q 3713 2572 3713 1747 
Q 3713 922 3314 415 
Q 2916 -91 2278 -91 
Q 1894 -91 1617 61 
Q 1341 213 1159 525 
L 1159 0 
L 581 0 
L 581 4863 
L 1159 4863 
L 1159 2969 
z
" transform="scale(0.015625)"/>
      <path id="DejaVuSans-72" d="M 2631 2963 
Q 2534 3019 2420 3045 
Q 2306 3072 2169 3072 
Q 1681 3072 1420 2755 
Q 1159 2438 1159 1844 
L 1159 0 
L 581 0 
L 581 3500 
L 1159 3500 
L 1159 2956 
Q 1341 3275 1631 3429 
Q 1922 3584 2338 3584 
Q 2397 3584 2469 3576 
Q 2541 3569 2628 3553 
L 2631 2963 
z
" transform="scale(0.015625)"/>
     </defs>
     <use xlink:href="#DejaVuSans-4e"/>
     <use xlink:href="#DejaVuSans-6f" x="74.804688"/>
     <use xlink:href="#DejaVuSans-76" x="135.986328"/>
     <use xlink:href="#DejaVuSans-65" x="195.166016"/>
     <use xlink:href="#DejaVuSans-6d" x="256.689453"/>
     <use xlink:href="#DejaVuSans-62" x="354.101562"/>
     <use xlink:href="#DejaVuSans-65" x="417.578125"/>
     <use xlink:href="#DejaVuSans-72" x="479.101562"/>
     <use xlink:href="#DejaVuSans-20" x="520.214844"/>
     <use xlink:href="#DejaVuSans-32" x="552.001953"/>
     <use xlink:href="#DejaVuSans-30" x="615.625"/>
     <use xlink:href="#DejaVuSans-32" x="679.248047"/>
     <use xlink:href="#DejaVuSans-33" x="742.871094"/>
    </g>
   </g>
  </g>
 </g>
 <defs>
  <clipPath id="p72f30d410f">
   <rect x="50.925" y="26.8" width="370.275" height="195.139962"/>
  </clipPath>
 </defs>
</svg>
