<?xml version="1.0" encoding="utf-8" standalone="no"?>
<!DOCTYPE svg PUBLIC "-//W3C//DTD SVG 1.1//EN"
  "http://www.w3.org/Graphics/SVG/1.1/DTD/svg11.dtd">
<svg xmlns:xlink="http://www.w3.org/1999/xlink" width="460.8pt" height="345.6pt" viewBox="0 0 460.8 345.6" xmlns="http://www.w3.org/2000/svg" version="1.1">
 <metadata>
  <rdf:RDF xmlns:dc="http://purl.org/dc/elements/1.1/" xmlns:cc="http://creativecommons.org/ns#" xmlns:rdf="http://www.w3.org/1999/02/22-rdf-syntax-ns#">
   <cc:Work>
    <dc:type rdf:resource="http://purl.org/dc/dcmitype/StillImage"/>
    <dc:date>2023-11-10T15:47:11.367071</dc:date>
    <dc:format>image/svg+xml</dc:format>
    <dc:creator>
     <cc:Agent>
      <dc:title>Matplotlib v3.6.3, https://matplotlib.org/</dc:title>
     </cc:Agent>
    </dc:creator>
   </cc:Work>
  </rdf:RDF>
 </metadata>
 <defs>
  <style type="text/css">*{stroke-linejoin: round; stroke-linecap: butt}</style>
 </defs>
 <g id="figure_1">
  <g id="patch_1">
   <path d="M 0 345.6 
L 460.8 345.6 
L 460.8 0 
L 0 0 
z
" style="fill: #ffffff"/>
  </g>
  <g id="axes_1">
   <g id="patch_2">
    <path d="M 46.46 279.561175 
L 450 279.561175 
L 450 25.44 
L 46.46 25.44 
z
" style="fill: #ffffff"/>
   </g>
   <g id="matplotlib.axis_1">
    <g id="xtick_1">
     <g id="line2d_1">
      <path d="M 88.229273 279.561175 
L 88.229273 25.44 
" clip-path="url(#p04cd4cb6b6)" style="fill: none; stroke: #b0b0b0; stroke-width: 0.8; stroke-linecap: square"/>
     </g>
     <g id="line2d_2">
      <defs>
       <path id="m8794570c33" d="M 0 0 
L 0 3.5 
" style="stroke: #000000; stroke-width: 0.8"/>
      </defs>
      <g>
       <use xlink:href="#m8794570c33" x="88.229273" y="279.561175" style="stroke: #000000; stroke-width: 0.8"/>
      </g>
     </g>
     <g id="text_1">
      <!-- 2023-11-02 -->
      <g transform="translate(45.66476 333.028035) rotate(-45) scale(0.1 -0.1)">
       <defs>
        <path id="DejaVuSans-32" d="M 1228 531 
L 3431 531 
L 3431 0 
L 469 0 
L 469 531 
Q 828 903 1448 1529 
Q 2069 2156 2228 2338 
Q 2531 2678 2651 2914 
Q 2772 3150 2772 3378 
Q 2772 3750 2511 3984 
Q 2250 4219 1831 4219 
Q 1534 4219 1204 4116 
Q 875 4013 500 3803 
L 500 4441 
Q 881 4594 1212 4672 
Q 1544 4750 1819 4750 
Q 2544 4750 2975 4387 
Q 3406 4025 3406 3419 
Q 3406 3131 3298 2873 
Q 3191 2616 2906 2266 
Q 2828 2175 2409 1742 
Q 1991 1309 1228 531 
z
" transform="scale(0.015625)"/>
        <path id="DejaVuSans-30" d="M 2034 4250 
Q 1547 4250 1301 3770 
Q 1056 3291 1056 2328 
Q 1056 1369 1301 889 
Q 1547 409 2034 409 
Q 2525 409 2770 889 
Q 3016 1369 3016 2328 
Q 3016 3291 2770 3770 
Q 2525 4250 2034 4250 
z
M 2034 4750 
Q 2819 4750 3233 4129 
Q 3647 3509 3647 2328 
Q 3647 1150 3233 529 
Q 2819 -91 2034 -91 
Q 1250 -91 836 529 
Q 422 1150 422 2328 
Q 422 3509 836 4129 
Q 1250 4750 2034 4750 
z
" transform="scale(0.015625)"/>
        <path id="DejaVuSans-33" d="M 2597 2516 
Q 3050 2419 3304 2112 
Q 3559 1806 3559 1356 
Q 3559 666 3084 287 
Q 2609 -91 1734 -91 
Q 1441 -91 1130 -33 
Q 819 25 488 141 
L 488 750 
Q 750 597 1062 519 
Q 1375 441 1716 441 
Q 2309 441 2620 675 
Q 2931 909 2931 1356 
Q 2931 1769 2642 2001 
Q 2353 2234 1838 2234 
L 1294 2234 
L 1294 2753 
L 1863 2753 
Q 2328 2753 2575 2939 
Q 2822 3125 2822 3475 
Q 2822 3834 2567 4026 
Q 2313 4219 1838 4219 
Q 1578 4219 1281 4162 
Q 984 4106 628 3988 
L 628 4550 
Q 988 4650 1302 4700 
Q 1616 4750 1894 4750 
Q 2613 4750 3031 4423 
Q 3450 4097 3450 3541 
Q 3450 3153 3228 2886 
Q 3006 2619 2597 2516 
z
" transform="scale(0.015625)"/>
        <path id="DejaVuSans-2d" d="M 313 2009 
L 1997 2009 
L 1997 1497 
L 313 1497 
L 313 2009 
z
" transform="scale(0.015625)"/>
        <path id="DejaVuSans-31" d="M 794 531 
L 1825 531 
L 1825 4091 
L 703 3866 
L 703 4441 
L 1819 4666 
L 2450 4666 
L 2450 531 
L 3481 531 
L 3481 0 
L 794 0 
L 794 531 
z
" transform="scale(0.015625)"/>
       </defs>
       <use xlink:href="#DejaVuSans-32"/>
       <use xlink:href="#DejaVuSans-30" x="63.623047"/>
       <use xlink:href="#DejaVuSans-32" x="127.246094"/>
       <use xlink:href="#DejaVuSans-33" x="190.869141"/>
       <use xlink:href="#DejaVuSans-2d" x="254.492188"/>
       <use xlink:href="#DejaVuSans-31" x="290.576172"/>
       <use xlink:href="#DejaVuSans-31" x="354.199219"/>
       <use xlink:href="#DejaVuSans-2d" x="417.822266"/>
       <use xlink:href="#DejaVuSans-30" x="453.90625"/>
       <use xlink:href="#DejaVuSans-32" x="517.529297"/>
      </g>
     </g>
    </g>
    <g id="xtick_2">
     <g id="line2d_3">
      <path d="M 130.02078 279.561175 
L 130.02078 25.44 
" clip-path="url(#p04cd4cb6b6)" style="fill: none; stroke: #b0b0b0; stroke-width: 0.8; stroke-linecap: square"/>
     </g>
     <g id="line2d_4">
      <g>
       <use xlink:href="#m8794570c33" x="130.02078" y="279.561175" style="stroke: #000000; stroke-width: 0.8"/>
      </g>
     </g>
     <g id="text_2">
      <!-- 2023-11-03 -->
      <g transform="translate(87.456267 333.028035) rotate(-45) scale(0.1 -0.1)">
       <use xlink:href="#DejaVuSans-32"/>
       <use xlink:href="#DejaVuSans-30" x="63.623047"/>
       <use xlink:href="#DejaVuSans-32" x="127.246094"/>
       <use xlink:href="#DejaVuSans-33" x="190.869141"/>
       <use xlink:href="#DejaVuSans-2d" x="254.492188"/>
       <use xlink:href="#DejaVuSans-31" x="290.576172"/>
       <use xlink:href="#DejaVuSans-31" x="354.199219"/>
       <use xlink:href="#DejaVuSans-2d" x="417.822266"/>
       <use xlink:href="#DejaVuSans-30" x="453.90625"/>
       <use xlink:href="#DejaVuSans-33" x="517.529297"/>
      </g>
     </g>
    </g>
    <g id="xtick_3">
     <g id="line2d_5">
      <path d="M 171.812287 279.561175 
L 171.812287 25.44 
" clip-path="url(#p04cd4cb6b6)" style="fill: none; stroke: #b0b0b0; stroke-width: 0.8; stroke-linecap: square"/>
     </g>
     <g id="line2d_6">
      <g>
       <use xlink:href="#m8794570c33" x="171.812287" y="279.561175" style="stroke: #000000; stroke-width: 0.8"/>
      </g>
     </g>
     <g id="text_3">
      <!-- 2023-11-04 -->
      <g transform="translate(129.247773 333.028035) rotate(-45) scale(0.1 -0.1)">
       <defs>
        <path id="DejaVuSans-34" d="M 2419 4116 
L 825 1625 
L 2419 1625 
L 2419 4116 
z
M 2253 4666 
L 3047 4666 
L 3047 1625 
L 3713 1625 
L 3713 1100 
L 3047 1100 
L 3047 0 
L 2419 0 
L 2419 1100 
L 313 1100 
L 313 1709 
L 2253 4666 
z
" transform="scale(0.015625)"/>
       </defs>
       <use xlink:href="#DejaVuSans-32"/>
       <use xlink:href="#DejaVuSans-30" x="63.623047"/>
       <use xlink:href="#DejaVuSans-32" x="127.246094"/>
       <use xlink:href="#DejaVuSans-33" x="190.869141"/>
       <use xlink:href="#DejaVuSans-2d" x="254.492188"/>
       <use xlink:href="#DejaVuSans-31" x="290.576172"/>
       <use xlink:href="#DejaVuSans-31" x="354.199219"/>
       <use xlink:href="#DejaVuSans-2d" x="417.822266"/>
       <use xlink:href="#DejaVuSans-30" x="453.90625"/>
       <use xlink:href="#DejaVuSans-34" x="517.529297"/>
      </g>
     </g>
    </g>
    <g id="xtick_4">
     <g id="line2d_7">
      <path d="M 213.603794 279.561175 
L 213.603794 25.44 
" clip-path="url(#p04cd4cb6b6)" style="fill: none; stroke: #b0b0b0; stroke-width: 0.8; stroke-linecap: square"/>
     </g>
     <g id="line2d_8">
      <g>
       <use xlink:href="#m8794570c33" x="213.603794" y="279.561175" style="stroke: #000000; stroke-width: 0.8"/>
      </g>
     </g>
     <g id="text_4">
      <!-- 2023-11-05 -->
      <g transform="translate(171.03928 333.028035) rotate(-45) scale(0.1 -0.1)">
       <defs>
        <path id="DejaVuSans-35" d="M 691 4666 
L 3169 4666 
L 3169 4134 
L 1269 4134 
L 1269 2991 
Q 1406 3038 1543 3061 
Q 1681 3084 1819 3084 
Q 2600 3084 3056 2656 
Q 3513 2228 3513 1497 
Q 3513 744 3044 326 
Q 2575 -91 1722 -91 
Q 1428 -91 1123 -41 
Q 819 9 494 109 
L 494 744 
Q 775 591 1075 516 
Q 1375 441 1709 441 
Q 2250 441 2565 725 
Q 2881 1009 2881 1497 
Q 2881 1984 2565 2268 
Q 2250 2553 1709 2553 
Q 1456 2553 1204 2497 
Q 953 2441 691 2322 
L 691 4666 
z
" transform="scale(0.015625)"/>
       </defs>
       <use xlink:href="#DejaVuSans-32"/>
       <use xlink:href="#DejaVuSans-30" x="63.623047"/>
       <use xlink:href="#DejaVuSans-32" x="127.246094"/>
       <use xlink:href="#DejaVuSans-33" x="190.869141"/>
       <use xlink:href="#DejaVuSans-2d" x="254.492188"/>
       <use xlink:href="#DejaVuSans-31" x="290.576172"/>
       <use xlink:href="#DejaVuSans-31" x="354.199219"/>
       <use xlink:href="#DejaVuSans-2d" x="417.822266"/>
       <use xlink:href="#DejaVuSans-30" x="453.90625"/>
       <use xlink:href="#DejaVuSans-35" x="517.529297"/>
      </g>
     </g>
    </g>
    <g id="xtick_5">
     <g id="line2d_9">
      <path d="M 255.395301 279.561175 
L 255.395301 25.44 
" clip-path="url(#p04cd4cb6b6)" style="fill: none; stroke: #b0b0b0; stroke-width: 0.8; stroke-linecap: square"/>
     </g>
     <g id="line2d_10">
      <g>
       <use xlink:href="#m8794570c33" x="255.395301" y="279.561175" style="stroke: #000000; stroke-width: 0.8"/>
      </g>
     </g>
     <g id="text_5">
      <!-- 2023-11-06 -->
      <g transform="translate(212.830787 333.028035) rotate(-45) scale(0.1 -0.1)">
       <defs>
        <path id="DejaVuSans-36" d="M 2113 2584 
Q 1688 2584 1439 2293 
Q 1191 2003 1191 1497 
Q 1191 994 1439 701 
Q 1688 409 2113 409 
Q 2538 409 2786 701 
Q 3034 994 3034 1497 
Q 3034 2003 2786 2293 
Q 2538 2584 2113 2584 
z
M 3366 4563 
L 3366 3988 
Q 3128 4100 2886 4159 
Q 2644 4219 2406 4219 
Q 1781 4219 1451 3797 
Q 1122 3375 1075 2522 
Q 1259 2794 1537 2939 
Q 1816 3084 2150 3084 
Q 2853 3084 3261 2657 
Q 3669 2231 3669 1497 
Q 3669 778 3244 343 
Q 2819 -91 2113 -91 
Q 1303 -91 875 529 
Q 447 1150 447 2328 
Q 447 3434 972 4092 
Q 1497 4750 2381 4750 
Q 2619 4750 2861 4703 
Q 3103 4656 3366 4563 
z
" transform="scale(0.015625)"/>
       </defs>
       <use xlink:href="#DejaVuSans-32"/>
       <use xlink:href="#DejaVuSans-30" x="63.623047"/>
       <use xlink:href="#DejaVuSans-32" x="127.246094"/>
       <use xlink:href="#DejaVuSans-33" x="190.869141"/>
       <use xlink:href="#DejaVuSans-2d" x="254.492188"/>
       <use xlink:href="#DejaVuSans-31" x="290.576172"/>
       <use xlink:href="#DejaVuSans-31" x="354.199219"/>
       <use xlink:href="#DejaVuSans-2d" x="417.822266"/>
       <use xlink:href="#DejaVuSans-30" x="453.90625"/>
       <use xlink:href="#DejaVuSans-36" x="517.529297"/>
      </g>
     </g>
    </g>
    <g id="xtick_6">
     <g id="line2d_11">
      <path d="M 297.186808 279.561175 
L 297.186808 25.44 
" clip-path="url(#p04cd4cb6b6)" style="fill: none; stroke: #b0b0b0; stroke-width: 0.8; stroke-linecap: square"/>
     </g>
     <g id="line2d_12">
      <g>
       <use xlink:href="#m8794570c33" x="297.186808" y="279.561175" style="stroke: #000000; stroke-width: 0.8"/>
      </g>
     </g>
     <g id="text_6">
      <!-- 2023-11-07 -->
      <g transform="translate(254.622294 333.028035) rotate(-45) scale(0.1 -0.1)">
       <defs>
        <path id="DejaVuSans-37" d="M 525 4666 
L 3525 4666 
L 3525 4397 
L 1831 0 
L 1172 0 
L 2766 4134 
L 525 4134 
L 525 4666 
z
" transform="scale(0.015625)"/>
       </defs>
       <use xlink:href="#DejaVuSans-32"/>
       <use xlink:href="#DejaVuSans-30" x="63.623047"/>
       <use xlink:href="#DejaVuSans-32" x="127.246094"/>
       <use xlink:href="#DejaVuSans-33" x="190.869141"/>
       <use xlink:href="#DejaVuSans-2d" x="254.492188"/>
       <use xlink:href="#DejaVuSans-31" x="290.576172"/>
       <use xlink:href="#DejaVuSans-31" x="354.199219"/>
       <use xlink:href="#DejaVuSans-2d" x="417.822266"/>
       <use xlink:href="#DejaVuSans-30" x="453.90625"/>
       <use xlink:href="#DejaVuSans-37" x="517.529297"/>
      </g>
     </g>
    </g>
    <g id="xtick_7">
     <g id="line2d_13">
      <path d="M 338.978314 279.561175 
L 338.978314 25.44 
" clip-path="url(#p04cd4cb6b6)" style="fill: none; stroke: #b0b0b0; stroke-width: 0.8; stroke-linecap: square"/>
     </g>
     <g id="line2d_14">
      <g>
       <use xlink:href="#m8794570c33" x="338.978314" y="279.561175" style="stroke: #000000; stroke-width: 0.8"/>
      </g>
     </g>
     <g id="text_7">
      <!-- 2023-11-08 -->
      <g transform="translate(296.413801 333.028035) rotate(-45) scale(0.1 -0.1)">
       <defs>
        <path id="DejaVuSans-38" d="M 2034 2216 
Q 1584 2216 1326 1975 
Q 1069 1734 1069 1313 
Q 1069 891 1326 650 
Q 1584 409 2034 409 
Q 2484 409 2743 651 
Q 3003 894 3003 1313 
Q 3003 1734 2745 1975 
Q 2488 2216 2034 2216 
z
M 1403 2484 
Q 997 2584 770 2862 
Q 544 3141 544 3541 
Q 544 4100 942 4425 
Q 1341 4750 2034 4750 
Q 2731 4750 3128 4425 
Q 3525 4100 3525 3541 
Q 3525 3141 3298 2862 
Q 3072 2584 2669 2484 
Q 3125 2378 3379 2068 
Q 3634 1759 3634 1313 
Q 3634 634 3220 271 
Q 2806 -91 2034 -91 
Q 1263 -91 848 271 
Q 434 634 434 1313 
Q 434 1759 690 2068 
Q 947 2378 1403 2484 
z
M 1172 3481 
Q 1172 3119 1398 2916 
Q 1625 2713 2034 2713 
Q 2441 2713 2670 2916 
Q 2900 3119 2900 3481 
Q 2900 3844 2670 4047 
Q 2441 4250 2034 4250 
Q 1625 4250 1398 4047 
Q 1172 3844 1172 3481 
z
" transform="scale(0.015625)"/>
       </defs>
       <use xlink:href="#DejaVuSans-32"/>
       <use xlink:href="#DejaVuSans-30" x="63.623047"/>
       <use xlink:href="#DejaVuSans-32" x="127.246094"/>
       <use xlink:href="#DejaVuSans-33" x="190.869141"/>
       <use xlink:href="#DejaVuSans-2d" x="254.492188"/>
       <use xlink:href="#DejaVuSans-31" x="290.576172"/>
       <use xlink:href="#DejaVuSans-31" x="354.199219"/>
       <use xlink:href="#DejaVuSans-2d" x="417.822266"/>
       <use xlink:href="#DejaVuSans-30" x="453.90625"/>
       <use xlink:href="#DejaVuSans-38" x="517.529297"/>
      </g>
     </g>
    </g>
    <g id="xtick_8">
     <g id="line2d_15">
      <path d="M 380.769821 279.561175 
L 380.769821 25.44 
" clip-path="url(#p04cd4cb6b6)" style="fill: none; stroke: #b0b0b0; stroke-width: 0.8; stroke-linecap: square"/>
     </g>
     <g id="line2d_16">
      <g>
       <use xlink:href="#m8794570c33" x="380.769821" y="279.561175" style="stroke: #000000; stroke-width: 0.8"/>
      </g>
     </g>
     <g id="text_8">
      <!-- 2023-11-09 -->
      <g transform="translate(338.205308 333.028035) rotate(-45) scale(0.1 -0.1)">
       <defs>
        <path id="DejaVuSans-39" d="M 703 97 
L 703 672 
Q 941 559 1184 500 
Q 1428 441 1663 441 
Q 2288 441 2617 861 
Q 2947 1281 2994 2138 
Q 2813 1869 2534 1725 
Q 2256 1581 1919 1581 
Q 1219 1581 811 2004 
Q 403 2428 403 3163 
Q 403 3881 828 4315 
Q 1253 4750 1959 4750 
Q 2769 4750 3195 4129 
Q 3622 3509 3622 2328 
Q 3622 1225 3098 567 
Q 2575 -91 1691 -91 
Q 1453 -91 1209 -44 
Q 966 3 703 97 
z
M 1959 2075 
Q 2384 2075 2632 2365 
Q 2881 2656 2881 3163 
Q 2881 3666 2632 3958 
Q 2384 4250 1959 4250 
Q 1534 4250 1286 3958 
Q 1038 3666 1038 3163 
Q 1038 2656 1286 2365 
Q 1534 2075 1959 2075 
z
" transform="scale(0.015625)"/>
       </defs>
       <use xlink:href="#DejaVuSans-32"/>
       <use xlink:href="#DejaVuSans-30" x="63.623047"/>
       <use xlink:href="#DejaVuSans-32" x="127.246094"/>
       <use xlink:href="#DejaVuSans-33" x="190.869141"/>
       <use xlink:href="#DejaVuSans-2d" x="254.492188"/>
       <use xlink:href="#DejaVuSans-31" x="290.576172"/>
       <use xlink:href="#DejaVuSans-31" x="354.199219"/>
       <use xlink:href="#DejaVuSans-2d" x="417.822266"/>
       <use xlink:href="#DejaVuSans-30" x="453.90625"/>
       <use xlink:href="#DejaVuSans-39" x="517.529297"/>
      </g>
     </g>
    </g>
    <g id="xtick_9">
     <g id="line2d_17">
      <path d="M 422.561328 279.561175 
L 422.561328 25.44 
" clip-path="url(#p04cd4cb6b6)" style="fill: none; stroke: #b0b0b0; stroke-width: 0.8; stroke-linecap: square"/>
     </g>
     <g id="line2d_18">
      <g>
       <use xlink:href="#m8794570c33" x="422.561328" y="279.561175" style="stroke: #000000; stroke-width: 0.8"/>
      </g>
     </g>
     <g id="text_9">
      <!-- 2023-11-10 -->
      <g transform="translate(379.996814 333.028035) rotate(-45) scale(0.1 -0.1)">
       <use xlink:href="#DejaVuSans-32"/>
       <use xlink:href="#DejaVuSans-30" x="63.623047"/>
       <use xlink:href="#DejaVuSans-32" x="127.246094"/>
       <use xlink:href="#DejaVuSans-33" x="190.869141"/>
       <use xlink:href="#DejaVuSans-2d" x="254.492188"/>
       <use xlink:href="#DejaVuSans-31" x="290.576172"/>
       <use xlink:href="#DejaVuSans-31" x="354.199219"/>
       <use xlink:href="#DejaVuSans-2d" x="417.822266"/>
       <use xlink:href="#DejaVuSans-31" x="453.90625"/>
       <use xlink:href="#DejaVuSans-30" x="517.529297"/>
      </g>
     </g>
    </g>
   </g>
   <g id="matplotlib.axis_2">
    <g id="ytick_1">
     <g id="line2d_19">
      <path d="M 46.46 253.008963 
L 450 253.008963 
" clip-path="url(#p04cd4cb6b6)" style="fill: none; stroke: #b0b0b0; stroke-width: 0.8; stroke-linecap: square"/>
     </g>
     <g id="line2d_20">
      <defs>
       <path id="m89211552fd" d="M 0 0 
L -3.5 0 
" style="stroke: #000000; stroke-width: 0.8"/>
      </defs>
      <g>
       <use xlink:href="#m89211552fd" x="46.46" y="253.008963" style="stroke: #000000; stroke-width: 0.8"/>
      </g>
     </g>
     <g id="text_10">
      <!-- 0 -->
      <g transform="translate(33.0975 256.808182) scale(0.1 -0.1)">
       <use xlink:href="#DejaVuSans-30"/>
      </g>
     </g>
    </g>
    <g id="ytick_2">
     <g id="line2d_21">
      <path d="M 46.46 223.006463 
L 450 223.006463 
" clip-path="url(#p04cd4cb6b6)" style="fill: none; stroke: #b0b0b0; stroke-width: 0.8; stroke-linecap: square"/>
     </g>
     <g id="line2d_22">
      <g>
       <use xlink:href="#m89211552fd" x="46.46" y="223.006463" style="stroke: #000000; stroke-width: 0.8"/>
      </g>
     </g>
     <g id="text_11">
      <!-- 2 -->
      <g transform="translate(33.0975 226.805682) scale(0.1 -0.1)">
       <use xlink:href="#DejaVuSans-32"/>
      </g>
     </g>
    </g>
    <g id="ytick_3">
     <g id="line2d_23">
      <path d="M 46.46 193.003963 
L 450 193.003963 
" clip-path="url(#p04cd4cb6b6)" style="fill: none; stroke: #b0b0b0; stroke-width: 0.8; stroke-linecap: square"/>
     </g>
     <g id="line2d_24">
      <g>
       <use xlink:href="#m89211552fd" x="46.46" y="193.003963" style="stroke: #000000; stroke-width: 0.8"/>
      </g>
     </g>
     <g id="text_12">
      <!-- 4 -->
      <g transform="translate(33.0975 196.803182) scale(0.1 -0.1)">
       <use xlink:href="#DejaVuSans-34"/>
      </g>
     </g>
    </g>
    <g id="ytick_4">
     <g id="line2d_25">
      <path d="M 46.46 163.001463 
L 450 163.001463 
" clip-path="url(#p04cd4cb6b6)" style="fill: none; stroke: #b0b0b0; stroke-width: 0.8; stroke-linecap: square"/>
     </g>
     <g id="line2d_26">
      <g>
       <use xlink:href="#m89211552fd" x="46.46" y="163.001463" style="stroke: #000000; stroke-width: 0.8"/>
      </g>
     </g>
     <g id="text_13">
      <!-- 6 -->
      <g transform="translate(33.0975 166.800681) scale(0.1 -0.1)">
       <use xlink:href="#DejaVuSans-36"/>
      </g>
     </g>
    </g>
    <g id="ytick_5">
     <g id="line2d_27">
      <path d="M 46.46 132.998963 
L 450 132.998963 
" clip-path="url(#p04cd4cb6b6)" style="fill: none; stroke: #b0b0b0; stroke-width: 0.8; stroke-linecap: square"/>
     </g>
     <g id="line2d_28">
      <g>
       <use xlink:href="#m89211552fd" x="46.46" y="132.998963" style="stroke: #000000; stroke-width: 0.8"/>
      </g>
     </g>
     <g id="text_14">
      <!-- 8 -->
      <g transform="translate(33.0975 136.798181) scale(0.1 -0.1)">
       <use xlink:href="#DejaVuSans-38"/>
      </g>
     </g>
    </g>
    <g id="ytick_6">
     <g id="line2d_29">
      <path d="M 46.46 102.996463 
L 450 102.996463 
" clip-path="url(#p04cd4cb6b6)" style="fill: none; stroke: #b0b0b0; stroke-width: 0.8; stroke-linecap: square"/>
     </g>
     <g id="line2d_30">
      <g>
       <use xlink:href="#m89211552fd" x="46.46" y="102.996463" style="stroke: #000000; stroke-width: 0.8"/>
      </g>
     </g>
     <g id="text_15">
      <!-- 10 -->
      <g transform="translate(26.735 106.795681) scale(0.1 -0.1)">
       <use xlink:href="#DejaVuSans-31"/>
       <use xlink:href="#DejaVuSans-30" x="63.623047"/>
      </g>
     </g>
    </g>
    <g id="ytick_7">
     <g id="line2d_31">
      <path d="M 46.46 72.993963 
L 450 72.993963 
" clip-path="url(#p04cd4cb6b6)" style="fill: none; stroke: #b0b0b0; stroke-width: 0.8; stroke-linecap: square"/>
     </g>
     <g id="line2d_32">
      <g>
       <use xlink:href="#m89211552fd" x="46.46" y="72.993963" style="stroke: #000000; stroke-width: 0.8"/>
      </g>
     </g>
     <g id="text_16">
      <!-- 12 -->
      <g transform="translate(26.735 76.793181) scale(0.1 -0.1)">
       <use xlink:href="#DejaVuSans-31"/>
       <use xlink:href="#DejaVuSans-32" x="63.623047"/>
      </g>
     </g>
    </g>
    <g id="ytick_8">
     <g id="line2d_33">
      <path d="M 46.46 42.991463 
L 450 42.991463 
" clip-path="url(#p04cd4cb6b6)" style="fill: none; stroke: #b0b0b0; stroke-width: 0.8; stroke-linecap: square"/>
     </g>
     <g id="line2d_34">
      <g>
       <use xlink:href="#m89211552fd" x="46.46" y="42.991463" style="stroke: #000000; stroke-width: 0.8"/>
      </g>
     </g>
     <g id="text_17">
      <!-- 14 -->
      <g transform="translate(26.735 46.790681) scale(0.1 -0.1)">
       <use xlink:href="#DejaVuSans-31"/>
       <use xlink:href="#DejaVuSans-34" x="63.623047"/>
      </g>
     </g>
    </g>
    <g id="text_18">
     <!-- Temperature [°C] -->
     <g transform="translate(20.655313 199.072463) rotate(-90) scale(0.1 -0.1)">
      <defs>
       <path id="DejaVuSans-54" d="M -19 4666 
L 3928 4666 
L 3928 4134 
L 2272 4134 
L 2272 0 
L 1638 0 
L 1638 4134 
L -19 4134 
L -19 4666 
z
" transform="scale(0.015625)"/>
       <path id="DejaVuSans-65" d="M 3597 1894 
L 3597 1613 
L 953 1613 
Q 991 1019 1311 708 
Q 1631 397 2203 397 
Q 2534 397 2845 478 
Q 3156 559 3463 722 
L 3463 178 
Q 3153 47 2828 -22 
Q 2503 -91 2169 -91 
Q 1331 -91 842 396 
Q 353 884 353 1716 
Q 353 2575 817 3079 
Q 1281 3584 2069 3584 
Q 2775 3584 3186 3129 
Q 3597 2675 3597 1894 
z
M 3022 2063 
Q 3016 2534 2758 2815 
Q 2500 3097 2075 3097 
Q 1594 3097 1305 2825 
Q 1016 2553 972 2059 
L 3022 2063 
z
" transform="scale(0.015625)"/>
       <path id="DejaVuSans-6d" d="M 3328 2828 
Q 3544 3216 3844 3400 
Q 4144 3584 4550 3584 
Q 5097 3584 5394 3201 
Q 5691 2819 5691 2113 
L 5691 0 
L 5113 0 
L 5113 2094 
Q 5113 2597 4934 2840 
Q 4756 3084 4391 3084 
Q 3944 3084 3684 2787 
Q 3425 2491 3425 1978 
L 3425 0 
L 2847 0 
L 2847 2094 
Q 2847 2600 2669 2842 
Q 2491 3084 2119 3084 
Q 1678 3084 1418 2786 
Q 1159 2488 1159 1978 
L 1159 0 
L 581 0 
L 581 3500 
L 1159 3500 
L 1159 2956 
Q 1356 3278 1631 3431 
Q 1906 3584 2284 3584 
Q 2666 3584 2933 3390 
Q 3200 3197 3328 2828 
z
" transform="scale(0.015625)"/>
       <path id="DejaVuSans-70" d="M 1159 525 
L 1159 -1331 
L 581 -1331 
L 581 3500 
L 1159 3500 
L 1159 2969 
Q 1341 3281 1617 3432 
Q 1894 3584 2278 3584 
Q 2916 3584 3314 3078 
Q 3713 2572 3713 1747 
Q 3713 922 3314 415 
Q 2916 -91 2278 -91 
Q 1894 -91 1617 61 
Q 1341 213 1159 525 
z
M 3116 1747 
Q 3116 2381 2855 2742 
Q 2594 3103 2138 3103 
Q 1681 3103 1420 2742 
Q 1159 2381 1159 1747 
Q 1159 1113 1420 752 
Q 1681 391 2138 391 
Q 2594 391 2855 752 
Q 3116 1113 3116 1747 
z
" transform="scale(0.015625)"/>
       <path id="DejaVuSans-72" d="M 2631 2963 
Q 2534 3019 2420 3045 
Q 2306 3072 2169 3072 
Q 1681 3072 1420 2755 
Q 1159 2438 1159 1844 
L 1159 0 
L 581 0 
L 581 3500 
L 1159 3500 
L 1159 2956 
Q 1341 3275 1631 3429 
Q 1922 3584 2338 3584 
Q 2397 3584 2469 3576 
Q 2541 3569 2628 3553 
L 2631 2963 
z
" transform="scale(0.015625)"/>
       <path id="DejaVuSans-61" d="M 2194 1759 
Q 1497 1759 1228 1600 
Q 959 1441 959 1056 
Q 959 750 1161 570 
Q 1363 391 1709 391 
Q 2188 391 2477 730 
Q 2766 1069 2766 1631 
L 2766 1759 
L 2194 1759 
z
M 3341 1997 
L 3341 0 
L 2766 0 
L 2766 531 
Q 2569 213 2275 61 
Q 1981 -91 1556 -91 
Q 1019 -91 701 211 
Q 384 513 384 1019 
Q 384 1609 779 1909 
Q 1175 2209 1959 2209 
L 2766 2209 
L 2766 2266 
Q 2766 2663 2505 2880 
Q 2244 3097 1772 3097 
Q 1472 3097 1187 3025 
Q 903 2953 641 2809 
L 641 3341 
Q 956 3463 1253 3523 
Q 1550 3584 1831 3584 
Q 2591 3584 2966 3190 
Q 3341 2797 3341 1997 
z
" transform="scale(0.015625)"/>
       <path id="DejaVuSans-74" d="M 1172 4494 
L 1172 3500 
L 2356 3500 
L 2356 3053 
L 1172 3053 
L 1172 1153 
Q 1172 725 1289 603 
Q 1406 481 1766 481 
L 2356 481 
L 2356 0 
L 1766 0 
Q 1100 0 847 248 
Q 594 497 594 1153 
L 594 3053 
L 172 3053 
L 172 3500 
L 594 3500 
L 594 4494 
L 1172 4494 
z
" transform="scale(0.015625)"/>
       <path id="DejaVuSans-75" d="M 544 1381 
L 544 3500 
L 1119 3500 
L 1119 1403 
Q 1119 906 1312 657 
Q 1506 409 1894 409 
Q 2359 409 2629 706 
Q 2900 1003 2900 1516 
L 2900 3500 
L 3475 3500 
L 3475 0 
L 2900 0 
L 2900 538 
Q 2691 219 2414 64 
Q 2138 -91 1772 -91 
Q 1169 -91 856 284 
Q 544 659 544 1381 
z
M 1991 3584 
L 1991 3584 
z
" transform="scale(0.015625)"/>
       <path id="DejaVuSans-20" transform="scale(0.015625)"/>
       <path id="DejaVuSans-5b" d="M 550 4863 
L 1875 4863 
L 1875 4416 
L 1125 4416 
L 1125 -397 
L 1875 -397 
L 1875 -844 
L 550 -844 
L 550 4863 
z
" transform="scale(0.015625)"/>
       <path id="DejaVuSans-c2" d="M 2188 4044 
L 1331 1722 
L 3047 1722 
L 2188 4044 
z
M 1831 4666 
L 2547 4666 
L 4325 0 
L 3669 0 
L 3244 1197 
L 1141 1197 
L 716 0 
L 50 0 
L 1831 4666 
z
M 1894 5941 
L 2481 5941 
L 3141 5110 
L 2706 5110 
L 2188 5666 
L 1669 5110 
L 1234 5110 
L 1894 5941 
z
" transform="scale(0.015625)"/>
       <path id="DejaVuSans-b0" d="M 1600 4347 
Q 1350 4347 1178 4173 
Q 1006 4000 1006 3750 
Q 1006 3503 1178 3333 
Q 1350 3163 1600 3163 
Q 1850 3163 2022 3333 
Q 2194 3503 2194 3750 
Q 2194 3997 2020 4172 
Q 1847 4347 1600 4347 
z
M 1600 4750 
Q 1800 4750 1984 4673 
Q 2169 4597 2303 4453 
Q 2447 4313 2519 4134 
Q 2591 3956 2591 3750 
Q 2591 3338 2302 3052 
Q 2013 2766 1594 2766 
Q 1172 2766 890 3047 
Q 609 3328 609 3750 
Q 609 4169 896 4459 
Q 1184 4750 1600 4750 
z
" transform="scale(0.015625)"/>
       <path id="DejaVuSans-43" d="M 4122 4306 
L 4122 3641 
Q 3803 3938 3442 4084 
Q 3081 4231 2675 4231 
Q 1875 4231 1450 3742 
Q 1025 3253 1025 2328 
Q 1025 1406 1450 917 
Q 1875 428 2675 428 
Q 3081 428 3442 575 
Q 3803 722 4122 1019 
L 4122 359 
Q 3791 134 3420 21 
Q 3050 -91 2638 -91 
Q 1578 -91 968 557 
Q 359 1206 359 2328 
Q 359 3453 968 4101 
Q 1578 4750 2638 4750 
Q 3056 4750 3426 4639 
Q 3797 4528 4122 4306 
z
" transform="scale(0.015625)"/>
       <path id="DejaVuSans-5d" d="M 1947 4863 
L 1947 -844 
L 622 -844 
L 622 -397 
L 1369 -397 
L 1369 4416 
L 622 4416 
L 622 4863 
L 1947 4863 
z
" transform="scale(0.015625)"/>
      </defs>
      <use xlink:href="#DejaVuSans-54"/>
      <use xlink:href="#DejaVuSans-65" x="44.083984"/>
      <use xlink:href="#DejaVuSans-6d" x="105.607422"/>
      <use xlink:href="#DejaVuSans-70" x="203.019531"/>
      <use xlink:href="#DejaVuSans-65" x="266.496094"/>
      <use xlink:href="#DejaVuSans-72" x="328.019531"/>
      <use xlink:href="#DejaVuSans-61" x="369.132812"/>
      <use xlink:href="#DejaVuSans-74" x="430.412109"/>
      <use xlink:href="#DejaVuSans-75" x="469.621094"/>
      <use xlink:href="#DejaVuSans-72" x="533"/>
      <use xlink:href="#DejaVuSans-65" x="571.863281"/>
      <use xlink:href="#DejaVuSans-20" x="633.386719"/>
      <use xlink:href="#DejaVuSans-5b" x="665.173828"/>
      <use xlink:href="#DejaVuSans-c2" x="704.1875"/>
      <use xlink:href="#DejaVuSans-b0" x="772.595703"/>
      <use xlink:href="#DejaVuSans-43" x="822.595703"/>
      <use xlink:href="#DejaVuSans-5d" x="892.419922"/>
     </g>
    </g>
   </g>
   <g id="line2d_35">
    <path d="M 46.46 188.503588 
L 46.483123 188.503588 
L 46.622425 191.503838 
L 46.76173 191.503838 
L 46.877869 193.003963 
L 46.993902 193.003963 
L 47.06371 194.504088 
L 47.086771 193.003963 
L 47.458248 193.003963 
L 47.620883 188.503588 
L 47.643987 188.503588 
L 47.690701 187.003463 
L 47.736856 188.503588 
L 47.922595 188.503588 
L 48.038808 190.003713 
L 48.224541 190.003713 
L 48.27095 191.503838 
L 48.317396 190.003713 
L 48.479809 190.003713 
L 48.595885 191.503838 
L 48.828172 191.503838 
L 48.944154 190.003713 
L 49.106783 190.003713 
L 49.222764 191.503838 
L 49.269197 191.503838 
L 49.385412 193.003963 
L 49.524702 193.003963 
L 49.640675 194.504088 
L 49.75692 194.504088 
L 49.826413 196.004213 
L 49.849788 194.504088 
L 49.942571 194.504088 
L 50.0355 193.003963 
L 50.174835 196.004213 
L 50.290759 196.004213 
L 50.453428 193.003963 
L 50.569368 194.504088 
L 50.708671 194.504088 
L 50.824851 196.004213 
L 51.033715 196.004213 
L 51.149914 194.504088 
L 51.567841 194.504088 
L 51.730235 199.004463 
L 52.194584 199.004463 
L 52.310779 197.504338 
L 52.426754 197.504338 
L 52.566059 200.504588 
L 52.589409 200.504588 
L 52.70536 202.004713 
L 52.775144 202.004713 
L 52.914465 199.004463 
L 53.193074 199.004463 
L 53.309014 197.504338 
L 53.518074 197.504338 
L 53.657403 200.504588 
L 53.726925 200.504588 
L 53.773359 199.004463 
L 53.820071 200.504588 
L 53.912661 200.504588 
L 53.982461 202.004713 
L 54.005532 200.504588 
L 54.028871 200.504588 
L 54.144836 199.004463 
L 54.307423 203.504838 
L 54.330574 203.504838 
L 54.469877 206.505088 
L 54.655613 206.505088 
L 54.887788 202.004713 
L 54.911129 202.004713 
L 55.050452 205.004963 
L 55.236178 205.004963 
L 55.421909 199.004463 
L 55.468345 199.004463 
L 55.607571 196.004213 
L 55.677179 196.004213 
L 55.770046 194.504088 
L 55.886257 196.004213 
L 55.90935 196.004213 
L 56.048657 199.004463 
L 56.234393 199.004463 
L 56.397047 203.504838 
L 56.466566 203.504838 
L 56.629219 199.004463 
L 56.652304 199.004463 
L 56.768517 197.504338 
L 56.838043 197.504338 
L 56.977348 199.004463 
L 57.047099 199.004463 
L 57.070216 200.504588 
L 57.140003 199.004463 
L 57.279303 196.004213 
L 57.418604 199.004463 
L 57.580999 199.004463 
L 57.76673 205.004963 
L 57.789998 205.004963 
L 57.906039 206.505088 
L 57.952473 206.505088 
L 58.091779 209.505338 
L 58.115098 209.505338 
L 58.254405 212.505588 
L 58.486604 212.505588 
L 58.602832 215.505838 
L 58.741863 215.505838 
L 58.858089 214.005713 
L 58.974035 215.505838 
L 59.020472 215.505838 
L 59.20621 211.005463 
L 59.276019 212.505588 
L 59.299079 211.005463 
L 59.345514 211.005463 
L 59.461739 209.505338 
L 59.554554 209.505338 
L 59.670557 211.005463 
L 59.786784 211.005463 
L 59.902729 209.505338 
L 59.972422 209.505338 
L 60.134904 205.004963 
L 60.158269 205.004963 
L 60.344009 199.004463 
L 60.436829 199.004463 
L 60.552816 194.504088 
L 60.576177 196.004213 
L 60.599249 196.004213 
L 60.738554 199.004463 
L 60.785278 199.004463 
L 60.924293 185.503338 
L 61.295769 134.499088 
L 61.481506 122.498088 
L 61.551271 122.498088 
L 61.644177 116.497588 
L 61.667496 117.997713 
L 61.736978 119.497838 
L 61.760113 117.997713 
L 61.78348 117.997713 
L 61.852981 116.497588 
L 61.876353 117.997713 
L 61.969223 117.997713 
L 62.178021 104.496588 
L 62.224457 104.496588 
L 62.480001 93.995713 
L 62.572718 93.995713 
L 62.642365 96.995963 
L 62.66569 95.495838 
L 62.851479 89.495338 
L 62.897914 89.495338 
L 63.130043 71.493838 
L 63.153144 72.993963 
L 63.385313 105.996713 
L 63.431942 105.996713 
L 63.524617 108.996963 
L 63.547977 107.496838 
L 63.919403 81.994713 
L 64.012346 83.494838 
L 64.081829 83.494838 
L 64.499735 104.496588 
L 64.871213 80.494588 
L 64.941016 81.994713 
L 65.010516 81.994713 
L 65.40537 104.496588 
L 65.428422 102.996463 
L 65.474857 102.996463 
L 65.521289 101.496338 
L 65.567724 102.996463 
L 65.614152 102.996463 
L 65.869686 114.997463 
L 65.985632 113.497338 
L 66.264237 101.496338 
L 66.40354 96.995963 
L 66.45018 96.995963 
L 66.612663 99.996213 
L 67.146491 71.493838 
L 67.192927 71.493838 
L 67.355437 78.994463 
L 67.378662 77.494338 
L 67.47153 75.994213 
L 67.680658 89.495338 
L 67.819844 92.495588 
L 67.935869 90.995463 
L 67.982303 90.995463 
L 68.075173 92.495588 
L 68.307347 83.494838 
L 68.330717 83.494838 
L 68.585949 93.995713 
L 68.63262 93.995713 
L 68.725252 95.495838 
L 68.841503 93.995713 
L 68.864556 93.995713 
L 69.003858 90.995463 
L 69.050292 90.995463 
L 69.14316 95.495838 
L 69.189594 93.995713 
L 69.236029 93.995713 
L 69.375331 89.495338 
L 69.537862 93.995713 
L 69.607504 93.995713 
L 69.793241 87.995213 
L 69.816633 87.995213 
L 70.071848 77.494338 
L 70.350454 77.494338 
L 70.397104 75.994213 
L 70.443324 77.494338 
L 70.489758 77.494338 
L 70.791772 90.995463 
L 70.884547 90.995463 
L 71.046966 95.495838 
L 71.209666 95.495838 
L 71.325571 93.995713 
L 71.348953 93.995713 
L 71.464875 92.495588 
L 71.488283 92.495588 
L 71.604178 90.995463 
L 71.650612 90.995463 
L 71.83635 93.995713 
L 71.85973 93.995713 
L 71.999057 96.995963 
L 72.091895 96.995963 
L 72.48643 116.497588 
L 72.649103 116.497588 
L 72.765038 114.997463 
L 72.904339 114.997463 
L 73.113446 122.498088 
L 73.206325 122.498088 
L 73.32225 123.998213 
L 73.50799 123.998213 
L 73.647293 126.998463 
L 73.693728 126.998463 
L 73.833031 129.998713 
L 74.343811 143.499838 
L 74.41364 143.499838 
L 74.552932 146.500088 
L 74.668851 146.500088 
L 74.784992 148.000213 
L 74.831529 148.000213 
L 74.947458 149.500338 
L 74.970745 149.500338 
L 75.086763 151.000463 
L 75.272504 151.000463 
L 75.388773 152.500588 
L 75.597804 152.500588 
L 75.736852 154.000713 
L 76.154763 154.000713 
L 76.271022 155.500838 
L 76.480102 155.500838 
L 76.596001 154.000713 
L 76.619106 154.000713 
L 76.735357 152.500588 
L 76.781814 152.500588 
L 76.897935 154.000713 
L 77.060419 154.000713 
L 77.153271 155.500838 
L 77.26919 154.000713 
L 77.385292 154.000713 
L 77.408492 152.500588 
L 77.47833 154.000713 
L 77.687098 154.000713 
L 77.780219 152.500588 
L 77.965706 152.500588 
L 78.081973 154.000713 
L 78.128439 154.000713 
L 78.244299 155.500838 
L 78.406975 155.500838 
L 78.522917 154.000713 
L 78.569352 154.000713 
L 78.685437 155.500838 
L 78.847959 155.500838 
L 78.964232 154.000713 
L 79.24286 154.000713 
L 79.358738 155.500838 
L 79.405171 155.500838 
L 79.498041 154.000713 
L 79.637344 154.000713 
L 79.753573 155.500838 
L 79.915951 155.500838 
L 80.032122 157.000963 
L 80.287425 157.000963 
L 80.380293 158.501088 
L 81.355418 158.501088 
L 81.47165 160.001213 
L 81.982465 160.001213 
L 82.098367 161.501338 
L 82.469841 161.501338 
L 82.562954 160.001213 
L 83.027289 160.001213 
L 83.143281 161.501338 
L 83.28259 161.501338 
L 83.398528 160.001213 
L 83.862871 160.001213 
L 83.95574 161.501338 
L 84.071969 160.001213 
L 84.954258 160.001213 
L 85.070166 161.501338 
L 85.255901 161.501338 
L 85.372175 160.001213 
L 85.720247 160.001213 
L 85.836505 161.501338 
L 85.882939 161.501338 
L 85.998854 160.001213 
L 86.4632 160.001213 
L 86.579389 161.501338 
L 87.090203 161.501338 
L 87.206153 163.001463 
L 88.994007 163.001463 
L 89.110203 164.501588 
L 89.24927 163.001463 
L 89.272633 163.001463 
L 89.365495 164.501588 
L 89.481445 163.001463 
L 90.085094 163.001463 
L 90.177963 161.501338 
L 90.294204 163.001463 
L 92.406828 163.001463 
L 92.523067 161.501338 
L 98.095182 161.501338 
L 98.211135 163.001463 
L 98.768348 163.001463 
L 98.884648 161.501338 
L 99.116743 161.501338 
L 99.232691 163.001463 
L 99.534715 163.001463 
L 99.650599 164.501588 
L 100.950762 164.501588 
L 101.067033 166.001713 
L 101.182935 166.001713 
L 101.299188 164.501588 
L 102.158057 164.501588 
L 102.297362 166.001713 
L 102.320767 166.001713 
L 102.436664 164.501588 
L 102.460077 164.501588 
L 102.483099 166.001713 
L 102.552924 164.501588 
L 104.224558 164.501588 
L 104.340481 166.001713 
L 104.387183 166.001713 
L 104.526218 164.501588 
L 105.989067 164.501588 
L 106.081953 166.001713 
L 106.104985 164.501588 
L 106.174661 166.001713 
L 106.244288 166.001713 
L 106.36055 164.501588 
L 106.615763 164.501588 
L 106.708632 163.001463 
L 107.289255 163.001463 
L 107.405151 161.501338 
L 107.614228 161.501338 
L 107.73019 160.001213 
L 108.264393 160.001213 
L 108.380273 158.501088 
L 108.844619 158.501088 
L 108.96087 160.001213 
L 108.983925 160.001213 
L 109.100176 158.501088 
L 109.587575 158.501088 
L 109.72688 160.001213 
L 110.052155 160.001213 
L 110.191227 161.501338 
L 110.864723 161.501338 
L 110.980616 160.001213 
L 111.143269 160.001213 
L 111.259227 161.501338 
L 111.398532 161.501338 
L 111.514787 160.001213 
L 111.816682 160.001213 
L 111.932718 161.501338 
L 114.045292 161.501338 
L 114.161524 163.001463 
L 115.670499 163.001463 
L 115.786654 164.501588 
L 116.018878 164.501588 
L 116.134842 166.001713 
L 116.274144 167.501838 
L 116.343929 167.501838 
L 116.645623 181.002963 
L 116.668931 181.002963 
L 116.831356 185.503338 
L 116.854771 185.503338 
L 117.017093 190.003713 
L 117.063532 190.003713 
L 117.202833 193.003963 
L 117.319074 193.003963 
L 117.435008 196.004213 
L 117.504671 196.004213 
L 117.644171 199.004463 
L 117.713615 199.004463 
L 117.852918 202.004713 
L 117.899637 202.004713 
L 118.08509 205.004963 
L 118.224397 205.004963 
L 118.317477 206.505088 
L 118.410131 206.505088 
L 118.52633 208.005213 
L 118.94423 208.005213 
L 119.06022 209.505338 
L 119.176437 208.005213 
L 119.338827 208.005213 
L 119.45511 206.505088 
L 119.570999 206.505088 
L 119.687092 205.004963 
L 119.826467 205.004963 
L 119.942479 203.504838 
L 120.058713 203.504838 
L 120.174651 202.004713 
L 120.337334 202.004713 
L 120.47662 199.004463 
L 120.662353 199.004463 
L 120.778302 197.504338 
L 120.87117 197.504338 
L 120.964337 196.004213 
L 121.103347 196.004213 
L 121.24265 193.003963 
L 121.799863 193.003963 
L 121.916059 191.503838 
L 121.939169 191.503838 
L 122.078472 188.503588 
L 122.310649 188.503588 
L 122.426872 187.003463 
L 122.496384 187.003463 
L 122.612662 185.503338 
L 122.682121 185.503338 
L 122.821427 184.003213 
L 123.564382 184.003213 
L 123.703685 182.503088 
L 123.727095 182.503088 
L 123.842992 181.002963 
L 124.075163 181.002963 
L 124.214466 178.002713 
L 124.44691 178.002713 
L 124.585941 176.502588 
L 125.468199 176.502588 
L 125.584446 178.002713 
L 125.630884 178.002713 
L 125.746804 176.502588 
L 126.002298 176.502588 
L 126.11828 175.002463 
L 126.141639 175.002463 
L 126.257584 176.502588 
L 126.280908 176.502588 
L 126.396887 175.002463 
L 126.698778 175.002463 
L 126.814798 173.502338 
L 126.907666 173.502338 
L 127.000536 175.002463 
L 127.116647 173.502338 
L 127.139836 173.502338 
L 127.302481 169.001963 
L 127.34893 169.001963 
L 127.488191 172.002213 
L 127.720447 172.002213 
L 127.882792 167.501838 
L 127.929227 167.501838 
L 128.068531 169.001963 
L 128.091944 169.001963 
L 128.231213 172.002213 
L 128.324099 172.002213 
L 128.440008 173.502338 
L 128.509846 173.502338 
L 128.625745 175.002463 
L 129.368695 175.002463 
L 129.484942 173.502338 
L 129.508001 173.502338 
L 129.67073 169.001963 
L 129.740172 169.001963 
L 129.902836 164.501588 
L 130.088595 164.501588 
L 130.204521 166.001713 
L 130.250955 166.001713 
L 130.367232 167.501838 
L 130.576285 167.501838 
L 130.692268 169.001963 
L 130.738665 169.001963 
L 130.854604 170.502088 
L 130.878013 170.502088 
L 130.994206 172.002213 
L 131.110168 172.002213 
L 131.22608 173.502338 
L 133.385502 173.502338 
L 133.454939 172.002213 
L 133.47837 173.502338 
L 133.756948 173.502338 
L 133.872849 175.002463 
L 134.337195 175.002463 
L 134.430063 176.502588 
L 134.546205 175.002463 
L 135.173015 175.002463 
L 135.289255 176.502588 
L 135.359009 176.502588 
L 135.49806 175.002463 
L 135.544493 175.002463 
L 135.660724 173.502338 
L 135.776665 175.002463 
L 136.171514 175.002463 
L 136.287447 173.502338 
L 136.357267 173.502338 
L 136.473183 172.002213 
L 136.496547 172.002213 
L 136.543001 173.502338 
L 136.58933 172.002213 
L 136.914491 172.002213 
L 137.0304 173.502338 
L 137.355441 173.502338 
L 137.471699 175.002463 
L 137.61091 175.002463 
L 137.726922 176.502588 
L 137.773354 176.502588 
L 137.889513 178.002713 
L 138.214672 178.002713 
L 138.330571 179.502838 
L 138.655611 179.502838 
L 138.771858 181.002963 
L 139.352129 181.002963 
L 139.514807 185.503338 
L 139.537864 185.503338 
L 139.677168 188.503588 
L 139.700559 188.503588 
L 139.839808 191.503838 
L 140.09508 191.503838 
L 140.2112 193.003963 
L 140.28082 193.003963 
L 140.420121 196.004213 
L 140.443514 196.004213 
L 140.582813 199.004463 
L 140.69873 199.004463 
L 140.838032 202.004713 
L 141.000736 202.004713 
L 141.116638 203.504838 
L 141.348812 203.504838 
L 141.441681 202.004713 
L 141.627419 202.004713 
L 141.743662 200.504588 
L 141.813156 200.504588 
L 141.906282 202.004713 
L 142.045331 202.004713 
L 142.161613 200.504588 
L 143.368858 200.504588 
L 143.485072 202.004713 
L 143.531234 202.004713 
L 143.624102 203.504838 
L 144.134884 203.504838 
L 144.251106 202.004713 
L 144.27419 203.504838 
L 144.343981 202.004713 
L 144.436827 202.004713 
L 144.553031 200.504588 
L 144.57604 200.504588 
L 144.71553 197.504338 
L 144.761967 197.504338 
L 144.924274 193.003963 
L 145.017143 193.003963 
L 145.156446 190.003713 
L 145.179816 190.003713 
L 145.295746 188.503588 
L 145.713659 188.503588 
L 145.806533 190.003713 
L 146.178006 190.003713 
L 146.271095 191.503838 
L 146.781658 191.503838 
L 146.920961 188.503588 
L 146.967394 188.503588 
L 147.083686 187.003463 
L 147.199571 187.003463 
L 147.222874 185.503338 
L 147.292438 187.003463 
L 147.385308 187.003463 
L 147.524613 184.003213 
L 147.733748 184.003213 
L 147.849659 182.503088 
L 147.91945 182.503088 
L 148.035675 181.002963 
L 148.128267 181.002963 
L 148.244529 179.502838 
L 148.337309 179.502838 
L 148.453583 178.002713 
L 148.569483 178.002713 
L 148.685483 176.502588 
L 148.708814 176.502588 
L 148.755268 175.002463 
L 148.801735 176.502588 
L 148.871221 176.502588 
L 149.28913 187.003463 
L 150.032086 187.003463 
L 150.148332 188.503588 
L 150.171388 188.503588 
L 150.310692 187.003463 
L 150.426971 187.003463 
L 150.566264 184.003213 
L 150.63603 184.003213 
L 150.82147 181.002963 
L 151.00721 181.002963 
L 151.123319 178.002713 
L 151.239381 179.502838 
L 151.309241 179.502838 
L 151.425121 181.002963 
L 151.63424 181.002963 
L 151.773543 178.002713 
L 151.866418 178.002713 
L 151.982325 176.502588 
L 152.144992 181.002963 
L 152.214508 181.002963 
L 152.400522 175.002463 
L 152.423463 175.002463 
L 152.585983 170.502088 
L 152.748663 170.502088 
L 152.911025 166.001713 
L 152.980824 166.001713 
L 153.096761 164.501588 
L 153.12012 164.501588 
L 153.236066 161.501338 
L 153.421806 161.501338 
L 153.538057 160.001213 
L 153.607541 160.001213 
L 153.700702 161.501338 
L 153.863099 158.501088 
L 153.886148 160.001213 
L 153.955975 158.501088 
L 154.164752 158.501088 
L 154.304058 155.500838 
L 154.350492 155.500838 
L 154.513125 160.001213 
L 154.536232 160.001213 
L 154.721971 163.001463 
L 154.768406 163.001463 
L 154.814839 161.501338 
L 154.861274 163.001463 
L 154.907709 163.001463 
L 155.047014 166.001713 
L 155.209723 166.001713 
L 155.256078 164.501588 
L 155.302595 166.001713 
L 155.418488 166.001713 
L 155.650661 170.502088 
L 155.674083 169.001963 
L 155.74353 170.502088 
L 155.766934 170.502088 
L 155.859811 172.002213 
L 155.999115 169.001963 
L 156.045526 169.001963 
L 156.161444 167.501838 
L 156.207878 167.501838 
L 156.347177 170.502088 
L 156.370446 170.502088 
L 156.509896 173.502338 
L 156.857963 173.502338 
L 156.974237 175.002463 
L 157.067106 175.002463 
L 157.183265 176.502588 
L 157.345704 176.502588 
L 157.461609 178.002713 
L 157.55448 178.002713 
L 157.670593 179.502838 
L 157.995796 179.502838 
L 158.111696 181.002963 
L 158.274396 181.002963 
L 158.413706 184.003213 
L 158.483169 184.003213 
L 158.668907 187.003463 
L 158.808212 187.003463 
L 158.901082 188.503588 
L 159.017278 188.503588 
L 159.133254 190.003713 
L 159.156694 190.003713 
L 159.272558 191.503838 
L 159.295907 191.503838 
L 159.411862 193.003963 
L 159.435148 193.003963 
L 159.574535 196.004213 
L 159.644035 196.004213 
L 159.78334 199.004463 
L 159.853018 199.004463 
L 159.969079 200.504588 
L 160.015512 200.504588 
L 160.154814 203.504838 
L 160.52629 203.504838 
L 160.665593 200.504588 
L 160.851334 203.504838 
L 160.944204 203.504838 
L 161.083506 206.505088 
L 161.153165 206.505088 
L 161.292618 209.505338 
L 161.362113 209.505338 
L 161.478393 211.005463 
L 161.548092 211.005463 
L 161.826465 217.005963 
L 161.849883 217.005963 
L 161.965768 220.006213 
L 162.38368 220.006213 
L 162.522983 223.006463 
L 162.592707 223.006463 
L 162.732013 220.006213 
L 162.778417 220.006213 
L 162.894449 218.506088 
L 162.964208 218.506088 
L 163.080199 220.006213 
L 163.17307 220.006213 
L 163.289248 218.506088 
L 163.498111 218.506088 
L 163.637418 221.506338 
L 163.660733 221.506338 
L 163.799995 224.506588 
L 163.916024 224.506588 
L 164.055328 227.506838 
L 164.101764 227.506838 
L 164.241068 224.506588 
L 164.264403 226.006713 
L 164.310818 223.006463 
L 164.450124 218.506088 
L 164.58944 221.506338 
L 164.682272 221.506338 
L 164.821613 224.506588 
L 165.262632 224.506588 
L 165.401937 221.506338 
L 165.495124 223.006463 
L 165.634109 221.506338 
L 165.703892 221.506338 
L 165.843139 224.506588 
L 165.866285 224.506588 
L 166.005591 227.506838 
L 166.330634 227.506838 
L 166.609242 233.507338 
L 166.702111 233.507338 
L 166.771861 232.007213 
L 166.795236 233.507338 
L 166.864698 233.507338 
L 166.98072 235.007463 
L 167.027153 235.007463 
L 167.143355 236.507588 
L 167.166457 236.507588 
L 167.21289 238.007713 
L 167.259617 236.507588 
L 167.352199 236.507588 
L 167.375532 238.007713 
L 167.445068 236.507588 
L 167.584372 236.507588 
L 167.654149 235.007463 
L 167.955851 235.007463 
L 168.072075 236.507588 
L 168.304257 236.507588 
L 168.443465 233.507338 
L 168.582715 236.507588 
L 168.652369 236.507588 
L 168.815056 232.007213 
L 169.16315 232.007213 
L 169.279418 233.507338 
L 169.325788 233.507338 
L 169.464991 236.507588 
L 169.488195 236.507588 
L 169.604453 235.007463 
L 169.790203 235.007463 
L 169.859871 233.507338 
L 170.231153 242.508088 
L 170.254522 242.508088 
L 170.393806 245.508338 
L 170.463326 245.508338 
L 170.579545 247.008463 
L 170.625984 247.008463 
L 170.742161 248.508588 
L 170.927675 251.508838 
L 171.090358 251.508838 
L 171.206278 250.008713 
L 171.276084 250.008713 
L 171.368958 248.508588 
L 171.484892 250.008713 
L 171.508279 250.008713 
L 171.624451 247.008463 
L 171.670632 247.008463 
L 171.809937 244.008213 
L 171.949241 244.008213 
L 172.088545 241.007963 
L 172.297689 241.007963 
L 172.43701 244.008213 
L 172.506741 244.008213 
L 172.622659 245.508338 
L 172.831503 245.508338 
L 172.970809 248.508588 
L 172.994102 248.508588 
L 173.133462 251.508838 
L 173.179961 251.508838 
L 173.295853 253.008963 
L 173.342289 253.008963 
L 173.411973 254.509088 
L 173.435159 253.008963 
L 173.458511 253.008963 
L 173.644229 247.008463 
L 173.713767 247.008463 
L 173.829844 248.508588 
L 173.853071 248.508588 
L 173.969313 247.008463 
L 174.038811 247.008463 
L 174.155021 248.508588 
L 174.317421 248.508588 
L 174.433666 250.008713 
L 174.456728 250.008713 
L 174.596032 247.008463 
L 174.874642 247.008463 
L 174.990871 245.508338 
L 175.199687 245.508338 
L 175.33899 248.508588 
L 175.478293 248.508588 
L 175.617599 245.508338 
L 175.78027 245.508338 
L 175.89621 244.008213 
L 175.966006 244.008213 
L 176.105257 247.008463 
L 176.128383 247.008463 
L 176.291048 251.508838 
L 176.406988 251.508838 
L 176.523217 250.008713 
L 176.662585 253.008963 
L 176.709017 253.008963 
L 176.848328 256.009213 
L 176.941086 256.009213 
L 177.057078 257.509338 
L 177.26624 257.509338 
L 177.358957 259.009463 
L 177.474993 257.509338 
L 177.591252 257.509338 
L 177.707168 254.509088 
L 177.846473 256.009213 
L 177.892905 256.009213 
L 178.032212 259.009463 
L 178.12508 259.009463 
L 178.241235 257.509338 
L 178.380623 257.509338 
L 178.566362 251.508838 
L 178.659104 251.508838 
L 178.682298 253.008963 
L 178.752122 251.508838 
L 178.891342 251.508838 
L 179.007343 253.008963 
L 179.100214 253.008963 
L 179.21644 251.508838 
L 179.448611 251.508838 
L 179.65743 259.009463 
L 179.680816 259.009463 
L 179.796738 260.509588 
L 179.82006 260.509588 
L 179.959251 257.509338 
L 179.982473 257.509338 
L 180.168214 251.508838 
L 180.261085 251.508838 
L 180.354195 253.008963 
L 180.40039 253.008963 
L 180.51667 251.508838 
L 180.539692 251.508838 
L 180.65595 253.008963 
L 180.679001 253.008963 
L 180.818572 256.009213 
L 180.888068 256.009213 
L 180.980939 257.509338 
L 181.120304 254.509088 
L 181.166724 254.509088 
L 181.282654 253.008963 
L 181.514826 253.008963 
L 181.631047 251.508838 
L 181.654132 251.508838 
L 181.839871 254.509088 
L 181.863171 254.509088 
L 181.932738 256.009213 
L 181.956131 254.509088 
L 182.164915 254.509088 
L 182.304219 257.509338 
L 182.397087 257.509338 
L 182.513341 259.009463 
L 182.582816 259.009463 
L 182.699086 257.509338 
L 182.768568 257.509338 
L 182.954305 263.509838 
L 182.977666 263.509838 
L 183.11698 266.510088 
L 183.186483 266.510088 
L 183.325787 263.509838 
L 183.41884 263.509838 
L 183.604393 266.510088 
L 183.627773 266.510088 
L 183.743702 268.010213 
L 183.952769 268.010213 
L 184.092146 265.009963 
L 184.11518 265.009963 
L 184.138579 263.509838 
L 184.208049 265.009963 
L 184.231295 265.009963 
L 184.370637 262.009713 
L 184.39379 262.009713 
L 184.510058 260.509588 
L 184.6724 260.509588 
L 184.788507 259.009463 
L 184.835044 260.509588 
L 184.881537 259.009463 
L 184.927969 259.009463 
L 185.043878 260.509588 
L 185.090313 260.509588 
L 185.183437 262.009713 
L 185.22962 262.009713 
L 185.345894 263.509838 
L 185.415358 262.009713 
L 185.438752 263.509838 
L 185.995969 263.509838 
L 186.367467 235.007463 
L 186.808403 167.501838 
L 187.063973 161.501338 
L 187.319182 190.003713 
L 187.365616 188.503588 
L 187.504921 185.503338 
L 187.551355 185.503338 
L 187.876396 158.501088 
L 188.03906 141.999713 
L 188.062135 144.999963 
L 188.247874 167.501838 
L 188.990824 117.997713 
L 189.06049 120.997963 
L 189.176561 122.498088 
L 189.199939 122.498088 
L 189.269429 120.997963 
L 189.408732 131.498838 
L 189.432136 129.998713 
L 189.501601 129.998713 
L 189.687339 123.998213 
L 189.733773 123.998213 
L 189.850019 117.997713 
L 189.873073 120.997963 
L 190.058811 129.998713 
L 190.082215 128.498588 
L 190.198112 128.498588 
L 190.453657 116.497588 
L 190.755595 129.998713 
L 190.801763 129.998713 
L 190.918011 131.498838 
L 191.242912 108.996963 
L 191.31254 111.997213 
L 191.591144 123.998213 
L 191.660782 123.998213 
L 191.893149 107.496838 
L 191.939606 111.997213 
L 192.009053 122.498088 
L 192.194791 140.499588 
L 192.26461 140.499588 
L 192.589598 157.000963 
L 192.752003 152.500588 
L 192.798439 152.500588 
L 192.984176 158.501088 
L 193.030611 158.501088 
L 193.169916 154.000713 
L 193.332605 158.501088 
L 193.355652 158.501088 
L 193.402335 160.001213 
L 193.448521 158.501088 
L 193.494955 158.501088 
L 193.611206 160.001213 
L 193.657642 160.001213 
L 193.796941 163.001463 
L 193.820292 163.001463 
L 193.959303 166.001713 
L 194.029134 166.001713 
L 194.284342 152.500588 
L 194.307615 154.000713 
L 194.354153 155.500838 
L 194.377213 154.000713 
L 194.655817 141.999713 
L 194.702484 141.999713 
L 195.027296 157.000963 
L 195.073728 157.000963 
L 195.120398 158.501088 
L 195.166598 157.000963 
L 195.189891 157.000963 
L 195.329266 154.000713 
L 195.352336 154.000713 
L 195.630944 141.999713 
L 195.770245 141.999713 
L 195.932931 148.000213 
L 196.281027 129.998713 
L 196.420569 134.499088 
L 196.490041 134.499088 
L 196.768719 146.500088 
L 196.791804 146.500088 
L 197.023978 151.000463 
L 197.233097 151.000463 
L 197.395452 146.500088 
L 197.465239 146.500088 
L 197.581191 144.999963 
L 197.720494 144.999963 
L 197.859796 146.500088 
L 197.929599 146.500088 
L 198.068948 149.500338 
L 198.161703 149.500338 
L 198.324142 154.000713 
L 198.533297 154.000713 
L 198.556312 152.500588 
L 198.603051 155.500838 
L 198.742051 163.001463 
L 198.904734 167.501838 
L 198.997616 167.501838 
L 199.183374 173.502338 
L 199.25283 173.502338 
L 199.415524 178.002713 
L 199.485259 178.002713 
L 199.670744 181.002963 
L 199.717179 181.002963 
L 199.85648 184.003213 
L 199.879859 184.003213 
L 199.995785 185.503338 
L 200.019142 185.503338 
L 200.158483 188.503588 
L 200.227956 188.503588 
L 200.367548 191.503838 
L 201.040739 191.503838 
L 201.156652 193.003963 
L 201.388823 193.003963 
L 201.505114 194.504088 
L 202.201531 194.504088 
L 202.271081 193.003963 
L 202.294515 194.504088 
L 202.317514 194.504088 
L 202.433756 193.003963 
L 202.665876 193.003963 
L 202.781861 194.504088 
L 202.85167 194.504088 
L 202.967841 197.504338 
L 203.037307 197.504338 
L 203.176723 200.504588 
L 203.269602 200.504588 
L 203.385512 202.004713 
L 203.501693 202.004713 
L 203.617687 203.504838 
L 203.803422 203.504838 
L 203.919584 205.004963 
L 204.082033 205.004963 
L 204.198268 206.505088 
L 204.31443 206.505088 
L 204.430462 208.005213 
L 204.476847 208.005213 
L 204.592812 209.505338 
L 205.010724 209.505338 
L 205.126963 211.005463 
L 205.985852 211.005463 
L 206.032537 212.505588 
L 206.078723 211.005463 
L 206.171592 211.005463 
L 206.287841 212.505588 
L 206.543069 212.505588 
L 206.65934 211.005463 
L 206.798635 211.005463 
L 206.91477 212.505588 
L 207.05385 212.505588 
L 207.193157 214.005713 
L 207.680909 214.005713 
L 207.797025 212.505588 
L 207.889677 212.505588 
L 208.005925 214.005713 
L 208.516699 214.005713 
L 208.632628 215.505838 
L 208.748841 215.505838 
L 208.864804 217.005963 
L 208.888228 217.005963 
L 209.027502 220.006213 
L 209.097248 220.006213 
L 209.282718 223.006463 
L 209.329153 223.006463 
L 209.468458 226.006713 
L 209.514893 226.006713 
L 209.654194 227.506838 
L 209.956179 227.506838 
L 210.095483 230.507088 
L 210.14186 230.507088 
L 210.281255 233.507338 
L 210.350717 233.507338 
L 210.490021 236.507588 
L 210.513397 235.007463 
L 210.58289 236.507588 
L 210.606191 236.507588 
L 210.745501 239.507838 
L 210.977734 239.507838 
L 211.093672 241.007963 
L 211.395673 241.007963 
L 211.511586 242.508088 
L 212.510092 242.508088 
L 212.626017 244.008213 
L 212.951067 244.008213 
L 213.067155 242.508088 
L 213.64759 242.508088 
L 213.76376 241.007963 
L 214.808761 241.007963 
L 214.924637 239.507838 
L 215.690718 239.507838 
L 215.830025 236.507588 
L 215.969328 236.507588 
L 216.062198 238.007713 
L 216.526788 238.007713 
L 216.665851 236.507588 
L 217.176633 236.507588 
L 217.292884 238.007713 
L 217.501678 238.007713 
L 217.617971 239.507838 
L 217.757239 239.507838 
L 217.873458 241.007963 
L 218.175063 241.007963 
L 218.337505 236.507588 
L 218.52324 236.507588 
L 218.639495 238.007713 
L 218.825214 238.007713 
L 218.941154 236.507588 
L 219.103832 236.507588 
L 219.219764 238.007713 
L 219.266199 238.007713 
L 219.405506 241.007963 
L 219.591522 241.007963 
L 219.730547 242.508088 
L 220.009157 242.508088 
L 220.194895 245.508338 
L 220.473803 245.508338 
L 220.659243 242.508088 
L 220.752113 242.508088 
L 220.868399 244.008213 
L 221.239866 244.008213 
L 221.356001 245.508338 
L 221.541505 245.508338 
L 221.657811 247.008463 
L 222.516637 247.008463 
L 222.63292 245.508338 
L 222.818673 245.508338 
L 222.934552 244.008213 
L 223.468722 244.008213 
L 223.584638 242.508088 
L 223.654449 242.508088 
L 223.770376 241.007963 
L 224.466898 241.007963 
L 224.583137 239.507838 
L 224.791943 239.507838 
L 224.908052 241.007963 
L 225.233249 241.007963 
L 225.34916 242.508088 
L 225.534898 242.508088 
L 225.651174 241.007963 
L 225.720639 241.007963 
L 225.859942 239.507838 
L 226.231421 239.507838 
L 226.347715 238.007713 
L 226.440566 238.007713 
L 226.556466 236.507588 
L 226.602897 236.507588 
L 226.7422 235.007463 
L 226.858502 235.007463 
L 226.997769 232.007213 
L 227.160117 232.007213 
L 227.276391 230.507088 
L 227.64791 230.507088 
L 227.763769 229.006963 
L 227.880018 229.006963 
L 228.019279 226.006713 
L 228.065753 226.006713 
L 228.205059 223.006463 
L 228.228114 223.006463 
L 228.344364 224.506588 
L 228.413852 224.506588 
L 228.530117 223.006463 
L 228.622979 223.006463 
L 228.762265 220.006213 
L 228.785333 220.006213 
L 228.924635 218.506088 
L 228.994489 218.506088 
L 229.133793 215.505838 
L 229.365923 215.505838 
L 229.505261 218.506088 
L 229.714018 218.506088 
L 229.899764 212.505588 
L 229.946199 212.505588 
L 230.085504 209.505338 
L 230.108865 209.505338 
L 230.224808 208.005213 
L 230.410546 208.005213 
L 230.550002 205.004963 
L 230.735589 202.004713 
L 230.851816 203.504838 
L 230.874894 203.504838 
L 231.037429 199.004463 
L 231.060631 199.004463 
L 231.176887 197.504338 
L 231.316187 200.504588 
L 231.432353 197.504338 
L 231.524979 197.504338 
L 231.64119 196.004213 
L 231.710717 196.004213 
L 231.850022 193.003963 
L 232.221497 184.003213 
L 232.244894 184.003213 
L 232.360799 182.503088 
L 232.477057 185.503338 
L 232.592974 184.003213 
L 232.616272 184.003213 
L 232.732278 182.503088 
L 232.918016 173.502338 
L 233.05732 169.001963 
L 233.219848 173.502338 
L 233.312865 173.502338 
L 233.428795 172.002213 
L 233.545091 172.002213 
L 233.614777 163.001463 
L 234.032443 119.497838 
L 234.195132 114.997463 
L 234.218177 116.497588 
L 234.357484 123.998213 
L 234.403918 122.498088 
L 234.450351 117.997713 
L 234.497095 119.497838 
L 234.566528 123.998213 
L 234.613042 122.498088 
L 234.914696 95.495838 
L 235.100433 84.994963 
L 235.12379 86.495088 
L 235.239734 90.995463 
L 235.379234 80.494588 
L 235.402263 81.994713 
L 235.518341 93.995713 
L 235.866668 148.000213 
L 235.889813 146.500088 
L 236.191847 107.496838 
L 236.261578 110.497088 
L 236.331075 110.497088 
L 236.400593 104.496588 
L 236.447026 107.496838 
L 236.60968 107.496838 
L 236.702406 95.495838 
L 236.88834 72.993963 
L 236.911373 74.494088 
L 237.166811 93.995713 
L 237.189974 93.995713 
L 237.329276 96.995963 
L 237.352652 96.995963 
L 237.515016 101.496338 
L 237.584681 101.496338 
L 237.74719 105.996713 
L 237.770567 105.996713 
L 237.886491 104.496588 
L 238.443691 134.499088 
L 238.46696 132.998963 
L 238.513498 134.499088 
L 238.699252 140.499588 
L 238.722311 140.499588 
L 238.838545 141.999713 
L 238.88483 141.999713 
L 239.000918 144.999963 
L 239.163587 140.499588 
L 239.210083 140.499588 
L 239.349238 137.499338 
L 239.418827 137.499338 
L 239.604567 143.499838 
L 239.651001 143.499838 
L 239.767109 141.999713 
L 239.836738 141.999713 
L 240.022474 148.000213 
L 240.068908 148.000213 
L 240.208214 151.000463 
L 240.347516 151.000463 
L 240.486821 154.000713 
L 240.765426 154.000713 
L 240.881679 155.500838 
L 240.90473 155.500838 
L 240.997598 157.000963 
L 241.20671 157.000963 
L 241.322641 158.501088 
L 241.462182 158.501088 
L 241.647682 161.501338 
L 241.740552 161.501338 
L 241.856824 163.001463 
L 241.879855 163.001463 
L 242.042584 166.001713 
L 242.065593 164.501588 
L 242.135401 166.001713 
L 242.158462 166.001713 
L 242.297767 169.001963 
L 242.321132 169.001963 
L 242.437068 170.502088 
L 242.483503 170.502088 
L 242.599731 172.002213 
L 242.739023 172.002213 
L 242.854978 173.502338 
L 242.901415 173.502338 
L 243.017652 175.002463 
L 243.087151 175.002463 
L 243.180018 176.502588 
L 243.296217 176.502588 
L 243.412194 178.002713 
L 243.644663 178.002713 
L 243.783668 179.502838 
L 244.131958 179.502838 
L 244.248014 178.002713 
L 244.29445 178.002713 
L 244.410738 179.502838 
L 244.526856 178.002713 
L 244.712361 178.002713 
L 244.851665 181.002963 
L 244.898101 181.002963 
L 245.014234 182.503088 
L 245.037401 182.503088 
L 245.176706 179.502838 
L 245.91966 179.502838 
L 246.035864 181.002963 
L 246.43044 181.002963 
L 246.546725 179.502838 
L 246.662612 179.502838 
L 246.778787 178.002713 
L 246.801915 178.002713 
L 246.918121 176.502588 
L 247.266263 176.502588 
L 247.405563 173.502338 
L 247.428895 173.502338 
L 247.544868 175.002463 
L 247.730608 175.002463 
L 247.846891 176.502588 
L 247.939758 176.502588 
L 248.055651 178.002713 
L 248.218367 178.002713 
L 248.357644 181.002963 
L 248.496801 181.002963 
L 248.612867 179.502838 
L 248.68262 179.502838 
L 248.798605 181.002963 
L 248.845038 181.002963 
L 248.961209 182.503088 
L 248.984341 182.503088 
L 249.100616 184.003213 
L 249.193481 184.003213 
L 249.35581 188.503588 
L 249.402252 188.503588 
L 249.541556 191.503838 
L 249.564816 191.503838 
L 249.680857 193.003963 
L 249.704229 193.003963 
L 249.866598 197.504338 
L 250.702422 197.504338 
L 250.81865 196.004213 
L 250.888159 196.004213 
L 251.004399 194.504088 
L 251.375865 194.504088 
L 251.491808 193.003963 
L 251.631112 193.003963 
L 251.793794 188.503588 
L 251.863285 188.503588 
L 251.979371 187.003463 
L 252.072387 187.003463 
L 252.188328 185.503338 
L 252.327631 185.503338 
L 252.443776 184.003213 
L 252.606239 184.003213 
L 252.722461 185.503338 
L 253.209889 185.503338 
L 253.326052 187.003463 
L 253.581364 187.003463 
L 253.674233 185.503338 
L 253.859972 188.503588 
L 253.883338 188.503588 
L 253.999276 187.003463 
L 254.092144 187.003463 
L 254.208326 188.503588 
L 254.463621 188.503588 
L 254.510056 187.003463 
L 254.556492 188.503588 
L 254.742231 188.503588 
L 254.858385 190.003713 
L 254.927967 190.003713 
L 255.044067 188.503588 
L 255.18354 191.503838 
L 255.438995 191.503838 
L 255.578054 193.003963 
L 255.601466 193.003963 
L 255.717357 194.504088 
L 255.833596 194.504088 
L 255.949531 193.003963 
L 256.181704 193.003963 
L 256.297975 194.504088 
L 256.413878 194.504088 
L 256.553182 197.504338 
L 256.599615 197.504338 
L 256.738919 200.504588 
L 256.855094 202.004713 
L 256.994489 199.004463 
L 257.017528 199.004463 
L 257.133744 197.504338 
L 257.273026 197.504338 
L 257.412363 200.504588 
L 257.435439 200.504588 
L 257.551644 199.004463 
L 257.598101 199.004463 
L 257.783859 205.004963 
L 257.899785 205.004963 
L 258.016014 206.505088 
L 258.108766 206.505088 
L 258.248212 203.504838 
L 258.573171 203.504838 
L 258.735611 199.004463 
L 258.874913 199.004463 
L 258.967771 200.504588 
L 259.084016 199.004463 
L 259.107085 199.004463 
L 259.223357 200.504588 
L 259.316217 200.504588 
L 259.362616 199.004463 
L 259.408908 200.504588 
L 259.548427 200.504588 
L 259.687645 197.504338 
L 259.85004 197.504338 
L 259.873315 199.004463 
L 259.942907 197.504338 
L 259.989343 197.504338 
L 260.128649 200.504588 
L 260.151993 200.504588 
L 260.268222 202.004713 
L 260.337722 202.004713 
L 260.430648 203.504838 
L 260.54656 202.004713 
L 260.569954 202.004713 
L 260.778734 209.505338 
L 260.80208 209.505338 
L 260.941407 212.505588 
L 260.987895 212.505588 
L 261.103776 214.005713 
L 261.243079 214.005713 
L 261.382385 211.005463 
L 261.521691 211.005463 
L 261.660996 214.005713 
L 261.684342 214.005713 
L 261.800297 215.505838 
L 261.823676 215.505838 
L 261.939602 214.005713 
L 261.986037 214.005713 
L 262.171775 211.005463 
L 262.241598 211.005463 
L 262.334456 212.505588 
L 262.496819 208.005213 
L 262.566661 208.005213 
L 262.705953 211.005463 
L 262.775426 211.005463 
L 262.914728 214.005713 
L 262.938018 214.005713 
L 263.054034 215.505838 
L 263.216746 215.505838 
L 263.355888 218.506088 
L 263.379079 218.506088 
L 263.518383 221.506338 
L 263.634664 221.506338 
L 263.750811 220.006213 
L 263.91319 220.006213 
L 264.052574 217.005963 
L 264.0756 217.005963 
L 264.214895 220.006213 
L 264.516907 220.006213 
L 264.656034 223.006463 
L 264.702572 223.006463 
L 264.841927 226.006713 
L 264.888376 226.006713 
L 265.027686 229.006963 
L 265.050943 229.006963 
L 265.190033 227.506838 
L 265.399179 227.506838 
L 265.584848 221.506338 
L 265.654378 221.506338 
L 265.793684 224.506588 
L 265.933263 221.506338 
L 266.211597 221.506338 
L 266.327839 220.006213 
L 266.44377 220.006213 
L 266.606442 224.506588 
L 266.792188 224.506588 
L 266.931481 227.506838 
L 267.140291 227.506838 
L 267.186725 226.006713 
L 267.233161 227.506838 
L 267.302865 227.506838 
L 267.418903 229.006963 
L 267.581634 229.006963 
L 267.697785 230.507088 
L 267.836812 230.507088 
L 267.976115 233.507338 
L 268.068985 233.507338 
L 268.115686 235.007463 
L 268.161854 233.507338 
L 268.254726 233.507338 
L 268.370946 235.007463 
L 268.4869 233.507338 
L 268.533334 233.507338 
L 268.672637 232.007213 
L 268.788861 232.007213 
L 268.858377 233.507338 
L 268.881768 232.007213 
L 268.904813 232.007213 
L 269.090551 226.006713 
L 269.276291 226.006713 
L 269.415597 221.506338 
L 269.5549 221.506338 
L 269.694201 218.506088 
L 269.810434 218.506088 
L 270.181935 188.503588 
L 270.437158 169.001963 
L 270.460551 169.001963 
L 270.924864 144.999963 
L 270.947934 144.999963 
L 271.087239 138.999463 
L 271.180384 143.499838 
L 271.22654 141.999713 
L 271.272977 143.499838 
L 271.319648 141.999713 
L 271.342786 141.999713 
L 271.458713 132.998963 
L 271.528503 135.999213 
L 271.574969 137.499338 
L 271.598016 135.999213 
L 272.015926 92.495588 
L 272.085582 93.995713 
L 272.201663 95.495838 
L 272.271369 93.995713 
L 272.480506 83.494838 
L 272.526706 84.994963 
L 272.666006 98.496088 
L 272.712441 96.995963 
L 272.898177 90.995463 
L 273.130348 107.496838 
L 273.176783 107.496838 
L 273.455391 83.494838 
L 273.594695 72.993963 
L 273.618004 74.494088 
L 273.780682 89.495338 
L 273.826861 87.995213 
L 273.850138 87.995213 
L 273.989564 84.994963 
L 274.012601 84.994963 
L 274.128863 87.995213 
L 274.453875 72.993963 
L 274.523377 72.993963 
L 274.709114 78.994463 
L 274.755551 78.994463 
L 274.801982 77.494338 
L 274.848419 78.994463 
L 274.964683 78.994463 
L 275.080589 84.994963 
L 275.127026 83.494838 
L 275.150373 83.494838 
L 275.266323 86.495088 
L 275.312761 83.494838 
L 275.359192 86.495088 
L 275.429036 89.495338 
L 275.45206 87.995213 
L 275.498487 87.995213 
L 275.544929 90.995463 
L 276.171974 93.995713 
L 276.566487 72.993963 
L 276.636277 77.494338 
L 276.68274 75.994213 
L 276.914908 56.492588 
L 276.961316 63.993213 
L 277.147024 81.994713 
L 277.170134 80.494588 
L 277.21684 81.994713 
L 277.37925 86.495088 
L 277.518509 80.494588 
L 277.611335 84.994963 
L 277.634648 83.494838 
L 278.145251 38.491088 
L 278.191683 39.991213 
L 278.215065 39.991213 
L 278.23812 38.491088 
L 278.307847 39.991213 
L 278.470288 44.491588 
L 278.609593 39.991213 
L 278.656028 36.990963 
L 278.702462 39.991213 
L 278.725842 39.991213 
L 279.538273 89.495338 
L 279.561655 87.995213 
L 279.584709 87.995213 
L 279.793826 78.994463 
L 279.909752 80.494588 
L 280.049056 71.493838 
L 280.072327 72.993963 
L 280.188356 74.494088 
L 280.234791 71.493838 
L 280.281481 72.993963 
L 280.443878 77.494338 
L 280.490355 77.494338 
L 280.699396 69.993713 
L 280.768887 69.993713 
L 280.977741 77.494338 
L 281.070607 77.494338 
L 282.115529 137.499338 
L 282.138597 137.499338 
L 282.30124 141.999713 
L 282.34766 141.999713 
L 282.510074 146.500088 
L 282.556508 146.500088 
L 284.878234 164.501588 
L 285.017537 167.501838 
L 285.157033 167.501838 
L 285.296143 169.001963 
L 285.574752 169.001963 
L 285.714052 170.502088 
L 285.737446 170.502088 
L 285.853356 169.001963 
L 285.900017 169.001963 
L 286.039314 172.002213 
L 286.08553 172.002213 
L 286.201753 170.502088 
L 286.271264 170.502088 
L 286.41057 173.502338 
L 286.457004 173.502338 
L 286.735609 179.502838 
L 286.758917 179.502838 
L 286.874916 181.002963 
L 287.037597 184.003213 
L 287.223303 184.003213 
L 287.339536 187.003463 
L 287.432128 187.003463 
L 287.57143 184.003213 
L 287.641139 184.003213 
L 287.75717 182.503088 
L 287.803881 182.503088 
L 287.826846 184.003213 
L 288.105583 185.503338 
L 288.221518 184.003213 
L 288.291278 184.003213 
L 288.314386 185.503338 
L 288.47706 185.503338 
L 288.592995 184.003213 
L 288.709232 184.003213 
L 288.825333 185.503338 
L 288.848406 185.503338 
L 288.987823 188.503588 
L 289.080676 188.503588 
L 289.219993 191.503838 
L 289.243289 191.503838 
L 289.382385 193.003963 
L 289.475253 193.003963 
L 289.591478 191.503838 
L 289.707416 191.503838 
L 289.823633 193.003963 
L 290.311073 193.003963 
L 290.450377 196.004213 
L 290.868289 196.004213 
L 291.00783 193.003963 
L 291.239767 193.003963 
L 291.355987 194.504088 
L 291.402421 194.504088 
L 291.541635 191.503838 
L 291.843416 191.503838 
L 292.029153 188.503588 
L 292.07559 188.503588 
L 292.191824 187.003463 
L 292.214893 187.003463 
L 292.330975 188.503588 
L 292.447065 187.003463 
L 292.4704 187.003463 
L 292.586368 185.503338 
L 292.65617 185.503338 
L 292.818543 179.502838 
L 292.93475 181.002963 
L 292.981239 181.002963 
L 293.097148 182.503088 
L 293.120547 182.503088 
L 293.236453 184.003213 
L 293.25979 184.003213 
L 293.399128 181.002963 
L 293.608178 181.002963 
L 293.747235 182.503088 
L 293.909918 182.503088 
L 294.025843 184.003213 
L 294.072534 184.003213 
L 294.211584 187.003463 
L 294.536626 187.003463 
L 294.675926 184.003213 
L 294.745767 184.003213 
L 294.861664 185.503338 
L 294.977809 184.003213 
L 295.09384 184.003213 
L 295.233145 187.003463 
L 295.326014 187.003463 
L 295.442216 185.503338 
L 295.558185 187.003463 
L 295.60462 187.003463 
L 295.720842 188.503588 
L 295.767272 188.503588 
L 295.883231 187.003463 
L 296.068969 187.003463 
L 296.185171 188.503588 
L 296.301141 188.503588 
L 296.417382 190.003713 
L 296.626186 190.003713 
L 296.742366 188.503588 
L 297.34607 188.503588 
L 297.462005 187.003463 
L 297.485383 187.003463 
L 297.601309 185.503338 
L 297.694178 185.503338 
L 297.810418 187.003463 
L 297.903285 187.003463 
L 297.926351 188.503588 
L 297.97304 187.003463 
L 298.460386 187.003463 
L 298.576438 185.503338 
L 298.669308 185.503338 
L 298.785567 184.003213 
L 299.365826 184.003213 
L 299.482022 182.503088 
L 299.598 182.503088 
L 299.690867 184.003213 
L 300.27142 184.003213 
L 300.387388 182.503088 
L 300.503631 182.503088 
L 300.64281 185.503338 
L 300.712427 185.503338 
L 300.828637 184.003213 
L 301.060679 184.003213 
L 301.083907 185.503338 
L 301.153718 184.003213 
L 301.246586 184.003213 
L 301.339436 185.503338 
L 301.455382 184.003213 
L 301.733989 184.003213 
L 301.850243 185.503338 
L 301.873291 185.503338 
L 302.012597 187.003463 
L 302.198332 187.003463 
L 302.314546 188.503588 
L 302.384071 188.503588 
L 302.500324 190.003713 
L 302.709114 190.003713 
L 302.825231 191.503838 
L 302.964641 188.503588 
L 303.196812 188.503588 
L 303.312762 190.003713 
L 303.429009 190.003713 
L 303.544936 191.503838 
L 303.614721 191.503838 
L 303.730676 193.003963 
L 304.171916 193.003963 
L 304.287887 191.503838 
L 304.520254 191.503838 
L 304.659367 190.003713 
L 304.752236 190.003713 
L 304.86847 191.503838 
L 305.007656 191.503838 
L 305.123714 193.003963 
L 305.239958 191.503838 
L 305.51857 191.503838 
L 305.634494 193.003963 
L 305.750764 193.003963 
L 305.889935 196.004213 
L 306.122193 196.004213 
L 306.215071 197.504338 
L 306.331012 196.004213 
L 306.493731 196.004213 
L 306.609619 194.504088 
L 306.934659 194.504088 
L 307.1204 188.503588 
L 307.19008 188.503588 
L 307.259703 187.003463 
L 307.283072 188.503588 
L 307.631181 188.503588 
L 307.770485 191.503838 
L 307.956223 191.503838 
L 308.07236 193.003963 
L 308.211751 193.003963 
L 308.281267 191.503838 
L 308.30462 193.003963 
L 308.629654 193.003963 
L 308.745613 191.503838 
L 309.233337 191.503838 
L 309.349553 190.003713 
L 309.604811 190.003713 
L 309.72074 191.503838 
L 309.744109 191.503838 
L 309.860044 193.003963 
L 309.883388 193.003963 
L 309.999346 194.504088 
L 310.533516 194.504088 
L 310.64966 193.003963 
L 310.997816 193.003963 
L 311.113779 191.503838 
L 311.833646 191.503838 
L 311.949824 190.003713 
L 312.367514 190.003713 
L 312.506817 188.503588 
L 313.203336 188.503588 
L 313.31949 187.003463 
L 313.435508 187.003463 
L 313.574812 190.003713 
L 313.714361 190.003713 
L 313.83035 191.503838 
L 313.876831 191.503838 
L 314.016115 194.504088 
L 314.108994 194.504088 
L 314.224893 196.004213 
L 314.666108 196.004213 
L 314.805468 199.004463 
L 314.87498 199.004463 
L 314.96785 200.504588 
L 315.223376 200.504588 
L 315.33933 199.004463 
L 315.641299 199.004463 
L 315.757238 200.504588 
L 316.105665 200.504588 
L 316.221581 199.004463 
L 316.268017 199.004463 
L 316.384187 197.504338 
L 316.430633 197.504338 
L 316.570006 194.504088 
L 316.662881 194.504088 
L 316.802056 191.503838 
L 316.848593 191.503838 
L 316.987867 188.503588 
L 317.057404 188.503588 
L 317.196969 185.503338 
L 317.684332 185.503338 
L 317.800359 184.003213 
L 317.870167 184.003213 
L 317.986097 185.503338 
L 318.450442 185.503338 
L 318.589747 182.503088 
L 318.61308 182.503088 
L 318.798818 176.502588 
L 318.821922 176.502588 
L 318.984481 172.002213 
L 319.054093 172.002213 
L 319.17037 170.502088 
L 319.332701 170.502088 
L 319.448889 172.002213 
L 319.564874 170.502088 
L 319.657743 170.502088 
L 319.774022 169.001963 
L 320.029223 169.001963 
L 320.145385 170.502088 
L 320.540001 170.502088 
L 320.679563 167.501838 
L 320.72574 167.501838 
L 320.841909 166.001713 
L 320.888407 166.001713 
L 321.399186 138.999463 
L 321.445619 138.999463 
L 321.607996 134.499088 
L 321.677763 134.499088 
L 321.956413 122.498088 
L 321.979689 122.498088 
L 322.095724 116.497588 
L 322.142188 117.997713 
L 322.444101 131.498838 
L 322.513595 131.498838 
L 322.67599 126.998463 
L 322.69937 126.998463 
L 322.815294 125.498338 
L 322.862023 125.498338 
L 323.233202 116.497588 
L 323.349336 116.497588 
L 324.069022 158.501088 
L 324.25476 158.501088 
L 324.370955 160.001213 
L 324.394064 160.001213 
L 324.53337 163.001463 
L 324.579805 163.001463 
L 325.044404 175.002463 
L 325.067355 175.002463 
L 325.18345 176.502588 
L 325.369191 176.502588 
L 325.462058 178.002713 
L 325.554928 178.002713 
L 325.671134 179.502838 
L 325.694232 179.502838 
L 325.810438 178.002713 
L 325.972839 178.002713 
L 326.089088 179.502838 
L 326.530057 179.502838 
L 326.646288 181.002963 
L 326.66936 181.002963 
L 326.808834 182.503088 
L 326.971319 182.503088 
L 327.087268 184.003213 
L 327.273006 184.003213 
L 327.389229 185.503338 
L 328.596455 185.503338 
L 328.712474 187.003463 
L 328.735749 187.003463 
L 328.851773 188.503588 
L 329.060831 188.503588 
L 329.176815 190.003713 
L 329.246599 190.003713 
L 329.362555 191.503838 
L 329.525173 191.503838 
L 329.641161 193.003963 
L 330.105505 193.003963 
L 330.221737 194.504088 
L 330.407464 194.504088 
L 330.52342 196.004213 
L 330.546702 196.004213 
L 330.662722 197.504338 
L 330.709379 197.504338 
L 330.778872 196.004213 
L 330.802023 197.504338 
L 331.034199 197.504338 
L 331.127068 199.004463 
L 331.266371 197.504338 
L 331.405677 197.504338 
L 331.429001 199.004463 
L 331.498543 197.504338 
L 331.521939 197.504338 
L 331.637851 199.004463 
L 332.148627 199.004463 
L 332.264831 200.504588 
L 332.450618 200.504588 
L 332.566542 202.004713 
L 332.705844 202.004713 
L 332.822106 203.504838 
L 333.4257 203.504838 
L 333.565051 200.504588 
L 333.588106 200.504588 
L 333.727408 197.504338 
L 333.750717 197.504338 
L 333.86671 199.004463 
L 333.890087 199.004463 
L 334.029386 202.004713 
L 334.145321 202.004713 
L 334.284624 205.004963 
L 334.307977 205.004963 
L 334.447295 202.004713 
L 334.49376 202.004713 
L 334.679311 208.005213 
L 334.702535 206.505088 
L 334.77236 208.005213 
L 334.84184 208.005213 
L 334.958053 209.505338 
L 335.074015 209.505338 
L 335.190252 211.005463 
L 335.259756 209.505338 
L 335.283171 211.005463 
L 335.352625 211.005463 
L 335.49193 214.005713 
L 335.816972 214.005713 
L 335.93325 212.505588 
L 335.956554 212.505588 
L 336.142015 209.505338 
L 336.652801 209.505338 
L 336.792103 212.505588 
L 336.815442 212.505588 
L 336.931409 211.005463 
L 337.140507 211.005463 
L 337.256453 209.505338 
L 337.488627 214.005713 
L 337.813671 214.005713 
L 337.952973 217.005963 
L 337.999407 217.005963 
L 338.11563 215.505838 
L 338.231582 215.505838 
L 338.301358 217.005963 
L 338.324453 215.505838 
L 338.463758 215.505838 
L 338.603233 212.505588 
L 338.742362 212.505588 
L 338.858607 214.005713 
L 339.067407 214.005713 
L 339.206715 212.505588 
L 339.276543 212.505588 
L 339.392451 211.005463 
L 339.555119 215.505838 
L 339.578191 215.505838 
L 339.694356 217.005963 
L 339.78732 217.005963 
L 339.903494 218.506088 
L 340.158776 218.506088 
L 340.298029 221.506338 
L 340.321407 221.506338 
L 340.460448 223.006463 
L 340.739057 223.006463 
L 340.924796 226.006713 
L 340.994612 226.006713 
L 341.133874 229.006963 
L 341.458942 229.006963 
L 341.598256 226.006713 
L 341.667985 226.006713 
L 341.807053 223.006463 
L 342.016099 223.006463 
L 342.1321 226.006713 
L 342.201909 224.506588 
L 342.224968 226.006713 
L 342.341161 226.006713 
L 342.457139 227.506838 
L 342.503574 227.506838 
L 342.642879 226.006713 
L 342.759061 226.006713 
L 342.875051 227.506838 
L 343.060789 227.506838 
L 343.17705 226.006713 
L 343.432266 226.006713 
L 343.571569 229.006963 
L 343.710874 229.006963 
L 343.850439 227.506838 
L 344.012852 227.506838 
L 344.128787 226.006713 
L 344.662861 226.006713 
L 344.802229 223.006463 
L 344.964811 223.006463 
L 345.103911 226.006713 
L 345.220069 226.006713 
L 345.243216 227.506838 
L 345.313046 226.006713 
L 345.521824 226.006713 
L 345.684502 230.507088 
L 345.730928 230.507088 
L 345.846865 232.007213 
L 345.893303 232.007213 
L 346.055838 236.507588 
L 346.125473 236.507588 
L 346.171909 238.007713 
L 346.218344 236.507588 
L 346.24172 236.507588 
L 346.357649 238.007713 
L 346.450803 238.007713 
L 346.589827 236.507588 
L 346.682697 236.507588 
L 346.798952 238.007713 
L 346.822003 238.007713 
L 346.93812 236.507588 
L 347.193482 236.507588 
L 347.333029 239.507838 
L 347.518526 242.508088 
L 347.634753 242.508088 
L 347.7507 241.007963 
L 347.936442 241.007963 
L 348.099052 236.507588 
L 348.307916 236.507588 
L 348.377714 235.007463 
L 348.400788 236.507588 
L 348.447222 236.507588 
L 348.586527 239.507838 
L 348.63314 239.507838 
L 348.772268 241.007963 
L 348.818701 241.007963 
L 348.958007 244.008213 
L 348.981377 244.008213 
L 349.050877 245.508338 
L 349.190182 244.008213 
L 349.283051 244.008213 
L 349.492155 236.507588 
L 349.608095 236.507588 
L 349.747402 239.507838 
L 349.817226 239.507838 
L 349.93314 238.007713 
L 350.304618 238.007713 
L 350.420696 236.507588 
L 350.536794 238.007713 
L 350.676098 238.007713 
L 350.722534 236.507588 
L 350.768967 238.007713 
L 351.140447 238.007713 
L 351.233318 236.507588 
L 351.372622 238.007713 
L 351.395962 238.007713 
L 351.419058 239.507838 
L 351.488821 238.007713 
L 351.976276 238.007713 
L 352.092472 239.507838 
L 352.115581 239.507838 
L 352.254884 238.007713 
L 352.278167 238.007713 
L 352.394187 236.507588 
L 352.672798 236.507588 
L 352.789016 235.007463 
L 353.114074 235.007463 
L 353.346238 226.006713 
L 353.415757 226.006713 
L 353.555062 223.006463 
L 353.624779 223.006463 
L 353.740803 221.506338 
L 353.856992 221.506338 
L 353.996353 218.506088 
L 354.042746 218.506088 
L 354.112279 217.005963 
L 354.135656 218.506088 
L 354.251583 218.506088 
L 354.390888 215.505838 
L 354.483758 215.505838 
L 354.646457 211.005463 
L 354.669499 211.005463 
L 354.808799 208.005213 
L 354.878594 208.005213 
L 355.064304 202.004713 
L 355.087412 202.004713 
L 355.435813 188.503588 
L 355.853634 146.500088 
L 355.946594 146.500088 
L 356.062795 149.500338 
L 356.155385 144.999963 
L 356.248251 137.499338 
L 356.294882 140.499588 
L 356.387555 144.999963 
L 356.410919 143.499838 
L 356.480426 134.499088 
L 356.643059 110.497088 
L 356.689535 114.997463 
L 356.828795 120.997963 
L 357.432369 84.994963 
L 357.455545 86.495088 
L 357.478875 86.495088 
L 357.711051 77.494338 
L 357.757506 77.494338 
L 357.827265 78.994463 
L 357.850239 77.494338 
L 357.896777 77.494338 
L 358.128961 90.995463 
L 358.17541 89.495338 
L 358.361077 83.494838 
L 358.546899 96.995963 
L 358.639737 93.995713 
L 358.662836 95.495838 
L 358.987876 102.996463 
L 359.127368 93.995713 
L 359.173613 96.995963 
L 359.243403 96.995963 
L 359.336295 99.996213 
L 359.591528 78.994463 
L 359.637961 78.994463 
L 359.800614 86.495088 
L 359.8237 84.994963 
L 359.84705 84.994963 
L 360.032667 72.993963 
L 360.102306 72.993963 
L 360.172062 75.994213 
L 360.218451 74.494088 
L 360.264905 74.494088 
L 360.357869 77.494338 
L 360.38091 75.994213 
L 360.497075 65.493338 
L 360.543568 69.993713 
L 360.613083 72.993963 
L 360.636465 71.493838 
L 360.752384 68.493588 
L 360.938122 84.994963 
L 360.961484 83.494838 
L 361.077426 69.993713 
L 361.263163 56.492588 
L 361.518705 68.493588 
L 361.704431 60.992963 
L 361.820376 68.493588 
L 361.866808 65.493338 
L 361.913243 60.992963 
L 361.983039 63.993213 
L 362.07583 63.993213 
L 362.145415 59.492838 
L 362.192074 62.493088 
L 362.470456 84.994963 
L 362.818846 101.496338 
L 362.865322 101.496338 
L 363.004596 98.496088 
L 363.027913 98.496088 
L 363.213406 101.496338 
L 363.236754 101.496338 
L 363.422425 107.496838 
L 363.538447 107.496838 
L 363.7011 111.997213 
L 363.793937 110.497088 
L 363.863488 111.997213 
L 363.886814 110.497088 
L 363.910181 110.497088 
L 364.234962 122.498088 
L 364.420697 134.499088 
L 364.44403 134.499088 
L 364.606437 138.999463 
L 364.629752 138.999463 
L 364.745743 141.999713 
L 364.792324 141.999713 
L 365.070784 154.000713 
L 365.163652 154.000713 
L 365.34939 148.000213 
L 365.44226 148.000213 
L 366.092593 184.003213 
L 366.162086 184.003213 
L 366.27808 185.503338 
L 366.301431 185.503338 
L 366.440788 188.503588 
L 366.510256 188.503588 
L 366.603124 190.003713 
L 366.626494 188.503588 
L 366.695994 190.003713 
L 366.812262 191.503838 
L 366.905037 191.503838 
L 366.928167 193.003963 
L 366.997825 191.503838 
L 367.253209 191.503838 
L 367.369433 193.003963 
L 367.740888 193.003963 
L 367.880103 196.004213 
L 367.926641 196.004213 
L 368.0426 197.504338 
L 368.274921 197.504338 
L 368.390945 199.004463 
L 368.506948 197.504338 
L 368.623233 199.004463 
L 368.692685 199.004463 
L 368.831988 200.504588 
L 368.878424 200.504588 
L 369.017729 203.504838 
L 369.041086 203.504838 
L 369.157254 202.004713 
L 369.528506 202.004713 
L 369.644654 203.504838 
L 369.876917 203.504838 
L 369.99285 205.004963 
L 370.132156 205.004963 
L 370.248355 203.504838 
L 370.294834 203.504838 
L 370.434104 206.505088 
L 370.550064 206.505088 
L 370.666315 208.005213 
L 370.689366 208.005213 
L 370.805617 209.505338 
L 370.967974 209.505338 
L 371.084156 211.005463 
L 371.316418 211.005463 
L 371.478755 215.505838 
L 371.687834 215.505838 
L 371.827072 212.505588 
L 371.943102 212.505588 
L 372.059338 214.005713 
L 372.128838 214.005713 
L 372.244941 212.505588 
L 372.314579 212.505588 
L 372.430796 211.005463 
L 372.45388 211.005463 
L 372.477235 212.505588 
L 372.546752 211.005463 
L 372.918231 211.005463 
L 373.034472 209.505338 
L 373.057531 209.505338 
L 373.196836 211.005463 
L 373.475446 211.005463 
L 373.591624 212.505588 
L 373.846921 212.505588 
L 373.93979 211.005463 
L 374.589877 211.005463 
L 374.729182 214.005713 
L 374.752559 214.005713 
L 374.914921 218.506088 
L 374.938236 218.506088 
L 375.077565 221.506338 
L 375.124028 221.506338 
L 375.147095 220.006213 
L 375.216889 221.506338 
L 375.239965 221.506338 
L 375.309639 223.006463 
L 375.332831 221.506338 
L 375.425702 221.506338 
L 375.541889 223.006463 
L 375.750747 223.006463 
L 375.890048 226.006713 
L 375.982918 226.006713 
L 376.122225 229.006963 
L 376.168647 229.006963 
L 376.284898 230.507088 
L 376.702792 230.507088 
L 376.818746 232.007213 
L 376.842122 232.007213 
L 376.958048 230.507088 
L 377.190223 230.507088 
L 377.30647 232.007213 
L 377.329529 232.007213 
L 377.422399 233.507338 
L 377.561703 233.507338 
L 377.677896 235.007463 
L 377.793877 235.007463 
L 377.886925 236.507588 
L 378.165352 230.507088 
L 378.235114 230.507088 
L 378.37434 233.507338 
L 378.676136 233.507338 
L 378.769245 235.007463 
L 378.838747 235.007463 
L 378.954748 233.507338 
L 378.978098 233.507338 
L 379.024577 235.007463 
L 379.070986 233.507338 
L 379.117412 233.507338 
L 379.233348 232.007213 
L 379.465528 232.007213 
L 379.581786 233.507338 
L 379.721025 233.507338 
L 379.837009 235.007463 
L 379.883444 235.007463 
L 379.906808 236.507588 
L 379.976311 235.007463 
L 380.022747 235.007463 
L 380.138897 232.007213 
L 380.254919 233.507338 
L 380.347788 233.507338 
L 380.487093 236.507588 
L 380.556765 236.507588 
L 380.672833 238.007713 
L 380.742651 238.007713 
L 380.789037 239.507838 
L 380.835471 238.007713 
L 380.951657 238.007713 
L 381.090747 236.507588 
L 381.346312 236.507588 
L 381.485565 239.507838 
L 381.532069 239.507838 
L 381.647966 241.007963 
L 381.787271 241.007963 
L 381.903451 242.508088 
L 381.97301 242.508088 
L 382.089211 241.007963 
L 382.205185 241.007963 
L 382.344491 238.007713 
L 382.530231 238.007713 
L 382.646447 239.507838 
L 382.669533 239.507838 
L 382.808839 241.007963 
L 382.832171 241.007963 
L 382.971465 238.007713 
L 383.087451 239.507838 
L 383.134142 239.507838 
L 383.273188 241.007963 
L 383.644666 241.007963 
L 383.760922 239.507838 
L 383.807337 239.507838 
L 383.923273 238.007713 
L 383.94667 238.007713 
L 384.085876 241.007963 
L 384.132323 241.007963 
L 384.248318 242.508088 
L 384.364534 242.508088 
L 384.503746 239.507838 
L 384.643213 239.507838 
L 384.828909 245.508338 
L 384.851971 245.508338 
L 384.991276 248.508588 
L 385.223452 248.508588 
L 385.386022 253.008963 
L 385.478993 253.008963 
L 385.594931 254.509088 
L 385.734234 251.508838 
L 385.827104 251.508838 
L 385.943315 253.008963 
L 386.546927 253.008963 
L 386.66316 254.509088 
L 386.779133 254.509088 
L 386.895108 256.009213 
L 386.918415 256.009213 
L 387.034411 254.509088 
L 387.081082 254.509088 
L 387.22015 256.009213 
L 387.266585 256.009213 
L 387.382851 254.509088 
L 387.405889 254.509088 
L 387.545442 251.508838 
L 387.568447 251.508838 
L 387.6845 250.008713 
L 387.70786 250.008713 
L 387.823805 251.508838 
L 388.009543 251.508838 
L 388.125762 253.008963 
L 388.357935 253.008963 
L 388.473893 251.508838 
L 388.613198 254.509088 
L 388.961588 254.509088 
L 389.12398 259.009463 
L 389.332999 259.009463 
L 389.449024 257.509338 
L 389.541893 257.509338 
L 389.75087 262.009713 
L 389.89028 259.009463 
L 390.145796 259.009463 
L 390.331284 256.009213 
L 390.493954 256.009213 
L 390.56346 257.509338 
L 390.702764 256.009213 
L 390.795635 256.009213 
L 390.911822 254.509088 
L 390.93494 254.509088 
L 390.981376 253.008963 
L 391.028044 254.509088 
L 391.143949 254.509088 
L 391.283232 257.509338 
L 391.306421 257.509338 
L 391.422615 259.009463 
L 391.445724 259.009463 
L 391.631464 256.009213 
L 391.770768 259.009463 
L 391.910263 259.009463 
L 392.026271 257.509338 
L 392.328237 257.509338 
L 392.467291 256.009213 
L 392.722828 256.009213 
L 392.86211 253.008963 
L 392.885206 253.008963 
L 393.001434 251.508838 
L 393.163814 251.508838 
L 393.303118 254.509088 
L 393.372875 254.509088 
L 393.488855 256.009213 
L 393.744324 256.009213 
L 393.88374 253.008963 
L 394.231813 253.008963 
L 394.324684 251.508838 
L 394.440872 253.008963 
L 394.673002 253.008963 
L 394.789033 251.508838 
L 394.835466 251.508838 
L 394.997996 247.008463 
L 395.044533 247.008463 
L 395.183878 244.008213 
L 395.299815 244.008213 
L 395.462402 239.507838 
L 395.485554 239.507838 
L 395.717725 230.507088 
L 395.764159 230.507088 
L 395.973297 223.006463 
L 395.996337 223.006463 
L 396.205476 215.505838 
L 396.228512 215.505838 
L 396.599986 197.504338 
L 396.623361 197.504338 
L 396.809054 188.503588 
L 396.83216 190.003713 
L 396.994848 197.504338 
L 397.0179 196.004213 
L 397.041285 196.004213 
L 397.528679 169.001963 
L 397.760853 185.503338 
L 397.807288 181.002963 
L 397.900156 176.502588 
L 397.946592 178.002713 
L 397.993025 179.502838 
L 398.039714 178.002713 
L 398.085894 178.002713 
L 398.271863 172.002213 
L 398.341346 172.002213 
L 398.457587 170.502088 
L 398.805777 161.501338 
L 399.014584 178.002713 
L 399.130815 175.002463 
L 399.246758 176.502588 
L 399.270112 176.502588 
L 399.688048 197.504338 
L 399.943277 197.504338 
L 400.08258 194.504088 
L 400.222091 194.504088 
L 400.384476 190.003713 
L 400.43098 190.003713 
L 400.546927 188.503588 
L 400.640024 188.503588 
L 400.779102 181.002963 
L 400.964839 166.001713 
L 401.109658 172.002213 
L 401.127407 170.502088 
L 401.173939 170.502088 
L 401.382752 178.002713 
L 401.406154 178.002713 
L 401.522328 176.502588 
L 401.614923 176.502588 
L 401.638325 178.002713 
L 401.707795 176.502588 
L 401.823992 175.002463 
L 401.893535 175.002463 
L 402.079271 169.001963 
L 402.288416 169.001963 
L 402.474092 163.001463 
L 402.497181 163.001463 
L 402.59005 161.501338 
L 402.729355 164.501588 
L 402.822451 164.501588 
L 403.007962 161.501338 
L 403.124167 161.501338 
L 403.240136 163.001463 
L 403.356348 163.001463 
L 403.542091 169.001963 
L 403.565177 169.001963 
L 403.704712 172.002213 
L 403.820705 172.002213 
L 403.913572 173.502338 
L 404.029522 172.002213 
L 404.075956 172.002213 
L 404.192109 170.502088 
L 404.656515 170.502088 
L 404.772474 172.002213 
L 404.981587 172.002213 
L 405.143951 176.502588 
L 405.167239 176.502588 
L 405.306622 179.502838 
L 405.376125 179.502838 
L 405.538724 184.003213 
L 405.7476 184.003213 
L 405.887147 187.003463 
L 405.910123 187.003463 
L 406.026207 188.503588 
L 406.165508 188.503588 
L 406.304966 193.003963 
L 406.467444 193.003963 
L 406.490554 194.504088 
L 406.560293 193.003963 
L 406.815596 193.003963 
L 406.954902 190.003713 
L 406.978195 190.003713 
L 407.117501 185.503338 
L 407.187253 185.503338 
L 407.372812 182.503088 
L 407.465681 182.503088 
L 407.581872 181.002963 
L 407.72111 181.002963 
L 407.837157 182.503088 
L 408.417676 182.503088 
L 408.533674 184.003213 
L 409.323273 184.003213 
L 409.462367 187.003463 
L 409.508801 187.003463 
L 409.624982 188.503588 
L 410.019583 188.503588 
L 410.135731 190.003713 
L 410.182208 190.003713 
L 410.298192 191.503838 
L 410.344626 191.503838 
L 410.483929 194.504088 
L 410.530363 194.504088 
L 410.669842 197.504338 
L 410.901841 202.004713 
L 410.99471 202.004713 
L 411.087581 203.504838 
L 411.250271 203.504838 
L 411.366188 205.004963 
L 411.459057 205.004963 
L 411.552103 206.505088 
L 411.644793 206.505088 
L 411.760986 208.005213 
L 411.807425 208.005213 
L 411.923402 206.505088 
L 412.80566 206.505088 
L 412.921804 205.004963 
L 413.061172 205.004963 
L 413.200468 208.005213 
L 413.270008 208.005213 
L 413.455746 211.005463 
L 413.571952 211.005463 
L 413.687919 212.505588 
L 414.523742 212.505588 
L 414.639821 214.005713 
L 414.709485 214.005713 
L 414.848787 212.505588 
L 414.918551 212.505588 
L 415.034523 214.005713 
L 415.359568 214.005713 
L 415.452438 212.505588 
L 415.77748 212.505588 
L 415.893721 214.005713 
L 415.96322 214.005713 
L 416.079395 215.505838 
L 416.218749 215.505838 
L 416.334697 217.005963 
L 417.008053 217.005963 
L 417.124086 218.506088 
L 417.867041 218.506088 
L 417.983239 217.005963 
L 418.308301 217.005963 
L 418.424257 215.505838 
L 419.074344 215.505838 
L 419.190549 217.005963 
L 419.515577 217.005963 
L 419.631559 218.506088 
L 420.746213 218.506088 
L 420.862226 220.006213 
L 421.465868 220.006213 
L 421.581822 221.506338 
L 422.324776 221.506338 
L 422.440954 223.006463 
L 422.603387 223.006463 
L 422.719595 224.506588 
L 422.812498 224.506588 
L 422.92862 226.006713 
L 423.137487 226.006713 
L 423.253473 227.506838 
L 423.34655 227.506838 
L 423.485647 229.006963 
L 423.64826 229.006963 
L 423.764255 230.507088 
L 424.437698 230.507088 
L 424.553647 232.007213 
L 425.250168 232.007213 
L 425.366365 230.507088 
L 426.341533 230.507088 
L 426.411283 229.006963 
L 426.550341 230.507088 
L 427.038063 230.507088 
L 427.154161 229.006963 
L 427.177311 229.006963 
L 427.293499 227.506838 
L 427.316504 227.506838 
L 427.432606 229.006963 
L 429.522166 229.006963 
L 429.638403 227.506838 
L 431.286686 227.506838 
L 431.402931 226.006713 
L 431.890334 226.006713 
L 432.006536 227.506838 
L 432.308249 227.506838 
L 432.424477 229.006963 
L 432.540599 229.006963 
L 432.656631 227.506838 
L 432.842415 227.506838 
L 432.958336 226.006713 
L 433.515555 226.006713 
L 433.585341 227.506838 
L 433.60842 226.006713 
L 434.235367 226.006713 
L 434.374702 223.006463 
L 434.537114 223.006463 
L 434.653309 221.506338 
L 434.699777 221.506338 
L 434.815722 223.006463 
L 435.512244 223.006463 
L 435.628333 224.506588 
L 436.324954 224.506588 
L 436.440939 223.006463 
L 436.765981 223.006463 
L 436.882161 221.506338 
L 436.951718 221.506338 
L 437.067907 220.006213 
L 437.091021 220.006213 
L 437.207262 218.506088 
L 437.439397 218.506088 
L 437.55537 217.005963 
L 437.601805 217.005963 
L 437.741109 214.005713 
L 437.76445 214.005713 
L 437.903775 211.005463 
L 437.996646 211.005463 
L 438.159019 206.505088 
L 438.182341 206.505088 
L 438.298323 208.005213 
L 438.414545 208.005213 
L 438.553849 205.004963 
L 438.623368 205.004963 
L 438.855543 200.504588 
L 438.901977 200.504588 
L 439.064638 196.004213 
L 439.087914 196.004213 
L 439.273455 193.003963 
L 439.296804 193.003963 
L 439.41276 191.503838 
L 439.57531 191.503838 
L 439.691366 190.003713 
L 439.714696 190.003713 
L 439.854018 187.003463 
L 439.946881 187.003463 
L 440.062841 185.503338 
L 440.132645 185.503338 
L 440.248579 184.003213 
L 440.341449 184.003213 
L 440.457586 185.503338 
L 440.596961 185.503338 
L 440.805796 178.002713 
L 440.852497 178.002713 
L 441.084403 169.001963 
L 441.200597 169.001963 
L 441.36301 173.502338 
L 441.386302 173.502338 
L 441.525581 176.502588 
L 441.688053 176.502588 
L 442.013096 167.501838 
L 442.036432 169.001963 
L 442.105963 167.501838 
L 442.129238 167.501838 
L 442.245267 166.001713 
L 442.38457 166.001713 
L 442.500773 164.501588 
L 442.547151 164.501588 
L 442.756045 172.002213 
L 442.779393 172.002213 
L 442.941784 176.502588 
L 442.965092 176.502588 
L 443.081092 178.002713 
L 443.104414 178.002713 
L 443.266827 173.502338 
L 443.313261 173.502338 
L 443.336563 172.002213 
L 443.40613 173.502338 
L 443.452766 173.502338 
L 443.638304 176.502588 
L 443.754511 175.002463 
L 443.800935 175.002463 
L 443.963345 170.502088 
L 443.986683 170.502088 
L 444.241952 160.001213 
L 444.265268 160.001213 
L 444.451006 154.000713 
L 444.729667 154.000713 
L 444.938469 146.500088 
L 444.984904 146.500088 
L 445.170642 152.500588 
L 445.263511 152.500588 
L 445.28684 151.000463 
L 445.356379 152.500588 
L 445.426168 152.500588 
L 445.542118 151.000463 
L 445.751214 151.000463 
L 445.890483 148.000213 
L 446.052897 148.000213 
L 446.1922 146.500088 
L 446.285071 148.000213 
L 446.447723 143.499838 
L 446.470807 143.499838 
L 446.610111 140.499588 
L 446.6799 140.499588 
L 446.819151 137.499338 
L 446.842285 137.499338 
L 446.935151 135.999213 
L 447.05138 135.999213 
L 447.167326 134.499088 
L 447.190651 134.499088 
L 447.515695 119.497838 
L 447.538802 119.497838 
L 447.585236 117.997713 
L 447.631669 119.497838 
L 447.956712 134.499088 
L 448.049578 134.499088 
L 448.072901 135.999213 
L 448.142451 134.499088 
L 448.188883 134.499088 
L 448.305004 135.999213 
L 448.351501 135.999213 
L 448.583667 144.999963 
L 448.630136 144.999963 
L 448.792533 149.500338 
L 448.815866 149.500338 
L 449.024707 157.000963 
L 449.047976 157.000963 
L 449.187281 160.001213 
L 449.303313 160.001213 
L 449.442616 163.001463 
L 449.465963 163.001463 
L 449.58218 164.501588 
L 449.930349 164.501588 
L 450 166.001713 
L 450 166.001713 
" clip-path="url(#p04cd4cb6b6)" style="fill: none; stroke: #1f77b4; stroke-width: 1.5; stroke-linecap: square"/>
   </g>
   <g id="patch_3">
    <path d="M 46.46 279.561175 
L 46.46 25.44 
" style="fill: none; stroke: #000000; stroke-width: 0.8; stroke-linejoin: miter; stroke-linecap: square"/>
   </g>
   <g id="patch_4">
    <path d="M 450 279.561175 
L 450 25.44 
" style="fill: none; stroke: #000000; stroke-width: 0.8; stroke-linejoin: miter; stroke-linecap: square"/>
   </g>
   <g id="patch_5">
    <path d="M 46.46 279.561175 
L 450 279.561175 
" style="fill: none; stroke: #000000; stroke-width: 0.8; stroke-linejoin: miter; stroke-linecap: square"/>
   </g>
   <g id="patch_6">
    <path d="M 46.46 25.44 
L 450 25.44 
" style="fill: none; stroke: #000000; stroke-width: 0.8; stroke-linejoin: miter; stroke-linecap: square"/>
   </g>
   <g id="text_19">
    <!-- November 2023 -->
    <g transform="translate(199.838125 19.44) scale(0.12 -0.12)">
     <defs>
      <path id="DejaVuSans-4e" d="M 628 4666 
L 1478 4666 
L 3547 763 
L 3547 4666 
L 4159 4666 
L 4159 0 
L 3309 0 
L 1241 3903 
L 1241 0 
L 628 0 
L 628 4666 
z
" transform="scale(0.015625)"/>
      <path id="DejaVuSans-6f" d="M 1959 3097 
Q 1497 3097 1228 2736 
Q 959 2375 959 1747 
Q 959 1119 1226 758 
Q 1494 397 1959 397 
Q 2419 397 2687 759 
Q 2956 1122 2956 1747 
Q 2956 2369 2687 2733 
Q 2419 3097 1959 3097 
z
M 1959 3584 
Q 2709 3584 3137 3096 
Q 3566 2609 3566 1747 
Q 3566 888 3137 398 
Q 2709 -91 1959 -91 
Q 1206 -91 779 398 
Q 353 888 353 1747 
Q 353 2609 779 3096 
Q 1206 3584 1959 3584 
z
" transform="scale(0.015625)"/>
      <path id="DejaVuSans-76" d="M 191 3500 
L 800 3500 
L 1894 563 
L 2988 3500 
L 3597 3500 
L 2284 0 
L 1503 0 
L 191 3500 
z
" transform="scale(0.015625)"/>
      <path id="DejaVuSans-62" d="M 3116 1747 
Q 3116 2381 2855 2742 
Q 2594 3103 2138 3103 
Q 1681 3103 1420 2742 
Q 1159 2381 1159 1747 
Q 1159 1113 1420 752 
Q 1681 391 2138 391 
Q 2594 391 2855 752 
Q 3116 1113 3116 1747 
z
M 1159 2969 
Q 1341 3281 1617 3432 
Q 1894 3584 2278 3584 
Q 2916 3584 3314 3078 
Q 3713 2572 3713 1747 
Q 3713 922 3314 415 
Q 2916 -91 2278 -91 
Q 1894 -91 1617 61 
Q 1341 213 1159 525 
L 1159 0 
L 581 0 
L 581 4863 
L 1159 4863 
L 1159 2969 
z
" transform="scale(0.015625)"/>
     </defs>
     <use xlink:href="#DejaVuSans-4e"/>
     <use xlink:href="#DejaVuSans-6f" x="74.804688"/>
     <use xlink:href="#DejaVuSans-76" x="135.986328"/>
     <use xlink:href="#DejaVuSans-65" x="195.166016"/>
     <use xlink:href="#DejaVuSans-6d" x="256.689453"/>
     <use xlink:href="#DejaVuSans-62" x="354.101562"/>
     <use xlink:href="#DejaVuSans-65" x="417.578125"/>
     <use xlink:href="#DejaVuSans-72" x="479.101562"/>
     <use xlink:href="#DejaVuSans-20" x="520.214844"/>
     <use xlink:href="#DejaVuSans-32" x="552.001953"/>
     <use xlink:href="#DejaVuSans-30" x="615.625"/>
     <use xlink:href="#DejaVuSans-32" x="679.248047"/>
     <use xlink:href="#DejaVuSans-33" x="742.871094"/>
    </g>
   </g>
  </g>
 </g>
 <defs>
  <clipPath id="p04cd4cb6b6">
   <rect x="46.46" y="25.44" width="403.54" height="254.121175"/>
  </clipPath>
 </defs>
</svg>
