<?xml version="1.0" encoding="utf-8" standalone="no"?>
<!DOCTYPE svg PUBLIC "-//W3C//DTD SVG 1.1//EN"
  "http://www.w3.org/Graphics/SVG/1.1/DTD/svg11.dtd">
<svg xmlns:xlink="http://www.w3.org/1999/xlink" width="504pt" height="504pt" viewBox="0 0 504 504" xmlns="http://www.w3.org/2000/svg" version="1.1">
 <metadata>
  <rdf:RDF xmlns:dc="http://purl.org/dc/elements/1.1/" xmlns:cc="http://creativecommons.org/ns#" xmlns:rdf="http://www.w3.org/1999/02/22-rdf-syntax-ns#">
   <cc:Work>
    <dc:type rdf:resource="http://purl.org/dc/dcmitype/StillImage"/>
    <dc:date>2023-12-03T21:06:57.950001</dc:date>
    <dc:format>image/svg+xml</dc:format>
    <dc:creator>
     <cc:Agent>
      <dc:title>Matplotlib v3.6.3, https://matplotlib.org/</dc:title>
     </cc:Agent>
    </dc:creator>
   </cc:Work>
  </rdf:RDF>
 </metadata>
 <defs>
  <style type="text/css">*{stroke-linejoin: round; stroke-linecap: butt}</style>
 </defs>
 <g id="figure_1">
  <g id="patch_1">
   <path d="M 0 504 
L 504 504 
L 504 0 
L 0 0 
z
" style="fill: #ffffff"/>
  </g>
  <g id="axes_1">
   <g id="patch_2">
    <path d="M 51.05 158.510853 
L 493.2 158.510853 
L 493.2 32.4 
L 51.05 32.4 
z
" style="fill: #ffffff"/>
   </g>
   <g id="matplotlib.axis_1">
    <g id="xtick_1">
     <g id="line2d_1">
      <path d="M 127.826415 158.510853 
L 127.826415 32.4 
" clip-path="url(#p477e8a6905)" style="fill: none; stroke: #b0b0b0; stroke-width: 0.8; stroke-linecap: square"/>
     </g>
     <g id="line2d_2">
      <defs>
       <path id="m578db00e56" d="M 0 0 
L 0 3.5 
" style="stroke: #000000; stroke-width: 0.8"/>
      </defs>
      <g>
       <use xlink:href="#m578db00e56" x="127.826415" y="158.510853" style="stroke: #000000; stroke-width: 0.8"/>
      </g>
     </g>
    </g>
    <g id="xtick_2">
     <g id="line2d_3">
      <path d="M 204.648157 158.510853 
L 204.648157 32.4 
" clip-path="url(#p477e8a6905)" style="fill: none; stroke: #b0b0b0; stroke-width: 0.8; stroke-linecap: square"/>
     </g>
     <g id="line2d_4">
      <g>
       <use xlink:href="#m578db00e56" x="204.648157" y="158.510853" style="stroke: #000000; stroke-width: 0.8"/>
      </g>
     </g>
    </g>
    <g id="xtick_3">
     <g id="line2d_5">
      <path d="M 281.469899 158.510853 
L 281.469899 32.4 
" clip-path="url(#p477e8a6905)" style="fill: none; stroke: #b0b0b0; stroke-width: 0.8; stroke-linecap: square"/>
     </g>
     <g id="line2d_6">
      <g>
       <use xlink:href="#m578db00e56" x="281.469899" y="158.510853" style="stroke: #000000; stroke-width: 0.8"/>
      </g>
     </g>
    </g>
    <g id="xtick_4">
     <g id="line2d_7">
      <path d="M 358.291641 158.510853 
L 358.291641 32.4 
" clip-path="url(#p477e8a6905)" style="fill: none; stroke: #b0b0b0; stroke-width: 0.8; stroke-linecap: square"/>
     </g>
     <g id="line2d_8">
      <g>
       <use xlink:href="#m578db00e56" x="358.291641" y="158.510853" style="stroke: #000000; stroke-width: 0.8"/>
      </g>
     </g>
    </g>
    <g id="xtick_5">
     <g id="line2d_9">
      <path d="M 435.113383 158.510853 
L 435.113383 32.4 
" clip-path="url(#p477e8a6905)" style="fill: none; stroke: #b0b0b0; stroke-width: 0.8; stroke-linecap: square"/>
     </g>
     <g id="line2d_10">
      <g>
       <use xlink:href="#m578db00e56" x="435.113383" y="158.510853" style="stroke: #000000; stroke-width: 0.8"/>
      </g>
     </g>
    </g>
   </g>
   <g id="matplotlib.axis_2">
    <g id="ytick_1">
     <g id="line2d_11">
      <path d="M 51.05 142.895246 
L 493.2 142.895246 
" clip-path="url(#p477e8a6905)" style="fill: none; stroke: #b0b0b0; stroke-width: 0.8; stroke-linecap: square"/>
     </g>
     <g id="line2d_12">
      <defs>
       <path id="m8ca489a5be" d="M 0 0 
L -3.5 0 
" style="stroke: #000000; stroke-width: 0.8"/>
      </defs>
      <g>
       <use xlink:href="#m8ca489a5be" x="51.05" y="142.895246" style="stroke: #000000; stroke-width: 0.8"/>
      </g>
     </g>
     <g id="text_1">
      <!-- −5.0 -->
      <g transform="translate(19.767188 146.694464) scale(0.1 -0.1)">
       <defs>
        <path id="DejaVuSans-2212" d="M 678 2272 
L 4684 2272 
L 4684 1741 
L 678 1741 
L 678 2272 
z
" transform="scale(0.015625)"/>
        <path id="DejaVuSans-35" d="M 691 4666 
L 3169 4666 
L 3169 4134 
L 1269 4134 
L 1269 2991 
Q 1406 3038 1543 3061 
Q 1681 3084 1819 3084 
Q 2600 3084 3056 2656 
Q 3513 2228 3513 1497 
Q 3513 744 3044 326 
Q 2575 -91 1722 -91 
Q 1428 -91 1123 -41 
Q 819 9 494 109 
L 494 744 
Q 775 591 1075 516 
Q 1375 441 1709 441 
Q 2250 441 2565 725 
Q 2881 1009 2881 1497 
Q 2881 1984 2565 2268 
Q 2250 2553 1709 2553 
Q 1456 2553 1204 2497 
Q 953 2441 691 2322 
L 691 4666 
z
" transform="scale(0.015625)"/>
        <path id="DejaVuSans-2e" d="M 684 794 
L 1344 794 
L 1344 0 
L 684 0 
L 684 794 
z
" transform="scale(0.015625)"/>
        <path id="DejaVuSans-30" d="M 2034 4250 
Q 1547 4250 1301 3770 
Q 1056 3291 1056 2328 
Q 1056 1369 1301 889 
Q 1547 409 2034 409 
Q 2525 409 2770 889 
Q 3016 1369 3016 2328 
Q 3016 3291 2770 3770 
Q 2525 4250 2034 4250 
z
M 2034 4750 
Q 2819 4750 3233 4129 
Q 3647 3509 3647 2328 
Q 3647 1150 3233 529 
Q 2819 -91 2034 -91 
Q 1250 -91 836 529 
Q 422 1150 422 2328 
Q 422 3509 836 4129 
Q 1250 4750 2034 4750 
z
" transform="scale(0.015625)"/>
       </defs>
       <use xlink:href="#DejaVuSans-2212"/>
       <use xlink:href="#DejaVuSans-35" x="83.789062"/>
       <use xlink:href="#DejaVuSans-2e" x="147.412109"/>
       <use xlink:href="#DejaVuSans-30" x="179.199219"/>
      </g>
     </g>
    </g>
    <g id="ytick_2">
     <g id="line2d_13">
      <path d="M 51.05 118.187006 
L 493.2 118.187006 
" clip-path="url(#p477e8a6905)" style="fill: none; stroke: #b0b0b0; stroke-width: 0.8; stroke-linecap: square"/>
     </g>
     <g id="line2d_14">
      <g>
       <use xlink:href="#m8ca489a5be" x="51.05" y="118.187006" style="stroke: #000000; stroke-width: 0.8"/>
      </g>
     </g>
     <g id="text_2">
      <!-- −2.5 -->
      <g transform="translate(19.767188 121.986225) scale(0.1 -0.1)">
       <defs>
        <path id="DejaVuSans-32" d="M 1228 531 
L 3431 531 
L 3431 0 
L 469 0 
L 469 531 
Q 828 903 1448 1529 
Q 2069 2156 2228 2338 
Q 2531 2678 2651 2914 
Q 2772 3150 2772 3378 
Q 2772 3750 2511 3984 
Q 2250 4219 1831 4219 
Q 1534 4219 1204 4116 
Q 875 4013 500 3803 
L 500 4441 
Q 881 4594 1212 4672 
Q 1544 4750 1819 4750 
Q 2544 4750 2975 4387 
Q 3406 4025 3406 3419 
Q 3406 3131 3298 2873 
Q 3191 2616 2906 2266 
Q 2828 2175 2409 1742 
Q 1991 1309 1228 531 
z
" transform="scale(0.015625)"/>
       </defs>
       <use xlink:href="#DejaVuSans-2212"/>
       <use xlink:href="#DejaVuSans-32" x="83.789062"/>
       <use xlink:href="#DejaVuSans-2e" x="147.412109"/>
       <use xlink:href="#DejaVuSans-35" x="179.199219"/>
      </g>
     </g>
    </g>
    <g id="ytick_3">
     <g id="line2d_15">
      <path d="M 51.05 93.478767 
L 493.2 93.478767 
" clip-path="url(#p477e8a6905)" style="fill: none; stroke: #b0b0b0; stroke-width: 0.8; stroke-linecap: square"/>
     </g>
     <g id="line2d_16">
      <g>
       <use xlink:href="#m8ca489a5be" x="51.05" y="93.478767" style="stroke: #000000; stroke-width: 0.8"/>
      </g>
     </g>
     <g id="text_3">
      <!-- 0.0 -->
      <g transform="translate(28.146875 97.277986) scale(0.1 -0.1)">
       <use xlink:href="#DejaVuSans-30"/>
       <use xlink:href="#DejaVuSans-2e" x="63.623047"/>
       <use xlink:href="#DejaVuSans-30" x="95.410156"/>
      </g>
     </g>
    </g>
    <g id="ytick_4">
     <g id="line2d_17">
      <path d="M 51.05 68.770528 
L 493.2 68.770528 
" clip-path="url(#p477e8a6905)" style="fill: none; stroke: #b0b0b0; stroke-width: 0.8; stroke-linecap: square"/>
     </g>
     <g id="line2d_18">
      <g>
       <use xlink:href="#m8ca489a5be" x="51.05" y="68.770528" style="stroke: #000000; stroke-width: 0.8"/>
      </g>
     </g>
     <g id="text_4">
      <!-- 2.5 -->
      <g transform="translate(28.146875 72.569747) scale(0.1 -0.1)">
       <use xlink:href="#DejaVuSans-32"/>
       <use xlink:href="#DejaVuSans-2e" x="63.623047"/>
       <use xlink:href="#DejaVuSans-35" x="95.410156"/>
      </g>
     </g>
    </g>
    <g id="ytick_5">
     <g id="line2d_19">
      <path d="M 51.05 44.062289 
L 493.2 44.062289 
" clip-path="url(#p477e8a6905)" style="fill: none; stroke: #b0b0b0; stroke-width: 0.8; stroke-linecap: square"/>
     </g>
     <g id="line2d_20">
      <g>
       <use xlink:href="#m8ca489a5be" x="51.05" y="44.062289" style="stroke: #000000; stroke-width: 0.8"/>
      </g>
     </g>
     <g id="text_5">
      <!-- 5.0 -->
      <g transform="translate(28.146875 47.861508) scale(0.1 -0.1)">
       <use xlink:href="#DejaVuSans-35"/>
       <use xlink:href="#DejaVuSans-2e" x="63.623047"/>
       <use xlink:href="#DejaVuSans-30" x="95.410156"/>
      </g>
     </g>
    </g>
    <g id="text_6">
     <!-- Temperature [°C] -->
     <g transform="translate(13.6875 138.606989) rotate(-90) scale(0.1 -0.1)">
      <defs>
       <path id="DejaVuSans-54" d="M -19 4666 
L 3928 4666 
L 3928 4134 
L 2272 4134 
L 2272 0 
L 1638 0 
L 1638 4134 
L -19 4134 
L -19 4666 
z
" transform="scale(0.015625)"/>
       <path id="DejaVuSans-65" d="M 3597 1894 
L 3597 1613 
L 953 1613 
Q 991 1019 1311 708 
Q 1631 397 2203 397 
Q 2534 397 2845 478 
Q 3156 559 3463 722 
L 3463 178 
Q 3153 47 2828 -22 
Q 2503 -91 2169 -91 
Q 1331 -91 842 396 
Q 353 884 353 1716 
Q 353 2575 817 3079 
Q 1281 3584 2069 3584 
Q 2775 3584 3186 3129 
Q 3597 2675 3597 1894 
z
M 3022 2063 
Q 3016 2534 2758 2815 
Q 2500 3097 2075 3097 
Q 1594 3097 1305 2825 
Q 1016 2553 972 2059 
L 3022 2063 
z
" transform="scale(0.015625)"/>
       <path id="DejaVuSans-6d" d="M 3328 2828 
Q 3544 3216 3844 3400 
Q 4144 3584 4550 3584 
Q 5097 3584 5394 3201 
Q 5691 2819 5691 2113 
L 5691 0 
L 5113 0 
L 5113 2094 
Q 5113 2597 4934 2840 
Q 4756 3084 4391 3084 
Q 3944 3084 3684 2787 
Q 3425 2491 3425 1978 
L 3425 0 
L 2847 0 
L 2847 2094 
Q 2847 2600 2669 2842 
Q 2491 3084 2119 3084 
Q 1678 3084 1418 2786 
Q 1159 2488 1159 1978 
L 1159 0 
L 581 0 
L 581 3500 
L 1159 3500 
L 1159 2956 
Q 1356 3278 1631 3431 
Q 1906 3584 2284 3584 
Q 2666 3584 2933 3390 
Q 3200 3197 3328 2828 
z
" transform="scale(0.015625)"/>
       <path id="DejaVuSans-70" d="M 1159 525 
L 1159 -1331 
L 581 -1331 
L 581 3500 
L 1159 3500 
L 1159 2969 
Q 1341 3281 1617 3432 
Q 1894 3584 2278 3584 
Q 2916 3584 3314 3078 
Q 3713 2572 3713 1747 
Q 3713 922 3314 415 
Q 2916 -91 2278 -91 
Q 1894 -91 1617 61 
Q 1341 213 1159 525 
z
M 3116 1747 
Q 3116 2381 2855 2742 
Q 2594 3103 2138 3103 
Q 1681 3103 1420 2742 
Q 1159 2381 1159 1747 
Q 1159 1113 1420 752 
Q 1681 391 2138 391 
Q 2594 391 2855 752 
Q 3116 1113 3116 1747 
z
" transform="scale(0.015625)"/>
       <path id="DejaVuSans-72" d="M 2631 2963 
Q 2534 3019 2420 3045 
Q 2306 3072 2169 3072 
Q 1681 3072 1420 2755 
Q 1159 2438 1159 1844 
L 1159 0 
L 581 0 
L 581 3500 
L 1159 3500 
L 1159 2956 
Q 1341 3275 1631 3429 
Q 1922 3584 2338 3584 
Q 2397 3584 2469 3576 
Q 2541 3569 2628 3553 
L 2631 2963 
z
" transform="scale(0.015625)"/>
       <path id="DejaVuSans-61" d="M 2194 1759 
Q 1497 1759 1228 1600 
Q 959 1441 959 1056 
Q 959 750 1161 570 
Q 1363 391 1709 391 
Q 2188 391 2477 730 
Q 2766 1069 2766 1631 
L 2766 1759 
L 2194 1759 
z
M 3341 1997 
L 3341 0 
L 2766 0 
L 2766 531 
Q 2569 213 2275 61 
Q 1981 -91 1556 -91 
Q 1019 -91 701 211 
Q 384 513 384 1019 
Q 384 1609 779 1909 
Q 1175 2209 1959 2209 
L 2766 2209 
L 2766 2266 
Q 2766 2663 2505 2880 
Q 2244 3097 1772 3097 
Q 1472 3097 1187 3025 
Q 903 2953 641 2809 
L 641 3341 
Q 956 3463 1253 3523 
Q 1550 3584 1831 3584 
Q 2591 3584 2966 3190 
Q 3341 2797 3341 1997 
z
" transform="scale(0.015625)"/>
       <path id="DejaVuSans-74" d="M 1172 4494 
L 1172 3500 
L 2356 3500 
L 2356 3053 
L 1172 3053 
L 1172 1153 
Q 1172 725 1289 603 
Q 1406 481 1766 481 
L 2356 481 
L 2356 0 
L 1766 0 
Q 1100 0 847 248 
Q 594 497 594 1153 
L 594 3053 
L 172 3053 
L 172 3500 
L 594 3500 
L 594 4494 
L 1172 4494 
z
" transform="scale(0.015625)"/>
       <path id="DejaVuSans-75" d="M 544 1381 
L 544 3500 
L 1119 3500 
L 1119 1403 
Q 1119 906 1312 657 
Q 1506 409 1894 409 
Q 2359 409 2629 706 
Q 2900 1003 2900 1516 
L 2900 3500 
L 3475 3500 
L 3475 0 
L 2900 0 
L 2900 538 
Q 2691 219 2414 64 
Q 2138 -91 1772 -91 
Q 1169 -91 856 284 
Q 544 659 544 1381 
z
M 1991 3584 
L 1991 3584 
z
" transform="scale(0.015625)"/>
       <path id="DejaVuSans-20" transform="scale(0.015625)"/>
       <path id="DejaVuSans-5b" d="M 550 4863 
L 1875 4863 
L 1875 4416 
L 1125 4416 
L 1125 -397 
L 1875 -397 
L 1875 -844 
L 550 -844 
L 550 4863 
z
" transform="scale(0.015625)"/>
       <path id="DejaVuSans-b0" d="M 1600 4347 
Q 1350 4347 1178 4173 
Q 1006 4000 1006 3750 
Q 1006 3503 1178 3333 
Q 1350 3163 1600 3163 
Q 1850 3163 2022 3333 
Q 2194 3503 2194 3750 
Q 2194 3997 2020 4172 
Q 1847 4347 1600 4347 
z
M 1600 4750 
Q 1800 4750 1984 4673 
Q 2169 4597 2303 4453 
Q 2447 4313 2519 4134 
Q 2591 3956 2591 3750 
Q 2591 3338 2302 3052 
Q 2013 2766 1594 2766 
Q 1172 2766 890 3047 
Q 609 3328 609 3750 
Q 609 4169 896 4459 
Q 1184 4750 1600 4750 
z
" transform="scale(0.015625)"/>
       <path id="DejaVuSans-43" d="M 4122 4306 
L 4122 3641 
Q 3803 3938 3442 4084 
Q 3081 4231 2675 4231 
Q 1875 4231 1450 3742 
Q 1025 3253 1025 2328 
Q 1025 1406 1450 917 
Q 1875 428 2675 428 
Q 3081 428 3442 575 
Q 3803 722 4122 1019 
L 4122 359 
Q 3791 134 3420 21 
Q 3050 -91 2638 -91 
Q 1578 -91 968 557 
Q 359 1206 359 2328 
Q 359 3453 968 4101 
Q 1578 4750 2638 4750 
Q 3056 4750 3426 4639 
Q 3797 4528 4122 4306 
z
" transform="scale(0.015625)"/>
       <path id="DejaVuSans-5d" d="M 1947 4863 
L 1947 -844 
L 622 -844 
L 622 -397 
L 1369 -397 
L 1369 4416 
L 622 4416 
L 622 4863 
L 1947 4863 
z
" transform="scale(0.015625)"/>
      </defs>
      <use xlink:href="#DejaVuSans-54"/>
      <use xlink:href="#DejaVuSans-65" x="44.083984"/>
      <use xlink:href="#DejaVuSans-6d" x="105.607422"/>
      <use xlink:href="#DejaVuSans-70" x="203.019531"/>
      <use xlink:href="#DejaVuSans-65" x="266.496094"/>
      <use xlink:href="#DejaVuSans-72" x="328.019531"/>
      <use xlink:href="#DejaVuSans-61" x="369.132812"/>
      <use xlink:href="#DejaVuSans-74" x="430.412109"/>
      <use xlink:href="#DejaVuSans-75" x="469.621094"/>
      <use xlink:href="#DejaVuSans-72" x="533"/>
      <use xlink:href="#DejaVuSans-65" x="571.863281"/>
      <use xlink:href="#DejaVuSans-20" x="633.386719"/>
      <use xlink:href="#DejaVuSans-5b" x="665.173828"/>
      <use xlink:href="#DejaVuSans-b0" x="704.1875"/>
      <use xlink:href="#DejaVuSans-43" x="754.1875"/>
      <use xlink:href="#DejaVuSans-5d" x="824.011719"/>
     </g>
    </g>
   </g>
   <g id="line2d_21">
    <path d="M 51.05 89.525449 
L 51.647244 89.525449 
L 51.817954 88.537119 
L 52.757139 88.537119 
L 52.842232 87.54879 
L 53.269086 87.54879 
L 53.439902 86.56046 
L 54.037244 86.56046 
L 54.20796 87.54879 
L 54.890817 87.54879 
L 55.061533 88.537119 
L 58.475831 88.537119 
L 58.647178 87.54879 
L 60.865827 87.54879 
L 60.951412 86.56046 
L 62.572982 86.56046 
L 62.744296 85.572131 
L 63.34141 85.572131 
L 63.512084 84.583801 
L 64.451416 84.583801 
L 64.621558 85.572131 
L 65.731543 85.572131 
L 65.816566 86.56046 
L 65.987906 86.56046 
L 66.243636 87.54879 
L 69.657889 87.54879 
L 69.828631 86.56046 
L 70.596587 86.56046 
L 70.76729 85.572131 
L 74.693706 85.572131 
L 74.864421 84.583801 
L 75.803439 84.583801 
L 75.974397 83.595472 
L 76.742286 83.595472 
L 76.912991 82.607142 
L 77.169184 82.607142 
L 77.595848 81.618812 
L 77.766563 82.607142 
L 78.364243 82.607142 
L 78.449425 83.595472 
L 78.62013 82.607142 
L 79.047067 82.607142 
L 79.217817 83.595472 
L 82.461309 83.595472 
L 82.632267 82.607142 
L 85.875883 82.607142 
L 86.046564 81.618812 
L 86.643692 81.618812 
L 86.814403 80.630483 
L 86.985679 80.630483 
L 87.155831 79.642153 
L 89.460715 79.642153 
L 89.631389 78.653824 
L 89.972807 78.653824 
L 90.057968 77.665494 
L 91.167799 77.665494 
L 91.338538 76.677165 
L 92.021368 76.677165 
L 92.277245 74.700505 
L 92.618677 74.700505 
L 92.789397 75.688835 
L 93.045824 75.688835 
L 93.21636 74.700505 
L 93.302114 75.688835 
L 94.155101 75.688835 
L 94.325817 74.700505 
L 94.496532 74.700505 
L 94.667244 75.688835 
L 94.837965 75.688835 
L 95.094106 76.677165 
L 95.3501 76.677165 
L 95.52082 77.665494 
L 96.032972 77.665494 
L 96.203671 78.653824 
L 97.39867 78.653824 
L 97.569384 79.642153 
L 98.679236 79.642153 
L 98.849977 78.653824 
L 99.105812 78.653824 
L 99.276522 79.642153 
L 99.362138 79.642153 
L 99.53282 78.653824 
L 103.117637 78.653824 
L 103.288665 77.665494 
L 104.142102 77.665494 
L 104.312776 76.677165 
L 105.592946 76.677165 
L 105.763663 75.688835 
L 105.849249 75.688835 
L 106.019921 74.700505 
L 106.105096 74.700505 
L 106.276348 73.712176 
L 106.446522 73.712176 
L 106.617221 72.723846 
L 106.702824 72.723846 
L 106.873565 71.735517 
L 107.300088 71.735517 
L 107.470795 70.747187 
L 107.812832 70.747187 
L 108.068487 71.735517 
L 108.495086 71.735517 
L 108.665791 72.723846 
L 109.007226 72.723846 
L 109.177939 73.712176 
L 109.348664 73.712176 
L 109.604887 72.723846 
L 111.482785 72.723846 
L 111.567934 71.735517 
L 113.019275 71.735517 
L 113.190022 70.747187 
L 113.360693 70.747187 
L 113.531434 69.758858 
L 114.72643 69.758858 
L 114.81151 68.770528 
L 114.982229 69.758858 
L 115.409262 69.758858 
L 115.580009 68.770528 
L 115.66509 69.758858 
L 115.836366 68.770528 
L 116.604255 68.770528 
L 116.775 69.758858 
L 116.945598 69.758858 
L 117.116414 68.770528 
L 118.140801 68.770528 
L 118.31147 67.782199 
L 118.482216 67.782199 
L 118.652818 66.793869 
L 119.164689 66.793869 
L 119.335721 65.805539 
L 119.591507 65.805539 
L 119.76221 64.81721 
L 119.932923 64.81721 
L 120.189296 63.82888 
L 120.274357 64.81721 
L 120.445066 63.82888 
L 120.615778 63.82888 
L 120.87205 64.81721 
L 120.957202 64.81721 
L 121.127922 63.82888 
L 122.493644 63.82888 
L 122.664353 62.840551 
L 122.920627 62.840551 
L 123.091372 61.852221 
L 123.603533 61.852221 
L 123.85989 60.863892 
L 124.542198 60.863892 
L 124.713541 61.852221 
L 124.883633 61.852221 
L 125.054336 62.840551 
L 125.139943 62.840551 
L 125.310683 63.82888 
L 125.395769 63.82888 
L 126.50568 69.758858 
L 126.590771 69.758858 
L 126.761483 70.747187 
L 127.103525 70.747187 
L 127.530063 69.758858 
L 127.956481 69.758858 
L 128.127197 68.770528 
L 128.383642 68.770528 
L 128.554311 67.782199 
L 128.639329 67.782199 
L 128.89558 68.770528 
L 129.407821 68.770528 
L 129.578564 67.782199 
L 130.517184 67.782199 
L 130.687895 66.793869 
L 132.395037 66.793869 
L 132.565751 65.805539 
L 132.907174 65.805539 
L 133.077887 64.81721 
L 133.846434 64.81721 
L 134.017183 63.82888 
L 134.614314 63.82888 
L 134.785028 62.840551 
L 136.065747 62.840551 
L 136.236419 61.852221 
L 136.834335 61.852221 
L 137.004314 60.863892 
L 137.345744 60.863892 
L 137.516459 59.875562 
L 137.602083 59.875562 
L 137.772827 58.887232 
L 137.943499 58.887232 
L 138.199319 60.863892 
L 138.455374 60.863892 
L 138.54074 61.852221 
L 138.626403 60.863892 
L 138.797079 61.852221 
L 139.138497 61.852221 
L 139.821396 68.770528 
L 141.186993 68.770528 
L 141.357733 67.782199 
L 142.637873 67.782199 
L 142.808587 66.793869 
L 142.979893 67.782199 
L 144.601357 67.782199 
L 144.686441 68.770528 
L 148.186267 68.770528 
L 148.35709 67.782199 
L 149.466429 67.782199 
L 149.722533 66.793869 
L 151.174242 66.793869 
L 151.514991 65.805539 
L 152.96616 65.805539 
L 153.222127 64.81721 
L 155.953542 64.81721 
L 156.209794 63.82888 
L 157.489968 63.82888 
L 157.746068 62.840551 
L 158.514256 62.840551 
L 158.684967 61.852221 
L 159.538537 61.852221 
L 159.709252 60.863892 
L 160.562818 60.863892 
L 160.733531 59.875562 
L 161.160656 59.875562 
L 161.331193 60.863892 
L 161.502074 59.875562 
L 162.014096 59.875562 
L 162.18477 58.887232 
L 162.355513 58.887232 
L 162.441268 57.898903 
L 162.696929 57.898903 
L 162.867604 56.910573 
L 163.977087 56.910573 
L 164.233324 55.922244 
L 165.087114 55.922244 
L 165.342791 53.945585 
L 166.025643 53.945585 
L 166.196368 52.957255 
L 167.1354 52.957255 
L 167.221157 51.968925 
L 167.818301 51.968925 
L 167.989114 50.980596 
L 168.41564 50.980596 
L 168.586354 49.992266 
L 168.671873 49.992266 
L 168.757065 49.003937 
L 169.013204 49.003937 
L 169.184025 48.015607 
L 169.866864 48.015607 
L 170.122767 47.027278 
L 170.891181 47.027278 
L 171.061857 48.015607 
L 172.256833 48.015607 
L 172.427592 47.027278 
L 172.512757 47.027278 
L 172.683477 48.015607 
L 172.939755 48.015607 
L 173.110495 47.027278 
L 173.366325 47.027278 
L 173.53705 46.038948 
L 174.732038 46.038948 
L 174.902751 45.050618 
L 174.988325 45.050618 
L 175.073469 44.062289 
L 175.244748 45.050618 
L 175.50047 45.050618 
L 175.671225 46.038948 
L 175.841897 46.038948 
L 175.927025 47.027278 
L 176.09775 46.038948 
L 176.353994 46.038948 
L 176.524733 45.050618 
L 177.719726 45.050618 
L 177.890537 44.062289 
L 177.975586 44.062289 
L 178.146302 45.050618 
L 182.841168 45.050618 
L 183.011913 46.038948 
L 183.268477 46.038948 
L 183.523933 45.050618 
L 184.548383 45.050618 
L 184.718985 46.038948 
L 185.743168 46.038948 
L 185.913907 47.027278 
L 187.108965 47.027278 
L 187.279711 46.038948 
L 187.535539 46.038948 
L 187.706246 47.027278 
L 189.071947 47.027278 
L 189.242673 46.038948 
L 189.840132 46.038948 
L 190.011032 47.027278 
L 190.181705 47.027278 
L 190.352726 48.015607 
L 190.43766 48.015607 
L 190.608372 49.003937 
L 190.864548 49.003937 
L 191.035289 49.992266 
L 191.461944 49.992266 
L 191.63266 50.980596 
L 192.144798 50.980596 
L 192.315518 51.968925 
L 192.571758 51.968925 
L 192.742501 52.957255 
L 193.85193 52.957255 
L 194.022646 53.945585 
L 195.04693 53.945585 
L 195.217648 52.957255 
L 198.290481 52.957255 
L 198.461195 51.968925 
L 198.631904 51.968925 
L 198.802627 50.980596 
L 199.314753 50.980596 
L 199.571018 51.968925 
L 199.826905 51.968925 
L 199.997613 50.980596 
L 201.704754 50.980596 
L 201.875468 51.968925 
L 203.582606 51.968925 
L 203.753319 50.980596 
L 205.972593 50.980596 
L 206.143315 51.968925 
L 206.399588 51.968925 
L 206.570386 52.957255 
L 207.082475 52.957255 
L 207.253147 51.968925 
L 209.38685 51.968925 
L 209.557568 52.957255 
L 210.240417 52.957255 
L 210.411133 53.945585 
L 213.313271 53.945585 
L 213.48398 54.933914 
L 215.361832 54.933914 
L 215.618066 55.922244 
L 217.239688 55.922244 
L 217.4104 56.910573 
L 218.434692 56.910573 
L 218.606122 55.922244 
L 219.288265 55.922244 
L 219.45898 56.910573 
L 220.91028 56.910573 
L 221.081097 57.898903 
L 221.166113 57.898903 
L 221.33682 58.887232 
L 222.788306 58.887232 
L 222.95877 59.875562 
L 223.129515 59.875562 
L 223.300255 60.863892 
L 223.726817 60.863892 
L 223.897521 59.875562 
L 223.983092 59.875562 
L 224.153842 60.863892 
L 224.238966 60.863892 
L 224.409677 61.852221 
L 224.751094 61.852221 
L 224.921792 62.840551 
L 225.093029 62.840551 
L 225.263236 63.82888 
L 225.604673 63.82888 
L 225.775368 64.81721 
L 225.86091 64.81721 
L 226.031581 65.805539 
L 226.373069 65.805539 
L 226.543741 66.793869 
L 226.628952 66.793869 
L 227.226417 69.758858 
L 227.397385 69.758858 
L 227.5682 70.747187 
L 227.653231 70.747187 
L 227.823953 71.735517 
L 227.994657 71.735517 
L 228.165371 72.723846 
L 228.421475 73.712176 
L 229.18966 73.712176 
L 229.360366 74.700505 
L 229.616544 74.700505 
L 229.787495 75.688835 
L 230.043232 75.688835 
L 230.213939 76.677165 
L 230.55537 76.677165 
L 230.726088 77.665494 
L 230.896791 77.665494 
L 231.067508 78.653824 
L 231.238222 78.653824 
L 231.323758 79.642153 
L 231.408938 78.653824 
L 231.66509 79.642153 
L 233.116792 79.642153 
L 233.372385 78.653824 
L 233.542992 78.653824 
L 233.713799 77.665494 
L 234.652517 77.665494 
L 234.908709 76.677165 
L 235.164654 76.677165 
L 235.335363 75.688835 
L 235.420878 75.688835 
L 235.591764 74.700505 
L 235.676801 74.700505 
L 235.933174 72.723846 
L 236.616067 72.723846 
L 236.786683 71.735517 
L 237.554651 71.735517 
L 237.725366 70.747187 
L 237.896078 70.747187 
L 238.152334 71.735517 
L 238.323163 71.735517 
L 238.493829 72.723846 
L 238.749648 72.723846 
L 238.920363 73.712176 
L 239.859563 73.712176 
L 240.030311 74.700505 
L 241.651786 74.700505 
L 241.822504 73.712176 
L 242.676074 73.712176 
L 242.93222 72.723846 
L 243.700355 72.723846 
L 243.871071 73.712176 
L 244.63952 73.712176 
L 244.810334 74.700505 
L 245.578205 74.700505 
L 245.663706 75.688835 
L 245.834652 74.700505 
L 246.090305 74.700505 
L 246.261064 73.712176 
L 247.200319 73.712176 
L 247.285345 74.700505 
L 247.456063 73.712176 
L 249.419477 73.712176 
L 249.590303 72.723846 
L 249.761044 72.723846 
L 249.846053 71.735517 
L 250.016771 72.723846 
L 250.187483 72.723846 
L 250.358196 73.712176 
L 250.528908 73.712176 
L 250.699621 74.700505 
L 250.955745 74.700505 
L 251.126776 75.688835 
L 251.553195 75.688835 
L 251.723911 74.700505 
L 251.980281 74.700505 
L 252.150893 75.688835 
L 252.663108 75.688835 
L 252.918908 73.712176 
L 254.284614 73.712176 
L 254.455335 74.700505 
L 254.541007 74.700505 
L 254.711747 75.688835 
L 254.882494 75.688835 
L 255.05316 76.677165 
L 255.73564 76.677165 
L 255.906677 77.665494 
L 256.3332 77.665494 
L 256.5039 78.653824 
L 257.186761 78.653824 
L 257.443004 79.642153 
L 258.296521 79.642153 
L 258.467405 80.630483 
L 260.259614 80.630483 
L 260.430909 79.642153 
L 261.198866 79.642153 
L 261.369677 78.653824 
L 262.393675 78.653824 
L 262.649615 77.665494 
L 263.844611 77.665494 
L 264.015319 76.677165 
L 264.186042 76.677165 
L 264.356755 77.665494 
L 264.613036 77.665494 
L 264.78385 76.677165 
L 265.466532 76.677165 
L 265.637218 75.688835 
L 266.063895 75.688835 
L 266.320396 74.700505 
L 266.832418 74.700505 
L 267.002802 73.712176 
L 268.453899 73.712176 
L 268.710165 72.723846 
L 269.478172 72.723846 
L 269.648888 71.735517 
L 270.673162 71.735517 
L 271.014594 74.700505 
L 271.698071 74.700505 
L 271.953734 75.688835 
L 272.466034 75.688835 
L 272.636574 74.700505 
L 273.148734 74.700505 
L 273.233882 73.712176 
L 273.746025 73.712176 
L 273.916743 72.723846 
L 274.173119 72.723846 
L 274.343794 71.735517 
L 276.050943 71.735517 
L 276.221549 70.747187 
L 276.733696 70.747187 
L 276.904524 69.758858 
L 277.075128 69.758858 
L 277.24594 68.770528 
L 280.148085 68.770528 
L 280.233165 67.782199 
L 281.684501 67.782199 
L 281.855241 68.770528 
L 282.28172 68.770528 
L 282.452441 69.758858 
L 283.306004 69.758858 
L 283.476723 70.747187 
L 283.647434 70.747187 
L 283.818141 71.735517 
L 284.501009 71.735517 
L 284.757235 70.747187 
L 285.269412 70.747187 
L 285.440219 69.758858 
L 285.525291 69.758858 
L 285.696006 68.770528 
L 285.781634 68.770528 
L 285.952385 69.758858 
L 286.123053 69.758858 
L 286.293502 68.770528 
L 286.549581 68.770528 
L 286.720288 67.782199 
L 288.93957 67.782199 
L 289.110281 68.770528 
L 289.537125 68.770528 
L 289.878691 71.735517 
L 289.963849 71.735517 
L 290.134565 72.723846 
L 290.305283 72.723846 
L 290.475994 73.712176 
L 290.988696 73.712176 
L 291.24436 72.723846 
L 291.415101 72.723846 
L 291.500856 73.712176 
L 291.927326 73.712176 
L 292.01301 72.723846 
L 292.524988 72.723846 
L 292.780748 71.735517 
L 293.037257 71.735517 
L 293.207412 70.747187 
L 293.975831 70.747187 
L 294.146566 71.735517 
L 294.744476 71.735517 
L 294.999912 70.747187 
L 295.938829 70.747187 
L 296.280707 69.758858 
L 296.536546 70.747187 
L 297.134189 70.747187 
L 297.304549 69.758858 
L 298.499557 69.758858 
L 298.841542 68.770528 
L 299.353438 68.770528 
L 299.523835 69.758858 
L 299.865265 70.747187 
L 300.035974 70.747187 
L 300.206692 69.758858 
L 300.54811 70.747187 
L 301.060256 71.735517 
L 301.316445 71.735517 
L 301.57287 72.723846 
L 301.743823 72.723846 
L 301.999416 73.712176 
L 302.596687 73.712176 
L 302.767395 74.700505 
L 302.938118 74.700505 
L 303.108831 75.688835 
L 304.475224 75.688835 
L 304.73076 76.677165 
L 305.669549 76.677165 
L 306.010969 78.653824 
L 306.181688 78.653824 
L 306.43777 80.630483 
L 306.523804 80.630483 
L 306.865216 82.607142 
L 307.035965 82.607142 
L 307.291545 83.595472 
L 308.486623 83.595472 
L 308.572007 84.583801 
L 309.340203 88.537119 
L 309.425264 88.537119 
L 309.595973 87.54879 
L 310.022967 87.54879 
L 310.108107 86.56046 
L 311.047287 86.56046 
L 311.303122 88.537119 
L 311.559513 88.537119 
L 311.730326 89.525449 
L 312.071453 91.502108 
L 312.498127 91.502108 
L 312.668836 92.490438 
L 313.351703 92.490438 
L 313.607725 93.478767 
L 313.693131 93.478767 
L 313.863836 94.467097 
L 314.120239 94.467097 
L 314.205265 95.455426 
L 314.375981 94.467097 
L 314.632405 94.467097 
L 314.888127 96.443756 
L 314.973749 96.443756 
L 315.229541 95.455426 
L 315.400268 94.467097 
L 315.485906 94.467097 
L 315.656443 95.455426 
L 315.827469 95.455426 
L 315.998002 96.443756 
L 316.253844 96.443756 
L 316.424563 97.432086 
L 316.595272 97.432086 
L 316.851358 98.420415 
L 317.278126 98.420415 
L 317.448848 99.408745 
L 317.619555 99.408745 
L 317.87596 101.385404 
L 318.046635 101.385404 
L 318.217309 102.373733 
L 318.473142 102.373733 
L 318.643862 103.362063 
L 318.814567 103.362063 
L 318.985283 102.373733 
L 319.070955 102.373733 
L 319.241627 101.385404 
L 319.582971 101.385404 
L 319.668145 102.373733 
L 319.838861 102.373733 
L 320.094988 101.385404 
L 320.521721 101.385404 
L 320.692435 102.373733 
L 320.863148 102.373733 
L 321.033868 103.362063 
L 321.290121 103.362063 
L 321.460864 104.350393 
L 321.716726 104.350393 
L 321.887445 103.362063 
L 323.082439 103.362063 
L 323.338617 102.373733 
L 323.423869 102.373733 
L 323.594582 103.362063 
L 324.363217 103.362063 
L 324.533689 104.350393 
L 326.070229 104.350393 
L 326.240972 103.362063 
L 327.350308 103.362063 
L 327.435966 104.350393 
L 327.60657 103.362063 
L 327.948054 103.362063 
L 328.203878 102.373733 
L 328.545808 102.373733 
L 328.716023 103.362063 
L 329.228173 103.362063 
L 329.570153 100.397074 
L 330.167232 97.432086 
L 330.423187 97.432086 
L 330.593884 98.420415 
L 331.020735 98.420415 
L 331.106041 97.432086 
L 331.362151 96.443756 
L 331.61817 94.467097 
L 332.045197 92.490438 
L 332.215871 93.478767 
L 332.813783 93.478767 
L 333.069512 95.455426 
L 333.240119 96.443756 
L 333.325325 96.443756 
L 333.496036 97.432086 
L 334.008173 97.432086 
L 334.349604 94.467097 
L 334.691034 94.467097 
L 334.861755 93.478767 
L 334.947278 93.478767 
L 335.288765 90.513779 
L 335.459507 90.513779 
L 335.630045 89.525449 
L 335.715327 89.525449 
L 336.057355 87.54879 
L 336.227472 87.54879 
L 336.398179 88.537119 
L 336.568895 87.54879 
L 336.739608 87.54879 
L 336.910329 86.56046 
L 336.99585 86.56046 
L 337.166593 87.54879 
L 338.020239 87.54879 
L 338.190842 86.56046 
L 338.276039 87.54879 
L 338.532329 87.54879 
L 338.703073 88.537119 
L 338.788178 88.537119 
L 339.044416 87.54879 
L 339.129604 87.54879 
L 339.300917 88.537119 
L 340.06881 88.537119 
L 340.239476 89.525449 
L 340.837388 89.525449 
L 341.178183 90.513779 
L 341.348893 90.513779 
L 341.519601 89.525449 
L 341.77595 89.525449 
L 341.946629 90.513779 
L 342.373179 90.513779 
L 342.544395 91.502108 
L 343.909606 91.502108 
L 344.080876 92.490438 
L 345.788023 92.490438 
L 346.129443 93.478767 
L 346.47032 93.478767 
L 346.64103 94.467097 
L 346.81175 94.467097 
L 347.068004 96.443756 
L 347.153688 96.443756 
L 347.324436 97.432086 
L 347.921585 97.432086 
L 348.092187 96.443756 
L 348.178 96.443756 
L 348.433742 97.432086 
L 348.604413 97.432086 
L 348.860319 99.408745 
L 349.201744 99.408745 
L 349.458059 98.420415 
L 349.628732 99.408745 
L 349.713903 99.408745 
L 349.884611 100.397074 
L 350.73818 100.397074 
L 351.165072 104.350393 
L 351.25032 104.350393 
L 351.848042 107.315381 
L 351.933192 107.315381 
L 352.104537 108.303711 
L 352.360164 109.29204 
L 352.530895 109.29204 
L 352.701616 110.28037 
L 352.957465 110.28037 
L 353.128184 111.268699 
L 353.469616 111.268699 
L 353.640332 112.257029 
L 353.811626 112.257029 
L 353.981755 113.245359 
L 354.152473 112.257029 
L 354.408768 111.268699 
L 354.665152 111.268699 
L 354.920857 113.245359 
L 355.176763 113.245359 
L 355.34803 114.233688 
L 355.603826 114.233688 
L 355.774434 115.222018 
L 356.115924 115.222018 
L 356.286665 116.210347 
L 356.542484 116.210347 
L 356.713204 117.198677 
L 356.883918 117.198677 
L 357.481657 120.163666 
L 357.566783 120.163666 
L 357.737504 121.151995 
L 357.90821 121.151995 
L 358.079418 122.140325 
L 358.24964 122.140325 
L 358.420354 121.151995 
L 358.591723 122.140325 
L 360.298688 122.140325 
L 360.468943 123.128654 
L 360.725139 123.128654 
L 360.895951 122.140325 
L 361.066623 122.140325 
L 361.322511 120.163666 
L 361.408039 120.163666 
L 361.578766 119.175336 
L 361.663947 119.175336 
L 361.919986 117.198677 
L 362.090942 117.198677 
L 362.261616 116.210347 
L 362.603105 116.210347 
L 362.688241 117.198677 
L 362.858956 117.198677 
L 363.115186 119.175336 
L 363.200901 119.175336 
L 363.371101 120.163666 
L 363.541794 120.163666 
L 363.883708 122.140325 
L 364.651731 122.140325 
L 364.737381 123.128654 
L 364.993151 123.128654 
L 365.163611 124.116984 
L 365.334512 124.116984 
L 365.590937 126.093643 
L 365.761739 126.093643 
L 366.017186 127.081973 
L 367.383142 127.081973 
L 367.468275 126.093643 
L 369.175424 126.093643 
L 369.346143 125.105313 
L 369.516854 125.105313 
L 369.687568 124.116984 
L 370.626711 124.116984 
L 370.797454 125.105313 
L 371.906889 125.105313 
L 372.077599 124.116984 
L 372.163267 124.116984 
L 372.334012 125.105313 
L 372.504761 125.105313 
L 372.675496 126.093643 
L 372.846244 126.093643 
L 373.016846 125.105313 
L 373.272612 125.105313 
L 373.44333 126.093643 
L 373.69961 126.093643 
L 373.870288 127.081973 
L 374.553261 127.081973 
L 374.638339 128.070302 
L 375.321209 128.070302 
L 375.491925 129.058632 
L 375.662639 129.058632 
L 375.833352 130.046961 
L 376.089737 130.046961 
L 376.260552 131.035291 
L 376.686927 131.035291 
L 376.857646 130.046961 
L 377.02836 131.035291 
L 377.199079 131.035291 
L 377.36979 130.046961 
L 377.711226 130.046961 
L 377.881947 131.035291 
L 378.906236 131.035291 
L 379.16255 133.01195 
L 380.271953 133.01195 
L 380.442678 134.00028 
L 381.637681 134.00028 
L 381.808405 133.01195 
L 381.979107 134.00028 
L 382.576853 134.00028 
L 382.747457 134.988609 
L 382.833422 134.988609 
L 383.088874 136.965268 
L 383.856978 136.965268 
L 384.11319 134.988609 
L 384.284 134.988609 
L 384.539849 133.01195 
L 384.79609 133.01195 
L 385.137576 130.046961 
L 385.308243 130.046961 
L 385.564133 128.070302 
L 385.905561 128.070302 
L 386.161668 127.081973 
L 386.246993 127.081973 
L 386.417712 126.093643 
L 386.588425 126.093643 
L 386.759146 125.105313 
L 386.844718 125.105313 
L 387.015598 124.116984 
L 388.039641 124.116984 
L 388.210454 125.105313 
L 388.381058 125.105313 
L 388.551871 124.116984 
L 388.722475 124.116984 
L 388.807731 125.105313 
L 388.978447 124.116984 
L 389.405292 124.116984 
L 389.576181 123.128654 
L 391.539176 123.128654 
L 391.709883 124.116984 
L 391.795571 124.116984 
L 391.966245 125.105313 
L 392.222035 125.105313 
L 392.392742 126.093643 
L 392.90489 126.093643 
L 393.075615 125.105313 
L 393.161304 125.105313 
L 393.246322 126.093643 
L 393.417038 125.105313 
L 393.844134 125.105313 
L 394.014875 126.093643 
L 394.526967 126.093643 
L 394.697711 127.081973 
L 394.78276 127.081973 
L 394.953469 128.070302 
L 395.892551 133.01195 
L 397.002067 133.01195 
L 397.173438 134.00028 
L 397.428811 134.00028 
L 397.514215 134.988609 
L 397.770587 134.988609 
L 397.941262 135.976939 
L 398.026363 134.988609 
L 398.197079 135.976939 
L 398.28268 135.976939 
L 398.453351 136.965268 
L 399.136171 136.965268 
L 399.306997 137.953598 
L 399.819224 137.953598 
L 399.989898 138.941927 
L 400.331314 138.941927 
L 400.502124 139.930257 
L 400.58781 139.930257 
L 400.843532 141.906916 
L 401.014214 141.906916 
L 401.184959 142.895246 
L 401.355632 142.895246 
L 401.611401 144.871905 
L 402.294253 144.871905 
L 402.464972 145.860234 
L 402.550623 145.860234 
L 402.721362 146.848564 
L 403.660553 146.848564 
L 403.916063 147.836894 
L 404.087023 147.836894 
L 404.257698 146.848564 
L 404.42851 147.836894 
L 404.684277 147.836894 
L 405.025709 144.871905 
L 405.794105 144.871905 
L 406.050017 146.848564 
L 406.135591 146.848564 
L 406.306264 147.836894 
L 406.903591 147.836894 
L 407.159692 146.848564 
L 407.586453 146.848564 
L 407.757174 147.836894 
L 408.013417 147.836894 
L 408.269318 149.813553 
L 408.354901 149.813553 
L 408.525714 150.801882 
L 408.867055 151.790212 
L 409.037668 151.790212 
L 409.208617 152.778541 
L 409.805773 152.778541 
L 410.488633 145.860234 
L 410.659357 145.860234 
L 410.915627 143.883575 
L 411.598457 143.883575 
L 411.769285 142.895246 
L 412.878652 142.895246 
L 413.049366 143.883575 
L 413.134936 143.883575 
L 413.817769 134.988609 
L 414.073659 131.035291 
L 414.671544 123.128654 
L 415.268662 111.268699 
L 415.610103 106.327052 
L 416.037218 97.432086 
L 416.208024 97.432086 
L 416.549234 103.362063 
L 416.975817 107.315381 
L 417.061331 107.315381 
L 417.232067 108.303711 
L 417.402879 105.338722 
L 418.342214 84.583801 
L 418.939352 77.665494 
L 419.110093 80.630483 
L 419.451509 80.630483 
L 420.048656 74.700505 
L 420.1342 74.700505 
L 420.305084 75.688835 
L 420.390106 75.688835 
L 420.560822 76.677165 
L 420.731536 76.677165 
L 421.243678 69.758858 
L 421.58577 63.82888 
L 421.670469 63.82888 
L 421.841429 62.840551 
L 421.926521 62.840551 
L 422.097242 63.82888 
L 422.182913 63.82888 
L 422.609875 59.875562 
L 422.695068 59.875562 
L 423.036353 56.910573 
L 423.122034 56.910573 
L 423.548646 59.875562 
L 423.804381 61.852221 
L 423.890064 60.863892 
L 424.316519 64.81721 
L 424.657949 61.852221 
L 424.829394 61.852221 
L 425.340803 56.910573 
L 425.511512 56.910573 
L 425.767888 54.933914 
L 426.109309 57.898903 
L 426.194368 57.898903 
L 426.365596 56.910573 
L 426.962812 56.910573 
L 427.133553 54.933914 
L 427.218638 54.933914 
L 427.389359 55.922244 
L 427.56007 54.933914 
L 427.645784 54.933914 
L 428.072179 50.980596 
L 428.157725 50.980596 
L 428.24292 51.968925 
L 428.413642 50.980596 
L 428.584353 50.980596 
L 428.840773 49.003937 
L 428.925779 49.003937 
L 429.181982 47.027278 
L 429.267208 47.027278 
L 429.609221 44.062289 
L 429.864881 46.038948 
L 430.12078 46.038948 
L 430.974341 54.933914 
L 431.145699 53.945585 
L 431.4869 50.980596 
L 431.657205 50.980596 
L 432.340059 44.062289 
L 432.681486 44.062289 
L 433.27932 41.0973 
L 433.535046 41.0973 
L 433.620734 40.108971 
L 433.705752 41.0973 
L 433.791477 40.108971 
L 434.303562 45.050618 
L 434.389181 45.050618 
L 434.644911 47.027278 
L 435.157001 51.968925 
L 435.242166 51.968925 
L 435.498485 55.922244 
L 435.669162 56.910573 
L 435.925031 56.910573 
L 436.351986 53.945585 
L 437.120032 46.038948 
L 437.63265 46.038948 
L 437.71749 45.050618 
L 437.888583 46.038948 
L 437.973592 46.038948 
L 438.400682 49.992266 
L 439.083581 49.992266 
L 439.424854 52.957255 
L 439.510022 52.957255 
L 439.595675 51.968925 
L 439.851453 53.945585 
L 439.937088 53.945585 
L 440.278436 56.910573 
L 440.363593 56.910573 
L 440.961121 50.980596 
L 441.046439 50.980596 
L 441.302891 52.957255 
L 441.38787 51.968925 
L 441.729297 54.933914 
L 441.814843 54.933914 
L 442.071201 56.910573 
L 442.156258 56.910573 
L 442.327141 57.898903 
L 443.095006 48.015607 
L 443.351388 44.062289 
L 443.60715 41.0973 
L 443.777863 41.0973 
L 444.119907 46.038948 
L 444.460716 41.0973 
L 444.631432 38.132311 
L 444.972857 43.073959 
L 445.399827 50.980596 
L 445.656256 50.980596 
L 446.167857 46.038948 
L 446.424215 49.992266 
L 446.59482 53.945585 
L 446.850708 53.945585 
L 447.106977 55.922244 
L 447.53393 59.875562 
L 447.619203 59.875562 
L 447.789946 60.863892 
L 447.960621 60.863892 
L 448.64352 67.782199 
L 448.728559 67.782199 
L 449.6677 72.723846 
L 449.752845 72.723846 
L 449.92356 73.712176 
L 450.094273 73.712176 
L 450.350529 74.700505 
L 450.436289 73.712176 
L 450.606418 73.712176 
L 450.777131 72.723846 
L 450.862764 72.723846 
L 451.033436 71.735517 
L 451.118558 71.735517 
L 451.374852 70.747187 
L 451.886942 70.747187 
L 451.972126 72.723846 
L 452.228279 74.700505 
L 452.8257 80.630483 
L 452.911258 80.630483 
L 453.252813 83.595472 
L 453.337834 83.595472 
L 454.78908 92.490438 
L 455.386991 98.420415 
L 455.471903 98.420415 
L 455.898555 100.397074 
L 455.98414 100.397074 
L 456.154881 101.385404 
L 456.239991 101.385404 
L 456.410713 102.373733 
L 456.581424 102.373733 
L 456.837709 103.362063 
L 456.923398 103.362063 
L 457.093555 104.350393 
L 457.349803 104.350393 
L 457.520546 105.338722 
L 457.947139 105.338722 
L 458.117855 106.327052 
L 458.459284 106.327052 
L 458.715462 107.315381 
L 459.227687 107.315381 
L 459.398429 108.303711 
L 459.995722 108.303711 
L 460.167219 109.29204 
L 460.934971 109.29204 
L 461.105712 110.28037 
L 461.703482 110.28037 
L 461.959142 111.268699 
L 462.556432 111.268699 
L 462.72715 112.257029 
L 464.007842 112.257029 
L 464.17858 113.245359 
L 464.861409 113.245359 
L 464.947093 114.233688 
L 466.227137 114.233688 
L 466.312172 115.222018 
L 467.165743 115.222018 
L 467.336457 116.210347 
L 468.872892 116.210347 
L 469.043615 117.198677 
L 470.153527 117.198677 
L 470.324131 118.187006 
L 471.092196 118.187006 
L 471.17791 119.175336 
L 473.141346 119.175336 
L 473.397078 120.163666 
L 474.421322 120.163666 
L 474.677684 119.175336 
L 474.933484 119.175336 
L 475.104155 120.163666 
L 476.213666 120.163666 
L 476.469885 121.151995 
L 477.664948 121.151995 
L 477.835553 122.140325 
L 477.921363 121.151995 
L 478.177147 122.140325 
L 478.603674 122.140325 
L 478.774395 123.128654 
L 479.115821 123.128654 
L 479.287118 124.116984 
L 479.96993 124.116984 
L 480.225815 125.105313 
L 480.396428 125.105313 
L 480.567118 126.093643 
L 481.762219 126.093643 
L 481.932962 127.081973 
L 482.189287 127.081973 
L 482.35941 128.070302 
L 482.530129 128.070302 
L 482.701412 129.058632 
L 482.871568 129.058632 
L 483.127884 130.046961 
L 483.725129 130.046961 
L 483.895863 129.058632 
L 485.347327 129.058632 
L 485.432299 128.070302 
L 485.603011 129.058632 
L 486.11516 129.058632 
L 486.285868 130.046961 
L 486.456584 129.058632 
L 486.627312 129.058632 
L 486.798018 128.070302 
L 486.968742 129.058632 
L 487.139452 129.058632 
L 487.395752 131.035291 
L 487.993028 132.02362 
L 489.017324 132.02362 
L 489.188619 131.035291 
L 490.553763 131.035291 
L 490.639396 132.02362 
L 491.236622 130.046961 
L 491.407339 130.046961 
L 491.578059 131.035291 
L 492.261502 131.035291 
L 492.432314 130.046961 
L 493.2 130.046961 
L 493.2 130.046961 
" clip-path="url(#p477e8a6905)" style="fill: none; stroke: #1f77b4; stroke-width: 1.5; stroke-linecap: square"/>
   </g>
   <g id="patch_3">
    <path d="M 51.05 158.510853 
L 51.05 32.4 
" style="fill: none; stroke: #000000; stroke-width: 0.8; stroke-linejoin: miter; stroke-linecap: square"/>
   </g>
   <g id="patch_4">
    <path d="M 493.2 158.510853 
L 493.2 32.4 
" style="fill: none; stroke: #000000; stroke-width: 0.8; stroke-linejoin: miter; stroke-linecap: square"/>
   </g>
   <g id="patch_5">
    <path d="M 51.05 158.510853 
L 493.2 158.510853 
" style="fill: none; stroke: #000000; stroke-width: 0.8; stroke-linejoin: miter; stroke-linecap: square"/>
   </g>
   <g id="patch_6">
    <path d="M 51.05 32.4 
L 493.2 32.4 
" style="fill: none; stroke: #000000; stroke-width: 0.8; stroke-linejoin: miter; stroke-linecap: square"/>
   </g>
  </g>
  <g id="axes_2">
   <g id="patch_7">
    <path d="M 51.05 302.881706 
L 493.2 302.881706 
L 493.2 176.770853 
L 51.05 176.770853 
z
" style="fill: #ffffff"/>
   </g>
   <g id="matplotlib.axis_3">
    <g id="xtick_6">
     <g id="line2d_22">
      <path d="M 127.826415 302.881706 
L 127.826415 176.770853 
" clip-path="url(#pff3b048377)" style="fill: none; stroke: #b0b0b0; stroke-width: 0.8; stroke-linecap: square"/>
     </g>
     <g id="line2d_23">
      <g>
       <use xlink:href="#m578db00e56" x="127.826415" y="302.881706" style="stroke: #000000; stroke-width: 0.8"/>
      </g>
     </g>
    </g>
    <g id="xtick_7">
     <g id="line2d_24">
      <path d="M 204.648157 302.881706 
L 204.648157 176.770853 
" clip-path="url(#pff3b048377)" style="fill: none; stroke: #b0b0b0; stroke-width: 0.8; stroke-linecap: square"/>
     </g>
     <g id="line2d_25">
      <g>
       <use xlink:href="#m578db00e56" x="204.648157" y="302.881706" style="stroke: #000000; stroke-width: 0.8"/>
      </g>
     </g>
    </g>
    <g id="xtick_8">
     <g id="line2d_26">
      <path d="M 281.469899 302.881706 
L 281.469899 176.770853 
" clip-path="url(#pff3b048377)" style="fill: none; stroke: #b0b0b0; stroke-width: 0.8; stroke-linecap: square"/>
     </g>
     <g id="line2d_27">
      <g>
       <use xlink:href="#m578db00e56" x="281.469899" y="302.881706" style="stroke: #000000; stroke-width: 0.8"/>
      </g>
     </g>
    </g>
    <g id="xtick_9">
     <g id="line2d_28">
      <path d="M 358.291641 302.881706 
L 358.291641 176.770853 
" clip-path="url(#pff3b048377)" style="fill: none; stroke: #b0b0b0; stroke-width: 0.8; stroke-linecap: square"/>
     </g>
     <g id="line2d_29">
      <g>
       <use xlink:href="#m578db00e56" x="358.291641" y="302.881706" style="stroke: #000000; stroke-width: 0.8"/>
      </g>
     </g>
    </g>
    <g id="xtick_10">
     <g id="line2d_30">
      <path d="M 435.113383 302.881706 
L 435.113383 176.770853 
" clip-path="url(#pff3b048377)" style="fill: none; stroke: #b0b0b0; stroke-width: 0.8; stroke-linecap: square"/>
     </g>
     <g id="line2d_31">
      <g>
       <use xlink:href="#m578db00e56" x="435.113383" y="302.881706" style="stroke: #000000; stroke-width: 0.8"/>
      </g>
     </g>
    </g>
   </g>
   <g id="matplotlib.axis_4">
    <g id="ytick_6">
     <g id="line2d_32">
      <path d="M 51.05 302.881706 
L 493.2 302.881706 
" clip-path="url(#pff3b048377)" style="fill: none; stroke: #b0b0b0; stroke-width: 0.8; stroke-linecap: square"/>
     </g>
     <g id="line2d_33">
      <g>
       <use xlink:href="#m8ca489a5be" x="51.05" y="302.881706" style="stroke: #000000; stroke-width: 0.8"/>
      </g>
     </g>
     <g id="text_7">
      <!-- 0 -->
      <g transform="translate(37.6875 306.680924) scale(0.1 -0.1)">
       <use xlink:href="#DejaVuSans-30"/>
      </g>
     </g>
    </g>
    <g id="ytick_7">
     <g id="line2d_34">
      <path d="M 51.05 277.659535 
L 493.2 277.659535 
" clip-path="url(#pff3b048377)" style="fill: none; stroke: #b0b0b0; stroke-width: 0.8; stroke-linecap: square"/>
     </g>
     <g id="line2d_35">
      <g>
       <use xlink:href="#m8ca489a5be" x="51.05" y="277.659535" style="stroke: #000000; stroke-width: 0.8"/>
      </g>
     </g>
     <g id="text_8">
      <!-- 20 -->
      <g transform="translate(31.325 281.458754) scale(0.1 -0.1)">
       <use xlink:href="#DejaVuSans-32"/>
       <use xlink:href="#DejaVuSans-30" x="63.623047"/>
      </g>
     </g>
    </g>
    <g id="ytick_8">
     <g id="line2d_36">
      <path d="M 51.05 252.437365 
L 493.2 252.437365 
" clip-path="url(#pff3b048377)" style="fill: none; stroke: #b0b0b0; stroke-width: 0.8; stroke-linecap: square"/>
     </g>
     <g id="line2d_37">
      <g>
       <use xlink:href="#m8ca489a5be" x="51.05" y="252.437365" style="stroke: #000000; stroke-width: 0.8"/>
      </g>
     </g>
     <g id="text_9">
      <!-- 40 -->
      <g transform="translate(31.325 256.236583) scale(0.1 -0.1)">
       <defs>
        <path id="DejaVuSans-34" d="M 2419 4116 
L 825 1625 
L 2419 1625 
L 2419 4116 
z
M 2253 4666 
L 3047 4666 
L 3047 1625 
L 3713 1625 
L 3713 1100 
L 3047 1100 
L 3047 0 
L 2419 0 
L 2419 1100 
L 313 1100 
L 313 1709 
L 2253 4666 
z
" transform="scale(0.015625)"/>
       </defs>
       <use xlink:href="#DejaVuSans-34"/>
       <use xlink:href="#DejaVuSans-30" x="63.623047"/>
      </g>
     </g>
    </g>
    <g id="ytick_9">
     <g id="line2d_38">
      <path d="M 51.05 227.215194 
L 493.2 227.215194 
" clip-path="url(#pff3b048377)" style="fill: none; stroke: #b0b0b0; stroke-width: 0.8; stroke-linecap: square"/>
     </g>
     <g id="line2d_39">
      <g>
       <use xlink:href="#m8ca489a5be" x="51.05" y="227.215194" style="stroke: #000000; stroke-width: 0.8"/>
      </g>
     </g>
     <g id="text_10">
      <!-- 60 -->
      <g transform="translate(31.325 231.014413) scale(0.1 -0.1)">
       <defs>
        <path id="DejaVuSans-36" d="M 2113 2584 
Q 1688 2584 1439 2293 
Q 1191 2003 1191 1497 
Q 1191 994 1439 701 
Q 1688 409 2113 409 
Q 2538 409 2786 701 
Q 3034 994 3034 1497 
Q 3034 2003 2786 2293 
Q 2538 2584 2113 2584 
z
M 3366 4563 
L 3366 3988 
Q 3128 4100 2886 4159 
Q 2644 4219 2406 4219 
Q 1781 4219 1451 3797 
Q 1122 3375 1075 2522 
Q 1259 2794 1537 2939 
Q 1816 3084 2150 3084 
Q 2853 3084 3261 2657 
Q 3669 2231 3669 1497 
Q 3669 778 3244 343 
Q 2819 -91 2113 -91 
Q 1303 -91 875 529 
Q 447 1150 447 2328 
Q 447 3434 972 4092 
Q 1497 4750 2381 4750 
Q 2619 4750 2861 4703 
Q 3103 4656 3366 4563 
z
" transform="scale(0.015625)"/>
       </defs>
       <use xlink:href="#DejaVuSans-36"/>
       <use xlink:href="#DejaVuSans-30" x="63.623047"/>
      </g>
     </g>
    </g>
    <g id="ytick_10">
     <g id="line2d_40">
      <path d="M 51.05 201.993023 
L 493.2 201.993023 
" clip-path="url(#pff3b048377)" style="fill: none; stroke: #b0b0b0; stroke-width: 0.8; stroke-linecap: square"/>
     </g>
     <g id="line2d_41">
      <g>
       <use xlink:href="#m8ca489a5be" x="51.05" y="201.993023" style="stroke: #000000; stroke-width: 0.8"/>
      </g>
     </g>
     <g id="text_11">
      <!-- 80 -->
      <g transform="translate(31.325 205.792242) scale(0.1 -0.1)">
       <defs>
        <path id="DejaVuSans-38" d="M 2034 2216 
Q 1584 2216 1326 1975 
Q 1069 1734 1069 1313 
Q 1069 891 1326 650 
Q 1584 409 2034 409 
Q 2484 409 2743 651 
Q 3003 894 3003 1313 
Q 3003 1734 2745 1975 
Q 2488 2216 2034 2216 
z
M 1403 2484 
Q 997 2584 770 2862 
Q 544 3141 544 3541 
Q 544 4100 942 4425 
Q 1341 4750 2034 4750 
Q 2731 4750 3128 4425 
Q 3525 4100 3525 3541 
Q 3525 3141 3298 2862 
Q 3072 2584 2669 2484 
Q 3125 2378 3379 2068 
Q 3634 1759 3634 1313 
Q 3634 634 3220 271 
Q 2806 -91 2034 -91 
Q 1263 -91 848 271 
Q 434 634 434 1313 
Q 434 1759 690 2068 
Q 947 2378 1403 2484 
z
M 1172 3481 
Q 1172 3119 1398 2916 
Q 1625 2713 2034 2713 
Q 2441 2713 2670 2916 
Q 2900 3119 2900 3481 
Q 2900 3844 2670 4047 
Q 2441 4250 2034 4250 
Q 1625 4250 1398 4047 
Q 1172 3844 1172 3481 
z
" transform="scale(0.015625)"/>
       </defs>
       <use xlink:href="#DejaVuSans-38"/>
       <use xlink:href="#DejaVuSans-30" x="63.623047"/>
      </g>
     </g>
    </g>
    <g id="ytick_11">
     <g id="line2d_42">
      <path d="M 51.05 176.770853 
L 493.2 176.770853 
" clip-path="url(#pff3b048377)" style="fill: none; stroke: #b0b0b0; stroke-width: 0.8; stroke-linecap: square"/>
     </g>
     <g id="line2d_43">
      <g>
       <use xlink:href="#m8ca489a5be" x="51.05" y="176.770853" style="stroke: #000000; stroke-width: 0.8"/>
      </g>
     </g>
     <g id="text_12">
      <!-- 100 -->
      <g transform="translate(24.9625 180.570072) scale(0.1 -0.1)">
       <defs>
        <path id="DejaVuSans-31" d="M 794 531 
L 1825 531 
L 1825 4091 
L 703 3866 
L 703 4441 
L 1819 4666 
L 2450 4666 
L 2450 531 
L 3481 531 
L 3481 0 
L 794 0 
L 794 531 
z
" transform="scale(0.015625)"/>
       </defs>
       <use xlink:href="#DejaVuSans-31"/>
       <use xlink:href="#DejaVuSans-30" x="63.623047"/>
       <use xlink:href="#DejaVuSans-30" x="127.246094"/>
      </g>
     </g>
    </g>
    <g id="text_13">
     <!-- Humidity [%RH] -->
     <g transform="translate(18.882813 279.973154) rotate(-90) scale(0.1 -0.1)">
      <defs>
       <path id="DejaVuSans-48" d="M 628 4666 
L 1259 4666 
L 1259 2753 
L 3553 2753 
L 3553 4666 
L 4184 4666 
L 4184 0 
L 3553 0 
L 3553 2222 
L 1259 2222 
L 1259 0 
L 628 0 
L 628 4666 
z
" transform="scale(0.015625)"/>
       <path id="DejaVuSans-69" d="M 603 3500 
L 1178 3500 
L 1178 0 
L 603 0 
L 603 3500 
z
M 603 4863 
L 1178 4863 
L 1178 4134 
L 603 4134 
L 603 4863 
z
" transform="scale(0.015625)"/>
       <path id="DejaVuSans-64" d="M 2906 2969 
L 2906 4863 
L 3481 4863 
L 3481 0 
L 2906 0 
L 2906 525 
Q 2725 213 2448 61 
Q 2172 -91 1784 -91 
Q 1150 -91 751 415 
Q 353 922 353 1747 
Q 353 2572 751 3078 
Q 1150 3584 1784 3584 
Q 2172 3584 2448 3432 
Q 2725 3281 2906 2969 
z
M 947 1747 
Q 947 1113 1208 752 
Q 1469 391 1925 391 
Q 2381 391 2643 752 
Q 2906 1113 2906 1747 
Q 2906 2381 2643 2742 
Q 2381 3103 1925 3103 
Q 1469 3103 1208 2742 
Q 947 2381 947 1747 
z
" transform="scale(0.015625)"/>
       <path id="DejaVuSans-79" d="M 2059 -325 
Q 1816 -950 1584 -1140 
Q 1353 -1331 966 -1331 
L 506 -1331 
L 506 -850 
L 844 -850 
Q 1081 -850 1212 -737 
Q 1344 -625 1503 -206 
L 1606 56 
L 191 3500 
L 800 3500 
L 1894 763 
L 2988 3500 
L 3597 3500 
L 2059 -325 
z
" transform="scale(0.015625)"/>
       <path id="DejaVuSans-25" d="M 4653 2053 
Q 4381 2053 4226 1822 
Q 4072 1591 4072 1178 
Q 4072 772 4226 539 
Q 4381 306 4653 306 
Q 4919 306 5073 539 
Q 5228 772 5228 1178 
Q 5228 1588 5073 1820 
Q 4919 2053 4653 2053 
z
M 4653 2450 
Q 5147 2450 5437 2106 
Q 5728 1763 5728 1178 
Q 5728 594 5436 251 
Q 5144 -91 4653 -91 
Q 4153 -91 3862 251 
Q 3572 594 3572 1178 
Q 3572 1766 3864 2108 
Q 4156 2450 4653 2450 
z
M 1428 4353 
Q 1159 4353 1004 4120 
Q 850 3888 850 3481 
Q 850 3069 1003 2837 
Q 1156 2606 1428 2606 
Q 1700 2606 1854 2837 
Q 2009 3069 2009 3481 
Q 2009 3884 1853 4118 
Q 1697 4353 1428 4353 
z
M 4250 4750 
L 4750 4750 
L 1831 -91 
L 1331 -91 
L 4250 4750 
z
M 1428 4750 
Q 1922 4750 2215 4408 
Q 2509 4066 2509 3481 
Q 2509 2891 2217 2550 
Q 1925 2209 1428 2209 
Q 931 2209 642 2551 
Q 353 2894 353 3481 
Q 353 4063 643 4406 
Q 934 4750 1428 4750 
z
" transform="scale(0.015625)"/>
       <path id="DejaVuSans-52" d="M 2841 2188 
Q 3044 2119 3236 1894 
Q 3428 1669 3622 1275 
L 4263 0 
L 3584 0 
L 2988 1197 
Q 2756 1666 2539 1819 
Q 2322 1972 1947 1972 
L 1259 1972 
L 1259 0 
L 628 0 
L 628 4666 
L 2053 4666 
Q 2853 4666 3247 4331 
Q 3641 3997 3641 3322 
Q 3641 2881 3436 2590 
Q 3231 2300 2841 2188 
z
M 1259 4147 
L 1259 2491 
L 2053 2491 
Q 2509 2491 2742 2702 
Q 2975 2913 2975 3322 
Q 2975 3731 2742 3939 
Q 2509 4147 2053 4147 
L 1259 4147 
z
" transform="scale(0.015625)"/>
      </defs>
      <use xlink:href="#DejaVuSans-48"/>
      <use xlink:href="#DejaVuSans-75" x="75.195312"/>
      <use xlink:href="#DejaVuSans-6d" x="138.574219"/>
      <use xlink:href="#DejaVuSans-69" x="235.986328"/>
      <use xlink:href="#DejaVuSans-64" x="263.769531"/>
      <use xlink:href="#DejaVuSans-69" x="327.246094"/>
      <use xlink:href="#DejaVuSans-74" x="355.029297"/>
      <use xlink:href="#DejaVuSans-79" x="394.238281"/>
      <use xlink:href="#DejaVuSans-20" x="453.417969"/>
      <use xlink:href="#DejaVuSans-5b" x="485.205078"/>
      <use xlink:href="#DejaVuSans-25" x="524.21875"/>
      <use xlink:href="#DejaVuSans-52" x="619.238281"/>
      <use xlink:href="#DejaVuSans-48" x="688.720703"/>
      <use xlink:href="#DejaVuSans-5d" x="763.916016"/>
     </g>
    </g>
   </g>
   <g id="line2d_44">
    <path d="M 51.05 194.426372 
L 51.39148 194.426372 
L 51.47717 193.165264 
L 54.293548 193.165264 
L 54.464291 194.426372 
L 56.427857 194.426372 
L 56.59796 193.165264 
L 57.964347 193.165264 
L 58.22001 191.904155 
L 59.500108 191.904155 
L 59.75634 190.643047 
L 62.744296 190.643047 
L 62.999988 189.381938 
L 74.267171 189.381938 
L 74.437916 188.12083 
L 84.936546 188.12083 
L 85.107269 186.859721 
L 91.850476 186.859721 
L 92.021368 185.598613 
L 97.142892 185.598613 
L 97.313567 186.859721 
L 102.69081 186.859721 
L 102.861527 185.598613 
L 125.225056 185.598613 
L 125.395769 186.859721 
L 128.639329 186.859721 
L 128.89558 185.598613 
L 139.479909 185.598613 
L 139.65065 186.859721 
L 142.637873 186.859721 
L 142.808587 185.598613 
L 155.4414 185.598613 
L 155.612118 184.337504 
L 162.014096 184.337504 
L 162.18477 183.076395 
L 166.111366 183.076395 
L 166.196368 181.815287 
L 170.122767 181.815287 
L 170.293488 180.554178 
L 191.888934 180.554178 
L 192.059668 181.815287 
L 198.119772 181.815287 
L 198.290481 180.554178 
L 212.118277 180.554178 
L 212.37444 181.815287 
L 212.630417 181.815287 
L 212.715942 180.554178 
L 212.886685 181.815287 
L 221.763777 181.815287 
L 221.849534 183.076395 
L 222.105199 183.076395 
L 222.275869 184.337504 
L 222.361094 184.337504 
L 222.531812 185.598613 
L 222.617286 185.598613 
L 222.788306 186.859721 
L 222.95877 186.859721 
L 223.129515 188.12083 
L 223.300255 188.12083 
L 223.385382 189.381938 
L 223.812348 189.381938 
L 223.983092 190.643047 
L 224.068239 190.643047 
L 224.238966 191.904155 
L 224.495183 191.904155 
L 224.665999 193.165264 
L 226.373069 193.165264 
L 226.543741 191.904155 
L 227.141094 191.904155 
L 227.311808 190.643047 
L 228.506808 190.643047 
L 228.677525 189.381938 
L 232.177326 189.381938 
L 232.348001 188.12083 
L 234.22589 188.12083 
L 234.396632 186.859721 
L 236.444974 186.859721 
L 236.616067 188.12083 
L 237.469587 188.12083 
L 237.640255 189.381938 
L 240.030311 189.381938 
L 240.201045 188.12083 
L 243.786014 188.12083 
L 243.956753 189.381938 
L 246.517486 189.381938 
L 246.687957 190.643047 
L 247.114631 190.643047 
L 247.285345 191.904155 
L 248.053828 191.904155 
L 248.224567 193.165264 
L 248.992491 193.165264 
L 249.163833 194.426372 
L 249.504625 194.426372 
L 249.675337 195.687481 
L 249.931786 195.687481 
L 250.102256 196.948589 
L 250.955745 196.948589 
L 251.126776 195.687481 
L 252.918908 195.687481 
L 253.089617 196.948589 
L 253.687364 196.948589 
L 253.858109 198.209698 
L 254.967476 198.209698 
L 255.138855 196.948589 
L 255.479627 196.948589 
L 255.651083 195.687481 
L 256.077486 195.687481 
L 256.24809 194.426372 
L 256.845325 194.426372 
L 257.016043 193.165264 
L 257.613829 193.165264 
L 257.784499 191.904155 
L 258.552471 191.904155 
L 258.723187 190.643047 
L 259.662389 190.643047 
L 259.832995 189.381938 
L 262.564469 189.381938 
L 262.735207 188.12083 
L 270.929551 188.12083 
L 271.100294 189.381938 
L 279.721683 189.381938 
L 279.977271 190.643047 
L 280.148085 190.643047 
L 280.233165 189.381938 
L 281.513601 189.381938 
L 281.769584 191.904155 
L 281.855241 191.904155 
L 282.025921 193.165264 
L 282.111007 193.165264 
L 282.28172 194.426372 
L 282.367332 194.426372 
L 282.538074 195.687481 
L 282.965246 195.687481 
L 283.220907 196.948589 
L 283.306004 196.948589 
L 283.476723 198.209698 
L 283.647434 198.209698 
L 283.818141 199.470806 
L 283.988868 199.470806 
L 284.159577 200.731915 
L 284.415899 200.731915 
L 284.501009 199.470806 
L 286.123053 199.470806 
L 286.293502 198.209698 
L 287.745141 198.209698 
L 288.000858 199.470806 
L 289.537125 199.470806 
L 289.708019 200.731915 
L 289.878691 200.731915 
L 290.049503 201.993023 
L 292.01301 201.993023 
L 292.353847 204.51524 
L 292.524988 203.254132 
L 292.780748 204.51524 
L 293.122316 204.51524 
L 293.293057 203.254132 
L 293.378675 203.254132 
L 293.548846 207.037458 
L 294.060987 207.037458 
L 294.232247 208.298566 
L 294.487981 209.559675 
L 294.915151 220.909651 
L 294.999912 220.909651 
L 295.426689 228.476302 
L 295.597989 232.259628 
L 295.938829 234.781845 
L 296.280707 234.781845 
L 296.621693 227.215194 
L 296.707291 227.215194 
L 296.963118 224.692977 
L 297.56064 233.520737 
L 297.816693 232.259628 
L 298.158126 236.042954 
L 298.243696 236.042954 
L 298.499557 238.565171 
L 298.841542 239.826279 
L 299.267952 242.348496 
L 299.353438 242.348496 
L 299.523835 241.087388 
L 299.865265 242.348496 
L 300.121518 243.609605 
L 300.206692 243.609605 
L 300.54811 244.870713 
L 301.743823 244.870713 
L 301.999416 243.609605 
L 302.170227 243.609605 
L 302.255776 244.870713 
L 302.511574 244.870713 
L 302.682322 243.609605 
L 302.767395 243.609605 
L 302.938118 242.348496 
L 303.194528 242.348496 
L 303.280164 239.826279 
L 303.621732 243.609605 
L 303.791694 243.609605 
L 304.047909 239.826279 
L 304.303828 243.609605 
L 304.645257 239.826279 
L 304.73076 239.826279 
L 304.986698 243.609605 
L 305.584182 243.609605 
L 305.669549 241.087388 
L 306.267373 236.042954 
L 306.779532 229.737411 
L 306.865216 229.737411 
L 307.035965 232.259628 
L 307.291545 232.259628 
L 307.718106 237.304062 
L 307.803788 236.042954 
L 307.974462 237.304062 
L 308.401503 237.304062 
L 308.572007 233.520737 
L 308.998716 227.215194 
L 309.169352 227.215194 
L 309.852226 236.042954 
L 309.937407 236.042954 
L 310.108107 238.565171 
L 310.279392 236.042954 
L 310.620733 237.304062 
L 310.876523 238.565171 
L 311.047287 238.565171 
L 311.303122 236.042954 
L 311.473836 236.042954 
L 311.730326 232.259628 
L 312.071453 233.520737 
L 312.242414 232.259628 
L 312.327404 233.520737 
L 312.754366 233.520737 
L 312.925107 234.781845 
L 313.180978 234.781845 
L 313.778755 227.215194 
L 313.863836 227.215194 
L 314.034551 225.954085 
L 314.717414 225.954085 
L 314.888127 224.692977 
L 315.315025 229.737411 
L 315.400268 229.737411 
L 315.570983 227.215194 
L 315.656443 228.476302 
L 315.827469 227.215194 
L 315.998002 227.215194 
L 316.253844 225.954085 
L 316.424563 225.954085 
L 316.595272 224.692977 
L 317.193129 224.692977 
L 317.363802 223.431868 
L 318.131706 223.431868 
L 318.217309 222.17076 
L 318.558718 223.431868 
L 318.900209 223.431868 
L 319.070955 222.17076 
L 319.241627 222.17076 
L 319.412368 220.909651 
L 319.582971 222.17076 
L 319.838861 222.17076 
L 320.094988 223.431868 
L 320.521721 223.431868 
L 320.692435 222.17076 
L 321.887445 222.17076 
L 322.229452 218.387434 
L 322.655858 223.431868 
L 322.826533 223.431868 
L 322.997276 224.692977 
L 323.680114 224.692977 
L 323.850854 223.431868 
L 324.277445 223.431868 
L 324.618877 219.648543 
L 324.704567 219.648543 
L 324.960309 220.909651 
L 325.131024 219.648543 
L 325.301736 219.648543 
L 325.643162 223.431868 
L 326.070229 223.431868 
L 326.240972 224.692977 
L 326.582244 224.692977 
L 326.753062 225.954085 
L 327.26522 225.954085 
L 327.350308 224.692977 
L 327.521028 225.954085 
L 327.948054 225.954085 
L 328.203878 227.215194 
L 328.289473 227.215194 
L 328.460216 225.954085 
L 328.886742 225.954085 
L 329.14312 227.215194 
L 329.228173 227.215194 
L 329.484467 232.259628 
L 329.996489 238.565171 
L 330.167232 237.304062 
L 330.338044 238.565171 
L 330.593884 236.042954 
L 330.85021 238.565171 
L 331.020735 238.565171 
L 331.106041 239.826279 
L 331.362151 241.087388 
L 331.874455 247.39293 
L 331.959611 247.39293 
L 332.130327 246.131822 
L 332.301041 246.131822 
L 332.47175 247.39293 
L 332.813783 243.609605 
L 333.240119 241.087388 
L 333.581747 241.087388 
L 333.752282 239.826279 
L 333.837472 239.826279 
L 334.349604 247.39293 
L 334.605787 246.131822 
L 335.032465 251.176256 
L 335.203186 251.176256 
L 335.373907 252.437365 
L 335.630045 252.437365 
L 335.715327 254.959582 
L 335.886038 254.959582 
L 336.057355 257.481799 
L 336.483762 257.481799 
L 336.654505 258.742907 
L 336.739608 258.742907 
L 336.825246 261.265124 
L 336.99585 258.742907 
L 337.081031 258.742907 
L 337.251761 261.265124 
L 339.300917 261.265124 
L 339.556648 263.787341 
L 339.727319 261.265124 
L 340.239476 261.265124 
L 340.410151 263.787341 
L 340.495318 263.787341 
L 340.666041 261.265124 
L 341.263792 261.265124 
L 341.434466 263.787341 
L 341.690322 263.787341 
L 341.861032 261.265124 
L 342.031749 261.265124 
L 342.202459 263.787341 
L 342.288038 263.787341 
L 342.373179 261.265124 
L 345.788023 261.265124 
L 346.043757 258.742907 
L 346.21443 261.265124 
L 346.47032 261.265124 
L 346.64103 258.742907 
L 346.897332 257.481799 
L 347.153688 252.437365 
L 347.750769 252.437365 
L 347.836596 254.959582 
L 347.921585 252.437365 
L 348.092187 254.959582 
L 348.178 254.959582 
L 348.433742 252.437365 
L 348.775086 252.437365 
L 348.860319 251.176256 
L 349.116456 252.437365 
L 349.458059 252.437365 
L 349.628732 251.176256 
L 349.97015 251.176256 
L 350.14089 252.437365 
L 350.396752 252.437365 
L 350.652837 251.176256 
L 350.73818 251.176256 
L 351.25032 243.609605 
L 351.421036 243.609605 
L 351.762466 239.826279 
L 351.933192 241.087388 
L 352.018714 241.087388 
L 352.104537 239.826279 
L 352.360164 239.826279 
L 352.530895 241.087388 
L 352.701616 239.826279 
L 352.786751 239.826279 
L 353.042963 238.565171 
L 354.493905 238.565171 
L 354.835335 234.781845 
L 355.34803 234.781845 
L 355.603826 236.042954 
L 356.286665 236.042954 
L 356.457342 234.781845 
L 356.628081 234.781845 
L 356.798757 233.520737 
L 357.225343 233.520737 
L 357.310854 232.259628 
L 357.481657 233.520737 
L 357.652471 232.259628 
L 357.737504 232.259628 
L 357.993839 229.737411 
L 359.103213 229.737411 
L 359.273938 228.476302 
L 359.444647 228.476302 
L 359.615365 229.737411 
L 359.786758 229.737411 
L 359.956792 230.99852 
L 360.127504 230.99852 
L 360.38372 232.259628 
L 361.066623 232.259628 
L 361.322511 234.781845 
L 361.835276 234.781845 
L 362.005375 236.042954 
L 362.261616 236.042954 
L 362.517522 237.304062 
L 363.541794 237.304062 
L 363.798056 236.042954 
L 364.651731 236.042954 
L 364.737381 234.781845 
L 365.248968 234.781845 
L 365.420251 233.520737 
L 366.615244 233.520737 
L 366.870975 234.781845 
L 367.21226 234.781845 
L 367.383142 236.042954 
L 368.322474 236.042954 
L 368.492551 234.781845 
L 368.66327 234.781845 
L 369.004707 230.99852 
L 369.346143 230.99852 
L 369.516854 229.737411 
L 369.602522 229.737411 
L 369.773336 230.99852 
L 370.370435 230.99852 
L 370.626711 228.476302 
L 370.711858 228.476302 
L 370.797454 227.215194 
L 370.968127 228.476302 
L 371.394738 228.476302 
L 371.650887 229.737411 
L 372.76046 229.737411 
L 372.931184 230.99852 
L 373.44333 230.99852 
L 373.614043 229.737411 
L 373.784754 230.99852 
L 376.77264 230.99852 
L 376.943311 229.737411 
L 377.199079 229.737411 
L 377.36979 230.99852 
L 378.564799 230.99852 
L 378.735522 232.259628 
L 379.076947 232.259628 
L 379.24766 230.99852 
L 379.418383 230.99852 
L 379.589789 232.259628 
L 380.186735 232.259628 
L 380.357478 230.99852 
L 381.552541 230.99852 
L 381.723283 232.259628 
L 381.893954 232.259628 
L 382.064695 230.99852 
L 382.406109 230.99852 
L 382.576853 229.737411 
L 383.003404 229.737411 
L 383.174124 228.476302 
L 383.601237 228.476302 
L 383.771773 229.737411 
L 384.198419 229.737411 
L 384.369827 230.99852 
L 384.625404 232.259628 
L 384.79609 232.259628 
L 385.22271 237.304062 
L 385.393422 237.304062 
L 385.564133 238.565171 
L 385.649591 238.565171 
L 385.820403 239.826279 
L 386.07676 239.826279 
L 386.417712 243.609605 
L 386.588425 243.609605 
L 386.844718 246.131822 
L 387.100583 246.131822 
L 387.271294 247.39293 
L 389.064168 247.39293 
L 389.149158 248.654039 
L 389.490585 248.654039 
L 389.576181 249.915147 
L 389.661307 248.654039 
L 389.832026 249.915147 
L 389.91767 248.654039 
L 390.088275 249.915147 
L 391.624902 249.915147 
L 391.795571 248.654039 
L 394.100576 248.654039 
L 394.270616 249.915147 
L 394.441335 248.654039 
L 394.953469 248.654039 
L 395.2098 247.39293 
L 395.380548 247.39293 
L 395.551286 246.131822 
L 397.002067 246.131822 
L 397.173438 244.870713 
L 397.855652 244.870713 
L 398.026363 243.609605 
L 398.453351 243.609605 
L 398.624167 244.870713 
L 398.794835 244.870713 
L 398.879939 243.609605 
L 399.989898 243.609605 
L 400.160569 242.348496 
L 400.331314 242.348496 
L 400.502124 241.087388 
L 400.58781 241.087388 
L 400.757828 239.826279 
L 402.123546 239.826279 
L 402.379799 238.565171 
L 403.489267 238.565171 
L 403.660553 237.304062 
L 403.916063 237.304062 
L 404.087023 236.042954 
L 405.623423 236.042954 
L 405.794105 237.304062 
L 406.562163 237.304062 
L 406.732879 236.042954 
L 407.074991 236.042954 
L 407.245025 234.781845 
L 407.415736 234.781845 
L 407.586453 233.520737 
L 408.269318 233.520737 
L 408.440036 232.259628 
L 408.525714 232.259628 
L 408.867055 230.99852 
L 409.122908 230.99852 
L 409.293628 229.737411 
L 409.549965 229.737411 
L 409.720638 228.476302 
L 409.89131 228.476302 
L 410.062132 227.215194 
L 410.147193 228.476302 
L 410.403321 228.476302 
L 410.57428 229.737411 
L 410.659357 229.737411 
L 410.830061 230.99852 
L 411.000776 230.99852 
L 411.171487 232.259628 
L 411.342211 232.259628 
L 411.512924 233.520737 
L 412.025071 233.520737 
L 412.195786 234.781845 
L 412.451964 232.259628 
L 412.537218 232.259628 
L 412.707934 230.99852 
L 412.793522 230.99852 
L 412.964124 229.737411 
L 413.049366 229.737411 
L 413.305814 227.215194 
L 413.390793 227.215194 
L 413.646948 229.737411 
L 413.988509 233.520737 
L 414.073659 233.520737 
L 414.33006 236.042954 
L 414.415083 236.042954 
L 414.585814 237.304062 
L 415.098647 237.304062 
L 415.354302 238.565171 
L 415.866466 238.565171 
L 416.549234 247.39293 
L 416.805804 247.39293 
L 416.975817 248.654039 
L 417.232067 248.654039 
L 417.317246 249.915147 
L 417.48796 248.654039 
L 417.573554 248.654039 
L 417.744306 247.39293 
L 418.000109 249.915147 
L 418.085643 249.915147 
L 418.256382 251.176256 
L 418.342214 251.176256 
L 418.5978 252.437365 
L 419.365814 252.437365 
L 419.536525 251.176256 
L 419.792926 251.176256 
L 419.877961 252.437365 
L 420.048656 252.437365 
L 420.305084 257.481799 
L 420.987853 257.481799 
L 421.158596 254.959582 
L 421.414389 254.959582 
L 421.670469 257.481799 
L 421.926521 257.481799 
L 422.097242 258.742907 
L 422.695068 258.742907 
L 422.780096 257.481799 
L 422.950804 258.742907 
L 423.036353 258.742907 
L 423.122034 261.265124 
L 423.890064 261.265124 
L 423.975088 263.787341 
L 424.145801 261.265124 
L 425.426201 261.265124 
L 425.597215 263.787341 
L 430.889272 263.787341 
L 431.059946 261.265124 
L 432.340059 261.265124 
L 432.596417 263.787341 
L 434.730035 263.787341 
L 434.90076 265.04845 
L 434.986327 265.04845 
L 435.157001 263.787341 
L 438.742236 263.787341 
L 438.912842 261.265124 
L 439.083581 261.265124 
L 439.168584 263.787341 
L 439.424854 261.265124 
L 439.595675 261.265124 
L 439.766345 263.787341 
L 439.937088 261.265124 
L 440.363593 261.265124 
L 440.619854 258.742907 
L 441.38787 258.742907 
L 441.558583 261.265124 
L 441.900013 261.265124 
L 442.071201 258.742907 
L 442.241434 258.742907 
L 442.753581 252.437365 
L 443.60715 252.437365 
L 443.948581 257.481799 
L 444.204749 257.481799 
L 444.375574 254.959582 
L 444.631432 254.959582 
L 444.802145 257.481799 
L 444.972857 258.742907 
L 445.229219 258.742907 
L 445.399827 261.265124 
L 445.57057 258.742907 
L 445.656256 258.742907 
L 445.997132 254.959582 
L 446.338561 254.959582 
L 446.509279 258.742907 
L 446.59482 258.742907 
L 446.765628 257.481799 
L 447.192131 257.481799 
L 447.448384 254.959582 
L 447.53393 254.959582 
L 447.704276 257.481799 
L 447.874985 254.959582 
L 448.64352 254.959582 
L 448.728559 252.437365 
L 453.167125 252.437365 
L 453.337834 251.176256 
L 454.447663 251.176256 
L 454.618472 249.915147 
L 455.2157 249.915147 
L 455.471903 248.654039 
L 455.98414 248.654039 
L 456.154881 247.39293 
L 456.581424 247.39293 
L 456.837709 246.131822 
L 458.459284 246.131822 
L 458.715462 244.870713 
L 459.227687 244.870713 
L 459.312864 243.609605 
L 459.48357 244.870713 
L 459.825004 244.870713 
L 460.081259 243.609605 
L 460.167219 243.609605 
L 460.251785 244.870713 
L 460.337153 243.609605 
L 460.507868 244.870713 
L 463.666429 244.870713 
L 463.83717 246.131822 
L 464.947093 246.131822 
L 465.202749 247.39293 
L 466.91004 247.39293 
L 467.08064 248.654039 
L 467.507172 248.654039 
L 467.592727 247.39293 
L 467.763541 248.654039 
L 467.848605 248.654039 
L 467.934214 247.39293 
L 468.190571 248.654039 
L 468.360755 248.654039 
L 468.531472 249.915147 
L 468.78786 249.915147 
L 468.872892 248.654039 
L 468.95853 249.915147 
L 469.12928 248.654039 
L 469.299881 249.915147 
L 469.470759 248.654039 
L 469.72647 248.654039 
L 469.982639 249.915147 
L 470.067902 248.654039 
L 470.23862 249.915147 
L 472.714243 249.915147 
L 472.799351 251.176256 
L 478.177147 251.176256 
L 478.262239 249.915147 
L 480.737898 249.915147 
L 480.908643 248.654039 
L 481.249777 249.915147 
L 481.762219 249.915147 
L 481.932962 248.654039 
L 482.103638 248.654039 
L 482.274252 247.39293 
L 482.871568 247.39293 
L 483.127884 246.131822 
L 483.64004 246.131822 
L 483.810852 244.870713 
L 484.40856 244.870713 
L 484.578714 246.131822 
L 487.395752 246.131822 
L 487.993028 243.609605 
L 488.249256 243.609605 
L 488.334462 242.348496 
L 488.847139 242.348496 
L 489.017324 243.609605 
L 490.553763 243.609605 
L 490.639396 242.348496 
L 491.236622 244.870713 
L 491.492997 244.870713 
L 491.578059 246.131822 
L 493.2 246.131822 
L 493.2 246.131822 
" clip-path="url(#pff3b048377)" style="fill: none; stroke: #ff7f0e; stroke-width: 1.5; stroke-linecap: square"/>
   </g>
   <g id="patch_8">
    <path d="M 51.05 302.881706 
L 51.05 176.770853 
" style="fill: none; stroke: #000000; stroke-width: 0.8; stroke-linejoin: miter; stroke-linecap: square"/>
   </g>
   <g id="patch_9">
    <path d="M 493.2 302.881706 
L 493.2 176.770853 
" style="fill: none; stroke: #000000; stroke-width: 0.8; stroke-linejoin: miter; stroke-linecap: square"/>
   </g>
   <g id="patch_10">
    <path d="M 51.05 302.881706 
L 493.2 302.881706 
" style="fill: none; stroke: #000000; stroke-width: 0.8; stroke-linejoin: miter; stroke-linecap: square"/>
   </g>
   <g id="patch_11">
    <path d="M 51.05 176.770853 
L 493.2 176.770853 
" style="fill: none; stroke: #000000; stroke-width: 0.8; stroke-linejoin: miter; stroke-linecap: square"/>
   </g>
  </g>
  <g id="axes_3">
   <g id="patch_12">
    <path d="M 51.05 447.252558 
L 493.2 447.252558 
L 493.2 321.141706 
L 51.05 321.141706 
z
" style="fill: #ffffff"/>
   </g>
   <g id="matplotlib.axis_5">
    <g id="xtick_11">
     <g id="line2d_45">
      <path d="M 127.826415 447.252558 
L 127.826415 321.141706 
" clip-path="url(#pcf845f9ea5)" style="fill: none; stroke: #b0b0b0; stroke-width: 0.8; stroke-linecap: square"/>
     </g>
     <g id="line2d_46">
      <g>
       <use xlink:href="#m578db00e56" x="127.826415" y="447.252558" style="stroke: #000000; stroke-width: 0.8"/>
      </g>
     </g>
     <g id="text_14">
      <!-- 12-01 12 -->
      <g transform="translate(113.881495 491.417649) rotate(-45) scale(0.1 -0.1)">
       <defs>
        <path id="DejaVuSans-2d" d="M 313 2009 
L 1997 2009 
L 1997 1497 
L 313 1497 
L 313 2009 
z
" transform="scale(0.015625)"/>
       </defs>
       <use xlink:href="#DejaVuSans-31"/>
       <use xlink:href="#DejaVuSans-32" x="63.623047"/>
       <use xlink:href="#DejaVuSans-2d" x="127.246094"/>
       <use xlink:href="#DejaVuSans-30" x="163.330078"/>
       <use xlink:href="#DejaVuSans-31" x="226.953125"/>
       <use xlink:href="#DejaVuSans-20" x="290.576172"/>
       <use xlink:href="#DejaVuSans-31" x="322.363281"/>
       <use xlink:href="#DejaVuSans-32" x="385.986328"/>
      </g>
     </g>
    </g>
    <g id="xtick_12">
     <g id="line2d_47">
      <path d="M 204.648157 447.252558 
L 204.648157 321.141706 
" clip-path="url(#pcf845f9ea5)" style="fill: none; stroke: #b0b0b0; stroke-width: 0.8; stroke-linecap: square"/>
     </g>
     <g id="line2d_48">
      <g>
       <use xlink:href="#m578db00e56" x="204.648157" y="447.252558" style="stroke: #000000; stroke-width: 0.8"/>
      </g>
     </g>
     <g id="text_15">
      <!-- 12-02 00 -->
      <g transform="translate(190.703238 491.417649) rotate(-45) scale(0.1 -0.1)">
       <use xlink:href="#DejaVuSans-31"/>
       <use xlink:href="#DejaVuSans-32" x="63.623047"/>
       <use xlink:href="#DejaVuSans-2d" x="127.246094"/>
       <use xlink:href="#DejaVuSans-30" x="163.330078"/>
       <use xlink:href="#DejaVuSans-32" x="226.953125"/>
       <use xlink:href="#DejaVuSans-20" x="290.576172"/>
       <use xlink:href="#DejaVuSans-30" x="322.363281"/>
       <use xlink:href="#DejaVuSans-30" x="385.986328"/>
      </g>
     </g>
    </g>
    <g id="xtick_13">
     <g id="line2d_49">
      <path d="M 281.469899 447.252558 
L 281.469899 321.141706 
" clip-path="url(#pcf845f9ea5)" style="fill: none; stroke: #b0b0b0; stroke-width: 0.8; stroke-linecap: square"/>
     </g>
     <g id="line2d_50">
      <g>
       <use xlink:href="#m578db00e56" x="281.469899" y="447.252558" style="stroke: #000000; stroke-width: 0.8"/>
      </g>
     </g>
     <g id="text_16">
      <!-- 12-02 12 -->
      <g transform="translate(267.52498 491.417649) rotate(-45) scale(0.1 -0.1)">
       <use xlink:href="#DejaVuSans-31"/>
       <use xlink:href="#DejaVuSans-32" x="63.623047"/>
       <use xlink:href="#DejaVuSans-2d" x="127.246094"/>
       <use xlink:href="#DejaVuSans-30" x="163.330078"/>
       <use xlink:href="#DejaVuSans-32" x="226.953125"/>
       <use xlink:href="#DejaVuSans-20" x="290.576172"/>
       <use xlink:href="#DejaVuSans-31" x="322.363281"/>
       <use xlink:href="#DejaVuSans-32" x="385.986328"/>
      </g>
     </g>
    </g>
    <g id="xtick_14">
     <g id="line2d_51">
      <path d="M 358.291641 447.252558 
L 358.291641 321.141706 
" clip-path="url(#pcf845f9ea5)" style="fill: none; stroke: #b0b0b0; stroke-width: 0.8; stroke-linecap: square"/>
     </g>
     <g id="line2d_52">
      <g>
       <use xlink:href="#m578db00e56" x="358.291641" y="447.252558" style="stroke: #000000; stroke-width: 0.8"/>
      </g>
     </g>
     <g id="text_17">
      <!-- 12-03 00 -->
      <g transform="translate(344.346722 491.417649) rotate(-45) scale(0.1 -0.1)">
       <defs>
        <path id="DejaVuSans-33" d="M 2597 2516 
Q 3050 2419 3304 2112 
Q 3559 1806 3559 1356 
Q 3559 666 3084 287 
Q 2609 -91 1734 -91 
Q 1441 -91 1130 -33 
Q 819 25 488 141 
L 488 750 
Q 750 597 1062 519 
Q 1375 441 1716 441 
Q 2309 441 2620 675 
Q 2931 909 2931 1356 
Q 2931 1769 2642 2001 
Q 2353 2234 1838 2234 
L 1294 2234 
L 1294 2753 
L 1863 2753 
Q 2328 2753 2575 2939 
Q 2822 3125 2822 3475 
Q 2822 3834 2567 4026 
Q 2313 4219 1838 4219 
Q 1578 4219 1281 4162 
Q 984 4106 628 3988 
L 628 4550 
Q 988 4650 1302 4700 
Q 1616 4750 1894 4750 
Q 2613 4750 3031 4423 
Q 3450 4097 3450 3541 
Q 3450 3153 3228 2886 
Q 3006 2619 2597 2516 
z
" transform="scale(0.015625)"/>
       </defs>
       <use xlink:href="#DejaVuSans-31"/>
       <use xlink:href="#DejaVuSans-32" x="63.623047"/>
       <use xlink:href="#DejaVuSans-2d" x="127.246094"/>
       <use xlink:href="#DejaVuSans-30" x="163.330078"/>
       <use xlink:href="#DejaVuSans-33" x="226.953125"/>
       <use xlink:href="#DejaVuSans-20" x="290.576172"/>
       <use xlink:href="#DejaVuSans-30" x="322.363281"/>
       <use xlink:href="#DejaVuSans-30" x="385.986328"/>
      </g>
     </g>
    </g>
    <g id="xtick_15">
     <g id="line2d_53">
      <path d="M 435.113383 447.252558 
L 435.113383 321.141706 
" clip-path="url(#pcf845f9ea5)" style="fill: none; stroke: #b0b0b0; stroke-width: 0.8; stroke-linecap: square"/>
     </g>
     <g id="line2d_54">
      <g>
       <use xlink:href="#m578db00e56" x="435.113383" y="447.252558" style="stroke: #000000; stroke-width: 0.8"/>
      </g>
     </g>
     <g id="text_18">
      <!-- 12-03 12 -->
      <g transform="translate(421.168464 491.417649) rotate(-45) scale(0.1 -0.1)">
       <use xlink:href="#DejaVuSans-31"/>
       <use xlink:href="#DejaVuSans-32" x="63.623047"/>
       <use xlink:href="#DejaVuSans-2d" x="127.246094"/>
       <use xlink:href="#DejaVuSans-30" x="163.330078"/>
       <use xlink:href="#DejaVuSans-33" x="226.953125"/>
       <use xlink:href="#DejaVuSans-20" x="290.576172"/>
       <use xlink:href="#DejaVuSans-31" x="322.363281"/>
       <use xlink:href="#DejaVuSans-32" x="385.986328"/>
      </g>
     </g>
    </g>
   </g>
   <g id="matplotlib.axis_6">
    <g id="ytick_12">
     <g id="line2d_55">
      <path d="M 51.05 426.065486 
L 493.2 426.065486 
" clip-path="url(#pcf845f9ea5)" style="fill: none; stroke: #b0b0b0; stroke-width: 0.8; stroke-linecap: square"/>
     </g>
     <g id="line2d_56">
      <g>
       <use xlink:href="#m8ca489a5be" x="51.05" y="426.065486" style="stroke: #000000; stroke-width: 0.8"/>
      </g>
     </g>
     <g id="text_19">
      <!-- 430 -->
      <g transform="translate(24.9625 429.864704) scale(0.1 -0.1)">
       <use xlink:href="#DejaVuSans-34"/>
       <use xlink:href="#DejaVuSans-33" x="63.623047"/>
       <use xlink:href="#DejaVuSans-30" x="127.246094"/>
      </g>
     </g>
    </g>
    <g id="ytick_13">
     <g id="line2d_57">
      <path d="M 51.05 397.965919 
L 493.2 397.965919 
" clip-path="url(#pcf845f9ea5)" style="fill: none; stroke: #b0b0b0; stroke-width: 0.8; stroke-linecap: square"/>
     </g>
     <g id="line2d_58">
      <g>
       <use xlink:href="#m8ca489a5be" x="51.05" y="397.965919" style="stroke: #000000; stroke-width: 0.8"/>
      </g>
     </g>
     <g id="text_20">
      <!-- 440 -->
      <g transform="translate(24.9625 401.765138) scale(0.1 -0.1)">
       <use xlink:href="#DejaVuSans-34"/>
       <use xlink:href="#DejaVuSans-34" x="63.623047"/>
       <use xlink:href="#DejaVuSans-30" x="127.246094"/>
      </g>
     </g>
    </g>
    <g id="ytick_14">
     <g id="line2d_59">
      <path d="M 51.05 369.866353 
L 493.2 369.866353 
" clip-path="url(#pcf845f9ea5)" style="fill: none; stroke: #b0b0b0; stroke-width: 0.8; stroke-linecap: square"/>
     </g>
     <g id="line2d_60">
      <g>
       <use xlink:href="#m8ca489a5be" x="51.05" y="369.866353" style="stroke: #000000; stroke-width: 0.8"/>
      </g>
     </g>
     <g id="text_21">
      <!-- 450 -->
      <g transform="translate(24.9625 373.665572) scale(0.1 -0.1)">
       <use xlink:href="#DejaVuSans-34"/>
       <use xlink:href="#DejaVuSans-35" x="63.623047"/>
       <use xlink:href="#DejaVuSans-30" x="127.246094"/>
      </g>
     </g>
    </g>
    <g id="ytick_15">
     <g id="line2d_61">
      <path d="M 51.05 341.766787 
L 493.2 341.766787 
" clip-path="url(#pcf845f9ea5)" style="fill: none; stroke: #b0b0b0; stroke-width: 0.8; stroke-linecap: square"/>
     </g>
     <g id="line2d_62">
      <g>
       <use xlink:href="#m8ca489a5be" x="51.05" y="341.766787" style="stroke: #000000; stroke-width: 0.8"/>
      </g>
     </g>
     <g id="text_22">
      <!-- 460 -->
      <g transform="translate(24.9625 345.566006) scale(0.1 -0.1)">
       <use xlink:href="#DejaVuSans-34"/>
       <use xlink:href="#DejaVuSans-36" x="63.623047"/>
       <use xlink:href="#DejaVuSans-30" x="127.246094"/>
      </g>
     </g>
    </g>
    <g id="text_23">
     <!-- Rain [mm] -->
     <g transform="translate(18.882813 410.411976) rotate(-90) scale(0.1 -0.1)">
      <defs>
       <path id="DejaVuSans-6e" d="M 3513 2113 
L 3513 0 
L 2938 0 
L 2938 2094 
Q 2938 2591 2744 2837 
Q 2550 3084 2163 3084 
Q 1697 3084 1428 2787 
Q 1159 2491 1159 1978 
L 1159 0 
L 581 0 
L 581 3500 
L 1159 3500 
L 1159 2956 
Q 1366 3272 1645 3428 
Q 1925 3584 2291 3584 
Q 2894 3584 3203 3211 
Q 3513 2838 3513 2113 
z
" transform="scale(0.015625)"/>
      </defs>
      <use xlink:href="#DejaVuSans-52"/>
      <use xlink:href="#DejaVuSans-61" x="67.232422"/>
      <use xlink:href="#DejaVuSans-69" x="128.511719"/>
      <use xlink:href="#DejaVuSans-6e" x="156.294922"/>
      <use xlink:href="#DejaVuSans-20" x="219.673828"/>
      <use xlink:href="#DejaVuSans-5b" x="251.460938"/>
      <use xlink:href="#DejaVuSans-6d" x="290.474609"/>
      <use xlink:href="#DejaVuSans-6d" x="387.886719"/>
      <use xlink:href="#DejaVuSans-5d" x="485.298828"/>
     </g>
    </g>
   </g>
   <g id="line2d_63">
    <path d="M 51.05 441.520247 
L 95.3501 441.520247 
L 95.52082 440.67726 
L 97.484312 440.67726 
L 97.654916 439.834273 
L 99.191395 439.834273 
L 99.362138 438.991286 
L 100.727802 438.991286 
L 100.898476 438.148299 
L 103.117637 438.148299 
L 103.288665 437.305312 
L 112.592866 437.305312 
L 112.848519 436.462325 
L 125.395769 436.462325 
L 125.651954 435.619338 
L 134.955743 435.619338 
L 135.041354 434.776351 
L 136.662888 434.776351 
L 136.919102 433.933364 
L 144.601357 433.933364 
L 144.686441 433.090377 
L 148.954286 433.090377 
L 149.124997 432.24739 
L 152.881397 432.24739 
L 152.96616 431.404403 
L 156.636406 431.404403 
L 156.807655 430.561416 
L 159.026397 430.561416 
L 159.19771 429.718429 
L 160.904784 429.718429 
L 161.074954 428.875442 
L 162.441268 428.875442 
L 162.782081 428.032455 
L 163.806369 428.032455 
L 163.977087 427.189468 
L 164.489228 427.189468 
L 164.659937 426.346481 
L 165.513504 426.346481 
L 165.68489 425.503494 
L 166.623316 425.503494 
L 166.793986 424.660507 
L 167.647557 424.660507 
L 167.818301 423.81752 
L 168.41564 423.81752 
L 168.586354 422.974533 
L 169.35477 422.974533 
L 169.525512 422.131546 
L 170.208343 422.131546 
L 170.379023 421.288559 
L 171.317764 421.288559 
L 171.488481 420.445572 
L 172.598336 420.445572 
L 172.769011 419.602585 
L 173.366325 419.602585 
L 173.53705 418.759598 
L 173.878479 418.759598 
L 174.049183 417.916611 
L 174.390602 417.916611 
L 174.561325 417.073624 
L 174.902751 417.073624 
L 175.073469 416.230637 
L 175.50047 416.230637 
L 175.671225 415.38765 
L 176.012638 415.38765 
L 176.183383 414.544664 
L 176.439175 414.544664 
L 176.609886 413.701677 
L 176.952106 413.701677 
L 177.122034 412.85869 
L 177.463445 412.85869 
L 177.63417 412.015703 
L 178.146302 412.015703 
L 178.317015 411.172716 
L 178.829161 411.172716 
L 178.999874 410.329729 
L 179.256129 410.329729 
L 179.426873 409.486742 
L 179.682726 409.486742 
L 179.853437 408.643755 
L 180.024153 408.643755 
L 180.280364 407.800768 
L 180.621866 407.800768 
L 180.792533 406.957781 
L 181.30462 406.957781 
L 181.475364 406.114794 
L 181.987723 406.114794 
L 182.158268 405.271807 
L 182.92628 405.271807 
L 183.096994 404.42882 
L 183.694602 404.42882 
L 183.865416 403.585833 
L 184.29199 403.585833 
L 184.462703 402.742846 
L 185.060249 402.742846 
L 185.231144 401.899859 
L 185.913907 401.899859 
L 186.084648 401.056872 
L 186.681965 401.056872 
L 186.852681 400.213885 
L 187.194119 400.213885 
L 187.364826 399.370898 
L 187.706246 399.370898 
L 187.876955 398.527911 
L 188.218958 398.527911 
L 188.389095 397.684924 
L 188.73052 397.684924 
L 188.901236 396.841937 
L 189.242673 396.841937 
L 189.413381 395.99895 
L 189.840132 395.99895 
L 190.011032 395.155963 
L 190.352726 395.155963 
L 190.523191 394.312976 
L 190.949797 394.312976 
L 191.120519 393.469989 
L 191.547491 393.469989 
L 191.71825 392.627002 
L 191.974085 392.627002 
L 192.144798 391.784015 
L 192.401017 391.784015 
L 192.571758 390.941028 
L 192.827654 390.941028 
L 193.083763 390.098041 
L 193.425332 390.098041 
L 193.596077 389.255054 
L 193.766749 389.255054 
L 193.937698 388.412067 
L 194.278911 388.412067 
L 194.449654 387.56908 
L 194.791071 387.56908 
L 194.961746 386.726093 
L 195.388357 386.726093 
L 195.559073 385.883106 
L 195.9005 385.883106 
L 196.071205 385.040119 
L 196.498223 385.040119 
L 196.668892 384.197132 
L 197.010376 384.197132 
L 197.181049 383.354145 
L 197.607632 383.354145 
L 197.778881 382.511158 
L 198.290481 382.511158 
L 198.461195 381.668171 
L 198.888207 381.668171 
L 199.05894 380.825184 
L 199.48547 380.825184 
L 199.656194 379.982197 
L 200.339046 379.982197 
L 200.509761 379.13921 
L 200.85119 379.13921 
L 201.107287 378.296223 
L 201.534045 378.296223 
L 201.704754 377.453236 
L 202.216897 377.453236 
L 202.387616 376.610249 
L 202.985337 376.610249 
L 203.156016 375.767262 
L 203.497429 375.767262 
L 203.668175 374.924275 
L 204.09475 374.924275 
L 204.350921 374.081288 
L 205.119017 374.081288 
L 205.375331 373.238301 
L 205.716746 373.238301 
L 205.887191 372.395314 
L 206.314021 372.395314 
L 206.484732 371.552327 
L 206.996867 371.552327 
L 207.16758 370.70934 
L 207.59455 370.70934 
L 207.765241 369.866353 
L 208.448067 369.866353 
L 208.618879 369.023366 
L 209.216141 369.023366 
L 209.38685 368.180379 
L 210.15528 368.180379 
L 210.325956 367.337392 
L 211.008857 367.337392 
L 211.17953 366.494405 
L 211.862433 366.494405 
L 212.033038 365.651418 
L 212.801128 365.651418 
L 212.971844 364.808431 
L 213.313271 364.808431 
L 213.48398 363.965444 
L 214.081608 363.965444 
L 214.252419 363.122457 
L 214.849692 363.122457 
L 215.020403 362.27947 
L 215.873968 362.27947 
L 216.044685 361.436484 
L 216.642532 361.436484 
L 216.812993 360.593497 
L 217.4104 360.593497 
L 217.581116 359.75051 
L 218.434692 359.75051 
L 218.606122 358.907523 
L 219.288265 358.907523 
L 219.45898 358.064536 
L 220.141832 358.064536 
L 220.397967 357.221549 
L 221.081097 357.221549 
L 221.251696 356.378562 
L 221.849534 356.378562 
L 222.105199 355.535575 
L 222.788306 355.535575 
L 222.95877 354.692588 
L 223.385382 354.692588 
L 223.726817 353.849601 
L 224.153842 353.849601 
L 224.32451 353.006614 
L 224.495183 353.006614 
L 224.665999 352.163627 
L 224.921792 352.163627 
L 225.093029 351.32064 
L 225.177864 351.32064 
L 225.348828 350.477653 
L 225.690172 350.477653 
L 225.86091 349.634666 
L 226.031581 349.634666 
L 226.202328 348.791679 
L 226.373069 348.791679 
L 226.543741 347.948692 
L 226.628952 347.948692 
L 226.885159 347.105705 
L 227.056039 347.105705 
L 227.226417 346.262718 
L 227.397385 346.262718 
L 227.5682 345.419731 
L 227.738941 345.419731 
L 227.909613 344.576744 
L 228.080284 344.576744 
L 228.165371 343.733757 
L 228.506808 343.733757 
L 228.677525 342.89077 
L 228.933856 342.89077 
L 229.104457 342.047783 
L 229.787495 342.047783 
L 229.873117 341.204796 
L 230.641061 341.204796 
L 230.811674 340.361809 
L 231.408938 340.361809 
L 231.66509 339.518822 
L 232.262518 339.518822 
L 232.43323 338.675835 
L 233.030967 338.675835 
L 233.116792 337.832848 
L 233.798942 337.832848 
L 233.969658 336.989861 
L 234.652517 336.989861 
L 234.908709 336.146874 
L 235.335363 336.146874 
L 235.506078 335.303887 
L 236.274594 335.303887 
L 236.444974 334.4609 
L 237.725366 334.4609 
L 237.896078 333.617913 
L 241.310354 333.617913 
L 241.48107 332.774926 
L 243.4446 332.774926 
L 243.615276 331.931939 
L 244.383931 331.931939 
L 244.63952 331.088952 
L 245.15175 331.088952 
L 245.322497 330.245965 
L 245.91963 330.245965 
L 246.175851 329.402978 
L 247.627423 329.402978 
L 247.79749 328.559991 
L 249.333916 328.559991 
L 249.504625 327.717004 
L 254.199373 327.717004 
L 254.370269 326.874017 
L 493.2 326.874017 
L 493.2 326.874017 
" clip-path="url(#pcf845f9ea5)" style="fill: none; stroke: #9467bd; stroke-width: 1.5; stroke-linecap: square"/>
   </g>
   <g id="patch_13">
    <path d="M 51.05 447.252558 
L 51.05 321.141706 
" style="fill: none; stroke: #000000; stroke-width: 0.8; stroke-linejoin: miter; stroke-linecap: square"/>
   </g>
   <g id="patch_14">
    <path d="M 493.2 447.252558 
L 493.2 321.141706 
" style="fill: none; stroke: #000000; stroke-width: 0.8; stroke-linejoin: miter; stroke-linecap: square"/>
   </g>
   <g id="patch_15">
    <path d="M 51.05 447.252558 
L 493.2 447.252558 
" style="fill: none; stroke: #000000; stroke-width: 0.8; stroke-linejoin: miter; stroke-linecap: square"/>
   </g>
   <g id="patch_16">
    <path d="M 51.05 321.141706 
L 493.2 321.141706 
" style="fill: none; stroke: #000000; stroke-width: 0.8; stroke-linejoin: miter; stroke-linecap: square"/>
   </g>
  </g>
  <g id="text_24">
   <!-- Weather data - December 2023 -->
   <g transform="translate(157.04625 19.198125) scale(0.12 -0.12)">
    <defs>
     <path id="DejaVuSans-57" d="M 213 4666 
L 850 4666 
L 1831 722 
L 2809 4666 
L 3519 4666 
L 4500 722 
L 5478 4666 
L 6119 4666 
L 4947 0 
L 4153 0 
L 3169 4050 
L 2175 0 
L 1381 0 
L 213 4666 
z
" transform="scale(0.015625)"/>
     <path id="DejaVuSans-68" d="M 3513 2113 
L 3513 0 
L 2938 0 
L 2938 2094 
Q 2938 2591 2744 2837 
Q 2550 3084 2163 3084 
Q 1697 3084 1428 2787 
Q 1159 2491 1159 1978 
L 1159 0 
L 581 0 
L 581 4863 
L 1159 4863 
L 1159 2956 
Q 1366 3272 1645 3428 
Q 1925 3584 2291 3584 
Q 2894 3584 3203 3211 
Q 3513 2838 3513 2113 
z
" transform="scale(0.015625)"/>
     <path id="DejaVuSans-44" d="M 1259 4147 
L 1259 519 
L 2022 519 
Q 2988 519 3436 956 
Q 3884 1394 3884 2338 
Q 3884 3275 3436 3711 
Q 2988 4147 2022 4147 
L 1259 4147 
z
M 628 4666 
L 1925 4666 
Q 3281 4666 3915 4102 
Q 4550 3538 4550 2338 
Q 4550 1131 3912 565 
Q 3275 0 1925 0 
L 628 0 
L 628 4666 
z
" transform="scale(0.015625)"/>
     <path id="DejaVuSans-63" d="M 3122 3366 
L 3122 2828 
Q 2878 2963 2633 3030 
Q 2388 3097 2138 3097 
Q 1578 3097 1268 2742 
Q 959 2388 959 1747 
Q 959 1106 1268 751 
Q 1578 397 2138 397 
Q 2388 397 2633 464 
Q 2878 531 3122 666 
L 3122 134 
Q 2881 22 2623 -34 
Q 2366 -91 2075 -91 
Q 1284 -91 818 406 
Q 353 903 353 1747 
Q 353 2603 823 3093 
Q 1294 3584 2113 3584 
Q 2378 3584 2631 3529 
Q 2884 3475 3122 3366 
z
" transform="scale(0.015625)"/>
     <path id="DejaVuSans-62" d="M 3116 1747 
Q 3116 2381 2855 2742 
Q 2594 3103 2138 3103 
Q 1681 3103 1420 2742 
Q 1159 2381 1159 1747 
Q 1159 1113 1420 752 
Q 1681 391 2138 391 
Q 2594 391 2855 752 
Q 3116 1113 3116 1747 
z
M 1159 2969 
Q 1341 3281 1617 3432 
Q 1894 3584 2278 3584 
Q 2916 3584 3314 3078 
Q 3713 2572 3713 1747 
Q 3713 922 3314 415 
Q 2916 -91 2278 -91 
Q 1894 -91 1617 61 
Q 1341 213 1159 525 
L 1159 0 
L 581 0 
L 581 4863 
L 1159 4863 
L 1159 2969 
z
" transform="scale(0.015625)"/>
    </defs>
    <use xlink:href="#DejaVuSans-57"/>
    <use xlink:href="#DejaVuSans-65" x="93.001953"/>
    <use xlink:href="#DejaVuSans-61" x="154.525391"/>
    <use xlink:href="#DejaVuSans-74" x="215.804688"/>
    <use xlink:href="#DejaVuSans-68" x="255.013672"/>
    <use xlink:href="#DejaVuSans-65" x="318.392578"/>
    <use xlink:href="#DejaVuSans-72" x="379.916016"/>
    <use xlink:href="#DejaVuSans-20" x="421.029297"/>
    <use xlink:href="#DejaVuSans-64" x="452.816406"/>
    <use xlink:href="#DejaVuSans-61" x="516.292969"/>
    <use xlink:href="#DejaVuSans-74" x="577.572266"/>
    <use xlink:href="#DejaVuSans-61" x="616.78125"/>
    <use xlink:href="#DejaVuSans-20" x="678.060547"/>
    <use xlink:href="#DejaVuSans-2d" x="709.847656"/>
    <use xlink:href="#DejaVuSans-20" x="745.931641"/>
    <use xlink:href="#DejaVuSans-44" x="777.71875"/>
    <use xlink:href="#DejaVuSans-65" x="854.720703"/>
    <use xlink:href="#DejaVuSans-63" x="916.244141"/>
    <use xlink:href="#DejaVuSans-65" x="971.224609"/>
    <use xlink:href="#DejaVuSans-6d" x="1032.748047"/>
    <use xlink:href="#DejaVuSans-62" x="1130.160156"/>
    <use xlink:href="#DejaVuSans-65" x="1193.636719"/>
    <use xlink:href="#DejaVuSans-72" x="1255.160156"/>
    <use xlink:href="#DejaVuSans-20" x="1296.273438"/>
    <use xlink:href="#DejaVuSans-32" x="1328.060547"/>
    <use xlink:href="#DejaVuSans-30" x="1391.683594"/>
    <use xlink:href="#DejaVuSans-32" x="1455.306641"/>
    <use xlink:href="#DejaVuSans-33" x="1518.929688"/>
   </g>
  </g>
 </g>
 <defs>
  <clipPath id="p477e8a6905">
   <rect x="51.05" y="32.4" width="442.15" height="126.110853"/>
  </clipPath>
  <clipPath id="pff3b048377">
   <rect x="51.05" y="176.770853" width="442.15" height="126.110853"/>
  </clipPath>
  <clipPath id="pcf845f9ea5">
   <rect x="51.05" y="321.141706" width="442.15" height="126.110853"/>
  </clipPath>
 </defs>
</svg>
