<?xml version="1.0" encoding="utf-8" standalone="no"?>
<!DOCTYPE svg PUBLIC "-//W3C//DTD SVG 1.1//EN"
  "http://www.w3.org/Graphics/SVG/1.1/DTD/svg11.dtd">
<svg xmlns:xlink="http://www.w3.org/1999/xlink" width="460.8pt" height="345.6pt" viewBox="0 0 460.8 345.6" xmlns="http://www.w3.org/2000/svg" version="1.1">
 <metadata>
  <rdf:RDF xmlns:dc="http://purl.org/dc/elements/1.1/" xmlns:cc="http://creativecommons.org/ns#" xmlns:rdf="http://www.w3.org/1999/02/22-rdf-syntax-ns#">
   <cc:Work>
    <dc:type rdf:resource="http://purl.org/dc/dcmitype/StillImage"/>
    <dc:date>2023-11-07T03:28:48.432629</dc:date>
    <dc:format>image/svg+xml</dc:format>
    <dc:creator>
     <cc:Agent>
      <dc:title>Matplotlib v3.6.3, https://matplotlib.org/</dc:title>
     </cc:Agent>
    </dc:creator>
   </cc:Work>
  </rdf:RDF>
 </metadata>
 <defs>
  <style type="text/css">*{stroke-linejoin: round; stroke-linecap: butt}</style>
 </defs>
 <g id="figure_1">
  <g id="patch_1">
   <path d="M 0 345.6 
L 460.8 345.6 
L 460.8 0 
L 0 0 
z
" style="fill: #ffffff"/>
  </g>
  <g id="axes_1">
   <g id="patch_2">
    <path d="M 51.05 279.561175 
L 450 279.561175 
L 450 25.44 
L 51.05 25.44 
z
" style="fill: #ffffff"/>
   </g>
   <g id="matplotlib.axis_1">
    <g id="xtick_1">
     <g id="line2d_1">
      <path d="M 115.95046 279.561175 
L 115.95046 25.44 
" clip-path="url(#pdfa11593a7)" style="fill: none; stroke: #b0b0b0; stroke-width: 0.8; stroke-linecap: square"/>
     </g>
     <g id="line2d_2">
      <defs>
       <path id="mc798e24036" d="M 0 0 
L 0 3.5 
" style="stroke: #000000; stroke-width: 0.8"/>
      </defs>
      <g>
       <use xlink:href="#mc798e24036" x="115.95046" y="279.561175" style="stroke: #000000; stroke-width: 0.8"/>
      </g>
     </g>
     <g id="text_1">
      <!-- 2023-11-02 -->
      <g transform="translate(73.385946 333.028035) rotate(-45) scale(0.1 -0.1)">
       <defs>
        <path id="DejaVuSans-32" d="M 1228 531 
L 3431 531 
L 3431 0 
L 469 0 
L 469 531 
Q 828 903 1448 1529 
Q 2069 2156 2228 2338 
Q 2531 2678 2651 2914 
Q 2772 3150 2772 3378 
Q 2772 3750 2511 3984 
Q 2250 4219 1831 4219 
Q 1534 4219 1204 4116 
Q 875 4013 500 3803 
L 500 4441 
Q 881 4594 1212 4672 
Q 1544 4750 1819 4750 
Q 2544 4750 2975 4387 
Q 3406 4025 3406 3419 
Q 3406 3131 3298 2873 
Q 3191 2616 2906 2266 
Q 2828 2175 2409 1742 
Q 1991 1309 1228 531 
z
" transform="scale(0.015625)"/>
        <path id="DejaVuSans-30" d="M 2034 4250 
Q 1547 4250 1301 3770 
Q 1056 3291 1056 2328 
Q 1056 1369 1301 889 
Q 1547 409 2034 409 
Q 2525 409 2770 889 
Q 3016 1369 3016 2328 
Q 3016 3291 2770 3770 
Q 2525 4250 2034 4250 
z
M 2034 4750 
Q 2819 4750 3233 4129 
Q 3647 3509 3647 2328 
Q 3647 1150 3233 529 
Q 2819 -91 2034 -91 
Q 1250 -91 836 529 
Q 422 1150 422 2328 
Q 422 3509 836 4129 
Q 1250 4750 2034 4750 
z
" transform="scale(0.015625)"/>
        <path id="DejaVuSans-33" d="M 2597 2516 
Q 3050 2419 3304 2112 
Q 3559 1806 3559 1356 
Q 3559 666 3084 287 
Q 2609 -91 1734 -91 
Q 1441 -91 1130 -33 
Q 819 25 488 141 
L 488 750 
Q 750 597 1062 519 
Q 1375 441 1716 441 
Q 2309 441 2620 675 
Q 2931 909 2931 1356 
Q 2931 1769 2642 2001 
Q 2353 2234 1838 2234 
L 1294 2234 
L 1294 2753 
L 1863 2753 
Q 2328 2753 2575 2939 
Q 2822 3125 2822 3475 
Q 2822 3834 2567 4026 
Q 2313 4219 1838 4219 
Q 1578 4219 1281 4162 
Q 984 4106 628 3988 
L 628 4550 
Q 988 4650 1302 4700 
Q 1616 4750 1894 4750 
Q 2613 4750 3031 4423 
Q 3450 4097 3450 3541 
Q 3450 3153 3228 2886 
Q 3006 2619 2597 2516 
z
" transform="scale(0.015625)"/>
        <path id="DejaVuSans-2d" d="M 313 2009 
L 1997 2009 
L 1997 1497 
L 313 1497 
L 313 2009 
z
" transform="scale(0.015625)"/>
        <path id="DejaVuSans-31" d="M 794 531 
L 1825 531 
L 1825 4091 
L 703 3866 
L 703 4441 
L 1819 4666 
L 2450 4666 
L 2450 531 
L 3481 531 
L 3481 0 
L 794 0 
L 794 531 
z
" transform="scale(0.015625)"/>
       </defs>
       <use xlink:href="#DejaVuSans-32"/>
       <use xlink:href="#DejaVuSans-30" x="63.623047"/>
       <use xlink:href="#DejaVuSans-32" x="127.246094"/>
       <use xlink:href="#DejaVuSans-33" x="190.869141"/>
       <use xlink:href="#DejaVuSans-2d" x="254.492188"/>
       <use xlink:href="#DejaVuSans-31" x="290.576172"/>
       <use xlink:href="#DejaVuSans-31" x="354.199219"/>
       <use xlink:href="#DejaVuSans-2d" x="417.822266"/>
       <use xlink:href="#DejaVuSans-30" x="453.90625"/>
       <use xlink:href="#DejaVuSans-32" x="517.529297"/>
      </g>
     </g>
    </g>
    <g id="xtick_2">
     <g id="line2d_3">
      <path d="M 180.885465 279.561175 
L 180.885465 25.44 
" clip-path="url(#pdfa11593a7)" style="fill: none; stroke: #b0b0b0; stroke-width: 0.8; stroke-linecap: square"/>
     </g>
     <g id="line2d_4">
      <g>
       <use xlink:href="#mc798e24036" x="180.885465" y="279.561175" style="stroke: #000000; stroke-width: 0.8"/>
      </g>
     </g>
     <g id="text_2">
      <!-- 2023-11-03 -->
      <g transform="translate(138.320951 333.028035) rotate(-45) scale(0.1 -0.1)">
       <use xlink:href="#DejaVuSans-32"/>
       <use xlink:href="#DejaVuSans-30" x="63.623047"/>
       <use xlink:href="#DejaVuSans-32" x="127.246094"/>
       <use xlink:href="#DejaVuSans-33" x="190.869141"/>
       <use xlink:href="#DejaVuSans-2d" x="254.492188"/>
       <use xlink:href="#DejaVuSans-31" x="290.576172"/>
       <use xlink:href="#DejaVuSans-31" x="354.199219"/>
       <use xlink:href="#DejaVuSans-2d" x="417.822266"/>
       <use xlink:href="#DejaVuSans-30" x="453.90625"/>
       <use xlink:href="#DejaVuSans-33" x="517.529297"/>
      </g>
     </g>
    </g>
    <g id="xtick_3">
     <g id="line2d_5">
      <path d="M 245.820471 279.561175 
L 245.820471 25.44 
" clip-path="url(#pdfa11593a7)" style="fill: none; stroke: #b0b0b0; stroke-width: 0.8; stroke-linecap: square"/>
     </g>
     <g id="line2d_6">
      <g>
       <use xlink:href="#mc798e24036" x="245.820471" y="279.561175" style="stroke: #000000; stroke-width: 0.8"/>
      </g>
     </g>
     <g id="text_3">
      <!-- 2023-11-04 -->
      <g transform="translate(203.255957 333.028035) rotate(-45) scale(0.1 -0.1)">
       <defs>
        <path id="DejaVuSans-34" d="M 2419 4116 
L 825 1625 
L 2419 1625 
L 2419 4116 
z
M 2253 4666 
L 3047 4666 
L 3047 1625 
L 3713 1625 
L 3713 1100 
L 3047 1100 
L 3047 0 
L 2419 0 
L 2419 1100 
L 313 1100 
L 313 1709 
L 2253 4666 
z
" transform="scale(0.015625)"/>
       </defs>
       <use xlink:href="#DejaVuSans-32"/>
       <use xlink:href="#DejaVuSans-30" x="63.623047"/>
       <use xlink:href="#DejaVuSans-32" x="127.246094"/>
       <use xlink:href="#DejaVuSans-33" x="190.869141"/>
       <use xlink:href="#DejaVuSans-2d" x="254.492188"/>
       <use xlink:href="#DejaVuSans-31" x="290.576172"/>
       <use xlink:href="#DejaVuSans-31" x="354.199219"/>
       <use xlink:href="#DejaVuSans-2d" x="417.822266"/>
       <use xlink:href="#DejaVuSans-30" x="453.90625"/>
       <use xlink:href="#DejaVuSans-34" x="517.529297"/>
      </g>
     </g>
    </g>
    <g id="xtick_4">
     <g id="line2d_7">
      <path d="M 310.755476 279.561175 
L 310.755476 25.44 
" clip-path="url(#pdfa11593a7)" style="fill: none; stroke: #b0b0b0; stroke-width: 0.8; stroke-linecap: square"/>
     </g>
     <g id="line2d_8">
      <g>
       <use xlink:href="#mc798e24036" x="310.755476" y="279.561175" style="stroke: #000000; stroke-width: 0.8"/>
      </g>
     </g>
     <g id="text_4">
      <!-- 2023-11-05 -->
      <g transform="translate(268.190962 333.028035) rotate(-45) scale(0.1 -0.1)">
       <defs>
        <path id="DejaVuSans-35" d="M 691 4666 
L 3169 4666 
L 3169 4134 
L 1269 4134 
L 1269 2991 
Q 1406 3038 1543 3061 
Q 1681 3084 1819 3084 
Q 2600 3084 3056 2656 
Q 3513 2228 3513 1497 
Q 3513 744 3044 326 
Q 2575 -91 1722 -91 
Q 1428 -91 1123 -41 
Q 819 9 494 109 
L 494 744 
Q 775 591 1075 516 
Q 1375 441 1709 441 
Q 2250 441 2565 725 
Q 2881 1009 2881 1497 
Q 2881 1984 2565 2268 
Q 2250 2553 1709 2553 
Q 1456 2553 1204 2497 
Q 953 2441 691 2322 
L 691 4666 
z
" transform="scale(0.015625)"/>
       </defs>
       <use xlink:href="#DejaVuSans-32"/>
       <use xlink:href="#DejaVuSans-30" x="63.623047"/>
       <use xlink:href="#DejaVuSans-32" x="127.246094"/>
       <use xlink:href="#DejaVuSans-33" x="190.869141"/>
       <use xlink:href="#DejaVuSans-2d" x="254.492188"/>
       <use xlink:href="#DejaVuSans-31" x="290.576172"/>
       <use xlink:href="#DejaVuSans-31" x="354.199219"/>
       <use xlink:href="#DejaVuSans-2d" x="417.822266"/>
       <use xlink:href="#DejaVuSans-30" x="453.90625"/>
       <use xlink:href="#DejaVuSans-35" x="517.529297"/>
      </g>
     </g>
    </g>
    <g id="xtick_5">
     <g id="line2d_9">
      <path d="M 375.690482 279.561175 
L 375.690482 25.44 
" clip-path="url(#pdfa11593a7)" style="fill: none; stroke: #b0b0b0; stroke-width: 0.8; stroke-linecap: square"/>
     </g>
     <g id="line2d_10">
      <g>
       <use xlink:href="#mc798e24036" x="375.690482" y="279.561175" style="stroke: #000000; stroke-width: 0.8"/>
      </g>
     </g>
     <g id="text_5">
      <!-- 2023-11-06 -->
      <g transform="translate(333.125968 333.028035) rotate(-45) scale(0.1 -0.1)">
       <defs>
        <path id="DejaVuSans-36" d="M 2113 2584 
Q 1688 2584 1439 2293 
Q 1191 2003 1191 1497 
Q 1191 994 1439 701 
Q 1688 409 2113 409 
Q 2538 409 2786 701 
Q 3034 994 3034 1497 
Q 3034 2003 2786 2293 
Q 2538 2584 2113 2584 
z
M 3366 4563 
L 3366 3988 
Q 3128 4100 2886 4159 
Q 2644 4219 2406 4219 
Q 1781 4219 1451 3797 
Q 1122 3375 1075 2522 
Q 1259 2794 1537 2939 
Q 1816 3084 2150 3084 
Q 2853 3084 3261 2657 
Q 3669 2231 3669 1497 
Q 3669 778 3244 343 
Q 2819 -91 2113 -91 
Q 1303 -91 875 529 
Q 447 1150 447 2328 
Q 447 3434 972 4092 
Q 1497 4750 2381 4750 
Q 2619 4750 2861 4703 
Q 3103 4656 3366 4563 
z
" transform="scale(0.015625)"/>
       </defs>
       <use xlink:href="#DejaVuSans-32"/>
       <use xlink:href="#DejaVuSans-30" x="63.623047"/>
       <use xlink:href="#DejaVuSans-32" x="127.246094"/>
       <use xlink:href="#DejaVuSans-33" x="190.869141"/>
       <use xlink:href="#DejaVuSans-2d" x="254.492188"/>
       <use xlink:href="#DejaVuSans-31" x="290.576172"/>
       <use xlink:href="#DejaVuSans-31" x="354.199219"/>
       <use xlink:href="#DejaVuSans-2d" x="417.822266"/>
       <use xlink:href="#DejaVuSans-30" x="453.90625"/>
       <use xlink:href="#DejaVuSans-36" x="517.529297"/>
      </g>
     </g>
    </g>
    <g id="xtick_6">
     <g id="line2d_11">
      <path d="M 440.625487 279.561175 
L 440.625487 25.44 
" clip-path="url(#pdfa11593a7)" style="fill: none; stroke: #b0b0b0; stroke-width: 0.8; stroke-linecap: square"/>
     </g>
     <g id="line2d_12">
      <g>
       <use xlink:href="#mc798e24036" x="440.625487" y="279.561175" style="stroke: #000000; stroke-width: 0.8"/>
      </g>
     </g>
     <g id="text_6">
      <!-- 2023-11-07 -->
      <g transform="translate(398.060973 333.028035) rotate(-45) scale(0.1 -0.1)">
       <defs>
        <path id="DejaVuSans-37" d="M 525 4666 
L 3525 4666 
L 3525 4397 
L 1831 0 
L 1172 0 
L 2766 4134 
L 525 4134 
L 525 4666 
z
" transform="scale(0.015625)"/>
       </defs>
       <use xlink:href="#DejaVuSans-32"/>
       <use xlink:href="#DejaVuSans-30" x="63.623047"/>
       <use xlink:href="#DejaVuSans-32" x="127.246094"/>
       <use xlink:href="#DejaVuSans-33" x="190.869141"/>
       <use xlink:href="#DejaVuSans-2d" x="254.492188"/>
       <use xlink:href="#DejaVuSans-31" x="290.576172"/>
       <use xlink:href="#DejaVuSans-31" x="354.199219"/>
       <use xlink:href="#DejaVuSans-2d" x="417.822266"/>
       <use xlink:href="#DejaVuSans-30" x="453.90625"/>
       <use xlink:href="#DejaVuSans-37" x="517.529297"/>
      </g>
     </g>
    </g>
   </g>
   <g id="matplotlib.axis_2">
    <g id="ytick_1">
     <g id="line2d_13">
      <path d="M 51.05 279.561175 
L 450 279.561175 
" clip-path="url(#pdfa11593a7)" style="fill: none; stroke: #b0b0b0; stroke-width: 0.8; stroke-linecap: square"/>
     </g>
     <g id="line2d_14">
      <defs>
       <path id="m2b8480f8ce" d="M 0 0 
L -3.5 0 
" style="stroke: #000000; stroke-width: 0.8"/>
      </defs>
      <g>
       <use xlink:href="#m2b8480f8ce" x="51.05" y="279.561175" style="stroke: #000000; stroke-width: 0.8"/>
      </g>
     </g>
     <g id="text_7">
      <!-- 0 -->
      <g transform="translate(37.6875 283.360394) scale(0.1 -0.1)">
       <use xlink:href="#DejaVuSans-30"/>
      </g>
     </g>
    </g>
    <g id="ytick_2">
     <g id="line2d_15">
      <path d="M 51.05 228.73694 
L 450 228.73694 
" clip-path="url(#pdfa11593a7)" style="fill: none; stroke: #b0b0b0; stroke-width: 0.8; stroke-linecap: square"/>
     </g>
     <g id="line2d_16">
      <g>
       <use xlink:href="#m2b8480f8ce" x="51.05" y="228.73694" style="stroke: #000000; stroke-width: 0.8"/>
      </g>
     </g>
     <g id="text_8">
      <!-- 20 -->
      <g transform="translate(31.325 232.536159) scale(0.1 -0.1)">
       <use xlink:href="#DejaVuSans-32"/>
       <use xlink:href="#DejaVuSans-30" x="63.623047"/>
      </g>
     </g>
    </g>
    <g id="ytick_3">
     <g id="line2d_17">
      <path d="M 51.05 177.912705 
L 450 177.912705 
" clip-path="url(#pdfa11593a7)" style="fill: none; stroke: #b0b0b0; stroke-width: 0.8; stroke-linecap: square"/>
     </g>
     <g id="line2d_18">
      <g>
       <use xlink:href="#m2b8480f8ce" x="51.05" y="177.912705" style="stroke: #000000; stroke-width: 0.8"/>
      </g>
     </g>
     <g id="text_9">
      <!-- 40 -->
      <g transform="translate(31.325 181.711924) scale(0.1 -0.1)">
       <use xlink:href="#DejaVuSans-34"/>
       <use xlink:href="#DejaVuSans-30" x="63.623047"/>
      </g>
     </g>
    </g>
    <g id="ytick_4">
     <g id="line2d_19">
      <path d="M 51.05 127.08847 
L 450 127.08847 
" clip-path="url(#pdfa11593a7)" style="fill: none; stroke: #b0b0b0; stroke-width: 0.8; stroke-linecap: square"/>
     </g>
     <g id="line2d_20">
      <g>
       <use xlink:href="#m2b8480f8ce" x="51.05" y="127.08847" style="stroke: #000000; stroke-width: 0.8"/>
      </g>
     </g>
     <g id="text_10">
      <!-- 60 -->
      <g transform="translate(31.325 130.887689) scale(0.1 -0.1)">
       <use xlink:href="#DejaVuSans-36"/>
       <use xlink:href="#DejaVuSans-30" x="63.623047"/>
      </g>
     </g>
    </g>
    <g id="ytick_5">
     <g id="line2d_21">
      <path d="M 51.05 76.264235 
L 450 76.264235 
" clip-path="url(#pdfa11593a7)" style="fill: none; stroke: #b0b0b0; stroke-width: 0.8; stroke-linecap: square"/>
     </g>
     <g id="line2d_22">
      <g>
       <use xlink:href="#m2b8480f8ce" x="51.05" y="76.264235" style="stroke: #000000; stroke-width: 0.8"/>
      </g>
     </g>
     <g id="text_11">
      <!-- 80 -->
      <g transform="translate(31.325 80.063454) scale(0.1 -0.1)">
       <defs>
        <path id="DejaVuSans-38" d="M 2034 2216 
Q 1584 2216 1326 1975 
Q 1069 1734 1069 1313 
Q 1069 891 1326 650 
Q 1584 409 2034 409 
Q 2484 409 2743 651 
Q 3003 894 3003 1313 
Q 3003 1734 2745 1975 
Q 2488 2216 2034 2216 
z
M 1403 2484 
Q 997 2584 770 2862 
Q 544 3141 544 3541 
Q 544 4100 942 4425 
Q 1341 4750 2034 4750 
Q 2731 4750 3128 4425 
Q 3525 4100 3525 3541 
Q 3525 3141 3298 2862 
Q 3072 2584 2669 2484 
Q 3125 2378 3379 2068 
Q 3634 1759 3634 1313 
Q 3634 634 3220 271 
Q 2806 -91 2034 -91 
Q 1263 -91 848 271 
Q 434 634 434 1313 
Q 434 1759 690 2068 
Q 947 2378 1403 2484 
z
M 1172 3481 
Q 1172 3119 1398 2916 
Q 1625 2713 2034 2713 
Q 2441 2713 2670 2916 
Q 2900 3119 2900 3481 
Q 2900 3844 2670 4047 
Q 2441 4250 2034 4250 
Q 1625 4250 1398 4047 
Q 1172 3844 1172 3481 
z
" transform="scale(0.015625)"/>
       </defs>
       <use xlink:href="#DejaVuSans-38"/>
       <use xlink:href="#DejaVuSans-30" x="63.623047"/>
      </g>
     </g>
    </g>
    <g id="ytick_6">
     <g id="line2d_23">
      <path d="M 51.05 25.44 
L 450 25.44 
" clip-path="url(#pdfa11593a7)" style="fill: none; stroke: #b0b0b0; stroke-width: 0.8; stroke-linecap: square"/>
     </g>
     <g id="line2d_24">
      <g>
       <use xlink:href="#m2b8480f8ce" x="51.05" y="25.44" style="stroke: #000000; stroke-width: 0.8"/>
      </g>
     </g>
     <g id="text_12">
      <!-- 100 -->
      <g transform="translate(24.9625 29.239219) scale(0.1 -0.1)">
       <use xlink:href="#DejaVuSans-31"/>
       <use xlink:href="#DejaVuSans-30" x="63.623047"/>
       <use xlink:href="#DejaVuSans-30" x="127.246094"/>
      </g>
     </g>
    </g>
    <g id="text_13">
     <!-- Humidity [%RH] -->
     <g transform="translate(18.882812 192.647463) rotate(-90) scale(0.1 -0.1)">
      <defs>
       <path id="DejaVuSans-48" d="M 628 4666 
L 1259 4666 
L 1259 2753 
L 3553 2753 
L 3553 4666 
L 4184 4666 
L 4184 0 
L 3553 0 
L 3553 2222 
L 1259 2222 
L 1259 0 
L 628 0 
L 628 4666 
z
" transform="scale(0.015625)"/>
       <path id="DejaVuSans-75" d="M 544 1381 
L 544 3500 
L 1119 3500 
L 1119 1403 
Q 1119 906 1312 657 
Q 1506 409 1894 409 
Q 2359 409 2629 706 
Q 2900 1003 2900 1516 
L 2900 3500 
L 3475 3500 
L 3475 0 
L 2900 0 
L 2900 538 
Q 2691 219 2414 64 
Q 2138 -91 1772 -91 
Q 1169 -91 856 284 
Q 544 659 544 1381 
z
M 1991 3584 
L 1991 3584 
z
" transform="scale(0.015625)"/>
       <path id="DejaVuSans-6d" d="M 3328 2828 
Q 3544 3216 3844 3400 
Q 4144 3584 4550 3584 
Q 5097 3584 5394 3201 
Q 5691 2819 5691 2113 
L 5691 0 
L 5113 0 
L 5113 2094 
Q 5113 2597 4934 2840 
Q 4756 3084 4391 3084 
Q 3944 3084 3684 2787 
Q 3425 2491 3425 1978 
L 3425 0 
L 2847 0 
L 2847 2094 
Q 2847 2600 2669 2842 
Q 2491 3084 2119 3084 
Q 1678 3084 1418 2786 
Q 1159 2488 1159 1978 
L 1159 0 
L 581 0 
L 581 3500 
L 1159 3500 
L 1159 2956 
Q 1356 3278 1631 3431 
Q 1906 3584 2284 3584 
Q 2666 3584 2933 3390 
Q 3200 3197 3328 2828 
z
" transform="scale(0.015625)"/>
       <path id="DejaVuSans-69" d="M 603 3500 
L 1178 3500 
L 1178 0 
L 603 0 
L 603 3500 
z
M 603 4863 
L 1178 4863 
L 1178 4134 
L 603 4134 
L 603 4863 
z
" transform="scale(0.015625)"/>
       <path id="DejaVuSans-64" d="M 2906 2969 
L 2906 4863 
L 3481 4863 
L 3481 0 
L 2906 0 
L 2906 525 
Q 2725 213 2448 61 
Q 2172 -91 1784 -91 
Q 1150 -91 751 415 
Q 353 922 353 1747 
Q 353 2572 751 3078 
Q 1150 3584 1784 3584 
Q 2172 3584 2448 3432 
Q 2725 3281 2906 2969 
z
M 947 1747 
Q 947 1113 1208 752 
Q 1469 391 1925 391 
Q 2381 391 2643 752 
Q 2906 1113 2906 1747 
Q 2906 2381 2643 2742 
Q 2381 3103 1925 3103 
Q 1469 3103 1208 2742 
Q 947 2381 947 1747 
z
" transform="scale(0.015625)"/>
       <path id="DejaVuSans-74" d="M 1172 4494 
L 1172 3500 
L 2356 3500 
L 2356 3053 
L 1172 3053 
L 1172 1153 
Q 1172 725 1289 603 
Q 1406 481 1766 481 
L 2356 481 
L 2356 0 
L 1766 0 
Q 1100 0 847 248 
Q 594 497 594 1153 
L 594 3053 
L 172 3053 
L 172 3500 
L 594 3500 
L 594 4494 
L 1172 4494 
z
" transform="scale(0.015625)"/>
       <path id="DejaVuSans-79" d="M 2059 -325 
Q 1816 -950 1584 -1140 
Q 1353 -1331 966 -1331 
L 506 -1331 
L 506 -850 
L 844 -850 
Q 1081 -850 1212 -737 
Q 1344 -625 1503 -206 
L 1606 56 
L 191 3500 
L 800 3500 
L 1894 763 
L 2988 3500 
L 3597 3500 
L 2059 -325 
z
" transform="scale(0.015625)"/>
       <path id="DejaVuSans-20" transform="scale(0.015625)"/>
       <path id="DejaVuSans-5b" d="M 550 4863 
L 1875 4863 
L 1875 4416 
L 1125 4416 
L 1125 -397 
L 1875 -397 
L 1875 -844 
L 550 -844 
L 550 4863 
z
" transform="scale(0.015625)"/>
       <path id="DejaVuSans-25" d="M 4653 2053 
Q 4381 2053 4226 1822 
Q 4072 1591 4072 1178 
Q 4072 772 4226 539 
Q 4381 306 4653 306 
Q 4919 306 5073 539 
Q 5228 772 5228 1178 
Q 5228 1588 5073 1820 
Q 4919 2053 4653 2053 
z
M 4653 2450 
Q 5147 2450 5437 2106 
Q 5728 1763 5728 1178 
Q 5728 594 5436 251 
Q 5144 -91 4653 -91 
Q 4153 -91 3862 251 
Q 3572 594 3572 1178 
Q 3572 1766 3864 2108 
Q 4156 2450 4653 2450 
z
M 1428 4353 
Q 1159 4353 1004 4120 
Q 850 3888 850 3481 
Q 850 3069 1003 2837 
Q 1156 2606 1428 2606 
Q 1700 2606 1854 2837 
Q 2009 3069 2009 3481 
Q 2009 3884 1853 4118 
Q 1697 4353 1428 4353 
z
M 4250 4750 
L 4750 4750 
L 1831 -91 
L 1331 -91 
L 4250 4750 
z
M 1428 4750 
Q 1922 4750 2215 4408 
Q 2509 4066 2509 3481 
Q 2509 2891 2217 2550 
Q 1925 2209 1428 2209 
Q 931 2209 642 2551 
Q 353 2894 353 3481 
Q 353 4063 643 4406 
Q 934 4750 1428 4750 
z
" transform="scale(0.015625)"/>
       <path id="DejaVuSans-52" d="M 2841 2188 
Q 3044 2119 3236 1894 
Q 3428 1669 3622 1275 
L 4263 0 
L 3584 0 
L 2988 1197 
Q 2756 1666 2539 1819 
Q 2322 1972 1947 1972 
L 1259 1972 
L 1259 0 
L 628 0 
L 628 4666 
L 2053 4666 
Q 2853 4666 3247 4331 
Q 3641 3997 3641 3322 
Q 3641 2881 3436 2590 
Q 3231 2300 2841 2188 
z
M 1259 4147 
L 1259 2491 
L 2053 2491 
Q 2509 2491 2742 2702 
Q 2975 2913 2975 3322 
Q 2975 3731 2742 3939 
Q 2509 4147 2053 4147 
L 1259 4147 
z
" transform="scale(0.015625)"/>
       <path id="DejaVuSans-5d" d="M 1947 4863 
L 1947 -844 
L 622 -844 
L 622 -397 
L 1369 -397 
L 1369 4416 
L 622 4416 
L 622 4863 
L 1947 4863 
z
" transform="scale(0.015625)"/>
      </defs>
      <use xlink:href="#DejaVuSans-48"/>
      <use xlink:href="#DejaVuSans-75" x="75.195312"/>
      <use xlink:href="#DejaVuSans-6d" x="138.574219"/>
      <use xlink:href="#DejaVuSans-69" x="235.986328"/>
      <use xlink:href="#DejaVuSans-64" x="263.769531"/>
      <use xlink:href="#DejaVuSans-69" x="327.246094"/>
      <use xlink:href="#DejaVuSans-74" x="355.029297"/>
      <use xlink:href="#DejaVuSans-79" x="394.238281"/>
      <use xlink:href="#DejaVuSans-20" x="453.417969"/>
      <use xlink:href="#DejaVuSans-5b" x="485.205078"/>
      <use xlink:href="#DejaVuSans-25" x="524.21875"/>
      <use xlink:href="#DejaVuSans-52" x="619.238281"/>
      <use xlink:href="#DejaVuSans-48" x="688.720703"/>
      <use xlink:href="#DejaVuSans-5d" x="763.916016"/>
     </g>
    </g>
   </g>
   <g id="line2d_25">
    <path d="M 51.05 58.475753 
L 51.230224 58.475753 
L 51.410837 53.393329 
L 51.518824 53.393329 
L 51.663125 50.852118 
L 51.951717 50.852118 
L 52.096017 48.310906 
L 52.817508 48.310906 
L 52.962245 50.852118 
L 53.142292 50.852118 
L 53.286721 53.393329 
L 53.503127 53.393329 
L 53.611155 55.934541 
L 54.368706 55.934541 
L 54.513176 58.475753 
L 54.909841 58.475753 
L 55.054142 61.016965 
L 55.198438 58.475753 
L 56.424981 58.475753 
L 56.569282 61.016965 
L 56.605557 61.016965 
L 56.785728 55.934541 
L 56.894135 55.934541 
L 57.002175 53.393329 
L 57.182742 53.393329 
L 57.327013 55.934541 
L 58.120685 55.934541 
L 58.264959 58.475753 
L 58.373021 58.475753 
L 58.55352 61.016965 
L 58.842249 61.016965 
L 58.986485 63.558176 
L 59.310962 63.558176 
L 59.455262 61.016965 
L 59.491533 61.016965 
L 59.635807 63.558176 
L 60.465798 63.558176 
L 60.645908 58.475753 
L 60.681799 58.475753 
L 60.826095 55.934541 
L 61.078849 55.934541 
L 61.223061 58.475753 
L 61.439572 58.475753 
L 61.583845 61.016965 
L 61.691893 61.016965 
L 61.836431 63.558176 
L 61.908338 63.558176 
L 62.052638 66.099388 
L 62.521618 66.099388 
L 62.701982 61.016965 
L 62.810396 61.016965 
L 62.954709 63.558176 
L 63.531897 63.558176 
L 63.676191 61.016965 
L 64.217118 61.016965 
L 64.361418 58.475753 
L 64.79431 58.475753 
L 64.974877 63.558176 
L 65.010762 63.558176 
L 65.155064 68.6406 
L 65.227202 68.6406 
L 65.407754 73.723023 
L 65.660108 73.723023 
L 65.804406 76.264235 
L 65.984946 73.723023 
L 66.020852 73.723023 
L 66.165153 76.264235 
L 66.345718 71.181812 
L 66.850777 71.181812 
L 66.995071 73.723023 
L 67.572295 73.723023 
L 67.716598 76.264235 
L 68.546084 76.264235 
L 68.798824 71.181812 
L 68.870931 71.181812 
L 69.015268 68.6406 
L 69.195428 68.6406 
L 69.448158 63.558176 
L 69.556173 63.558176 
L 69.700472 61.016965 
L 70.025247 61.016965 
L 70.169663 58.475753 
L 70.927015 58.475753 
L 71.071314 61.016965 
L 71.107613 61.016965 
L 71.288215 63.558176 
L 71.792811 63.558176 
L 71.937107 66.099388 
L 72.045396 66.099388 
L 72.22571 71.181812 
L 72.334162 71.181812 
L 72.514305 76.264235 
L 72.694674 76.264235 
L 72.911357 86.429082 
L 73.16365 76.264235 
L 73.812998 76.264235 
L 73.957295 86.429082 
L 74.137853 111.8412 
L 74.173742 111.8412 
L 74.498587 127.08847 
L 74.606632 127.08847 
L 74.750935 124.547258 
L 74.787135 124.547258 
L 74.931374 122.006047 
L 75.003694 122.006047 
L 75.147994 124.547258 
L 75.183826 122.006047 
L 75.255975 124.547258 
L 75.40026 127.08847 
L 75.436416 127.08847 
L 75.761017 142.335741 
L 75.941633 134.712105 
L 76.193911 144.876952 
L 76.230154 144.876952 
L 76.410356 139.794529 
L 76.446696 139.794529 
L 76.66313 147.418164 
L 76.807285 144.876952 
L 76.879579 144.876952 
L 76.987553 147.418164 
L 77.348293 127.08847 
L 77.564742 127.08847 
L 77.74519 122.006047 
L 77.853335 122.006047 
L 77.997632 124.547258 
L 78.033979 124.547258 
L 78.178154 127.08847 
L 79.007718 127.08847 
L 79.188349 122.006047 
L 79.296309 122.006047 
L 79.440923 124.547258 
L 79.548953 124.547258 
L 79.693399 127.08847 
L 79.945655 127.08847 
L 80.090201 129.629682 
L 80.342725 124.547258 
L 80.450693 124.547258 
L 80.594994 122.006047 
L 80.811429 122.006047 
L 80.955735 124.547258 
L 81.100033 124.547258 
L 81.280643 119.464835 
L 81.35278 119.464835 
L 81.38863 122.006047 
L 81.461111 119.464835 
L 81.857796 119.464835 
L 82.002118 122.006047 
L 82.037969 122.006047 
L 82.182266 124.547258 
L 82.39871 124.547258 
L 82.543011 122.006047 
L 82.579377 122.006047 
L 82.687311 127.08847 
L 82.723676 124.547258 
L 82.831952 124.547258 
L 82.975906 127.08847 
L 83.192353 127.08847 
L 83.372901 144.876952 
L 83.4088 142.335741 
L 83.58932 132.170894 
L 83.625247 134.712105 
L 83.733766 139.794529 
L 83.769543 137.253317 
L 83.985984 137.253317 
L 84.238599 127.08847 
L 84.274583 127.08847 
L 84.418878 124.547258 
L 84.671652 124.547258 
L 84.779622 122.006047 
L 84.923927 122.006047 
L 84.96019 119.464835 
L 85.032387 122.006047 
L 85.10455 122.006047 
L 85.2488 124.547258 
L 85.356816 124.547258 
L 85.501479 122.006047 
L 85.861857 122.006047 
L 85.898066 119.464835 
L 85.970383 122.006047 
L 86.114662 122.006047 
L 86.258748 124.547258 
L 86.439046 124.547258 
L 86.583344 122.006047 
L 86.655491 122.006047 
L 86.79979 124.547258 
L 87.016238 124.547258 
L 87.160535 122.006047 
L 87.66558 122.006047 
L 87.954431 134.712105 
L 88.098477 134.712105 
L 88.243107 129.629682 
L 88.387072 132.170894 
L 88.423396 132.170894 
L 88.603517 127.08847 
L 88.856336 127.08847 
L 89.000488 124.547258 
L 89.397152 124.547258 
L 89.541878 122.006047 
L 89.64977 122.006047 
L 89.722076 124.547258 
L 89.757894 122.006047 
L 90.876447 122.006047 
L 91.056576 116.923623 
L 91.128727 116.923623 
L 91.309281 111.8412 
L 91.56162 111.8412 
L 91.95865 101.676353 
L 92.499559 101.676353 
L 92.643854 99.135141 
L 92.824488 99.135141 
L 92.932819 96.593929 
L 93.076753 96.593929 
L 93.22105 94.052717 
L 93.36535 96.593929 
L 93.581798 96.593929 
L 93.762379 94.052717 
L 94.231137 94.052717 
L 94.375441 76.264235 
L 94.411661 76.264235 
L 94.556079 73.723023 
L 94.700369 73.723023 
L 94.844665 71.181812 
L 94.880481 71.181812 
L 95.024782 68.6406 
L 95.169081 68.6406 
L 95.313377 66.099388 
L 96.107026 66.099388 
L 96.251327 63.558176 
L 96.431817 63.558176 
L 96.576292 61.016965 
L 96.972822 61.016965 
L 97.153408 58.475753 
L 97.189269 58.475753 
L 97.369911 53.393329 
L 97.838608 53.393329 
L 97.98291 55.934541 
L 99.498042 55.934541 
L 99.642337 53.393329 
L 100.111621 53.393329 
L 100.255937 50.852118 
L 101.157467 50.852118 
L 101.301765 48.310906 
L 102.708925 48.310906 
L 102.85327 45.769694 
L 103.105842 45.769694 
L 103.28616 43.228482 
L 103.682684 43.228482 
L 103.826974 40.687271 
L 104.224087 40.687271 
L 104.368402 38.146059 
L 106.063604 38.146059 
L 106.207903 35.604847 
L 107.25414 35.604847 
L 107.398681 33.063635 
L 108.91372 33.063635 
L 109.058016 30.522424 
L 110.681138 30.522424 
L 110.825436 27.981212 
L 159.995335 27.981212 
L 160.211791 35.604847 
L 160.356122 35.604847 
L 160.50044 38.146059 
L 160.572571 38.146059 
L 160.680535 40.687271 
L 160.752691 40.687271 
L 160.896989 43.228482 
L 161.438126 43.228482 
L 161.582674 45.769694 
L 161.907078 45.769694 
L 162.051818 48.310906 
L 162.881302 48.310906 
L 163.025563 45.769694 
L 163.674891 45.769694 
L 163.819321 43.228482 
L 164.720911 43.228482 
L 164.901447 40.687271 
L 167.101839 40.687271 
L 167.24614 43.228482 
L 167.751186 43.228482 
L 167.895485 40.687271 
L 169.843516 40.687271 
L 169.987815 38.146059 
L 170.637159 38.146059 
L 170.78146 35.604847 
L 171.286512 35.604847 
L 171.430806 33.063635 
L 171.899969 33.063635 
L 172.044275 30.522424 
L 173.162386 30.522424 
L 173.306686 27.981212 
L 174.641609 27.981212 
L 174.785991 30.522424 
L 175.110414 30.522424 
L 175.291042 33.063635 
L 175.399014 33.063635 
L 175.543315 35.604847 
L 175.723788 35.604847 
L 175.868184 38.146059 
L 176.084735 38.146059 
L 176.22888 40.687271 
L 176.517623 40.687271 
L 176.661813 43.228482 
L 177.419191 43.228482 
L 177.563492 45.769694 
L 178.393215 45.769694 
L 178.537798 43.228482 
L 178.754123 43.228482 
L 178.898498 40.687271 
L 179.187113 40.687271 
L 179.331391 38.146059 
L 179.728347 38.146059 
L 179.872266 35.604847 
L 180.269378 35.604847 
L 180.413367 38.146059 
L 180.485678 38.146059 
L 180.665911 43.228482 
L 180.810208 43.228482 
L 180.954505 45.769694 
L 181.459554 45.769694 
L 181.603852 43.228482 
L 181.89245 43.228482 
L 182.036743 40.687271 
L 182.39796 40.687271 
L 182.578139 38.146059 
L 183.119401 38.146059 
L 183.263285 35.604847 
L 183.948979 35.604847 
L 184.093219 33.063635 
L 185.247567 33.063635 
L 185.391954 30.522424 
L 186.041265 30.522424 
L 186.185603 33.063635 
L 186.365707 33.063635 
L 186.510402 35.604847 
L 186.726451 35.604847 
L 186.87075 38.146059 
L 187.159716 38.146059 
L 187.303648 40.687271 
L 189.540277 40.687271 
L 189.684576 38.146059 
L 190.298113 38.146059 
L 190.442381 35.604847 
L 190.803098 35.604847 
L 190.947413 38.146059 
L 191.416156 38.146059 
L 191.560454 40.687271 
L 192.281949 40.687271 
L 192.426243 43.228482 
L 193.833398 43.228482 
L 193.977451 40.687271 
L 195.240072 40.687271 
L 195.420627 43.228482 
L 195.456783 43.228482 
L 195.637139 48.310906 
L 195.709289 48.310906 
L 195.853646 50.852118 
L 196.033712 50.852118 
L 196.178011 48.310906 
L 196.502997 48.310906 
L 196.610908 45.769694 
L 196.899503 45.769694 
L 197.043802 48.310906 
L 197.332856 48.310906 
L 197.4767 45.769694 
L 198.523142 45.769694 
L 198.631086 43.228482 
L 200.146221 43.228482 
L 200.290519 40.687271 
L 200.687631 40.687271 
L 200.831782 43.228482 
L 202.094576 43.228482 
L 202.238549 45.769694 
L 202.346988 45.769694 
L 202.491213 43.228482 
L 203.032196 43.228482 
L 203.17649 45.769694 
L 203.284899 45.769694 
L 203.392942 48.310906 
L 203.573515 45.769694 
L 203.681541 48.310906 
L 203.825839 45.769694 
L 204.222775 45.769694 
L 204.367183 43.228482 
L 204.908077 43.228482 
L 205.052376 40.687271 
L 205.485709 40.687271 
L 205.629569 43.228482 
L 206.134956 43.228482 
L 206.31519 45.769694 
L 206.56751 45.769694 
L 206.711814 48.310906 
L 207.216855 48.310906 
L 207.361159 45.769694 
L 209.597798 45.769694 
L 209.742098 48.310906 
L 213.169478 48.310906 
L 213.313785 50.852118 
L 213.566007 50.852118 
L 213.746576 48.310906 
L 214.287872 48.310906 
L 214.468129 50.852118 
L 214.540271 50.852118 
L 214.684575 48.310906 
L 214.936847 48.310906 
L 215.117443 50.852118 
L 215.153289 50.852118 
L 215.29759 53.393329 
L 215.478205 53.393329 
L 215.622493 50.852118 
L 215.946932 50.852118 
L 216.127571 55.934541 
L 216.235533 55.934541 
L 216.379825 58.475753 
L 216.416002 58.475753 
L 216.560431 61.016965 
L 216.596276 61.016965 
L 216.740571 63.558176 
L 216.957022 63.558176 
L 217.137586 66.099388 
L 217.173469 63.558176 
L 217.245621 66.099388 
L 217.462067 66.099388 
L 217.606363 68.6406 
L 217.967109 68.6406 
L 218.111408 66.099388 
L 218.255708 66.099388 
L 218.436155 71.181812 
L 218.508441 71.181812 
L 218.652671 68.6406 
L 219.121501 68.6406 
L 219.302165 63.558176 
L 219.410096 63.558176 
L 219.554395 61.016965 
L 219.915143 61.016965 
L 220.059439 58.475753 
L 221.141682 58.475753 
L 221.285984 55.934541 
L 221.718878 55.934541 
L 221.899484 58.475753 
L 222.007474 58.475753 
L 222.151772 61.016965 
L 222.476452 61.016965 
L 222.548762 58.475753 
L 222.584671 61.016965 
L 222.873265 61.016965 
L 223.017562 63.558176 
L 223.270352 63.558176 
L 223.414584 61.016965 
L 223.81165 61.016965 
L 223.955506 58.475753 
L 223.991868 58.475753 
L 224.136191 55.934541 
L 224.316251 55.934541 
L 224.46104 53.393329 
L 224.677 53.393329 
L 224.821296 50.852118 
L 225.542786 50.852118 
L 225.687089 48.310906 
L 226.084133 48.310906 
L 226.264281 53.393329 
L 226.300682 53.393329 
L 226.444989 55.934541 
L 226.481098 55.934541 
L 226.661371 58.475753 
L 226.733455 58.475753 
L 226.877777 55.934541 
L 226.985775 55.934541 
L 227.130076 53.393329 
L 227.635119 53.393329 
L 227.77942 50.852118 
L 227.95993 55.934541 
L 227.995867 55.934541 
L 228.140162 58.475753 
L 228.17654 58.475753 
L 228.356611 63.558176 
L 228.392959 63.558176 
L 228.500907 66.099388 
L 228.68152 66.099388 
L 228.825886 68.6406 
L 229.150254 68.6406 
L 229.25849 71.181812 
L 229.403109 68.6406 
L 230.196697 68.6406 
L 230.341039 66.099388 
L 230.413157 66.099388 
L 230.5211 63.558176 
L 230.846032 63.558176 
L 230.881849 61.016965 
L 230.953992 63.558176 
L 231.350929 63.558176 
L 231.495228 61.016965 
L 231.675488 61.016965 
L 231.819785 63.558176 
L 232.396988 63.558176 
L 232.541283 66.099388 
L 233.371094 66.099388 
L 233.515496 63.558176 
L 233.839977 63.558176 
L 233.984726 61.016965 
L 234.128573 61.016965 
L 234.309097 66.099388 
L 234.345025 66.099388 
L 234.489321 68.6406 
L 234.561473 68.6406 
L 234.705774 71.181812 
L 234.958468 71.181812 
L 235.102763 68.6406 
L 235.355455 68.6406 
L 235.499419 71.181812 
L 235.643717 71.181812 
L 235.788017 73.723023 
L 235.896394 73.723023 
L 236.004959 76.264235 
L 236.185057 76.264235 
L 236.293063 78.805447 
L 236.437363 76.264235 
L 236.870264 76.264235 
L 237.014564 73.723023 
L 237.158862 76.264235 
L 237.267214 76.264235 
L 237.411394 73.723023 
L 237.447455 73.723023 
L 237.591757 71.181812 
L 238.168958 71.181812 
L 238.313255 68.6406 
L 238.818298 68.6406 
L 238.962595 66.099388 
L 239.106897 68.6406 
L 239.611947 68.6406 
L 239.756249 71.181812 
L 240.333442 71.181812 
L 240.514047 76.264235 
L 240.586047 76.264235 
L 240.730506 73.723023 
L 240.874721 73.723023 
L 241.01911 76.264235 
L 241.054936 76.264235 
L 241.235571 81.346659 
L 241.307722 81.346659 
L 241.487834 86.429082 
L 241.668481 86.429082 
L 241.812716 83.88787 
L 241.920735 83.88787 
L 242.065036 81.346659 
L 242.245588 83.88787 
L 242.28148 83.88787 
L 242.425781 86.429082 
L 242.534305 86.429082 
L 242.678587 88.970294 
L 242.75076 88.970294 
L 242.786836 91.511506 
L 242.858679 88.970294 
L 242.930831 88.970294 
L 243.075131 86.429082 
L 243.219429 86.429082 
L 243.435877 78.805447 
L 243.616456 76.264235 
L 244.157725 76.264235 
L 244.337996 73.723023 
L 244.518128 73.723023 
L 244.662423 71.181812 
L 245.38392 71.181812 
L 245.528614 73.723023 
L 245.672519 73.723023 
L 245.81682 76.264235 
L 245.925312 76.264235 
L 246.141656 83.88787 
L 246.177872 83.88787 
L 246.358194 88.970294 
L 246.430363 88.970294 
L 246.57468 91.511506 
L 246.826914 91.511506 
L 247.007477 88.970294 
L 247.115512 88.970294 
L 247.259809 91.511506 
L 247.44049 91.511506 
L 247.620564 86.429082 
L 247.656756 86.429082 
L 247.873291 78.805447 
L 248.089851 78.805447 
L 248.197765 76.264235 
L 248.306038 76.264235 
L 248.486362 81.346659 
L 248.52275 81.346659 
L 248.73921 88.970294 
L 249.063563 88.970294 
L 249.207862 91.511506 
L 249.352161 91.511506 
L 249.49646 94.052717 
L 249.749221 94.052717 
L 249.89353 91.511506 
L 249.929363 91.511506 
L 250.07366 94.052717 
L 250.109976 94.052717 
L 250.217958 96.593929 
L 250.578711 96.593929 
L 250.723006 99.135141 
L 251.011608 99.135141 
L 251.047768 101.676353 
L 251.120061 99.135141 
L 251.300207 99.135141 
L 251.444507 101.676353 
L 251.588806 101.676353 
L 251.769266 106.758776 
L 251.877408 106.758776 
L 252.058003 111.8412 
L 252.382455 111.8412 
L 252.635201 101.676353 
L 252.671054 101.676353 
L 252.815352 99.135141 
L 252.959647 99.135141 
L 253.140241 101.676353 
L 253.392552 101.676353 
L 253.536845 99.135141 
L 253.57311 99.135141 
L 253.71721 96.593929 
L 253.789519 96.593929 
L 253.933949 94.052717 
L 254.186198 94.052717 
L 254.330496 91.511506 
L 254.727573 91.511506 
L 254.907696 96.593929 
L 255.232679 96.593929 
L 255.376956 94.052717 
L 255.665558 94.052717 
L 255.809672 96.593929 
L 255.845642 96.593929 
L 255.989943 94.052717 
L 256.170559 99.135141 
L 256.423097 99.135141 
L 256.567141 101.676353 
L 257.072558 101.676353 
L 257.469245 111.8412 
L 257.505086 111.8412 
L 257.649386 109.299988 
L 257.721536 109.299988 
L 257.937988 101.676353 
L 257.974269 101.676353 
L 258.154432 96.593929 
L 258.226588 96.593929 
L 258.370884 99.135141 
L 258.443285 99.135141 
L 258.587334 101.676353 
L 258.65948 101.676353 
L 258.875932 109.299988 
L 259.092757 109.299988 
L 259.272957 111.8412 
L 259.453131 111.8412 
L 259.561619 114.382411 
L 259.741732 109.299988 
L 259.958178 109.299988 
L 259.994543 106.758776 
L 260.066582 109.299988 
L 260.174627 109.299988 
L 260.31893 111.8412 
L 260.355252 111.8412 
L 260.463602 114.382411 
L 260.896128 114.382411 
L 261.04043 116.923623 
L 261.112579 116.923623 
L 261.293151 114.382411 
L 261.329028 114.382411 
L 261.473326 109.299988 
L 261.617623 111.8412 
L 261.689772 111.8412 
L 261.834513 114.382411 
L 262.014635 111.8412 
L 262.086907 111.8412 
L 262.23111 109.299988 
L 262.627721 109.299988 
L 262.772023 111.8412 
L 262.952675 106.758776 
L 262.988472 106.758776 
L 263.132768 104.217564 
L 263.277075 104.217564 
L 263.421372 101.676353 
L 263.529842 101.676353 
L 263.674167 99.135141 
L 263.962576 99.135141 
L 264.034887 101.676353 
L 264.07072 99.135141 
L 264.251353 99.135141 
L 264.467818 91.511506 
L 264.503618 91.511506 
L 264.647914 88.970294 
L 264.79222 91.511506 
L 264.864367 91.511506 
L 265.008669 94.052717 
L 265.189304 94.052717 
L 265.333443 96.593929 
L 265.405753 96.593929 
L 265.513717 99.135141 
L 265.550073 96.593929 
L 265.622249 99.135141 
L 265.766509 99.135141 
L 265.874468 101.676353 
L 267.389613 101.676353 
L 267.533913 99.135141 
L 267.678211 99.135141 
L 267.822513 96.593929 
L 268.038961 96.593929 
L 268.183262 94.052717 
L 268.32756 94.052717 
L 268.72446 114.382411 
L 268.796769 114.382411 
L 269.301756 142.335741 
L 269.337655 142.335741 
L 269.481955 147.418164 
L 269.518307 144.876952 
L 269.590435 147.418164 
L 269.80687 147.418164 
L 269.951036 144.876952 
L 270.095488 144.876952 
L 270.131292 142.335741 
L 270.203445 144.876952 
L 270.311943 144.876952 
L 270.456257 147.418164 
L 270.708493 147.418164 
L 270.88909 152.500588 
L 270.924935 149.959376 
L 270.997085 152.500588 
L 271.069236 152.500588 
L 271.177723 157.583011 
L 271.213959 155.041799 
L 271.357835 152.500588 
L 271.429985 152.500588 
L 271.610643 147.418164 
L 271.71858 147.418164 
L 272.223625 175.371493 
L 272.295773 175.371493 
L 272.440072 177.912705 
L 272.476398 177.912705 
L 272.620465 185.53634 
L 272.656514 182.995129 
L 272.692774 182.995129 
L 272.872964 177.912705 
L 272.945112 177.912705 
L 273.161558 185.53634 
L 273.378005 177.912705 
L 273.775061 177.912705 
L 273.883044 175.371493 
L 273.99133 175.371493 
L 274.027345 177.912705 
L 274.099492 175.371493 
L 274.208006 175.371493 
L 274.280145 172.830282 
L 274.315938 175.371493 
L 274.460238 175.371493 
L 274.532384 172.830282 
L 274.568664 175.371493 
L 274.748836 175.371493 
L 274.893129 177.912705 
L 275.001629 177.912705 
L 275.218071 170.28907 
L 275.254294 170.28907 
L 275.578716 162.665435 
L 275.795202 162.665435 
L 275.903217 165.206646 
L 276.011479 165.206646 
L 276.155992 167.747858 
L 276.300196 165.206646 
L 276.588901 165.206646 
L 276.769004 160.124223 
L 276.805338 160.124223 
L 276.949664 157.583011 
L 276.985454 157.583011 
L 277.238308 167.747858 
L 277.454658 160.124223 
L 277.490495 160.124223 
L 277.779466 147.418164 
L 277.887467 147.418164 
L 278.067689 142.335741 
L 278.103939 142.335741 
L 278.248227 139.794529 
L 278.500584 139.794529 
L 278.645312 142.335741 
L 278.969853 134.712105 
L 279.114101 137.253317 
L 279.149929 137.253317 
L 279.294222 134.712105 
L 279.474807 132.170894 
L 279.619191 132.170894 
L 279.654969 129.629682 
L 279.727119 132.170894 
L 280.232166 132.170894 
L 280.37646 129.629682 
L 280.412652 129.629682 
L 280.484957 127.08847 
L 280.520758 129.629682 
L 280.629222 129.629682 
L 280.809358 142.335741 
L 280.881509 139.794529 
L 281.025807 137.253317 
L 281.062094 137.253317 
L 281.242254 142.335741 
L 281.38691 142.335741 
L 281.494958 147.418164 
L 281.530851 144.876952 
L 282.000031 144.876952 
L 282.18019 139.794529 
L 282.216501 139.794529 
L 282.360793 137.253317 
L 282.39664 137.253317 
L 282.57725 132.170894 
L 282.649418 132.170894 
L 282.829536 137.253317 
L 283.010213 137.253317 
L 283.190275 144.876952 
L 283.40712 137.253317 
L 283.442799 137.253317 
L 283.587391 149.959376 
L 283.659562 149.959376 
L 283.695324 147.418164 
L 283.767474 149.959376 
L 283.803851 149.959376 
L 283.948161 152.500588 
L 284.344666 152.500588 
L 284.705411 134.712105 
L 284.885959 132.170894 
L 284.958201 132.170894 
L 285.066156 129.629682 
L 285.210458 132.170894 
L 285.246722 132.170894 
L 285.427304 127.08847 
L 285.824004 127.08847 
L 285.968296 129.629682 
L 286.148378 129.629682 
L 286.292693 127.08847 
L 286.364839 127.08847 
L 286.509141 129.629682 
L 286.65344 129.629682 
L 286.798133 127.08847 
L 287.158485 127.08847 
L 287.302782 124.547258 
L 287.447551 124.547258 
L 287.627708 127.08847 
L 287.844195 127.08847 
L 287.988489 124.547258 
L 288.349247 124.547258 
L 288.493506 122.006047 
L 288.637684 124.547258 
L 288.673615 124.547258 
L 288.818312 122.006047 
L 289.214981 111.8412 
L 289.647851 111.8412 
L 289.792178 114.382411 
L 289.972303 109.299988 
L 290.189199 109.299988 
L 290.224821 111.8412 
L 290.297117 109.299988 
L 290.333051 109.299988 
L 290.47735 111.8412 
L 290.730094 111.8412 
L 290.838413 109.299988 
L 290.910248 109.299988 
L 291.05455 106.758776 
L 291.379306 106.758776 
L 291.559906 101.676353 
L 291.77604 101.676353 
L 291.920337 99.135141 
L 291.992487 99.135141 
L 292.028814 101.676353 
L 292.100998 99.135141 
L 292.20936 99.135141 
L 292.461702 94.052717 
L 292.605971 96.593929 
L 292.713981 96.593929 
L 292.858282 99.135141 
L 292.966562 99.135141 
L 293.111052 96.593929 
L 293.219027 96.593929 
L 293.363324 99.135141 
L 293.580135 99.135141 
L 293.760307 94.052717 
L 293.832449 94.052717 
L 294.012671 88.970294 
L 294.156968 88.970294 
L 294.301271 86.429082 
L 294.337431 86.429082 
L 294.481874 83.88787 
L 294.517718 83.88787 
L 294.662016 81.346659 
L 294.73417 81.346659 
L 294.878466 78.805447 
L 295.094912 78.805447 
L 295.239216 76.264235 
L 296.357578 76.264235 
L 296.502093 73.723023 
L 296.610052 73.723023 
L 296.75435 71.181812 
L 297.115095 71.181812 
L 297.259393 68.6406 
L 298.594452 68.6406 
L 298.738748 66.099388 
L 299.063136 66.099388 
L 299.207434 63.558176 
L 299.315952 63.558176 
L 299.46025 61.016965 
L 299.85678 61.016965 
L 300.001077 58.475753 
L 300.578273 58.475753 
L 300.758954 55.934541 
L 301.876969 55.934541 
L 302.021263 53.393329 
L 302.237715 53.393329 
L 302.382447 55.934541 
L 302.6348 55.934541 
L 302.779115 53.393329 
L 303.825004 53.393329 
L 303.969305 55.934541 
L 304.402205 55.934541 
L 304.582795 58.475753 
L 304.690798 58.475753 
L 304.835103 55.934541 
L 307.28819 55.934541 
L 307.432486 53.393329 
L 308.262443 53.393329 
L 308.406792 50.852118 
L 311.076328 50.852118 
L 311.184276 48.310906 
L 314.575307 48.310906 
L 314.719607 45.769694 
L 314.863906 48.310906 
L 314.972414 48.310906 
L 315.116674 45.769694 
L 316.848258 45.769694 
L 316.992643 48.310906 
L 317.894191 48.310906 
L 318.038777 45.769694 
L 319.986537 45.769694 
L 320.130835 48.310906 
L 321.429992 48.310906 
L 321.610163 45.769694 
L 330.664689 45.769694 
L 330.808988 43.228482 
L 335.210109 43.228482 
L 335.35441 45.769694 
L 335.715158 45.769694 
L 335.895761 48.310906 
L 337.483122 48.310906 
L 337.627398 50.852118 
L 338.09609 50.852118 
L 338.240392 53.393329 
L 338.312544 53.393329 
L 338.457218 55.934541 
L 338.673289 55.934541 
L 338.709489 53.393329 
L 338.781706 55.934541 
L 339.394784 55.934541 
L 339.539079 58.475753 
L 339.611228 58.475753 
L 339.755528 61.016965 
L 339.936046 61.016965 
L 340.080465 63.558176 
L 340.224736 63.558176 
L 340.40487 68.6406 
L 340.765619 68.6406 
L 340.909919 71.181812 
L 341.37913 71.181812 
L 341.523428 68.6406 
L 341.703559 68.6406 
L 341.739959 71.181812 
L 341.812091 68.6406 
L 342.064305 68.6406 
L 342.208605 86.429082 
L 342.425049 94.052717 
L 342.461398 94.052717 
L 342.641494 99.135141 
L 342.677774 99.135141 
L 342.930092 109.299988 
L 343.002243 109.299988 
L 343.146539 104.217564 
L 343.290836 109.299988 
L 343.507284 101.676353 
L 343.760079 111.8412 
L 343.86803 111.8412 
L 344.04864 114.382411 
L 344.084482 114.382411 
L 344.337219 124.547258 
L 344.481527 122.006047 
L 344.661668 127.08847 
L 344.697915 127.08847 
L 344.842341 129.629682 
L 344.878488 129.629682 
L 345.094556 122.006047 
L 345.130857 122.006047 
L 345.166708 119.464835 
L 345.311006 99.135141 
L 345.455305 91.511506 
L 345.491664 101.676353 
L 345.563813 99.135141 
L 345.635963 99.135141 
L 345.780224 101.676353 
L 346.141033 101.676353 
L 346.357456 109.299988 
L 346.429658 109.299988 
L 346.645747 101.676353 
L 346.718056 101.676353 
L 347.151033 124.547258 
L 347.223282 122.006047 
L 347.259026 124.547258 
L 347.439643 124.547258 
L 347.619769 119.464835 
L 347.728268 119.464835 
L 347.908368 111.8412 
L 348.088922 111.8412 
L 348.124812 109.299988 
L 348.161106 114.382411 
L 348.269116 114.382411 
L 348.449686 106.758776 
L 348.594004 109.299988 
L 348.630252 109.299988 
L 348.882638 104.217564 
L 348.954776 104.217564 
L 349.026952 106.758776 
L 349.062752 104.217564 
L 349.243259 99.135141 
L 349.748416 99.135141 
L 349.784245 96.593929 
L 349.928541 81.346659 
L 350.21714 81.346659 
L 350.397827 76.264235 
L 350.433586 76.264235 
L 350.577885 94.052717 
L 350.614174 94.052717 
L 350.722183 91.511506 
L 350.86648 94.052717 
L 351.010775 94.052717 
L 351.15508 76.264235 
L 352.021289 76.264235 
L 352.201505 73.723023 
L 352.81451 73.723023 
L 352.958806 71.181812 
L 353.103105 71.181812 
L 353.247405 68.6406 
L 353.644467 68.6406 
L 353.788746 66.099388 
L 354.510309 66.099388 
L 354.654604 63.558176 
L 355.159617 63.558176 
L 355.303897 61.016965 
L 355.664654 61.016965 
L 355.808921 58.475753 
L 355.989076 58.475753 
L 356.133368 55.934541 
L 356.277673 58.475753 
L 356.891111 58.475753 
L 357.035531 61.016965 
L 357.252008 61.016965 
L 357.396283 58.475753 
L 358.081397 58.475753 
L 358.26198 61.016965 
L 359.055702 61.016965 
L 359.199934 58.475753 
L 359.307941 58.475753 
L 359.416427 55.934541 
L 359.560538 58.475753 
L 359.668688 58.475753 
L 359.812985 61.016965 
L 360.029432 61.016965 
L 360.174213 63.558176 
L 361.183821 63.558176 
L 361.32812 61.016965 
L 362.266063 61.016965 
L 362.410363 63.558176 
L 364.46689 63.558176 
L 364.61122 61.016965 
L 364.791293 61.016965 
L 364.863439 58.475753 
L 365.044007 61.016965 
L 365.296336 61.016965 
L 365.440636 63.558176 
L 365.801375 63.558176 
L 365.945675 61.016965 
L 366.089974 63.558176 
L 366.162124 63.558176 
L 366.306413 61.016965 
L 366.667173 61.016965 
L 366.811467 58.475753 
L 366.883622 58.475753 
L 367.064159 55.934541 
L 367.460819 55.934541 
L 367.60548 53.393329 
L 367.821562 53.393329 
L 367.965857 50.852118 
L 368.507221 50.852118 
L 368.651486 48.310906 
L 369.408846 48.310906 
L 369.553148 45.769694 
L 369.841743 45.769694 
L 369.986042 48.310906 
L 370.382862 48.310906 
L 370.527389 50.852118 
L 370.851836 50.852118 
L 370.996497 53.393329 
L 371.176706 55.934541 
L 371.35688 55.934541 
L 371.501181 58.475753 
L 371.826035 58.475753 
L 371.970388 55.934541 
L 372.72772 55.934541 
L 372.872015 58.475753 
L 373.304911 58.475753 
L 373.449211 61.016965 
L 373.882105 61.016965 
L 374.026409 63.558176 
L 374.387153 63.558176 
L 374.56777 66.099388 
L 374.964346 66.099388 
L 375.109029 68.6406 
L 376.407336 68.6406 
L 376.587917 71.181812 
L 376.948732 71.181812 
L 377.093043 73.723023 
L 377.525908 73.723023 
L 377.670125 71.181812 
L 379.004716 71.181812 
L 379.076865 73.723023 
L 379.113158 71.181812 
L 379.473923 71.181812 
L 379.618236 68.6406 
L 380.086961 68.6406 
L 380.231257 71.181812 
L 380.700361 71.181812 
L 380.844842 73.723023 
L 380.95275 73.723023 
L 381.09705 76.264235 
L 381.638458 76.264235 
L 381.782741 78.805447 
L 382.107139 78.805447 
L 382.287813 83.88787 
L 382.323591 83.88787 
L 382.467889 86.429082 
L 382.684341 86.429082 
L 382.828634 88.970294 
L 382.972937 86.429082 
L 383.189387 86.429082 
L 383.36994 83.88787 
L 383.514328 83.88787 
L 383.658679 86.429082 
L 383.766582 86.429082 
L 384.019221 76.264235 
L 384.271627 76.264235 
L 384.415926 73.723023 
L 384.885124 73.723023 
L 385.029422 76.264235 
L 385.498173 76.264235 
L 385.642467 73.723023 
L 385.895265 73.723023 
L 386.039373 76.264235 
L 386.183752 76.264235 
L 386.328155 78.805447 
L 386.472435 78.805447 
L 386.688651 86.429082 
L 386.941158 86.429082 
L 387.085456 83.88787 
L 387.374053 83.88787 
L 387.518353 81.346659 
L 387.843323 81.346659 
L 388.023844 76.264235 
L 388.384152 76.264235 
L 388.42051 73.723023 
L 388.492679 76.264235 
L 388.744897 76.264235 
L 388.817048 73.723023 
L 388.853418 76.264235 
L 390.260042 76.264235 
L 390.40434 73.723023 
L 391.01784 73.723023 
L 391.162148 71.181812 
L 391.234356 71.181812 
L 391.342672 73.723023 
L 391.414881 73.723023 
L 391.558734 76.264235 
L 391.919481 76.264235 
L 392.064207 81.346659 
L 392.280225 81.346659 
L 392.460839 86.429082 
L 392.568823 86.429082 
L 392.713123 88.970294 
L 393.001725 88.970294 
L 393.146027 86.429082 
L 393.398791 86.429082 
L 393.615222 78.805447 
L 393.723216 78.805447 
L 393.867517 76.264235 
L 394.336731 76.264235 
L 394.372572 78.805447 
L 394.44472 76.264235 
L 395.130381 76.264235 
L 395.274733 73.723023 
L 395.346744 73.723023 
L 395.455222 71.181812 
L 396.392757 71.181812 
L 396.429101 73.723023 
L 396.501192 71.181812 
L 396.645549 71.181812 
L 396.789807 73.723023 
L 396.826057 73.723023 
L 397.006275 76.264235 
L 397.186405 76.264235 
L 397.40285 83.88787 
L 397.439227 83.88787 
L 397.583287 86.429082 
L 397.655595 86.429082 
L 397.835748 91.511506 
L 397.980046 91.511506 
L 398.124343 88.970294 
L 398.196982 88.970294 
L 398.521307 104.217564 
L 398.665728 106.758776 
L 398.701542 106.758776 
L 398.737887 104.217564 
L 398.810023 106.758776 
L 399.170799 124.547258 
L 399.459328 124.547258 
L 399.603435 127.08847 
L 399.675746 127.08847 
L 399.82008 129.629682 
L 399.855926 129.629682 
L 399.892087 127.08847 
L 400.036587 147.418164 
L 400.072375 147.418164 
L 400.108699 149.959376 
L 400.217103 137.253317 
L 400.43349 137.253317 
L 400.469442 134.712105 
L 400.577419 147.418164 
L 400.793864 139.794529 
L 400.974305 139.794529 
L 401.262953 152.500588 
L 401.515356 152.500588 
L 401.623586 160.124223 
L 401.803951 157.583011 
L 401.912259 152.500588 
L 402.092545 152.500588 
L 402.164697 157.583011 
L 402.237212 155.041799 
L 402.417488 157.583011 
L 402.453291 157.583011 
L 402.561732 152.500588 
L 402.597591 155.041799 
L 402.669739 155.041799 
L 402.706119 152.500588 
L 402.741888 155.041799 
L 402.886183 157.583011 
L 403.066767 157.583011 
L 403.138944 152.500588 
L 403.174781 155.041799 
L 403.246927 157.583011 
L 403.28326 155.041799 
L 403.427527 152.500588 
L 403.463375 152.500588 
L 403.60811 149.959376 
L 403.643736 149.959376 
L 403.788355 152.500588 
L 403.860439 152.500588 
L 404.185296 167.747858 
L 404.401306 160.124223 
L 404.545605 165.206646 
L 404.689904 162.665435 
L 404.72632 165.206646 
L 404.798405 162.665435 
L 404.978888 157.583011 
L 405.19495 165.206646 
L 405.231229 165.206646 
L 405.2671 162.665435 
L 405.33925 165.206646 
L 405.591972 165.206646 
L 405.91644 157.583011 
L 406.083986 157.583011 
L 406.132881 160.124223 
L 406.169235 157.583011 
L 406.205412 157.583011 
L 406.457789 152.500588 
L 406.854367 152.500588 
L 406.998666 149.959376 
L 408.008753 137.253317 
L 408.15305 139.794529 
L 408.189415 137.253317 
L 408.225653 139.794529 
L 408.405828 142.335741 
L 408.5138 142.335741 
L 408.622274 147.418164 
L 408.658099 144.876952 
L 408.947063 144.876952 
L 409.090994 152.500588 
L 409.127319 152.500588 
L 409.199427 160.124223 
L 409.235285 152.500588 
L 409.343721 152.500588 
L 409.523885 147.418164 
L 409.848806 147.418164 
L 409.956776 144.876952 
L 410.137296 149.959376 
L 410.173225 149.959376 
L 410.389671 142.335741 
L 410.714612 157.583011 
L 410.750415 157.583011 
L 410.89471 162.665435 
L 411.002963 162.665435 
L 411.183306 167.747858 
L 411.291646 167.747858 
L 411.363913 170.28907 
L 411.399752 167.747858 
L 411.436065 165.206646 
L 411.508078 167.747858 
L 411.544045 167.747858 
L 411.580379 165.206646 
L 411.616628 167.747858 
L 411.688344 170.28907 
L 411.724555 167.747858 
L 411.832645 167.747858 
L 412.013267 172.830282 
L 412.04909 172.830282 
L 412.193387 170.28907 
L 412.265534 170.28907 
L 412.481981 165.206646 
L 412.518317 167.747858 
L 412.662606 152.500588 
L 412.914878 152.500588 
L 413.095402 149.959376 
L 413.203464 149.959376 
L 413.31192 144.876952 
L 413.347767 147.418164 
L 413.384132 147.418164 
L 413.528416 144.876952 
L 413.600538 144.876952 
L 413.636809 147.418164 
L 413.708512 144.876952 
L 413.780662 144.876952 
L 413.88919 142.335741 
L 414.105545 149.959376 
L 414.213553 149.959376 
L 414.285703 147.418164 
L 414.393982 152.500588 
L 414.466291 149.959376 
L 414.538499 149.959376 
L 414.646446 152.500588 
L 414.827083 147.418164 
L 415.115572 147.418164 
L 415.295788 152.500588 
L 415.367935 152.500588 
L 415.548521 147.418164 
L 415.728682 147.418164 
L 415.909155 142.335741 
L 415.981471 142.335741 
L 416.16157 147.418164 
L 416.23372 147.418164 
L 416.378399 142.335741 
L 416.70297 142.335741 
L 416.847141 139.794529 
L 416.955209 142.335741 
L 417.3523 122.006047 
L 417.42449 122.006047 
L 417.568646 106.758776 
L 417.785005 106.758776 
L 417.893152 104.217564 
L 421.572763 96.593929 
L 421.609052 96.593929 
L 421.753356 94.052717 
L 421.789207 94.052717 
L 421.933807 91.511506 
L 422.258406 91.511506 
L 422.402713 88.970294 
L 422.871449 88.970294 
L 423.015744 91.511506 
L 423.232194 91.511506 
L 423.376491 94.052717 
L 423.412696 94.052717 
L 423.593359 88.970294 
L 423.773478 88.970294 
L 423.953682 83.88787 
L 424.13425 81.346659 
L 424.242276 81.346659 
L 424.386574 78.805447 
L 424.530878 81.346659 
L 424.711255 81.346659 
L 424.855798 78.805447 
L 425.180215 78.805447 
L 425.324946 76.264235 
L 425.577274 76.264235 
L 425.757411 81.346659 
L 425.829562 81.346659 
L 425.97386 83.88787 
L 426.659492 83.88787 
L 426.803749 86.429082 
L 427.921899 86.429082 
L 428.066196 83.88787 
L 428.102433 83.88787 
L 428.28297 78.805447 
L 428.390995 78.805447 
L 428.535272 76.264235 
L 429.256778 76.264235 
L 429.401167 78.805447 
L 429.545453 76.264235 
L 429.653826 76.264235 
L 429.79778 78.805447 
L 429.906166 78.805447 
L 430.050525 76.264235 
L 430.122625 76.264235 
L 430.266927 73.723023 
L 430.771966 73.723023 
L 430.916307 76.264235 
L 431.385066 76.264235 
L 431.529361 73.723023 
L 432.323006 73.723023 
L 432.503551 76.264235 
L 433.765995 76.264235 
L 433.910296 78.805447 
L 434.631788 78.805447 
L 434.776089 81.346659 
L 434.920387 81.346659 
L 434.992538 83.88787 
L 435.028813 81.346659 
L 435.065068 81.346659 
L 435.245292 83.88787 
L 435.678243 83.88787 
L 435.858325 78.805447 
L 435.894616 78.805447 
L 436.038878 76.264235 
L 436.183238 78.805447 
L 436.219074 78.805447 
L 436.363375 76.264235 
L 436.976787 76.264235 
L 437.085237 78.805447 
L 437.193179 78.805447 
L 437.301316 81.346659 
L 437.481871 76.264235 
L 439.069159 76.264235 
L 439.213328 73.723023 
L 439.86261 73.723023 
L 440.007134 76.264235 
L 440.042996 76.264235 
L 440.187292 73.723023 
L 441.630282 73.723023 
L 441.738738 71.181812 
L 441.847122 73.723023 
L 442.604354 73.723023 
L 442.748787 76.264235 
L 443.722615 76.264235 
L 443.83109 73.723023 
L 443.975225 76.264235 
L 444.444111 76.264235 
L 444.588765 78.805447 
L 444.877003 78.805447 
L 445.0213 76.264235 
L 445.67065 76.264235 
L 445.814946 73.723023 
L 445.995371 73.723023 
L 446.13979 76.264235 
L 447.835123 76.264235 
L 447.979817 73.723023 
L 448.123725 76.264235 
L 448.30432 76.264235 
L 448.448582 73.723023 
L 448.520788 73.723023 
L 448.629037 71.181812 
L 448.917369 71.181812 
L 449.061664 68.6406 
L 449.170152 68.6406 
L 449.278113 66.099388 
L 449.458688 66.099388 
L 449.602996 63.558176 
L 450 63.558176 
L 450 63.558176 
" clip-path="url(#pdfa11593a7)" style="fill: none; stroke: #ff7f0e; stroke-width: 1.5; stroke-linecap: square"/>
   </g>
   <g id="patch_3">
    <path d="M 51.05 279.561175 
L 51.05 25.44 
" style="fill: none; stroke: #000000; stroke-width: 0.8; stroke-linejoin: miter; stroke-linecap: square"/>
   </g>
   <g id="patch_4">
    <path d="M 450 279.561175 
L 450 25.44 
" style="fill: none; stroke: #000000; stroke-width: 0.8; stroke-linejoin: miter; stroke-linecap: square"/>
   </g>
   <g id="patch_5">
    <path d="M 51.05 279.561175 
L 450 279.561175 
" style="fill: none; stroke: #000000; stroke-width: 0.8; stroke-linejoin: miter; stroke-linecap: square"/>
   </g>
   <g id="patch_6">
    <path d="M 51.05 25.44 
L 450 25.44 
" style="fill: none; stroke: #000000; stroke-width: 0.8; stroke-linejoin: miter; stroke-linecap: square"/>
   </g>
   <g id="text_14">
    <!-- November 2023 -->
    <g transform="translate(202.133125 19.44) scale(0.12 -0.12)">
     <defs>
      <path id="DejaVuSans-4e" d="M 628 4666 
L 1478 4666 
L 3547 763 
L 3547 4666 
L 4159 4666 
L 4159 0 
L 3309 0 
L 1241 3903 
L 1241 0 
L 628 0 
L 628 4666 
z
" transform="scale(0.015625)"/>
      <path id="DejaVuSans-6f" d="M 1959 3097 
Q 1497 3097 1228 2736 
Q 959 2375 959 1747 
Q 959 1119 1226 758 
Q 1494 397 1959 397 
Q 2419 397 2687 759 
Q 2956 1122 2956 1747 
Q 2956 2369 2687 2733 
Q 2419 3097 1959 3097 
z
M 1959 3584 
Q 2709 3584 3137 3096 
Q 3566 2609 3566 1747 
Q 3566 888 3137 398 
Q 2709 -91 1959 -91 
Q 1206 -91 779 398 
Q 353 888 353 1747 
Q 353 2609 779 3096 
Q 1206 3584 1959 3584 
z
" transform="scale(0.015625)"/>
      <path id="DejaVuSans-76" d="M 191 3500 
L 800 3500 
L 1894 563 
L 2988 3500 
L 3597 3500 
L 2284 0 
L 1503 0 
L 191 3500 
z
" transform="scale(0.015625)"/>
      <path id="DejaVuSans-65" d="M 3597 1894 
L 3597 1613 
L 953 1613 
Q 991 1019 1311 708 
Q 1631 397 2203 397 
Q 2534 397 2845 478 
Q 3156 559 3463 722 
L 3463 178 
Q 3153 47 2828 -22 
Q 2503 -91 2169 -91 
Q 1331 -91 842 396 
Q 353 884 353 1716 
Q 353 2575 817 3079 
Q 1281 3584 2069 3584 
Q 2775 3584 3186 3129 
Q 3597 2675 3597 1894 
z
M 3022 2063 
Q 3016 2534 2758 2815 
Q 2500 3097 2075 3097 
Q 1594 3097 1305 2825 
Q 1016 2553 972 2059 
L 3022 2063 
z
" transform="scale(0.015625)"/>
      <path id="DejaVuSans-62" d="M 3116 1747 
Q 3116 2381 2855 2742 
Q 2594 3103 2138 3103 
Q 1681 3103 1420 2742 
Q 1159 2381 1159 1747 
Q 1159 1113 1420 752 
Q 1681 391 2138 391 
Q 2594 391 2855 752 
Q 3116 1113 3116 1747 
z
M 1159 2969 
Q 1341 3281 1617 3432 
Q 1894 3584 2278 3584 
Q 2916 3584 3314 3078 
Q 3713 2572 3713 1747 
Q 3713 922 3314 415 
Q 2916 -91 2278 -91 
Q 1894 -91 1617 61 
Q 1341 213 1159 525 
L 1159 0 
L 581 0 
L 581 4863 
L 1159 4863 
L 1159 2969 
z
" transform="scale(0.015625)"/>
      <path id="DejaVuSans-72" d="M 2631 2963 
Q 2534 3019 2420 3045 
Q 2306 3072 2169 3072 
Q 1681 3072 1420 2755 
Q 1159 2438 1159 1844 
L 1159 0 
L 581 0 
L 581 3500 
L 1159 3500 
L 1159 2956 
Q 1341 3275 1631 3429 
Q 1922 3584 2338 3584 
Q 2397 3584 2469 3576 
Q 2541 3569 2628 3553 
L 2631 2963 
z
" transform="scale(0.015625)"/>
     </defs>
     <use xlink:href="#DejaVuSans-4e"/>
     <use xlink:href="#DejaVuSans-6f" x="74.804688"/>
     <use xlink:href="#DejaVuSans-76" x="135.986328"/>
     <use xlink:href="#DejaVuSans-65" x="195.166016"/>
     <use xlink:href="#DejaVuSans-6d" x="256.689453"/>
     <use xlink:href="#DejaVuSans-62" x="354.101562"/>
     <use xlink:href="#DejaVuSans-65" x="417.578125"/>
     <use xlink:href="#DejaVuSans-72" x="479.101562"/>
     <use xlink:href="#DejaVuSans-20" x="520.214844"/>
     <use xlink:href="#DejaVuSans-32" x="552.001953"/>
     <use xlink:href="#DejaVuSans-30" x="615.625"/>
     <use xlink:href="#DejaVuSans-32" x="679.248047"/>
     <use xlink:href="#DejaVuSans-33" x="742.871094"/>
    </g>
   </g>
  </g>
 </g>
 <defs>
  <clipPath id="pdfa11593a7">
   <rect x="51.05" y="25.44" width="398.95" height="254.121175"/>
  </clipPath>
 </defs>
</svg>
