<?xml version="1.0" encoding="utf-8" standalone="no"?>
<!DOCTYPE svg PUBLIC "-//W3C//DTD SVG 1.1//EN"
  "http://www.w3.org/Graphics/SVG/1.1/DTD/svg11.dtd">
<svg xmlns:xlink="http://www.w3.org/1999/xlink" width="460.8pt" height="345.6pt" viewBox="0 0 460.8 345.6" xmlns="http://www.w3.org/2000/svg" version="1.1">
 <metadata>
  <rdf:RDF xmlns:dc="http://purl.org/dc/elements/1.1/" xmlns:cc="http://creativecommons.org/ns#" xmlns:rdf="http://www.w3.org/1999/02/22-rdf-syntax-ns#">
   <cc:Work>
    <dc:type rdf:resource="http://purl.org/dc/dcmitype/StillImage"/>
    <dc:date>2023-11-06T19:12:01.224878</dc:date>
    <dc:format>image/svg+xml</dc:format>
    <dc:creator>
     <cc:Agent>
      <dc:title>Matplotlib v3.6.3, https://matplotlib.org/</dc:title>
     </cc:Agent>
    </dc:creator>
   </cc:Work>
  </rdf:RDF>
 </metadata>
 <defs>
  <style type="text/css">*{stroke-linejoin: round; stroke-linecap: butt}</style>
 </defs>
 <g id="figure_1">
  <g id="patch_1">
   <path d="M 0 345.6 
L 460.8 345.6 
L 460.8 0 
L 0 0 
z
" style="fill: #ffffff"/>
  </g>
  <g id="axes_1">
   <g id="patch_2">
    <path d="M 46.46 279.561175 
L 450 279.561175 
L 450 25.44 
L 46.46 25.44 
z
" style="fill: #ffffff"/>
   </g>
   <g id="matplotlib.axis_1">
    <g id="xtick_1">
     <g id="line2d_1">
      <path d="M 116.019511 279.561175 
L 116.019511 25.44 
" clip-path="url(#p6b5f30f38a)" style="fill: none; stroke: #b0b0b0; stroke-width: 0.8; stroke-linecap: square"/>
     </g>
     <g id="line2d_2">
      <defs>
       <path id="m9a3f198691" d="M 0 0 
L 0 3.5 
" style="stroke: #000000; stroke-width: 0.8"/>
      </defs>
      <g>
       <use xlink:href="#m9a3f198691" x="116.019511" y="279.561175" style="stroke: #000000; stroke-width: 0.8"/>
      </g>
     </g>
     <g id="text_1">
      <!-- 2023-11-02 -->
      <g transform="translate(73.454998 333.028035) rotate(-45) scale(0.1 -0.1)">
       <defs>
        <path id="DejaVuSans-32" d="M 1228 531 
L 3431 531 
L 3431 0 
L 469 0 
L 469 531 
Q 828 903 1448 1529 
Q 2069 2156 2228 2338 
Q 2531 2678 2651 2914 
Q 2772 3150 2772 3378 
Q 2772 3750 2511 3984 
Q 2250 4219 1831 4219 
Q 1534 4219 1204 4116 
Q 875 4013 500 3803 
L 500 4441 
Q 881 4594 1212 4672 
Q 1544 4750 1819 4750 
Q 2544 4750 2975 4387 
Q 3406 4025 3406 3419 
Q 3406 3131 3298 2873 
Q 3191 2616 2906 2266 
Q 2828 2175 2409 1742 
Q 1991 1309 1228 531 
z
" transform="scale(0.015625)"/>
        <path id="DejaVuSans-30" d="M 2034 4250 
Q 1547 4250 1301 3770 
Q 1056 3291 1056 2328 
Q 1056 1369 1301 889 
Q 1547 409 2034 409 
Q 2525 409 2770 889 
Q 3016 1369 3016 2328 
Q 3016 3291 2770 3770 
Q 2525 4250 2034 4250 
z
M 2034 4750 
Q 2819 4750 3233 4129 
Q 3647 3509 3647 2328 
Q 3647 1150 3233 529 
Q 2819 -91 2034 -91 
Q 1250 -91 836 529 
Q 422 1150 422 2328 
Q 422 3509 836 4129 
Q 1250 4750 2034 4750 
z
" transform="scale(0.015625)"/>
        <path id="DejaVuSans-33" d="M 2597 2516 
Q 3050 2419 3304 2112 
Q 3559 1806 3559 1356 
Q 3559 666 3084 287 
Q 2609 -91 1734 -91 
Q 1441 -91 1130 -33 
Q 819 25 488 141 
L 488 750 
Q 750 597 1062 519 
Q 1375 441 1716 441 
Q 2309 441 2620 675 
Q 2931 909 2931 1356 
Q 2931 1769 2642 2001 
Q 2353 2234 1838 2234 
L 1294 2234 
L 1294 2753 
L 1863 2753 
Q 2328 2753 2575 2939 
Q 2822 3125 2822 3475 
Q 2822 3834 2567 4026 
Q 2313 4219 1838 4219 
Q 1578 4219 1281 4162 
Q 984 4106 628 3988 
L 628 4550 
Q 988 4650 1302 4700 
Q 1616 4750 1894 4750 
Q 2613 4750 3031 4423 
Q 3450 4097 3450 3541 
Q 3450 3153 3228 2886 
Q 3006 2619 2597 2516 
z
" transform="scale(0.015625)"/>
        <path id="DejaVuSans-2d" d="M 313 2009 
L 1997 2009 
L 1997 1497 
L 313 1497 
L 313 2009 
z
" transform="scale(0.015625)"/>
        <path id="DejaVuSans-31" d="M 794 531 
L 1825 531 
L 1825 4091 
L 703 3866 
L 703 4441 
L 1819 4666 
L 2450 4666 
L 2450 531 
L 3481 531 
L 3481 0 
L 794 0 
L 794 531 
z
" transform="scale(0.015625)"/>
       </defs>
       <use xlink:href="#DejaVuSans-32"/>
       <use xlink:href="#DejaVuSans-30" x="63.623047"/>
       <use xlink:href="#DejaVuSans-32" x="127.246094"/>
       <use xlink:href="#DejaVuSans-33" x="190.869141"/>
       <use xlink:href="#DejaVuSans-2d" x="254.492188"/>
       <use xlink:href="#DejaVuSans-31" x="290.576172"/>
       <use xlink:href="#DejaVuSans-31" x="354.199219"/>
       <use xlink:href="#DejaVuSans-2d" x="417.822266"/>
       <use xlink:href="#DejaVuSans-30" x="453.90625"/>
       <use xlink:href="#DejaVuSans-32" x="517.529297"/>
      </g>
     </g>
    </g>
    <g id="xtick_2">
     <g id="line2d_3">
      <path d="M 185.616049 279.561175 
L 185.616049 25.44 
" clip-path="url(#p6b5f30f38a)" style="fill: none; stroke: #b0b0b0; stroke-width: 0.8; stroke-linecap: square"/>
     </g>
     <g id="line2d_4">
      <g>
       <use xlink:href="#m9a3f198691" x="185.616049" y="279.561175" style="stroke: #000000; stroke-width: 0.8"/>
      </g>
     </g>
     <g id="text_2">
      <!-- 2023-11-03 -->
      <g transform="translate(143.051535 333.028035) rotate(-45) scale(0.1 -0.1)">
       <use xlink:href="#DejaVuSans-32"/>
       <use xlink:href="#DejaVuSans-30" x="63.623047"/>
       <use xlink:href="#DejaVuSans-32" x="127.246094"/>
       <use xlink:href="#DejaVuSans-33" x="190.869141"/>
       <use xlink:href="#DejaVuSans-2d" x="254.492188"/>
       <use xlink:href="#DejaVuSans-31" x="290.576172"/>
       <use xlink:href="#DejaVuSans-31" x="354.199219"/>
       <use xlink:href="#DejaVuSans-2d" x="417.822266"/>
       <use xlink:href="#DejaVuSans-30" x="453.90625"/>
       <use xlink:href="#DejaVuSans-33" x="517.529297"/>
      </g>
     </g>
    </g>
    <g id="xtick_3">
     <g id="line2d_5">
      <path d="M 255.212586 279.561175 
L 255.212586 25.44 
" clip-path="url(#p6b5f30f38a)" style="fill: none; stroke: #b0b0b0; stroke-width: 0.8; stroke-linecap: square"/>
     </g>
     <g id="line2d_6">
      <g>
       <use xlink:href="#m9a3f198691" x="255.212586" y="279.561175" style="stroke: #000000; stroke-width: 0.8"/>
      </g>
     </g>
     <g id="text_3">
      <!-- 2023-11-04 -->
      <g transform="translate(212.648072 333.028035) rotate(-45) scale(0.1 -0.1)">
       <defs>
        <path id="DejaVuSans-34" d="M 2419 4116 
L 825 1625 
L 2419 1625 
L 2419 4116 
z
M 2253 4666 
L 3047 4666 
L 3047 1625 
L 3713 1625 
L 3713 1100 
L 3047 1100 
L 3047 0 
L 2419 0 
L 2419 1100 
L 313 1100 
L 313 1709 
L 2253 4666 
z
" transform="scale(0.015625)"/>
       </defs>
       <use xlink:href="#DejaVuSans-32"/>
       <use xlink:href="#DejaVuSans-30" x="63.623047"/>
       <use xlink:href="#DejaVuSans-32" x="127.246094"/>
       <use xlink:href="#DejaVuSans-33" x="190.869141"/>
       <use xlink:href="#DejaVuSans-2d" x="254.492188"/>
       <use xlink:href="#DejaVuSans-31" x="290.576172"/>
       <use xlink:href="#DejaVuSans-31" x="354.199219"/>
       <use xlink:href="#DejaVuSans-2d" x="417.822266"/>
       <use xlink:href="#DejaVuSans-30" x="453.90625"/>
       <use xlink:href="#DejaVuSans-34" x="517.529297"/>
      </g>
     </g>
    </g>
    <g id="xtick_4">
     <g id="line2d_7">
      <path d="M 324.809123 279.561175 
L 324.809123 25.44 
" clip-path="url(#p6b5f30f38a)" style="fill: none; stroke: #b0b0b0; stroke-width: 0.8; stroke-linecap: square"/>
     </g>
     <g id="line2d_8">
      <g>
       <use xlink:href="#m9a3f198691" x="324.809123" y="279.561175" style="stroke: #000000; stroke-width: 0.8"/>
      </g>
     </g>
     <g id="text_4">
      <!-- 2023-11-05 -->
      <g transform="translate(282.244609 333.028035) rotate(-45) scale(0.1 -0.1)">
       <defs>
        <path id="DejaVuSans-35" d="M 691 4666 
L 3169 4666 
L 3169 4134 
L 1269 4134 
L 1269 2991 
Q 1406 3038 1543 3061 
Q 1681 3084 1819 3084 
Q 2600 3084 3056 2656 
Q 3513 2228 3513 1497 
Q 3513 744 3044 326 
Q 2575 -91 1722 -91 
Q 1428 -91 1123 -41 
Q 819 9 494 109 
L 494 744 
Q 775 591 1075 516 
Q 1375 441 1709 441 
Q 2250 441 2565 725 
Q 2881 1009 2881 1497 
Q 2881 1984 2565 2268 
Q 2250 2553 1709 2553 
Q 1456 2553 1204 2497 
Q 953 2441 691 2322 
L 691 4666 
z
" transform="scale(0.015625)"/>
       </defs>
       <use xlink:href="#DejaVuSans-32"/>
       <use xlink:href="#DejaVuSans-30" x="63.623047"/>
       <use xlink:href="#DejaVuSans-32" x="127.246094"/>
       <use xlink:href="#DejaVuSans-33" x="190.869141"/>
       <use xlink:href="#DejaVuSans-2d" x="254.492188"/>
       <use xlink:href="#DejaVuSans-31" x="290.576172"/>
       <use xlink:href="#DejaVuSans-31" x="354.199219"/>
       <use xlink:href="#DejaVuSans-2d" x="417.822266"/>
       <use xlink:href="#DejaVuSans-30" x="453.90625"/>
       <use xlink:href="#DejaVuSans-35" x="517.529297"/>
      </g>
     </g>
    </g>
    <g id="xtick_5">
     <g id="line2d_9">
      <path d="M 394.40566 279.561175 
L 394.40566 25.44 
" clip-path="url(#p6b5f30f38a)" style="fill: none; stroke: #b0b0b0; stroke-width: 0.8; stroke-linecap: square"/>
     </g>
     <g id="line2d_10">
      <g>
       <use xlink:href="#m9a3f198691" x="394.40566" y="279.561175" style="stroke: #000000; stroke-width: 0.8"/>
      </g>
     </g>
     <g id="text_5">
      <!-- 2023-11-06 -->
      <g transform="translate(351.841147 333.028035) rotate(-45) scale(0.1 -0.1)">
       <defs>
        <path id="DejaVuSans-36" d="M 2113 2584 
Q 1688 2584 1439 2293 
Q 1191 2003 1191 1497 
Q 1191 994 1439 701 
Q 1688 409 2113 409 
Q 2538 409 2786 701 
Q 3034 994 3034 1497 
Q 3034 2003 2786 2293 
Q 2538 2584 2113 2584 
z
M 3366 4563 
L 3366 3988 
Q 3128 4100 2886 4159 
Q 2644 4219 2406 4219 
Q 1781 4219 1451 3797 
Q 1122 3375 1075 2522 
Q 1259 2794 1537 2939 
Q 1816 3084 2150 3084 
Q 2853 3084 3261 2657 
Q 3669 2231 3669 1497 
Q 3669 778 3244 343 
Q 2819 -91 2113 -91 
Q 1303 -91 875 529 
Q 447 1150 447 2328 
Q 447 3434 972 4092 
Q 1497 4750 2381 4750 
Q 2619 4750 2861 4703 
Q 3103 4656 3366 4563 
z
" transform="scale(0.015625)"/>
       </defs>
       <use xlink:href="#DejaVuSans-32"/>
       <use xlink:href="#DejaVuSans-30" x="63.623047"/>
       <use xlink:href="#DejaVuSans-32" x="127.246094"/>
       <use xlink:href="#DejaVuSans-33" x="190.869141"/>
       <use xlink:href="#DejaVuSans-2d" x="254.492188"/>
       <use xlink:href="#DejaVuSans-31" x="290.576172"/>
       <use xlink:href="#DejaVuSans-31" x="354.199219"/>
       <use xlink:href="#DejaVuSans-2d" x="417.822266"/>
       <use xlink:href="#DejaVuSans-30" x="453.90625"/>
       <use xlink:href="#DejaVuSans-36" x="517.529297"/>
      </g>
     </g>
    </g>
   </g>
   <g id="matplotlib.axis_2">
    <g id="ytick_1">
     <g id="line2d_11">
      <path d="M 46.46 253.008963 
L 450 253.008963 
" clip-path="url(#p6b5f30f38a)" style="fill: none; stroke: #b0b0b0; stroke-width: 0.8; stroke-linecap: square"/>
     </g>
     <g id="line2d_12">
      <defs>
       <path id="mc30d0e4b03" d="M 0 0 
L -3.5 0 
" style="stroke: #000000; stroke-width: 0.8"/>
      </defs>
      <g>
       <use xlink:href="#mc30d0e4b03" x="46.46" y="253.008963" style="stroke: #000000; stroke-width: 0.8"/>
      </g>
     </g>
     <g id="text_6">
      <!-- 0 -->
      <g transform="translate(33.0975 256.808182) scale(0.1 -0.1)">
       <use xlink:href="#DejaVuSans-30"/>
      </g>
     </g>
    </g>
    <g id="ytick_2">
     <g id="line2d_13">
      <path d="M 46.46 223.006463 
L 450 223.006463 
" clip-path="url(#p6b5f30f38a)" style="fill: none; stroke: #b0b0b0; stroke-width: 0.8; stroke-linecap: square"/>
     </g>
     <g id="line2d_14">
      <g>
       <use xlink:href="#mc30d0e4b03" x="46.46" y="223.006463" style="stroke: #000000; stroke-width: 0.8"/>
      </g>
     </g>
     <g id="text_7">
      <!-- 2 -->
      <g transform="translate(33.0975 226.805682) scale(0.1 -0.1)">
       <use xlink:href="#DejaVuSans-32"/>
      </g>
     </g>
    </g>
    <g id="ytick_3">
     <g id="line2d_15">
      <path d="M 46.46 193.003963 
L 450 193.003963 
" clip-path="url(#p6b5f30f38a)" style="fill: none; stroke: #b0b0b0; stroke-width: 0.8; stroke-linecap: square"/>
     </g>
     <g id="line2d_16">
      <g>
       <use xlink:href="#mc30d0e4b03" x="46.46" y="193.003963" style="stroke: #000000; stroke-width: 0.8"/>
      </g>
     </g>
     <g id="text_8">
      <!-- 4 -->
      <g transform="translate(33.0975 196.803182) scale(0.1 -0.1)">
       <use xlink:href="#DejaVuSans-34"/>
      </g>
     </g>
    </g>
    <g id="ytick_4">
     <g id="line2d_17">
      <path d="M 46.46 163.001463 
L 450 163.001463 
" clip-path="url(#p6b5f30f38a)" style="fill: none; stroke: #b0b0b0; stroke-width: 0.8; stroke-linecap: square"/>
     </g>
     <g id="line2d_18">
      <g>
       <use xlink:href="#mc30d0e4b03" x="46.46" y="163.001463" style="stroke: #000000; stroke-width: 0.8"/>
      </g>
     </g>
     <g id="text_9">
      <!-- 6 -->
      <g transform="translate(33.0975 166.800681) scale(0.1 -0.1)">
       <use xlink:href="#DejaVuSans-36"/>
      </g>
     </g>
    </g>
    <g id="ytick_5">
     <g id="line2d_19">
      <path d="M 46.46 132.998963 
L 450 132.998963 
" clip-path="url(#p6b5f30f38a)" style="fill: none; stroke: #b0b0b0; stroke-width: 0.8; stroke-linecap: square"/>
     </g>
     <g id="line2d_20">
      <g>
       <use xlink:href="#mc30d0e4b03" x="46.46" y="132.998963" style="stroke: #000000; stroke-width: 0.8"/>
      </g>
     </g>
     <g id="text_10">
      <!-- 8 -->
      <g transform="translate(33.0975 136.798181) scale(0.1 -0.1)">
       <defs>
        <path id="DejaVuSans-38" d="M 2034 2216 
Q 1584 2216 1326 1975 
Q 1069 1734 1069 1313 
Q 1069 891 1326 650 
Q 1584 409 2034 409 
Q 2484 409 2743 651 
Q 3003 894 3003 1313 
Q 3003 1734 2745 1975 
Q 2488 2216 2034 2216 
z
M 1403 2484 
Q 997 2584 770 2862 
Q 544 3141 544 3541 
Q 544 4100 942 4425 
Q 1341 4750 2034 4750 
Q 2731 4750 3128 4425 
Q 3525 4100 3525 3541 
Q 3525 3141 3298 2862 
Q 3072 2584 2669 2484 
Q 3125 2378 3379 2068 
Q 3634 1759 3634 1313 
Q 3634 634 3220 271 
Q 2806 -91 2034 -91 
Q 1263 -91 848 271 
Q 434 634 434 1313 
Q 434 1759 690 2068 
Q 947 2378 1403 2484 
z
M 1172 3481 
Q 1172 3119 1398 2916 
Q 1625 2713 2034 2713 
Q 2441 2713 2670 2916 
Q 2900 3119 2900 3481 
Q 2900 3844 2670 4047 
Q 2441 4250 2034 4250 
Q 1625 4250 1398 4047 
Q 1172 3844 1172 3481 
z
" transform="scale(0.015625)"/>
       </defs>
       <use xlink:href="#DejaVuSans-38"/>
      </g>
     </g>
    </g>
    <g id="ytick_6">
     <g id="line2d_21">
      <path d="M 46.46 102.996463 
L 450 102.996463 
" clip-path="url(#p6b5f30f38a)" style="fill: none; stroke: #b0b0b0; stroke-width: 0.8; stroke-linecap: square"/>
     </g>
     <g id="line2d_22">
      <g>
       <use xlink:href="#mc30d0e4b03" x="46.46" y="102.996463" style="stroke: #000000; stroke-width: 0.8"/>
      </g>
     </g>
     <g id="text_11">
      <!-- 10 -->
      <g transform="translate(26.735 106.795681) scale(0.1 -0.1)">
       <use xlink:href="#DejaVuSans-31"/>
       <use xlink:href="#DejaVuSans-30" x="63.623047"/>
      </g>
     </g>
    </g>
    <g id="ytick_7">
     <g id="line2d_23">
      <path d="M 46.46 72.993963 
L 450 72.993963 
" clip-path="url(#p6b5f30f38a)" style="fill: none; stroke: #b0b0b0; stroke-width: 0.8; stroke-linecap: square"/>
     </g>
     <g id="line2d_24">
      <g>
       <use xlink:href="#mc30d0e4b03" x="46.46" y="72.993963" style="stroke: #000000; stroke-width: 0.8"/>
      </g>
     </g>
     <g id="text_12">
      <!-- 12 -->
      <g transform="translate(26.735 76.793181) scale(0.1 -0.1)">
       <use xlink:href="#DejaVuSans-31"/>
       <use xlink:href="#DejaVuSans-32" x="63.623047"/>
      </g>
     </g>
    </g>
    <g id="ytick_8">
     <g id="line2d_25">
      <path d="M 46.46 42.991463 
L 450 42.991463 
" clip-path="url(#p6b5f30f38a)" style="fill: none; stroke: #b0b0b0; stroke-width: 0.8; stroke-linecap: square"/>
     </g>
     <g id="line2d_26">
      <g>
       <use xlink:href="#mc30d0e4b03" x="46.46" y="42.991463" style="stroke: #000000; stroke-width: 0.8"/>
      </g>
     </g>
     <g id="text_13">
      <!-- 14 -->
      <g transform="translate(26.735 46.790681) scale(0.1 -0.1)">
       <use xlink:href="#DejaVuSans-31"/>
       <use xlink:href="#DejaVuSans-34" x="63.623047"/>
      </g>
     </g>
    </g>
    <g id="text_14">
     <!-- Temperature [°C] -->
     <g transform="translate(20.655313 199.072463) rotate(-90) scale(0.1 -0.1)">
      <defs>
       <path id="DejaVuSans-54" d="M -19 4666 
L 3928 4666 
L 3928 4134 
L 2272 4134 
L 2272 0 
L 1638 0 
L 1638 4134 
L -19 4134 
L -19 4666 
z
" transform="scale(0.015625)"/>
       <path id="DejaVuSans-65" d="M 3597 1894 
L 3597 1613 
L 953 1613 
Q 991 1019 1311 708 
Q 1631 397 2203 397 
Q 2534 397 2845 478 
Q 3156 559 3463 722 
L 3463 178 
Q 3153 47 2828 -22 
Q 2503 -91 2169 -91 
Q 1331 -91 842 396 
Q 353 884 353 1716 
Q 353 2575 817 3079 
Q 1281 3584 2069 3584 
Q 2775 3584 3186 3129 
Q 3597 2675 3597 1894 
z
M 3022 2063 
Q 3016 2534 2758 2815 
Q 2500 3097 2075 3097 
Q 1594 3097 1305 2825 
Q 1016 2553 972 2059 
L 3022 2063 
z
" transform="scale(0.015625)"/>
       <path id="DejaVuSans-6d" d="M 3328 2828 
Q 3544 3216 3844 3400 
Q 4144 3584 4550 3584 
Q 5097 3584 5394 3201 
Q 5691 2819 5691 2113 
L 5691 0 
L 5113 0 
L 5113 2094 
Q 5113 2597 4934 2840 
Q 4756 3084 4391 3084 
Q 3944 3084 3684 2787 
Q 3425 2491 3425 1978 
L 3425 0 
L 2847 0 
L 2847 2094 
Q 2847 2600 2669 2842 
Q 2491 3084 2119 3084 
Q 1678 3084 1418 2786 
Q 1159 2488 1159 1978 
L 1159 0 
L 581 0 
L 581 3500 
L 1159 3500 
L 1159 2956 
Q 1356 3278 1631 3431 
Q 1906 3584 2284 3584 
Q 2666 3584 2933 3390 
Q 3200 3197 3328 2828 
z
" transform="scale(0.015625)"/>
       <path id="DejaVuSans-70" d="M 1159 525 
L 1159 -1331 
L 581 -1331 
L 581 3500 
L 1159 3500 
L 1159 2969 
Q 1341 3281 1617 3432 
Q 1894 3584 2278 3584 
Q 2916 3584 3314 3078 
Q 3713 2572 3713 1747 
Q 3713 922 3314 415 
Q 2916 -91 2278 -91 
Q 1894 -91 1617 61 
Q 1341 213 1159 525 
z
M 3116 1747 
Q 3116 2381 2855 2742 
Q 2594 3103 2138 3103 
Q 1681 3103 1420 2742 
Q 1159 2381 1159 1747 
Q 1159 1113 1420 752 
Q 1681 391 2138 391 
Q 2594 391 2855 752 
Q 3116 1113 3116 1747 
z
" transform="scale(0.015625)"/>
       <path id="DejaVuSans-72" d="M 2631 2963 
Q 2534 3019 2420 3045 
Q 2306 3072 2169 3072 
Q 1681 3072 1420 2755 
Q 1159 2438 1159 1844 
L 1159 0 
L 581 0 
L 581 3500 
L 1159 3500 
L 1159 2956 
Q 1341 3275 1631 3429 
Q 1922 3584 2338 3584 
Q 2397 3584 2469 3576 
Q 2541 3569 2628 3553 
L 2631 2963 
z
" transform="scale(0.015625)"/>
       <path id="DejaVuSans-61" d="M 2194 1759 
Q 1497 1759 1228 1600 
Q 959 1441 959 1056 
Q 959 750 1161 570 
Q 1363 391 1709 391 
Q 2188 391 2477 730 
Q 2766 1069 2766 1631 
L 2766 1759 
L 2194 1759 
z
M 3341 1997 
L 3341 0 
L 2766 0 
L 2766 531 
Q 2569 213 2275 61 
Q 1981 -91 1556 -91 
Q 1019 -91 701 211 
Q 384 513 384 1019 
Q 384 1609 779 1909 
Q 1175 2209 1959 2209 
L 2766 2209 
L 2766 2266 
Q 2766 2663 2505 2880 
Q 2244 3097 1772 3097 
Q 1472 3097 1187 3025 
Q 903 2953 641 2809 
L 641 3341 
Q 956 3463 1253 3523 
Q 1550 3584 1831 3584 
Q 2591 3584 2966 3190 
Q 3341 2797 3341 1997 
z
" transform="scale(0.015625)"/>
       <path id="DejaVuSans-74" d="M 1172 4494 
L 1172 3500 
L 2356 3500 
L 2356 3053 
L 1172 3053 
L 1172 1153 
Q 1172 725 1289 603 
Q 1406 481 1766 481 
L 2356 481 
L 2356 0 
L 1766 0 
Q 1100 0 847 248 
Q 594 497 594 1153 
L 594 3053 
L 172 3053 
L 172 3500 
L 594 3500 
L 594 4494 
L 1172 4494 
z
" transform="scale(0.015625)"/>
       <path id="DejaVuSans-75" d="M 544 1381 
L 544 3500 
L 1119 3500 
L 1119 1403 
Q 1119 906 1312 657 
Q 1506 409 1894 409 
Q 2359 409 2629 706 
Q 2900 1003 2900 1516 
L 2900 3500 
L 3475 3500 
L 3475 0 
L 2900 0 
L 2900 538 
Q 2691 219 2414 64 
Q 2138 -91 1772 -91 
Q 1169 -91 856 284 
Q 544 659 544 1381 
z
M 1991 3584 
L 1991 3584 
z
" transform="scale(0.015625)"/>
       <path id="DejaVuSans-20" transform="scale(0.015625)"/>
       <path id="DejaVuSans-5b" d="M 550 4863 
L 1875 4863 
L 1875 4416 
L 1125 4416 
L 1125 -397 
L 1875 -397 
L 1875 -844 
L 550 -844 
L 550 4863 
z
" transform="scale(0.015625)"/>
       <path id="DejaVuSans-c2" d="M 2188 4044 
L 1331 1722 
L 3047 1722 
L 2188 4044 
z
M 1831 4666 
L 2547 4666 
L 4325 0 
L 3669 0 
L 3244 1197 
L 1141 1197 
L 716 0 
L 50 0 
L 1831 4666 
z
M 1894 5941 
L 2481 5941 
L 3141 5110 
L 2706 5110 
L 2188 5666 
L 1669 5110 
L 1234 5110 
L 1894 5941 
z
" transform="scale(0.015625)"/>
       <path id="DejaVuSans-b0" d="M 1600 4347 
Q 1350 4347 1178 4173 
Q 1006 4000 1006 3750 
Q 1006 3503 1178 3333 
Q 1350 3163 1600 3163 
Q 1850 3163 2022 3333 
Q 2194 3503 2194 3750 
Q 2194 3997 2020 4172 
Q 1847 4347 1600 4347 
z
M 1600 4750 
Q 1800 4750 1984 4673 
Q 2169 4597 2303 4453 
Q 2447 4313 2519 4134 
Q 2591 3956 2591 3750 
Q 2591 3338 2302 3052 
Q 2013 2766 1594 2766 
Q 1172 2766 890 3047 
Q 609 3328 609 3750 
Q 609 4169 896 4459 
Q 1184 4750 1600 4750 
z
" transform="scale(0.015625)"/>
       <path id="DejaVuSans-43" d="M 4122 4306 
L 4122 3641 
Q 3803 3938 3442 4084 
Q 3081 4231 2675 4231 
Q 1875 4231 1450 3742 
Q 1025 3253 1025 2328 
Q 1025 1406 1450 917 
Q 1875 428 2675 428 
Q 3081 428 3442 575 
Q 3803 722 4122 1019 
L 4122 359 
Q 3791 134 3420 21 
Q 3050 -91 2638 -91 
Q 1578 -91 968 557 
Q 359 1206 359 2328 
Q 359 3453 968 4101 
Q 1578 4750 2638 4750 
Q 3056 4750 3426 4639 
Q 3797 4528 4122 4306 
z
" transform="scale(0.015625)"/>
       <path id="DejaVuSans-5d" d="M 1947 4863 
L 1947 -844 
L 622 -844 
L 622 -397 
L 1369 -397 
L 1369 4416 
L 622 4416 
L 622 4863 
L 1947 4863 
z
" transform="scale(0.015625)"/>
      </defs>
      <use xlink:href="#DejaVuSans-54"/>
      <use xlink:href="#DejaVuSans-65" x="44.083984"/>
      <use xlink:href="#DejaVuSans-6d" x="105.607422"/>
      <use xlink:href="#DejaVuSans-70" x="203.019531"/>
      <use xlink:href="#DejaVuSans-65" x="266.496094"/>
      <use xlink:href="#DejaVuSans-72" x="328.019531"/>
      <use xlink:href="#DejaVuSans-61" x="369.132812"/>
      <use xlink:href="#DejaVuSans-74" x="430.412109"/>
      <use xlink:href="#DejaVuSans-75" x="469.621094"/>
      <use xlink:href="#DejaVuSans-72" x="533"/>
      <use xlink:href="#DejaVuSans-65" x="571.863281"/>
      <use xlink:href="#DejaVuSans-20" x="633.386719"/>
      <use xlink:href="#DejaVuSans-5b" x="665.173828"/>
      <use xlink:href="#DejaVuSans-c2" x="704.1875"/>
      <use xlink:href="#DejaVuSans-b0" x="772.595703"/>
      <use xlink:href="#DejaVuSans-43" x="822.595703"/>
      <use xlink:href="#DejaVuSans-5d" x="892.419922"/>
     </g>
    </g>
   </g>
   <g id="line2d_27">
    <path d="M 46.46 188.503588 
L 46.498507 188.503588 
L 46.653161 191.503838 
L 46.962479 191.503838 
L 47.040295 193.003963 
L 47.349121 193.003963 
L 47.465375 194.504088 
L 47.581108 193.003963 
L 48.12241 193.003963 
L 48.277065 190.003713 
L 48.315878 190.003713 
L 48.470608 187.003463 
L 48.509521 187.003463 
L 48.663709 188.503588 
L 48.8957 188.503588 
L 49.011954 190.003713 
L 49.398538 190.003713 
L 49.475825 191.503838 
L 49.591658 190.003713 
L 49.823642 190.003713 
L 49.939828 191.503838 
L 50.403782 191.503838 
L 50.519602 190.003713 
L 50.867761 190.003713 
L 50.983579 191.503838 
L 51.138233 191.503838 
L 51.254396 193.003963 
L 51.563732 193.003963 
L 51.679534 194.504088 
L 51.718412 193.003963 
L 51.756865 194.504088 
L 51.95045 194.504088 
L 52.06618 196.004213 
L 52.143963 194.504088 
L 52.25962 194.504088 
L 52.375498 193.003963 
L 52.414378 193.003963 
L 52.530151 194.504088 
L 52.569021 194.504088 
L 52.684811 196.004213 
L 52.839467 196.004213 
L 52.994129 194.504088 
L 53.071459 194.504088 
L 53.110364 193.003963 
L 53.148789 194.504088 
L 53.535428 194.504088 
L 53.61323 196.004213 
L 54.076733 196.004213 
L 54.192904 194.504088 
L 54.966226 194.504088 
L 55.120687 197.504338 
L 55.198189 197.504338 
L 55.313997 199.004463 
L 56.009959 199.004463 
L 56.126144 197.504338 
L 56.396598 197.504338 
L 56.473927 199.004463 
L 56.551736 199.004463 
L 56.705911 202.004713 
L 56.976782 202.004713 
L 57.13141 199.004463 
L 57.672772 199.004463 
L 57.788519 197.504338 
L 58.214004 197.504338 
L 58.329819 199.004463 
L 58.368704 199.004463 
L 58.484475 200.504588 
L 58.561809 200.504588 
L 58.639137 199.004463 
L 58.793789 200.504588 
L 58.87112 200.504588 
L 58.98736 202.004713 
L 59.141965 199.004463 
L 59.257768 199.004463 
L 59.412902 202.004713 
L 59.489753 202.004713 
L 59.644413 205.004963 
L 59.721741 205.004963 
L 59.837943 206.505088 
L 60.108378 206.505088 
L 60.340369 203.504838 
L 60.379247 203.504838 
L 60.495026 202.004713 
L 60.533896 202.004713 
L 60.688555 205.004963 
L 61.075209 205.004963 
L 61.229867 202.004713 
L 61.268318 202.004713 
L 61.422973 199.004463 
L 61.461843 199.004463 
L 61.577633 197.504338 
L 61.65495 197.504338 
L 61.771097 196.004213 
L 61.80962 196.004213 
L 61.925813 194.504088 
L 61.964273 194.504088 
L 62.080529 196.004213 
L 62.196261 196.004213 
L 62.27359 197.504338 
L 62.351379 197.504338 
L 62.467091 199.004463 
L 62.737564 199.004463 
L 62.892223 202.004713 
L 62.93114 202.004713 
L 63.047325 203.504838 
L 63.124208 203.504838 
L 63.278864 200.504588 
L 63.31774 200.504588 
L 63.472399 197.504338 
L 63.742838 197.504338 
L 63.897496 199.004463 
L 64.090984 199.004463 
L 64.129482 200.504588 
L 64.168391 199.004463 
L 64.245701 199.004463 
L 64.400358 196.004213 
L 64.47768 196.004213 
L 64.593455 197.504338 
L 64.671016 197.504338 
L 64.786991 199.004463 
L 64.980104 199.004463 
L 65.134762 202.004713 
L 65.212087 202.004713 
L 65.405656 206.505088 
L 65.598729 206.505088 
L 65.714953 208.005213 
L 65.792278 208.005213 
L 65.908046 211.005463 
L 66.024044 211.005463 
L 66.140029 212.505588 
L 66.488233 212.505588 
L 66.604009 214.005713 
L 66.642893 214.005713 
L 66.758665 215.505838 
L 66.913321 215.505838 
L 67.029437 214.005713 
L 67.106876 214.005713 
L 67.222636 215.505838 
L 67.377298 215.505838 
L 67.686611 211.005463 
L 67.802867 212.505588 
L 67.957502 209.505338 
L 68.266718 209.505338 
L 68.382573 211.005463 
L 68.653457 211.005463 
L 68.769216 209.505338 
L 68.962606 209.505338 
L 69.155864 205.004963 
L 69.272102 205.004963 
L 69.465177 200.504588 
L 69.504138 200.504588 
L 69.620283 199.004463 
L 69.735994 199.004463 
L 69.929151 194.504088 
L 70.122683 199.004463 
L 70.316277 199.004463 
L 70.509346 188.503588 
L 71.437327 123.998213 
L 71.553053 122.498088 
L 71.591906 122.498088 
L 71.746624 116.497588 
L 71.901169 119.497838 
L 72.055762 116.497588 
L 72.094352 116.497588 
L 72.210613 117.997713 
L 72.287932 117.997713 
L 72.480995 108.996963 
L 72.674494 104.496588 
L 72.712981 104.496588 
L 72.983788 96.995963 
L 73.022292 96.995963 
L 73.17695 93.995713 
L 73.292949 93.995713 
L 73.408934 96.995963 
L 73.679866 89.495338 
L 73.834506 89.495338 
L 74.221078 71.493838 
L 74.259549 72.993963 
L 74.568856 104.496588 
L 74.646186 105.996713 
L 74.723838 105.996713 
L 74.878173 108.996963 
L 75.419951 84.994963 
L 75.53562 81.994713 
L 75.651459 84.994963 
L 75.767738 83.494838 
L 75.806114 83.494838 
L 76.424737 104.496588 
L 76.502062 104.496588 
L 76.656721 95.495838 
L 76.889041 84.994963 
L 77.082156 80.494588 
L 77.120696 80.494588 
L 77.23694 81.994713 
L 77.35268 81.994713 
L 78.010243 104.496588 
L 78.164876 101.496338 
L 78.203285 101.496338 
L 78.280615 102.996463 
L 78.357932 102.996463 
L 78.744585 114.997463 
L 78.78348 114.997463 
L 78.899236 113.497338 
L 78.976569 113.497338 
L 79.131226 111.997213 
L 79.170072 111.997213 
L 79.634098 96.995963 
L 79.750193 96.995963 
L 79.904507 99.996213 
L 79.943439 98.496088 
L 79.981834 99.996213 
L 80.020781 99.996213 
L 80.291147 90.995463 
L 80.330064 92.495588 
L 80.368479 90.995463 
L 80.407455 90.995463 
L 80.677791 77.494338 
L 80.909777 71.493838 
L 80.98711 71.493838 
L 81.257742 78.994463 
L 81.412728 75.994213 
L 81.451074 75.994213 
L 81.683056 86.495088 
L 81.72203 86.495088 
L 81.915506 92.495588 
L 82.031131 92.495588 
L 82.147024 90.995463 
L 82.301678 90.995463 
L 82.417867 92.495588 
L 82.456338 92.495588 
L 82.688706 86.495088 
L 82.727022 86.495088 
L 82.881903 83.494838 
L 83.191208 92.495588 
L 83.229622 92.495588 
L 83.345883 93.995713 
L 83.384669 93.995713 
L 83.538932 95.495838 
L 83.655189 93.995713 
L 83.69359 95.495838 
L 83.732528 93.995713 
L 83.770918 93.995713 
L 83.925573 90.995463 
L 84.08023 90.995463 
L 84.234885 95.495838 
L 84.351092 93.995713 
L 84.389543 93.995713 
L 84.583077 89.495338 
L 84.621526 89.495338 
L 84.776184 93.995713 
L 85.00817 93.995713 
L 85.201725 89.495338 
L 85.278919 89.495338 
L 85.433687 86.495088 
L 85.472139 86.495088 
L 85.781455 77.494338 
L 86.245426 77.494338 
L 86.323112 75.994213 
L 86.438975 77.494338 
L 86.477412 77.494338 
L 86.825624 87.995213 
L 86.864046 87.995213 
L 87.019219 90.995463 
L 87.134865 90.995463 
L 87.250688 92.495588 
L 87.482676 95.495838 
L 87.676295 95.495838 
L 87.791987 93.995713 
L 87.908253 93.995713 
L 88.023972 92.495588 
L 88.140283 92.495588 
L 88.255956 90.995463 
L 88.410614 90.995463 
L 88.565271 92.495588 
L 88.604148 92.495588 
L 88.719928 93.995713 
L 88.758865 93.995713 
L 88.874586 95.495838 
L 88.9135 95.495838 
L 89.029243 96.995963 
L 89.145495 96.995963 
L 89.300036 99.996213 
L 89.338554 99.996213 
L 89.841426 116.497588 
L 90.073428 116.497588 
L 90.189167 114.997463 
L 90.49848 114.997463 
L 90.691817 119.497838 
L 90.730465 119.497838 
L 90.885125 122.498088 
L 91.001385 122.498088 
L 91.117113 123.998213 
L 91.503755 123.998213 
L 91.620042 125.498338 
L 91.697417 125.498338 
L 91.852004 128.498588 
L 91.967726 128.498588 
L 92.122843 131.498838 
L 92.1611 131.498838 
L 92.316003 134.499088 
L 92.393354 134.499088 
L 92.586355 138.999463 
L 92.62517 138.999463 
L 92.780007 141.999713 
L 92.818705 141.999713 
L 92.934492 143.499838 
L 93.01196 143.499838 
L 93.127654 144.999963 
L 93.204985 144.999963 
L 93.32116 146.500088 
L 93.436969 146.500088 
L 93.514768 148.000213 
L 93.707882 148.000213 
L 93.823613 149.500338 
L 93.939722 149.500338 
L 94.055599 151.000463 
L 94.442249 151.000463 
L 94.558597 152.500588 
L 94.983981 152.500588 
L 95.060881 154.000713 
L 95.099671 152.500588 
L 95.138209 154.000713 
L 95.911499 154.000713 
L 96.027756 155.500838 
L 96.453295 155.500838 
L 96.568954 154.000713 
L 96.684782 154.000713 
L 96.762114 152.500588 
L 96.801072 154.000713 
L 96.839438 152.500588 
L 96.955745 152.500588 
L 97.071427 154.000713 
L 97.419713 154.000713 
L 97.535396 155.500838 
L 97.574342 155.500838 
L 97.690054 154.000713 
L 97.960732 154.000713 
L 97.999369 152.500588 
L 98.038233 154.000713 
L 98.463338 154.000713 
L 98.579656 152.500588 
L 98.927312 152.500588 
L 99.04364 154.000713 
L 99.198316 154.000713 
L 99.313953 155.500838 
L 99.66217 155.500838 
L 99.777923 154.000713 
L 99.932581 154.000713 
L 100.048837 155.500838 
L 100.396552 155.500838 
L 100.512873 154.000713 
L 101.054191 154.000713 
L 101.169838 155.500838 
L 101.324492 155.500838 
L 101.440694 154.000713 
L 101.711137 154.000713 
L 101.827398 155.500838 
L 102.175108 155.500838 
L 102.252809 157.000963 
L 102.793735 157.000963 
L 102.909996 158.501088 
L 104.572292 158.501088 
L 104.688525 160.001213 
L 105.616531 160.001213 
L 105.732216 161.501338 
L 106.428171 161.501338 
L 106.544479 160.001213 
L 107.356504 160.001213 
L 107.472292 161.501338 
L 107.781665 161.501338 
L 107.89741 160.001213 
L 108.748022 160.001213 
L 108.902679 161.501338 
L 109.018919 160.001213 
L 110.565539 160.001213 
L 110.681233 161.501338 
L 111.067873 161.501338 
L 111.184154 160.001213 
L 111.841162 160.001213 
L 111.957524 161.501338 
L 112.112096 161.501338 
L 112.227806 160.001213 
L 113.078421 160.001213 
L 113.194413 161.501338 
L 114.122587 161.501338 
L 114.238353 163.001463 
L 117.293043 163.001463 
L 117.40882 164.501588 
L 117.486547 164.501588 
L 117.64081 163.001463 
L 117.757047 163.001463 
L 117.872796 164.501588 
L 117.911693 164.501588 
L 118.027453 163.001463 
L 119.11006 163.001463 
L 119.226247 161.501338 
L 119.264718 161.501338 
L 119.380968 163.001463 
L 122.976507 163.001463 
L 123.092789 161.501338 
L 132.449479 161.501338 
L 132.565248 163.001463 
L 133.570519 163.001463 
L 133.68684 161.501338 
L 134.150711 161.501338 
L 134.266473 163.001463 
L 134.846772 163.001463 
L 134.962868 164.501588 
L 137.204954 164.501588 
L 137.32127 166.001713 
L 137.591598 166.001713 
L 137.707909 164.501588 
L 139.215495 164.501588 
L 139.370153 166.001713 
L 139.48646 166.001713 
L 139.602136 164.501588 
L 139.718458 164.501588 
L 139.756796 166.001713 
L 139.7958 164.501588 
L 142.656896 164.501588 
L 142.772615 166.001713 
L 142.927718 166.001713 
L 143.081931 164.501588 
L 145.595381 164.501588 
L 145.711094 166.001713 
L 145.750066 166.001713 
L 145.788422 164.501588 
L 145.943076 166.001713 
L 146.020407 166.001713 
L 146.136592 164.501588 
L 146.639034 164.501588 
L 146.755338 163.001463 
L 147.760618 163.001463 
L 147.876292 161.501338 
L 148.301805 161.501338 
L 148.417597 160.001213 
L 149.384544 160.001213 
L 149.500618 158.501088 
L 150.350809 158.501088 
L 150.467027 160.001213 
L 150.5828 160.001213 
L 150.699061 158.501088 
L 151.588073 158.501088 
L 151.704087 160.001213 
L 152.361752 160.001213 
L 152.516025 161.501338 
L 153.714944 161.501338 
L 153.831033 160.001213 
L 154.178814 160.001213 
L 154.294591 161.501338 
L 154.603911 161.501338 
L 154.720119 160.001213 
L 155.300267 160.001213 
L 155.415972 161.501338 
L 159.011632 161.501338 
L 159.127805 163.001463 
L 161.718133 163.001463 
L 161.795821 164.501588 
L 162.298299 164.501588 
L 162.414088 166.001713 
L 162.491416 166.001713 
L 162.646072 167.501838 
L 162.839615 167.501838 
L 162.994317 170.502088 
L 163.032713 170.502088 
L 163.419355 182.503088 
L 163.496686 182.503088 
L 163.65134 185.503338 
L 163.690334 185.503338 
L 163.844939 188.503588 
L 163.922329 188.503588 
L 164.076739 191.503838 
L 164.192647 191.503838 
L 164.308927 193.003963 
L 164.46355 193.003963 
L 164.61818 196.004213 
L 164.772631 196.004213 
L 164.888599 197.504338 
L 164.965934 197.504338 
L 165.082246 199.004463 
L 165.12059 199.004463 
L 165.236881 200.504588 
L 165.314137 200.504588 
L 165.430378 202.004713 
L 165.584559 203.504838 
L 165.66189 203.504838 
L 165.778151 205.004963 
L 165.97121 205.004963 
L 166.087405 206.505088 
L 166.280518 206.505088 
L 166.396757 208.005213 
L 167.169968 208.005213 
L 167.285799 209.505338 
L 167.363128 209.505338 
L 167.479453 208.005213 
L 167.8271 208.005213 
L 167.943401 206.505088 
L 168.213742 206.505088 
L 168.291079 205.004963 
L 168.63918 205.004963 
L 168.755051 203.504838 
L 169.025946 203.504838 
L 169.141692 202.004713 
L 169.489941 202.004713 
L 169.605665 200.504588 
L 169.644558 200.504588 
L 169.760325 199.004463 
L 170.031204 199.004463 
L 170.146969 197.504338 
L 170.378954 197.504338 
L 170.495131 196.004213 
L 170.765603 196.004213 
L 170.881894 194.504088 
L 170.920263 194.504088 
L 171.036433 193.003963 
L 171.92553 193.003963 
L 172.041533 191.503838 
L 172.157521 191.503838 
L 172.27385 190.003713 
L 172.351104 190.003713 
L 172.466838 188.503588 
L 172.776156 188.503588 
L 172.892426 187.003463 
L 173.085466 187.003463 
L 173.201798 185.503338 
L 173.394779 185.503338 
L 173.549439 184.003213 
L 174.864032 184.003213 
L 175.018691 182.503088 
L 175.135003 182.503088 
L 175.250676 181.002963 
L 175.714649 181.002963 
L 175.830942 179.502838 
L 175.908236 179.502838 
L 176.023961 178.002713 
L 176.333731 178.002713 
L 176.487935 176.502588 
L 178.034511 176.502588 
L 178.150831 178.002713 
L 178.305434 178.002713 
L 178.421148 176.502588 
L 178.923961 176.502588 
L 179.039783 175.002463 
L 179.156009 175.002463 
L 179.272238 176.502588 
L 179.387937 176.502588 
L 179.50375 175.002463 
L 180.083827 175.002463 
L 180.199707 173.502338 
L 180.431695 173.502338 
L 180.548023 175.002463 
L 180.586353 175.002463 
L 180.663683 173.502338 
L 180.818334 173.502338 
L 181.011949 169.001963 
L 181.166543 169.001963 
L 181.282308 170.502088 
L 181.321286 170.502088 
L 181.437403 172.002213 
L 181.785241 172.002213 
L 181.978267 167.501838 
L 182.132927 167.501838 
L 182.287589 169.001963 
L 182.403904 169.001963 
L 182.519571 170.502088 
L 182.5969 170.502088 
L 182.713213 172.002213 
L 182.79052 172.002213 
L 182.906578 173.502338 
L 183.099848 173.502338 
L 183.215529 175.002463 
L 184.530114 175.002463 
L 184.646368 173.502338 
L 184.762103 173.502338 
L 184.916761 170.502088 
L 184.955734 170.502088 
L 185.071925 169.001963 
L 185.148743 169.001963 
L 185.303402 166.001713 
L 185.342349 166.001713 
L 185.458061 164.501588 
L 185.728982 164.501588 
L 185.844703 166.001713 
L 185.999364 166.001713 
L 186.115658 167.501838 
L 186.154017 166.001713 
L 186.193004 167.501838 
L 186.541145 167.501838 
L 186.656844 169.001963 
L 186.811562 169.001963 
L 186.927306 170.502088 
L 187.043622 170.502088 
L 187.159295 172.002213 
L 187.430235 172.002213 
L 187.545938 173.502338 
L 191.219411 173.502338 
L 191.335046 172.002213 
L 191.451277 173.502338 
L 191.837991 173.502338 
L 191.953677 175.002463 
L 192.804293 175.002463 
L 192.920601 176.502588 
L 192.958947 176.502588 
L 193.03628 175.002463 
L 194.196207 175.002463 
L 194.312505 176.502588 
L 194.505946 176.502588 
L 194.660184 175.002463 
L 194.814838 175.002463 
L 194.931056 173.502338 
L 195.008402 173.502338 
L 195.124151 175.002463 
L 195.859033 175.002463 
L 195.975187 173.502338 
L 196.168373 173.502338 
L 196.206756 172.002213 
L 196.245645 173.502338 
L 196.32301 173.502338 
L 196.40032 172.002213 
L 196.477681 173.502338 
L 196.593398 172.002213 
L 197.096333 172.002213 
L 197.212029 173.502338 
L 197.830659 173.502338 
L 197.946861 175.002463 
L 198.256099 175.002463 
L 198.371959 176.502588 
L 198.526621 176.502588 
L 198.642881 178.002713 
L 199.26156 178.002713 
L 199.377239 179.502838 
L 199.995867 179.502838 
L 200.112167 181.002963 
L 201.155799 181.002963 
L 201.310449 184.003213 
L 201.38778 184.003213 
L 201.542437 187.003463 
L 201.581252 187.003463 
L 201.697094 188.503588 
L 201.736049 188.503588 
L 201.851753 190.003713 
L 201.929083 190.003713 
L 202.045279 191.503838 
L 202.393055 191.503838 
L 202.470384 193.003963 
L 202.702372 193.003963 
L 202.857028 196.004213 
L 202.973311 196.004213 
L 203.089012 197.504338 
L 203.127939 197.504338 
L 203.244159 199.004463 
L 203.398329 199.004463 
L 203.51459 200.504588 
L 203.591821 200.504588 
L 203.70764 202.004713 
L 203.901268 202.004713 
L 204.016954 203.504838 
L 204.48093 203.504838 
L 204.597113 202.004713 
L 204.944901 202.004713 
L 205.0611 200.504588 
L 205.254215 200.504588 
L 205.370445 202.004713 
L 205.640861 202.004713 
L 205.757039 200.504588 
L 207.844967 200.504588 
L 207.960718 202.004713 
L 208.115376 202.004713 
L 208.231671 203.504838 
L 209.120651 203.504838 
L 209.236908 202.004713 
L 209.314198 202.004713 
L 209.352641 203.504838 
L 209.391566 202.004713 
L 209.623485 202.004713 
L 209.739284 200.504588 
L 209.85532 200.504588 
L 209.971269 199.004463 
L 210.010247 199.004463 
L 210.125929 197.504338 
L 210.164948 197.504338 
L 210.319569 194.504088 
L 210.396889 194.504088 
L 210.513009 193.003963 
L 210.5899 193.003963 
L 210.744556 190.003713 
L 210.860804 190.003713 
L 210.976542 188.503588 
L 211.749828 188.503588 
L 211.866091 190.003713 
L 212.523118 190.003713 
L 212.639378 191.503838 
L 213.528395 191.503838 
L 213.683052 188.503588 
L 213.837708 188.503588 
L 213.954017 187.003463 
L 214.224358 187.003463 
L 214.263164 185.503338 
L 214.301683 187.003463 
L 214.53367 187.003463 
L 214.649921 185.503338 
L 214.688331 185.503338 
L 214.804628 184.003213 
L 215.113937 184.003213 
L 215.229638 182.503088 
L 215.423192 182.503088 
L 215.538956 181.002963 
L 215.770941 181.002963 
L 215.887147 179.502838 
L 216.119064 179.502838 
L 216.196444 178.002713 
L 216.234912 179.502838 
L 216.273849 178.002713 
L 216.505709 178.002713 
L 216.62156 176.502588 
L 216.737741 176.502588 
L 216.815102 175.002463 
L 216.93087 176.502588 
L 217.008202 176.502588 
L 217.549498 185.503338 
L 217.588451 185.503338 
L 217.704157 187.003463 
L 218.941422 187.003463 
L 219.057736 188.503588 
L 219.173406 188.503588 
L 219.328066 187.003463 
L 219.599035 187.003463 
L 219.714708 185.503338 
L 219.792035 185.503338 
L 219.908256 184.003213 
L 219.947187 184.003213 
L 220.101347 182.503088 
L 220.140292 182.503088 
L 220.256005 181.002963 
L 220.565323 181.002963 
L 220.64265 179.502838 
L 220.720401 179.502838 
L 220.758682 178.002713 
L 220.797304 179.502838 
L 221.068304 179.502838 
L 221.18395 181.002963 
L 221.609533 181.002963 
L 221.764099 178.002713 
L 221.996186 178.002713 
L 222.111899 176.502588 
L 222.189208 176.502588 
L 222.382781 181.002963 
L 222.575869 181.002963 
L 222.769436 176.502588 
L 222.807852 176.502588 
L 222.962513 173.502338 
L 223.001349 173.502338 
L 223.156064 170.502088 
L 223.465412 170.502088 
L 223.581562 169.001963 
L 223.813124 166.001713 
L 223.852037 166.001713 
L 223.96778 164.501588 
L 224.08401 164.501588 
L 224.199769 163.001463 
L 224.238692 163.001463 
L 224.354848 161.501338 
L 224.586415 161.501338 
L 224.702575 160.001213 
L 224.895724 160.001213 
L 225.012015 161.501338 
L 225.050868 161.501338 
L 225.20504 160.001213 
L 225.282369 160.001213 
L 225.398689 158.501088 
L 225.823664 158.501088 
L 225.93989 157.000963 
L 226.017237 157.000963 
L 226.132981 155.500838 
L 226.287644 158.501088 
L 226.364972 158.501088 
L 226.52008 161.501338 
L 226.558308 161.501338 
L 226.674286 163.001463 
L 226.828946 163.001463 
L 226.906272 161.501338 
L 227.022607 163.001463 
L 227.06093 163.001463 
L 227.216072 166.001713 
L 227.563882 166.001713 
L 227.641079 164.501588 
L 227.756887 166.001713 
L 227.911544 166.001713 
L 228.220859 170.502088 
L 228.298189 170.502088 
L 228.337194 169.001963 
L 228.37552 170.502088 
L 228.491821 170.502088 
L 228.60751 172.002213 
L 228.646492 172.002213 
L 228.800978 169.001963 
L 228.955767 169.001963 
L 229.071482 167.501838 
L 229.226137 167.501838 
L 229.342345 169.001963 
L 229.380796 169.001963 
L 229.612778 172.002213 
L 229.69011 172.002213 
L 229.806342 173.502338 
L 230.308742 173.502338 
L 230.425039 175.002463 
L 230.657032 175.002463 
L 230.77271 176.502588 
L 231.120991 176.502588 
L 231.236684 178.002713 
L 231.468671 178.002713 
L 231.545998 179.502838 
L 232.203607 179.502838 
L 232.319812 181.002963 
L 232.667566 181.002963 
L 232.783253 182.503088 
L 232.860582 182.503088 
L 232.976911 184.003213 
L 233.015242 184.003213 
L 233.1699 185.503338 
L 233.208817 185.503338 
L 233.324556 187.003463 
L 233.556544 187.003463 
L 233.672879 188.503588 
L 233.904708 188.503588 
L 234.020514 190.003713 
L 234.136882 190.003713 
L 234.252503 191.503838 
L 234.368716 191.503838 
L 234.484885 193.003963 
L 234.600598 193.003963 
L 234.716473 194.504088 
L 234.755358 194.504088 
L 234.871136 196.004213 
L 234.948463 196.004213 
L 235.064704 197.504338 
L 235.142115 197.504338 
L 235.258307 199.004463 
L 235.296489 199.004463 
L 235.412439 200.504588 
L 235.567094 200.504588 
L 235.683421 202.004713 
L 235.760769 202.004713 
L 235.87641 203.504838 
L 236.417708 203.504838 
L 236.572366 200.504588 
L 236.649691 200.504588 
L 236.881681 203.504838 
L 237.113671 203.504838 
L 237.229919 205.004963 
L 237.307169 205.004963 
L 237.423372 206.505088 
L 237.461659 206.505088 
L 237.577641 208.005213 
L 237.654971 208.005213 
L 237.771259 209.505338 
L 237.809626 209.505338 
L 237.925815 211.005463 
L 238.119341 211.005463 
L 238.273605 212.505588 
L 238.31255 212.505588 
L 238.467218 215.505838 
L 238.505592 215.505838 
L 238.66025 218.506088 
L 238.737573 218.506088 
L 238.814909 220.006213 
L 239.510869 220.006213 
L 239.588652 221.506338 
L 239.70431 221.506338 
L 239.820184 223.006463 
L 239.858968 223.006463 
L 239.97484 221.506338 
L 240.013798 221.506338 
L 240.129496 220.006213 
L 240.168236 220.006213 
L 240.284154 218.506088 
L 240.477638 218.506088 
L 240.59347 220.006213 
L 240.825462 220.006213 
L 240.941634 218.506088 
L 241.366762 218.506088 
L 241.521423 221.506338 
L 241.637581 221.506338 
L 241.753913 223.006463 
L 241.908067 224.506588 
L 242.062723 224.506588 
L 242.178916 226.006713 
L 242.21738 226.006713 
L 242.333533 227.506838 
L 242.372041 227.506838 
L 242.449368 226.006713 
L 242.565386 226.006713 
L 242.758683 221.506338 
L 242.797525 221.506338 
L 242.952175 218.506088 
L 243.067999 220.006213 
L 243.145331 220.006213 
L 243.223102 221.506338 
L 243.338778 221.506338 
L 243.454649 223.006463 
L 243.493482 223.006463 
L 243.609307 224.506588 
L 244.305267 224.506588 
L 244.421457 223.006463 
L 244.498799 223.006463 
L 244.614586 221.506338 
L 244.692442 223.006463 
L 244.846571 221.506338 
L 245.040109 221.506338 
L 245.194677 224.506588 
L 245.310545 224.506588 
L 245.387874 226.006713 
L 245.503951 226.006713 
L 245.619865 227.506838 
L 246.083838 227.506838 
L 246.470481 233.507338 
L 246.70247 233.507338 
L 246.818627 232.007213 
L 246.934455 233.507338 
L 246.973231 233.507338 
L 247.089111 235.007463 
L 247.243771 235.007463 
L 247.359947 236.507588 
L 247.475758 236.507588 
L 247.553084 238.007713 
L 247.707744 236.507588 
L 247.785079 236.507588 
L 247.823937 238.007713 
L 247.8624 236.507588 
L 248.171723 236.507588 
L 248.287924 235.007463 
L 248.790357 235.007463 
L 248.906578 236.507588 
L 249.370568 236.507588 
L 249.525226 233.507338 
L 249.602395 233.507338 
L 249.757225 236.507588 
L 249.950288 236.507588 
L 250.143826 232.007213 
L 250.800905 232.007213 
L 250.917123 233.507338 
L 251.071752 233.507338 
L 251.187557 235.007463 
L 251.342211 236.507588 
L 251.45848 235.007463 
L 251.845154 235.007463 
L 251.961173 233.507338 
L 252.192832 236.507588 
L 252.231784 236.507588 
L 252.386437 239.507838 
L 252.424822 239.507838 
L 252.57948 242.508088 
L 252.618398 242.508088 
L 252.73449 244.008213 
L 252.811473 244.008213 
L 252.927798 245.508338 
L 252.966125 245.508338 
L 253.082454 247.008463 
L 253.237003 247.008463 
L 253.352768 248.508588 
L 253.430475 248.508588 
L 253.662089 251.508838 
L 254.010338 251.508838 
L 254.126066 250.008713 
L 254.319632 250.008713 
L 254.435385 248.508588 
L 254.474297 248.508588 
L 254.590041 250.008713 
L 254.706313 250.008713 
L 254.860929 247.008463 
L 254.976683 247.008463 
L 255.092963 245.508338 
L 255.131347 245.508338 
L 255.247649 244.008213 
L 255.440659 244.008213 
L 255.556828 242.508088 
L 255.595645 242.508088 
L 255.749973 241.007963 
L 256.020938 241.007963 
L 256.17561 244.008213 
L 256.369079 244.008213 
L 256.484805 245.508338 
L 256.909914 245.508338 
L 257.064992 248.508588 
L 257.180694 248.508588 
L 257.33545 251.508838 
L 257.49021 251.508838 
L 257.605883 253.008963 
L 257.76054 253.008963 
L 257.876586 254.509088 
L 258.069855 250.008713 
L 258.147183 250.008713 
L 258.301847 247.008463 
L 258.379173 247.008463 
L 258.456499 248.508588 
L 258.495371 247.008463 
L 258.534234 248.508588 
L 258.61116 248.508588 
L 258.727429 247.008463 
L 258.920476 247.008463 
L 259.036771 248.508588 
L 259.384454 248.508588 
L 259.500691 250.008713 
L 259.616446 250.008713 
L 259.771102 247.008463 
L 260.312409 247.008463 
L 260.428641 245.508338 
L 260.853715 245.508338 
L 260.97 247.008463 
L 261.047284 247.008463 
L 261.163032 248.508588 
L 261.317685 248.508588 
L 261.472757 245.508338 
L 261.820577 245.508338 
L 261.936326 244.008213 
L 262.129887 244.008213 
L 262.245639 245.508338 
L 262.284418 245.508338 
L 262.439168 248.508588 
L 262.477626 248.508588 
L 262.632285 251.508838 
L 262.864267 251.508838 
L 263.018932 250.008713 
L 263.057825 250.008713 
L 263.173589 251.508838 
L 263.25092 251.508838 
L 263.405572 254.509088 
L 263.4829 254.509088 
L 263.599243 256.009213 
L 263.753714 256.009213 
L 263.869551 257.509338 
L 264.295202 257.509338 
L 264.410856 259.009463 
L 264.449606 259.009463 
L 264.565511 257.509338 
L 264.836453 257.509338 
L 264.952162 256.009213 
L 264.991123 256.009213 
L 265.029492 254.509088 
L 265.184148 256.009213 
L 265.338805 256.009213 
L 265.493465 259.009463 
L 265.725452 259.009463 
L 265.803147 257.509338 
L 266.151016 257.509338 
L 266.344089 253.008963 
L 266.421416 253.008963 
L 266.498746 251.508838 
L 266.614776 251.508838 
L 266.653402 253.008963 
L 266.692236 251.508838 
L 267.00153 251.508838 
L 267.117382 253.008963 
L 267.349369 253.008963 
L 267.465588 251.508838 
L 267.504024 253.008963 
L 267.542923 251.508838 
L 267.929565 251.508838 
L 268.084057 254.509088 
L 268.122662 254.509088 
L 268.354649 260.509588 
L 268.548149 260.509588 
L 268.702843 257.509338 
L 268.818619 257.509338 
L 269.012276 253.008963 
L 269.089634 253.008963 
L 269.205268 251.508838 
L 269.2826 251.508838 
L 269.398931 253.008963 
L 269.514588 253.008963 
L 269.630795 251.508838 
L 269.746572 251.508838 
L 269.862884 253.008963 
L 269.978567 253.008963 
L 270.133222 256.009213 
L 270.326732 256.009213 
L 270.442537 257.509338 
L 270.481392 257.509338 
L 270.636117 254.509088 
L 270.790785 254.509088 
L 270.906913 253.008963 
L 271.370489 253.008963 
L 271.486752 251.508838 
L 271.602479 251.508838 
L 271.757137 253.008963 
L 271.834466 253.008963 
L 271.989122 256.009213 
L 272.066448 256.009213 
L 272.182796 254.509088 
L 272.453099 254.509088 
L 272.569291 256.009213 
L 272.607755 256.009213 
L 272.724079 257.509338 
L 272.839743 257.509338 
L 272.955976 259.009463 
L 273.149041 259.009463 
L 273.265292 257.509338 
L 273.458379 257.509338 
L 273.652007 262.009713 
L 273.690368 262.009713 
L 273.845476 265.009963 
L 273.999684 265.009963 
L 274.115968 266.510088 
L 274.154344 266.510088 
L 274.270551 265.009963 
L 274.309004 265.009963 
L 274.425277 263.509838 
L 274.541295 263.509838 
L 274.695647 265.009963 
L 274.772977 265.009963 
L 274.927637 268.010213 
L 275.430462 268.010213 
L 275.546272 266.510088 
L 275.585143 266.510088 
L 275.739896 263.509838 
L 275.855586 265.009963 
L 275.894298 265.009963 
L 276.010741 263.509838 
L 276.242234 260.509588 
L 276.628883 260.509588 
L 276.706213 259.009463 
L 276.822239 259.009463 
L 276.899739 260.509588 
L 277.015531 259.009463 
L 277.05449 259.009463 
L 277.170186 260.509588 
L 277.324844 260.509588 
L 277.441125 262.009713 
L 277.556836 262.009713 
L 277.673127 263.509838 
L 277.750471 263.509838 
L 277.866151 262.009713 
L 277.982335 263.509838 
L 278.833058 263.509838 
L 278.987408 260.509588 
L 279.026089 260.509588 
L 279.335407 247.008463 
L 280.070309 173.502338 
L 280.263777 166.001713 
L 280.379538 166.001713 
L 280.534136 163.001463 
L 280.572673 163.001463 
L 280.611634 161.501338 
L 281.036641 190.003713 
L 281.230249 185.503338 
L 281.423285 185.503338 
L 281.539534 184.003213 
L 281.616917 184.003213 
L 281.771319 175.002463 
L 282.235474 141.999713 
L 282.583218 167.501838 
L 282.622139 166.001713 
L 282.854174 154.000713 
L 283.086046 141.999713 
L 283.124959 141.999713 
L 283.820471 117.997713 
L 284.013989 122.498088 
L 284.168718 122.498088 
L 284.284441 120.997963 
L 284.516426 131.498838 
L 284.594178 129.998713 
L 284.671083 129.998713 
L 284.787363 128.498588 
L 284.82574 128.498588 
L 285.019248 123.998213 
L 285.057726 123.998213 
L 285.251312 117.997713 
L 285.483266 129.998713 
L 285.59902 129.998713 
L 285.715313 128.498588 
L 285.831002 128.498588 
L 286.217651 116.497588 
L 286.256568 116.497588 
L 286.681619 129.998713 
L 286.836278 129.998713 
L 286.952525 131.498838 
L 287.02987 131.498838 
L 287.570936 108.996963 
L 287.609558 110.497088 
L 287.725823 113.497338 
L 287.803159 111.997213 
L 288.189809 123.998213 
L 288.266826 123.998213 
L 288.653793 107.496838 
L 288.692156 108.996963 
L 289.195008 140.499588 
L 289.272397 140.499588 
L 289.774756 157.000963 
L 289.813608 157.000963 
L 289.968255 154.000713 
L 290.006741 154.000713 
L 290.123016 152.500588 
L 290.161398 152.500588 
L 290.393845 158.501088 
L 290.54804 158.501088 
L 290.741685 154.000713 
L 290.780029 154.000713 
L 290.934688 157.000963 
L 291.012017 157.000963 
L 291.167082 160.001213 
L 291.282888 158.501088 
L 291.321325 158.501088 
L 291.437637 160.001213 
L 291.592252 160.001213 
L 291.707969 161.501338 
L 291.746823 161.501338 
L 291.901279 164.501588 
L 292.017283 164.501588 
L 292.133569 166.001713 
L 292.210907 166.001713 
L 292.635913 152.500588 
L 292.752171 155.500838 
L 293.177216 141.999713 
L 293.332256 141.999713 
L 293.718516 154.000713 
L 293.757246 154.000713 
L 293.912058 157.000963 
L 293.950499 157.000963 
L 294.028219 158.501088 
L 294.337145 154.000713 
L 294.414473 154.000713 
L 294.723786 143.499838 
L 294.801531 143.499838 
L 294.917341 141.999713 
L 295.110428 141.999713 
L 295.342415 148.000213 
L 295.381352 148.000213 
L 295.922704 129.998713 
L 295.961046 129.998713 
L 296.154652 134.499088 
L 296.309123 134.499088 
L 296.579667 141.999713 
L 296.656999 141.999713 
L 296.888985 148.000213 
L 297.043644 149.500338 
L 297.120972 149.500338 
L 297.237176 151.000463 
L 297.546555 151.000463 
L 297.662701 148.000213 
L 297.778397 148.000213 
L 297.894258 146.500088 
L 297.933146 146.500088 
L 298.048917 144.999963 
L 298.358231 144.999963 
L 298.512888 146.500088 
L 298.706458 146.500088 
L 298.8222 148.000213 
L 298.861157 148.000213 
L 298.976858 149.500338 
L 299.092988 149.500338 
L 299.247678 152.500588 
L 299.325051 152.500588 
L 299.440829 154.000713 
L 299.711813 154.000713 
L 299.75014 152.500588 
L 299.78912 154.000713 
L 300.136787 164.501588 
L 300.368775 167.501838 
L 300.485057 167.501838 
L 300.678087 172.002213 
L 300.755415 172.002213 
L 300.871656 173.502338 
L 300.910071 173.502338 
L 301.064728 176.502588 
L 301.103547 176.502588 
L 301.21939 178.002713 
L 301.297142 178.002713 
L 301.451375 179.502838 
L 301.528705 179.502838 
L 301.644978 181.002963 
L 301.683364 181.002963 
L 301.838019 184.003213 
L 301.95428 184.003213 
L 302.070473 185.503338 
L 302.186231 185.503338 
L 302.301991 187.003463 
L 302.379318 187.003463 
L 302.495604 188.503588 
L 302.533975 188.503588 
L 302.650323 190.003713 
L 302.688632 190.003713 
L 302.804621 191.503838 
L 303.887524 191.503838 
L 304.003227 193.003963 
L 304.467198 193.003963 
L 304.58347 194.504088 
L 305.820623 194.504088 
L 305.936446 193.003963 
L 306.013773 194.504088 
L 306.130066 193.003963 
L 306.59391 193.003963 
L 306.709731 194.504088 
L 306.903318 194.504088 
L 307.019047 196.004213 
L 307.057983 196.004213 
L 307.173709 197.504338 
L 307.212465 197.504338 
L 307.328362 199.004463 
L 307.405694 199.004463 
L 307.522027 200.504588 
L 307.599311 200.504588 
L 307.71501 202.004713 
L 307.985819 202.004713 
L 308.101657 203.504838 
L 308.488295 203.504838 
L 308.56601 205.004963 
L 308.952274 205.004963 
L 309.068574 206.505088 
L 309.339292 206.505088 
L 309.455135 208.005213 
L 309.609769 208.005213 
L 309.72556 209.505338 
L 310.498849 209.505338 
L 310.615096 211.005463 
L 312.122757 211.005463 
L 312.200502 212.505588 
L 312.354745 211.005463 
L 312.432074 211.005463 
L 312.548383 212.505588 
L 313.050705 212.505588 
L 313.167006 211.005463 
L 313.476306 211.005463 
L 313.592009 212.505588 
L 313.901323 212.505588 
L 314.055984 214.005713 
L 314.945581 214.005713 
L 315.061262 212.505588 
L 315.293248 212.505588 
L 315.40949 214.005713 
L 316.337445 214.005713 
L 316.45318 215.505838 
L 316.724037 215.505838 
L 316.839822 217.005963 
L 316.956163 217.005963 
L 317.071808 218.506088 
L 317.149136 218.506088 
L 317.265382 220.006213 
L 317.30425 220.006213 
L 317.458462 221.506338 
L 317.535788 221.506338 
L 317.652069 223.006463 
L 317.690446 223.006463 
L 317.845107 226.006713 
L 317.999765 226.006713 
L 318.154423 227.506838 
L 318.73465 227.506838 
L 318.850381 229.006963 
L 318.927714 229.006963 
L 319.082368 232.007213 
L 319.237026 232.007213 
L 319.353308 233.507338 
L 319.391686 233.507338 
L 319.469392 235.007463 
L 319.5851 235.007463 
L 319.701 236.507588 
L 319.817133 236.507588 
L 319.932989 238.007713 
L 320.010317 238.007713 
L 320.126637 239.507838 
L 320.435874 239.507838 
L 320.551623 241.007963 
L 321.131879 241.007963 
L 321.247583 242.508088 
L 322.987751 242.508088 
L 323.103485 244.008213 
L 323.722119 244.008213 
L 323.799445 242.508088 
L 324.882058 242.508088 
L 324.998299 241.007963 
L 326.815788 241.007963 
L 326.931485 239.507838 
L 328.284535 239.507838 
L 328.400785 238.007713 
L 328.478133 238.007713 
L 328.593855 236.507588 
L 328.748512 236.507588 
L 328.864721 238.007713 
L 329.676866 238.007713 
L 329.831123 236.507588 
L 330.759069 236.507588 
L 330.875317 238.007713 
L 331.300376 238.007713 
L 331.416698 239.507838 
L 331.725968 239.507838 
L 331.841679 241.007963 
L 332.421782 241.007963 
L 332.615274 236.507588 
L 333.00161 236.507588 
L 333.117885 238.007713 
L 333.504497 238.007713 
L 333.620246 236.507588 
L 333.968487 236.507588 
L 334.084643 238.007713 
L 334.238881 238.007713 
L 334.355171 239.507838 
L 334.432452 239.507838 
L 334.548203 241.007963 
L 334.78065 241.007963 
L 334.934842 242.508088 
L 335.476148 242.508088 
L 335.630802 244.008213 
L 335.708134 244.008213 
L 335.824455 245.508338 
L 336.249937 245.508338 
L 336.4041 244.008213 
L 336.443042 244.008213 
L 336.558755 242.508088 
L 336.713413 242.508088 
L 336.82973 244.008213 
L 337.525683 244.008213 
L 337.641366 245.508338 
L 338.02801 245.508338 
L 338.144351 247.008463 
L 339.651924 247.008463 
L 339.768243 245.508338 
L 340.154913 245.508338 
L 340.270558 244.008213 
L 341.237457 244.008213 
L 341.353581 242.508088 
L 341.546753 242.508088 
L 341.662483 241.007963 
L 342.899747 241.007963 
L 343.01601 239.507838 
L 343.441053 239.507838 
L 343.518383 241.007963 
L 344.175971 241.007963 
L 344.253275 242.508088 
L 344.678317 242.508088 
L 344.794486 241.007963 
L 344.987636 241.007963 
L 345.14229 239.507838 
L 345.838255 239.507838 
L 345.954567 238.007713 
L 346.186551 238.007713 
L 346.30223 236.507588 
L 346.456885 236.507588 
L 346.611546 235.007463 
L 346.88255 235.007463 
L 346.998191 233.507338 
L 347.075522 233.507338 
L 347.152851 232.007213 
L 347.384837 232.007213 
L 347.501097 230.507088 
L 348.197174 230.507088 
L 348.312788 229.006963 
L 348.583708 229.006963 
L 348.699821 227.506838 
L 348.776761 227.506838 
L 348.931418 224.506588 
L 348.970229 224.506588 
L 349.086074 223.006463 
L 349.163403 223.006463 
L 349.279673 224.506588 
L 349.472717 224.506588 
L 349.588979 223.006463 
L 349.820982 223.006463 
L 349.936696 221.506338 
L 349.975629 221.506338 
L 350.091355 220.006213 
L 350.24601 218.506088 
L 350.439667 218.506088 
L 350.555328 217.005963 
L 350.594295 217.005963 
L 350.709984 215.505838 
L 351.058228 215.505838 
L 351.212973 218.506088 
L 351.637919 218.506088 
L 351.79259 215.505838 
L 351.831514 215.505838 
L 351.986169 212.505588 
L 352.024577 212.505588 
L 352.179235 209.505338 
L 352.295469 209.505338 
L 352.411219 208.005213 
L 352.797867 208.005213 
L 352.952525 205.004963 
L 353.030106 205.004963 
L 353.261841 202.004713 
L 353.33917 202.004713 
L 353.455484 203.504838 
L 353.571157 203.504838 
L 353.725814 200.504588 
L 353.803662 200.504588 
L 353.957797 197.504338 
L 354.074075 197.504338 
L 354.228709 200.504588 
L 354.306055 200.504588 
L 354.421779 199.004463 
L 354.460704 199.004463 
L 354.576432 197.504338 
L 354.653761 197.504338 
L 354.769888 196.004213 
L 354.963077 196.004213 
L 355.079379 194.504088 
L 355.11773 194.504088 
L 355.311108 190.003713 
L 355.349723 190.003713 
L 355.54332 185.503338 
L 355.697988 185.503338 
L 355.813692 184.003213 
L 355.852657 184.003213 
L 355.968811 182.503088 
L 356.045675 182.503088 
L 356.200332 185.503338 
L 356.239284 185.503338 
L 356.354994 184.003213 
L 356.471122 184.003213 
L 356.586977 182.503088 
L 356.66431 182.503088 
L 356.896294 176.502588 
L 357.167234 169.001963 
L 357.205612 169.001963 
L 357.360264 172.002213 
L 357.514926 173.502338 
L 357.631177 173.502338 
L 357.746911 172.002213 
L 358.01791 172.002213 
L 358.095219 167.501838 
L 358.520198 129.998713 
L 358.559072 129.998713 
L 359.023048 114.997463 
L 359.10044 114.997463 
L 359.370809 123.998213 
L 359.525464 117.997713 
L 359.564444 119.497838 
L 359.603308 119.497838 
L 359.718936 123.998213 
L 360.221421 101.496338 
L 360.53074 84.994963 
L 360.608063 84.994963 
L 360.840045 90.995463 
L 361.072358 80.494588 
L 361.265658 89.495338 
L 361.845314 148.000213 
L 361.884095 148.000213 
L 361.999971 141.999713 
L 362.386612 108.996963 
L 362.425624 107.496838 
L 362.463942 108.996963 
L 362.618594 110.497088 
L 362.657484 110.497088 
L 362.773255 104.496588 
L 362.812247 105.996713 
L 362.92791 107.496838 
L 363.121454 107.496838 
L 363.198912 102.996463 
L 363.508138 78.994463 
L 363.585513 72.993963 
L 363.62387 74.494088 
L 363.933178 90.995463 
L 364.319817 96.995963 
L 364.358745 96.995963 
L 364.551806 101.496338 
L 364.745149 101.496338 
L 364.783792 102.996463 
L 364.822649 101.496338 
L 364.900015 101.496338 
L 365.05471 105.996713 
L 365.170435 104.496588 
L 365.247762 104.496588 
L 366.098376 134.499088 
L 366.175682 134.499088 
L 366.214433 132.998963 
L 366.253028 134.499088 
L 366.291933 134.499088 
L 366.407691 135.999213 
L 366.446575 135.999213 
L 366.678568 141.999713 
L 366.910322 141.999713 
L 367.065231 144.999963 
L 367.103648 144.999963 
L 367.258306 141.999713 
L 367.335631 141.999713 
L 367.490289 138.999463 
L 367.568141 138.999463 
L 367.722273 137.499338 
L 367.799602 137.499338 
L 367.99325 141.999713 
L 368.070555 141.999713 
L 368.186248 143.499838 
L 368.263577 141.999713 
L 368.495561 141.999713 
L 368.650218 144.999963 
L 368.689201 144.999963 
L 368.843852 148.000213 
L 368.882199 148.000213 
L 368.998477 149.500338 
L 369.037312 149.500338 
L 369.191516 151.000463 
L 369.346174 151.000463 
L 369.46238 152.500588 
L 369.53977 152.500588 
L 369.655486 154.000713 
L 370.042131 154.000713 
L 370.158366 155.500838 
L 370.274116 155.500838 
L 370.39032 157.000963 
L 370.777013 157.000963 
L 370.892745 158.501088 
L 371.202457 158.501088 
L 371.356719 160.001213 
L 371.395641 160.001213 
L 371.511375 161.501338 
L 371.666035 161.501338 
L 371.782396 163.001463 
L 371.898019 163.001463 
L 372.052678 164.501588 
L 372.130007 164.501588 
L 372.246278 166.001713 
L 372.361991 166.001713 
L 372.516652 169.001963 
L 372.63289 169.001963 
L 372.748633 170.502088 
L 372.903291 170.502088 
L 373.01938 172.002213 
L 373.328816 172.002213 
L 373.444587 173.502338 
L 373.599252 173.502338 
L 373.715521 175.002463 
L 373.908562 175.002463 
L 374.024861 176.502588 
L 374.256726 176.502588 
L 374.372535 178.002713 
L 374.837002 178.002713 
L 374.991166 179.502838 
L 375.648508 179.502838 
L 375.764455 178.002713 
L 375.919111 178.002713 
L 376.035421 179.502838 
L 376.112768 179.502838 
L 376.228428 178.002713 
L 376.615069 178.002713 
L 376.731294 179.502838 
L 376.76973 179.502838 
L 376.886015 181.002963 
L 376.924387 181.002963 
L 377.001711 182.503088 
L 377.156368 182.503088 
L 377.311027 179.502838 
L 378.625617 179.502838 
L 378.741942 181.002963 
L 379.476232 181.002963 
L 379.592571 179.502838 
L 379.862875 179.502838 
L 379.940683 178.002713 
L 380.09486 178.002713 
L 380.211162 176.502588 
L 380.868152 176.502588 
L 380.98445 175.002463 
L 381.061831 175.002463 
L 381.138988 173.502338 
L 381.254796 175.002463 
L 381.641437 175.002463 
L 381.757633 176.502588 
L 381.989741 176.502588 
L 382.105883 178.002713 
L 382.453717 178.002713 
L 382.569383 179.502838 
L 382.60839 179.502838 
L 382.724044 181.002963 
L 382.917401 181.002963 
L 383.033353 179.502838 
L 383.226849 179.502838 
L 383.342673 181.002963 
L 383.497328 181.002963 
L 383.575128 182.503088 
L 383.729313 182.503088 
L 383.845579 184.003213 
L 384.077601 184.003213 
L 384.232267 187.003463 
L 384.270612 187.003463 
L 384.5026 190.003713 
L 384.541474 190.003713 
L 384.657259 191.503838 
L 384.695995 191.503838 
L 384.811913 193.003963 
L 384.928164 193.003963 
L 385.044398 194.504088 
L 385.082573 194.504088 
L 385.237517 197.504338 
L 386.590481 197.504338 
L 386.70673 196.004213 
L 386.899794 196.004213 
L 387.016092 194.504088 
L 387.711984 194.504088 
L 387.827742 193.003963 
L 388.137054 193.003963 
L 388.253295 191.503838 
L 388.291712 191.503838 
L 388.601028 187.003463 
L 388.871922 187.003463 
L 388.98767 185.503338 
L 389.296985 185.503338 
L 389.374705 184.003213 
L 389.76096 184.003213 
L 389.877218 185.503338 
L 390.766234 185.503338 
L 390.843929 187.003463 
L 391.384862 187.003463 
L 391.501092 185.503338 
L 391.539519 185.503338 
L 391.771504 188.503588 
L 391.887747 188.503588 
L 392.003494 187.003463 
L 392.235478 187.003463 
L 392.351458 188.503588 
L 392.854109 188.503588 
L 392.931439 187.003463 
L 393.008769 188.503588 
L 393.318085 188.503588 
L 393.434298 190.003713 
L 393.627396 190.003713 
L 393.704728 188.503588 
L 393.820742 188.503588 
L 393.975463 191.503838 
L 394.478425 191.503838 
L 394.632673 193.003963 
L 394.748993 193.003963 
L 394.864659 194.504088 
L 395.135564 194.504088 
L 395.251776 193.003963 
L 395.71528 193.003963 
L 395.831518 194.504088 
L 396.101924 194.504088 
L 396.218125 196.004213 
L 396.256579 196.004213 
L 396.372848 197.504338 
L 396.411238 197.504338 
L 396.565896 200.504588 
L 396.643225 200.504588 
L 396.797883 202.004713 
L 396.836693 202.004713 
L 396.952541 200.504588 
L 397.030328 200.504588 
L 397.184528 197.504338 
L 397.532688 197.504338 
L 397.687453 200.504588 
L 397.803158 200.504588 
L 397.919456 199.004463 
L 398.074043 199.004463 
L 398.228577 202.004713 
L 398.267133 202.004713 
L 398.421791 205.004963 
L 398.576446 205.004963 
L 398.692715 206.505088 
L 398.924468 206.505088 
L 399.079373 203.504838 
L 399.697855 203.504838 
L 399.852649 200.504588 
L 399.891038 200.504588 
L 400.007318 199.004463 
L 400.200354 199.004463 
L 400.277684 200.504588 
L 400.354993 200.504588 
L 400.471244 199.004463 
L 400.586996 199.004463 
L 400.703211 200.504588 
L 400.935269 200.504588 
L 401.012538 199.004463 
L 401.128298 200.504588 
L 401.321974 200.504588 
L 401.476598 197.504338 
L 401.82426 197.504338 
L 401.863019 199.004463 
L 401.901592 197.504338 
L 402.056244 197.504338 
L 402.210906 200.504588 
L 402.32711 200.504588 
L 402.442895 202.004713 
L 402.636409 202.004713 
L 402.752206 203.504838 
L 402.791162 203.504838 
L 402.906863 202.004713 
L 403.023151 202.004713 
L 403.216616 206.505088 
L 403.602826 212.505588 
L 403.71916 212.505588 
L 403.834813 214.005713 
L 404.144125 214.005713 
L 404.298787 211.005463 
L 404.608105 211.005463 
L 404.762761 214.005713 
L 404.878973 214.005713 
L 404.994745 215.505838 
L 405.111009 215.505838 
L 405.226739 214.005713 
L 405.381393 214.005713 
L 405.613379 211.005463 
L 405.806987 211.005463 
L 405.922694 212.505588 
L 405.961625 212.505588 
L 406.155034 208.005213 
L 406.348322 208.005213 
L 406.502959 211.005463 
L 406.695984 211.005463 
L 406.851055 214.005713 
L 406.966753 214.005713 
L 407.082626 215.505838 
L 407.430926 215.505838 
L 407.546603 218.506088 
L 407.701264 218.506088 
L 407.817574 220.006213 
L 407.894921 220.006213 
L 408.01058 221.506338 
L 408.126897 221.506338 
L 408.242565 220.006213 
L 408.590734 220.006213 
L 408.745511 217.005963 
L 408.8612 217.005963 
L 408.977493 218.506088 
L 409.015858 218.506088 
L 409.170512 220.006213 
L 409.596119 220.006213 
L 409.75076 223.006463 
L 409.905313 223.006463 
L 410.021136 224.506588 
L 410.059939 224.506588 
L 410.175792 226.006713 
L 410.214737 226.006713 
L 410.369312 229.006963 
L 410.485464 229.006963 
L 410.639763 227.506838 
L 411.065392 227.506838 
L 411.29709 221.506338 
L 411.490382 221.506338 
L 411.645042 224.506588 
L 411.722372 224.506588 
L 411.877026 221.506338 
L 412.418333 221.506338 
L 412.534555 220.006213 
L 412.804978 220.006213 
L 412.959637 223.006463 
L 413.036965 223.006463 
L 413.153214 224.506588 
L 413.385207 224.506588 
L 413.539762 227.506838 
L 413.964914 227.506838 
L 414.042242 226.006713 
L 414.119572 227.506838 
L 414.235651 227.506838 
L 414.351563 229.006963 
L 414.699894 229.006963 
L 414.815531 230.507088 
L 415.124849 230.507088 
L 415.241104 232.007213 
L 415.279506 232.007213 
L 415.395819 233.507338 
L 415.511493 233.507338 
L 415.589265 235.007463 
L 415.743479 233.507338 
L 415.820813 233.507338 
L 415.936928 235.007463 
L 416.014356 235.007463 
L 416.130128 233.507338 
L 416.284786 233.507338 
L 416.439446 232.007213 
L 416.710322 232.007213 
L 416.826089 233.507338 
L 417.058509 227.506838 
L 417.212734 226.006713 
L 417.522052 226.006713 
L 417.676709 223.006463 
L 417.715697 223.006463 
L 417.831348 221.506338 
L 417.986028 221.506338 
L 418.140683 218.506088 
L 418.411575 218.506088 
L 418.913972 196.004213 
L 419.339379 170.502088 
L 419.455275 169.001963 
L 419.494232 169.001963 
L 419.764587 155.500838 
L 419.919243 148.000213 
L 420.151231 148.000213 
L 420.460546 138.999463 
L 420.537873 138.999463 
L 420.692991 143.499838 
L 420.769856 141.999713 
L 420.847187 143.499838 
L 421.156499 132.998963 
L 421.350103 137.499338 
L 421.50455 129.998713 
L 421.813919 104.496588 
L 422.084441 92.495588 
L 422.162138 93.995713 
L 422.200441 93.995713 
L 422.393755 95.495838 
L 422.509838 93.995713 
L 422.858118 83.494838 
L 422.935058 84.994963 
L 423.167038 98.496088 
L 423.360686 93.995713 
L 423.476352 93.995713 
L 423.553677 90.995463 
L 423.785663 101.496338 
L 424.017648 107.496838 
L 424.32743 92.495588 
L 424.597873 78.994463 
L 424.713608 72.993963 
L 424.752425 74.494088 
L 425.023338 89.495338 
L 425.254899 86.495088 
L 425.332225 86.495088 
L 425.409559 84.994963 
L 425.56421 87.995213 
L 425.603173 87.995213 
L 425.989731 74.494088 
L 426.067068 75.994213 
L 426.221645 72.993963 
L 426.260167 72.993963 
L 426.453708 77.494338 
L 426.646813 78.994463 
L 426.724137 77.494338 
L 426.80147 78.994463 
L 426.995086 78.994463 
L 427.188108 84.994963 
L 427.304322 83.494838 
L 427.459035 86.495088 
L 427.497416 86.495088 
L 427.57475 83.494838 
L 427.613707 84.994963 
L 427.768387 89.495338 
L 427.884046 87.995213 
L 427.961386 90.995463 
L 429.005622 93.995713 
L 429.624209 72.993963 
L 429.662615 72.993963 
L 429.778837 77.494338 
L 430.126589 60.992963 
L 430.24285 56.492588 
L 430.552123 81.994713 
L 430.629398 81.994713 
L 430.667884 80.494588 
L 430.706821 81.994713 
L 430.745665 81.994713 
L 430.938804 86.495088 
L 431.01613 86.495088 
L 431.248043 80.494588 
L 431.402629 84.994963 
L 431.518494 78.994463 
L 431.750477 63.993213 
L 432.059787 45.991713 
L 432.098663 45.991713 
L 432.291773 38.491088 
L 432.408036 39.991213 
L 432.446432 38.491088 
L 432.485211 39.991213 
L 432.562548 39.991213 
L 432.755738 44.491588 
L 432.833067 44.491588 
L 432.91086 41.491338 
L 433.026535 41.491338 
L 433.142384 36.990963 
L 433.181315 38.491088 
L 433.567928 56.492588 
L 433.722426 62.493088 
L 433.799926 62.493088 
L 434.573252 89.495338 
L 434.611611 89.495338 
L 434.920931 80.494588 
L 434.959891 80.494588 
L 435.037191 78.994463 
L 435.152916 80.494588 
L 435.230245 80.494588 
L 435.423842 72.993963 
L 435.462231 71.493838 
L 435.500986 72.993963 
L 435.616886 74.494088 
L 435.694212 74.494088 
L 435.771542 71.493838 
L 436.158182 77.494338 
L 436.197139 77.494338 
L 436.429153 71.493838 
L 436.506309 71.493838 
L 436.622152 69.993713 
L 436.660985 69.993713 
L 436.931465 77.494338 
L 437.163449 77.494338 
L 437.820931 105.996713 
L 438.091387 119.497838 
L 438.400704 128.498588 
L 438.478027 128.498588 
L 438.710344 134.499088 
L 439.019331 138.999463 
L 439.058282 138.999463 
L 439.212856 141.999713 
L 439.29016 141.999713 
L 439.405978 144.999963 
L 439.522051 144.999963 
L 439.637961 146.500088 
L 443.504393 164.501588 
L 443.620617 166.001713 
L 443.69785 166.001713 
L 443.813705 167.501838 
L 443.968685 167.501838 
L 444.123023 169.001963 
L 444.664324 169.001963 
L 444.818977 170.502088 
L 444.935262 170.502088 
L 445.050966 169.001963 
L 445.205997 169.001963 
L 445.321866 170.502088 
L 445.399131 170.502088 
L 445.514936 172.002213 
L 445.631195 170.502088 
L 445.824245 170.502088 
L 445.940422 172.002213 
L 445.978905 172.002213 
L 446.095085 173.502338 
L 446.133563 173.502338 
L 446.288223 175.002463 
L 446.327093 175.002463 
L 446.520208 179.502838 
L 446.636347 179.502838 
L 446.752194 181.002963 
L 446.829524 181.002963 
L 446.984174 182.503088 
L 447.061505 182.503088 
L 447.177745 184.003213 
L 447.409701 184.003213 
L 447.564263 187.003463 
L 447.757464 187.003463 
L 447.91212 184.003213 
L 448.105534 184.003213 
L 448.221433 182.503088 
L 448.376554 182.503088 
L 448.414798 184.003213 
L 448.878987 185.503338 
L 448.994722 184.003213 
L 449.18823 184.003213 
L 449.226712 185.503338 
L 449.497618 185.503338 
L 449.613354 184.003213 
L 449.884259 184.003213 
L 450 185.503338 
L 450 185.503338 
" clip-path="url(#p6b5f30f38a)" style="fill: none; stroke: #1f77b4; stroke-width: 1.5; stroke-linecap: square"/>
   </g>
   <g id="patch_3">
    <path d="M 46.46 279.561175 
L 46.46 25.44 
" style="fill: none; stroke: #000000; stroke-width: 0.8; stroke-linejoin: miter; stroke-linecap: square"/>
   </g>
   <g id="patch_4">
    <path d="M 450 279.561175 
L 450 25.44 
" style="fill: none; stroke: #000000; stroke-width: 0.8; stroke-linejoin: miter; stroke-linecap: square"/>
   </g>
   <g id="patch_5">
    <path d="M 46.46 279.561175 
L 450 279.561175 
" style="fill: none; stroke: #000000; stroke-width: 0.8; stroke-linejoin: miter; stroke-linecap: square"/>
   </g>
   <g id="patch_6">
    <path d="M 46.46 25.44 
L 450 25.44 
" style="fill: none; stroke: #000000; stroke-width: 0.8; stroke-linejoin: miter; stroke-linecap: square"/>
   </g>
   <g id="text_15">
    <!-- November 2023 -->
    <g transform="translate(199.838125 19.44) scale(0.12 -0.12)">
     <defs>
      <path id="DejaVuSans-4e" d="M 628 4666 
L 1478 4666 
L 3547 763 
L 3547 4666 
L 4159 4666 
L 4159 0 
L 3309 0 
L 1241 3903 
L 1241 0 
L 628 0 
L 628 4666 
z
" transform="scale(0.015625)"/>
      <path id="DejaVuSans-6f" d="M 1959 3097 
Q 1497 3097 1228 2736 
Q 959 2375 959 1747 
Q 959 1119 1226 758 
Q 1494 397 1959 397 
Q 2419 397 2687 759 
Q 2956 1122 2956 1747 
Q 2956 2369 2687 2733 
Q 2419 3097 1959 3097 
z
M 1959 3584 
Q 2709 3584 3137 3096 
Q 3566 2609 3566 1747 
Q 3566 888 3137 398 
Q 2709 -91 1959 -91 
Q 1206 -91 779 398 
Q 353 888 353 1747 
Q 353 2609 779 3096 
Q 1206 3584 1959 3584 
z
" transform="scale(0.015625)"/>
      <path id="DejaVuSans-76" d="M 191 3500 
L 800 3500 
L 1894 563 
L 2988 3500 
L 3597 3500 
L 2284 0 
L 1503 0 
L 191 3500 
z
" transform="scale(0.015625)"/>
      <path id="DejaVuSans-62" d="M 3116 1747 
Q 3116 2381 2855 2742 
Q 2594 3103 2138 3103 
Q 1681 3103 1420 2742 
Q 1159 2381 1159 1747 
Q 1159 1113 1420 752 
Q 1681 391 2138 391 
Q 2594 391 2855 752 
Q 3116 1113 3116 1747 
z
M 1159 2969 
Q 1341 3281 1617 3432 
Q 1894 3584 2278 3584 
Q 2916 3584 3314 3078 
Q 3713 2572 3713 1747 
Q 3713 922 3314 415 
Q 2916 -91 2278 -91 
Q 1894 -91 1617 61 
Q 1341 213 1159 525 
L 1159 0 
L 581 0 
L 581 4863 
L 1159 4863 
L 1159 2969 
z
" transform="scale(0.015625)"/>
     </defs>
     <use xlink:href="#DejaVuSans-4e"/>
     <use xlink:href="#DejaVuSans-6f" x="74.804688"/>
     <use xlink:href="#DejaVuSans-76" x="135.986328"/>
     <use xlink:href="#DejaVuSans-65" x="195.166016"/>
     <use xlink:href="#DejaVuSans-6d" x="256.689453"/>
     <use xlink:href="#DejaVuSans-62" x="354.101562"/>
     <use xlink:href="#DejaVuSans-65" x="417.578125"/>
     <use xlink:href="#DejaVuSans-72" x="479.101562"/>
     <use xlink:href="#DejaVuSans-20" x="520.214844"/>
     <use xlink:href="#DejaVuSans-32" x="552.001953"/>
     <use xlink:href="#DejaVuSans-30" x="615.625"/>
     <use xlink:href="#DejaVuSans-32" x="679.248047"/>
     <use xlink:href="#DejaVuSans-33" x="742.871094"/>
    </g>
   </g>
  </g>
 </g>
 <defs>
  <clipPath id="p6b5f30f38a">
   <rect x="46.46" y="25.44" width="403.54" height="254.121175"/>
  </clipPath>
 </defs>
</svg>
