<?xml version="1.0" encoding="utf-8" standalone="no"?>
<!DOCTYPE svg PUBLIC "-//W3C//DTD SVG 1.1//EN"
  "http://www.w3.org/Graphics/SVG/1.1/DTD/svg11.dtd">
<svg xmlns:xlink="http://www.w3.org/1999/xlink" width="460.8pt" height="345.6pt" viewBox="0 0 460.8 345.6" xmlns="http://www.w3.org/2000/svg" version="1.1">
 <metadata>
  <rdf:RDF xmlns:dc="http://purl.org/dc/elements/1.1/" xmlns:cc="http://creativecommons.org/ns#" xmlns:rdf="http://www.w3.org/1999/02/22-rdf-syntax-ns#">
   <cc:Work>
    <dc:type rdf:resource="http://purl.org/dc/dcmitype/StillImage"/>
    <dc:date>2023-11-07T11:30:24.444782</dc:date>
    <dc:format>image/svg+xml</dc:format>
    <dc:creator>
     <cc:Agent>
      <dc:title>Matplotlib v3.6.3, https://matplotlib.org/</dc:title>
     </cc:Agent>
    </dc:creator>
   </cc:Work>
  </rdf:RDF>
 </metadata>
 <defs>
  <style type="text/css">*{stroke-linejoin: round; stroke-linecap: butt}</style>
 </defs>
 <g id="figure_1">
  <g id="patch_1">
   <path d="M 0 345.6 
L 460.8 345.6 
L 460.8 0 
L 0 0 
z
" style="fill: #ffffff"/>
  </g>
  <g id="axes_1">
   <g id="patch_2">
    <path d="M 51.05 279.561175 
L 450 279.561175 
L 450 25.44 
L 51.05 25.44 
z
" style="fill: #ffffff"/>
   </g>
   <g id="matplotlib.axis_1">
    <g id="xtick_1">
     <g id="line2d_1">
      <path d="M 112.599967 279.561175 
L 112.599967 25.44 
" clip-path="url(#p0ad6982038)" style="fill: none; stroke: #b0b0b0; stroke-width: 0.8; stroke-linecap: square"/>
     </g>
     <g id="line2d_2">
      <defs>
       <path id="md83242a565" d="M 0 0 
L 0 3.5 
" style="stroke: #000000; stroke-width: 0.8"/>
      </defs>
      <g>
       <use xlink:href="#md83242a565" x="112.599967" y="279.561175" style="stroke: #000000; stroke-width: 0.8"/>
      </g>
     </g>
     <g id="text_1">
      <!-- 2023-11-02 -->
      <g transform="translate(70.035454 333.028035) rotate(-45) scale(0.1 -0.1)">
       <defs>
        <path id="DejaVuSans-32" d="M 1228 531 
L 3431 531 
L 3431 0 
L 469 0 
L 469 531 
Q 828 903 1448 1529 
Q 2069 2156 2228 2338 
Q 2531 2678 2651 2914 
Q 2772 3150 2772 3378 
Q 2772 3750 2511 3984 
Q 2250 4219 1831 4219 
Q 1534 4219 1204 4116 
Q 875 4013 500 3803 
L 500 4441 
Q 881 4594 1212 4672 
Q 1544 4750 1819 4750 
Q 2544 4750 2975 4387 
Q 3406 4025 3406 3419 
Q 3406 3131 3298 2873 
Q 3191 2616 2906 2266 
Q 2828 2175 2409 1742 
Q 1991 1309 1228 531 
z
" transform="scale(0.015625)"/>
        <path id="DejaVuSans-30" d="M 2034 4250 
Q 1547 4250 1301 3770 
Q 1056 3291 1056 2328 
Q 1056 1369 1301 889 
Q 1547 409 2034 409 
Q 2525 409 2770 889 
Q 3016 1369 3016 2328 
Q 3016 3291 2770 3770 
Q 2525 4250 2034 4250 
z
M 2034 4750 
Q 2819 4750 3233 4129 
Q 3647 3509 3647 2328 
Q 3647 1150 3233 529 
Q 2819 -91 2034 -91 
Q 1250 -91 836 529 
Q 422 1150 422 2328 
Q 422 3509 836 4129 
Q 1250 4750 2034 4750 
z
" transform="scale(0.015625)"/>
        <path id="DejaVuSans-33" d="M 2597 2516 
Q 3050 2419 3304 2112 
Q 3559 1806 3559 1356 
Q 3559 666 3084 287 
Q 2609 -91 1734 -91 
Q 1441 -91 1130 -33 
Q 819 25 488 141 
L 488 750 
Q 750 597 1062 519 
Q 1375 441 1716 441 
Q 2309 441 2620 675 
Q 2931 909 2931 1356 
Q 2931 1769 2642 2001 
Q 2353 2234 1838 2234 
L 1294 2234 
L 1294 2753 
L 1863 2753 
Q 2328 2753 2575 2939 
Q 2822 3125 2822 3475 
Q 2822 3834 2567 4026 
Q 2313 4219 1838 4219 
Q 1578 4219 1281 4162 
Q 984 4106 628 3988 
L 628 4550 
Q 988 4650 1302 4700 
Q 1616 4750 1894 4750 
Q 2613 4750 3031 4423 
Q 3450 4097 3450 3541 
Q 3450 3153 3228 2886 
Q 3006 2619 2597 2516 
z
" transform="scale(0.015625)"/>
        <path id="DejaVuSans-2d" d="M 313 2009 
L 1997 2009 
L 1997 1497 
L 313 1497 
L 313 2009 
z
" transform="scale(0.015625)"/>
        <path id="DejaVuSans-31" d="M 794 531 
L 1825 531 
L 1825 4091 
L 703 3866 
L 703 4441 
L 1819 4666 
L 2450 4666 
L 2450 531 
L 3481 531 
L 3481 0 
L 794 0 
L 794 531 
z
" transform="scale(0.015625)"/>
       </defs>
       <use xlink:href="#DejaVuSans-32"/>
       <use xlink:href="#DejaVuSans-30" x="63.623047"/>
       <use xlink:href="#DejaVuSans-32" x="127.246094"/>
       <use xlink:href="#DejaVuSans-33" x="190.869141"/>
       <use xlink:href="#DejaVuSans-2d" x="254.492188"/>
       <use xlink:href="#DejaVuSans-31" x="290.576172"/>
       <use xlink:href="#DejaVuSans-31" x="354.199219"/>
       <use xlink:href="#DejaVuSans-2d" x="417.822266"/>
       <use xlink:href="#DejaVuSans-30" x="453.90625"/>
       <use xlink:href="#DejaVuSans-32" x="517.529297"/>
      </g>
     </g>
    </g>
    <g id="xtick_2">
     <g id="line2d_3">
      <path d="M 174.182697 279.561175 
L 174.182697 25.44 
" clip-path="url(#p0ad6982038)" style="fill: none; stroke: #b0b0b0; stroke-width: 0.8; stroke-linecap: square"/>
     </g>
     <g id="line2d_4">
      <g>
       <use xlink:href="#md83242a565" x="174.182697" y="279.561175" style="stroke: #000000; stroke-width: 0.8"/>
      </g>
     </g>
     <g id="text_2">
      <!-- 2023-11-03 -->
      <g transform="translate(131.618184 333.028035) rotate(-45) scale(0.1 -0.1)">
       <use xlink:href="#DejaVuSans-32"/>
       <use xlink:href="#DejaVuSans-30" x="63.623047"/>
       <use xlink:href="#DejaVuSans-32" x="127.246094"/>
       <use xlink:href="#DejaVuSans-33" x="190.869141"/>
       <use xlink:href="#DejaVuSans-2d" x="254.492188"/>
       <use xlink:href="#DejaVuSans-31" x="290.576172"/>
       <use xlink:href="#DejaVuSans-31" x="354.199219"/>
       <use xlink:href="#DejaVuSans-2d" x="417.822266"/>
       <use xlink:href="#DejaVuSans-30" x="453.90625"/>
       <use xlink:href="#DejaVuSans-33" x="517.529297"/>
      </g>
     </g>
    </g>
    <g id="xtick_3">
     <g id="line2d_5">
      <path d="M 235.765427 279.561175 
L 235.765427 25.44 
" clip-path="url(#p0ad6982038)" style="fill: none; stroke: #b0b0b0; stroke-width: 0.8; stroke-linecap: square"/>
     </g>
     <g id="line2d_6">
      <g>
       <use xlink:href="#md83242a565" x="235.765427" y="279.561175" style="stroke: #000000; stroke-width: 0.8"/>
      </g>
     </g>
     <g id="text_3">
      <!-- 2023-11-04 -->
      <g transform="translate(193.200913 333.028035) rotate(-45) scale(0.1 -0.1)">
       <defs>
        <path id="DejaVuSans-34" d="M 2419 4116 
L 825 1625 
L 2419 1625 
L 2419 4116 
z
M 2253 4666 
L 3047 4666 
L 3047 1625 
L 3713 1625 
L 3713 1100 
L 3047 1100 
L 3047 0 
L 2419 0 
L 2419 1100 
L 313 1100 
L 313 1709 
L 2253 4666 
z
" transform="scale(0.015625)"/>
       </defs>
       <use xlink:href="#DejaVuSans-32"/>
       <use xlink:href="#DejaVuSans-30" x="63.623047"/>
       <use xlink:href="#DejaVuSans-32" x="127.246094"/>
       <use xlink:href="#DejaVuSans-33" x="190.869141"/>
       <use xlink:href="#DejaVuSans-2d" x="254.492188"/>
       <use xlink:href="#DejaVuSans-31" x="290.576172"/>
       <use xlink:href="#DejaVuSans-31" x="354.199219"/>
       <use xlink:href="#DejaVuSans-2d" x="417.822266"/>
       <use xlink:href="#DejaVuSans-30" x="453.90625"/>
       <use xlink:href="#DejaVuSans-34" x="517.529297"/>
      </g>
     </g>
    </g>
    <g id="xtick_4">
     <g id="line2d_7">
      <path d="M 297.348157 279.561175 
L 297.348157 25.44 
" clip-path="url(#p0ad6982038)" style="fill: none; stroke: #b0b0b0; stroke-width: 0.8; stroke-linecap: square"/>
     </g>
     <g id="line2d_8">
      <g>
       <use xlink:href="#md83242a565" x="297.348157" y="279.561175" style="stroke: #000000; stroke-width: 0.8"/>
      </g>
     </g>
     <g id="text_4">
      <!-- 2023-11-05 -->
      <g transform="translate(254.783643 333.028035) rotate(-45) scale(0.1 -0.1)">
       <defs>
        <path id="DejaVuSans-35" d="M 691 4666 
L 3169 4666 
L 3169 4134 
L 1269 4134 
L 1269 2991 
Q 1406 3038 1543 3061 
Q 1681 3084 1819 3084 
Q 2600 3084 3056 2656 
Q 3513 2228 3513 1497 
Q 3513 744 3044 326 
Q 2575 -91 1722 -91 
Q 1428 -91 1123 -41 
Q 819 9 494 109 
L 494 744 
Q 775 591 1075 516 
Q 1375 441 1709 441 
Q 2250 441 2565 725 
Q 2881 1009 2881 1497 
Q 2881 1984 2565 2268 
Q 2250 2553 1709 2553 
Q 1456 2553 1204 2497 
Q 953 2441 691 2322 
L 691 4666 
z
" transform="scale(0.015625)"/>
       </defs>
       <use xlink:href="#DejaVuSans-32"/>
       <use xlink:href="#DejaVuSans-30" x="63.623047"/>
       <use xlink:href="#DejaVuSans-32" x="127.246094"/>
       <use xlink:href="#DejaVuSans-33" x="190.869141"/>
       <use xlink:href="#DejaVuSans-2d" x="254.492188"/>
       <use xlink:href="#DejaVuSans-31" x="290.576172"/>
       <use xlink:href="#DejaVuSans-31" x="354.199219"/>
       <use xlink:href="#DejaVuSans-2d" x="417.822266"/>
       <use xlink:href="#DejaVuSans-30" x="453.90625"/>
       <use xlink:href="#DejaVuSans-35" x="517.529297"/>
      </g>
     </g>
    </g>
    <g id="xtick_5">
     <g id="line2d_9">
      <path d="M 358.930887 279.561175 
L 358.930887 25.44 
" clip-path="url(#p0ad6982038)" style="fill: none; stroke: #b0b0b0; stroke-width: 0.8; stroke-linecap: square"/>
     </g>
     <g id="line2d_10">
      <g>
       <use xlink:href="#md83242a565" x="358.930887" y="279.561175" style="stroke: #000000; stroke-width: 0.8"/>
      </g>
     </g>
     <g id="text_5">
      <!-- 2023-11-06 -->
      <g transform="translate(316.366373 333.028035) rotate(-45) scale(0.1 -0.1)">
       <defs>
        <path id="DejaVuSans-36" d="M 2113 2584 
Q 1688 2584 1439 2293 
Q 1191 2003 1191 1497 
Q 1191 994 1439 701 
Q 1688 409 2113 409 
Q 2538 409 2786 701 
Q 3034 994 3034 1497 
Q 3034 2003 2786 2293 
Q 2538 2584 2113 2584 
z
M 3366 4563 
L 3366 3988 
Q 3128 4100 2886 4159 
Q 2644 4219 2406 4219 
Q 1781 4219 1451 3797 
Q 1122 3375 1075 2522 
Q 1259 2794 1537 2939 
Q 1816 3084 2150 3084 
Q 2853 3084 3261 2657 
Q 3669 2231 3669 1497 
Q 3669 778 3244 343 
Q 2819 -91 2113 -91 
Q 1303 -91 875 529 
Q 447 1150 447 2328 
Q 447 3434 972 4092 
Q 1497 4750 2381 4750 
Q 2619 4750 2861 4703 
Q 3103 4656 3366 4563 
z
" transform="scale(0.015625)"/>
       </defs>
       <use xlink:href="#DejaVuSans-32"/>
       <use xlink:href="#DejaVuSans-30" x="63.623047"/>
       <use xlink:href="#DejaVuSans-32" x="127.246094"/>
       <use xlink:href="#DejaVuSans-33" x="190.869141"/>
       <use xlink:href="#DejaVuSans-2d" x="254.492188"/>
       <use xlink:href="#DejaVuSans-31" x="290.576172"/>
       <use xlink:href="#DejaVuSans-31" x="354.199219"/>
       <use xlink:href="#DejaVuSans-2d" x="417.822266"/>
       <use xlink:href="#DejaVuSans-30" x="453.90625"/>
       <use xlink:href="#DejaVuSans-36" x="517.529297"/>
      </g>
     </g>
    </g>
    <g id="xtick_6">
     <g id="line2d_11">
      <path d="M 420.513617 279.561175 
L 420.513617 25.44 
" clip-path="url(#p0ad6982038)" style="fill: none; stroke: #b0b0b0; stroke-width: 0.8; stroke-linecap: square"/>
     </g>
     <g id="line2d_12">
      <g>
       <use xlink:href="#md83242a565" x="420.513617" y="279.561175" style="stroke: #000000; stroke-width: 0.8"/>
      </g>
     </g>
     <g id="text_6">
      <!-- 2023-11-07 -->
      <g transform="translate(377.949103 333.028035) rotate(-45) scale(0.1 -0.1)">
       <defs>
        <path id="DejaVuSans-37" d="M 525 4666 
L 3525 4666 
L 3525 4397 
L 1831 0 
L 1172 0 
L 2766 4134 
L 525 4134 
L 525 4666 
z
" transform="scale(0.015625)"/>
       </defs>
       <use xlink:href="#DejaVuSans-32"/>
       <use xlink:href="#DejaVuSans-30" x="63.623047"/>
       <use xlink:href="#DejaVuSans-32" x="127.246094"/>
       <use xlink:href="#DejaVuSans-33" x="190.869141"/>
       <use xlink:href="#DejaVuSans-2d" x="254.492188"/>
       <use xlink:href="#DejaVuSans-31" x="290.576172"/>
       <use xlink:href="#DejaVuSans-31" x="354.199219"/>
       <use xlink:href="#DejaVuSans-2d" x="417.822266"/>
       <use xlink:href="#DejaVuSans-30" x="453.90625"/>
       <use xlink:href="#DejaVuSans-37" x="517.529297"/>
      </g>
     </g>
    </g>
   </g>
   <g id="matplotlib.axis_2">
    <g id="ytick_1">
     <g id="line2d_13">
      <path d="M 51.05 279.561175 
L 450 279.561175 
" clip-path="url(#p0ad6982038)" style="fill: none; stroke: #b0b0b0; stroke-width: 0.8; stroke-linecap: square"/>
     </g>
     <g id="line2d_14">
      <defs>
       <path id="m2e6b97d3bd" d="M 0 0 
L -3.5 0 
" style="stroke: #000000; stroke-width: 0.8"/>
      </defs>
      <g>
       <use xlink:href="#m2e6b97d3bd" x="51.05" y="279.561175" style="stroke: #000000; stroke-width: 0.8"/>
      </g>
     </g>
     <g id="text_7">
      <!-- 0 -->
      <g transform="translate(37.6875 283.360394) scale(0.1 -0.1)">
       <use xlink:href="#DejaVuSans-30"/>
      </g>
     </g>
    </g>
    <g id="ytick_2">
     <g id="line2d_15">
      <path d="M 51.05 228.73694 
L 450 228.73694 
" clip-path="url(#p0ad6982038)" style="fill: none; stroke: #b0b0b0; stroke-width: 0.8; stroke-linecap: square"/>
     </g>
     <g id="line2d_16">
      <g>
       <use xlink:href="#m2e6b97d3bd" x="51.05" y="228.73694" style="stroke: #000000; stroke-width: 0.8"/>
      </g>
     </g>
     <g id="text_8">
      <!-- 20 -->
      <g transform="translate(31.325 232.536159) scale(0.1 -0.1)">
       <use xlink:href="#DejaVuSans-32"/>
       <use xlink:href="#DejaVuSans-30" x="63.623047"/>
      </g>
     </g>
    </g>
    <g id="ytick_3">
     <g id="line2d_17">
      <path d="M 51.05 177.912705 
L 450 177.912705 
" clip-path="url(#p0ad6982038)" style="fill: none; stroke: #b0b0b0; stroke-width: 0.8; stroke-linecap: square"/>
     </g>
     <g id="line2d_18">
      <g>
       <use xlink:href="#m2e6b97d3bd" x="51.05" y="177.912705" style="stroke: #000000; stroke-width: 0.8"/>
      </g>
     </g>
     <g id="text_9">
      <!-- 40 -->
      <g transform="translate(31.325 181.711924) scale(0.1 -0.1)">
       <use xlink:href="#DejaVuSans-34"/>
       <use xlink:href="#DejaVuSans-30" x="63.623047"/>
      </g>
     </g>
    </g>
    <g id="ytick_4">
     <g id="line2d_19">
      <path d="M 51.05 127.08847 
L 450 127.08847 
" clip-path="url(#p0ad6982038)" style="fill: none; stroke: #b0b0b0; stroke-width: 0.8; stroke-linecap: square"/>
     </g>
     <g id="line2d_20">
      <g>
       <use xlink:href="#m2e6b97d3bd" x="51.05" y="127.08847" style="stroke: #000000; stroke-width: 0.8"/>
      </g>
     </g>
     <g id="text_10">
      <!-- 60 -->
      <g transform="translate(31.325 130.887689) scale(0.1 -0.1)">
       <use xlink:href="#DejaVuSans-36"/>
       <use xlink:href="#DejaVuSans-30" x="63.623047"/>
      </g>
     </g>
    </g>
    <g id="ytick_5">
     <g id="line2d_21">
      <path d="M 51.05 76.264235 
L 450 76.264235 
" clip-path="url(#p0ad6982038)" style="fill: none; stroke: #b0b0b0; stroke-width: 0.8; stroke-linecap: square"/>
     </g>
     <g id="line2d_22">
      <g>
       <use xlink:href="#m2e6b97d3bd" x="51.05" y="76.264235" style="stroke: #000000; stroke-width: 0.8"/>
      </g>
     </g>
     <g id="text_11">
      <!-- 80 -->
      <g transform="translate(31.325 80.063454) scale(0.1 -0.1)">
       <defs>
        <path id="DejaVuSans-38" d="M 2034 2216 
Q 1584 2216 1326 1975 
Q 1069 1734 1069 1313 
Q 1069 891 1326 650 
Q 1584 409 2034 409 
Q 2484 409 2743 651 
Q 3003 894 3003 1313 
Q 3003 1734 2745 1975 
Q 2488 2216 2034 2216 
z
M 1403 2484 
Q 997 2584 770 2862 
Q 544 3141 544 3541 
Q 544 4100 942 4425 
Q 1341 4750 2034 4750 
Q 2731 4750 3128 4425 
Q 3525 4100 3525 3541 
Q 3525 3141 3298 2862 
Q 3072 2584 2669 2484 
Q 3125 2378 3379 2068 
Q 3634 1759 3634 1313 
Q 3634 634 3220 271 
Q 2806 -91 2034 -91 
Q 1263 -91 848 271 
Q 434 634 434 1313 
Q 434 1759 690 2068 
Q 947 2378 1403 2484 
z
M 1172 3481 
Q 1172 3119 1398 2916 
Q 1625 2713 2034 2713 
Q 2441 2713 2670 2916 
Q 2900 3119 2900 3481 
Q 2900 3844 2670 4047 
Q 2441 4250 2034 4250 
Q 1625 4250 1398 4047 
Q 1172 3844 1172 3481 
z
" transform="scale(0.015625)"/>
       </defs>
       <use xlink:href="#DejaVuSans-38"/>
       <use xlink:href="#DejaVuSans-30" x="63.623047"/>
      </g>
     </g>
    </g>
    <g id="ytick_6">
     <g id="line2d_23">
      <path d="M 51.05 25.44 
L 450 25.44 
" clip-path="url(#p0ad6982038)" style="fill: none; stroke: #b0b0b0; stroke-width: 0.8; stroke-linecap: square"/>
     </g>
     <g id="line2d_24">
      <g>
       <use xlink:href="#m2e6b97d3bd" x="51.05" y="25.44" style="stroke: #000000; stroke-width: 0.8"/>
      </g>
     </g>
     <g id="text_12">
      <!-- 100 -->
      <g transform="translate(24.9625 29.239219) scale(0.1 -0.1)">
       <use xlink:href="#DejaVuSans-31"/>
       <use xlink:href="#DejaVuSans-30" x="63.623047"/>
       <use xlink:href="#DejaVuSans-30" x="127.246094"/>
      </g>
     </g>
    </g>
    <g id="text_13">
     <!-- Humidity [%RH] -->
     <g transform="translate(18.882812 192.647463) rotate(-90) scale(0.1 -0.1)">
      <defs>
       <path id="DejaVuSans-48" d="M 628 4666 
L 1259 4666 
L 1259 2753 
L 3553 2753 
L 3553 4666 
L 4184 4666 
L 4184 0 
L 3553 0 
L 3553 2222 
L 1259 2222 
L 1259 0 
L 628 0 
L 628 4666 
z
" transform="scale(0.015625)"/>
       <path id="DejaVuSans-75" d="M 544 1381 
L 544 3500 
L 1119 3500 
L 1119 1403 
Q 1119 906 1312 657 
Q 1506 409 1894 409 
Q 2359 409 2629 706 
Q 2900 1003 2900 1516 
L 2900 3500 
L 3475 3500 
L 3475 0 
L 2900 0 
L 2900 538 
Q 2691 219 2414 64 
Q 2138 -91 1772 -91 
Q 1169 -91 856 284 
Q 544 659 544 1381 
z
M 1991 3584 
L 1991 3584 
z
" transform="scale(0.015625)"/>
       <path id="DejaVuSans-6d" d="M 3328 2828 
Q 3544 3216 3844 3400 
Q 4144 3584 4550 3584 
Q 5097 3584 5394 3201 
Q 5691 2819 5691 2113 
L 5691 0 
L 5113 0 
L 5113 2094 
Q 5113 2597 4934 2840 
Q 4756 3084 4391 3084 
Q 3944 3084 3684 2787 
Q 3425 2491 3425 1978 
L 3425 0 
L 2847 0 
L 2847 2094 
Q 2847 2600 2669 2842 
Q 2491 3084 2119 3084 
Q 1678 3084 1418 2786 
Q 1159 2488 1159 1978 
L 1159 0 
L 581 0 
L 581 3500 
L 1159 3500 
L 1159 2956 
Q 1356 3278 1631 3431 
Q 1906 3584 2284 3584 
Q 2666 3584 2933 3390 
Q 3200 3197 3328 2828 
z
" transform="scale(0.015625)"/>
       <path id="DejaVuSans-69" d="M 603 3500 
L 1178 3500 
L 1178 0 
L 603 0 
L 603 3500 
z
M 603 4863 
L 1178 4863 
L 1178 4134 
L 603 4134 
L 603 4863 
z
" transform="scale(0.015625)"/>
       <path id="DejaVuSans-64" d="M 2906 2969 
L 2906 4863 
L 3481 4863 
L 3481 0 
L 2906 0 
L 2906 525 
Q 2725 213 2448 61 
Q 2172 -91 1784 -91 
Q 1150 -91 751 415 
Q 353 922 353 1747 
Q 353 2572 751 3078 
Q 1150 3584 1784 3584 
Q 2172 3584 2448 3432 
Q 2725 3281 2906 2969 
z
M 947 1747 
Q 947 1113 1208 752 
Q 1469 391 1925 391 
Q 2381 391 2643 752 
Q 2906 1113 2906 1747 
Q 2906 2381 2643 2742 
Q 2381 3103 1925 3103 
Q 1469 3103 1208 2742 
Q 947 2381 947 1747 
z
" transform="scale(0.015625)"/>
       <path id="DejaVuSans-74" d="M 1172 4494 
L 1172 3500 
L 2356 3500 
L 2356 3053 
L 1172 3053 
L 1172 1153 
Q 1172 725 1289 603 
Q 1406 481 1766 481 
L 2356 481 
L 2356 0 
L 1766 0 
Q 1100 0 847 248 
Q 594 497 594 1153 
L 594 3053 
L 172 3053 
L 172 3500 
L 594 3500 
L 594 4494 
L 1172 4494 
z
" transform="scale(0.015625)"/>
       <path id="DejaVuSans-79" d="M 2059 -325 
Q 1816 -950 1584 -1140 
Q 1353 -1331 966 -1331 
L 506 -1331 
L 506 -850 
L 844 -850 
Q 1081 -850 1212 -737 
Q 1344 -625 1503 -206 
L 1606 56 
L 191 3500 
L 800 3500 
L 1894 763 
L 2988 3500 
L 3597 3500 
L 2059 -325 
z
" transform="scale(0.015625)"/>
       <path id="DejaVuSans-20" transform="scale(0.015625)"/>
       <path id="DejaVuSans-5b" d="M 550 4863 
L 1875 4863 
L 1875 4416 
L 1125 4416 
L 1125 -397 
L 1875 -397 
L 1875 -844 
L 550 -844 
L 550 4863 
z
" transform="scale(0.015625)"/>
       <path id="DejaVuSans-25" d="M 4653 2053 
Q 4381 2053 4226 1822 
Q 4072 1591 4072 1178 
Q 4072 772 4226 539 
Q 4381 306 4653 306 
Q 4919 306 5073 539 
Q 5228 772 5228 1178 
Q 5228 1588 5073 1820 
Q 4919 2053 4653 2053 
z
M 4653 2450 
Q 5147 2450 5437 2106 
Q 5728 1763 5728 1178 
Q 5728 594 5436 251 
Q 5144 -91 4653 -91 
Q 4153 -91 3862 251 
Q 3572 594 3572 1178 
Q 3572 1766 3864 2108 
Q 4156 2450 4653 2450 
z
M 1428 4353 
Q 1159 4353 1004 4120 
Q 850 3888 850 3481 
Q 850 3069 1003 2837 
Q 1156 2606 1428 2606 
Q 1700 2606 1854 2837 
Q 2009 3069 2009 3481 
Q 2009 3884 1853 4118 
Q 1697 4353 1428 4353 
z
M 4250 4750 
L 4750 4750 
L 1831 -91 
L 1331 -91 
L 4250 4750 
z
M 1428 4750 
Q 1922 4750 2215 4408 
Q 2509 4066 2509 3481 
Q 2509 2891 2217 2550 
Q 1925 2209 1428 2209 
Q 931 2209 642 2551 
Q 353 2894 353 3481 
Q 353 4063 643 4406 
Q 934 4750 1428 4750 
z
" transform="scale(0.015625)"/>
       <path id="DejaVuSans-52" d="M 2841 2188 
Q 3044 2119 3236 1894 
Q 3428 1669 3622 1275 
L 4263 0 
L 3584 0 
L 2988 1197 
Q 2756 1666 2539 1819 
Q 2322 1972 1947 1972 
L 1259 1972 
L 1259 0 
L 628 0 
L 628 4666 
L 2053 4666 
Q 2853 4666 3247 4331 
Q 3641 3997 3641 3322 
Q 3641 2881 3436 2590 
Q 3231 2300 2841 2188 
z
M 1259 4147 
L 1259 2491 
L 2053 2491 
Q 2509 2491 2742 2702 
Q 2975 2913 2975 3322 
Q 2975 3731 2742 3939 
Q 2509 4147 2053 4147 
L 1259 4147 
z
" transform="scale(0.015625)"/>
       <path id="DejaVuSans-5d" d="M 1947 4863 
L 1947 -844 
L 622 -844 
L 622 -397 
L 1369 -397 
L 1369 4416 
L 622 4416 
L 622 4863 
L 1947 4863 
z
" transform="scale(0.015625)"/>
      </defs>
      <use xlink:href="#DejaVuSans-48"/>
      <use xlink:href="#DejaVuSans-75" x="75.195312"/>
      <use xlink:href="#DejaVuSans-6d" x="138.574219"/>
      <use xlink:href="#DejaVuSans-69" x="235.986328"/>
      <use xlink:href="#DejaVuSans-64" x="263.769531"/>
      <use xlink:href="#DejaVuSans-69" x="327.246094"/>
      <use xlink:href="#DejaVuSans-74" x="355.029297"/>
      <use xlink:href="#DejaVuSans-79" x="394.238281"/>
      <use xlink:href="#DejaVuSans-20" x="453.417969"/>
      <use xlink:href="#DejaVuSans-5b" x="485.205078"/>
      <use xlink:href="#DejaVuSans-25" x="524.21875"/>
      <use xlink:href="#DejaVuSans-52" x="619.238281"/>
      <use xlink:href="#DejaVuSans-48" x="688.720703"/>
      <use xlink:href="#DejaVuSans-5d" x="763.916016"/>
     </g>
    </g>
   </g>
   <g id="line2d_25">
    <path d="M 51.05 58.475753 
L 51.22092 58.475753 
L 51.392209 53.393329 
L 51.494621 53.393329 
L 51.631472 50.852118 
L 51.905166 50.852118 
L 52.042016 48.310906 
L 52.72626 48.310906 
L 52.863525 50.852118 
L 53.034277 50.852118 
L 53.17125 53.393329 
L 53.376485 53.393329 
L 53.478935 55.934541 
L 54.197378 55.934541 
L 54.334389 58.475753 
L 54.710576 58.475753 
L 54.847428 61.016965 
L 54.984275 58.475753 
L 56.147497 58.475753 
L 56.284348 61.016965 
L 56.318751 61.016965 
L 56.489621 55.934541 
L 56.592431 55.934541 
L 56.694893 53.393329 
L 56.866139 53.393329 
L 57.002962 55.934541 
L 57.75566 55.934541 
L 57.892486 58.475753 
L 57.994969 58.475753 
L 58.16615 61.016965 
L 58.439973 61.016965 
L 58.576763 63.558176 
L 58.884489 63.558176 
L 59.021339 61.016965 
L 59.055738 61.016965 
L 59.192564 63.558176 
L 59.979707 63.558176 
L 60.150518 58.475753 
L 60.184557 58.475753 
L 60.321403 55.934541 
L 60.561109 55.934541 
L 60.697876 58.475753 
L 60.903209 58.475753 
L 61.040034 61.016965 
L 61.142504 61.016965 
L 61.27958 63.558176 
L 61.347775 63.558176 
L 61.484626 66.099388 
L 61.929394 66.099388 
L 62.100447 61.016965 
L 62.203264 61.016965 
L 62.340127 63.558176 
L 62.887518 63.558176 
L 63.024363 61.016965 
L 63.537365 61.016965 
L 63.674215 58.475753 
L 64.084759 58.475753 
L 64.256004 63.558176 
L 64.290037 63.558176 
L 64.426888 68.6406 
L 64.495302 68.6406 
L 64.666534 73.723023 
L 64.90586 73.723023 
L 65.042708 76.264235 
L 65.213928 73.723023 
L 65.247981 73.723023 
L 65.384832 76.264235 
L 65.556075 71.181812 
L 66.03506 71.181812 
L 66.171905 73.723023 
L 66.71933 73.723023 
L 66.856184 76.264235 
L 67.642847 76.264235 
L 67.882539 71.181812 
L 67.950924 71.181812 
L 68.08781 68.6406 
L 68.258669 68.6406 
L 68.498352 63.558176 
L 68.60079 63.558176 
L 68.73764 61.016965 
L 69.045648 61.016965 
L 69.182609 58.475753 
L 69.900862 58.475753 
L 70.037712 61.016965 
L 70.072137 61.016965 
L 70.243416 63.558176 
L 70.721962 63.558176 
L 70.858808 66.099388 
L 70.961507 66.099388 
L 71.132512 71.181812 
L 71.235365 71.181812 
L 71.406208 76.264235 
L 71.577266 76.264235 
L 71.782763 86.429082 
L 72.022031 76.264235 
L 72.637856 76.264235 
L 72.774703 86.429082 
L 72.979977 111.8412 
L 73.288051 127.08847 
L 73.390519 127.08847 
L 73.527372 124.547258 
L 73.561703 124.547258 
L 73.698496 122.006047 
L 73.767082 122.006047 
L 73.903932 124.547258 
L 73.937915 122.006047 
L 74.006339 124.547258 
L 74.143176 127.08847 
L 74.177465 127.08847 
L 74.485308 142.335741 
L 74.6566 134.712105 
L 74.895854 144.876952 
L 74.930227 144.876952 
L 75.101125 139.794529 
L 75.13559 139.794529 
L 75.34085 147.418164 
L 75.477562 144.876952 
L 75.546125 144.876952 
L 75.648524 147.418164 
L 75.990641 127.08847 
L 76.195916 127.08847 
L 76.367048 122.006047 
L 76.469611 122.006047 
L 76.606458 124.547258 
L 76.640929 124.547258 
L 76.77766 127.08847 
L 77.564398 127.08847 
L 77.735704 122.006047 
L 77.838091 122.006047 
L 77.975239 124.547258 
L 78.077692 124.547258 
L 78.214681 127.08847 
L 78.453914 127.08847 
L 78.590998 129.629682 
L 78.830486 124.547258 
L 78.93288 124.547258 
L 79.069731 122.006047 
L 79.274993 122.006047 
L 79.411849 124.547258 
L 79.548698 124.547258 
L 79.719983 119.464835 
L 79.788396 119.464835 
L 79.822395 122.006047 
L 79.891134 119.464835 
L 80.267341 119.464835 
L 80.404212 122.006047 
L 80.438212 122.006047 
L 80.575059 124.547258 
L 80.78033 124.547258 
L 80.917182 122.006047 
L 80.95167 122.006047 
L 81.054032 127.08847 
L 81.088519 124.547258 
L 81.191206 124.547258 
L 81.327728 127.08847 
L 81.533001 127.08847 
L 81.704229 144.876952 
L 81.738274 142.335741 
L 81.909474 132.170894 
L 81.943546 134.712105 
L 82.046464 139.794529 
L 82.080394 137.253317 
L 82.285661 137.253317 
L 82.525234 127.08847 
L 82.559361 127.08847 
L 82.696207 124.547258 
L 82.935932 124.547258 
L 83.038327 122.006047 
L 83.175183 122.006047 
L 83.209573 119.464835 
L 83.278043 122.006047 
L 83.346481 122.006047 
L 83.483283 124.547258 
L 83.585723 124.547258 
L 83.722918 122.006047 
L 84.064691 122.006047 
L 84.099031 119.464835 
L 84.167615 122.006047 
L 84.304446 122.006047 
L 84.441093 124.547258 
L 84.612083 124.547258 
L 84.748932 122.006047 
L 84.817354 122.006047 
L 84.954204 124.547258 
L 85.159478 124.547258 
L 85.296326 122.006047 
L 85.775297 122.006047 
L 86.049237 134.712105 
L 86.185846 134.712105 
L 86.323009 129.629682 
L 86.459542 132.170894 
L 86.493991 132.170894 
L 86.664813 127.08847 
L 86.904581 127.08847 
L 87.041291 124.547258 
L 87.417477 124.547258 
L 87.554731 122.006047 
L 87.657053 122.006047 
L 87.725626 124.547258 
L 87.759595 122.006047 
L 88.820403 122.006047 
L 88.991233 116.923623 
L 89.059659 116.923623 
L 89.230892 111.8412 
L 89.470204 111.8412 
L 89.846737 101.676353 
L 90.359721 101.676353 
L 90.496567 99.135141 
L 90.667876 99.135141 
L 90.770615 96.593929 
L 90.907118 96.593929 
L 91.043966 94.052717 
L 91.180817 96.593929 
L 91.38609 96.593929 
L 91.557348 94.052717 
L 92.001907 94.052717 
L 92.138761 76.264235 
L 92.173111 76.264235 
L 92.310074 73.723023 
L 92.446914 73.723023 
L 92.583762 71.181812 
L 92.617729 71.181812 
L 92.75458 68.6406 
L 92.891429 68.6406 
L 93.028276 66.099388 
L 93.780953 66.099388 
L 93.917804 63.558176 
L 94.088977 63.558176 
L 94.225992 61.016965 
L 94.602052 61.016965 
L 94.773315 58.475753 
L 94.807325 58.475753 
L 94.978641 53.393329 
L 95.423141 53.393329 
L 95.559994 55.934541 
L 96.996908 55.934541 
L 97.133753 53.393329 
L 97.57881 53.393329 
L 97.715676 50.852118 
L 98.570664 50.852118 
L 98.707513 48.310906 
L 100.042028 48.310906 
L 100.178921 45.769694 
L 100.418454 45.769694 
L 100.589464 43.228482 
L 100.965516 43.228482 
L 101.102358 40.687271 
L 101.47897 40.687271 
L 101.615835 38.146059 
L 103.223521 38.146059 
L 103.360371 35.604847 
L 104.352596 35.604847 
L 104.489675 33.063635 
L 105.9265 33.063635 
L 106.063347 30.522424 
L 107.602675 30.522424 
L 107.739524 27.981212 
L 154.371022 27.981212 
L 154.576303 35.604847 
L 154.713183 35.604847 
L 154.850051 38.146059 
L 154.918458 38.146059 
L 155.020848 40.687271 
L 155.089279 40.687271 
L 155.226128 43.228482 
L 155.739329 43.228482 
L 155.876414 45.769694 
L 156.184071 45.769694 
L 156.321339 48.310906 
L 157.108001 48.310906 
L 157.244814 45.769694 
L 157.860621 45.769694 
L 157.997594 43.228482 
L 158.85264 43.228482 
L 159.023856 40.687271 
L 161.110652 40.687271 
L 161.247504 43.228482 
L 161.726477 43.228482 
L 161.863326 40.687271 
L 163.71079 40.687271 
L 163.847639 38.146059 
L 164.463461 38.146059 
L 164.600312 35.604847 
L 165.079291 35.604847 
L 165.216136 33.063635 
L 165.661078 33.063635 
L 165.797935 30.522424 
L 166.858323 30.522424 
L 166.995173 27.981212 
L 168.261181 27.981212 
L 168.398109 30.522424 
L 168.705783 30.522424 
L 168.877087 33.063635 
L 168.979484 33.063635 
L 169.116336 35.604847 
L 169.287492 35.604847 
L 169.424434 38.146059 
L 169.629806 38.146059 
L 169.766508 40.687271 
L 170.040345 40.687271 
L 170.177092 43.228482 
L 170.89537 43.228482 
L 171.032221 45.769694 
L 171.81911 45.769694 
L 171.956229 43.228482 
L 172.161386 43.228482 
L 172.298307 40.687271 
L 172.572023 40.687271 
L 172.708852 38.146059 
L 173.085316 38.146059 
L 173.221804 35.604847 
L 173.598416 35.604847 
L 173.734971 38.146059 
L 173.803549 38.146059 
L 173.974477 43.228482 
L 174.111325 43.228482 
L 174.248173 45.769694 
L 174.727149 45.769694 
L 174.863997 43.228482 
L 175.137696 43.228482 
L 175.27454 40.687271 
L 175.617109 40.687271 
L 175.787986 38.146059 
L 176.301306 38.146059 
L 176.437762 35.604847 
L 177.088057 35.604847 
L 177.22485 33.063635 
L 178.319605 33.063635 
L 178.456538 30.522424 
L 179.072329 30.522424 
L 179.209215 33.063635 
L 179.380021 33.063635 
L 179.517246 35.604847 
L 179.722142 35.604847 
L 179.858991 38.146059 
L 180.13304 38.146059 
L 180.269541 40.687271 
L 182.390703 40.687271 
L 182.527553 38.146059 
L 183.109416 38.146059 
L 183.246236 35.604847 
L 183.588331 35.604847 
L 183.725196 38.146059 
L 184.169741 38.146059 
L 184.306589 40.687271 
L 184.990836 40.687271 
L 185.127682 43.228482 
L 186.462192 43.228482 
L 186.598808 40.687271 
L 187.796246 40.687271 
L 187.96748 43.228482 
L 188.00177 43.228482 
L 188.172815 48.310906 
L 188.24124 48.310906 
L 188.378144 50.852118 
L 188.548915 50.852118 
L 188.685764 48.310906 
L 188.993973 48.310906 
L 189.096312 45.769694 
L 189.370009 45.769694 
L 189.506859 48.310906 
L 189.78099 48.310906 
L 189.917408 45.769694 
L 190.909828 45.769694 
L 191.012199 43.228482 
L 192.449115 43.228482 
L 192.585964 40.687271 
L 192.962574 40.687271 
L 193.099283 43.228482 
L 194.296886 43.228482 
L 194.433427 45.769694 
L 194.536267 45.769694 
L 194.673046 43.228482 
L 195.186101 43.228482 
L 195.322946 45.769694 
L 195.425758 45.769694 
L 195.528223 48.310906 
L 195.699474 45.769694 
L 195.801923 48.310906 
L 195.938772 45.769694 
L 196.315216 45.769694 
L 196.452169 43.228482 
L 196.965139 43.228482 
L 197.101989 40.687271 
L 197.512951 40.687271 
L 197.649385 43.228482 
L 198.128681 43.228482 
L 198.29961 45.769694 
L 198.538905 45.769694 
L 198.675758 48.310906 
L 199.154727 48.310906 
L 199.291581 45.769694 
L 201.412753 45.769694 
L 201.549603 48.310906 
L 204.800045 48.310906 
L 204.936902 50.852118 
L 205.176103 50.852118 
L 205.34735 48.310906 
L 205.860702 48.310906 
L 206.031653 50.852118 
L 206.10007 50.852118 
L 206.236925 48.310906 
L 206.476173 48.310906 
L 206.647446 50.852118 
L 206.681441 50.852118 
L 206.818293 53.393329 
L 206.989583 53.393329 
L 207.126422 50.852118 
L 207.434113 50.852118 
L 207.605426 55.934541 
L 207.707814 55.934541 
L 207.844658 58.475753 
L 207.878967 58.475753 
L 208.01594 61.016965 
L 208.049934 61.016965 
L 208.18678 63.558176 
L 208.392056 63.558176 
L 208.563299 66.099388 
L 208.59733 63.558176 
L 208.665757 66.099388 
L 208.871028 66.099388 
L 209.007875 68.6406 
L 209.349998 68.6406 
L 209.486847 66.099388 
L 209.623698 66.099388 
L 209.794829 71.181812 
L 209.863384 71.181812 
L 210.000167 68.6406 
L 210.444794 68.6406 
L 210.616132 63.558176 
L 210.71849 63.558176 
L 210.85534 61.016965 
L 211.197464 61.016965 
L 211.334311 58.475753 
L 212.360683 58.475753 
L 212.497535 55.934541 
L 212.908081 55.934541 
L 213.079363 58.475753 
L 213.181778 58.475753 
L 213.318627 61.016965 
L 213.626546 61.016965 
L 213.695122 58.475753 
L 213.729177 61.016965 
L 214.002873 61.016965 
L 214.139721 63.558176 
L 214.379461 63.558176 
L 214.516246 61.016965 
L 214.892814 61.016965 
L 215.029243 58.475753 
L 215.063728 58.475753 
L 215.200601 55.934541 
L 215.371365 55.934541 
L 215.508679 53.393329 
L 215.71349 53.393329 
L 215.850337 50.852118 
L 216.53458 50.852118 
L 216.671433 48.310906 
L 217.04798 48.310906 
L 217.218828 53.393329 
L 217.253349 53.393329 
L 217.390207 55.934541 
L 217.424451 55.934541 
L 217.595417 58.475753 
L 217.66378 58.475753 
L 217.800651 55.934541 
L 217.903074 55.934541 
L 218.039926 53.393329 
L 218.518896 53.393329 
L 218.655747 50.852118 
L 218.826938 55.934541 
L 218.86102 55.934541 
L 218.997866 58.475753 
L 219.032366 58.475753 
L 219.203141 63.558176 
L 219.237612 63.558176 
L 219.339988 66.099388 
L 219.511276 66.099388 
L 219.64819 68.6406 
L 219.955812 68.6406 
L 220.05846 71.181812 
L 220.195613 68.6406 
L 220.948232 68.6406 
L 221.085123 66.099388 
L 221.153518 66.099388 
L 221.255888 63.558176 
L 221.564045 63.558176 
L 221.598013 61.016965 
L 221.666432 63.558176 
L 222.042877 63.558176 
L 222.179727 61.016965 
L 222.350681 61.016965 
L 222.487528 63.558176 
L 223.034933 63.558176 
L 223.171779 66.099388 
L 223.95875 66.099388 
L 224.095698 63.558176 
L 224.403428 63.558176 
L 224.540704 61.016965 
L 224.677125 61.016965 
L 224.848329 66.099388 
L 224.882402 66.099388 
L 225.019249 68.6406 
L 225.087676 68.6406 
L 225.224528 71.181812 
L 225.464177 71.181812 
L 225.601022 68.6406 
L 225.840669 68.6406 
L 225.977201 71.181812 
L 226.114049 71.181812 
L 226.2509 73.723023 
L 226.353682 73.723023 
L 226.456642 76.264235 
L 226.627442 76.264235 
L 226.729873 78.805447 
L 226.866723 76.264235 
L 227.277275 76.264235 
L 227.414126 73.723023 
L 227.550975 76.264235 
L 227.653733 76.264235 
L 227.79047 73.723023 
L 227.82467 73.723023 
L 227.961521 71.181812 
L 228.508924 71.181812 
L 228.645772 68.6406 
L 229.124742 68.6406 
L 229.26159 66.099388 
L 229.398443 68.6406 
L 229.877419 68.6406 
L 230.014271 71.181812 
L 230.561667 71.181812 
L 230.732948 76.264235 
L 230.801231 76.264235 
L 230.938232 73.723023 
L 231.075002 73.723023 
L 231.211937 76.264235 
L 231.245913 76.264235 
L 231.417223 81.346659 
L 231.485649 81.346659 
L 231.656463 86.429082 
L 231.827784 86.429082 
L 231.964573 83.88787 
L 232.067016 83.88787 
L 232.203867 81.346659 
L 232.375098 83.88787 
L 232.409137 83.88787 
L 232.545989 86.429082 
L 232.64891 86.429082 
L 232.785744 88.970294 
L 232.85419 88.970294 
L 232.888404 91.511506 
L 232.956538 88.970294 
L 233.024966 88.970294 
L 233.161816 86.429082 
L 233.298665 86.429082 
L 233.503938 78.805447 
L 233.675195 76.264235 
L 234.188521 76.264235 
L 234.359486 73.723023 
L 234.530318 73.723023 
L 234.667164 71.181812 
L 235.351413 71.181812 
L 235.488637 73.723023 
L 235.625113 73.723023 
L 235.761965 76.264235 
L 235.864856 76.264235 
L 236.070031 83.88787 
L 236.104378 83.88787 
L 236.275391 88.970294 
L 236.343834 88.970294 
L 236.480701 91.511506 
L 236.719913 91.511506 
L 236.891154 88.970294 
L 236.993611 88.970294 
L 237.130459 91.511506 
L 237.301813 91.511506 
L 237.472591 86.429082 
L 237.506914 86.429082 
L 237.712271 78.805447 
L 237.917651 78.805447 
L 238.019993 76.264235 
L 238.122677 76.264235 
L 238.293691 81.346659 
L 238.328201 81.346659 
L 238.533486 88.970294 
L 238.841094 88.970294 
L 238.977944 91.511506 
L 239.114793 91.511506 
L 239.251643 94.052717 
L 239.491355 94.052717 
L 239.628214 91.511506 
L 239.662197 91.511506 
L 239.799045 94.052717 
L 239.833486 94.052717 
L 239.935894 96.593929 
L 240.278022 96.593929 
L 240.414868 99.135141 
L 240.688572 99.135141 
L 240.722865 101.676353 
L 240.791425 99.135141 
L 240.962272 99.135141 
L 241.099122 101.676353 
L 241.235972 101.676353 
L 241.407115 106.758776 
L 241.509675 106.758776 
L 241.680946 111.8412 
L 241.988648 111.8412 
L 242.228346 101.676353 
L 242.262348 101.676353 
L 242.399197 99.135141 
L 242.536043 99.135141 
L 242.707314 101.676353 
L 242.946599 101.676353 
L 243.083443 99.135141 
L 243.117836 99.135141 
L 243.254496 96.593929 
L 243.323073 96.593929 
L 243.460047 94.052717 
L 243.699273 94.052717 
L 243.836121 91.511506 
L 244.212699 91.511506 
L 244.383524 96.593929 
L 244.691729 96.593929 
L 244.828558 94.052717 
L 245.102261 94.052717 
L 245.238935 96.593929 
L 245.273048 96.593929 
L 245.409899 94.052717 
L 245.581191 99.135141 
L 245.820692 99.135141 
L 245.9573 101.676353 
L 246.436625 101.676353 
L 246.812832 111.8412 
L 246.846824 111.8412 
L 246.983673 109.299988 
L 247.052099 109.299988 
L 247.257376 101.676353 
L 247.291784 101.676353 
L 247.462647 96.593929 
L 247.531077 96.593929 
L 247.667924 99.135141 
L 247.736587 99.135141 
L 247.8732 101.676353 
L 247.941621 101.676353 
L 248.146899 109.299988 
L 248.352531 109.299988 
L 248.523428 111.8412 
L 248.6943 111.8412 
L 248.797187 114.382411 
L 248.968002 109.299988 
L 249.173274 109.299988 
L 249.207762 106.758776 
L 249.276082 109.299988 
L 249.378549 109.299988 
L 249.515403 111.8412 
L 249.549849 111.8412 
L 249.652605 114.382411 
L 250.062802 114.382411 
L 250.199655 116.923623 
L 250.268079 116.923623 
L 250.439329 114.382411 
L 250.473353 114.382411 
L 250.610202 109.299988 
L 250.74705 111.8412 
L 250.815474 111.8412 
L 250.952743 114.382411 
L 251.123566 111.8412 
L 251.192107 111.8412 
L 251.328866 109.299988 
L 251.705002 109.299988 
L 251.841854 111.8412 
L 252.01318 106.758776 
L 252.047128 106.758776 
L 252.183976 104.217564 
L 252.320832 104.217564 
L 252.45768 101.676353 
L 252.56055 101.676353 
L 252.697425 99.135141 
L 252.970945 99.135141 
L 253.039522 101.676353 
L 253.073505 99.135141 
L 253.244813 99.135141 
L 253.450104 91.511506 
L 253.484055 91.511506 
L 253.620902 88.970294 
L 253.757758 91.511506 
L 253.82618 91.511506 
L 253.963033 94.052717 
L 254.134343 94.052717 
L 254.271041 96.593929 
L 254.339618 96.593929 
L 254.442008 99.135141 
L 254.476487 96.593929 
L 254.544936 99.135141 
L 254.681749 99.135141 
L 254.784135 101.676353 
L 256.22106 101.676353 
L 256.357911 99.135141 
L 256.49476 99.135141 
L 256.631612 96.593929 
L 256.836885 96.593929 
L 256.973738 94.052717 
L 257.110586 94.052717 
L 257.486996 114.382411 
L 257.555572 114.382411 
L 258.034489 142.335741 
L 258.068535 142.335741 
L 258.205386 147.418164 
L 258.23986 144.876952 
L 258.308264 147.418164 
L 258.513526 147.418164 
L 258.65025 144.876952 
L 258.787244 144.876952 
L 258.8212 142.335741 
L 258.889628 144.876952 
L 258.992525 144.876952 
L 259.129388 147.418164 
L 259.368603 147.418164 
L 259.539877 152.500588 
L 259.573871 149.959376 
L 259.642296 152.500588 
L 259.710723 152.500588 
L 259.813609 157.583011 
L 259.847974 155.041799 
L 259.984423 152.500588 
L 260.052848 152.500588 
L 260.22418 147.418164 
L 260.326544 147.418164 
L 260.805516 175.371493 
L 260.87394 175.371493 
L 261.010789 177.912705 
L 261.04524 177.912705 
L 261.181869 185.53634 
L 261.216057 182.995129 
L 261.250445 182.995129 
L 261.421333 177.912705 
L 261.489756 177.912705 
L 261.695028 185.53634 
L 261.900301 177.912705 
L 262.276859 177.912705 
L 262.379267 175.371493 
L 262.481963 175.371493 
L 262.516119 177.912705 
L 262.584541 175.371493 
L 262.687453 175.371493 
L 262.755868 172.830282 
L 262.789813 175.371493 
L 262.926663 175.371493 
L 262.995085 172.830282 
L 263.029493 175.371493 
L 263.200363 175.371493 
L 263.337206 177.912705 
L 263.440105 177.912705 
L 263.645374 170.28907 
L 263.679726 170.28907 
L 263.9874 162.665435 
L 264.19271 162.665435 
L 264.295149 165.206646 
L 264.397822 165.206646 
L 264.534875 167.747858 
L 264.671634 165.206646 
L 264.945434 165.206646 
L 265.11624 160.124223 
L 265.150697 160.124223 
L 265.287573 157.583011 
L 265.321515 157.583011 
L 265.561316 167.747858 
L 265.766497 160.124223 
L 265.800483 160.124223 
L 266.074536 147.418164 
L 266.176962 147.418164 
L 266.34788 142.335741 
L 266.382258 142.335741 
L 266.519098 139.794529 
L 266.758426 139.794529 
L 266.895683 142.335741 
L 267.20347 134.712105 
L 267.34027 137.253317 
L 267.374249 137.253317 
L 267.511093 134.712105 
L 267.682355 132.170894 
L 267.819285 132.170894 
L 267.853216 129.629682 
L 267.921642 132.170894 
L 268.400615 132.170894 
L 268.537461 129.629682 
L 268.571784 129.629682 
L 268.640356 127.08847 
L 268.674309 129.629682 
L 268.777173 129.629682 
L 268.94801 142.335741 
L 269.016436 139.794529 
L 269.153285 137.253317 
L 269.187698 137.253317 
L 269.358557 142.335741 
L 269.495746 142.335741 
L 269.598215 147.418164 
L 269.632256 144.876952 
L 270.077214 144.876952 
L 270.248072 139.794529 
L 270.282509 139.794529 
L 270.419352 137.253317 
L 270.453348 137.253317 
L 270.624634 132.170894 
L 270.693076 132.170894 
L 270.863896 137.253317 
L 271.035246 137.253317 
L 271.206012 144.876952 
L 271.411662 137.253317 
L 271.445499 137.253317 
L 271.582627 149.959376 
L 271.651071 149.959376 
L 271.684988 147.418164 
L 271.753413 149.959376 
L 271.787912 149.959376 
L 271.924772 152.500588 
L 272.300807 152.500588 
L 272.642929 134.712105 
L 272.814156 132.170894 
L 272.882668 132.170894 
L 272.98505 129.629682 
L 273.121903 132.170894 
L 273.156295 132.170894 
L 273.327554 127.08847 
L 273.703775 127.08847 
L 273.840617 129.629682 
L 274.011402 129.629682 
L 274.148267 127.08847 
L 274.216688 127.08847 
L 274.353541 129.629682 
L 274.49039 129.629682 
L 274.627613 127.08847 
L 274.969363 127.08847 
L 275.106211 124.547258 
L 275.243506 124.547258 
L 275.414362 127.08847 
L 275.619673 127.08847 
L 275.756518 124.547258 
L 276.098652 124.547258 
L 276.235463 122.006047 
L 276.372198 124.547258 
L 276.406274 124.547258 
L 276.543501 122.006047 
L 276.919691 111.8412 
L 277.330215 111.8412 
L 277.467091 114.382411 
L 277.637917 109.299988 
L 277.843616 109.299988 
L 277.877399 111.8412 
L 277.945963 109.299988 
L 277.980041 109.299988 
L 278.116891 111.8412 
L 278.356587 111.8412 
L 278.459314 109.299988 
L 278.527441 109.299988 
L 278.664293 106.758776 
L 278.972283 106.758776 
L 279.14356 101.676353 
L 279.348536 101.676353 
L 279.485384 99.135141 
L 279.553809 99.135141 
L 279.588261 101.676353 
L 279.656718 99.135141 
L 279.759485 99.135141 
L 279.998801 94.052717 
L 280.135622 96.593929 
L 280.238055 96.593929 
L 280.374907 99.135141 
L 280.477597 99.135141 
L 280.614628 96.593929 
L 280.717028 96.593929 
L 280.853876 99.135141 
L 281.059494 99.135141 
L 281.230365 94.052717 
L 281.298782 94.052717 
L 281.469701 88.970294 
L 281.606548 88.970294 
L 281.743402 86.429082 
L 281.777695 86.429082 
L 281.914681 83.88787 
L 281.948674 83.88787 
L 282.085523 81.346659 
L 282.153952 81.346659 
L 282.290799 78.805447 
L 282.496071 78.805447 
L 282.632925 76.264235 
L 283.693552 76.264235 
L 283.830606 73.723023 
L 283.932992 73.723023 
L 284.06984 71.181812 
L 284.411961 71.181812 
L 284.548811 68.6406 
L 285.814947 68.6406 
L 285.951793 66.099388 
L 286.259435 66.099388 
L 286.396283 63.558176 
L 286.4992 63.558176 
L 286.636048 61.016965 
L 287.012107 61.016965 
L 287.148955 58.475753 
L 287.696353 58.475753 
L 287.867706 55.934541 
L 288.928003 55.934541 
L 289.064848 53.393329 
L 289.270126 53.393329 
L 289.407386 55.934541 
L 289.646711 55.934541 
L 289.783576 53.393329 
L 290.775471 53.393329 
L 290.912322 55.934541 
L 291.322874 55.934541 
L 291.494141 58.475753 
L 291.596568 58.475753 
L 291.733423 55.934541 
L 294.05987 55.934541 
L 294.196717 53.393329 
L 294.983827 53.393329 
L 295.120724 50.852118 
L 297.652444 50.852118 
L 297.75482 48.310906 
L 300.970789 48.310906 
L 301.107639 45.769694 
L 301.244489 48.310906 
L 301.347395 48.310906 
L 301.484208 45.769694 
L 303.126398 45.769694 
L 303.263329 48.310906 
L 304.118335 48.310906 
L 304.255456 45.769694 
L 306.102663 45.769694 
L 306.239512 48.310906 
L 307.4716 48.310906 
L 307.64247 45.769694 
L 316.229555 45.769694 
L 316.366405 43.228482 
L 320.540317 43.228482 
L 320.677168 45.769694 
L 321.019292 45.769694 
L 321.190573 48.310906 
L 322.695985 48.310906 
L 322.832814 50.852118 
L 323.277309 50.852118 
L 323.414161 53.393329 
L 323.482588 53.393329 
L 323.619794 55.934541 
L 323.82471 55.934541 
L 323.859041 53.393329 
L 323.92753 55.934541 
L 324.508957 55.934541 
L 324.645803 58.475753 
L 324.714228 58.475753 
L 324.851079 61.016965 
L 325.022277 61.016965 
L 325.15924 63.558176 
L 325.296064 63.558176 
L 325.466898 68.6406 
L 325.809024 68.6406 
L 325.945873 71.181812 
L 326.390862 71.181812 
L 326.527711 68.6406 
L 326.698542 68.6406 
L 326.733063 71.181812 
L 326.801471 68.6406 
L 327.040664 68.6406 
L 327.177515 86.429082 
L 327.382785 94.052717 
L 327.417257 94.052717 
L 327.588056 99.135141 
L 327.622463 99.135141 
L 327.861755 109.299988 
L 327.930181 109.299988 
L 328.067028 104.217564 
L 328.203876 109.299988 
L 328.40915 101.676353 
L 328.648894 111.8412 
L 328.751272 111.8412 
L 328.922558 114.382411 
L 328.95655 114.382411 
L 329.196239 124.547258 
L 329.333097 122.006047 
L 329.503939 127.08847 
L 329.538314 127.08847 
L 329.675284 129.629682 
L 329.709565 129.629682 
L 329.914478 122.006047 
L 329.948906 122.006047 
L 329.982906 119.464835 
L 330.119755 99.135141 
L 330.256604 91.511506 
L 330.291086 101.676353 
L 330.393455 99.135141 
L 330.427935 99.135141 
L 330.564749 101.676353 
L 330.906931 101.676353 
L 331.112181 109.299988 
L 331.180656 109.299988 
L 331.385589 101.676353 
L 331.454165 101.676353 
L 331.86479 124.547258 
L 331.933309 122.006047 
L 331.967208 124.547258 
L 332.1385 124.547258 
L 332.309327 119.464835 
L 332.412225 119.464835 
L 332.583027 111.8412 
L 332.75426 111.8412 
L 332.788298 109.299988 
L 332.822718 114.382411 
L 332.925152 114.382411 
L 333.0964 106.758776 
L 333.233268 109.299988 
L 333.267644 109.299988 
L 333.507001 104.217564 
L 333.575415 104.217564 
L 333.643864 106.758776 
L 333.677816 104.217564 
L 333.849005 99.135141 
L 334.328083 99.135141 
L 334.362062 96.593929 
L 334.498908 81.346659 
L 334.772609 81.346659 
L 334.943968 76.264235 
L 334.97788 76.264235 
L 335.11473 94.052717 
L 335.149145 94.052717 
L 335.251579 91.511506 
L 335.388427 94.052717 
L 335.525273 94.052717 
L 335.662127 76.264235 
L 336.483618 76.264235 
L 336.654531 73.723023 
L 337.235889 73.723023 
L 337.372736 71.181812 
L 337.509585 71.181812 
L 337.646436 68.6406 
L 338.022999 68.6406 
L 338.15983 66.099388 
L 338.844142 66.099388 
L 338.980988 63.558176 
L 339.45993 63.558176 
L 339.596761 61.016965 
L 339.938895 61.016965 
L 340.075713 58.475753 
L 340.246568 58.475753 
L 340.38341 55.934541 
L 340.520267 58.475753 
L 341.102035 58.475753 
L 341.238999 61.016965 
L 341.444301 61.016965 
L 341.581128 58.475753 
L 342.230873 58.475753 
L 342.402133 61.016965 
L 343.154879 61.016965 
L 343.291665 58.475753 
L 343.394096 58.475753 
L 343.496982 55.934541 
L 343.633653 58.475753 
L 343.73622 58.475753 
L 343.873067 61.016965 
L 344.07834 61.016965 
L 344.215647 63.558176 
L 345.173134 63.558176 
L 345.309984 61.016965 
L 346.199505 61.016965 
L 346.336356 63.558176 
L 348.286714 63.558176 
L 348.423593 61.016965 
L 348.59437 61.016965 
L 348.662792 58.475753 
L 348.834038 61.016965 
L 349.07334 61.016965 
L 349.210191 63.558176 
L 349.552306 63.558176 
L 349.689156 61.016965 
L 349.826006 63.558176 
L 349.894431 63.558176 
L 350.031272 61.016965 
L 350.373407 61.016965 
L 350.510252 58.475753 
L 350.578682 58.475753 
L 350.749899 55.934541 
L 351.126081 55.934541 
L 351.263274 53.393329 
L 351.468201 53.393329 
L 351.605047 50.852118 
L 352.118462 50.852118 
L 352.25528 48.310906 
L 352.973541 48.310906 
L 353.110393 45.769694 
L 353.384089 45.769694 
L 353.520939 48.310906 
L 353.897273 48.310906 
L 354.03434 50.852118 
L 354.342036 50.852118 
L 354.479229 53.393329 
L 354.650135 55.934541 
L 354.821008 55.934541 
L 354.957859 58.475753 
L 355.265942 58.475753 
L 355.402843 55.934541 
L 356.121078 55.934541 
L 356.257923 58.475753 
L 356.668471 58.475753 
L 356.805322 61.016965 
L 357.215868 61.016965 
L 357.352722 63.558176 
L 357.694843 63.558176 
L 357.866135 66.099388 
L 358.242237 66.099388 
L 358.379451 68.6406 
L 359.610733 68.6406 
L 359.781992 71.181812 
L 360.12418 71.181812 
L 360.261041 73.723023 
L 360.671559 73.723023 
L 360.808331 71.181812 
L 362.074023 71.181812 
L 362.142448 73.723023 
L 362.176867 71.181812 
L 362.519008 71.181812 
L 362.655871 68.6406 
L 363.100397 68.6406 
L 363.237244 71.181812 
L 363.682131 71.181812 
L 363.819153 73.723023 
L 363.92149 73.723023 
L 364.058341 76.264235 
L 364.571798 76.264235 
L 364.708633 78.805447 
L 365.016284 78.805447 
L 365.18763 83.88787 
L 365.221561 83.88787 
L 365.35841 86.429082 
L 365.563687 86.429082 
L 365.700532 88.970294 
L 365.837385 86.429082 
L 366.042661 86.429082 
L 366.213893 83.88787 
L 366.350826 83.88787 
L 366.487725 86.429082 
L 366.590058 86.429082 
L 366.829654 76.264235 
L 367.06903 76.264235 
L 367.205879 73.723023 
L 367.650855 73.723023 
L 367.787703 76.264235 
L 368.232255 76.264235 
L 368.3691 73.723023 
L 368.608848 73.723023 
L 368.745516 76.264235 
L 368.882441 76.264235 
L 369.019389 78.805447 
L 369.156221 78.805447 
L 369.361274 86.429082 
L 369.600746 86.429082 
L 369.737594 83.88787 
L 370.011293 83.88787 
L 370.148143 81.346659 
L 370.456337 81.346659 
L 370.627538 76.264235 
L 370.969246 76.264235 
L 371.003726 73.723023 
L 371.072169 76.264235 
L 371.311367 76.264235 
L 371.379793 73.723023 
L 371.414285 76.264235 
L 372.748293 76.264235 
L 372.885141 73.723023 
L 373.466969 73.723023 
L 373.603827 71.181812 
L 373.672307 71.181812 
L 373.775031 73.723023 
L 373.843513 73.723023 
L 373.979939 76.264235 
L 374.322062 76.264235 
L 374.459317 81.346659 
L 374.664183 81.346659 
L 374.835473 86.429082 
L 374.937882 86.429082 
L 375.074733 88.970294 
L 375.348436 88.970294 
L 375.485288 86.429082 
L 375.725003 86.429082 
L 375.930261 78.805447 
L 376.03268 78.805447 
L 376.169531 76.264235 
L 376.614521 76.264235 
L 376.648512 78.805447 
L 376.716936 76.264235 
L 377.367199 76.264235 
L 377.504099 73.723023 
L 377.572393 73.723023 
L 377.67527 71.181812 
L 378.564405 71.181812 
L 378.598873 73.723023 
L 378.667242 71.181812 
L 378.804147 71.181812 
L 378.940958 73.723023 
L 378.975336 73.723023 
L 379.146251 76.264235 
L 379.317081 76.264235 
L 379.522352 83.88787 
L 379.556851 83.88787 
L 379.693474 86.429082 
L 379.76205 86.429082 
L 379.932901 91.511506 
L 380.06975 91.511506 
L 380.206598 88.970294 
L 380.275487 88.970294 
L 380.617149 106.758776 
L 380.753998 106.758776 
L 380.788467 104.217564 
L 380.85688 106.758776 
L 381.19903 124.547258 
L 381.472664 124.547258 
L 381.609332 127.08847 
L 381.677909 127.08847 
L 381.814792 129.629682 
L 381.848788 129.629682 
L 381.883082 127.08847 
L 382.020122 147.418164 
L 382.054063 147.418164 
L 382.088512 149.959376 
L 382.191319 137.253317 
L 382.396535 137.253317 
L 382.430631 134.712105 
L 382.533033 147.418164 
L 382.567463 144.876952 
L 382.738305 139.794529 
L 382.90943 139.794529 
L 383.183177 152.500588 
L 383.422549 152.500588 
L 383.525192 160.124223 
L 383.696246 157.583011 
L 383.798963 152.500588 
L 383.969941 152.500588 
L 384.038369 157.583011 
L 384.10714 155.041799 
L 384.278109 157.583011 
L 384.312063 157.583011 
L 384.414907 152.500588 
L 384.448914 155.041799 
L 384.517337 155.041799 
L 384.551839 152.500588 
L 384.585762 155.041799 
L 384.722608 157.583011 
L 384.893869 157.583011 
L 384.96232 152.500588 
L 384.996306 155.041799 
L 385.064728 157.583011 
L 385.099186 155.041799 
L 385.236004 152.500588 
L 385.270002 152.500588 
L 385.407265 149.959376 
L 385.441052 149.959376 
L 385.578205 152.500588 
L 385.646568 152.500588 
L 385.954654 167.747858 
L 386.159512 160.124223 
L 386.296362 165.206646 
L 386.433212 162.665435 
L 386.467747 165.206646 
L 386.536111 162.665435 
L 386.707277 157.583011 
L 386.912184 165.206646 
L 386.94659 165.206646 
L 386.980609 162.665435 
L 387.049034 165.206646 
L 387.288709 165.206646 
L 387.596428 157.583011 
L 387.755324 157.583011 
L 387.801695 160.124223 
L 387.836172 157.583011 
L 387.870481 157.583011 
L 388.109829 152.500588 
L 388.485934 152.500588 
L 388.622783 149.959376 
L 389.580724 137.253317 
L 389.717572 139.794529 
L 389.75206 137.253317 
L 389.786427 139.794529 
L 389.9573 142.335741 
L 390.059698 142.335741 
L 390.162573 147.418164 
L 390.196548 144.876952 
L 390.470594 144.876952 
L 390.607094 152.500588 
L 390.641544 152.500588 
L 390.70993 160.124223 
L 390.743936 152.500588 
L 390.846775 152.500588 
L 391.017637 147.418164 
L 391.325784 147.418164 
L 391.428181 144.876952 
L 391.599381 149.959376 
L 391.633455 149.959376 
L 391.838727 142.335741 
L 392.146893 157.583011 
L 392.180848 157.583011 
L 392.317693 162.665435 
L 392.420358 162.665435 
L 392.591391 167.747858 
L 392.694137 167.747858 
L 392.762674 170.28907 
L 392.796662 167.747858 
L 392.831101 165.206646 
L 392.899396 167.747858 
L 392.933506 167.747858 
L 392.967965 165.206646 
L 393.002342 167.747858 
L 393.070356 170.28907 
L 393.104698 167.747858 
L 393.207207 167.747858 
L 393.378505 172.830282 
L 393.412479 172.830282 
L 393.549326 170.28907 
L 393.617749 170.28907 
L 393.823022 165.206646 
L 393.857481 167.747858 
L 393.994322 152.500588 
L 394.23357 152.500588 
L 394.404774 149.959376 
L 394.507258 149.959376 
L 394.610115 144.876952 
L 394.644111 147.418164 
L 394.678599 147.418164 
L 394.815434 144.876952 
L 394.883833 144.876952 
L 394.918231 147.418164 
L 394.986233 144.876952 
L 395.054658 144.876952 
L 395.157583 142.335741 
L 395.362769 149.959376 
L 395.465201 149.959376 
L 395.533626 147.418164 
L 395.636315 152.500588 
L 395.704892 149.959376 
L 395.773371 149.959376 
L 395.875746 152.500588 
L 396.047057 147.418164 
L 396.320653 147.418164 
L 396.491566 152.500588 
L 396.559988 152.500588 
L 396.731251 147.418164 
L 396.902112 147.418164 
L 397.073267 142.335741 
L 397.14185 142.335741 
L 397.312651 147.418164 
L 397.381077 147.418164 
L 397.518287 142.335741 
L 397.826102 142.335741 
L 397.96283 139.794529 
L 398.065319 142.335741 
L 398.441909 122.006047 
L 398.510373 122.006047 
L 398.647087 106.758776 
L 398.852277 106.758776 
L 398.95484 104.217564 
L 402.444492 96.593929 
L 402.478906 96.593929 
L 402.615761 94.052717 
L 402.649762 94.052717 
L 402.786896 91.511506 
L 403.094738 91.511506 
L 403.231595 88.970294 
L 403.676132 88.970294 
L 403.812978 91.511506 
L 404.018254 91.511506 
L 404.155101 94.052717 
L 404.189437 94.052717 
L 404.360774 88.970294 
L 404.531594 88.970294 
L 404.702495 83.88787 
L 404.873741 81.346659 
L 404.97619 81.346659 
L 405.113039 78.805447 
L 405.249893 81.346659 
L 405.420958 81.346659 
L 405.558039 78.805447 
L 405.865708 78.805447 
L 406.002968 76.264235 
L 406.242269 76.264235 
L 406.413106 81.346659 
L 406.481532 81.346659 
L 406.618381 83.88787 
L 407.268617 83.88787 
L 407.405427 86.429082 
L 408.465853 86.429082 
L 408.6027 83.88787 
L 408.637067 83.88787 
L 408.808283 78.805447 
L 408.910732 78.805447 
L 409.047559 76.264235 
L 409.731818 76.264235 
L 409.868753 78.805447 
L 410.00559 76.264235 
L 410.108369 76.264235 
L 410.244891 78.805447 
L 410.347682 78.805447 
L 410.484588 76.264235 
L 410.552965 76.264235 
L 410.689818 73.723023 
L 411.168785 73.723023 
L 411.305674 76.264235 
L 411.750233 76.264235 
L 411.887079 73.723023 
L 412.639752 73.723023 
L 412.810976 76.264235 
L 414.008247 76.264235 
L 414.145098 78.805447 
L 414.829343 78.805447 
L 414.966194 81.346659 
L 415.103043 81.346659 
L 415.171469 83.88787 
L 415.205872 81.346659 
L 415.240254 81.346659 
L 415.411174 83.88787 
L 415.821775 83.88787 
L 415.99256 78.805447 
L 416.026977 78.805447 
L 416.163792 76.264235 
L 416.300699 78.805447 
L 416.334685 78.805447 
L 416.471536 76.264235 
L 417.053281 76.264235 
L 417.156132 78.805447 
L 417.258501 78.805447 
L 417.361056 81.346659 
L 417.53229 76.264235 
L 419.037634 76.264235 
L 419.174361 73.723023 
L 419.790123 73.723023 
L 419.927186 76.264235 
L 419.961196 76.264235 
L 420.098043 73.723023 
L 421.466539 73.723023 
L 421.569396 71.181812 
L 421.672185 73.723023 
L 422.390324 73.723023 
L 422.527301 76.264235 
L 423.450855 76.264235 
L 423.553729 73.723023 
L 423.690424 76.264235 
L 424.135103 76.264235 
L 424.272289 78.805447 
L 424.545648 78.805447 
L 424.682496 76.264235 
L 425.298322 76.264235 
L 425.435169 73.723023 
L 425.60628 73.723023 
L 425.743243 76.264235 
L 427.351054 76.264235 
L 427.488278 73.723023 
L 427.624757 76.264235 
L 427.796029 76.264235 
L 427.932843 73.723023 
L 428.001322 73.723023 
L 428.103982 71.181812 
L 428.37743 71.181812 
L 428.514275 68.6406 
L 428.617163 68.6406 
L 428.71955 66.099388 
L 428.890802 66.099388 
L 429.027661 63.558176 
L 429.404169 63.558176 
L 429.540643 61.016965 
L 430.019613 61.016965 
L 430.190904 58.475753 
L 430.39617 58.475753 
L 430.532929 55.934541 
L 430.635441 55.934541 
L 430.704174 58.475753 
L 430.738089 55.934541 
L 430.875162 55.934541 
L 431.011956 58.475753 
L 431.388108 58.475753 
L 431.52496 61.016965 
L 431.833087 61.016965 
L 431.935502 58.475753 
L 433.748982 58.475753 
L 433.851396 55.934541 
L 433.988247 55.934541 
L 434.125094 53.393329 
L 435.117443 53.393329 
L 435.288316 58.475753 
L 436.246261 58.475753 
L 436.38311 61.016965 
L 436.896497 61.016965 
L 437.033366 58.475753 
L 437.238584 58.475753 
L 437.375457 55.934541 
L 437.751906 55.934541 
L 437.922903 53.393329 
L 438.607178 53.393329 
L 438.743969 50.852118 
L 438.880756 50.852118 
L 439.017685 53.393329 
L 439.359777 53.393329 
L 439.496644 50.852118 
L 441.891577 50.852118 
L 442.028403 48.310906 
L 445.415157 48.310906 
L 445.552011 50.852118 
L 447.365571 50.852118 
L 447.502216 53.393329 
L 448.289 53.393329 
L 448.425848 55.934541 
L 449.110089 55.934541 
L 449.246943 58.475753 
L 449.93119 58.475753 
L 450 55.934541 
L 450 55.934541 
" clip-path="url(#p0ad6982038)" style="fill: none; stroke: #ff7f0e; stroke-width: 1.5; stroke-linecap: square"/>
   </g>
   <g id="patch_3">
    <path d="M 51.05 279.561175 
L 51.05 25.44 
" style="fill: none; stroke: #000000; stroke-width: 0.8; stroke-linejoin: miter; stroke-linecap: square"/>
   </g>
   <g id="patch_4">
    <path d="M 450 279.561175 
L 450 25.44 
" style="fill: none; stroke: #000000; stroke-width: 0.8; stroke-linejoin: miter; stroke-linecap: square"/>
   </g>
   <g id="patch_5">
    <path d="M 51.05 279.561175 
L 450 279.561175 
" style="fill: none; stroke: #000000; stroke-width: 0.8; stroke-linejoin: miter; stroke-linecap: square"/>
   </g>
   <g id="patch_6">
    <path d="M 51.05 25.44 
L 450 25.44 
" style="fill: none; stroke: #000000; stroke-width: 0.8; stroke-linejoin: miter; stroke-linecap: square"/>
   </g>
   <g id="text_14">
    <!-- November 2023 -->
    <g transform="translate(202.133125 19.44) scale(0.12 -0.12)">
     <defs>
      <path id="DejaVuSans-4e" d="M 628 4666 
L 1478 4666 
L 3547 763 
L 3547 4666 
L 4159 4666 
L 4159 0 
L 3309 0 
L 1241 3903 
L 1241 0 
L 628 0 
L 628 4666 
z
" transform="scale(0.015625)"/>
      <path id="DejaVuSans-6f" d="M 1959 3097 
Q 1497 3097 1228 2736 
Q 959 2375 959 1747 
Q 959 1119 1226 758 
Q 1494 397 1959 397 
Q 2419 397 2687 759 
Q 2956 1122 2956 1747 
Q 2956 2369 2687 2733 
Q 2419 3097 1959 3097 
z
M 1959 3584 
Q 2709 3584 3137 3096 
Q 3566 2609 3566 1747 
Q 3566 888 3137 398 
Q 2709 -91 1959 -91 
Q 1206 -91 779 398 
Q 353 888 353 1747 
Q 353 2609 779 3096 
Q 1206 3584 1959 3584 
z
" transform="scale(0.015625)"/>
      <path id="DejaVuSans-76" d="M 191 3500 
L 800 3500 
L 1894 563 
L 2988 3500 
L 3597 3500 
L 2284 0 
L 1503 0 
L 191 3500 
z
" transform="scale(0.015625)"/>
      <path id="DejaVuSans-65" d="M 3597 1894 
L 3597 1613 
L 953 1613 
Q 991 1019 1311 708 
Q 1631 397 2203 397 
Q 2534 397 2845 478 
Q 3156 559 3463 722 
L 3463 178 
Q 3153 47 2828 -22 
Q 2503 -91 2169 -91 
Q 1331 -91 842 396 
Q 353 884 353 1716 
Q 353 2575 817 3079 
Q 1281 3584 2069 3584 
Q 2775 3584 3186 3129 
Q 3597 2675 3597 1894 
z
M 3022 2063 
Q 3016 2534 2758 2815 
Q 2500 3097 2075 3097 
Q 1594 3097 1305 2825 
Q 1016 2553 972 2059 
L 3022 2063 
z
" transform="scale(0.015625)"/>
      <path id="DejaVuSans-62" d="M 3116 1747 
Q 3116 2381 2855 2742 
Q 2594 3103 2138 3103 
Q 1681 3103 1420 2742 
Q 1159 2381 1159 1747 
Q 1159 1113 1420 752 
Q 1681 391 2138 391 
Q 2594 391 2855 752 
Q 3116 1113 3116 1747 
z
M 1159 2969 
Q 1341 3281 1617 3432 
Q 1894 3584 2278 3584 
Q 2916 3584 3314 3078 
Q 3713 2572 3713 1747 
Q 3713 922 3314 415 
Q 2916 -91 2278 -91 
Q 1894 -91 1617 61 
Q 1341 213 1159 525 
L 1159 0 
L 581 0 
L 581 4863 
L 1159 4863 
L 1159 2969 
z
" transform="scale(0.015625)"/>
      <path id="DejaVuSans-72" d="M 2631 2963 
Q 2534 3019 2420 3045 
Q 2306 3072 2169 3072 
Q 1681 3072 1420 2755 
Q 1159 2438 1159 1844 
L 1159 0 
L 581 0 
L 581 3500 
L 1159 3500 
L 1159 2956 
Q 1341 3275 1631 3429 
Q 1922 3584 2338 3584 
Q 2397 3584 2469 3576 
Q 2541 3569 2628 3553 
L 2631 2963 
z
" transform="scale(0.015625)"/>
     </defs>
     <use xlink:href="#DejaVuSans-4e"/>
     <use xlink:href="#DejaVuSans-6f" x="74.804688"/>
     <use xlink:href="#DejaVuSans-76" x="135.986328"/>
     <use xlink:href="#DejaVuSans-65" x="195.166016"/>
     <use xlink:href="#DejaVuSans-6d" x="256.689453"/>
     <use xlink:href="#DejaVuSans-62" x="354.101562"/>
     <use xlink:href="#DejaVuSans-65" x="417.578125"/>
     <use xlink:href="#DejaVuSans-72" x="479.101562"/>
     <use xlink:href="#DejaVuSans-20" x="520.214844"/>
     <use xlink:href="#DejaVuSans-32" x="552.001953"/>
     <use xlink:href="#DejaVuSans-30" x="615.625"/>
     <use xlink:href="#DejaVuSans-32" x="679.248047"/>
     <use xlink:href="#DejaVuSans-33" x="742.871094"/>
    </g>
   </g>
  </g>
 </g>
 <defs>
  <clipPath id="p0ad6982038">
   <rect x="51.05" y="25.44" width="398.95" height="254.121175"/>
  </clipPath>
 </defs>
</svg>
