<?xml version="1.0" encoding="utf-8" standalone="no"?>
<!DOCTYPE svg PUBLIC "-//W3C//DTD SVG 1.1//EN"
  "http://www.w3.org/Graphics/SVG/1.1/DTD/svg11.dtd">
<svg xmlns:xlink="http://www.w3.org/1999/xlink" width="460.8pt" height="345.6pt" viewBox="0 0 460.8 345.6" xmlns="http://www.w3.org/2000/svg" version="1.1">
 <metadata>
  <rdf:RDF xmlns:dc="http://purl.org/dc/elements/1.1/" xmlns:cc="http://creativecommons.org/ns#" xmlns:rdf="http://www.w3.org/1999/02/22-rdf-syntax-ns#">
   <cc:Work>
    <dc:type rdf:resource="http://purl.org/dc/dcmitype/StillImage"/>
    <dc:date>2023-11-09T03:39:11.850913</dc:date>
    <dc:format>image/svg+xml</dc:format>
    <dc:creator>
     <cc:Agent>
      <dc:title>Matplotlib v3.6.3, https://matplotlib.org/</dc:title>
     </cc:Agent>
    </dc:creator>
   </cc:Work>
  </rdf:RDF>
 </metadata>
 <defs>
  <style type="text/css">*{stroke-linejoin: round; stroke-linecap: butt}</style>
 </defs>
 <g id="figure_1">
  <g id="patch_1">
   <path d="M 0 345.6 
L 460.8 345.6 
L 460.8 0 
L 0 0 
z
" style="fill: #ffffff"/>
  </g>
  <g id="axes_1">
   <g id="patch_2">
    <path d="M 51.05 279.561175 
L 450 279.561175 
L 450 25.44 
L 51.05 25.44 
z
" style="fill: #ffffff"/>
   </g>
   <g id="matplotlib.axis_1">
    <g id="xtick_1">
     <g id="line2d_1">
      <path d="M 99.971962 279.561175 
L 99.971962 25.44 
" clip-path="url(#p22645c7719)" style="fill: none; stroke: #b0b0b0; stroke-width: 0.8; stroke-linecap: square"/>
     </g>
     <g id="line2d_2">
      <defs>
       <path id="m7393ef9002" d="M 0 0 
L 0 3.5 
" style="stroke: #000000; stroke-width: 0.8"/>
      </defs>
      <g>
       <use xlink:href="#m7393ef9002" x="99.971962" y="279.561175" style="stroke: #000000; stroke-width: 0.8"/>
      </g>
     </g>
     <g id="text_1">
      <!-- 2023-11-02 -->
      <g transform="translate(57.407448 333.028035) rotate(-45) scale(0.1 -0.1)">
       <defs>
        <path id="DejaVuSans-32" d="M 1228 531 
L 3431 531 
L 3431 0 
L 469 0 
L 469 531 
Q 828 903 1448 1529 
Q 2069 2156 2228 2338 
Q 2531 2678 2651 2914 
Q 2772 3150 2772 3378 
Q 2772 3750 2511 3984 
Q 2250 4219 1831 4219 
Q 1534 4219 1204 4116 
Q 875 4013 500 3803 
L 500 4441 
Q 881 4594 1212 4672 
Q 1544 4750 1819 4750 
Q 2544 4750 2975 4387 
Q 3406 4025 3406 3419 
Q 3406 3131 3298 2873 
Q 3191 2616 2906 2266 
Q 2828 2175 2409 1742 
Q 1991 1309 1228 531 
z
" transform="scale(0.015625)"/>
        <path id="DejaVuSans-30" d="M 2034 4250 
Q 1547 4250 1301 3770 
Q 1056 3291 1056 2328 
Q 1056 1369 1301 889 
Q 1547 409 2034 409 
Q 2525 409 2770 889 
Q 3016 1369 3016 2328 
Q 3016 3291 2770 3770 
Q 2525 4250 2034 4250 
z
M 2034 4750 
Q 2819 4750 3233 4129 
Q 3647 3509 3647 2328 
Q 3647 1150 3233 529 
Q 2819 -91 2034 -91 
Q 1250 -91 836 529 
Q 422 1150 422 2328 
Q 422 3509 836 4129 
Q 1250 4750 2034 4750 
z
" transform="scale(0.015625)"/>
        <path id="DejaVuSans-33" d="M 2597 2516 
Q 3050 2419 3304 2112 
Q 3559 1806 3559 1356 
Q 3559 666 3084 287 
Q 2609 -91 1734 -91 
Q 1441 -91 1130 -33 
Q 819 25 488 141 
L 488 750 
Q 750 597 1062 519 
Q 1375 441 1716 441 
Q 2309 441 2620 675 
Q 2931 909 2931 1356 
Q 2931 1769 2642 2001 
Q 2353 2234 1838 2234 
L 1294 2234 
L 1294 2753 
L 1863 2753 
Q 2328 2753 2575 2939 
Q 2822 3125 2822 3475 
Q 2822 3834 2567 4026 
Q 2313 4219 1838 4219 
Q 1578 4219 1281 4162 
Q 984 4106 628 3988 
L 628 4550 
Q 988 4650 1302 4700 
Q 1616 4750 1894 4750 
Q 2613 4750 3031 4423 
Q 3450 4097 3450 3541 
Q 3450 3153 3228 2886 
Q 3006 2619 2597 2516 
z
" transform="scale(0.015625)"/>
        <path id="DejaVuSans-2d" d="M 313 2009 
L 1997 2009 
L 1997 1497 
L 313 1497 
L 313 2009 
z
" transform="scale(0.015625)"/>
        <path id="DejaVuSans-31" d="M 794 531 
L 1825 531 
L 1825 4091 
L 703 3866 
L 703 4441 
L 1819 4666 
L 2450 4666 
L 2450 531 
L 3481 531 
L 3481 0 
L 794 0 
L 794 531 
z
" transform="scale(0.015625)"/>
       </defs>
       <use xlink:href="#DejaVuSans-32"/>
       <use xlink:href="#DejaVuSans-30" x="63.623047"/>
       <use xlink:href="#DejaVuSans-32" x="127.246094"/>
       <use xlink:href="#DejaVuSans-33" x="190.869141"/>
       <use xlink:href="#DejaVuSans-2d" x="254.492188"/>
       <use xlink:href="#DejaVuSans-31" x="290.576172"/>
       <use xlink:href="#DejaVuSans-31" x="354.199219"/>
       <use xlink:href="#DejaVuSans-2d" x="417.822266"/>
       <use xlink:href="#DejaVuSans-30" x="453.90625"/>
       <use xlink:href="#DejaVuSans-32" x="517.529297"/>
      </g>
     </g>
    </g>
    <g id="xtick_2">
     <g id="line2d_3">
      <path d="M 148.919965 279.561175 
L 148.919965 25.44 
" clip-path="url(#p22645c7719)" style="fill: none; stroke: #b0b0b0; stroke-width: 0.8; stroke-linecap: square"/>
     </g>
     <g id="line2d_4">
      <g>
       <use xlink:href="#m7393ef9002" x="148.919965" y="279.561175" style="stroke: #000000; stroke-width: 0.8"/>
      </g>
     </g>
     <g id="text_2">
      <!-- 2023-11-03 -->
      <g transform="translate(106.355451 333.028035) rotate(-45) scale(0.1 -0.1)">
       <use xlink:href="#DejaVuSans-32"/>
       <use xlink:href="#DejaVuSans-30" x="63.623047"/>
       <use xlink:href="#DejaVuSans-32" x="127.246094"/>
       <use xlink:href="#DejaVuSans-33" x="190.869141"/>
       <use xlink:href="#DejaVuSans-2d" x="254.492188"/>
       <use xlink:href="#DejaVuSans-31" x="290.576172"/>
       <use xlink:href="#DejaVuSans-31" x="354.199219"/>
       <use xlink:href="#DejaVuSans-2d" x="417.822266"/>
       <use xlink:href="#DejaVuSans-30" x="453.90625"/>
       <use xlink:href="#DejaVuSans-33" x="517.529297"/>
      </g>
     </g>
    </g>
    <g id="xtick_3">
     <g id="line2d_5">
      <path d="M 197.867967 279.561175 
L 197.867967 25.44 
" clip-path="url(#p22645c7719)" style="fill: none; stroke: #b0b0b0; stroke-width: 0.8; stroke-linecap: square"/>
     </g>
     <g id="line2d_6">
      <g>
       <use xlink:href="#m7393ef9002" x="197.867967" y="279.561175" style="stroke: #000000; stroke-width: 0.8"/>
      </g>
     </g>
     <g id="text_3">
      <!-- 2023-11-04 -->
      <g transform="translate(155.303454 333.028035) rotate(-45) scale(0.1 -0.1)">
       <defs>
        <path id="DejaVuSans-34" d="M 2419 4116 
L 825 1625 
L 2419 1625 
L 2419 4116 
z
M 2253 4666 
L 3047 4666 
L 3047 1625 
L 3713 1625 
L 3713 1100 
L 3047 1100 
L 3047 0 
L 2419 0 
L 2419 1100 
L 313 1100 
L 313 1709 
L 2253 4666 
z
" transform="scale(0.015625)"/>
       </defs>
       <use xlink:href="#DejaVuSans-32"/>
       <use xlink:href="#DejaVuSans-30" x="63.623047"/>
       <use xlink:href="#DejaVuSans-32" x="127.246094"/>
       <use xlink:href="#DejaVuSans-33" x="190.869141"/>
       <use xlink:href="#DejaVuSans-2d" x="254.492188"/>
       <use xlink:href="#DejaVuSans-31" x="290.576172"/>
       <use xlink:href="#DejaVuSans-31" x="354.199219"/>
       <use xlink:href="#DejaVuSans-2d" x="417.822266"/>
       <use xlink:href="#DejaVuSans-30" x="453.90625"/>
       <use xlink:href="#DejaVuSans-34" x="517.529297"/>
      </g>
     </g>
    </g>
    <g id="xtick_4">
     <g id="line2d_7">
      <path d="M 246.81597 279.561175 
L 246.81597 25.44 
" clip-path="url(#p22645c7719)" style="fill: none; stroke: #b0b0b0; stroke-width: 0.8; stroke-linecap: square"/>
     </g>
     <g id="line2d_8">
      <g>
       <use xlink:href="#m7393ef9002" x="246.81597" y="279.561175" style="stroke: #000000; stroke-width: 0.8"/>
      </g>
     </g>
     <g id="text_4">
      <!-- 2023-11-05 -->
      <g transform="translate(204.251457 333.028035) rotate(-45) scale(0.1 -0.1)">
       <defs>
        <path id="DejaVuSans-35" d="M 691 4666 
L 3169 4666 
L 3169 4134 
L 1269 4134 
L 1269 2991 
Q 1406 3038 1543 3061 
Q 1681 3084 1819 3084 
Q 2600 3084 3056 2656 
Q 3513 2228 3513 1497 
Q 3513 744 3044 326 
Q 2575 -91 1722 -91 
Q 1428 -91 1123 -41 
Q 819 9 494 109 
L 494 744 
Q 775 591 1075 516 
Q 1375 441 1709 441 
Q 2250 441 2565 725 
Q 2881 1009 2881 1497 
Q 2881 1984 2565 2268 
Q 2250 2553 1709 2553 
Q 1456 2553 1204 2497 
Q 953 2441 691 2322 
L 691 4666 
z
" transform="scale(0.015625)"/>
       </defs>
       <use xlink:href="#DejaVuSans-32"/>
       <use xlink:href="#DejaVuSans-30" x="63.623047"/>
       <use xlink:href="#DejaVuSans-32" x="127.246094"/>
       <use xlink:href="#DejaVuSans-33" x="190.869141"/>
       <use xlink:href="#DejaVuSans-2d" x="254.492188"/>
       <use xlink:href="#DejaVuSans-31" x="290.576172"/>
       <use xlink:href="#DejaVuSans-31" x="354.199219"/>
       <use xlink:href="#DejaVuSans-2d" x="417.822266"/>
       <use xlink:href="#DejaVuSans-30" x="453.90625"/>
       <use xlink:href="#DejaVuSans-35" x="517.529297"/>
      </g>
     </g>
    </g>
    <g id="xtick_5">
     <g id="line2d_9">
      <path d="M 295.763973 279.561175 
L 295.763973 25.44 
" clip-path="url(#p22645c7719)" style="fill: none; stroke: #b0b0b0; stroke-width: 0.8; stroke-linecap: square"/>
     </g>
     <g id="line2d_10">
      <g>
       <use xlink:href="#m7393ef9002" x="295.763973" y="279.561175" style="stroke: #000000; stroke-width: 0.8"/>
      </g>
     </g>
     <g id="text_5">
      <!-- 2023-11-06 -->
      <g transform="translate(253.199459 333.028035) rotate(-45) scale(0.1 -0.1)">
       <defs>
        <path id="DejaVuSans-36" d="M 2113 2584 
Q 1688 2584 1439 2293 
Q 1191 2003 1191 1497 
Q 1191 994 1439 701 
Q 1688 409 2113 409 
Q 2538 409 2786 701 
Q 3034 994 3034 1497 
Q 3034 2003 2786 2293 
Q 2538 2584 2113 2584 
z
M 3366 4563 
L 3366 3988 
Q 3128 4100 2886 4159 
Q 2644 4219 2406 4219 
Q 1781 4219 1451 3797 
Q 1122 3375 1075 2522 
Q 1259 2794 1537 2939 
Q 1816 3084 2150 3084 
Q 2853 3084 3261 2657 
Q 3669 2231 3669 1497 
Q 3669 778 3244 343 
Q 2819 -91 2113 -91 
Q 1303 -91 875 529 
Q 447 1150 447 2328 
Q 447 3434 972 4092 
Q 1497 4750 2381 4750 
Q 2619 4750 2861 4703 
Q 3103 4656 3366 4563 
z
" transform="scale(0.015625)"/>
       </defs>
       <use xlink:href="#DejaVuSans-32"/>
       <use xlink:href="#DejaVuSans-30" x="63.623047"/>
       <use xlink:href="#DejaVuSans-32" x="127.246094"/>
       <use xlink:href="#DejaVuSans-33" x="190.869141"/>
       <use xlink:href="#DejaVuSans-2d" x="254.492188"/>
       <use xlink:href="#DejaVuSans-31" x="290.576172"/>
       <use xlink:href="#DejaVuSans-31" x="354.199219"/>
       <use xlink:href="#DejaVuSans-2d" x="417.822266"/>
       <use xlink:href="#DejaVuSans-30" x="453.90625"/>
       <use xlink:href="#DejaVuSans-36" x="517.529297"/>
      </g>
     </g>
    </g>
    <g id="xtick_6">
     <g id="line2d_11">
      <path d="M 344.711976 279.561175 
L 344.711976 25.44 
" clip-path="url(#p22645c7719)" style="fill: none; stroke: #b0b0b0; stroke-width: 0.8; stroke-linecap: square"/>
     </g>
     <g id="line2d_12">
      <g>
       <use xlink:href="#m7393ef9002" x="344.711976" y="279.561175" style="stroke: #000000; stroke-width: 0.8"/>
      </g>
     </g>
     <g id="text_6">
      <!-- 2023-11-07 -->
      <g transform="translate(302.147462 333.028035) rotate(-45) scale(0.1 -0.1)">
       <defs>
        <path id="DejaVuSans-37" d="M 525 4666 
L 3525 4666 
L 3525 4397 
L 1831 0 
L 1172 0 
L 2766 4134 
L 525 4134 
L 525 4666 
z
" transform="scale(0.015625)"/>
       </defs>
       <use xlink:href="#DejaVuSans-32"/>
       <use xlink:href="#DejaVuSans-30" x="63.623047"/>
       <use xlink:href="#DejaVuSans-32" x="127.246094"/>
       <use xlink:href="#DejaVuSans-33" x="190.869141"/>
       <use xlink:href="#DejaVuSans-2d" x="254.492188"/>
       <use xlink:href="#DejaVuSans-31" x="290.576172"/>
       <use xlink:href="#DejaVuSans-31" x="354.199219"/>
       <use xlink:href="#DejaVuSans-2d" x="417.822266"/>
       <use xlink:href="#DejaVuSans-30" x="453.90625"/>
       <use xlink:href="#DejaVuSans-37" x="517.529297"/>
      </g>
     </g>
    </g>
    <g id="xtick_7">
     <g id="line2d_13">
      <path d="M 393.659978 279.561175 
L 393.659978 25.44 
" clip-path="url(#p22645c7719)" style="fill: none; stroke: #b0b0b0; stroke-width: 0.8; stroke-linecap: square"/>
     </g>
     <g id="line2d_14">
      <g>
       <use xlink:href="#m7393ef9002" x="393.659978" y="279.561175" style="stroke: #000000; stroke-width: 0.8"/>
      </g>
     </g>
     <g id="text_7">
      <!-- 2023-11-08 -->
      <g transform="translate(351.095465 333.028035) rotate(-45) scale(0.1 -0.1)">
       <defs>
        <path id="DejaVuSans-38" d="M 2034 2216 
Q 1584 2216 1326 1975 
Q 1069 1734 1069 1313 
Q 1069 891 1326 650 
Q 1584 409 2034 409 
Q 2484 409 2743 651 
Q 3003 894 3003 1313 
Q 3003 1734 2745 1975 
Q 2488 2216 2034 2216 
z
M 1403 2484 
Q 997 2584 770 2862 
Q 544 3141 544 3541 
Q 544 4100 942 4425 
Q 1341 4750 2034 4750 
Q 2731 4750 3128 4425 
Q 3525 4100 3525 3541 
Q 3525 3141 3298 2862 
Q 3072 2584 2669 2484 
Q 3125 2378 3379 2068 
Q 3634 1759 3634 1313 
Q 3634 634 3220 271 
Q 2806 -91 2034 -91 
Q 1263 -91 848 271 
Q 434 634 434 1313 
Q 434 1759 690 2068 
Q 947 2378 1403 2484 
z
M 1172 3481 
Q 1172 3119 1398 2916 
Q 1625 2713 2034 2713 
Q 2441 2713 2670 2916 
Q 2900 3119 2900 3481 
Q 2900 3844 2670 4047 
Q 2441 4250 2034 4250 
Q 1625 4250 1398 4047 
Q 1172 3844 1172 3481 
z
" transform="scale(0.015625)"/>
       </defs>
       <use xlink:href="#DejaVuSans-32"/>
       <use xlink:href="#DejaVuSans-30" x="63.623047"/>
       <use xlink:href="#DejaVuSans-32" x="127.246094"/>
       <use xlink:href="#DejaVuSans-33" x="190.869141"/>
       <use xlink:href="#DejaVuSans-2d" x="254.492188"/>
       <use xlink:href="#DejaVuSans-31" x="290.576172"/>
       <use xlink:href="#DejaVuSans-31" x="354.199219"/>
       <use xlink:href="#DejaVuSans-2d" x="417.822266"/>
       <use xlink:href="#DejaVuSans-30" x="453.90625"/>
       <use xlink:href="#DejaVuSans-38" x="517.529297"/>
      </g>
     </g>
    </g>
    <g id="xtick_8">
     <g id="line2d_15">
      <path d="M 442.607981 279.561175 
L 442.607981 25.44 
" clip-path="url(#p22645c7719)" style="fill: none; stroke: #b0b0b0; stroke-width: 0.8; stroke-linecap: square"/>
     </g>
     <g id="line2d_16">
      <g>
       <use xlink:href="#m7393ef9002" x="442.607981" y="279.561175" style="stroke: #000000; stroke-width: 0.8"/>
      </g>
     </g>
     <g id="text_8">
      <!-- 2023-11-09 -->
      <g transform="translate(400.043467 333.028035) rotate(-45) scale(0.1 -0.1)">
       <defs>
        <path id="DejaVuSans-39" d="M 703 97 
L 703 672 
Q 941 559 1184 500 
Q 1428 441 1663 441 
Q 2288 441 2617 861 
Q 2947 1281 2994 2138 
Q 2813 1869 2534 1725 
Q 2256 1581 1919 1581 
Q 1219 1581 811 2004 
Q 403 2428 403 3163 
Q 403 3881 828 4315 
Q 1253 4750 1959 4750 
Q 2769 4750 3195 4129 
Q 3622 3509 3622 2328 
Q 3622 1225 3098 567 
Q 2575 -91 1691 -91 
Q 1453 -91 1209 -44 
Q 966 3 703 97 
z
M 1959 2075 
Q 2384 2075 2632 2365 
Q 2881 2656 2881 3163 
Q 2881 3666 2632 3958 
Q 2384 4250 1959 4250 
Q 1534 4250 1286 3958 
Q 1038 3666 1038 3163 
Q 1038 2656 1286 2365 
Q 1534 2075 1959 2075 
z
" transform="scale(0.015625)"/>
       </defs>
       <use xlink:href="#DejaVuSans-32"/>
       <use xlink:href="#DejaVuSans-30" x="63.623047"/>
       <use xlink:href="#DejaVuSans-32" x="127.246094"/>
       <use xlink:href="#DejaVuSans-33" x="190.869141"/>
       <use xlink:href="#DejaVuSans-2d" x="254.492188"/>
       <use xlink:href="#DejaVuSans-31" x="290.576172"/>
       <use xlink:href="#DejaVuSans-31" x="354.199219"/>
       <use xlink:href="#DejaVuSans-2d" x="417.822266"/>
       <use xlink:href="#DejaVuSans-30" x="453.90625"/>
       <use xlink:href="#DejaVuSans-39" x="517.529297"/>
      </g>
     </g>
    </g>
   </g>
   <g id="matplotlib.axis_2">
    <g id="ytick_1">
     <g id="line2d_17">
      <path d="M 51.05 274.829969 
L 450 274.829969 
" clip-path="url(#p22645c7719)" style="fill: none; stroke: #b0b0b0; stroke-width: 0.8; stroke-linecap: square"/>
     </g>
     <g id="line2d_18">
      <defs>
       <path id="m04adb265b1" d="M 0 0 
L -3.5 0 
" style="stroke: #000000; stroke-width: 0.8"/>
      </defs>
      <g>
       <use xlink:href="#m04adb265b1" x="51.05" y="274.829969" style="stroke: #000000; stroke-width: 0.8"/>
      </g>
     </g>
     <g id="text_9">
      <!-- 330 -->
      <g transform="translate(24.9625 278.629188) scale(0.1 -0.1)">
       <use xlink:href="#DejaVuSans-33"/>
       <use xlink:href="#DejaVuSans-33" x="63.623047"/>
       <use xlink:href="#DejaVuSans-30" x="127.246094"/>
      </g>
     </g>
    </g>
    <g id="ytick_2">
     <g id="line2d_19">
      <path d="M 51.05 246.414317 
L 450 246.414317 
" clip-path="url(#p22645c7719)" style="fill: none; stroke: #b0b0b0; stroke-width: 0.8; stroke-linecap: square"/>
     </g>
     <g id="line2d_20">
      <g>
       <use xlink:href="#m04adb265b1" x="51.05" y="246.414317" style="stroke: #000000; stroke-width: 0.8"/>
      </g>
     </g>
     <g id="text_10">
      <!-- 340 -->
      <g transform="translate(24.9625 250.213536) scale(0.1 -0.1)">
       <use xlink:href="#DejaVuSans-33"/>
       <use xlink:href="#DejaVuSans-34" x="63.623047"/>
       <use xlink:href="#DejaVuSans-30" x="127.246094"/>
      </g>
     </g>
    </g>
    <g id="ytick_3">
     <g id="line2d_21">
      <path d="M 51.05 217.998665 
L 450 217.998665 
" clip-path="url(#p22645c7719)" style="fill: none; stroke: #b0b0b0; stroke-width: 0.8; stroke-linecap: square"/>
     </g>
     <g id="line2d_22">
      <g>
       <use xlink:href="#m04adb265b1" x="51.05" y="217.998665" style="stroke: #000000; stroke-width: 0.8"/>
      </g>
     </g>
     <g id="text_11">
      <!-- 350 -->
      <g transform="translate(24.9625 221.797884) scale(0.1 -0.1)">
       <use xlink:href="#DejaVuSans-33"/>
       <use xlink:href="#DejaVuSans-35" x="63.623047"/>
       <use xlink:href="#DejaVuSans-30" x="127.246094"/>
      </g>
     </g>
    </g>
    <g id="ytick_4">
     <g id="line2d_23">
      <path d="M 51.05 189.583013 
L 450 189.583013 
" clip-path="url(#p22645c7719)" style="fill: none; stroke: #b0b0b0; stroke-width: 0.8; stroke-linecap: square"/>
     </g>
     <g id="line2d_24">
      <g>
       <use xlink:href="#m04adb265b1" x="51.05" y="189.583013" style="stroke: #000000; stroke-width: 0.8"/>
      </g>
     </g>
     <g id="text_12">
      <!-- 360 -->
      <g transform="translate(24.9625 193.382232) scale(0.1 -0.1)">
       <use xlink:href="#DejaVuSans-33"/>
       <use xlink:href="#DejaVuSans-36" x="63.623047"/>
       <use xlink:href="#DejaVuSans-30" x="127.246094"/>
      </g>
     </g>
    </g>
    <g id="ytick_5">
     <g id="line2d_25">
      <path d="M 51.05 161.167362 
L 450 161.167362 
" clip-path="url(#p22645c7719)" style="fill: none; stroke: #b0b0b0; stroke-width: 0.8; stroke-linecap: square"/>
     </g>
     <g id="line2d_26">
      <g>
       <use xlink:href="#m04adb265b1" x="51.05" y="161.167362" style="stroke: #000000; stroke-width: 0.8"/>
      </g>
     </g>
     <g id="text_13">
      <!-- 370 -->
      <g transform="translate(24.9625 164.96658) scale(0.1 -0.1)">
       <use xlink:href="#DejaVuSans-33"/>
       <use xlink:href="#DejaVuSans-37" x="63.623047"/>
       <use xlink:href="#DejaVuSans-30" x="127.246094"/>
      </g>
     </g>
    </g>
    <g id="ytick_6">
     <g id="line2d_27">
      <path d="M 51.05 132.75171 
L 450 132.75171 
" clip-path="url(#p22645c7719)" style="fill: none; stroke: #b0b0b0; stroke-width: 0.8; stroke-linecap: square"/>
     </g>
     <g id="line2d_28">
      <g>
       <use xlink:href="#m04adb265b1" x="51.05" y="132.75171" style="stroke: #000000; stroke-width: 0.8"/>
      </g>
     </g>
     <g id="text_14">
      <!-- 380 -->
      <g transform="translate(24.9625 136.550928) scale(0.1 -0.1)">
       <use xlink:href="#DejaVuSans-33"/>
       <use xlink:href="#DejaVuSans-38" x="63.623047"/>
       <use xlink:href="#DejaVuSans-30" x="127.246094"/>
      </g>
     </g>
    </g>
    <g id="ytick_7">
     <g id="line2d_29">
      <path d="M 51.05 104.336058 
L 450 104.336058 
" clip-path="url(#p22645c7719)" style="fill: none; stroke: #b0b0b0; stroke-width: 0.8; stroke-linecap: square"/>
     </g>
     <g id="line2d_30">
      <g>
       <use xlink:href="#m04adb265b1" x="51.05" y="104.336058" style="stroke: #000000; stroke-width: 0.8"/>
      </g>
     </g>
     <g id="text_15">
      <!-- 390 -->
      <g transform="translate(24.9625 108.135276) scale(0.1 -0.1)">
       <use xlink:href="#DejaVuSans-33"/>
       <use xlink:href="#DejaVuSans-39" x="63.623047"/>
       <use xlink:href="#DejaVuSans-30" x="127.246094"/>
      </g>
     </g>
    </g>
    <g id="ytick_8">
     <g id="line2d_31">
      <path d="M 51.05 75.920406 
L 450 75.920406 
" clip-path="url(#p22645c7719)" style="fill: none; stroke: #b0b0b0; stroke-width: 0.8; stroke-linecap: square"/>
     </g>
     <g id="line2d_32">
      <g>
       <use xlink:href="#m04adb265b1" x="51.05" y="75.920406" style="stroke: #000000; stroke-width: 0.8"/>
      </g>
     </g>
     <g id="text_16">
      <!-- 400 -->
      <g transform="translate(24.9625 79.719624) scale(0.1 -0.1)">
       <use xlink:href="#DejaVuSans-34"/>
       <use xlink:href="#DejaVuSans-30" x="63.623047"/>
       <use xlink:href="#DejaVuSans-30" x="127.246094"/>
      </g>
     </g>
    </g>
    <g id="ytick_9">
     <g id="line2d_33">
      <path d="M 51.05 47.504754 
L 450 47.504754 
" clip-path="url(#p22645c7719)" style="fill: none; stroke: #b0b0b0; stroke-width: 0.8; stroke-linecap: square"/>
     </g>
     <g id="line2d_34">
      <g>
       <use xlink:href="#m04adb265b1" x="51.05" y="47.504754" style="stroke: #000000; stroke-width: 0.8"/>
      </g>
     </g>
     <g id="text_17">
      <!-- 410 -->
      <g transform="translate(24.9625 51.303972) scale(0.1 -0.1)">
       <use xlink:href="#DejaVuSans-34"/>
       <use xlink:href="#DejaVuSans-31" x="63.623047"/>
       <use xlink:href="#DejaVuSans-30" x="127.246094"/>
      </g>
     </g>
    </g>
    <g id="text_18">
     <!-- Rain [mm] -->
     <g transform="translate(18.882812 178.715431) rotate(-90) scale(0.1 -0.1)">
      <defs>
       <path id="DejaVuSans-52" d="M 2841 2188 
Q 3044 2119 3236 1894 
Q 3428 1669 3622 1275 
L 4263 0 
L 3584 0 
L 2988 1197 
Q 2756 1666 2539 1819 
Q 2322 1972 1947 1972 
L 1259 1972 
L 1259 0 
L 628 0 
L 628 4666 
L 2053 4666 
Q 2853 4666 3247 4331 
Q 3641 3997 3641 3322 
Q 3641 2881 3436 2590 
Q 3231 2300 2841 2188 
z
M 1259 4147 
L 1259 2491 
L 2053 2491 
Q 2509 2491 2742 2702 
Q 2975 2913 2975 3322 
Q 2975 3731 2742 3939 
Q 2509 4147 2053 4147 
L 1259 4147 
z
" transform="scale(0.015625)"/>
       <path id="DejaVuSans-61" d="M 2194 1759 
Q 1497 1759 1228 1600 
Q 959 1441 959 1056 
Q 959 750 1161 570 
Q 1363 391 1709 391 
Q 2188 391 2477 730 
Q 2766 1069 2766 1631 
L 2766 1759 
L 2194 1759 
z
M 3341 1997 
L 3341 0 
L 2766 0 
L 2766 531 
Q 2569 213 2275 61 
Q 1981 -91 1556 -91 
Q 1019 -91 701 211 
Q 384 513 384 1019 
Q 384 1609 779 1909 
Q 1175 2209 1959 2209 
L 2766 2209 
L 2766 2266 
Q 2766 2663 2505 2880 
Q 2244 3097 1772 3097 
Q 1472 3097 1187 3025 
Q 903 2953 641 2809 
L 641 3341 
Q 956 3463 1253 3523 
Q 1550 3584 1831 3584 
Q 2591 3584 2966 3190 
Q 3341 2797 3341 1997 
z
" transform="scale(0.015625)"/>
       <path id="DejaVuSans-69" d="M 603 3500 
L 1178 3500 
L 1178 0 
L 603 0 
L 603 3500 
z
M 603 4863 
L 1178 4863 
L 1178 4134 
L 603 4134 
L 603 4863 
z
" transform="scale(0.015625)"/>
       <path id="DejaVuSans-6e" d="M 3513 2113 
L 3513 0 
L 2938 0 
L 2938 2094 
Q 2938 2591 2744 2837 
Q 2550 3084 2163 3084 
Q 1697 3084 1428 2787 
Q 1159 2491 1159 1978 
L 1159 0 
L 581 0 
L 581 3500 
L 1159 3500 
L 1159 2956 
Q 1366 3272 1645 3428 
Q 1925 3584 2291 3584 
Q 2894 3584 3203 3211 
Q 3513 2838 3513 2113 
z
" transform="scale(0.015625)"/>
       <path id="DejaVuSans-20" transform="scale(0.015625)"/>
       <path id="DejaVuSans-5b" d="M 550 4863 
L 1875 4863 
L 1875 4416 
L 1125 4416 
L 1125 -397 
L 1875 -397 
L 1875 -844 
L 550 -844 
L 550 4863 
z
" transform="scale(0.015625)"/>
       <path id="DejaVuSans-6d" d="M 3328 2828 
Q 3544 3216 3844 3400 
Q 4144 3584 4550 3584 
Q 5097 3584 5394 3201 
Q 5691 2819 5691 2113 
L 5691 0 
L 5113 0 
L 5113 2094 
Q 5113 2597 4934 2840 
Q 4756 3084 4391 3084 
Q 3944 3084 3684 2787 
Q 3425 2491 3425 1978 
L 3425 0 
L 2847 0 
L 2847 2094 
Q 2847 2600 2669 2842 
Q 2491 3084 2119 3084 
Q 1678 3084 1418 2786 
Q 1159 2488 1159 1978 
L 1159 0 
L 581 0 
L 581 3500 
L 1159 3500 
L 1159 2956 
Q 1356 3278 1631 3431 
Q 1906 3584 2284 3584 
Q 2666 3584 2933 3390 
Q 3200 3197 3328 2828 
z
" transform="scale(0.015625)"/>
       <path id="DejaVuSans-5d" d="M 1947 4863 
L 1947 -844 
L 622 -844 
L 622 -397 
L 1369 -397 
L 1369 4416 
L 622 4416 
L 622 4863 
L 1947 4863 
z
" transform="scale(0.015625)"/>
      </defs>
      <use xlink:href="#DejaVuSans-52"/>
      <use xlink:href="#DejaVuSans-61" x="67.232422"/>
      <use xlink:href="#DejaVuSans-69" x="128.511719"/>
      <use xlink:href="#DejaVuSans-6e" x="156.294922"/>
      <use xlink:href="#DejaVuSans-20" x="219.673828"/>
      <use xlink:href="#DejaVuSans-5b" x="251.460938"/>
      <use xlink:href="#DejaVuSans-6d" x="290.474609"/>
      <use xlink:href="#DejaVuSans-6d" x="387.886719"/>
      <use xlink:href="#DejaVuSans-5d" x="485.298828"/>
     </g>
    </g>
   </g>
   <g id="line2d_35">
    <path d="M 51.05 268.010213 
L 90.099301 268.010213 
L 90.235043 267.157743 
L 90.262396 267.157743 
L 90.398202 266.305274 
L 90.561359 266.305274 
L 90.697553 265.452804 
L 91.268373 265.452804 
L 91.431532 264.600335 
L 91.485919 264.600335 
L 91.62208 263.747865 
L 91.757848 263.747865 
L 91.893892 262.895396 
L 91.975394 262.895396 
L 92.111491 262.042926 
L 92.301707 262.042926 
L 92.464867 261.190456 
L 92.818623 261.190456 
L 92.954338 260.337987 
L 93.715741 260.337987 
L 93.824515 259.485517 
L 95.18416 259.485517 
L 95.320323 258.633048 
L 96.489421 258.633048 
L 96.625606 257.780578 
L 97.169449 257.780578 
L 97.305214 256.928109 
L 99.671178 256.928109 
L 99.806974 256.075639 
L 102.254351 256.075639 
L 102.390497 255.223169 
L 104.293971 255.223169 
L 104.429804 254.3707 
L 111.309735 254.3707 
L 111.445599 253.51823 
L 112.315777 253.51823 
L 112.451993 252.665761 
L 113.376447 252.665761 
L 113.512267 251.813291 
L 114.573037 251.813291 
L 114.708756 250.960822 
L 116.068402 250.960822 
L 116.204557 250.108352 
L 116.830127 250.108352 
L 116.992968 249.255883 
L 117.645604 249.255883 
L 117.781791 248.403413 
L 118.135077 248.403413 
L 118.271243 247.550943 
L 118.651965 247.550943 
L 118.787711 246.698474 
L 119.467585 246.698474 
L 119.6035 245.846004 
L 120.201743 245.846004 
L 120.337894 244.993535 
L 120.609852 244.993535 
L 120.745603 244.141065 
L 120.908761 244.141065 
L 121.071919 243.288596 
L 121.289461 243.288596 
L 121.425654 242.436126 
L 121.615778 242.436126 
L 121.778937 241.583657 
L 122.023729 241.583657 
L 122.159639 240.731187 
L 122.295828 240.731187 
L 122.431571 239.878717 
L 122.540341 239.878717 
L 122.676451 239.026248 
L 122.757889 239.026248 
L 122.894031 238.173778 
L 122.975698 238.173778 
L 123.138587 237.321309 
L 123.247361 237.321309 
L 123.383512 236.468839 
L 123.655439 236.468839 
L 123.791221 235.61637 
L 124.063153 235.61637 
L 124.199275 234.7639 
L 124.362467 234.7639 
L 124.498247 233.911431 
L 124.552631 233.911431 
L 124.688768 233.058961 
L 124.770177 233.058961 
L 124.906311 232.206491 
L 124.987719 232.206491 
L 125.15088 231.354022 
L 125.205264 231.354022 
L 125.341412 230.501552 
L 125.368428 230.501552 
L 125.504599 229.649083 
L 125.531856 229.649083 
L 125.694742 228.796613 
L 125.722167 228.796613 
L 125.857901 227.944144 
L 125.994088 227.944144 
L 126.129834 227.091674 
L 126.211613 227.091674 
L 126.347376 226.239205 
L 126.429169 226.239205 
L 126.592111 224.534265 
L 126.75549 224.534265 
L 126.891243 223.681796 
L 126.918636 223.681796 
L 127.054672 222.829326 
L 127.108791 222.829326 
L 127.244953 221.976857 
L 127.353729 221.976857 
L 127.489491 221.124387 
L 127.625475 221.124387 
L 127.76142 220.271918 
L 127.843165 220.271918 
L 127.978964 219.419448 
L 128.08803 219.419448 
L 128.250892 218.566978 
L 128.305279 218.566978 
L 128.441374 217.714509 
L 128.631582 217.714509 
L 128.767739 216.862039 
L 128.84914 216.862039 
L 128.985296 216.00957 
L 129.094073 216.00957 
L 129.229841 215.1571 
L 129.257266 215.1571 
L 129.392998 214.304631 
L 129.420407 214.304631 
L 129.556155 213.452161 
L 129.610863 213.452161 
L 129.828086 211.747222 
L 129.936859 211.747222 
L 130.100016 210.042283 
L 130.208788 210.042283 
L 130.344925 209.189813 
L 130.399294 209.189813 
L 130.562464 207.484874 
L 130.644228 207.484874 
L 130.861421 205.779935 
L 130.888804 205.779935 
L 131.051958 204.074996 
L 131.13335 204.074996 
L 131.296508 203.222526 
L 131.323911 203.222526 
L 131.487057 201.517587 
L 131.541399 201.517587 
L 131.677561 200.665118 
L 131.731597 200.665118 
L 131.894757 198.960179 
L 131.976525 198.960179 
L 132.13969 197.25524 
L 132.302854 197.25524 
L 132.465965 195.5503 
L 132.520337 195.5503 
L 132.710817 192.992892 
L 132.76493 192.992892 
L 132.928089 191.287953 
L 133.009854 191.287953 
L 133.14563 190.435483 
L 133.2272 190.435483 
L 133.390572 188.730544 
L 133.499371 188.730544 
L 133.635105 187.878074 
L 133.68949 187.878074 
L 133.852653 187.025605 
L 133.907036 187.025605 
L 134.070195 185.320666 
L 134.124584 185.320666 
L 134.287739 183.615727 
L 134.450899 183.615727 
L 134.614058 181.910787 
L 134.777216 181.910787 
L 134.940373 180.205848 
L 135.049149 180.205848 
L 135.185257 179.353379 
L 135.293921 179.353379 
L 135.429852 178.500909 
L 135.511614 178.500909 
L 135.647393 177.64844 
L 135.674781 177.64844 
L 135.810555 176.79597 
L 135.837852 176.79597 
L 135.973715 175.943501 
L 136.109887 175.943501 
L 136.245645 175.091031 
L 136.327277 175.091031 
L 136.463189 174.238561 
L 136.517575 174.238561 
L 136.653707 173.386092 
L 136.680733 173.386092 
L 136.843895 171.681153 
L 136.898279 171.681153 
L 137.061441 169.976214 
L 137.197591 169.976214 
L 137.36064 168.271275 
L 137.442143 168.271275 
L 137.578298 167.418805 
L 137.632693 167.418805 
L 137.768461 166.566335 
L 137.986005 164.861396 
L 138.094778 164.861396 
L 138.25794 163.156457 
L 138.366708 163.156457 
L 138.529868 161.451518 
L 138.665962 161.451518 
L 138.801802 159.746579 
L 138.992384 159.746579 
L 139.128119 158.894109 
L 139.155514 158.894109 
L 139.291274 158.04164 
L 139.400048 158.04164 
L 139.536251 157.18917 
L 139.671982 157.18917 
L 139.835429 155.484231 
L 139.971302 155.484231 
L 140.10707 154.631762 
L 140.215842 154.631762 
L 140.324613 153.779292 
L 140.406222 153.779292 
L 140.542158 152.926822 
L 140.56958 152.926822 
L 140.73272 151.221883 
L 141.031636 151.221883 
L 141.167785 150.369414 
L 141.194792 150.369414 
L 141.330982 149.516944 
L 141.357954 149.516944 
L 141.521112 148.664475 
L 141.602913 148.664475 
L 141.738658 147.812005 
L 142.037993 147.812005 
L 142.173745 146.959536 
L 142.364258 146.959536 
L 142.500063 146.107066 
L 142.799418 146.107066 
L 142.935476 145.254596 
L 143.043924 145.254596 
L 143.180016 144.402127 
L 143.288814 144.402127 
L 143.424974 143.549657 
L 149.026397 143.549657 
L 149.189555 142.697188 
L 149.243938 142.697188 
L 149.380033 141.844718 
L 149.461485 141.844718 
L 149.59746 140.992249 
L 149.651968 140.992249 
L 149.787798 140.139779 
L 149.869605 140.139779 
L 150.005347 139.28731 
L 150.060083 139.28731 
L 150.222889 138.43484 
L 150.331664 138.43484 
L 150.467837 137.58237 
L 150.549208 137.58237 
L 150.712365 136.729901 
L 150.848509 136.729901 
L 150.984298 135.877431 
L 151.066111 135.877431 
L 151.201844 135.024962 
L 151.365 135.024962 
L 151.501147 134.172492 
L 151.582544 134.172492 
L 151.800088 132.467553 
L 152.072021 132.467553 
L 152.23518 131.615084 
L 152.616133 131.615084 
L 152.779041 130.762614 
L 155.389574 130.762614 
L 155.525709 129.910144 
L 155.607117 129.910144 
L 155.743127 129.057675 
L 155.879051 129.057675 
L 156.015218 128.205205 
L 156.123967 128.205205 
L 156.259753 127.352736 
L 156.395876 127.352736 
L 156.531682 126.500266 
L 156.559069 126.500266 
L 156.695121 125.647797 
L 156.857999 124.795327 
L 156.994174 124.795327 
L 157.129931 123.942857 
L 157.265916 123.942857 
L 157.401861 123.090388 
L 157.619403 123.090388 
L 157.728471 122.237918 
L 157.864352 122.237918 
L 158.000111 121.385449 
L 158.734446 121.385449 
L 158.870291 120.532979 
L 159.087833 120.532979 
L 159.223971 119.68051 
L 159.359765 119.68051 
L 159.522924 117.975571 
L 159.604702 117.975571 
L 159.795083 115.418162 
L 159.84924 115.418162 
L 160.012395 113.713223 
L 160.094162 113.713223 
L 160.257336 112.008284 
L 160.338713 112.008284 
L 160.50187 110.303345 
L 160.692459 110.303345 
L 160.882575 107.745936 
L 160.936962 107.745936 
L 161.127517 105.188527 
L 161.20889 105.188527 
L 161.344845 104.336058 
L 161.372048 104.336058 
L 161.508204 103.483588 
L 161.698364 103.483588 
L 161.861522 101.778649 
L 161.970298 101.778649 
L 162.106479 100.926179 
L 162.242224 100.926179 
L 162.378204 100.07371 
L 172.031746 100.07371 
L 172.194904 99.22124 
L 236.098764 99.22124 
L 236.234982 98.368771 
L 238.65492 98.368771 
L 238.791055 97.516301 
L 239.633875 97.516301 
L 239.770044 96.663832 
L 240.28651 96.663832 
L 240.422683 95.811362 
L 240.939144 95.811362 
L 241.075134 94.958892 
L 241.537711 94.958892 
L 241.700555 94.106423 
L 242.108496 94.106423 
L 242.244416 93.253953 
L 263.020033 93.253953 
L 263.156073 92.401484 
L 263.672671 92.401484 
L 263.808739 91.549014 
L 264.27092 91.549014 
L 264.407083 90.696545 
L 264.787815 90.696545 
L 264.923556 89.844075 
L 265.358645 89.844075 
L 265.494805 88.991606 
L 265.739353 88.991606 
L 265.875496 88.139136 
L 266.065668 88.139136 
L 266.201633 87.286666 
L 266.473789 87.286666 
L 266.609531 86.434197 
L 266.908866 86.434197 
L 267.044622 85.581727 
L 267.343915 85.581727 
L 267.479709 84.729258 
L 267.806029 84.729258 
L 267.942141 83.876788 
L 268.186735 83.876788 
L 268.349892 83.024319 
L 268.513048 83.024319 
L 268.649226 82.171849 
L 268.812281 82.171849 
L 268.948136 81.31938 
L 268.975525 81.31938 
L 269.111295 80.46691 
L 269.274453 80.46691 
L 269.410654 79.61444 
L 269.465051 79.61444 
L 269.628178 77.909501 
L 269.791133 77.909501 
L 269.927088 77.057032 
L 269.954479 77.057032 
L 270.117691 75.352093 
L 270.19902 75.352093 
L 270.362178 73.647154 
L 270.443952 73.647154 
L 270.634106 71.089745 
L 270.688492 71.089745 
L 270.878996 68.532336 
L 270.906036 68.532336 
L 271.123581 65.122458 
L 271.177966 65.122458 
L 271.368422 62.565049 
L 271.395511 62.565049 
L 271.586078 60.007641 
L 271.613056 60.007641 
L 271.776211 58.302701 
L 272.048137 55.745293 
L 272.102524 55.745293 
L 272.238665 54.892823 
L 272.265686 54.892823 
L 272.428838 54.040354 
L 350.717802 54.040354 
L 350.853622 53.187884 
L 362.247665 53.187884 
L 362.383495 52.335415 
L 363.172321 52.335415 
L 363.308061 51.482945 
L 363.688762 51.482945 
L 363.824894 50.630475 
L 363.93372 50.630475 
L 364.09669 48.925536 
L 364.205605 48.925536 
L 364.341394 48.073067 
L 364.39578 48.073067 
L 364.531965 47.220597 
L 364.559244 47.220597 
L 364.776486 45.515658 
L 364.830871 45.515658 
L 364.994027 43.810719 
L 365.157183 43.810719 
L 365.293284 42.958249 
L 365.537894 42.958249 
L 365.701051 42.10578 
L 368.202815 42.10578 
L 368.338986 41.25331 
L 368.746678 41.25331 
L 368.882838 40.400841 
L 368.964219 40.400841 
L 369.10033 39.548371 
L 369.29054 39.548371 
L 369.42671 38.695902 
L 370.079305 38.695902 
L 370.215425 37.843432 
L 387.374022 37.843432 
L 387.509892 36.990963 
L 450 36.990963 
L 450 36.990963 
" clip-path="url(#p22645c7719)" style="fill: none; stroke: #9467bd; stroke-width: 1.5; stroke-linecap: square"/>
   </g>
   <g id="patch_3">
    <path d="M 51.05 279.561175 
L 51.05 25.44 
" style="fill: none; stroke: #000000; stroke-width: 0.8; stroke-linejoin: miter; stroke-linecap: square"/>
   </g>
   <g id="patch_4">
    <path d="M 450 279.561175 
L 450 25.44 
" style="fill: none; stroke: #000000; stroke-width: 0.8; stroke-linejoin: miter; stroke-linecap: square"/>
   </g>
   <g id="patch_5">
    <path d="M 51.05 279.561175 
L 450 279.561175 
" style="fill: none; stroke: #000000; stroke-width: 0.8; stroke-linejoin: miter; stroke-linecap: square"/>
   </g>
   <g id="patch_6">
    <path d="M 51.05 25.44 
L 450 25.44 
" style="fill: none; stroke: #000000; stroke-width: 0.8; stroke-linejoin: miter; stroke-linecap: square"/>
   </g>
   <g id="text_19">
    <!-- November 2023 -->
    <g transform="translate(202.133125 19.44) scale(0.12 -0.12)">
     <defs>
      <path id="DejaVuSans-4e" d="M 628 4666 
L 1478 4666 
L 3547 763 
L 3547 4666 
L 4159 4666 
L 4159 0 
L 3309 0 
L 1241 3903 
L 1241 0 
L 628 0 
L 628 4666 
z
" transform="scale(0.015625)"/>
      <path id="DejaVuSans-6f" d="M 1959 3097 
Q 1497 3097 1228 2736 
Q 959 2375 959 1747 
Q 959 1119 1226 758 
Q 1494 397 1959 397 
Q 2419 397 2687 759 
Q 2956 1122 2956 1747 
Q 2956 2369 2687 2733 
Q 2419 3097 1959 3097 
z
M 1959 3584 
Q 2709 3584 3137 3096 
Q 3566 2609 3566 1747 
Q 3566 888 3137 398 
Q 2709 -91 1959 -91 
Q 1206 -91 779 398 
Q 353 888 353 1747 
Q 353 2609 779 3096 
Q 1206 3584 1959 3584 
z
" transform="scale(0.015625)"/>
      <path id="DejaVuSans-76" d="M 191 3500 
L 800 3500 
L 1894 563 
L 2988 3500 
L 3597 3500 
L 2284 0 
L 1503 0 
L 191 3500 
z
" transform="scale(0.015625)"/>
      <path id="DejaVuSans-65" d="M 3597 1894 
L 3597 1613 
L 953 1613 
Q 991 1019 1311 708 
Q 1631 397 2203 397 
Q 2534 397 2845 478 
Q 3156 559 3463 722 
L 3463 178 
Q 3153 47 2828 -22 
Q 2503 -91 2169 -91 
Q 1331 -91 842 396 
Q 353 884 353 1716 
Q 353 2575 817 3079 
Q 1281 3584 2069 3584 
Q 2775 3584 3186 3129 
Q 3597 2675 3597 1894 
z
M 3022 2063 
Q 3016 2534 2758 2815 
Q 2500 3097 2075 3097 
Q 1594 3097 1305 2825 
Q 1016 2553 972 2059 
L 3022 2063 
z
" transform="scale(0.015625)"/>
      <path id="DejaVuSans-62" d="M 3116 1747 
Q 3116 2381 2855 2742 
Q 2594 3103 2138 3103 
Q 1681 3103 1420 2742 
Q 1159 2381 1159 1747 
Q 1159 1113 1420 752 
Q 1681 391 2138 391 
Q 2594 391 2855 752 
Q 3116 1113 3116 1747 
z
M 1159 2969 
Q 1341 3281 1617 3432 
Q 1894 3584 2278 3584 
Q 2916 3584 3314 3078 
Q 3713 2572 3713 1747 
Q 3713 922 3314 415 
Q 2916 -91 2278 -91 
Q 1894 -91 1617 61 
Q 1341 213 1159 525 
L 1159 0 
L 581 0 
L 581 4863 
L 1159 4863 
L 1159 2969 
z
" transform="scale(0.015625)"/>
      <path id="DejaVuSans-72" d="M 2631 2963 
Q 2534 3019 2420 3045 
Q 2306 3072 2169 3072 
Q 1681 3072 1420 2755 
Q 1159 2438 1159 1844 
L 1159 0 
L 581 0 
L 581 3500 
L 1159 3500 
L 1159 2956 
Q 1341 3275 1631 3429 
Q 1922 3584 2338 3584 
Q 2397 3584 2469 3576 
Q 2541 3569 2628 3553 
L 2631 2963 
z
" transform="scale(0.015625)"/>
     </defs>
     <use xlink:href="#DejaVuSans-4e"/>
     <use xlink:href="#DejaVuSans-6f" x="74.804688"/>
     <use xlink:href="#DejaVuSans-76" x="135.986328"/>
     <use xlink:href="#DejaVuSans-65" x="195.166016"/>
     <use xlink:href="#DejaVuSans-6d" x="256.689453"/>
     <use xlink:href="#DejaVuSans-62" x="354.101562"/>
     <use xlink:href="#DejaVuSans-65" x="417.578125"/>
     <use xlink:href="#DejaVuSans-72" x="479.101562"/>
     <use xlink:href="#DejaVuSans-20" x="520.214844"/>
     <use xlink:href="#DejaVuSans-32" x="552.001953"/>
     <use xlink:href="#DejaVuSans-30" x="615.625"/>
     <use xlink:href="#DejaVuSans-32" x="679.248047"/>
     <use xlink:href="#DejaVuSans-33" x="742.871094"/>
    </g>
   </g>
  </g>
 </g>
 <defs>
  <clipPath id="p22645c7719">
   <rect x="51.05" y="25.44" width="398.95" height="254.121175"/>
  </clipPath>
 </defs>
</svg>
