<?xml version="1.0" encoding="utf-8" standalone="no"?>
<!DOCTYPE svg PUBLIC "-//W3C//DTD SVG 1.1//EN"
  "http://www.w3.org/Graphics/SVG/1.1/DTD/svg11.dtd">
<svg xmlns:xlink="http://www.w3.org/1999/xlink" width="460.8pt" height="345.6pt" viewBox="0 0 460.8 345.6" xmlns="http://www.w3.org/2000/svg" version="1.1">
 <metadata>
  <rdf:RDF xmlns:dc="http://purl.org/dc/elements/1.1/" xmlns:cc="http://creativecommons.org/ns#" xmlns:rdf="http://www.w3.org/1999/02/22-rdf-syntax-ns#">
   <cc:Work>
    <dc:type rdf:resource="http://purl.org/dc/dcmitype/StillImage"/>
    <dc:date>2023-11-06T19:19:12.915398</dc:date>
    <dc:format>image/svg+xml</dc:format>
    <dc:creator>
     <cc:Agent>
      <dc:title>Matplotlib v3.6.3, https://matplotlib.org/</dc:title>
     </cc:Agent>
    </dc:creator>
   </cc:Work>
  </rdf:RDF>
 </metadata>
 <defs>
  <style type="text/css">*{stroke-linejoin: round; stroke-linecap: butt}</style>
 </defs>
 <g id="figure_1">
  <g id="patch_1">
   <path d="M 0 345.6 
L 460.8 345.6 
L 460.8 0 
L 0 0 
z
" style="fill: #ffffff"/>
  </g>
  <g id="axes_1">
   <g id="patch_2">
    <path d="M 46.46 279.561175 
L 450 279.561175 
L 450 25.44 
L 46.46 25.44 
z
" style="fill: #ffffff"/>
   </g>
   <g id="matplotlib.axis_1">
    <g id="xtick_1">
     <g id="line2d_1">
      <path d="M 115.952927 279.561175 
L 115.952927 25.44 
" clip-path="url(#p29af7f6499)" style="fill: none; stroke: #b0b0b0; stroke-width: 0.8; stroke-linecap: square"/>
     </g>
     <g id="line2d_2">
      <defs>
       <path id="mb5416cf858" d="M 0 0 
L 0 3.5 
" style="stroke: #000000; stroke-width: 0.8"/>
      </defs>
      <g>
       <use xlink:href="#mb5416cf858" x="115.952927" y="279.561175" style="stroke: #000000; stroke-width: 0.8"/>
      </g>
     </g>
     <g id="text_1">
      <!-- 2023-11-02 -->
      <g transform="translate(73.388414 333.028035) rotate(-45) scale(0.1 -0.1)">
       <defs>
        <path id="DejaVuSans-32" d="M 1228 531 
L 3431 531 
L 3431 0 
L 469 0 
L 469 531 
Q 828 903 1448 1529 
Q 2069 2156 2228 2338 
Q 2531 2678 2651 2914 
Q 2772 3150 2772 3378 
Q 2772 3750 2511 3984 
Q 2250 4219 1831 4219 
Q 1534 4219 1204 4116 
Q 875 4013 500 3803 
L 500 4441 
Q 881 4594 1212 4672 
Q 1544 4750 1819 4750 
Q 2544 4750 2975 4387 
Q 3406 4025 3406 3419 
Q 3406 3131 3298 2873 
Q 3191 2616 2906 2266 
Q 2828 2175 2409 1742 
Q 1991 1309 1228 531 
z
" transform="scale(0.015625)"/>
        <path id="DejaVuSans-30" d="M 2034 4250 
Q 1547 4250 1301 3770 
Q 1056 3291 1056 2328 
Q 1056 1369 1301 889 
Q 1547 409 2034 409 
Q 2525 409 2770 889 
Q 3016 1369 3016 2328 
Q 3016 3291 2770 3770 
Q 2525 4250 2034 4250 
z
M 2034 4750 
Q 2819 4750 3233 4129 
Q 3647 3509 3647 2328 
Q 3647 1150 3233 529 
Q 2819 -91 2034 -91 
Q 1250 -91 836 529 
Q 422 1150 422 2328 
Q 422 3509 836 4129 
Q 1250 4750 2034 4750 
z
" transform="scale(0.015625)"/>
        <path id="DejaVuSans-33" d="M 2597 2516 
Q 3050 2419 3304 2112 
Q 3559 1806 3559 1356 
Q 3559 666 3084 287 
Q 2609 -91 1734 -91 
Q 1441 -91 1130 -33 
Q 819 25 488 141 
L 488 750 
Q 750 597 1062 519 
Q 1375 441 1716 441 
Q 2309 441 2620 675 
Q 2931 909 2931 1356 
Q 2931 1769 2642 2001 
Q 2353 2234 1838 2234 
L 1294 2234 
L 1294 2753 
L 1863 2753 
Q 2328 2753 2575 2939 
Q 2822 3125 2822 3475 
Q 2822 3834 2567 4026 
Q 2313 4219 1838 4219 
Q 1578 4219 1281 4162 
Q 984 4106 628 3988 
L 628 4550 
Q 988 4650 1302 4700 
Q 1616 4750 1894 4750 
Q 2613 4750 3031 4423 
Q 3450 4097 3450 3541 
Q 3450 3153 3228 2886 
Q 3006 2619 2597 2516 
z
" transform="scale(0.015625)"/>
        <path id="DejaVuSans-2d" d="M 313 2009 
L 1997 2009 
L 1997 1497 
L 313 1497 
L 313 2009 
z
" transform="scale(0.015625)"/>
        <path id="DejaVuSans-31" d="M 794 531 
L 1825 531 
L 1825 4091 
L 703 3866 
L 703 4441 
L 1819 4666 
L 2450 4666 
L 2450 531 
L 3481 531 
L 3481 0 
L 794 0 
L 794 531 
z
" transform="scale(0.015625)"/>
       </defs>
       <use xlink:href="#DejaVuSans-32"/>
       <use xlink:href="#DejaVuSans-30" x="63.623047"/>
       <use xlink:href="#DejaVuSans-32" x="127.246094"/>
       <use xlink:href="#DejaVuSans-33" x="190.869141"/>
       <use xlink:href="#DejaVuSans-2d" x="254.492188"/>
       <use xlink:href="#DejaVuSans-31" x="290.576172"/>
       <use xlink:href="#DejaVuSans-31" x="354.199219"/>
       <use xlink:href="#DejaVuSans-2d" x="417.822266"/>
       <use xlink:href="#DejaVuSans-30" x="453.90625"/>
       <use xlink:href="#DejaVuSans-32" x="517.529297"/>
      </g>
     </g>
    </g>
    <g id="xtick_2">
     <g id="line2d_3">
      <path d="M 185.482845 279.561175 
L 185.482845 25.44 
" clip-path="url(#p29af7f6499)" style="fill: none; stroke: #b0b0b0; stroke-width: 0.8; stroke-linecap: square"/>
     </g>
     <g id="line2d_4">
      <g>
       <use xlink:href="#mb5416cf858" x="185.482845" y="279.561175" style="stroke: #000000; stroke-width: 0.8"/>
      </g>
     </g>
     <g id="text_2">
      <!-- 2023-11-03 -->
      <g transform="translate(142.918331 333.028035) rotate(-45) scale(0.1 -0.1)">
       <use xlink:href="#DejaVuSans-32"/>
       <use xlink:href="#DejaVuSans-30" x="63.623047"/>
       <use xlink:href="#DejaVuSans-32" x="127.246094"/>
       <use xlink:href="#DejaVuSans-33" x="190.869141"/>
       <use xlink:href="#DejaVuSans-2d" x="254.492188"/>
       <use xlink:href="#DejaVuSans-31" x="290.576172"/>
       <use xlink:href="#DejaVuSans-31" x="354.199219"/>
       <use xlink:href="#DejaVuSans-2d" x="417.822266"/>
       <use xlink:href="#DejaVuSans-30" x="453.90625"/>
       <use xlink:href="#DejaVuSans-33" x="517.529297"/>
      </g>
     </g>
    </g>
    <g id="xtick_3">
     <g id="line2d_5">
      <path d="M 255.012762 279.561175 
L 255.012762 25.44 
" clip-path="url(#p29af7f6499)" style="fill: none; stroke: #b0b0b0; stroke-width: 0.8; stroke-linecap: square"/>
     </g>
     <g id="line2d_6">
      <g>
       <use xlink:href="#mb5416cf858" x="255.012762" y="279.561175" style="stroke: #000000; stroke-width: 0.8"/>
      </g>
     </g>
     <g id="text_3">
      <!-- 2023-11-04 -->
      <g transform="translate(212.448249 333.028035) rotate(-45) scale(0.1 -0.1)">
       <defs>
        <path id="DejaVuSans-34" d="M 2419 4116 
L 825 1625 
L 2419 1625 
L 2419 4116 
z
M 2253 4666 
L 3047 4666 
L 3047 1625 
L 3713 1625 
L 3713 1100 
L 3047 1100 
L 3047 0 
L 2419 0 
L 2419 1100 
L 313 1100 
L 313 1709 
L 2253 4666 
z
" transform="scale(0.015625)"/>
       </defs>
       <use xlink:href="#DejaVuSans-32"/>
       <use xlink:href="#DejaVuSans-30" x="63.623047"/>
       <use xlink:href="#DejaVuSans-32" x="127.246094"/>
       <use xlink:href="#DejaVuSans-33" x="190.869141"/>
       <use xlink:href="#DejaVuSans-2d" x="254.492188"/>
       <use xlink:href="#DejaVuSans-31" x="290.576172"/>
       <use xlink:href="#DejaVuSans-31" x="354.199219"/>
       <use xlink:href="#DejaVuSans-2d" x="417.822266"/>
       <use xlink:href="#DejaVuSans-30" x="453.90625"/>
       <use xlink:href="#DejaVuSans-34" x="517.529297"/>
      </g>
     </g>
    </g>
    <g id="xtick_4">
     <g id="line2d_7">
      <path d="M 324.54268 279.561175 
L 324.54268 25.44 
" clip-path="url(#p29af7f6499)" style="fill: none; stroke: #b0b0b0; stroke-width: 0.8; stroke-linecap: square"/>
     </g>
     <g id="line2d_8">
      <g>
       <use xlink:href="#mb5416cf858" x="324.54268" y="279.561175" style="stroke: #000000; stroke-width: 0.8"/>
      </g>
     </g>
     <g id="text_4">
      <!-- 2023-11-05 -->
      <g transform="translate(281.978166 333.028035) rotate(-45) scale(0.1 -0.1)">
       <defs>
        <path id="DejaVuSans-35" d="M 691 4666 
L 3169 4666 
L 3169 4134 
L 1269 4134 
L 1269 2991 
Q 1406 3038 1543 3061 
Q 1681 3084 1819 3084 
Q 2600 3084 3056 2656 
Q 3513 2228 3513 1497 
Q 3513 744 3044 326 
Q 2575 -91 1722 -91 
Q 1428 -91 1123 -41 
Q 819 9 494 109 
L 494 744 
Q 775 591 1075 516 
Q 1375 441 1709 441 
Q 2250 441 2565 725 
Q 2881 1009 2881 1497 
Q 2881 1984 2565 2268 
Q 2250 2553 1709 2553 
Q 1456 2553 1204 2497 
Q 953 2441 691 2322 
L 691 4666 
z
" transform="scale(0.015625)"/>
       </defs>
       <use xlink:href="#DejaVuSans-32"/>
       <use xlink:href="#DejaVuSans-30" x="63.623047"/>
       <use xlink:href="#DejaVuSans-32" x="127.246094"/>
       <use xlink:href="#DejaVuSans-33" x="190.869141"/>
       <use xlink:href="#DejaVuSans-2d" x="254.492188"/>
       <use xlink:href="#DejaVuSans-31" x="290.576172"/>
       <use xlink:href="#DejaVuSans-31" x="354.199219"/>
       <use xlink:href="#DejaVuSans-2d" x="417.822266"/>
       <use xlink:href="#DejaVuSans-30" x="453.90625"/>
       <use xlink:href="#DejaVuSans-35" x="517.529297"/>
      </g>
     </g>
    </g>
    <g id="xtick_5">
     <g id="line2d_9">
      <path d="M 394.072598 279.561175 
L 394.072598 25.44 
" clip-path="url(#p29af7f6499)" style="fill: none; stroke: #b0b0b0; stroke-width: 0.8; stroke-linecap: square"/>
     </g>
     <g id="line2d_10">
      <g>
       <use xlink:href="#mb5416cf858" x="394.072598" y="279.561175" style="stroke: #000000; stroke-width: 0.8"/>
      </g>
     </g>
     <g id="text_5">
      <!-- 2023-11-06 -->
      <g transform="translate(351.508084 333.028035) rotate(-45) scale(0.1 -0.1)">
       <defs>
        <path id="DejaVuSans-36" d="M 2113 2584 
Q 1688 2584 1439 2293 
Q 1191 2003 1191 1497 
Q 1191 994 1439 701 
Q 1688 409 2113 409 
Q 2538 409 2786 701 
Q 3034 994 3034 1497 
Q 3034 2003 2786 2293 
Q 2538 2584 2113 2584 
z
M 3366 4563 
L 3366 3988 
Q 3128 4100 2886 4159 
Q 2644 4219 2406 4219 
Q 1781 4219 1451 3797 
Q 1122 3375 1075 2522 
Q 1259 2794 1537 2939 
Q 1816 3084 2150 3084 
Q 2853 3084 3261 2657 
Q 3669 2231 3669 1497 
Q 3669 778 3244 343 
Q 2819 -91 2113 -91 
Q 1303 -91 875 529 
Q 447 1150 447 2328 
Q 447 3434 972 4092 
Q 1497 4750 2381 4750 
Q 2619 4750 2861 4703 
Q 3103 4656 3366 4563 
z
" transform="scale(0.015625)"/>
       </defs>
       <use xlink:href="#DejaVuSans-32"/>
       <use xlink:href="#DejaVuSans-30" x="63.623047"/>
       <use xlink:href="#DejaVuSans-32" x="127.246094"/>
       <use xlink:href="#DejaVuSans-33" x="190.869141"/>
       <use xlink:href="#DejaVuSans-2d" x="254.492188"/>
       <use xlink:href="#DejaVuSans-31" x="290.576172"/>
       <use xlink:href="#DejaVuSans-31" x="354.199219"/>
       <use xlink:href="#DejaVuSans-2d" x="417.822266"/>
       <use xlink:href="#DejaVuSans-30" x="453.90625"/>
       <use xlink:href="#DejaVuSans-36" x="517.529297"/>
      </g>
     </g>
    </g>
   </g>
   <g id="matplotlib.axis_2">
    <g id="ytick_1">
     <g id="line2d_11">
      <path d="M 46.46 253.008963 
L 450 253.008963 
" clip-path="url(#p29af7f6499)" style="fill: none; stroke: #b0b0b0; stroke-width: 0.8; stroke-linecap: square"/>
     </g>
     <g id="line2d_12">
      <defs>
       <path id="ma0df5c5d62" d="M 0 0 
L -3.5 0 
" style="stroke: #000000; stroke-width: 0.8"/>
      </defs>
      <g>
       <use xlink:href="#ma0df5c5d62" x="46.46" y="253.008963" style="stroke: #000000; stroke-width: 0.8"/>
      </g>
     </g>
     <g id="text_6">
      <!-- 0 -->
      <g transform="translate(33.0975 256.808182) scale(0.1 -0.1)">
       <use xlink:href="#DejaVuSans-30"/>
      </g>
     </g>
    </g>
    <g id="ytick_2">
     <g id="line2d_13">
      <path d="M 46.46 223.006463 
L 450 223.006463 
" clip-path="url(#p29af7f6499)" style="fill: none; stroke: #b0b0b0; stroke-width: 0.8; stroke-linecap: square"/>
     </g>
     <g id="line2d_14">
      <g>
       <use xlink:href="#ma0df5c5d62" x="46.46" y="223.006463" style="stroke: #000000; stroke-width: 0.8"/>
      </g>
     </g>
     <g id="text_7">
      <!-- 2 -->
      <g transform="translate(33.0975 226.805682) scale(0.1 -0.1)">
       <use xlink:href="#DejaVuSans-32"/>
      </g>
     </g>
    </g>
    <g id="ytick_3">
     <g id="line2d_15">
      <path d="M 46.46 193.003963 
L 450 193.003963 
" clip-path="url(#p29af7f6499)" style="fill: none; stroke: #b0b0b0; stroke-width: 0.8; stroke-linecap: square"/>
     </g>
     <g id="line2d_16">
      <g>
       <use xlink:href="#ma0df5c5d62" x="46.46" y="193.003963" style="stroke: #000000; stroke-width: 0.8"/>
      </g>
     </g>
     <g id="text_8">
      <!-- 4 -->
      <g transform="translate(33.0975 196.803182) scale(0.1 -0.1)">
       <use xlink:href="#DejaVuSans-34"/>
      </g>
     </g>
    </g>
    <g id="ytick_4">
     <g id="line2d_17">
      <path d="M 46.46 163.001463 
L 450 163.001463 
" clip-path="url(#p29af7f6499)" style="fill: none; stroke: #b0b0b0; stroke-width: 0.8; stroke-linecap: square"/>
     </g>
     <g id="line2d_18">
      <g>
       <use xlink:href="#ma0df5c5d62" x="46.46" y="163.001463" style="stroke: #000000; stroke-width: 0.8"/>
      </g>
     </g>
     <g id="text_9">
      <!-- 6 -->
      <g transform="translate(33.0975 166.800681) scale(0.1 -0.1)">
       <use xlink:href="#DejaVuSans-36"/>
      </g>
     </g>
    </g>
    <g id="ytick_5">
     <g id="line2d_19">
      <path d="M 46.46 132.998963 
L 450 132.998963 
" clip-path="url(#p29af7f6499)" style="fill: none; stroke: #b0b0b0; stroke-width: 0.8; stroke-linecap: square"/>
     </g>
     <g id="line2d_20">
      <g>
       <use xlink:href="#ma0df5c5d62" x="46.46" y="132.998963" style="stroke: #000000; stroke-width: 0.8"/>
      </g>
     </g>
     <g id="text_10">
      <!-- 8 -->
      <g transform="translate(33.0975 136.798181) scale(0.1 -0.1)">
       <defs>
        <path id="DejaVuSans-38" d="M 2034 2216 
Q 1584 2216 1326 1975 
Q 1069 1734 1069 1313 
Q 1069 891 1326 650 
Q 1584 409 2034 409 
Q 2484 409 2743 651 
Q 3003 894 3003 1313 
Q 3003 1734 2745 1975 
Q 2488 2216 2034 2216 
z
M 1403 2484 
Q 997 2584 770 2862 
Q 544 3141 544 3541 
Q 544 4100 942 4425 
Q 1341 4750 2034 4750 
Q 2731 4750 3128 4425 
Q 3525 4100 3525 3541 
Q 3525 3141 3298 2862 
Q 3072 2584 2669 2484 
Q 3125 2378 3379 2068 
Q 3634 1759 3634 1313 
Q 3634 634 3220 271 
Q 2806 -91 2034 -91 
Q 1263 -91 848 271 
Q 434 634 434 1313 
Q 434 1759 690 2068 
Q 947 2378 1403 2484 
z
M 1172 3481 
Q 1172 3119 1398 2916 
Q 1625 2713 2034 2713 
Q 2441 2713 2670 2916 
Q 2900 3119 2900 3481 
Q 2900 3844 2670 4047 
Q 2441 4250 2034 4250 
Q 1625 4250 1398 4047 
Q 1172 3844 1172 3481 
z
" transform="scale(0.015625)"/>
       </defs>
       <use xlink:href="#DejaVuSans-38"/>
      </g>
     </g>
    </g>
    <g id="ytick_6">
     <g id="line2d_21">
      <path d="M 46.46 102.996463 
L 450 102.996463 
" clip-path="url(#p29af7f6499)" style="fill: none; stroke: #b0b0b0; stroke-width: 0.8; stroke-linecap: square"/>
     </g>
     <g id="line2d_22">
      <g>
       <use xlink:href="#ma0df5c5d62" x="46.46" y="102.996463" style="stroke: #000000; stroke-width: 0.8"/>
      </g>
     </g>
     <g id="text_11">
      <!-- 10 -->
      <g transform="translate(26.735 106.795681) scale(0.1 -0.1)">
       <use xlink:href="#DejaVuSans-31"/>
       <use xlink:href="#DejaVuSans-30" x="63.623047"/>
      </g>
     </g>
    </g>
    <g id="ytick_7">
     <g id="line2d_23">
      <path d="M 46.46 72.993963 
L 450 72.993963 
" clip-path="url(#p29af7f6499)" style="fill: none; stroke: #b0b0b0; stroke-width: 0.8; stroke-linecap: square"/>
     </g>
     <g id="line2d_24">
      <g>
       <use xlink:href="#ma0df5c5d62" x="46.46" y="72.993963" style="stroke: #000000; stroke-width: 0.8"/>
      </g>
     </g>
     <g id="text_12">
      <!-- 12 -->
      <g transform="translate(26.735 76.793181) scale(0.1 -0.1)">
       <use xlink:href="#DejaVuSans-31"/>
       <use xlink:href="#DejaVuSans-32" x="63.623047"/>
      </g>
     </g>
    </g>
    <g id="ytick_8">
     <g id="line2d_25">
      <path d="M 46.46 42.991463 
L 450 42.991463 
" clip-path="url(#p29af7f6499)" style="fill: none; stroke: #b0b0b0; stroke-width: 0.8; stroke-linecap: square"/>
     </g>
     <g id="line2d_26">
      <g>
       <use xlink:href="#ma0df5c5d62" x="46.46" y="42.991463" style="stroke: #000000; stroke-width: 0.8"/>
      </g>
     </g>
     <g id="text_13">
      <!-- 14 -->
      <g transform="translate(26.735 46.790681) scale(0.1 -0.1)">
       <use xlink:href="#DejaVuSans-31"/>
       <use xlink:href="#DejaVuSans-34" x="63.623047"/>
      </g>
     </g>
    </g>
    <g id="text_14">
     <!-- Temperature [°C] -->
     <g transform="translate(20.655313 199.072463) rotate(-90) scale(0.1 -0.1)">
      <defs>
       <path id="DejaVuSans-54" d="M -19 4666 
L 3928 4666 
L 3928 4134 
L 2272 4134 
L 2272 0 
L 1638 0 
L 1638 4134 
L -19 4134 
L -19 4666 
z
" transform="scale(0.015625)"/>
       <path id="DejaVuSans-65" d="M 3597 1894 
L 3597 1613 
L 953 1613 
Q 991 1019 1311 708 
Q 1631 397 2203 397 
Q 2534 397 2845 478 
Q 3156 559 3463 722 
L 3463 178 
Q 3153 47 2828 -22 
Q 2503 -91 2169 -91 
Q 1331 -91 842 396 
Q 353 884 353 1716 
Q 353 2575 817 3079 
Q 1281 3584 2069 3584 
Q 2775 3584 3186 3129 
Q 3597 2675 3597 1894 
z
M 3022 2063 
Q 3016 2534 2758 2815 
Q 2500 3097 2075 3097 
Q 1594 3097 1305 2825 
Q 1016 2553 972 2059 
L 3022 2063 
z
" transform="scale(0.015625)"/>
       <path id="DejaVuSans-6d" d="M 3328 2828 
Q 3544 3216 3844 3400 
Q 4144 3584 4550 3584 
Q 5097 3584 5394 3201 
Q 5691 2819 5691 2113 
L 5691 0 
L 5113 0 
L 5113 2094 
Q 5113 2597 4934 2840 
Q 4756 3084 4391 3084 
Q 3944 3084 3684 2787 
Q 3425 2491 3425 1978 
L 3425 0 
L 2847 0 
L 2847 2094 
Q 2847 2600 2669 2842 
Q 2491 3084 2119 3084 
Q 1678 3084 1418 2786 
Q 1159 2488 1159 1978 
L 1159 0 
L 581 0 
L 581 3500 
L 1159 3500 
L 1159 2956 
Q 1356 3278 1631 3431 
Q 1906 3584 2284 3584 
Q 2666 3584 2933 3390 
Q 3200 3197 3328 2828 
z
" transform="scale(0.015625)"/>
       <path id="DejaVuSans-70" d="M 1159 525 
L 1159 -1331 
L 581 -1331 
L 581 3500 
L 1159 3500 
L 1159 2969 
Q 1341 3281 1617 3432 
Q 1894 3584 2278 3584 
Q 2916 3584 3314 3078 
Q 3713 2572 3713 1747 
Q 3713 922 3314 415 
Q 2916 -91 2278 -91 
Q 1894 -91 1617 61 
Q 1341 213 1159 525 
z
M 3116 1747 
Q 3116 2381 2855 2742 
Q 2594 3103 2138 3103 
Q 1681 3103 1420 2742 
Q 1159 2381 1159 1747 
Q 1159 1113 1420 752 
Q 1681 391 2138 391 
Q 2594 391 2855 752 
Q 3116 1113 3116 1747 
z
" transform="scale(0.015625)"/>
       <path id="DejaVuSans-72" d="M 2631 2963 
Q 2534 3019 2420 3045 
Q 2306 3072 2169 3072 
Q 1681 3072 1420 2755 
Q 1159 2438 1159 1844 
L 1159 0 
L 581 0 
L 581 3500 
L 1159 3500 
L 1159 2956 
Q 1341 3275 1631 3429 
Q 1922 3584 2338 3584 
Q 2397 3584 2469 3576 
Q 2541 3569 2628 3553 
L 2631 2963 
z
" transform="scale(0.015625)"/>
       <path id="DejaVuSans-61" d="M 2194 1759 
Q 1497 1759 1228 1600 
Q 959 1441 959 1056 
Q 959 750 1161 570 
Q 1363 391 1709 391 
Q 2188 391 2477 730 
Q 2766 1069 2766 1631 
L 2766 1759 
L 2194 1759 
z
M 3341 1997 
L 3341 0 
L 2766 0 
L 2766 531 
Q 2569 213 2275 61 
Q 1981 -91 1556 -91 
Q 1019 -91 701 211 
Q 384 513 384 1019 
Q 384 1609 779 1909 
Q 1175 2209 1959 2209 
L 2766 2209 
L 2766 2266 
Q 2766 2663 2505 2880 
Q 2244 3097 1772 3097 
Q 1472 3097 1187 3025 
Q 903 2953 641 2809 
L 641 3341 
Q 956 3463 1253 3523 
Q 1550 3584 1831 3584 
Q 2591 3584 2966 3190 
Q 3341 2797 3341 1997 
z
" transform="scale(0.015625)"/>
       <path id="DejaVuSans-74" d="M 1172 4494 
L 1172 3500 
L 2356 3500 
L 2356 3053 
L 1172 3053 
L 1172 1153 
Q 1172 725 1289 603 
Q 1406 481 1766 481 
L 2356 481 
L 2356 0 
L 1766 0 
Q 1100 0 847 248 
Q 594 497 594 1153 
L 594 3053 
L 172 3053 
L 172 3500 
L 594 3500 
L 594 4494 
L 1172 4494 
z
" transform="scale(0.015625)"/>
       <path id="DejaVuSans-75" d="M 544 1381 
L 544 3500 
L 1119 3500 
L 1119 1403 
Q 1119 906 1312 657 
Q 1506 409 1894 409 
Q 2359 409 2629 706 
Q 2900 1003 2900 1516 
L 2900 3500 
L 3475 3500 
L 3475 0 
L 2900 0 
L 2900 538 
Q 2691 219 2414 64 
Q 2138 -91 1772 -91 
Q 1169 -91 856 284 
Q 544 659 544 1381 
z
M 1991 3584 
L 1991 3584 
z
" transform="scale(0.015625)"/>
       <path id="DejaVuSans-20" transform="scale(0.015625)"/>
       <path id="DejaVuSans-5b" d="M 550 4863 
L 1875 4863 
L 1875 4416 
L 1125 4416 
L 1125 -397 
L 1875 -397 
L 1875 -844 
L 550 -844 
L 550 4863 
z
" transform="scale(0.015625)"/>
       <path id="DejaVuSans-c2" d="M 2188 4044 
L 1331 1722 
L 3047 1722 
L 2188 4044 
z
M 1831 4666 
L 2547 4666 
L 4325 0 
L 3669 0 
L 3244 1197 
L 1141 1197 
L 716 0 
L 50 0 
L 1831 4666 
z
M 1894 5941 
L 2481 5941 
L 3141 5110 
L 2706 5110 
L 2188 5666 
L 1669 5110 
L 1234 5110 
L 1894 5941 
z
" transform="scale(0.015625)"/>
       <path id="DejaVuSans-b0" d="M 1600 4347 
Q 1350 4347 1178 4173 
Q 1006 4000 1006 3750 
Q 1006 3503 1178 3333 
Q 1350 3163 1600 3163 
Q 1850 3163 2022 3333 
Q 2194 3503 2194 3750 
Q 2194 3997 2020 4172 
Q 1847 4347 1600 4347 
z
M 1600 4750 
Q 1800 4750 1984 4673 
Q 2169 4597 2303 4453 
Q 2447 4313 2519 4134 
Q 2591 3956 2591 3750 
Q 2591 3338 2302 3052 
Q 2013 2766 1594 2766 
Q 1172 2766 890 3047 
Q 609 3328 609 3750 
Q 609 4169 896 4459 
Q 1184 4750 1600 4750 
z
" transform="scale(0.015625)"/>
       <path id="DejaVuSans-43" d="M 4122 4306 
L 4122 3641 
Q 3803 3938 3442 4084 
Q 3081 4231 2675 4231 
Q 1875 4231 1450 3742 
Q 1025 3253 1025 2328 
Q 1025 1406 1450 917 
Q 1875 428 2675 428 
Q 3081 428 3442 575 
Q 3803 722 4122 1019 
L 4122 359 
Q 3791 134 3420 21 
Q 3050 -91 2638 -91 
Q 1578 -91 968 557 
Q 359 1206 359 2328 
Q 359 3453 968 4101 
Q 1578 4750 2638 4750 
Q 3056 4750 3426 4639 
Q 3797 4528 4122 4306 
z
" transform="scale(0.015625)"/>
       <path id="DejaVuSans-5d" d="M 1947 4863 
L 1947 -844 
L 622 -844 
L 622 -397 
L 1369 -397 
L 1369 4416 
L 622 4416 
L 622 4863 
L 1947 4863 
z
" transform="scale(0.015625)"/>
      </defs>
      <use xlink:href="#DejaVuSans-54"/>
      <use xlink:href="#DejaVuSans-65" x="44.083984"/>
      <use xlink:href="#DejaVuSans-6d" x="105.607422"/>
      <use xlink:href="#DejaVuSans-70" x="203.019531"/>
      <use xlink:href="#DejaVuSans-65" x="266.496094"/>
      <use xlink:href="#DejaVuSans-72" x="328.019531"/>
      <use xlink:href="#DejaVuSans-61" x="369.132812"/>
      <use xlink:href="#DejaVuSans-74" x="430.412109"/>
      <use xlink:href="#DejaVuSans-75" x="469.621094"/>
      <use xlink:href="#DejaVuSans-72" x="533"/>
      <use xlink:href="#DejaVuSans-65" x="571.863281"/>
      <use xlink:href="#DejaVuSans-20" x="633.386719"/>
      <use xlink:href="#DejaVuSans-5b" x="665.173828"/>
      <use xlink:href="#DejaVuSans-c2" x="704.1875"/>
      <use xlink:href="#DejaVuSans-b0" x="772.595703"/>
      <use xlink:href="#DejaVuSans-43" x="822.595703"/>
      <use xlink:href="#DejaVuSans-5d" x="892.419922"/>
     </g>
    </g>
   </g>
   <g id="line2d_27">
    <path d="M 46.46 188.503588 
L 46.49847 188.503588 
L 46.652977 191.503838 
L 46.961998 191.503838 
L 47.03974 193.003963 
L 47.34827 193.003963 
L 47.464412 194.504088 
L 47.580035 193.003963 
L 48.120819 193.003963 
L 48.275326 190.003713 
L 48.314102 190.003713 
L 48.468683 187.003463 
L 48.507559 187.003463 
L 48.6616 188.503588 
L 48.893368 188.503588 
L 49.009511 190.003713 
L 49.395725 190.003713 
L 49.472938 191.503838 
L 49.58866 190.003713 
L 49.820423 190.003713 
L 49.936497 191.503838 
L 50.400007 191.503838 
L 50.515716 190.003713 
L 50.863542 190.003713 
L 50.979249 191.503838 
L 51.133755 191.503838 
L 51.249807 193.003963 
L 51.558847 193.003963 
L 51.674538 194.504088 
L 51.713379 193.003963 
L 51.751795 194.504088 
L 51.945195 194.504088 
L 52.060813 196.004213 
L 52.138522 194.504088 
L 52.254069 194.504088 
L 52.369836 193.003963 
L 52.408678 193.003963 
L 52.524341 194.504088 
L 52.563174 194.504088 
L 52.678853 196.004213 
L 52.833361 196.004213 
L 52.987874 194.504088 
L 53.065131 194.504088 
L 53.103998 193.003963 
L 53.142386 194.504088 
L 53.528656 194.504088 
L 53.606383 196.004213 
L 54.069442 196.004213 
L 54.185502 194.504088 
L 54.958084 194.504088 
L 55.112397 197.504338 
L 55.189824 197.504338 
L 55.305521 199.004463 
L 56.000817 199.004463 
L 56.116891 197.504338 
L 56.387086 197.504338 
L 56.464341 199.004463 
L 56.542076 199.004463 
L 56.696103 202.004713 
L 56.966715 202.004713 
L 57.121195 199.004463 
L 57.662039 199.004463 
L 57.777675 197.504338 
L 58.202753 197.504338 
L 58.318457 199.004463 
L 58.357305 199.004463 
L 58.472965 200.504588 
L 58.550225 200.504588 
L 58.627478 199.004463 
L 58.781983 200.504588 
L 58.859239 200.504588 
L 58.975368 202.004713 
L 59.129825 199.004463 
L 59.245518 199.004463 
L 59.400504 202.004713 
L 59.477281 202.004713 
L 59.631792 205.004963 
L 59.709046 205.004963 
L 59.825137 206.505088 
L 60.095314 206.505088 
L 60.327082 203.504838 
L 60.365923 203.504838 
L 60.481591 202.004713 
L 60.520424 202.004713 
L 60.674935 205.004963 
L 61.061219 205.004963 
L 61.215729 202.004713 
L 61.254143 202.004713 
L 61.40865 199.004463 
L 61.447482 199.004463 
L 61.563162 197.504338 
L 61.640405 197.504338 
L 61.756441 196.004213 
L 61.794927 196.004213 
L 61.911009 194.504088 
L 61.949432 194.504088 
L 62.065576 196.004213 
L 62.181197 196.004213 
L 62.258453 197.504338 
L 62.336167 197.504338 
L 62.451768 199.004463 
L 62.721982 199.004463 
L 62.876494 202.004713 
L 62.915374 202.004713 
L 63.031447 203.504838 
L 63.108256 203.504838 
L 63.262765 200.504588 
L 63.301604 200.504588 
L 63.456115 197.504338 
L 63.726295 197.504338 
L 63.880804 199.004463 
L 64.074107 199.004463 
L 64.112568 200.504588 
L 64.15144 199.004463 
L 64.228676 199.004463 
L 64.383185 196.004213 
L 64.460433 196.004213 
L 64.576098 197.504338 
L 64.653584 197.504338 
L 64.769448 199.004463 
L 64.962376 199.004463 
L 65.116886 202.004713 
L 65.194137 202.004713 
L 65.387521 206.505088 
L 65.580409 206.505088 
L 65.696521 208.005213 
L 65.773773 208.005213 
L 65.889429 211.005463 
L 66.005317 211.005463 
L 66.121191 212.505588 
L 66.469061 212.505588 
L 66.584727 214.005713 
L 66.623574 214.005713 
L 66.739235 215.505838 
L 66.893743 215.505838 
L 67.009747 214.005713 
L 67.087112 214.005713 
L 67.202762 215.505838 
L 67.357275 215.505838 
L 67.666292 211.005463 
L 67.782437 212.505588 
L 67.936924 209.505338 
L 68.245844 209.505338 
L 68.361588 211.005463 
L 68.632213 211.005463 
L 68.747861 209.505338 
L 68.941066 209.505338 
L 69.134139 205.004963 
L 69.250266 205.004963 
L 69.443156 200.504588 
L 69.482079 200.504588 
L 69.598113 199.004463 
L 69.713714 199.004463 
L 69.906686 194.504088 
L 70.100033 199.004463 
L 70.293441 199.004463 
L 70.486326 188.503588 
L 71.413418 123.998213 
L 71.529033 122.498088 
L 71.567849 122.498088 
L 71.722419 116.497588 
L 71.876816 119.497838 
L 72.031261 116.497588 
L 72.069814 116.497588 
L 72.185964 117.997713 
L 72.263209 117.997713 
L 72.456087 108.996963 
L 72.6494 104.496588 
L 72.687851 104.496588 
L 72.958399 96.995963 
L 72.996866 96.995963 
L 73.151376 93.995713 
L 73.267264 93.995713 
L 73.383137 96.995963 
L 73.65381 89.495338 
L 73.808303 89.495338 
L 74.194505 71.493838 
L 74.232938 72.993963 
L 74.54195 104.496588 
L 74.619205 105.996713 
L 74.696783 105.996713 
L 74.85097 108.996963 
L 75.392229 84.994963 
L 75.507789 81.994713 
L 75.623516 84.994963 
L 75.739683 83.494838 
L 75.778023 83.494838 
L 76.396054 104.496588 
L 76.473305 104.496588 
L 76.627815 95.495838 
L 76.859913 84.994963 
L 77.052844 80.494588 
L 77.091346 80.494588 
L 77.207479 81.994713 
L 77.323109 81.994713 
L 77.980042 104.496588 
L 78.134527 101.496338 
L 78.172899 101.496338 
L 78.250155 102.996463 
L 78.327399 102.996463 
L 78.713681 114.997463 
L 78.75254 114.997463 
L 78.868185 113.497338 
L 78.945443 113.497338 
L 79.099952 111.997213 
L 79.138761 111.997213 
L 79.602343 96.995963 
L 79.718326 96.995963 
L 79.872493 99.996213 
L 79.911388 98.496088 
L 79.949746 99.996213 
L 79.988655 99.996213 
L 80.258763 90.995463 
L 80.297642 92.495588 
L 80.336021 90.995463 
L 80.374959 90.995463 
L 80.645037 77.494338 
L 80.876801 71.493838 
L 80.954059 71.493838 
L 81.224432 78.994463 
L 81.37927 75.994213 
L 81.41758 75.994213 
L 81.649339 86.495088 
L 81.688276 86.495088 
L 81.881567 92.495588 
L 81.997081 92.495588 
L 82.112864 90.995463 
L 82.267369 90.995463 
L 82.383447 92.495588 
L 82.421881 92.495588 
L 82.654027 86.495088 
L 82.692306 86.495088 
L 82.847039 83.494838 
L 83.156048 92.495588 
L 83.194425 92.495588 
L 83.310574 93.995713 
L 83.349324 93.995713 
L 83.503439 95.495838 
L 83.619585 93.995713 
L 83.657949 95.495838 
L 83.69685 93.995713 
L 83.735203 93.995713 
L 83.88971 90.995463 
L 84.044219 90.995463 
L 84.198726 95.495838 
L 84.314821 93.995713 
L 84.353235 93.995713 
L 84.546585 89.495338 
L 84.584997 89.495338 
L 84.739507 93.995713 
L 84.971271 93.995713 
L 85.16464 89.495338 
L 85.241761 89.495338 
L 85.39638 86.495088 
L 85.434795 86.495088 
L 85.743815 77.494338 
L 86.207342 77.494338 
L 86.284954 75.994213 
L 86.400706 77.494338 
L 86.439107 77.494338 
L 86.786985 87.995213 
L 86.82537 87.995213 
L 86.980395 90.995463 
L 87.09593 90.995463 
L 87.211642 92.495588 
L 87.443408 95.495838 
L 87.636842 95.495838 
L 87.752423 93.995713 
L 87.868578 93.995713 
L 87.984186 92.495588 
L 88.100385 92.495588 
L 88.215948 90.995463 
L 88.370458 90.995463 
L 88.524967 92.495588 
L 88.563806 92.495588 
L 88.679475 93.995713 
L 88.718375 93.995713 
L 88.833986 95.495838 
L 88.872862 95.495838 
L 88.988495 96.995963 
L 89.104635 96.995963 
L 89.259029 99.996213 
L 89.29751 99.996213 
L 89.7999 116.497588 
L 90.03168 116.497588 
L 90.147309 114.997463 
L 90.456325 114.997463 
L 90.649477 119.497838 
L 90.688088 119.497838 
L 90.842601 122.498088 
L 90.958749 122.498088 
L 91.074366 123.998213 
L 91.460638 123.998213 
L 91.576814 125.498338 
L 91.654115 125.498338 
L 91.808553 128.498588 
L 91.924165 128.498588 
L 92.079134 131.498838 
L 92.117353 131.498838 
L 92.272108 134.499088 
L 92.349386 134.499088 
L 92.542202 138.999463 
L 92.58098 138.999463 
L 92.735668 141.999713 
L 92.774329 141.999713 
L 92.890006 143.499838 
L 92.9674 143.499838 
L 93.082983 144.999963 
L 93.160239 144.999963 
L 93.276303 146.500088 
L 93.392001 146.500088 
L 93.469726 148.000213 
L 93.662655 148.000213 
L 93.778275 149.500338 
L 93.894273 149.500338 
L 94.010039 151.000463 
L 94.39632 151.000463 
L 94.512556 152.500588 
L 94.937532 152.500588 
L 95.014359 154.000713 
L 95.053112 152.500588 
L 95.091613 154.000713 
L 95.864163 154.000713 
L 95.980309 155.500838 
L 96.40544 155.500838 
L 96.520989 154.000713 
L 96.636705 154.000713 
L 96.713963 152.500588 
L 96.752885 154.000713 
L 96.791214 152.500588 
L 96.907409 152.500588 
L 97.02298 154.000713 
L 97.370933 154.000713 
L 97.486505 155.500838 
L 97.525414 155.500838 
L 97.641016 154.000713 
L 97.911434 154.000713 
L 97.950034 152.500588 
L 97.988861 154.000713 
L 98.413559 154.000713 
L 98.529765 152.500588 
L 98.877089 152.500588 
L 98.993305 154.000713 
L 99.147833 154.000713 
L 99.263359 155.500838 
L 99.611244 155.500838 
L 99.726886 154.000713 
L 99.881396 154.000713 
L 99.997541 155.500838 
L 100.344923 155.500838 
L 100.461132 154.000713 
L 101.001932 154.000713 
L 101.117468 155.500838 
L 101.271975 155.500838 
L 101.388065 154.000713 
L 101.65825 154.000713 
L 101.774399 155.500838 
L 102.121776 155.500838 
L 102.199402 157.000963 
L 102.739811 157.000963 
L 102.855961 158.501088 
L 104.516666 158.501088 
L 104.632787 160.001213 
L 105.559904 160.001213 
L 105.675479 161.501338 
L 106.370768 161.501338 
L 106.486964 160.001213 
L 107.298213 160.001213 
L 107.413889 161.501338 
L 107.722966 161.501338 
L 107.838601 160.001213 
L 108.688398 160.001213 
L 108.842907 161.501338 
L 108.959036 160.001213 
L 110.504176 160.001213 
L 110.619759 161.501338 
L 111.006029 161.501338 
L 111.122198 160.001213 
L 111.778577 160.001213 
L 111.894828 161.501338 
L 112.049252 161.501338 
L 112.164851 160.001213 
L 113.014652 160.001213 
L 113.130533 161.501338 
L 114.057818 161.501338 
L 114.173473 163.001463 
L 117.22524 163.001463 
L 117.340906 164.501588 
L 117.418559 164.501588 
L 117.572674 163.001463 
L 117.688799 163.001463 
L 117.804438 164.501588 
L 117.843297 164.501588 
L 117.958947 163.001463 
L 119.040517 163.001463 
L 119.156593 161.501338 
L 119.195027 161.501338 
L 119.311166 163.001463 
L 122.903264 163.001463 
L 123.019434 161.501338 
L 132.367167 161.501338 
L 132.482826 163.001463 
L 133.487135 163.001463 
L 133.603344 161.501338 
L 134.066771 161.501338 
L 134.182422 163.001463 
L 134.762166 163.001463 
L 134.878151 164.501588 
L 137.118091 164.501588 
L 137.234295 166.001713 
L 137.504364 166.001713 
L 137.620565 164.501588 
L 139.126707 164.501588 
L 139.281217 166.001713 
L 139.397412 166.001713 
L 139.512978 164.501588 
L 139.629188 164.501588 
L 139.66749 166.001713 
L 139.706456 164.501588 
L 142.564814 164.501588 
L 142.680422 166.001713 
L 142.835377 166.001713 
L 142.989442 164.501588 
L 145.500486 164.501588 
L 145.616089 166.001713 
L 145.655023 166.001713 
L 145.693342 164.501588 
L 145.847849 166.001713 
L 145.925105 166.001713 
L 146.041179 164.501588 
L 146.54314 164.501588 
L 146.659333 163.001463 
L 147.663651 163.001463 
L 147.779214 161.501338 
L 148.204319 161.501338 
L 148.320001 160.001213 
L 149.286022 160.001213 
L 149.401985 158.501088 
L 150.251363 158.501088 
L 150.367469 160.001213 
L 150.483131 160.001213 
L 150.59928 158.501088 
L 151.487442 158.501088 
L 151.603345 160.001213 
L 152.26038 160.001213 
L 152.414505 161.501338 
L 153.612277 161.501338 
L 153.728254 160.001213 
L 154.075703 160.001213 
L 154.191369 161.501338 
L 154.500393 161.501338 
L 154.61649 160.001213 
L 155.196082 160.001213 
L 155.311677 161.501338 
L 158.903894 161.501338 
L 159.019957 163.001463 
L 161.607805 163.001463 
L 161.685419 164.501588 
L 162.187415 164.501588 
L 162.303094 166.001713 
L 162.380348 166.001713 
L 162.534856 167.501838 
L 162.728214 167.501838 
L 162.882767 170.502088 
L 162.921127 170.502088 
L 163.307399 182.503088 
L 163.384655 182.503088 
L 163.539162 185.503338 
L 163.578118 185.503338 
L 163.732575 188.503588 
L 163.809891 188.503588 
L 163.964154 191.503838 
L 164.07995 191.503838 
L 164.196119 193.003963 
L 164.350594 193.003963 
L 164.505076 196.004213 
L 164.659379 196.004213 
L 164.775236 197.504338 
L 164.852497 197.504338 
L 164.968698 199.004463 
L 165.007005 199.004463 
L 165.123185 200.504588 
L 165.200367 200.504588 
L 165.316496 202.004713 
L 165.47053 203.504838 
L 165.547786 203.504838 
L 165.663936 205.004963 
L 165.856811 205.004963 
L 165.972894 206.505088 
L 166.165823 206.505088 
L 166.281951 208.005213 
L 167.054421 208.005213 
L 167.170141 209.505338 
L 167.247396 209.505338 
L 167.36361 208.005213 
L 167.710925 208.005213 
L 167.827114 206.505088 
L 168.097197 206.505088 
L 168.17446 205.004963 
L 168.522227 205.004963 
L 168.637987 203.504838 
L 168.908623 203.504838 
L 169.024258 202.004713 
L 169.372174 202.004713 
L 169.487787 200.504588 
L 169.526643 200.504588 
L 169.642299 199.004463 
L 169.912919 199.004463 
L 170.028572 197.504338 
L 170.260335 197.504338 
L 170.376401 196.004213 
L 170.646614 196.004213 
L 170.762794 194.504088 
L 170.801126 194.504088 
L 170.917185 193.003963 
L 171.805432 193.003963 
L 171.921323 191.503838 
L 172.0372 191.503838 
L 172.153418 190.003713 
L 172.230597 190.003713 
L 172.346221 188.503588 
L 172.655243 188.503588 
L 172.771402 187.003463 
L 172.964257 187.003463 
L 173.080478 185.503338 
L 173.273274 185.503338 
L 173.427786 184.003213 
L 174.74112 184.003213 
L 174.895632 182.503088 
L 175.011832 182.503088 
L 175.127394 181.002963 
L 175.590924 181.002963 
L 175.707105 179.502838 
L 175.784325 179.502838 
L 175.899939 178.002713 
L 176.209413 178.002713 
L 176.363469 176.502588 
L 177.908564 176.502588 
L 178.024773 178.002713 
L 178.179228 178.002713 
L 178.294832 176.502588 
L 178.797163 176.502588 
L 178.912874 175.002463 
L 179.028989 175.002463 
L 179.145107 176.502588 
L 179.260695 176.502588 
L 179.376397 175.002463 
L 179.955919 175.002463 
L 180.071688 173.502338 
L 180.303454 173.502338 
L 180.419671 175.002463 
L 180.457964 175.002463 
L 180.535219 173.502338 
L 180.689723 173.502338 
L 180.883153 169.001963 
L 181.037598 169.001963 
L 181.153253 170.502088 
L 181.192194 170.502088 
L 181.308199 172.002213 
L 181.655704 172.002213 
L 181.848546 167.501838 
L 182.003058 167.501838 
L 182.157571 169.001963 
L 182.273775 169.001963 
L 182.389331 170.502088 
L 182.466586 170.502088 
L 182.582788 172.002213 
L 182.660021 172.002213 
L 182.775968 173.502338 
L 182.969053 173.502338 
L 183.084623 175.002463 
L 184.39795 175.002463 
L 184.514092 173.502338 
L 184.629716 173.502338 
L 184.784226 170.502088 
L 184.823163 170.502088 
L 184.939242 169.001963 
L 185.015987 169.001963 
L 185.170498 166.001713 
L 185.209408 166.001713 
L 185.325009 164.501588 
L 185.59567 164.501588 
L 185.71128 166.001713 
L 185.865794 166.001713 
L 185.981976 167.501838 
L 186.020298 166.001713 
L 186.059248 167.501838 
L 186.407056 167.501838 
L 186.522644 169.001963 
L 186.677214 169.001963 
L 186.792847 170.502088 
L 186.909052 170.502088 
L 187.024614 172.002213 
L 187.295295 172.002213 
L 187.410887 173.502338 
L 191.080844 173.502338 
L 191.196368 172.002213 
L 191.312488 173.502338 
L 191.698832 173.502338 
L 191.814407 175.002463 
L 192.664208 175.002463 
L 192.780405 176.502588 
L 192.818714 176.502588 
L 192.895974 175.002463 
L 194.05479 175.002463 
L 194.170977 176.502588 
L 194.364233 176.502588 
L 194.518323 175.002463 
L 194.672829 175.002463 
L 194.788935 173.502338 
L 194.866207 173.502338 
L 194.981846 175.002463 
L 195.716024 175.002463 
L 195.832067 173.502338 
L 196.025068 173.502338 
L 196.063415 172.002213 
L 196.102266 173.502338 
L 196.179557 173.502338 
L 196.256793 172.002213 
L 196.334081 173.502338 
L 196.449686 172.002213 
L 196.95214 172.002213 
L 197.067725 173.502338 
L 197.685763 173.502338 
L 197.801854 175.002463 
L 198.110796 175.002463 
L 198.226545 176.502588 
L 198.381059 176.502588 
L 198.497207 178.002713 
L 199.115295 178.002713 
L 199.230863 179.502838 
L 199.848899 179.502838 
L 199.965087 181.002963 
L 201.00772 181.002963 
L 201.162223 184.003213 
L 201.239479 184.003213 
L 201.393989 187.003463 
L 201.432766 187.003463 
L 201.548498 188.503588 
L 201.587415 188.503588 
L 201.703008 190.003713 
L 201.780264 190.003713 
L 201.896349 191.503838 
L 202.243792 191.503838 
L 202.321047 193.003963 
L 202.552813 193.003963 
L 202.707321 196.004213 
L 202.823493 196.004213 
L 202.939083 197.504338 
L 202.977972 197.504338 
L 203.094081 199.004463 
L 203.248104 199.004463 
L 203.364253 200.504588 
L 203.441411 200.504588 
L 203.557118 202.004713 
L 203.750561 202.004713 
L 203.866136 203.504838 
L 204.329668 203.504838 
L 204.44574 202.004713 
L 204.793195 202.004713 
L 204.909283 200.504588 
L 205.102213 200.504588 
L 205.218332 202.004713 
L 205.488489 202.004713 
L 205.604555 200.504588 
L 207.690485 200.504588 
L 207.806125 202.004713 
L 207.960635 202.004713 
L 208.076819 203.504838 
L 208.964948 203.504838 
L 209.081093 202.004713 
L 209.15831 202.004713 
L 209.196716 203.504838 
L 209.235603 202.004713 
L 209.467301 202.004713 
L 209.582989 200.504588 
L 209.698914 200.504588 
L 209.814752 199.004463 
L 209.853693 199.004463 
L 209.969263 197.504338 
L 210.008246 197.504338 
L 210.162719 194.504088 
L 210.239964 194.504088 
L 210.355973 193.003963 
L 210.432791 193.003963 
L 210.587298 190.003713 
L 210.703436 190.003713 
L 210.819063 188.503588 
L 211.591609 188.503588 
L 211.70776 190.003713 
L 212.364158 190.003713 
L 212.480307 191.503838 
L 213.368473 191.503838 
L 213.522982 188.503588 
L 213.677489 188.503588 
L 213.793688 187.003463 
L 214.06377 187.003463 
L 214.102539 185.503338 
L 214.141021 187.003463 
L 214.372786 187.003463 
L 214.488926 185.503338 
L 214.527299 185.503338 
L 214.643484 184.003213 
L 214.952497 184.003213 
L 215.068088 182.503088 
L 215.261456 182.503088 
L 215.377109 181.002963 
L 215.608872 181.002963 
L 215.724967 179.502838 
L 215.956662 179.502838 
L 216.033968 178.002713 
L 216.0724 179.502838 
L 216.111299 178.002713 
L 216.342937 178.002713 
L 216.458677 176.502588 
L 216.574746 176.502588 
L 216.652034 175.002463 
L 216.767691 176.502588 
L 216.844949 176.502588 
L 217.385726 185.503338 
L 217.424642 185.503338 
L 217.540238 187.003463 
L 218.776318 187.003463 
L 218.892521 188.503588 
L 219.00808 188.503588 
L 219.162592 187.003463 
L 219.433302 187.003463 
L 219.548864 185.503338 
L 219.626118 185.503338 
L 219.742227 184.003213 
L 219.78112 184.003213 
L 219.935133 182.503088 
L 219.974041 182.503088 
L 220.089643 181.002963 
L 220.398665 181.002963 
L 220.475918 179.502838 
L 220.553594 179.502838 
L 220.591839 178.002713 
L 220.630424 179.502838 
L 220.901164 179.502838 
L 221.0167 181.002963 
L 221.441876 181.002963 
L 221.596293 178.002713 
L 221.828158 178.002713 
L 221.943761 176.502588 
L 222.020996 176.502588 
L 222.214384 181.002963 
L 222.407287 181.002963 
L 222.600668 176.502588 
L 222.639047 176.502588 
L 222.79356 173.502338 
L 222.832359 173.502338 
L 222.986926 170.502088 
L 223.295978 170.502088 
L 223.412017 169.001963 
L 223.643357 166.001713 
L 223.682233 166.001713 
L 223.797865 164.501588 
L 223.913984 164.501588 
L 224.029632 163.001463 
L 224.068517 163.001463 
L 224.184562 161.501338 
L 224.415908 161.501338 
L 224.531957 160.001213 
L 224.724921 160.001213 
L 224.841101 161.501338 
L 224.879916 161.501338 
L 225.033941 160.001213 
L 225.111196 160.001213 
L 225.227405 158.501088 
L 225.651973 158.501088 
L 225.768087 157.000963 
L 225.84536 157.000963 
L 225.960993 155.500838 
L 226.115508 158.501088 
L 226.192762 158.501088 
L 226.347722 161.501338 
L 226.385913 161.501338 
L 226.50178 163.001463 
L 226.656292 163.001463 
L 226.733544 161.501338 
L 226.849768 163.001463 
L 226.888054 163.001463 
L 227.043048 166.001713 
L 227.390525 166.001713 
L 227.467648 164.501588 
L 227.583345 166.001713 
L 227.737854 166.001713 
L 228.046873 170.502088 
L 228.124129 170.502088 
L 228.163097 169.001963 
L 228.201385 170.502088 
L 228.317576 170.502088 
L 228.433153 172.002213 
L 228.472099 172.002213 
L 228.626436 169.001963 
L 228.781078 169.001963 
L 228.896682 167.501838 
L 229.051188 167.501838 
L 229.167286 169.001963 
L 229.2057 169.001963 
L 229.43746 172.002213 
L 229.514717 172.002213 
L 229.630838 173.502338 
L 230.132757 173.502338 
L 230.248943 175.002463 
L 230.480714 175.002463 
L 230.596281 176.502588 
L 230.944228 176.502588 
L 231.059811 178.002713 
L 231.291576 178.002713 
L 231.368829 179.502838 
L 232.025808 179.502838 
L 232.141902 181.002963 
L 232.489323 181.002963 
L 232.6049 182.503088 
L 232.682154 182.503088 
L 232.798372 184.003213 
L 232.836667 184.003213 
L 232.991177 185.503338 
L 233.030056 185.503338 
L 233.145684 187.003463 
L 233.37745 187.003463 
L 233.493674 188.503588 
L 233.725281 188.503588 
L 233.840977 190.003713 
L 233.957232 190.003713 
L 234.072743 191.503838 
L 234.188845 191.503838 
L 234.304903 193.003963 
L 234.420505 193.003963 
L 234.536269 194.504088 
L 234.575117 194.504088 
L 234.690784 196.004213 
L 234.768037 196.004213 
L 234.884167 197.504338 
L 234.961504 197.504338 
L 235.077584 199.004463 
L 235.11573 199.004463 
L 235.231569 200.504588 
L 235.386076 200.504588 
L 235.502291 202.004713 
L 235.579565 202.004713 
L 235.695096 203.504838 
L 236.235875 203.504838 
L 236.390386 200.504588 
L 236.467637 200.504588 
L 236.699404 203.504838 
L 236.931172 203.504838 
L 237.04731 205.004963 
L 237.124485 205.004963 
L 237.240577 206.505088 
L 237.278827 206.505088 
L 237.394698 208.005213 
L 237.471955 208.005213 
L 237.588131 209.505338 
L 237.626461 209.505338 
L 237.742539 211.005463 
L 237.93588 211.005463 
L 238.089996 212.505588 
L 238.128904 212.505588 
L 238.283424 215.505838 
L 238.321761 215.505838 
L 238.476271 218.506088 
L 238.55352 218.506088 
L 238.630782 220.006213 
L 239.326076 220.006213 
L 239.403785 221.506338 
L 239.519332 221.506338 
L 239.635095 223.006463 
L 239.673842 223.006463 
L 239.789603 221.506338 
L 239.828524 221.506338 
L 239.944111 220.006213 
L 239.982813 220.006213 
L 240.098621 218.506088 
L 240.291919 218.506088 
L 240.40764 220.006213 
L 240.639411 220.006213 
L 240.755471 218.506088 
L 241.180192 218.506088 
L 241.334705 221.506338 
L 241.450752 221.506338 
L 241.566972 223.006463 
L 241.720979 224.506588 
L 241.875487 224.506588 
L 241.991568 226.006713 
L 242.029996 226.006713 
L 242.146038 227.506838 
L 242.184509 227.506838 
L 242.261762 226.006713 
L 242.377669 226.006713 
L 242.570781 221.506338 
L 242.609585 221.506338 
L 242.764088 218.506088 
L 242.879801 220.006213 
L 242.957059 220.006213 
L 243.034755 221.506338 
L 243.15032 221.506338 
L 243.26608 223.006463 
L 243.304877 223.006463 
L 243.420591 224.506588 
L 244.115884 224.506588 
L 244.231964 223.006463 
L 244.309232 223.006463 
L 244.424908 221.506338 
L 244.502688 223.006463 
L 244.656671 221.506338 
L 244.850023 221.506338 
L 245.004444 224.506588 
L 245.120201 224.506588 
L 245.197455 226.006713 
L 245.313421 226.006713 
L 245.429224 227.506838 
L 245.892753 227.506838 
L 246.279026 233.507338 
L 246.510793 233.507338 
L 246.626838 232.007213 
L 246.742556 233.507338 
L 246.781294 233.507338 
L 246.897063 235.007463 
L 247.051576 235.007463 
L 247.16764 236.507588 
L 247.283341 236.507588 
L 247.360593 238.007713 
L 247.515104 236.507588 
L 247.592366 236.507588 
L 247.631186 238.007713 
L 247.669612 236.507588 
L 247.978639 236.507588 
L 248.09473 235.007463 
L 248.596681 235.007463 
L 248.712791 236.507588 
L 249.176337 236.507588 
L 249.330847 233.507338 
L 249.407942 233.507338 
L 249.562623 236.507588 
L 249.755502 236.507588 
L 249.948855 232.007213 
L 250.605305 232.007213 
L 250.721412 233.507338 
L 250.875892 233.507338 
L 250.991587 235.007463 
L 251.146092 236.507588 
L 251.26225 235.007463 
L 251.648554 235.007463 
L 251.764462 233.507338 
L 251.995899 236.507588 
L 252.034814 236.507588 
L 252.189318 239.507838 
L 252.227667 239.507838 
L 252.382177 242.508088 
L 252.421058 242.508088 
L 252.537038 244.008213 
L 252.613948 244.008213 
L 252.730161 245.508338 
L 252.768452 245.508338 
L 252.88467 247.008463 
L 253.03907 247.008463 
L 253.154725 248.508588 
L 253.232358 248.508588 
L 253.46375 251.508838 
L 253.811666 251.508838 
L 253.927283 250.008713 
L 254.120664 250.008713 
L 254.236305 248.508588 
L 254.27518 248.508588 
L 254.390814 250.008713 
L 254.506975 250.008713 
L 254.661442 247.008463 
L 254.777086 247.008463 
L 254.893254 245.508338 
L 254.931602 245.508338 
L 255.047792 244.008213 
L 255.240618 244.008213 
L 255.356675 242.508088 
L 255.395455 242.508088 
L 255.549635 241.007963 
L 255.820341 241.007963 
L 255.974865 244.008213 
L 256.168148 244.008213 
L 256.283764 245.508338 
L 256.708466 245.508338 
L 256.863396 248.508588 
L 256.978987 248.508588 
L 257.133594 251.508838 
L 257.288207 251.508838 
L 257.403769 253.008963 
L 257.558278 253.008963 
L 257.674213 254.509088 
L 257.867297 250.008713 
L 257.94455 250.008713 
L 258.099066 247.008463 
L 258.176318 247.008463 
L 258.25357 248.508588 
L 258.292406 247.008463 
L 258.331231 248.508588 
L 258.408083 248.508588 
L 258.524241 247.008463 
L 258.717104 247.008463 
L 258.833287 248.508588 
L 259.180638 248.508588 
L 259.296763 250.008713 
L 259.412407 250.008713 
L 259.566915 247.008463 
L 260.107704 247.008463 
L 260.223825 245.508338 
L 260.648492 245.508338 
L 260.764666 247.008463 
L 260.841876 247.008463 
L 260.957513 248.508588 
L 261.112018 248.508588 
L 261.266941 245.508338 
L 261.614428 245.508338 
L 261.730066 244.008213 
L 261.923442 244.008213 
L 262.039084 245.508338 
L 262.077826 245.508338 
L 262.232427 248.508588 
L 262.270848 248.508588 
L 262.425359 251.508838 
L 262.657119 251.508838 
L 262.811636 250.008713 
L 262.850492 250.008713 
L 262.966145 251.508838 
L 263.043402 251.508838 
L 263.197906 254.509088 
L 263.27516 254.509088 
L 263.391391 256.009213 
L 263.545715 256.009213 
L 263.661441 257.509338 
L 264.086685 257.509338 
L 264.202227 259.009463 
L 264.240941 259.009463 
L 264.356735 257.509338 
L 264.627418 257.509338 
L 264.743015 256.009213 
L 264.781939 256.009213 
L 264.820271 254.509088 
L 264.97478 256.009213 
L 265.129288 256.009213 
L 265.283801 259.009463 
L 265.515565 259.009463 
L 265.593186 257.509338 
L 265.940722 257.509338 
L 266.133611 253.008963 
L 266.210863 253.008963 
L 266.288119 251.508838 
L 266.404039 251.508838 
L 266.442627 253.008963 
L 266.481424 251.508838 
L 266.790422 251.508838 
L 266.906164 253.008963 
L 267.137928 253.008963 
L 267.254036 251.508838 
L 267.292436 253.008963 
L 267.331297 251.508838 
L 267.717569 251.508838 
L 267.871913 254.509088 
L 267.910481 254.509088 
L 268.142245 260.509588 
L 268.335561 260.509588 
L 268.490107 257.509338 
L 268.605772 257.509338 
L 268.799243 253.008963 
L 268.876528 253.008963 
L 268.99205 251.508838 
L 269.069309 251.508838 
L 269.185528 253.008963 
L 269.301075 253.008963 
L 269.41717 251.508838 
L 269.532836 251.508838 
L 269.649037 253.008963 
L 269.764609 253.008963 
L 269.919116 256.009213 
L 270.112441 256.009213 
L 270.228136 257.509338 
L 270.266953 257.509338 
L 270.42153 254.509088 
L 270.57605 254.509088 
L 270.692067 253.008963 
L 271.155199 253.008963 
L 271.27135 251.508838 
L 271.386966 251.508838 
L 271.541477 253.008963 
L 271.618732 253.008963 
L 271.77324 256.009213 
L 271.850492 256.009213 
L 271.966729 254.509088 
L 272.236773 254.509088 
L 272.352853 256.009213 
L 272.39128 256.009213 
L 272.507493 257.509338 
L 272.623046 257.509338 
L 272.739169 259.009463 
L 272.932049 259.009463 
L 273.048188 257.509338 
L 273.241091 257.509338 
L 273.434533 262.009713 
L 273.472857 262.009713 
L 273.627817 265.009963 
L 273.781877 265.009963 
L 273.89805 266.510088 
L 273.936389 266.510088 
L 274.052485 265.009963 
L 274.090902 265.009963 
L 274.207063 263.509838 
L 274.32297 263.509838 
L 274.477174 265.009963 
L 274.55443 265.009963 
L 274.708942 268.010213 
L 275.211286 268.010213 
L 275.326985 266.510088 
L 275.365818 266.510088 
L 275.520424 263.509838 
L 275.636003 265.009963 
L 275.674678 265.009963 
L 275.791009 263.509838 
L 276.02228 260.509588 
L 276.408559 260.509588 
L 276.485815 259.009463 
L 276.60173 259.009463 
L 276.679156 260.509588 
L 276.794837 259.009463 
L 276.833759 259.009463 
L 276.949344 260.509588 
L 277.103854 260.509588 
L 277.220024 262.009713 
L 277.335624 262.009713 
L 277.451804 263.509838 
L 277.529074 263.509838 
L 277.644643 262.009713 
L 277.760716 263.509838 
L 278.610624 263.509838 
L 278.764827 260.509588 
L 278.803471 260.509588 
L 279.112492 247.008463 
L 279.846691 173.502338 
L 280.039974 166.001713 
L 280.155624 166.001713 
L 280.310074 163.001463 
L 280.348574 163.001463 
L 280.387498 161.501338 
L 280.812098 190.003713 
L 281.005521 185.503338 
L 281.198372 185.503338 
L 281.31451 184.003213 
L 281.391819 184.003213 
L 281.546073 175.002463 
L 282.009784 141.999713 
L 282.357195 167.501838 
L 282.396078 166.001713 
L 282.627892 154.000713 
L 282.859541 141.999713 
L 282.898418 141.999713 
L 283.593264 117.997713 
L 283.786596 122.498088 
L 283.941177 122.498088 
L 284.05679 120.997963 
L 284.288552 131.498838 
L 284.36623 129.998713 
L 284.443061 129.998713 
L 284.55923 128.498588 
L 284.597571 128.498588 
L 284.790893 123.998213 
L 284.829334 123.998213 
L 285.022735 117.997713 
L 285.254466 129.998713 
L 285.37011 129.998713 
L 285.486292 128.498588 
L 285.60187 128.498588 
L 285.988149 116.497588 
L 286.027029 116.497588 
L 286.451672 129.998713 
L 286.606184 129.998713 
L 286.722319 131.498838 
L 286.79959 131.498838 
L 287.340138 108.996963 
L 287.378723 110.497088 
L 287.494878 113.497338 
L 287.572139 111.997213 
L 287.958419 123.998213 
L 288.035362 123.998213 
L 288.421959 107.496838 
L 288.460285 108.996963 
L 288.962656 140.499588 
L 289.039971 140.499588 
L 289.541849 157.000963 
L 289.580664 157.000963 
L 289.735163 154.000713 
L 289.773612 154.000713 
L 289.889776 152.500588 
L 289.928121 152.500588 
L 290.160345 158.501088 
L 290.314393 158.501088 
L 290.507852 154.000713 
L 290.54616 154.000713 
L 290.70067 157.000963 
L 290.777925 157.000963 
L 290.932842 160.001213 
L 291.048537 158.501088 
L 291.086938 158.501088 
L 291.203138 160.001213 
L 291.357605 160.001213 
L 291.473211 161.501338 
L 291.512028 161.501338 
L 291.666336 164.501588 
L 291.78223 164.501588 
L 291.898404 166.001713 
L 291.975668 166.001713 
L 292.400267 152.500588 
L 292.516413 155.500838 
L 292.941052 141.999713 
L 293.095944 141.999713 
L 293.481834 154.000713 
L 293.520527 154.000713 
L 293.675191 157.000963 
L 293.713595 157.000963 
L 293.79124 158.501088 
L 294.099871 154.000713 
L 294.177124 154.000713 
L 294.486141 143.499838 
L 294.563812 143.499838 
L 294.679512 141.999713 
L 294.872413 141.999713 
L 295.104178 148.000213 
L 295.143078 148.000213 
L 295.683912 129.998713 
L 295.722217 129.998713 
L 295.915638 134.499088 
L 296.069961 134.499088 
L 296.340246 141.999713 
L 296.417504 141.999713 
L 296.649268 148.000213 
L 296.803779 149.500338 
L 296.881033 149.500338 
L 296.997126 151.000463 
L 297.306208 151.000463 
L 297.422243 148.000213 
L 297.537829 148.000213 
L 297.653579 146.500088 
L 297.69243 146.500088 
L 297.80809 144.999963 
L 298.117107 144.999963 
L 298.271616 146.500088 
L 298.465001 146.500088 
L 298.580633 148.000213 
L 298.619552 148.000213 
L 298.735142 149.500338 
L 298.851161 149.500338 
L 299.005703 152.500588 
L 299.083002 152.500588 
L 299.198669 154.000713 
L 299.469393 154.000713 
L 299.507685 152.500588 
L 299.546627 154.000713 
L 299.893961 164.501588 
L 300.125727 167.501838 
L 300.241897 167.501838 
L 300.434743 172.002213 
L 300.511997 172.002213 
L 300.628127 173.502338 
L 300.666505 173.502338 
L 300.821013 176.502588 
L 300.859795 176.502588 
L 300.975528 178.002713 
L 301.053205 178.002713 
L 301.207291 179.502838 
L 301.284547 179.502838 
L 301.400709 181.002963 
L 301.439058 181.002963 
L 301.593565 184.003213 
L 301.709715 184.003213 
L 301.825796 185.503338 
L 301.941444 185.503338 
L 302.057093 187.003463 
L 302.134345 187.003463 
L 302.25052 188.503588 
L 302.288854 188.503588 
L 302.405091 190.003713 
L 302.443363 190.003713 
L 302.559241 191.503838 
L 303.641108 191.503838 
L 303.7567 193.003963 
L 304.220227 193.003963 
L 304.336387 194.504088 
L 305.572356 194.504088 
L 305.688069 193.003963 
L 305.765321 194.504088 
L 305.881503 193.003963 
L 306.344903 193.003963 
L 306.460614 194.504088 
L 306.654015 194.504088 
L 306.769633 196.004213 
L 306.808532 196.004213 
L 306.924147 197.504338 
L 306.962866 197.504338 
L 307.078653 199.004463 
L 307.15591 199.004463 
L 307.272131 200.504588 
L 307.349342 200.504588 
L 307.46493 202.004713 
L 307.73548 202.004713 
L 307.851207 203.504838 
L 308.237475 203.504838 
L 308.315116 205.004963 
L 308.70101 205.004963 
L 308.817199 206.505088 
L 309.087657 206.505088 
L 309.20339 208.005213 
L 309.357875 208.005213 
L 309.473555 209.505338 
L 310.246105 209.505338 
L 310.36224 211.005463 
L 311.868458 211.005463 
L 311.946129 212.505588 
L 312.100224 211.005463 
L 312.177479 211.005463 
L 312.293676 212.505588 
L 312.795517 212.505588 
L 312.911707 211.005463 
L 313.220711 211.005463 
L 313.336304 212.505588 
L 313.645321 212.505588 
L 313.799834 214.005713 
L 314.688579 214.005713 
L 314.80415 212.505588 
L 315.035914 212.505588 
L 315.152045 214.005713 
L 316.079112 214.005713 
L 316.194735 215.505838 
L 316.465333 215.505838 
L 316.581007 217.005963 
L 316.697237 217.005963 
L 316.812771 218.506088 
L 316.890026 218.506088 
L 317.00616 220.006213 
L 317.044991 220.006213 
L 317.199055 221.506338 
L 317.276307 221.506338 
L 317.392478 223.006463 
L 317.430818 223.006463 
L 317.58533 226.006713 
L 317.73984 226.006713 
L 317.89435 227.506838 
L 318.474022 227.506838 
L 318.589642 229.006963 
L 318.666901 229.006963 
L 318.821407 232.007213 
L 318.975917 232.007213 
L 319.092087 233.507338 
L 319.130429 233.507338 
L 319.20806 235.007463 
L 319.323658 235.007463 
L 319.439447 236.507588 
L 319.555468 236.507588 
L 319.671214 238.007713 
L 319.748468 238.007713 
L 319.864677 239.507838 
L 320.173617 239.507838 
L 320.289256 241.007963 
L 320.868956 241.007963 
L 320.98455 242.508088 
L 322.723052 242.508088 
L 322.838675 244.008213 
L 323.456716 244.008213 
L 323.533969 242.508088 
L 324.615545 242.508088 
L 324.731675 241.007963 
L 326.547424 241.007963 
L 326.66301 239.507838 
L 328.014765 239.507838 
L 328.130904 238.007713 
L 328.208178 238.007713 
L 328.323789 236.507588 
L 328.478298 236.507588 
L 328.594396 238.007713 
L 329.405763 238.007713 
L 329.559873 236.507588 
L 330.486931 236.507588 
L 330.603067 238.007713 
L 331.02772 238.007713 
L 331.14393 239.507838 
L 331.452904 239.507838 
L 331.568504 241.007963 
L 332.148052 241.007963 
L 332.341359 236.507588 
L 332.727325 236.507588 
L 332.843489 238.007713 
L 333.22973 238.007713 
L 333.345369 236.507588 
L 333.693277 236.507588 
L 333.809322 238.007713 
L 333.963412 238.007713 
L 334.079591 239.507838 
L 334.156797 239.507838 
L 334.272438 241.007963 
L 334.504662 241.007963 
L 334.658706 242.508088 
L 335.199495 242.508088 
L 335.354001 244.008213 
L 335.431258 244.008213 
L 335.547468 245.508338 
L 335.972543 245.508338 
L 336.126558 244.008213 
L 336.165463 244.008213 
L 336.281065 242.508088 
L 336.435575 242.508088 
L 336.551781 244.008213 
L 337.247067 244.008213 
L 337.362639 245.508338 
L 337.748914 245.508338 
L 337.865143 247.008463 
L 339.371273 247.008463 
L 339.487481 245.508338 
L 339.873781 245.508338 
L 339.989315 244.008213 
L 340.955288 244.008213 
L 341.071302 242.508088 
L 341.264288 242.508088 
L 341.379908 241.007963 
L 342.615988 241.007963 
L 342.732139 239.507838 
L 343.156775 239.507838 
L 343.234032 241.007963 
L 343.89099 241.007963 
L 343.968219 242.508088 
L 344.392855 242.508088 
L 344.508913 241.007963 
L 344.701877 241.007963 
L 344.856383 239.507838 
L 345.551682 239.507838 
L 345.667884 238.007713 
L 345.899645 238.007713 
L 346.015213 236.507588 
L 346.16972 236.507588 
L 346.324234 235.007463 
L 346.594978 235.007463 
L 346.710508 233.507338 
L 346.787766 233.507338 
L 346.86502 232.007213 
L 347.096784 232.007213 
L 347.212932 230.507088 
L 347.908343 230.507088 
L 348.023847 229.006963 
L 348.294508 229.006963 
L 348.410509 227.506838 
L 348.487375 227.506838 
L 348.641884 224.506588 
L 348.680659 224.506588 
L 348.796393 223.006463 
L 348.873647 223.006463 
L 348.989806 224.506588 
L 349.182665 224.506588 
L 349.298817 223.006463 
L 349.530597 223.006463 
L 349.6462 221.506338 
L 349.685096 221.506338 
L 349.800711 220.006213 
L 349.955218 218.506088 
L 350.14869 218.506088 
L 350.26424 217.005963 
L 350.30317 217.005963 
L 350.418748 215.505838 
L 350.766658 215.505838 
L 350.921255 218.506088 
L 351.345795 218.506088 
L 351.500318 215.505838 
L 351.539204 215.505838 
L 351.693711 212.505588 
L 351.732083 212.505588 
L 351.886593 209.505338 
L 352.002716 209.505338 
L 352.118355 208.005213 
L 352.504632 208.005213 
L 352.659142 205.004963 
L 352.73665 205.004963 
L 352.968163 202.004713 
L 353.045417 202.004713 
L 353.16162 203.504838 
L 353.277183 203.504838 
L 353.431692 200.504588 
L 353.509465 200.504588 
L 353.663452 197.504338 
L 353.779619 197.504338 
L 353.934105 200.504588 
L 354.011377 200.504588 
L 354.12699 199.004463 
L 354.165878 199.004463 
L 354.281495 197.504338 
L 354.35875 197.504338 
L 354.474766 196.004213 
L 354.66777 196.004213 
L 354.783961 194.504088 
L 354.822275 194.504088 
L 355.015468 190.003713 
L 355.054046 190.003713 
L 355.247457 185.503338 
L 355.401978 185.503338 
L 355.517571 184.003213 
L 355.556498 184.003213 
L 355.672542 182.503088 
L 355.749332 182.503088 
L 355.903841 185.503338 
L 355.942755 185.503338 
L 356.058354 184.003213 
L 356.174371 184.003213 
L 356.290116 182.503088 
L 356.367375 182.503088 
L 356.599137 176.502588 
L 356.869817 169.001963 
L 356.908158 169.001963 
L 357.062662 172.002213 
L 357.217176 173.502338 
L 357.333316 173.502338 
L 357.448939 172.002213 
L 357.719678 172.002213 
L 357.796914 167.501838 
L 358.221486 129.998713 
L 358.260323 129.998713 
L 358.723855 114.997463 
L 358.801172 114.997463 
L 359.071283 123.998213 
L 359.22579 117.997713 
L 359.264733 119.497838 
L 359.303559 119.497838 
L 359.419076 123.998213 
L 359.92108 101.496338 
L 360.230104 84.994963 
L 360.307353 84.994963 
L 360.539112 90.995463 
L 360.771203 80.494588 
L 360.964318 89.495338 
L 361.543419 148.000213 
L 361.582163 148.000213 
L 361.697928 141.999713 
L 362.084199 108.996963 
L 362.123174 107.496838 
L 362.161455 108.996963 
L 362.315959 110.497088 
L 362.354812 110.497088 
L 362.470472 104.496588 
L 362.509427 105.996713 
L 362.624979 107.496838 
L 362.818337 107.496838 
L 362.895721 102.996463 
L 363.204651 78.994463 
L 363.281952 72.993963 
L 363.320273 74.494088 
L 363.629284 90.995463 
L 364.015553 96.995963 
L 364.054445 96.995963 
L 364.247321 101.496338 
L 364.440479 101.496338 
L 364.479084 102.996463 
L 364.517904 101.496338 
L 364.595196 101.496338 
L 364.749743 105.996713 
L 364.865357 104.496588 
L 364.94261 104.496588 
L 365.79241 134.499088 
L 365.869642 134.499088 
L 365.908356 132.998963 
L 365.946914 134.499088 
L 365.985781 134.499088 
L 366.101429 135.999213 
L 366.140275 135.999213 
L 366.372047 141.999713 
L 366.603579 141.999713 
L 366.75834 144.999963 
L 366.796719 144.999963 
L 366.95123 141.999713 
L 367.02848 141.999713 
L 367.18299 138.999463 
L 367.260768 138.999463 
L 367.414753 137.499338 
L 367.492007 137.499338 
L 367.685471 141.999713 
L 367.762701 141.999713 
L 367.878284 143.499838 
L 367.955538 141.999713 
L 368.1873 141.999713 
L 368.341809 144.999963 
L 368.380755 144.999963 
L 368.535258 148.000213 
L 368.573569 148.000213 
L 368.689735 149.500338 
L 368.728533 149.500338 
L 368.882589 151.000463 
L 369.037099 151.000463 
L 369.153194 152.500588 
L 369.230509 152.500588 
L 369.346115 154.000713 
L 369.73239 154.000713 
L 369.848513 155.500838 
L 369.964153 155.500838 
L 370.080246 157.000963 
L 370.466569 157.000963 
L 370.582189 158.501088 
L 370.891606 158.501088 
L 371.04572 160.001213 
L 371.084604 160.001213 
L 371.200228 161.501338 
L 371.354739 161.501338 
L 371.47099 163.001463 
L 371.586501 163.001463 
L 371.741012 164.501588 
L 371.818267 164.501588 
L 371.934427 166.001713 
L 372.050029 166.001713 
L 372.204542 169.001963 
L 372.320669 169.001963 
L 372.436301 170.502088 
L 372.590811 170.502088 
L 372.706789 172.002213 
L 373.015929 172.002213 
L 373.131589 173.502338 
L 373.286106 173.502338 
L 373.402264 175.002463 
L 373.59512 175.002463 
L 373.711308 176.502588 
L 373.942951 176.502588 
L 374.058649 178.002713 
L 374.522671 178.002713 
L 374.676688 179.502838 
L 375.3334 179.502838 
L 375.449236 178.002713 
L 375.603744 178.002713 
L 375.719943 179.502838 
L 375.797215 179.502838 
L 375.912765 178.002713 
L 376.299036 178.002713 
L 376.41515 179.502838 
L 376.453549 179.502838 
L 376.569723 181.002963 
L 376.608058 181.002963 
L 376.685308 182.503088 
L 376.839817 182.503088 
L 376.994328 179.502838 
L 378.307659 179.502838 
L 378.423873 181.002963 
L 379.157461 181.002963 
L 379.273688 179.502838 
L 379.543734 179.502838 
L 379.621467 178.002713 
L 379.775496 178.002713 
L 379.891686 176.502588 
L 380.548048 176.502588 
L 380.664235 175.002463 
L 380.741542 175.002463 
L 380.818625 173.502338 
L 380.934322 175.002463 
L 381.320593 175.002463 
L 381.436677 176.502588 
L 381.668564 176.502588 
L 381.784594 178.002713 
L 382.132096 178.002713 
L 382.24765 179.502838 
L 382.28662 179.502838 
L 382.402164 181.002963 
L 382.595335 181.002963 
L 382.711177 179.502838 
L 382.904487 179.502838 
L 383.0202 181.002963 
L 383.174708 181.002963 
L 383.252433 182.503088 
L 383.40647 182.503088 
L 383.522625 184.003213 
L 383.754425 184.003213 
L 383.908943 187.003463 
L 383.947251 187.003463 
L 384.179017 190.003713 
L 384.217854 190.003713 
L 384.333528 191.503838 
L 384.372227 191.503838 
L 384.488034 193.003963 
L 384.604174 193.003963 
L 384.720297 194.504088 
L 384.758435 194.504088 
L 384.913231 197.504338 
L 386.264899 197.504338 
L 386.381037 196.004213 
L 386.573916 196.004213 
L 386.690103 194.504088 
L 387.385329 194.504088 
L 387.500976 193.003963 
L 387.809992 193.003963 
L 387.926121 191.503838 
L 387.964502 191.503838 
L 388.273522 187.003463 
L 388.544156 187.003463 
L 388.659793 185.503338 
L 388.968813 185.503338 
L 389.046458 184.003213 
L 389.432343 184.003213 
L 389.548491 185.503338 
L 390.436656 185.503338 
L 390.514276 187.003463 
L 391.054691 187.003463 
L 391.17081 185.503338 
L 391.2092 185.503338 
L 391.440963 188.503588 
L 391.557095 188.503588 
L 391.672731 187.003463 
L 391.904493 187.003463 
L 392.020362 188.503588 
L 392.522532 188.503588 
L 392.599787 187.003463 
L 392.677043 188.503588 
L 392.986064 188.503588 
L 393.102165 190.003713 
L 393.295079 190.003713 
L 393.372336 188.503588 
L 393.488239 188.503588 
L 393.642813 191.503838 
L 394.145293 191.503838 
L 394.299393 193.003963 
L 394.415601 193.003963 
L 394.531157 194.504088 
L 394.801803 194.504088 
L 394.917903 193.003963 
L 395.380964 193.003963 
L 395.497091 194.504088 
L 395.767238 194.504088 
L 395.883328 196.004213 
L 395.921745 196.004213 
L 396.037902 197.504338 
L 396.076256 197.504338 
L 396.230766 200.504588 
L 396.30802 200.504588 
L 396.462531 202.004713 
L 396.501303 202.004713 
L 396.617041 200.504588 
L 396.694753 200.504588 
L 396.848806 197.504338 
L 397.196632 197.504338 
L 397.351249 200.504588 
L 397.466844 200.504588 
L 397.58303 199.004463 
L 397.737469 199.004463 
L 397.891855 202.004713 
L 397.930374 202.004713 
L 398.084884 205.004963 
L 398.239391 205.004963 
L 398.355549 206.505088 
L 398.58708 206.505088 
L 398.741837 203.504838 
L 399.359726 203.504838 
L 399.514372 200.504588 
L 399.552725 200.504588 
L 399.668894 199.004463 
L 399.861744 199.004463 
L 399.939001 200.504588 
L 400.016236 200.504588 
L 400.132376 199.004463 
L 400.248017 199.004463 
L 400.364121 200.504588 
L 400.595956 200.504588 
L 400.673152 199.004463 
L 400.788801 200.504588 
L 400.982292 200.504588 
L 401.136767 197.504338 
L 401.484096 197.504338 
L 401.522819 199.004463 
L 401.561355 197.504338 
L 401.715858 197.504338 
L 401.870372 200.504588 
L 401.986465 200.504588 
L 402.102139 202.004713 
L 402.295468 202.004713 
L 402.411154 203.504838 
L 402.450073 203.504838 
L 402.565663 202.004713 
L 402.68184 202.004713 
L 402.875119 206.505088 
L 403.26096 212.505588 
L 403.377182 212.505588 
L 403.492724 214.005713 
L 403.801741 214.005713 
L 403.956255 211.005463 
L 404.265277 211.005463 
L 404.419784 214.005713 
L 404.535885 214.005713 
L 404.651546 215.505838 
L 404.767699 215.505838 
L 404.883318 214.005713 
L 405.037824 214.005713 
L 405.269588 211.005463 
L 405.463011 211.005463 
L 405.578607 212.505588 
L 405.617501 212.505588 
L 405.810724 208.005213 
L 406.003828 208.005213 
L 406.158316 211.005463 
L 406.351157 211.005463 
L 406.50608 214.005713 
L 406.621667 214.005713 
L 406.737429 215.505838 
L 407.085395 215.505838 
L 407.200962 218.506088 
L 407.355474 218.506088 
L 407.471673 220.006213 
L 407.548946 220.006213 
L 407.664494 221.506338 
L 407.780701 221.506338 
L 407.896257 220.006213 
L 408.244093 220.006213 
L 408.398722 217.005963 
L 408.5143 217.005963 
L 408.630482 218.506088 
L 408.66881 218.506088 
L 408.823317 220.006213 
L 409.248516 220.006213 
L 409.403009 223.006463 
L 409.557414 223.006463 
L 409.673126 224.506588 
L 409.711892 224.506588 
L 409.827634 226.006713 
L 409.866542 226.006713 
L 410.020969 229.006963 
L 410.13701 229.006963 
L 410.291161 227.506838 
L 410.716383 227.506838 
L 410.947858 221.506338 
L 411.140965 221.506338 
L 411.295477 224.506588 
L 411.372734 224.506588 
L 411.52724 221.506338 
L 412.068028 221.506338 
L 412.184139 220.006213 
L 412.454303 220.006213 
L 412.608815 223.006463 
L 412.686068 223.006463 
L 412.802206 224.506588 
L 413.033977 224.506588 
L 413.188384 227.506838 
L 413.613128 227.506838 
L 413.690383 226.006713 
L 413.767639 227.506838 
L 413.883607 227.506838 
L 413.999408 229.006963 
L 414.347406 229.006963 
L 414.462931 230.507088 
L 414.771953 230.507088 
L 414.888097 232.007213 
L 414.926463 232.007213 
L 415.042664 233.507338 
L 415.158227 233.507338 
L 415.235925 235.007463 
L 415.389991 233.507338 
L 415.467251 233.507338 
L 415.583255 235.007463 
L 415.66061 235.007463 
L 415.776271 233.507338 
L 415.93078 233.507338 
L 416.085293 232.007213 
L 416.355909 232.007213 
L 416.471565 233.507338 
L 416.703763 227.506838 
L 416.85784 226.006713 
L 417.166862 226.006713 
L 417.321371 223.006463 
L 417.360322 223.006463 
L 417.475862 221.506338 
L 417.630394 221.506338 
L 417.784901 218.506088 
L 418.055533 218.506088 
L 418.557449 196.004213 
L 418.982449 170.502088 
L 419.098235 169.001963 
L 419.137154 169.001963 
L 419.40725 155.500838 
L 419.561758 148.000213 
L 419.793524 148.000213 
L 420.102543 138.999463 
L 420.179796 138.999463 
L 420.334765 143.499838 
L 420.411557 141.999713 
L 420.488814 143.499838 
L 420.79783 132.998963 
L 420.991249 137.499338 
L 421.145548 129.998713 
L 421.454621 104.496588 
L 421.724884 92.495588 
L 421.802506 93.995713 
L 421.840772 93.995713 
L 422.033901 95.495838 
L 422.149873 93.995713 
L 422.497821 83.494838 
L 422.574686 84.994963 
L 422.806444 98.496088 
L 422.999908 93.995713 
L 423.115463 93.995713 
L 423.192714 90.995463 
L 423.424477 101.496338 
L 423.65624 107.496838 
L 423.965726 92.495588 
L 424.23591 78.994463 
L 424.351534 72.993963 
L 424.390314 74.494088 
L 424.660967 89.495338 
L 424.892307 86.495088 
L 424.969559 86.495088 
L 425.046819 84.994963 
L 425.201322 87.995213 
L 425.240248 87.995213 
L 425.626435 74.494088 
L 425.703699 75.994213 
L 425.858128 72.993963 
L 425.896613 72.993963 
L 426.089968 77.494338 
L 426.282889 78.994463 
L 426.360138 77.494338 
L 426.437397 78.994463 
L 426.630828 78.994463 
L 426.823666 84.994963 
L 426.939768 83.494838 
L 427.094333 86.495088 
L 427.132677 86.495088 
L 427.209937 83.494838 
L 427.248857 84.994963 
L 427.403389 89.495338 
L 427.518937 87.995213 
L 427.596203 90.995463 
L 428.639439 93.995713 
L 429.257435 72.993963 
L 429.295804 72.993963 
L 429.411915 77.494338 
L 429.759333 60.992963 
L 429.875483 56.492588 
L 430.184461 81.994713 
L 430.261662 81.994713 
L 430.30011 80.494588 
L 430.33901 81.994713 
L 430.377817 81.994713 
L 430.570771 86.495088 
L 430.648023 86.495088 
L 430.879714 80.494588 
L 431.034152 84.994963 
L 431.149906 78.994463 
L 431.381667 63.993213 
L 431.690681 45.991713 
L 431.72952 45.991713 
L 431.922445 38.491088 
L 432.038597 39.991213 
L 432.076955 38.491088 
L 432.115697 39.991213 
L 432.192961 39.991213 
L 432.385966 44.491588 
L 432.46322 44.491588 
L 432.540939 41.491338 
L 432.656504 41.491338 
L 432.772242 36.990963 
L 432.811136 38.491088 
L 433.197378 56.492588 
L 433.351729 62.493088 
L 433.429154 62.493088 
L 434.20174 89.495338 
L 434.240063 89.495338 
L 434.549086 80.494588 
L 434.588009 80.494588 
L 434.665235 78.994463 
L 434.780849 80.494588 
L 434.858104 80.494588 
L 435.051516 72.993963 
L 435.089868 71.493838 
L 435.128586 72.993963 
L 435.244375 74.494088 
L 435.321627 74.494088 
L 435.398883 71.493838 
L 435.785153 77.494338 
L 435.824072 77.494338 
L 436.055864 71.493838 
L 436.132947 71.493838 
L 436.248679 69.993713 
L 436.287475 69.993713 
L 436.557696 77.494338 
L 436.789458 77.494338 
L 437.44631 105.996713 
L 437.716507 119.497838 
L 438.025528 128.498588 
L 438.102778 128.498588 
L 438.334872 134.499088 
L 438.643563 138.999463 
L 438.682477 138.999463 
L 438.836903 141.999713 
L 438.914133 141.999713 
L 439.02984 144.999963 
L 439.145802 144.999963 
L 439.261601 146.500088 
L 443.124332 164.501588 
L 443.240444 166.001713 
L 443.317603 166.001713 
L 443.433348 167.501838 
L 443.58818 167.501838 
L 443.74237 169.001963 
L 444.283153 169.001963 
L 444.437657 170.502088 
L 444.553832 170.502088 
L 444.669425 169.001963 
L 444.824307 169.001963 
L 444.940065 170.502088 
L 445.017256 170.502088 
L 445.132951 172.002213 
L 445.249098 170.502088 
L 445.441964 170.502088 
L 445.558029 172.002213 
L 445.596475 172.002213 
L 445.712544 173.502338 
L 445.750985 173.502338 
L 445.905497 175.002463 
L 445.94433 175.002463 
L 446.13726 179.502838 
L 446.253288 179.502838 
L 446.369024 181.002963 
L 446.44628 181.002963 
L 446.600782 182.503088 
L 446.678039 182.503088 
L 446.794167 184.003213 
L 447.025902 184.003213 
L 447.180315 187.003463 
L 447.373332 187.003463 
L 447.527839 184.003213 
L 447.721069 184.003213 
L 447.836857 182.503088 
L 447.99183 182.503088 
L 448.030036 184.003213 
L 448.493781 185.503338 
L 448.609405 184.003213 
L 448.802728 184.003213 
L 448.841174 185.503338 
L 449.11182 185.503338 
L 449.227446 184.003213 
L 449.498091 184.003213 
L 449.613721 185.503338 
L 449.729641 185.503338 
L 449.84549 187.003463 
L 449.922741 187.003463 
L 450 188.503588 
L 450 188.503588 
" clip-path="url(#p29af7f6499)" style="fill: none; stroke: #1f77b4; stroke-width: 1.5; stroke-linecap: square"/>
   </g>
   <g id="patch_3">
    <path d="M 46.46 279.561175 
L 46.46 25.44 
" style="fill: none; stroke: #000000; stroke-width: 0.8; stroke-linejoin: miter; stroke-linecap: square"/>
   </g>
   <g id="patch_4">
    <path d="M 450 279.561175 
L 450 25.44 
" style="fill: none; stroke: #000000; stroke-width: 0.8; stroke-linejoin: miter; stroke-linecap: square"/>
   </g>
   <g id="patch_5">
    <path d="M 46.46 279.561175 
L 450 279.561175 
" style="fill: none; stroke: #000000; stroke-width: 0.8; stroke-linejoin: miter; stroke-linecap: square"/>
   </g>
   <g id="patch_6">
    <path d="M 46.46 25.44 
L 450 25.44 
" style="fill: none; stroke: #000000; stroke-width: 0.8; stroke-linejoin: miter; stroke-linecap: square"/>
   </g>
   <g id="text_15">
    <!-- November 2023 -->
    <g transform="translate(199.838125 19.44) scale(0.12 -0.12)">
     <defs>
      <path id="DejaVuSans-4e" d="M 628 4666 
L 1478 4666 
L 3547 763 
L 3547 4666 
L 4159 4666 
L 4159 0 
L 3309 0 
L 1241 3903 
L 1241 0 
L 628 0 
L 628 4666 
z
" transform="scale(0.015625)"/>
      <path id="DejaVuSans-6f" d="M 1959 3097 
Q 1497 3097 1228 2736 
Q 959 2375 959 1747 
Q 959 1119 1226 758 
Q 1494 397 1959 397 
Q 2419 397 2687 759 
Q 2956 1122 2956 1747 
Q 2956 2369 2687 2733 
Q 2419 3097 1959 3097 
z
M 1959 3584 
Q 2709 3584 3137 3096 
Q 3566 2609 3566 1747 
Q 3566 888 3137 398 
Q 2709 -91 1959 -91 
Q 1206 -91 779 398 
Q 353 888 353 1747 
Q 353 2609 779 3096 
Q 1206 3584 1959 3584 
z
" transform="scale(0.015625)"/>
      <path id="DejaVuSans-76" d="M 191 3500 
L 800 3500 
L 1894 563 
L 2988 3500 
L 3597 3500 
L 2284 0 
L 1503 0 
L 191 3500 
z
" transform="scale(0.015625)"/>
      <path id="DejaVuSans-62" d="M 3116 1747 
Q 3116 2381 2855 2742 
Q 2594 3103 2138 3103 
Q 1681 3103 1420 2742 
Q 1159 2381 1159 1747 
Q 1159 1113 1420 752 
Q 1681 391 2138 391 
Q 2594 391 2855 752 
Q 3116 1113 3116 1747 
z
M 1159 2969 
Q 1341 3281 1617 3432 
Q 1894 3584 2278 3584 
Q 2916 3584 3314 3078 
Q 3713 2572 3713 1747 
Q 3713 922 3314 415 
Q 2916 -91 2278 -91 
Q 1894 -91 1617 61 
Q 1341 213 1159 525 
L 1159 0 
L 581 0 
L 581 4863 
L 1159 4863 
L 1159 2969 
z
" transform="scale(0.015625)"/>
     </defs>
     <use xlink:href="#DejaVuSans-4e"/>
     <use xlink:href="#DejaVuSans-6f" x="74.804688"/>
     <use xlink:href="#DejaVuSans-76" x="135.986328"/>
     <use xlink:href="#DejaVuSans-65" x="195.166016"/>
     <use xlink:href="#DejaVuSans-6d" x="256.689453"/>
     <use xlink:href="#DejaVuSans-62" x="354.101562"/>
     <use xlink:href="#DejaVuSans-65" x="417.578125"/>
     <use xlink:href="#DejaVuSans-72" x="479.101562"/>
     <use xlink:href="#DejaVuSans-20" x="520.214844"/>
     <use xlink:href="#DejaVuSans-32" x="552.001953"/>
     <use xlink:href="#DejaVuSans-30" x="615.625"/>
     <use xlink:href="#DejaVuSans-32" x="679.248047"/>
     <use xlink:href="#DejaVuSans-33" x="742.871094"/>
    </g>
   </g>
  </g>
 </g>
 <defs>
  <clipPath id="p29af7f6499">
   <rect x="46.46" y="25.44" width="403.54" height="254.121175"/>
  </clipPath>
 </defs>
</svg>
