<?xml version="1.0" encoding="utf-8" standalone="no"?>
<!DOCTYPE svg PUBLIC "-//W3C//DTD SVG 1.1//EN"
  "http://www.w3.org/Graphics/SVG/1.1/DTD/svg11.dtd">
<svg xmlns:xlink="http://www.w3.org/1999/xlink" width="432pt" height="288pt" viewBox="0 0 432 288" xmlns="http://www.w3.org/2000/svg" version="1.1">
 <metadata>
  <rdf:RDF xmlns:dc="http://purl.org/dc/elements/1.1/" xmlns:cc="http://creativecommons.org/ns#" xmlns:rdf="http://www.w3.org/1999/02/22-rdf-syntax-ns#">
   <cc:Work>
    <dc:type rdf:resource="http://purl.org/dc/dcmitype/StillImage"/>
    <dc:date>2023-11-12T10:18:37.004010</dc:date>
    <dc:format>image/svg+xml</dc:format>
    <dc:creator>
     <cc:Agent>
      <dc:title>Matplotlib v3.6.3, https://matplotlib.org/</dc:title>
     </cc:Agent>
    </dc:creator>
   </cc:Work>
  </rdf:RDF>
 </metadata>
 <defs>
  <style type="text/css">*{stroke-linejoin: round; stroke-linecap: butt}</style>
 </defs>
 <g id="figure_1">
  <g id="patch_1">
   <path d="M 0 288 
L 432 288 
L 432 0 
L 0 0 
z
" style="fill: #ffffff"/>
  </g>
  <g id="axes_1">
   <g id="patch_2">
    <path d="M 50.925 221.939962 
L 421.2 221.939962 
L 421.2 26.8 
L 50.925 26.8 
z
" style="fill: #ffffff"/>
   </g>
   <g id="matplotlib.axis_1">
    <g id="xtick_1">
     <g id="line2d_1">
      <path d="M 115.707796 221.939962 
L 115.707796 26.8 
" clip-path="url(#p49747b65e5)" style="fill: none; stroke: #b0b0b0; stroke-width: 0.8; stroke-linecap: square"/>
     </g>
     <g id="line2d_2">
      <defs>
       <path id="m3c576195ff" d="M 0 0 
L 0 3.5 
" style="stroke: #000000; stroke-width: 0.8"/>
      </defs>
      <g>
       <use xlink:href="#m3c576195ff" x="115.707796" y="221.939962" style="stroke: #000000; stroke-width: 0.8"/>
      </g>
     </g>
     <g id="text_1">
      <!-- 2023-11-03 -->
      <g transform="translate(73.143283 275.406821) rotate(-45) scale(0.1 -0.1)">
       <defs>
        <path id="DejaVuSans-32" d="M 1228 531 
L 3431 531 
L 3431 0 
L 469 0 
L 469 531 
Q 828 903 1448 1529 
Q 2069 2156 2228 2338 
Q 2531 2678 2651 2914 
Q 2772 3150 2772 3378 
Q 2772 3750 2511 3984 
Q 2250 4219 1831 4219 
Q 1534 4219 1204 4116 
Q 875 4013 500 3803 
L 500 4441 
Q 881 4594 1212 4672 
Q 1544 4750 1819 4750 
Q 2544 4750 2975 4387 
Q 3406 4025 3406 3419 
Q 3406 3131 3298 2873 
Q 3191 2616 2906 2266 
Q 2828 2175 2409 1742 
Q 1991 1309 1228 531 
z
" transform="scale(0.015625)"/>
        <path id="DejaVuSans-30" d="M 2034 4250 
Q 1547 4250 1301 3770 
Q 1056 3291 1056 2328 
Q 1056 1369 1301 889 
Q 1547 409 2034 409 
Q 2525 409 2770 889 
Q 3016 1369 3016 2328 
Q 3016 3291 2770 3770 
Q 2525 4250 2034 4250 
z
M 2034 4750 
Q 2819 4750 3233 4129 
Q 3647 3509 3647 2328 
Q 3647 1150 3233 529 
Q 2819 -91 2034 -91 
Q 1250 -91 836 529 
Q 422 1150 422 2328 
Q 422 3509 836 4129 
Q 1250 4750 2034 4750 
z
" transform="scale(0.015625)"/>
        <path id="DejaVuSans-33" d="M 2597 2516 
Q 3050 2419 3304 2112 
Q 3559 1806 3559 1356 
Q 3559 666 3084 287 
Q 2609 -91 1734 -91 
Q 1441 -91 1130 -33 
Q 819 25 488 141 
L 488 750 
Q 750 597 1062 519 
Q 1375 441 1716 441 
Q 2309 441 2620 675 
Q 2931 909 2931 1356 
Q 2931 1769 2642 2001 
Q 2353 2234 1838 2234 
L 1294 2234 
L 1294 2753 
L 1863 2753 
Q 2328 2753 2575 2939 
Q 2822 3125 2822 3475 
Q 2822 3834 2567 4026 
Q 2313 4219 1838 4219 
Q 1578 4219 1281 4162 
Q 984 4106 628 3988 
L 628 4550 
Q 988 4650 1302 4700 
Q 1616 4750 1894 4750 
Q 2613 4750 3031 4423 
Q 3450 4097 3450 3541 
Q 3450 3153 3228 2886 
Q 3006 2619 2597 2516 
z
" transform="scale(0.015625)"/>
        <path id="DejaVuSans-2d" d="M 313 2009 
L 1997 2009 
L 1997 1497 
L 313 1497 
L 313 2009 
z
" transform="scale(0.015625)"/>
        <path id="DejaVuSans-31" d="M 794 531 
L 1825 531 
L 1825 4091 
L 703 3866 
L 703 4441 
L 1819 4666 
L 2450 4666 
L 2450 531 
L 3481 531 
L 3481 0 
L 794 0 
L 794 531 
z
" transform="scale(0.015625)"/>
       </defs>
       <use xlink:href="#DejaVuSans-32"/>
       <use xlink:href="#DejaVuSans-30" x="63.623047"/>
       <use xlink:href="#DejaVuSans-32" x="127.246094"/>
       <use xlink:href="#DejaVuSans-33" x="190.869141"/>
       <use xlink:href="#DejaVuSans-2d" x="254.492188"/>
       <use xlink:href="#DejaVuSans-31" x="290.576172"/>
       <use xlink:href="#DejaVuSans-31" x="354.199219"/>
       <use xlink:href="#DejaVuSans-2d" x="417.822266"/>
       <use xlink:href="#DejaVuSans-30" x="453.90625"/>
       <use xlink:href="#DejaVuSans-33" x="517.529297"/>
      </g>
     </g>
    </g>
    <g id="xtick_2">
     <g id="line2d_3">
      <path d="M 180.50783 221.939962 
L 180.50783 26.8 
" clip-path="url(#p49747b65e5)" style="fill: none; stroke: #b0b0b0; stroke-width: 0.8; stroke-linecap: square"/>
     </g>
     <g id="line2d_4">
      <g>
       <use xlink:href="#m3c576195ff" x="180.50783" y="221.939962" style="stroke: #000000; stroke-width: 0.8"/>
      </g>
     </g>
     <g id="text_2">
      <!-- 2023-11-05 -->
      <g transform="translate(137.943316 275.406821) rotate(-45) scale(0.1 -0.1)">
       <defs>
        <path id="DejaVuSans-35" d="M 691 4666 
L 3169 4666 
L 3169 4134 
L 1269 4134 
L 1269 2991 
Q 1406 3038 1543 3061 
Q 1681 3084 1819 3084 
Q 2600 3084 3056 2656 
Q 3513 2228 3513 1497 
Q 3513 744 3044 326 
Q 2575 -91 1722 -91 
Q 1428 -91 1123 -41 
Q 819 9 494 109 
L 494 744 
Q 775 591 1075 516 
Q 1375 441 1709 441 
Q 2250 441 2565 725 
Q 2881 1009 2881 1497 
Q 2881 1984 2565 2268 
Q 2250 2553 1709 2553 
Q 1456 2553 1204 2497 
Q 953 2441 691 2322 
L 691 4666 
z
" transform="scale(0.015625)"/>
       </defs>
       <use xlink:href="#DejaVuSans-32"/>
       <use xlink:href="#DejaVuSans-30" x="63.623047"/>
       <use xlink:href="#DejaVuSans-32" x="127.246094"/>
       <use xlink:href="#DejaVuSans-33" x="190.869141"/>
       <use xlink:href="#DejaVuSans-2d" x="254.492188"/>
       <use xlink:href="#DejaVuSans-31" x="290.576172"/>
       <use xlink:href="#DejaVuSans-31" x="354.199219"/>
       <use xlink:href="#DejaVuSans-2d" x="417.822266"/>
       <use xlink:href="#DejaVuSans-30" x="453.90625"/>
       <use xlink:href="#DejaVuSans-35" x="517.529297"/>
      </g>
     </g>
    </g>
    <g id="xtick_3">
     <g id="line2d_5">
      <path d="M 245.307863 221.939962 
L 245.307863 26.8 
" clip-path="url(#p49747b65e5)" style="fill: none; stroke: #b0b0b0; stroke-width: 0.8; stroke-linecap: square"/>
     </g>
     <g id="line2d_6">
      <g>
       <use xlink:href="#m3c576195ff" x="245.307863" y="221.939962" style="stroke: #000000; stroke-width: 0.8"/>
      </g>
     </g>
     <g id="text_3">
      <!-- 2023-11-07 -->
      <g transform="translate(202.743349 275.406821) rotate(-45) scale(0.1 -0.1)">
       <defs>
        <path id="DejaVuSans-37" d="M 525 4666 
L 3525 4666 
L 3525 4397 
L 1831 0 
L 1172 0 
L 2766 4134 
L 525 4134 
L 525 4666 
z
" transform="scale(0.015625)"/>
       </defs>
       <use xlink:href="#DejaVuSans-32"/>
       <use xlink:href="#DejaVuSans-30" x="63.623047"/>
       <use xlink:href="#DejaVuSans-32" x="127.246094"/>
       <use xlink:href="#DejaVuSans-33" x="190.869141"/>
       <use xlink:href="#DejaVuSans-2d" x="254.492188"/>
       <use xlink:href="#DejaVuSans-31" x="290.576172"/>
       <use xlink:href="#DejaVuSans-31" x="354.199219"/>
       <use xlink:href="#DejaVuSans-2d" x="417.822266"/>
       <use xlink:href="#DejaVuSans-30" x="453.90625"/>
       <use xlink:href="#DejaVuSans-37" x="517.529297"/>
      </g>
     </g>
    </g>
    <g id="xtick_4">
     <g id="line2d_7">
      <path d="M 310.107896 221.939962 
L 310.107896 26.8 
" clip-path="url(#p49747b65e5)" style="fill: none; stroke: #b0b0b0; stroke-width: 0.8; stroke-linecap: square"/>
     </g>
     <g id="line2d_8">
      <g>
       <use xlink:href="#m3c576195ff" x="310.107896" y="221.939962" style="stroke: #000000; stroke-width: 0.8"/>
      </g>
     </g>
     <g id="text_4">
      <!-- 2023-11-09 -->
      <g transform="translate(267.543383 275.406821) rotate(-45) scale(0.1 -0.1)">
       <defs>
        <path id="DejaVuSans-39" d="M 703 97 
L 703 672 
Q 941 559 1184 500 
Q 1428 441 1663 441 
Q 2288 441 2617 861 
Q 2947 1281 2994 2138 
Q 2813 1869 2534 1725 
Q 2256 1581 1919 1581 
Q 1219 1581 811 2004 
Q 403 2428 403 3163 
Q 403 3881 828 4315 
Q 1253 4750 1959 4750 
Q 2769 4750 3195 4129 
Q 3622 3509 3622 2328 
Q 3622 1225 3098 567 
Q 2575 -91 1691 -91 
Q 1453 -91 1209 -44 
Q 966 3 703 97 
z
M 1959 2075 
Q 2384 2075 2632 2365 
Q 2881 2656 2881 3163 
Q 2881 3666 2632 3958 
Q 2384 4250 1959 4250 
Q 1534 4250 1286 3958 
Q 1038 3666 1038 3163 
Q 1038 2656 1286 2365 
Q 1534 2075 1959 2075 
z
" transform="scale(0.015625)"/>
       </defs>
       <use xlink:href="#DejaVuSans-32"/>
       <use xlink:href="#DejaVuSans-30" x="63.623047"/>
       <use xlink:href="#DejaVuSans-32" x="127.246094"/>
       <use xlink:href="#DejaVuSans-33" x="190.869141"/>
       <use xlink:href="#DejaVuSans-2d" x="254.492188"/>
       <use xlink:href="#DejaVuSans-31" x="290.576172"/>
       <use xlink:href="#DejaVuSans-31" x="354.199219"/>
       <use xlink:href="#DejaVuSans-2d" x="417.822266"/>
       <use xlink:href="#DejaVuSans-30" x="453.90625"/>
       <use xlink:href="#DejaVuSans-39" x="517.529297"/>
      </g>
     </g>
    </g>
    <g id="xtick_5">
     <g id="line2d_9">
      <path d="M 374.90793 221.939962 
L 374.90793 26.8 
" clip-path="url(#p49747b65e5)" style="fill: none; stroke: #b0b0b0; stroke-width: 0.8; stroke-linecap: square"/>
     </g>
     <g id="line2d_10">
      <g>
       <use xlink:href="#m3c576195ff" x="374.90793" y="221.939962" style="stroke: #000000; stroke-width: 0.8"/>
      </g>
     </g>
     <g id="text_5">
      <!-- 2023-11-11 -->
      <g transform="translate(332.343416 275.406821) rotate(-45) scale(0.1 -0.1)">
       <use xlink:href="#DejaVuSans-32"/>
       <use xlink:href="#DejaVuSans-30" x="63.623047"/>
       <use xlink:href="#DejaVuSans-32" x="127.246094"/>
       <use xlink:href="#DejaVuSans-33" x="190.869141"/>
       <use xlink:href="#DejaVuSans-2d" x="254.492188"/>
       <use xlink:href="#DejaVuSans-31" x="290.576172"/>
       <use xlink:href="#DejaVuSans-31" x="354.199219"/>
       <use xlink:href="#DejaVuSans-2d" x="417.822266"/>
       <use xlink:href="#DejaVuSans-31" x="453.90625"/>
       <use xlink:href="#DejaVuSans-31" x="517.529297"/>
      </g>
     </g>
    </g>
   </g>
   <g id="matplotlib.axis_2">
    <g id="ytick_1">
     <g id="line2d_11">
      <path d="M 50.925 196.961962 
L 421.2 196.961962 
" clip-path="url(#p49747b65e5)" style="fill: none; stroke: #b0b0b0; stroke-width: 0.8; stroke-linecap: square"/>
     </g>
     <g id="line2d_12">
      <defs>
       <path id="m6027e7599f" d="M 0 0 
L -3.5 0 
" style="stroke: #000000; stroke-width: 0.8"/>
      </defs>
      <g>
       <use xlink:href="#m6027e7599f" x="50.925" y="196.961962" style="stroke: #000000; stroke-width: 0.8"/>
      </g>
     </g>
     <g id="text_6">
      <!-- 340 -->
      <g transform="translate(24.8375 200.761181) scale(0.1 -0.1)">
       <defs>
        <path id="DejaVuSans-34" d="M 2419 4116 
L 825 1625 
L 2419 1625 
L 2419 4116 
z
M 2253 4666 
L 3047 4666 
L 3047 1625 
L 3713 1625 
L 3713 1100 
L 3047 1100 
L 3047 0 
L 2419 0 
L 2419 1100 
L 313 1100 
L 313 1709 
L 2253 4666 
z
" transform="scale(0.015625)"/>
       </defs>
       <use xlink:href="#DejaVuSans-33"/>
       <use xlink:href="#DejaVuSans-34" x="63.623047"/>
       <use xlink:href="#DejaVuSans-30" x="127.246094"/>
      </g>
     </g>
    </g>
    <g id="ytick_2">
     <g id="line2d_13">
      <path d="M 50.925 154.572484 
L 421.2 154.572484 
" clip-path="url(#p49747b65e5)" style="fill: none; stroke: #b0b0b0; stroke-width: 0.8; stroke-linecap: square"/>
     </g>
     <g id="line2d_14">
      <g>
       <use xlink:href="#m6027e7599f" x="50.925" y="154.572484" style="stroke: #000000; stroke-width: 0.8"/>
      </g>
     </g>
     <g id="text_7">
      <!-- 360 -->
      <g transform="translate(24.8375 158.371703) scale(0.1 -0.1)">
       <defs>
        <path id="DejaVuSans-36" d="M 2113 2584 
Q 1688 2584 1439 2293 
Q 1191 2003 1191 1497 
Q 1191 994 1439 701 
Q 1688 409 2113 409 
Q 2538 409 2786 701 
Q 3034 994 3034 1497 
Q 3034 2003 2786 2293 
Q 2538 2584 2113 2584 
z
M 3366 4563 
L 3366 3988 
Q 3128 4100 2886 4159 
Q 2644 4219 2406 4219 
Q 1781 4219 1451 3797 
Q 1122 3375 1075 2522 
Q 1259 2794 1537 2939 
Q 1816 3084 2150 3084 
Q 2853 3084 3261 2657 
Q 3669 2231 3669 1497 
Q 3669 778 3244 343 
Q 2819 -91 2113 -91 
Q 1303 -91 875 529 
Q 447 1150 447 2328 
Q 447 3434 972 4092 
Q 1497 4750 2381 4750 
Q 2619 4750 2861 4703 
Q 3103 4656 3366 4563 
z
" transform="scale(0.015625)"/>
       </defs>
       <use xlink:href="#DejaVuSans-33"/>
       <use xlink:href="#DejaVuSans-36" x="63.623047"/>
       <use xlink:href="#DejaVuSans-30" x="127.246094"/>
      </g>
     </g>
    </g>
    <g id="ytick_3">
     <g id="line2d_15">
      <path d="M 50.925 112.183006 
L 421.2 112.183006 
" clip-path="url(#p49747b65e5)" style="fill: none; stroke: #b0b0b0; stroke-width: 0.8; stroke-linecap: square"/>
     </g>
     <g id="line2d_16">
      <g>
       <use xlink:href="#m6027e7599f" x="50.925" y="112.183006" style="stroke: #000000; stroke-width: 0.8"/>
      </g>
     </g>
     <g id="text_8">
      <!-- 380 -->
      <g transform="translate(24.8375 115.982225) scale(0.1 -0.1)">
       <defs>
        <path id="DejaVuSans-38" d="M 2034 2216 
Q 1584 2216 1326 1975 
Q 1069 1734 1069 1313 
Q 1069 891 1326 650 
Q 1584 409 2034 409 
Q 2484 409 2743 651 
Q 3003 894 3003 1313 
Q 3003 1734 2745 1975 
Q 2488 2216 2034 2216 
z
M 1403 2484 
Q 997 2584 770 2862 
Q 544 3141 544 3541 
Q 544 4100 942 4425 
Q 1341 4750 2034 4750 
Q 2731 4750 3128 4425 
Q 3525 4100 3525 3541 
Q 3525 3141 3298 2862 
Q 3072 2584 2669 2484 
Q 3125 2378 3379 2068 
Q 3634 1759 3634 1313 
Q 3634 634 3220 271 
Q 2806 -91 2034 -91 
Q 1263 -91 848 271 
Q 434 634 434 1313 
Q 434 1759 690 2068 
Q 947 2378 1403 2484 
z
M 1172 3481 
Q 1172 3119 1398 2916 
Q 1625 2713 2034 2713 
Q 2441 2713 2670 2916 
Q 2900 3119 2900 3481 
Q 2900 3844 2670 4047 
Q 2441 4250 2034 4250 
Q 1625 4250 1398 4047 
Q 1172 3844 1172 3481 
z
" transform="scale(0.015625)"/>
       </defs>
       <use xlink:href="#DejaVuSans-33"/>
       <use xlink:href="#DejaVuSans-38" x="63.623047"/>
       <use xlink:href="#DejaVuSans-30" x="127.246094"/>
      </g>
     </g>
    </g>
    <g id="ytick_4">
     <g id="line2d_17">
      <path d="M 50.925 69.793528 
L 421.2 69.793528 
" clip-path="url(#p49747b65e5)" style="fill: none; stroke: #b0b0b0; stroke-width: 0.8; stroke-linecap: square"/>
     </g>
     <g id="line2d_18">
      <g>
       <use xlink:href="#m6027e7599f" x="50.925" y="69.793528" style="stroke: #000000; stroke-width: 0.8"/>
      </g>
     </g>
     <g id="text_9">
      <!-- 400 -->
      <g transform="translate(24.8375 73.592747) scale(0.1 -0.1)">
       <use xlink:href="#DejaVuSans-34"/>
       <use xlink:href="#DejaVuSans-30" x="63.623047"/>
       <use xlink:href="#DejaVuSans-30" x="127.246094"/>
      </g>
     </g>
    </g>
    <g id="ytick_5">
     <g id="line2d_19">
      <path d="M 50.925 27.40405 
L 421.2 27.40405 
" clip-path="url(#p49747b65e5)" style="fill: none; stroke: #b0b0b0; stroke-width: 0.8; stroke-linecap: square"/>
     </g>
     <g id="line2d_20">
      <g>
       <use xlink:href="#m6027e7599f" x="50.925" y="27.40405" style="stroke: #000000; stroke-width: 0.8"/>
      </g>
     </g>
     <g id="text_10">
      <!-- 420 -->
      <g transform="translate(24.8375 31.203269) scale(0.1 -0.1)">
       <use xlink:href="#DejaVuSans-34"/>
       <use xlink:href="#DejaVuSans-32" x="63.623047"/>
       <use xlink:href="#DejaVuSans-30" x="127.246094"/>
      </g>
     </g>
    </g>
    <g id="text_11">
     <!-- Rain [mm] -->
     <g transform="translate(18.757812 150.584825) rotate(-90) scale(0.1 -0.1)">
      <defs>
       <path id="DejaVuSans-52" d="M 2841 2188 
Q 3044 2119 3236 1894 
Q 3428 1669 3622 1275 
L 4263 0 
L 3584 0 
L 2988 1197 
Q 2756 1666 2539 1819 
Q 2322 1972 1947 1972 
L 1259 1972 
L 1259 0 
L 628 0 
L 628 4666 
L 2053 4666 
Q 2853 4666 3247 4331 
Q 3641 3997 3641 3322 
Q 3641 2881 3436 2590 
Q 3231 2300 2841 2188 
z
M 1259 4147 
L 1259 2491 
L 2053 2491 
Q 2509 2491 2742 2702 
Q 2975 2913 2975 3322 
Q 2975 3731 2742 3939 
Q 2509 4147 2053 4147 
L 1259 4147 
z
" transform="scale(0.015625)"/>
       <path id="DejaVuSans-61" d="M 2194 1759 
Q 1497 1759 1228 1600 
Q 959 1441 959 1056 
Q 959 750 1161 570 
Q 1363 391 1709 391 
Q 2188 391 2477 730 
Q 2766 1069 2766 1631 
L 2766 1759 
L 2194 1759 
z
M 3341 1997 
L 3341 0 
L 2766 0 
L 2766 531 
Q 2569 213 2275 61 
Q 1981 -91 1556 -91 
Q 1019 -91 701 211 
Q 384 513 384 1019 
Q 384 1609 779 1909 
Q 1175 2209 1959 2209 
L 2766 2209 
L 2766 2266 
Q 2766 2663 2505 2880 
Q 2244 3097 1772 3097 
Q 1472 3097 1187 3025 
Q 903 2953 641 2809 
L 641 3341 
Q 956 3463 1253 3523 
Q 1550 3584 1831 3584 
Q 2591 3584 2966 3190 
Q 3341 2797 3341 1997 
z
" transform="scale(0.015625)"/>
       <path id="DejaVuSans-69" d="M 603 3500 
L 1178 3500 
L 1178 0 
L 603 0 
L 603 3500 
z
M 603 4863 
L 1178 4863 
L 1178 4134 
L 603 4134 
L 603 4863 
z
" transform="scale(0.015625)"/>
       <path id="DejaVuSans-6e" d="M 3513 2113 
L 3513 0 
L 2938 0 
L 2938 2094 
Q 2938 2591 2744 2837 
Q 2550 3084 2163 3084 
Q 1697 3084 1428 2787 
Q 1159 2491 1159 1978 
L 1159 0 
L 581 0 
L 581 3500 
L 1159 3500 
L 1159 2956 
Q 1366 3272 1645 3428 
Q 1925 3584 2291 3584 
Q 2894 3584 3203 3211 
Q 3513 2838 3513 2113 
z
" transform="scale(0.015625)"/>
       <path id="DejaVuSans-20" transform="scale(0.015625)"/>
       <path id="DejaVuSans-5b" d="M 550 4863 
L 1875 4863 
L 1875 4416 
L 1125 4416 
L 1125 -397 
L 1875 -397 
L 1875 -844 
L 550 -844 
L 550 4863 
z
" transform="scale(0.015625)"/>
       <path id="DejaVuSans-6d" d="M 3328 2828 
Q 3544 3216 3844 3400 
Q 4144 3584 4550 3584 
Q 5097 3584 5394 3201 
Q 5691 2819 5691 2113 
L 5691 0 
L 5113 0 
L 5113 2094 
Q 5113 2597 4934 2840 
Q 4756 3084 4391 3084 
Q 3944 3084 3684 2787 
Q 3425 2491 3425 1978 
L 3425 0 
L 2847 0 
L 2847 2094 
Q 2847 2600 2669 2842 
Q 2491 3084 2119 3084 
Q 1678 3084 1418 2786 
Q 1159 2488 1159 1978 
L 1159 0 
L 581 0 
L 581 3500 
L 1159 3500 
L 1159 2956 
Q 1356 3278 1631 3431 
Q 1906 3584 2284 3584 
Q 2666 3584 2933 3390 
Q 3200 3197 3328 2828 
z
" transform="scale(0.015625)"/>
       <path id="DejaVuSans-5d" d="M 1947 4863 
L 1947 -844 
L 622 -844 
L 622 -397 
L 1369 -397 
L 1369 4416 
L 622 4416 
L 622 4863 
L 1947 4863 
z
" transform="scale(0.015625)"/>
      </defs>
      <use xlink:href="#DejaVuSans-52"/>
      <use xlink:href="#DejaVuSans-61" x="67.232422"/>
      <use xlink:href="#DejaVuSans-69" x="128.511719"/>
      <use xlink:href="#DejaVuSans-6e" x="156.294922"/>
      <use xlink:href="#DejaVuSans-20" x="219.673828"/>
      <use xlink:href="#DejaVuSans-5b" x="251.460938"/>
      <use xlink:href="#DejaVuSans-6d" x="290.474609"/>
      <use xlink:href="#DejaVuSans-6d" x="387.886719"/>
      <use xlink:href="#DejaVuSans-5d" x="485.298828"/>
     </g>
    </g>
   </g>
   <g id="line2d_21">
    <path d="M 50.925 213.069964 
L 76.772796 213.069964 
L 76.89882 211.79828 
L 77.078645 211.79828 
L 77.204768 211.162437 
L 77.546637 211.162437 
L 77.726636 209.890753 
L 77.870633 209.890753 
L 77.996765 209.254911 
L 78.014633 209.254911 
L 78.140748 208.619069 
L 78.230629 208.619069 
L 78.374627 207.983227 
L 78.57279 207.983227 
L 78.698623 207.347384 
L 79.166617 207.347384 
L 79.292622 206.711542 
L 80.138603 206.711542 
L 80.264765 206.0757 
L 81.002591 206.0757 
L 81.128728 205.439858 
L 81.45272 205.439858 
L 81.578585 204.804016 
L 83.108682 204.804016 
L 83.23457 204.168174 
L 84.818555 204.168174 
L 84.94472 203.532331 
L 86.168635 203.532331 
L 86.294547 202.896489 
L 90.81256 202.896489 
L 90.938491 202.260647 
L 91.478487 202.260647 
L 91.604631 201.624805 
L 92.180574 201.624805 
L 92.306475 200.988963 
L 92.972629 200.988963 
L 93.098466 200.35312 
L 93.962452 200.35312 
L 94.088538 199.717278 
L 94.466659 199.717278 
L 94.610448 199.081436 
L 95.006445 199.081436 
L 95.132584 198.445594 
L 95.33044 198.445594 
L 95.456563 197.809752 
L 95.672583 197.809752 
L 95.798437 197.17391 
L 96.212463 197.17391 
L 96.338429 196.538067 
L 96.698423 196.538067 
L 96.824569 195.902225 
L 96.968561 195.902225 
L 97.094418 195.266383 
L 97.166417 195.266383 
L 97.310413 194.630541 
L 97.418413 194.630541 
L 97.526631 193.994699 
L 97.634411 193.994699 
L 97.77841 193.358857 
L 97.904445 193.358857 
L 98.030409 192.723014 
L 98.084555 192.723014 
L 98.210597 192.087172 
L 98.246405 192.087172 
L 98.372531 191.45133 
L 98.390405 191.45133 
L 98.516545 190.815488 
L 98.534579 190.815488 
L 98.6784 190.179646 
L 98.7144 190.179646 
L 98.840558 189.543804 
L 98.984519 189.543804 
L 99.110396 188.907961 
L 99.254395 188.907961 
L 99.380521 188.272119 
L 99.452519 188.272119 
L 99.596434 187.000435 
L 99.722394 187.000435 
L 99.848508 186.364593 
L 99.866391 186.364593 
L 100.046392 185.092908 
L 100.118393 185.092908 
L 100.262389 183.821224 
L 100.352542 183.821224 
L 100.478388 183.185382 
L 100.532534 183.185382 
L 100.658386 182.54954 
L 100.67652 182.54954 
L 100.802385 181.913698 
L 100.820526 181.913698 
L 100.964455 180.642013 
L 101.036527 180.642013 
L 101.180542 179.370329 
L 101.270386 179.370329 
L 101.396525 178.734487 
L 101.432517 178.734487 
L 101.558381 178.098645 
L 101.612394 178.098645 
L 101.738378 177.462802 
L 101.756488 177.462802 
L 101.882377 176.82696 
L 101.918571 176.82696 
L 102.098374 175.555276 
L 102.278363 175.555276 
L 102.404485 174.919434 
L 102.422371 174.919434 
L 102.548508 174.283591 
L 102.584498 174.283591 
L 102.728489 173.011907 
L 102.800508 173.011907 
L 102.926576 172.376065 
L 103.106362 171.104381 
L 103.142361 171.104381 
L 103.286575 169.832696 
L 103.322359 169.832696 
L 103.466356 168.561012 
L 103.538356 168.561012 
L 103.682355 167.289328 
L 103.700453 167.289328 
L 103.862351 165.381801 
L 103.934351 165.381801 
L 104.114349 164.110117 
L 104.132458 164.110117 
L 104.258347 162.838432 
L 104.330347 162.838432 
L 104.474346 161.566748 
L 104.492472 161.566748 
L 104.618512 160.295064 
L 104.708478 160.295064 
L 104.870341 158.387537 
L 104.88845 158.387537 
L 105.050338 156.480011 
L 105.086339 156.480011 
L 105.230334 155.208326 
L 105.320328 155.208326 
L 105.46446 153.936642 
L 105.500485 153.936642 
L 105.62633 153.3008 
L 105.806332 152.029116 
L 105.842331 152.029116 
L 106.004338 150.121589 
L 106.130327 150.121589 
L 106.274326 148.849905 
L 106.346326 148.849905 
L 106.490324 147.57822 
L 106.526326 147.57822 
L 106.634488 146.942378 
L 106.688347 146.942378 
L 106.814323 146.306536 
L 106.832443 146.306536 
L 106.976408 145.034852 
L 107.04839 145.034852 
L 107.17432 144.399009 
L 107.228457 144.399009 
L 107.354314 143.763167 
L 107.372353 143.763167 
L 107.516469 142.491483 
L 107.606316 142.491483 
L 107.768436 140.583956 
L 107.840405 140.583956 
L 107.98443 139.312272 
L 108.00251 139.312272 
L 108.182313 138.040588 
L 108.236443 138.040588 
L 108.38033 136.768903 
L 108.434311 136.768903 
L 108.57831 135.497219 
L 108.614309 135.497219 
L 108.758309 134.225535 
L 108.812441 134.225535 
L 108.938309 132.95385 
L 108.99245 132.95385 
L 109.118307 132.318008 
L 109.13646 132.318008 
L 109.280443 131.046324 
L 109.406304 131.046324 
L 109.532425 130.410482 
L 109.586304 130.410482 
L 109.730304 129.138797 
L 109.784433 129.138797 
L 109.9103 128.502955 
L 109.9463 128.502955 
L 110.090299 127.231271 
L 110.180449 127.231271 
L 110.32442 125.959587 
L 110.486296 125.959587 
L 110.630296 124.687902 
L 110.702295 124.687902 
L 110.846296 124.05206 
L 110.864441 124.05206 
L 110.990293 123.416218 
L 111.152432 123.416218 
L 111.278291 122.780376 
L 111.368396 122.780376 
L 111.494287 122.144533 
L 111.65644 122.144533 
L 111.782285 121.508691 
L 111.818285 121.508691 
L 111.944411 120.872849 
L 111.980384 120.872849 
L 112.106282 120.237007 
L 115.778247 120.237007 
L 115.958242 118.965323 
L 116.066243 118.965323 
L 116.210242 117.693638 
L 116.336389 117.693638 
L 116.462472 117.057796 
L 116.606238 116.421954 
L 116.642238 116.421954 
L 116.768389 115.786112 
L 116.786237 115.786112 
L 116.930236 115.15027 
L 116.984352 115.15027 
L 117.110234 114.514427 
L 117.128389 114.514427 
L 117.254234 113.878585 
L 117.326232 113.878585 
L 117.452361 113.242743 
L 117.47023 113.242743 
L 117.650229 111.971059 
L 117.794228 111.971059 
L 117.938227 111.335217 
L 118.154391 111.335217 
L 118.298223 110.699374 
L 119.990207 110.699374 
L 120.116338 110.063532 
L 120.134204 110.063532 
L 120.260254 109.42769 
L 120.314205 109.42769 
L 120.440346 108.791848 
L 120.476322 108.791848 
L 120.6022 108.156006 
L 120.656305 108.156006 
L 120.800245 106.884321 
L 120.854384 106.884321 
L 120.998198 106.248479 
L 121.052335 106.248479 
L 121.178195 105.612637 
L 121.232209 105.612637 
L 121.358195 104.976795 
L 121.466191 104.976795 
L 121.592253 104.340953 
L 121.62833 104.340953 
L 121.754193 103.705111 
L 122.204269 103.705111 
L 122.330187 103.069268 
L 122.438185 103.069268 
L 122.546387 102.433426 
L 122.618185 102.433426 
L 122.762182 101.161742 
L 122.780315 101.161742 
L 122.960271 98.618373 
L 123.014178 98.618373 
L 123.158176 97.346689 
L 123.176331 97.346689 
L 123.320268 96.075004 
L 123.356271 96.075004 
L 123.482175 95.439162 
L 123.500331 95.439162 
L 123.680329 92.895794 
L 123.734173 92.895794 
L 123.896303 90.988267 
L 123.950169 90.988267 
L 124.076249 90.352425 
L 124.166167 90.352425 
L 124.310166 89.080741 
L 124.346167 89.080741 
L 124.472304 88.444898 
L 124.526163 88.444898 
L 124.652251 87.809056 
L 131.006114 87.809056 
L 131.150113 87.173214 
L 173.413819 87.173214 
L 173.539954 86.537372 
L 175.105808 86.537372 
L 175.231943 85.90153 
L 175.753805 85.90153 
L 175.879927 85.265688 
L 176.185802 85.265688 
L 176.311912 84.629845 
L 176.617798 84.629845 
L 176.743893 83.994003 
L 177.014006 83.994003 
L 177.157797 83.358161 
L 177.391824 83.358161 
L 177.517794 82.722319 
L 191.23374 82.722319 
L 191.35986 82.086477 
L 191.665739 82.086477 
L 191.791846 81.450635 
L 192.061736 81.450635 
L 192.187861 80.814792 
L 192.403883 80.814792 
L 192.529734 80.17895 
L 192.781731 80.17895 
L 192.907838 79.543108 
L 193.033732 79.543108 
L 193.159849 78.907266 
L 193.249729 78.907266 
L 193.375808 78.271424 
L 193.519875 78.271424 
L 193.645844 77.635582 
L 193.807865 77.635582 
L 193.933725 76.999739 
L 194.095835 76.999739 
L 194.221723 76.363897 
L 194.401722 76.363897 
L 194.527839 75.728055 
L 194.653721 75.728055 
L 194.797719 75.092213 
L 194.869717 75.092213 
L 194.995851 74.456371 
L 195.067787 74.456371 
L 195.211833 73.184686 
L 195.373711 73.184686 
L 195.517711 71.913002 
L 195.589712 71.913002 
L 195.73371 70.641318 
L 195.823839 70.641318 
L 195.967869 69.369633 
L 195.985707 69.369633 
L 196.129705 68.097949 
L 196.147835 68.097949 
L 196.327839 65.55458 
L 196.345702 65.55458 
L 196.813697 59.196159 
L 196.831838 59.196159 
L 197.011846 56.65279 
L 197.029693 56.65279 
L 197.281688 54.109421 
L 197.35369 54.109421 
L 197.497686 53.473579 
L 249.283283 53.473579 
L 249.409185 52.837737 
L 256.915213 52.837737 
L 257.041123 52.201895 
L 257.527269 52.201895 
L 257.653118 51.566053 
L 257.869115 51.566053 
L 257.99521 50.93021 
L 258.031259 50.93021 
L 258.175179 49.658526 
L 258.211227 49.658526 
L 258.355247 48.386842 
L 258.445311 48.386842 
L 258.661106 46.479315 
L 258.71525 46.479315 
L 258.859172 45.207631 
L 259.093106 45.207631 
L 259.237104 44.571789 
L 260.857089 44.571789 
L 260.983197 43.935947 
L 261.217087 43.935947 
L 261.343207 43.300104 
L 261.361084 43.300104 
L 261.469084 42.664262 
L 261.577084 42.664262 
L 261.703189 42.02842 
L 262.099189 42.02842 
L 262.225081 41.392578 
L 273.547034 41.392578 
L 273.673176 40.756736 
L 340.542594 40.756736 
L 340.668527 40.120893 
L 341.568523 40.120893 
L 341.694597 39.485051 
L 342.270621 39.485051 
L 342.396521 38.849209 
L 342.756519 38.849209 
L 342.900518 38.213367 
L 343.188518 38.213367 
L 343.314611 37.577525 
L 343.638603 37.577525 
L 343.764515 36.941683 
L 345.708506 36.941683 
L 345.816506 36.30584 
L 347.544702 36.30584 
L 347.670596 35.669998 
L 421.2 35.669998 
L 421.2 35.669998 
" clip-path="url(#p49747b65e5)" style="fill: none; stroke: #9467bd; stroke-width: 1.5; stroke-linecap: square"/>
   </g>
   <g id="patch_3">
    <path d="M 50.925 221.939962 
L 50.925 26.8 
" style="fill: none; stroke: #000000; stroke-width: 0.8; stroke-linejoin: miter; stroke-linecap: square"/>
   </g>
   <g id="patch_4">
    <path d="M 421.2 221.939962 
L 421.2 26.8 
" style="fill: none; stroke: #000000; stroke-width: 0.8; stroke-linejoin: miter; stroke-linecap: square"/>
   </g>
   <g id="patch_5">
    <path d="M 50.925 221.939962 
L 421.2 221.939962 
" style="fill: none; stroke: #000000; stroke-width: 0.8; stroke-linejoin: miter; stroke-linecap: square"/>
   </g>
   <g id="patch_6">
    <path d="M 50.925 26.8 
L 421.2 26.8 
" style="fill: none; stroke: #000000; stroke-width: 0.8; stroke-linejoin: miter; stroke-linecap: square"/>
   </g>
   <g id="text_12">
    <!-- November 2023 -->
    <g transform="translate(187.670625 20.8) scale(0.12 -0.12)">
     <defs>
      <path id="DejaVuSans-4e" d="M 628 4666 
L 1478 4666 
L 3547 763 
L 3547 4666 
L 4159 4666 
L 4159 0 
L 3309 0 
L 1241 3903 
L 1241 0 
L 628 0 
L 628 4666 
z
" transform="scale(0.015625)"/>
      <path id="DejaVuSans-6f" d="M 1959 3097 
Q 1497 3097 1228 2736 
Q 959 2375 959 1747 
Q 959 1119 1226 758 
Q 1494 397 1959 397 
Q 2419 397 2687 759 
Q 2956 1122 2956 1747 
Q 2956 2369 2687 2733 
Q 2419 3097 1959 3097 
z
M 1959 3584 
Q 2709 3584 3137 3096 
Q 3566 2609 3566 1747 
Q 3566 888 3137 398 
Q 2709 -91 1959 -91 
Q 1206 -91 779 398 
Q 353 888 353 1747 
Q 353 2609 779 3096 
Q 1206 3584 1959 3584 
z
" transform="scale(0.015625)"/>
      <path id="DejaVuSans-76" d="M 191 3500 
L 800 3500 
L 1894 563 
L 2988 3500 
L 3597 3500 
L 2284 0 
L 1503 0 
L 191 3500 
z
" transform="scale(0.015625)"/>
      <path id="DejaVuSans-65" d="M 3597 1894 
L 3597 1613 
L 953 1613 
Q 991 1019 1311 708 
Q 1631 397 2203 397 
Q 2534 397 2845 478 
Q 3156 559 3463 722 
L 3463 178 
Q 3153 47 2828 -22 
Q 2503 -91 2169 -91 
Q 1331 -91 842 396 
Q 353 884 353 1716 
Q 353 2575 817 3079 
Q 1281 3584 2069 3584 
Q 2775 3584 3186 3129 
Q 3597 2675 3597 1894 
z
M 3022 2063 
Q 3016 2534 2758 2815 
Q 2500 3097 2075 3097 
Q 1594 3097 1305 2825 
Q 1016 2553 972 2059 
L 3022 2063 
z
" transform="scale(0.015625)"/>
      <path id="DejaVuSans-62" d="M 3116 1747 
Q 3116 2381 2855 2742 
Q 2594 3103 2138 3103 
Q 1681 3103 1420 2742 
Q 1159 2381 1159 1747 
Q 1159 1113 1420 752 
Q 1681 391 2138 391 
Q 2594 391 2855 752 
Q 3116 1113 3116 1747 
z
M 1159 2969 
Q 1341 3281 1617 3432 
Q 1894 3584 2278 3584 
Q 2916 3584 3314 3078 
Q 3713 2572 3713 1747 
Q 3713 922 3314 415 
Q 2916 -91 2278 -91 
Q 1894 -91 1617 61 
Q 1341 213 1159 525 
L 1159 0 
L 581 0 
L 581 4863 
L 1159 4863 
L 1159 2969 
z
" transform="scale(0.015625)"/>
      <path id="DejaVuSans-72" d="M 2631 2963 
Q 2534 3019 2420 3045 
Q 2306 3072 2169 3072 
Q 1681 3072 1420 2755 
Q 1159 2438 1159 1844 
L 1159 0 
L 581 0 
L 581 3500 
L 1159 3500 
L 1159 2956 
Q 1341 3275 1631 3429 
Q 1922 3584 2338 3584 
Q 2397 3584 2469 3576 
Q 2541 3569 2628 3553 
L 2631 2963 
z
" transform="scale(0.015625)"/>
     </defs>
     <use xlink:href="#DejaVuSans-4e"/>
     <use xlink:href="#DejaVuSans-6f" x="74.804688"/>
     <use xlink:href="#DejaVuSans-76" x="135.986328"/>
     <use xlink:href="#DejaVuSans-65" x="195.166016"/>
     <use xlink:href="#DejaVuSans-6d" x="256.689453"/>
     <use xlink:href="#DejaVuSans-62" x="354.101562"/>
     <use xlink:href="#DejaVuSans-65" x="417.578125"/>
     <use xlink:href="#DejaVuSans-72" x="479.101562"/>
     <use xlink:href="#DejaVuSans-20" x="520.214844"/>
     <use xlink:href="#DejaVuSans-32" x="552.001953"/>
     <use xlink:href="#DejaVuSans-30" x="615.625"/>
     <use xlink:href="#DejaVuSans-32" x="679.248047"/>
     <use xlink:href="#DejaVuSans-33" x="742.871094"/>
    </g>
   </g>
  </g>
 </g>
 <defs>
  <clipPath id="p49747b65e5">
   <rect x="50.925" y="26.8" width="370.275" height="195.139962"/>
  </clipPath>
 </defs>
</svg>
