<?xml version="1.0" encoding="utf-8" standalone="no"?>
<!DOCTYPE svg PUBLIC "-//W3C//DTD SVG 1.1//EN"
  "http://www.w3.org/Graphics/SVG/1.1/DTD/svg11.dtd">
<svg xmlns:xlink="http://www.w3.org/1999/xlink" width="504pt" height="504pt" viewBox="0 0 504 504" xmlns="http://www.w3.org/2000/svg" version="1.1">
 <metadata>
  <rdf:RDF xmlns:dc="http://purl.org/dc/elements/1.1/" xmlns:cc="http://creativecommons.org/ns#" xmlns:rdf="http://www.w3.org/1999/02/22-rdf-syntax-ns#">
   <cc:Work>
    <dc:type rdf:resource="http://purl.org/dc/dcmitype/StillImage"/>
    <dc:date>2024-03-02T17:42:56.114794</dc:date>
    <dc:format>image/svg+xml</dc:format>
    <dc:creator>
     <cc:Agent>
      <dc:title>Matplotlib v3.6.3, https://matplotlib.org/</dc:title>
     </cc:Agent>
    </dc:creator>
   </cc:Work>
  </rdf:RDF>
 </metadata>
 <defs>
  <style type="text/css">*{stroke-linejoin: round; stroke-linecap: butt}</style>
 </defs>
 <g id="figure_1">
  <g id="patch_1">
   <path d="M 0 504 
L 504 504 
L 504 0 
L 0 0 
z
" style="fill: #ffffff"/>
  </g>
  <g id="axes_1">
   <g id="patch_2">
    <path d="M 51.05 158.493598 
L 489.64248 158.493598 
L 489.64248 32.4 
L 51.05 32.4 
z
" style="fill: #ffffff"/>
   </g>
   <g id="matplotlib.axis_1">
    <g id="xtick_1">
     <g id="line2d_1">
      <path d="M 93.066061 158.493598 
L 93.066061 32.4 
" clip-path="url(#pb10a3bb0a5)" style="fill: none; stroke: #b0b0b0; stroke-width: 0.8; stroke-linecap: square"/>
     </g>
     <g id="line2d_2">
      <defs>
       <path id="m687c581fd7" d="M 0 0 
L 0 3.5 
" style="stroke: #000000; stroke-width: 0.8"/>
      </defs>
      <g>
       <use xlink:href="#m687c581fd7" x="93.066061" y="158.493598" style="stroke: #000000; stroke-width: 0.8"/>
      </g>
     </g>
    </g>
    <g id="xtick_2">
     <g id="line2d_3">
      <path d="M 135.144352 158.493598 
L 135.144352 32.4 
" clip-path="url(#pb10a3bb0a5)" style="fill: none; stroke: #b0b0b0; stroke-width: 0.8; stroke-linecap: square"/>
     </g>
     <g id="line2d_4">
      <g>
       <use xlink:href="#m687c581fd7" x="135.144352" y="158.493598" style="stroke: #000000; stroke-width: 0.8"/>
      </g>
     </g>
    </g>
    <g id="xtick_3">
     <g id="line2d_5">
      <path d="M 177.222643 158.493598 
L 177.222643 32.4 
" clip-path="url(#pb10a3bb0a5)" style="fill: none; stroke: #b0b0b0; stroke-width: 0.8; stroke-linecap: square"/>
     </g>
     <g id="line2d_6">
      <g>
       <use xlink:href="#m687c581fd7" x="177.222643" y="158.493598" style="stroke: #000000; stroke-width: 0.8"/>
      </g>
     </g>
    </g>
    <g id="xtick_4">
     <g id="line2d_7">
      <path d="M 219.300933 158.493598 
L 219.300933 32.4 
" clip-path="url(#pb10a3bb0a5)" style="fill: none; stroke: #b0b0b0; stroke-width: 0.8; stroke-linecap: square"/>
     </g>
     <g id="line2d_8">
      <g>
       <use xlink:href="#m687c581fd7" x="219.300933" y="158.493598" style="stroke: #000000; stroke-width: 0.8"/>
      </g>
     </g>
    </g>
    <g id="xtick_5">
     <g id="line2d_9">
      <path d="M 261.379224 158.493598 
L 261.379224 32.4 
" clip-path="url(#pb10a3bb0a5)" style="fill: none; stroke: #b0b0b0; stroke-width: 0.8; stroke-linecap: square"/>
     </g>
     <g id="line2d_10">
      <g>
       <use xlink:href="#m687c581fd7" x="261.379224" y="158.493598" style="stroke: #000000; stroke-width: 0.8"/>
      </g>
     </g>
    </g>
    <g id="xtick_6">
     <g id="line2d_11">
      <path d="M 303.457515 158.493598 
L 303.457515 32.4 
" clip-path="url(#pb10a3bb0a5)" style="fill: none; stroke: #b0b0b0; stroke-width: 0.8; stroke-linecap: square"/>
     </g>
     <g id="line2d_12">
      <g>
       <use xlink:href="#m687c581fd7" x="303.457515" y="158.493598" style="stroke: #000000; stroke-width: 0.8"/>
      </g>
     </g>
    </g>
    <g id="xtick_7">
     <g id="line2d_13">
      <path d="M 345.535806 158.493598 
L 345.535806 32.4 
" clip-path="url(#pb10a3bb0a5)" style="fill: none; stroke: #b0b0b0; stroke-width: 0.8; stroke-linecap: square"/>
     </g>
     <g id="line2d_14">
      <g>
       <use xlink:href="#m687c581fd7" x="345.535806" y="158.493598" style="stroke: #000000; stroke-width: 0.8"/>
      </g>
     </g>
    </g>
    <g id="xtick_8">
     <g id="line2d_15">
      <path d="M 387.614096 158.493598 
L 387.614096 32.4 
" clip-path="url(#pb10a3bb0a5)" style="fill: none; stroke: #b0b0b0; stroke-width: 0.8; stroke-linecap: square"/>
     </g>
     <g id="line2d_16">
      <g>
       <use xlink:href="#m687c581fd7" x="387.614096" y="158.493598" style="stroke: #000000; stroke-width: 0.8"/>
      </g>
     </g>
    </g>
    <g id="xtick_9">
     <g id="line2d_17">
      <path d="M 429.692387 158.493598 
L 429.692387 32.4 
" clip-path="url(#pb10a3bb0a5)" style="fill: none; stroke: #b0b0b0; stroke-width: 0.8; stroke-linecap: square"/>
     </g>
     <g id="line2d_18">
      <g>
       <use xlink:href="#m687c581fd7" x="429.692387" y="158.493598" style="stroke: #000000; stroke-width: 0.8"/>
      </g>
     </g>
    </g>
    <g id="xtick_10">
     <g id="line2d_19">
      <path d="M 471.770678 158.493598 
L 471.770678 32.4 
" clip-path="url(#pb10a3bb0a5)" style="fill: none; stroke: #b0b0b0; stroke-width: 0.8; stroke-linecap: square"/>
     </g>
     <g id="line2d_20">
      <g>
       <use xlink:href="#m687c581fd7" x="471.770678" y="158.493598" style="stroke: #000000; stroke-width: 0.8"/>
      </g>
     </g>
    </g>
   </g>
   <g id="matplotlib.axis_2">
    <g id="ytick_1">
     <g id="line2d_21">
      <path d="M 51.05 155.627834 
L 489.64248 155.627834 
" clip-path="url(#pb10a3bb0a5)" style="fill: none; stroke: #b0b0b0; stroke-width: 0.8; stroke-linecap: square"/>
     </g>
     <g id="line2d_22">
      <defs>
       <path id="mf625ed02cf" d="M 0 0 
L -3.5 0 
" style="stroke: #000000; stroke-width: 0.8"/>
      </defs>
      <g>
       <use xlink:href="#mf625ed02cf" x="51.05" y="155.627834" style="stroke: #000000; stroke-width: 0.8"/>
      </g>
     </g>
     <g id="text_1">
      <!-- 4 -->
      <g transform="translate(37.6875 159.427053) scale(0.1 -0.1)">
       <defs>
        <path id="DejaVuSans-34" d="M 2419 4116 
L 825 1625 
L 2419 1625 
L 2419 4116 
z
M 2253 4666 
L 3047 4666 
L 3047 1625 
L 3713 1625 
L 3713 1100 
L 3047 1100 
L 3047 0 
L 2419 0 
L 2419 1100 
L 313 1100 
L 313 1709 
L 2253 4666 
z
" transform="scale(0.015625)"/>
       </defs>
       <use xlink:href="#DejaVuSans-34"/>
      </g>
     </g>
    </g>
    <g id="ytick_2">
     <g id="line2d_23">
      <path d="M 51.05 126.970198 
L 489.64248 126.970198 
" clip-path="url(#pb10a3bb0a5)" style="fill: none; stroke: #b0b0b0; stroke-width: 0.8; stroke-linecap: square"/>
     </g>
     <g id="line2d_24">
      <g>
       <use xlink:href="#mf625ed02cf" x="51.05" y="126.970198" style="stroke: #000000; stroke-width: 0.8"/>
      </g>
     </g>
     <g id="text_2">
      <!-- 5 -->
      <g transform="translate(37.6875 130.769417) scale(0.1 -0.1)">
       <defs>
        <path id="DejaVuSans-35" d="M 691 4666 
L 3169 4666 
L 3169 4134 
L 1269 4134 
L 1269 2991 
Q 1406 3038 1543 3061 
Q 1681 3084 1819 3084 
Q 2600 3084 3056 2656 
Q 3513 2228 3513 1497 
Q 3513 744 3044 326 
Q 2575 -91 1722 -91 
Q 1428 -91 1123 -41 
Q 819 9 494 109 
L 494 744 
Q 775 591 1075 516 
Q 1375 441 1709 441 
Q 2250 441 2565 725 
Q 2881 1009 2881 1497 
Q 2881 1984 2565 2268 
Q 2250 2553 1709 2553 
Q 1456 2553 1204 2497 
Q 953 2441 691 2322 
L 691 4666 
z
" transform="scale(0.015625)"/>
       </defs>
       <use xlink:href="#DejaVuSans-35"/>
      </g>
     </g>
    </g>
    <g id="ytick_3">
     <g id="line2d_25">
      <path d="M 51.05 98.312563 
L 489.64248 98.312563 
" clip-path="url(#pb10a3bb0a5)" style="fill: none; stroke: #b0b0b0; stroke-width: 0.8; stroke-linecap: square"/>
     </g>
     <g id="line2d_26">
      <g>
       <use xlink:href="#mf625ed02cf" x="51.05" y="98.312563" style="stroke: #000000; stroke-width: 0.8"/>
      </g>
     </g>
     <g id="text_3">
      <!-- 6 -->
      <g transform="translate(37.6875 102.111781) scale(0.1 -0.1)">
       <defs>
        <path id="DejaVuSans-36" d="M 2113 2584 
Q 1688 2584 1439 2293 
Q 1191 2003 1191 1497 
Q 1191 994 1439 701 
Q 1688 409 2113 409 
Q 2538 409 2786 701 
Q 3034 994 3034 1497 
Q 3034 2003 2786 2293 
Q 2538 2584 2113 2584 
z
M 3366 4563 
L 3366 3988 
Q 3128 4100 2886 4159 
Q 2644 4219 2406 4219 
Q 1781 4219 1451 3797 
Q 1122 3375 1075 2522 
Q 1259 2794 1537 2939 
Q 1816 3084 2150 3084 
Q 2853 3084 3261 2657 
Q 3669 2231 3669 1497 
Q 3669 778 3244 343 
Q 2819 -91 2113 -91 
Q 1303 -91 875 529 
Q 447 1150 447 2328 
Q 447 3434 972 4092 
Q 1497 4750 2381 4750 
Q 2619 4750 2861 4703 
Q 3103 4656 3366 4563 
z
" transform="scale(0.015625)"/>
       </defs>
       <use xlink:href="#DejaVuSans-36"/>
      </g>
     </g>
    </g>
    <g id="ytick_4">
     <g id="line2d_27">
      <path d="M 51.05 69.654927 
L 489.64248 69.654927 
" clip-path="url(#pb10a3bb0a5)" style="fill: none; stroke: #b0b0b0; stroke-width: 0.8; stroke-linecap: square"/>
     </g>
     <g id="line2d_28">
      <g>
       <use xlink:href="#mf625ed02cf" x="51.05" y="69.654927" style="stroke: #000000; stroke-width: 0.8"/>
      </g>
     </g>
     <g id="text_4">
      <!-- 7 -->
      <g transform="translate(37.6875 73.454145) scale(0.1 -0.1)">
       <defs>
        <path id="DejaVuSans-37" d="M 525 4666 
L 3525 4666 
L 3525 4397 
L 1831 0 
L 1172 0 
L 2766 4134 
L 525 4134 
L 525 4666 
z
" transform="scale(0.015625)"/>
       </defs>
       <use xlink:href="#DejaVuSans-37"/>
      </g>
     </g>
    </g>
    <g id="ytick_5">
     <g id="line2d_29">
      <path d="M 51.05 40.997291 
L 489.64248 40.997291 
" clip-path="url(#pb10a3bb0a5)" style="fill: none; stroke: #b0b0b0; stroke-width: 0.8; stroke-linecap: square"/>
     </g>
     <g id="line2d_30">
      <g>
       <use xlink:href="#mf625ed02cf" x="51.05" y="40.997291" style="stroke: #000000; stroke-width: 0.8"/>
      </g>
     </g>
     <g id="text_5">
      <!-- 8 -->
      <g transform="translate(37.6875 44.79651) scale(0.1 -0.1)">
       <defs>
        <path id="DejaVuSans-38" d="M 2034 2216 
Q 1584 2216 1326 1975 
Q 1069 1734 1069 1313 
Q 1069 891 1326 650 
Q 1584 409 2034 409 
Q 2484 409 2743 651 
Q 3003 894 3003 1313 
Q 3003 1734 2745 1975 
Q 2488 2216 2034 2216 
z
M 1403 2484 
Q 997 2584 770 2862 
Q 544 3141 544 3541 
Q 544 4100 942 4425 
Q 1341 4750 2034 4750 
Q 2731 4750 3128 4425 
Q 3525 4100 3525 3541 
Q 3525 3141 3298 2862 
Q 3072 2584 2669 2484 
Q 3125 2378 3379 2068 
Q 3634 1759 3634 1313 
Q 3634 634 3220 271 
Q 2806 -91 2034 -91 
Q 1263 -91 848 271 
Q 434 634 434 1313 
Q 434 1759 690 2068 
Q 947 2378 1403 2484 
z
M 1172 3481 
Q 1172 3119 1398 2916 
Q 1625 2713 2034 2713 
Q 2441 2713 2670 2916 
Q 2900 3119 2900 3481 
Q 2900 3844 2670 4047 
Q 2441 4250 2034 4250 
Q 1625 4250 1398 4047 
Q 1172 3844 1172 3481 
z
" transform="scale(0.015625)"/>
       </defs>
       <use xlink:href="#DejaVuSans-38"/>
      </g>
     </g>
    </g>
    <g id="text_6">
     <!-- Temperature [°C] -->
     <g transform="translate(31.607813 138.598361) rotate(-90) scale(0.1 -0.1)">
      <defs>
       <path id="DejaVuSans-54" d="M -19 4666 
L 3928 4666 
L 3928 4134 
L 2272 4134 
L 2272 0 
L 1638 0 
L 1638 4134 
L -19 4134 
L -19 4666 
z
" transform="scale(0.015625)"/>
       <path id="DejaVuSans-65" d="M 3597 1894 
L 3597 1613 
L 953 1613 
Q 991 1019 1311 708 
Q 1631 397 2203 397 
Q 2534 397 2845 478 
Q 3156 559 3463 722 
L 3463 178 
Q 3153 47 2828 -22 
Q 2503 -91 2169 -91 
Q 1331 -91 842 396 
Q 353 884 353 1716 
Q 353 2575 817 3079 
Q 1281 3584 2069 3584 
Q 2775 3584 3186 3129 
Q 3597 2675 3597 1894 
z
M 3022 2063 
Q 3016 2534 2758 2815 
Q 2500 3097 2075 3097 
Q 1594 3097 1305 2825 
Q 1016 2553 972 2059 
L 3022 2063 
z
" transform="scale(0.015625)"/>
       <path id="DejaVuSans-6d" d="M 3328 2828 
Q 3544 3216 3844 3400 
Q 4144 3584 4550 3584 
Q 5097 3584 5394 3201 
Q 5691 2819 5691 2113 
L 5691 0 
L 5113 0 
L 5113 2094 
Q 5113 2597 4934 2840 
Q 4756 3084 4391 3084 
Q 3944 3084 3684 2787 
Q 3425 2491 3425 1978 
L 3425 0 
L 2847 0 
L 2847 2094 
Q 2847 2600 2669 2842 
Q 2491 3084 2119 3084 
Q 1678 3084 1418 2786 
Q 1159 2488 1159 1978 
L 1159 0 
L 581 0 
L 581 3500 
L 1159 3500 
L 1159 2956 
Q 1356 3278 1631 3431 
Q 1906 3584 2284 3584 
Q 2666 3584 2933 3390 
Q 3200 3197 3328 2828 
z
" transform="scale(0.015625)"/>
       <path id="DejaVuSans-70" d="M 1159 525 
L 1159 -1331 
L 581 -1331 
L 581 3500 
L 1159 3500 
L 1159 2969 
Q 1341 3281 1617 3432 
Q 1894 3584 2278 3584 
Q 2916 3584 3314 3078 
Q 3713 2572 3713 1747 
Q 3713 922 3314 415 
Q 2916 -91 2278 -91 
Q 1894 -91 1617 61 
Q 1341 213 1159 525 
z
M 3116 1747 
Q 3116 2381 2855 2742 
Q 2594 3103 2138 3103 
Q 1681 3103 1420 2742 
Q 1159 2381 1159 1747 
Q 1159 1113 1420 752 
Q 1681 391 2138 391 
Q 2594 391 2855 752 
Q 3116 1113 3116 1747 
z
" transform="scale(0.015625)"/>
       <path id="DejaVuSans-72" d="M 2631 2963 
Q 2534 3019 2420 3045 
Q 2306 3072 2169 3072 
Q 1681 3072 1420 2755 
Q 1159 2438 1159 1844 
L 1159 0 
L 581 0 
L 581 3500 
L 1159 3500 
L 1159 2956 
Q 1341 3275 1631 3429 
Q 1922 3584 2338 3584 
Q 2397 3584 2469 3576 
Q 2541 3569 2628 3553 
L 2631 2963 
z
" transform="scale(0.015625)"/>
       <path id="DejaVuSans-61" d="M 2194 1759 
Q 1497 1759 1228 1600 
Q 959 1441 959 1056 
Q 959 750 1161 570 
Q 1363 391 1709 391 
Q 2188 391 2477 730 
Q 2766 1069 2766 1631 
L 2766 1759 
L 2194 1759 
z
M 3341 1997 
L 3341 0 
L 2766 0 
L 2766 531 
Q 2569 213 2275 61 
Q 1981 -91 1556 -91 
Q 1019 -91 701 211 
Q 384 513 384 1019 
Q 384 1609 779 1909 
Q 1175 2209 1959 2209 
L 2766 2209 
L 2766 2266 
Q 2766 2663 2505 2880 
Q 2244 3097 1772 3097 
Q 1472 3097 1187 3025 
Q 903 2953 641 2809 
L 641 3341 
Q 956 3463 1253 3523 
Q 1550 3584 1831 3584 
Q 2591 3584 2966 3190 
Q 3341 2797 3341 1997 
z
" transform="scale(0.015625)"/>
       <path id="DejaVuSans-74" d="M 1172 4494 
L 1172 3500 
L 2356 3500 
L 2356 3053 
L 1172 3053 
L 1172 1153 
Q 1172 725 1289 603 
Q 1406 481 1766 481 
L 2356 481 
L 2356 0 
L 1766 0 
Q 1100 0 847 248 
Q 594 497 594 1153 
L 594 3053 
L 172 3053 
L 172 3500 
L 594 3500 
L 594 4494 
L 1172 4494 
z
" transform="scale(0.015625)"/>
       <path id="DejaVuSans-75" d="M 544 1381 
L 544 3500 
L 1119 3500 
L 1119 1403 
Q 1119 906 1312 657 
Q 1506 409 1894 409 
Q 2359 409 2629 706 
Q 2900 1003 2900 1516 
L 2900 3500 
L 3475 3500 
L 3475 0 
L 2900 0 
L 2900 538 
Q 2691 219 2414 64 
Q 2138 -91 1772 -91 
Q 1169 -91 856 284 
Q 544 659 544 1381 
z
M 1991 3584 
L 1991 3584 
z
" transform="scale(0.015625)"/>
       <path id="DejaVuSans-20" transform="scale(0.015625)"/>
       <path id="DejaVuSans-5b" d="M 550 4863 
L 1875 4863 
L 1875 4416 
L 1125 4416 
L 1125 -397 
L 1875 -397 
L 1875 -844 
L 550 -844 
L 550 4863 
z
" transform="scale(0.015625)"/>
       <path id="DejaVuSans-b0" d="M 1600 4347 
Q 1350 4347 1178 4173 
Q 1006 4000 1006 3750 
Q 1006 3503 1178 3333 
Q 1350 3163 1600 3163 
Q 1850 3163 2022 3333 
Q 2194 3503 2194 3750 
Q 2194 3997 2020 4172 
Q 1847 4347 1600 4347 
z
M 1600 4750 
Q 1800 4750 1984 4673 
Q 2169 4597 2303 4453 
Q 2447 4313 2519 4134 
Q 2591 3956 2591 3750 
Q 2591 3338 2302 3052 
Q 2013 2766 1594 2766 
Q 1172 2766 890 3047 
Q 609 3328 609 3750 
Q 609 4169 896 4459 
Q 1184 4750 1600 4750 
z
" transform="scale(0.015625)"/>
       <path id="DejaVuSans-43" d="M 4122 4306 
L 4122 3641 
Q 3803 3938 3442 4084 
Q 3081 4231 2675 4231 
Q 1875 4231 1450 3742 
Q 1025 3253 1025 2328 
Q 1025 1406 1450 917 
Q 1875 428 2675 428 
Q 3081 428 3442 575 
Q 3803 722 4122 1019 
L 4122 359 
Q 3791 134 3420 21 
Q 3050 -91 2638 -91 
Q 1578 -91 968 557 
Q 359 1206 359 2328 
Q 359 3453 968 4101 
Q 1578 4750 2638 4750 
Q 3056 4750 3426 4639 
Q 3797 4528 4122 4306 
z
" transform="scale(0.015625)"/>
       <path id="DejaVuSans-5d" d="M 1947 4863 
L 1947 -844 
L 622 -844 
L 622 -397 
L 1369 -397 
L 1369 4416 
L 622 4416 
L 622 4863 
L 1947 4863 
z
" transform="scale(0.015625)"/>
      </defs>
      <use xlink:href="#DejaVuSans-54"/>
      <use xlink:href="#DejaVuSans-65" x="44.083984"/>
      <use xlink:href="#DejaVuSans-6d" x="105.607422"/>
      <use xlink:href="#DejaVuSans-70" x="203.019531"/>
      <use xlink:href="#DejaVuSans-65" x="266.496094"/>
      <use xlink:href="#DejaVuSans-72" x="328.019531"/>
      <use xlink:href="#DejaVuSans-61" x="369.132812"/>
      <use xlink:href="#DejaVuSans-74" x="430.412109"/>
      <use xlink:href="#DejaVuSans-75" x="469.621094"/>
      <use xlink:href="#DejaVuSans-72" x="533"/>
      <use xlink:href="#DejaVuSans-65" x="571.863281"/>
      <use xlink:href="#DejaVuSans-20" x="633.386719"/>
      <use xlink:href="#DejaVuSans-5b" x="665.173828"/>
      <use xlink:href="#DejaVuSans-b0" x="704.1875"/>
      <use xlink:href="#DejaVuSans-43" x="754.1875"/>
      <use xlink:href="#DejaVuSans-5d" x="824.011719"/>
     </g>
    </g>
   </g>
   <g id="line2d_31">
    <path d="M 51.05 118.372908 
L 52.733105 118.372908 
L 52.874001 115.507144 
L 55.257757 115.507144 
L 55.398689 118.372908 
L 57.081709 118.372908 
L 57.221409 121.238671 
L 58.48451 121.238671 
L 58.624015 118.372908 
L 59.045559 118.372908 
L 59.186051 115.507144 
L 59.46558 118.372908 
L 60.026631 118.372908 
L 60.167602 121.238671 
L 60.868197 121.238671 
L 61.00925 118.372908 
L 62.2708 118.372908 
L 62.411858 121.238671 
L 62.973021 121.238671 
L 63.11235 124.104435 
L 64.51608 124.104435 
L 64.65523 126.970198 
L 65.216973 126.970198 
L 65.356509 129.835962 
L 65.778135 129.835962 
L 65.917553 132.701726 
L 68.863825 132.701726 
L 69.003259 129.835962 
L 69.424726 129.835962 
L 69.564308 126.970198 
L 70.546765 126.970198 
L 70.686388 124.104435 
L 71.107861 124.104435 
L 71.247421 126.970198 
L 71.388341 126.970198 
L 71.527926 124.104435 
L 71.949494 124.104435 
L 72.088983 126.970198 
L 73.21106 126.970198 
L 73.352019 129.835962 
L 73.913064 129.835962 
L 74.052618 126.970198 
L 74.333144 126.970198 
L 74.474024 124.104435 
L 74.754688 124.104435 
L 74.894171 121.238671 
L 75.876806 121.238671 
L 76.016251 124.104435 
L 77.418837 124.104435 
L 77.559832 121.238671 
L 78.401444 121.238671 
L 78.540922 118.372908 
L 79.242852 118.372908 
L 79.382484 115.507144 
L 79.523449 115.507144 
L 79.663002 112.641381 
L 80.225423 112.641381 
L 80.504559 115.507144 
L 80.78508 115.507144 
L 80.926051 118.372908 
L 81.346122 118.372908 
L 81.487141 121.238671 
L 82.048203 121.238671 
L 82.187672 124.104435 
L 83.590272 124.104435 
L 83.73138 126.970198 
L 84.292252 126.970198 
L 84.431843 129.835962 
L 84.572869 129.835962 
L 84.712355 132.701726 
L 85.134007 132.701726 
L 85.273391 129.835962 
L 86.675984 129.835962 
L 86.817089 126.970198 
L 87.517555 126.970198 
L 87.658529 129.835962 
L 89.061047 129.835962 
L 89.200659 126.970198 
L 91.024025 126.970198 
L 91.164292 124.104435 
L 91.866374 124.104435 
L 92.005855 121.238671 
L 93.127929 121.238671 
L 93.269005 124.104435 
L 94.391097 124.104435 
L 94.530533 126.970198 
L 96.214865 126.970198 
L 96.354003 124.104435 
L 96.63505 124.104435 
L 96.774685 121.238671 
L 97.055203 121.238671 
L 97.196186 118.372908 
L 99.860396 118.372908 
L 100.001364 115.507144 
L 100.842948 115.507144 
L 100.982481 112.641381 
L 102.245583 112.641381 
L 102.385078 109.775617 
L 102.526068 109.775617 
L 102.665598 112.641381 
L 102.806513 112.641381 
L 102.946122 109.775617 
L 103.367529 109.775617 
L 103.507158 106.909853 
L 103.92867 106.909853 
L 104.069132 104.04409 
L 104.208426 104.04409 
L 104.348704 101.178326 
L 106.873392 101.178326 
L 107.013991 104.04409 
L 107.15391 104.04409 
L 107.29483 106.909853 
L 107.995468 106.909853 
L 108.136361 109.775617 
L 108.275991 109.775617 
L 108.416868 106.909853 
L 109.399355 106.909853 
L 109.538408 109.775617 
L 110.239629 109.775617 
L 110.380489 112.641381 
L 110.520138 112.641381 
L 110.661058 115.507144 
L 110.941597 115.507144 
L 111.081191 118.372908 
L 111.502613 118.372908 
L 111.642228 121.238671 
L 111.923641 121.238671 
L 112.203253 124.104435 
L 112.764302 124.104435 
L 112.905248 126.970198 
L 113.605868 126.970198 
L 113.746803 129.835962 
L 115.008461 129.835962 
L 115.149408 132.701726 
L 120.759735 132.701726 
L 120.899353 135.567489 
L 121.881746 135.567489 
L 122.021425 138.433253 
L 123.003842 138.433253 
L 123.143526 141.299016 
L 127.4921 141.299016 
L 127.631823 138.433253 
L 129.175354 138.433253 
L 129.314939 135.567489 
L 130.717545 135.567489 
L 130.858343 132.701726 
L 131.139092 132.701726 
L 131.278581 129.835962 
L 131.559108 129.835962 
L 131.700081 126.970198 
L 132.400677 126.970198 
L 132.541434 124.104435 
L 132.961684 124.104435 
L 133.242196 121.238671 
L 133.522749 121.238671 
L 133.663789 118.372908 
L 134.224554 118.372908 
L 134.364303 115.507144 
L 135.486396 115.507144 
L 135.767895 118.372908 
L 135.907186 118.372908 
L 136.047426 121.238671 
L 136.188326 121.238671 
L 136.327941 124.104435 
L 136.608459 124.104435 
L 136.749304 126.970198 
L 137.310465 126.970198 
L 137.450028 129.835962 
L 138.01106 129.835962 
L 138.151935 132.701726 
L 142.499387 132.701726 
L 142.640252 129.835962 
L 142.779905 129.835962 
L 142.92082 132.701726 
L 143.201361 132.701726 
L 143.340941 129.835962 
L 146.146121 129.835962 
L 146.42659 126.970198 
L 146.987687 126.970198 
L 147.128574 124.104435 
L 147.54873 124.104435 
L 147.689566 121.238671 
L 148.109776 121.238671 
L 148.250499 118.372908 
L 150.073408 118.372908 
L 150.214244 115.507144 
L 150.91498 115.507144 
L 151.055802 112.641381 
L 151.336426 112.641381 
L 151.477186 109.775617 
L 152.317584 109.775617 
L 152.458429 106.909853 
L 157.08638 106.909853 
L 157.227099 104.04409 
L 157.647416 104.04409 
L 157.788234 101.178326 
L 158.488974 101.178326 
L 158.629853 98.312563 
L 159.050015 98.312563 
L 159.190802 95.446799 
L 160.312931 95.446799 
L 160.452619 92.581035 
L 160.733134 92.581035 
L 160.873921 89.715272 
L 161.013652 89.715272 
L 161.154573 86.849508 
L 161.574688 86.849508 
L 161.715562 83.983745 
L 162.557099 83.983745 
L 162.696754 81.117981 
L 163.25779 81.117981 
L 163.398559 78.252217 
L 164.661519 78.252217 
L 164.940923 75.386454 
L 165.642717 75.386454 
L 165.782461 72.52069 
L 166.484477 72.52069 
L 166.624012 69.654927 
L 168.587653 69.654927 
L 168.728358 66.789163 
L 169.429213 66.789163 
L 169.570043 63.923399 
L 169.991347 63.923399 
L 170.270755 61.057636 
L 170.551282 61.057636 
L 170.69217 58.191872 
L 171.392851 58.191872 
L 171.533698 55.326109 
L 172.935912 55.326109 
L 173.075956 58.191872 
L 175.039588 58.191872 
L 175.180389 55.326109 
L 175.321243 55.326109 
L 175.460337 52.460345 
L 175.881145 52.460345 
L 176.022049 49.594582 
L 176.863635 49.594582 
L 177.003217 46.728818 
L 177.424763 46.728818 
L 177.564256 43.863054 
L 177.845969 43.863054 
L 178.1253 40.997291 
L 178.405836 40.997291 
L 178.546742 38.131527 
L 179.388214 38.131527 
L 179.527896 40.997291 
L 181.071355 40.997291 
L 181.210995 43.863054 
L 181.491519 43.863054 
L 181.63237 46.728818 
L 182.193534 46.728818 
L 182.333075 49.594582 
L 183.175787 49.594582 
L 183.455159 52.460345 
L 184.296713 52.460345 
L 184.43752 55.326109 
L 184.857744 55.326109 
L 184.998565 58.191872 
L 185.418776 58.191872 
L 185.559782 61.057636 
L 186.120304 61.057636 
L 186.260327 63.923399 
L 187.101881 63.923399 
L 187.242814 66.789163 
L 188.223956 66.789163 
L 188.364818 69.654927 
L 189.065539 69.654927 
L 189.206375 72.52069 
L 189.907085 72.52069 
L 190.047962 75.386454 
L 190.609068 75.386454 
L 190.748633 78.252217 
L 190.889548 75.386454 
L 191.030416 78.252217 
L 191.450292 78.252217 
L 191.59021 81.117981 
L 192.853139 81.117981 
L 192.992788 83.983745 
L 194.816879 83.983745 
L 194.956438 86.849508 
L 195.236954 86.849508 
L 195.377781 83.983745 
L 196.920064 83.983745 
L 197.200591 86.849508 
L 197.341375 83.983745 
L 197.902566 83.983745 
L 198.042139 81.117981 
L 198.744064 81.117981 
L 198.883685 78.252217 
L 201.829106 78.252217 
L 201.969403 75.386454 
L 202.530436 75.386454 
L 202.671462 72.52069 
L 202.810948 75.386454 
L 202.951866 72.52069 
L 203.092623 75.386454 
L 204.91549 75.386454 
L 205.055102 72.52069 
L 209.403763 72.52069 
L 209.544649 75.386454 
L 209.96465 75.386454 
L 210.104452 72.52069 
L 211.928396 72.52069 
L 212.068078 75.386454 
L 212.769965 75.386454 
L 212.909646 78.252217 
L 214.733414 78.252217 
L 214.874408 81.117981 
L 215.434304 81.117981 
L 215.575125 83.983745 
L 217.258382 83.983745 
L 217.397947 86.849508 
L 218.800531 86.849508 
L 218.94132 89.715272 
L 219.081066 86.849508 
L 219.221917 86.849508 
L 219.361573 89.715272 
L 219.502278 86.849508 
L 219.642086 89.715272 
L 220.204106 89.715272 
L 220.343461 92.581035 
L 220.905072 92.581035 
L 221.044678 95.446799 
L 222.728979 95.446799 
L 223.008325 98.312563 
L 226.935581 98.312563 
L 227.076402 101.178326 
L 230.582349 101.178326 
L 230.86285 98.312563 
L 234.369871 98.312563 
L 234.509616 101.178326 
L 237.595323 101.178326 
L 237.736271 104.04409 
L 238.297201 104.04409 
L 238.436872 106.909853 
L 238.857837 106.909853 
L 238.997925 109.775617 
L 239.558964 109.775617 
L 239.699879 112.641381 
L 240.40051 112.641381 
L 240.541389 115.507144 
L 245.871204 115.507144 
L 246.010894 118.372908 
L 246.291424 118.372908 
L 246.573097 121.238671 
L 247.273695 121.238671 
L 247.413502 124.104435 
L 251.340784 124.104435 
L 251.481623 126.970198 
L 252.743374 126.970198 
L 252.884228 129.835962 
L 253.023889 129.835962 
L 253.164895 126.970198 
L 253.304407 129.835962 
L 254.427613 129.835962 
L 254.707015 132.701726 
L 258.073241 132.701726 
L 258.214147 135.567489 
L 258.353751 135.567489 
L 258.494499 132.701726 
L 261.158972 132.701726 
L 261.299702 135.567489 
L 262.561541 135.567489 
L 262.702219 132.701726 
L 266.910034 132.701726 
L 267.049867 135.567489 
L 269.013514 135.567489 
L 269.154131 138.433253 
L 282.338957 138.433253 
L 282.478448 141.299016 
L 287.38787 141.299016 
L 287.527806 144.16478 
L 288.930408 144.16478 
L 289.07101 141.299016 
L 290.193182 141.299016 
L 290.333004 144.16478 
L 290.894046 144.16478 
L 291.034882 141.299016 
L 295.242978 141.299016 
L 295.382347 144.16478 
L 296.925412 144.16478 
L 297.065467 147.030544 
L 306.322618 147.030544 
L 306.463553 144.16478 
L 308.00574 144.16478 
L 308.146427 147.030544 
L 308.98825 147.030544 
L 309.127812 144.16478 
L 312.213539 144.16478 
L 312.354241 147.030544 
L 314.037498 147.030544 
L 314.177168 144.16478 
L 322.453062 144.16478 
L 322.592781 141.299016 
L 324.556429 141.299016 
L 324.697116 144.16478 
L 326.800557 144.16478 
L 326.94132 147.030544 
L 327.782903 147.030544 
L 327.922643 144.16478 
L 329.04473 144.16478 
L 329.185449 147.030544 
L 329.746671 147.030544 
L 329.886289 144.16478 
L 331.710232 144.16478 
L 331.849932 147.030544 
L 332.130432 147.030544 
L 332.2714 144.16478 
L 336.339307 144.16478 
L 336.478547 147.030544 
L 343.631752 147.030544 
L 343.772529 144.16478 
L 344.193962 144.16478 
L 344.473326 147.030544 
L 344.753821 147.030544 
L 344.894684 144.16478 
L 345.034348 147.030544 
L 348.260848 147.030544 
L 348.400583 149.896307 
L 352.888919 149.896307 
L 353.029676 147.030544 
L 356.115567 147.030544 
L 356.255141 149.896307 
L 362.70829 149.896307 
L 362.847328 147.030544 
L 366.353857 147.030544 
L 366.49472 149.896307 
L 370.982904 149.896307 
L 371.122695 152.762071 
L 371.824453 152.762071 
L 371.964246 149.896307 
L 373.92789 149.896307 
L 374.068583 152.762071 
L 381.361728 152.762071 
L 381.50193 149.896307 
L 384.167299 149.896307 
L 384.307127 147.030544 
L 386.270755 147.030544 
L 386.552229 144.16478 
L 387.253236 144.16478 
L 387.392836 141.299016 
L 389.636997 141.299016 
L 389.777646 138.433253 
L 390.338926 138.433253 
L 390.478557 135.567489 
L 390.759067 135.567489 
L 390.899979 132.701726 
L 391.180596 132.701726 
L 391.320129 129.835962 
L 391.600647 129.835962 
L 391.881135 126.970198 
L 392.161694 126.970198 
L 392.302537 124.104435 
L 392.583227 124.104435 
L 392.722725 121.238671 
L 393.705324 121.238671 
L 393.844789 124.104435 
L 395.808439 124.104435 
L 395.949162 126.970198 
L 396.931759 126.970198 
L 397.211033 124.104435 
L 397.632469 124.104435 
L 397.772083 121.238671 
L 400.577265 121.238671 
L 400.718113 118.372908 
L 401.418827 118.372908 
L 401.559777 121.238671 
L 402.54089 121.238671 
L 402.681677 124.104435 
L 403.382459 124.104435 
L 403.523342 121.238671 
L 404.364896 121.238671 
L 404.504537 118.372908 
L 404.645385 121.238671 
L 405.767373 121.238671 
L 405.907134 118.372908 
L 406.748703 118.372908 
L 406.889536 115.507144 
L 407.450538 115.507144 
L 407.591482 112.641381 
L 408.151288 112.641381 
L 408.292142 109.775617 
L 408.853046 109.775617 
L 408.992845 106.909853 
L 409.694635 106.909853 
L 409.834405 104.04409 
L 410.116007 104.04409 
L 410.395435 101.178326 
L 410.536084 101.178326 
L 410.675961 98.312563 
L 411.377704 98.312563 
L 411.517515 95.446799 
L 412.639589 95.446799 
L 412.921338 92.581035 
L 413.200628 92.581035 
L 413.341224 95.446799 
L 413.6219 95.446799 
L 413.761678 98.312563 
L 414.322709 98.312563 
L 414.463486 101.178326 
L 418.390484 101.178326 
L 418.5305 104.04409 
L 419.092561 104.04409 
L 419.23243 101.178326 
L 420.073908 101.178326 
L 420.213613 98.312563 
L 420.494146 98.312563 
L 420.634947 101.178326 
L 420.914912 101.178326 
L 421.055167 104.04409 
L 421.476454 104.04409 
L 421.616211 106.909853 
L 423.159495 106.909853 
L 423.300539 109.775617 
L 423.720484 109.775617 
L 423.860365 106.909853 
L 425.123025 106.909853 
L 425.262952 104.04409 
L 425.824009 104.04409 
L 426.105546 101.178326 
L 426.525752 101.178326 
L 426.665554 98.312563 
L 427.086639 98.312563 
L 427.226596 95.446799 
L 427.367251 95.446799 
L 427.507129 92.581035 
L 427.787635 92.581035 
L 427.928471 89.715272 
L 428.208995 89.715272 
L 428.348668 86.849508 
L 428.630416 86.849508 
L 428.909707 89.715272 
L 429.05045 86.849508 
L 429.752305 86.849508 
L 429.891974 83.983745 
L 430.17275 83.983745 
L 430.312303 86.849508 
L 431.154912 86.849508 
L 431.434315 89.715272 
L 431.574887 89.715272 
L 431.714896 92.581035 
L 432.275938 92.581035 
L 432.416508 89.715272 
L 432.697242 89.715272 
L 432.836995 86.849508 
L 433.117501 86.849508 
L 433.258319 83.983745 
L 433.960157 83.983745 
L 434.09931 81.117981 
L 434.239585 81.117981 
L 434.380453 78.252217 
L 434.520103 78.252217 
L 434.800615 72.52069 
L 434.941346 72.52069 
L 435.081136 69.654927 
L 435.222057 69.654927 
L 435.361645 72.52069 
L 435.642161 72.52069 
L 435.782935 75.386454 
L 435.92269 75.386454 
L 436.063594 72.52069 
L 436.484895 72.52069 
L 436.764247 69.654927 
L 437.886328 69.654927 
L 438.02724 66.789163 
L 438.307674 66.789163 
L 438.447373 63.923399 
L 438.868604 63.923399 
L 439.008397 61.057636 
L 439.290152 61.057636 
L 439.56943 55.326109 
L 439.71029 55.326109 
L 439.990831 49.594582 
L 440.271195 49.594582 
L 440.412063 52.460345 
L 440.832327 52.460345 
L 440.97202 49.594582 
L 442.094101 49.594582 
L 442.234755 46.728818 
L 442.374625 46.728818 
L 442.515525 43.863054 
L 442.655143 43.863054 
L 442.796008 40.997291 
L 443.357067 40.997291 
L 443.496691 43.863054 
L 443.637559 43.863054 
L 443.777206 46.728818 
L 444.338253 46.728818 
L 444.618728 43.863054 
L 444.759304 43.863054 
L 444.899289 40.997291 
L 445.040134 40.997291 
L 445.179805 38.131527 
L 445.320529 38.131527 
L 445.460337 40.997291 
L 446.442534 40.997291 
L 446.582413 38.131527 
L 447.283726 38.131527 
L 447.423952 40.997291 
L 447.564747 40.997291 
L 447.704461 43.863054 
L 448.265506 43.863054 
L 448.406026 46.728818 
L 449.107069 46.728818 
L 449.247823 49.594582 
L 449.387593 49.594582 
L 449.528601 52.460345 
L 450.370217 52.460345 
L 450.509661 49.594582 
L 451.772845 49.594582 
L 451.912243 52.460345 
L 452.053298 52.460345 
L 452.192776 49.594582 
L 453.034331 49.594582 
L 453.175337 52.460345 
L 453.59537 52.460345 
L 453.736347 55.326109 
L 454.017002 55.326109 
L 454.156404 58.191872 
L 455.839513 58.191872 
L 455.980101 61.057636 
L 456.681075 61.057636 
L 456.82169 63.923399 
L 458.083683 63.923399 
L 458.224298 61.057636 
L 458.644717 61.057636 
L 458.785325 58.191872 
L 459.486265 58.191872 
L 459.626917 61.057636 
L 459.907365 61.057636 
L 460.047312 58.191872 
L 461.449909 58.191872 
L 461.590666 55.326109 
L 462.291463 55.326109 
L 462.432428 58.191872 
L 462.571984 55.326109 
L 462.713057 58.191872 
L 462.853545 58.191872 
L 463.133012 61.057636 
L 463.41353 66.789163 
L 463.69406 66.789163 
L 463.834973 69.654927 
L 464.395767 69.654927 
L 464.535594 72.52069 
L 464.956889 72.52069 
L 465.096653 75.386454 
L 467.340789 75.386454 
L 467.481891 78.252217 
L 468.322536 78.252217 
L 468.462863 81.117981 
L 469.304431 81.117981 
L 469.584952 86.849508 
L 470.287082 86.849508 
L 470.426495 89.715272 
L 472.951177 89.715272 
L 473.092206 92.581035 
L 473.933347 92.581035 
L 474.073255 89.715272 
L 475.756369 89.715272 
L 475.897325 92.581035 
L 476.597919 92.581035 
L 476.738574 95.446799 
L 477.158972 95.446799 
L 477.299931 92.581035 
L 482.208309 92.581035 
L 482.348884 95.446799 
L 483.049875 95.446799 
L 483.190475 98.312563 
L 483.891432 98.312563 
L 484.171918 101.178326 
L 484.312489 101.178326 
L 484.452469 104.04409 
L 484.87353 104.04409 
L 485.013508 106.909853 
L 486.135597 106.909853 
L 486.276138 109.775617 
L 487.818706 109.775617 
L 487.95943 112.641381 
L 489.64248 112.641381 
L 489.64248 112.641381 
" clip-path="url(#pb10a3bb0a5)" style="fill: none; stroke: #1f77b4; stroke-width: 1.5; stroke-linecap: square"/>
   </g>
   <g id="patch_3">
    <path d="M 51.05 158.493598 
L 51.05 32.4 
" style="fill: none; stroke: #000000; stroke-width: 0.8; stroke-linejoin: miter; stroke-linecap: square"/>
   </g>
   <g id="patch_4">
    <path d="M 489.64248 158.493598 
L 489.64248 32.4 
" style="fill: none; stroke: #000000; stroke-width: 0.8; stroke-linejoin: miter; stroke-linecap: square"/>
   </g>
   <g id="patch_5">
    <path d="M 51.05 158.493598 
L 489.64248 158.493598 
" style="fill: none; stroke: #000000; stroke-width: 0.8; stroke-linejoin: miter; stroke-linecap: square"/>
   </g>
   <g id="patch_6">
    <path d="M 51.05 32.4 
L 489.64248 32.4 
" style="fill: none; stroke: #000000; stroke-width: 0.8; stroke-linejoin: miter; stroke-linecap: square"/>
   </g>
  </g>
  <g id="axes_2">
   <g id="patch_7">
    <path d="M 51.05 302.873078 
L 489.64248 302.873078 
L 489.64248 176.77948 
L 51.05 176.77948 
z
" style="fill: #ffffff"/>
   </g>
   <g id="matplotlib.axis_3">
    <g id="xtick_11">
     <g id="line2d_32">
      <path d="M 93.066061 302.873078 
L 93.066061 176.77948 
" clip-path="url(#p3add6a1553)" style="fill: none; stroke: #b0b0b0; stroke-width: 0.8; stroke-linecap: square"/>
     </g>
     <g id="line2d_33">
      <g>
       <use xlink:href="#m687c581fd7" x="93.066061" y="302.873078" style="stroke: #000000; stroke-width: 0.8"/>
      </g>
     </g>
    </g>
    <g id="xtick_12">
     <g id="line2d_34">
      <path d="M 135.144352 302.873078 
L 135.144352 176.77948 
" clip-path="url(#p3add6a1553)" style="fill: none; stroke: #b0b0b0; stroke-width: 0.8; stroke-linecap: square"/>
     </g>
     <g id="line2d_35">
      <g>
       <use xlink:href="#m687c581fd7" x="135.144352" y="302.873078" style="stroke: #000000; stroke-width: 0.8"/>
      </g>
     </g>
    </g>
    <g id="xtick_13">
     <g id="line2d_36">
      <path d="M 177.222643 302.873078 
L 177.222643 176.77948 
" clip-path="url(#p3add6a1553)" style="fill: none; stroke: #b0b0b0; stroke-width: 0.8; stroke-linecap: square"/>
     </g>
     <g id="line2d_37">
      <g>
       <use xlink:href="#m687c581fd7" x="177.222643" y="302.873078" style="stroke: #000000; stroke-width: 0.8"/>
      </g>
     </g>
    </g>
    <g id="xtick_14">
     <g id="line2d_38">
      <path d="M 219.300933 302.873078 
L 219.300933 176.77948 
" clip-path="url(#p3add6a1553)" style="fill: none; stroke: #b0b0b0; stroke-width: 0.8; stroke-linecap: square"/>
     </g>
     <g id="line2d_39">
      <g>
       <use xlink:href="#m687c581fd7" x="219.300933" y="302.873078" style="stroke: #000000; stroke-width: 0.8"/>
      </g>
     </g>
    </g>
    <g id="xtick_15">
     <g id="line2d_40">
      <path d="M 261.379224 302.873078 
L 261.379224 176.77948 
" clip-path="url(#p3add6a1553)" style="fill: none; stroke: #b0b0b0; stroke-width: 0.8; stroke-linecap: square"/>
     </g>
     <g id="line2d_41">
      <g>
       <use xlink:href="#m687c581fd7" x="261.379224" y="302.873078" style="stroke: #000000; stroke-width: 0.8"/>
      </g>
     </g>
    </g>
    <g id="xtick_16">
     <g id="line2d_42">
      <path d="M 303.457515 302.873078 
L 303.457515 176.77948 
" clip-path="url(#p3add6a1553)" style="fill: none; stroke: #b0b0b0; stroke-width: 0.8; stroke-linecap: square"/>
     </g>
     <g id="line2d_43">
      <g>
       <use xlink:href="#m687c581fd7" x="303.457515" y="302.873078" style="stroke: #000000; stroke-width: 0.8"/>
      </g>
     </g>
    </g>
    <g id="xtick_17">
     <g id="line2d_44">
      <path d="M 345.535806 302.873078 
L 345.535806 176.77948 
" clip-path="url(#p3add6a1553)" style="fill: none; stroke: #b0b0b0; stroke-width: 0.8; stroke-linecap: square"/>
     </g>
     <g id="line2d_45">
      <g>
       <use xlink:href="#m687c581fd7" x="345.535806" y="302.873078" style="stroke: #000000; stroke-width: 0.8"/>
      </g>
     </g>
    </g>
    <g id="xtick_18">
     <g id="line2d_46">
      <path d="M 387.614096 302.873078 
L 387.614096 176.77948 
" clip-path="url(#p3add6a1553)" style="fill: none; stroke: #b0b0b0; stroke-width: 0.8; stroke-linecap: square"/>
     </g>
     <g id="line2d_47">
      <g>
       <use xlink:href="#m687c581fd7" x="387.614096" y="302.873078" style="stroke: #000000; stroke-width: 0.8"/>
      </g>
     </g>
    </g>
    <g id="xtick_19">
     <g id="line2d_48">
      <path d="M 429.692387 302.873078 
L 429.692387 176.77948 
" clip-path="url(#p3add6a1553)" style="fill: none; stroke: #b0b0b0; stroke-width: 0.8; stroke-linecap: square"/>
     </g>
     <g id="line2d_49">
      <g>
       <use xlink:href="#m687c581fd7" x="429.692387" y="302.873078" style="stroke: #000000; stroke-width: 0.8"/>
      </g>
     </g>
    </g>
    <g id="xtick_20">
     <g id="line2d_50">
      <path d="M 471.770678 302.873078 
L 471.770678 176.77948 
" clip-path="url(#p3add6a1553)" style="fill: none; stroke: #b0b0b0; stroke-width: 0.8; stroke-linecap: square"/>
     </g>
     <g id="line2d_51">
      <g>
       <use xlink:href="#m687c581fd7" x="471.770678" y="302.873078" style="stroke: #000000; stroke-width: 0.8"/>
      </g>
     </g>
    </g>
   </g>
   <g id="matplotlib.axis_4">
    <g id="ytick_6">
     <g id="line2d_52">
      <path d="M 51.05 302.873078 
L 489.64248 302.873078 
" clip-path="url(#p3add6a1553)" style="fill: none; stroke: #b0b0b0; stroke-width: 0.8; stroke-linecap: square"/>
     </g>
     <g id="line2d_53">
      <g>
       <use xlink:href="#mf625ed02cf" x="51.05" y="302.873078" style="stroke: #000000; stroke-width: 0.8"/>
      </g>
     </g>
     <g id="text_7">
      <!-- 0 -->
      <g transform="translate(37.6875 306.672297) scale(0.1 -0.1)">
       <defs>
        <path id="DejaVuSans-30" d="M 2034 4250 
Q 1547 4250 1301 3770 
Q 1056 3291 1056 2328 
Q 1056 1369 1301 889 
Q 1547 409 2034 409 
Q 2525 409 2770 889 
Q 3016 1369 3016 2328 
Q 3016 3291 2770 3770 
Q 2525 4250 2034 4250 
z
M 2034 4750 
Q 2819 4750 3233 4129 
Q 3647 3509 3647 2328 
Q 3647 1150 3233 529 
Q 2819 -91 2034 -91 
Q 1250 -91 836 529 
Q 422 1150 422 2328 
Q 422 3509 836 4129 
Q 1250 4750 2034 4750 
z
" transform="scale(0.015625)"/>
       </defs>
       <use xlink:href="#DejaVuSans-30"/>
      </g>
     </g>
    </g>
    <g id="ytick_7">
     <g id="line2d_54">
      <path d="M 51.05 277.654359 
L 489.64248 277.654359 
" clip-path="url(#p3add6a1553)" style="fill: none; stroke: #b0b0b0; stroke-width: 0.8; stroke-linecap: square"/>
     </g>
     <g id="line2d_55">
      <g>
       <use xlink:href="#mf625ed02cf" x="51.05" y="277.654359" style="stroke: #000000; stroke-width: 0.8"/>
      </g>
     </g>
     <g id="text_8">
      <!-- 20 -->
      <g transform="translate(31.325 281.453577) scale(0.1 -0.1)">
       <defs>
        <path id="DejaVuSans-32" d="M 1228 531 
L 3431 531 
L 3431 0 
L 469 0 
L 469 531 
Q 828 903 1448 1529 
Q 2069 2156 2228 2338 
Q 2531 2678 2651 2914 
Q 2772 3150 2772 3378 
Q 2772 3750 2511 3984 
Q 2250 4219 1831 4219 
Q 1534 4219 1204 4116 
Q 875 4013 500 3803 
L 500 4441 
Q 881 4594 1212 4672 
Q 1544 4750 1819 4750 
Q 2544 4750 2975 4387 
Q 3406 4025 3406 3419 
Q 3406 3131 3298 2873 
Q 3191 2616 2906 2266 
Q 2828 2175 2409 1742 
Q 1991 1309 1228 531 
z
" transform="scale(0.015625)"/>
       </defs>
       <use xlink:href="#DejaVuSans-32"/>
       <use xlink:href="#DejaVuSans-30" x="63.623047"/>
      </g>
     </g>
    </g>
    <g id="ytick_8">
     <g id="line2d_56">
      <path d="M 51.05 252.435639 
L 489.64248 252.435639 
" clip-path="url(#p3add6a1553)" style="fill: none; stroke: #b0b0b0; stroke-width: 0.8; stroke-linecap: square"/>
     </g>
     <g id="line2d_57">
      <g>
       <use xlink:href="#mf625ed02cf" x="51.05" y="252.435639" style="stroke: #000000; stroke-width: 0.8"/>
      </g>
     </g>
     <g id="text_9">
      <!-- 40 -->
      <g transform="translate(31.325 256.234858) scale(0.1 -0.1)">
       <use xlink:href="#DejaVuSans-34"/>
       <use xlink:href="#DejaVuSans-30" x="63.623047"/>
      </g>
     </g>
    </g>
    <g id="ytick_9">
     <g id="line2d_58">
      <path d="M 51.05 227.216919 
L 489.64248 227.216919 
" clip-path="url(#p3add6a1553)" style="fill: none; stroke: #b0b0b0; stroke-width: 0.8; stroke-linecap: square"/>
     </g>
     <g id="line2d_59">
      <g>
       <use xlink:href="#mf625ed02cf" x="51.05" y="227.216919" style="stroke: #000000; stroke-width: 0.8"/>
      </g>
     </g>
     <g id="text_10">
      <!-- 60 -->
      <g transform="translate(31.325 231.016138) scale(0.1 -0.1)">
       <use xlink:href="#DejaVuSans-36"/>
       <use xlink:href="#DejaVuSans-30" x="63.623047"/>
      </g>
     </g>
    </g>
    <g id="ytick_10">
     <g id="line2d_60">
      <path d="M 51.05 201.9982 
L 489.64248 201.9982 
" clip-path="url(#p3add6a1553)" style="fill: none; stroke: #b0b0b0; stroke-width: 0.8; stroke-linecap: square"/>
     </g>
     <g id="line2d_61">
      <g>
       <use xlink:href="#mf625ed02cf" x="51.05" y="201.9982" style="stroke: #000000; stroke-width: 0.8"/>
      </g>
     </g>
     <g id="text_11">
      <!-- 80 -->
      <g transform="translate(31.325 205.797419) scale(0.1 -0.1)">
       <use xlink:href="#DejaVuSans-38"/>
       <use xlink:href="#DejaVuSans-30" x="63.623047"/>
      </g>
     </g>
    </g>
    <g id="ytick_11">
     <g id="line2d_62">
      <path d="M 51.05 176.77948 
L 489.64248 176.77948 
" clip-path="url(#p3add6a1553)" style="fill: none; stroke: #b0b0b0; stroke-width: 0.8; stroke-linecap: square"/>
     </g>
     <g id="line2d_63">
      <g>
       <use xlink:href="#mf625ed02cf" x="51.05" y="176.77948" style="stroke: #000000; stroke-width: 0.8"/>
      </g>
     </g>
     <g id="text_12">
      <!-- 100 -->
      <g transform="translate(24.9625 180.578699) scale(0.1 -0.1)">
       <defs>
        <path id="DejaVuSans-31" d="M 794 531 
L 1825 531 
L 1825 4091 
L 703 3866 
L 703 4441 
L 1819 4666 
L 2450 4666 
L 2450 531 
L 3481 531 
L 3481 0 
L 794 0 
L 794 531 
z
" transform="scale(0.015625)"/>
       </defs>
       <use xlink:href="#DejaVuSans-31"/>
       <use xlink:href="#DejaVuSans-30" x="63.623047"/>
       <use xlink:href="#DejaVuSans-30" x="127.246094"/>
      </g>
     </g>
    </g>
    <g id="text_13">
     <!-- Humidity [%RH] -->
     <g transform="translate(18.882813 279.973154) rotate(-90) scale(0.1 -0.1)">
      <defs>
       <path id="DejaVuSans-48" d="M 628 4666 
L 1259 4666 
L 1259 2753 
L 3553 2753 
L 3553 4666 
L 4184 4666 
L 4184 0 
L 3553 0 
L 3553 2222 
L 1259 2222 
L 1259 0 
L 628 0 
L 628 4666 
z
" transform="scale(0.015625)"/>
       <path id="DejaVuSans-69" d="M 603 3500 
L 1178 3500 
L 1178 0 
L 603 0 
L 603 3500 
z
M 603 4863 
L 1178 4863 
L 1178 4134 
L 603 4134 
L 603 4863 
z
" transform="scale(0.015625)"/>
       <path id="DejaVuSans-64" d="M 2906 2969 
L 2906 4863 
L 3481 4863 
L 3481 0 
L 2906 0 
L 2906 525 
Q 2725 213 2448 61 
Q 2172 -91 1784 -91 
Q 1150 -91 751 415 
Q 353 922 353 1747 
Q 353 2572 751 3078 
Q 1150 3584 1784 3584 
Q 2172 3584 2448 3432 
Q 2725 3281 2906 2969 
z
M 947 1747 
Q 947 1113 1208 752 
Q 1469 391 1925 391 
Q 2381 391 2643 752 
Q 2906 1113 2906 1747 
Q 2906 2381 2643 2742 
Q 2381 3103 1925 3103 
Q 1469 3103 1208 2742 
Q 947 2381 947 1747 
z
" transform="scale(0.015625)"/>
       <path id="DejaVuSans-79" d="M 2059 -325 
Q 1816 -950 1584 -1140 
Q 1353 -1331 966 -1331 
L 506 -1331 
L 506 -850 
L 844 -850 
Q 1081 -850 1212 -737 
Q 1344 -625 1503 -206 
L 1606 56 
L 191 3500 
L 800 3500 
L 1894 763 
L 2988 3500 
L 3597 3500 
L 2059 -325 
z
" transform="scale(0.015625)"/>
       <path id="DejaVuSans-25" d="M 4653 2053 
Q 4381 2053 4226 1822 
Q 4072 1591 4072 1178 
Q 4072 772 4226 539 
Q 4381 306 4653 306 
Q 4919 306 5073 539 
Q 5228 772 5228 1178 
Q 5228 1588 5073 1820 
Q 4919 2053 4653 2053 
z
M 4653 2450 
Q 5147 2450 5437 2106 
Q 5728 1763 5728 1178 
Q 5728 594 5436 251 
Q 5144 -91 4653 -91 
Q 4153 -91 3862 251 
Q 3572 594 3572 1178 
Q 3572 1766 3864 2108 
Q 4156 2450 4653 2450 
z
M 1428 4353 
Q 1159 4353 1004 4120 
Q 850 3888 850 3481 
Q 850 3069 1003 2837 
Q 1156 2606 1428 2606 
Q 1700 2606 1854 2837 
Q 2009 3069 2009 3481 
Q 2009 3884 1853 4118 
Q 1697 4353 1428 4353 
z
M 4250 4750 
L 4750 4750 
L 1831 -91 
L 1331 -91 
L 4250 4750 
z
M 1428 4750 
Q 1922 4750 2215 4408 
Q 2509 4066 2509 3481 
Q 2509 2891 2217 2550 
Q 1925 2209 1428 2209 
Q 931 2209 642 2551 
Q 353 2894 353 3481 
Q 353 4063 643 4406 
Q 934 4750 1428 4750 
z
" transform="scale(0.015625)"/>
       <path id="DejaVuSans-52" d="M 2841 2188 
Q 3044 2119 3236 1894 
Q 3428 1669 3622 1275 
L 4263 0 
L 3584 0 
L 2988 1197 
Q 2756 1666 2539 1819 
Q 2322 1972 1947 1972 
L 1259 1972 
L 1259 0 
L 628 0 
L 628 4666 
L 2053 4666 
Q 2853 4666 3247 4331 
Q 3641 3997 3641 3322 
Q 3641 2881 3436 2590 
Q 3231 2300 2841 2188 
z
M 1259 4147 
L 1259 2491 
L 2053 2491 
Q 2509 2491 2742 2702 
Q 2975 2913 2975 3322 
Q 2975 3731 2742 3939 
Q 2509 4147 2053 4147 
L 1259 4147 
z
" transform="scale(0.015625)"/>
      </defs>
      <use xlink:href="#DejaVuSans-48"/>
      <use xlink:href="#DejaVuSans-75" x="75.195312"/>
      <use xlink:href="#DejaVuSans-6d" x="138.574219"/>
      <use xlink:href="#DejaVuSans-69" x="235.986328"/>
      <use xlink:href="#DejaVuSans-64" x="263.769531"/>
      <use xlink:href="#DejaVuSans-69" x="327.246094"/>
      <use xlink:href="#DejaVuSans-74" x="355.029297"/>
      <use xlink:href="#DejaVuSans-79" x="394.238281"/>
      <use xlink:href="#DejaVuSans-20" x="453.417969"/>
      <use xlink:href="#DejaVuSans-5b" x="485.205078"/>
      <use xlink:href="#DejaVuSans-25" x="524.21875"/>
      <use xlink:href="#DejaVuSans-52" x="619.238281"/>
      <use xlink:href="#DejaVuSans-48" x="688.720703"/>
      <use xlink:href="#DejaVuSans-5d" x="763.916016"/>
     </g>
    </g>
   </g>
   <g id="line2d_64">
    <path d="M 51.05 199.476328 
L 61.709751 199.476328 
L 61.990241 198.215392 
L 64.234438 198.215392 
L 64.51608 196.954456 
L 66.900116 196.954456 
L 67.041069 195.69352 
L 69.144089 195.69352 
L 69.283788 196.954456 
L 77.839625 196.954456 
L 77.97988 198.215392 
L 79.523449 198.215392 
L 79.663002 199.476328 
L 81.767648 199.476328 
L 81.907166 198.215392 
L 83.450719 198.215392 
L 83.590272 196.954456 
L 89.902748 196.954456 
L 90.042222 198.215392 
L 98.739781 198.215392 
L 99.018852 199.476328 
L 103.087169 199.476328 
L 103.226638 200.737264 
L 104.909746 200.737264 
L 105.050731 201.9982 
L 108.136361 201.9982 
L 108.275991 200.737264 
L 110.941597 200.737264 
L 111.081191 199.476328 
L 112.34397 199.476328 
L 112.483786 198.215392 
L 113.605868 198.215392 
L 113.746803 196.954456 
L 115.149408 196.954456 
L 115.288974 195.69352 
L 116.832494 195.69352 
L 116.97212 194.432584 
L 119.216262 194.432584 
L 119.357247 193.171648 
L 122.021425 193.171648 
L 122.162342 191.910712 
L 129.314939 191.910712 
L 129.455746 193.171648 
L 132.961684 193.171648 
L 133.242196 194.432584 
L 134.364303 194.432584 
L 134.505288 195.69352 
L 138.01106 195.69352 
L 138.151935 194.432584 
L 139.974704 194.432584 
L 140.115658 193.171648 
L 142.359805 193.171648 
L 142.499387 191.910712 
L 145.585088 191.910712 
L 145.725825 190.649776 
L 147.689566 190.649776 
L 147.829257 189.38884 
L 163.679299 189.38884 
L 163.818831 190.649776 
L 167.466844 190.649776 
L 167.605941 191.910712 
L 169.991347 191.910712 
L 170.270755 193.171648 
L 171.253189 193.171648 
L 171.392851 191.910712 
L 171.533698 199.476328 
L 172.935912 199.476328 
L 173.075956 191.910712 
L 173.356471 191.910712 
L 173.497465 193.171648 
L 175.039588 193.171648 
L 175.180389 199.476328 
L 178.1253 199.476328 
L 178.2659 198.215392 
L 178.827166 198.215392 
L 178.966857 199.476328 
L 184.857744 199.476328 
L 184.998565 193.171648 
L 192.151234 193.171648 
L 192.292124 191.910712 
L 195.097181 191.910712 
L 195.236954 190.649776 
L 198.463552 190.649776 
L 198.603178 189.38884 
L 208.001149 189.38884 
L 208.140801 190.649776 
L 218.660925 190.649776 
L 218.800531 189.38884 
L 259.336198 189.38884 
L 259.475849 190.649776 
L 262.000505 190.649776 
L 262.141256 191.910712 
L 265.788131 191.910712 
L 265.927792 193.171648 
L 266.208319 193.171648 
L 266.349126 191.910712 
L 269.57455 191.910712 
L 269.715764 190.649776 
L 274.623902 190.649776 
L 274.76501 189.38884 
L 399.736965 189.38884 
L 399.876117 190.649776 
L 401.979872 190.649776 
L 402.120767 191.910712 
L 402.681677 191.910712 
L 402.82142 193.171648 
L 406.048134 193.171648 
L 406.187673 191.910712 
L 409.694635 191.910712 
L 409.834405 193.171648 
L 413.341224 193.171648 
L 413.481146 194.432584 
L 415.725302 194.432584 
L 415.866 193.171648 
L 420.213613 193.171648 
L 420.354464 191.910712 
L 420.775842 191.910712 
L 420.914912 193.171648 
L 425.403689 193.171648 
L 425.543485 194.432584 
L 427.787635 194.432584 
L 427.928471 193.171648 
L 428.489431 193.171648 
L 428.630416 194.432584 
L 429.190237 194.432584 
L 429.331114 195.69352 
L 430.452967 195.69352 
L 430.592836 196.954456 
L 431.154912 196.954456 
L 431.434315 198.215392 
L 431.855601 198.215392 
L 431.995426 199.476328 
L 432.136312 198.215392 
L 434.660918 198.215392 
L 434.800615 196.954456 
L 435.081136 196.954456 
L 435.222057 198.215392 
L 435.361645 198.215392 
L 435.502452 199.476328 
L 435.782935 199.476328 
L 435.92269 200.737264 
L 437.886328 200.737264 
L 438.02724 201.9982 
L 439.42931 201.9982 
L 439.56943 209.563816 
L 439.71029 209.563816 
L 439.849963 208.30288 
L 440.130472 208.30288 
L 440.412063 210.824752 
L 441.112804 210.824752 
L 441.252547 212.085688 
L 441.533071 212.085688 
L 441.673793 213.346624 
L 442.374625 213.346624 
L 442.515525 212.085688 
L 443.217298 212.085688 
L 443.357067 213.346624 
L 444.057721 213.346624 
L 444.198405 214.60756 
L 444.338253 214.60756 
L 444.618728 213.346624 
L 444.759304 213.346624 
L 444.899289 212.085688 
L 445.320529 212.085688 
L 445.460337 213.346624 
L 446.301888 213.346624 
L 446.442534 212.085688 
L 447.283726 212.085688 
L 447.423952 213.346624 
L 448.546029 213.346624 
L 448.68705 212.085688 
L 451.772845 212.085688 
L 451.912243 213.346624 
L 454.017002 213.346624 
L 454.156404 207.041944 
L 454.999113 207.041944 
L 455.27848 205.781008 
L 455.559 205.781008 
L 455.699652 204.520072 
L 456.260674 204.520072 
L 456.541122 201.9982 
L 456.82169 201.9982 
L 456.961591 203.259136 
L 457.522627 203.259136 
L 457.803139 201.9982 
L 458.785325 201.9982 
L 458.925238 200.737264 
L 459.486265 200.737264 
L 459.626917 201.9982 
L 461.449909 201.9982 
L 461.590666 209.563816 
L 462.291463 209.563816 
L 462.432428 201.9982 
L 462.571984 209.563816 
L 462.713057 201.9982 
L 463.69406 201.9982 
L 463.834973 200.737264 
L 465.237313 200.737264 
L 465.377173 199.476328 
L 467.62131 199.476328 
L 467.762066 200.737264 
L 470.5676 200.737264 
L 470.707028 201.9982 
L 476.037784 201.9982 
L 476.317396 203.259136 
L 476.458004 204.520072 
L 476.597919 204.520072 
L 476.738574 205.781008 
L 477.439487 205.781008 
L 477.580048 204.520072 
L 478.281035 204.520072 
L 478.421861 203.259136 
L 479.683636 203.259136 
L 479.824238 201.9982 
L 480.805719 201.9982 
L 480.946274 200.737264 
L 482.068433 200.737264 
L 482.208309 199.476328 
L 483.891432 199.476328 
L 484.171918 198.215392 
L 485.995682 198.215392 
L 486.135597 196.954456 
L 488.940788 196.954456 
L 489.081484 195.69352 
L 489.64248 195.69352 
L 489.64248 195.69352 
" clip-path="url(#p3add6a1553)" style="fill: none; stroke: #ff7f0e; stroke-width: 1.5; stroke-linecap: square"/>
   </g>
   <g id="patch_8">
    <path d="M 51.05 302.873078 
L 51.05 176.77948 
" style="fill: none; stroke: #000000; stroke-width: 0.8; stroke-linejoin: miter; stroke-linecap: square"/>
   </g>
   <g id="patch_9">
    <path d="M 489.64248 302.873078 
L 489.64248 176.77948 
" style="fill: none; stroke: #000000; stroke-width: 0.8; stroke-linejoin: miter; stroke-linecap: square"/>
   </g>
   <g id="patch_10">
    <path d="M 51.05 302.873078 
L 489.64248 302.873078 
" style="fill: none; stroke: #000000; stroke-width: 0.8; stroke-linejoin: miter; stroke-linecap: square"/>
   </g>
   <g id="patch_11">
    <path d="M 51.05 176.77948 
L 489.64248 176.77948 
" style="fill: none; stroke: #000000; stroke-width: 0.8; stroke-linejoin: miter; stroke-linecap: square"/>
   </g>
  </g>
  <g id="axes_3">
   <g id="patch_12">
    <path d="M 51.05 447.252558 
L 489.64248 447.252558 
L 489.64248 321.158961 
L 51.05 321.158961 
z
" style="fill: #ffffff"/>
   </g>
   <g id="matplotlib.axis_5">
    <g id="xtick_21">
     <g id="line2d_65">
      <path d="M 93.066061 447.252558 
L 93.066061 321.158961 
" clip-path="url(#pb72219bf21)" style="fill: none; stroke: #b0b0b0; stroke-width: 0.8; stroke-linecap: square"/>
     </g>
     <g id="line2d_66">
      <g>
       <use xlink:href="#m687c581fd7" x="93.066061" y="447.252558" style="stroke: #000000; stroke-width: 0.8"/>
      </g>
     </g>
     <g id="text_14">
      <!-- 03-01 04 -->
      <g transform="translate(79.121142 491.417649) rotate(-45) scale(0.1 -0.1)">
       <defs>
        <path id="DejaVuSans-33" d="M 2597 2516 
Q 3050 2419 3304 2112 
Q 3559 1806 3559 1356 
Q 3559 666 3084 287 
Q 2609 -91 1734 -91 
Q 1441 -91 1130 -33 
Q 819 25 488 141 
L 488 750 
Q 750 597 1062 519 
Q 1375 441 1716 441 
Q 2309 441 2620 675 
Q 2931 909 2931 1356 
Q 2931 1769 2642 2001 
Q 2353 2234 1838 2234 
L 1294 2234 
L 1294 2753 
L 1863 2753 
Q 2328 2753 2575 2939 
Q 2822 3125 2822 3475 
Q 2822 3834 2567 4026 
Q 2313 4219 1838 4219 
Q 1578 4219 1281 4162 
Q 984 4106 628 3988 
L 628 4550 
Q 988 4650 1302 4700 
Q 1616 4750 1894 4750 
Q 2613 4750 3031 4423 
Q 3450 4097 3450 3541 
Q 3450 3153 3228 2886 
Q 3006 2619 2597 2516 
z
" transform="scale(0.015625)"/>
        <path id="DejaVuSans-2d" d="M 313 2009 
L 1997 2009 
L 1997 1497 
L 313 1497 
L 313 2009 
z
" transform="scale(0.015625)"/>
       </defs>
       <use xlink:href="#DejaVuSans-30"/>
       <use xlink:href="#DejaVuSans-33" x="63.623047"/>
       <use xlink:href="#DejaVuSans-2d" x="127.246094"/>
       <use xlink:href="#DejaVuSans-30" x="163.330078"/>
       <use xlink:href="#DejaVuSans-31" x="226.953125"/>
       <use xlink:href="#DejaVuSans-20" x="290.576172"/>
       <use xlink:href="#DejaVuSans-30" x="322.363281"/>
       <use xlink:href="#DejaVuSans-34" x="385.986328"/>
      </g>
     </g>
    </g>
    <g id="xtick_22">
     <g id="line2d_67">
      <path d="M 135.144352 447.252558 
L 135.144352 321.158961 
" clip-path="url(#pb72219bf21)" style="fill: none; stroke: #b0b0b0; stroke-width: 0.8; stroke-linecap: square"/>
     </g>
     <g id="line2d_68">
      <g>
       <use xlink:href="#m687c581fd7" x="135.144352" y="447.252558" style="stroke: #000000; stroke-width: 0.8"/>
      </g>
     </g>
     <g id="text_15">
      <!-- 03-01 08 -->
      <g transform="translate(121.199433 491.417649) rotate(-45) scale(0.1 -0.1)">
       <use xlink:href="#DejaVuSans-30"/>
       <use xlink:href="#DejaVuSans-33" x="63.623047"/>
       <use xlink:href="#DejaVuSans-2d" x="127.246094"/>
       <use xlink:href="#DejaVuSans-30" x="163.330078"/>
       <use xlink:href="#DejaVuSans-31" x="226.953125"/>
       <use xlink:href="#DejaVuSans-20" x="290.576172"/>
       <use xlink:href="#DejaVuSans-30" x="322.363281"/>
       <use xlink:href="#DejaVuSans-38" x="385.986328"/>
      </g>
     </g>
    </g>
    <g id="xtick_23">
     <g id="line2d_69">
      <path d="M 177.222643 447.252558 
L 177.222643 321.158961 
" clip-path="url(#pb72219bf21)" style="fill: none; stroke: #b0b0b0; stroke-width: 0.8; stroke-linecap: square"/>
     </g>
     <g id="line2d_70">
      <g>
       <use xlink:href="#m687c581fd7" x="177.222643" y="447.252558" style="stroke: #000000; stroke-width: 0.8"/>
      </g>
     </g>
     <g id="text_16">
      <!-- 03-01 12 -->
      <g transform="translate(163.277723 491.417649) rotate(-45) scale(0.1 -0.1)">
       <use xlink:href="#DejaVuSans-30"/>
       <use xlink:href="#DejaVuSans-33" x="63.623047"/>
       <use xlink:href="#DejaVuSans-2d" x="127.246094"/>
       <use xlink:href="#DejaVuSans-30" x="163.330078"/>
       <use xlink:href="#DejaVuSans-31" x="226.953125"/>
       <use xlink:href="#DejaVuSans-20" x="290.576172"/>
       <use xlink:href="#DejaVuSans-31" x="322.363281"/>
       <use xlink:href="#DejaVuSans-32" x="385.986328"/>
      </g>
     </g>
    </g>
    <g id="xtick_24">
     <g id="line2d_71">
      <path d="M 219.300933 447.252558 
L 219.300933 321.158961 
" clip-path="url(#pb72219bf21)" style="fill: none; stroke: #b0b0b0; stroke-width: 0.8; stroke-linecap: square"/>
     </g>
     <g id="line2d_72">
      <g>
       <use xlink:href="#m687c581fd7" x="219.300933" y="447.252558" style="stroke: #000000; stroke-width: 0.8"/>
      </g>
     </g>
     <g id="text_17">
      <!-- 03-01 16 -->
      <g transform="translate(205.356014 491.417649) rotate(-45) scale(0.1 -0.1)">
       <use xlink:href="#DejaVuSans-30"/>
       <use xlink:href="#DejaVuSans-33" x="63.623047"/>
       <use xlink:href="#DejaVuSans-2d" x="127.246094"/>
       <use xlink:href="#DejaVuSans-30" x="163.330078"/>
       <use xlink:href="#DejaVuSans-31" x="226.953125"/>
       <use xlink:href="#DejaVuSans-20" x="290.576172"/>
       <use xlink:href="#DejaVuSans-31" x="322.363281"/>
       <use xlink:href="#DejaVuSans-36" x="385.986328"/>
      </g>
     </g>
    </g>
    <g id="xtick_25">
     <g id="line2d_73">
      <path d="M 261.379224 447.252558 
L 261.379224 321.158961 
" clip-path="url(#pb72219bf21)" style="fill: none; stroke: #b0b0b0; stroke-width: 0.8; stroke-linecap: square"/>
     </g>
     <g id="line2d_74">
      <g>
       <use xlink:href="#m687c581fd7" x="261.379224" y="447.252558" style="stroke: #000000; stroke-width: 0.8"/>
      </g>
     </g>
     <g id="text_18">
      <!-- 03-01 20 -->
      <g transform="translate(247.434305 491.417649) rotate(-45) scale(0.1 -0.1)">
       <use xlink:href="#DejaVuSans-30"/>
       <use xlink:href="#DejaVuSans-33" x="63.623047"/>
       <use xlink:href="#DejaVuSans-2d" x="127.246094"/>
       <use xlink:href="#DejaVuSans-30" x="163.330078"/>
       <use xlink:href="#DejaVuSans-31" x="226.953125"/>
       <use xlink:href="#DejaVuSans-20" x="290.576172"/>
       <use xlink:href="#DejaVuSans-32" x="322.363281"/>
       <use xlink:href="#DejaVuSans-30" x="385.986328"/>
      </g>
     </g>
    </g>
    <g id="xtick_26">
     <g id="line2d_75">
      <path d="M 303.457515 447.252558 
L 303.457515 321.158961 
" clip-path="url(#pb72219bf21)" style="fill: none; stroke: #b0b0b0; stroke-width: 0.8; stroke-linecap: square"/>
     </g>
     <g id="line2d_76">
      <g>
       <use xlink:href="#m687c581fd7" x="303.457515" y="447.252558" style="stroke: #000000; stroke-width: 0.8"/>
      </g>
     </g>
     <g id="text_19">
      <!-- 03-02 00 -->
      <g transform="translate(289.512596 491.417649) rotate(-45) scale(0.1 -0.1)">
       <use xlink:href="#DejaVuSans-30"/>
       <use xlink:href="#DejaVuSans-33" x="63.623047"/>
       <use xlink:href="#DejaVuSans-2d" x="127.246094"/>
       <use xlink:href="#DejaVuSans-30" x="163.330078"/>
       <use xlink:href="#DejaVuSans-32" x="226.953125"/>
       <use xlink:href="#DejaVuSans-20" x="290.576172"/>
       <use xlink:href="#DejaVuSans-30" x="322.363281"/>
       <use xlink:href="#DejaVuSans-30" x="385.986328"/>
      </g>
     </g>
    </g>
    <g id="xtick_27">
     <g id="line2d_77">
      <path d="M 345.535806 447.252558 
L 345.535806 321.158961 
" clip-path="url(#pb72219bf21)" style="fill: none; stroke: #b0b0b0; stroke-width: 0.8; stroke-linecap: square"/>
     </g>
     <g id="line2d_78">
      <g>
       <use xlink:href="#m687c581fd7" x="345.535806" y="447.252558" style="stroke: #000000; stroke-width: 0.8"/>
      </g>
     </g>
     <g id="text_20">
      <!-- 03-02 04 -->
      <g transform="translate(331.590886 491.417649) rotate(-45) scale(0.1 -0.1)">
       <use xlink:href="#DejaVuSans-30"/>
       <use xlink:href="#DejaVuSans-33" x="63.623047"/>
       <use xlink:href="#DejaVuSans-2d" x="127.246094"/>
       <use xlink:href="#DejaVuSans-30" x="163.330078"/>
       <use xlink:href="#DejaVuSans-32" x="226.953125"/>
       <use xlink:href="#DejaVuSans-20" x="290.576172"/>
       <use xlink:href="#DejaVuSans-30" x="322.363281"/>
       <use xlink:href="#DejaVuSans-34" x="385.986328"/>
      </g>
     </g>
    </g>
    <g id="xtick_28">
     <g id="line2d_79">
      <path d="M 387.614096 447.252558 
L 387.614096 321.158961 
" clip-path="url(#pb72219bf21)" style="fill: none; stroke: #b0b0b0; stroke-width: 0.8; stroke-linecap: square"/>
     </g>
     <g id="line2d_80">
      <g>
       <use xlink:href="#m687c581fd7" x="387.614096" y="447.252558" style="stroke: #000000; stroke-width: 0.8"/>
      </g>
     </g>
     <g id="text_21">
      <!-- 03-02 08 -->
      <g transform="translate(373.669177 491.417649) rotate(-45) scale(0.1 -0.1)">
       <use xlink:href="#DejaVuSans-30"/>
       <use xlink:href="#DejaVuSans-33" x="63.623047"/>
       <use xlink:href="#DejaVuSans-2d" x="127.246094"/>
       <use xlink:href="#DejaVuSans-30" x="163.330078"/>
       <use xlink:href="#DejaVuSans-32" x="226.953125"/>
       <use xlink:href="#DejaVuSans-20" x="290.576172"/>
       <use xlink:href="#DejaVuSans-30" x="322.363281"/>
       <use xlink:href="#DejaVuSans-38" x="385.986328"/>
      </g>
     </g>
    </g>
    <g id="xtick_29">
     <g id="line2d_81">
      <path d="M 429.692387 447.252558 
L 429.692387 321.158961 
" clip-path="url(#pb72219bf21)" style="fill: none; stroke: #b0b0b0; stroke-width: 0.8; stroke-linecap: square"/>
     </g>
     <g id="line2d_82">
      <g>
       <use xlink:href="#m687c581fd7" x="429.692387" y="447.252558" style="stroke: #000000; stroke-width: 0.8"/>
      </g>
     </g>
     <g id="text_22">
      <!-- 03-02 12 -->
      <g transform="translate(415.747468 491.417649) rotate(-45) scale(0.1 -0.1)">
       <use xlink:href="#DejaVuSans-30"/>
       <use xlink:href="#DejaVuSans-33" x="63.623047"/>
       <use xlink:href="#DejaVuSans-2d" x="127.246094"/>
       <use xlink:href="#DejaVuSans-30" x="163.330078"/>
       <use xlink:href="#DejaVuSans-32" x="226.953125"/>
       <use xlink:href="#DejaVuSans-20" x="290.576172"/>
       <use xlink:href="#DejaVuSans-31" x="322.363281"/>
       <use xlink:href="#DejaVuSans-32" x="385.986328"/>
      </g>
     </g>
    </g>
    <g id="xtick_30">
     <g id="line2d_83">
      <path d="M 471.770678 447.252558 
L 471.770678 321.158961 
" clip-path="url(#pb72219bf21)" style="fill: none; stroke: #b0b0b0; stroke-width: 0.8; stroke-linecap: square"/>
     </g>
     <g id="line2d_84">
      <g>
       <use xlink:href="#m687c581fd7" x="471.770678" y="447.252558" style="stroke: #000000; stroke-width: 0.8"/>
      </g>
     </g>
     <g id="text_23">
      <!-- 03-02 16 -->
      <g transform="translate(457.825759 491.417649) rotate(-45) scale(0.1 -0.1)">
       <use xlink:href="#DejaVuSans-30"/>
       <use xlink:href="#DejaVuSans-33" x="63.623047"/>
       <use xlink:href="#DejaVuSans-2d" x="127.246094"/>
       <use xlink:href="#DejaVuSans-30" x="163.330078"/>
       <use xlink:href="#DejaVuSans-32" x="226.953125"/>
       <use xlink:href="#DejaVuSans-20" x="290.576172"/>
       <use xlink:href="#DejaVuSans-31" x="322.363281"/>
       <use xlink:href="#DejaVuSans-36" x="385.986328"/>
      </g>
     </g>
    </g>
   </g>
   <g id="matplotlib.axis_6">
    <g id="ytick_12">
     <g id="line2d_85">
      <path d="M 51.05 442.430798 
L 489.64248 442.430798 
" clip-path="url(#pb72219bf21)" style="fill: none; stroke: #b0b0b0; stroke-width: 0.8; stroke-linecap: square"/>
     </g>
     <g id="line2d_86">
      <g>
       <use xlink:href="#mf625ed02cf" x="51.05" y="442.430798" style="stroke: #000000; stroke-width: 0.8"/>
      </g>
     </g>
     <g id="text_24">
      <!-- 710.0 -->
      <g transform="translate(15.421875 446.230016) scale(0.1 -0.1)">
       <defs>
        <path id="DejaVuSans-2e" d="M 684 794 
L 1344 794 
L 1344 0 
L 684 0 
L 684 794 
z
" transform="scale(0.015625)"/>
       </defs>
       <use xlink:href="#DejaVuSans-37"/>
       <use xlink:href="#DejaVuSans-31" x="63.623047"/>
       <use xlink:href="#DejaVuSans-30" x="127.246094"/>
       <use xlink:href="#DejaVuSans-2e" x="190.869141"/>
       <use xlink:href="#DejaVuSans-30" x="222.65625"/>
      </g>
     </g>
    </g>
    <g id="ytick_13">
     <g id="line2d_87">
      <path d="M 51.05 419.686642 
L 489.64248 419.686642 
" clip-path="url(#pb72219bf21)" style="fill: none; stroke: #b0b0b0; stroke-width: 0.8; stroke-linecap: square"/>
     </g>
     <g id="line2d_88">
      <g>
       <use xlink:href="#mf625ed02cf" x="51.05" y="419.686642" style="stroke: #000000; stroke-width: 0.8"/>
      </g>
     </g>
     <g id="text_25">
      <!-- 712.5 -->
      <g transform="translate(15.421875 423.485861) scale(0.1 -0.1)">
       <use xlink:href="#DejaVuSans-37"/>
       <use xlink:href="#DejaVuSans-31" x="63.623047"/>
       <use xlink:href="#DejaVuSans-32" x="127.246094"/>
       <use xlink:href="#DejaVuSans-2e" x="190.869141"/>
       <use xlink:href="#DejaVuSans-35" x="222.65625"/>
      </g>
     </g>
    </g>
    <g id="ytick_14">
     <g id="line2d_89">
      <path d="M 51.05 396.942487 
L 489.64248 396.942487 
" clip-path="url(#pb72219bf21)" style="fill: none; stroke: #b0b0b0; stroke-width: 0.8; stroke-linecap: square"/>
     </g>
     <g id="line2d_90">
      <g>
       <use xlink:href="#mf625ed02cf" x="51.05" y="396.942487" style="stroke: #000000; stroke-width: 0.8"/>
      </g>
     </g>
     <g id="text_26">
      <!-- 715.0 -->
      <g transform="translate(15.421875 400.741705) scale(0.1 -0.1)">
       <use xlink:href="#DejaVuSans-37"/>
       <use xlink:href="#DejaVuSans-31" x="63.623047"/>
       <use xlink:href="#DejaVuSans-35" x="127.246094"/>
       <use xlink:href="#DejaVuSans-2e" x="190.869141"/>
       <use xlink:href="#DejaVuSans-30" x="222.65625"/>
      </g>
     </g>
    </g>
    <g id="ytick_15">
     <g id="line2d_91">
      <path d="M 51.05 374.198331 
L 489.64248 374.198331 
" clip-path="url(#pb72219bf21)" style="fill: none; stroke: #b0b0b0; stroke-width: 0.8; stroke-linecap: square"/>
     </g>
     <g id="line2d_92">
      <g>
       <use xlink:href="#mf625ed02cf" x="51.05" y="374.198331" style="stroke: #000000; stroke-width: 0.8"/>
      </g>
     </g>
     <g id="text_27">
      <!-- 717.5 -->
      <g transform="translate(15.421875 377.99755) scale(0.1 -0.1)">
       <use xlink:href="#DejaVuSans-37"/>
       <use xlink:href="#DejaVuSans-31" x="63.623047"/>
       <use xlink:href="#DejaVuSans-37" x="127.246094"/>
       <use xlink:href="#DejaVuSans-2e" x="190.869141"/>
       <use xlink:href="#DejaVuSans-35" x="222.65625"/>
      </g>
     </g>
    </g>
    <g id="ytick_16">
     <g id="line2d_93">
      <path d="M 51.05 351.454176 
L 489.64248 351.454176 
" clip-path="url(#pb72219bf21)" style="fill: none; stroke: #b0b0b0; stroke-width: 0.8; stroke-linecap: square"/>
     </g>
     <g id="line2d_94">
      <g>
       <use xlink:href="#mf625ed02cf" x="51.05" y="351.454176" style="stroke: #000000; stroke-width: 0.8"/>
      </g>
     </g>
     <g id="text_28">
      <!-- 720.0 -->
      <g transform="translate(15.421875 355.253394) scale(0.1 -0.1)">
       <use xlink:href="#DejaVuSans-37"/>
       <use xlink:href="#DejaVuSans-32" x="63.623047"/>
       <use xlink:href="#DejaVuSans-30" x="127.246094"/>
       <use xlink:href="#DejaVuSans-2e" x="190.869141"/>
       <use xlink:href="#DejaVuSans-30" x="222.65625"/>
      </g>
     </g>
    </g>
    <g id="ytick_17">
     <g id="line2d_95">
      <path d="M 51.05 328.71002 
L 489.64248 328.71002 
" clip-path="url(#pb72219bf21)" style="fill: none; stroke: #b0b0b0; stroke-width: 0.8; stroke-linecap: square"/>
     </g>
     <g id="line2d_96">
      <g>
       <use xlink:href="#mf625ed02cf" x="51.05" y="328.71002" style="stroke: #000000; stroke-width: 0.8"/>
      </g>
     </g>
     <g id="text_29">
      <!-- 722.5 -->
      <g transform="translate(15.421875 332.509239) scale(0.1 -0.1)">
       <use xlink:href="#DejaVuSans-37"/>
       <use xlink:href="#DejaVuSans-32" x="63.623047"/>
       <use xlink:href="#DejaVuSans-32" x="127.246094"/>
       <use xlink:href="#DejaVuSans-2e" x="190.869141"/>
       <use xlink:href="#DejaVuSans-35" x="222.65625"/>
      </g>
     </g>
    </g>
    <g id="text_30">
     <!-- Rain [mm] -->
     <g transform="translate(9.342188 410.420603) rotate(-90) scale(0.1 -0.1)">
      <defs>
       <path id="DejaVuSans-6e" d="M 3513 2113 
L 3513 0 
L 2938 0 
L 2938 2094 
Q 2938 2591 2744 2837 
Q 2550 3084 2163 3084 
Q 1697 3084 1428 2787 
Q 1159 2491 1159 1978 
L 1159 0 
L 581 0 
L 581 3500 
L 1159 3500 
L 1159 2956 
Q 1366 3272 1645 3428 
Q 1925 3584 2291 3584 
Q 2894 3584 3203 3211 
Q 3513 2838 3513 2113 
z
" transform="scale(0.015625)"/>
      </defs>
      <use xlink:href="#DejaVuSans-52"/>
      <use xlink:href="#DejaVuSans-61" x="67.232422"/>
      <use xlink:href="#DejaVuSans-69" x="128.511719"/>
      <use xlink:href="#DejaVuSans-6e" x="156.294922"/>
      <use xlink:href="#DejaVuSans-20" x="219.673828"/>
      <use xlink:href="#DejaVuSans-5b" x="251.460938"/>
      <use xlink:href="#DejaVuSans-6d" x="290.474609"/>
      <use xlink:href="#DejaVuSans-6d" x="387.886719"/>
      <use xlink:href="#DejaVuSans-5d" x="485.298828"/>
     </g>
    </g>
   </g>
   <g id="line2d_97">
    <path d="M 51.05 441.521031 
L 63.814488 441.521031 
L 63.953927 438.791733 
L 120.057807 438.791733 
L 120.19838 436.062434 
L 125.108503 436.062434 
L 125.387676 433.333135 
L 139.554682 433.333135 
L 139.694192 430.603837 
L 142.499387 430.603837 
L 142.640252 427.874538 
L 145.164786 427.874538 
L 145.304561 425.145239 
L 152.177809 425.145239 
L 152.317584 422.415941 
L 164.940923 422.415941 
L 165.08152 419.686642 
L 179.949171 419.686642 
L 180.088938 416.957343 
L 184.157131 416.957343 
L 184.296713 414.228045 
L 187.662926 414.228045 
L 187.803674 411.498746 
L 190.047962 411.498746 
L 190.187609 408.769447 
L 193.13359 408.769447 
L 193.273321 406.040149 
L 195.658231 406.040149 
L 195.797995 403.31085 
L 198.883685 403.31085 
L 199.165441 400.581551 
L 207.720581 400.581551 
L 207.860283 397.852253 
L 211.928396 397.852253 
L 212.068078 395.122954 
L 214.312233 395.122954 
L 214.453098 392.393655 
L 217.397947 392.393655 
L 217.678473 389.664357 
L 219.361573 389.664357 
L 219.502278 386.935058 
L 221.605727 386.935058 
L 221.746542 384.20576 
L 222.728979 384.20576 
L 223.008325 381.476461 
L 223.710007 381.476461 
L 223.849882 378.747162 
L 224.410918 378.747162 
L 224.551795 376.017864 
L 225.673438 376.017864 
L 225.813523 373.288565 
L 226.094029 373.288565 
L 226.234827 370.559266 
L 231.003423 370.559266 
L 231.143374 367.829968 
L 237.034287 367.829968 
L 237.175077 365.100669 
L 242.644662 365.100669 
L 242.785463 362.37137 
L 251.340784 362.37137 
L 251.481623 359.642072 
L 277.289359 359.642072 
L 277.429099 356.912773 
L 292.016129 356.912773 
L 292.157044 354.183474 
L 318.665485 354.183474 
L 318.806382 351.454176 
L 324.977832 351.454176 
L 325.117464 348.724877 
L 367.475927 348.724877 
L 367.616903 345.995578 
L 380.520788 345.995578 
L 380.660359 343.26628 
L 381.642731 343.26628 
L 381.782451 340.536981 
L 382.20372 340.536981 
L 382.343484 337.807682 
L 384.307127 337.807682 
L 384.447887 335.078384 
L 386.97261 335.078384 
L 387.112313 332.349085 
L 389.497287 332.349085 
L 389.636997 329.619786 
L 489.081484 329.619786 
L 489.222507 326.890488 
L 489.64248 326.890488 
L 489.64248 326.890488 
" clip-path="url(#pb72219bf21)" style="fill: none; stroke: #9467bd; stroke-width: 1.5; stroke-linecap: square"/>
   </g>
   <g id="patch_13">
    <path d="M 51.05 447.252558 
L 51.05 321.158961 
" style="fill: none; stroke: #000000; stroke-width: 0.8; stroke-linejoin: miter; stroke-linecap: square"/>
   </g>
   <g id="patch_14">
    <path d="M 489.64248 447.252558 
L 489.64248 321.158961 
" style="fill: none; stroke: #000000; stroke-width: 0.8; stroke-linejoin: miter; stroke-linecap: square"/>
   </g>
   <g id="patch_15">
    <path d="M 51.05 447.252558 
L 489.64248 447.252558 
" style="fill: none; stroke: #000000; stroke-width: 0.8; stroke-linejoin: miter; stroke-linecap: square"/>
   </g>
   <g id="patch_16">
    <path d="M 51.05 321.158961 
L 489.64248 321.158961 
" style="fill: none; stroke: #000000; stroke-width: 0.8; stroke-linejoin: miter; stroke-linecap: square"/>
   </g>
  </g>
  <g id="text_31">
   <!-- Weather data - March 2024 -->
   <g transform="translate(169.874063 19.198125) scale(0.12 -0.12)">
    <defs>
     <path id="DejaVuSans-57" d="M 213 4666 
L 850 4666 
L 1831 722 
L 2809 4666 
L 3519 4666 
L 4500 722 
L 5478 4666 
L 6119 4666 
L 4947 0 
L 4153 0 
L 3169 4050 
L 2175 0 
L 1381 0 
L 213 4666 
z
" transform="scale(0.015625)"/>
     <path id="DejaVuSans-68" d="M 3513 2113 
L 3513 0 
L 2938 0 
L 2938 2094 
Q 2938 2591 2744 2837 
Q 2550 3084 2163 3084 
Q 1697 3084 1428 2787 
Q 1159 2491 1159 1978 
L 1159 0 
L 581 0 
L 581 4863 
L 1159 4863 
L 1159 2956 
Q 1366 3272 1645 3428 
Q 1925 3584 2291 3584 
Q 2894 3584 3203 3211 
Q 3513 2838 3513 2113 
z
" transform="scale(0.015625)"/>
     <path id="DejaVuSans-4d" d="M 628 4666 
L 1569 4666 
L 2759 1491 
L 3956 4666 
L 4897 4666 
L 4897 0 
L 4281 0 
L 4281 4097 
L 3078 897 
L 2444 897 
L 1241 4097 
L 1241 0 
L 628 0 
L 628 4666 
z
" transform="scale(0.015625)"/>
     <path id="DejaVuSans-63" d="M 3122 3366 
L 3122 2828 
Q 2878 2963 2633 3030 
Q 2388 3097 2138 3097 
Q 1578 3097 1268 2742 
Q 959 2388 959 1747 
Q 959 1106 1268 751 
Q 1578 397 2138 397 
Q 2388 397 2633 464 
Q 2878 531 3122 666 
L 3122 134 
Q 2881 22 2623 -34 
Q 2366 -91 2075 -91 
Q 1284 -91 818 406 
Q 353 903 353 1747 
Q 353 2603 823 3093 
Q 1294 3584 2113 3584 
Q 2378 3584 2631 3529 
Q 2884 3475 3122 3366 
z
" transform="scale(0.015625)"/>
    </defs>
    <use xlink:href="#DejaVuSans-57"/>
    <use xlink:href="#DejaVuSans-65" x="93.001953"/>
    <use xlink:href="#DejaVuSans-61" x="154.525391"/>
    <use xlink:href="#DejaVuSans-74" x="215.804688"/>
    <use xlink:href="#DejaVuSans-68" x="255.013672"/>
    <use xlink:href="#DejaVuSans-65" x="318.392578"/>
    <use xlink:href="#DejaVuSans-72" x="379.916016"/>
    <use xlink:href="#DejaVuSans-20" x="421.029297"/>
    <use xlink:href="#DejaVuSans-64" x="452.816406"/>
    <use xlink:href="#DejaVuSans-61" x="516.292969"/>
    <use xlink:href="#DejaVuSans-74" x="577.572266"/>
    <use xlink:href="#DejaVuSans-61" x="616.78125"/>
    <use xlink:href="#DejaVuSans-20" x="678.060547"/>
    <use xlink:href="#DejaVuSans-2d" x="709.847656"/>
    <use xlink:href="#DejaVuSans-20" x="745.931641"/>
    <use xlink:href="#DejaVuSans-4d" x="777.71875"/>
    <use xlink:href="#DejaVuSans-61" x="863.998047"/>
    <use xlink:href="#DejaVuSans-72" x="925.277344"/>
    <use xlink:href="#DejaVuSans-63" x="964.140625"/>
    <use xlink:href="#DejaVuSans-68" x="1019.121094"/>
    <use xlink:href="#DejaVuSans-20" x="1082.5"/>
    <use xlink:href="#DejaVuSans-32" x="1114.287109"/>
    <use xlink:href="#DejaVuSans-30" x="1177.910156"/>
    <use xlink:href="#DejaVuSans-32" x="1241.533203"/>
    <use xlink:href="#DejaVuSans-34" x="1305.15625"/>
   </g>
  </g>
 </g>
 <defs>
  <clipPath id="pb10a3bb0a5">
   <rect x="51.05" y="32.4" width="438.59248" height="126.093598"/>
  </clipPath>
  <clipPath id="p3add6a1553">
   <rect x="51.05" y="176.77948" width="438.59248" height="126.093598"/>
  </clipPath>
  <clipPath id="pb72219bf21">
   <rect x="51.05" y="321.158961" width="438.59248" height="126.093598"/>
  </clipPath>
 </defs>
</svg>
