<?xml version="1.0" encoding="utf-8" standalone="no"?>
<!DOCTYPE svg PUBLIC "-//W3C//DTD SVG 1.1//EN"
  "http://www.w3.org/Graphics/SVG/1.1/DTD/svg11.dtd">
<svg xmlns:xlink="http://www.w3.org/1999/xlink" width="504pt" height="504pt" viewBox="0 0 504 504" xmlns="http://www.w3.org/2000/svg" version="1.1">
 <metadata>
  <rdf:RDF xmlns:dc="http://purl.org/dc/elements/1.1/" xmlns:cc="http://creativecommons.org/ns#" xmlns:rdf="http://www.w3.org/1999/02/22-rdf-syntax-ns#">
   <cc:Work>
    <dc:type rdf:resource="http://purl.org/dc/dcmitype/StillImage"/>
    <dc:date>2024-02-05T07:18:25.859169</dc:date>
    <dc:format>image/svg+xml</dc:format>
    <dc:creator>
     <cc:Agent>
      <dc:title>Matplotlib v3.6.3, https://matplotlib.org/</dc:title>
     </cc:Agent>
    </dc:creator>
   </cc:Work>
  </rdf:RDF>
 </metadata>
 <defs>
  <style type="text/css">*{stroke-linejoin: round; stroke-linecap: butt}</style>
 </defs>
 <g id="figure_1">
  <g id="patch_1">
   <path d="M 0 504 
L 504 504 
L 504 0 
L 0 0 
z
" style="fill: #ffffff"/>
  </g>
  <g id="axes_1">
   <g id="patch_2">
    <path d="M 54.2 158.510853 
L 493.2 158.510853 
L 493.2 32.4 
L 54.2 32.4 
z
" style="fill: #ffffff"/>
   </g>
   <g id="matplotlib.axis_1">
    <g id="xtick_1">
     <g id="line2d_1">
      <path d="M 74.345929 158.510853 
L 74.345929 32.4 
" clip-path="url(#p64089a2868)" style="fill: none; stroke: #b0b0b0; stroke-width: 0.8; stroke-linecap: square"/>
     </g>
     <g id="line2d_2">
      <defs>
       <path id="m56a5a011e3" d="M 0 0 
L 0 3.5 
" style="stroke: #000000; stroke-width: 0.8"/>
      </defs>
      <g>
       <use xlink:href="#m56a5a011e3" x="74.345929" y="158.510853" style="stroke: #000000; stroke-width: 0.8"/>
      </g>
     </g>
    </g>
    <g id="xtick_2">
     <g id="line2d_3">
      <path d="M 129.130336 158.510853 
L 129.130336 32.4 
" clip-path="url(#p64089a2868)" style="fill: none; stroke: #b0b0b0; stroke-width: 0.8; stroke-linecap: square"/>
     </g>
     <g id="line2d_4">
      <g>
       <use xlink:href="#m56a5a011e3" x="129.130336" y="158.510853" style="stroke: #000000; stroke-width: 0.8"/>
      </g>
     </g>
    </g>
    <g id="xtick_3">
     <g id="line2d_5">
      <path d="M 183.914744 158.510853 
L 183.914744 32.4 
" clip-path="url(#p64089a2868)" style="fill: none; stroke: #b0b0b0; stroke-width: 0.8; stroke-linecap: square"/>
     </g>
     <g id="line2d_6">
      <g>
       <use xlink:href="#m56a5a011e3" x="183.914744" y="158.510853" style="stroke: #000000; stroke-width: 0.8"/>
      </g>
     </g>
    </g>
    <g id="xtick_4">
     <g id="line2d_7">
      <path d="M 238.699151 158.510853 
L 238.699151 32.4 
" clip-path="url(#p64089a2868)" style="fill: none; stroke: #b0b0b0; stroke-width: 0.8; stroke-linecap: square"/>
     </g>
     <g id="line2d_8">
      <g>
       <use xlink:href="#m56a5a011e3" x="238.699151" y="158.510853" style="stroke: #000000; stroke-width: 0.8"/>
      </g>
     </g>
    </g>
    <g id="xtick_5">
     <g id="line2d_9">
      <path d="M 293.483558 158.510853 
L 293.483558 32.4 
" clip-path="url(#p64089a2868)" style="fill: none; stroke: #b0b0b0; stroke-width: 0.8; stroke-linecap: square"/>
     </g>
     <g id="line2d_10">
      <g>
       <use xlink:href="#m56a5a011e3" x="293.483558" y="158.510853" style="stroke: #000000; stroke-width: 0.8"/>
      </g>
     </g>
    </g>
    <g id="xtick_6">
     <g id="line2d_11">
      <path d="M 348.267965 158.510853 
L 348.267965 32.4 
" clip-path="url(#p64089a2868)" style="fill: none; stroke: #b0b0b0; stroke-width: 0.8; stroke-linecap: square"/>
     </g>
     <g id="line2d_12">
      <g>
       <use xlink:href="#m56a5a011e3" x="348.267965" y="158.510853" style="stroke: #000000; stroke-width: 0.8"/>
      </g>
     </g>
    </g>
    <g id="xtick_7">
     <g id="line2d_13">
      <path d="M 403.052373 158.510853 
L 403.052373 32.4 
" clip-path="url(#p64089a2868)" style="fill: none; stroke: #b0b0b0; stroke-width: 0.8; stroke-linecap: square"/>
     </g>
     <g id="line2d_14">
      <g>
       <use xlink:href="#m56a5a011e3" x="403.052373" y="158.510853" style="stroke: #000000; stroke-width: 0.8"/>
      </g>
     </g>
    </g>
    <g id="xtick_8">
     <g id="line2d_15">
      <path d="M 457.83678 158.510853 
L 457.83678 32.4 
" clip-path="url(#p64089a2868)" style="fill: none; stroke: #b0b0b0; stroke-width: 0.8; stroke-linecap: square"/>
     </g>
     <g id="line2d_16">
      <g>
       <use xlink:href="#m56a5a011e3" x="457.83678" y="158.510853" style="stroke: #000000; stroke-width: 0.8"/>
      </g>
     </g>
    </g>
   </g>
   <g id="matplotlib.axis_2">
    <g id="ytick_1">
     <g id="line2d_17">
      <path d="M 54.2 136.565943 
L 493.2 136.565943 
" clip-path="url(#p64089a2868)" style="fill: none; stroke: #b0b0b0; stroke-width: 0.8; stroke-linecap: square"/>
     </g>
     <g id="line2d_18">
      <defs>
       <path id="ma23ad17dc5" d="M 0 0 
L -3.5 0 
" style="stroke: #000000; stroke-width: 0.8"/>
      </defs>
      <g>
       <use xlink:href="#ma23ad17dc5" x="54.2" y="136.565943" style="stroke: #000000; stroke-width: 0.8"/>
      </g>
     </g>
     <g id="text_1">
      <!-- 8 -->
      <g transform="translate(40.8375 140.365162) scale(0.1 -0.1)">
       <defs>
        <path id="DejaVuSans-38" d="M 2034 2216 
Q 1584 2216 1326 1975 
Q 1069 1734 1069 1313 
Q 1069 891 1326 650 
Q 1584 409 2034 409 
Q 2484 409 2743 651 
Q 3003 894 3003 1313 
Q 3003 1734 2745 1975 
Q 2488 2216 2034 2216 
z
M 1403 2484 
Q 997 2584 770 2862 
Q 544 3141 544 3541 
Q 544 4100 942 4425 
Q 1341 4750 2034 4750 
Q 2731 4750 3128 4425 
Q 3525 4100 3525 3541 
Q 3525 3141 3298 2862 
Q 3072 2584 2669 2484 
Q 3125 2378 3379 2068 
Q 3634 1759 3634 1313 
Q 3634 634 3220 271 
Q 2806 -91 2034 -91 
Q 1263 -91 848 271 
Q 434 634 434 1313 
Q 434 1759 690 2068 
Q 947 2378 1403 2484 
z
M 1172 3481 
Q 1172 3119 1398 2916 
Q 1625 2713 2034 2713 
Q 2441 2713 2670 2916 
Q 2900 3119 2900 3481 
Q 2900 3844 2670 4047 
Q 2441 4250 2034 4250 
Q 1625 4250 1398 4047 
Q 1172 3844 1172 3481 
z
" transform="scale(0.015625)"/>
       </defs>
       <use xlink:href="#DejaVuSans-38"/>
      </g>
     </g>
    </g>
    <g id="ytick_2">
     <g id="line2d_19">
      <path d="M 54.2 113.405089 
L 493.2 113.405089 
" clip-path="url(#p64089a2868)" style="fill: none; stroke: #b0b0b0; stroke-width: 0.8; stroke-linecap: square"/>
     </g>
     <g id="line2d_20">
      <g>
       <use xlink:href="#ma23ad17dc5" x="54.2" y="113.405089" style="stroke: #000000; stroke-width: 0.8"/>
      </g>
     </g>
     <g id="text_2">
      <!-- 10 -->
      <g transform="translate(34.475 117.204307) scale(0.1 -0.1)">
       <defs>
        <path id="DejaVuSans-31" d="M 794 531 
L 1825 531 
L 1825 4091 
L 703 3866 
L 703 4441 
L 1819 4666 
L 2450 4666 
L 2450 531 
L 3481 531 
L 3481 0 
L 794 0 
L 794 531 
z
" transform="scale(0.015625)"/>
        <path id="DejaVuSans-30" d="M 2034 4250 
Q 1547 4250 1301 3770 
Q 1056 3291 1056 2328 
Q 1056 1369 1301 889 
Q 1547 409 2034 409 
Q 2525 409 2770 889 
Q 3016 1369 3016 2328 
Q 3016 3291 2770 3770 
Q 2525 4250 2034 4250 
z
M 2034 4750 
Q 2819 4750 3233 4129 
Q 3647 3509 3647 2328 
Q 3647 1150 3233 529 
Q 2819 -91 2034 -91 
Q 1250 -91 836 529 
Q 422 1150 422 2328 
Q 422 3509 836 4129 
Q 1250 4750 2034 4750 
z
" transform="scale(0.015625)"/>
       </defs>
       <use xlink:href="#DejaVuSans-31"/>
       <use xlink:href="#DejaVuSans-30" x="63.623047"/>
      </g>
     </g>
    </g>
    <g id="ytick_3">
     <g id="line2d_21">
      <path d="M 54.2 90.244234 
L 493.2 90.244234 
" clip-path="url(#p64089a2868)" style="fill: none; stroke: #b0b0b0; stroke-width: 0.8; stroke-linecap: square"/>
     </g>
     <g id="line2d_22">
      <g>
       <use xlink:href="#ma23ad17dc5" x="54.2" y="90.244234" style="stroke: #000000; stroke-width: 0.8"/>
      </g>
     </g>
     <g id="text_3">
      <!-- 12 -->
      <g transform="translate(34.475 94.043453) scale(0.1 -0.1)">
       <defs>
        <path id="DejaVuSans-32" d="M 1228 531 
L 3431 531 
L 3431 0 
L 469 0 
L 469 531 
Q 828 903 1448 1529 
Q 2069 2156 2228 2338 
Q 2531 2678 2651 2914 
Q 2772 3150 2772 3378 
Q 2772 3750 2511 3984 
Q 2250 4219 1831 4219 
Q 1534 4219 1204 4116 
Q 875 4013 500 3803 
L 500 4441 
Q 881 4594 1212 4672 
Q 1544 4750 1819 4750 
Q 2544 4750 2975 4387 
Q 3406 4025 3406 3419 
Q 3406 3131 3298 2873 
Q 3191 2616 2906 2266 
Q 2828 2175 2409 1742 
Q 1991 1309 1228 531 
z
" transform="scale(0.015625)"/>
       </defs>
       <use xlink:href="#DejaVuSans-31"/>
       <use xlink:href="#DejaVuSans-32" x="63.623047"/>
      </g>
     </g>
    </g>
    <g id="ytick_4">
     <g id="line2d_23">
      <path d="M 54.2 67.08338 
L 493.2 67.08338 
" clip-path="url(#p64089a2868)" style="fill: none; stroke: #b0b0b0; stroke-width: 0.8; stroke-linecap: square"/>
     </g>
     <g id="line2d_24">
      <g>
       <use xlink:href="#ma23ad17dc5" x="54.2" y="67.08338" style="stroke: #000000; stroke-width: 0.8"/>
      </g>
     </g>
     <g id="text_4">
      <!-- 14 -->
      <g transform="translate(34.475 70.882598) scale(0.1 -0.1)">
       <defs>
        <path id="DejaVuSans-34" d="M 2419 4116 
L 825 1625 
L 2419 1625 
L 2419 4116 
z
M 2253 4666 
L 3047 4666 
L 3047 1625 
L 3713 1625 
L 3713 1100 
L 3047 1100 
L 3047 0 
L 2419 0 
L 2419 1100 
L 313 1100 
L 313 1709 
L 2253 4666 
z
" transform="scale(0.015625)"/>
       </defs>
       <use xlink:href="#DejaVuSans-31"/>
       <use xlink:href="#DejaVuSans-34" x="63.623047"/>
      </g>
     </g>
    </g>
    <g id="ytick_5">
     <g id="line2d_25">
      <path d="M 54.2 43.922525 
L 493.2 43.922525 
" clip-path="url(#p64089a2868)" style="fill: none; stroke: #b0b0b0; stroke-width: 0.8; stroke-linecap: square"/>
     </g>
     <g id="line2d_26">
      <g>
       <use xlink:href="#ma23ad17dc5" x="54.2" y="43.922525" style="stroke: #000000; stroke-width: 0.8"/>
      </g>
     </g>
     <g id="text_5">
      <!-- 16 -->
      <g transform="translate(34.475 47.721744) scale(0.1 -0.1)">
       <defs>
        <path id="DejaVuSans-36" d="M 2113 2584 
Q 1688 2584 1439 2293 
Q 1191 2003 1191 1497 
Q 1191 994 1439 701 
Q 1688 409 2113 409 
Q 2538 409 2786 701 
Q 3034 994 3034 1497 
Q 3034 2003 2786 2293 
Q 2538 2584 2113 2584 
z
M 3366 4563 
L 3366 3988 
Q 3128 4100 2886 4159 
Q 2644 4219 2406 4219 
Q 1781 4219 1451 3797 
Q 1122 3375 1075 2522 
Q 1259 2794 1537 2939 
Q 1816 3084 2150 3084 
Q 2853 3084 3261 2657 
Q 3669 2231 3669 1497 
Q 3669 778 3244 343 
Q 2819 -91 2113 -91 
Q 1303 -91 875 529 
Q 447 1150 447 2328 
Q 447 3434 972 4092 
Q 1497 4750 2381 4750 
Q 2619 4750 2861 4703 
Q 3103 4656 3366 4563 
z
" transform="scale(0.015625)"/>
       </defs>
       <use xlink:href="#DejaVuSans-31"/>
       <use xlink:href="#DejaVuSans-36" x="63.623047"/>
      </g>
     </g>
    </g>
    <g id="text_6">
     <!-- Temperature [°C] -->
     <g transform="translate(28.395313 138.606989) rotate(-90) scale(0.1 -0.1)">
      <defs>
       <path id="DejaVuSans-54" d="M -19 4666 
L 3928 4666 
L 3928 4134 
L 2272 4134 
L 2272 0 
L 1638 0 
L 1638 4134 
L -19 4134 
L -19 4666 
z
" transform="scale(0.015625)"/>
       <path id="DejaVuSans-65" d="M 3597 1894 
L 3597 1613 
L 953 1613 
Q 991 1019 1311 708 
Q 1631 397 2203 397 
Q 2534 397 2845 478 
Q 3156 559 3463 722 
L 3463 178 
Q 3153 47 2828 -22 
Q 2503 -91 2169 -91 
Q 1331 -91 842 396 
Q 353 884 353 1716 
Q 353 2575 817 3079 
Q 1281 3584 2069 3584 
Q 2775 3584 3186 3129 
Q 3597 2675 3597 1894 
z
M 3022 2063 
Q 3016 2534 2758 2815 
Q 2500 3097 2075 3097 
Q 1594 3097 1305 2825 
Q 1016 2553 972 2059 
L 3022 2063 
z
" transform="scale(0.015625)"/>
       <path id="DejaVuSans-6d" d="M 3328 2828 
Q 3544 3216 3844 3400 
Q 4144 3584 4550 3584 
Q 5097 3584 5394 3201 
Q 5691 2819 5691 2113 
L 5691 0 
L 5113 0 
L 5113 2094 
Q 5113 2597 4934 2840 
Q 4756 3084 4391 3084 
Q 3944 3084 3684 2787 
Q 3425 2491 3425 1978 
L 3425 0 
L 2847 0 
L 2847 2094 
Q 2847 2600 2669 2842 
Q 2491 3084 2119 3084 
Q 1678 3084 1418 2786 
Q 1159 2488 1159 1978 
L 1159 0 
L 581 0 
L 581 3500 
L 1159 3500 
L 1159 2956 
Q 1356 3278 1631 3431 
Q 1906 3584 2284 3584 
Q 2666 3584 2933 3390 
Q 3200 3197 3328 2828 
z
" transform="scale(0.015625)"/>
       <path id="DejaVuSans-70" d="M 1159 525 
L 1159 -1331 
L 581 -1331 
L 581 3500 
L 1159 3500 
L 1159 2969 
Q 1341 3281 1617 3432 
Q 1894 3584 2278 3584 
Q 2916 3584 3314 3078 
Q 3713 2572 3713 1747 
Q 3713 922 3314 415 
Q 2916 -91 2278 -91 
Q 1894 -91 1617 61 
Q 1341 213 1159 525 
z
M 3116 1747 
Q 3116 2381 2855 2742 
Q 2594 3103 2138 3103 
Q 1681 3103 1420 2742 
Q 1159 2381 1159 1747 
Q 1159 1113 1420 752 
Q 1681 391 2138 391 
Q 2594 391 2855 752 
Q 3116 1113 3116 1747 
z
" transform="scale(0.015625)"/>
       <path id="DejaVuSans-72" d="M 2631 2963 
Q 2534 3019 2420 3045 
Q 2306 3072 2169 3072 
Q 1681 3072 1420 2755 
Q 1159 2438 1159 1844 
L 1159 0 
L 581 0 
L 581 3500 
L 1159 3500 
L 1159 2956 
Q 1341 3275 1631 3429 
Q 1922 3584 2338 3584 
Q 2397 3584 2469 3576 
Q 2541 3569 2628 3553 
L 2631 2963 
z
" transform="scale(0.015625)"/>
       <path id="DejaVuSans-61" d="M 2194 1759 
Q 1497 1759 1228 1600 
Q 959 1441 959 1056 
Q 959 750 1161 570 
Q 1363 391 1709 391 
Q 2188 391 2477 730 
Q 2766 1069 2766 1631 
L 2766 1759 
L 2194 1759 
z
M 3341 1997 
L 3341 0 
L 2766 0 
L 2766 531 
Q 2569 213 2275 61 
Q 1981 -91 1556 -91 
Q 1019 -91 701 211 
Q 384 513 384 1019 
Q 384 1609 779 1909 
Q 1175 2209 1959 2209 
L 2766 2209 
L 2766 2266 
Q 2766 2663 2505 2880 
Q 2244 3097 1772 3097 
Q 1472 3097 1187 3025 
Q 903 2953 641 2809 
L 641 3341 
Q 956 3463 1253 3523 
Q 1550 3584 1831 3584 
Q 2591 3584 2966 3190 
Q 3341 2797 3341 1997 
z
" transform="scale(0.015625)"/>
       <path id="DejaVuSans-74" d="M 1172 4494 
L 1172 3500 
L 2356 3500 
L 2356 3053 
L 1172 3053 
L 1172 1153 
Q 1172 725 1289 603 
Q 1406 481 1766 481 
L 2356 481 
L 2356 0 
L 1766 0 
Q 1100 0 847 248 
Q 594 497 594 1153 
L 594 3053 
L 172 3053 
L 172 3500 
L 594 3500 
L 594 4494 
L 1172 4494 
z
" transform="scale(0.015625)"/>
       <path id="DejaVuSans-75" d="M 544 1381 
L 544 3500 
L 1119 3500 
L 1119 1403 
Q 1119 906 1312 657 
Q 1506 409 1894 409 
Q 2359 409 2629 706 
Q 2900 1003 2900 1516 
L 2900 3500 
L 3475 3500 
L 3475 0 
L 2900 0 
L 2900 538 
Q 2691 219 2414 64 
Q 2138 -91 1772 -91 
Q 1169 -91 856 284 
Q 544 659 544 1381 
z
M 1991 3584 
L 1991 3584 
z
" transform="scale(0.015625)"/>
       <path id="DejaVuSans-20" transform="scale(0.015625)"/>
       <path id="DejaVuSans-5b" d="M 550 4863 
L 1875 4863 
L 1875 4416 
L 1125 4416 
L 1125 -397 
L 1875 -397 
L 1875 -844 
L 550 -844 
L 550 4863 
z
" transform="scale(0.015625)"/>
       <path id="DejaVuSans-b0" d="M 1600 4347 
Q 1350 4347 1178 4173 
Q 1006 4000 1006 3750 
Q 1006 3503 1178 3333 
Q 1350 3163 1600 3163 
Q 1850 3163 2022 3333 
Q 2194 3503 2194 3750 
Q 2194 3997 2020 4172 
Q 1847 4347 1600 4347 
z
M 1600 4750 
Q 1800 4750 1984 4673 
Q 2169 4597 2303 4453 
Q 2447 4313 2519 4134 
Q 2591 3956 2591 3750 
Q 2591 3338 2302 3052 
Q 2013 2766 1594 2766 
Q 1172 2766 890 3047 
Q 609 3328 609 3750 
Q 609 4169 896 4459 
Q 1184 4750 1600 4750 
z
" transform="scale(0.015625)"/>
       <path id="DejaVuSans-43" d="M 4122 4306 
L 4122 3641 
Q 3803 3938 3442 4084 
Q 3081 4231 2675 4231 
Q 1875 4231 1450 3742 
Q 1025 3253 1025 2328 
Q 1025 1406 1450 917 
Q 1875 428 2675 428 
Q 3081 428 3442 575 
Q 3803 722 4122 1019 
L 4122 359 
Q 3791 134 3420 21 
Q 3050 -91 2638 -91 
Q 1578 -91 968 557 
Q 359 1206 359 2328 
Q 359 3453 968 4101 
Q 1578 4750 2638 4750 
Q 3056 4750 3426 4639 
Q 3797 4528 4122 4306 
z
" transform="scale(0.015625)"/>
       <path id="DejaVuSans-5d" d="M 1947 4863 
L 1947 -844 
L 622 -844 
L 622 -397 
L 1369 -397 
L 1369 4416 
L 622 4416 
L 622 4863 
L 1947 4863 
z
" transform="scale(0.015625)"/>
      </defs>
      <use xlink:href="#DejaVuSans-54"/>
      <use xlink:href="#DejaVuSans-65" x="44.083984"/>
      <use xlink:href="#DejaVuSans-6d" x="105.607422"/>
      <use xlink:href="#DejaVuSans-70" x="203.019531"/>
      <use xlink:href="#DejaVuSans-65" x="266.496094"/>
      <use xlink:href="#DejaVuSans-72" x="328.019531"/>
      <use xlink:href="#DejaVuSans-61" x="369.132812"/>
      <use xlink:href="#DejaVuSans-74" x="430.412109"/>
      <use xlink:href="#DejaVuSans-75" x="469.621094"/>
      <use xlink:href="#DejaVuSans-72" x="533"/>
      <use xlink:href="#DejaVuSans-65" x="571.863281"/>
      <use xlink:href="#DejaVuSans-20" x="633.386719"/>
      <use xlink:href="#DejaVuSans-5b" x="665.173828"/>
      <use xlink:href="#DejaVuSans-b0" x="704.1875"/>
      <use xlink:href="#DejaVuSans-43" x="754.1875"/>
      <use xlink:href="#DejaVuSans-5d" x="824.011719"/>
     </g>
    </g>
   </g>
   <g id="line2d_27">
    <path d="M 54.2 38.132311 
L 56.391389 38.132311 
L 56.758412 39.290354 
L 57.121805 39.290354 
L 57.488069 41.60644 
L 57.852299 41.60644 
L 58.218899 42.764482 
L 58.582716 42.764482 
L 58.949206 41.60644 
L 60.043594 41.60644 
L 60.409708 40.448397 
L 65.523241 40.448397 
L 65.887184 41.60644 
L 66.62075 41.60644 
L 67.71469 45.080568 
L 68.078507 45.080568 
L 68.808975 47.396653 
L 69.539414 47.396653 
L 69.906152 48.554696 
L 71.730769 48.554696 
L 72.097886 49.712739 
L 72.827275 49.712739 
L 73.194796 50.870781 
L 73.922146 50.870781 
L 74.288432 52.028824 
L 77.94046 52.028824 
L 78.304869 53.186867 
L 79.40102 53.186867 
L 79.765725 54.34491 
L 80.496095 53.186867 
L 81.957088 53.186867 
L 82.323385 54.34491 
L 86.339716 54.34491 
L 87.07281 55.502952 
L 88.167061 55.502952 
L 88.531044 56.660995 
L 91.452773 56.660995 
L 92.18321 57.819038 
L 93.646453 57.819038 
L 94.374555 58.977081 
L 99.123271 58.977081 
L 99.487639 60.135123 
L 102.409459 60.135123 
L 102.775265 61.293166 
L 105.331205 61.293166 
L 105.697331 62.451209 
L 106.061691 62.451209 
L 106.427665 61.293166 
L 106.792102 61.293166 
L 107.157922 62.451209 
L 110.079901 62.451209 
L 110.444299 63.609251 
L 113.001612 63.609251 
L 113.366125 64.767294 
L 117.018344 64.767294 
L 117.748799 67.08338 
L 118.114817 67.08338 
L 118.846285 69.399465 
L 119.209718 69.399465 
L 119.57592 70.557508 
L 120.306208 75.189679 
L 120.670583 76.347721 
L 121.403718 79.82185 
L 121.76671 80.979892 
L 122.497652 80.979892 
L 122.861929 82.137935 
L 123.592354 82.137935 
L 123.958495 83.295978 
L 124.322848 83.295978 
L 125.419431 86.770106 
L 125.783715 86.770106 
L 126.149946 87.928149 
L 127.977472 87.928149 
L 128.340122 89.086191 
L 129.435949 89.086191 
L 129.801671 90.244234 
L 130.166429 90.244234 
L 130.532548 91.402277 
L 130.896847 91.402277 
L 131.262523 92.56032 
L 131.993413 92.56032 
L 132.723985 94.876405 
L 133.088201 94.876405 
L 133.454251 96.034448 
L 137.837408 96.034448 
L 138.201319 94.876405 
L 138.567461 96.034448 
L 139.662241 96.034448 
L 140.028329 97.192491 
L 140.392718 97.192491 
L 140.758951 98.350533 
L 143.68083 98.350533 
L 144.04491 99.508576 
L 145.505815 99.508576 
L 145.872017 100.666619 
L 146.236179 100.666619 
L 146.602839 101.824661 
L 147.332866 101.824661 
L 148.063089 104.140747 
L 148.430029 104.140747 
L 149.157979 105.29879 
L 149.523943 106.456832 
L 150.254809 106.456832 
L 150.618894 107.614875 
L 151.349356 107.614875 
L 151.715458 108.772918 
L 152.079781 107.614875 
L 153.90709 107.614875 
L 154.271145 108.772918 
L 155.001563 109.93096 
L 156.828584 109.93096 
L 157.192898 111.089003 
L 157.923408 111.089003 
L 158.289731 112.247046 
L 158.653848 112.247046 
L 159.020315 113.405089 
L 159.750277 113.405089 
L 160.114729 114.563131 
L 160.481128 114.563131 
L 160.845161 115.721174 
L 161.211432 115.721174 
L 161.575617 113.405089 
L 162.671302 113.405089 
L 163.036473 114.563131 
L 163.402561 114.563131 
L 163.766954 115.721174 
L 164.864042 115.721174 
L 165.227871 116.879217 
L 167.054906 116.879217 
L 167.419244 118.03726 
L 168.149694 118.03726 
L 168.515777 119.195302 
L 168.882663 119.195302 
L 169.976582 115.721174 
L 170.707245 112.247046 
L 172.898683 112.247046 
L 173.262815 113.405089 
L 174.723713 113.405089 
L 175.089779 114.563131 
L 175.454138 114.563131 
L 176.187343 115.721174 
L 177.645502 115.721174 
L 178.011825 116.879217 
L 180.202939 116.879217 
L 180.567307 115.721174 
L 181.297755 115.721174 
L 181.663743 116.879217 
L 182.028202 115.721174 
L 182.761001 115.721174 
L 183.489114 116.879217 
L 184.585747 116.879217 
L 185.315793 119.195302 
L 189.332683 119.195302 
L 190.063094 120.353345 
L 190.79355 120.353345 
L 191.159775 119.195302 
L 192.620633 119.195302 
L 192.984911 120.353345 
L 193.715336 120.353345 
L 194.082422 121.511388 
L 195.906706 121.511388 
L 196.639566 122.66943 
L 198.098058 122.66943 
L 198.464147 123.827473 
L 199.924945 123.827473 
L 200.289389 124.985516 
L 201.750323 124.985516 
L 202.116343 126.143559 
L 202.480757 126.143559 
L 202.846655 127.301601 
L 203.213839 127.301601 
L 203.94164 128.459644 
L 204.672081 128.459644 
L 205.037773 129.617687 
L 205.402528 128.459644 
L 207.229498 128.459644 
L 207.593867 127.301601 
L 208.690342 127.301601 
L 209.054771 126.143559 
L 209.785188 126.143559 
L 210.517829 127.301601 
L 210.88142 128.459644 
L 212.34263 128.459644 
L 212.707013 127.301601 
L 214.898389 127.301601 
L 215.264348 128.459644 
L 215.628807 128.459644 
L 215.994955 129.617687 
L 216.725526 129.617687 
L 217.092155 130.77573 
L 217.454848 129.617687 
L 217.820176 129.617687 
L 218.186392 128.459644 
L 218.550616 129.617687 
L 219.281049 129.617687 
L 219.646946 130.77573 
L 220.011496 130.77573 
L 220.377539 131.933772 
L 222.568663 131.933772 
L 222.933306 133.091815 
L 223.299241 133.091815 
L 223.665869 134.249858 
L 224.394225 133.091815 
L 226.951532 133.091815 
L 227.316052 134.249858 
L 227.682123 134.249858 
L 228.046491 135.4079 
L 228.412404 135.4079 
L 228.776924 136.565943 
L 229.874144 136.565943 
L 230.237798 137.723986 
L 230.970777 137.723986 
L 231.333776 138.882029 
L 233.525539 138.882029 
L 233.890045 137.723986 
L 235.35094 137.723986 
L 235.717044 136.565943 
L 236.081411 136.565943 
L 236.447605 135.4079 
L 237.177863 135.4079 
L 237.544819 136.565943 
L 238.272732 137.723986 
L 243.021304 137.723986 
L 243.385924 136.565943 
L 244.116405 136.565943 
L 244.846649 137.723986 
L 245.577267 137.723986 
L 245.943332 138.882029 
L 248.134674 138.882029 
L 248.499022 140.040071 
L 250.326252 140.040071 
L 250.690408 138.882029 
L 251.423794 138.882029 
L 251.786116 137.723986 
L 252.151306 137.723986 
L 252.517683 138.882029 
L 252.881771 138.882029 
L 253.247934 140.040071 
L 255.439753 140.040071 
L 255.80359 138.882029 
L 257.630832 138.882029 
L 257.997551 140.040071 
L 258.725374 141.198114 
L 259.455822 141.198114 
L 260.186263 138.882029 
L 262.3776 138.882029 
L 262.743962 140.040071 
L 263.474259 140.040071 
L 263.838491 141.198114 
L 265.665019 141.198114 
L 266.029836 142.356157 
L 268.587688 142.356157 
L 268.951675 143.5142 
L 270.412537 143.5142 
L 270.778547 144.672242 
L 271.509188 144.672242 
L 271.87609 143.5142 
L 272.603931 144.672242 
L 272.970302 145.830285 
L 274.431147 145.830285 
L 275.16149 143.5142 
L 275.525707 143.5142 
L 276.256165 141.198114 
L 276.986629 141.198114 
L 277.352907 140.040071 
L 279.1779 140.040071 
L 279.543936 141.198114 
L 280.274644 141.198114 
L 280.638898 142.356157 
L 281.004932 142.356157 
L 281.369287 143.5142 
L 281.735489 143.5142 
L 282.099743 144.672242 
L 282.466029 144.672242 
L 282.830245 145.830285 
L 283.927179 145.830285 
L 284.291098 146.988328 
L 287.21294 146.988328 
L 287.57947 145.830285 
L 291.595621 145.830285 
L 291.962089 146.988328 
L 295.247898 146.988328 
L 295.614077 145.830285 
L 297.075242 145.830285 
L 297.439237 144.672242 
L 299.633005 144.672242 
L 299.996278 143.5142 
L 302.18841 143.5142 
L 302.55242 142.356157 
L 302.918972 142.356157 
L 303.282855 141.198114 
L 304.37956 141.198114 
L 304.743775 142.356157 
L 307.301365 142.356157 
L 307.665567 143.5142 
L 308.762401 143.5142 
L 309.12648 144.672242 
L 309.492714 144.672242 
L 309.856953 145.830285 
L 312.414412 145.830285 
L 312.778742 144.672242 
L 313.509154 143.5142 
L 314.239564 145.830285 
L 315.70053 145.830285 
L 316.066727 144.672242 
L 317.161416 144.672242 
L 317.527822 143.5142 
L 318.988706 143.5142 
L 319.352741 144.672242 
L 320.813663 144.672242 
L 321.544098 143.5142 
L 323.005005 143.5142 
L 323.371389 142.356157 
L 323.735515 142.356157 
L 324.101664 143.5142 
L 325.196398 143.5142 
L 325.562684 144.672242 
L 325.926803 143.5142 
L 326.292966 143.5142 
L 326.659883 142.356157 
L 327.387754 141.198114 
L 327.753851 140.040071 
L 329.945592 140.040071 
L 330.309522 141.198114 
L 331.039978 141.198114 
L 331.406135 142.356157 
L 332.867299 142.356157 
L 333.231311 143.5142 
L 333.964217 142.356157 
L 336.153132 142.356157 
L 336.519304 143.5142 
L 337.614037 143.5142 
L 337.980148 144.672242 
L 340.538202 144.672242 
L 341.266261 146.988328 
L 341.63257 146.988328 
L 341.996725 148.14637 
L 342.362746 146.988328 
L 342.727213 146.988328 
L 343.093339 145.830285 
L 344.918538 145.830285 
L 345.649018 148.14637 
L 346.015312 148.14637 
L 347.109887 144.672242 
L 347.840344 143.5142 
L 348.93733 146.988328 
L 349.301218 146.988328 
L 350.031729 149.304413 
L 352.223084 149.304413 
L 352.953511 150.462456 
L 353.319912 151.620499 
L 353.683953 151.620499 
L 354.416822 150.462456 
L 354.779797 150.462456 
L 355.511404 148.14637 
L 356.241669 148.14637 
L 356.605779 149.304413 
L 356.972241 149.304413 
L 357.336197 150.462456 
L 358.433412 150.462456 
L 359.163641 148.14637 
L 359.527569 148.14637 
L 359.893794 146.988328 
L 362.085156 146.988328 
L 362.449381 148.14637 
L 362.815971 148.14637 
L 363.179822 146.988328 
L 363.545963 146.988328 
L 363.910225 145.830285 
L 364.276786 145.830285 
L 364.640713 144.672242 
L 365.007091 145.830285 
L 365.737659 145.830285 
L 366.101625 146.988328 
L 366.46794 146.988328 
L 366.832109 145.830285 
L 369.023425 145.830285 
L 369.389649 146.988328 
L 369.753859 146.988328 
L 370.119969 148.14637 
L 370.484353 148.14637 
L 371.214762 145.830285 
L 373.042054 145.830285 
L 373.772518 148.14637 
L 374.502784 148.14637 
L 374.869723 149.304413 
L 376.327912 149.304413 
L 376.69426 150.462456 
L 377.424487 150.462456 
L 377.788826 149.304413 
L 378.155089 146.988328 
L 378.519304 146.988328 
L 378.885385 145.830285 
L 380.346244 145.830285 
L 380.710599 146.988328 
L 382.171503 146.988328 
L 382.537577 145.830285 
L 383.632424 145.830285 
L 383.9975 146.988328 
L 384.362905 146.988328 
L 384.729075 148.14637 
L 385.459707 148.14637 
L 385.823764 149.304413 
L 386.190247 149.304413 
L 386.55425 150.462456 
L 387.284722 150.462456 
L 387.651084 149.304413 
L 388.015179 149.304413 
L 388.748017 148.14637 
L 389.842568 148.14637 
L 390.206464 149.304413 
L 392.033693 149.304413 
L 392.397872 150.462456 
L 392.764295 150.462456 
L 393.128276 151.620499 
L 393.494562 151.620499 
L 393.85877 150.462456 
L 395.322331 150.462456 
L 396.050117 151.620499 
L 396.416493 151.620499 
L 396.78055 150.462456 
L 397.146842 150.462456 
L 397.510981 149.304413 
L 399.702362 149.304413 
L 400.068837 150.462456 
L 404.815513 150.462456 
L 405.18205 151.620499 
L 407.73733 151.620499 
L 408.834026 148.14637 
L 409.563311 148.14637 
L 409.928622 149.304413 
L 411.025152 149.304413 
L 411.389543 148.14637 
L 411.756034 148.14637 
L 412.850469 144.672242 
L 413.216854 144.672242 
L 413.58091 145.830285 
L 413.947149 145.830285 
L 414.311381 146.988328 
L 414.677445 146.988328 
L 415.041843 148.14637 
L 415.408075 146.988328 
L 415.775258 148.14637 
L 416.868773 148.14637 
L 417.963568 151.620499 
L 418.329998 151.620499 
L 418.694054 152.778541 
L 419.060293 152.778541 
L 419.424508 151.620499 
L 419.790575 151.620499 
L 420.154988 150.462456 
L 420.521449 150.462456 
L 420.885414 149.304413 
L 421.982049 149.304413 
L 422.346319 150.462456 
L 423.079498 151.620499 
L 424.173776 151.620499 
L 424.537671 150.462456 
L 424.903743 150.462456 
L 425.268105 151.620499 
L 427.459441 151.620499 
L 427.825749 150.462456 
L 428.189872 151.620499 
L 428.55602 151.620499 
L 428.920351 152.778541 
L 429.286873 152.778541 
L 431.477987 145.830285 
L 431.84218 145.830285 
L 432.208587 144.672242 
L 435.130288 144.672242 
L 435.494389 145.830285 
L 435.860582 145.830285 
L 436.958056 149.304413 
L 437.321031 149.304413 
L 437.685702 148.14637 
L 438.782414 148.14637 
L 439.146645 146.988328 
L 439.512892 146.988328 
L 439.877108 148.14637 
L 440.607549 148.14637 
L 440.97372 146.988328 
L 441.337997 146.988328 
L 441.704276 145.830285 
L 442.068499 145.830285 
L 442.434837 144.672242 
L 443.165437 144.672242 
L 443.531769 145.830285 
L 445.356565 145.830285 
L 445.720719 144.672242 
L 446.087142 144.672242 
L 446.451144 143.5142 
L 447.181623 143.5142 
L 447.548305 144.672242 
L 448.278918 144.672242 
L 448.642496 145.830285 
L 449.008592 145.830285 
L 449.372922 146.988328 
L 449.739163 146.988328 
L 450.10636 148.14637 
L 451.199914 148.14637 
L 451.564276 146.988328 
L 453.025179 146.988328 
L 453.39161 148.14637 
L 457.77331 148.14637 
L 458.138347 149.304413 
L 460.329716 149.304413 
L 460.696421 150.462456 
L 462.157144 150.462456 
L 462.521102 149.304413 
L 463.251504 149.304413 
L 463.618011 150.462456 
L 464.712424 150.462456 
L 465.078817 149.304413 
L 465.442858 149.304413 
L 465.809188 148.14637 
L 467.269834 148.14637 
L 467.634195 146.988328 
L 469.825571 146.988328 
L 470.191743 148.14637 
L 473.113537 148.14637 
L 473.47783 146.988328 
L 474.574372 146.988328 
L 474.938711 148.14637 
L 475.669173 148.14637 
L 476.035452 146.988328 
L 476.399614 146.988328 
L 476.765747 145.830285 
L 477.130078 145.830285 
L 477.496424 146.988328 
L 477.862975 146.988328 
L 478.225625 145.830285 
L 479.687754 145.830285 
L 480.417768 148.14637 
L 480.782296 148.14637 
L 481.148415 149.304413 
L 481.512745 148.14637 
L 483.339493 148.14637 
L 483.704135 149.304413 
L 486.625935 149.304413 
L 486.99213 150.462456 
L 487.356377 150.462456 
L 488.08681 151.620499 
L 489.547736 151.620499 
L 489.913809 150.462456 
L 490.27817 150.462456 
L 491.00861 152.778541 
L 491.74157 152.778541 
L 492.835214 149.304413 
L 493.2 149.304413 
L 493.2 149.304413 
" clip-path="url(#p64089a2868)" style="fill: none; stroke: #1f77b4; stroke-width: 1.5; stroke-linecap: square"/>
   </g>
   <g id="patch_3">
    <path d="M 54.2 158.510853 
L 54.2 32.4 
" style="fill: none; stroke: #000000; stroke-width: 0.8; stroke-linejoin: miter; stroke-linecap: square"/>
   </g>
   <g id="patch_4">
    <path d="M 493.2 158.510853 
L 493.2 32.4 
" style="fill: none; stroke: #000000; stroke-width: 0.8; stroke-linejoin: miter; stroke-linecap: square"/>
   </g>
   <g id="patch_5">
    <path d="M 54.2 158.510853 
L 493.2 158.510853 
" style="fill: none; stroke: #000000; stroke-width: 0.8; stroke-linejoin: miter; stroke-linecap: square"/>
   </g>
   <g id="patch_6">
    <path d="M 54.2 32.4 
L 493.2 32.4 
" style="fill: none; stroke: #000000; stroke-width: 0.8; stroke-linejoin: miter; stroke-linecap: square"/>
   </g>
  </g>
  <g id="axes_2">
   <g id="patch_7">
    <path d="M 54.2 302.881706 
L 493.2 302.881706 
L 493.2 176.770853 
L 54.2 176.770853 
z
" style="fill: #ffffff"/>
   </g>
   <g id="matplotlib.axis_3">
    <g id="xtick_9">
     <g id="line2d_28">
      <path d="M 74.345929 302.881706 
L 74.345929 176.770853 
" clip-path="url(#pb14f0a9526)" style="fill: none; stroke: #b0b0b0; stroke-width: 0.8; stroke-linecap: square"/>
     </g>
     <g id="line2d_29">
      <g>
       <use xlink:href="#m56a5a011e3" x="74.345929" y="302.881706" style="stroke: #000000; stroke-width: 0.8"/>
      </g>
     </g>
    </g>
    <g id="xtick_10">
     <g id="line2d_30">
      <path d="M 129.130336 302.881706 
L 129.130336 176.770853 
" clip-path="url(#pb14f0a9526)" style="fill: none; stroke: #b0b0b0; stroke-width: 0.8; stroke-linecap: square"/>
     </g>
     <g id="line2d_31">
      <g>
       <use xlink:href="#m56a5a011e3" x="129.130336" y="302.881706" style="stroke: #000000; stroke-width: 0.8"/>
      </g>
     </g>
    </g>
    <g id="xtick_11">
     <g id="line2d_32">
      <path d="M 183.914744 302.881706 
L 183.914744 176.770853 
" clip-path="url(#pb14f0a9526)" style="fill: none; stroke: #b0b0b0; stroke-width: 0.8; stroke-linecap: square"/>
     </g>
     <g id="line2d_33">
      <g>
       <use xlink:href="#m56a5a011e3" x="183.914744" y="302.881706" style="stroke: #000000; stroke-width: 0.8"/>
      </g>
     </g>
    </g>
    <g id="xtick_12">
     <g id="line2d_34">
      <path d="M 238.699151 302.881706 
L 238.699151 176.770853 
" clip-path="url(#pb14f0a9526)" style="fill: none; stroke: #b0b0b0; stroke-width: 0.8; stroke-linecap: square"/>
     </g>
     <g id="line2d_35">
      <g>
       <use xlink:href="#m56a5a011e3" x="238.699151" y="302.881706" style="stroke: #000000; stroke-width: 0.8"/>
      </g>
     </g>
    </g>
    <g id="xtick_13">
     <g id="line2d_36">
      <path d="M 293.483558 302.881706 
L 293.483558 176.770853 
" clip-path="url(#pb14f0a9526)" style="fill: none; stroke: #b0b0b0; stroke-width: 0.8; stroke-linecap: square"/>
     </g>
     <g id="line2d_37">
      <g>
       <use xlink:href="#m56a5a011e3" x="293.483558" y="302.881706" style="stroke: #000000; stroke-width: 0.8"/>
      </g>
     </g>
    </g>
    <g id="xtick_14">
     <g id="line2d_38">
      <path d="M 348.267965 302.881706 
L 348.267965 176.770853 
" clip-path="url(#pb14f0a9526)" style="fill: none; stroke: #b0b0b0; stroke-width: 0.8; stroke-linecap: square"/>
     </g>
     <g id="line2d_39">
      <g>
       <use xlink:href="#m56a5a011e3" x="348.267965" y="302.881706" style="stroke: #000000; stroke-width: 0.8"/>
      </g>
     </g>
    </g>
    <g id="xtick_15">
     <g id="line2d_40">
      <path d="M 403.052373 302.881706 
L 403.052373 176.770853 
" clip-path="url(#pb14f0a9526)" style="fill: none; stroke: #b0b0b0; stroke-width: 0.8; stroke-linecap: square"/>
     </g>
     <g id="line2d_41">
      <g>
       <use xlink:href="#m56a5a011e3" x="403.052373" y="302.881706" style="stroke: #000000; stroke-width: 0.8"/>
      </g>
     </g>
    </g>
    <g id="xtick_16">
     <g id="line2d_42">
      <path d="M 457.83678 302.881706 
L 457.83678 176.770853 
" clip-path="url(#pb14f0a9526)" style="fill: none; stroke: #b0b0b0; stroke-width: 0.8; stroke-linecap: square"/>
     </g>
     <g id="line2d_43">
      <g>
       <use xlink:href="#m56a5a011e3" x="457.83678" y="302.881706" style="stroke: #000000; stroke-width: 0.8"/>
      </g>
     </g>
    </g>
   </g>
   <g id="matplotlib.axis_4">
    <g id="ytick_6">
     <g id="line2d_44">
      <path d="M 54.2 302.881706 
L 493.2 302.881706 
" clip-path="url(#pb14f0a9526)" style="fill: none; stroke: #b0b0b0; stroke-width: 0.8; stroke-linecap: square"/>
     </g>
     <g id="line2d_45">
      <g>
       <use xlink:href="#ma23ad17dc5" x="54.2" y="302.881706" style="stroke: #000000; stroke-width: 0.8"/>
      </g>
     </g>
     <g id="text_7">
      <!-- 0 -->
      <g transform="translate(40.8375 306.680924) scale(0.1 -0.1)">
       <use xlink:href="#DejaVuSans-30"/>
      </g>
     </g>
    </g>
    <g id="ytick_7">
     <g id="line2d_46">
      <path d="M 54.2 277.659535 
L 493.2 277.659535 
" clip-path="url(#pb14f0a9526)" style="fill: none; stroke: #b0b0b0; stroke-width: 0.8; stroke-linecap: square"/>
     </g>
     <g id="line2d_47">
      <g>
       <use xlink:href="#ma23ad17dc5" x="54.2" y="277.659535" style="stroke: #000000; stroke-width: 0.8"/>
      </g>
     </g>
     <g id="text_8">
      <!-- 20 -->
      <g transform="translate(34.475 281.458754) scale(0.1 -0.1)">
       <use xlink:href="#DejaVuSans-32"/>
       <use xlink:href="#DejaVuSans-30" x="63.623047"/>
      </g>
     </g>
    </g>
    <g id="ytick_8">
     <g id="line2d_48">
      <path d="M 54.2 252.437365 
L 493.2 252.437365 
" clip-path="url(#pb14f0a9526)" style="fill: none; stroke: #b0b0b0; stroke-width: 0.8; stroke-linecap: square"/>
     </g>
     <g id="line2d_49">
      <g>
       <use xlink:href="#ma23ad17dc5" x="54.2" y="252.437365" style="stroke: #000000; stroke-width: 0.8"/>
      </g>
     </g>
     <g id="text_9">
      <!-- 40 -->
      <g transform="translate(34.475 256.236583) scale(0.1 -0.1)">
       <use xlink:href="#DejaVuSans-34"/>
       <use xlink:href="#DejaVuSans-30" x="63.623047"/>
      </g>
     </g>
    </g>
    <g id="ytick_9">
     <g id="line2d_50">
      <path d="M 54.2 227.215194 
L 493.2 227.215194 
" clip-path="url(#pb14f0a9526)" style="fill: none; stroke: #b0b0b0; stroke-width: 0.8; stroke-linecap: square"/>
     </g>
     <g id="line2d_51">
      <g>
       <use xlink:href="#ma23ad17dc5" x="54.2" y="227.215194" style="stroke: #000000; stroke-width: 0.8"/>
      </g>
     </g>
     <g id="text_10">
      <!-- 60 -->
      <g transform="translate(34.475 231.014413) scale(0.1 -0.1)">
       <use xlink:href="#DejaVuSans-36"/>
       <use xlink:href="#DejaVuSans-30" x="63.623047"/>
      </g>
     </g>
    </g>
    <g id="ytick_10">
     <g id="line2d_52">
      <path d="M 54.2 201.993023 
L 493.2 201.993023 
" clip-path="url(#pb14f0a9526)" style="fill: none; stroke: #b0b0b0; stroke-width: 0.8; stroke-linecap: square"/>
     </g>
     <g id="line2d_53">
      <g>
       <use xlink:href="#ma23ad17dc5" x="54.2" y="201.993023" style="stroke: #000000; stroke-width: 0.8"/>
      </g>
     </g>
     <g id="text_11">
      <!-- 80 -->
      <g transform="translate(34.475 205.792242) scale(0.1 -0.1)">
       <use xlink:href="#DejaVuSans-38"/>
       <use xlink:href="#DejaVuSans-30" x="63.623047"/>
      </g>
     </g>
    </g>
    <g id="ytick_11">
     <g id="line2d_54">
      <path d="M 54.2 176.770853 
L 493.2 176.770853 
" clip-path="url(#pb14f0a9526)" style="fill: none; stroke: #b0b0b0; stroke-width: 0.8; stroke-linecap: square"/>
     </g>
     <g id="line2d_55">
      <g>
       <use xlink:href="#ma23ad17dc5" x="54.2" y="176.770853" style="stroke: #000000; stroke-width: 0.8"/>
      </g>
     </g>
     <g id="text_12">
      <!-- 100 -->
      <g transform="translate(28.1125 180.570072) scale(0.1 -0.1)">
       <use xlink:href="#DejaVuSans-31"/>
       <use xlink:href="#DejaVuSans-30" x="63.623047"/>
       <use xlink:href="#DejaVuSans-30" x="127.246094"/>
      </g>
     </g>
    </g>
    <g id="text_13">
     <!-- Humidity [%RH] -->
     <g transform="translate(22.032813 279.973154) rotate(-90) scale(0.1 -0.1)">
      <defs>
       <path id="DejaVuSans-48" d="M 628 4666 
L 1259 4666 
L 1259 2753 
L 3553 2753 
L 3553 4666 
L 4184 4666 
L 4184 0 
L 3553 0 
L 3553 2222 
L 1259 2222 
L 1259 0 
L 628 0 
L 628 4666 
z
" transform="scale(0.015625)"/>
       <path id="DejaVuSans-69" d="M 603 3500 
L 1178 3500 
L 1178 0 
L 603 0 
L 603 3500 
z
M 603 4863 
L 1178 4863 
L 1178 4134 
L 603 4134 
L 603 4863 
z
" transform="scale(0.015625)"/>
       <path id="DejaVuSans-64" d="M 2906 2969 
L 2906 4863 
L 3481 4863 
L 3481 0 
L 2906 0 
L 2906 525 
Q 2725 213 2448 61 
Q 2172 -91 1784 -91 
Q 1150 -91 751 415 
Q 353 922 353 1747 
Q 353 2572 751 3078 
Q 1150 3584 1784 3584 
Q 2172 3584 2448 3432 
Q 2725 3281 2906 2969 
z
M 947 1747 
Q 947 1113 1208 752 
Q 1469 391 1925 391 
Q 2381 391 2643 752 
Q 2906 1113 2906 1747 
Q 2906 2381 2643 2742 
Q 2381 3103 1925 3103 
Q 1469 3103 1208 2742 
Q 947 2381 947 1747 
z
" transform="scale(0.015625)"/>
       <path id="DejaVuSans-79" d="M 2059 -325 
Q 1816 -950 1584 -1140 
Q 1353 -1331 966 -1331 
L 506 -1331 
L 506 -850 
L 844 -850 
Q 1081 -850 1212 -737 
Q 1344 -625 1503 -206 
L 1606 56 
L 191 3500 
L 800 3500 
L 1894 763 
L 2988 3500 
L 3597 3500 
L 2059 -325 
z
" transform="scale(0.015625)"/>
       <path id="DejaVuSans-25" d="M 4653 2053 
Q 4381 2053 4226 1822 
Q 4072 1591 4072 1178 
Q 4072 772 4226 539 
Q 4381 306 4653 306 
Q 4919 306 5073 539 
Q 5228 772 5228 1178 
Q 5228 1588 5073 1820 
Q 4919 2053 4653 2053 
z
M 4653 2450 
Q 5147 2450 5437 2106 
Q 5728 1763 5728 1178 
Q 5728 594 5436 251 
Q 5144 -91 4653 -91 
Q 4153 -91 3862 251 
Q 3572 594 3572 1178 
Q 3572 1766 3864 2108 
Q 4156 2450 4653 2450 
z
M 1428 4353 
Q 1159 4353 1004 4120 
Q 850 3888 850 3481 
Q 850 3069 1003 2837 
Q 1156 2606 1428 2606 
Q 1700 2606 1854 2837 
Q 2009 3069 2009 3481 
Q 2009 3884 1853 4118 
Q 1697 4353 1428 4353 
z
M 4250 4750 
L 4750 4750 
L 1831 -91 
L 1331 -91 
L 4250 4750 
z
M 1428 4750 
Q 1922 4750 2215 4408 
Q 2509 4066 2509 3481 
Q 2509 2891 2217 2550 
Q 1925 2209 1428 2209 
Q 931 2209 642 2551 
Q 353 2894 353 3481 
Q 353 4063 643 4406 
Q 934 4750 1428 4750 
z
" transform="scale(0.015625)"/>
       <path id="DejaVuSans-52" d="M 2841 2188 
Q 3044 2119 3236 1894 
Q 3428 1669 3622 1275 
L 4263 0 
L 3584 0 
L 2988 1197 
Q 2756 1666 2539 1819 
Q 2322 1972 1947 1972 
L 1259 1972 
L 1259 0 
L 628 0 
L 628 4666 
L 2053 4666 
Q 2853 4666 3247 4331 
Q 3641 3997 3641 3322 
Q 3641 2881 3436 2590 
Q 3231 2300 2841 2188 
z
M 1259 4147 
L 1259 2491 
L 2053 2491 
Q 2509 2491 2742 2702 
Q 2975 2913 2975 3322 
Q 2975 3731 2742 3939 
Q 2509 4147 2053 4147 
L 1259 4147 
z
" transform="scale(0.015625)"/>
      </defs>
      <use xlink:href="#DejaVuSans-48"/>
      <use xlink:href="#DejaVuSans-75" x="75.195312"/>
      <use xlink:href="#DejaVuSans-6d" x="138.574219"/>
      <use xlink:href="#DejaVuSans-69" x="235.986328"/>
      <use xlink:href="#DejaVuSans-64" x="263.769531"/>
      <use xlink:href="#DejaVuSans-69" x="327.246094"/>
      <use xlink:href="#DejaVuSans-74" x="355.029297"/>
      <use xlink:href="#DejaVuSans-79" x="394.238281"/>
      <use xlink:href="#DejaVuSans-20" x="453.417969"/>
      <use xlink:href="#DejaVuSans-5b" x="485.205078"/>
      <use xlink:href="#DejaVuSans-25" x="524.21875"/>
      <use xlink:href="#DejaVuSans-52" x="619.238281"/>
      <use xlink:href="#DejaVuSans-48" x="688.720703"/>
      <use xlink:href="#DejaVuSans-5d" x="763.916016"/>
     </g>
    </g>
   </g>
   <g id="line2d_56">
    <path d="M 54.2 277.659535 
L 119.57592 277.659535 
L 119.94012 275.137318 
L 124.322848 275.137318 
L 124.688829 272.615101 
L 125.053244 265.04845 
L 143.314429 265.04845 
L 143.68083 263.787341 
L 152.446294 263.787341 
L 152.810251 262.526233 
L 156.828584 262.526233 
L 157.192898 261.265124 
L 161.941705 261.265124 
L 162.308675 260.004016 
L 166.324394 260.004016 
L 166.688749 258.742907 
L 169.976582 258.742907 
L 170.707245 260.004016 
L 187.141301 260.004016 
L 187.507184 258.742907 
L 195.906706 258.742907 
L 196.639566 257.481799 
L 201.750323 257.481799 
L 202.480757 254.959582 
L 206.132993 254.959582 
L 206.498967 253.698473 
L 207.229498 253.698473 
L 207.593867 254.959582 
L 209.421529 254.959582 
L 209.785188 253.698473 
L 210.517829 253.698473 
L 210.88142 252.437365 
L 211.246117 253.698473 
L 212.707013 253.698473 
L 213.073816 254.959582 
L 214.898389 254.959582 
L 215.264348 253.698473 
L 219.281049 253.698473 
L 219.646946 252.437365 
L 236.811829 252.437365 
L 237.177863 251.176256 
L 238.638783 251.176256 
L 239.003181 252.437365 
L 248.499022 252.437365 
L 248.865079 251.176256 
L 249.595923 251.176256 
L 249.959957 252.437365 
L 252.151306 252.437365 
L 252.517683 251.176256 
L 253.978597 251.176256 
L 254.342661 252.437365 
L 257.630832 252.437365 
L 257.997551 251.176256 
L 259.455822 251.176256 
L 259.822313 252.437365 
L 262.3776 252.437365 
L 262.743962 251.176256 
L 263.838491 251.176256 
L 264.204822 252.437365 
L 265.301791 252.437365 
L 265.665019 251.176256 
L 266.395976 251.176256 
L 266.760322 252.437365 
L 268.587688 252.437365 
L 268.951675 244.870713 
L 269.317993 244.870713 
L 269.682094 243.609605 
L 270.778547 243.609605 
L 271.143007 244.870713 
L 271.509188 244.870713 
L 271.87609 243.609605 
L 272.603931 242.348496 
L 272.970302 242.348496 
L 273.33435 241.087388 
L 273.700872 241.087388 
L 274.064838 242.348496 
L 274.431147 242.348496 
L 274.795235 243.609605 
L 275.525707 243.609605 
L 275.892344 251.176256 
L 276.256165 251.176256 
L 276.622322 252.437365 
L 281.004932 252.437365 
L 281.369287 244.870713 
L 281.735489 243.609605 
L 282.830245 243.609605 
L 283.196607 244.870713 
L 283.927179 244.870713 
L 284.291098 243.609605 
L 286.848936 243.609605 
L 287.21294 244.870713 
L 289.404312 244.870713 
L 290.134722 243.609605 
L 294.153217 243.609605 
L 294.517442 244.870713 
L 295.614077 244.870713 
L 295.978332 246.131822 
L 302.18841 246.131822 
L 302.55242 252.437365 
L 307.301365 252.437365 
L 307.665567 247.39293 
L 310.58738 247.39293 
L 310.953847 246.131822 
L 312.048254 246.131822 
L 312.414412 247.39293 
L 313.509154 247.39293 
L 313.875179 244.870713 
L 314.239564 244.870713 
L 314.606125 243.609605 
L 314.970029 243.609605 
L 315.336109 244.870713 
L 315.70053 244.870713 
L 316.066727 246.131822 
L 318.622299 246.131822 
L 318.988706 244.870713 
L 320.448587 244.870713 
L 320.813663 246.131822 
L 321.910392 246.131822 
L 322.274609 247.39293 
L 323.005005 247.39293 
L 323.371389 252.437365 
L 323.735515 252.437365 
L 324.101664 247.39293 
L 324.465887 246.131822 
L 324.832767 246.131822 
L 325.196398 244.870713 
L 325.562684 244.870713 
L 325.926803 246.131822 
L 326.292966 246.131822 
L 326.659883 252.437365 
L 328.848652 252.437365 
L 329.214756 253.698473 
L 330.309522 253.698473 
L 330.675792 252.437365 
L 332.867299 252.437365 
L 333.231311 246.131822 
L 333.964217 252.437365 
L 335.058756 252.437365 
L 335.422712 253.698473 
L 335.788984 252.437365 
L 336.153132 252.437365 
L 336.519304 246.131822 
L 337.249927 246.131822 
L 337.614037 244.870713 
L 337.980148 244.870713 
L 338.344487 246.131822 
L 340.538202 246.131822 
L 341.266261 243.609605 
L 341.63257 243.609605 
L 341.996725 242.348496 
L 342.362746 243.609605 
L 342.727213 243.609605 
L 343.093339 244.870713 
L 343.823865 244.870713 
L 344.188112 246.131822 
L 345.285068 242.348496 
L 346.015312 242.348496 
L 346.379399 243.609605 
L 347.840344 243.609605 
L 348.93733 239.826279 
L 350.397893 239.826279 
L 351.128182 242.348496 
L 352.223084 242.348496 
L 352.953511 239.826279 
L 353.683953 239.826279 
L 354.416822 241.087388 
L 354.779797 241.087388 
L 355.144875 242.348496 
L 355.875338 242.348496 
L 356.241669 239.826279 
L 358.797104 239.826279 
L 359.527569 242.348496 
L 359.893794 242.348496 
L 360.258026 243.609605 
L 360.991199 243.609605 
L 361.718886 241.087388 
L 362.449381 241.087388 
L 362.815971 242.348496 
L 363.179822 242.348496 
L 363.545963 243.609605 
L 364.640713 243.609605 
L 365.007091 242.348496 
L 365.371177 242.348496 
L 365.737659 241.087388 
L 366.101625 242.348496 
L 367.198586 242.348496 
L 367.56252 243.609605 
L 368.6587 242.348496 
L 369.023425 241.087388 
L 370.484353 241.087388 
L 371.214762 243.609605 
L 372.31165 243.609605 
L 373.042054 241.087388 
L 373.406118 241.087388 
L 373.772518 239.826279 
L 374.136582 239.826279 
L 374.502784 241.087388 
L 375.232099 241.087388 
L 375.597494 242.348496 
L 375.963651 242.348496 
L 376.69426 239.826279 
L 377.424487 239.826279 
L 377.788826 241.087388 
L 378.155089 241.087388 
L 378.519304 242.348496 
L 378.885385 242.348496 
L 379.249723 243.609605 
L 379.98018 241.087388 
L 381.441085 241.087388 
L 382.171503 242.348496 
L 382.90199 242.348496 
L 383.632424 239.826279 
L 383.9975 239.826279 
L 384.729075 242.348496 
L 385.093354 242.348496 
L 385.823764 239.826279 
L 387.284722 239.826279 
L 387.651084 241.087388 
L 388.015179 241.087388 
L 388.748017 242.348496 
L 389.110992 242.348496 
L 389.842568 239.826279 
L 397.877442 239.826279 
L 398.241451 241.087388 
L 399.702362 241.087388 
L 400.068837 239.826279 
L 402.626658 239.826279 
L 402.989915 241.087388 
L 403.354602 241.087388 
L 403.720872 239.826279 
L 405.18205 239.826279 
L 405.545939 241.087388 
L 405.911989 239.826279 
L 408.467748 239.826279 
L 408.834026 241.087388 
L 409.200655 241.087388 
L 409.563311 239.826279 
L 411.025152 239.826279 
L 411.756034 242.348496 
L 412.11999 242.348496 
L 412.485994 243.609605 
L 413.216854 243.609605 
L 413.58091 242.348496 
L 413.947149 242.348496 
L 414.311381 241.087388 
L 414.677445 242.348496 
L 416.868773 242.348496 
L 417.599496 239.826279 
L 419.790575 239.826279 
L 420.154988 241.087388 
L 421.251722 241.087388 
L 421.615847 239.826279 
L 430.747639 239.826279 
L 431.111717 241.087388 
L 431.477987 241.087388 
L 431.84218 242.348496 
L 432.572635 242.348496 
L 432.939141 243.609605 
L 435.860582 243.609605 
L 436.958056 239.826279 
L 437.685702 239.826279 
L 438.051981 241.087388 
L 438.782414 241.087388 
L 439.146645 242.348496 
L 439.512892 242.348496 
L 439.877108 241.087388 
L 440.97372 241.087388 
L 441.337997 242.348496 
L 443.894441 242.348496 
L 444.259799 241.087388 
L 444.626329 241.087388 
L 444.990285 242.348496 
L 445.356565 242.348496 
L 445.720719 243.609605 
L 448.642496 243.609605 
L 449.008592 242.348496 
L 449.372922 242.348496 
L 449.739163 241.087388 
L 452.660872 241.087388 
L 453.025179 239.826279 
L 454.852566 239.826279 
L 455.216554 241.087388 
L 456.67748 241.087388 
L 457.410326 242.348496 
L 457.77331 239.826279 
L 458.868796 239.826279 
L 459.235197 241.087388 
L 463.251504 241.087388 
L 463.618011 239.826279 
L 465.442858 239.826279 
L 465.809188 241.087388 
L 466.903748 241.087388 
L 467.269834 239.826279 
L 467.634195 239.826279 
L 468.000307 241.087388 
L 469.825571 241.087388 
L 470.191743 239.826279 
L 471.652222 239.826279 
L 472.016909 241.087388 
L 472.747396 241.087388 
L 473.113537 242.348496 
L 474.574372 242.348496 
L 474.938711 239.826279 
L 475.669173 239.826279 
L 476.035452 241.087388 
L 476.399614 241.087388 
L 476.765747 239.826279 
L 477.130078 239.826279 
L 477.496424 241.087388 
L 477.862975 241.087388 
L 478.225625 242.348496 
L 479.687754 242.348496 
L 480.417768 239.826279 
L 481.512745 239.826279 
L 481.879197 241.087388 
L 482.243223 241.087388 
L 482.609174 239.826279 
L 484.436965 239.826279 
L 485.165009 241.087388 
L 485.531119 239.826279 
L 493.2 239.826279 
L 493.2 239.826279 
" clip-path="url(#pb14f0a9526)" style="fill: none; stroke: #ff7f0e; stroke-width: 1.5; stroke-linecap: square"/>
   </g>
   <g id="patch_8">
    <path d="M 54.2 302.881706 
L 54.2 176.770853 
" style="fill: none; stroke: #000000; stroke-width: 0.8; stroke-linejoin: miter; stroke-linecap: square"/>
   </g>
   <g id="patch_9">
    <path d="M 493.2 302.881706 
L 493.2 176.770853 
" style="fill: none; stroke: #000000; stroke-width: 0.8; stroke-linejoin: miter; stroke-linecap: square"/>
   </g>
   <g id="patch_10">
    <path d="M 54.2 302.881706 
L 493.2 302.881706 
" style="fill: none; stroke: #000000; stroke-width: 0.8; stroke-linejoin: miter; stroke-linecap: square"/>
   </g>
   <g id="patch_11">
    <path d="M 54.2 176.770853 
L 493.2 176.770853 
" style="fill: none; stroke: #000000; stroke-width: 0.8; stroke-linejoin: miter; stroke-linecap: square"/>
   </g>
  </g>
  <g id="axes_3">
   <g id="patch_12">
    <path d="M 54.2 447.252558 
L 493.2 447.252558 
L 493.2 321.141706 
L 54.2 321.141706 
z
" style="fill: #ffffff"/>
   </g>
   <g id="matplotlib.axis_5">
    <g id="xtick_17">
     <g id="line2d_57">
      <path d="M 74.345929 447.252558 
L 74.345929 321.141706 
" clip-path="url(#pd34ad61d80)" style="fill: none; stroke: #b0b0b0; stroke-width: 0.8; stroke-linecap: square"/>
     </g>
     <g id="line2d_58">
      <g>
       <use xlink:href="#m56a5a011e3" x="74.345929" y="447.252558" style="stroke: #000000; stroke-width: 0.8"/>
      </g>
     </g>
     <g id="text_14">
      <!-- 02-04 16 -->
      <g transform="translate(60.40101 491.417649) rotate(-45) scale(0.1 -0.1)">
       <defs>
        <path id="DejaVuSans-2d" d="M 313 2009 
L 1997 2009 
L 1997 1497 
L 313 1497 
L 313 2009 
z
" transform="scale(0.015625)"/>
       </defs>
       <use xlink:href="#DejaVuSans-30"/>
       <use xlink:href="#DejaVuSans-32" x="63.623047"/>
       <use xlink:href="#DejaVuSans-2d" x="127.246094"/>
       <use xlink:href="#DejaVuSans-30" x="163.330078"/>
       <use xlink:href="#DejaVuSans-34" x="226.953125"/>
       <use xlink:href="#DejaVuSans-20" x="290.576172"/>
       <use xlink:href="#DejaVuSans-31" x="322.363281"/>
       <use xlink:href="#DejaVuSans-36" x="385.986328"/>
      </g>
     </g>
    </g>
    <g id="xtick_18">
     <g id="line2d_59">
      <path d="M 129.130336 447.252558 
L 129.130336 321.141706 
" clip-path="url(#pd34ad61d80)" style="fill: none; stroke: #b0b0b0; stroke-width: 0.8; stroke-linecap: square"/>
     </g>
     <g id="line2d_60">
      <g>
       <use xlink:href="#m56a5a011e3" x="129.130336" y="447.252558" style="stroke: #000000; stroke-width: 0.8"/>
      </g>
     </g>
     <g id="text_15">
      <!-- 02-04 18 -->
      <g transform="translate(115.185417 491.417649) rotate(-45) scale(0.1 -0.1)">
       <use xlink:href="#DejaVuSans-30"/>
       <use xlink:href="#DejaVuSans-32" x="63.623047"/>
       <use xlink:href="#DejaVuSans-2d" x="127.246094"/>
       <use xlink:href="#DejaVuSans-30" x="163.330078"/>
       <use xlink:href="#DejaVuSans-34" x="226.953125"/>
       <use xlink:href="#DejaVuSans-20" x="290.576172"/>
       <use xlink:href="#DejaVuSans-31" x="322.363281"/>
       <use xlink:href="#DejaVuSans-38" x="385.986328"/>
      </g>
     </g>
    </g>
    <g id="xtick_19">
     <g id="line2d_61">
      <path d="M 183.914744 447.252558 
L 183.914744 321.141706 
" clip-path="url(#pd34ad61d80)" style="fill: none; stroke: #b0b0b0; stroke-width: 0.8; stroke-linecap: square"/>
     </g>
     <g id="line2d_62">
      <g>
       <use xlink:href="#m56a5a011e3" x="183.914744" y="447.252558" style="stroke: #000000; stroke-width: 0.8"/>
      </g>
     </g>
     <g id="text_16">
      <!-- 02-04 20 -->
      <g transform="translate(169.969824 491.417649) rotate(-45) scale(0.1 -0.1)">
       <use xlink:href="#DejaVuSans-30"/>
       <use xlink:href="#DejaVuSans-32" x="63.623047"/>
       <use xlink:href="#DejaVuSans-2d" x="127.246094"/>
       <use xlink:href="#DejaVuSans-30" x="163.330078"/>
       <use xlink:href="#DejaVuSans-34" x="226.953125"/>
       <use xlink:href="#DejaVuSans-20" x="290.576172"/>
       <use xlink:href="#DejaVuSans-32" x="322.363281"/>
       <use xlink:href="#DejaVuSans-30" x="385.986328"/>
      </g>
     </g>
    </g>
    <g id="xtick_20">
     <g id="line2d_63">
      <path d="M 238.699151 447.252558 
L 238.699151 321.141706 
" clip-path="url(#pd34ad61d80)" style="fill: none; stroke: #b0b0b0; stroke-width: 0.8; stroke-linecap: square"/>
     </g>
     <g id="line2d_64">
      <g>
       <use xlink:href="#m56a5a011e3" x="238.699151" y="447.252558" style="stroke: #000000; stroke-width: 0.8"/>
      </g>
     </g>
     <g id="text_17">
      <!-- 02-04 22 -->
      <g transform="translate(224.754232 491.417649) rotate(-45) scale(0.1 -0.1)">
       <use xlink:href="#DejaVuSans-30"/>
       <use xlink:href="#DejaVuSans-32" x="63.623047"/>
       <use xlink:href="#DejaVuSans-2d" x="127.246094"/>
       <use xlink:href="#DejaVuSans-30" x="163.330078"/>
       <use xlink:href="#DejaVuSans-34" x="226.953125"/>
       <use xlink:href="#DejaVuSans-20" x="290.576172"/>
       <use xlink:href="#DejaVuSans-32" x="322.363281"/>
       <use xlink:href="#DejaVuSans-32" x="385.986328"/>
      </g>
     </g>
    </g>
    <g id="xtick_21">
     <g id="line2d_65">
      <path d="M 293.483558 447.252558 
L 293.483558 321.141706 
" clip-path="url(#pd34ad61d80)" style="fill: none; stroke: #b0b0b0; stroke-width: 0.8; stroke-linecap: square"/>
     </g>
     <g id="line2d_66">
      <g>
       <use xlink:href="#m56a5a011e3" x="293.483558" y="447.252558" style="stroke: #000000; stroke-width: 0.8"/>
      </g>
     </g>
     <g id="text_18">
      <!-- 02-05 00 -->
      <g transform="translate(279.538639 491.417649) rotate(-45) scale(0.1 -0.1)">
       <defs>
        <path id="DejaVuSans-35" d="M 691 4666 
L 3169 4666 
L 3169 4134 
L 1269 4134 
L 1269 2991 
Q 1406 3038 1543 3061 
Q 1681 3084 1819 3084 
Q 2600 3084 3056 2656 
Q 3513 2228 3513 1497 
Q 3513 744 3044 326 
Q 2575 -91 1722 -91 
Q 1428 -91 1123 -41 
Q 819 9 494 109 
L 494 744 
Q 775 591 1075 516 
Q 1375 441 1709 441 
Q 2250 441 2565 725 
Q 2881 1009 2881 1497 
Q 2881 1984 2565 2268 
Q 2250 2553 1709 2553 
Q 1456 2553 1204 2497 
Q 953 2441 691 2322 
L 691 4666 
z
" transform="scale(0.015625)"/>
       </defs>
       <use xlink:href="#DejaVuSans-30"/>
       <use xlink:href="#DejaVuSans-32" x="63.623047"/>
       <use xlink:href="#DejaVuSans-2d" x="127.246094"/>
       <use xlink:href="#DejaVuSans-30" x="163.330078"/>
       <use xlink:href="#DejaVuSans-35" x="226.953125"/>
       <use xlink:href="#DejaVuSans-20" x="290.576172"/>
       <use xlink:href="#DejaVuSans-30" x="322.363281"/>
       <use xlink:href="#DejaVuSans-30" x="385.986328"/>
      </g>
     </g>
    </g>
    <g id="xtick_22">
     <g id="line2d_67">
      <path d="M 348.267965 447.252558 
L 348.267965 321.141706 
" clip-path="url(#pd34ad61d80)" style="fill: none; stroke: #b0b0b0; stroke-width: 0.8; stroke-linecap: square"/>
     </g>
     <g id="line2d_68">
      <g>
       <use xlink:href="#m56a5a011e3" x="348.267965" y="447.252558" style="stroke: #000000; stroke-width: 0.8"/>
      </g>
     </g>
     <g id="text_19">
      <!-- 02-05 02 -->
      <g transform="translate(334.323046 491.417649) rotate(-45) scale(0.1 -0.1)">
       <use xlink:href="#DejaVuSans-30"/>
       <use xlink:href="#DejaVuSans-32" x="63.623047"/>
       <use xlink:href="#DejaVuSans-2d" x="127.246094"/>
       <use xlink:href="#DejaVuSans-30" x="163.330078"/>
       <use xlink:href="#DejaVuSans-35" x="226.953125"/>
       <use xlink:href="#DejaVuSans-20" x="290.576172"/>
       <use xlink:href="#DejaVuSans-30" x="322.363281"/>
       <use xlink:href="#DejaVuSans-32" x="385.986328"/>
      </g>
     </g>
    </g>
    <g id="xtick_23">
     <g id="line2d_69">
      <path d="M 403.052373 447.252558 
L 403.052373 321.141706 
" clip-path="url(#pd34ad61d80)" style="fill: none; stroke: #b0b0b0; stroke-width: 0.8; stroke-linecap: square"/>
     </g>
     <g id="line2d_70">
      <g>
       <use xlink:href="#m56a5a011e3" x="403.052373" y="447.252558" style="stroke: #000000; stroke-width: 0.8"/>
      </g>
     </g>
     <g id="text_20">
      <!-- 02-05 04 -->
      <g transform="translate(389.107454 491.417649) rotate(-45) scale(0.1 -0.1)">
       <use xlink:href="#DejaVuSans-30"/>
       <use xlink:href="#DejaVuSans-32" x="63.623047"/>
       <use xlink:href="#DejaVuSans-2d" x="127.246094"/>
       <use xlink:href="#DejaVuSans-30" x="163.330078"/>
       <use xlink:href="#DejaVuSans-35" x="226.953125"/>
       <use xlink:href="#DejaVuSans-20" x="290.576172"/>
       <use xlink:href="#DejaVuSans-30" x="322.363281"/>
       <use xlink:href="#DejaVuSans-34" x="385.986328"/>
      </g>
     </g>
    </g>
    <g id="xtick_24">
     <g id="line2d_71">
      <path d="M 457.83678 447.252558 
L 457.83678 321.141706 
" clip-path="url(#pd34ad61d80)" style="fill: none; stroke: #b0b0b0; stroke-width: 0.8; stroke-linecap: square"/>
     </g>
     <g id="line2d_72">
      <g>
       <use xlink:href="#m56a5a011e3" x="457.83678" y="447.252558" style="stroke: #000000; stroke-width: 0.8"/>
      </g>
     </g>
     <g id="text_21">
      <!-- 02-05 06 -->
      <g transform="translate(443.891861 491.417649) rotate(-45) scale(0.1 -0.1)">
       <use xlink:href="#DejaVuSans-30"/>
       <use xlink:href="#DejaVuSans-32" x="63.623047"/>
       <use xlink:href="#DejaVuSans-2d" x="127.246094"/>
       <use xlink:href="#DejaVuSans-30" x="163.330078"/>
       <use xlink:href="#DejaVuSans-35" x="226.953125"/>
       <use xlink:href="#DejaVuSans-20" x="290.576172"/>
       <use xlink:href="#DejaVuSans-30" x="322.363281"/>
       <use xlink:href="#DejaVuSans-36" x="385.986328"/>
      </g>
     </g>
    </g>
   </g>
   <g id="matplotlib.axis_6">
    <g id="ytick_12">
     <g id="line2d_73">
      <path d="M 54.2 428.821566 
L 493.2 428.821566 
" clip-path="url(#pd34ad61d80)" style="fill: none; stroke: #b0b0b0; stroke-width: 0.8; stroke-linecap: square"/>
     </g>
     <g id="line2d_74">
      <g>
       <use xlink:href="#ma23ad17dc5" x="54.2" y="428.821566" style="stroke: #000000; stroke-width: 0.8"/>
      </g>
     </g>
     <g id="text_22">
      <!-- 600 -->
      <g transform="translate(28.1125 432.620784) scale(0.1 -0.1)">
       <use xlink:href="#DejaVuSans-36"/>
       <use xlink:href="#DejaVuSans-30" x="63.623047"/>
       <use xlink:href="#DejaVuSans-30" x="127.246094"/>
      </g>
     </g>
    </g>
    <g id="ytick_13">
     <g id="line2d_75">
      <path d="M 54.2 392.093637 
L 493.2 392.093637 
" clip-path="url(#pd34ad61d80)" style="fill: none; stroke: #b0b0b0; stroke-width: 0.8; stroke-linecap: square"/>
     </g>
     <g id="line2d_76">
      <g>
       <use xlink:href="#ma23ad17dc5" x="54.2" y="392.093637" style="stroke: #000000; stroke-width: 0.8"/>
      </g>
     </g>
     <g id="text_23">
      <!-- 620 -->
      <g transform="translate(28.1125 395.892856) scale(0.1 -0.1)">
       <use xlink:href="#DejaVuSans-36"/>
       <use xlink:href="#DejaVuSans-32" x="63.623047"/>
       <use xlink:href="#DejaVuSans-30" x="127.246094"/>
      </g>
     </g>
    </g>
    <g id="ytick_14">
     <g id="line2d_77">
      <path d="M 54.2 355.365708 
L 493.2 355.365708 
" clip-path="url(#pd34ad61d80)" style="fill: none; stroke: #b0b0b0; stroke-width: 0.8; stroke-linecap: square"/>
     </g>
     <g id="line2d_78">
      <g>
       <use xlink:href="#ma23ad17dc5" x="54.2" y="355.365708" style="stroke: #000000; stroke-width: 0.8"/>
      </g>
     </g>
     <g id="text_24">
      <!-- 640 -->
      <g transform="translate(28.1125 359.164927) scale(0.1 -0.1)">
       <use xlink:href="#DejaVuSans-36"/>
       <use xlink:href="#DejaVuSans-34" x="63.623047"/>
       <use xlink:href="#DejaVuSans-30" x="127.246094"/>
      </g>
     </g>
    </g>
    <g id="text_25">
     <!-- Rain [mm] -->
     <g transform="translate(22.032813 410.411976) rotate(-90) scale(0.1 -0.1)">
      <defs>
       <path id="DejaVuSans-6e" d="M 3513 2113 
L 3513 0 
L 2938 0 
L 2938 2094 
Q 2938 2591 2744 2837 
Q 2550 3084 2163 3084 
Q 1697 3084 1428 2787 
Q 1159 2491 1159 1978 
L 1159 0 
L 581 0 
L 581 3500 
L 1159 3500 
L 1159 2956 
Q 1366 3272 1645 3428 
Q 1925 3584 2291 3584 
Q 2894 3584 3203 3211 
Q 3513 2838 3513 2113 
z
" transform="scale(0.015625)"/>
      </defs>
      <use xlink:href="#DejaVuSans-52"/>
      <use xlink:href="#DejaVuSans-61" x="67.232422"/>
      <use xlink:href="#DejaVuSans-69" x="128.511719"/>
      <use xlink:href="#DejaVuSans-6e" x="156.294922"/>
      <use xlink:href="#DejaVuSans-20" x="219.673828"/>
      <use xlink:href="#DejaVuSans-5b" x="251.460938"/>
      <use xlink:href="#DejaVuSans-6d" x="290.474609"/>
      <use xlink:href="#DejaVuSans-6d" x="387.886719"/>
      <use xlink:href="#DejaVuSans-5d" x="485.298828"/>
     </g>
    </g>
   </g>
   <g id="line2d_79">
    <path d="M 54.2 384.197132 
L 493.2 384.197132 
L 493.2 384.197132 
" clip-path="url(#pd34ad61d80)" style="fill: none; stroke: #9467bd; stroke-width: 1.5; stroke-linecap: square"/>
   </g>
   <g id="patch_13">
    <path d="M 54.2 447.252558 
L 54.2 321.141706 
" style="fill: none; stroke: #000000; stroke-width: 0.8; stroke-linejoin: miter; stroke-linecap: square"/>
   </g>
   <g id="patch_14">
    <path d="M 493.2 447.252558 
L 493.2 321.141706 
" style="fill: none; stroke: #000000; stroke-width: 0.8; stroke-linejoin: miter; stroke-linecap: square"/>
   </g>
   <g id="patch_15">
    <path d="M 54.2 447.252558 
L 493.2 447.252558 
" style="fill: none; stroke: #000000; stroke-width: 0.8; stroke-linejoin: miter; stroke-linecap: square"/>
   </g>
   <g id="patch_16">
    <path d="M 54.2 321.141706 
L 493.2 321.141706 
" style="fill: none; stroke: #000000; stroke-width: 0.8; stroke-linejoin: miter; stroke-linecap: square"/>
   </g>
  </g>
  <g id="text_26">
   <!-- Weather data - February 2024 -->
   <g transform="translate(161.575312 19.198125) scale(0.12 -0.12)">
    <defs>
     <path id="DejaVuSans-57" d="M 213 4666 
L 850 4666 
L 1831 722 
L 2809 4666 
L 3519 4666 
L 4500 722 
L 5478 4666 
L 6119 4666 
L 4947 0 
L 4153 0 
L 3169 4050 
L 2175 0 
L 1381 0 
L 213 4666 
z
" transform="scale(0.015625)"/>
     <path id="DejaVuSans-68" d="M 3513 2113 
L 3513 0 
L 2938 0 
L 2938 2094 
Q 2938 2591 2744 2837 
Q 2550 3084 2163 3084 
Q 1697 3084 1428 2787 
Q 1159 2491 1159 1978 
L 1159 0 
L 581 0 
L 581 4863 
L 1159 4863 
L 1159 2956 
Q 1366 3272 1645 3428 
Q 1925 3584 2291 3584 
Q 2894 3584 3203 3211 
Q 3513 2838 3513 2113 
z
" transform="scale(0.015625)"/>
     <path id="DejaVuSans-46" d="M 628 4666 
L 3309 4666 
L 3309 4134 
L 1259 4134 
L 1259 2759 
L 3109 2759 
L 3109 2228 
L 1259 2228 
L 1259 0 
L 628 0 
L 628 4666 
z
" transform="scale(0.015625)"/>
     <path id="DejaVuSans-62" d="M 3116 1747 
Q 3116 2381 2855 2742 
Q 2594 3103 2138 3103 
Q 1681 3103 1420 2742 
Q 1159 2381 1159 1747 
Q 1159 1113 1420 752 
Q 1681 391 2138 391 
Q 2594 391 2855 752 
Q 3116 1113 3116 1747 
z
M 1159 2969 
Q 1341 3281 1617 3432 
Q 1894 3584 2278 3584 
Q 2916 3584 3314 3078 
Q 3713 2572 3713 1747 
Q 3713 922 3314 415 
Q 2916 -91 2278 -91 
Q 1894 -91 1617 61 
Q 1341 213 1159 525 
L 1159 0 
L 581 0 
L 581 4863 
L 1159 4863 
L 1159 2969 
z
" transform="scale(0.015625)"/>
    </defs>
    <use xlink:href="#DejaVuSans-57"/>
    <use xlink:href="#DejaVuSans-65" x="93.001953"/>
    <use xlink:href="#DejaVuSans-61" x="154.525391"/>
    <use xlink:href="#DejaVuSans-74" x="215.804688"/>
    <use xlink:href="#DejaVuSans-68" x="255.013672"/>
    <use xlink:href="#DejaVuSans-65" x="318.392578"/>
    <use xlink:href="#DejaVuSans-72" x="379.916016"/>
    <use xlink:href="#DejaVuSans-20" x="421.029297"/>
    <use xlink:href="#DejaVuSans-64" x="452.816406"/>
    <use xlink:href="#DejaVuSans-61" x="516.292969"/>
    <use xlink:href="#DejaVuSans-74" x="577.572266"/>
    <use xlink:href="#DejaVuSans-61" x="616.78125"/>
    <use xlink:href="#DejaVuSans-20" x="678.060547"/>
    <use xlink:href="#DejaVuSans-2d" x="709.847656"/>
    <use xlink:href="#DejaVuSans-20" x="745.931641"/>
    <use xlink:href="#DejaVuSans-46" x="777.71875"/>
    <use xlink:href="#DejaVuSans-65" x="829.738281"/>
    <use xlink:href="#DejaVuSans-62" x="891.261719"/>
    <use xlink:href="#DejaVuSans-72" x="954.738281"/>
    <use xlink:href="#DejaVuSans-75" x="995.851562"/>
    <use xlink:href="#DejaVuSans-61" x="1059.230469"/>
    <use xlink:href="#DejaVuSans-72" x="1120.509766"/>
    <use xlink:href="#DejaVuSans-79" x="1161.623047"/>
    <use xlink:href="#DejaVuSans-20" x="1220.802734"/>
    <use xlink:href="#DejaVuSans-32" x="1252.589844"/>
    <use xlink:href="#DejaVuSans-30" x="1316.212891"/>
    <use xlink:href="#DejaVuSans-32" x="1379.835938"/>
    <use xlink:href="#DejaVuSans-34" x="1443.458984"/>
   </g>
  </g>
 </g>
 <defs>
  <clipPath id="p64089a2868">
   <rect x="54.2" y="32.4" width="439" height="126.110853"/>
  </clipPath>
  <clipPath id="pb14f0a9526">
   <rect x="54.2" y="176.770853" width="439" height="126.110853"/>
  </clipPath>
  <clipPath id="pd34ad61d80">
   <rect x="54.2" y="321.141706" width="439" height="126.110853"/>
  </clipPath>
 </defs>
</svg>
