<?xml version="1.0" encoding="utf-8" standalone="no"?>
<!DOCTYPE svg PUBLIC "-//W3C//DTD SVG 1.1//EN"
  "http://www.w3.org/Graphics/SVG/1.1/DTD/svg11.dtd">
<svg xmlns:xlink="http://www.w3.org/1999/xlink" width="504pt" height="504pt" viewBox="0 0 504 504" xmlns="http://www.w3.org/2000/svg" version="1.1">
 <metadata>
  <rdf:RDF xmlns:dc="http://purl.org/dc/elements/1.1/" xmlns:cc="http://creativecommons.org/ns#" xmlns:rdf="http://www.w3.org/1999/02/22-rdf-syntax-ns#">
   <cc:Work>
    <dc:type rdf:resource="http://purl.org/dc/dcmitype/StillImage"/>
    <dc:date>2024-03-03T21:48:32.116155</dc:date>
    <dc:format>image/svg+xml</dc:format>
    <dc:creator>
     <cc:Agent>
      <dc:title>Matplotlib v3.6.3, https://matplotlib.org/</dc:title>
     </cc:Agent>
    </dc:creator>
   </cc:Work>
  </rdf:RDF>
 </metadata>
 <defs>
  <style type="text/css">*{stroke-linejoin: round; stroke-linecap: butt}</style>
 </defs>
 <g id="figure_1">
  <g id="patch_1">
   <path d="M 0 504 
L 504 504 
L 504 0 
L 0 0 
z
" style="fill: #ffffff"/>
  </g>
  <g id="axes_1">
   <g id="patch_2">
    <path d="M 51.05 158.510853 
L 493.2 158.510853 
L 493.2 32.4 
L 51.05 32.4 
z
" style="fill: #ffffff"/>
   </g>
   <g id="matplotlib.axis_1">
    <g id="xtick_1">
     <g id="line2d_1">
      <path d="M 127.042022 158.510853 
L 127.042022 32.4 
" clip-path="url(#pa54c031a6d)" style="fill: none; stroke: #b0b0b0; stroke-width: 0.8; stroke-linecap: square"/>
     </g>
     <g id="line2d_2">
      <defs>
       <path id="me50158dfbb" d="M 0 0 
L 0 3.5 
" style="stroke: #000000; stroke-width: 0.8"/>
      </defs>
      <g>
       <use xlink:href="#me50158dfbb" x="127.042022" y="158.510853" style="stroke: #000000; stroke-width: 0.8"/>
      </g>
     </g>
    </g>
    <g id="xtick_2">
     <g id="line2d_3">
      <path d="M 203.071523 158.510853 
L 203.071523 32.4 
" clip-path="url(#pa54c031a6d)" style="fill: none; stroke: #b0b0b0; stroke-width: 0.8; stroke-linecap: square"/>
     </g>
     <g id="line2d_4">
      <g>
       <use xlink:href="#me50158dfbb" x="203.071523" y="158.510853" style="stroke: #000000; stroke-width: 0.8"/>
      </g>
     </g>
    </g>
    <g id="xtick_3">
     <g id="line2d_5">
      <path d="M 279.101025 158.510853 
L 279.101025 32.4 
" clip-path="url(#pa54c031a6d)" style="fill: none; stroke: #b0b0b0; stroke-width: 0.8; stroke-linecap: square"/>
     </g>
     <g id="line2d_6">
      <g>
       <use xlink:href="#me50158dfbb" x="279.101025" y="158.510853" style="stroke: #000000; stroke-width: 0.8"/>
      </g>
     </g>
    </g>
    <g id="xtick_4">
     <g id="line2d_7">
      <path d="M 355.130526 158.510853 
L 355.130526 32.4 
" clip-path="url(#pa54c031a6d)" style="fill: none; stroke: #b0b0b0; stroke-width: 0.8; stroke-linecap: square"/>
     </g>
     <g id="line2d_8">
      <g>
       <use xlink:href="#me50158dfbb" x="355.130526" y="158.510853" style="stroke: #000000; stroke-width: 0.8"/>
      </g>
     </g>
    </g>
    <g id="xtick_5">
     <g id="line2d_9">
      <path d="M 431.160028 158.510853 
L 431.160028 32.4 
" clip-path="url(#pa54c031a6d)" style="fill: none; stroke: #b0b0b0; stroke-width: 0.8; stroke-linecap: square"/>
     </g>
     <g id="line2d_10">
      <g>
       <use xlink:href="#me50158dfbb" x="431.160028" y="158.510853" style="stroke: #000000; stroke-width: 0.8"/>
      </g>
     </g>
    </g>
   </g>
   <g id="matplotlib.axis_2">
    <g id="ytick_1">
     <g id="line2d_11">
      <path d="M 51.05 152.778541 
L 493.2 152.778541 
" clip-path="url(#pa54c031a6d)" style="fill: none; stroke: #b0b0b0; stroke-width: 0.8; stroke-linecap: square"/>
     </g>
     <g id="line2d_12">
      <defs>
       <path id="m8eee794e12" d="M 0 0 
L -3.5 0 
" style="stroke: #000000; stroke-width: 0.8"/>
      </defs>
      <g>
       <use xlink:href="#m8eee794e12" x="51.05" y="152.778541" style="stroke: #000000; stroke-width: 0.8"/>
      </g>
     </g>
     <g id="text_1">
      <!-- 3 -->
      <g transform="translate(37.6875 156.57776) scale(0.1 -0.1)">
       <defs>
        <path id="DejaVuSans-33" d="M 2597 2516 
Q 3050 2419 3304 2112 
Q 3559 1806 3559 1356 
Q 3559 666 3084 287 
Q 2609 -91 1734 -91 
Q 1441 -91 1130 -33 
Q 819 25 488 141 
L 488 750 
Q 750 597 1062 519 
Q 1375 441 1716 441 
Q 2309 441 2620 675 
Q 2931 909 2931 1356 
Q 2931 1769 2642 2001 
Q 2353 2234 1838 2234 
L 1294 2234 
L 1294 2753 
L 1863 2753 
Q 2328 2753 2575 2939 
Q 2822 3125 2822 3475 
Q 2822 3834 2567 4026 
Q 2313 4219 1838 4219 
Q 1578 4219 1281 4162 
Q 984 4106 628 3988 
L 628 4550 
Q 988 4650 1302 4700 
Q 1616 4750 1894 4750 
Q 2613 4750 3031 4423 
Q 3450 4097 3450 3541 
Q 3450 3153 3228 2886 
Q 3006 2619 2597 2516 
z
" transform="scale(0.015625)"/>
       </defs>
       <use xlink:href="#DejaVuSans-33"/>
      </g>
     </g>
    </g>
    <g id="ytick_2">
     <g id="line2d_13">
      <path d="M 51.05 130.298888 
L 493.2 130.298888 
" clip-path="url(#pa54c031a6d)" style="fill: none; stroke: #b0b0b0; stroke-width: 0.8; stroke-linecap: square"/>
     </g>
     <g id="line2d_14">
      <g>
       <use xlink:href="#m8eee794e12" x="51.05" y="130.298888" style="stroke: #000000; stroke-width: 0.8"/>
      </g>
     </g>
     <g id="text_2">
      <!-- 4 -->
      <g transform="translate(37.6875 134.098107) scale(0.1 -0.1)">
       <defs>
        <path id="DejaVuSans-34" d="M 2419 4116 
L 825 1625 
L 2419 1625 
L 2419 4116 
z
M 2253 4666 
L 3047 4666 
L 3047 1625 
L 3713 1625 
L 3713 1100 
L 3047 1100 
L 3047 0 
L 2419 0 
L 2419 1100 
L 313 1100 
L 313 1709 
L 2253 4666 
z
" transform="scale(0.015625)"/>
       </defs>
       <use xlink:href="#DejaVuSans-34"/>
      </g>
     </g>
    </g>
    <g id="ytick_3">
     <g id="line2d_15">
      <path d="M 51.05 107.819236 
L 493.2 107.819236 
" clip-path="url(#pa54c031a6d)" style="fill: none; stroke: #b0b0b0; stroke-width: 0.8; stroke-linecap: square"/>
     </g>
     <g id="line2d_16">
      <g>
       <use xlink:href="#m8eee794e12" x="51.05" y="107.819236" style="stroke: #000000; stroke-width: 0.8"/>
      </g>
     </g>
     <g id="text_3">
      <!-- 5 -->
      <g transform="translate(37.6875 111.618454) scale(0.1 -0.1)">
       <defs>
        <path id="DejaVuSans-35" d="M 691 4666 
L 3169 4666 
L 3169 4134 
L 1269 4134 
L 1269 2991 
Q 1406 3038 1543 3061 
Q 1681 3084 1819 3084 
Q 2600 3084 3056 2656 
Q 3513 2228 3513 1497 
Q 3513 744 3044 326 
Q 2575 -91 1722 -91 
Q 1428 -91 1123 -41 
Q 819 9 494 109 
L 494 744 
Q 775 591 1075 516 
Q 1375 441 1709 441 
Q 2250 441 2565 725 
Q 2881 1009 2881 1497 
Q 2881 1984 2565 2268 
Q 2250 2553 1709 2553 
Q 1456 2553 1204 2497 
Q 953 2441 691 2322 
L 691 4666 
z
" transform="scale(0.015625)"/>
       </defs>
       <use xlink:href="#DejaVuSans-35"/>
      </g>
     </g>
    </g>
    <g id="ytick_4">
     <g id="line2d_17">
      <path d="M 51.05 85.339583 
L 493.2 85.339583 
" clip-path="url(#pa54c031a6d)" style="fill: none; stroke: #b0b0b0; stroke-width: 0.8; stroke-linecap: square"/>
     </g>
     <g id="line2d_18">
      <g>
       <use xlink:href="#m8eee794e12" x="51.05" y="85.339583" style="stroke: #000000; stroke-width: 0.8"/>
      </g>
     </g>
     <g id="text_4">
      <!-- 6 -->
      <g transform="translate(37.6875 89.138801) scale(0.1 -0.1)">
       <defs>
        <path id="DejaVuSans-36" d="M 2113 2584 
Q 1688 2584 1439 2293 
Q 1191 2003 1191 1497 
Q 1191 994 1439 701 
Q 1688 409 2113 409 
Q 2538 409 2786 701 
Q 3034 994 3034 1497 
Q 3034 2003 2786 2293 
Q 2538 2584 2113 2584 
z
M 3366 4563 
L 3366 3988 
Q 3128 4100 2886 4159 
Q 2644 4219 2406 4219 
Q 1781 4219 1451 3797 
Q 1122 3375 1075 2522 
Q 1259 2794 1537 2939 
Q 1816 3084 2150 3084 
Q 2853 3084 3261 2657 
Q 3669 2231 3669 1497 
Q 3669 778 3244 343 
Q 2819 -91 2113 -91 
Q 1303 -91 875 529 
Q 447 1150 447 2328 
Q 447 3434 972 4092 
Q 1497 4750 2381 4750 
Q 2619 4750 2861 4703 
Q 3103 4656 3366 4563 
z
" transform="scale(0.015625)"/>
       </defs>
       <use xlink:href="#DejaVuSans-36"/>
      </g>
     </g>
    </g>
    <g id="ytick_5">
     <g id="line2d_19">
      <path d="M 51.05 62.85993 
L 493.2 62.85993 
" clip-path="url(#pa54c031a6d)" style="fill: none; stroke: #b0b0b0; stroke-width: 0.8; stroke-linecap: square"/>
     </g>
     <g id="line2d_20">
      <g>
       <use xlink:href="#m8eee794e12" x="51.05" y="62.85993" style="stroke: #000000; stroke-width: 0.8"/>
      </g>
     </g>
     <g id="text_5">
      <!-- 7 -->
      <g transform="translate(37.6875 66.659148) scale(0.1 -0.1)">
       <defs>
        <path id="DejaVuSans-37" d="M 525 4666 
L 3525 4666 
L 3525 4397 
L 1831 0 
L 1172 0 
L 2766 4134 
L 525 4134 
L 525 4666 
z
" transform="scale(0.015625)"/>
       </defs>
       <use xlink:href="#DejaVuSans-37"/>
      </g>
     </g>
    </g>
    <g id="ytick_6">
     <g id="line2d_21">
      <path d="M 51.05 40.380277 
L 493.2 40.380277 
" clip-path="url(#pa54c031a6d)" style="fill: none; stroke: #b0b0b0; stroke-width: 0.8; stroke-linecap: square"/>
     </g>
     <g id="line2d_22">
      <g>
       <use xlink:href="#m8eee794e12" x="51.05" y="40.380277" style="stroke: #000000; stroke-width: 0.8"/>
      </g>
     </g>
     <g id="text_6">
      <!-- 8 -->
      <g transform="translate(37.6875 44.179496) scale(0.1 -0.1)">
       <defs>
        <path id="DejaVuSans-38" d="M 2034 2216 
Q 1584 2216 1326 1975 
Q 1069 1734 1069 1313 
Q 1069 891 1326 650 
Q 1584 409 2034 409 
Q 2484 409 2743 651 
Q 3003 894 3003 1313 
Q 3003 1734 2745 1975 
Q 2488 2216 2034 2216 
z
M 1403 2484 
Q 997 2584 770 2862 
Q 544 3141 544 3541 
Q 544 4100 942 4425 
Q 1341 4750 2034 4750 
Q 2731 4750 3128 4425 
Q 3525 4100 3525 3541 
Q 3525 3141 3298 2862 
Q 3072 2584 2669 2484 
Q 3125 2378 3379 2068 
Q 3634 1759 3634 1313 
Q 3634 634 3220 271 
Q 2806 -91 2034 -91 
Q 1263 -91 848 271 
Q 434 634 434 1313 
Q 434 1759 690 2068 
Q 947 2378 1403 2484 
z
M 1172 3481 
Q 1172 3119 1398 2916 
Q 1625 2713 2034 2713 
Q 2441 2713 2670 2916 
Q 2900 3119 2900 3481 
Q 2900 3844 2670 4047 
Q 2441 4250 2034 4250 
Q 1625 4250 1398 4047 
Q 1172 3844 1172 3481 
z
" transform="scale(0.015625)"/>
       </defs>
       <use xlink:href="#DejaVuSans-38"/>
      </g>
     </g>
    </g>
    <g id="text_7">
     <!-- Temperature [°C] -->
     <g transform="translate(31.607813 138.606989) rotate(-90) scale(0.1 -0.1)">
      <defs>
       <path id="DejaVuSans-54" d="M -19 4666 
L 3928 4666 
L 3928 4134 
L 2272 4134 
L 2272 0 
L 1638 0 
L 1638 4134 
L -19 4134 
L -19 4666 
z
" transform="scale(0.015625)"/>
       <path id="DejaVuSans-65" d="M 3597 1894 
L 3597 1613 
L 953 1613 
Q 991 1019 1311 708 
Q 1631 397 2203 397 
Q 2534 397 2845 478 
Q 3156 559 3463 722 
L 3463 178 
Q 3153 47 2828 -22 
Q 2503 -91 2169 -91 
Q 1331 -91 842 396 
Q 353 884 353 1716 
Q 353 2575 817 3079 
Q 1281 3584 2069 3584 
Q 2775 3584 3186 3129 
Q 3597 2675 3597 1894 
z
M 3022 2063 
Q 3016 2534 2758 2815 
Q 2500 3097 2075 3097 
Q 1594 3097 1305 2825 
Q 1016 2553 972 2059 
L 3022 2063 
z
" transform="scale(0.015625)"/>
       <path id="DejaVuSans-6d" d="M 3328 2828 
Q 3544 3216 3844 3400 
Q 4144 3584 4550 3584 
Q 5097 3584 5394 3201 
Q 5691 2819 5691 2113 
L 5691 0 
L 5113 0 
L 5113 2094 
Q 5113 2597 4934 2840 
Q 4756 3084 4391 3084 
Q 3944 3084 3684 2787 
Q 3425 2491 3425 1978 
L 3425 0 
L 2847 0 
L 2847 2094 
Q 2847 2600 2669 2842 
Q 2491 3084 2119 3084 
Q 1678 3084 1418 2786 
Q 1159 2488 1159 1978 
L 1159 0 
L 581 0 
L 581 3500 
L 1159 3500 
L 1159 2956 
Q 1356 3278 1631 3431 
Q 1906 3584 2284 3584 
Q 2666 3584 2933 3390 
Q 3200 3197 3328 2828 
z
" transform="scale(0.015625)"/>
       <path id="DejaVuSans-70" d="M 1159 525 
L 1159 -1331 
L 581 -1331 
L 581 3500 
L 1159 3500 
L 1159 2969 
Q 1341 3281 1617 3432 
Q 1894 3584 2278 3584 
Q 2916 3584 3314 3078 
Q 3713 2572 3713 1747 
Q 3713 922 3314 415 
Q 2916 -91 2278 -91 
Q 1894 -91 1617 61 
Q 1341 213 1159 525 
z
M 3116 1747 
Q 3116 2381 2855 2742 
Q 2594 3103 2138 3103 
Q 1681 3103 1420 2742 
Q 1159 2381 1159 1747 
Q 1159 1113 1420 752 
Q 1681 391 2138 391 
Q 2594 391 2855 752 
Q 3116 1113 3116 1747 
z
" transform="scale(0.015625)"/>
       <path id="DejaVuSans-72" d="M 2631 2963 
Q 2534 3019 2420 3045 
Q 2306 3072 2169 3072 
Q 1681 3072 1420 2755 
Q 1159 2438 1159 1844 
L 1159 0 
L 581 0 
L 581 3500 
L 1159 3500 
L 1159 2956 
Q 1341 3275 1631 3429 
Q 1922 3584 2338 3584 
Q 2397 3584 2469 3576 
Q 2541 3569 2628 3553 
L 2631 2963 
z
" transform="scale(0.015625)"/>
       <path id="DejaVuSans-61" d="M 2194 1759 
Q 1497 1759 1228 1600 
Q 959 1441 959 1056 
Q 959 750 1161 570 
Q 1363 391 1709 391 
Q 2188 391 2477 730 
Q 2766 1069 2766 1631 
L 2766 1759 
L 2194 1759 
z
M 3341 1997 
L 3341 0 
L 2766 0 
L 2766 531 
Q 2569 213 2275 61 
Q 1981 -91 1556 -91 
Q 1019 -91 701 211 
Q 384 513 384 1019 
Q 384 1609 779 1909 
Q 1175 2209 1959 2209 
L 2766 2209 
L 2766 2266 
Q 2766 2663 2505 2880 
Q 2244 3097 1772 3097 
Q 1472 3097 1187 3025 
Q 903 2953 641 2809 
L 641 3341 
Q 956 3463 1253 3523 
Q 1550 3584 1831 3584 
Q 2591 3584 2966 3190 
Q 3341 2797 3341 1997 
z
" transform="scale(0.015625)"/>
       <path id="DejaVuSans-74" d="M 1172 4494 
L 1172 3500 
L 2356 3500 
L 2356 3053 
L 1172 3053 
L 1172 1153 
Q 1172 725 1289 603 
Q 1406 481 1766 481 
L 2356 481 
L 2356 0 
L 1766 0 
Q 1100 0 847 248 
Q 594 497 594 1153 
L 594 3053 
L 172 3053 
L 172 3500 
L 594 3500 
L 594 4494 
L 1172 4494 
z
" transform="scale(0.015625)"/>
       <path id="DejaVuSans-75" d="M 544 1381 
L 544 3500 
L 1119 3500 
L 1119 1403 
Q 1119 906 1312 657 
Q 1506 409 1894 409 
Q 2359 409 2629 706 
Q 2900 1003 2900 1516 
L 2900 3500 
L 3475 3500 
L 3475 0 
L 2900 0 
L 2900 538 
Q 2691 219 2414 64 
Q 2138 -91 1772 -91 
Q 1169 -91 856 284 
Q 544 659 544 1381 
z
M 1991 3584 
L 1991 3584 
z
" transform="scale(0.015625)"/>
       <path id="DejaVuSans-20" transform="scale(0.015625)"/>
       <path id="DejaVuSans-5b" d="M 550 4863 
L 1875 4863 
L 1875 4416 
L 1125 4416 
L 1125 -397 
L 1875 -397 
L 1875 -844 
L 550 -844 
L 550 4863 
z
" transform="scale(0.015625)"/>
       <path id="DejaVuSans-b0" d="M 1600 4347 
Q 1350 4347 1178 4173 
Q 1006 4000 1006 3750 
Q 1006 3503 1178 3333 
Q 1350 3163 1600 3163 
Q 1850 3163 2022 3333 
Q 2194 3503 2194 3750 
Q 2194 3997 2020 4172 
Q 1847 4347 1600 4347 
z
M 1600 4750 
Q 1800 4750 1984 4673 
Q 2169 4597 2303 4453 
Q 2447 4313 2519 4134 
Q 2591 3956 2591 3750 
Q 2591 3338 2302 3052 
Q 2013 2766 1594 2766 
Q 1172 2766 890 3047 
Q 609 3328 609 3750 
Q 609 4169 896 4459 
Q 1184 4750 1600 4750 
z
" transform="scale(0.015625)"/>
       <path id="DejaVuSans-43" d="M 4122 4306 
L 4122 3641 
Q 3803 3938 3442 4084 
Q 3081 4231 2675 4231 
Q 1875 4231 1450 3742 
Q 1025 3253 1025 2328 
Q 1025 1406 1450 917 
Q 1875 428 2675 428 
Q 3081 428 3442 575 
Q 3803 722 4122 1019 
L 4122 359 
Q 3791 134 3420 21 
Q 3050 -91 2638 -91 
Q 1578 -91 968 557 
Q 359 1206 359 2328 
Q 359 3453 968 4101 
Q 1578 4750 2638 4750 
Q 3056 4750 3426 4639 
Q 3797 4528 4122 4306 
z
" transform="scale(0.015625)"/>
       <path id="DejaVuSans-5d" d="M 1947 4863 
L 1947 -844 
L 622 -844 
L 622 -397 
L 1369 -397 
L 1369 4416 
L 622 4416 
L 622 4863 
L 1947 4863 
z
" transform="scale(0.015625)"/>
      </defs>
      <use xlink:href="#DejaVuSans-54"/>
      <use xlink:href="#DejaVuSans-65" x="44.083984"/>
      <use xlink:href="#DejaVuSans-6d" x="105.607422"/>
      <use xlink:href="#DejaVuSans-70" x="203.019531"/>
      <use xlink:href="#DejaVuSans-65" x="266.496094"/>
      <use xlink:href="#DejaVuSans-72" x="328.019531"/>
      <use xlink:href="#DejaVuSans-61" x="369.132812"/>
      <use xlink:href="#DejaVuSans-74" x="430.412109"/>
      <use xlink:href="#DejaVuSans-75" x="469.621094"/>
      <use xlink:href="#DejaVuSans-72" x="533"/>
      <use xlink:href="#DejaVuSans-65" x="571.863281"/>
      <use xlink:href="#DejaVuSans-20" x="633.386719"/>
      <use xlink:href="#DejaVuSans-5b" x="665.173828"/>
      <use xlink:href="#DejaVuSans-b0" x="704.1875"/>
      <use xlink:href="#DejaVuSans-43" x="754.1875"/>
      <use xlink:href="#DejaVuSans-5d" x="824.011719"/>
     </g>
    </g>
   </g>
   <g id="line2d_23">
    <path d="M 51.05 101.07534 
L 52.06371 101.07534 
L 52.232661 98.827374 
L 53.584273 98.827374 
L 53.753228 101.07534 
L 54.682814 101.07534 
L 54.851852 103.323305 
L 55.527701 103.323305 
L 55.696597 101.07534 
L 55.865614 101.07534 
L 55.95023 98.827374 
L 56.20339 101.07534 
L 56.456499 101.07534 
L 56.625445 103.323305 
L 56.963363 103.323305 
L 57.132314 101.07534 
L 57.808131 101.07534 
L 57.977084 103.323305 
L 58.231069 103.323305 
L 58.399963 105.57127 
L 59.160432 105.57127 
L 59.328712 107.819236 
L 59.58257 107.819236 
L 59.751498 110.067201 
L 59.92055 110.067201 
L 60.089536 112.315166 
L 61.779018 112.315166 
L 61.947817 110.067201 
L 62.116841 110.067201 
L 62.200909 107.819236 
L 62.792629 107.819236 
L 62.961641 105.57127 
L 63.13057 105.57127 
L 63.299499 107.819236 
L 63.468446 105.57127 
L 63.637474 105.57127 
L 63.806404 107.819236 
L 64.397297 107.819236 
L 64.566244 110.067201 
L 64.820104 110.067201 
L 64.989027 107.819236 
L 65.073113 107.819236 
L 65.242056 105.57127 
L 65.327003 105.57127 
L 65.411012 103.323305 
L 66.002839 103.323305 
L 66.171713 105.57127 
L 66.931583 105.57127 
L 67.101079 103.323305 
L 67.523393 103.323305 
L 67.692312 101.07534 
L 68.030161 101.07534 
L 68.283212 96.579409 
L 68.62195 96.579409 
L 68.874767 98.827374 
L 68.959024 98.827374 
L 69.127976 101.07534 
L 69.296931 101.07534 
L 69.465884 103.323305 
L 69.719785 103.323305 
L 69.888749 105.57127 
L 70.648552 105.57127 
L 70.817504 107.819236 
L 71.071345 107.819236 
L 71.324367 112.315166 
L 71.578322 112.315166 
L 71.747198 110.067201 
L 72.507033 110.067201 
L 72.67599 107.819236 
L 73.0139 107.819236 
L 73.18285 110.067201 
L 73.943523 110.067201 
L 74.112535 107.819236 
L 75.125797 107.819236 
L 75.295124 105.57127 
L 75.633132 105.57127 
L 75.801996 103.323305 
L 76.392949 103.323305 
L 76.56269 105.57127 
L 77.153737 105.57127 
L 77.322637 107.819236 
L 78.252168 107.819236 
L 78.420386 105.57127 
L 78.505239 105.57127 
L 78.674031 103.323305 
L 78.758292 103.323305 
L 78.927247 101.07534 
L 80.44782 101.07534 
L 80.616774 98.827374 
L 81.039598 98.827374 
L 81.208564 96.579409 
L 81.884385 96.579409 
L 82.053317 94.331444 
L 82.222226 96.579409 
L 82.391261 94.331444 
L 82.560117 94.331444 
L 82.7291 92.083478 
L 82.898085 92.083478 
L 83.151066 87.587548 
L 84.67165 87.587548 
L 84.925476 92.083478 
L 85.347461 92.083478 
L 85.516415 94.331444 
L 85.685361 92.083478 
L 86.193002 92.083478 
L 86.361187 94.331444 
L 86.699087 94.331444 
L 86.952908 98.827374 
L 87.121873 98.827374 
L 87.29082 101.07534 
L 87.459765 101.07534 
L 87.628765 103.323305 
L 87.713344 103.323305 
L 87.966503 105.57127 
L 88.219662 105.57127 
L 88.388614 107.819236 
L 88.726526 107.819236 
L 88.895477 110.067201 
L 89.571289 110.067201 
L 89.740237 112.315166 
L 93.0352 112.315166 
L 93.204096 114.563131 
L 93.710972 114.563131 
L 93.879971 116.811097 
L 94.386795 116.811097 
L 94.55588 119.059062 
L 97.09001 119.059062 
L 97.174163 116.811097 
L 98.10381 116.811097 
L 98.272687 114.563131 
L 99.03265 114.563131 
L 99.201611 112.315166 
L 99.286542 112.315166 
L 99.455449 110.067201 
L 99.539512 110.067201 
L 99.708462 107.819236 
L 100.046377 107.819236 
L 100.215326 105.57127 
L 100.384264 105.57127 
L 100.637874 103.323305 
L 100.722186 103.323305 
L 100.891134 101.07534 
L 101.144873 101.07534 
L 101.313955 98.827374 
L 101.904862 98.827374 
L 102.496611 105.57127 
L 102.580666 105.57127 
L 102.749619 107.819236 
L 103.003474 107.819236 
L 103.172439 110.067201 
L 103.425433 110.067201 
L 103.595159 112.315166 
L 106.128689 112.315166 
L 106.297641 110.067201 
L 106.4666 112.315166 
L 106.551478 112.315166 
L 106.720418 110.067201 
L 108.325066 110.067201 
L 108.578652 107.819236 
L 108.83193 107.819236 
L 109.000887 105.57127 
L 109.169838 105.57127 
L 109.338796 103.323305 
L 109.507748 103.323305 
L 109.676699 101.07534 
L 110.690416 101.07534 
L 110.859374 98.827374 
L 111.197284 98.827374 
L 111.366226 96.579409 
L 111.451115 96.579409 
L 111.535892 94.331444 
L 112.042052 94.331444 
L 112.210999 92.083478 
L 114.914232 92.083478 
L 115.083178 89.835513 
L 115.252136 89.835513 
L 115.421086 87.587548 
L 115.758995 87.587548 
L 115.927943 85.339583 
L 116.096902 85.339583 
L 116.265854 83.091617 
L 116.857538 83.091617 
L 117.026555 80.843652 
L 117.110621 80.843652 
L 117.364447 76.347721 
L 117.617477 76.347721 
L 117.786431 74.099756 
L 118.209169 74.099756 
L 118.378128 71.851791 
L 118.631186 71.851791 
L 118.800145 69.603826 
L 119.476632 69.603826 
L 119.729593 67.35586 
L 120.067594 67.35586 
L 120.236559 65.107895 
L 120.574574 65.107895 
L 120.743327 62.85993 
L 121.841288 62.85993 
L 122.010237 60.611964 
L 122.348147 60.611964 
L 122.517094 58.363999 
L 122.686713 58.363999 
L 122.939766 56.116034 
L 123.023954 56.116034 
L 123.192904 53.868069 
L 123.530819 53.868069 
L 123.699761 51.620103 
L 124.460183 51.620103 
L 124.629401 53.868069 
L 125.727198 53.868069 
L 125.98061 49.372138 
L 126.234056 49.372138 
L 126.403002 47.124173 
L 126.825796 47.124173 
L 126.99467 44.876207 
L 127.163756 44.876207 
L 127.332684 42.628242 
L 127.417442 42.628242 
L 127.670361 40.380277 
L 127.754642 40.380277 
L 127.923575 38.132311 
L 128.346315 38.132311 
L 128.51526 40.380277 
L 129.360047 40.380277 
L 129.528943 42.628242 
L 129.613106 42.628242 
L 129.782055 44.876207 
L 130.03592 44.876207 
L 130.204806 47.124173 
L 130.627517 47.124173 
L 130.880536 49.372138 
L 131.302636 49.372138 
L 131.471586 51.620103 
L 131.640536 51.620103 
L 131.80949 53.868069 
L 131.978439 53.868069 
L 132.147392 56.116034 
L 132.400959 56.116034 
L 132.570052 58.363999 
L 132.992149 58.363999 
L 133.161106 60.611964 
L 133.667959 60.611964 
L 133.837661 62.85993 
L 134.174833 62.85993 
L 134.34378 65.107895 
L 134.681684 65.107895 
L 134.85064 67.35586 
L 135.104479 67.35586 
L 135.188537 69.603826 
L 135.273408 67.35586 
L 135.358251 69.603826 
L 135.611136 69.603826 
L 135.780195 71.851791 
L 136.456051 71.851791 
L 136.624963 74.099756 
L 137.638785 74.099756 
L 137.807607 76.347721 
L 137.89179 76.347721 
L 138.06074 74.099756 
L 138.905504 74.099756 
L 139.074461 76.347721 
L 139.24341 74.099756 
L 139.497251 74.099756 
L 139.666109 71.851791 
L 140.004073 71.851791 
L 140.088165 69.603826 
L 141.862151 69.603826 
L 142.031478 67.35586 
L 142.284552 67.35586 
L 142.36949 65.107895 
L 142.453501 67.35586 
L 142.538374 65.107895 
L 142.707289 67.35586 
L 143.721037 67.35586 
L 143.889964 65.107895 
L 146.424261 65.107895 
L 146.509115 67.35586 
L 146.762076 67.35586 
L 146.931079 65.107895 
L 147.944812 65.107895 
L 148.028941 67.35586 
L 148.451677 67.35586 
L 148.620633 69.603826 
L 149.634236 69.603826 
L 149.802917 71.851791 
L 150.056372 71.851791 
L 150.225329 74.099756 
L 151.154988 74.099756 
L 151.239046 76.347721 
L 152.083803 76.347721 
L 152.168599 78.595687 
L 152.337598 76.347721 
L 152.421711 78.595687 
L 152.506456 76.347721 
L 152.675443 78.595687 
L 152.929157 78.595687 
L 153.097519 80.843652 
L 153.351339 80.843652 
L 153.520108 83.091617 
L 154.449853 83.091617 
L 154.702842 85.339583 
L 156.98343 85.339583 
L 157.152384 87.587548 
L 159.179828 87.587548 
L 159.433435 85.339583 
L 161.460999 85.339583 
L 161.630034 87.587548 
L 163.403645 87.587548 
L 163.572598 89.835513 
L 163.826376 89.835513 
L 163.910497 92.083478 
L 164.164039 92.083478 
L 164.333216 94.331444 
L 164.586318 94.331444 
L 164.755261 96.579409 
L 165.093169 96.579409 
L 165.262121 98.827374 
L 168.388092 98.827374 
L 168.557079 101.07534 
L 168.641185 101.07534 
L 168.894647 103.323305 
L 169.232793 103.323305 
L 169.401827 105.57127 
L 171.682344 105.57127 
L 171.85129 107.819236 
L 172.527104 107.819236 
L 172.696054 110.067201 
L 172.78098 107.819236 
L 172.949937 110.067201 
L 173.541497 110.067201 
L 173.794573 112.315166 
L 175.737208 112.315166 
L 175.906155 114.563131 
L 176.075116 112.315166 
L 177.595701 112.315166 
L 177.764633 114.563131 
L 178.440449 114.563131 
L 178.609417 112.315166 
L 181.059485 112.315166 
L 181.228378 114.563131 
L 182.326382 114.563131 
L 182.495329 116.811097 
L 190.35211 116.811097 
L 190.520952 119.059062 
L 193.393 119.059062 
L 193.561981 121.307027 
L 194.32205 121.307027 
L 194.491007 119.059062 
L 195.082601 119.059062 
L 195.251635 121.307027 
L 195.504721 121.307027 
L 195.67367 119.059062 
L 198.124023 119.059062 
L 198.292939 121.307027 
L 199.137329 121.307027 
L 199.306314 123.554993 
L 204.797135 123.554993 
L 204.966099 121.307027 
L 205.810856 121.307027 
L 205.979804 123.554993 
L 206.402608 123.554993 
L 206.571361 121.307027 
L 208.345155 121.307027 
L 208.51477 123.554993 
L 209.443699 123.554993 
L 209.612613 121.307027 
L 214.512276 121.307027 
L 214.681221 119.059062 
L 215.779104 119.059062 
L 215.948053 121.307027 
L 217.130712 121.307027 
L 217.299669 123.554993 
L 217.722365 123.554993 
L 217.891231 121.307027 
L 218.482346 121.307027 
L 218.651291 123.554993 
L 218.905115 123.554993 
L 219.073995 121.307027 
L 220.087741 121.307027 
L 220.256703 123.554993 
L 220.340821 123.554993 
L 220.50978 121.307027 
L 222.875768 121.307027 
L 223.044084 123.554993 
L 227.267906 123.554993 
L 227.436859 121.307027 
L 227.606517 121.307027 
L 227.859557 123.554993 
L 227.943712 123.554993 
L 228.028552 121.307027 
L 228.197516 123.554993 
L 230.055946 123.554993 
L 230.224873 125.802958 
L 232.843368 125.802958 
L 233.012318 123.554993 
L 234.786733 123.554993 
L 234.955646 125.802958 
L 238.757438 125.802958 
L 238.925674 123.554993 
L 240.953112 123.554993 
L 241.12207 125.802958 
L 243.741123 125.802958 
L 243.910082 128.050923 
L 244.247976 128.050923 
L 244.416926 125.802958 
L 245.514847 125.802958 
L 245.683799 128.050923 
L 249.992143 128.050923 
L 250.161388 125.802958 
L 251.681899 125.802958 
L 251.850894 123.554993 
L 252.948782 123.554993 
L 253.202322 121.307027 
L 253.540517 121.307027 
L 253.709409 119.059062 
L 254.976223 119.059062 
L 255.145175 116.811097 
L 255.398984 116.811097 
L 255.567848 114.563131 
L 255.652029 114.563131 
L 255.820997 112.315166 
L 255.90591 112.315166 
L 256.074768 110.067201 
L 256.158901 110.067201 
L 256.412501 107.819236 
L 256.496812 107.819236 
L 256.665756 105.57127 
L 256.750696 105.57127 
L 256.919625 103.323305 
L 257.426519 103.323305 
L 257.595289 105.57127 
L 258.693196 105.57127 
L 258.862153 107.819236 
L 259.369756 107.819236 
L 259.622678 105.57127 
L 259.791783 105.57127 
L 259.960648 103.323305 
L 261.565393 103.323305 
L 261.73435 101.07534 
L 262.072254 101.07534 
L 262.24121 103.323305 
L 262.748057 103.323305 
L 262.917016 105.57127 
L 263.254922 105.57127 
L 263.423874 103.323305 
L 263.84663 103.323305 
L 263.930734 101.07534 
L 264.099685 103.323305 
L 264.691323 103.323305 
L 264.860421 101.07534 
L 265.282364 101.07534 
L 265.451311 98.827374 
L 265.705069 98.827374 
L 265.873698 96.579409 
L 266.127122 96.579409 
L 266.296077 94.331444 
L 266.549781 94.331444 
L 266.718763 92.083478 
L 267.056658 92.083478 
L 267.225636 89.835513 
L 267.310444 89.835513 
L 267.732517 85.339583 
L 268.070347 85.339583 
L 268.239394 83.091617 
L 268.830363 83.091617 
L 269.083878 80.843652 
L 269.168268 80.843652 
L 269.33722 83.091617 
L 269.421995 83.091617 
L 269.590924 85.339583 
L 269.844082 85.339583 
L 270.013034 87.587548 
L 272.294047 87.587548 
L 272.463192 89.835513 
L 272.716897 89.835513 
L 272.88523 87.587548 
L 273.307949 87.587548 
L 273.476924 85.339583 
L 273.561052 85.339583 
L 273.730714 87.587548 
L 273.814474 87.587548 
L 273.983747 89.835513 
L 274.152683 89.835513 
L 274.321505 92.083478 
L 275.166355 92.083478 
L 275.251304 94.331444 
L 275.504231 94.331444 
L 275.673166 92.083478 
L 276.348962 92.083478 
L 276.518002 89.835513 
L 276.771155 89.835513 
L 277.024656 87.587548 
L 277.193805 87.587548 
L 277.36282 85.339583 
L 277.531619 85.339583 
L 277.784874 80.843652 
L 277.953819 80.843652 
L 278.122762 78.595687 
L 278.207598 78.595687 
L 278.376501 76.347721 
L 278.461415 76.347721 
L 278.629628 78.595687 
L 278.798587 76.347721 
L 279.137112 76.347721 
L 279.305448 74.099756 
L 279.39034 74.099756 
L 279.559111 76.347721 
L 279.981883 76.347721 
L 280.403898 80.843652 
L 280.657062 80.843652 
L 280.826019 78.595687 
L 280.910807 78.595687 
L 281.079879 76.347721 
L 281.163923 76.347721 
L 281.332875 74.099756 
L 281.671443 74.099756 
L 281.924581 69.603826 
L 282.00869 69.603826 
L 282.346593 62.85993 
L 282.431468 62.85993 
L 282.600346 65.107895 
L 282.68449 65.107895 
L 282.853449 67.35586 
L 283.022401 65.107895 
L 283.192058 65.107895 
L 283.445008 62.85993 
L 284.036121 62.85993 
L 284.205073 60.611964 
L 284.289892 60.611964 
L 284.458793 58.363999 
L 284.627732 58.363999 
L 284.711928 56.116034 
L 284.881624 56.116034 
L 285.303634 47.124173 
L 285.472493 47.124173 
L 285.641543 49.372138 
L 285.810455 49.372138 
L 285.979382 47.124173 
L 286.570404 47.124173 
L 286.824222 42.628242 
L 286.908312 42.628242 
L 287.077269 40.380277 
L 287.331071 40.380277 
L 287.584115 44.876207 
L 287.922025 44.876207 
L 288.513637 38.132311 
L 288.682529 40.380277 
L 289.189405 40.380277 
L 289.358336 38.132311 
L 289.696043 38.132311 
L 289.949446 42.628242 
L 290.287355 42.628242 
L 290.45631 44.876207 
L 290.794217 44.876207 
L 291.0481 49.372138 
L 291.554993 49.372138 
L 291.723869 47.124173 
L 292.399776 47.124173 
L 292.568689 49.372138 
L 292.652695 47.124173 
L 293.159552 47.124173 
L 293.328506 49.372138 
L 293.497458 49.372138 
L 293.666407 51.620103 
L 293.751401 51.620103 
L 293.920352 53.868069 
L 294.849073 53.868069 
L 295.018027 56.116034 
L 295.355935 56.116034 
L 295.524886 58.363999 
L 296.200706 58.363999 
L 296.369662 56.116034 
L 296.538609 56.116034 
L 296.707563 53.868069 
L 297.045461 53.868069 
L 297.214419 56.116034 
L 297.299084 56.116034 
L 297.383373 53.868069 
L 298.228137 53.868069 
L 298.397091 51.620103 
L 298.734993 51.620103 
L 298.819894 53.868069 
L 298.903947 51.620103 
L 299.073528 53.868069 
L 299.326582 58.363999 
L 299.495543 60.611964 
L 299.579758 60.611964 
L 299.74871 62.85993 
L 300.002386 62.85993 
L 300.17131 65.107895 
L 300.340342 65.107895 
L 300.509238 67.35586 
L 301.776132 67.35586 
L 301.945085 69.603826 
L 302.367424 69.603826 
L 302.536665 71.851791 
L 302.958806 71.851791 
L 303.212418 76.347721 
L 303.550643 76.347721 
L 303.719595 78.595687 
L 305.15519 78.595687 
L 305.324149 80.843652 
L 305.746737 80.843652 
L 305.915727 78.595687 
L 306.844718 78.595687 
L 307.014211 80.843652 
L 307.351572 80.843652 
L 307.520534 83.091617 
L 307.689486 83.091617 
L 307.858437 80.843652 
L 310.730631 80.843652 
L 310.899591 83.091617 
L 311.237495 83.091617 
L 311.406451 85.339583 
L 311.744353 85.339583 
L 312.166944 89.835513 
L 312.335857 89.835513 
L 312.504839 92.083478 
L 313.095983 92.083478 
L 313.264933 94.331444 
L 314.109695 94.331444 
L 314.278646 96.579409 
L 315.208129 96.579409 
L 315.377129 98.827374 
L 316.052922 98.827374 
L 316.221906 101.07534 
L 316.644667 101.07534 
L 316.812938 103.323305 
L 318.333521 103.323305 
L 318.502471 105.57127 
L 319.938738 105.57127 
L 320.107963 107.819236 
L 324.838483 107.819236 
L 325.007465 105.57127 
L 325.091645 105.57127 
L 325.260596 107.819236 
L 325.936415 107.819236 
L 326.105953 105.57127 
L 327.541714 105.57127 
L 327.625941 107.819236 
L 328.048529 107.819236 
L 328.217576 105.57127 
L 328.301752 105.57127 
L 328.470704 107.819236 
L 334.890913 107.819236 
L 335.059873 110.067201 
L 337.171973 110.067201 
L 337.340728 112.315166 
L 341.058001 112.315166 
L 341.226914 114.563131 
L 344.606096 114.563131 
L 344.774997 116.811097 
L 344.9439 114.563131 
L 345.450832 114.563131 
L 345.619764 116.811097 
L 345.957726 116.811097 
L 346.126675 114.563131 
L 347.562388 114.563131 
L 347.731343 116.811097 
L 352.124115 116.811097 
L 352.293062 119.059062 
L 359.558732 119.059062 
L 359.72701 121.307027 
L 362.852798 121.307027 
L 363.021961 123.554993 
L 364.964539 123.554993 
L 365.133507 125.802958 
L 367.245733 125.802958 
L 367.329887 128.050923 
L 368.935311 128.050923 
L 369.273152 130.298888 
L 370.117931 130.298888 
L 370.286866 132.546854 
L 371.046864 132.546854 
L 371.215818 134.794819 
L 374.088018 134.794819 
L 374.25697 137.042784 
L 375.608603 137.042784 
L 375.777553 139.29075 
L 376.284414 139.29075 
L 376.453363 137.042784 
L 378.31185 137.042784 
L 378.480804 134.794819 
L 379.072477 134.794819 
L 379.241431 132.546854 
L 379.748224 132.546854 
L 379.917227 130.298888 
L 380.424068 130.298888 
L 380.593068 128.050923 
L 381.521964 128.050923 
L 381.69092 125.802958 
L 381.944548 125.802958 
L 382.113628 128.050923 
L 382.873584 128.050923 
L 383.042544 125.802958 
L 383.211501 128.050923 
L 383.972126 128.050923 
L 384.141071 125.802958 
L 384.225216 125.802958 
L 384.394171 128.050923 
L 384.478995 128.050923 
L 384.647936 125.802958 
L 384.816901 128.050923 
L 386.252658 128.050923 
L 386.421607 125.802958 
L 387.604271 125.802958 
L 387.773225 128.050923 
L 389.462754 128.050923 
L 389.631719 130.298888 
L 389.885338 132.546854 
L 392.419771 132.546854 
L 392.588725 130.298888 
L 394.954074 130.298888 
L 395.123008 128.050923 
L 395.882985 128.050923 
L 396.052724 125.802958 
L 396.389843 125.802958 
L 396.5588 128.050923 
L 400.275771 128.050923 
L 400.444728 125.802958 
L 400.613678 125.802958 
L 400.783282 123.554993 
L 401.120537 123.554993 
L 401.289497 121.307027 
L 401.45845 121.307027 
L 401.627398 123.554993 
L 401.881098 123.554993 
L 402.050082 125.802958 
L 404.415425 125.802958 
L 404.584379 128.050923 
L 404.753333 125.802958 
L 406.780774 125.802958 
L 406.949731 123.554993 
L 407.287345 123.554993 
L 407.456579 121.307027 
L 407.540756 121.307027 
L 407.709712 119.059062 
L 408.38552 119.059062 
L 408.554472 116.811097 
L 408.977099 116.811097 
L 409.146097 114.563131 
L 409.652978 114.563131 
L 409.821919 112.315166 
L 409.906106 112.315166 
L 410.075043 114.563131 
L 410.581906 114.563131 
L 410.750876 112.315166 
L 410.919833 112.315166 
L 411.088778 110.067201 
L 411.1736 110.067201 
L 411.342577 112.315166 
L 411.764594 112.315166 
L 411.934329 114.563131 
L 412.187271 114.563131 
L 412.3562 112.315166 
L 413.623031 112.315166 
L 413.876763 110.067201 
L 414.045741 110.067201 
L 414.383635 116.811097 
L 414.552548 116.811097 
L 414.721597 119.059062 
L 415.059493 119.059062 
L 415.228117 121.307027 
L 415.988407 121.307027 
L 416.157364 123.554993 
L 418.100759 123.554993 
L 418.184796 121.307027 
L 418.945464 121.307027 
L 419.029567 119.059062 
L 419.198513 121.307027 
L 419.452351 121.307027 
L 419.621323 123.554993 
L 419.705378 123.554993 
L 419.87492 125.802958 
L 421.225966 125.802958 
L 421.394907 123.554993 
L 421.648479 123.554993 
L 421.817476 125.802958 
L 424.014104 125.802958 
L 424.183014 128.050923 
L 427.984081 128.050923 
L 428.153033 130.298888 
L 428.406812 130.298888 
L 428.575859 128.050923 
L 428.913755 128.050923 
L 429.082668 130.298888 
L 429.3357 130.298888 
L 429.589253 128.050923 
L 430.349422 128.050923 
L 430.518373 125.802958 
L 430.687328 128.050923 
L 432.292583 128.050923 
L 432.461754 130.298888 
L 432.968632 130.298888 
L 433.13754 128.050923 
L 433.55954 128.050923 
L 433.72849 125.802958 
L 435.333897 125.802958 
L 435.502871 123.554993 
L 436.093837 123.554993 
L 436.262794 121.307027 
L 437.276512 121.307027 
L 437.530027 123.554993 
L 437.699296 121.307027 
L 437.868278 121.307027 
L 438.037195 119.059062 
L 438.459178 119.059062 
L 438.62813 116.811097 
L 438.713056 116.811097 
L 438.96664 112.315166 
L 439.219775 112.315166 
L 439.388846 110.067201 
L 439.472905 110.067201 
L 439.641855 107.819236 
L 440.655536 107.819236 
L 440.824534 110.067201 
L 441.162435 110.067201 
L 441.416284 105.57127 
L 442.683009 105.57127 
L 442.851959 107.819236 
L 443.105626 107.819236 
L 443.274539 110.067201 
L 443.358828 110.067201 
L 443.527776 107.819236 
L 443.612639 107.819236 
L 443.697304 105.57127 
L 444.2885 105.57127 
L 444.457419 103.323305 
L 444.795108 103.323305 
L 444.964088 101.07534 
L 445.470809 101.07534 
L 445.639881 103.323305 
L 445.724164 103.323305 
L 445.893111 105.57127 
L 446.146767 105.57127 
L 446.315744 103.323305 
L 446.737882 103.323305 
L 446.907415 98.827374 
L 447.498407 98.827374 
L 447.667322 101.07534 
L 448.174202 101.07534 
L 448.343112 103.323305 
L 448.934268 103.323305 
L 449.103214 105.57127 
L 449.525849 105.57127 
L 449.694764 107.819236 
L 450.792761 107.819236 
L 450.961708 110.067201 
L 451.468573 110.067201 
L 451.638098 112.315166 
L 452.398001 112.315166 
L 452.567051 110.067201 
L 454.509725 110.067201 
L 454.678674 107.819236 
L 455.523443 107.819236 
L 455.692397 110.067201 
L 456.114994 110.067201 
L 456.283906 112.315166 
L 456.368201 112.315166 
L 456.621783 114.563131 
L 457.128889 114.563131 
L 457.297663 116.811097 
L 458.311353 116.811097 
L 458.480332 114.563131 
L 458.564583 114.563131 
L 458.733548 112.315166 
L 460.507903 112.315166 
L 460.676883 110.067201 
L 461.098893 110.067201 
L 461.352388 112.315166 
L 461.85935 112.315166 
L 462.112593 116.811097 
L 462.366367 116.811097 
L 462.535417 119.059062 
L 462.704328 119.059062 
L 463.042139 121.307027 
L 463.295279 121.307027 
L 463.464226 123.554993 
L 464.140041 123.554993 
L 464.308989 125.802958 
L 464.815847 125.802958 
L 464.984801 128.050923 
L 465.745456 128.050923 
L 465.914363 125.802958 
L 466.674344 125.802958 
L 466.843289 128.050923 
L 468.44875 128.050923 
L 468.617732 130.298888 
L 470.560263 130.298888 
L 470.729706 132.546854 
L 470.982918 132.546854 
L 471.151985 134.794819 
L 471.320763 134.794819 
L 471.489882 132.546854 
L 471.74292 132.546854 
L 471.911894 130.298888 
L 472.2498 130.298888 
L 472.503343 132.546854 
L 473.263505 132.546854 
L 473.432464 130.298888 
L 474.27723 130.298888 
L 474.44618 132.546854 
L 474.615135 132.546854 
L 474.784087 134.794819 
L 475.037947 134.794819 
L 475.206861 137.042784 
L 476.389533 137.042784 
L 476.558442 134.794819 
L 476.896403 134.794819 
L 476.980475 132.546854 
L 478.248051 132.546854 
L 478.416968 134.794819 
L 478.501054 134.794819 
L 478.670545 137.042784 
L 478.923687 134.794819 
L 479.007912 134.794819 
L 479.176864 132.546854 
L 480.021637 132.546854 
L 480.190591 134.794819 
L 480.444118 137.042784 
L 480.69745 137.042784 
L 480.866402 139.29075 
L 481.204316 139.29075 
L 481.373255 141.538715 
L 481.711168 141.538715 
L 481.880733 139.29075 
L 482.471779 139.29075 
L 482.640764 141.538715 
L 482.809679 141.538715 
L 482.978725 143.78668 
L 483.231746 143.78668 
L 483.400706 146.034645 
L 483.569634 146.034645 
L 483.738616 143.78668 
L 483.907566 146.034645 
L 484.161393 146.034645 
L 484.414423 141.538715 
L 484.583374 141.538715 
L 484.752334 139.29075 
L 487.962442 139.29075 
L 488.131391 141.538715 
L 488.469301 141.538715 
L 488.638255 143.78668 
L 489.736765 143.78668 
L 489.82164 146.034645 
L 490.158845 146.034645 
L 490.327795 148.282611 
L 490.581537 148.282611 
L 490.75052 150.530576 
L 493.031541 150.530576 
L 493.2 152.778541 
L 493.2 152.778541 
" clip-path="url(#pa54c031a6d)" style="fill: none; stroke: #1f77b4; stroke-width: 1.5; stroke-linecap: square"/>
   </g>
   <g id="patch_3">
    <path d="M 51.05 158.510853 
L 51.05 32.4 
" style="fill: none; stroke: #000000; stroke-width: 0.8; stroke-linejoin: miter; stroke-linecap: square"/>
   </g>
   <g id="patch_4">
    <path d="M 493.2 158.510853 
L 493.2 32.4 
" style="fill: none; stroke: #000000; stroke-width: 0.8; stroke-linejoin: miter; stroke-linecap: square"/>
   </g>
   <g id="patch_5">
    <path d="M 51.05 158.510853 
L 493.2 158.510853 
" style="fill: none; stroke: #000000; stroke-width: 0.8; stroke-linejoin: miter; stroke-linecap: square"/>
   </g>
   <g id="patch_6">
    <path d="M 51.05 32.4 
L 493.2 32.4 
" style="fill: none; stroke: #000000; stroke-width: 0.8; stroke-linejoin: miter; stroke-linecap: square"/>
   </g>
  </g>
  <g id="axes_2">
   <g id="patch_7">
    <path d="M 51.05 302.881706 
L 493.2 302.881706 
L 493.2 176.770853 
L 51.05 176.770853 
z
" style="fill: #ffffff"/>
   </g>
   <g id="matplotlib.axis_3">
    <g id="xtick_6">
     <g id="line2d_24">
      <path d="M 127.042022 302.881706 
L 127.042022 176.770853 
" clip-path="url(#p48f98b8212)" style="fill: none; stroke: #b0b0b0; stroke-width: 0.8; stroke-linecap: square"/>
     </g>
     <g id="line2d_25">
      <g>
       <use xlink:href="#me50158dfbb" x="127.042022" y="302.881706" style="stroke: #000000; stroke-width: 0.8"/>
      </g>
     </g>
    </g>
    <g id="xtick_7">
     <g id="line2d_26">
      <path d="M 203.071523 302.881706 
L 203.071523 176.770853 
" clip-path="url(#p48f98b8212)" style="fill: none; stroke: #b0b0b0; stroke-width: 0.8; stroke-linecap: square"/>
     </g>
     <g id="line2d_27">
      <g>
       <use xlink:href="#me50158dfbb" x="203.071523" y="302.881706" style="stroke: #000000; stroke-width: 0.8"/>
      </g>
     </g>
    </g>
    <g id="xtick_8">
     <g id="line2d_28">
      <path d="M 279.101025 302.881706 
L 279.101025 176.770853 
" clip-path="url(#p48f98b8212)" style="fill: none; stroke: #b0b0b0; stroke-width: 0.8; stroke-linecap: square"/>
     </g>
     <g id="line2d_29">
      <g>
       <use xlink:href="#me50158dfbb" x="279.101025" y="302.881706" style="stroke: #000000; stroke-width: 0.8"/>
      </g>
     </g>
    </g>
    <g id="xtick_9">
     <g id="line2d_30">
      <path d="M 355.130526 302.881706 
L 355.130526 176.770853 
" clip-path="url(#p48f98b8212)" style="fill: none; stroke: #b0b0b0; stroke-width: 0.8; stroke-linecap: square"/>
     </g>
     <g id="line2d_31">
      <g>
       <use xlink:href="#me50158dfbb" x="355.130526" y="302.881706" style="stroke: #000000; stroke-width: 0.8"/>
      </g>
     </g>
    </g>
    <g id="xtick_10">
     <g id="line2d_32">
      <path d="M 431.160028 302.881706 
L 431.160028 176.770853 
" clip-path="url(#p48f98b8212)" style="fill: none; stroke: #b0b0b0; stroke-width: 0.8; stroke-linecap: square"/>
     </g>
     <g id="line2d_33">
      <g>
       <use xlink:href="#me50158dfbb" x="431.160028" y="302.881706" style="stroke: #000000; stroke-width: 0.8"/>
      </g>
     </g>
    </g>
   </g>
   <g id="matplotlib.axis_4">
    <g id="ytick_7">
     <g id="line2d_34">
      <path d="M 51.05 302.881706 
L 493.2 302.881706 
" clip-path="url(#p48f98b8212)" style="fill: none; stroke: #b0b0b0; stroke-width: 0.8; stroke-linecap: square"/>
     </g>
     <g id="line2d_35">
      <g>
       <use xlink:href="#m8eee794e12" x="51.05" y="302.881706" style="stroke: #000000; stroke-width: 0.8"/>
      </g>
     </g>
     <g id="text_8">
      <!-- 0 -->
      <g transform="translate(37.6875 306.680924) scale(0.1 -0.1)">
       <defs>
        <path id="DejaVuSans-30" d="M 2034 4250 
Q 1547 4250 1301 3770 
Q 1056 3291 1056 2328 
Q 1056 1369 1301 889 
Q 1547 409 2034 409 
Q 2525 409 2770 889 
Q 3016 1369 3016 2328 
Q 3016 3291 2770 3770 
Q 2525 4250 2034 4250 
z
M 2034 4750 
Q 2819 4750 3233 4129 
Q 3647 3509 3647 2328 
Q 3647 1150 3233 529 
Q 2819 -91 2034 -91 
Q 1250 -91 836 529 
Q 422 1150 422 2328 
Q 422 3509 836 4129 
Q 1250 4750 2034 4750 
z
" transform="scale(0.015625)"/>
       </defs>
       <use xlink:href="#DejaVuSans-30"/>
      </g>
     </g>
    </g>
    <g id="ytick_8">
     <g id="line2d_36">
      <path d="M 51.05 277.659535 
L 493.2 277.659535 
" clip-path="url(#p48f98b8212)" style="fill: none; stroke: #b0b0b0; stroke-width: 0.8; stroke-linecap: square"/>
     </g>
     <g id="line2d_37">
      <g>
       <use xlink:href="#m8eee794e12" x="51.05" y="277.659535" style="stroke: #000000; stroke-width: 0.8"/>
      </g>
     </g>
     <g id="text_9">
      <!-- 20 -->
      <g transform="translate(31.325 281.458754) scale(0.1 -0.1)">
       <defs>
        <path id="DejaVuSans-32" d="M 1228 531 
L 3431 531 
L 3431 0 
L 469 0 
L 469 531 
Q 828 903 1448 1529 
Q 2069 2156 2228 2338 
Q 2531 2678 2651 2914 
Q 2772 3150 2772 3378 
Q 2772 3750 2511 3984 
Q 2250 4219 1831 4219 
Q 1534 4219 1204 4116 
Q 875 4013 500 3803 
L 500 4441 
Q 881 4594 1212 4672 
Q 1544 4750 1819 4750 
Q 2544 4750 2975 4387 
Q 3406 4025 3406 3419 
Q 3406 3131 3298 2873 
Q 3191 2616 2906 2266 
Q 2828 2175 2409 1742 
Q 1991 1309 1228 531 
z
" transform="scale(0.015625)"/>
       </defs>
       <use xlink:href="#DejaVuSans-32"/>
       <use xlink:href="#DejaVuSans-30" x="63.623047"/>
      </g>
     </g>
    </g>
    <g id="ytick_9">
     <g id="line2d_38">
      <path d="M 51.05 252.437365 
L 493.2 252.437365 
" clip-path="url(#p48f98b8212)" style="fill: none; stroke: #b0b0b0; stroke-width: 0.8; stroke-linecap: square"/>
     </g>
     <g id="line2d_39">
      <g>
       <use xlink:href="#m8eee794e12" x="51.05" y="252.437365" style="stroke: #000000; stroke-width: 0.8"/>
      </g>
     </g>
     <g id="text_10">
      <!-- 40 -->
      <g transform="translate(31.325 256.236583) scale(0.1 -0.1)">
       <use xlink:href="#DejaVuSans-34"/>
       <use xlink:href="#DejaVuSans-30" x="63.623047"/>
      </g>
     </g>
    </g>
    <g id="ytick_10">
     <g id="line2d_40">
      <path d="M 51.05 227.215194 
L 493.2 227.215194 
" clip-path="url(#p48f98b8212)" style="fill: none; stroke: #b0b0b0; stroke-width: 0.8; stroke-linecap: square"/>
     </g>
     <g id="line2d_41">
      <g>
       <use xlink:href="#m8eee794e12" x="51.05" y="227.215194" style="stroke: #000000; stroke-width: 0.8"/>
      </g>
     </g>
     <g id="text_11">
      <!-- 60 -->
      <g transform="translate(31.325 231.014413) scale(0.1 -0.1)">
       <use xlink:href="#DejaVuSans-36"/>
       <use xlink:href="#DejaVuSans-30" x="63.623047"/>
      </g>
     </g>
    </g>
    <g id="ytick_11">
     <g id="line2d_42">
      <path d="M 51.05 201.993023 
L 493.2 201.993023 
" clip-path="url(#p48f98b8212)" style="fill: none; stroke: #b0b0b0; stroke-width: 0.8; stroke-linecap: square"/>
     </g>
     <g id="line2d_43">
      <g>
       <use xlink:href="#m8eee794e12" x="51.05" y="201.993023" style="stroke: #000000; stroke-width: 0.8"/>
      </g>
     </g>
     <g id="text_12">
      <!-- 80 -->
      <g transform="translate(31.325 205.792242) scale(0.1 -0.1)">
       <use xlink:href="#DejaVuSans-38"/>
       <use xlink:href="#DejaVuSans-30" x="63.623047"/>
      </g>
     </g>
    </g>
    <g id="ytick_12">
     <g id="line2d_44">
      <path d="M 51.05 176.770853 
L 493.2 176.770853 
" clip-path="url(#p48f98b8212)" style="fill: none; stroke: #b0b0b0; stroke-width: 0.8; stroke-linecap: square"/>
     </g>
     <g id="line2d_45">
      <g>
       <use xlink:href="#m8eee794e12" x="51.05" y="176.770853" style="stroke: #000000; stroke-width: 0.8"/>
      </g>
     </g>
     <g id="text_13">
      <!-- 100 -->
      <g transform="translate(24.9625 180.570072) scale(0.1 -0.1)">
       <defs>
        <path id="DejaVuSans-31" d="M 794 531 
L 1825 531 
L 1825 4091 
L 703 3866 
L 703 4441 
L 1819 4666 
L 2450 4666 
L 2450 531 
L 3481 531 
L 3481 0 
L 794 0 
L 794 531 
z
" transform="scale(0.015625)"/>
       </defs>
       <use xlink:href="#DejaVuSans-31"/>
       <use xlink:href="#DejaVuSans-30" x="63.623047"/>
       <use xlink:href="#DejaVuSans-30" x="127.246094"/>
      </g>
     </g>
    </g>
    <g id="text_14">
     <!-- Humidity [%RH] -->
     <g transform="translate(18.882813 279.973154) rotate(-90) scale(0.1 -0.1)">
      <defs>
       <path id="DejaVuSans-48" d="M 628 4666 
L 1259 4666 
L 1259 2753 
L 3553 2753 
L 3553 4666 
L 4184 4666 
L 4184 0 
L 3553 0 
L 3553 2222 
L 1259 2222 
L 1259 0 
L 628 0 
L 628 4666 
z
" transform="scale(0.015625)"/>
       <path id="DejaVuSans-69" d="M 603 3500 
L 1178 3500 
L 1178 0 
L 603 0 
L 603 3500 
z
M 603 4863 
L 1178 4863 
L 1178 4134 
L 603 4134 
L 603 4863 
z
" transform="scale(0.015625)"/>
       <path id="DejaVuSans-64" d="M 2906 2969 
L 2906 4863 
L 3481 4863 
L 3481 0 
L 2906 0 
L 2906 525 
Q 2725 213 2448 61 
Q 2172 -91 1784 -91 
Q 1150 -91 751 415 
Q 353 922 353 1747 
Q 353 2572 751 3078 
Q 1150 3584 1784 3584 
Q 2172 3584 2448 3432 
Q 2725 3281 2906 2969 
z
M 947 1747 
Q 947 1113 1208 752 
Q 1469 391 1925 391 
Q 2381 391 2643 752 
Q 2906 1113 2906 1747 
Q 2906 2381 2643 2742 
Q 2381 3103 1925 3103 
Q 1469 3103 1208 2742 
Q 947 2381 947 1747 
z
" transform="scale(0.015625)"/>
       <path id="DejaVuSans-79" d="M 2059 -325 
Q 1816 -950 1584 -1140 
Q 1353 -1331 966 -1331 
L 506 -1331 
L 506 -850 
L 844 -850 
Q 1081 -850 1212 -737 
Q 1344 -625 1503 -206 
L 1606 56 
L 191 3500 
L 800 3500 
L 1894 763 
L 2988 3500 
L 3597 3500 
L 2059 -325 
z
" transform="scale(0.015625)"/>
       <path id="DejaVuSans-25" d="M 4653 2053 
Q 4381 2053 4226 1822 
Q 4072 1591 4072 1178 
Q 4072 772 4226 539 
Q 4381 306 4653 306 
Q 4919 306 5073 539 
Q 5228 772 5228 1178 
Q 5228 1588 5073 1820 
Q 4919 2053 4653 2053 
z
M 4653 2450 
Q 5147 2450 5437 2106 
Q 5728 1763 5728 1178 
Q 5728 594 5436 251 
Q 5144 -91 4653 -91 
Q 4153 -91 3862 251 
Q 3572 594 3572 1178 
Q 3572 1766 3864 2108 
Q 4156 2450 4653 2450 
z
M 1428 4353 
Q 1159 4353 1004 4120 
Q 850 3888 850 3481 
Q 850 3069 1003 2837 
Q 1156 2606 1428 2606 
Q 1700 2606 1854 2837 
Q 2009 3069 2009 3481 
Q 2009 3884 1853 4118 
Q 1697 4353 1428 4353 
z
M 4250 4750 
L 4750 4750 
L 1831 -91 
L 1331 -91 
L 4250 4750 
z
M 1428 4750 
Q 1922 4750 2215 4408 
Q 2509 4066 2509 3481 
Q 2509 2891 2217 2550 
Q 1925 2209 1428 2209 
Q 931 2209 642 2551 
Q 353 2894 353 3481 
Q 353 4063 643 4406 
Q 934 4750 1428 4750 
z
" transform="scale(0.015625)"/>
       <path id="DejaVuSans-52" d="M 2841 2188 
Q 3044 2119 3236 1894 
Q 3428 1669 3622 1275 
L 4263 0 
L 3584 0 
L 2988 1197 
Q 2756 1666 2539 1819 
Q 2322 1972 1947 1972 
L 1259 1972 
L 1259 0 
L 628 0 
L 628 4666 
L 2053 4666 
Q 2853 4666 3247 4331 
Q 3641 3997 3641 3322 
Q 3641 2881 3436 2590 
Q 3231 2300 2841 2188 
z
M 1259 4147 
L 1259 2491 
L 2053 2491 
Q 2509 2491 2742 2702 
Q 2975 2913 2975 3322 
Q 2975 3731 2742 3939 
Q 2509 4147 2053 4147 
L 1259 4147 
z
" transform="scale(0.015625)"/>
      </defs>
      <use xlink:href="#DejaVuSans-48"/>
      <use xlink:href="#DejaVuSans-75" x="75.195312"/>
      <use xlink:href="#DejaVuSans-6d" x="138.574219"/>
      <use xlink:href="#DejaVuSans-69" x="235.986328"/>
      <use xlink:href="#DejaVuSans-64" x="263.769531"/>
      <use xlink:href="#DejaVuSans-69" x="327.246094"/>
      <use xlink:href="#DejaVuSans-74" x="355.029297"/>
      <use xlink:href="#DejaVuSans-79" x="394.238281"/>
      <use xlink:href="#DejaVuSans-20" x="453.417969"/>
      <use xlink:href="#DejaVuSans-5b" x="485.205078"/>
      <use xlink:href="#DejaVuSans-25" x="524.21875"/>
      <use xlink:href="#DejaVuSans-52" x="619.238281"/>
      <use xlink:href="#DejaVuSans-48" x="688.720703"/>
      <use xlink:href="#DejaVuSans-5d" x="763.916016"/>
     </g>
    </g>
   </g>
   <g id="line2d_46">
    <path d="M 51.05 199.470806 
L 57.470219 199.470806 
L 57.723818 198.209698 
L 58.990803 198.209698 
L 59.24424 196.948589 
L 60.596304 196.948589 
L 60.681198 195.687481 
L 61.947817 195.687481 
L 62.116841 196.948589 
L 67.185017 196.948589 
L 67.354342 198.209698 
L 68.199161 198.209698 
L 68.368234 199.470806 
L 69.55081 199.470806 
L 69.719785 198.209698 
L 70.564501 198.209698 
L 70.733539 196.948589 
L 74.450468 196.948589 
L 74.619397 198.209698 
L 79.772889 198.209698 
L 80.025723 199.470806 
L 82.391261 199.470806 
L 82.560117 200.731915 
L 83.488973 200.731915 
L 83.657922 201.993023 
L 85.432319 201.993023 
L 85.601264 200.731915 
L 87.121873 200.731915 
L 87.29082 199.470806 
L 87.966503 199.470806 
L 88.135624 198.209698 
L 88.726526 198.209698 
L 88.895477 196.948589 
L 89.656179 196.948589 
L 89.825108 195.687481 
L 90.669878 195.687481 
L 90.838911 194.426372 
L 92.105588 194.426372 
L 92.274537 193.165264 
L 93.795099 193.165264 
L 93.964061 191.904155 
L 98.18788 191.904155 
L 98.356836 193.165264 
L 100.384264 193.165264 
L 100.637874 194.426372 
L 101.229042 194.426372 
L 101.397989 195.687481 
L 103.425433 195.687481 
L 103.595159 194.426372 
L 104.608108 194.426372 
L 104.777059 193.165264 
L 106.044621 193.165264 
L 106.213531 191.904155 
L 107.987164 191.904155 
L 108.156112 190.643047 
L 109.254662 190.643047 
L 109.423594 189.381938 
L 118.885055 189.381938 
L 119.053896 190.643047 
L 121.16624 190.643047 
L 121.334427 191.904155 
L 122.686713 191.904155 
L 122.939766 193.165264 
L 123.446703 193.165264 
L 123.530819 191.904155 
L 123.699761 199.470806 
L 124.460183 199.470806 
L 124.629401 191.904155 
L 124.713481 191.904155 
L 124.882436 193.165264 
L 125.727198 193.165264 
L 125.896835 199.470806 
L 127.58568 199.470806 
L 127.754642 198.209698 
L 128.008404 198.209698 
L 128.177366 199.470806 
L 131.640536 199.470806 
L 131.80949 193.165264 
L 136.033304 193.165264 
L 136.202255 191.904155 
L 137.807607 191.904155 
L 137.976608 190.643047 
L 139.835125 190.643047 
L 140.004073 189.381938 
L 145.579486 189.381938 
L 145.748363 190.643047 
L 151.99972 190.643047 
L 152.168599 189.381938 
L 176.49787 189.381938 
L 176.58198 190.643047 
L 178.102545 190.643047 
L 178.27213 191.904155 
L 180.383779 191.904155 
L 180.552714 193.165264 
L 180.636853 193.165264 
L 180.805807 191.904155 
L 182.664287 191.904155 
L 182.833232 190.643047 
L 185.705441 190.643047 
L 185.874389 189.381938 
L 261.059292 189.381938 
L 261.227489 190.643047 
L 262.410164 190.643047 
L 262.579918 191.904155 
L 262.832851 191.904155 
L 263.001849 193.165264 
L 264.860421 193.165264 
L 265.029382 191.904155 
L 267.056658 191.904155 
L 267.225636 193.165264 
L 269.252948 193.165264 
L 269.421995 194.426372 
L 270.688844 194.426372 
L 270.857792 193.165264 
L 273.392092 193.165264 
L 273.561052 191.904155 
L 273.730714 191.904155 
L 273.898948 193.165264 
L 276.518002 193.165264 
L 276.687017 194.426372 
L 277.953819 194.426372 
L 278.122762 193.165264 
L 278.376501 193.165264 
L 278.461415 194.426372 
L 278.798587 194.426372 
L 278.967548 195.687481 
L 279.559111 195.687481 
L 279.728164 196.948589 
L 279.981883 196.948589 
L 280.234828 198.209698 
L 280.403898 198.209698 
L 280.488113 199.470806 
L 280.657062 198.209698 
L 282.093502 198.209698 
L 282.262399 196.948589 
L 282.346593 196.948589 
L 282.600346 199.470806 
L 282.769277 199.470806 
L 282.938314 200.731915 
L 284.036121 200.731915 
L 284.205073 201.993023 
L 284.965438 201.993023 
L 285.134668 209.559675 
L 285.303634 208.298566 
L 285.387738 208.298566 
L 285.641543 210.820783 
L 285.979382 210.820783 
L 286.148348 212.081892 
L 286.232503 212.081892 
L 286.402154 213.343 
L 286.73936 213.343 
L 286.908312 212.081892 
L 287.24689 212.081892 
L 287.415164 213.343 
L 287.753065 213.343 
L 287.922025 214.604109 
L 288.344759 212.081892 
L 288.513637 212.081892 
L 288.682529 213.343 
L 289.104696 213.343 
L 289.273651 212.081892 
L 289.696043 212.081892 
L 289.865298 213.343 
L 290.45631 213.343 
L 290.625266 212.081892 
L 292.399776 212.081892 
L 292.568689 213.343 
L 293.751401 213.343 
L 293.920352 207.037458 
L 294.342912 207.037458 
L 294.595856 205.776349 
L 294.680125 205.776349 
L 294.849073 204.51524 
L 295.102733 204.51524 
L 295.355935 201.993023 
L 295.440625 201.993023 
L 295.609745 203.254132 
L 295.86279 203.254132 
L 296.116402 201.993023 
L 296.623295 201.993023 
L 296.792209 200.731915 
L 297.045461 200.731915 
L 297.214419 201.993023 
L 298.228137 201.993023 
L 298.397091 209.559675 
L 298.734993 209.559675 
L 298.819894 201.993023 
L 298.903947 209.559675 
L 299.073528 201.993023 
L 299.579758 201.993023 
L 299.74871 200.731915 
L 300.509238 200.731915 
L 300.593474 199.470806 
L 301.945085 199.470806 
L 302.114041 200.731915 
L 303.719595 200.731915 
L 303.803571 201.993023 
L 307.014211 201.993023 
L 307.605402 205.776349 
L 307.858437 205.776349 
L 308.02739 204.51524 
L 308.365289 204.51524 
L 308.534241 203.254132 
L 309.210056 203.254132 
L 309.37901 201.993023 
L 309.885871 201.993023 
L 310.054823 200.731915 
L 310.646386 200.731915 
L 310.815298 199.470806 
L 311.744353 199.470806 
L 311.99795 198.209698 
L 313.011713 198.209698 
L 313.180628 196.948589 
L 314.78551 196.948589 
L 314.955185 195.687481 
L 316.390818 195.687481 
L 316.475034 194.426372 
L 317.573595 194.426372 
L 317.742481 193.165264 
L 322.810974 193.165264 
L 322.895917 191.904155 
L 331.34291 191.904155 
L 331.511848 193.165264 
L 337.678919 193.165264 
L 337.847903 191.904155 
L 344.183324 191.904155 
L 344.352276 190.643047 
L 347.9003 190.643047 
L 348.069245 191.904155 
L 354.236413 191.904155 
L 354.405335 190.643047 
L 355.334221 190.643047 
L 355.503175 191.904155 
L 358.291281 191.904155 
L 358.460234 190.643047 
L 360.656577 190.643047 
L 360.825513 191.904155 
L 362.852798 191.904155 
L 363.021961 193.165264 
L 364.964539 193.165264 
L 365.133507 191.904155 
L 374.003757 191.904155 
L 374.172836 193.165264 
L 374.93279 193.165264 
L 375.101741 191.904155 
L 375.608603 191.904155 
L 375.777553 193.165264 
L 377.72071 193.165264 
L 377.889691 191.904155 
L 380.33929 191.904155 
L 380.508241 190.643047 
L 386.337479 190.643047 
L 386.421607 191.904155 
L 387.520142 191.904155 
L 387.68904 193.165264 
L 390.307526 193.165264 
L 390.476473 194.426372 
L 390.645434 193.165264 
L 390.814384 193.165264 
L 390.983335 194.426372 
L 392.166015 194.426372 
L 392.334966 193.165264 
L 393.855553 193.165264 
L 394.025259 194.426372 
L 394.785123 194.426372 
L 394.954074 193.165264 
L 398.248335 193.165264 
L 398.417298 191.904155 
L 398.586236 193.165264 
L 400.444728 193.165264 
L 400.613678 194.426372 
L 400.783282 194.426372 
L 401.0363 195.687481 
L 401.289497 195.687481 
L 401.45845 196.948589 
L 401.543231 196.948589 
L 401.71219 195.687481 
L 403.316929 195.687481 
L 403.485886 194.426372 
L 406.611815 194.426372 
L 406.780774 193.165264 
L 408.639258 193.165264 
L 408.724226 194.426372 
L 417.002127 194.426372 
L 417.17108 193.165264 
L 418.354339 193.165264 
L 418.522709 191.904155 
L 423.000354 191.904155 
L 423.168904 193.165264 
L 424.098154 193.165264 
L 424.267117 191.904155 
L 425.449788 191.904155 
L 425.618736 193.165264 
L 429.3357 193.165264 
L 429.589253 194.426372 
L 430.349422 194.426372 
L 430.518373 193.165264 
L 431.36314 193.165264 
L 431.532094 194.426372 
L 432.123789 194.426372 
L 432.292583 195.687481 
L 433.13754 195.687481 
L 433.306521 194.426372 
L 433.897442 194.426372 
L 434.066398 193.165264 
L 435.756594 193.165264 
L 436.009603 194.426372 
L 436.938599 194.426372 
L 437.107549 195.687481 
L 437.446071 195.687481 
L 437.614416 196.948589 
L 438.375083 196.948589 
L 438.543864 198.209698 
L 439.219775 198.209698 
L 439.388846 199.470806 
L 439.979762 199.470806 
L 440.148716 200.731915 
L 440.402527 200.731915 
L 440.486619 199.470806 
L 441.078388 199.470806 
L 441.247232 200.731915 
L 441.75418 200.731915 
L 441.92316 201.993023 
L 444.626197 201.993023 
L 444.879398 204.51524 
L 445.217299 204.51524 
L 445.470809 203.254132 
L 446.146767 203.254132 
L 446.315744 201.993023 
L 446.653634 201.993023 
L 447.075786 207.037458 
L 447.329421 207.037458 
L 447.498407 205.776349 
L 447.667322 205.776349 
L 447.836511 204.51524 
L 449.103214 204.51524 
L 449.27217 203.254132 
L 449.610077 203.254132 
L 449.779038 201.993023 
L 451.384313 201.993023 
L 451.553228 200.731915 
L 452.482289 200.731915 
L 452.65124 199.470806 
L 452.989151 199.470806 
L 453.1581 198.209698 
L 454.002865 198.209698 
L 454.171817 199.470806 
L 455.946015 199.470806 
L 456.114994 198.209698 
L 457.128889 198.209698 
L 457.297663 196.948589 
L 458.564583 196.948589 
L 458.733548 198.209698 
L 459.240409 198.209698 
L 459.409356 196.948589 
L 459.494016 196.948589 
L 459.578883 198.209698 
L 460.08517 198.209698 
L 460.254125 199.470806 
L 460.592035 199.470806 
L 460.760985 200.731915 
L 460.929944 200.731915 
L 461.098893 199.470806 
L 461.943642 199.470806 
L 462.112593 198.209698 
L 462.704328 198.209698 
L 463.042139 196.948589 
L 467.097102 196.948589 
L 467.181193 195.687481 
L 467.350147 196.948589 
L 468.194915 196.948589 
L 468.36387 195.687481 
L 469.715493 195.687481 
L 469.884451 196.948589 
L 471.067114 196.948589 
L 471.236066 195.687481 
L 471.320763 195.687481 
L 471.489882 196.948589 
L 473.263505 196.948589 
L 473.432464 198.209698 
L 474.531001 198.209698 
L 474.700056 196.948589 
L 477.318383 196.948589 
L 477.487331 198.209698 
L 479.683727 198.209698 
L 479.85268 199.470806 
L 479.9376 199.470806 
L 480.106515 198.209698 
L 481.458177 198.209698 
L 481.627082 196.948589 
L 481.880733 196.948589 
L 482.133874 198.209698 
L 482.893841 198.209698 
L 483.063529 196.948589 
L 484.499224 196.948589 
L 484.668273 198.209698 
L 485.174722 198.209698 
L 485.34405 199.470806 
L 486.526662 199.470806 
L 486.611332 200.731915 
L 489.736765 200.731915 
L 489.82164 199.470806 
L 493.2 199.470806 
L 493.2 199.470806 
" clip-path="url(#p48f98b8212)" style="fill: none; stroke: #ff7f0e; stroke-width: 1.5; stroke-linecap: square"/>
   </g>
   <g id="patch_8">
    <path d="M 51.05 302.881706 
L 51.05 176.770853 
" style="fill: none; stroke: #000000; stroke-width: 0.8; stroke-linejoin: miter; stroke-linecap: square"/>
   </g>
   <g id="patch_9">
    <path d="M 493.2 302.881706 
L 493.2 176.770853 
" style="fill: none; stroke: #000000; stroke-width: 0.8; stroke-linejoin: miter; stroke-linecap: square"/>
   </g>
   <g id="patch_10">
    <path d="M 51.05 302.881706 
L 493.2 302.881706 
" style="fill: none; stroke: #000000; stroke-width: 0.8; stroke-linejoin: miter; stroke-linecap: square"/>
   </g>
   <g id="patch_11">
    <path d="M 51.05 176.770853 
L 493.2 176.770853 
" style="fill: none; stroke: #000000; stroke-width: 0.8; stroke-linejoin: miter; stroke-linecap: square"/>
   </g>
  </g>
  <g id="axes_3">
   <g id="patch_12">
    <path d="M 51.05 447.252558 
L 493.2 447.252558 
L 493.2 321.141706 
L 51.05 321.141706 
z
" style="fill: #ffffff"/>
   </g>
   <g id="matplotlib.axis_5">
    <g id="xtick_11">
     <g id="line2d_47">
      <path d="M 127.042022 447.252558 
L 127.042022 321.141706 
" clip-path="url(#pe5f01fed65)" style="fill: none; stroke: #b0b0b0; stroke-width: 0.8; stroke-linecap: square"/>
     </g>
     <g id="line2d_48">
      <g>
       <use xlink:href="#me50158dfbb" x="127.042022" y="447.252558" style="stroke: #000000; stroke-width: 0.8"/>
      </g>
     </g>
     <g id="text_15">
      <!-- 03-01 12 -->
      <g transform="translate(113.097102 491.417649) rotate(-45) scale(0.1 -0.1)">
       <defs>
        <path id="DejaVuSans-2d" d="M 313 2009 
L 1997 2009 
L 1997 1497 
L 313 1497 
L 313 2009 
z
" transform="scale(0.015625)"/>
       </defs>
       <use xlink:href="#DejaVuSans-30"/>
       <use xlink:href="#DejaVuSans-33" x="63.623047"/>
       <use xlink:href="#DejaVuSans-2d" x="127.246094"/>
       <use xlink:href="#DejaVuSans-30" x="163.330078"/>
       <use xlink:href="#DejaVuSans-31" x="226.953125"/>
       <use xlink:href="#DejaVuSans-20" x="290.576172"/>
       <use xlink:href="#DejaVuSans-31" x="322.363281"/>
       <use xlink:href="#DejaVuSans-32" x="385.986328"/>
      </g>
     </g>
    </g>
    <g id="xtick_12">
     <g id="line2d_49">
      <path d="M 203.071523 447.252558 
L 203.071523 321.141706 
" clip-path="url(#pe5f01fed65)" style="fill: none; stroke: #b0b0b0; stroke-width: 0.8; stroke-linecap: square"/>
     </g>
     <g id="line2d_50">
      <g>
       <use xlink:href="#me50158dfbb" x="203.071523" y="447.252558" style="stroke: #000000; stroke-width: 0.8"/>
      </g>
     </g>
     <g id="text_16">
      <!-- 03-02 00 -->
      <g transform="translate(189.126604 491.417649) rotate(-45) scale(0.1 -0.1)">
       <use xlink:href="#DejaVuSans-30"/>
       <use xlink:href="#DejaVuSans-33" x="63.623047"/>
       <use xlink:href="#DejaVuSans-2d" x="127.246094"/>
       <use xlink:href="#DejaVuSans-30" x="163.330078"/>
       <use xlink:href="#DejaVuSans-32" x="226.953125"/>
       <use xlink:href="#DejaVuSans-20" x="290.576172"/>
       <use xlink:href="#DejaVuSans-30" x="322.363281"/>
       <use xlink:href="#DejaVuSans-30" x="385.986328"/>
      </g>
     </g>
    </g>
    <g id="xtick_13">
     <g id="line2d_51">
      <path d="M 279.101025 447.252558 
L 279.101025 321.141706 
" clip-path="url(#pe5f01fed65)" style="fill: none; stroke: #b0b0b0; stroke-width: 0.8; stroke-linecap: square"/>
     </g>
     <g id="line2d_52">
      <g>
       <use xlink:href="#me50158dfbb" x="279.101025" y="447.252558" style="stroke: #000000; stroke-width: 0.8"/>
      </g>
     </g>
     <g id="text_17">
      <!-- 03-02 12 -->
      <g transform="translate(265.156106 491.417649) rotate(-45) scale(0.1 -0.1)">
       <use xlink:href="#DejaVuSans-30"/>
       <use xlink:href="#DejaVuSans-33" x="63.623047"/>
       <use xlink:href="#DejaVuSans-2d" x="127.246094"/>
       <use xlink:href="#DejaVuSans-30" x="163.330078"/>
       <use xlink:href="#DejaVuSans-32" x="226.953125"/>
       <use xlink:href="#DejaVuSans-20" x="290.576172"/>
       <use xlink:href="#DejaVuSans-31" x="322.363281"/>
       <use xlink:href="#DejaVuSans-32" x="385.986328"/>
      </g>
     </g>
    </g>
    <g id="xtick_14">
     <g id="line2d_53">
      <path d="M 355.130526 447.252558 
L 355.130526 321.141706 
" clip-path="url(#pe5f01fed65)" style="fill: none; stroke: #b0b0b0; stroke-width: 0.8; stroke-linecap: square"/>
     </g>
     <g id="line2d_54">
      <g>
       <use xlink:href="#me50158dfbb" x="355.130526" y="447.252558" style="stroke: #000000; stroke-width: 0.8"/>
      </g>
     </g>
     <g id="text_18">
      <!-- 03-03 00 -->
      <g transform="translate(341.185607 491.417649) rotate(-45) scale(0.1 -0.1)">
       <use xlink:href="#DejaVuSans-30"/>
       <use xlink:href="#DejaVuSans-33" x="63.623047"/>
       <use xlink:href="#DejaVuSans-2d" x="127.246094"/>
       <use xlink:href="#DejaVuSans-30" x="163.330078"/>
       <use xlink:href="#DejaVuSans-33" x="226.953125"/>
       <use xlink:href="#DejaVuSans-20" x="290.576172"/>
       <use xlink:href="#DejaVuSans-30" x="322.363281"/>
       <use xlink:href="#DejaVuSans-30" x="385.986328"/>
      </g>
     </g>
    </g>
    <g id="xtick_15">
     <g id="line2d_55">
      <path d="M 431.160028 447.252558 
L 431.160028 321.141706 
" clip-path="url(#pe5f01fed65)" style="fill: none; stroke: #b0b0b0; stroke-width: 0.8; stroke-linecap: square"/>
     </g>
     <g id="line2d_56">
      <g>
       <use xlink:href="#me50158dfbb" x="431.160028" y="447.252558" style="stroke: #000000; stroke-width: 0.8"/>
      </g>
     </g>
     <g id="text_19">
      <!-- 03-03 12 -->
      <g transform="translate(417.215109 491.417649) rotate(-45) scale(0.1 -0.1)">
       <use xlink:href="#DejaVuSans-30"/>
       <use xlink:href="#DejaVuSans-33" x="63.623047"/>
       <use xlink:href="#DejaVuSans-2d" x="127.246094"/>
       <use xlink:href="#DejaVuSans-30" x="163.330078"/>
       <use xlink:href="#DejaVuSans-33" x="226.953125"/>
       <use xlink:href="#DejaVuSans-20" x="290.576172"/>
       <use xlink:href="#DejaVuSans-31" x="322.363281"/>
       <use xlink:href="#DejaVuSans-32" x="385.986328"/>
      </g>
     </g>
    </g>
   </g>
   <g id="matplotlib.axis_6">
    <g id="ytick_13">
     <g id="line2d_57">
      <path d="M 51.05 442.023081 
L 493.2 442.023081 
" clip-path="url(#pe5f01fed65)" style="fill: none; stroke: #b0b0b0; stroke-width: 0.8; stroke-linecap: square"/>
     </g>
     <g id="line2d_58">
      <g>
       <use xlink:href="#m8eee794e12" x="51.05" y="442.023081" style="stroke: #000000; stroke-width: 0.8"/>
      </g>
     </g>
     <g id="text_20">
      <!-- 710 -->
      <g transform="translate(24.9625 445.8223) scale(0.1 -0.1)">
       <use xlink:href="#DejaVuSans-37"/>
       <use xlink:href="#DejaVuSans-31" x="63.623047"/>
       <use xlink:href="#DejaVuSans-30" x="127.246094"/>
      </g>
     </g>
    </g>
    <g id="ytick_14">
     <g id="line2d_59">
      <path d="M 51.05 416.881364 
L 493.2 416.881364 
" clip-path="url(#pe5f01fed65)" style="fill: none; stroke: #b0b0b0; stroke-width: 0.8; stroke-linecap: square"/>
     </g>
     <g id="line2d_60">
      <g>
       <use xlink:href="#m8eee794e12" x="51.05" y="416.881364" style="stroke: #000000; stroke-width: 0.8"/>
      </g>
     </g>
     <g id="text_21">
      <!-- 715 -->
      <g transform="translate(24.9625 420.680583) scale(0.1 -0.1)">
       <use xlink:href="#DejaVuSans-37"/>
       <use xlink:href="#DejaVuSans-31" x="63.623047"/>
       <use xlink:href="#DejaVuSans-35" x="127.246094"/>
      </g>
     </g>
    </g>
    <g id="ytick_15">
     <g id="line2d_61">
      <path d="M 51.05 391.739647 
L 493.2 391.739647 
" clip-path="url(#pe5f01fed65)" style="fill: none; stroke: #b0b0b0; stroke-width: 0.8; stroke-linecap: square"/>
     </g>
     <g id="line2d_62">
      <g>
       <use xlink:href="#m8eee794e12" x="51.05" y="391.739647" style="stroke: #000000; stroke-width: 0.8"/>
      </g>
     </g>
     <g id="text_22">
      <!-- 720 -->
      <g transform="translate(24.9625 395.538866) scale(0.1 -0.1)">
       <use xlink:href="#DejaVuSans-37"/>
       <use xlink:href="#DejaVuSans-32" x="63.623047"/>
       <use xlink:href="#DejaVuSans-30" x="127.246094"/>
      </g>
     </g>
    </g>
    <g id="ytick_16">
     <g id="line2d_63">
      <path d="M 51.05 366.59793 
L 493.2 366.59793 
" clip-path="url(#pe5f01fed65)" style="fill: none; stroke: #b0b0b0; stroke-width: 0.8; stroke-linecap: square"/>
     </g>
     <g id="line2d_64">
      <g>
       <use xlink:href="#m8eee794e12" x="51.05" y="366.59793" style="stroke: #000000; stroke-width: 0.8"/>
      </g>
     </g>
     <g id="text_23">
      <!-- 725 -->
      <g transform="translate(24.9625 370.397149) scale(0.1 -0.1)">
       <use xlink:href="#DejaVuSans-37"/>
       <use xlink:href="#DejaVuSans-32" x="63.623047"/>
       <use xlink:href="#DejaVuSans-35" x="127.246094"/>
      </g>
     </g>
    </g>
    <g id="ytick_17">
     <g id="line2d_65">
      <path d="M 51.05 341.456213 
L 493.2 341.456213 
" clip-path="url(#pe5f01fed65)" style="fill: none; stroke: #b0b0b0; stroke-width: 0.8; stroke-linecap: square"/>
     </g>
     <g id="line2d_66">
      <g>
       <use xlink:href="#m8eee794e12" x="51.05" y="341.456213" style="stroke: #000000; stroke-width: 0.8"/>
      </g>
     </g>
     <g id="text_24">
      <!-- 730 -->
      <g transform="translate(24.9625 345.255432) scale(0.1 -0.1)">
       <use xlink:href="#DejaVuSans-37"/>
       <use xlink:href="#DejaVuSans-33" x="63.623047"/>
       <use xlink:href="#DejaVuSans-30" x="127.246094"/>
      </g>
     </g>
    </g>
    <g id="text_25">
     <!-- Rain [mm] -->
     <g transform="translate(18.882813 410.411976) rotate(-90) scale(0.1 -0.1)">
      <defs>
       <path id="DejaVuSans-6e" d="M 3513 2113 
L 3513 0 
L 2938 0 
L 2938 2094 
Q 2938 2591 2744 2837 
Q 2550 3084 2163 3084 
Q 1697 3084 1428 2787 
Q 1159 2491 1159 1978 
L 1159 0 
L 581 0 
L 581 3500 
L 1159 3500 
L 1159 2956 
Q 1366 3272 1645 3428 
Q 1925 3584 2291 3584 
Q 2894 3584 3203 3211 
Q 3513 2838 3513 2113 
z
" transform="scale(0.015625)"/>
      </defs>
      <use xlink:href="#DejaVuSans-52"/>
      <use xlink:href="#DejaVuSans-61" x="67.232422"/>
      <use xlink:href="#DejaVuSans-69" x="128.511719"/>
      <use xlink:href="#DejaVuSans-6e" x="156.294922"/>
      <use xlink:href="#DejaVuSans-20" x="219.673828"/>
      <use xlink:href="#DejaVuSans-5b" x="251.460938"/>
      <use xlink:href="#DejaVuSans-6d" x="290.474609"/>
      <use xlink:href="#DejaVuSans-6d" x="387.886719"/>
      <use xlink:href="#DejaVuSans-5d" x="485.298828"/>
     </g>
    </g>
   </g>
   <g id="line2d_67">
    <path d="M 51.05 441.520247 
L 58.737873 441.520247 
L 58.906754 440.011744 
L 92.612439 440.011744 
L 92.781396 438.503241 
L 95.654403 438.503241 
L 95.907275 436.994738 
L 104.355135 436.994738 
L 104.524074 435.486235 
L 106.128689 435.486235 
L 106.297641 433.977732 
L 107.734022 433.977732 
L 107.903016 432.469229 
L 111.957868 432.469229 
L 112.126881 430.960726 
L 119.644913 430.960726 
L 119.813859 429.452223 
L 128.684171 429.452223 
L 128.853227 427.94372 
L 131.218567 427.94372 
L 131.387442 426.435217 
L 133.330058 426.435217 
L 133.499009 424.926714 
L 134.766532 424.926714 
L 134.935374 423.418211 
L 136.624963 423.418211 
L 136.793998 421.909708 
L 138.145519 421.909708 
L 138.314466 420.401205 
L 140.088165 420.401205 
L 140.341733 418.892702 
L 145.410504 418.892702 
L 145.579486 417.384199 
L 147.944812 417.384199 
L 148.028941 415.875696 
L 149.380564 415.875696 
L 149.549516 414.367193 
L 151.239046 414.367193 
L 151.492669 412.85869 
L 152.421711 412.85869 
L 152.59066 411.350187 
L 153.773334 411.350187 
L 153.942287 409.841683 
L 154.449853 409.841683 
L 154.702842 408.33318 
L 155.040713 408.33318 
L 155.209921 406.824677 
L 155.462861 406.824677 
L 155.631817 405.316174 
L 156.223259 405.316174 
L 156.392458 403.807671 
L 156.476576 403.807671 
L 156.645529 402.299168 
L 159.433435 402.299168 
L 159.602568 400.790665 
L 163.06574 400.790665 
L 163.234693 399.282162 
L 166.444791 399.282162 
L 166.613755 397.773659 
L 171.682344 397.773659 
L 171.85129 396.265156 
L 187.310808 396.265156 
L 187.479797 394.756653 
L 196.180536 394.756653 
L 196.349478 393.24815 
L 212.231072 393.24815 
L 212.400039 391.739647 
L 216.03291 391.739647 
L 216.201827 390.231144 
L 241.628919 390.231144 
L 241.797878 388.722641 
L 249.485657 388.722641 
L 249.654481 387.214138 
L 250.161388 387.214138 
L 250.330354 385.705635 
L 250.499264 385.705635 
L 250.668194 384.197132 
L 251.766116 384.197132 
L 251.935071 382.688629 
L 253.371499 382.688629 
L 253.540517 381.180126 
L 254.892077 381.180126 
L 255.060934 379.671623 
L 314.870249 379.671623 
L 314.955185 378.16312 
L 326.696873 378.16312 
L 326.865923 376.654617 
L 327.879527 376.654617 
L 328.048529 375.146114 
L 333.877193 375.146114 
L 334.046921 373.637611 
L 335.313659 373.637611 
L 335.482636 372.129108 
L 336.15843 372.129108 
L 336.327343 370.620605 
L 337.340728 370.620605 
L 337.509937 369.112102 
L 345.872852 369.112102 
L 346.041807 367.603599 
L 360.571768 367.603599 
L 360.740718 366.095096 
L 363.528819 366.095096 
L 363.697732 364.586593 
L 364.035573 364.586593 
L 364.119775 363.07809 
L 365.049375 363.07809 
L 365.218347 361.569587 
L 366.738914 361.569587 
L 366.907823 360.061084 
L 368.00571 360.061084 
L 368.174662 358.552581 
L 369.948997 358.552581 
L 370.117931 357.044078 
L 370.877912 357.044078 
L 371.046864 355.535575 
L 371.976414 355.535575 
L 372.145326 354.027072 
L 374.763831 354.027072 
L 374.93279 352.518569 
L 377.298138 352.518569 
L 377.467084 351.010066 
L 380.171001 351.010066 
L 380.33929 349.501563 
L 384.394171 349.501563 
L 384.563125 347.993059 
L 385.83061 347.993059 
L 385.999573 346.484556 
L 390.307526 346.484556 
L 390.476473 344.976053 
L 393.264523 344.976053 
L 393.433489 343.46755 
L 408.38552 343.46755 
L 408.554472 341.959047 
L 415.988407 341.959047 
L 416.157364 340.450544 
L 420.043282 340.450544 
L 420.212238 338.942041 
L 422.408618 338.942041 
L 422.577582 337.433538 
L 423.338229 337.433538 
L 423.507229 335.925035 
L 425.703644 335.925035 
L 425.872557 334.416532 
L 427.731016 334.416532 
L 427.815622 332.908029 
L 433.55954 332.908029 
L 433.72849 331.399526 
L 454.678674 331.399526 
L 454.763341 329.891023 
L 462.028471 329.891023 
L 462.197453 328.38252 
L 468.532812 328.38252 
L 468.701772 326.874017 
L 493.2 326.874017 
L 493.2 326.874017 
" clip-path="url(#pe5f01fed65)" style="fill: none; stroke: #9467bd; stroke-width: 1.5; stroke-linecap: square"/>
   </g>
   <g id="patch_13">
    <path d="M 51.05 447.252558 
L 51.05 321.141706 
" style="fill: none; stroke: #000000; stroke-width: 0.8; stroke-linejoin: miter; stroke-linecap: square"/>
   </g>
   <g id="patch_14">
    <path d="M 493.2 447.252558 
L 493.2 321.141706 
" style="fill: none; stroke: #000000; stroke-width: 0.8; stroke-linejoin: miter; stroke-linecap: square"/>
   </g>
   <g id="patch_15">
    <path d="M 51.05 447.252558 
L 493.2 447.252558 
" style="fill: none; stroke: #000000; stroke-width: 0.8; stroke-linejoin: miter; stroke-linecap: square"/>
   </g>
   <g id="patch_16">
    <path d="M 51.05 321.141706 
L 493.2 321.141706 
" style="fill: none; stroke: #000000; stroke-width: 0.8; stroke-linejoin: miter; stroke-linecap: square"/>
   </g>
  </g>
  <g id="text_26">
   <!-- Weather data - March 2024 -->
   <g transform="translate(169.874063 19.198125) scale(0.12 -0.12)">
    <defs>
     <path id="DejaVuSans-57" d="M 213 4666 
L 850 4666 
L 1831 722 
L 2809 4666 
L 3519 4666 
L 4500 722 
L 5478 4666 
L 6119 4666 
L 4947 0 
L 4153 0 
L 3169 4050 
L 2175 0 
L 1381 0 
L 213 4666 
z
" transform="scale(0.015625)"/>
     <path id="DejaVuSans-68" d="M 3513 2113 
L 3513 0 
L 2938 0 
L 2938 2094 
Q 2938 2591 2744 2837 
Q 2550 3084 2163 3084 
Q 1697 3084 1428 2787 
Q 1159 2491 1159 1978 
L 1159 0 
L 581 0 
L 581 4863 
L 1159 4863 
L 1159 2956 
Q 1366 3272 1645 3428 
Q 1925 3584 2291 3584 
Q 2894 3584 3203 3211 
Q 3513 2838 3513 2113 
z
" transform="scale(0.015625)"/>
     <path id="DejaVuSans-4d" d="M 628 4666 
L 1569 4666 
L 2759 1491 
L 3956 4666 
L 4897 4666 
L 4897 0 
L 4281 0 
L 4281 4097 
L 3078 897 
L 2444 897 
L 1241 4097 
L 1241 0 
L 628 0 
L 628 4666 
z
" transform="scale(0.015625)"/>
     <path id="DejaVuSans-63" d="M 3122 3366 
L 3122 2828 
Q 2878 2963 2633 3030 
Q 2388 3097 2138 3097 
Q 1578 3097 1268 2742 
Q 959 2388 959 1747 
Q 959 1106 1268 751 
Q 1578 397 2138 397 
Q 2388 397 2633 464 
Q 2878 531 3122 666 
L 3122 134 
Q 2881 22 2623 -34 
Q 2366 -91 2075 -91 
Q 1284 -91 818 406 
Q 353 903 353 1747 
Q 353 2603 823 3093 
Q 1294 3584 2113 3584 
Q 2378 3584 2631 3529 
Q 2884 3475 3122 3366 
z
" transform="scale(0.015625)"/>
    </defs>
    <use xlink:href="#DejaVuSans-57"/>
    <use xlink:href="#DejaVuSans-65" x="93.001953"/>
    <use xlink:href="#DejaVuSans-61" x="154.525391"/>
    <use xlink:href="#DejaVuSans-74" x="215.804688"/>
    <use xlink:href="#DejaVuSans-68" x="255.013672"/>
    <use xlink:href="#DejaVuSans-65" x="318.392578"/>
    <use xlink:href="#DejaVuSans-72" x="379.916016"/>
    <use xlink:href="#DejaVuSans-20" x="421.029297"/>
    <use xlink:href="#DejaVuSans-64" x="452.816406"/>
    <use xlink:href="#DejaVuSans-61" x="516.292969"/>
    <use xlink:href="#DejaVuSans-74" x="577.572266"/>
    <use xlink:href="#DejaVuSans-61" x="616.78125"/>
    <use xlink:href="#DejaVuSans-20" x="678.060547"/>
    <use xlink:href="#DejaVuSans-2d" x="709.847656"/>
    <use xlink:href="#DejaVuSans-20" x="745.931641"/>
    <use xlink:href="#DejaVuSans-4d" x="777.71875"/>
    <use xlink:href="#DejaVuSans-61" x="863.998047"/>
    <use xlink:href="#DejaVuSans-72" x="925.277344"/>
    <use xlink:href="#DejaVuSans-63" x="964.140625"/>
    <use xlink:href="#DejaVuSans-68" x="1019.121094"/>
    <use xlink:href="#DejaVuSans-20" x="1082.5"/>
    <use xlink:href="#DejaVuSans-32" x="1114.287109"/>
    <use xlink:href="#DejaVuSans-30" x="1177.910156"/>
    <use xlink:href="#DejaVuSans-32" x="1241.533203"/>
    <use xlink:href="#DejaVuSans-34" x="1305.15625"/>
   </g>
  </g>
 </g>
 <defs>
  <clipPath id="pa54c031a6d">
   <rect x="51.05" y="32.4" width="442.15" height="126.110853"/>
  </clipPath>
  <clipPath id="p48f98b8212">
   <rect x="51.05" y="176.770853" width="442.15" height="126.110853"/>
  </clipPath>
  <clipPath id="pe5f01fed65">
   <rect x="51.05" y="321.141706" width="442.15" height="126.110853"/>
  </clipPath>
 </defs>
</svg>
