<?xml version="1.0" encoding="utf-8" standalone="no"?>
<!DOCTYPE svg PUBLIC "-//W3C//DTD SVG 1.1//EN"
  "http://www.w3.org/Graphics/SVG/1.1/DTD/svg11.dtd">
<svg xmlns:xlink="http://www.w3.org/1999/xlink" width="504pt" height="504pt" viewBox="0 0 504 504" xmlns="http://www.w3.org/2000/svg" version="1.1">
 <metadata>
  <rdf:RDF xmlns:dc="http://purl.org/dc/elements/1.1/" xmlns:cc="http://creativecommons.org/ns#" xmlns:rdf="http://www.w3.org/1999/02/22-rdf-syntax-ns#">
   <cc:Work>
    <dc:type rdf:resource="http://purl.org/dc/dcmitype/StillImage"/>
    <dc:date>2024-03-02T13:42:08.551598</dc:date>
    <dc:format>image/svg+xml</dc:format>
    <dc:creator>
     <cc:Agent>
      <dc:title>Matplotlib v3.6.3, https://matplotlib.org/</dc:title>
     </cc:Agent>
    </dc:creator>
   </cc:Work>
  </rdf:RDF>
 </metadata>
 <defs>
  <style type="text/css">*{stroke-linejoin: round; stroke-linecap: butt}</style>
 </defs>
 <g id="figure_1">
  <g id="patch_1">
   <path d="M 0 504 
L 504 504 
L 504 0 
L 0 0 
z
" style="fill: #ffffff"/>
  </g>
  <g id="axes_1">
   <g id="patch_2">
    <path d="M 51.05 158.493598 
L 491.19955 158.493598 
L 491.19955 32.4 
L 51.05 32.4 
z
" style="fill: #ffffff"/>
   </g>
   <g id="matplotlib.axis_1">
    <g id="xtick_1">
     <g id="line2d_1">
      <path d="M 97.706321 158.493598 
L 97.706321 32.4 
" clip-path="url(#pe0ced258b1)" style="fill: none; stroke: #b0b0b0; stroke-width: 0.8; stroke-linecap: square"/>
     </g>
     <g id="line2d_2">
      <defs>
       <path id="m000e7a18a1" d="M 0 0 
L 0 3.5 
" style="stroke: #000000; stroke-width: 0.8"/>
      </defs>
      <g>
       <use xlink:href="#m000e7a18a1" x="97.706321" y="158.493598" style="stroke: #000000; stroke-width: 0.8"/>
      </g>
     </g>
    </g>
    <g id="xtick_2">
     <g id="line2d_3">
      <path d="M 144.431744 158.493598 
L 144.431744 32.4 
" clip-path="url(#pe0ced258b1)" style="fill: none; stroke: #b0b0b0; stroke-width: 0.8; stroke-linecap: square"/>
     </g>
     <g id="line2d_4">
      <g>
       <use xlink:href="#m000e7a18a1" x="144.431744" y="158.493598" style="stroke: #000000; stroke-width: 0.8"/>
      </g>
     </g>
    </g>
    <g id="xtick_3">
     <g id="line2d_5">
      <path d="M 191.157168 158.493598 
L 191.157168 32.4 
" clip-path="url(#pe0ced258b1)" style="fill: none; stroke: #b0b0b0; stroke-width: 0.8; stroke-linecap: square"/>
     </g>
     <g id="line2d_6">
      <g>
       <use xlink:href="#m000e7a18a1" x="191.157168" y="158.493598" style="stroke: #000000; stroke-width: 0.8"/>
      </g>
     </g>
    </g>
    <g id="xtick_4">
     <g id="line2d_7">
      <path d="M 237.882591 158.493598 
L 237.882591 32.4 
" clip-path="url(#pe0ced258b1)" style="fill: none; stroke: #b0b0b0; stroke-width: 0.8; stroke-linecap: square"/>
     </g>
     <g id="line2d_8">
      <g>
       <use xlink:href="#m000e7a18a1" x="237.882591" y="158.493598" style="stroke: #000000; stroke-width: 0.8"/>
      </g>
     </g>
    </g>
    <g id="xtick_5">
     <g id="line2d_9">
      <path d="M 284.608015 158.493598 
L 284.608015 32.4 
" clip-path="url(#pe0ced258b1)" style="fill: none; stroke: #b0b0b0; stroke-width: 0.8; stroke-linecap: square"/>
     </g>
     <g id="line2d_10">
      <g>
       <use xlink:href="#m000e7a18a1" x="284.608015" y="158.493598" style="stroke: #000000; stroke-width: 0.8"/>
      </g>
     </g>
    </g>
    <g id="xtick_6">
     <g id="line2d_11">
      <path d="M 331.333438 158.493598 
L 331.333438 32.4 
" clip-path="url(#pe0ced258b1)" style="fill: none; stroke: #b0b0b0; stroke-width: 0.8; stroke-linecap: square"/>
     </g>
     <g id="line2d_12">
      <g>
       <use xlink:href="#m000e7a18a1" x="331.333438" y="158.493598" style="stroke: #000000; stroke-width: 0.8"/>
      </g>
     </g>
    </g>
    <g id="xtick_7">
     <g id="line2d_13">
      <path d="M 378.058861 158.493598 
L 378.058861 32.4 
" clip-path="url(#pe0ced258b1)" style="fill: none; stroke: #b0b0b0; stroke-width: 0.8; stroke-linecap: square"/>
     </g>
     <g id="line2d_14">
      <g>
       <use xlink:href="#m000e7a18a1" x="378.058861" y="158.493598" style="stroke: #000000; stroke-width: 0.8"/>
      </g>
     </g>
    </g>
    <g id="xtick_8">
     <g id="line2d_15">
      <path d="M 424.784285 158.493598 
L 424.784285 32.4 
" clip-path="url(#pe0ced258b1)" style="fill: none; stroke: #b0b0b0; stroke-width: 0.8; stroke-linecap: square"/>
     </g>
     <g id="line2d_16">
      <g>
       <use xlink:href="#m000e7a18a1" x="424.784285" y="158.493598" style="stroke: #000000; stroke-width: 0.8"/>
      </g>
     </g>
    </g>
    <g id="xtick_9">
     <g id="line2d_17">
      <path d="M 471.509708 158.493598 
L 471.509708 32.4 
" clip-path="url(#pe0ced258b1)" style="fill: none; stroke: #b0b0b0; stroke-width: 0.8; stroke-linecap: square"/>
     </g>
     <g id="line2d_18">
      <g>
       <use xlink:href="#m000e7a18a1" x="471.509708" y="158.493598" style="stroke: #000000; stroke-width: 0.8"/>
      </g>
     </g>
    </g>
   </g>
   <g id="matplotlib.axis_2">
    <g id="ytick_1">
     <g id="line2d_19">
      <path d="M 51.05 155.627834 
L 491.19955 155.627834 
" clip-path="url(#pe0ced258b1)" style="fill: none; stroke: #b0b0b0; stroke-width: 0.8; stroke-linecap: square"/>
     </g>
     <g id="line2d_20">
      <defs>
       <path id="m42550d5336" d="M 0 0 
L -3.5 0 
" style="stroke: #000000; stroke-width: 0.8"/>
      </defs>
      <g>
       <use xlink:href="#m42550d5336" x="51.05" y="155.627834" style="stroke: #000000; stroke-width: 0.8"/>
      </g>
     </g>
     <g id="text_1">
      <!-- 4 -->
      <g transform="translate(37.6875 159.427053) scale(0.1 -0.1)">
       <defs>
        <path id="DejaVuSans-34" d="M 2419 4116 
L 825 1625 
L 2419 1625 
L 2419 4116 
z
M 2253 4666 
L 3047 4666 
L 3047 1625 
L 3713 1625 
L 3713 1100 
L 3047 1100 
L 3047 0 
L 2419 0 
L 2419 1100 
L 313 1100 
L 313 1709 
L 2253 4666 
z
" transform="scale(0.015625)"/>
       </defs>
       <use xlink:href="#DejaVuSans-34"/>
      </g>
     </g>
    </g>
    <g id="ytick_2">
     <g id="line2d_21">
      <path d="M 51.05 126.970198 
L 491.19955 126.970198 
" clip-path="url(#pe0ced258b1)" style="fill: none; stroke: #b0b0b0; stroke-width: 0.8; stroke-linecap: square"/>
     </g>
     <g id="line2d_22">
      <g>
       <use xlink:href="#m42550d5336" x="51.05" y="126.970198" style="stroke: #000000; stroke-width: 0.8"/>
      </g>
     </g>
     <g id="text_2">
      <!-- 5 -->
      <g transform="translate(37.6875 130.769417) scale(0.1 -0.1)">
       <defs>
        <path id="DejaVuSans-35" d="M 691 4666 
L 3169 4666 
L 3169 4134 
L 1269 4134 
L 1269 2991 
Q 1406 3038 1543 3061 
Q 1681 3084 1819 3084 
Q 2600 3084 3056 2656 
Q 3513 2228 3513 1497 
Q 3513 744 3044 326 
Q 2575 -91 1722 -91 
Q 1428 -91 1123 -41 
Q 819 9 494 109 
L 494 744 
Q 775 591 1075 516 
Q 1375 441 1709 441 
Q 2250 441 2565 725 
Q 2881 1009 2881 1497 
Q 2881 1984 2565 2268 
Q 2250 2553 1709 2553 
Q 1456 2553 1204 2497 
Q 953 2441 691 2322 
L 691 4666 
z
" transform="scale(0.015625)"/>
       </defs>
       <use xlink:href="#DejaVuSans-35"/>
      </g>
     </g>
    </g>
    <g id="ytick_3">
     <g id="line2d_23">
      <path d="M 51.05 98.312563 
L 491.19955 98.312563 
" clip-path="url(#pe0ced258b1)" style="fill: none; stroke: #b0b0b0; stroke-width: 0.8; stroke-linecap: square"/>
     </g>
     <g id="line2d_24">
      <g>
       <use xlink:href="#m42550d5336" x="51.05" y="98.312563" style="stroke: #000000; stroke-width: 0.8"/>
      </g>
     </g>
     <g id="text_3">
      <!-- 6 -->
      <g transform="translate(37.6875 102.111781) scale(0.1 -0.1)">
       <defs>
        <path id="DejaVuSans-36" d="M 2113 2584 
Q 1688 2584 1439 2293 
Q 1191 2003 1191 1497 
Q 1191 994 1439 701 
Q 1688 409 2113 409 
Q 2538 409 2786 701 
Q 3034 994 3034 1497 
Q 3034 2003 2786 2293 
Q 2538 2584 2113 2584 
z
M 3366 4563 
L 3366 3988 
Q 3128 4100 2886 4159 
Q 2644 4219 2406 4219 
Q 1781 4219 1451 3797 
Q 1122 3375 1075 2522 
Q 1259 2794 1537 2939 
Q 1816 3084 2150 3084 
Q 2853 3084 3261 2657 
Q 3669 2231 3669 1497 
Q 3669 778 3244 343 
Q 2819 -91 2113 -91 
Q 1303 -91 875 529 
Q 447 1150 447 2328 
Q 447 3434 972 4092 
Q 1497 4750 2381 4750 
Q 2619 4750 2861 4703 
Q 3103 4656 3366 4563 
z
" transform="scale(0.015625)"/>
       </defs>
       <use xlink:href="#DejaVuSans-36"/>
      </g>
     </g>
    </g>
    <g id="ytick_4">
     <g id="line2d_25">
      <path d="M 51.05 69.654927 
L 491.19955 69.654927 
" clip-path="url(#pe0ced258b1)" style="fill: none; stroke: #b0b0b0; stroke-width: 0.8; stroke-linecap: square"/>
     </g>
     <g id="line2d_26">
      <g>
       <use xlink:href="#m42550d5336" x="51.05" y="69.654927" style="stroke: #000000; stroke-width: 0.8"/>
      </g>
     </g>
     <g id="text_4">
      <!-- 7 -->
      <g transform="translate(37.6875 73.454145) scale(0.1 -0.1)">
       <defs>
        <path id="DejaVuSans-37" d="M 525 4666 
L 3525 4666 
L 3525 4397 
L 1831 0 
L 1172 0 
L 2766 4134 
L 525 4134 
L 525 4666 
z
" transform="scale(0.015625)"/>
       </defs>
       <use xlink:href="#DejaVuSans-37"/>
      </g>
     </g>
    </g>
    <g id="ytick_5">
     <g id="line2d_27">
      <path d="M 51.05 40.997291 
L 491.19955 40.997291 
" clip-path="url(#pe0ced258b1)" style="fill: none; stroke: #b0b0b0; stroke-width: 0.8; stroke-linecap: square"/>
     </g>
     <g id="line2d_28">
      <g>
       <use xlink:href="#m42550d5336" x="51.05" y="40.997291" style="stroke: #000000; stroke-width: 0.8"/>
      </g>
     </g>
     <g id="text_5">
      <!-- 8 -->
      <g transform="translate(37.6875 44.79651) scale(0.1 -0.1)">
       <defs>
        <path id="DejaVuSans-38" d="M 2034 2216 
Q 1584 2216 1326 1975 
Q 1069 1734 1069 1313 
Q 1069 891 1326 650 
Q 1584 409 2034 409 
Q 2484 409 2743 651 
Q 3003 894 3003 1313 
Q 3003 1734 2745 1975 
Q 2488 2216 2034 2216 
z
M 1403 2484 
Q 997 2584 770 2862 
Q 544 3141 544 3541 
Q 544 4100 942 4425 
Q 1341 4750 2034 4750 
Q 2731 4750 3128 4425 
Q 3525 4100 3525 3541 
Q 3525 3141 3298 2862 
Q 3072 2584 2669 2484 
Q 3125 2378 3379 2068 
Q 3634 1759 3634 1313 
Q 3634 634 3220 271 
Q 2806 -91 2034 -91 
Q 1263 -91 848 271 
Q 434 634 434 1313 
Q 434 1759 690 2068 
Q 947 2378 1403 2484 
z
M 1172 3481 
Q 1172 3119 1398 2916 
Q 1625 2713 2034 2713 
Q 2441 2713 2670 2916 
Q 2900 3119 2900 3481 
Q 2900 3844 2670 4047 
Q 2441 4250 2034 4250 
Q 1625 4250 1398 4047 
Q 1172 3844 1172 3481 
z
" transform="scale(0.015625)"/>
       </defs>
       <use xlink:href="#DejaVuSans-38"/>
      </g>
     </g>
    </g>
    <g id="text_6">
     <!-- Temperature [°C] -->
     <g transform="translate(31.607813 138.598361) rotate(-90) scale(0.1 -0.1)">
      <defs>
       <path id="DejaVuSans-54" d="M -19 4666 
L 3928 4666 
L 3928 4134 
L 2272 4134 
L 2272 0 
L 1638 0 
L 1638 4134 
L -19 4134 
L -19 4666 
z
" transform="scale(0.015625)"/>
       <path id="DejaVuSans-65" d="M 3597 1894 
L 3597 1613 
L 953 1613 
Q 991 1019 1311 708 
Q 1631 397 2203 397 
Q 2534 397 2845 478 
Q 3156 559 3463 722 
L 3463 178 
Q 3153 47 2828 -22 
Q 2503 -91 2169 -91 
Q 1331 -91 842 396 
Q 353 884 353 1716 
Q 353 2575 817 3079 
Q 1281 3584 2069 3584 
Q 2775 3584 3186 3129 
Q 3597 2675 3597 1894 
z
M 3022 2063 
Q 3016 2534 2758 2815 
Q 2500 3097 2075 3097 
Q 1594 3097 1305 2825 
Q 1016 2553 972 2059 
L 3022 2063 
z
" transform="scale(0.015625)"/>
       <path id="DejaVuSans-6d" d="M 3328 2828 
Q 3544 3216 3844 3400 
Q 4144 3584 4550 3584 
Q 5097 3584 5394 3201 
Q 5691 2819 5691 2113 
L 5691 0 
L 5113 0 
L 5113 2094 
Q 5113 2597 4934 2840 
Q 4756 3084 4391 3084 
Q 3944 3084 3684 2787 
Q 3425 2491 3425 1978 
L 3425 0 
L 2847 0 
L 2847 2094 
Q 2847 2600 2669 2842 
Q 2491 3084 2119 3084 
Q 1678 3084 1418 2786 
Q 1159 2488 1159 1978 
L 1159 0 
L 581 0 
L 581 3500 
L 1159 3500 
L 1159 2956 
Q 1356 3278 1631 3431 
Q 1906 3584 2284 3584 
Q 2666 3584 2933 3390 
Q 3200 3197 3328 2828 
z
" transform="scale(0.015625)"/>
       <path id="DejaVuSans-70" d="M 1159 525 
L 1159 -1331 
L 581 -1331 
L 581 3500 
L 1159 3500 
L 1159 2969 
Q 1341 3281 1617 3432 
Q 1894 3584 2278 3584 
Q 2916 3584 3314 3078 
Q 3713 2572 3713 1747 
Q 3713 922 3314 415 
Q 2916 -91 2278 -91 
Q 1894 -91 1617 61 
Q 1341 213 1159 525 
z
M 3116 1747 
Q 3116 2381 2855 2742 
Q 2594 3103 2138 3103 
Q 1681 3103 1420 2742 
Q 1159 2381 1159 1747 
Q 1159 1113 1420 752 
Q 1681 391 2138 391 
Q 2594 391 2855 752 
Q 3116 1113 3116 1747 
z
" transform="scale(0.015625)"/>
       <path id="DejaVuSans-72" d="M 2631 2963 
Q 2534 3019 2420 3045 
Q 2306 3072 2169 3072 
Q 1681 3072 1420 2755 
Q 1159 2438 1159 1844 
L 1159 0 
L 581 0 
L 581 3500 
L 1159 3500 
L 1159 2956 
Q 1341 3275 1631 3429 
Q 1922 3584 2338 3584 
Q 2397 3584 2469 3576 
Q 2541 3569 2628 3553 
L 2631 2963 
z
" transform="scale(0.015625)"/>
       <path id="DejaVuSans-61" d="M 2194 1759 
Q 1497 1759 1228 1600 
Q 959 1441 959 1056 
Q 959 750 1161 570 
Q 1363 391 1709 391 
Q 2188 391 2477 730 
Q 2766 1069 2766 1631 
L 2766 1759 
L 2194 1759 
z
M 3341 1997 
L 3341 0 
L 2766 0 
L 2766 531 
Q 2569 213 2275 61 
Q 1981 -91 1556 -91 
Q 1019 -91 701 211 
Q 384 513 384 1019 
Q 384 1609 779 1909 
Q 1175 2209 1959 2209 
L 2766 2209 
L 2766 2266 
Q 2766 2663 2505 2880 
Q 2244 3097 1772 3097 
Q 1472 3097 1187 3025 
Q 903 2953 641 2809 
L 641 3341 
Q 956 3463 1253 3523 
Q 1550 3584 1831 3584 
Q 2591 3584 2966 3190 
Q 3341 2797 3341 1997 
z
" transform="scale(0.015625)"/>
       <path id="DejaVuSans-74" d="M 1172 4494 
L 1172 3500 
L 2356 3500 
L 2356 3053 
L 1172 3053 
L 1172 1153 
Q 1172 725 1289 603 
Q 1406 481 1766 481 
L 2356 481 
L 2356 0 
L 1766 0 
Q 1100 0 847 248 
Q 594 497 594 1153 
L 594 3053 
L 172 3053 
L 172 3500 
L 594 3500 
L 594 4494 
L 1172 4494 
z
" transform="scale(0.015625)"/>
       <path id="DejaVuSans-75" d="M 544 1381 
L 544 3500 
L 1119 3500 
L 1119 1403 
Q 1119 906 1312 657 
Q 1506 409 1894 409 
Q 2359 409 2629 706 
Q 2900 1003 2900 1516 
L 2900 3500 
L 3475 3500 
L 3475 0 
L 2900 0 
L 2900 538 
Q 2691 219 2414 64 
Q 2138 -91 1772 -91 
Q 1169 -91 856 284 
Q 544 659 544 1381 
z
M 1991 3584 
L 1991 3584 
z
" transform="scale(0.015625)"/>
       <path id="DejaVuSans-20" transform="scale(0.015625)"/>
       <path id="DejaVuSans-5b" d="M 550 4863 
L 1875 4863 
L 1875 4416 
L 1125 4416 
L 1125 -397 
L 1875 -397 
L 1875 -844 
L 550 -844 
L 550 4863 
z
" transform="scale(0.015625)"/>
       <path id="DejaVuSans-b0" d="M 1600 4347 
Q 1350 4347 1178 4173 
Q 1006 4000 1006 3750 
Q 1006 3503 1178 3333 
Q 1350 3163 1600 3163 
Q 1850 3163 2022 3333 
Q 2194 3503 2194 3750 
Q 2194 3997 2020 4172 
Q 1847 4347 1600 4347 
z
M 1600 4750 
Q 1800 4750 1984 4673 
Q 2169 4597 2303 4453 
Q 2447 4313 2519 4134 
Q 2591 3956 2591 3750 
Q 2591 3338 2302 3052 
Q 2013 2766 1594 2766 
Q 1172 2766 890 3047 
Q 609 3328 609 3750 
Q 609 4169 896 4459 
Q 1184 4750 1600 4750 
z
" transform="scale(0.015625)"/>
       <path id="DejaVuSans-43" d="M 4122 4306 
L 4122 3641 
Q 3803 3938 3442 4084 
Q 3081 4231 2675 4231 
Q 1875 4231 1450 3742 
Q 1025 3253 1025 2328 
Q 1025 1406 1450 917 
Q 1875 428 2675 428 
Q 3081 428 3442 575 
Q 3803 722 4122 1019 
L 4122 359 
Q 3791 134 3420 21 
Q 3050 -91 2638 -91 
Q 1578 -91 968 557 
Q 359 1206 359 2328 
Q 359 3453 968 4101 
Q 1578 4750 2638 4750 
Q 3056 4750 3426 4639 
Q 3797 4528 4122 4306 
z
" transform="scale(0.015625)"/>
       <path id="DejaVuSans-5d" d="M 1947 4863 
L 1947 -844 
L 622 -844 
L 622 -397 
L 1369 -397 
L 1369 4416 
L 622 4416 
L 622 4863 
L 1947 4863 
z
" transform="scale(0.015625)"/>
      </defs>
      <use xlink:href="#DejaVuSans-54"/>
      <use xlink:href="#DejaVuSans-65" x="44.083984"/>
      <use xlink:href="#DejaVuSans-6d" x="105.607422"/>
      <use xlink:href="#DejaVuSans-70" x="203.019531"/>
      <use xlink:href="#DejaVuSans-65" x="266.496094"/>
      <use xlink:href="#DejaVuSans-72" x="328.019531"/>
      <use xlink:href="#DejaVuSans-61" x="369.132812"/>
      <use xlink:href="#DejaVuSans-74" x="430.412109"/>
      <use xlink:href="#DejaVuSans-75" x="469.621094"/>
      <use xlink:href="#DejaVuSans-72" x="533"/>
      <use xlink:href="#DejaVuSans-65" x="571.863281"/>
      <use xlink:href="#DejaVuSans-20" x="633.386719"/>
      <use xlink:href="#DejaVuSans-5b" x="665.173828"/>
      <use xlink:href="#DejaVuSans-b0" x="704.1875"/>
      <use xlink:href="#DejaVuSans-43" x="754.1875"/>
      <use xlink:href="#DejaVuSans-5d" x="824.011719"/>
     </g>
    </g>
   </g>
   <g id="line2d_29">
    <path d="M 51.05 118.372908 
L 52.918987 118.372908 
L 53.075444 115.507144 
L 55.722462 115.507144 
L 55.878959 118.372908 
L 57.747852 118.372908 
L 57.90298 121.238671 
L 59.305578 121.238671 
L 59.46049 118.372908 
L 59.92859 118.372908 
L 60.084598 115.507144 
L 60.394998 118.372908 
L 61.018011 118.372908 
L 61.174552 121.238671 
L 61.95252 121.238671 
L 62.109151 118.372908 
L 63.510026 118.372908 
L 63.666663 121.238671 
L 64.289802 121.238671 
L 64.444517 124.104435 
L 66.003276 124.104435 
L 66.157794 126.970198 
L 66.781576 126.970198 
L 66.936522 129.835962 
L 67.404712 129.835962 
L 67.559528 132.701726 
L 70.831187 132.701726 
L 70.986019 129.835962 
L 71.454033 129.835962 
L 71.609031 126.970198 
L 72.69999 126.970198 
L 72.855034 124.104435 
L 73.323055 124.104435 
L 73.478027 126.970198 
L 73.634511 126.970198 
L 73.789512 124.104435 
L 74.257638 124.104435 
L 74.412532 126.970198 
L 75.658531 126.970198 
L 75.815057 129.835962 
L 76.438064 129.835962 
L 76.59303 126.970198 
L 76.904538 126.970198 
L 77.060977 124.104435 
L 77.372637 124.104435 
L 77.527525 121.238671 
L 78.618682 121.238671 
L 78.773527 124.104435 
L 80.331016 124.104435 
L 80.487581 121.238671 
L 81.422142 121.238671 
L 81.577023 118.372908 
L 82.356475 118.372908 
L 82.511528 115.507144 
L 82.66806 115.507144 
L 82.823027 112.641381 
L 83.447561 112.641381 
L 83.757525 115.507144 
L 84.069027 115.507144 
L 84.225566 118.372908 
L 84.69203 118.372908 
L 84.848624 121.238671 
L 85.47165 121.238671 
L 85.626521 124.104435 
L 87.184025 124.104435 
L 87.340716 126.970198 
L 87.963532 126.970198 
L 88.118539 129.835962 
L 88.27514 129.835962 
L 88.430031 132.701726 
L 88.89825 132.701726 
L 89.053028 129.835962 
L 90.610523 129.835962 
L 90.767211 126.970198 
L 91.545038 126.970198 
L 91.70158 129.835962 
L 93.258993 129.835962 
L 93.414023 126.970198 
L 95.438762 126.970198 
L 95.59452 124.104435 
L 96.37414 124.104435 
L 96.529025 121.238671 
L 97.775022 121.238671 
L 97.931678 124.104435 
L 99.177694 124.104435 
L 99.33253 126.970198 
L 101.202879 126.970198 
L 101.357384 124.104435 
L 101.66947 124.104435 
L 101.824526 121.238671 
L 102.136024 121.238671 
L 102.292577 118.372908 
L 105.251023 118.372908 
L 105.40756 115.507144 
L 106.342088 115.507144 
L 106.497032 112.641381 
L 107.89963 112.641381 
L 108.054531 109.775617 
L 108.211093 109.775617 
L 108.366033 112.641381 
L 108.52251 112.641381 
L 108.677538 109.775617 
L 109.145485 109.775617 
L 109.300535 106.909853 
L 109.768599 106.909853 
L 109.924573 104.04409 
L 110.079251 104.04409 
L 110.235021 101.178326 
L 113.038536 101.178326 
L 113.194663 104.04409 
L 113.350034 104.04409 
L 113.506518 106.909853 
L 114.284534 106.909853 
L 114.440987 109.775617 
L 114.596037 109.775617 
L 114.752473 106.909853 
L 115.843466 106.909853 
L 115.997876 109.775617 
L 116.77654 109.775617 
L 116.932957 112.641381 
L 117.088029 112.641381 
L 117.244513 115.507144 
L 117.556034 115.507144 
L 117.711045 118.372908 
L 118.179009 118.372908 
L 118.334043 121.238671 
L 118.646535 121.238671 
L 118.957028 124.104435 
L 119.580038 124.104435 
L 119.736551 126.970198 
L 120.514547 126.970198 
L 120.671048 129.835962 
L 122.072043 129.835962 
L 122.228557 132.701726 
L 128.458488 132.701726 
L 128.613525 135.567489 
L 129.704414 135.567489 
L 129.85952 138.433253 
L 130.950435 138.433253 
L 131.105546 141.299016 
L 135.934376 141.299016 
L 136.08953 138.433253 
L 137.803529 138.433253 
L 137.958531 135.567489 
L 139.51604 135.567489 
L 139.672389 132.701726 
L 139.984143 132.701726 
L 140.139038 129.835962 
L 140.450546 129.835962 
L 140.607088 126.970198 
L 141.385058 126.970198 
L 141.54136 124.104435 
L 142.008022 124.104435 
L 142.319514 121.238671 
L 142.631051 121.238671 
L 142.787668 118.372908 
L 143.410364 118.372908 
L 143.565547 115.507144 
L 144.811564 115.507144 
L 145.124152 118.372908 
L 145.278826 118.372908 
L 145.434554 121.238671 
L 145.591015 121.238671 
L 145.746049 124.104435 
L 146.057548 124.104435 
L 146.213948 126.970198 
L 146.837084 126.970198 
L 146.992059 129.835962 
L 147.615053 129.835962 
L 147.771485 132.701726 
L 152.59907 132.701726 
L 152.755493 129.835962 
L 152.910569 129.835962 
L 153.067047 132.701726 
L 153.378571 132.701726 
L 153.533566 129.835962 
L 156.648551 129.835962 
L 156.959994 126.970198 
L 157.583059 126.970198 
L 157.739505 124.104435 
L 158.206064 124.104435 
L 158.362454 121.238671 
L 158.829072 121.238671 
L 158.985337 118.372908 
L 161.009567 118.372908 
L 161.165957 115.507144 
L 161.944083 115.507144 
L 162.100457 112.641381 
L 162.412074 112.641381 
L 162.568379 109.775617 
L 163.501591 109.775617 
L 163.657991 106.909853 
L 168.797054 106.909853 
L 168.953314 104.04409 
L 169.42005 104.04409 
L 169.57642 101.178326 
L 170.35455 101.178326 
L 170.510988 98.312563 
L 170.977553 98.312563 
L 171.133888 95.446799 
L 172.379945 95.446799 
L 172.53506 92.581035 
L 172.846556 92.581035 
L 173.002891 89.715272 
L 173.158054 89.715272 
L 173.314538 86.849508 
L 173.781051 86.849508 
L 173.937483 83.983745 
L 174.87196 83.983745 
L 175.027038 81.117981 
L 175.650035 81.117981 
L 175.80635 78.252217 
L 177.208792 78.252217 
L 177.519053 75.386454 
L 178.298354 75.386454 
L 178.453531 72.52069 
L 179.233077 72.52069 
L 179.388023 69.654927 
L 181.568529 69.654927 
L 181.724773 66.789163 
L 182.50303 66.789163 
L 182.659414 63.923399 
L 183.127247 63.923399 
L 183.437513 61.057636 
L 183.749021 61.057636 
L 183.905469 58.191872 
L 184.683533 58.191872 
L 184.839936 55.326109 
L 186.39701 55.326109 
L 186.552521 58.191872 
L 188.733017 58.191872 
L 188.889368 55.326109 
L 189.045778 55.326109 
L 189.200233 52.460345 
L 189.667515 52.460345 
L 189.82398 49.594582 
L 190.758511 49.594582 
L 190.913509 46.728818 
L 191.381611 46.728818 
L 191.536509 43.863054 
L 191.849334 43.863054 
L 192.159515 40.997291 
L 192.471033 40.997291 
L 192.627501 38.131527 
L 193.561906 38.131527 
L 193.717014 40.997291 
L 195.430932 40.997291 
L 195.585995 43.863054 
L 195.8975 43.863054 
L 196.053906 46.728818 
L 196.677046 46.728818 
L 196.831998 49.594582 
L 197.767778 49.594582 
L 198.078005 52.460345 
L 199.0125 52.460345 
L 199.168858 55.326109 
L 199.635491 55.326109 
L 199.791864 58.191872 
L 200.258484 58.191872 
L 200.415062 61.057636 
L 201.037488 61.057636 
L 201.192976 63.923399 
L 202.127471 63.923399 
L 202.283968 66.789163 
L 203.373468 66.789163 
L 203.529887 69.654927 
L 204.307995 69.654927 
L 204.464386 72.52069 
L 205.242482 72.52069 
L 205.398917 75.386454 
L 206.021992 75.386454 
L 206.17697 78.252217 
L 206.333448 75.386454 
L 206.489874 78.252217 
L 206.95612 78.252217 
L 207.111492 81.117981 
L 208.513899 81.117981 
L 208.668971 83.983745 
L 210.694515 83.983745 
L 210.849487 86.849508 
L 211.160982 86.849508 
L 211.317362 83.983745 
L 213.029976 83.983745 
L 213.341484 86.849508 
L 213.497816 83.983745 
L 214.120985 83.983745 
L 214.275973 81.117981 
L 215.055418 81.117981 
L 215.210459 78.252217 
L 218.481173 78.252217 
L 218.636965 75.386454 
L 219.259958 75.386454 
L 219.416558 72.52069 
L 219.57145 75.386454 
L 219.72793 72.52069 
L 219.884233 75.386454 
L 221.908418 75.386454 
L 222.063448 72.52069 
L 226.892376 72.52069 
L 227.048821 75.386454 
L 227.515207 75.386454 
L 227.670449 72.52069 
L 229.69583 72.52069 
L 229.850938 75.386454 
L 230.630341 75.386454 
L 230.785449 78.252217 
L 232.810634 78.252217 
L 232.9672 81.117981 
L 233.588931 81.117981 
L 233.745305 83.983745 
L 235.61446 83.983745 
L 235.769439 86.849508 
L 237.326924 86.849508 
L 237.483262 89.715272 
L 237.638442 86.849508 
L 237.794849 86.849508 
L 237.949928 89.715272 
L 238.106172 86.849508 
L 238.26142 89.715272 
L 238.88551 89.715272 
L 239.040255 92.581035 
L 239.663891 92.581035 
L 239.818915 95.446799 
L 241.68923 95.446799 
L 241.999428 98.312563 
L 246.36041 98.312563 
L 246.516784 101.178326 
L 250.409929 101.178326 
L 250.721408 98.312563 
L 254.615744 98.312563 
L 254.770923 101.178326 
L 258.197416 101.178326 
L 258.35393 104.04409 
L 258.97681 104.04409 
L 259.131906 106.909853 
L 259.599363 106.909853 
L 259.754922 109.775617 
L 260.377922 109.775617 
L 260.534399 112.641381 
L 261.312408 112.641381 
L 261.468846 115.507144 
L 267.387286 115.507144 
L 267.542404 118.372908 
L 267.853916 118.372908 
L 268.166697 121.238671 
L 268.944669 121.238671 
L 269.099917 124.104435 
L 273.460928 124.104435 
L 273.617321 126.970198 
L 275.01842 126.970198 
L 275.17483 129.835962 
L 275.329915 129.835962 
L 275.486494 126.970198 
L 275.641414 129.835962 
L 276.888666 129.835962 
L 277.198926 132.701726 
L 280.936918 132.701726 
L 281.093386 135.567489 
L 281.248407 135.567489 
L 281.4047 132.701726 
L 284.363437 132.701726 
L 284.51971 135.567489 
L 285.920907 135.567489 
L 286.077122 132.701726 
L 290.749648 132.701726 
L 290.904925 135.567489 
L 293.085437 135.567489 
L 293.241584 138.433253 
L 307.882543 138.433253 
L 308.037441 141.299016 
L 313.489059 141.299016 
L 313.64445 144.16478 
L 315.201956 144.16478 
L 315.358085 141.299016 
L 316.60419 141.299016 
L 316.759454 144.16478 
L 317.382457 144.16478 
L 317.538848 141.299016 
L 322.211687 141.299016 
L 322.366448 144.16478 
L 324.079929 144.16478 
L 324.235452 147.030544 
L 334.514963 147.030544 
L 334.671463 144.16478 
L 336.38397 144.16478 
L 336.540194 147.030544 
L 337.474988 147.030544 
L 337.629964 144.16478 
L 341.056479 144.16478 
L 341.21272 147.030544 
L 343.081876 147.030544 
L 343.236971 144.16478 
L 352.426856 144.16478 
L 352.582006 141.299016 
L 354.762519 141.299016 
L 354.918743 144.16478 
L 357.254489 144.16478 
L 357.410799 147.030544 
L 358.345325 147.030544 
L 358.500499 144.16478 
L 359.746509 144.16478 
L 359.902769 147.030544 
L 360.525973 147.030544 
L 360.68101 144.16478 
L 362.70639 144.16478 
L 362.861518 147.030544 
L 363.172997 147.030544 
L 363.329533 144.16478 
L 367.8467 144.16478 
L 368.001318 147.030544 
L 375.944524 147.030544 
L 376.100849 144.16478 
L 376.568825 144.16478 
L 376.879042 147.030544 
L 377.190514 147.030544 
L 377.346934 144.16478 
L 377.502023 147.030544 
L 381.084858 147.030544 
L 381.240025 149.896307 
L 386.224054 149.896307 
L 386.380356 147.030544 
L 389.807053 147.030544 
L 389.962042 149.896307 
L 397.127877 149.896307 
L 397.282271 147.030544 
L 401.176062 147.030544 
L 401.332481 149.896307 
L 406.316342 149.896307 
L 406.47157 152.762071 
L 407.250831 152.762071 
L 407.406063 149.896307 
L 409.586572 149.896307 
L 409.742803 152.762071 
L 417.841404 152.762071 
L 417.99709 149.896307 
L 420.956822 149.896307 
L 421.112093 147.030544 
L 423.292585 147.030544 
L 423.605145 144.16478 
L 424.383571 144.16478 
L 424.538589 141.299016 
L 427.030596 141.299016 
L 427.186778 138.433253 
L 427.810045 138.433253 
L 427.965097 135.567489 
L 428.276586 135.567489 
L 428.43306 132.701726 
L 428.744669 132.701726 
L 428.899612 129.835962 
L 429.211111 129.835962 
L 429.522576 126.970198 
L 429.83412 126.970198 
L 429.990517 124.104435 
L 430.302207 124.104435 
L 430.457112 121.238671 
L 431.548228 121.238671 
L 431.703096 124.104435 
L 433.883612 124.104435 
L 434.039876 126.970198 
L 435.130992 126.970198 
L 435.441108 124.104435 
L 435.909088 124.104435 
L 436.064121 121.238671 
L 439.179107 121.238671 
L 439.335511 118.372908 
L 440.113612 118.372908 
L 440.270128 121.238671 
L 441.359596 121.238671 
L 441.515931 124.104435 
L 442.294108 124.104435 
L 442.450549 121.238671 
L 443.385045 121.238671 
L 443.540108 118.372908 
L 443.696511 121.238671 
L 444.942412 121.238671 
L 445.097608 118.372908 
L 446.032121 118.372908 
L 446.188507 115.507144 
L 446.811466 115.507144 
L 446.967976 112.641381 
L 447.589607 112.641381 
L 447.746017 109.775617 
L 448.368868 109.775617 
L 448.524106 106.909853 
L 449.303402 106.909853 
L 449.458608 104.04409 
L 449.77131 104.04409 
L 450.081598 101.178326 
L 450.23778 101.178326 
L 450.393106 98.312563 
L 451.172349 98.312563 
L 451.3276 95.446799 
L 452.573597 95.446799 
L 452.886462 92.581035 
L 453.196596 92.581035 
L 453.352721 95.446799 
L 453.664395 95.446799 
L 453.81961 98.312563 
L 454.4426 98.312563 
L 454.598925 101.178326 
L 458.959622 101.178326 
L 459.1151 104.04409 
L 459.739235 104.04409 
L 459.894552 101.178326 
L 460.828963 101.178326 
L 460.984097 98.312563 
L 461.295612 98.312563 
L 461.451963 101.178326 
L 461.762848 101.178326 
L 461.918593 104.04409 
L 462.386407 104.04409 
L 462.541599 106.909853 
L 464.255323 106.909853 
L 464.411944 109.775617 
L 464.878268 109.775617 
L 465.033597 106.909853 
L 466.435705 106.909853 
L 466.591086 104.04409 
L 467.214106 104.04409 
L 467.526736 101.178326 
L 467.99335 101.178326 
L 468.148592 98.312563 
L 468.616181 98.312563 
L 468.771595 95.446799 
L 468.927784 95.446799 
L 469.083109 92.581035 
L 469.394595 92.581035 
L 469.550985 89.715272 
L 469.86249 89.715272 
L 470.017589 86.849508 
L 470.330453 86.849508 
L 470.640589 89.715272 
L 470.796876 86.849508 
L 471.576243 86.849508 
L 471.731338 83.983745 
L 472.043122 83.983745 
L 472.198088 86.849508 
L 473.133755 86.849508 
L 473.444014 89.715272 
L 473.600112 89.715272 
L 473.755583 92.581035 
L 474.378587 92.581035 
L 474.534681 89.715272 
L 474.84642 89.715272 
L 475.001607 86.849508 
L 475.313092 86.849508 
L 475.469463 83.983745 
L 476.248811 83.983745 
L 476.403332 81.117981 
L 476.559099 81.117981 
L 476.715525 78.252217 
L 476.870597 78.252217 
L 477.182089 72.52069 
L 477.338363 72.52069 
L 477.493591 69.654927 
L 477.650075 69.654927 
L 477.80508 72.52069 
L 478.116576 72.52069 
L 478.272897 75.386454 
L 478.428087 75.386454 
L 478.584552 72.52069 
L 479.052382 72.52069 
L 479.362586 69.654927 
L 480.608589 69.654927 
L 480.765063 66.789163 
L 481.076468 66.789163 
L 481.231596 63.923399 
L 481.699348 63.923399 
L 481.85458 61.057636 
L 482.167451 61.057636 
L 482.477574 55.326109 
L 482.63399 55.326109 
L 482.945514 49.594582 
L 483.256841 49.594582 
L 483.413266 52.460345 
L 483.879944 52.460345 
L 484.035066 49.594582 
L 485.28107 49.594582 
L 485.437258 46.728818 
L 485.592574 46.728818 
L 485.749036 43.863054 
L 485.904072 43.863054 
L 486.060495 40.997291 
L 486.683518 40.997291 
L 486.838561 43.863054 
L 486.994987 43.863054 
L 487.150056 46.728818 
L 487.773066 46.728818 
L 488.084516 43.863054 
L 488.240617 43.863054 
L 488.396063 40.997291 
L 488.552463 40.997291 
L 488.707559 38.131527 
L 488.863825 38.131527 
L 489.019073 40.997291 
L 490.109744 40.997291 
L 490.265071 38.131527 
L 491.043838 38.131527 
L 491.19955 40.997291 
L 491.19955 40.997291 
" clip-path="url(#pe0ced258b1)" style="fill: none; stroke: #1f77b4; stroke-width: 1.5; stroke-linecap: square"/>
   </g>
   <g id="patch_3">
    <path d="M 51.05 158.493598 
L 51.05 32.4 
" style="fill: none; stroke: #000000; stroke-width: 0.8; stroke-linejoin: miter; stroke-linecap: square"/>
   </g>
   <g id="patch_4">
    <path d="M 491.19955 158.493598 
L 491.19955 32.4 
" style="fill: none; stroke: #000000; stroke-width: 0.8; stroke-linejoin: miter; stroke-linecap: square"/>
   </g>
   <g id="patch_5">
    <path d="M 51.05 158.493598 
L 491.19955 158.493598 
" style="fill: none; stroke: #000000; stroke-width: 0.8; stroke-linejoin: miter; stroke-linecap: square"/>
   </g>
   <g id="patch_6">
    <path d="M 51.05 32.4 
L 491.19955 32.4 
" style="fill: none; stroke: #000000; stroke-width: 0.8; stroke-linejoin: miter; stroke-linecap: square"/>
   </g>
  </g>
  <g id="axes_2">
   <g id="patch_7">
    <path d="M 51.05 302.873078 
L 491.19955 302.873078 
L 491.19955 176.77948 
L 51.05 176.77948 
z
" style="fill: #ffffff"/>
   </g>
   <g id="matplotlib.axis_3">
    <g id="xtick_10">
     <g id="line2d_30">
      <path d="M 97.706321 302.873078 
L 97.706321 176.77948 
" clip-path="url(#p1950d7c507)" style="fill: none; stroke: #b0b0b0; stroke-width: 0.8; stroke-linecap: square"/>
     </g>
     <g id="line2d_31">
      <g>
       <use xlink:href="#m000e7a18a1" x="97.706321" y="302.873078" style="stroke: #000000; stroke-width: 0.8"/>
      </g>
     </g>
    </g>
    <g id="xtick_11">
     <g id="line2d_32">
      <path d="M 144.431744 302.873078 
L 144.431744 176.77948 
" clip-path="url(#p1950d7c507)" style="fill: none; stroke: #b0b0b0; stroke-width: 0.8; stroke-linecap: square"/>
     </g>
     <g id="line2d_33">
      <g>
       <use xlink:href="#m000e7a18a1" x="144.431744" y="302.873078" style="stroke: #000000; stroke-width: 0.8"/>
      </g>
     </g>
    </g>
    <g id="xtick_12">
     <g id="line2d_34">
      <path d="M 191.157168 302.873078 
L 191.157168 176.77948 
" clip-path="url(#p1950d7c507)" style="fill: none; stroke: #b0b0b0; stroke-width: 0.8; stroke-linecap: square"/>
     </g>
     <g id="line2d_35">
      <g>
       <use xlink:href="#m000e7a18a1" x="191.157168" y="302.873078" style="stroke: #000000; stroke-width: 0.8"/>
      </g>
     </g>
    </g>
    <g id="xtick_13">
     <g id="line2d_36">
      <path d="M 237.882591 302.873078 
L 237.882591 176.77948 
" clip-path="url(#p1950d7c507)" style="fill: none; stroke: #b0b0b0; stroke-width: 0.8; stroke-linecap: square"/>
     </g>
     <g id="line2d_37">
      <g>
       <use xlink:href="#m000e7a18a1" x="237.882591" y="302.873078" style="stroke: #000000; stroke-width: 0.8"/>
      </g>
     </g>
    </g>
    <g id="xtick_14">
     <g id="line2d_38">
      <path d="M 284.608015 302.873078 
L 284.608015 176.77948 
" clip-path="url(#p1950d7c507)" style="fill: none; stroke: #b0b0b0; stroke-width: 0.8; stroke-linecap: square"/>
     </g>
     <g id="line2d_39">
      <g>
       <use xlink:href="#m000e7a18a1" x="284.608015" y="302.873078" style="stroke: #000000; stroke-width: 0.8"/>
      </g>
     </g>
    </g>
    <g id="xtick_15">
     <g id="line2d_40">
      <path d="M 331.333438 302.873078 
L 331.333438 176.77948 
" clip-path="url(#p1950d7c507)" style="fill: none; stroke: #b0b0b0; stroke-width: 0.8; stroke-linecap: square"/>
     </g>
     <g id="line2d_41">
      <g>
       <use xlink:href="#m000e7a18a1" x="331.333438" y="302.873078" style="stroke: #000000; stroke-width: 0.8"/>
      </g>
     </g>
    </g>
    <g id="xtick_16">
     <g id="line2d_42">
      <path d="M 378.058861 302.873078 
L 378.058861 176.77948 
" clip-path="url(#p1950d7c507)" style="fill: none; stroke: #b0b0b0; stroke-width: 0.8; stroke-linecap: square"/>
     </g>
     <g id="line2d_43">
      <g>
       <use xlink:href="#m000e7a18a1" x="378.058861" y="302.873078" style="stroke: #000000; stroke-width: 0.8"/>
      </g>
     </g>
    </g>
    <g id="xtick_17">
     <g id="line2d_44">
      <path d="M 424.784285 302.873078 
L 424.784285 176.77948 
" clip-path="url(#p1950d7c507)" style="fill: none; stroke: #b0b0b0; stroke-width: 0.8; stroke-linecap: square"/>
     </g>
     <g id="line2d_45">
      <g>
       <use xlink:href="#m000e7a18a1" x="424.784285" y="302.873078" style="stroke: #000000; stroke-width: 0.8"/>
      </g>
     </g>
    </g>
    <g id="xtick_18">
     <g id="line2d_46">
      <path d="M 471.509708 302.873078 
L 471.509708 176.77948 
" clip-path="url(#p1950d7c507)" style="fill: none; stroke: #b0b0b0; stroke-width: 0.8; stroke-linecap: square"/>
     </g>
     <g id="line2d_47">
      <g>
       <use xlink:href="#m000e7a18a1" x="471.509708" y="302.873078" style="stroke: #000000; stroke-width: 0.8"/>
      </g>
     </g>
    </g>
   </g>
   <g id="matplotlib.axis_4">
    <g id="ytick_6">
     <g id="line2d_48">
      <path d="M 51.05 302.873078 
L 491.19955 302.873078 
" clip-path="url(#p1950d7c507)" style="fill: none; stroke: #b0b0b0; stroke-width: 0.8; stroke-linecap: square"/>
     </g>
     <g id="line2d_49">
      <g>
       <use xlink:href="#m42550d5336" x="51.05" y="302.873078" style="stroke: #000000; stroke-width: 0.8"/>
      </g>
     </g>
     <g id="text_7">
      <!-- 0 -->
      <g transform="translate(37.6875 306.672297) scale(0.1 -0.1)">
       <defs>
        <path id="DejaVuSans-30" d="M 2034 4250 
Q 1547 4250 1301 3770 
Q 1056 3291 1056 2328 
Q 1056 1369 1301 889 
Q 1547 409 2034 409 
Q 2525 409 2770 889 
Q 3016 1369 3016 2328 
Q 3016 3291 2770 3770 
Q 2525 4250 2034 4250 
z
M 2034 4750 
Q 2819 4750 3233 4129 
Q 3647 3509 3647 2328 
Q 3647 1150 3233 529 
Q 2819 -91 2034 -91 
Q 1250 -91 836 529 
Q 422 1150 422 2328 
Q 422 3509 836 4129 
Q 1250 4750 2034 4750 
z
" transform="scale(0.015625)"/>
       </defs>
       <use xlink:href="#DejaVuSans-30"/>
      </g>
     </g>
    </g>
    <g id="ytick_7">
     <g id="line2d_50">
      <path d="M 51.05 277.654359 
L 491.19955 277.654359 
" clip-path="url(#p1950d7c507)" style="fill: none; stroke: #b0b0b0; stroke-width: 0.8; stroke-linecap: square"/>
     </g>
     <g id="line2d_51">
      <g>
       <use xlink:href="#m42550d5336" x="51.05" y="277.654359" style="stroke: #000000; stroke-width: 0.8"/>
      </g>
     </g>
     <g id="text_8">
      <!-- 20 -->
      <g transform="translate(31.325 281.453577) scale(0.1 -0.1)">
       <defs>
        <path id="DejaVuSans-32" d="M 1228 531 
L 3431 531 
L 3431 0 
L 469 0 
L 469 531 
Q 828 903 1448 1529 
Q 2069 2156 2228 2338 
Q 2531 2678 2651 2914 
Q 2772 3150 2772 3378 
Q 2772 3750 2511 3984 
Q 2250 4219 1831 4219 
Q 1534 4219 1204 4116 
Q 875 4013 500 3803 
L 500 4441 
Q 881 4594 1212 4672 
Q 1544 4750 1819 4750 
Q 2544 4750 2975 4387 
Q 3406 4025 3406 3419 
Q 3406 3131 3298 2873 
Q 3191 2616 2906 2266 
Q 2828 2175 2409 1742 
Q 1991 1309 1228 531 
z
" transform="scale(0.015625)"/>
       </defs>
       <use xlink:href="#DejaVuSans-32"/>
       <use xlink:href="#DejaVuSans-30" x="63.623047"/>
      </g>
     </g>
    </g>
    <g id="ytick_8">
     <g id="line2d_52">
      <path d="M 51.05 252.435639 
L 491.19955 252.435639 
" clip-path="url(#p1950d7c507)" style="fill: none; stroke: #b0b0b0; stroke-width: 0.8; stroke-linecap: square"/>
     </g>
     <g id="line2d_53">
      <g>
       <use xlink:href="#m42550d5336" x="51.05" y="252.435639" style="stroke: #000000; stroke-width: 0.8"/>
      </g>
     </g>
     <g id="text_9">
      <!-- 40 -->
      <g transform="translate(31.325 256.234858) scale(0.1 -0.1)">
       <use xlink:href="#DejaVuSans-34"/>
       <use xlink:href="#DejaVuSans-30" x="63.623047"/>
      </g>
     </g>
    </g>
    <g id="ytick_9">
     <g id="line2d_54">
      <path d="M 51.05 227.216919 
L 491.19955 227.216919 
" clip-path="url(#p1950d7c507)" style="fill: none; stroke: #b0b0b0; stroke-width: 0.8; stroke-linecap: square"/>
     </g>
     <g id="line2d_55">
      <g>
       <use xlink:href="#m42550d5336" x="51.05" y="227.216919" style="stroke: #000000; stroke-width: 0.8"/>
      </g>
     </g>
     <g id="text_10">
      <!-- 60 -->
      <g transform="translate(31.325 231.016138) scale(0.1 -0.1)">
       <use xlink:href="#DejaVuSans-36"/>
       <use xlink:href="#DejaVuSans-30" x="63.623047"/>
      </g>
     </g>
    </g>
    <g id="ytick_10">
     <g id="line2d_56">
      <path d="M 51.05 201.9982 
L 491.19955 201.9982 
" clip-path="url(#p1950d7c507)" style="fill: none; stroke: #b0b0b0; stroke-width: 0.8; stroke-linecap: square"/>
     </g>
     <g id="line2d_57">
      <g>
       <use xlink:href="#m42550d5336" x="51.05" y="201.9982" style="stroke: #000000; stroke-width: 0.8"/>
      </g>
     </g>
     <g id="text_11">
      <!-- 80 -->
      <g transform="translate(31.325 205.797419) scale(0.1 -0.1)">
       <use xlink:href="#DejaVuSans-38"/>
       <use xlink:href="#DejaVuSans-30" x="63.623047"/>
      </g>
     </g>
    </g>
    <g id="ytick_11">
     <g id="line2d_58">
      <path d="M 51.05 176.77948 
L 491.19955 176.77948 
" clip-path="url(#p1950d7c507)" style="fill: none; stroke: #b0b0b0; stroke-width: 0.8; stroke-linecap: square"/>
     </g>
     <g id="line2d_59">
      <g>
       <use xlink:href="#m42550d5336" x="51.05" y="176.77948" style="stroke: #000000; stroke-width: 0.8"/>
      </g>
     </g>
     <g id="text_12">
      <!-- 100 -->
      <g transform="translate(24.9625 180.578699) scale(0.1 -0.1)">
       <defs>
        <path id="DejaVuSans-31" d="M 794 531 
L 1825 531 
L 1825 4091 
L 703 3866 
L 703 4441 
L 1819 4666 
L 2450 4666 
L 2450 531 
L 3481 531 
L 3481 0 
L 794 0 
L 794 531 
z
" transform="scale(0.015625)"/>
       </defs>
       <use xlink:href="#DejaVuSans-31"/>
       <use xlink:href="#DejaVuSans-30" x="63.623047"/>
       <use xlink:href="#DejaVuSans-30" x="127.246094"/>
      </g>
     </g>
    </g>
    <g id="text_13">
     <!-- Humidity [%RH] -->
     <g transform="translate(18.882813 279.973154) rotate(-90) scale(0.1 -0.1)">
      <defs>
       <path id="DejaVuSans-48" d="M 628 4666 
L 1259 4666 
L 1259 2753 
L 3553 2753 
L 3553 4666 
L 4184 4666 
L 4184 0 
L 3553 0 
L 3553 2222 
L 1259 2222 
L 1259 0 
L 628 0 
L 628 4666 
z
" transform="scale(0.015625)"/>
       <path id="DejaVuSans-69" d="M 603 3500 
L 1178 3500 
L 1178 0 
L 603 0 
L 603 3500 
z
M 603 4863 
L 1178 4863 
L 1178 4134 
L 603 4134 
L 603 4863 
z
" transform="scale(0.015625)"/>
       <path id="DejaVuSans-64" d="M 2906 2969 
L 2906 4863 
L 3481 4863 
L 3481 0 
L 2906 0 
L 2906 525 
Q 2725 213 2448 61 
Q 2172 -91 1784 -91 
Q 1150 -91 751 415 
Q 353 922 353 1747 
Q 353 2572 751 3078 
Q 1150 3584 1784 3584 
Q 2172 3584 2448 3432 
Q 2725 3281 2906 2969 
z
M 947 1747 
Q 947 1113 1208 752 
Q 1469 391 1925 391 
Q 2381 391 2643 752 
Q 2906 1113 2906 1747 
Q 2906 2381 2643 2742 
Q 2381 3103 1925 3103 
Q 1469 3103 1208 2742 
Q 947 2381 947 1747 
z
" transform="scale(0.015625)"/>
       <path id="DejaVuSans-79" d="M 2059 -325 
Q 1816 -950 1584 -1140 
Q 1353 -1331 966 -1331 
L 506 -1331 
L 506 -850 
L 844 -850 
Q 1081 -850 1212 -737 
Q 1344 -625 1503 -206 
L 1606 56 
L 191 3500 
L 800 3500 
L 1894 763 
L 2988 3500 
L 3597 3500 
L 2059 -325 
z
" transform="scale(0.015625)"/>
       <path id="DejaVuSans-25" d="M 4653 2053 
Q 4381 2053 4226 1822 
Q 4072 1591 4072 1178 
Q 4072 772 4226 539 
Q 4381 306 4653 306 
Q 4919 306 5073 539 
Q 5228 772 5228 1178 
Q 5228 1588 5073 1820 
Q 4919 2053 4653 2053 
z
M 4653 2450 
Q 5147 2450 5437 2106 
Q 5728 1763 5728 1178 
Q 5728 594 5436 251 
Q 5144 -91 4653 -91 
Q 4153 -91 3862 251 
Q 3572 594 3572 1178 
Q 3572 1766 3864 2108 
Q 4156 2450 4653 2450 
z
M 1428 4353 
Q 1159 4353 1004 4120 
Q 850 3888 850 3481 
Q 850 3069 1003 2837 
Q 1156 2606 1428 2606 
Q 1700 2606 1854 2837 
Q 2009 3069 2009 3481 
Q 2009 3884 1853 4118 
Q 1697 4353 1428 4353 
z
M 4250 4750 
L 4750 4750 
L 1831 -91 
L 1331 -91 
L 4250 4750 
z
M 1428 4750 
Q 1922 4750 2215 4408 
Q 2509 4066 2509 3481 
Q 2509 2891 2217 2550 
Q 1925 2209 1428 2209 
Q 931 2209 642 2551 
Q 353 2894 353 3481 
Q 353 4063 643 4406 
Q 934 4750 1428 4750 
z
" transform="scale(0.015625)"/>
       <path id="DejaVuSans-52" d="M 2841 2188 
Q 3044 2119 3236 1894 
Q 3428 1669 3622 1275 
L 4263 0 
L 3584 0 
L 2988 1197 
Q 2756 1666 2539 1819 
Q 2322 1972 1947 1972 
L 1259 1972 
L 1259 0 
L 628 0 
L 628 4666 
L 2053 4666 
Q 2853 4666 3247 4331 
Q 3641 3997 3641 3322 
Q 3641 2881 3436 2590 
Q 3231 2300 2841 2188 
z
M 1259 4147 
L 1259 2491 
L 2053 2491 
Q 2509 2491 2742 2702 
Q 2975 2913 2975 3322 
Q 2975 3731 2742 3939 
Q 2509 4147 2053 4147 
L 1259 4147 
z
" transform="scale(0.015625)"/>
      </defs>
      <use xlink:href="#DejaVuSans-48"/>
      <use xlink:href="#DejaVuSans-75" x="75.195312"/>
      <use xlink:href="#DejaVuSans-6d" x="138.574219"/>
      <use xlink:href="#DejaVuSans-69" x="235.986328"/>
      <use xlink:href="#DejaVuSans-64" x="263.769531"/>
      <use xlink:href="#DejaVuSans-69" x="327.246094"/>
      <use xlink:href="#DejaVuSans-74" x="355.029297"/>
      <use xlink:href="#DejaVuSans-79" x="394.238281"/>
      <use xlink:href="#DejaVuSans-20" x="453.417969"/>
      <use xlink:href="#DejaVuSans-5b" x="485.205078"/>
      <use xlink:href="#DejaVuSans-25" x="524.21875"/>
      <use xlink:href="#DejaVuSans-52" x="619.238281"/>
      <use xlink:href="#DejaVuSans-48" x="688.720703"/>
      <use xlink:href="#DejaVuSans-5d" x="763.916016"/>
     </g>
    </g>
   </g>
   <g id="line2d_60">
    <path d="M 51.05 199.476328 
L 62.887015 199.476328 
L 63.198482 198.215392 
L 65.690529 198.215392 
L 66.003276 196.954456 
L 68.650605 196.954456 
L 68.807125 195.69352 
L 71.142403 195.69352 
L 71.29753 196.954456 
L 80.798276 196.954456 
L 80.95402 198.215392 
L 82.66806 198.215392 
L 82.823027 199.476328 
L 85.160109 199.476328 
L 85.315036 198.215392 
L 87.02906 198.215392 
L 87.184025 196.954456 
L 94.193651 196.954456 
L 94.348529 198.215392 
L 104.006647 198.215392 
L 104.316539 199.476328 
L 108.834162 199.476328 
L 108.989033 200.737264 
L 110.858024 200.737264 
L 111.01458 201.9982 
L 114.440987 201.9982 
L 114.596037 200.737264 
L 117.556034 200.737264 
L 117.711045 199.476328 
L 119.113285 199.476328 
L 119.268543 198.215392 
L 120.514547 198.215392 
L 120.671048 196.954456 
L 122.228557 196.954456 
L 122.383535 195.69352 
L 124.097522 195.69352 
L 124.252568 194.432584 
L 126.744554 194.432584 
L 126.901109 193.171648 
L 129.85952 193.171648 
L 130.016 191.910712 
L 137.958531 191.910712 
L 138.114888 193.171648 
L 142.008022 193.171648 
L 142.319514 194.432584 
L 143.565547 194.432584 
L 143.722102 195.69352 
L 147.615053 195.69352 
L 147.771485 194.432584 
L 149.795561 194.432584 
L 149.952082 193.171648 
L 152.444073 193.171648 
L 152.59907 191.910712 
L 156.025557 191.910712 
L 156.181837 190.649776 
L 158.362454 190.649776 
L 158.517573 189.38884 
L 176.118095 189.38884 
L 176.273038 190.649776 
L 180.323937 190.649776 
L 180.478396 191.910712 
L 183.127247 191.910712 
L 183.437513 193.171648 
L 184.528447 193.171648 
L 184.683533 191.910712 
L 184.839936 199.476328 
L 186.39701 199.476328 
L 186.552521 191.910712 
L 186.864016 191.910712 
L 187.020582 193.171648 
L 188.733017 193.171648 
L 188.889368 199.476328 
L 192.159515 199.476328 
L 192.315643 198.215392 
L 192.938896 198.215392 
L 193.094014 199.476328 
L 199.635491 199.476328 
L 199.791864 193.171648 
L 207.734476 193.171648 
L 207.890924 191.910712 
L 211.005773 191.910712 
L 211.160982 190.649776 
L 214.743926 190.649776 
L 214.898973 189.38884 
L 225.334857 189.38884 
L 225.489933 190.649776 
L 237.1719 190.649776 
L 237.326924 189.38884 
L 282.339357 189.38884 
L 282.49443 190.649776 
L 285.29791 190.649776 
L 285.454205 191.910712 
L 289.503842 191.910712 
L 289.658928 193.171648 
L 289.970436 193.171648 
L 290.126793 191.910712 
L 293.708434 191.910712 
L 293.865243 190.649776 
L 299.315437 190.649776 
L 299.472129 189.38884 
L 438.246005 189.38884 
L 438.400525 190.649776 
L 440.736619 190.649776 
L 440.893074 191.910712 
L 441.515931 191.910712 
L 441.671107 193.171648 
L 445.25418 193.171648 
L 445.40913 191.910712 
L 449.303402 191.910712 
L 449.458608 193.171648 
L 453.352721 193.171648 
L 453.508095 194.432584 
L 456.000096 194.432584 
L 456.156333 193.171648 
L 460.984097 193.171648 
L 461.140504 191.910712 
L 461.608418 191.910712 
L 461.762848 193.171648 
L 466.747366 193.171648 
L 466.902601 194.432584 
L 469.394595 194.432584 
L 469.550985 193.171648 
L 470.173898 193.171648 
L 470.330453 194.432584 
L 470.9521 194.432584 
L 471.108536 195.69352 
L 472.354287 195.69352 
L 472.509603 196.954456 
L 473.133755 196.954456 
L 473.444014 198.215392 
L 473.911828 198.215392 
L 474.067095 199.476328 
L 474.223541 198.215392 
L 477.026965 198.215392 
L 477.182089 196.954456 
L 477.493591 196.954456 
L 477.650075 198.215392 
L 477.80508 198.215392 
L 477.961438 199.476328 
L 478.272897 199.476328 
L 478.428087 200.737264 
L 480.608589 200.737264 
L 480.765063 201.9982 
L 482.321978 201.9982 
L 482.477574 209.563816 
L 482.63399 209.563816 
L 482.789089 208.30288 
L 483.100577 208.30288 
L 483.413266 210.824752 
L 484.191397 210.824752 
L 484.346574 212.085688 
L 484.658079 212.085688 
L 484.814343 213.346624 
L 485.592574 213.346624 
L 485.749036 212.085688 
L 486.528312 212.085688 
L 486.683518 213.346624 
L 487.461552 213.346624 
L 487.617773 214.60756 
L 487.773066 214.60756 
L 488.084516 213.346624 
L 488.240617 213.346624 
L 488.396063 212.085688 
L 488.863825 212.085688 
L 489.019073 213.346624 
L 489.953565 213.346624 
L 490.109744 212.085688 
L 491.043838 212.085688 
L 491.19955 213.346624 
L 491.19955 213.346624 
" clip-path="url(#p1950d7c507)" style="fill: none; stroke: #ff7f0e; stroke-width: 1.5; stroke-linecap: square"/>
   </g>
   <g id="patch_8">
    <path d="M 51.05 302.873078 
L 51.05 176.77948 
" style="fill: none; stroke: #000000; stroke-width: 0.8; stroke-linejoin: miter; stroke-linecap: square"/>
   </g>
   <g id="patch_9">
    <path d="M 491.19955 302.873078 
L 491.19955 176.77948 
" style="fill: none; stroke: #000000; stroke-width: 0.8; stroke-linejoin: miter; stroke-linecap: square"/>
   </g>
   <g id="patch_10">
    <path d="M 51.05 302.873078 
L 491.19955 302.873078 
" style="fill: none; stroke: #000000; stroke-width: 0.8; stroke-linejoin: miter; stroke-linecap: square"/>
   </g>
   <g id="patch_11">
    <path d="M 51.05 176.77948 
L 491.19955 176.77948 
" style="fill: none; stroke: #000000; stroke-width: 0.8; stroke-linejoin: miter; stroke-linecap: square"/>
   </g>
  </g>
  <g id="axes_3">
   <g id="patch_12">
    <path d="M 51.05 447.252558 
L 491.19955 447.252558 
L 491.19955 321.158961 
L 51.05 321.158961 
z
" style="fill: #ffffff"/>
   </g>
   <g id="matplotlib.axis_5">
    <g id="xtick_19">
     <g id="line2d_61">
      <path d="M 97.706321 447.252558 
L 97.706321 321.158961 
" clip-path="url(#p78aeca19ef)" style="fill: none; stroke: #b0b0b0; stroke-width: 0.8; stroke-linecap: square"/>
     </g>
     <g id="line2d_62">
      <g>
       <use xlink:href="#m000e7a18a1" x="97.706321" y="447.252558" style="stroke: #000000; stroke-width: 0.8"/>
      </g>
     </g>
     <g id="text_14">
      <!-- 03-01 04 -->
      <g transform="translate(83.761402 491.417649) rotate(-45) scale(0.1 -0.1)">
       <defs>
        <path id="DejaVuSans-33" d="M 2597 2516 
Q 3050 2419 3304 2112 
Q 3559 1806 3559 1356 
Q 3559 666 3084 287 
Q 2609 -91 1734 -91 
Q 1441 -91 1130 -33 
Q 819 25 488 141 
L 488 750 
Q 750 597 1062 519 
Q 1375 441 1716 441 
Q 2309 441 2620 675 
Q 2931 909 2931 1356 
Q 2931 1769 2642 2001 
Q 2353 2234 1838 2234 
L 1294 2234 
L 1294 2753 
L 1863 2753 
Q 2328 2753 2575 2939 
Q 2822 3125 2822 3475 
Q 2822 3834 2567 4026 
Q 2313 4219 1838 4219 
Q 1578 4219 1281 4162 
Q 984 4106 628 3988 
L 628 4550 
Q 988 4650 1302 4700 
Q 1616 4750 1894 4750 
Q 2613 4750 3031 4423 
Q 3450 4097 3450 3541 
Q 3450 3153 3228 2886 
Q 3006 2619 2597 2516 
z
" transform="scale(0.015625)"/>
        <path id="DejaVuSans-2d" d="M 313 2009 
L 1997 2009 
L 1997 1497 
L 313 1497 
L 313 2009 
z
" transform="scale(0.015625)"/>
       </defs>
       <use xlink:href="#DejaVuSans-30"/>
       <use xlink:href="#DejaVuSans-33" x="63.623047"/>
       <use xlink:href="#DejaVuSans-2d" x="127.246094"/>
       <use xlink:href="#DejaVuSans-30" x="163.330078"/>
       <use xlink:href="#DejaVuSans-31" x="226.953125"/>
       <use xlink:href="#DejaVuSans-20" x="290.576172"/>
       <use xlink:href="#DejaVuSans-30" x="322.363281"/>
       <use xlink:href="#DejaVuSans-34" x="385.986328"/>
      </g>
     </g>
    </g>
    <g id="xtick_20">
     <g id="line2d_63">
      <path d="M 144.431744 447.252558 
L 144.431744 321.158961 
" clip-path="url(#p78aeca19ef)" style="fill: none; stroke: #b0b0b0; stroke-width: 0.8; stroke-linecap: square"/>
     </g>
     <g id="line2d_64">
      <g>
       <use xlink:href="#m000e7a18a1" x="144.431744" y="447.252558" style="stroke: #000000; stroke-width: 0.8"/>
      </g>
     </g>
     <g id="text_15">
      <!-- 03-01 08 -->
      <g transform="translate(130.486825 491.417649) rotate(-45) scale(0.1 -0.1)">
       <use xlink:href="#DejaVuSans-30"/>
       <use xlink:href="#DejaVuSans-33" x="63.623047"/>
       <use xlink:href="#DejaVuSans-2d" x="127.246094"/>
       <use xlink:href="#DejaVuSans-30" x="163.330078"/>
       <use xlink:href="#DejaVuSans-31" x="226.953125"/>
       <use xlink:href="#DejaVuSans-20" x="290.576172"/>
       <use xlink:href="#DejaVuSans-30" x="322.363281"/>
       <use xlink:href="#DejaVuSans-38" x="385.986328"/>
      </g>
     </g>
    </g>
    <g id="xtick_21">
     <g id="line2d_65">
      <path d="M 191.157168 447.252558 
L 191.157168 321.158961 
" clip-path="url(#p78aeca19ef)" style="fill: none; stroke: #b0b0b0; stroke-width: 0.8; stroke-linecap: square"/>
     </g>
     <g id="line2d_66">
      <g>
       <use xlink:href="#m000e7a18a1" x="191.157168" y="447.252558" style="stroke: #000000; stroke-width: 0.8"/>
      </g>
     </g>
     <g id="text_16">
      <!-- 03-01 12 -->
      <g transform="translate(177.212249 491.417649) rotate(-45) scale(0.1 -0.1)">
       <use xlink:href="#DejaVuSans-30"/>
       <use xlink:href="#DejaVuSans-33" x="63.623047"/>
       <use xlink:href="#DejaVuSans-2d" x="127.246094"/>
       <use xlink:href="#DejaVuSans-30" x="163.330078"/>
       <use xlink:href="#DejaVuSans-31" x="226.953125"/>
       <use xlink:href="#DejaVuSans-20" x="290.576172"/>
       <use xlink:href="#DejaVuSans-31" x="322.363281"/>
       <use xlink:href="#DejaVuSans-32" x="385.986328"/>
      </g>
     </g>
    </g>
    <g id="xtick_22">
     <g id="line2d_67">
      <path d="M 237.882591 447.252558 
L 237.882591 321.158961 
" clip-path="url(#p78aeca19ef)" style="fill: none; stroke: #b0b0b0; stroke-width: 0.8; stroke-linecap: square"/>
     </g>
     <g id="line2d_68">
      <g>
       <use xlink:href="#m000e7a18a1" x="237.882591" y="447.252558" style="stroke: #000000; stroke-width: 0.8"/>
      </g>
     </g>
     <g id="text_17">
      <!-- 03-01 16 -->
      <g transform="translate(223.937672 491.417649) rotate(-45) scale(0.1 -0.1)">
       <use xlink:href="#DejaVuSans-30"/>
       <use xlink:href="#DejaVuSans-33" x="63.623047"/>
       <use xlink:href="#DejaVuSans-2d" x="127.246094"/>
       <use xlink:href="#DejaVuSans-30" x="163.330078"/>
       <use xlink:href="#DejaVuSans-31" x="226.953125"/>
       <use xlink:href="#DejaVuSans-20" x="290.576172"/>
       <use xlink:href="#DejaVuSans-31" x="322.363281"/>
       <use xlink:href="#DejaVuSans-36" x="385.986328"/>
      </g>
     </g>
    </g>
    <g id="xtick_23">
     <g id="line2d_69">
      <path d="M 284.608015 447.252558 
L 284.608015 321.158961 
" clip-path="url(#p78aeca19ef)" style="fill: none; stroke: #b0b0b0; stroke-width: 0.8; stroke-linecap: square"/>
     </g>
     <g id="line2d_70">
      <g>
       <use xlink:href="#m000e7a18a1" x="284.608015" y="447.252558" style="stroke: #000000; stroke-width: 0.8"/>
      </g>
     </g>
     <g id="text_18">
      <!-- 03-01 20 -->
      <g transform="translate(270.663095 491.417649) rotate(-45) scale(0.1 -0.1)">
       <use xlink:href="#DejaVuSans-30"/>
       <use xlink:href="#DejaVuSans-33" x="63.623047"/>
       <use xlink:href="#DejaVuSans-2d" x="127.246094"/>
       <use xlink:href="#DejaVuSans-30" x="163.330078"/>
       <use xlink:href="#DejaVuSans-31" x="226.953125"/>
       <use xlink:href="#DejaVuSans-20" x="290.576172"/>
       <use xlink:href="#DejaVuSans-32" x="322.363281"/>
       <use xlink:href="#DejaVuSans-30" x="385.986328"/>
      </g>
     </g>
    </g>
    <g id="xtick_24">
     <g id="line2d_71">
      <path d="M 331.333438 447.252558 
L 331.333438 321.158961 
" clip-path="url(#p78aeca19ef)" style="fill: none; stroke: #b0b0b0; stroke-width: 0.8; stroke-linecap: square"/>
     </g>
     <g id="line2d_72">
      <g>
       <use xlink:href="#m000e7a18a1" x="331.333438" y="447.252558" style="stroke: #000000; stroke-width: 0.8"/>
      </g>
     </g>
     <g id="text_19">
      <!-- 03-02 00 -->
      <g transform="translate(317.388519 491.417649) rotate(-45) scale(0.1 -0.1)">
       <use xlink:href="#DejaVuSans-30"/>
       <use xlink:href="#DejaVuSans-33" x="63.623047"/>
       <use xlink:href="#DejaVuSans-2d" x="127.246094"/>
       <use xlink:href="#DejaVuSans-30" x="163.330078"/>
       <use xlink:href="#DejaVuSans-32" x="226.953125"/>
       <use xlink:href="#DejaVuSans-20" x="290.576172"/>
       <use xlink:href="#DejaVuSans-30" x="322.363281"/>
       <use xlink:href="#DejaVuSans-30" x="385.986328"/>
      </g>
     </g>
    </g>
    <g id="xtick_25">
     <g id="line2d_73">
      <path d="M 378.058861 447.252558 
L 378.058861 321.158961 
" clip-path="url(#p78aeca19ef)" style="fill: none; stroke: #b0b0b0; stroke-width: 0.8; stroke-linecap: square"/>
     </g>
     <g id="line2d_74">
      <g>
       <use xlink:href="#m000e7a18a1" x="378.058861" y="447.252558" style="stroke: #000000; stroke-width: 0.8"/>
      </g>
     </g>
     <g id="text_20">
      <!-- 03-02 04 -->
      <g transform="translate(364.113942 491.417649) rotate(-45) scale(0.1 -0.1)">
       <use xlink:href="#DejaVuSans-30"/>
       <use xlink:href="#DejaVuSans-33" x="63.623047"/>
       <use xlink:href="#DejaVuSans-2d" x="127.246094"/>
       <use xlink:href="#DejaVuSans-30" x="163.330078"/>
       <use xlink:href="#DejaVuSans-32" x="226.953125"/>
       <use xlink:href="#DejaVuSans-20" x="290.576172"/>
       <use xlink:href="#DejaVuSans-30" x="322.363281"/>
       <use xlink:href="#DejaVuSans-34" x="385.986328"/>
      </g>
     </g>
    </g>
    <g id="xtick_26">
     <g id="line2d_75">
      <path d="M 424.784285 447.252558 
L 424.784285 321.158961 
" clip-path="url(#p78aeca19ef)" style="fill: none; stroke: #b0b0b0; stroke-width: 0.8; stroke-linecap: square"/>
     </g>
     <g id="line2d_76">
      <g>
       <use xlink:href="#m000e7a18a1" x="424.784285" y="447.252558" style="stroke: #000000; stroke-width: 0.8"/>
      </g>
     </g>
     <g id="text_21">
      <!-- 03-02 08 -->
      <g transform="translate(410.839366 491.417649) rotate(-45) scale(0.1 -0.1)">
       <use xlink:href="#DejaVuSans-30"/>
       <use xlink:href="#DejaVuSans-33" x="63.623047"/>
       <use xlink:href="#DejaVuSans-2d" x="127.246094"/>
       <use xlink:href="#DejaVuSans-30" x="163.330078"/>
       <use xlink:href="#DejaVuSans-32" x="226.953125"/>
       <use xlink:href="#DejaVuSans-20" x="290.576172"/>
       <use xlink:href="#DejaVuSans-30" x="322.363281"/>
       <use xlink:href="#DejaVuSans-38" x="385.986328"/>
      </g>
     </g>
    </g>
    <g id="xtick_27">
     <g id="line2d_77">
      <path d="M 471.509708 447.252558 
L 471.509708 321.158961 
" clip-path="url(#p78aeca19ef)" style="fill: none; stroke: #b0b0b0; stroke-width: 0.8; stroke-linecap: square"/>
     </g>
     <g id="line2d_78">
      <g>
       <use xlink:href="#m000e7a18a1" x="471.509708" y="447.252558" style="stroke: #000000; stroke-width: 0.8"/>
      </g>
     </g>
     <g id="text_22">
      <!-- 03-02 12 -->
      <g transform="translate(457.564789 491.417649) rotate(-45) scale(0.1 -0.1)">
       <use xlink:href="#DejaVuSans-30"/>
       <use xlink:href="#DejaVuSans-33" x="63.623047"/>
       <use xlink:href="#DejaVuSans-2d" x="127.246094"/>
       <use xlink:href="#DejaVuSans-30" x="163.330078"/>
       <use xlink:href="#DejaVuSans-32" x="226.953125"/>
       <use xlink:href="#DejaVuSans-20" x="290.576172"/>
       <use xlink:href="#DejaVuSans-31" x="322.363281"/>
       <use xlink:href="#DejaVuSans-32" x="385.986328"/>
      </g>
     </g>
    </g>
   </g>
   <g id="matplotlib.axis_6">
    <g id="ytick_12">
     <g id="line2d_79">
      <path d="M 51.05 442.452987 
L 491.19955 442.452987 
" clip-path="url(#p78aeca19ef)" style="fill: none; stroke: #b0b0b0; stroke-width: 0.8; stroke-linecap: square"/>
     </g>
     <g id="line2d_80">
      <g>
       <use xlink:href="#m42550d5336" x="51.05" y="442.452987" style="stroke: #000000; stroke-width: 0.8"/>
      </g>
     </g>
     <g id="text_23">
      <!-- 710.0 -->
      <g transform="translate(15.421875 446.252206) scale(0.1 -0.1)">
       <defs>
        <path id="DejaVuSans-2e" d="M 684 794 
L 1344 794 
L 1344 0 
L 684 0 
L 684 794 
z
" transform="scale(0.015625)"/>
       </defs>
       <use xlink:href="#DejaVuSans-37"/>
       <use xlink:href="#DejaVuSans-31" x="63.623047"/>
       <use xlink:href="#DejaVuSans-30" x="127.246094"/>
       <use xlink:href="#DejaVuSans-2e" x="190.869141"/>
       <use xlink:href="#DejaVuSans-30" x="222.65625"/>
      </g>
     </g>
    </g>
    <g id="ytick_13">
     <g id="line2d_81">
      <path d="M 51.05 419.154096 
L 491.19955 419.154096 
" clip-path="url(#p78aeca19ef)" style="fill: none; stroke: #b0b0b0; stroke-width: 0.8; stroke-linecap: square"/>
     </g>
     <g id="line2d_82">
      <g>
       <use xlink:href="#m42550d5336" x="51.05" y="419.154096" style="stroke: #000000; stroke-width: 0.8"/>
      </g>
     </g>
     <g id="text_24">
      <!-- 712.5 -->
      <g transform="translate(15.421875 422.953315) scale(0.1 -0.1)">
       <use xlink:href="#DejaVuSans-37"/>
       <use xlink:href="#DejaVuSans-31" x="63.623047"/>
       <use xlink:href="#DejaVuSans-32" x="127.246094"/>
       <use xlink:href="#DejaVuSans-2e" x="190.869141"/>
       <use xlink:href="#DejaVuSans-35" x="222.65625"/>
      </g>
     </g>
    </g>
    <g id="ytick_14">
     <g id="line2d_83">
      <path d="M 51.05 395.855205 
L 491.19955 395.855205 
" clip-path="url(#p78aeca19ef)" style="fill: none; stroke: #b0b0b0; stroke-width: 0.8; stroke-linecap: square"/>
     </g>
     <g id="line2d_84">
      <g>
       <use xlink:href="#m42550d5336" x="51.05" y="395.855205" style="stroke: #000000; stroke-width: 0.8"/>
      </g>
     </g>
     <g id="text_25">
      <!-- 715.0 -->
      <g transform="translate(15.421875 399.654424) scale(0.1 -0.1)">
       <use xlink:href="#DejaVuSans-37"/>
       <use xlink:href="#DejaVuSans-31" x="63.623047"/>
       <use xlink:href="#DejaVuSans-35" x="127.246094"/>
       <use xlink:href="#DejaVuSans-2e" x="190.869141"/>
       <use xlink:href="#DejaVuSans-30" x="222.65625"/>
      </g>
     </g>
    </g>
    <g id="ytick_15">
     <g id="line2d_85">
      <path d="M 51.05 372.556314 
L 491.19955 372.556314 
" clip-path="url(#p78aeca19ef)" style="fill: none; stroke: #b0b0b0; stroke-width: 0.8; stroke-linecap: square"/>
     </g>
     <g id="line2d_86">
      <g>
       <use xlink:href="#m42550d5336" x="51.05" y="372.556314" style="stroke: #000000; stroke-width: 0.8"/>
      </g>
     </g>
     <g id="text_26">
      <!-- 717.5 -->
      <g transform="translate(15.421875 376.355533) scale(0.1 -0.1)">
       <use xlink:href="#DejaVuSans-37"/>
       <use xlink:href="#DejaVuSans-31" x="63.623047"/>
       <use xlink:href="#DejaVuSans-37" x="127.246094"/>
       <use xlink:href="#DejaVuSans-2e" x="190.869141"/>
       <use xlink:href="#DejaVuSans-35" x="222.65625"/>
      </g>
     </g>
    </g>
    <g id="ytick_16">
     <g id="line2d_87">
      <path d="M 51.05 349.257423 
L 491.19955 349.257423 
" clip-path="url(#p78aeca19ef)" style="fill: none; stroke: #b0b0b0; stroke-width: 0.8; stroke-linecap: square"/>
     </g>
     <g id="line2d_88">
      <g>
       <use xlink:href="#m42550d5336" x="51.05" y="349.257423" style="stroke: #000000; stroke-width: 0.8"/>
      </g>
     </g>
     <g id="text_27">
      <!-- 720.0 -->
      <g transform="translate(15.421875 353.056642) scale(0.1 -0.1)">
       <use xlink:href="#DejaVuSans-37"/>
       <use xlink:href="#DejaVuSans-32" x="63.623047"/>
       <use xlink:href="#DejaVuSans-30" x="127.246094"/>
       <use xlink:href="#DejaVuSans-2e" x="190.869141"/>
       <use xlink:href="#DejaVuSans-30" x="222.65625"/>
      </g>
     </g>
    </g>
    <g id="ytick_17">
     <g id="line2d_89">
      <path d="M 51.05 325.958532 
L 491.19955 325.958532 
" clip-path="url(#p78aeca19ef)" style="fill: none; stroke: #b0b0b0; stroke-width: 0.8; stroke-linecap: square"/>
     </g>
     <g id="line2d_90">
      <g>
       <use xlink:href="#m42550d5336" x="51.05" y="325.958532" style="stroke: #000000; stroke-width: 0.8"/>
      </g>
     </g>
     <g id="text_28">
      <!-- 722.5 -->
      <g transform="translate(15.421875 329.757751) scale(0.1 -0.1)">
       <use xlink:href="#DejaVuSans-37"/>
       <use xlink:href="#DejaVuSans-32" x="63.623047"/>
       <use xlink:href="#DejaVuSans-32" x="127.246094"/>
       <use xlink:href="#DejaVuSans-2e" x="190.869141"/>
       <use xlink:href="#DejaVuSans-35" x="222.65625"/>
      </g>
     </g>
    </g>
    <g id="text_29">
     <!-- Rain [mm] -->
     <g transform="translate(9.342188 410.420603) rotate(-90) scale(0.1 -0.1)">
      <defs>
       <path id="DejaVuSans-6e" d="M 3513 2113 
L 3513 0 
L 2938 0 
L 2938 2094 
Q 2938 2591 2744 2837 
Q 2550 3084 2163 3084 
Q 1697 3084 1428 2787 
Q 1159 2491 1159 1978 
L 1159 0 
L 581 0 
L 581 3500 
L 1159 3500 
L 1159 2956 
Q 1366 3272 1645 3428 
Q 1925 3584 2291 3584 
Q 2894 3584 3203 3211 
Q 3513 2838 3513 2113 
z
" transform="scale(0.015625)"/>
      </defs>
      <use xlink:href="#DejaVuSans-52"/>
      <use xlink:href="#DejaVuSans-61" x="67.232422"/>
      <use xlink:href="#DejaVuSans-69" x="128.511719"/>
      <use xlink:href="#DejaVuSans-6e" x="156.294922"/>
      <use xlink:href="#DejaVuSans-20" x="219.673828"/>
      <use xlink:href="#DejaVuSans-5b" x="251.460938"/>
      <use xlink:href="#DejaVuSans-6d" x="290.474609"/>
      <use xlink:href="#DejaVuSans-6d" x="387.886719"/>
      <use xlink:href="#DejaVuSans-5d" x="485.298828"/>
     </g>
    </g>
   </g>
   <g id="line2d_91">
    <path d="M 51.05 441.521031 
L 65.2242 441.521031 
L 65.379038 438.725164 
L 127.679039 438.725164 
L 127.835138 435.929297 
L 133.287535 435.929297 
L 133.59754 433.133431 
L 149.329152 433.133431 
L 149.484069 430.337564 
L 152.59907 430.337564 
L 152.755493 427.541697 
L 155.558837 427.541697 
L 155.714048 424.74583 
L 163.346379 424.74583 
L 163.501591 421.949963 
L 177.519053 421.949963 
L 177.675178 419.154096 
L 194.184814 419.154096 
L 194.340017 416.358229 
L 198.857502 416.358229 
L 199.0125 413.562362 
L 202.750477 413.562362 
L 202.90677 410.766495 
L 205.398917 410.766495 
L 205.553987 407.970628 
L 208.825323 407.970628 
L 208.980486 405.174761 
L 211.628786 405.174761 
L 211.783985 402.378894 
L 215.210459 402.378894 
L 215.523332 399.583028 
L 225.023303 399.583028 
L 225.178434 396.787161 
L 229.69583 396.787161 
L 229.850938 393.991294 
L 232.342938 393.991294 
L 232.49936 391.195427 
L 235.769439 391.195427 
L 236.080947 388.39956 
L 237.949928 388.39956 
L 238.106172 385.603693 
L 240.441926 385.603693 
L 240.598293 382.807826 
L 241.68923 382.807826 
L 241.999428 380.011959 
L 242.778604 380.011959 
L 242.933927 377.216092 
L 243.556923 377.216092 
L 243.713359 374.420225 
L 244.958876 374.420225 
L 245.114432 371.624358 
L 245.425918 371.624358 
L 245.582266 368.828491 
L 250.877506 368.828491 
L 251.032913 366.032625 
L 257.57442 366.032625 
L 257.730758 363.236758 
L 263.804405 363.236758 
L 263.960756 360.440891 
L 273.460928 360.440891 
L 273.617321 357.645024 
L 302.275267 357.645024 
L 302.43044 354.849157 
L 318.628464 354.849157 
L 318.784942 352.05329 
L 348.220979 352.05329 
L 348.377437 349.257423 
L 355.230462 349.257423 
L 355.385516 346.461556 
L 402.422053 346.461556 
L 402.578598 343.665689 
L 416.907591 343.665689 
L 417.062576 340.869822 
L 418.153441 340.869822 
L 418.308592 338.073955 
L 418.776386 338.073955 
L 418.931585 335.278088 
L 421.112093 335.278088 
L 421.268399 332.482222 
L 424.071953 332.482222 
L 424.227084 329.686355 
L 426.875455 329.686355 
L 427.030596 326.890488 
L 491.19955 326.890488 
L 491.19955 326.890488 
" clip-path="url(#p78aeca19ef)" style="fill: none; stroke: #9467bd; stroke-width: 1.5; stroke-linecap: square"/>
   </g>
   <g id="patch_13">
    <path d="M 51.05 447.252558 
L 51.05 321.158961 
" style="fill: none; stroke: #000000; stroke-width: 0.8; stroke-linejoin: miter; stroke-linecap: square"/>
   </g>
   <g id="patch_14">
    <path d="M 491.19955 447.252558 
L 491.19955 321.158961 
" style="fill: none; stroke: #000000; stroke-width: 0.8; stroke-linejoin: miter; stroke-linecap: square"/>
   </g>
   <g id="patch_15">
    <path d="M 51.05 447.252558 
L 491.19955 447.252558 
" style="fill: none; stroke: #000000; stroke-width: 0.8; stroke-linejoin: miter; stroke-linecap: square"/>
   </g>
   <g id="patch_16">
    <path d="M 51.05 321.158961 
L 491.19955 321.158961 
" style="fill: none; stroke: #000000; stroke-width: 0.8; stroke-linejoin: miter; stroke-linecap: square"/>
   </g>
  </g>
  <g id="text_30">
   <!-- Weather data - March 2024 -->
   <g transform="translate(169.874063 19.198125) scale(0.12 -0.12)">
    <defs>
     <path id="DejaVuSans-57" d="M 213 4666 
L 850 4666 
L 1831 722 
L 2809 4666 
L 3519 4666 
L 4500 722 
L 5478 4666 
L 6119 4666 
L 4947 0 
L 4153 0 
L 3169 4050 
L 2175 0 
L 1381 0 
L 213 4666 
z
" transform="scale(0.015625)"/>
     <path id="DejaVuSans-68" d="M 3513 2113 
L 3513 0 
L 2938 0 
L 2938 2094 
Q 2938 2591 2744 2837 
Q 2550 3084 2163 3084 
Q 1697 3084 1428 2787 
Q 1159 2491 1159 1978 
L 1159 0 
L 581 0 
L 581 4863 
L 1159 4863 
L 1159 2956 
Q 1366 3272 1645 3428 
Q 1925 3584 2291 3584 
Q 2894 3584 3203 3211 
Q 3513 2838 3513 2113 
z
" transform="scale(0.015625)"/>
     <path id="DejaVuSans-4d" d="M 628 4666 
L 1569 4666 
L 2759 1491 
L 3956 4666 
L 4897 4666 
L 4897 0 
L 4281 0 
L 4281 4097 
L 3078 897 
L 2444 897 
L 1241 4097 
L 1241 0 
L 628 0 
L 628 4666 
z
" transform="scale(0.015625)"/>
     <path id="DejaVuSans-63" d="M 3122 3366 
L 3122 2828 
Q 2878 2963 2633 3030 
Q 2388 3097 2138 3097 
Q 1578 3097 1268 2742 
Q 959 2388 959 1747 
Q 959 1106 1268 751 
Q 1578 397 2138 397 
Q 2388 397 2633 464 
Q 2878 531 3122 666 
L 3122 134 
Q 2881 22 2623 -34 
Q 2366 -91 2075 -91 
Q 1284 -91 818 406 
Q 353 903 353 1747 
Q 353 2603 823 3093 
Q 1294 3584 2113 3584 
Q 2378 3584 2631 3529 
Q 2884 3475 3122 3366 
z
" transform="scale(0.015625)"/>
    </defs>
    <use xlink:href="#DejaVuSans-57"/>
    <use xlink:href="#DejaVuSans-65" x="93.001953"/>
    <use xlink:href="#DejaVuSans-61" x="154.525391"/>
    <use xlink:href="#DejaVuSans-74" x="215.804688"/>
    <use xlink:href="#DejaVuSans-68" x="255.013672"/>
    <use xlink:href="#DejaVuSans-65" x="318.392578"/>
    <use xlink:href="#DejaVuSans-72" x="379.916016"/>
    <use xlink:href="#DejaVuSans-20" x="421.029297"/>
    <use xlink:href="#DejaVuSans-64" x="452.816406"/>
    <use xlink:href="#DejaVuSans-61" x="516.292969"/>
    <use xlink:href="#DejaVuSans-74" x="577.572266"/>
    <use xlink:href="#DejaVuSans-61" x="616.78125"/>
    <use xlink:href="#DejaVuSans-20" x="678.060547"/>
    <use xlink:href="#DejaVuSans-2d" x="709.847656"/>
    <use xlink:href="#DejaVuSans-20" x="745.931641"/>
    <use xlink:href="#DejaVuSans-4d" x="777.71875"/>
    <use xlink:href="#DejaVuSans-61" x="863.998047"/>
    <use xlink:href="#DejaVuSans-72" x="925.277344"/>
    <use xlink:href="#DejaVuSans-63" x="964.140625"/>
    <use xlink:href="#DejaVuSans-68" x="1019.121094"/>
    <use xlink:href="#DejaVuSans-20" x="1082.5"/>
    <use xlink:href="#DejaVuSans-32" x="1114.287109"/>
    <use xlink:href="#DejaVuSans-30" x="1177.910156"/>
    <use xlink:href="#DejaVuSans-32" x="1241.533203"/>
    <use xlink:href="#DejaVuSans-34" x="1305.15625"/>
   </g>
  </g>
 </g>
 <defs>
  <clipPath id="pe0ced258b1">
   <rect x="51.05" y="32.4" width="440.14955" height="126.093598"/>
  </clipPath>
  <clipPath id="p1950d7c507">
   <rect x="51.05" y="176.77948" width="440.14955" height="126.093598"/>
  </clipPath>
  <clipPath id="p78aeca19ef">
   <rect x="51.05" y="321.158961" width="440.14955" height="126.093598"/>
  </clipPath>
 </defs>
</svg>
