<?xml version="1.0" encoding="utf-8" standalone="no"?>
<!DOCTYPE svg PUBLIC "-//W3C//DTD SVG 1.1//EN"
  "http://www.w3.org/Graphics/SVG/1.1/DTD/svg11.dtd">
<svg xmlns:xlink="http://www.w3.org/1999/xlink" width="504pt" height="504pt" viewBox="0 0 504 504" xmlns="http://www.w3.org/2000/svg" version="1.1">
 <metadata>
  <rdf:RDF xmlns:dc="http://purl.org/dc/elements/1.1/" xmlns:cc="http://creativecommons.org/ns#" xmlns:rdf="http://www.w3.org/1999/02/22-rdf-syntax-ns#">
   <cc:Work>
    <dc:type rdf:resource="http://purl.org/dc/dcmitype/StillImage"/>
    <dc:date>2024-03-04T05:50:07.589075</dc:date>
    <dc:format>image/svg+xml</dc:format>
    <dc:creator>
     <cc:Agent>
      <dc:title>Matplotlib v3.6.3, https://matplotlib.org/</dc:title>
     </cc:Agent>
    </dc:creator>
   </cc:Work>
  </rdf:RDF>
 </metadata>
 <defs>
  <style type="text/css">*{stroke-linejoin: round; stroke-linecap: butt}</style>
 </defs>
 <g id="figure_1">
  <g id="patch_1">
   <path d="M 0 504 
L 504 504 
L 504 0 
L 0 0 
z
" style="fill: #ffffff"/>
  </g>
  <g id="axes_1">
   <g id="patch_2">
    <path d="M 51.05 158.510853 
L 493.2 158.510853 
L 493.2 32.4 
L 51.05 32.4 
z
" style="fill: #ffffff"/>
   </g>
   <g id="matplotlib.axis_1">
    <g id="xtick_1">
     <g id="line2d_1">
      <path d="M 119.203214 158.510853 
L 119.203214 32.4 
" clip-path="url(#p00bb50e695)" style="fill: none; stroke: #b0b0b0; stroke-width: 0.8; stroke-linecap: square"/>
     </g>
     <g id="line2d_2">
      <defs>
       <path id="m7e0d0bc8ee" d="M 0 0 
L 0 3.5 
" style="stroke: #000000; stroke-width: 0.8"/>
      </defs>
      <g>
       <use xlink:href="#m7e0d0bc8ee" x="119.203214" y="158.510853" style="stroke: #000000; stroke-width: 0.8"/>
      </g>
     </g>
    </g>
    <g id="xtick_2">
     <g id="line2d_3">
      <path d="M 187.390042 158.510853 
L 187.390042 32.4 
" clip-path="url(#p00bb50e695)" style="fill: none; stroke: #b0b0b0; stroke-width: 0.8; stroke-linecap: square"/>
     </g>
     <g id="line2d_4">
      <g>
       <use xlink:href="#m7e0d0bc8ee" x="187.390042" y="158.510853" style="stroke: #000000; stroke-width: 0.8"/>
      </g>
     </g>
    </g>
    <g id="xtick_3">
     <g id="line2d_5">
      <path d="M 255.57687 158.510853 
L 255.57687 32.4 
" clip-path="url(#p00bb50e695)" style="fill: none; stroke: #b0b0b0; stroke-width: 0.8; stroke-linecap: square"/>
     </g>
     <g id="line2d_6">
      <g>
       <use xlink:href="#m7e0d0bc8ee" x="255.57687" y="158.510853" style="stroke: #000000; stroke-width: 0.8"/>
      </g>
     </g>
    </g>
    <g id="xtick_4">
     <g id="line2d_7">
      <path d="M 323.763698 158.510853 
L 323.763698 32.4 
" clip-path="url(#p00bb50e695)" style="fill: none; stroke: #b0b0b0; stroke-width: 0.8; stroke-linecap: square"/>
     </g>
     <g id="line2d_8">
      <g>
       <use xlink:href="#m7e0d0bc8ee" x="323.763698" y="158.510853" style="stroke: #000000; stroke-width: 0.8"/>
      </g>
     </g>
    </g>
    <g id="xtick_5">
     <g id="line2d_9">
      <path d="M 391.950525 158.510853 
L 391.950525 32.4 
" clip-path="url(#p00bb50e695)" style="fill: none; stroke: #b0b0b0; stroke-width: 0.8; stroke-linecap: square"/>
     </g>
     <g id="line2d_10">
      <g>
       <use xlink:href="#m7e0d0bc8ee" x="391.950525" y="158.510853" style="stroke: #000000; stroke-width: 0.8"/>
      </g>
     </g>
    </g>
    <g id="xtick_6">
     <g id="line2d_11">
      <path d="M 460.137353 158.510853 
L 460.137353 32.4 
" clip-path="url(#p00bb50e695)" style="fill: none; stroke: #b0b0b0; stroke-width: 0.8; stroke-linecap: square"/>
     </g>
     <g id="line2d_12">
      <g>
       <use xlink:href="#m7e0d0bc8ee" x="460.137353" y="158.510853" style="stroke: #000000; stroke-width: 0.8"/>
      </g>
     </g>
    </g>
   </g>
   <g id="matplotlib.axis_2">
    <g id="ytick_1">
     <g id="line2d_13">
      <path d="M 51.05 146.409306 
L 493.2 146.409306 
" clip-path="url(#p00bb50e695)" style="fill: none; stroke: #b0b0b0; stroke-width: 0.8; stroke-linecap: square"/>
     </g>
     <g id="line2d_14">
      <defs>
       <path id="mee8a9c0ab0" d="M 0 0 
L -3.5 0 
" style="stroke: #000000; stroke-width: 0.8"/>
      </defs>
      <g>
       <use xlink:href="#mee8a9c0ab0" x="51.05" y="146.409306" style="stroke: #000000; stroke-width: 0.8"/>
      </g>
     </g>
     <g id="text_1">
      <!-- 3 -->
      <g transform="translate(37.6875 150.208525) scale(0.1 -0.1)">
       <defs>
        <path id="DejaVuSans-33" d="M 2597 2516 
Q 3050 2419 3304 2112 
Q 3559 1806 3559 1356 
Q 3559 666 3084 287 
Q 2609 -91 1734 -91 
Q 1441 -91 1130 -33 
Q 819 25 488 141 
L 488 750 
Q 750 597 1062 519 
Q 1375 441 1716 441 
Q 2309 441 2620 675 
Q 2931 909 2931 1356 
Q 2931 1769 2642 2001 
Q 2353 2234 1838 2234 
L 1294 2234 
L 1294 2753 
L 1863 2753 
Q 2328 2753 2575 2939 
Q 2822 3125 2822 3475 
Q 2822 3834 2567 4026 
Q 2313 4219 1838 4219 
Q 1578 4219 1281 4162 
Q 984 4106 628 3988 
L 628 4550 
Q 988 4650 1302 4700 
Q 1616 4750 1894 4750 
Q 2613 4750 3031 4423 
Q 3450 4097 3450 3541 
Q 3450 3153 3228 2886 
Q 3006 2619 2597 2516 
z
" transform="scale(0.015625)"/>
       </defs>
       <use xlink:href="#DejaVuSans-33"/>
      </g>
     </g>
    </g>
    <g id="ytick_2">
     <g id="line2d_15">
      <path d="M 51.05 125.178523 
L 493.2 125.178523 
" clip-path="url(#p00bb50e695)" style="fill: none; stroke: #b0b0b0; stroke-width: 0.8; stroke-linecap: square"/>
     </g>
     <g id="line2d_16">
      <g>
       <use xlink:href="#mee8a9c0ab0" x="51.05" y="125.178523" style="stroke: #000000; stroke-width: 0.8"/>
      </g>
     </g>
     <g id="text_2">
      <!-- 4 -->
      <g transform="translate(37.6875 128.977742) scale(0.1 -0.1)">
       <defs>
        <path id="DejaVuSans-34" d="M 2419 4116 
L 825 1625 
L 2419 1625 
L 2419 4116 
z
M 2253 4666 
L 3047 4666 
L 3047 1625 
L 3713 1625 
L 3713 1100 
L 3047 1100 
L 3047 0 
L 2419 0 
L 2419 1100 
L 313 1100 
L 313 1709 
L 2253 4666 
z
" transform="scale(0.015625)"/>
       </defs>
       <use xlink:href="#DejaVuSans-34"/>
      </g>
     </g>
    </g>
    <g id="ytick_3">
     <g id="line2d_17">
      <path d="M 51.05 103.94774 
L 493.2 103.94774 
" clip-path="url(#p00bb50e695)" style="fill: none; stroke: #b0b0b0; stroke-width: 0.8; stroke-linecap: square"/>
     </g>
     <g id="line2d_18">
      <g>
       <use xlink:href="#mee8a9c0ab0" x="51.05" y="103.94774" style="stroke: #000000; stroke-width: 0.8"/>
      </g>
     </g>
     <g id="text_3">
      <!-- 5 -->
      <g transform="translate(37.6875 107.746958) scale(0.1 -0.1)">
       <defs>
        <path id="DejaVuSans-35" d="M 691 4666 
L 3169 4666 
L 3169 4134 
L 1269 4134 
L 1269 2991 
Q 1406 3038 1543 3061 
Q 1681 3084 1819 3084 
Q 2600 3084 3056 2656 
Q 3513 2228 3513 1497 
Q 3513 744 3044 326 
Q 2575 -91 1722 -91 
Q 1428 -91 1123 -41 
Q 819 9 494 109 
L 494 744 
Q 775 591 1075 516 
Q 1375 441 1709 441 
Q 2250 441 2565 725 
Q 2881 1009 2881 1497 
Q 2881 1984 2565 2268 
Q 2250 2553 1709 2553 
Q 1456 2553 1204 2497 
Q 953 2441 691 2322 
L 691 4666 
z
" transform="scale(0.015625)"/>
       </defs>
       <use xlink:href="#DejaVuSans-35"/>
      </g>
     </g>
    </g>
    <g id="ytick_4">
     <g id="line2d_19">
      <path d="M 51.05 82.716956 
L 493.2 82.716956 
" clip-path="url(#p00bb50e695)" style="fill: none; stroke: #b0b0b0; stroke-width: 0.8; stroke-linecap: square"/>
     </g>
     <g id="line2d_20">
      <g>
       <use xlink:href="#mee8a9c0ab0" x="51.05" y="82.716956" style="stroke: #000000; stroke-width: 0.8"/>
      </g>
     </g>
     <g id="text_4">
      <!-- 6 -->
      <g transform="translate(37.6875 86.516175) scale(0.1 -0.1)">
       <defs>
        <path id="DejaVuSans-36" d="M 2113 2584 
Q 1688 2584 1439 2293 
Q 1191 2003 1191 1497 
Q 1191 994 1439 701 
Q 1688 409 2113 409 
Q 2538 409 2786 701 
Q 3034 994 3034 1497 
Q 3034 2003 2786 2293 
Q 2538 2584 2113 2584 
z
M 3366 4563 
L 3366 3988 
Q 3128 4100 2886 4159 
Q 2644 4219 2406 4219 
Q 1781 4219 1451 3797 
Q 1122 3375 1075 2522 
Q 1259 2794 1537 2939 
Q 1816 3084 2150 3084 
Q 2853 3084 3261 2657 
Q 3669 2231 3669 1497 
Q 3669 778 3244 343 
Q 2819 -91 2113 -91 
Q 1303 -91 875 529 
Q 447 1150 447 2328 
Q 447 3434 972 4092 
Q 1497 4750 2381 4750 
Q 2619 4750 2861 4703 
Q 3103 4656 3366 4563 
z
" transform="scale(0.015625)"/>
       </defs>
       <use xlink:href="#DejaVuSans-36"/>
      </g>
     </g>
    </g>
    <g id="ytick_5">
     <g id="line2d_21">
      <path d="M 51.05 61.486173 
L 493.2 61.486173 
" clip-path="url(#p00bb50e695)" style="fill: none; stroke: #b0b0b0; stroke-width: 0.8; stroke-linecap: square"/>
     </g>
     <g id="line2d_22">
      <g>
       <use xlink:href="#mee8a9c0ab0" x="51.05" y="61.486173" style="stroke: #000000; stroke-width: 0.8"/>
      </g>
     </g>
     <g id="text_5">
      <!-- 7 -->
      <g transform="translate(37.6875 65.285392) scale(0.1 -0.1)">
       <defs>
        <path id="DejaVuSans-37" d="M 525 4666 
L 3525 4666 
L 3525 4397 
L 1831 0 
L 1172 0 
L 2766 4134 
L 525 4134 
L 525 4666 
z
" transform="scale(0.015625)"/>
       </defs>
       <use xlink:href="#DejaVuSans-37"/>
      </g>
     </g>
    </g>
    <g id="ytick_6">
     <g id="line2d_23">
      <path d="M 51.05 40.25539 
L 493.2 40.25539 
" clip-path="url(#p00bb50e695)" style="fill: none; stroke: #b0b0b0; stroke-width: 0.8; stroke-linecap: square"/>
     </g>
     <g id="line2d_24">
      <g>
       <use xlink:href="#mee8a9c0ab0" x="51.05" y="40.25539" style="stroke: #000000; stroke-width: 0.8"/>
      </g>
     </g>
     <g id="text_6">
      <!-- 8 -->
      <g transform="translate(37.6875 44.054609) scale(0.1 -0.1)">
       <defs>
        <path id="DejaVuSans-38" d="M 2034 2216 
Q 1584 2216 1326 1975 
Q 1069 1734 1069 1313 
Q 1069 891 1326 650 
Q 1584 409 2034 409 
Q 2484 409 2743 651 
Q 3003 894 3003 1313 
Q 3003 1734 2745 1975 
Q 2488 2216 2034 2216 
z
M 1403 2484 
Q 997 2584 770 2862 
Q 544 3141 544 3541 
Q 544 4100 942 4425 
Q 1341 4750 2034 4750 
Q 2731 4750 3128 4425 
Q 3525 4100 3525 3541 
Q 3525 3141 3298 2862 
Q 3072 2584 2669 2484 
Q 3125 2378 3379 2068 
Q 3634 1759 3634 1313 
Q 3634 634 3220 271 
Q 2806 -91 2034 -91 
Q 1263 -91 848 271 
Q 434 634 434 1313 
Q 434 1759 690 2068 
Q 947 2378 1403 2484 
z
M 1172 3481 
Q 1172 3119 1398 2916 
Q 1625 2713 2034 2713 
Q 2441 2713 2670 2916 
Q 2900 3119 2900 3481 
Q 2900 3844 2670 4047 
Q 2441 4250 2034 4250 
Q 1625 4250 1398 4047 
Q 1172 3844 1172 3481 
z
" transform="scale(0.015625)"/>
       </defs>
       <use xlink:href="#DejaVuSans-38"/>
      </g>
     </g>
    </g>
    <g id="text_7">
     <!-- Temperature [°C] -->
     <g transform="translate(31.607813 138.606989) rotate(-90) scale(0.1 -0.1)">
      <defs>
       <path id="DejaVuSans-54" d="M -19 4666 
L 3928 4666 
L 3928 4134 
L 2272 4134 
L 2272 0 
L 1638 0 
L 1638 4134 
L -19 4134 
L -19 4666 
z
" transform="scale(0.015625)"/>
       <path id="DejaVuSans-65" d="M 3597 1894 
L 3597 1613 
L 953 1613 
Q 991 1019 1311 708 
Q 1631 397 2203 397 
Q 2534 397 2845 478 
Q 3156 559 3463 722 
L 3463 178 
Q 3153 47 2828 -22 
Q 2503 -91 2169 -91 
Q 1331 -91 842 396 
Q 353 884 353 1716 
Q 353 2575 817 3079 
Q 1281 3584 2069 3584 
Q 2775 3584 3186 3129 
Q 3597 2675 3597 1894 
z
M 3022 2063 
Q 3016 2534 2758 2815 
Q 2500 3097 2075 3097 
Q 1594 3097 1305 2825 
Q 1016 2553 972 2059 
L 3022 2063 
z
" transform="scale(0.015625)"/>
       <path id="DejaVuSans-6d" d="M 3328 2828 
Q 3544 3216 3844 3400 
Q 4144 3584 4550 3584 
Q 5097 3584 5394 3201 
Q 5691 2819 5691 2113 
L 5691 0 
L 5113 0 
L 5113 2094 
Q 5113 2597 4934 2840 
Q 4756 3084 4391 3084 
Q 3944 3084 3684 2787 
Q 3425 2491 3425 1978 
L 3425 0 
L 2847 0 
L 2847 2094 
Q 2847 2600 2669 2842 
Q 2491 3084 2119 3084 
Q 1678 3084 1418 2786 
Q 1159 2488 1159 1978 
L 1159 0 
L 581 0 
L 581 3500 
L 1159 3500 
L 1159 2956 
Q 1356 3278 1631 3431 
Q 1906 3584 2284 3584 
Q 2666 3584 2933 3390 
Q 3200 3197 3328 2828 
z
" transform="scale(0.015625)"/>
       <path id="DejaVuSans-70" d="M 1159 525 
L 1159 -1331 
L 581 -1331 
L 581 3500 
L 1159 3500 
L 1159 2969 
Q 1341 3281 1617 3432 
Q 1894 3584 2278 3584 
Q 2916 3584 3314 3078 
Q 3713 2572 3713 1747 
Q 3713 922 3314 415 
Q 2916 -91 2278 -91 
Q 1894 -91 1617 61 
Q 1341 213 1159 525 
z
M 3116 1747 
Q 3116 2381 2855 2742 
Q 2594 3103 2138 3103 
Q 1681 3103 1420 2742 
Q 1159 2381 1159 1747 
Q 1159 1113 1420 752 
Q 1681 391 2138 391 
Q 2594 391 2855 752 
Q 3116 1113 3116 1747 
z
" transform="scale(0.015625)"/>
       <path id="DejaVuSans-72" d="M 2631 2963 
Q 2534 3019 2420 3045 
Q 2306 3072 2169 3072 
Q 1681 3072 1420 2755 
Q 1159 2438 1159 1844 
L 1159 0 
L 581 0 
L 581 3500 
L 1159 3500 
L 1159 2956 
Q 1341 3275 1631 3429 
Q 1922 3584 2338 3584 
Q 2397 3584 2469 3576 
Q 2541 3569 2628 3553 
L 2631 2963 
z
" transform="scale(0.015625)"/>
       <path id="DejaVuSans-61" d="M 2194 1759 
Q 1497 1759 1228 1600 
Q 959 1441 959 1056 
Q 959 750 1161 570 
Q 1363 391 1709 391 
Q 2188 391 2477 730 
Q 2766 1069 2766 1631 
L 2766 1759 
L 2194 1759 
z
M 3341 1997 
L 3341 0 
L 2766 0 
L 2766 531 
Q 2569 213 2275 61 
Q 1981 -91 1556 -91 
Q 1019 -91 701 211 
Q 384 513 384 1019 
Q 384 1609 779 1909 
Q 1175 2209 1959 2209 
L 2766 2209 
L 2766 2266 
Q 2766 2663 2505 2880 
Q 2244 3097 1772 3097 
Q 1472 3097 1187 3025 
Q 903 2953 641 2809 
L 641 3341 
Q 956 3463 1253 3523 
Q 1550 3584 1831 3584 
Q 2591 3584 2966 3190 
Q 3341 2797 3341 1997 
z
" transform="scale(0.015625)"/>
       <path id="DejaVuSans-74" d="M 1172 4494 
L 1172 3500 
L 2356 3500 
L 2356 3053 
L 1172 3053 
L 1172 1153 
Q 1172 725 1289 603 
Q 1406 481 1766 481 
L 2356 481 
L 2356 0 
L 1766 0 
Q 1100 0 847 248 
Q 594 497 594 1153 
L 594 3053 
L 172 3053 
L 172 3500 
L 594 3500 
L 594 4494 
L 1172 4494 
z
" transform="scale(0.015625)"/>
       <path id="DejaVuSans-75" d="M 544 1381 
L 544 3500 
L 1119 3500 
L 1119 1403 
Q 1119 906 1312 657 
Q 1506 409 1894 409 
Q 2359 409 2629 706 
Q 2900 1003 2900 1516 
L 2900 3500 
L 3475 3500 
L 3475 0 
L 2900 0 
L 2900 538 
Q 2691 219 2414 64 
Q 2138 -91 1772 -91 
Q 1169 -91 856 284 
Q 544 659 544 1381 
z
M 1991 3584 
L 1991 3584 
z
" transform="scale(0.015625)"/>
       <path id="DejaVuSans-20" transform="scale(0.015625)"/>
       <path id="DejaVuSans-5b" d="M 550 4863 
L 1875 4863 
L 1875 4416 
L 1125 4416 
L 1125 -397 
L 1875 -397 
L 1875 -844 
L 550 -844 
L 550 4863 
z
" transform="scale(0.015625)"/>
       <path id="DejaVuSans-b0" d="M 1600 4347 
Q 1350 4347 1178 4173 
Q 1006 4000 1006 3750 
Q 1006 3503 1178 3333 
Q 1350 3163 1600 3163 
Q 1850 3163 2022 3333 
Q 2194 3503 2194 3750 
Q 2194 3997 2020 4172 
Q 1847 4347 1600 4347 
z
M 1600 4750 
Q 1800 4750 1984 4673 
Q 2169 4597 2303 4453 
Q 2447 4313 2519 4134 
Q 2591 3956 2591 3750 
Q 2591 3338 2302 3052 
Q 2013 2766 1594 2766 
Q 1172 2766 890 3047 
Q 609 3328 609 3750 
Q 609 4169 896 4459 
Q 1184 4750 1600 4750 
z
" transform="scale(0.015625)"/>
       <path id="DejaVuSans-43" d="M 4122 4306 
L 4122 3641 
Q 3803 3938 3442 4084 
Q 3081 4231 2675 4231 
Q 1875 4231 1450 3742 
Q 1025 3253 1025 2328 
Q 1025 1406 1450 917 
Q 1875 428 2675 428 
Q 3081 428 3442 575 
Q 3803 722 4122 1019 
L 4122 359 
Q 3791 134 3420 21 
Q 3050 -91 2638 -91 
Q 1578 -91 968 557 
Q 359 1206 359 2328 
Q 359 3453 968 4101 
Q 1578 4750 2638 4750 
Q 3056 4750 3426 4639 
Q 3797 4528 4122 4306 
z
" transform="scale(0.015625)"/>
       <path id="DejaVuSans-5d" d="M 1947 4863 
L 1947 -844 
L 622 -844 
L 622 -397 
L 1369 -397 
L 1369 4416 
L 622 4416 
L 622 4863 
L 1947 4863 
z
" transform="scale(0.015625)"/>
      </defs>
      <use xlink:href="#DejaVuSans-54"/>
      <use xlink:href="#DejaVuSans-65" x="44.083984"/>
      <use xlink:href="#DejaVuSans-6d" x="105.607422"/>
      <use xlink:href="#DejaVuSans-70" x="203.019531"/>
      <use xlink:href="#DejaVuSans-65" x="266.496094"/>
      <use xlink:href="#DejaVuSans-72" x="328.019531"/>
      <use xlink:href="#DejaVuSans-61" x="369.132812"/>
      <use xlink:href="#DejaVuSans-74" x="430.412109"/>
      <use xlink:href="#DejaVuSans-75" x="469.621094"/>
      <use xlink:href="#DejaVuSans-72" x="533"/>
      <use xlink:href="#DejaVuSans-65" x="571.863281"/>
      <use xlink:href="#DejaVuSans-20" x="633.386719"/>
      <use xlink:href="#DejaVuSans-5b" x="665.173828"/>
      <use xlink:href="#DejaVuSans-b0" x="704.1875"/>
      <use xlink:href="#DejaVuSans-43" x="754.1875"/>
      <use xlink:href="#DejaVuSans-5d" x="824.011719"/>
     </g>
    </g>
   </g>
   <g id="line2d_25">
    <path d="M 51.05 97.578505 
L 51.959143 97.578505 
L 52.110666 95.455426 
L 53.322855 95.455426 
L 53.474382 97.578505 
L 54.308078 97.578505 
L 54.45968 99.701583 
L 55.065813 99.701583 
L 55.217286 97.578505 
L 55.368868 97.578505 
L 55.444757 95.455426 
L 55.671802 97.578505 
L 55.898803 97.578505 
L 56.050321 99.701583 
L 56.353382 99.701583 
L 56.504905 97.578505 
L 57.111009 97.578505 
L 57.262534 99.701583 
L 57.49032 99.701583 
L 57.641792 101.824661 
L 58.323817 101.824661 
L 58.474738 103.94774 
L 58.70241 103.94774 
L 58.853912 106.070818 
L 59.005526 106.070818 
L 59.15708 108.193896 
L 60.672287 108.193896 
L 60.823674 106.070818 
L 60.975263 106.070818 
L 61.050659 103.94774 
L 61.581342 103.94774 
L 61.732919 101.824661 
L 61.884423 101.824661 
L 62.035926 103.94774 
L 62.187445 101.824661 
L 62.339038 101.824661 
L 62.490543 103.94774 
L 63.020483 103.94774 
L 63.172002 106.070818 
L 63.399676 106.070818 
L 63.551174 103.94774 
L 63.626586 103.94774 
L 63.778102 101.824661 
L 63.854287 101.824661 
L 63.92963 99.701583 
L 64.460408 99.701583 
L 64.611863 101.824661 
L 65.293349 101.824661 
L 65.445361 99.701583 
L 65.824113 99.701583 
L 65.975607 97.578505 
L 66.278606 97.578505 
L 66.505554 93.332348 
L 66.80935 93.332348 
L 67.036088 95.455426 
L 67.111654 95.455426 
L 67.263178 97.578505 
L 67.414705 97.578505 
L 67.56623 99.701583 
L 67.79394 99.701583 
L 67.945475 101.824661 
L 68.626902 101.824661 
L 68.778426 103.94774 
L 69.006082 103.94774 
L 69.233004 108.193896 
L 69.460763 108.193896 
L 69.61222 106.070818 
L 70.293675 106.070818 
L 70.445204 103.94774 
L 70.748257 103.94774 
L 70.899779 106.070818 
L 71.581987 106.070818 
L 71.733565 103.94774 
L 72.642306 103.94774 
L 72.794166 101.824661 
L 73.097308 101.824661 
L 73.248753 99.701583 
L 73.778747 99.701583 
L 73.930979 101.824661 
L 74.461058 101.824661 
L 74.612535 103.94774 
L 75.446182 103.94774 
L 75.597048 101.824661 
L 75.673148 101.824661 
L 75.824529 99.701583 
L 75.900097 99.701583 
L 76.051625 97.578505 
L 77.415346 97.578505 
L 77.566872 95.455426 
L 77.94608 95.455426 
L 78.097617 93.332348 
L 78.703724 93.332348 
L 78.855231 91.20927 
L 79.006716 93.332348 
L 79.158315 91.20927 
L 79.309753 91.20927 
L 79.461304 89.086191 
L 79.612859 89.086191 
L 79.839743 84.840035 
L 81.203475 84.840035 
L 81.431118 89.086191 
L 81.809574 89.086191 
L 81.9611 91.20927 
L 82.112618 89.086191 
L 82.567895 89.086191 
L 82.718731 91.20927 
L 83.021776 91.20927 
L 83.249415 95.455426 
L 83.40095 95.455426 
L 83.552469 97.578505 
L 83.703987 97.578505 
L 83.855555 99.701583 
L 83.931409 99.701583 
L 84.158453 101.824661 
L 84.385499 101.824661 
L 84.537023 103.94774 
L 84.840078 103.94774 
L 84.991601 106.070818 
L 85.597701 106.070818 
L 85.749222 108.193896 
L 88.7043 108.193896 
L 88.855773 110.316975 
L 89.310363 110.316975 
L 89.46193 112.440053 
L 89.916473 112.440053 
L 90.068116 114.563131 
L 92.340843 114.563131 
L 92.416316 112.440053 
L 93.250067 112.440053 
L 93.401523 110.316975 
L 94.083094 110.316975 
L 94.234627 108.193896 
L 94.310797 108.193896 
L 94.46228 106.070818 
L 94.537672 106.070818 
L 94.689194 103.94774 
L 94.992252 103.94774 
L 95.143773 101.824661 
L 95.295285 101.824661 
L 95.522734 99.701583 
L 95.598349 99.701583 
L 95.74987 97.578505 
L 95.977435 97.578505 
L 96.129076 95.455426 
L 96.659029 95.455426 
L 97.189737 101.824661 
L 97.265121 101.824661 
L 97.416647 103.94774 
L 97.644316 103.94774 
L 97.795851 106.070818 
L 98.022748 106.070818 
L 98.174967 108.193896 
L 100.447155 108.193896 
L 100.59868 106.070818 
L 100.75021 108.193896 
L 100.826332 108.193896 
L 100.977846 106.070818 
L 102.41697 106.070818 
L 102.644397 103.94774 
L 102.871548 103.94774 
L 103.023077 101.824661 
L 103.1746 101.824661 
L 103.32613 99.701583 
L 103.477654 99.701583 
L 103.629178 97.578505 
L 104.538326 97.578505 
L 104.689856 95.455426 
L 104.992909 95.455426 
L 105.144424 93.332348 
L 105.220556 93.332348 
L 105.296589 91.20927 
L 105.750537 91.20927 
L 105.902057 89.086191 
L 108.326443 89.086191 
L 108.477962 86.963113 
L 108.629491 86.963113 
L 108.781013 84.840035 
L 109.084066 84.840035 
L 109.235586 82.716956 
L 109.387117 82.716956 
L 109.538641 80.593878 
L 110.069291 80.593878 
L 110.220874 78.4708 
L 110.296267 78.4708 
L 110.523911 74.224643 
L 110.75084 74.224643 
L 110.902366 72.101565 
L 111.281497 72.101565 
L 111.433028 69.978486 
L 111.659981 69.978486 
L 111.811512 67.855408 
L 112.418217 67.855408 
L 112.645084 65.73233 
L 112.94822 65.73233 
L 113.099756 63.609251 
L 113.402903 63.609251 
L 113.554249 61.486173 
L 114.538952 61.486173 
L 114.690473 59.363095 
L 114.993527 59.363095 
L 115.145047 57.240016 
L 115.297169 57.240016 
L 115.524118 55.116938 
L 115.599622 55.116938 
L 115.751145 52.99386 
L 116.054203 52.99386 
L 116.205718 50.870781 
L 116.8877 50.870781 
L 117.039463 52.99386 
L 118.024019 52.99386 
L 118.25129 48.747703 
L 118.478593 48.747703 
L 118.630111 46.624625 
L 119.009293 46.624625 
L 119.160747 44.501546 
L 119.312391 44.501546 
L 119.463894 42.378468 
L 119.539909 42.378468 
L 119.766738 40.25539 
L 119.842326 40.25539 
L 119.993833 38.132311 
L 120.372966 38.132311 
L 120.524484 40.25539 
L 121.282128 40.25539 
L 121.433602 42.378468 
L 121.509084 42.378468 
L 121.660605 44.501546 
L 121.888283 44.501546 
L 122.039747 46.624625 
L 122.418855 46.624625 
L 122.645774 48.747703 
L 123.024333 48.747703 
L 123.175855 50.870781 
L 123.327378 50.870781 
L 123.478903 52.99386 
L 123.630425 52.99386 
L 123.78195 55.116938 
L 124.00936 55.116938 
L 124.161011 57.240016 
L 124.539568 57.240016 
L 124.691097 59.363095 
L 125.145666 59.363095 
L 125.297862 61.486173 
L 125.600254 61.486173 
L 125.751774 63.609251 
L 126.054822 63.609251 
L 126.20635 65.73233 
L 126.434004 65.73233 
L 126.509391 67.855408 
L 126.585508 65.73233 
L 126.661599 67.855408 
L 126.888398 67.855408 
L 127.040019 69.978486 
L 127.646158 69.978486 
L 127.797646 72.101565 
L 128.706889 72.101565 
L 128.858296 74.224643 
L 128.933796 74.224643 
L 129.085318 72.101565 
L 129.842942 72.101565 
L 129.994471 74.224643 
L 130.145992 72.101565 
L 130.373648 72.101565 
L 130.525089 69.978486 
L 130.828191 69.978486 
L 130.903608 67.855408 
L 132.494602 67.855408 
L 132.646462 65.73233 
L 132.873432 65.73233 
L 132.949608 63.609251 
L 133.024952 65.73233 
L 133.10107 63.609251 
L 133.252561 65.73233 
L 134.161739 65.73233 
L 134.31324 63.609251 
L 136.586117 63.609251 
L 136.662217 65.73233 
L 136.889085 65.73233 
L 137.040655 63.609251 
L 137.949819 63.609251 
L 138.025269 65.73233 
L 138.404399 65.73233 
L 138.555926 67.855408 
L 139.464973 67.855408 
L 139.616254 69.978486 
L 139.843564 69.978486 
L 139.995093 72.101565 
L 140.828855 72.101565 
L 140.904242 74.224643 
L 141.66186 74.224643 
L 141.737908 76.347721 
L 141.889475 74.224643 
L 141.964911 76.347721 
L 142.040915 74.224643 
L 142.19247 76.347721 
L 142.420013 76.347721 
L 142.571008 78.4708 
L 142.798646 78.4708 
L 142.950006 80.593878 
L 143.783844 80.593878 
L 144.010737 82.716956 
L 146.056076 82.716956 
L 146.207601 84.840035 
L 148.025908 84.840035 
L 148.253355 82.716956 
L 150.07177 82.716956 
L 150.223368 84.840035 
L 151.814025 84.840035 
L 151.965551 86.963113 
L 152.193151 86.963113 
L 152.268595 89.086191 
L 152.495983 89.086191 
L 152.647709 91.20927 
L 152.874702 91.20927 
L 153.026219 93.332348 
L 153.32927 93.332348 
L 153.480794 95.455426 
L 156.284312 95.455426 
L 156.435868 97.578505 
L 156.511297 97.578505 
L 156.738614 99.701583 
L 157.041879 99.701583 
L 157.193477 101.824661 
L 159.238751 101.824661 
L 159.390271 103.94774 
L 159.996372 103.94774 
L 160.147895 106.070818 
L 160.22406 103.94774 
L 160.375589 106.070818 
L 160.906128 106.070818 
L 161.133098 108.193896 
L 162.875345 108.193896 
L 163.026864 110.316975 
L 163.178396 108.193896 
L 164.542128 108.193896 
L 164.693635 110.316975 
L 165.299738 110.316975 
L 165.451276 108.193896 
L 167.648613 108.193896 
L 167.800083 110.316975 
L 168.784825 110.316975 
L 168.936345 112.440053 
L 175.982675 112.440053 
L 176.1341 114.563131 
L 178.709888 114.563131 
L 178.861437 116.68621 
L 179.543103 116.68621 
L 179.694632 114.563131 
L 180.225201 114.563131 
L 180.376799 116.68621 
L 180.603778 116.68621 
L 180.755299 114.563131 
L 182.952891 114.563131 
L 183.104383 116.68621 
L 183.861672 116.68621 
L 184.013226 118.809288 
L 188.937651 118.809288 
L 189.089186 116.68621 
L 189.846804 116.68621 
L 189.998325 118.809288 
L 190.377515 118.809288 
L 190.528861 116.68621 
L 192.119682 116.68621 
L 192.271801 118.809288 
L 193.104909 118.809288 
L 193.256399 116.68621 
L 197.650646 116.68621 
L 197.802164 114.563131 
L 198.786798 114.563131 
L 198.938318 116.68621 
L 199.998982 116.68621 
L 200.150511 118.809288 
L 200.529605 118.809288 
L 200.681052 116.68621 
L 201.211191 116.68621 
L 201.362709 118.809288 
L 201.590351 118.809288 
L 201.741811 116.68621 
L 202.650985 116.68621 
L 202.802519 118.809288 
L 202.877959 118.809288 
L 203.02949 116.68621 
L 205.151418 116.68621 
L 205.302373 118.809288 
L 209.090494 118.809288 
L 209.242019 116.68621 
L 209.394177 116.68621 
L 209.621115 118.809288 
L 209.696589 118.809288 
L 209.772677 116.68621 
L 209.924212 118.809288 
L 211.590939 118.809288 
L 211.742441 120.932366 
L 214.090831 120.932366 
L 214.242353 118.809288 
L 215.833732 118.809288 
L 215.985221 120.932366 
L 219.394846 120.932366 
L 219.545728 118.809288 
L 221.36403 118.809288 
L 221.515559 120.932366 
L 223.864449 120.932366 
L 224.01598 123.055445 
L 224.319019 123.055445 
L 224.470541 120.932366 
L 225.455208 120.932366 
L 225.606732 123.055445 
L 229.470658 123.055445 
L 229.622444 120.932366 
L 230.98611 120.932366 
L 231.137672 118.809288 
L 232.12231 118.809288 
L 232.349697 116.68621 
L 232.653005 116.68621 
L 232.804476 114.563131 
L 233.940614 114.563131 
L 234.092138 112.440053 
L 234.319767 112.440053 
L 234.471212 110.316975 
L 234.546709 110.316975 
L 234.698248 108.193896 
L 234.774402 108.193896 
L 234.925841 106.070818 
L 235.001296 106.070818 
L 235.228736 103.94774 
L 235.30435 103.94774 
L 235.455867 101.824661 
L 235.532045 101.824661 
L 235.683549 99.701583 
L 236.138155 99.701583 
L 236.289516 101.824661 
L 237.274171 101.824661 
L 237.425699 103.94774 
L 237.880941 103.94774 
L 238.107774 101.824661 
L 238.259435 101.824661 
L 238.410881 99.701583 
L 239.850092 99.701583 
L 240.00162 97.578505 
L 240.304669 97.578505 
L 240.456196 99.701583 
L 240.91076 99.701583 
L 241.062291 101.824661 
L 241.365341 101.824661 
L 241.516865 99.701583 
L 241.896012 99.701583 
L 241.971441 97.578505 
L 242.122963 99.701583 
L 242.653572 99.701583 
L 242.805228 97.578505 
L 243.183646 97.578505 
L 243.335166 95.455426 
L 243.562748 95.455426 
L 243.713982 93.332348 
L 243.941264 93.332348 
L 244.092791 91.20927 
L 244.320325 91.20927 
L 244.471876 89.086191 
L 244.774916 89.086191 
L 244.926464 86.963113 
L 245.002524 86.963113 
L 245.381058 82.716956 
L 245.68404 82.716956 
L 245.835649 80.593878 
L 246.365658 80.593878 
L 246.593022 78.4708 
L 246.668707 78.4708 
L 246.820231 80.593878 
L 246.896261 80.593878 
L 247.047765 82.716956 
L 247.274809 82.716956 
L 247.426333 84.840035 
L 249.472052 84.840035 
L 249.62375 86.963113 
L 249.851284 86.963113 
L 250.002253 84.840035 
L 250.381368 84.840035 
L 250.532912 82.716956 
L 250.608362 82.716956 
L 250.760523 84.840035 
L 250.835643 84.840035 
L 250.987455 86.963113 
L 251.138965 86.963113 
L 251.290372 89.086191 
L 252.048073 89.086191 
L 252.124259 91.20927 
L 252.351096 91.20927 
L 252.502605 89.086191 
L 253.10869 89.086191 
L 253.260294 86.963113 
L 253.487333 86.963113 
L 253.714685 84.840035 
L 253.866385 84.840035 
L 254.017966 82.716956 
L 254.169353 82.716956 
L 254.396484 78.4708 
L 254.548002 78.4708 
L 254.699518 76.347721 
L 254.775603 76.347721 
L 254.927083 74.224643 
L 255.003237 74.224643 
L 255.154099 76.347721 
L 255.305629 74.224643 
L 255.609235 74.224643 
L 255.760206 72.101565 
L 255.836342 72.101565 
L 255.987703 74.224643 
L 256.366865 74.224643 
L 256.745348 78.4708 
L 256.972397 78.4708 
L 257.123926 76.347721 
L 257.199968 76.347721 
L 257.351599 74.224643 
L 257.426974 74.224643 
L 257.578498 72.101565 
L 257.882141 72.101565 
L 258.109168 67.855408 
L 258.184601 67.855408 
L 258.487648 61.486173 
L 258.563767 61.486173 
L 258.715225 63.609251 
L 258.79069 63.609251 
L 258.94222 65.73233 
L 259.093745 63.609251 
L 259.2459 63.609251 
L 259.472758 61.486173 
L 260.002896 61.486173 
L 260.15442 59.363095 
L 260.230489 59.363095 
L 260.381968 57.240016 
L 260.533481 57.240016 
L 260.608991 55.116938 
L 260.761183 55.116938 
L 261.139661 46.624625 
L 261.291102 46.624625 
L 261.442714 48.747703 
L 261.594202 48.747703 
L 261.745704 46.624625 
L 262.27576 46.624625 
L 262.503396 42.378468 
L 262.578811 42.378468 
L 262.73034 40.25539 
L 262.957962 40.25539 
L 263.184903 44.501546 
L 263.487957 44.501546 
L 264.018542 38.132311 
L 264.170013 40.25539 
L 264.624603 40.25539 
L 264.776108 38.132311 
L 265.07898 38.132311 
L 265.306243 42.378468 
L 265.609296 42.378468 
L 265.760823 44.501546 
L 266.063873 44.501546 
L 266.291568 48.747703 
L 266.746173 48.747703 
L 266.897629 46.624625 
L 267.503815 46.624625 
L 267.655304 48.747703 
L 267.730644 46.624625 
L 268.185217 46.624625 
L 268.336743 48.747703 
L 268.488267 48.747703 
L 268.639789 50.870781 
L 268.716015 50.870781 
L 268.867538 52.99386 
L 269.700459 52.99386 
L 269.851985 55.116938 
L 270.155037 55.116938 
L 270.306559 57.240016 
L 270.912667 57.240016 
L 271.064195 55.116938 
L 271.215714 55.116938 
L 271.36724 52.99386 
L 271.670283 52.99386 
L 271.821812 55.116938 
L 271.897744 55.116938 
L 271.973338 52.99386 
L 272.730962 52.99386 
L 272.882488 50.870781 
L 273.185535 50.870781 
L 273.261678 52.99386 
L 273.337061 50.870781 
L 273.489148 52.99386 
L 273.716099 57.240016 
L 273.867631 59.363095 
L 273.943159 59.363095 
L 274.094683 61.486173 
L 274.322192 61.486173 
L 274.473691 63.609251 
L 274.625287 63.609251 
L 274.77676 65.73233 
L 275.91297 65.73233 
L 276.064496 67.855408 
L 276.443269 67.855408 
L 276.595052 69.978486 
L 276.973649 69.978486 
L 277.2011 74.224643 
L 277.504436 74.224643 
L 277.65596 76.347721 
L 278.943469 76.347721 
L 279.094999 78.4708 
L 279.473996 78.4708 
L 279.625554 76.347721 
L 280.458717 76.347721 
L 280.610726 78.4708 
L 280.913288 78.4708 
L 281.064821 80.593878 
L 281.216345 80.593878 
L 281.367867 78.4708 
L 283.943786 78.4708 
L 284.095317 80.593878 
L 284.398366 80.593878 
L 284.549893 82.716956 
L 284.85294 82.716956 
L 285.231939 86.963113 
L 285.383428 86.963113 
L 285.53498 89.086191 
L 286.065144 89.086191 
L 286.216667 91.20927 
L 286.97429 91.20927 
L 287.125812 93.332348 
L 287.959417 93.332348 
L 288.110984 95.455426 
L 288.717067 95.455426 
L 288.868619 97.578505 
L 289.247772 97.578505 
L 289.398685 99.701583 
L 290.762415 99.701583 
L 290.913938 101.824661 
L 292.202049 101.824661 
L 292.353818 103.94774 
L 296.59637 103.94774 
L 296.747921 101.824661 
L 296.823418 101.824661 
L 296.974942 103.94774 
L 297.581047 103.94774 
L 297.733097 101.824661 
L 299.020755 101.824661 
L 299.096294 103.94774 
L 299.47529 103.94774 
L 299.6269 101.824661 
L 299.702393 101.824661 
L 299.853916 103.94774 
L 305.611862 103.94774 
L 305.763393 106.070818 
L 307.657624 106.070818 
L 307.808971 108.193896 
L 311.142796 108.193896 
L 311.294285 110.316975 
L 314.324894 110.316975 
L 314.476372 112.440053 
L 314.627852 110.316975 
L 315.082493 110.316975 
L 315.233999 112.440053 
L 315.5371 112.440053 
L 315.688621 110.316975 
L 316.976235 110.316975 
L 317.127762 112.440053 
L 321.067407 112.440053 
L 321.218926 114.563131 
L 327.73512 114.563131 
L 327.88604 116.68621 
L 330.689393 116.68621 
L 330.841107 118.809288 
L 332.583302 118.809288 
L 332.734841 120.932366 
L 334.629184 120.932366 
L 334.704658 123.055445 
L 336.144477 123.055445 
L 336.447469 125.178523 
L 337.205106 125.178523 
L 337.356615 127.301601 
L 338.038217 127.301601 
L 338.189742 129.42468 
L 340.765666 129.42468 
L 340.91719 131.547758 
L 342.129398 131.547758 
L 342.280921 133.670836 
L 342.735498 133.670836 
L 342.887019 131.547758 
L 344.553797 131.547758 
L 344.705323 129.42468 
L 345.235964 129.42468 
L 345.387489 127.301601 
L 345.842005 127.301601 
L 345.993575 125.178523 
L 346.448134 125.178523 
L 346.599701 123.055445 
L 347.432778 123.055445 
L 347.584306 120.932366 
L 347.811771 120.932366 
L 347.963411 123.055445 
L 348.644975 123.055445 
L 348.796506 120.932366 
L 348.948035 123.055445 
L 349.630199 123.055445 
L 349.781717 120.932366 
L 349.857181 120.932366 
L 350.008709 123.055445 
L 350.084782 123.055445 
L 350.236297 120.932366 
L 350.387832 123.055445 
L 351.675487 123.055445 
L 351.827008 120.932366 
L 352.887677 120.932366 
L 353.039203 123.055445 
L 354.554452 123.055445 
L 354.705987 125.178523 
L 354.933445 127.301601 
L 357.206444 127.301601 
L 357.35797 125.178523 
L 359.479325 125.178523 
L 359.630833 123.055445 
L 360.312417 123.055445 
L 360.464647 120.932366 
L 360.766991 120.932366 
L 360.91852 123.055445 
L 364.252073 123.055445 
L 364.403602 120.932366 
L 364.555124 120.932366 
L 364.707233 118.809288 
L 365.0097 118.809288 
L 365.16123 116.68621 
L 365.312756 116.68621 
L 365.464276 118.809288 
L 365.691806 118.809288 
L 365.843359 120.932366 
L 367.96471 120.932366 
L 368.116236 123.055445 
L 368.267761 120.932366 
L 370.086066 120.932366 
L 370.237594 118.809288 
L 370.540382 118.809288 
L 370.692159 116.68621 
L 370.767653 116.68621 
L 370.919181 114.563131 
L 371.525277 114.563131 
L 371.676801 112.440053 
L 372.055833 112.440053 
L 372.207398 110.316975 
L 372.661993 110.316975 
L 372.813507 108.193896 
L 372.88901 108.193896 
L 373.040521 110.316975 
L 373.495099 110.316975 
L 373.646639 108.193896 
L 373.798168 108.193896 
L 373.949686 106.070818 
L 374.025758 106.070818 
L 374.177305 108.193896 
L 374.555789 108.193896 
L 374.708016 110.316975 
L 374.934866 110.316975 
L 375.086369 108.193896 
L 376.222523 108.193896 
L 376.450082 106.070818 
L 376.601629 106.070818 
L 376.904668 112.440053 
L 377.056158 112.440053 
L 377.207769 114.563131 
L 377.510809 114.563131 
L 377.66204 116.68621 
L 378.343903 116.68621 
L 378.495432 118.809288 
L 380.23836 118.809288 
L 380.313728 116.68621 
L 380.995931 116.68621 
L 381.071358 114.563131 
L 381.222877 116.68621 
L 381.45053 116.68621 
L 381.602073 118.809288 
L 381.677458 118.809288 
L 381.829511 120.932366 
L 383.041192 120.932366 
L 383.192707 118.809288 
L 383.420121 118.809288 
L 383.571686 120.932366 
L 385.541726 120.932366 
L 385.693212 123.055445 
L 389.102187 123.055445 
L 389.253711 125.178523 
L 389.481312 125.178523 
L 389.632922 123.055445 
L 389.935962 123.055445 
L 390.087452 125.178523 
L 390.314382 125.178523 
L 390.541781 123.055445 
L 391.223536 123.055445 
L 391.375059 120.932366 
L 391.526586 123.055445 
L 392.966254 123.055445 
L 393.117974 125.178523 
L 393.572567 125.178523 
L 393.724052 123.055445 
L 394.10252 123.055445 
L 394.254043 120.932366 
L 395.693847 120.932366 
L 395.845392 118.809288 
L 396.375397 118.809288 
L 396.526926 116.68621 
L 397.436075 116.68621 
L 397.66344 118.809288 
L 397.815248 116.68621 
L 397.966799 116.68621 
L 398.118292 114.563131 
L 398.496746 114.563131 
L 398.64827 112.440053 
L 398.724436 112.440053 
L 398.951862 108.193896 
L 399.178885 108.193896 
L 399.330516 106.070818 
L 399.405904 106.070818 
L 399.557426 103.94774 
L 400.466543 103.94774 
L 400.618108 106.070818 
L 400.921154 106.070818 
L 401.148818 101.824661 
L 402.284876 101.824661 
L 402.436398 103.94774 
L 402.663898 103.94774 
L 402.815388 106.070818 
L 402.890982 106.070818 
L 403.042503 103.94774 
L 403.118612 103.94774 
L 403.194543 101.824661 
L 403.724756 101.824661 
L 403.87625 99.701583 
L 404.179106 99.701583 
L 404.330655 97.578505 
L 404.785106 97.578505 
L 404.936738 99.701583 
L 405.012327 99.701583 
L 405.163846 101.824661 
L 405.391337 101.824661 
L 405.542883 99.701583 
L 405.921476 99.701583 
L 406.073522 95.455426 
L 406.603551 95.455426 
L 406.755042 97.578505 
L 407.209636 97.578505 
L 407.361123 99.701583 
L 407.891298 99.701583 
L 408.042818 101.824661 
L 408.421856 101.824661 
L 408.573347 103.94774 
L 409.558083 103.94774 
L 409.709602 106.070818 
L 410.164183 106.070818 
L 410.31622 108.193896 
L 410.997737 108.193896 
L 411.14935 106.070818 
L 412.89163 106.070818 
L 413.043152 103.94774 
L 413.80078 103.94774 
L 413.952306 106.070818 
L 414.331311 106.070818 
L 414.482799 108.193896 
L 414.558399 108.193896 
L 414.785823 110.316975 
L 415.24062 110.316975 
L 415.391985 112.440053 
L 416.301109 112.440053 
L 416.452657 110.316975 
L 416.528218 110.316975 
L 416.679753 108.193896 
L 418.271078 108.193896 
L 418.422627 106.070818 
L 418.801105 106.070818 
L 419.028452 108.193896 
L 419.483119 108.193896 
L 419.710239 112.440053 
L 419.937836 112.440053 
L 420.089448 114.563131 
L 420.240935 114.563131 
L 420.5439 116.68621 
L 420.770928 116.68621 
L 420.922447 118.809288 
L 421.52855 118.809288 
L 421.680071 120.932366 
L 422.134645 120.932366 
L 422.28617 123.055445 
L 422.968361 123.055445 
L 423.119846 120.932366 
L 423.801432 120.932366 
L 423.95295 123.055445 
L 425.392802 123.055445 
L 425.544354 125.178523 
L 427.286506 125.178523 
L 427.438471 127.301601 
L 427.665564 127.301601 
L 427.817191 129.42468 
L 427.968559 129.42468 
L 428.120233 127.301601 
L 428.34717 127.301601 
L 428.498713 125.178523 
L 428.801763 125.178523 
L 429.029152 127.301601 
L 429.710901 127.301601 
L 429.862432 125.178523 
L 430.620057 125.178523 
L 430.77158 127.301601 
L 430.923107 127.301601 
L 431.074631 129.42468 
L 431.302304 129.42468 
L 431.453794 131.547758 
L 432.514469 131.547758 
L 432.665956 129.42468 
L 432.969055 129.42468 
L 433.044454 127.301601 
L 434.181276 127.301601 
L 434.332769 129.42468 
L 434.408181 129.42468 
L 434.560188 131.547758 
L 434.787218 129.42468 
L 434.862755 129.42468 
L 435.014279 127.301601 
L 435.771911 127.301601 
L 435.923437 129.42468 
L 436.150812 131.547758 
L 436.378012 131.547758 
L 436.529537 133.670836 
L 436.832593 133.670836 
L 436.984106 135.793915 
L 437.287162 135.793915 
L 437.439236 133.670836 
L 437.969313 133.670836 
L 438.120868 135.793915 
L 438.272359 135.793915 
L 438.423966 137.916993 
L 438.650888 137.916993 
L 438.802419 140.040071 
L 438.953921 140.040071 
L 439.105472 137.916993 
L 439.256995 140.040071 
L 439.484639 140.040071 
L 439.711568 135.793915 
L 439.863091 135.793915 
L 440.014623 133.670836 
L 442.893598 133.670836 
L 443.04512 135.793915 
L 443.348173 135.793915 
L 443.499699 137.916993 
L 444.484894 137.916993 
L 444.561014 140.040071 
L 444.863435 140.040071 
L 445.014958 142.16315 
L 445.242526 142.16315 
L 445.394077 144.286228 
L 447.439804 144.286228 
L 447.590886 146.409306 
L 447.818462 146.409306 
L 447.970075 148.532385 
L 448.500036 148.532385 
L 448.651567 150.655463 
L 449.182173 150.655463 
L 449.333726 152.778541 
L 449.560713 152.778541 
L 449.712242 150.655463 
L 450.091361 150.655463 
L 450.166815 148.532385 
L 450.394136 148.532385 
L 450.545826 150.655463 
L 451.000601 150.655463 
L 451.15209 148.532385 
L 451.227498 148.532385 
L 451.379011 146.409306 
L 452.591225 146.409306 
L 452.742748 148.532385 
L 453.348847 148.532385 
L 453.500381 150.655463 
L 453.651906 148.532385 
L 453.954955 148.532385 
L 454.106482 150.655463 
L 454.561775 150.655463 
L 454.940251 146.409306 
L 455.546327 146.409306 
L 455.697878 148.532385 
L 456.682411 148.532385 
L 456.833938 150.655463 
L 458.122078 150.655463 
L 458.273814 148.532385 
L 459.182923 148.532385 
L 459.334415 146.409306 
L 459.637517 146.409306 
L 459.789063 144.286228 
L 460.546635 144.286228 
L 460.698183 146.409306 
L 460.849736 144.286228 
L 461.228171 144.286228 
L 461.379697 146.409306 
L 462.668037 146.409306 
L 462.819589 144.286228 
L 463.349523 144.286228 
L 463.501046 142.16315 
L 463.955628 142.16315 
L 464.107149 140.040071 
L 464.183303 140.040071 
L 464.33479 137.916993 
L 464.562269 137.916993 
L 464.789305 140.040071 
L 464.940934 140.040071 
L 465.09242 142.16315 
L 466.759173 142.16315 
L 466.910659 140.040071 
L 467.213755 140.040071 
L 467.365308 137.916993 
L 467.441241 137.916993 
L 467.59224 140.040071 
L 468.122938 140.040071 
L 468.274424 142.16315 
L 468.425975 140.040071 
L 469.638199 140.040071 
L 469.789745 142.16315 
L 472.062576 142.16315 
L 472.214126 144.286228 
L 472.517166 144.286228 
L 472.668717 142.16315 
L 473.653248 142.16315 
L 473.804769 144.286228 
L 474.335409 144.286228 
L 474.486961 142.16315 
L 474.638125 142.16315 
L 474.865452 144.286228 
L 475.396079 144.286228 
L 475.547692 142.16315 
L 475.926131 142.16315 
L 476.153577 140.040071 
L 476.456815 140.040071 
L 476.608303 142.16315 
L 476.911405 142.16315 
L 477.062956 140.040071 
L 477.744428 140.040071 
L 477.89596 137.916993 
L 478.275115 137.916993 
L 478.426668 140.040071 
L 478.578157 140.040071 
L 478.72965 142.16315 
L 479.411206 142.16315 
L 479.562734 140.040071 
L 479.790382 140.040071 
L 479.941871 137.916993 
L 480.320845 137.916993 
L 480.471885 140.040071 
L 480.548012 140.040071 
L 480.699566 142.16315 
L 481.154034 142.16315 
L 481.305644 144.286228 
L 481.381032 144.286228 
L 481.532561 146.409306 
L 483.200061 146.409306 
L 483.350867 148.532385 
L 484.033125 148.532385 
L 484.184615 150.655463 
L 485.017643 150.655463 
L 485.169171 148.532385 
L 485.775264 148.532385 
L 485.927483 146.409306 
L 486.154271 144.286228 
L 486.532894 144.286228 
L 486.609055 142.16315 
L 486.760549 144.286228 
L 487.29052 144.286228 
L 487.517854 142.16315 
L 488.351207 142.16315 
L 488.502734 140.040071 
L 488.806212 140.040071 
L 489.18493 135.793915 
L 489.411879 135.793915 
L 489.563413 133.670836 
L 489.942563 133.670836 
L 490.094113 131.547758 
L 490.62408 131.547758 
L 490.775606 129.42468 
L 492.139333 129.42468 
L 492.290856 127.301601 
L 492.518441 127.301601 
L 492.670052 125.178523 
L 493.2 125.178523 
L 493.2 125.178523 
" clip-path="url(#p00bb50e695)" style="fill: none; stroke: #1f77b4; stroke-width: 1.5; stroke-linecap: square"/>
   </g>
   <g id="patch_3">
    <path d="M 51.05 158.510853 
L 51.05 32.4 
" style="fill: none; stroke: #000000; stroke-width: 0.8; stroke-linejoin: miter; stroke-linecap: square"/>
   </g>
   <g id="patch_4">
    <path d="M 493.2 158.510853 
L 493.2 32.4 
" style="fill: none; stroke: #000000; stroke-width: 0.8; stroke-linejoin: miter; stroke-linecap: square"/>
   </g>
   <g id="patch_5">
    <path d="M 51.05 158.510853 
L 493.2 158.510853 
" style="fill: none; stroke: #000000; stroke-width: 0.8; stroke-linejoin: miter; stroke-linecap: square"/>
   </g>
   <g id="patch_6">
    <path d="M 51.05 32.4 
L 493.2 32.4 
" style="fill: none; stroke: #000000; stroke-width: 0.8; stroke-linejoin: miter; stroke-linecap: square"/>
   </g>
  </g>
  <g id="axes_2">
   <g id="patch_7">
    <path d="M 51.05 302.881706 
L 493.2 302.881706 
L 493.2 176.770853 
L 51.05 176.770853 
z
" style="fill: #ffffff"/>
   </g>
   <g id="matplotlib.axis_3">
    <g id="xtick_7">
     <g id="line2d_26">
      <path d="M 119.203214 302.881706 
L 119.203214 176.770853 
" clip-path="url(#p7b47476ffa)" style="fill: none; stroke: #b0b0b0; stroke-width: 0.8; stroke-linecap: square"/>
     </g>
     <g id="line2d_27">
      <g>
       <use xlink:href="#m7e0d0bc8ee" x="119.203214" y="302.881706" style="stroke: #000000; stroke-width: 0.8"/>
      </g>
     </g>
    </g>
    <g id="xtick_8">
     <g id="line2d_28">
      <path d="M 187.390042 302.881706 
L 187.390042 176.770853 
" clip-path="url(#p7b47476ffa)" style="fill: none; stroke: #b0b0b0; stroke-width: 0.8; stroke-linecap: square"/>
     </g>
     <g id="line2d_29">
      <g>
       <use xlink:href="#m7e0d0bc8ee" x="187.390042" y="302.881706" style="stroke: #000000; stroke-width: 0.8"/>
      </g>
     </g>
    </g>
    <g id="xtick_9">
     <g id="line2d_30">
      <path d="M 255.57687 302.881706 
L 255.57687 176.770853 
" clip-path="url(#p7b47476ffa)" style="fill: none; stroke: #b0b0b0; stroke-width: 0.8; stroke-linecap: square"/>
     </g>
     <g id="line2d_31">
      <g>
       <use xlink:href="#m7e0d0bc8ee" x="255.57687" y="302.881706" style="stroke: #000000; stroke-width: 0.8"/>
      </g>
     </g>
    </g>
    <g id="xtick_10">
     <g id="line2d_32">
      <path d="M 323.763698 302.881706 
L 323.763698 176.770853 
" clip-path="url(#p7b47476ffa)" style="fill: none; stroke: #b0b0b0; stroke-width: 0.8; stroke-linecap: square"/>
     </g>
     <g id="line2d_33">
      <g>
       <use xlink:href="#m7e0d0bc8ee" x="323.763698" y="302.881706" style="stroke: #000000; stroke-width: 0.8"/>
      </g>
     </g>
    </g>
    <g id="xtick_11">
     <g id="line2d_34">
      <path d="M 391.950525 302.881706 
L 391.950525 176.770853 
" clip-path="url(#p7b47476ffa)" style="fill: none; stroke: #b0b0b0; stroke-width: 0.8; stroke-linecap: square"/>
     </g>
     <g id="line2d_35">
      <g>
       <use xlink:href="#m7e0d0bc8ee" x="391.950525" y="302.881706" style="stroke: #000000; stroke-width: 0.8"/>
      </g>
     </g>
    </g>
    <g id="xtick_12">
     <g id="line2d_36">
      <path d="M 460.137353 302.881706 
L 460.137353 176.770853 
" clip-path="url(#p7b47476ffa)" style="fill: none; stroke: #b0b0b0; stroke-width: 0.8; stroke-linecap: square"/>
     </g>
     <g id="line2d_37">
      <g>
       <use xlink:href="#m7e0d0bc8ee" x="460.137353" y="302.881706" style="stroke: #000000; stroke-width: 0.8"/>
      </g>
     </g>
    </g>
   </g>
   <g id="matplotlib.axis_4">
    <g id="ytick_7">
     <g id="line2d_38">
      <path d="M 51.05 302.881706 
L 493.2 302.881706 
" clip-path="url(#p7b47476ffa)" style="fill: none; stroke: #b0b0b0; stroke-width: 0.8; stroke-linecap: square"/>
     </g>
     <g id="line2d_39">
      <g>
       <use xlink:href="#mee8a9c0ab0" x="51.05" y="302.881706" style="stroke: #000000; stroke-width: 0.8"/>
      </g>
     </g>
     <g id="text_8">
      <!-- 0 -->
      <g transform="translate(37.6875 306.680924) scale(0.1 -0.1)">
       <defs>
        <path id="DejaVuSans-30" d="M 2034 4250 
Q 1547 4250 1301 3770 
Q 1056 3291 1056 2328 
Q 1056 1369 1301 889 
Q 1547 409 2034 409 
Q 2525 409 2770 889 
Q 3016 1369 3016 2328 
Q 3016 3291 2770 3770 
Q 2525 4250 2034 4250 
z
M 2034 4750 
Q 2819 4750 3233 4129 
Q 3647 3509 3647 2328 
Q 3647 1150 3233 529 
Q 2819 -91 2034 -91 
Q 1250 -91 836 529 
Q 422 1150 422 2328 
Q 422 3509 836 4129 
Q 1250 4750 2034 4750 
z
" transform="scale(0.015625)"/>
       </defs>
       <use xlink:href="#DejaVuSans-30"/>
      </g>
     </g>
    </g>
    <g id="ytick_8">
     <g id="line2d_40">
      <path d="M 51.05 277.659535 
L 493.2 277.659535 
" clip-path="url(#p7b47476ffa)" style="fill: none; stroke: #b0b0b0; stroke-width: 0.8; stroke-linecap: square"/>
     </g>
     <g id="line2d_41">
      <g>
       <use xlink:href="#mee8a9c0ab0" x="51.05" y="277.659535" style="stroke: #000000; stroke-width: 0.8"/>
      </g>
     </g>
     <g id="text_9">
      <!-- 20 -->
      <g transform="translate(31.325 281.458754) scale(0.1 -0.1)">
       <defs>
        <path id="DejaVuSans-32" d="M 1228 531 
L 3431 531 
L 3431 0 
L 469 0 
L 469 531 
Q 828 903 1448 1529 
Q 2069 2156 2228 2338 
Q 2531 2678 2651 2914 
Q 2772 3150 2772 3378 
Q 2772 3750 2511 3984 
Q 2250 4219 1831 4219 
Q 1534 4219 1204 4116 
Q 875 4013 500 3803 
L 500 4441 
Q 881 4594 1212 4672 
Q 1544 4750 1819 4750 
Q 2544 4750 2975 4387 
Q 3406 4025 3406 3419 
Q 3406 3131 3298 2873 
Q 3191 2616 2906 2266 
Q 2828 2175 2409 1742 
Q 1991 1309 1228 531 
z
" transform="scale(0.015625)"/>
       </defs>
       <use xlink:href="#DejaVuSans-32"/>
       <use xlink:href="#DejaVuSans-30" x="63.623047"/>
      </g>
     </g>
    </g>
    <g id="ytick_9">
     <g id="line2d_42">
      <path d="M 51.05 252.437365 
L 493.2 252.437365 
" clip-path="url(#p7b47476ffa)" style="fill: none; stroke: #b0b0b0; stroke-width: 0.8; stroke-linecap: square"/>
     </g>
     <g id="line2d_43">
      <g>
       <use xlink:href="#mee8a9c0ab0" x="51.05" y="252.437365" style="stroke: #000000; stroke-width: 0.8"/>
      </g>
     </g>
     <g id="text_10">
      <!-- 40 -->
      <g transform="translate(31.325 256.236583) scale(0.1 -0.1)">
       <use xlink:href="#DejaVuSans-34"/>
       <use xlink:href="#DejaVuSans-30" x="63.623047"/>
      </g>
     </g>
    </g>
    <g id="ytick_10">
     <g id="line2d_44">
      <path d="M 51.05 227.215194 
L 493.2 227.215194 
" clip-path="url(#p7b47476ffa)" style="fill: none; stroke: #b0b0b0; stroke-width: 0.8; stroke-linecap: square"/>
     </g>
     <g id="line2d_45">
      <g>
       <use xlink:href="#mee8a9c0ab0" x="51.05" y="227.215194" style="stroke: #000000; stroke-width: 0.8"/>
      </g>
     </g>
     <g id="text_11">
      <!-- 60 -->
      <g transform="translate(31.325 231.014413) scale(0.1 -0.1)">
       <use xlink:href="#DejaVuSans-36"/>
       <use xlink:href="#DejaVuSans-30" x="63.623047"/>
      </g>
     </g>
    </g>
    <g id="ytick_11">
     <g id="line2d_46">
      <path d="M 51.05 201.993023 
L 493.2 201.993023 
" clip-path="url(#p7b47476ffa)" style="fill: none; stroke: #b0b0b0; stroke-width: 0.8; stroke-linecap: square"/>
     </g>
     <g id="line2d_47">
      <g>
       <use xlink:href="#mee8a9c0ab0" x="51.05" y="201.993023" style="stroke: #000000; stroke-width: 0.8"/>
      </g>
     </g>
     <g id="text_12">
      <!-- 80 -->
      <g transform="translate(31.325 205.792242) scale(0.1 -0.1)">
       <use xlink:href="#DejaVuSans-38"/>
       <use xlink:href="#DejaVuSans-30" x="63.623047"/>
      </g>
     </g>
    </g>
    <g id="ytick_12">
     <g id="line2d_48">
      <path d="M 51.05 176.770853 
L 493.2 176.770853 
" clip-path="url(#p7b47476ffa)" style="fill: none; stroke: #b0b0b0; stroke-width: 0.8; stroke-linecap: square"/>
     </g>
     <g id="line2d_49">
      <g>
       <use xlink:href="#mee8a9c0ab0" x="51.05" y="176.770853" style="stroke: #000000; stroke-width: 0.8"/>
      </g>
     </g>
     <g id="text_13">
      <!-- 100 -->
      <g transform="translate(24.9625 180.570072) scale(0.1 -0.1)">
       <defs>
        <path id="DejaVuSans-31" d="M 794 531 
L 1825 531 
L 1825 4091 
L 703 3866 
L 703 4441 
L 1819 4666 
L 2450 4666 
L 2450 531 
L 3481 531 
L 3481 0 
L 794 0 
L 794 531 
z
" transform="scale(0.015625)"/>
       </defs>
       <use xlink:href="#DejaVuSans-31"/>
       <use xlink:href="#DejaVuSans-30" x="63.623047"/>
       <use xlink:href="#DejaVuSans-30" x="127.246094"/>
      </g>
     </g>
    </g>
    <g id="text_14">
     <!-- Humidity [%RH] -->
     <g transform="translate(18.882813 279.973154) rotate(-90) scale(0.1 -0.1)">
      <defs>
       <path id="DejaVuSans-48" d="M 628 4666 
L 1259 4666 
L 1259 2753 
L 3553 2753 
L 3553 4666 
L 4184 4666 
L 4184 0 
L 3553 0 
L 3553 2222 
L 1259 2222 
L 1259 0 
L 628 0 
L 628 4666 
z
" transform="scale(0.015625)"/>
       <path id="DejaVuSans-69" d="M 603 3500 
L 1178 3500 
L 1178 0 
L 603 0 
L 603 3500 
z
M 603 4863 
L 1178 4863 
L 1178 4134 
L 603 4134 
L 603 4863 
z
" transform="scale(0.015625)"/>
       <path id="DejaVuSans-64" d="M 2906 2969 
L 2906 4863 
L 3481 4863 
L 3481 0 
L 2906 0 
L 2906 525 
Q 2725 213 2448 61 
Q 2172 -91 1784 -91 
Q 1150 -91 751 415 
Q 353 922 353 1747 
Q 353 2572 751 3078 
Q 1150 3584 1784 3584 
Q 2172 3584 2448 3432 
Q 2725 3281 2906 2969 
z
M 947 1747 
Q 947 1113 1208 752 
Q 1469 391 1925 391 
Q 2381 391 2643 752 
Q 2906 1113 2906 1747 
Q 2906 2381 2643 2742 
Q 2381 3103 1925 3103 
Q 1469 3103 1208 2742 
Q 947 2381 947 1747 
z
" transform="scale(0.015625)"/>
       <path id="DejaVuSans-79" d="M 2059 -325 
Q 1816 -950 1584 -1140 
Q 1353 -1331 966 -1331 
L 506 -1331 
L 506 -850 
L 844 -850 
Q 1081 -850 1212 -737 
Q 1344 -625 1503 -206 
L 1606 56 
L 191 3500 
L 800 3500 
L 1894 763 
L 2988 3500 
L 3597 3500 
L 2059 -325 
z
" transform="scale(0.015625)"/>
       <path id="DejaVuSans-25" d="M 4653 2053 
Q 4381 2053 4226 1822 
Q 4072 1591 4072 1178 
Q 4072 772 4226 539 
Q 4381 306 4653 306 
Q 4919 306 5073 539 
Q 5228 772 5228 1178 
Q 5228 1588 5073 1820 
Q 4919 2053 4653 2053 
z
M 4653 2450 
Q 5147 2450 5437 2106 
Q 5728 1763 5728 1178 
Q 5728 594 5436 251 
Q 5144 -91 4653 -91 
Q 4153 -91 3862 251 
Q 3572 594 3572 1178 
Q 3572 1766 3864 2108 
Q 4156 2450 4653 2450 
z
M 1428 4353 
Q 1159 4353 1004 4120 
Q 850 3888 850 3481 
Q 850 3069 1003 2837 
Q 1156 2606 1428 2606 
Q 1700 2606 1854 2837 
Q 2009 3069 2009 3481 
Q 2009 3884 1853 4118 
Q 1697 4353 1428 4353 
z
M 4250 4750 
L 4750 4750 
L 1831 -91 
L 1331 -91 
L 4250 4750 
z
M 1428 4750 
Q 1922 4750 2215 4408 
Q 2509 4066 2509 3481 
Q 2509 2891 2217 2550 
Q 1925 2209 1428 2209 
Q 931 2209 642 2551 
Q 353 2894 353 3481 
Q 353 4063 643 4406 
Q 934 4750 1428 4750 
z
" transform="scale(0.015625)"/>
       <path id="DejaVuSans-52" d="M 2841 2188 
Q 3044 2119 3236 1894 
Q 3428 1669 3622 1275 
L 4263 0 
L 3584 0 
L 2988 1197 
Q 2756 1666 2539 1819 
Q 2322 1972 1947 1972 
L 1259 1972 
L 1259 0 
L 628 0 
L 628 4666 
L 2053 4666 
Q 2853 4666 3247 4331 
Q 3641 3997 3641 3322 
Q 3641 2881 3436 2590 
Q 3231 2300 2841 2188 
z
M 1259 4147 
L 1259 2491 
L 2053 2491 
Q 2509 2491 2742 2702 
Q 2975 2913 2975 3322 
Q 2975 3731 2742 3939 
Q 2509 4147 2053 4147 
L 1259 4147 
z
" transform="scale(0.015625)"/>
      </defs>
      <use xlink:href="#DejaVuSans-48"/>
      <use xlink:href="#DejaVuSans-75" x="75.195312"/>
      <use xlink:href="#DejaVuSans-6d" x="138.574219"/>
      <use xlink:href="#DejaVuSans-69" x="235.986328"/>
      <use xlink:href="#DejaVuSans-64" x="263.769531"/>
      <use xlink:href="#DejaVuSans-69" x="327.246094"/>
      <use xlink:href="#DejaVuSans-74" x="355.029297"/>
      <use xlink:href="#DejaVuSans-79" x="394.238281"/>
      <use xlink:href="#DejaVuSans-20" x="453.417969"/>
      <use xlink:href="#DejaVuSans-5b" x="485.205078"/>
      <use xlink:href="#DejaVuSans-25" x="524.21875"/>
      <use xlink:href="#DejaVuSans-52" x="619.238281"/>
      <use xlink:href="#DejaVuSans-48" x="688.720703"/>
      <use xlink:href="#DejaVuSans-5d" x="763.916016"/>
     </g>
    </g>
   </g>
   <g id="line2d_50">
    <path d="M 51.05 199.470806 
L 56.807954 199.470806 
L 57.035393 198.209698 
L 58.171685 198.209698 
L 58.39898 196.948589 
L 59.611574 196.948589 
L 59.687711 195.687481 
L 60.823674 195.687481 
L 60.975263 196.948589 
L 65.520641 196.948589 
L 65.6725 198.209698 
L 66.430173 198.209698 
L 66.581806 199.470806 
L 67.642396 199.470806 
L 67.79394 198.209698 
L 68.551521 198.209698 
L 68.703122 196.948589 
L 72.036638 196.948589 
L 72.188142 198.209698 
L 76.810036 198.209698 
L 77.03679 199.470806 
L 79.158315 199.470806 
L 79.309753 200.731915 
L 80.142795 200.731915 
L 80.294316 201.993023 
L 81.885678 201.993023 
L 82.037196 200.731915 
L 83.40095 200.731915 
L 83.552469 199.470806 
L 84.158453 199.470806 
L 84.310129 198.209698 
L 84.840078 198.209698 
L 84.991601 196.948589 
L 85.673835 196.948589 
L 85.825338 195.687481 
L 86.582967 195.687481 
L 86.734564 194.426372 
L 87.87058 194.426372 
L 88.022101 193.165264 
L 89.385812 193.165264 
L 89.537346 191.904155 
L 93.325465 191.904155 
L 93.476993 193.165264 
L 95.295285 193.165264 
L 95.522734 194.426372 
L 96.052921 194.426372 
L 96.204441 195.687481 
L 98.022748 195.687481 
L 98.174967 194.426372 
L 99.083427 194.426372 
L 99.23495 193.165264 
L 100.371759 193.165264 
L 100.523245 191.904155 
L 102.113923 191.904155 
L 102.265444 190.643047 
L 103.250674 190.643047 
L 103.40218 189.381938 
L 111.887663 189.381938 
L 112.039088 190.643047 
L 113.933537 190.643047 
L 114.084375 191.904155 
L 115.297169 191.904155 
L 115.524118 193.165264 
L 115.978763 193.165264 
L 116.054203 191.904155 
L 116.205718 199.470806 
L 116.8877 199.470806 
L 117.039463 191.904155 
L 117.114869 191.904155 
L 117.266396 193.165264 
L 118.024019 193.165264 
L 118.176157 199.470806 
L 119.690792 199.470806 
L 119.842326 198.209698 
L 120.069911 198.209698 
L 120.221445 199.470806 
L 123.327378 199.470806 
L 123.478903 193.165264 
L 127.267018 193.165264 
L 127.418541 191.904155 
L 128.858296 191.904155 
L 129.009865 190.643047 
L 130.67667 190.643047 
L 130.828191 189.381938 
L 135.828483 189.381938 
L 135.979939 190.643047 
L 141.586451 190.643047 
L 141.737908 189.381938 
L 163.557542 189.381938 
L 163.632975 190.643047 
L 164.996689 190.643047 
L 165.148782 191.904155 
L 167.042608 191.904155 
L 167.194116 193.165264 
L 167.269576 193.165264 
L 167.421102 191.904155 
L 169.087874 191.904155 
L 169.239392 190.643047 
L 171.815323 190.643047 
L 171.966844 189.381938 
L 239.396196 189.381938 
L 239.547043 190.643047 
L 240.607722 190.643047 
L 240.759966 191.904155 
L 240.986807 191.904155 
L 241.138373 193.165264 
L 242.805228 193.165264 
L 242.95676 191.904155 
L 244.774916 191.904155 
L 244.926464 193.165264 
L 246.744652 193.165264 
L 246.896261 194.426372 
L 248.032431 194.426372 
L 248.183952 193.165264 
L 250.45683 193.165264 
L 250.608362 191.904155 
L 250.760523 191.904155 
L 250.911403 193.165264 
L 253.260294 193.165264 
L 253.411875 194.426372 
L 254.548002 194.426372 
L 254.699518 193.165264 
L 254.927083 193.165264 
L 255.003237 194.426372 
L 255.305629 194.426372 
L 255.457161 195.687481 
L 255.987703 195.687481 
L 256.139318 196.948589 
L 256.366865 196.948589 
L 256.593718 198.209698 
L 256.745348 198.209698 
L 256.820876 199.470806 
L 256.972397 198.209698 
L 258.260664 198.209698 
L 258.412139 196.948589 
L 258.487648 196.948589 
L 258.715225 199.470806 
L 258.866731 199.470806 
L 259.018331 200.731915 
L 260.002896 200.731915 
L 260.15442 201.993023 
L 260.836351 201.993023 
L 260.988124 209.559675 
L 261.139661 208.298566 
L 261.215089 208.298566 
L 261.442714 210.820783 
L 261.745704 210.820783 
L 261.897241 212.081892 
L 261.972715 212.081892 
L 262.124866 213.343 
L 262.427287 213.343 
L 262.578811 212.081892 
L 262.882464 212.081892 
L 263.03338 213.343 
L 263.336426 213.343 
L 263.487957 214.604109 
L 263.867084 212.081892 
L 264.018542 212.081892 
L 264.170013 213.343 
L 264.548632 213.343 
L 264.700159 212.081892 
L 265.07898 212.081892 
L 265.230776 213.343 
L 265.760823 213.343 
L 265.912351 212.081892 
L 267.503815 212.081892 
L 267.655304 213.343 
L 268.716015 213.343 
L 268.867538 207.037458 
L 269.24651 207.037458 
L 269.473362 205.776349 
L 269.548939 205.776349 
L 269.700459 204.51524 
L 269.927953 204.51524 
L 270.155037 201.993023 
L 270.230991 201.993023 
L 270.382665 203.254132 
L 270.609608 203.254132 
L 270.837059 201.993023 
L 271.291665 201.993023 
L 271.443154 200.731915 
L 271.670283 200.731915 
L 271.821812 201.993023 
L 272.730962 201.993023 
L 272.882488 209.559675 
L 273.185535 209.559675 
L 273.261678 201.993023 
L 273.337061 209.559675 
L 273.489148 201.993023 
L 273.943159 201.993023 
L 274.094683 200.731915 
L 274.77676 200.731915 
L 274.852307 199.470806 
L 276.064496 199.470806 
L 276.216023 200.731915 
L 277.65596 200.731915 
L 277.731273 201.993023 
L 280.610726 201.993023 
L 281.140934 205.776349 
L 281.367867 205.776349 
L 281.519393 204.51524 
L 281.822436 204.51524 
L 281.97396 203.254132 
L 282.580063 203.254132 
L 282.731589 201.993023 
L 283.186166 201.993023 
L 283.33769 200.731915 
L 283.868232 200.731915 
L 284.01972 199.470806 
L 284.85294 199.470806 
L 285.080377 198.209698 
L 285.989568 198.209698 
L 286.141059 196.948589 
L 287.580392 196.948589 
L 287.732565 195.687481 
L 289.020107 195.687481 
L 289.095636 194.426372 
L 290.080878 194.426372 
L 290.232342 193.165264 
L 294.778005 193.165264 
L 294.854186 191.904155 
L 302.429846 191.904155 
L 302.581357 193.165264 
L 308.112277 193.165264 
L 308.263829 191.904155 
L 313.945733 191.904155 
L 314.097256 190.643047 
L 317.279291 190.643047 
L 317.430809 191.904155 
L 322.961815 191.904155 
L 323.113312 190.643047 
L 323.946381 190.643047 
L 324.097907 191.904155 
L 326.598411 191.904155 
L 326.749935 190.643047 
L 328.71972 190.643047 
L 328.871229 191.904155 
L 330.689393 191.904155 
L 330.841107 193.165264 
L 332.583302 193.165264 
L 332.734841 191.904155 
L 340.690097 191.904155 
L 340.841735 193.165264 
L 341.523298 193.165264 
L 341.674821 191.904155 
L 342.129398 191.904155 
L 342.280921 193.165264 
L 344.023636 193.165264 
L 344.175185 191.904155 
L 346.372101 191.904155 
L 346.523624 190.643047 
L 351.751558 190.643047 
L 351.827008 191.904155 
L 352.812227 191.904155 
L 352.963702 193.165264 
L 355.312083 193.165264 
L 355.463602 194.426372 
L 355.615134 193.165264 
L 355.766657 193.165264 
L 355.918181 194.426372 
L 356.978863 194.426372 
L 357.130386 193.165264 
L 358.494121 193.165264 
L 358.64632 194.426372 
L 359.327803 194.426372 
L 359.479325 193.165264 
L 362.433774 193.165264 
L 362.585307 191.904155 
L 362.736819 193.165264 
L 364.403602 193.165264 
L 364.555124 194.426372 
L 364.707233 194.426372 
L 364.934151 195.687481 
L 365.16123 195.687481 
L 365.312756 196.948589 
L 365.388791 196.948589 
L 365.540321 195.687481 
L 366.979526 195.687481 
L 367.131055 194.426372 
L 369.934535 194.426372 
L 370.086066 193.165264 
L 371.752842 193.165264 
L 371.829045 194.426372 
L 379.253055 194.426372 
L 379.40458 193.165264 
L 380.465782 193.165264 
L 380.616784 191.904155 
L 384.632547 191.904155 
L 384.78371 193.165264 
L 385.617105 193.165264 
L 385.768639 191.904155 
L 386.829314 191.904155 
L 386.980835 193.165264 
L 390.314382 193.165264 
L 390.541781 194.426372 
L 391.223536 194.426372 
L 391.375059 193.165264 
L 392.132686 193.165264 
L 392.284212 194.426372 
L 392.814872 194.426372 
L 392.966254 195.687481 
L 393.724052 195.687481 
L 393.875601 194.426372 
L 394.405567 194.426372 
L 394.557095 193.165264 
L 396.072942 193.165264 
L 396.299852 194.426372 
L 397.133019 194.426372 
L 397.284542 195.687481 
L 397.588144 195.687481 
L 397.739124 196.948589 
L 398.421326 196.948589 
L 398.572697 198.209698 
L 399.178885 198.209698 
L 399.330516 199.470806 
L 399.860477 199.470806 
L 400.012003 200.731915 
L 400.239633 200.731915 
L 400.31505 199.470806 
L 400.845777 199.470806 
L 400.997203 200.731915 
L 401.451858 200.731915 
L 401.603408 201.993023 
L 404.027618 201.993023 
L 404.254701 204.51524 
L 404.557746 204.51524 
L 404.785106 203.254132 
L 405.391337 203.254132 
L 405.542883 201.993023 
L 405.845919 201.993023 
L 406.224525 207.037458 
L 406.451996 207.037458 
L 406.603551 205.776349 
L 406.755042 205.776349 
L 406.906779 204.51524 
L 408.042818 204.51524 
L 408.194345 203.254132 
L 408.497396 203.254132 
L 408.648928 201.993023 
L 410.088614 201.993023 
L 410.240105 200.731915 
L 411.073331 200.731915 
L 411.224853 199.470806 
L 411.527908 199.470806 
L 411.679429 198.209698 
L 412.437055 198.209698 
L 412.588579 199.470806 
L 414.179763 199.470806 
L 414.331311 198.209698 
L 415.24062 198.209698 
L 415.391985 196.948589 
L 416.528218 196.948589 
L 416.679753 198.209698 
L 417.13433 198.209698 
L 417.28585 196.948589 
L 417.361777 196.948589 
L 417.43789 198.209698 
L 417.891951 198.209698 
L 418.043479 199.470806 
L 418.346531 199.470806 
L 418.498054 200.731915 
L 418.649584 200.731915 
L 418.801105 199.470806 
L 419.558717 199.470806 
L 419.710239 198.209698 
L 420.240935 198.209698 
L 420.5439 196.948589 
L 424.180581 196.948589 
L 424.255998 195.687481 
L 424.407524 196.948589 
L 425.165151 196.948589 
L 425.316678 195.687481 
L 426.528878 195.687481 
L 426.680407 196.948589 
L 427.741074 196.948589 
L 427.892599 195.687481 
L 427.968559 195.687481 
L 428.120233 196.948589 
L 429.710901 196.948589 
L 429.862432 198.209698 
L 430.847651 198.209698 
L 430.999267 196.948589 
L 433.347506 196.948589 
L 433.499027 198.209698 
L 435.468858 198.209698 
L 435.620382 199.470806 
L 435.696543 199.470806 
L 435.848034 198.209698 
L 437.060268 198.209698 
L 437.21175 196.948589 
L 437.439236 196.948589 
L 437.666265 198.209698 
L 438.347839 198.209698 
L 438.500023 196.948589 
L 439.787622 196.948589 
L 439.939232 198.209698 
L 440.39344 198.209698 
L 440.545301 199.470806 
L 441.605923 199.470806 
L 441.681859 200.731915 
L 444.484894 200.731915 
L 444.561014 199.470806 
L 449.03055 199.470806 
L 449.182173 198.209698 
L 450.091361 198.209698 
L 450.166815 199.470806 
L 451.606675 199.470806 
L 451.682798 200.731915 
L 459.334415 200.731915 
L 459.485965 201.993023 
L 461.228171 201.993023 
L 461.304325 203.254132 
L 461.455816 201.993023 
L 462.819589 201.993023 
L 462.971078 203.254132 
L 463.425669 203.254132 
L 463.577154 204.51524 
L 463.804107 204.51524 
L 463.955628 205.776349 
L 464.107149 205.776349 
L 464.258673 207.037458 
L 465.167827 207.037458 
L 465.319359 205.776349 
L 466.15289 205.776349 
L 466.304642 204.51524 
L 466.380029 204.51524 
L 466.531562 205.776349 
L 466.834616 205.776349 
L 466.986138 207.037458 
L 468.501391 207.037458 
L 468.652908 208.298566 
L 469.638199 208.298566 
L 469.789745 207.037458 
L 472.137993 207.037458 
L 472.289516 205.776349 
L 472.668717 205.776349 
L 472.820208 207.037458 
L 473.047146 207.037458 
L 473.19937 205.776349 
L 473.350201 207.037458 
L 473.501731 205.776349 
L 474.183923 205.776349 
L 474.259346 204.51524 
L 474.410877 205.776349 
L 474.638125 205.776349 
L 474.865452 204.51524 
L 475.699181 204.51524 
L 475.850732 205.776349 
L 476.911405 205.776349 
L 477.062956 207.037458 
L 477.744428 207.037458 
L 477.89596 208.298566 
L 479.714261 208.298566 
L 479.865785 209.559675 
L 480.699566 209.559675 
L 480.850994 208.298566 
L 481.229511 208.298566 
L 481.381032 207.037458 
L 482.593241 207.037458 
L 482.744764 208.298566 
L 483.275233 208.298566 
L 483.426983 207.037458 
L 483.805437 207.037458 
L 483.956969 205.776349 
L 484.184615 205.776349 
L 484.336166 204.51524 
L 485.245287 204.51524 
L 485.39684 203.254132 
L 485.775264 203.254132 
L 485.927483 204.51524 
L 486.154271 204.51524 
L 486.305959 205.776349 
L 487.669716 205.776349 
L 487.821217 207.037458 
L 488.806212 207.037458 
L 489.033304 208.298566 
L 489.260352 208.298566 
L 489.411879 209.559675 
L 489.714935 209.559675 
L 489.86646 210.820783 
L 490.169501 210.820783 
L 490.396894 212.081892 
L 491.760486 212.081892 
L 491.912346 213.343 
L 492.518441 213.343 
L 492.670052 214.604109 
L 493.2 214.604109 
L 493.2 214.604109 
" clip-path="url(#p7b47476ffa)" style="fill: none; stroke: #ff7f0e; stroke-width: 1.5; stroke-linecap: square"/>
   </g>
   <g id="patch_8">
    <path d="M 51.05 302.881706 
L 51.05 176.770853 
" style="fill: none; stroke: #000000; stroke-width: 0.8; stroke-linejoin: miter; stroke-linecap: square"/>
   </g>
   <g id="patch_9">
    <path d="M 493.2 302.881706 
L 493.2 176.770853 
" style="fill: none; stroke: #000000; stroke-width: 0.8; stroke-linejoin: miter; stroke-linecap: square"/>
   </g>
   <g id="patch_10">
    <path d="M 51.05 302.881706 
L 493.2 302.881706 
" style="fill: none; stroke: #000000; stroke-width: 0.8; stroke-linejoin: miter; stroke-linecap: square"/>
   </g>
   <g id="patch_11">
    <path d="M 51.05 176.770853 
L 493.2 176.770853 
" style="fill: none; stroke: #000000; stroke-width: 0.8; stroke-linejoin: miter; stroke-linecap: square"/>
   </g>
  </g>
  <g id="axes_3">
   <g id="patch_12">
    <path d="M 51.05 447.252558 
L 493.2 447.252558 
L 493.2 321.141706 
L 51.05 321.141706 
z
" style="fill: #ffffff"/>
   </g>
   <g id="matplotlib.axis_5">
    <g id="xtick_13">
     <g id="line2d_51">
      <path d="M 119.203214 447.252558 
L 119.203214 321.141706 
" clip-path="url(#p3f22f8454c)" style="fill: none; stroke: #b0b0b0; stroke-width: 0.8; stroke-linecap: square"/>
     </g>
     <g id="line2d_52">
      <g>
       <use xlink:href="#m7e0d0bc8ee" x="119.203214" y="447.252558" style="stroke: #000000; stroke-width: 0.8"/>
      </g>
     </g>
     <g id="text_15">
      <!-- 03-01 12 -->
      <g transform="translate(105.258295 491.417649) rotate(-45) scale(0.1 -0.1)">
       <defs>
        <path id="DejaVuSans-2d" d="M 313 2009 
L 1997 2009 
L 1997 1497 
L 313 1497 
L 313 2009 
z
" transform="scale(0.015625)"/>
       </defs>
       <use xlink:href="#DejaVuSans-30"/>
       <use xlink:href="#DejaVuSans-33" x="63.623047"/>
       <use xlink:href="#DejaVuSans-2d" x="127.246094"/>
       <use xlink:href="#DejaVuSans-30" x="163.330078"/>
       <use xlink:href="#DejaVuSans-31" x="226.953125"/>
       <use xlink:href="#DejaVuSans-20" x="290.576172"/>
       <use xlink:href="#DejaVuSans-31" x="322.363281"/>
       <use xlink:href="#DejaVuSans-32" x="385.986328"/>
      </g>
     </g>
    </g>
    <g id="xtick_14">
     <g id="line2d_53">
      <path d="M 187.390042 447.252558 
L 187.390042 321.141706 
" clip-path="url(#p3f22f8454c)" style="fill: none; stroke: #b0b0b0; stroke-width: 0.8; stroke-linecap: square"/>
     </g>
     <g id="line2d_54">
      <g>
       <use xlink:href="#m7e0d0bc8ee" x="187.390042" y="447.252558" style="stroke: #000000; stroke-width: 0.8"/>
      </g>
     </g>
     <g id="text_16">
      <!-- 03-02 00 -->
      <g transform="translate(173.445123 491.417649) rotate(-45) scale(0.1 -0.1)">
       <use xlink:href="#DejaVuSans-30"/>
       <use xlink:href="#DejaVuSans-33" x="63.623047"/>
       <use xlink:href="#DejaVuSans-2d" x="127.246094"/>
       <use xlink:href="#DejaVuSans-30" x="163.330078"/>
       <use xlink:href="#DejaVuSans-32" x="226.953125"/>
       <use xlink:href="#DejaVuSans-20" x="290.576172"/>
       <use xlink:href="#DejaVuSans-30" x="322.363281"/>
       <use xlink:href="#DejaVuSans-30" x="385.986328"/>
      </g>
     </g>
    </g>
    <g id="xtick_15">
     <g id="line2d_55">
      <path d="M 255.57687 447.252558 
L 255.57687 321.141706 
" clip-path="url(#p3f22f8454c)" style="fill: none; stroke: #b0b0b0; stroke-width: 0.8; stroke-linecap: square"/>
     </g>
     <g id="line2d_56">
      <g>
       <use xlink:href="#m7e0d0bc8ee" x="255.57687" y="447.252558" style="stroke: #000000; stroke-width: 0.8"/>
      </g>
     </g>
     <g id="text_17">
      <!-- 03-02 12 -->
      <g transform="translate(241.631951 491.417649) rotate(-45) scale(0.1 -0.1)">
       <use xlink:href="#DejaVuSans-30"/>
       <use xlink:href="#DejaVuSans-33" x="63.623047"/>
       <use xlink:href="#DejaVuSans-2d" x="127.246094"/>
       <use xlink:href="#DejaVuSans-30" x="163.330078"/>
       <use xlink:href="#DejaVuSans-32" x="226.953125"/>
       <use xlink:href="#DejaVuSans-20" x="290.576172"/>
       <use xlink:href="#DejaVuSans-31" x="322.363281"/>
       <use xlink:href="#DejaVuSans-32" x="385.986328"/>
      </g>
     </g>
    </g>
    <g id="xtick_16">
     <g id="line2d_57">
      <path d="M 323.763698 447.252558 
L 323.763698 321.141706 
" clip-path="url(#p3f22f8454c)" style="fill: none; stroke: #b0b0b0; stroke-width: 0.8; stroke-linecap: square"/>
     </g>
     <g id="line2d_58">
      <g>
       <use xlink:href="#m7e0d0bc8ee" x="323.763698" y="447.252558" style="stroke: #000000; stroke-width: 0.8"/>
      </g>
     </g>
     <g id="text_18">
      <!-- 03-03 00 -->
      <g transform="translate(309.818778 491.417649) rotate(-45) scale(0.1 -0.1)">
       <use xlink:href="#DejaVuSans-30"/>
       <use xlink:href="#DejaVuSans-33" x="63.623047"/>
       <use xlink:href="#DejaVuSans-2d" x="127.246094"/>
       <use xlink:href="#DejaVuSans-30" x="163.330078"/>
       <use xlink:href="#DejaVuSans-33" x="226.953125"/>
       <use xlink:href="#DejaVuSans-20" x="290.576172"/>
       <use xlink:href="#DejaVuSans-30" x="322.363281"/>
       <use xlink:href="#DejaVuSans-30" x="385.986328"/>
      </g>
     </g>
    </g>
    <g id="xtick_17">
     <g id="line2d_59">
      <path d="M 391.950525 447.252558 
L 391.950525 321.141706 
" clip-path="url(#p3f22f8454c)" style="fill: none; stroke: #b0b0b0; stroke-width: 0.8; stroke-linecap: square"/>
     </g>
     <g id="line2d_60">
      <g>
       <use xlink:href="#m7e0d0bc8ee" x="391.950525" y="447.252558" style="stroke: #000000; stroke-width: 0.8"/>
      </g>
     </g>
     <g id="text_19">
      <!-- 03-03 12 -->
      <g transform="translate(378.005606 491.417649) rotate(-45) scale(0.1 -0.1)">
       <use xlink:href="#DejaVuSans-30"/>
       <use xlink:href="#DejaVuSans-33" x="63.623047"/>
       <use xlink:href="#DejaVuSans-2d" x="127.246094"/>
       <use xlink:href="#DejaVuSans-30" x="163.330078"/>
       <use xlink:href="#DejaVuSans-33" x="226.953125"/>
       <use xlink:href="#DejaVuSans-20" x="290.576172"/>
       <use xlink:href="#DejaVuSans-31" x="322.363281"/>
       <use xlink:href="#DejaVuSans-32" x="385.986328"/>
      </g>
     </g>
    </g>
    <g id="xtick_18">
     <g id="line2d_61">
      <path d="M 460.137353 447.252558 
L 460.137353 321.141706 
" clip-path="url(#p3f22f8454c)" style="fill: none; stroke: #b0b0b0; stroke-width: 0.8; stroke-linecap: square"/>
     </g>
     <g id="line2d_62">
      <g>
       <use xlink:href="#m7e0d0bc8ee" x="460.137353" y="447.252558" style="stroke: #000000; stroke-width: 0.8"/>
      </g>
     </g>
     <g id="text_20">
      <!-- 03-04 00 -->
      <g transform="translate(446.192434 491.417649) rotate(-45) scale(0.1 -0.1)">
       <use xlink:href="#DejaVuSans-30"/>
       <use xlink:href="#DejaVuSans-33" x="63.623047"/>
       <use xlink:href="#DejaVuSans-2d" x="127.246094"/>
       <use xlink:href="#DejaVuSans-30" x="163.330078"/>
       <use xlink:href="#DejaVuSans-34" x="226.953125"/>
       <use xlink:href="#DejaVuSans-20" x="290.576172"/>
       <use xlink:href="#DejaVuSans-30" x="322.363281"/>
       <use xlink:href="#DejaVuSans-30" x="385.986328"/>
      </g>
     </g>
    </g>
   </g>
   <g id="matplotlib.axis_6">
    <g id="ytick_13">
     <g id="line2d_63">
      <path d="M 51.05 442.023081 
L 493.2 442.023081 
" clip-path="url(#p3f22f8454c)" style="fill: none; stroke: #b0b0b0; stroke-width: 0.8; stroke-linecap: square"/>
     </g>
     <g id="line2d_64">
      <g>
       <use xlink:href="#mee8a9c0ab0" x="51.05" y="442.023081" style="stroke: #000000; stroke-width: 0.8"/>
      </g>
     </g>
     <g id="text_21">
      <!-- 710 -->
      <g transform="translate(24.9625 445.8223) scale(0.1 -0.1)">
       <use xlink:href="#DejaVuSans-37"/>
       <use xlink:href="#DejaVuSans-31" x="63.623047"/>
       <use xlink:href="#DejaVuSans-30" x="127.246094"/>
      </g>
     </g>
    </g>
    <g id="ytick_14">
     <g id="line2d_65">
      <path d="M 51.05 416.881364 
L 493.2 416.881364 
" clip-path="url(#p3f22f8454c)" style="fill: none; stroke: #b0b0b0; stroke-width: 0.8; stroke-linecap: square"/>
     </g>
     <g id="line2d_66">
      <g>
       <use xlink:href="#mee8a9c0ab0" x="51.05" y="416.881364" style="stroke: #000000; stroke-width: 0.8"/>
      </g>
     </g>
     <g id="text_22">
      <!-- 715 -->
      <g transform="translate(24.9625 420.680583) scale(0.1 -0.1)">
       <use xlink:href="#DejaVuSans-37"/>
       <use xlink:href="#DejaVuSans-31" x="63.623047"/>
       <use xlink:href="#DejaVuSans-35" x="127.246094"/>
      </g>
     </g>
    </g>
    <g id="ytick_15">
     <g id="line2d_67">
      <path d="M 51.05 391.739647 
L 493.2 391.739647 
" clip-path="url(#p3f22f8454c)" style="fill: none; stroke: #b0b0b0; stroke-width: 0.8; stroke-linecap: square"/>
     </g>
     <g id="line2d_68">
      <g>
       <use xlink:href="#mee8a9c0ab0" x="51.05" y="391.739647" style="stroke: #000000; stroke-width: 0.8"/>
      </g>
     </g>
     <g id="text_23">
      <!-- 720 -->
      <g transform="translate(24.9625 395.538866) scale(0.1 -0.1)">
       <use xlink:href="#DejaVuSans-37"/>
       <use xlink:href="#DejaVuSans-32" x="63.623047"/>
       <use xlink:href="#DejaVuSans-30" x="127.246094"/>
      </g>
     </g>
    </g>
    <g id="ytick_16">
     <g id="line2d_69">
      <path d="M 51.05 366.59793 
L 493.2 366.59793 
" clip-path="url(#p3f22f8454c)" style="fill: none; stroke: #b0b0b0; stroke-width: 0.8; stroke-linecap: square"/>
     </g>
     <g id="line2d_70">
      <g>
       <use xlink:href="#mee8a9c0ab0" x="51.05" y="366.59793" style="stroke: #000000; stroke-width: 0.8"/>
      </g>
     </g>
     <g id="text_24">
      <!-- 725 -->
      <g transform="translate(24.9625 370.397149) scale(0.1 -0.1)">
       <use xlink:href="#DejaVuSans-37"/>
       <use xlink:href="#DejaVuSans-32" x="63.623047"/>
       <use xlink:href="#DejaVuSans-35" x="127.246094"/>
      </g>
     </g>
    </g>
    <g id="ytick_17">
     <g id="line2d_71">
      <path d="M 51.05 341.456213 
L 493.2 341.456213 
" clip-path="url(#p3f22f8454c)" style="fill: none; stroke: #b0b0b0; stroke-width: 0.8; stroke-linecap: square"/>
     </g>
     <g id="line2d_72">
      <g>
       <use xlink:href="#mee8a9c0ab0" x="51.05" y="341.456213" style="stroke: #000000; stroke-width: 0.8"/>
      </g>
     </g>
     <g id="text_25">
      <!-- 730 -->
      <g transform="translate(24.9625 345.255432) scale(0.1 -0.1)">
       <use xlink:href="#DejaVuSans-37"/>
       <use xlink:href="#DejaVuSans-33" x="63.623047"/>
       <use xlink:href="#DejaVuSans-30" x="127.246094"/>
      </g>
     </g>
    </g>
    <g id="text_26">
     <!-- Rain [mm] -->
     <g transform="translate(18.882813 410.411976) rotate(-90) scale(0.1 -0.1)">
      <defs>
       <path id="DejaVuSans-6e" d="M 3513 2113 
L 3513 0 
L 2938 0 
L 2938 2094 
Q 2938 2591 2744 2837 
Q 2550 3084 2163 3084 
Q 1697 3084 1428 2787 
Q 1159 2491 1159 1978 
L 1159 0 
L 581 0 
L 581 3500 
L 1159 3500 
L 1159 2956 
Q 1366 3272 1645 3428 
Q 1925 3584 2291 3584 
Q 2894 3584 3203 3211 
Q 3513 2838 3513 2113 
z
" transform="scale(0.015625)"/>
      </defs>
      <use xlink:href="#DejaVuSans-52"/>
      <use xlink:href="#DejaVuSans-61" x="67.232422"/>
      <use xlink:href="#DejaVuSans-69" x="128.511719"/>
      <use xlink:href="#DejaVuSans-6e" x="156.294922"/>
      <use xlink:href="#DejaVuSans-20" x="219.673828"/>
      <use xlink:href="#DejaVuSans-5b" x="251.460938"/>
      <use xlink:href="#DejaVuSans-6d" x="290.474609"/>
      <use xlink:href="#DejaVuSans-6d" x="387.886719"/>
      <use xlink:href="#DejaVuSans-5d" x="485.298828"/>
     </g>
    </g>
   </g>
   <g id="line2d_73">
    <path d="M 51.05 441.520247 
L 57.944846 441.520247 
L 58.096306 440.011744 
L 88.325147 440.011744 
L 88.476676 438.503241 
L 91.053323 438.503241 
L 91.280111 436.994738 
L 98.856548 436.994738 
L 99.008061 435.486235 
L 100.447155 435.486235 
L 100.59868 433.977732 
L 101.886893 433.977732 
L 102.038455 432.469229 
L 105.675036 432.469229 
L 105.826616 430.960726 
L 112.56914 430.960726 
L 112.720658 429.452223 
L 120.675971 429.452223 
L 120.827589 427.94372 
L 122.948936 427.94372 
L 123.100391 426.435217 
L 124.842621 426.435217 
L 124.994143 424.926714 
L 126.130918 424.926714 
L 126.282343 423.418211 
L 127.797646 423.418211 
L 127.949244 421.909708 
L 129.161352 421.909708 
L 129.312872 420.401205 
L 130.903608 420.401205 
L 131.13102 418.892702 
L 135.676932 418.892702 
L 135.828483 417.384199 
L 137.949819 417.384199 
L 138.025269 415.875696 
L 139.237468 415.875696 
L 139.388992 414.367193 
L 140.904242 414.367193 
L 141.131703 412.85869 
L 141.964911 412.85869 
L 142.116433 411.350187 
L 143.17711 411.350187 
L 143.328636 409.841683 
L 143.783844 409.841683 
L 144.010737 408.33318 
L 144.313755 408.33318 
L 144.465509 406.824677 
L 144.692358 406.824677 
L 144.843885 405.316174 
L 145.374318 405.316174 
L 145.526064 403.807671 
L 145.601504 403.807671 
L 145.75303 402.299168 
L 148.253355 402.299168 
L 148.405042 400.790665 
L 151.510977 400.790665 
L 151.662501 399.282162 
L 154.541468 399.282162 
L 154.693003 397.773659 
L 159.238751 397.773659 
L 159.390271 396.265156 
L 173.255092 396.265156 
L 173.406649 394.756653 
L 181.209881 394.756653 
L 181.361396 393.24815 
L 195.604755 393.24815 
L 195.756293 391.739647 
L 199.014422 391.739647 
L 199.165915 390.231144 
L 221.970125 390.231144 
L 222.121656 388.722641 
L 229.016417 388.722641 
L 229.167826 387.214138 
L 229.622444 387.214138 
L 229.773981 385.705635 
L 229.925467 385.705635 
L 230.076972 384.197132 
L 231.06164 384.197132 
L 231.213167 382.688629 
L 232.501423 382.688629 
L 232.653005 381.180126 
L 233.865148 381.180126 
L 234.016587 379.671623 
L 287.65639 379.671623 
L 287.732565 378.16312 
L 298.263062 378.16312 
L 298.414674 376.654617 
L 299.323722 376.654617 
L 299.47529 375.146114 
L 304.70271 375.146114 
L 304.85493 373.637611 
L 305.991 373.637611 
L 306.142546 372.129108 
L 306.74863 372.129108 
L 306.900119 370.620605 
L 307.808971 370.620605 
L 307.960726 369.112102 
L 315.46098 369.112102 
L 315.612507 367.603599 
L 328.643658 367.603599 
L 328.795181 366.095096 
L 331.295681 366.095096 
L 331.44717 364.586593 
L 331.750162 364.586593 
L 331.825678 363.07809 
L 332.659387 363.07809 
L 332.810929 361.569587 
L 334.174644 361.569587 
L 334.326131 360.061084 
L 335.310767 360.061084 
L 335.462291 358.552581 
L 337.053598 358.552581 
L 337.205106 357.044078 
L 337.886693 357.044078 
L 338.038217 355.535575 
L 338.871881 355.535575 
L 339.023369 354.027072 
L 341.371768 354.027072 
L 341.523298 352.518569 
L 343.644652 352.518569 
L 343.796172 351.010066 
L 346.221172 351.010066 
L 346.372101 349.501563 
L 350.008709 349.501563 
L 350.160234 347.993059 
L 351.296974 347.993059 
L 351.448508 346.484556 
L 355.312083 346.484556 
L 355.463602 344.976053 
L 357.964056 344.976053 
L 358.115593 343.46755 
L 371.525277 343.46755 
L 371.676801 341.959047 
L 378.343903 341.959047 
L 378.495432 340.450544 
L 381.980506 340.450544 
L 382.132033 338.942041 
L 384.10185 338.942041 
L 384.253385 337.433538 
L 384.935569 337.433538 
L 385.087136 335.925035 
L 387.056984 335.925035 
L 387.208474 334.416532 
L 388.875227 334.416532 
L 388.951105 332.908029 
L 394.10252 332.908029 
L 394.254043 331.399526 
L 413.043152 331.399526 
L 413.119085 329.891023 
L 419.634795 329.891023 
L 419.786346 328.38252 
L 425.468193 328.38252 
L 425.619725 326.874017 
L 493.2 326.874017 
L 493.2 326.874017 
" clip-path="url(#p3f22f8454c)" style="fill: none; stroke: #9467bd; stroke-width: 1.5; stroke-linecap: square"/>
   </g>
   <g id="patch_13">
    <path d="M 51.05 447.252558 
L 51.05 321.141706 
" style="fill: none; stroke: #000000; stroke-width: 0.8; stroke-linejoin: miter; stroke-linecap: square"/>
   </g>
   <g id="patch_14">
    <path d="M 493.2 447.252558 
L 493.2 321.141706 
" style="fill: none; stroke: #000000; stroke-width: 0.8; stroke-linejoin: miter; stroke-linecap: square"/>
   </g>
   <g id="patch_15">
    <path d="M 51.05 447.252558 
L 493.2 447.252558 
" style="fill: none; stroke: #000000; stroke-width: 0.8; stroke-linejoin: miter; stroke-linecap: square"/>
   </g>
   <g id="patch_16">
    <path d="M 51.05 321.141706 
L 493.2 321.141706 
" style="fill: none; stroke: #000000; stroke-width: 0.8; stroke-linejoin: miter; stroke-linecap: square"/>
   </g>
  </g>
  <g id="text_27">
   <!-- Weather data - March 2024 -->
   <g transform="translate(169.874063 19.198125) scale(0.12 -0.12)">
    <defs>
     <path id="DejaVuSans-57" d="M 213 4666 
L 850 4666 
L 1831 722 
L 2809 4666 
L 3519 4666 
L 4500 722 
L 5478 4666 
L 6119 4666 
L 4947 0 
L 4153 0 
L 3169 4050 
L 2175 0 
L 1381 0 
L 213 4666 
z
" transform="scale(0.015625)"/>
     <path id="DejaVuSans-68" d="M 3513 2113 
L 3513 0 
L 2938 0 
L 2938 2094 
Q 2938 2591 2744 2837 
Q 2550 3084 2163 3084 
Q 1697 3084 1428 2787 
Q 1159 2491 1159 1978 
L 1159 0 
L 581 0 
L 581 4863 
L 1159 4863 
L 1159 2956 
Q 1366 3272 1645 3428 
Q 1925 3584 2291 3584 
Q 2894 3584 3203 3211 
Q 3513 2838 3513 2113 
z
" transform="scale(0.015625)"/>
     <path id="DejaVuSans-4d" d="M 628 4666 
L 1569 4666 
L 2759 1491 
L 3956 4666 
L 4897 4666 
L 4897 0 
L 4281 0 
L 4281 4097 
L 3078 897 
L 2444 897 
L 1241 4097 
L 1241 0 
L 628 0 
L 628 4666 
z
" transform="scale(0.015625)"/>
     <path id="DejaVuSans-63" d="M 3122 3366 
L 3122 2828 
Q 2878 2963 2633 3030 
Q 2388 3097 2138 3097 
Q 1578 3097 1268 2742 
Q 959 2388 959 1747 
Q 959 1106 1268 751 
Q 1578 397 2138 397 
Q 2388 397 2633 464 
Q 2878 531 3122 666 
L 3122 134 
Q 2881 22 2623 -34 
Q 2366 -91 2075 -91 
Q 1284 -91 818 406 
Q 353 903 353 1747 
Q 353 2603 823 3093 
Q 1294 3584 2113 3584 
Q 2378 3584 2631 3529 
Q 2884 3475 3122 3366 
z
" transform="scale(0.015625)"/>
    </defs>
    <use xlink:href="#DejaVuSans-57"/>
    <use xlink:href="#DejaVuSans-65" x="93.001953"/>
    <use xlink:href="#DejaVuSans-61" x="154.525391"/>
    <use xlink:href="#DejaVuSans-74" x="215.804688"/>
    <use xlink:href="#DejaVuSans-68" x="255.013672"/>
    <use xlink:href="#DejaVuSans-65" x="318.392578"/>
    <use xlink:href="#DejaVuSans-72" x="379.916016"/>
    <use xlink:href="#DejaVuSans-20" x="421.029297"/>
    <use xlink:href="#DejaVuSans-64" x="452.816406"/>
    <use xlink:href="#DejaVuSans-61" x="516.292969"/>
    <use xlink:href="#DejaVuSans-74" x="577.572266"/>
    <use xlink:href="#DejaVuSans-61" x="616.78125"/>
    <use xlink:href="#DejaVuSans-20" x="678.060547"/>
    <use xlink:href="#DejaVuSans-2d" x="709.847656"/>
    <use xlink:href="#DejaVuSans-20" x="745.931641"/>
    <use xlink:href="#DejaVuSans-4d" x="777.71875"/>
    <use xlink:href="#DejaVuSans-61" x="863.998047"/>
    <use xlink:href="#DejaVuSans-72" x="925.277344"/>
    <use xlink:href="#DejaVuSans-63" x="964.140625"/>
    <use xlink:href="#DejaVuSans-68" x="1019.121094"/>
    <use xlink:href="#DejaVuSans-20" x="1082.5"/>
    <use xlink:href="#DejaVuSans-32" x="1114.287109"/>
    <use xlink:href="#DejaVuSans-30" x="1177.910156"/>
    <use xlink:href="#DejaVuSans-32" x="1241.533203"/>
    <use xlink:href="#DejaVuSans-34" x="1305.15625"/>
   </g>
  </g>
 </g>
 <defs>
  <clipPath id="p00bb50e695">
   <rect x="51.05" y="32.4" width="442.15" height="126.110853"/>
  </clipPath>
  <clipPath id="p7b47476ffa">
   <rect x="51.05" y="176.770853" width="442.15" height="126.110853"/>
  </clipPath>
  <clipPath id="p3f22f8454c">
   <rect x="51.05" y="321.141706" width="442.15" height="126.110853"/>
  </clipPath>
 </defs>
</svg>
