<?xml version="1.0" encoding="utf-8" standalone="no"?>
<!DOCTYPE svg PUBLIC "-//W3C//DTD SVG 1.1//EN"
  "http://www.w3.org/Graphics/SVG/1.1/DTD/svg11.dtd">
<svg xmlns:xlink="http://www.w3.org/1999/xlink" width="504pt" height="504pt" viewBox="0 0 504 504" xmlns="http://www.w3.org/2000/svg" version="1.1">
 <metadata>
  <rdf:RDF xmlns:dc="http://purl.org/dc/elements/1.1/" xmlns:cc="http://creativecommons.org/ns#" xmlns:rdf="http://www.w3.org/1999/02/22-rdf-syntax-ns#">
   <cc:Work>
    <dc:type rdf:resource="http://purl.org/dc/dcmitype/StillImage"/>
    <dc:date>2024-03-04T09:50:55.395374</dc:date>
    <dc:format>image/svg+xml</dc:format>
    <dc:creator>
     <cc:Agent>
      <dc:title>Matplotlib v3.6.3, https://matplotlib.org/</dc:title>
     </cc:Agent>
    </dc:creator>
   </cc:Work>
  </rdf:RDF>
 </metadata>
 <defs>
  <style type="text/css">*{stroke-linejoin: round; stroke-linecap: butt}</style>
 </defs>
 <g id="figure_1">
  <g id="patch_1">
   <path d="M 0 504 
L 504 504 
L 504 0 
L 0 0 
z
" style="fill: #ffffff"/>
  </g>
  <g id="axes_1">
   <g id="patch_2">
    <path d="M 51.05 158.510853 
L 493.2 158.510853 
L 493.2 32.4 
L 51.05 32.4 
z
" style="fill: #ffffff"/>
   </g>
   <g id="matplotlib.axis_1">
    <g id="xtick_1">
     <g id="line2d_1">
      <path d="M 115.860515 158.510853 
L 115.860515 32.4 
" clip-path="url(#p452736825f)" style="fill: none; stroke: #b0b0b0; stroke-width: 0.8; stroke-linecap: square"/>
     </g>
     <g id="line2d_2">
      <defs>
       <path id="mb4b7f194c6" d="M 0 0 
L 0 3.5 
" style="stroke: #000000; stroke-width: 0.8"/>
      </defs>
      <g>
       <use xlink:href="#mb4b7f194c6" x="115.860515" y="158.510853" style="stroke: #000000; stroke-width: 0.8"/>
      </g>
     </g>
    </g>
    <g id="xtick_2">
     <g id="line2d_3">
      <path d="M 180.702996 158.510853 
L 180.702996 32.4 
" clip-path="url(#p452736825f)" style="fill: none; stroke: #b0b0b0; stroke-width: 0.8; stroke-linecap: square"/>
     </g>
     <g id="line2d_4">
      <g>
       <use xlink:href="#mb4b7f194c6" x="180.702996" y="158.510853" style="stroke: #000000; stroke-width: 0.8"/>
      </g>
     </g>
    </g>
    <g id="xtick_3">
     <g id="line2d_5">
      <path d="M 245.545476 158.510853 
L 245.545476 32.4 
" clip-path="url(#p452736825f)" style="fill: none; stroke: #b0b0b0; stroke-width: 0.8; stroke-linecap: square"/>
     </g>
     <g id="line2d_6">
      <g>
       <use xlink:href="#mb4b7f194c6" x="245.545476" y="158.510853" style="stroke: #000000; stroke-width: 0.8"/>
      </g>
     </g>
    </g>
    <g id="xtick_4">
     <g id="line2d_7">
      <path d="M 310.387957 158.510853 
L 310.387957 32.4 
" clip-path="url(#p452736825f)" style="fill: none; stroke: #b0b0b0; stroke-width: 0.8; stroke-linecap: square"/>
     </g>
     <g id="line2d_8">
      <g>
       <use xlink:href="#mb4b7f194c6" x="310.387957" y="158.510853" style="stroke: #000000; stroke-width: 0.8"/>
      </g>
     </g>
    </g>
    <g id="xtick_5">
     <g id="line2d_9">
      <path d="M 375.230437 158.510853 
L 375.230437 32.4 
" clip-path="url(#p452736825f)" style="fill: none; stroke: #b0b0b0; stroke-width: 0.8; stroke-linecap: square"/>
     </g>
     <g id="line2d_10">
      <g>
       <use xlink:href="#mb4b7f194c6" x="375.230437" y="158.510853" style="stroke: #000000; stroke-width: 0.8"/>
      </g>
     </g>
    </g>
    <g id="xtick_6">
     <g id="line2d_11">
      <path d="M 440.072918 158.510853 
L 440.072918 32.4 
" clip-path="url(#p452736825f)" style="fill: none; stroke: #b0b0b0; stroke-width: 0.8; stroke-linecap: square"/>
     </g>
     <g id="line2d_12">
      <g>
       <use xlink:href="#mb4b7f194c6" x="440.072918" y="158.510853" style="stroke: #000000; stroke-width: 0.8"/>
      </g>
     </g>
    </g>
   </g>
   <g id="matplotlib.axis_2">
    <g id="ytick_1">
     <g id="line2d_13">
      <path d="M 51.05 135.647495 
L 493.2 135.647495 
" clip-path="url(#p452736825f)" style="fill: none; stroke: #b0b0b0; stroke-width: 0.8; stroke-linecap: square"/>
     </g>
     <g id="line2d_14">
      <defs>
       <path id="m41f2bf8173" d="M 0 0 
L -3.5 0 
" style="stroke: #000000; stroke-width: 0.8"/>
      </defs>
      <g>
       <use xlink:href="#m41f2bf8173" x="51.05" y="135.647495" style="stroke: #000000; stroke-width: 0.8"/>
      </g>
     </g>
     <g id="text_1">
      <!-- 4 -->
      <g transform="translate(37.6875 139.446714) scale(0.1 -0.1)">
       <defs>
        <path id="DejaVuSans-34" d="M 2419 4116 
L 825 1625 
L 2419 1625 
L 2419 4116 
z
M 2253 4666 
L 3047 4666 
L 3047 1625 
L 3713 1625 
L 3713 1100 
L 3047 1100 
L 3047 0 
L 2419 0 
L 2419 1100 
L 313 1100 
L 313 1709 
L 2253 4666 
z
" transform="scale(0.015625)"/>
       </defs>
       <use xlink:href="#DejaVuSans-34"/>
      </g>
     </g>
    </g>
    <g id="ytick_2">
     <g id="line2d_15">
      <path d="M 51.05 109.29204 
L 493.2 109.29204 
" clip-path="url(#p452736825f)" style="fill: none; stroke: #b0b0b0; stroke-width: 0.8; stroke-linecap: square"/>
     </g>
     <g id="line2d_16">
      <g>
       <use xlink:href="#m41f2bf8173" x="51.05" y="109.29204" style="stroke: #000000; stroke-width: 0.8"/>
      </g>
     </g>
     <g id="text_2">
      <!-- 6 -->
      <g transform="translate(37.6875 113.091259) scale(0.1 -0.1)">
       <defs>
        <path id="DejaVuSans-36" d="M 2113 2584 
Q 1688 2584 1439 2293 
Q 1191 2003 1191 1497 
Q 1191 994 1439 701 
Q 1688 409 2113 409 
Q 2538 409 2786 701 
Q 3034 994 3034 1497 
Q 3034 2003 2786 2293 
Q 2538 2584 2113 2584 
z
M 3366 4563 
L 3366 3988 
Q 3128 4100 2886 4159 
Q 2644 4219 2406 4219 
Q 1781 4219 1451 3797 
Q 1122 3375 1075 2522 
Q 1259 2794 1537 2939 
Q 1816 3084 2150 3084 
Q 2853 3084 3261 2657 
Q 3669 2231 3669 1497 
Q 3669 778 3244 343 
Q 2819 -91 2113 -91 
Q 1303 -91 875 529 
Q 447 1150 447 2328 
Q 447 3434 972 4092 
Q 1497 4750 2381 4750 
Q 2619 4750 2861 4703 
Q 3103 4656 3366 4563 
z
" transform="scale(0.015625)"/>
       </defs>
       <use xlink:href="#DejaVuSans-36"/>
      </g>
     </g>
    </g>
    <g id="ytick_3">
     <g id="line2d_17">
      <path d="M 51.05 82.936585 
L 493.2 82.936585 
" clip-path="url(#p452736825f)" style="fill: none; stroke: #b0b0b0; stroke-width: 0.8; stroke-linecap: square"/>
     </g>
     <g id="line2d_18">
      <g>
       <use xlink:href="#m41f2bf8173" x="51.05" y="82.936585" style="stroke: #000000; stroke-width: 0.8"/>
      </g>
     </g>
     <g id="text_3">
      <!-- 8 -->
      <g transform="translate(37.6875 86.735804) scale(0.1 -0.1)">
       <defs>
        <path id="DejaVuSans-38" d="M 2034 2216 
Q 1584 2216 1326 1975 
Q 1069 1734 1069 1313 
Q 1069 891 1326 650 
Q 1584 409 2034 409 
Q 2484 409 2743 651 
Q 3003 894 3003 1313 
Q 3003 1734 2745 1975 
Q 2488 2216 2034 2216 
z
M 1403 2484 
Q 997 2584 770 2862 
Q 544 3141 544 3541 
Q 544 4100 942 4425 
Q 1341 4750 2034 4750 
Q 2731 4750 3128 4425 
Q 3525 4100 3525 3541 
Q 3525 3141 3298 2862 
Q 3072 2584 2669 2484 
Q 3125 2378 3379 2068 
Q 3634 1759 3634 1313 
Q 3634 634 3220 271 
Q 2806 -91 2034 -91 
Q 1263 -91 848 271 
Q 434 634 434 1313 
Q 434 1759 690 2068 
Q 947 2378 1403 2484 
z
M 1172 3481 
Q 1172 3119 1398 2916 
Q 1625 2713 2034 2713 
Q 2441 2713 2670 2916 
Q 2900 3119 2900 3481 
Q 2900 3844 2670 4047 
Q 2441 4250 2034 4250 
Q 1625 4250 1398 4047 
Q 1172 3844 1172 3481 
z
" transform="scale(0.015625)"/>
       </defs>
       <use xlink:href="#DejaVuSans-38"/>
      </g>
     </g>
    </g>
    <g id="ytick_4">
     <g id="line2d_19">
      <path d="M 51.05 56.58113 
L 493.2 56.58113 
" clip-path="url(#p452736825f)" style="fill: none; stroke: #b0b0b0; stroke-width: 0.8; stroke-linecap: square"/>
     </g>
     <g id="line2d_20">
      <g>
       <use xlink:href="#m41f2bf8173" x="51.05" y="56.58113" style="stroke: #000000; stroke-width: 0.8"/>
      </g>
     </g>
     <g id="text_4">
      <!-- 10 -->
      <g transform="translate(31.325 60.380349) scale(0.1 -0.1)">
       <defs>
        <path id="DejaVuSans-31" d="M 794 531 
L 1825 531 
L 1825 4091 
L 703 3866 
L 703 4441 
L 1819 4666 
L 2450 4666 
L 2450 531 
L 3481 531 
L 3481 0 
L 794 0 
L 794 531 
z
" transform="scale(0.015625)"/>
        <path id="DejaVuSans-30" d="M 2034 4250 
Q 1547 4250 1301 3770 
Q 1056 3291 1056 2328 
Q 1056 1369 1301 889 
Q 1547 409 2034 409 
Q 2525 409 2770 889 
Q 3016 1369 3016 2328 
Q 3016 3291 2770 3770 
Q 2525 4250 2034 4250 
z
M 2034 4750 
Q 2819 4750 3233 4129 
Q 3647 3509 3647 2328 
Q 3647 1150 3233 529 
Q 2819 -91 2034 -91 
Q 1250 -91 836 529 
Q 422 1150 422 2328 
Q 422 3509 836 4129 
Q 1250 4750 2034 4750 
z
" transform="scale(0.015625)"/>
       </defs>
       <use xlink:href="#DejaVuSans-31"/>
       <use xlink:href="#DejaVuSans-30" x="63.623047"/>
      </g>
     </g>
    </g>
    <g id="text_5">
     <!-- Temperature [°C] -->
     <g transform="translate(25.245313 138.606989) rotate(-90) scale(0.1 -0.1)">
      <defs>
       <path id="DejaVuSans-54" d="M -19 4666 
L 3928 4666 
L 3928 4134 
L 2272 4134 
L 2272 0 
L 1638 0 
L 1638 4134 
L -19 4134 
L -19 4666 
z
" transform="scale(0.015625)"/>
       <path id="DejaVuSans-65" d="M 3597 1894 
L 3597 1613 
L 953 1613 
Q 991 1019 1311 708 
Q 1631 397 2203 397 
Q 2534 397 2845 478 
Q 3156 559 3463 722 
L 3463 178 
Q 3153 47 2828 -22 
Q 2503 -91 2169 -91 
Q 1331 -91 842 396 
Q 353 884 353 1716 
Q 353 2575 817 3079 
Q 1281 3584 2069 3584 
Q 2775 3584 3186 3129 
Q 3597 2675 3597 1894 
z
M 3022 2063 
Q 3016 2534 2758 2815 
Q 2500 3097 2075 3097 
Q 1594 3097 1305 2825 
Q 1016 2553 972 2059 
L 3022 2063 
z
" transform="scale(0.015625)"/>
       <path id="DejaVuSans-6d" d="M 3328 2828 
Q 3544 3216 3844 3400 
Q 4144 3584 4550 3584 
Q 5097 3584 5394 3201 
Q 5691 2819 5691 2113 
L 5691 0 
L 5113 0 
L 5113 2094 
Q 5113 2597 4934 2840 
Q 4756 3084 4391 3084 
Q 3944 3084 3684 2787 
Q 3425 2491 3425 1978 
L 3425 0 
L 2847 0 
L 2847 2094 
Q 2847 2600 2669 2842 
Q 2491 3084 2119 3084 
Q 1678 3084 1418 2786 
Q 1159 2488 1159 1978 
L 1159 0 
L 581 0 
L 581 3500 
L 1159 3500 
L 1159 2956 
Q 1356 3278 1631 3431 
Q 1906 3584 2284 3584 
Q 2666 3584 2933 3390 
Q 3200 3197 3328 2828 
z
" transform="scale(0.015625)"/>
       <path id="DejaVuSans-70" d="M 1159 525 
L 1159 -1331 
L 581 -1331 
L 581 3500 
L 1159 3500 
L 1159 2969 
Q 1341 3281 1617 3432 
Q 1894 3584 2278 3584 
Q 2916 3584 3314 3078 
Q 3713 2572 3713 1747 
Q 3713 922 3314 415 
Q 2916 -91 2278 -91 
Q 1894 -91 1617 61 
Q 1341 213 1159 525 
z
M 3116 1747 
Q 3116 2381 2855 2742 
Q 2594 3103 2138 3103 
Q 1681 3103 1420 2742 
Q 1159 2381 1159 1747 
Q 1159 1113 1420 752 
Q 1681 391 2138 391 
Q 2594 391 2855 752 
Q 3116 1113 3116 1747 
z
" transform="scale(0.015625)"/>
       <path id="DejaVuSans-72" d="M 2631 2963 
Q 2534 3019 2420 3045 
Q 2306 3072 2169 3072 
Q 1681 3072 1420 2755 
Q 1159 2438 1159 1844 
L 1159 0 
L 581 0 
L 581 3500 
L 1159 3500 
L 1159 2956 
Q 1341 3275 1631 3429 
Q 1922 3584 2338 3584 
Q 2397 3584 2469 3576 
Q 2541 3569 2628 3553 
L 2631 2963 
z
" transform="scale(0.015625)"/>
       <path id="DejaVuSans-61" d="M 2194 1759 
Q 1497 1759 1228 1600 
Q 959 1441 959 1056 
Q 959 750 1161 570 
Q 1363 391 1709 391 
Q 2188 391 2477 730 
Q 2766 1069 2766 1631 
L 2766 1759 
L 2194 1759 
z
M 3341 1997 
L 3341 0 
L 2766 0 
L 2766 531 
Q 2569 213 2275 61 
Q 1981 -91 1556 -91 
Q 1019 -91 701 211 
Q 384 513 384 1019 
Q 384 1609 779 1909 
Q 1175 2209 1959 2209 
L 2766 2209 
L 2766 2266 
Q 2766 2663 2505 2880 
Q 2244 3097 1772 3097 
Q 1472 3097 1187 3025 
Q 903 2953 641 2809 
L 641 3341 
Q 956 3463 1253 3523 
Q 1550 3584 1831 3584 
Q 2591 3584 2966 3190 
Q 3341 2797 3341 1997 
z
" transform="scale(0.015625)"/>
       <path id="DejaVuSans-74" d="M 1172 4494 
L 1172 3500 
L 2356 3500 
L 2356 3053 
L 1172 3053 
L 1172 1153 
Q 1172 725 1289 603 
Q 1406 481 1766 481 
L 2356 481 
L 2356 0 
L 1766 0 
Q 1100 0 847 248 
Q 594 497 594 1153 
L 594 3053 
L 172 3053 
L 172 3500 
L 594 3500 
L 594 4494 
L 1172 4494 
z
" transform="scale(0.015625)"/>
       <path id="DejaVuSans-75" d="M 544 1381 
L 544 3500 
L 1119 3500 
L 1119 1403 
Q 1119 906 1312 657 
Q 1506 409 1894 409 
Q 2359 409 2629 706 
Q 2900 1003 2900 1516 
L 2900 3500 
L 3475 3500 
L 3475 0 
L 2900 0 
L 2900 538 
Q 2691 219 2414 64 
Q 2138 -91 1772 -91 
Q 1169 -91 856 284 
Q 544 659 544 1381 
z
M 1991 3584 
L 1991 3584 
z
" transform="scale(0.015625)"/>
       <path id="DejaVuSans-20" transform="scale(0.015625)"/>
       <path id="DejaVuSans-5b" d="M 550 4863 
L 1875 4863 
L 1875 4416 
L 1125 4416 
L 1125 -397 
L 1875 -397 
L 1875 -844 
L 550 -844 
L 550 4863 
z
" transform="scale(0.015625)"/>
       <path id="DejaVuSans-b0" d="M 1600 4347 
Q 1350 4347 1178 4173 
Q 1006 4000 1006 3750 
Q 1006 3503 1178 3333 
Q 1350 3163 1600 3163 
Q 1850 3163 2022 3333 
Q 2194 3503 2194 3750 
Q 2194 3997 2020 4172 
Q 1847 4347 1600 4347 
z
M 1600 4750 
Q 1800 4750 1984 4673 
Q 2169 4597 2303 4453 
Q 2447 4313 2519 4134 
Q 2591 3956 2591 3750 
Q 2591 3338 2302 3052 
Q 2013 2766 1594 2766 
Q 1172 2766 890 3047 
Q 609 3328 609 3750 
Q 609 4169 896 4459 
Q 1184 4750 1600 4750 
z
" transform="scale(0.015625)"/>
       <path id="DejaVuSans-43" d="M 4122 4306 
L 4122 3641 
Q 3803 3938 3442 4084 
Q 3081 4231 2675 4231 
Q 1875 4231 1450 3742 
Q 1025 3253 1025 2328 
Q 1025 1406 1450 917 
Q 1875 428 2675 428 
Q 3081 428 3442 575 
Q 3803 722 4122 1019 
L 4122 359 
Q 3791 134 3420 21 
Q 3050 -91 2638 -91 
Q 1578 -91 968 557 
Q 359 1206 359 2328 
Q 359 3453 968 4101 
Q 1578 4750 2638 4750 
Q 3056 4750 3426 4639 
Q 3797 4528 4122 4306 
z
" transform="scale(0.015625)"/>
       <path id="DejaVuSans-5d" d="M 1947 4863 
L 1947 -844 
L 622 -844 
L 622 -397 
L 1369 -397 
L 1369 4416 
L 622 4416 
L 622 4863 
L 1947 4863 
z
" transform="scale(0.015625)"/>
      </defs>
      <use xlink:href="#DejaVuSans-54"/>
      <use xlink:href="#DejaVuSans-65" x="44.083984"/>
      <use xlink:href="#DejaVuSans-6d" x="105.607422"/>
      <use xlink:href="#DejaVuSans-70" x="203.019531"/>
      <use xlink:href="#DejaVuSans-65" x="266.496094"/>
      <use xlink:href="#DejaVuSans-72" x="328.019531"/>
      <use xlink:href="#DejaVuSans-61" x="369.132812"/>
      <use xlink:href="#DejaVuSans-74" x="430.412109"/>
      <use xlink:href="#DejaVuSans-75" x="469.621094"/>
      <use xlink:href="#DejaVuSans-72" x="533"/>
      <use xlink:href="#DejaVuSans-65" x="571.863281"/>
      <use xlink:href="#DejaVuSans-20" x="633.386719"/>
      <use xlink:href="#DejaVuSans-5b" x="665.173828"/>
      <use xlink:href="#DejaVuSans-b0" x="704.1875"/>
      <use xlink:href="#DejaVuSans-43" x="754.1875"/>
      <use xlink:href="#DejaVuSans-5d" x="824.011719"/>
     </g>
    </g>
   </g>
   <g id="line2d_21">
    <path d="M 51.05 118.51645 
L 51.914553 118.51645 
L 52.058644 117.198677 
L 53.211379 117.198677 
L 53.355474 118.51645 
L 54.14828 118.51645 
L 54.292446 119.834222 
L 54.86885 119.834222 
L 55.012894 118.51645 
L 55.157042 118.51645 
L 55.229208 117.198677 
L 55.445117 118.51645 
L 55.660984 118.51645 
L 55.805071 119.834222 
L 56.093268 119.834222 
L 56.237359 118.51645 
L 56.813736 118.51645 
L 56.957829 119.834222 
L 57.174443 119.834222 
L 57.318486 121.151995 
L 57.967059 121.151995 
L 58.110578 122.469768 
L 58.327083 122.469768 
L 58.471155 123.787541 
L 58.615333 123.787541 
L 58.759454 125.105313 
L 60.200345 125.105313 
L 60.344307 123.787541 
L 60.48846 123.787541 
L 60.560159 122.469768 
L 61.064813 122.469768 
L 61.208956 121.151995 
L 61.353028 121.151995 
L 61.497101 122.469768 
L 61.641189 121.151995 
L 61.785346 121.151995 
L 61.92942 122.469768 
L 62.433369 122.469768 
L 62.577457 123.787541 
L 62.793964 123.787541 
L 62.938031 122.469768 
L 63.009745 122.469768 
L 63.153829 121.151995 
L 63.226277 121.151995 
L 63.297925 119.834222 
L 63.80267 119.834222 
L 63.946696 121.151995 
L 64.594758 121.151995 
L 64.739315 119.834222 
L 65.099489 119.834222 
L 65.243553 118.51645 
L 65.531692 118.51645 
L 65.747508 115.880904 
L 66.036404 115.880904 
L 66.252021 117.198677 
L 66.323881 117.198677 
L 66.467973 118.51645 
L 66.612068 118.51645 
L 66.756161 119.834222 
L 66.972703 119.834222 
L 67.116806 121.151995 
L 67.764811 121.151995 
L 67.908903 122.469768 
L 68.125393 122.469768 
L 68.341186 125.105313 
L 68.557774 125.105313 
L 68.701802 123.787541 
L 69.349834 123.787541 
L 69.49393 122.469768 
L 69.78212 122.469768 
L 69.926211 123.787541 
L 70.574958 123.787541 
L 70.719101 122.469768 
L 71.583272 122.469768 
L 71.727684 121.151995 
L 72.015957 121.151995 
L 72.159975 119.834222 
L 72.663974 119.834222 
L 72.808739 121.151995 
L 73.31282 121.151995 
L 73.456867 122.469768 
L 74.249626 122.469768 
L 74.393093 121.151995 
L 74.465461 121.151995 
L 74.609417 119.834222 
L 74.681279 119.834222 
L 74.825374 118.51645 
L 76.122209 118.51645 
L 76.266303 117.198677 
L 76.626912 117.198677 
L 76.771017 115.880904 
L 77.347397 115.880904 
L 77.491473 114.563131 
L 77.635528 115.880904 
L 77.779691 114.563131 
L 77.923702 114.563131 
L 78.06782 113.245359 
L 78.211941 113.245359 
L 78.427698 110.609813 
L 79.724542 110.609813 
L 79.941021 113.245359 
L 80.300914 113.245359 
L 80.445009 114.563131 
L 80.589095 113.245359 
L 81.022042 113.245359 
L 81.16548 114.563131 
L 81.453662 114.563131 
L 81.670136 117.198677 
L 81.814239 117.198677 
L 81.958326 118.51645 
L 82.102413 118.51645 
L 82.246546 119.834222 
L 82.31868 119.834222 
L 82.534589 121.151995 
L 82.750499 121.151995 
L 82.894591 122.469768 
L 83.182782 122.469768 
L 83.326873 123.787541 
L 83.903246 123.787541 
L 84.047335 125.105313 
L 86.857476 125.105313 
L 87.00152 126.423086 
L 87.433814 126.423086 
L 87.577947 127.740859 
L 88.010196 127.740859 
L 88.154401 129.058632 
L 90.315658 129.058632 
L 90.387429 127.740859 
L 91.180288 127.740859 
L 91.324315 126.423086 
L 91.972458 126.423086 
L 92.116558 125.105313 
L 92.188992 125.105313 
L 92.333045 123.787541 
L 92.40474 123.787541 
L 92.54883 122.469768 
L 92.837024 122.469768 
L 92.981114 121.151995 
L 93.125194 121.151995 
L 93.341488 119.834222 
L 93.413394 119.834222 
L 93.557483 118.51645 
L 93.773887 118.51645 
L 93.91809 117.198677 
L 94.422051 117.198677 
L 94.926729 121.151995 
L 94.998416 121.151995 
L 95.14251 122.469768 
L 95.359013 122.469768 
L 95.503115 123.787541 
L 95.718884 123.787541 
L 95.863637 125.105313 
L 98.024382 125.105313 
L 98.168474 123.787541 
L 98.312572 125.105313 
L 98.384961 125.105313 
L 98.529043 123.787541 
L 99.897583 123.787541 
L 100.113856 122.469768 
L 100.329866 122.469768 
L 100.473962 121.151995 
L 100.618054 121.151995 
L 100.762152 119.834222 
L 100.906244 119.834222 
L 101.050336 118.51645 
L 101.914894 118.51645 
L 102.058991 117.198677 
L 102.34718 117.198677 
L 102.491264 115.880904 
L 102.563663 115.880904 
L 102.635966 114.563131 
L 103.067649 114.563131 
L 103.211737 113.245359 
L 105.517215 113.245359 
L 105.661303 111.927586 
L 105.805399 111.927586 
L 105.94949 110.609813 
L 106.237679 110.609813 
L 106.381768 109.29204 
L 106.525866 109.29204 
L 106.669959 107.974268 
L 107.174582 107.974268 
L 107.31873 106.656495 
L 107.390426 106.656495 
L 107.606905 104.020949 
L 107.822703 104.020949 
L 107.966797 102.703177 
L 108.327334 102.703177 
L 108.471432 101.385404 
L 108.687254 101.385404 
L 108.831353 100.067631 
L 109.408301 100.067631 
L 109.624041 98.749858 
L 109.912309 98.749858 
L 110.056412 97.432086 
L 110.344691 97.432086 
L 110.488614 96.114313 
L 111.42502 96.114313 
L 111.56911 94.79654 
L 111.8573 94.79654 
L 112.001388 93.478767 
L 112.146049 93.478767 
L 112.361867 92.160995 
L 112.433668 92.160995 
L 112.577759 90.843222 
L 112.865953 90.843222 
L 113.010036 89.525449 
L 113.65857 89.525449 
L 113.802889 90.843222 
L 114.739156 90.843222 
L 114.95528 88.207676 
L 115.171435 88.207676 
L 115.315521 86.889903 
L 115.676105 86.889903 
L 115.820131 85.572131 
L 115.964338 85.572131 
L 116.108409 84.254358 
L 116.180696 84.254358 
L 116.3964 82.936585 
L 116.468281 82.936585 
L 116.612357 81.618812 
L 116.972895 81.618812 
L 117.116981 82.936585 
L 117.837465 82.936585 
L 117.981509 84.254358 
L 118.053289 84.254358 
L 118.197379 85.572131 
L 118.41389 85.572131 
L 118.557926 86.889903 
L 118.918439 86.889903 
L 119.134229 88.207676 
L 119.49422 88.207676 
L 119.638311 89.525449 
L 119.782402 89.525449 
L 119.926496 90.843222 
L 120.070585 90.843222 
L 120.214679 92.160995 
L 120.430935 92.160995 
L 120.575148 93.478767 
L 120.935138 93.478767 
L 121.079235 94.79654 
L 121.511509 94.79654 
L 121.65624 96.114313 
L 121.943801 96.114313 
L 122.087889 97.432086 
L 122.376074 97.432086 
L 122.520169 98.749858 
L 122.736658 98.749858 
L 122.808348 100.067631 
L 122.880731 98.749858 
L 122.95309 100.067631 
L 123.168766 100.067631 
L 123.31295 101.385404 
L 123.88936 101.385404 
L 124.033418 102.703177 
L 124.898065 102.703177 
L 125.042046 104.020949 
L 125.113843 104.020949 
L 125.257933 102.703177 
L 125.978398 102.703177 
L 126.122495 104.020949 
L 126.266585 102.703177 
L 126.483075 102.703177 
L 126.627088 101.385404 
L 126.915324 101.385404 
L 126.987042 100.067631 
L 128.500003 100.067631 
L 128.644415 98.749858 
L 128.860252 98.749858 
L 128.932692 97.432086 
L 129.004341 98.749858 
L 129.076726 97.432086 
L 129.220787 98.749858 
L 130.085372 98.749858 
L 130.229443 97.432086 
L 132.390842 97.432086 
L 132.46321 98.749858 
L 132.67895 98.749858 
L 132.823086 97.432086 
L 133.687658 97.432086 
L 133.759408 98.749858 
L 134.119943 98.749858 
L 134.264038 100.067631 
L 135.128499 100.067631 
L 135.27236 101.385404 
L 135.488522 101.385404 
L 135.632619 102.703177 
L 136.425487 102.703177 
L 136.497177 104.020949 
L 137.217636 104.020949 
L 137.289954 105.338722 
L 137.434088 104.020949 
L 137.505824 105.338722 
L 137.578099 104.020949 
L 137.722221 105.338722 
L 137.938604 105.338722 
L 138.082193 106.656495 
L 138.298666 106.656495 
L 138.442602 107.974268 
L 139.235543 107.974268 
L 139.451308 109.29204 
L 141.396329 109.29204 
L 141.540423 110.609813 
L 143.269548 110.609813 
L 143.485839 109.29204 
L 145.215066 109.29204 
L 145.359229 110.609813 
L 146.87187 110.609813 
L 147.015964 111.927586 
L 147.2324 111.927586 
L 147.304144 113.245359 
L 147.520379 113.245359 
L 147.664664 114.563131 
L 147.880524 114.563131 
L 148.024609 115.880904 
L 148.312797 115.880904 
L 148.456889 117.198677 
L 151.122903 117.198677 
L 151.267025 118.51645 
L 151.338755 118.51645 
L 151.554923 119.834222 
L 151.843314 119.834222 
L 151.987477 121.151995 
L 153.932437 121.151995 
L 154.076524 122.469768 
L 154.652899 122.469768 
L 154.796989 123.787541 
L 154.869419 122.469768 
L 155.013516 123.787541 
L 155.518034 123.787541 
L 155.733872 125.105313 
L 157.390667 125.105313 
L 157.534755 126.423086 
L 157.678854 125.105313 
L 158.9757 125.105313 
L 159.119775 126.423086 
L 159.696151 126.423086 
L 159.840257 125.105313 
L 161.929821 125.105313 
L 162.073862 126.423086 
L 163.010306 126.423086 
L 163.154394 127.740859 
L 169.855124 127.740859 
L 169.999122 129.058632 
L 172.448576 129.058632 
L 172.592692 130.376404 
L 173.240924 130.376404 
L 173.385021 129.058632 
L 173.889568 129.058632 
L 174.03373 130.376404 
L 174.249577 130.376404 
L 174.393666 129.058632 
L 176.483473 129.058632 
L 176.627535 130.376404 
L 177.347681 130.376404 
L 177.491802 131.694177 
L 182.1747 131.694177 
L 182.318803 130.376404 
L 183.039261 130.376404 
L 183.183351 131.694177 
L 183.543943 131.694177 
L 183.687866 130.376404 
L 185.200662 130.376404 
L 185.34532 131.694177 
L 186.137567 131.694177 
L 186.281626 130.376404 
L 190.46035 130.376404 
L 190.604436 129.058632 
L 191.540777 129.058632 
L 191.684866 130.376404 
L 192.693508 130.376404 
L 192.837605 131.694177 
L 193.198105 131.694177 
L 193.342124 130.376404 
L 193.846262 130.376404 
L 193.990348 131.694177 
L 194.206825 131.694177 
L 194.350856 130.376404 
L 195.215438 130.376404 
L 195.359539 131.694177 
L 195.43128 131.694177 
L 195.575378 130.376404 
L 197.593233 130.376404 
L 197.736783 131.694177 
L 201.33911 131.694177 
L 201.483203 130.376404 
L 201.627897 130.376404 
L 201.843705 131.694177 
L 201.915477 131.694177 
L 201.987834 130.376404 
L 202.131937 131.694177 
L 203.716916 131.694177 
L 203.860987 133.01195 
L 206.094196 133.01195 
L 206.238286 131.694177 
L 207.751613 131.694177 
L 207.895672 133.01195 
L 211.138066 133.01195 
L 211.281548 131.694177 
L 213.010668 131.694177 
L 213.154765 133.01195 
L 215.388449 133.01195 
L 215.532547 134.329723 
L 215.820723 134.329723 
L 215.964814 133.01195 
L 216.901186 133.01195 
L 217.045278 134.329723 
L 220.719691 134.329723 
L 220.864033 133.01195 
L 222.160815 133.01195 
L 222.304944 131.694177 
L 223.241288 131.694177 
L 223.457522 130.376404 
L 223.745955 130.376404 
L 223.889996 129.058632 
L 224.97041 129.058632 
L 225.114503 127.740859 
L 225.330966 127.740859 
L 225.474983 126.423086 
L 225.546778 126.423086 
L 225.690884 125.105313 
L 225.763303 125.105313 
L 225.907315 123.787541 
L 225.979069 123.787541 
L 226.195354 122.469768 
L 226.26726 122.469768 
L 226.411345 121.151995 
L 226.483786 121.151995 
L 226.627859 119.834222 
L 227.060169 119.834222 
L 227.204106 121.151995 
L 228.140466 121.151995 
L 228.284563 122.469768 
L 228.717477 122.469768 
L 228.933184 121.151995 
L 229.077407 121.151995 
L 229.221424 119.834222 
L 230.590047 119.834222 
L 230.734143 118.51645 
L 231.022328 118.51645 
L 231.166423 119.834222 
L 231.598693 119.834222 
L 231.742791 121.151995 
L 232.030978 121.151995 
L 232.17507 119.834222 
L 232.535621 119.834222 
L 232.60735 118.51645 
L 232.751441 119.834222 
L 233.256025 119.834222 
L 233.400243 118.51645 
L 233.760101 118.51645 
L 233.904189 117.198677 
L 234.120609 117.198677 
L 234.264425 115.880904 
L 234.48056 115.880904 
L 234.624655 114.563131 
L 234.841029 114.563131 
L 234.985147 113.245359 
L 235.273324 113.245359 
L 235.417439 111.927586 
L 235.489768 111.927586 
L 235.849737 109.29204 
L 236.137858 109.29204 
L 236.282032 107.974268 
L 236.786045 107.974268 
L 237.002258 106.656495 
L 237.074231 106.656495 
L 237.218323 107.974268 
L 237.290624 107.974268 
L 237.434697 109.29204 
L 237.650605 109.29204 
L 237.794697 110.609813 
L 239.74008 110.609813 
L 239.884338 111.927586 
L 240.100713 111.927586 
L 240.244277 110.609813 
L 240.604797 110.609813 
L 240.748909 109.29204 
L 240.820658 109.29204 
L 240.965356 110.609813 
L 241.036792 110.609813 
L 241.181157 111.927586 
L 241.325236 111.927586 
L 241.469217 113.245359 
L 242.189756 113.245359 
L 242.262205 114.563131 
L 242.477917 114.563131 
L 242.621994 113.245359 
L 243.198353 113.245359 
L 243.342521 111.927586 
L 243.558424 111.927586 
L 243.774625 110.609813 
L 243.918886 110.609813 
L 244.063032 109.29204 
L 244.206994 109.29204 
L 244.422985 106.656495 
L 244.567071 106.656495 
L 244.711156 105.338722 
L 244.783509 105.338722 
L 244.92756 104.020949 
L 244.999979 104.020949 
L 245.143441 105.338722 
L 245.287539 104.020949 
L 245.576254 104.020949 
L 245.719821 102.703177 
L 245.792222 102.703177 
L 245.93616 104.020949 
L 246.296725 104.020949 
L 246.656644 106.656495 
L 246.872557 106.656495 
L 247.016654 105.338722 
L 247.088966 105.338722 
L 247.233161 104.020949 
L 247.304838 104.020949 
L 247.448931 102.703177 
L 247.737682 102.703177 
L 247.953573 100.067631 
L 248.025306 100.067631 
L 248.31349 96.114313 
L 248.385876 96.114313 
L 248.529906 97.432086 
L 248.601669 97.432086 
L 248.745767 98.749858 
L 248.889859 97.432086 
L 249.034552 97.432086 
L 249.250283 96.114313 
L 249.75442 96.114313 
L 249.898512 94.79654 
L 249.97085 94.79654 
L 250.114899 93.478767 
L 250.258981 93.478767 
L 250.330788 92.160995 
L 250.475515 92.160995 
L 250.83543 86.889903 
L 250.979443 86.889903 
L 251.12362 88.207676 
L 251.267677 88.207676 
L 251.411749 86.889903 
L 251.915807 86.889903 
L 252.132278 84.254358 
L 252.203995 84.254358 
L 252.348091 82.936585 
L 252.564549 82.936585 
L 252.78036 85.572131 
L 253.06855 85.572131 
L 253.573112 81.618812 
L 253.717153 82.936585 
L 254.149447 82.936585 
L 254.293521 81.618812 
L 254.581538 81.618812 
L 254.797655 84.254358 
L 255.085844 84.254358 
L 255.229939 85.572131 
L 255.518126 85.572131 
L 255.734652 88.207676 
L 256.166961 88.207676 
L 256.310989 86.889903 
L 256.887442 86.889903 
L 257.031501 88.207676 
L 257.103146 86.889903 
L 257.535424 86.889903 
L 257.679518 88.207676 
L 257.823611 88.207676 
L 257.9677 89.525449 
L 258.040188 89.525449 
L 258.184279 90.843222 
L 258.976349 90.843222 
L 259.120443 92.160995 
L 259.40863 92.160995 
L 259.552721 93.478767 
L 260.129101 93.478767 
L 260.273197 92.160995 
L 260.417285 92.160995 
L 260.561379 90.843222 
L 260.849559 90.843222 
L 260.993656 92.160995 
L 261.065863 92.160995 
L 261.13775 90.843222 
L 261.858215 90.843222 
L 262.002309 89.525449 
L 262.290492 89.525449 
L 262.362901 90.843222 
L 262.434586 89.525449 
L 262.579214 90.843222 
L 262.795034 93.478767 
L 262.939134 94.79654 
L 263.010957 94.79654 
L 263.15505 96.114313 
L 263.3714 96.114313 
L 263.515468 97.432086 
L 263.659629 97.432086 
L 263.803673 98.749858 
L 264.884156 98.749858 
L 265.02825 100.067631 
L 265.388445 100.067631 
L 265.532784 101.385404 
L 265.892811 101.385404 
L 266.109106 104.020949 
L 266.397565 104.020949 
L 266.541657 105.338722 
L 267.766018 105.338722 
L 267.910116 106.656495 
L 268.270525 106.656495 
L 268.414649 105.338722 
L 269.206948 105.338722 
L 269.351501 106.656495 
L 269.639223 106.656495 
L 269.783324 107.974268 
L 269.927416 107.974268 
L 270.071507 106.656495 
L 272.521086 106.656495 
L 272.665185 107.974268 
L 272.953369 107.974268 
L 273.097465 109.29204 
L 273.385648 109.29204 
L 273.746059 111.927586 
L 273.890118 111.927586 
L 274.034236 113.245359 
L 274.538398 113.245359 
L 274.682489 114.563131 
L 275.402952 114.563131 
L 275.547043 115.880904 
L 276.339762 115.880904 
L 276.483895 117.198677 
L 277.060252 117.198677 
L 277.204371 118.51645 
L 277.564927 118.51645 
L 277.708439 119.834222 
L 279.005282 119.834222 
L 279.149373 121.151995 
L 280.374307 121.151995 
L 280.518632 122.469768 
L 284.5531 122.469768 
L 284.697218 121.151995 
L 284.769012 121.151995 
L 284.913104 122.469768 
L 285.489482 122.469768 
L 285.634075 121.151995 
L 286.858577 121.151995 
L 286.930411 122.469768 
L 287.290818 122.469768 
L 287.434992 121.151995 
L 287.506782 121.151995 
L 287.650874 122.469768 
L 293.126411 122.469768 
L 293.27051 123.787541 
L 295.071834 123.787541 
L 295.215759 125.105313 
L 298.38607 125.105313 
L 298.53013 126.423086 
L 301.412097 126.423086 
L 301.556145 127.740859 
L 301.700196 126.423086 
L 302.132538 126.423086 
L 302.276613 127.740859 
L 302.564847 127.740859 
L 302.708937 126.423086 
L 303.933398 126.423086 
L 304.077493 127.740859 
L 307.823911 127.740859 
L 307.967999 129.058632 
L 314.164593 129.058632 
L 314.308111 130.376404 
L 316.973969 130.376404 
L 317.118241 131.694177 
L 318.774988 131.694177 
L 318.919094 133.01195 
L 320.720525 133.01195 
L 320.792297 134.329723 
L 322.161498 134.329723 
L 322.449629 135.647495 
L 323.170107 135.647495 
L 323.314184 136.965268 
L 323.962356 136.965268 
L 324.10645 138.283041 
L 326.556033 138.283041 
L 326.700125 139.600814 
L 327.852878 139.600814 
L 327.996969 140.918587 
L 328.42925 140.918587 
L 328.57334 139.600814 
L 330.158368 139.600814 
L 330.302462 138.283041 
L 330.807076 138.283041 
L 330.95117 136.965268 
L 331.383393 136.965268 
L 331.527529 135.647495 
L 331.959793 135.647495 
L 332.103926 134.329723 
L 332.896144 134.329723 
L 333.04024 133.01195 
L 333.256549 133.01195 
L 333.400751 134.329723 
L 334.048886 134.329723 
L 334.192985 133.01195 
L 334.337082 134.329723 
L 334.985788 134.329723 
L 335.129875 133.01195 
L 335.201638 133.01195 
L 335.345733 134.329723 
L 335.418076 134.329723 
L 335.562159 133.01195 
L 335.706262 134.329723 
L 336.930762 134.329723 
L 337.074851 133.01195 
L 338.083497 133.01195 
L 338.227591 134.329723 
L 339.668522 134.329723 
L 339.812625 135.647495 
L 340.028927 136.965268 
L 342.190442 136.965268 
L 342.334536 135.647495 
L 344.351846 135.647495 
L 344.495923 134.329723 
L 345.144077 134.329723 
L 345.288841 133.01195 
L 345.576356 133.01195 
L 345.720453 134.329723 
L 348.890506 134.329723 
L 349.034603 133.01195 
L 349.178694 133.01195 
L 349.323342 131.694177 
L 349.610973 131.694177 
L 349.755072 130.376404 
L 349.899165 130.376404 
L 350.043254 131.694177 
L 350.259625 131.694177 
L 350.403744 133.01195 
L 352.42105 133.01195 
L 352.565144 134.329723 
L 352.709237 133.01195 
L 354.43836 133.01195 
L 354.582456 131.694177 
L 354.870394 131.694177 
L 355.014726 130.376404 
L 355.086518 130.376404 
L 355.230613 129.058632 
L 355.806982 129.058632 
L 355.951075 127.740859 
L 356.311516 127.740859 
L 356.455648 126.423086 
L 356.887946 126.423086 
L 357.032029 125.105313 
L 357.103828 125.105313 
L 357.247908 126.423086 
L 357.680191 126.423086 
L 357.824299 125.105313 
L 357.968395 125.105313 
L 358.112482 123.787541 
L 358.184823 123.787541 
L 358.328936 125.105313 
L 358.688857 125.105313 
L 358.833618 126.423086 
L 359.049341 126.423086 
L 359.193414 125.105313 
L 360.273844 125.105313 
L 360.490241 123.787541 
L 360.634356 123.787541 
L 360.922532 127.740859 
L 361.066591 127.740859 
L 361.210766 129.058632 
L 361.498943 129.058632 
L 361.642756 130.376404 
L 362.291177 130.376404 
L 362.435273 131.694177 
L 364.092716 131.694177 
L 364.164388 130.376404 
L 364.813131 130.376404 
L 364.884858 129.058632 
L 365.028946 130.376404 
L 365.245434 130.376404 
L 365.389544 131.694177 
L 365.461231 131.694177 
L 365.605826 133.01195 
L 366.758078 133.01195 
L 366.902162 131.694177 
L 367.118422 131.694177 
L 367.262554 133.01195 
L 369.135969 133.01195 
L 369.280025 134.329723 
L 372.521801 134.329723 
L 372.665893 135.647495 
L 372.882331 135.647495 
L 373.026504 134.329723 
L 373.314682 134.329723 
L 373.458741 135.647495 
L 373.674541 135.647495 
L 373.890787 134.329723 
L 374.539105 134.329723 
L 374.683195 133.01195 
L 374.827291 134.329723 
L 376.196348 134.329723 
L 376.340626 135.647495 
L 376.772923 135.647495 
L 376.916977 134.329723 
L 377.276884 134.329723 
L 377.420974 133.01195 
L 378.79016 133.01195 
L 378.934272 131.694177 
L 379.438283 131.694177 
L 379.58238 130.376404 
L 380.446938 130.376404 
L 380.663151 131.694177 
L 380.807514 130.376404 
L 380.951632 130.376404 
L 381.095694 129.058632 
L 381.455586 129.058632 
L 381.599679 127.740859 
L 381.672108 127.740859 
L 381.88838 125.105313 
L 382.104269 125.105313 
L 382.248463 123.787541 
L 382.320153 123.787541 
L 382.464244 122.469768 
L 383.328771 122.469768 
L 383.472902 123.787541 
L 383.761084 123.787541 
L 383.977582 121.151995 
L 385.05792 121.151995 
L 385.202011 122.469768 
L 385.418353 122.469768 
L 385.562413 123.787541 
L 385.634299 123.787541 
L 385.778388 122.469768 
L 385.850764 122.469768 
L 385.922972 121.151995 
L 386.427179 121.151995 
L 386.571243 119.834222 
L 386.859244 119.834222 
L 387.003361 118.51645 
L 387.435522 118.51645 
L 387.579717 119.834222 
L 387.651599 119.834222 
L 387.795686 121.151995 
L 388.01202 121.151995 
L 388.156133 119.834222 
L 388.516157 119.834222 
L 388.660745 117.198677 
L 389.164778 117.198677 
L 389.308839 118.51645 
L 389.741137 118.51645 
L 389.885193 119.834222 
L 390.389366 119.834222 
L 390.533454 121.151995 
L 390.893901 121.151995 
L 391.037962 122.469768 
L 391.9744 122.469768 
L 392.118487 123.787541 
L 392.550772 123.787541 
L 392.695353 125.105313 
L 393.343443 125.105313 
L 393.48762 123.787541 
L 395.144447 123.787541 
L 395.288537 122.469768 
L 396.009006 122.469768 
L 396.1531 123.787541 
L 396.513516 123.787541 
L 396.657574 125.105313 
L 396.729466 125.105313 
L 396.945736 126.423086 
L 397.378226 126.423086 
L 397.522167 127.740859 
L 398.386702 127.740859 
L 398.530817 126.423086 
L 398.602672 126.423086 
L 398.746775 125.105313 
L 400.26005 125.105313 
L 400.404166 123.787541 
L 400.764081 123.787541 
L 400.980278 125.105313 
L 401.412645 125.105313 
L 401.628625 127.740859 
L 401.845059 127.740859 
L 401.989235 129.058632 
L 402.133292 129.058632 
L 402.421397 130.376404 
L 402.63729 130.376404 
L 402.781378 131.694177 
L 403.357753 131.694177 
L 403.501843 133.01195 
L 403.934121 133.01195 
L 404.078215 134.329723 
L 404.726947 134.329723 
L 404.871001 133.01195 
L 405.519158 133.01195 
L 405.663244 134.329723 
L 407.032477 134.329723 
L 407.176595 135.647495 
L 408.833301 135.647495 
L 408.977812 136.965268 
L 409.193766 136.965268 
L 409.337957 138.283041 
L 409.4819 138.283041 
L 409.626135 136.965268 
L 409.841941 136.965268 
L 409.986052 135.647495 
L 410.274238 135.647495 
L 410.490475 136.965268 
L 411.138786 136.965268 
L 411.282885 135.647495 
L 412.003351 135.647495 
L 412.147442 136.965268 
L 412.291537 136.965268 
L 412.435629 138.283041 
L 412.652136 138.283041 
L 412.796196 139.600814 
L 413.804849 139.600814 
L 413.948905 138.283041 
L 414.237138 138.283041 
L 414.308839 136.965268 
L 415.389904 136.965268 
L 415.533966 138.283041 
L 415.60568 138.283041 
L 415.750231 139.600814 
L 415.966126 138.283041 
L 416.037958 138.283041 
L 416.182051 136.965268 
L 416.902523 136.965268 
L 417.046617 138.283041 
L 417.26284 139.600814 
L 417.478897 139.600814 
L 417.622989 140.918587 
L 417.911182 140.918587 
L 418.055264 142.236359 
L 418.343455 142.236359 
L 418.48807 140.918587 
L 418.99215 140.918587 
L 419.136271 142.236359 
L 419.280332 142.236359 
L 419.424503 143.554132 
L 419.640295 143.554132 
L 419.784394 144.871905 
L 419.928466 144.871905 
L 420.072584 143.554132 
L 420.216675 144.871905 
L 420.433154 144.871905 
L 420.648952 142.236359 
L 420.793043 142.236359 
L 420.937143 140.918587 
L 423.674914 140.918587 
L 423.819004 142.236359 
L 424.107193 142.236359 
L 424.251287 143.554132 
L 425.188162 143.554132 
L 425.260548 144.871905 
L 425.548137 144.871905 
L 425.692228 146.189678 
L 425.908634 146.189678 
L 426.052752 147.50745 
L 427.998143 147.50745 
L 428.141815 148.825223 
L 428.358229 148.825223 
L 428.502406 150.142996 
L 429.006374 150.142996 
L 429.150472 151.460769 
L 429.655055 151.460769 
L 429.799174 152.778541 
L 430.015028 152.778541 
L 430.159125 151.460769 
L 430.519649 151.460769 
L 430.591402 150.142996 
L 430.807574 150.142996 
L 430.951824 151.460769 
L 431.384294 151.460769 
L 431.528353 150.142996 
L 431.600062 150.142996 
L 431.744144 148.825223 
L 432.896903 148.825223 
L 433.040994 150.142996 
L 433.617366 150.142996 
L 433.761467 151.460769 
L 433.905561 150.142996 
L 434.193746 150.142996 
L 434.337841 151.460769 
L 434.770803 151.460769 
L 435.130717 148.825223 
L 435.707067 148.825223 
L 435.851185 150.142996 
L 436.787429 150.142996 
L 436.931525 151.460769 
L 438.156485 151.460769 
L 438.300779 150.142996 
L 439.165299 150.142996 
L 439.309361 148.825223 
L 439.597597 148.825223 
L 439.74171 147.50745 
L 440.462125 147.50745 
L 440.606241 148.825223 
L 440.75036 147.50745 
L 441.110234 147.50745 
L 441.254328 148.825223 
L 442.47948 148.825223 
L 442.623598 147.50745 
L 443.12754 147.50745 
L 443.271632 146.189678 
L 443.703918 146.189678 
L 443.848007 144.871905 
L 443.920427 144.871905 
L 444.064483 143.554132 
L 444.280805 143.554132 
L 444.496706 144.871905 
L 444.640897 144.871905 
L 444.784954 146.189678 
L 446.369958 146.189678 
L 446.514014 144.871905 
L 446.802244 144.871905 
L 446.946364 143.554132 
L 447.018573 143.554132 
L 447.162165 144.871905 
L 447.666835 144.871905 
L 447.810891 146.189678 
L 447.955009 144.871905 
L 449.107777 144.871905 
L 449.25189 146.189678 
L 451.413246 146.189678 
L 451.557363 147.50745 
L 451.84554 147.50745 
L 451.989658 146.189678 
L 452.925901 146.189678 
L 453.06999 147.50745 
L 453.574603 147.50745 
L 453.718723 146.189678 
L 453.862473 146.189678 
L 454.07865 147.50745 
L 454.583252 147.50745 
L 454.727428 146.189678 
L 455.087305 146.189678 
L 455.303596 144.871905 
L 455.591961 144.871905 
L 455.736019 146.189678 
L 456.024255 146.189678 
L 456.168373 144.871905 
L 456.816421 144.871905 
L 456.960521 143.554132 
L 457.32108 143.554132 
L 457.465199 144.871905 
L 457.609259 144.871905 
L 457.753321 146.189678 
L 458.401449 146.189678 
L 458.545545 144.871905 
L 458.762028 144.871905 
L 458.906087 143.554132 
L 459.266473 143.554132 
L 459.410105 144.871905 
L 459.482498 144.871905 
L 459.626619 146.189678 
L 460.058797 146.189678 
L 460.20297 147.50745 
L 460.274662 147.50745 
L 460.418758 148.825223 
L 462.004472 148.825223 
L 462.147882 150.142996 
L 462.796678 150.142996 
L 462.940737 151.460769 
L 463.732908 151.460769 
L 463.877004 150.142996 
L 464.45337 150.142996 
L 464.598123 148.825223 
L 464.813788 147.50745 
L 465.173841 147.50745 
L 465.246266 146.189678 
L 465.39033 147.50745 
L 465.894307 147.50745 
L 466.110492 146.189678 
L 466.902971 146.189678 
L 467.047067 144.871905 
L 467.335659 144.871905 
L 467.695803 142.236359 
L 467.911621 142.236359 
L 468.055722 140.918587 
L 468.416277 140.918587 
L 468.560393 139.600814 
L 469.064367 139.600814 
L 469.208461 138.283041 
L 470.505302 138.283041 
L 470.649393 136.965268 
L 470.865816 136.965268 
L 471.009991 135.647495 
L 471.946237 135.647495 
L 472.090328 136.965268 
L 472.450873 136.965268 
L 472.594932 138.283041 
L 472.666699 138.283041 
L 472.882862 136.965268 
L 473.027227 136.965268 
L 473.17129 138.283041 
L 473.531259 138.283041 
L 473.675345 136.965268 
L 474.756354 136.965268 
L 474.900416 138.283041 
L 475.044534 138.283041 
L 475.188653 139.600814 
L 475.260383 139.600814 
L 475.404482 140.918587 
L 475.549156 140.918587 
L 475.692665 142.236359 
L 475.764952 142.236359 
L 475.909067 143.554132 
L 476.124947 143.554132 
L 476.269041 142.236359 
L 476.341309 142.236359 
L 476.48549 140.918587 
L 477.061829 140.918587 
L 477.205958 142.236359 
L 477.277689 142.236359 
L 477.421793 143.554132 
L 477.56588 143.554132 
L 477.709973 144.871905 
L 477.782257 144.871905 
L 477.926434 146.189678 
L 478.430442 146.189678 
L 478.646847 143.554132 
L 478.790966 143.554132 
L 478.935079 142.236359 
L 479.439093 142.236359 
L 479.65525 140.918587 
L 480.015471 140.918587 
L 480.159561 139.600814 
L 480.303652 139.600814 
L 480.447751 140.918587 
L 480.520087 140.918587 
L 480.664147 142.236359 
L 480.808323 142.236359 
L 480.880591 143.554132 
L 481.024119 143.554132 
L 481.168213 142.236359 
L 481.312313 142.236359 
L 481.456404 140.918587 
L 481.672797 140.918587 
L 481.816862 139.600814 
L 481.960977 139.600814 
L 482.105036 138.283041 
L 482.176874 138.283041 
L 482.393083 136.965268 
L 482.609147 136.965268 
L 482.753244 135.647495 
L 483.041429 135.647495 
L 483.185524 134.329723 
L 483.329621 134.329723 
L 483.47371 133.01195 
L 483.545978 133.01195 
L 483.761896 130.376404 
L 483.834158 130.376404 
L 483.978283 129.058632 
L 484.122394 129.058632 
L 484.266456 127.740859 
L 484.626454 127.740859 
L 484.770551 126.423086 
L 485.635111 126.423086 
L 485.851458 127.740859 
L 486.71605 127.740859 
L 487.220132 117.198677 
L 487.652973 104.020949 
L 488.084697 97.432086 
L 488.156995 97.432086 
L 488.877404 85.572131 
L 489.165453 85.572131 
L 489.381527 80.30104 
L 489.885985 65.805539 
L 490.030116 64.487767 
L 490.101986 64.487767 
L 490.390618 71.07663 
L 490.894655 82.936585 
L 490.966548 82.936585 
L 491.11063 84.254358 
L 491.326949 84.254358 
L 491.687008 76.347721 
L 492.623833 46.038948 
L 492.695654 46.038948 
L 492.911896 42.08563 
L 493.2 38.132311 
L 493.2 38.132311 
" clip-path="url(#p452736825f)" style="fill: none; stroke: #1f77b4; stroke-width: 1.5; stroke-linecap: square"/>
   </g>
   <g id="patch_3">
    <path d="M 51.05 158.510853 
L 51.05 32.4 
" style="fill: none; stroke: #000000; stroke-width: 0.8; stroke-linejoin: miter; stroke-linecap: square"/>
   </g>
   <g id="patch_4">
    <path d="M 493.2 158.510853 
L 493.2 32.4 
" style="fill: none; stroke: #000000; stroke-width: 0.8; stroke-linejoin: miter; stroke-linecap: square"/>
   </g>
   <g id="patch_5">
    <path d="M 51.05 158.510853 
L 493.2 158.510853 
" style="fill: none; stroke: #000000; stroke-width: 0.8; stroke-linejoin: miter; stroke-linecap: square"/>
   </g>
   <g id="patch_6">
    <path d="M 51.05 32.4 
L 493.2 32.4 
" style="fill: none; stroke: #000000; stroke-width: 0.8; stroke-linejoin: miter; stroke-linecap: square"/>
   </g>
  </g>
  <g id="axes_2">
   <g id="patch_7">
    <path d="M 51.05 302.881706 
L 493.2 302.881706 
L 493.2 176.770853 
L 51.05 176.770853 
z
" style="fill: #ffffff"/>
   </g>
   <g id="matplotlib.axis_3">
    <g id="xtick_7">
     <g id="line2d_22">
      <path d="M 115.860515 302.881706 
L 115.860515 176.770853 
" clip-path="url(#p296e4258f3)" style="fill: none; stroke: #b0b0b0; stroke-width: 0.8; stroke-linecap: square"/>
     </g>
     <g id="line2d_23">
      <g>
       <use xlink:href="#mb4b7f194c6" x="115.860515" y="302.881706" style="stroke: #000000; stroke-width: 0.8"/>
      </g>
     </g>
    </g>
    <g id="xtick_8">
     <g id="line2d_24">
      <path d="M 180.702996 302.881706 
L 180.702996 176.770853 
" clip-path="url(#p296e4258f3)" style="fill: none; stroke: #b0b0b0; stroke-width: 0.8; stroke-linecap: square"/>
     </g>
     <g id="line2d_25">
      <g>
       <use xlink:href="#mb4b7f194c6" x="180.702996" y="302.881706" style="stroke: #000000; stroke-width: 0.8"/>
      </g>
     </g>
    </g>
    <g id="xtick_9">
     <g id="line2d_26">
      <path d="M 245.545476 302.881706 
L 245.545476 176.770853 
" clip-path="url(#p296e4258f3)" style="fill: none; stroke: #b0b0b0; stroke-width: 0.8; stroke-linecap: square"/>
     </g>
     <g id="line2d_27">
      <g>
       <use xlink:href="#mb4b7f194c6" x="245.545476" y="302.881706" style="stroke: #000000; stroke-width: 0.8"/>
      </g>
     </g>
    </g>
    <g id="xtick_10">
     <g id="line2d_28">
      <path d="M 310.387957 302.881706 
L 310.387957 176.770853 
" clip-path="url(#p296e4258f3)" style="fill: none; stroke: #b0b0b0; stroke-width: 0.8; stroke-linecap: square"/>
     </g>
     <g id="line2d_29">
      <g>
       <use xlink:href="#mb4b7f194c6" x="310.387957" y="302.881706" style="stroke: #000000; stroke-width: 0.8"/>
      </g>
     </g>
    </g>
    <g id="xtick_11">
     <g id="line2d_30">
      <path d="M 375.230437 302.881706 
L 375.230437 176.770853 
" clip-path="url(#p296e4258f3)" style="fill: none; stroke: #b0b0b0; stroke-width: 0.8; stroke-linecap: square"/>
     </g>
     <g id="line2d_31">
      <g>
       <use xlink:href="#mb4b7f194c6" x="375.230437" y="302.881706" style="stroke: #000000; stroke-width: 0.8"/>
      </g>
     </g>
    </g>
    <g id="xtick_12">
     <g id="line2d_32">
      <path d="M 440.072918 302.881706 
L 440.072918 176.770853 
" clip-path="url(#p296e4258f3)" style="fill: none; stroke: #b0b0b0; stroke-width: 0.8; stroke-linecap: square"/>
     </g>
     <g id="line2d_33">
      <g>
       <use xlink:href="#mb4b7f194c6" x="440.072918" y="302.881706" style="stroke: #000000; stroke-width: 0.8"/>
      </g>
     </g>
    </g>
   </g>
   <g id="matplotlib.axis_4">
    <g id="ytick_5">
     <g id="line2d_34">
      <path d="M 51.05 302.881706 
L 493.2 302.881706 
" clip-path="url(#p296e4258f3)" style="fill: none; stroke: #b0b0b0; stroke-width: 0.8; stroke-linecap: square"/>
     </g>
     <g id="line2d_35">
      <g>
       <use xlink:href="#m41f2bf8173" x="51.05" y="302.881706" style="stroke: #000000; stroke-width: 0.8"/>
      </g>
     </g>
     <g id="text_6">
      <!-- 0 -->
      <g transform="translate(37.6875 306.680924) scale(0.1 -0.1)">
       <use xlink:href="#DejaVuSans-30"/>
      </g>
     </g>
    </g>
    <g id="ytick_6">
     <g id="line2d_36">
      <path d="M 51.05 277.659535 
L 493.2 277.659535 
" clip-path="url(#p296e4258f3)" style="fill: none; stroke: #b0b0b0; stroke-width: 0.8; stroke-linecap: square"/>
     </g>
     <g id="line2d_37">
      <g>
       <use xlink:href="#m41f2bf8173" x="51.05" y="277.659535" style="stroke: #000000; stroke-width: 0.8"/>
      </g>
     </g>
     <g id="text_7">
      <!-- 20 -->
      <g transform="translate(31.325 281.458754) scale(0.1 -0.1)">
       <defs>
        <path id="DejaVuSans-32" d="M 1228 531 
L 3431 531 
L 3431 0 
L 469 0 
L 469 531 
Q 828 903 1448 1529 
Q 2069 2156 2228 2338 
Q 2531 2678 2651 2914 
Q 2772 3150 2772 3378 
Q 2772 3750 2511 3984 
Q 2250 4219 1831 4219 
Q 1534 4219 1204 4116 
Q 875 4013 500 3803 
L 500 4441 
Q 881 4594 1212 4672 
Q 1544 4750 1819 4750 
Q 2544 4750 2975 4387 
Q 3406 4025 3406 3419 
Q 3406 3131 3298 2873 
Q 3191 2616 2906 2266 
Q 2828 2175 2409 1742 
Q 1991 1309 1228 531 
z
" transform="scale(0.015625)"/>
       </defs>
       <use xlink:href="#DejaVuSans-32"/>
       <use xlink:href="#DejaVuSans-30" x="63.623047"/>
      </g>
     </g>
    </g>
    <g id="ytick_7">
     <g id="line2d_38">
      <path d="M 51.05 252.437365 
L 493.2 252.437365 
" clip-path="url(#p296e4258f3)" style="fill: none; stroke: #b0b0b0; stroke-width: 0.8; stroke-linecap: square"/>
     </g>
     <g id="line2d_39">
      <g>
       <use xlink:href="#m41f2bf8173" x="51.05" y="252.437365" style="stroke: #000000; stroke-width: 0.8"/>
      </g>
     </g>
     <g id="text_8">
      <!-- 40 -->
      <g transform="translate(31.325 256.236583) scale(0.1 -0.1)">
       <use xlink:href="#DejaVuSans-34"/>
       <use xlink:href="#DejaVuSans-30" x="63.623047"/>
      </g>
     </g>
    </g>
    <g id="ytick_8">
     <g id="line2d_40">
      <path d="M 51.05 227.215194 
L 493.2 227.215194 
" clip-path="url(#p296e4258f3)" style="fill: none; stroke: #b0b0b0; stroke-width: 0.8; stroke-linecap: square"/>
     </g>
     <g id="line2d_41">
      <g>
       <use xlink:href="#m41f2bf8173" x="51.05" y="227.215194" style="stroke: #000000; stroke-width: 0.8"/>
      </g>
     </g>
     <g id="text_9">
      <!-- 60 -->
      <g transform="translate(31.325 231.014413) scale(0.1 -0.1)">
       <use xlink:href="#DejaVuSans-36"/>
       <use xlink:href="#DejaVuSans-30" x="63.623047"/>
      </g>
     </g>
    </g>
    <g id="ytick_9">
     <g id="line2d_42">
      <path d="M 51.05 201.993023 
L 493.2 201.993023 
" clip-path="url(#p296e4258f3)" style="fill: none; stroke: #b0b0b0; stroke-width: 0.8; stroke-linecap: square"/>
     </g>
     <g id="line2d_43">
      <g>
       <use xlink:href="#m41f2bf8173" x="51.05" y="201.993023" style="stroke: #000000; stroke-width: 0.8"/>
      </g>
     </g>
     <g id="text_10">
      <!-- 80 -->
      <g transform="translate(31.325 205.792242) scale(0.1 -0.1)">
       <use xlink:href="#DejaVuSans-38"/>
       <use xlink:href="#DejaVuSans-30" x="63.623047"/>
      </g>
     </g>
    </g>
    <g id="ytick_10">
     <g id="line2d_44">
      <path d="M 51.05 176.770853 
L 493.2 176.770853 
" clip-path="url(#p296e4258f3)" style="fill: none; stroke: #b0b0b0; stroke-width: 0.8; stroke-linecap: square"/>
     </g>
     <g id="line2d_45">
      <g>
       <use xlink:href="#m41f2bf8173" x="51.05" y="176.770853" style="stroke: #000000; stroke-width: 0.8"/>
      </g>
     </g>
     <g id="text_11">
      <!-- 100 -->
      <g transform="translate(24.9625 180.570072) scale(0.1 -0.1)">
       <use xlink:href="#DejaVuSans-31"/>
       <use xlink:href="#DejaVuSans-30" x="63.623047"/>
       <use xlink:href="#DejaVuSans-30" x="127.246094"/>
      </g>
     </g>
    </g>
    <g id="text_12">
     <!-- Humidity [%RH] -->
     <g transform="translate(18.882813 279.973154) rotate(-90) scale(0.1 -0.1)">
      <defs>
       <path id="DejaVuSans-48" d="M 628 4666 
L 1259 4666 
L 1259 2753 
L 3553 2753 
L 3553 4666 
L 4184 4666 
L 4184 0 
L 3553 0 
L 3553 2222 
L 1259 2222 
L 1259 0 
L 628 0 
L 628 4666 
z
" transform="scale(0.015625)"/>
       <path id="DejaVuSans-69" d="M 603 3500 
L 1178 3500 
L 1178 0 
L 603 0 
L 603 3500 
z
M 603 4863 
L 1178 4863 
L 1178 4134 
L 603 4134 
L 603 4863 
z
" transform="scale(0.015625)"/>
       <path id="DejaVuSans-64" d="M 2906 2969 
L 2906 4863 
L 3481 4863 
L 3481 0 
L 2906 0 
L 2906 525 
Q 2725 213 2448 61 
Q 2172 -91 1784 -91 
Q 1150 -91 751 415 
Q 353 922 353 1747 
Q 353 2572 751 3078 
Q 1150 3584 1784 3584 
Q 2172 3584 2448 3432 
Q 2725 3281 2906 2969 
z
M 947 1747 
Q 947 1113 1208 752 
Q 1469 391 1925 391 
Q 2381 391 2643 752 
Q 2906 1113 2906 1747 
Q 2906 2381 2643 2742 
Q 2381 3103 1925 3103 
Q 1469 3103 1208 2742 
Q 947 2381 947 1747 
z
" transform="scale(0.015625)"/>
       <path id="DejaVuSans-79" d="M 2059 -325 
Q 1816 -950 1584 -1140 
Q 1353 -1331 966 -1331 
L 506 -1331 
L 506 -850 
L 844 -850 
Q 1081 -850 1212 -737 
Q 1344 -625 1503 -206 
L 1606 56 
L 191 3500 
L 800 3500 
L 1894 763 
L 2988 3500 
L 3597 3500 
L 2059 -325 
z
" transform="scale(0.015625)"/>
       <path id="DejaVuSans-25" d="M 4653 2053 
Q 4381 2053 4226 1822 
Q 4072 1591 4072 1178 
Q 4072 772 4226 539 
Q 4381 306 4653 306 
Q 4919 306 5073 539 
Q 5228 772 5228 1178 
Q 5228 1588 5073 1820 
Q 4919 2053 4653 2053 
z
M 4653 2450 
Q 5147 2450 5437 2106 
Q 5728 1763 5728 1178 
Q 5728 594 5436 251 
Q 5144 -91 4653 -91 
Q 4153 -91 3862 251 
Q 3572 594 3572 1178 
Q 3572 1766 3864 2108 
Q 4156 2450 4653 2450 
z
M 1428 4353 
Q 1159 4353 1004 4120 
Q 850 3888 850 3481 
Q 850 3069 1003 2837 
Q 1156 2606 1428 2606 
Q 1700 2606 1854 2837 
Q 2009 3069 2009 3481 
Q 2009 3884 1853 4118 
Q 1697 4353 1428 4353 
z
M 4250 4750 
L 4750 4750 
L 1831 -91 
L 1331 -91 
L 4250 4750 
z
M 1428 4750 
Q 1922 4750 2215 4408 
Q 2509 4066 2509 3481 
Q 2509 2891 2217 2550 
Q 1925 2209 1428 2209 
Q 931 2209 642 2551 
Q 353 2894 353 3481 
Q 353 4063 643 4406 
Q 934 4750 1428 4750 
z
" transform="scale(0.015625)"/>
       <path id="DejaVuSans-52" d="M 2841 2188 
Q 3044 2119 3236 1894 
Q 3428 1669 3622 1275 
L 4263 0 
L 3584 0 
L 2988 1197 
Q 2756 1666 2539 1819 
Q 2322 1972 1947 1972 
L 1259 1972 
L 1259 0 
L 628 0 
L 628 4666 
L 2053 4666 
Q 2853 4666 3247 4331 
Q 3641 3997 3641 3322 
Q 3641 2881 3436 2590 
Q 3231 2300 2841 2188 
z
M 1259 4147 
L 1259 2491 
L 2053 2491 
Q 2509 2491 2742 2702 
Q 2975 2913 2975 3322 
Q 2975 3731 2742 3939 
Q 2509 4147 2053 4147 
L 1259 4147 
z
" transform="scale(0.015625)"/>
      </defs>
      <use xlink:href="#DejaVuSans-48"/>
      <use xlink:href="#DejaVuSans-75" x="75.195312"/>
      <use xlink:href="#DejaVuSans-6d" x="138.574219"/>
      <use xlink:href="#DejaVuSans-69" x="235.986328"/>
      <use xlink:href="#DejaVuSans-64" x="263.769531"/>
      <use xlink:href="#DejaVuSans-69" x="327.246094"/>
      <use xlink:href="#DejaVuSans-74" x="355.029297"/>
      <use xlink:href="#DejaVuSans-79" x="394.238281"/>
      <use xlink:href="#DejaVuSans-20" x="453.417969"/>
      <use xlink:href="#DejaVuSans-5b" x="485.205078"/>
      <use xlink:href="#DejaVuSans-25" x="524.21875"/>
      <use xlink:href="#DejaVuSans-52" x="619.238281"/>
      <use xlink:href="#DejaVuSans-48" x="688.720703"/>
      <use xlink:href="#DejaVuSans-5d" x="763.916016"/>
     </g>
    </g>
   </g>
   <g id="line2d_46">
    <path d="M 51.05 199.470806 
L 56.525545 199.470806 
L 56.741829 198.209698 
L 57.822389 198.209698 
L 58.038535 196.948589 
L 59.191656 196.948589 
L 59.264058 195.687481 
L 60.344307 195.687481 
L 60.48846 196.948589 
L 64.810902 196.948589 
L 64.955313 198.209698 
L 65.675824 198.209698 
L 65.82002 199.470806 
L 66.828591 199.470806 
L 66.972703 198.209698 
L 67.693127 198.209698 
L 67.837293 196.948589 
L 71.007311 196.948589 
L 71.151383 198.209698 
L 75.546588 198.209698 
L 75.76222 199.470806 
L 77.779691 199.470806 
L 77.923702 200.731915 
L 78.715886 200.731915 
L 78.859975 201.993023 
L 80.373286 201.993023 
L 80.517373 200.731915 
L 81.814239 200.731915 
L 81.958326 199.470806 
L 82.534589 199.470806 
L 82.678825 198.209698 
L 83.182782 198.209698 
L 83.326873 196.948589 
L 83.975645 196.948589 
L 84.119718 195.687481 
L 84.840188 195.687481 
L 84.984349 194.426372 
L 86.064647 194.426372 
L 86.208736 193.165264 
L 87.505562 193.165264 
L 87.649664 191.904155 
L 91.251988 191.904155 
L 91.396083 193.165264 
L 93.125194 193.165264 
L 93.341488 194.426372 
L 93.845671 194.426372 
L 93.989759 195.687481 
L 95.718884 195.687481 
L 95.863637 194.426372 
L 96.72754 194.426372 
L 96.871631 193.165264 
L 97.952683 193.165264 
L 98.096739 191.904155 
L 99.609399 191.904155 
L 99.753489 190.643047 
L 100.690397 190.643047 
L 100.834472 189.381938 
L 108.903769 189.381938 
L 109.047767 190.643047 
L 110.849299 190.643047 
L 110.992739 191.904155 
L 112.146049 191.904155 
L 112.361867 193.165264 
L 112.794214 193.165264 
L 112.865953 191.904155 
L 113.010036 199.470806 
L 113.65857 199.470806 
L 113.802889 191.904155 
L 113.874597 191.904155 
L 114.018692 193.165264 
L 114.739156 193.165264 
L 114.883832 199.470806 
L 116.324179 199.470806 
L 116.468281 198.209698 
L 116.684704 198.209698 
L 116.828805 199.470806 
L 119.782402 199.470806 
L 119.926496 193.165264 
L 123.528816 193.165264 
L 123.672907 191.904155 
L 125.042046 191.904155 
L 125.186181 190.643047 
L 126.771234 190.643047 
L 126.915324 189.381938 
L 131.670368 189.381938 
L 131.814395 190.643047 
L 137.145925 190.643047 
L 137.289954 189.381938 
L 158.039404 189.381938 
L 158.111138 190.643047 
L 159.407966 190.643047 
L 159.552599 191.904155 
L 161.353538 191.904155 
L 161.497616 193.165264 
L 161.569374 193.165264 
L 161.713468 191.904155 
L 163.298491 191.904155 
L 163.442577 190.643047 
L 165.892168 190.643047 
L 166.036257 189.381938 
L 230.158414 189.381938 
L 230.301862 190.643047 
L 231.310517 190.643047 
L 231.455294 191.904155 
L 231.67101 191.904155 
L 231.815141 193.165264 
L 233.400243 193.165264 
L 233.544343 191.904155 
L 235.273324 191.904155 
L 235.417439 193.165264 
L 237.14645 193.165264 
L 237.290624 194.426372 
L 238.371068 194.426372 
L 238.515157 193.165264 
L 240.676558 193.165264 
L 240.820658 191.904155 
L 240.965356 191.904155 
L 241.108836 193.165264 
L 243.342521 193.165264 
L 243.486667 194.426372 
L 244.567071 194.426372 
L 244.711156 193.165264 
L 244.92756 193.165264 
L 244.999979 194.426372 
L 245.287539 194.426372 
L 245.431639 195.687481 
L 245.93616 195.687481 
L 246.080338 196.948589 
L 246.296725 196.948589 
L 246.512451 198.209698 
L 246.656644 198.209698 
L 246.728468 199.470806 
L 246.872557 198.209698 
L 248.097639 198.209698 
L 248.241684 196.948589 
L 248.31349 196.948589 
L 248.529906 199.470806 
L 248.67398 199.470806 
L 248.818144 200.731915 
L 249.75442 200.731915 
L 249.898512 201.993023 
L 250.546996 201.993023 
L 250.691326 209.559675 
L 250.83543 208.298566 
L 250.907159 208.298566 
L 251.12362 210.820783 
L 251.411749 210.820783 
L 251.555853 212.081892 
L 251.627625 212.081892 
L 251.772314 213.343 
L 252.059902 213.343 
L 252.203995 212.081892 
L 252.492754 212.081892 
L 252.636269 213.343 
L 252.924451 213.343 
L 253.06855 214.604109 
L 253.429082 212.081892 
L 253.573112 212.081892 
L 253.717153 213.343 
L 254.077202 213.343 
L 254.221297 212.081892 
L 254.581538 212.081892 
L 254.725889 213.343 
L 255.229939 213.343 
L 255.374035 212.081892 
L 256.887442 212.081892 
L 257.031501 213.343 
L 258.040188 213.343 
L 258.184279 207.037458 
L 258.544664 207.037458 
L 258.76039 205.776349 
L 258.832259 205.776349 
L 258.976349 204.51524 
L 259.192685 204.51524 
L 259.40863 201.993023 
L 259.480859 201.993023 
L 259.625094 203.254132 
L 259.840906 203.254132 
L 260.057202 201.993023 
L 260.489511 201.993023 
L 260.63357 200.731915 
L 260.849559 200.731915 
L 260.993656 201.993023 
L 261.858215 201.993023 
L 262.002309 209.559675 
L 262.290492 209.559675 
L 262.362901 201.993023 
L 262.434586 209.559675 
L 262.579214 201.993023 
L 263.010957 201.993023 
L 263.15505 200.731915 
L 263.803673 200.731915 
L 263.875515 199.470806 
L 265.02825 199.470806 
L 265.172345 200.731915 
L 266.541657 200.731915 
L 266.613276 201.993023 
L 269.351501 201.993023 
L 269.855704 205.776349 
L 270.071507 205.776349 
L 270.215601 204.51524 
L 270.503781 204.51524 
L 270.647873 203.254132 
L 271.224249 203.254132 
L 271.368342 201.993023 
L 271.800624 201.993023 
L 271.944716 200.731915 
L 272.449237 200.731915 
L 272.593295 199.470806 
L 273.385648 199.470806 
L 273.60193 198.209698 
L 274.466528 198.209698 
L 274.610589 196.948589 
L 275.979327 196.948589 
L 276.124037 195.687481 
L 277.348429 195.687481 
L 277.420254 194.426372 
L 278.357172 194.426372 
L 278.501208 193.165264 
L 282.82392 193.165264 
L 282.896365 191.904155 
L 290.100463 191.904155 
L 290.244543 193.165264 
L 295.504188 193.165264 
L 295.648308 191.904155 
L 301.051532 191.904155 
L 301.195624 190.643047 
L 304.22159 190.643047 
L 304.365676 191.904155 
L 309.625404 191.904155 
L 309.769471 190.643047 
L 310.56168 190.643047 
L 310.705774 191.904155 
L 313.083636 191.904155 
L 313.227729 190.643047 
L 315.100902 190.643047 
L 315.24498 191.904155 
L 316.973969 191.904155 
L 317.118241 193.165264 
L 318.774988 193.165264 
L 318.919094 191.904155 
L 326.48417 191.904155 
L 326.628371 193.165264 
L 327.276505 193.165264 
L 327.420596 191.904155 
L 327.852878 191.904155 
L 327.996969 193.165264 
L 329.654209 193.165264 
L 329.798326 191.904155 
L 331.88749 191.904155 
L 332.031581 190.643047 
L 337.003101 190.643047 
L 337.074851 191.904155 
L 338.011748 191.904155 
L 338.155794 193.165264 
L 340.388994 193.165264 
L 340.533082 194.426372 
L 340.677182 193.165264 
L 340.821272 193.165264 
L 340.965364 194.426372 
L 341.974024 194.426372 
L 342.118115 193.165264 
L 343.414963 193.165264 
L 343.559698 194.426372 
L 344.207755 194.426372 
L 344.351846 193.165264 
L 347.161388 193.165264 
L 347.30549 191.904155 
L 347.44957 193.165264 
L 349.034603 193.165264 
L 349.178694 194.426372 
L 349.323342 194.426372 
L 349.539131 195.687481 
L 349.755072 195.687481 
L 349.899165 196.948589 
L 349.971472 196.948589 
L 350.11557 195.687481 
L 351.484186 195.687481 
L 351.628283 194.426372 
L 354.294261 194.426372 
L 354.43836 193.165264 
L 356.023386 193.165264 
L 356.095851 194.426372 
L 363.155737 194.426372 
L 363.299831 193.165264 
L 364.308984 193.165264 
L 364.45258 191.904155 
L 368.271382 191.904155 
L 368.415132 193.165264 
L 369.207651 193.165264 
L 369.351752 191.904155 
L 370.360405 191.904155 
L 370.504494 193.165264 
L 373.674541 193.165264 
L 373.890787 194.426372 
L 374.539105 194.426372 
L 374.683195 193.165264 
L 375.403663 193.165264 
L 375.547757 194.426372 
L 376.05239 194.426372 
L 376.196348 195.687481 
L 376.916977 195.687481 
L 377.061094 194.426372 
L 377.565067 194.426372 
L 377.709162 193.165264 
L 379.150662 193.165264 
L 379.366443 194.426372 
L 380.158746 194.426372 
L 380.302837 195.687481 
L 380.591549 195.687481 
L 380.735123 196.948589 
L 381.383865 196.948589 
L 381.527812 198.209698 
L 382.104269 198.209698 
L 382.248463 199.470806 
L 382.752431 199.470806 
L 382.896525 200.731915 
L 383.11299 200.731915 
L 383.184708 199.470806 
L 383.689405 199.470806 
L 383.833404 200.731915 
L 384.26576 200.731915 
L 384.409876 201.993023 
L 386.715187 201.993023 
L 386.931132 204.51524 
L 387.219314 204.51524 
L 387.435522 203.254132 
L 388.01202 203.254132 
L 388.156133 201.993023 
L 388.444306 201.993023 
L 388.804342 207.037458 
L 389.020657 207.037458 
L 389.164778 205.776349 
L 389.308839 205.776349 
L 389.453134 204.51524 
L 390.533454 204.51524 
L 390.677549 203.254132 
L 390.965737 203.254132 
L 391.109836 201.993023 
L 392.47891 201.993023 
L 392.622971 200.731915 
L 393.41533 200.731915 
L 393.55942 199.470806 
L 393.847611 199.470806 
L 393.991701 198.209698 
L 394.712167 198.209698 
L 394.85626 199.470806 
L 396.369401 199.470806 
L 396.513516 198.209698 
L 397.378226 198.209698 
L 397.522167 196.948589 
L 398.602672 196.948589 
L 398.746775 198.209698 
L 399.179056 198.209698 
L 399.323144 196.948589 
L 399.395347 196.948589 
L 399.467727 198.209698 
L 399.899518 198.209698 
L 400.043614 199.470806 
L 400.331803 199.470806 
L 400.475894 200.731915 
L 400.619992 200.731915 
L 400.764081 199.470806 
L 401.484534 199.470806 
L 401.628625 198.209698 
L 402.133292 198.209698 
L 402.421397 196.948589 
L 405.879711 196.948589 
L 405.951429 195.687481 
L 406.095523 196.948589 
L 406.815991 196.948589 
L 406.960086 195.687481 
L 408.112831 195.687481 
L 408.256928 196.948589 
L 409.265573 196.948589 
L 409.409666 195.687481 
L 409.4819 195.687481 
L 409.626135 196.948589 
L 411.138786 196.948589 
L 411.282885 198.209698 
L 412.219783 198.209698 
L 412.363962 196.948589 
L 414.597027 196.948589 
L 414.741116 198.209698 
L 416.614334 198.209698 
L 416.758426 199.470806 
L 416.830851 199.470806 
L 416.974912 198.209698 
L 418.12769 198.209698 
L 418.271742 196.948589 
L 418.48807 196.948589 
L 418.703965 198.209698 
L 419.35211 198.209698 
L 419.49683 196.948589 
L 420.721276 196.948589 
L 420.86545 198.209698 
L 421.297381 198.209698 
L 421.441793 199.470806 
L 422.450395 199.470806 
L 422.522607 200.731915 
L 425.188162 200.731915 
L 425.260548 199.470806 
L 429.510868 199.470806 
L 429.655055 198.209698 
L 430.519649 198.209698 
L 430.591402 199.470806 
L 431.960642 199.470806 
L 432.033032 200.731915 
L 439.309361 200.731915 
L 439.453478 201.993023 
L 441.110234 201.993023 
L 441.182654 203.254132 
L 441.326714 201.993023 
L 442.623598 201.993023 
L 442.767657 203.254132 
L 443.199952 203.254132 
L 443.344007 204.51524 
L 443.559828 204.51524 
L 443.703918 205.776349 
L 443.848007 205.776349 
L 443.9921 207.037458 
L 444.856663 207.037458 
L 445.000763 205.776349 
L 445.793411 205.776349 
L 445.93772 204.51524 
L 446.009409 204.51524 
L 446.153511 205.776349 
L 446.4417 205.776349 
L 446.585791 207.037458 
L 448.026725 207.037458 
L 448.170811 208.298566 
L 449.107777 208.298566 
L 449.25189 207.037458 
L 451.484964 207.037458 
L 451.629055 205.776349 
L 451.989658 205.776349 
L 452.133718 207.037458 
L 452.349526 207.037458 
L 452.494283 205.776349 
L 452.637717 207.037458 
L 452.781815 205.776349 
L 453.430547 205.776349 
L 453.502272 204.51524 
L 453.64637 205.776349 
L 453.862473 205.776349 
L 454.07865 204.51524 
L 454.871487 204.51524 
L 455.015605 205.776349 
L 456.024255 205.776349 
L 456.168373 207.037458 
L 456.816421 207.037458 
L 456.960521 208.298566 
L 458.68964 208.298566 
L 458.833732 209.559675 
L 459.626619 209.559675 
L 459.77062 208.298566 
L 460.130572 208.298566 
L 460.274662 207.037458 
L 461.427415 207.037458 
L 461.571506 208.298566 
L 462.075958 208.298566 
L 462.220265 207.037458 
L 462.580157 207.037458 
L 462.724257 205.776349 
L 462.940737 205.776349 
L 463.084855 204.51524 
L 463.949387 204.51524 
L 464.093506 203.254132 
L 464.45337 203.254132 
L 464.598123 204.51524 
L 464.813788 204.51524 
L 464.958037 205.776349 
L 466.254905 205.776349 
L 466.398975 207.037458 
L 467.335659 207.037458 
L 467.551614 208.298566 
L 467.767526 208.298566 
L 467.911621 209.559675 
L 468.199813 209.559675 
L 468.343906 210.820783 
L 468.632084 210.820783 
L 468.848324 212.081892 
L 470.145036 212.081892 
L 470.289448 213.343 
L 470.865816 213.343 
L 471.009991 214.604109 
L 471.946237 214.604109 
L 472.090328 213.343 
L 475.044534 213.343 
L 475.188653 212.081892 
L 475.332711 212.081892 
L 475.404482 210.820783 
L 475.549156 210.820783 
L 475.692665 209.559675 
L 475.836755 209.559675 
L 475.98085 208.298566 
L 476.269041 208.298566 
L 476.413137 209.559675 
L 477.277689 209.559675 
L 477.421793 208.298566 
L 477.56588 208.298566 
L 477.709973 207.037458 
L 477.854074 207.037458 
L 477.998155 205.776349 
L 478.070494 205.776349 
L 478.142258 204.51524 
L 478.502788 204.51524 
L 478.646847 205.776349 
L 478.790966 205.776349 
L 478.935079 207.037458 
L 479.439093 207.037458 
L 479.65525 208.298566 
L 480.375914 208.298566 
L 480.592355 205.776349 
L 480.808323 205.776349 
L 480.880591 204.51524 
L 481.240506 204.51524 
L 481.384564 205.776349 
L 481.816862 205.776349 
L 481.960977 207.037458 
L 482.82551 207.037458 
L 482.969623 208.298566 
L 483.47371 208.298566 
L 483.618365 209.559675 
L 484.554573 209.559675 
L 484.698748 210.820783 
L 484.914643 210.820783 
L 485.130914 209.559675 
L 485.346925 209.559675 
L 485.491016 208.298566 
L 485.635111 208.298566 
L 485.851458 209.559675 
L 486.643764 209.559675 
L 486.788379 208.298566 
L 487.076048 208.298566 
L 487.148348 209.559675 
L 487.292406 208.298566 
L 487.580582 208.298566 
L 487.652973 209.559675 
L 487.796515 209.559675 
L 488.01282 212.081892 
L 488.084697 212.081892 
L 488.228785 213.343 
L 488.372874 213.343 
L 488.516972 214.604109 
L 488.589287 214.604109 
L 488.733344 222.17076 
L 488.949244 224.692977 
L 489.165453 227.215194 
L 489.309701 225.954085 
L 489.525614 225.954085 
L 489.669718 227.215194 
L 489.813806 227.215194 
L 490.390618 236.042954 
L 490.606473 236.042954 
L 490.750646 234.781845 
L 490.822447 234.781845 
L 490.966548 233.520737 
L 491.11063 234.781845 
L 491.831084 234.781845 
L 491.975193 236.042954 
L 492.191482 236.042954 
L 492.26338 237.304062 
L 492.40747 236.042954 
L 492.479721 236.042954 
L 492.623833 234.781845 
L 492.983855 239.826279 
L 493.2 242.348496 
L 493.2 242.348496 
" clip-path="url(#p296e4258f3)" style="fill: none; stroke: #ff7f0e; stroke-width: 1.5; stroke-linecap: square"/>
   </g>
   <g id="patch_8">
    <path d="M 51.05 302.881706 
L 51.05 176.770853 
" style="fill: none; stroke: #000000; stroke-width: 0.8; stroke-linejoin: miter; stroke-linecap: square"/>
   </g>
   <g id="patch_9">
    <path d="M 493.2 302.881706 
L 493.2 176.770853 
" style="fill: none; stroke: #000000; stroke-width: 0.8; stroke-linejoin: miter; stroke-linecap: square"/>
   </g>
   <g id="patch_10">
    <path d="M 51.05 302.881706 
L 493.2 302.881706 
" style="fill: none; stroke: #000000; stroke-width: 0.8; stroke-linejoin: miter; stroke-linecap: square"/>
   </g>
   <g id="patch_11">
    <path d="M 51.05 176.770853 
L 493.2 176.770853 
" style="fill: none; stroke: #000000; stroke-width: 0.8; stroke-linejoin: miter; stroke-linecap: square"/>
   </g>
  </g>
  <g id="axes_3">
   <g id="patch_12">
    <path d="M 51.05 447.252558 
L 493.2 447.252558 
L 493.2 321.141706 
L 51.05 321.141706 
z
" style="fill: #ffffff"/>
   </g>
   <g id="matplotlib.axis_5">
    <g id="xtick_13">
     <g id="line2d_47">
      <path d="M 115.860515 447.252558 
L 115.860515 321.141706 
" clip-path="url(#p7ab80c908d)" style="fill: none; stroke: #b0b0b0; stroke-width: 0.8; stroke-linecap: square"/>
     </g>
     <g id="line2d_48">
      <g>
       <use xlink:href="#mb4b7f194c6" x="115.860515" y="447.252558" style="stroke: #000000; stroke-width: 0.8"/>
      </g>
     </g>
     <g id="text_13">
      <!-- 03-01 12 -->
      <g transform="translate(101.915596 491.417649) rotate(-45) scale(0.1 -0.1)">
       <defs>
        <path id="DejaVuSans-33" d="M 2597 2516 
Q 3050 2419 3304 2112 
Q 3559 1806 3559 1356 
Q 3559 666 3084 287 
Q 2609 -91 1734 -91 
Q 1441 -91 1130 -33 
Q 819 25 488 141 
L 488 750 
Q 750 597 1062 519 
Q 1375 441 1716 441 
Q 2309 441 2620 675 
Q 2931 909 2931 1356 
Q 2931 1769 2642 2001 
Q 2353 2234 1838 2234 
L 1294 2234 
L 1294 2753 
L 1863 2753 
Q 2328 2753 2575 2939 
Q 2822 3125 2822 3475 
Q 2822 3834 2567 4026 
Q 2313 4219 1838 4219 
Q 1578 4219 1281 4162 
Q 984 4106 628 3988 
L 628 4550 
Q 988 4650 1302 4700 
Q 1616 4750 1894 4750 
Q 2613 4750 3031 4423 
Q 3450 4097 3450 3541 
Q 3450 3153 3228 2886 
Q 3006 2619 2597 2516 
z
" transform="scale(0.015625)"/>
        <path id="DejaVuSans-2d" d="M 313 2009 
L 1997 2009 
L 1997 1497 
L 313 1497 
L 313 2009 
z
" transform="scale(0.015625)"/>
       </defs>
       <use xlink:href="#DejaVuSans-30"/>
       <use xlink:href="#DejaVuSans-33" x="63.623047"/>
       <use xlink:href="#DejaVuSans-2d" x="127.246094"/>
       <use xlink:href="#DejaVuSans-30" x="163.330078"/>
       <use xlink:href="#DejaVuSans-31" x="226.953125"/>
       <use xlink:href="#DejaVuSans-20" x="290.576172"/>
       <use xlink:href="#DejaVuSans-31" x="322.363281"/>
       <use xlink:href="#DejaVuSans-32" x="385.986328"/>
      </g>
     </g>
    </g>
    <g id="xtick_14">
     <g id="line2d_49">
      <path d="M 180.702996 447.252558 
L 180.702996 321.141706 
" clip-path="url(#p7ab80c908d)" style="fill: none; stroke: #b0b0b0; stroke-width: 0.8; stroke-linecap: square"/>
     </g>
     <g id="line2d_50">
      <g>
       <use xlink:href="#mb4b7f194c6" x="180.702996" y="447.252558" style="stroke: #000000; stroke-width: 0.8"/>
      </g>
     </g>
     <g id="text_14">
      <!-- 03-02 00 -->
      <g transform="translate(166.758077 491.417649) rotate(-45) scale(0.1 -0.1)">
       <use xlink:href="#DejaVuSans-30"/>
       <use xlink:href="#DejaVuSans-33" x="63.623047"/>
       <use xlink:href="#DejaVuSans-2d" x="127.246094"/>
       <use xlink:href="#DejaVuSans-30" x="163.330078"/>
       <use xlink:href="#DejaVuSans-32" x="226.953125"/>
       <use xlink:href="#DejaVuSans-20" x="290.576172"/>
       <use xlink:href="#DejaVuSans-30" x="322.363281"/>
       <use xlink:href="#DejaVuSans-30" x="385.986328"/>
      </g>
     </g>
    </g>
    <g id="xtick_15">
     <g id="line2d_51">
      <path d="M 245.545476 447.252558 
L 245.545476 321.141706 
" clip-path="url(#p7ab80c908d)" style="fill: none; stroke: #b0b0b0; stroke-width: 0.8; stroke-linecap: square"/>
     </g>
     <g id="line2d_52">
      <g>
       <use xlink:href="#mb4b7f194c6" x="245.545476" y="447.252558" style="stroke: #000000; stroke-width: 0.8"/>
      </g>
     </g>
     <g id="text_15">
      <!-- 03-02 12 -->
      <g transform="translate(231.600557 491.417649) rotate(-45) scale(0.1 -0.1)">
       <use xlink:href="#DejaVuSans-30"/>
       <use xlink:href="#DejaVuSans-33" x="63.623047"/>
       <use xlink:href="#DejaVuSans-2d" x="127.246094"/>
       <use xlink:href="#DejaVuSans-30" x="163.330078"/>
       <use xlink:href="#DejaVuSans-32" x="226.953125"/>
       <use xlink:href="#DejaVuSans-20" x="290.576172"/>
       <use xlink:href="#DejaVuSans-31" x="322.363281"/>
       <use xlink:href="#DejaVuSans-32" x="385.986328"/>
      </g>
     </g>
    </g>
    <g id="xtick_16">
     <g id="line2d_53">
      <path d="M 310.387957 447.252558 
L 310.387957 321.141706 
" clip-path="url(#p7ab80c908d)" style="fill: none; stroke: #b0b0b0; stroke-width: 0.8; stroke-linecap: square"/>
     </g>
     <g id="line2d_54">
      <g>
       <use xlink:href="#mb4b7f194c6" x="310.387957" y="447.252558" style="stroke: #000000; stroke-width: 0.8"/>
      </g>
     </g>
     <g id="text_16">
      <!-- 03-03 00 -->
      <g transform="translate(296.443038 491.417649) rotate(-45) scale(0.1 -0.1)">
       <use xlink:href="#DejaVuSans-30"/>
       <use xlink:href="#DejaVuSans-33" x="63.623047"/>
       <use xlink:href="#DejaVuSans-2d" x="127.246094"/>
       <use xlink:href="#DejaVuSans-30" x="163.330078"/>
       <use xlink:href="#DejaVuSans-33" x="226.953125"/>
       <use xlink:href="#DejaVuSans-20" x="290.576172"/>
       <use xlink:href="#DejaVuSans-30" x="322.363281"/>
       <use xlink:href="#DejaVuSans-30" x="385.986328"/>
      </g>
     </g>
    </g>
    <g id="xtick_17">
     <g id="line2d_55">
      <path d="M 375.230437 447.252558 
L 375.230437 321.141706 
" clip-path="url(#p7ab80c908d)" style="fill: none; stroke: #b0b0b0; stroke-width: 0.8; stroke-linecap: square"/>
     </g>
     <g id="line2d_56">
      <g>
       <use xlink:href="#mb4b7f194c6" x="375.230437" y="447.252558" style="stroke: #000000; stroke-width: 0.8"/>
      </g>
     </g>
     <g id="text_17">
      <!-- 03-03 12 -->
      <g transform="translate(361.285518 491.417649) rotate(-45) scale(0.1 -0.1)">
       <use xlink:href="#DejaVuSans-30"/>
       <use xlink:href="#DejaVuSans-33" x="63.623047"/>
       <use xlink:href="#DejaVuSans-2d" x="127.246094"/>
       <use xlink:href="#DejaVuSans-30" x="163.330078"/>
       <use xlink:href="#DejaVuSans-33" x="226.953125"/>
       <use xlink:href="#DejaVuSans-20" x="290.576172"/>
       <use xlink:href="#DejaVuSans-31" x="322.363281"/>
       <use xlink:href="#DejaVuSans-32" x="385.986328"/>
      </g>
     </g>
    </g>
    <g id="xtick_18">
     <g id="line2d_57">
      <path d="M 440.072918 447.252558 
L 440.072918 321.141706 
" clip-path="url(#p7ab80c908d)" style="fill: none; stroke: #b0b0b0; stroke-width: 0.8; stroke-linecap: square"/>
     </g>
     <g id="line2d_58">
      <g>
       <use xlink:href="#mb4b7f194c6" x="440.072918" y="447.252558" style="stroke: #000000; stroke-width: 0.8"/>
      </g>
     </g>
     <g id="text_18">
      <!-- 03-04 00 -->
      <g transform="translate(426.127999 491.417649) rotate(-45) scale(0.1 -0.1)">
       <use xlink:href="#DejaVuSans-30"/>
       <use xlink:href="#DejaVuSans-33" x="63.623047"/>
       <use xlink:href="#DejaVuSans-2d" x="127.246094"/>
       <use xlink:href="#DejaVuSans-30" x="163.330078"/>
       <use xlink:href="#DejaVuSans-34" x="226.953125"/>
       <use xlink:href="#DejaVuSans-20" x="290.576172"/>
       <use xlink:href="#DejaVuSans-30" x="322.363281"/>
       <use xlink:href="#DejaVuSans-30" x="385.986328"/>
      </g>
     </g>
    </g>
   </g>
   <g id="matplotlib.axis_6">
    <g id="ytick_11">
     <g id="line2d_59">
      <path d="M 51.05 442.023081 
L 493.2 442.023081 
" clip-path="url(#p7ab80c908d)" style="fill: none; stroke: #b0b0b0; stroke-width: 0.8; stroke-linecap: square"/>
     </g>
     <g id="line2d_60">
      <g>
       <use xlink:href="#m41f2bf8173" x="51.05" y="442.023081" style="stroke: #000000; stroke-width: 0.8"/>
      </g>
     </g>
     <g id="text_19">
      <!-- 710 -->
      <g transform="translate(24.9625 445.8223) scale(0.1 -0.1)">
       <defs>
        <path id="DejaVuSans-37" d="M 525 4666 
L 3525 4666 
L 3525 4397 
L 1831 0 
L 1172 0 
L 2766 4134 
L 525 4134 
L 525 4666 
z
" transform="scale(0.015625)"/>
       </defs>
       <use xlink:href="#DejaVuSans-37"/>
       <use xlink:href="#DejaVuSans-31" x="63.623047"/>
       <use xlink:href="#DejaVuSans-30" x="127.246094"/>
      </g>
     </g>
    </g>
    <g id="ytick_12">
     <g id="line2d_61">
      <path d="M 51.05 416.881364 
L 493.2 416.881364 
" clip-path="url(#p7ab80c908d)" style="fill: none; stroke: #b0b0b0; stroke-width: 0.8; stroke-linecap: square"/>
     </g>
     <g id="line2d_62">
      <g>
       <use xlink:href="#m41f2bf8173" x="51.05" y="416.881364" style="stroke: #000000; stroke-width: 0.8"/>
      </g>
     </g>
     <g id="text_20">
      <!-- 715 -->
      <g transform="translate(24.9625 420.680583) scale(0.1 -0.1)">
       <defs>
        <path id="DejaVuSans-35" d="M 691 4666 
L 3169 4666 
L 3169 4134 
L 1269 4134 
L 1269 2991 
Q 1406 3038 1543 3061 
Q 1681 3084 1819 3084 
Q 2600 3084 3056 2656 
Q 3513 2228 3513 1497 
Q 3513 744 3044 326 
Q 2575 -91 1722 -91 
Q 1428 -91 1123 -41 
Q 819 9 494 109 
L 494 744 
Q 775 591 1075 516 
Q 1375 441 1709 441 
Q 2250 441 2565 725 
Q 2881 1009 2881 1497 
Q 2881 1984 2565 2268 
Q 2250 2553 1709 2553 
Q 1456 2553 1204 2497 
Q 953 2441 691 2322 
L 691 4666 
z
" transform="scale(0.015625)"/>
       </defs>
       <use xlink:href="#DejaVuSans-37"/>
       <use xlink:href="#DejaVuSans-31" x="63.623047"/>
       <use xlink:href="#DejaVuSans-35" x="127.246094"/>
      </g>
     </g>
    </g>
    <g id="ytick_13">
     <g id="line2d_63">
      <path d="M 51.05 391.739647 
L 493.2 391.739647 
" clip-path="url(#p7ab80c908d)" style="fill: none; stroke: #b0b0b0; stroke-width: 0.8; stroke-linecap: square"/>
     </g>
     <g id="line2d_64">
      <g>
       <use xlink:href="#m41f2bf8173" x="51.05" y="391.739647" style="stroke: #000000; stroke-width: 0.8"/>
      </g>
     </g>
     <g id="text_21">
      <!-- 720 -->
      <g transform="translate(24.9625 395.538866) scale(0.1 -0.1)">
       <use xlink:href="#DejaVuSans-37"/>
       <use xlink:href="#DejaVuSans-32" x="63.623047"/>
       <use xlink:href="#DejaVuSans-30" x="127.246094"/>
      </g>
     </g>
    </g>
    <g id="ytick_14">
     <g id="line2d_65">
      <path d="M 51.05 366.59793 
L 493.2 366.59793 
" clip-path="url(#p7ab80c908d)" style="fill: none; stroke: #b0b0b0; stroke-width: 0.8; stroke-linecap: square"/>
     </g>
     <g id="line2d_66">
      <g>
       <use xlink:href="#m41f2bf8173" x="51.05" y="366.59793" style="stroke: #000000; stroke-width: 0.8"/>
      </g>
     </g>
     <g id="text_22">
      <!-- 725 -->
      <g transform="translate(24.9625 370.397149) scale(0.1 -0.1)">
       <use xlink:href="#DejaVuSans-37"/>
       <use xlink:href="#DejaVuSans-32" x="63.623047"/>
       <use xlink:href="#DejaVuSans-35" x="127.246094"/>
      </g>
     </g>
    </g>
    <g id="ytick_15">
     <g id="line2d_67">
      <path d="M 51.05 341.456213 
L 493.2 341.456213 
" clip-path="url(#p7ab80c908d)" style="fill: none; stroke: #b0b0b0; stroke-width: 0.8; stroke-linecap: square"/>
     </g>
     <g id="line2d_68">
      <g>
       <use xlink:href="#m41f2bf8173" x="51.05" y="341.456213" style="stroke: #000000; stroke-width: 0.8"/>
      </g>
     </g>
     <g id="text_23">
      <!-- 730 -->
      <g transform="translate(24.9625 345.255432) scale(0.1 -0.1)">
       <use xlink:href="#DejaVuSans-37"/>
       <use xlink:href="#DejaVuSans-33" x="63.623047"/>
       <use xlink:href="#DejaVuSans-30" x="127.246094"/>
      </g>
     </g>
    </g>
    <g id="text_24">
     <!-- Rain [mm] -->
     <g transform="translate(18.882813 410.411976) rotate(-90) scale(0.1 -0.1)">
      <defs>
       <path id="DejaVuSans-6e" d="M 3513 2113 
L 3513 0 
L 2938 0 
L 2938 2094 
Q 2938 2591 2744 2837 
Q 2550 3084 2163 3084 
Q 1697 3084 1428 2787 
Q 1159 2491 1159 1978 
L 1159 0 
L 581 0 
L 581 3500 
L 1159 3500 
L 1159 2956 
Q 1366 3272 1645 3428 
Q 1925 3584 2291 3584 
Q 2894 3584 3203 3211 
Q 3513 2838 3513 2113 
z
" transform="scale(0.015625)"/>
      </defs>
      <use xlink:href="#DejaVuSans-52"/>
      <use xlink:href="#DejaVuSans-61" x="67.232422"/>
      <use xlink:href="#DejaVuSans-69" x="128.511719"/>
      <use xlink:href="#DejaVuSans-6e" x="156.294922"/>
      <use xlink:href="#DejaVuSans-20" x="219.673828"/>
      <use xlink:href="#DejaVuSans-5b" x="251.460938"/>
      <use xlink:href="#DejaVuSans-6d" x="290.474609"/>
      <use xlink:href="#DejaVuSans-6d" x="387.886719"/>
      <use xlink:href="#DejaVuSans-5d" x="485.298828"/>
     </g>
    </g>
   </g>
   <g id="line2d_69">
    <path d="M 51.05 441.520247 
L 57.606675 441.520247 
L 57.750707 440.011744 
L 86.49692 440.011744 
L 86.641017 438.503241 
L 89.091287 438.503241 
L 89.306952 436.994738 
L 96.511789 436.994738 
L 96.655871 435.486235 
L 98.024382 435.486235 
L 98.168474 433.977732 
L 99.393505 433.977732 
L 99.537633 432.469229 
L 102.995852 432.469229 
L 103.139997 430.960726 
L 109.551821 430.960726 
L 109.695908 429.452223 
L 117.261038 429.452223 
L 117.405219 427.94372 
L 119.422521 427.94372 
L 119.566548 426.435217 
L 121.223327 426.435217 
L 121.367418 424.926714 
L 122.448437 424.926714 
L 122.592435 423.418211 
L 124.033418 423.418211 
L 124.17758 421.909708 
L 125.330239 421.909708 
L 125.474327 420.401205 
L 126.987042 420.401205 
L 127.2033 418.892702 
L 131.52625 418.892702 
L 131.670368 417.384199 
L 133.687658 417.384199 
L 133.759408 415.875696 
L 134.912153 415.875696 
L 135.056245 414.367193 
L 136.497177 414.367193 
L 136.713482 412.85869 
L 137.505824 412.85869 
L 137.649914 411.350187 
L 138.658568 411.350187 
L 138.802662 409.841683 
L 139.235543 409.841683 
L 139.451308 408.33318 
L 139.739464 408.33318 
L 139.883775 406.824677 
L 140.099498 406.824677 
L 140.243593 405.316174 
L 140.74801 405.316174 
L 140.892313 403.807671 
L 140.964053 403.807671 
L 141.108147 402.299168 
L 143.485839 402.299168 
L 143.630086 400.790665 
L 146.583685 400.790665 
L 146.727777 399.282162 
L 149.46554 399.282162 
L 149.609643 397.773659 
L 153.932437 397.773659 
L 154.076524 396.265156 
L 167.26132 396.265156 
L 167.405444 394.756653 
L 174.825952 394.756653 
L 174.970036 393.24815 
L 188.514803 393.24815 
L 188.658909 391.739647 
L 191.757237 391.739647 
L 191.9013 390.231144 
L 213.587036 390.231144 
L 213.731134 388.722641 
L 220.28773 388.722641 
L 220.431712 387.214138 
L 220.864033 387.214138 
L 221.008137 385.705635 
L 221.152193 385.705635 
L 221.296268 384.197132 
L 222.23264 384.197132 
L 222.376736 382.688629 
L 223.601807 382.688629 
L 223.745955 381.180126 
L 224.898646 381.180126 
L 225.042657 379.671623 
L 276.051598 379.671623 
L 276.124037 378.16312 
L 286.138046 378.16312 
L 286.282222 376.654617 
L 287.146684 376.654617 
L 287.290818 375.146114 
L 292.26185 375.146114 
L 292.406604 373.637611 
L 293.486953 373.637611 
L 293.631067 372.129108 
L 294.207424 372.129108 
L 294.351484 370.620605 
L 295.215759 370.620605 
L 295.36007 369.112102 
L 302.492461 369.112102 
L 302.636556 367.603599 
L 315.028571 367.603599 
L 315.172662 366.095096 
L 317.55052 366.095096 
L 317.694579 364.586593 
L 317.98271 364.586593 
L 318.054523 363.07809 
L 318.847341 363.07809 
L 318.99145 361.569587 
L 320.28828 361.569587 
L 320.432336 360.061084 
L 321.368679 360.061084 
L 321.512771 358.552581 
L 323.02603 358.552581 
L 323.170107 357.044078 
L 323.818264 357.044078 
L 323.962356 355.535575 
L 324.755132 355.535575 
L 324.89919 354.027072 
L 327.132407 354.027072 
L 327.276505 352.518569 
L 329.293814 352.518569 
L 329.437902 351.010066 
L 331.743963 351.010066 
L 331.88749 349.501563 
L 335.345733 349.501563 
L 335.489827 347.993059 
L 336.570814 347.993059 
L 336.714915 346.484556 
L 340.388994 346.484556 
L 340.533082 344.976053 
L 342.910897 344.976053 
L 343.055001 343.46755 
L 355.806982 343.46755 
L 355.951075 341.959047 
L 362.291177 341.959047 
L 362.435273 340.450544 
L 365.749415 340.450544 
L 365.893511 338.942041 
L 367.766714 338.942041 
L 367.910817 337.433538 
L 368.559542 337.433538 
L 368.703675 335.925035 
L 370.576909 335.925035 
L 370.720968 334.416532 
L 372.305972 334.416532 
L 372.378129 332.908029 
L 377.276884 332.908029 
L 377.420974 331.399526 
L 395.288537 331.399526 
L 395.360746 329.891023 
L 401.556881 329.891023 
L 401.700999 328.38252 
L 407.10417 328.38252 
L 407.248269 326.874017 
L 493.2 326.874017 
L 493.2 326.874017 
" clip-path="url(#p7ab80c908d)" style="fill: none; stroke: #9467bd; stroke-width: 1.5; stroke-linecap: square"/>
   </g>
   <g id="patch_13">
    <path d="M 51.05 447.252558 
L 51.05 321.141706 
" style="fill: none; stroke: #000000; stroke-width: 0.8; stroke-linejoin: miter; stroke-linecap: square"/>
   </g>
   <g id="patch_14">
    <path d="M 493.2 447.252558 
L 493.2 321.141706 
" style="fill: none; stroke: #000000; stroke-width: 0.8; stroke-linejoin: miter; stroke-linecap: square"/>
   </g>
   <g id="patch_15">
    <path d="M 51.05 447.252558 
L 493.2 447.252558 
" style="fill: none; stroke: #000000; stroke-width: 0.8; stroke-linejoin: miter; stroke-linecap: square"/>
   </g>
   <g id="patch_16">
    <path d="M 51.05 321.141706 
L 493.2 321.141706 
" style="fill: none; stroke: #000000; stroke-width: 0.8; stroke-linejoin: miter; stroke-linecap: square"/>
   </g>
  </g>
  <g id="text_25">
   <!-- Weather data - March 2024 -->
   <g transform="translate(169.874063 19.198125) scale(0.12 -0.12)">
    <defs>
     <path id="DejaVuSans-57" d="M 213 4666 
L 850 4666 
L 1831 722 
L 2809 4666 
L 3519 4666 
L 4500 722 
L 5478 4666 
L 6119 4666 
L 4947 0 
L 4153 0 
L 3169 4050 
L 2175 0 
L 1381 0 
L 213 4666 
z
" transform="scale(0.015625)"/>
     <path id="DejaVuSans-68" d="M 3513 2113 
L 3513 0 
L 2938 0 
L 2938 2094 
Q 2938 2591 2744 2837 
Q 2550 3084 2163 3084 
Q 1697 3084 1428 2787 
Q 1159 2491 1159 1978 
L 1159 0 
L 581 0 
L 581 4863 
L 1159 4863 
L 1159 2956 
Q 1366 3272 1645 3428 
Q 1925 3584 2291 3584 
Q 2894 3584 3203 3211 
Q 3513 2838 3513 2113 
z
" transform="scale(0.015625)"/>
     <path id="DejaVuSans-4d" d="M 628 4666 
L 1569 4666 
L 2759 1491 
L 3956 4666 
L 4897 4666 
L 4897 0 
L 4281 0 
L 4281 4097 
L 3078 897 
L 2444 897 
L 1241 4097 
L 1241 0 
L 628 0 
L 628 4666 
z
" transform="scale(0.015625)"/>
     <path id="DejaVuSans-63" d="M 3122 3366 
L 3122 2828 
Q 2878 2963 2633 3030 
Q 2388 3097 2138 3097 
Q 1578 3097 1268 2742 
Q 959 2388 959 1747 
Q 959 1106 1268 751 
Q 1578 397 2138 397 
Q 2388 397 2633 464 
Q 2878 531 3122 666 
L 3122 134 
Q 2881 22 2623 -34 
Q 2366 -91 2075 -91 
Q 1284 -91 818 406 
Q 353 903 353 1747 
Q 353 2603 823 3093 
Q 1294 3584 2113 3584 
Q 2378 3584 2631 3529 
Q 2884 3475 3122 3366 
z
" transform="scale(0.015625)"/>
    </defs>
    <use xlink:href="#DejaVuSans-57"/>
    <use xlink:href="#DejaVuSans-65" x="93.001953"/>
    <use xlink:href="#DejaVuSans-61" x="154.525391"/>
    <use xlink:href="#DejaVuSans-74" x="215.804688"/>
    <use xlink:href="#DejaVuSans-68" x="255.013672"/>
    <use xlink:href="#DejaVuSans-65" x="318.392578"/>
    <use xlink:href="#DejaVuSans-72" x="379.916016"/>
    <use xlink:href="#DejaVuSans-20" x="421.029297"/>
    <use xlink:href="#DejaVuSans-64" x="452.816406"/>
    <use xlink:href="#DejaVuSans-61" x="516.292969"/>
    <use xlink:href="#DejaVuSans-74" x="577.572266"/>
    <use xlink:href="#DejaVuSans-61" x="616.78125"/>
    <use xlink:href="#DejaVuSans-20" x="678.060547"/>
    <use xlink:href="#DejaVuSans-2d" x="709.847656"/>
    <use xlink:href="#DejaVuSans-20" x="745.931641"/>
    <use xlink:href="#DejaVuSans-4d" x="777.71875"/>
    <use xlink:href="#DejaVuSans-61" x="863.998047"/>
    <use xlink:href="#DejaVuSans-72" x="925.277344"/>
    <use xlink:href="#DejaVuSans-63" x="964.140625"/>
    <use xlink:href="#DejaVuSans-68" x="1019.121094"/>
    <use xlink:href="#DejaVuSans-20" x="1082.5"/>
    <use xlink:href="#DejaVuSans-32" x="1114.287109"/>
    <use xlink:href="#DejaVuSans-30" x="1177.910156"/>
    <use xlink:href="#DejaVuSans-32" x="1241.533203"/>
    <use xlink:href="#DejaVuSans-34" x="1305.15625"/>
   </g>
  </g>
 </g>
 <defs>
  <clipPath id="p452736825f">
   <rect x="51.05" y="32.4" width="442.15" height="126.110853"/>
  </clipPath>
  <clipPath id="p296e4258f3">
   <rect x="51.05" y="176.770853" width="442.15" height="126.110853"/>
  </clipPath>
  <clipPath id="p7ab80c908d">
   <rect x="51.05" y="321.141706" width="442.15" height="126.110853"/>
  </clipPath>
 </defs>
</svg>
