<?xml version="1.0" encoding="utf-8" standalone="no"?>
<!DOCTYPE svg PUBLIC "-//W3C//DTD SVG 1.1//EN"
  "http://www.w3.org/Graphics/SVG/1.1/DTD/svg11.dtd">
<svg xmlns:xlink="http://www.w3.org/1999/xlink" width="504pt" height="504pt" viewBox="0 0 504 504" xmlns="http://www.w3.org/2000/svg" version="1.1">
 <metadata>
  <rdf:RDF xmlns:dc="http://purl.org/dc/elements/1.1/" xmlns:cc="http://creativecommons.org/ns#" xmlns:rdf="http://www.w3.org/1999/02/22-rdf-syntax-ns#">
   <cc:Work>
    <dc:type rdf:resource="http://purl.org/dc/dcmitype/StillImage"/>
    <dc:date>2024-03-03T01:44:31.928016</dc:date>
    <dc:format>image/svg+xml</dc:format>
    <dc:creator>
     <cc:Agent>
      <dc:title>Matplotlib v3.6.3, https://matplotlib.org/</dc:title>
     </cc:Agent>
    </dc:creator>
   </cc:Work>
  </rdf:RDF>
 </metadata>
 <defs>
  <style type="text/css">*{stroke-linejoin: round; stroke-linecap: butt}</style>
 </defs>
 <g id="figure_1">
  <g id="patch_1">
   <path d="M 0 504 
L 504 504 
L 504 0 
L 0 0 
z
" style="fill: #ffffff"/>
  </g>
  <g id="axes_1">
   <g id="patch_2">
    <path d="M 51.05 158.493598 
L 487.281963 158.493598 
L 487.281963 32.4 
L 51.05 32.4 
z
" style="fill: #ffffff"/>
   </g>
   <g id="matplotlib.axis_1">
    <g id="xtick_1">
     <g id="line2d_1">
      <path d="M 103.641164 158.493598 
L 103.641164 32.4 
" clip-path="url(#p8833641a5c)" style="fill: none; stroke: #b0b0b0; stroke-width: 0.8; stroke-linecap: square"/>
     </g>
     <g id="line2d_2">
      <defs>
       <path id="m5ff0688e35" d="M 0 0 
L 0 3.5 
" style="stroke: #000000; stroke-width: 0.8"/>
      </defs>
      <g>
       <use xlink:href="#m5ff0688e35" x="103.641164" y="158.493598" style="stroke: #000000; stroke-width: 0.8"/>
      </g>
     </g>
    </g>
    <g id="xtick_2">
     <g id="line2d_3">
      <path d="M 156.284231 158.493598 
L 156.284231 32.4 
" clip-path="url(#p8833641a5c)" style="fill: none; stroke: #b0b0b0; stroke-width: 0.8; stroke-linecap: square"/>
     </g>
     <g id="line2d_4">
      <g>
       <use xlink:href="#m5ff0688e35" x="156.284231" y="158.493598" style="stroke: #000000; stroke-width: 0.8"/>
      </g>
     </g>
    </g>
    <g id="xtick_3">
     <g id="line2d_5">
      <path d="M 208.927298 158.493598 
L 208.927298 32.4 
" clip-path="url(#p8833641a5c)" style="fill: none; stroke: #b0b0b0; stroke-width: 0.8; stroke-linecap: square"/>
     </g>
     <g id="line2d_6">
      <g>
       <use xlink:href="#m5ff0688e35" x="208.927298" y="158.493598" style="stroke: #000000; stroke-width: 0.8"/>
      </g>
     </g>
    </g>
    <g id="xtick_4">
     <g id="line2d_7">
      <path d="M 261.570365 158.493598 
L 261.570365 32.4 
" clip-path="url(#p8833641a5c)" style="fill: none; stroke: #b0b0b0; stroke-width: 0.8; stroke-linecap: square"/>
     </g>
     <g id="line2d_8">
      <g>
       <use xlink:href="#m5ff0688e35" x="261.570365" y="158.493598" style="stroke: #000000; stroke-width: 0.8"/>
      </g>
     </g>
    </g>
    <g id="xtick_5">
     <g id="line2d_9">
      <path d="M 314.213432 158.493598 
L 314.213432 32.4 
" clip-path="url(#p8833641a5c)" style="fill: none; stroke: #b0b0b0; stroke-width: 0.8; stroke-linecap: square"/>
     </g>
     <g id="line2d_10">
      <g>
       <use xlink:href="#m5ff0688e35" x="314.213432" y="158.493598" style="stroke: #000000; stroke-width: 0.8"/>
      </g>
     </g>
    </g>
    <g id="xtick_6">
     <g id="line2d_11">
      <path d="M 366.856499 158.493598 
L 366.856499 32.4 
" clip-path="url(#p8833641a5c)" style="fill: none; stroke: #b0b0b0; stroke-width: 0.8; stroke-linecap: square"/>
     </g>
     <g id="line2d_12">
      <g>
       <use xlink:href="#m5ff0688e35" x="366.856499" y="158.493598" style="stroke: #000000; stroke-width: 0.8"/>
      </g>
     </g>
    </g>
    <g id="xtick_7">
     <g id="line2d_13">
      <path d="M 419.499565 158.493598 
L 419.499565 32.4 
" clip-path="url(#p8833641a5c)" style="fill: none; stroke: #b0b0b0; stroke-width: 0.8; stroke-linecap: square"/>
     </g>
     <g id="line2d_14">
      <g>
       <use xlink:href="#m5ff0688e35" x="419.499565" y="158.493598" style="stroke: #000000; stroke-width: 0.8"/>
      </g>
     </g>
    </g>
    <g id="xtick_8">
     <g id="line2d_15">
      <path d="M 472.142632 158.493598 
L 472.142632 32.4 
" clip-path="url(#p8833641a5c)" style="fill: none; stroke: #b0b0b0; stroke-width: 0.8; stroke-linecap: square"/>
     </g>
     <g id="line2d_16">
      <g>
       <use xlink:href="#m5ff0688e35" x="472.142632" y="158.493598" style="stroke: #000000; stroke-width: 0.8"/>
      </g>
     </g>
    </g>
   </g>
   <g id="matplotlib.axis_2">
    <g id="ytick_1">
     <g id="line2d_17">
      <path d="M 51.05 155.627834 
L 487.281963 155.627834 
" clip-path="url(#p8833641a5c)" style="fill: none; stroke: #b0b0b0; stroke-width: 0.8; stroke-linecap: square"/>
     </g>
     <g id="line2d_18">
      <defs>
       <path id="mdaebc4caf7" d="M 0 0 
L -3.5 0 
" style="stroke: #000000; stroke-width: 0.8"/>
      </defs>
      <g>
       <use xlink:href="#mdaebc4caf7" x="51.05" y="155.627834" style="stroke: #000000; stroke-width: 0.8"/>
      </g>
     </g>
     <g id="text_1">
      <!-- 4 -->
      <g transform="translate(37.6875 159.427053) scale(0.1 -0.1)">
       <defs>
        <path id="DejaVuSans-34" d="M 2419 4116 
L 825 1625 
L 2419 1625 
L 2419 4116 
z
M 2253 4666 
L 3047 4666 
L 3047 1625 
L 3713 1625 
L 3713 1100 
L 3047 1100 
L 3047 0 
L 2419 0 
L 2419 1100 
L 313 1100 
L 313 1709 
L 2253 4666 
z
" transform="scale(0.015625)"/>
       </defs>
       <use xlink:href="#DejaVuSans-34"/>
      </g>
     </g>
    </g>
    <g id="ytick_2">
     <g id="line2d_19">
      <path d="M 51.05 126.970198 
L 487.281963 126.970198 
" clip-path="url(#p8833641a5c)" style="fill: none; stroke: #b0b0b0; stroke-width: 0.8; stroke-linecap: square"/>
     </g>
     <g id="line2d_20">
      <g>
       <use xlink:href="#mdaebc4caf7" x="51.05" y="126.970198" style="stroke: #000000; stroke-width: 0.8"/>
      </g>
     </g>
     <g id="text_2">
      <!-- 5 -->
      <g transform="translate(37.6875 130.769417) scale(0.1 -0.1)">
       <defs>
        <path id="DejaVuSans-35" d="M 691 4666 
L 3169 4666 
L 3169 4134 
L 1269 4134 
L 1269 2991 
Q 1406 3038 1543 3061 
Q 1681 3084 1819 3084 
Q 2600 3084 3056 2656 
Q 3513 2228 3513 1497 
Q 3513 744 3044 326 
Q 2575 -91 1722 -91 
Q 1428 -91 1123 -41 
Q 819 9 494 109 
L 494 744 
Q 775 591 1075 516 
Q 1375 441 1709 441 
Q 2250 441 2565 725 
Q 2881 1009 2881 1497 
Q 2881 1984 2565 2268 
Q 2250 2553 1709 2553 
Q 1456 2553 1204 2497 
Q 953 2441 691 2322 
L 691 4666 
z
" transform="scale(0.015625)"/>
       </defs>
       <use xlink:href="#DejaVuSans-35"/>
      </g>
     </g>
    </g>
    <g id="ytick_3">
     <g id="line2d_21">
      <path d="M 51.05 98.312563 
L 487.281963 98.312563 
" clip-path="url(#p8833641a5c)" style="fill: none; stroke: #b0b0b0; stroke-width: 0.8; stroke-linecap: square"/>
     </g>
     <g id="line2d_22">
      <g>
       <use xlink:href="#mdaebc4caf7" x="51.05" y="98.312563" style="stroke: #000000; stroke-width: 0.8"/>
      </g>
     </g>
     <g id="text_3">
      <!-- 6 -->
      <g transform="translate(37.6875 102.111781) scale(0.1 -0.1)">
       <defs>
        <path id="DejaVuSans-36" d="M 2113 2584 
Q 1688 2584 1439 2293 
Q 1191 2003 1191 1497 
Q 1191 994 1439 701 
Q 1688 409 2113 409 
Q 2538 409 2786 701 
Q 3034 994 3034 1497 
Q 3034 2003 2786 2293 
Q 2538 2584 2113 2584 
z
M 3366 4563 
L 3366 3988 
Q 3128 4100 2886 4159 
Q 2644 4219 2406 4219 
Q 1781 4219 1451 3797 
Q 1122 3375 1075 2522 
Q 1259 2794 1537 2939 
Q 1816 3084 2150 3084 
Q 2853 3084 3261 2657 
Q 3669 2231 3669 1497 
Q 3669 778 3244 343 
Q 2819 -91 2113 -91 
Q 1303 -91 875 529 
Q 447 1150 447 2328 
Q 447 3434 972 4092 
Q 1497 4750 2381 4750 
Q 2619 4750 2861 4703 
Q 3103 4656 3366 4563 
z
" transform="scale(0.015625)"/>
       </defs>
       <use xlink:href="#DejaVuSans-36"/>
      </g>
     </g>
    </g>
    <g id="ytick_4">
     <g id="line2d_23">
      <path d="M 51.05 69.654927 
L 487.281963 69.654927 
" clip-path="url(#p8833641a5c)" style="fill: none; stroke: #b0b0b0; stroke-width: 0.8; stroke-linecap: square"/>
     </g>
     <g id="line2d_24">
      <g>
       <use xlink:href="#mdaebc4caf7" x="51.05" y="69.654927" style="stroke: #000000; stroke-width: 0.8"/>
      </g>
     </g>
     <g id="text_4">
      <!-- 7 -->
      <g transform="translate(37.6875 73.454145) scale(0.1 -0.1)">
       <defs>
        <path id="DejaVuSans-37" d="M 525 4666 
L 3525 4666 
L 3525 4397 
L 1831 0 
L 1172 0 
L 2766 4134 
L 525 4134 
L 525 4666 
z
" transform="scale(0.015625)"/>
       </defs>
       <use xlink:href="#DejaVuSans-37"/>
      </g>
     </g>
    </g>
    <g id="ytick_5">
     <g id="line2d_25">
      <path d="M 51.05 40.997291 
L 487.281963 40.997291 
" clip-path="url(#p8833641a5c)" style="fill: none; stroke: #b0b0b0; stroke-width: 0.8; stroke-linecap: square"/>
     </g>
     <g id="line2d_26">
      <g>
       <use xlink:href="#mdaebc4caf7" x="51.05" y="40.997291" style="stroke: #000000; stroke-width: 0.8"/>
      </g>
     </g>
     <g id="text_5">
      <!-- 8 -->
      <g transform="translate(37.6875 44.79651) scale(0.1 -0.1)">
       <defs>
        <path id="DejaVuSans-38" d="M 2034 2216 
Q 1584 2216 1326 1975 
Q 1069 1734 1069 1313 
Q 1069 891 1326 650 
Q 1584 409 2034 409 
Q 2484 409 2743 651 
Q 3003 894 3003 1313 
Q 3003 1734 2745 1975 
Q 2488 2216 2034 2216 
z
M 1403 2484 
Q 997 2584 770 2862 
Q 544 3141 544 3541 
Q 544 4100 942 4425 
Q 1341 4750 2034 4750 
Q 2731 4750 3128 4425 
Q 3525 4100 3525 3541 
Q 3525 3141 3298 2862 
Q 3072 2584 2669 2484 
Q 3125 2378 3379 2068 
Q 3634 1759 3634 1313 
Q 3634 634 3220 271 
Q 2806 -91 2034 -91 
Q 1263 -91 848 271 
Q 434 634 434 1313 
Q 434 1759 690 2068 
Q 947 2378 1403 2484 
z
M 1172 3481 
Q 1172 3119 1398 2916 
Q 1625 2713 2034 2713 
Q 2441 2713 2670 2916 
Q 2900 3119 2900 3481 
Q 2900 3844 2670 4047 
Q 2441 4250 2034 4250 
Q 1625 4250 1398 4047 
Q 1172 3844 1172 3481 
z
" transform="scale(0.015625)"/>
       </defs>
       <use xlink:href="#DejaVuSans-38"/>
      </g>
     </g>
    </g>
    <g id="text_6">
     <!-- Temperature [°C] -->
     <g transform="translate(31.607813 138.598361) rotate(-90) scale(0.1 -0.1)">
      <defs>
       <path id="DejaVuSans-54" d="M -19 4666 
L 3928 4666 
L 3928 4134 
L 2272 4134 
L 2272 0 
L 1638 0 
L 1638 4134 
L -19 4134 
L -19 4666 
z
" transform="scale(0.015625)"/>
       <path id="DejaVuSans-65" d="M 3597 1894 
L 3597 1613 
L 953 1613 
Q 991 1019 1311 708 
Q 1631 397 2203 397 
Q 2534 397 2845 478 
Q 3156 559 3463 722 
L 3463 178 
Q 3153 47 2828 -22 
Q 2503 -91 2169 -91 
Q 1331 -91 842 396 
Q 353 884 353 1716 
Q 353 2575 817 3079 
Q 1281 3584 2069 3584 
Q 2775 3584 3186 3129 
Q 3597 2675 3597 1894 
z
M 3022 2063 
Q 3016 2534 2758 2815 
Q 2500 3097 2075 3097 
Q 1594 3097 1305 2825 
Q 1016 2553 972 2059 
L 3022 2063 
z
" transform="scale(0.015625)"/>
       <path id="DejaVuSans-6d" d="M 3328 2828 
Q 3544 3216 3844 3400 
Q 4144 3584 4550 3584 
Q 5097 3584 5394 3201 
Q 5691 2819 5691 2113 
L 5691 0 
L 5113 0 
L 5113 2094 
Q 5113 2597 4934 2840 
Q 4756 3084 4391 3084 
Q 3944 3084 3684 2787 
Q 3425 2491 3425 1978 
L 3425 0 
L 2847 0 
L 2847 2094 
Q 2847 2600 2669 2842 
Q 2491 3084 2119 3084 
Q 1678 3084 1418 2786 
Q 1159 2488 1159 1978 
L 1159 0 
L 581 0 
L 581 3500 
L 1159 3500 
L 1159 2956 
Q 1356 3278 1631 3431 
Q 1906 3584 2284 3584 
Q 2666 3584 2933 3390 
Q 3200 3197 3328 2828 
z
" transform="scale(0.015625)"/>
       <path id="DejaVuSans-70" d="M 1159 525 
L 1159 -1331 
L 581 -1331 
L 581 3500 
L 1159 3500 
L 1159 2969 
Q 1341 3281 1617 3432 
Q 1894 3584 2278 3584 
Q 2916 3584 3314 3078 
Q 3713 2572 3713 1747 
Q 3713 922 3314 415 
Q 2916 -91 2278 -91 
Q 1894 -91 1617 61 
Q 1341 213 1159 525 
z
M 3116 1747 
Q 3116 2381 2855 2742 
Q 2594 3103 2138 3103 
Q 1681 3103 1420 2742 
Q 1159 2381 1159 1747 
Q 1159 1113 1420 752 
Q 1681 391 2138 391 
Q 2594 391 2855 752 
Q 3116 1113 3116 1747 
z
" transform="scale(0.015625)"/>
       <path id="DejaVuSans-72" d="M 2631 2963 
Q 2534 3019 2420 3045 
Q 2306 3072 2169 3072 
Q 1681 3072 1420 2755 
Q 1159 2438 1159 1844 
L 1159 0 
L 581 0 
L 581 3500 
L 1159 3500 
L 1159 2956 
Q 1341 3275 1631 3429 
Q 1922 3584 2338 3584 
Q 2397 3584 2469 3576 
Q 2541 3569 2628 3553 
L 2631 2963 
z
" transform="scale(0.015625)"/>
       <path id="DejaVuSans-61" d="M 2194 1759 
Q 1497 1759 1228 1600 
Q 959 1441 959 1056 
Q 959 750 1161 570 
Q 1363 391 1709 391 
Q 2188 391 2477 730 
Q 2766 1069 2766 1631 
L 2766 1759 
L 2194 1759 
z
M 3341 1997 
L 3341 0 
L 2766 0 
L 2766 531 
Q 2569 213 2275 61 
Q 1981 -91 1556 -91 
Q 1019 -91 701 211 
Q 384 513 384 1019 
Q 384 1609 779 1909 
Q 1175 2209 1959 2209 
L 2766 2209 
L 2766 2266 
Q 2766 2663 2505 2880 
Q 2244 3097 1772 3097 
Q 1472 3097 1187 3025 
Q 903 2953 641 2809 
L 641 3341 
Q 956 3463 1253 3523 
Q 1550 3584 1831 3584 
Q 2591 3584 2966 3190 
Q 3341 2797 3341 1997 
z
" transform="scale(0.015625)"/>
       <path id="DejaVuSans-74" d="M 1172 4494 
L 1172 3500 
L 2356 3500 
L 2356 3053 
L 1172 3053 
L 1172 1153 
Q 1172 725 1289 603 
Q 1406 481 1766 481 
L 2356 481 
L 2356 0 
L 1766 0 
Q 1100 0 847 248 
Q 594 497 594 1153 
L 594 3053 
L 172 3053 
L 172 3500 
L 594 3500 
L 594 4494 
L 1172 4494 
z
" transform="scale(0.015625)"/>
       <path id="DejaVuSans-75" d="M 544 1381 
L 544 3500 
L 1119 3500 
L 1119 1403 
Q 1119 906 1312 657 
Q 1506 409 1894 409 
Q 2359 409 2629 706 
Q 2900 1003 2900 1516 
L 2900 3500 
L 3475 3500 
L 3475 0 
L 2900 0 
L 2900 538 
Q 2691 219 2414 64 
Q 2138 -91 1772 -91 
Q 1169 -91 856 284 
Q 544 659 544 1381 
z
M 1991 3584 
L 1991 3584 
z
" transform="scale(0.015625)"/>
       <path id="DejaVuSans-20" transform="scale(0.015625)"/>
       <path id="DejaVuSans-5b" d="M 550 4863 
L 1875 4863 
L 1875 4416 
L 1125 4416 
L 1125 -397 
L 1875 -397 
L 1875 -844 
L 550 -844 
L 550 4863 
z
" transform="scale(0.015625)"/>
       <path id="DejaVuSans-b0" d="M 1600 4347 
Q 1350 4347 1178 4173 
Q 1006 4000 1006 3750 
Q 1006 3503 1178 3333 
Q 1350 3163 1600 3163 
Q 1850 3163 2022 3333 
Q 2194 3503 2194 3750 
Q 2194 3997 2020 4172 
Q 1847 4347 1600 4347 
z
M 1600 4750 
Q 1800 4750 1984 4673 
Q 2169 4597 2303 4453 
Q 2447 4313 2519 4134 
Q 2591 3956 2591 3750 
Q 2591 3338 2302 3052 
Q 2013 2766 1594 2766 
Q 1172 2766 890 3047 
Q 609 3328 609 3750 
Q 609 4169 896 4459 
Q 1184 4750 1600 4750 
z
" transform="scale(0.015625)"/>
       <path id="DejaVuSans-43" d="M 4122 4306 
L 4122 3641 
Q 3803 3938 3442 4084 
Q 3081 4231 2675 4231 
Q 1875 4231 1450 3742 
Q 1025 3253 1025 2328 
Q 1025 1406 1450 917 
Q 1875 428 2675 428 
Q 3081 428 3442 575 
Q 3803 722 4122 1019 
L 4122 359 
Q 3791 134 3420 21 
Q 3050 -91 2638 -91 
Q 1578 -91 968 557 
Q 359 1206 359 2328 
Q 359 3453 968 4101 
Q 1578 4750 2638 4750 
Q 3056 4750 3426 4639 
Q 3797 4528 4122 4306 
z
" transform="scale(0.015625)"/>
       <path id="DejaVuSans-5d" d="M 1947 4863 
L 1947 -844 
L 622 -844 
L 622 -397 
L 1369 -397 
L 1369 4416 
L 622 4416 
L 622 4863 
L 1947 4863 
z
" transform="scale(0.015625)"/>
      </defs>
      <use xlink:href="#DejaVuSans-54"/>
      <use xlink:href="#DejaVuSans-65" x="44.083984"/>
      <use xlink:href="#DejaVuSans-6d" x="105.607422"/>
      <use xlink:href="#DejaVuSans-70" x="203.019531"/>
      <use xlink:href="#DejaVuSans-65" x="266.496094"/>
      <use xlink:href="#DejaVuSans-72" x="328.019531"/>
      <use xlink:href="#DejaVuSans-61" x="369.132812"/>
      <use xlink:href="#DejaVuSans-74" x="430.412109"/>
      <use xlink:href="#DejaVuSans-75" x="469.621094"/>
      <use xlink:href="#DejaVuSans-72" x="533"/>
      <use xlink:href="#DejaVuSans-65" x="571.863281"/>
      <use xlink:href="#DejaVuSans-20" x="633.386719"/>
      <use xlink:href="#DejaVuSans-5b" x="665.173828"/>
      <use xlink:href="#DejaVuSans-b0" x="704.1875"/>
      <use xlink:href="#DejaVuSans-43" x="754.1875"/>
      <use xlink:href="#DejaVuSans-5d" x="824.011719"/>
     </g>
    </g>
   </g>
   <g id="line2d_27">
    <path d="M 51.05 118.372908 
L 52.453793 118.372908 
L 52.571307 115.507144 
L 54.559478 115.507144 
L 54.677022 118.372908 
L 56.080744 118.372908 
L 56.19726 121.238671 
L 57.250749 121.238671 
L 57.367103 118.372908 
L 57.718692 118.372908 
L 57.83587 115.507144 
L 58.069011 118.372908 
L 58.536955 118.372908 
L 58.654532 121.238671 
L 59.238863 121.238671 
L 59.356507 118.372908 
L 60.408703 118.372908 
L 60.526352 121.238671 
L 60.99439 121.238671 
L 61.110597 124.104435 
L 62.281378 124.104435 
L 62.397436 126.970198 
L 62.865957 126.970198 
L 62.982337 129.835962 
L 63.333994 129.835962 
L 63.450276 132.701726 
L 65.907612 132.701726 
L 66.023907 129.835962 
L 66.375431 129.835962 
L 66.49185 126.970198 
L 67.311267 126.970198 
L 67.42772 124.104435 
L 67.77925 124.104435 
L 67.895649 126.970198 
L 68.013184 126.970198 
L 68.129605 124.104435 
L 68.481213 124.104435 
L 68.597554 126.970198 
L 69.533422 126.970198 
L 69.650988 129.835962 
L 70.118927 129.835962 
L 70.235322 126.970198 
L 70.469295 126.970198 
L 70.586796 124.104435 
L 70.820883 124.104435 
L 70.937219 121.238671 
L 71.756785 121.238671 
L 71.87309 124.104435 
L 73.042916 124.104435 
L 73.160512 121.238671 
L 73.862459 121.238671 
L 73.97879 118.372908 
L 74.564235 118.372908 
L 74.680695 115.507144 
L 74.798266 115.507144 
L 74.914661 112.641381 
L 75.383747 112.641381 
L 75.616561 115.507144 
L 75.850529 115.507144 
L 75.968105 118.372908 
L 76.318465 118.372908 
L 76.436083 121.238671 
L 76.904037 121.238671 
L 77.02036 124.104435 
L 78.190198 124.104435 
L 78.307889 126.970198 
L 78.775684 126.970198 
L 78.89211 129.835962 
L 79.009733 129.835962 
L 79.126071 132.701726 
L 79.47775 132.701726 
L 79.594003 129.835962 
L 80.763835 129.835962 
L 80.881523 126.970198 
L 81.465747 126.970198 
L 81.583326 129.835962 
L 82.753096 129.835962 
L 82.869539 126.970198 
L 84.390316 126.970198 
L 84.507305 124.104435 
L 85.092877 124.104435 
L 85.209211 121.238671 
L 86.145076 121.238671 
L 86.262741 124.104435 
L 87.19862 124.104435 
L 87.314917 126.970198 
L 88.719734 126.970198 
L 88.835782 124.104435 
L 89.070189 124.104435 
L 89.186652 121.238671 
L 89.420617 121.238671 
L 89.538204 118.372908 
L 91.760287 118.372908 
L 91.877861 115.507144 
L 92.579784 115.507144 
L 92.696162 112.641381 
L 93.749651 112.641381 
L 93.865996 109.775617 
L 93.98359 109.775617 
L 94.099965 112.641381 
L 94.217495 112.641381 
L 94.333936 109.775617 
L 94.68541 109.775617 
L 94.801867 106.909853 
L 95.153429 106.909853 
L 95.270582 104.04409 
L 95.386759 104.04409 
L 95.503758 101.178326 
L 97.609473 101.178326 
L 97.72674 104.04409 
L 97.843439 104.04409 
L 97.960973 106.909853 
L 98.54534 106.909853 
L 98.662852 109.775617 
L 98.77931 109.775617 
L 98.896808 106.909853 
L 99.716251 106.909853 
L 99.832228 109.775617 
L 100.417081 109.775617 
L 100.534565 112.641381 
L 100.65104 112.641381 
L 100.768574 115.507144 
L 101.002557 115.507144 
L 101.118986 118.372908 
L 101.470473 118.372908 
L 101.586919 121.238671 
L 101.821631 121.238671 
L 102.054841 124.104435 
L 102.522783 124.104435 
L 102.64034 126.970198 
L 103.224691 126.970198 
L 103.342238 129.835962 
L 104.394524 129.835962 
L 104.51208 132.701726 
L 109.19137 132.701726 
L 109.307819 135.567489 
L 110.127183 135.567489 
L 110.243682 138.433253 
L 111.063067 138.433253 
L 111.17957 141.299016 
L 114.806496 141.299016 
L 114.923032 138.433253 
L 116.210413 138.433253 
L 116.326834 135.567489 
L 117.496677 135.567489 
L 117.61411 132.701726 
L 117.848268 132.701726 
L 117.964609 129.835962 
L 118.198582 129.835962 
L 118.316161 126.970198 
L 118.900492 126.970198 
L 119.017891 124.104435 
L 119.3684 124.104435 
L 119.602361 121.238671 
L 119.836356 121.238671 
L 119.953991 118.372908 
L 120.421696 118.372908 
L 120.538254 115.507144 
L 121.474135 115.507144 
L 121.708919 118.372908 
L 121.825095 118.372908 
L 121.942062 121.238671 
L 122.059579 121.238671 
L 122.176025 124.104435 
L 122.409991 124.104435 
L 122.527463 126.970198 
L 122.995499 126.970198 
L 123.111901 129.835962 
L 123.57983 129.835962 
L 123.697326 132.701726 
L 127.323316 132.701726 
L 127.440805 129.835962 
L 127.557282 129.835962 
L 127.674813 132.701726 
L 127.908798 132.701726 
L 128.025214 129.835962 
L 130.364874 129.835962 
L 130.598798 126.970198 
L 131.066781 126.970198 
L 131.184288 124.104435 
L 131.534718 124.104435 
L 131.652183 121.238671 
L 132.002659 121.238671 
L 132.120029 118.372908 
L 133.640425 118.372908 
L 133.757889 115.507144 
L 134.342338 115.507144 
L 134.45979 112.641381 
L 134.693845 112.641381 
L 134.811246 109.775617 
L 135.512179 109.775617 
L 135.629651 106.909853 
L 139.489591 106.909853 
L 139.606958 104.04409 
L 139.957523 104.04409 
L 140.074972 101.178326 
L 140.659424 101.178326 
L 140.776924 98.312563 
L 141.12736 98.312563 
L 141.244784 95.446799 
L 142.180694 95.446799 
L 142.297201 92.581035 
L 142.531165 92.581035 
L 142.648587 89.715272 
L 142.76513 89.715272 
L 142.882665 86.849508 
L 143.233062 86.849508 
L 143.350558 83.983745 
L 144.052442 83.983745 
L 144.168921 81.117981 
L 144.636853 81.117981 
L 144.754261 78.252217 
L 145.807632 78.252217 
L 146.040669 75.386454 
L 146.626 75.386454 
L 146.742553 72.52069 
L 147.328069 72.52069 
L 147.444449 69.654927 
L 149.082222 69.654927 
L 149.199577 66.789163 
L 149.784125 66.789163 
L 149.901584 63.923399 
L 150.252973 63.923399 
L 150.486013 61.057636 
L 150.719986 61.057636 
L 150.837494 58.191872 
L 151.421896 58.191872 
L 151.53937 55.326109 
L 152.708885 55.326109 
L 152.825689 58.191872 
L 154.463456 58.191872 
L 154.580891 55.326109 
L 154.69837 55.326109 
L 154.814381 52.460345 
L 155.165356 52.460345 
L 155.282876 49.594582 
L 155.984801 49.594582 
L 156.101219 46.728818 
L 156.45281 46.728818 
L 156.569153 43.863054 
L 156.804116 43.863054 
L 157.037092 40.997291 
L 157.271073 40.997291 
L 157.388595 38.131527 
L 158.090425 38.131527 
L 158.206927 40.997291 
L 159.494247 40.997291 
L 159.610715 43.863054 
L 159.844686 43.863054 
L 159.962162 46.728818 
L 160.430201 46.728818 
L 160.546585 49.594582 
L 161.249448 49.594582 
L 161.482459 52.460345 
L 162.184356 52.460345 
L 162.301796 55.326109 
L 162.652283 55.326109 
L 162.769735 58.191872 
L 163.120213 58.191872 
L 163.237818 61.057636 
L 163.705321 61.057636 
L 163.822108 63.923399 
L 164.524005 63.923399 
L 164.64155 66.789163 
L 165.459871 66.789163 
L 165.577357 69.654927 
L 166.161793 69.654927 
L 166.279258 72.52069 
L 166.863684 72.52069 
L 166.981182 75.386454 
L 167.449173 75.386454 
L 167.565577 78.252217 
L 167.683107 75.386454 
L 167.800598 78.252217 
L 168.150795 78.252217 
L 168.267494 81.117981 
L 169.320839 81.117981 
L 169.437314 83.983745 
L 170.958696 83.983745 
L 171.075095 86.849508 
L 171.309058 86.849508 
L 171.426515 83.983745 
L 172.712856 83.983745 
L 172.946829 86.849508 
L 173.06425 83.983745 
L 173.532311 83.983745 
L 173.648722 81.117981 
L 174.234162 81.117981 
L 174.350613 78.252217 
L 176.80724 78.252217 
L 176.924255 75.386454 
L 177.392184 75.386454 
L 177.509806 72.52069 
L 177.626145 75.386454 
L 177.743677 72.52069 
L 177.861076 75.386454 
L 179.381437 75.386454 
L 179.49788 72.52069 
L 183.124879 72.52069 
L 183.242385 75.386454 
L 183.592686 75.386454 
L 183.709288 72.52069 
L 185.230548 72.52069 
L 185.347049 75.386454 
L 185.932458 75.386454 
L 186.048959 78.252217 
L 187.570072 78.252217 
L 187.687668 81.117981 
L 188.154649 81.117981 
L 188.272101 83.983745 
L 189.67602 83.983745 
L 189.792424 86.849508 
L 190.962249 86.849508 
L 191.079674 89.715272 
L 191.196229 86.849508 
L 191.313706 86.849508 
L 191.430185 89.715272 
L 191.54754 86.849508 
L 191.664147 89.715272 
L 192.1329 89.715272 
L 192.249128 92.581035 
L 192.71754 92.581035 
L 192.833979 95.446799 
L 194.238769 95.446799 
L 194.471757 98.312563 
L 197.747283 98.312563 
L 197.864735 101.178326 
L 200.788869 101.178326 
L 201.02282 98.312563 
L 203.947849 98.312563 
L 204.064403 101.178326 
L 206.638036 101.178326 
L 206.755593 104.04409 
L 207.223437 104.04409 
L 207.339929 106.909853 
L 207.691035 106.909853 
L 207.807875 109.775617 
L 208.27581 109.775617 
L 208.39334 112.641381 
L 208.9777 112.641381 
L 209.095201 115.507144 
L 213.54053 115.507144 
L 213.657039 118.372908 
L 213.891015 118.372908 
L 214.125944 121.238671 
L 214.710277 121.238671 
L 214.826884 124.104435 
L 218.102431 124.104435 
L 218.219897 126.970198 
L 219.27226 126.970198 
L 219.389739 129.835962 
L 219.506224 129.835962 
L 219.62383 126.970198 
L 219.74019 129.835962 
L 220.676999 129.835962 
L 220.910034 132.701726 
L 223.717633 132.701726 
L 223.835156 135.567489 
L 223.951592 135.567489 
L 224.068983 132.701726 
L 226.291286 132.701726 
L 226.408662 135.567489 
L 227.461098 135.567489 
L 227.57843 132.701726 
L 231.087956 132.701726 
L 231.204584 135.567489 
L 232.842363 135.567489 
L 232.959645 138.433253 
L 243.956442 138.433253 
L 244.072785 141.299016 
L 248.167485 141.299016 
L 248.284199 144.16478 
L 249.454039 144.16478 
L 249.571307 141.299016 
L 250.507255 141.299016 
L 250.623873 144.16478 
L 251.09181 144.16478 
L 251.209274 141.299016 
L 254.719035 141.299016 
L 254.835275 144.16478 
L 256.122268 144.16478 
L 256.239081 147.030544 
L 263.960002 147.030544 
L 264.077549 144.16478 
L 265.36381 144.16478 
L 265.48115 147.030544 
L 266.183272 147.030544 
L 266.299674 144.16478 
L 268.873323 144.16478 
L 268.990675 147.030544 
L 270.394595 147.030544 
L 270.511086 144.16478 
L 277.413591 144.16478 
L 277.530124 141.299016 
L 279.167904 141.299016 
L 279.285244 144.16478 
L 281.039618 144.16478 
L 281.157021 147.030544 
L 281.858943 147.030544 
L 281.975493 144.16478 
L 282.911369 144.16478 
L 283.028736 147.030544 
L 283.496823 147.030544 
L 283.613271 144.16478 
L 285.13453 144.16478 
L 285.251047 147.030544 
L 285.484998 147.030544 
L 285.602572 144.16478 
L 288.995408 144.16478 
L 289.111541 147.030544 
L 295.077668 147.030544 
L 295.195083 144.16478 
L 295.546579 144.16478 
L 295.779582 147.030544 
L 296.013529 147.030544 
L 296.131015 144.16478 
L 296.247502 147.030544 
L 298.938563 147.030544 
L 299.055109 149.896307 
L 302.798604 149.896307 
L 302.916002 147.030544 
L 305.489788 147.030544 
L 305.606199 149.896307 
L 310.988445 149.896307 
L 311.10441 147.030544 
L 314.029028 147.030544 
L 314.146515 149.896307 
L 317.889883 149.896307 
L 318.006475 152.762071 
L 318.591777 152.762071 
L 318.708371 149.896307 
L 320.346147 149.896307 
L 320.463492 152.762071 
L 326.546336 152.762071 
L 326.663272 149.896307 
L 328.886321 149.896307 
L 329.002944 147.030544 
L 330.640708 147.030544 
L 330.875471 144.16478 
L 331.460145 144.16478 
L 331.576579 141.299016 
L 333.44832 141.299016 
L 333.565629 138.433253 
L 334.033763 138.433253 
L 334.150223 135.567489 
L 334.384182 135.567489 
L 334.501709 132.701726 
L 334.735758 132.701726 
L 334.852135 129.835962 
L 335.086101 129.835962 
L 335.320042 126.970198 
L 335.554043 126.970198 
L 335.671512 124.104435 
L 335.905622 124.104435 
L 336.02197 121.238671 
L 336.841506 121.238671 
L 336.957827 124.104435 
L 338.595609 124.104435 
L 338.712978 126.970198 
L 339.532513 126.970198 
L 339.765441 124.104435 
L 340.116939 124.104435 
L 340.233385 121.238671 
L 342.573045 121.238671 
L 342.690519 118.372908 
L 343.27495 118.372908 
L 343.392509 121.238671 
L 344.210806 121.238671 
L 344.328229 124.104435 
L 344.912716 124.104435 
L 345.030219 121.238671 
L 345.732117 121.238671 
L 345.848585 118.372908 
L 345.966059 121.238671 
L 346.901852 121.238671 
L 347.01842 118.372908 
L 347.720331 118.372908 
L 347.837792 115.507144 
L 348.305695 115.507144 
L 348.423249 112.641381 
L 348.890156 112.641381 
L 349.007634 109.775617 
L 349.475457 109.775617 
L 349.592056 106.909853 
L 350.177383 106.909853 
L 350.293958 104.04409 
L 350.528829 104.04409 
L 350.761885 101.178326 
L 350.879194 101.178326 
L 350.995858 98.312563 
L 351.581146 98.312563 
L 351.697755 95.446799 
L 352.633621 95.446799 
L 352.868613 92.581035 
L 353.101555 92.581035 
L 353.218819 95.446799 
L 353.452917 95.446799 
L 353.569499 98.312563 
L 354.037426 98.312563 
L 354.154841 101.178326 
L 357.430152 101.178326 
L 357.546932 104.04409 
L 358.015719 104.04409 
L 358.132377 101.178326 
L 358.834211 101.178326 
L 358.950732 98.312563 
L 359.18471 98.312563 
L 359.302145 101.178326 
L 359.53565 101.178326 
L 359.65263 104.04409 
L 360.004004 104.04409 
L 360.120568 106.909853 
L 361.407743 106.909853 
L 361.525381 109.775617 
L 361.875636 109.775617 
L 361.992304 106.909853 
L 363.045424 106.909853 
L 363.162131 104.04409 
L 363.63008 104.04409 
L 363.864896 101.178326 
L 364.215369 101.178326 
L 364.33197 98.312563 
L 364.683176 98.312563 
L 364.799907 95.446799 
L 364.91722 95.446799 
L 365.033885 92.581035 
L 365.267841 92.581035 
L 365.385305 89.715272 
L 365.619276 89.715272 
L 365.73577 86.849508 
L 365.970763 86.849508 
L 366.203705 89.715272 
L 366.321091 86.849508 
L 366.906473 86.849508 
L 367.022964 83.983745 
L 367.257145 83.983745 
L 367.37354 86.849508 
L 368.076317 86.849508 
L 368.309352 89.715272 
L 368.426597 89.715272 
L 368.543371 92.581035 
L 369.011308 92.581035 
L 369.12855 89.715272 
L 369.362697 89.715272 
L 369.479257 86.849508 
L 369.713213 86.849508 
L 369.830663 83.983745 
L 370.41603 83.983745 
L 370.53209 81.117981 
L 370.649087 81.117981 
L 370.766578 78.252217 
L 370.883052 78.252217 
L 371.117013 72.52069 
L 371.23439 72.52069 
L 371.350982 69.654927 
L 371.468517 69.654927 
L 371.584941 72.52069 
L 371.818904 72.52069 
L 371.936317 75.386454 
L 372.05288 75.386454 
L 372.1704 72.52069 
L 372.521787 72.52069 
L 372.75478 69.654927 
L 373.690651 69.654927 
L 373.808179 66.789163 
L 374.042074 66.789163 
L 374.158591 63.923399 
L 374.509918 63.923399 
L 374.626512 61.057636 
L 374.861509 61.057636 
L 375.094442 55.326109 
L 375.211926 55.326109 
L 375.445911 49.594582 
L 375.679748 49.594582 
L 375.797239 52.460345 
L 376.14776 52.460345 
L 376.264271 49.594582 
L 377.200142 49.594582 
L 377.317455 46.728818 
L 377.434113 46.728818 
L 377.551631 43.863054 
L 377.668079 43.863054 
L 377.785567 40.997291 
L 378.253519 40.997291 
L 378.369971 43.863054 
L 378.487462 43.863054 
L 378.603935 46.728818 
L 379.071876 46.728818 
L 379.305806 43.863054 
L 379.423053 43.863054 
L 379.539808 40.997291 
L 379.65728 40.997291 
L 379.773772 38.131527 
L 379.891143 38.131527 
L 380.00775 40.997291 
L 380.826951 40.997291 
L 380.943616 38.131527 
L 381.528547 38.131527 
L 381.645502 40.997291 
L 381.762932 40.997291 
L 381.879461 43.863054 
L 382.347399 43.863054 
L 382.4646 46.728818 
L 383.049304 46.728818 
L 383.1667 49.594582 
L 383.283275 49.594582 
L 383.400883 52.460345 
L 384.102832 52.460345 
L 384.219136 49.594582 
L 385.272693 49.594582 
L 385.388958 52.460345 
L 385.506606 52.460345 
L 385.622937 49.594582 
L 386.324835 49.594582 
L 386.442441 52.460345 
L 386.79277 52.460345 
L 386.910351 55.326109 
L 387.144432 55.326109 
L 387.2607 58.191872 
L 388.664496 58.191872 
L 388.781753 61.057636 
L 389.366401 61.057636 
L 389.48368 63.923399 
L 390.536245 63.923399 
L 390.653525 61.057636 
L 391.004175 61.057636 
L 391.12145 58.191872 
L 391.706068 58.191872 
L 391.823379 61.057636 
L 392.057286 61.057636 
L 392.174009 58.191872 
L 393.343844 58.191872 
L 393.461243 55.326109 
L 394.045742 55.326109 
L 394.163314 58.191872 
L 394.279711 55.326109 
L 394.397372 58.191872 
L 394.514547 58.191872 
L 394.747635 61.057636 
L 394.981601 66.789163 
L 395.215577 66.789163 
L 395.333106 69.654927 
L 395.800836 69.654927 
L 395.917459 72.52069 
L 396.268839 72.52069 
L 396.385409 75.386454 
L 398.25713 75.386454 
L 398.374816 78.252217 
L 399.075955 78.252217 
L 399.192995 81.117981 
L 399.894905 81.117981 
L 400.128873 86.849508 
L 400.714484 86.849508 
L 400.830761 89.715272 
L 402.936471 89.715272 
L 403.054097 92.581035 
L 403.75565 92.581035 
L 403.87234 89.715272 
L 405.276141 89.715272 
L 405.393705 92.581035 
L 405.978035 92.581035 
L 406.095348 95.446799 
L 406.445981 95.446799 
L 406.563547 92.581035 
L 410.657378 92.581035 
L 410.774625 95.446799 
L 411.359285 95.446799 
L 411.476553 98.312563 
L 412.061186 98.312563 
L 412.295125 101.178326 
L 412.412368 101.178326 
L 412.529118 104.04409 
L 412.880304 104.04409 
L 412.997053 106.909853 
L 413.932931 106.909853 
L 414.050149 109.775617 
L 415.336726 109.775617 
L 415.454098 112.641381 
L 416.857845 112.641381 
L 416.974495 115.507144 
L 418.027719 115.507144 
L 418.144321 118.372908 
L 418.847172 118.372908 
L 418.963341 121.238671 
L 421.185907 121.238671 
L 421.303325 124.104435 
L 423.408822 124.104435 
L 423.525578 126.970198 
L 430.194019 126.970198 
L 430.310641 124.104435 
L 430.544599 124.104435 
L 430.661937 126.970198 
L 431.714443 126.970198 
L 431.83197 124.104435 
L 433.937471 124.104435 
L 434.05411 126.970198 
L 434.639311 126.970198 
L 434.756003 124.104435 
L 434.989976 124.104435 
L 435.107321 126.970198 
L 444.114689 126.970198 
L 444.232192 129.835962 
L 447.273514 129.835962 
L 447.391135 132.701726 
L 452.654911 132.701726 
L 452.771471 135.567489 
L 457.568335 135.567489 
L 457.684783 138.433253 
L 457.80223 138.433253 
L 457.918734 135.567489 
L 458.73813 135.567489 
L 458.854614 138.433253 
L 459.440081 138.433253 
L 459.556516 135.567489 
L 461.662226 135.567489 
L 461.779688 138.433253 
L 467.979335 138.433253 
L 468.096851 141.299016 
L 478.274839 141.299016 
L 478.391002 144.16478 
L 482.836483 144.16478 
L 482.95324 147.030544 
L 485.760836 147.030544 
L 485.878317 149.896307 
L 487.281963 149.896307 
L 487.281963 149.896307 
" clip-path="url(#p8833641a5c)" style="fill: none; stroke: #1f77b4; stroke-width: 1.5; stroke-linecap: square"/>
   </g>
   <g id="patch_3">
    <path d="M 51.05 158.493598 
L 51.05 32.4 
" style="fill: none; stroke: #000000; stroke-width: 0.8; stroke-linejoin: miter; stroke-linecap: square"/>
   </g>
   <g id="patch_4">
    <path d="M 487.281963 158.493598 
L 487.281963 32.4 
" style="fill: none; stroke: #000000; stroke-width: 0.8; stroke-linejoin: miter; stroke-linecap: square"/>
   </g>
   <g id="patch_5">
    <path d="M 51.05 158.493598 
L 487.281963 158.493598 
" style="fill: none; stroke: #000000; stroke-width: 0.8; stroke-linejoin: miter; stroke-linecap: square"/>
   </g>
   <g id="patch_6">
    <path d="M 51.05 32.4 
L 487.281963 32.4 
" style="fill: none; stroke: #000000; stroke-width: 0.8; stroke-linejoin: miter; stroke-linecap: square"/>
   </g>
  </g>
  <g id="axes_2">
   <g id="patch_7">
    <path d="M 51.05 302.873078 
L 487.281963 302.873078 
L 487.281963 176.77948 
L 51.05 176.77948 
z
" style="fill: #ffffff"/>
   </g>
   <g id="matplotlib.axis_3">
    <g id="xtick_9">
     <g id="line2d_28">
      <path d="M 103.641164 302.873078 
L 103.641164 176.77948 
" clip-path="url(#p31d682c242)" style="fill: none; stroke: #b0b0b0; stroke-width: 0.8; stroke-linecap: square"/>
     </g>
     <g id="line2d_29">
      <g>
       <use xlink:href="#m5ff0688e35" x="103.641164" y="302.873078" style="stroke: #000000; stroke-width: 0.8"/>
      </g>
     </g>
    </g>
    <g id="xtick_10">
     <g id="line2d_30">
      <path d="M 156.284231 302.873078 
L 156.284231 176.77948 
" clip-path="url(#p31d682c242)" style="fill: none; stroke: #b0b0b0; stroke-width: 0.8; stroke-linecap: square"/>
     </g>
     <g id="line2d_31">
      <g>
       <use xlink:href="#m5ff0688e35" x="156.284231" y="302.873078" style="stroke: #000000; stroke-width: 0.8"/>
      </g>
     </g>
    </g>
    <g id="xtick_11">
     <g id="line2d_32">
      <path d="M 208.927298 302.873078 
L 208.927298 176.77948 
" clip-path="url(#p31d682c242)" style="fill: none; stroke: #b0b0b0; stroke-width: 0.8; stroke-linecap: square"/>
     </g>
     <g id="line2d_33">
      <g>
       <use xlink:href="#m5ff0688e35" x="208.927298" y="302.873078" style="stroke: #000000; stroke-width: 0.8"/>
      </g>
     </g>
    </g>
    <g id="xtick_12">
     <g id="line2d_34">
      <path d="M 261.570365 302.873078 
L 261.570365 176.77948 
" clip-path="url(#p31d682c242)" style="fill: none; stroke: #b0b0b0; stroke-width: 0.8; stroke-linecap: square"/>
     </g>
     <g id="line2d_35">
      <g>
       <use xlink:href="#m5ff0688e35" x="261.570365" y="302.873078" style="stroke: #000000; stroke-width: 0.8"/>
      </g>
     </g>
    </g>
    <g id="xtick_13">
     <g id="line2d_36">
      <path d="M 314.213432 302.873078 
L 314.213432 176.77948 
" clip-path="url(#p31d682c242)" style="fill: none; stroke: #b0b0b0; stroke-width: 0.8; stroke-linecap: square"/>
     </g>
     <g id="line2d_37">
      <g>
       <use xlink:href="#m5ff0688e35" x="314.213432" y="302.873078" style="stroke: #000000; stroke-width: 0.8"/>
      </g>
     </g>
    </g>
    <g id="xtick_14">
     <g id="line2d_38">
      <path d="M 366.856499 302.873078 
L 366.856499 176.77948 
" clip-path="url(#p31d682c242)" style="fill: none; stroke: #b0b0b0; stroke-width: 0.8; stroke-linecap: square"/>
     </g>
     <g id="line2d_39">
      <g>
       <use xlink:href="#m5ff0688e35" x="366.856499" y="302.873078" style="stroke: #000000; stroke-width: 0.8"/>
      </g>
     </g>
    </g>
    <g id="xtick_15">
     <g id="line2d_40">
      <path d="M 419.499565 302.873078 
L 419.499565 176.77948 
" clip-path="url(#p31d682c242)" style="fill: none; stroke: #b0b0b0; stroke-width: 0.8; stroke-linecap: square"/>
     </g>
     <g id="line2d_41">
      <g>
       <use xlink:href="#m5ff0688e35" x="419.499565" y="302.873078" style="stroke: #000000; stroke-width: 0.8"/>
      </g>
     </g>
    </g>
    <g id="xtick_16">
     <g id="line2d_42">
      <path d="M 472.142632 302.873078 
L 472.142632 176.77948 
" clip-path="url(#p31d682c242)" style="fill: none; stroke: #b0b0b0; stroke-width: 0.8; stroke-linecap: square"/>
     </g>
     <g id="line2d_43">
      <g>
       <use xlink:href="#m5ff0688e35" x="472.142632" y="302.873078" style="stroke: #000000; stroke-width: 0.8"/>
      </g>
     </g>
    </g>
   </g>
   <g id="matplotlib.axis_4">
    <g id="ytick_6">
     <g id="line2d_44">
      <path d="M 51.05 302.873078 
L 487.281963 302.873078 
" clip-path="url(#p31d682c242)" style="fill: none; stroke: #b0b0b0; stroke-width: 0.8; stroke-linecap: square"/>
     </g>
     <g id="line2d_45">
      <g>
       <use xlink:href="#mdaebc4caf7" x="51.05" y="302.873078" style="stroke: #000000; stroke-width: 0.8"/>
      </g>
     </g>
     <g id="text_7">
      <!-- 0 -->
      <g transform="translate(37.6875 306.672297) scale(0.1 -0.1)">
       <defs>
        <path id="DejaVuSans-30" d="M 2034 4250 
Q 1547 4250 1301 3770 
Q 1056 3291 1056 2328 
Q 1056 1369 1301 889 
Q 1547 409 2034 409 
Q 2525 409 2770 889 
Q 3016 1369 3016 2328 
Q 3016 3291 2770 3770 
Q 2525 4250 2034 4250 
z
M 2034 4750 
Q 2819 4750 3233 4129 
Q 3647 3509 3647 2328 
Q 3647 1150 3233 529 
Q 2819 -91 2034 -91 
Q 1250 -91 836 529 
Q 422 1150 422 2328 
Q 422 3509 836 4129 
Q 1250 4750 2034 4750 
z
" transform="scale(0.015625)"/>
       </defs>
       <use xlink:href="#DejaVuSans-30"/>
      </g>
     </g>
    </g>
    <g id="ytick_7">
     <g id="line2d_46">
      <path d="M 51.05 277.654359 
L 487.281963 277.654359 
" clip-path="url(#p31d682c242)" style="fill: none; stroke: #b0b0b0; stroke-width: 0.8; stroke-linecap: square"/>
     </g>
     <g id="line2d_47">
      <g>
       <use xlink:href="#mdaebc4caf7" x="51.05" y="277.654359" style="stroke: #000000; stroke-width: 0.8"/>
      </g>
     </g>
     <g id="text_8">
      <!-- 20 -->
      <g transform="translate(31.325 281.453577) scale(0.1 -0.1)">
       <defs>
        <path id="DejaVuSans-32" d="M 1228 531 
L 3431 531 
L 3431 0 
L 469 0 
L 469 531 
Q 828 903 1448 1529 
Q 2069 2156 2228 2338 
Q 2531 2678 2651 2914 
Q 2772 3150 2772 3378 
Q 2772 3750 2511 3984 
Q 2250 4219 1831 4219 
Q 1534 4219 1204 4116 
Q 875 4013 500 3803 
L 500 4441 
Q 881 4594 1212 4672 
Q 1544 4750 1819 4750 
Q 2544 4750 2975 4387 
Q 3406 4025 3406 3419 
Q 3406 3131 3298 2873 
Q 3191 2616 2906 2266 
Q 2828 2175 2409 1742 
Q 1991 1309 1228 531 
z
" transform="scale(0.015625)"/>
       </defs>
       <use xlink:href="#DejaVuSans-32"/>
       <use xlink:href="#DejaVuSans-30" x="63.623047"/>
      </g>
     </g>
    </g>
    <g id="ytick_8">
     <g id="line2d_48">
      <path d="M 51.05 252.435639 
L 487.281963 252.435639 
" clip-path="url(#p31d682c242)" style="fill: none; stroke: #b0b0b0; stroke-width: 0.8; stroke-linecap: square"/>
     </g>
     <g id="line2d_49">
      <g>
       <use xlink:href="#mdaebc4caf7" x="51.05" y="252.435639" style="stroke: #000000; stroke-width: 0.8"/>
      </g>
     </g>
     <g id="text_9">
      <!-- 40 -->
      <g transform="translate(31.325 256.234858) scale(0.1 -0.1)">
       <use xlink:href="#DejaVuSans-34"/>
       <use xlink:href="#DejaVuSans-30" x="63.623047"/>
      </g>
     </g>
    </g>
    <g id="ytick_9">
     <g id="line2d_50">
      <path d="M 51.05 227.216919 
L 487.281963 227.216919 
" clip-path="url(#p31d682c242)" style="fill: none; stroke: #b0b0b0; stroke-width: 0.8; stroke-linecap: square"/>
     </g>
     <g id="line2d_51">
      <g>
       <use xlink:href="#mdaebc4caf7" x="51.05" y="227.216919" style="stroke: #000000; stroke-width: 0.8"/>
      </g>
     </g>
     <g id="text_10">
      <!-- 60 -->
      <g transform="translate(31.325 231.016138) scale(0.1 -0.1)">
       <use xlink:href="#DejaVuSans-36"/>
       <use xlink:href="#DejaVuSans-30" x="63.623047"/>
      </g>
     </g>
    </g>
    <g id="ytick_10">
     <g id="line2d_52">
      <path d="M 51.05 201.9982 
L 487.281963 201.9982 
" clip-path="url(#p31d682c242)" style="fill: none; stroke: #b0b0b0; stroke-width: 0.8; stroke-linecap: square"/>
     </g>
     <g id="line2d_53">
      <g>
       <use xlink:href="#mdaebc4caf7" x="51.05" y="201.9982" style="stroke: #000000; stroke-width: 0.8"/>
      </g>
     </g>
     <g id="text_11">
      <!-- 80 -->
      <g transform="translate(31.325 205.797419) scale(0.1 -0.1)">
       <use xlink:href="#DejaVuSans-38"/>
       <use xlink:href="#DejaVuSans-30" x="63.623047"/>
      </g>
     </g>
    </g>
    <g id="ytick_11">
     <g id="line2d_54">
      <path d="M 51.05 176.77948 
L 487.281963 176.77948 
" clip-path="url(#p31d682c242)" style="fill: none; stroke: #b0b0b0; stroke-width: 0.8; stroke-linecap: square"/>
     </g>
     <g id="line2d_55">
      <g>
       <use xlink:href="#mdaebc4caf7" x="51.05" y="176.77948" style="stroke: #000000; stroke-width: 0.8"/>
      </g>
     </g>
     <g id="text_12">
      <!-- 100 -->
      <g transform="translate(24.9625 180.578699) scale(0.1 -0.1)">
       <defs>
        <path id="DejaVuSans-31" d="M 794 531 
L 1825 531 
L 1825 4091 
L 703 3866 
L 703 4441 
L 1819 4666 
L 2450 4666 
L 2450 531 
L 3481 531 
L 3481 0 
L 794 0 
L 794 531 
z
" transform="scale(0.015625)"/>
       </defs>
       <use xlink:href="#DejaVuSans-31"/>
       <use xlink:href="#DejaVuSans-30" x="63.623047"/>
       <use xlink:href="#DejaVuSans-30" x="127.246094"/>
      </g>
     </g>
    </g>
    <g id="text_13">
     <!-- Humidity [%RH] -->
     <g transform="translate(18.882813 279.973154) rotate(-90) scale(0.1 -0.1)">
      <defs>
       <path id="DejaVuSans-48" d="M 628 4666 
L 1259 4666 
L 1259 2753 
L 3553 2753 
L 3553 4666 
L 4184 4666 
L 4184 0 
L 3553 0 
L 3553 2222 
L 1259 2222 
L 1259 0 
L 628 0 
L 628 4666 
z
" transform="scale(0.015625)"/>
       <path id="DejaVuSans-69" d="M 603 3500 
L 1178 3500 
L 1178 0 
L 603 0 
L 603 3500 
z
M 603 4863 
L 1178 4863 
L 1178 4134 
L 603 4134 
L 603 4863 
z
" transform="scale(0.015625)"/>
       <path id="DejaVuSans-64" d="M 2906 2969 
L 2906 4863 
L 3481 4863 
L 3481 0 
L 2906 0 
L 2906 525 
Q 2725 213 2448 61 
Q 2172 -91 1784 -91 
Q 1150 -91 751 415 
Q 353 922 353 1747 
Q 353 2572 751 3078 
Q 1150 3584 1784 3584 
Q 2172 3584 2448 3432 
Q 2725 3281 2906 2969 
z
M 947 1747 
Q 947 1113 1208 752 
Q 1469 391 1925 391 
Q 2381 391 2643 752 
Q 2906 1113 2906 1747 
Q 2906 2381 2643 2742 
Q 2381 3103 1925 3103 
Q 1469 3103 1208 2742 
Q 947 2381 947 1747 
z
" transform="scale(0.015625)"/>
       <path id="DejaVuSans-79" d="M 2059 -325 
Q 1816 -950 1584 -1140 
Q 1353 -1331 966 -1331 
L 506 -1331 
L 506 -850 
L 844 -850 
Q 1081 -850 1212 -737 
Q 1344 -625 1503 -206 
L 1606 56 
L 191 3500 
L 800 3500 
L 1894 763 
L 2988 3500 
L 3597 3500 
L 2059 -325 
z
" transform="scale(0.015625)"/>
       <path id="DejaVuSans-25" d="M 4653 2053 
Q 4381 2053 4226 1822 
Q 4072 1591 4072 1178 
Q 4072 772 4226 539 
Q 4381 306 4653 306 
Q 4919 306 5073 539 
Q 5228 772 5228 1178 
Q 5228 1588 5073 1820 
Q 4919 2053 4653 2053 
z
M 4653 2450 
Q 5147 2450 5437 2106 
Q 5728 1763 5728 1178 
Q 5728 594 5436 251 
Q 5144 -91 4653 -91 
Q 4153 -91 3862 251 
Q 3572 594 3572 1178 
Q 3572 1766 3864 2108 
Q 4156 2450 4653 2450 
z
M 1428 4353 
Q 1159 4353 1004 4120 
Q 850 3888 850 3481 
Q 850 3069 1003 2837 
Q 1156 2606 1428 2606 
Q 1700 2606 1854 2837 
Q 2009 3069 2009 3481 
Q 2009 3884 1853 4118 
Q 1697 4353 1428 4353 
z
M 4250 4750 
L 4750 4750 
L 1831 -91 
L 1331 -91 
L 4250 4750 
z
M 1428 4750 
Q 1922 4750 2215 4408 
Q 2509 4066 2509 3481 
Q 2509 2891 2217 2550 
Q 1925 2209 1428 2209 
Q 931 2209 642 2551 
Q 353 2894 353 3481 
Q 353 4063 643 4406 
Q 934 4750 1428 4750 
z
" transform="scale(0.015625)"/>
       <path id="DejaVuSans-52" d="M 2841 2188 
Q 3044 2119 3236 1894 
Q 3428 1669 3622 1275 
L 4263 0 
L 3584 0 
L 2988 1197 
Q 2756 1666 2539 1819 
Q 2322 1972 1947 1972 
L 1259 1972 
L 1259 0 
L 628 0 
L 628 4666 
L 2053 4666 
Q 2853 4666 3247 4331 
Q 3641 3997 3641 3322 
Q 3641 2881 3436 2590 
Q 3231 2300 2841 2188 
z
M 1259 4147 
L 1259 2491 
L 2053 2491 
Q 2509 2491 2742 2702 
Q 2975 2913 2975 3322 
Q 2975 3731 2742 3939 
Q 2509 4147 2053 4147 
L 1259 4147 
z
" transform="scale(0.015625)"/>
      </defs>
      <use xlink:href="#DejaVuSans-48"/>
      <use xlink:href="#DejaVuSans-75" x="75.195312"/>
      <use xlink:href="#DejaVuSans-6d" x="138.574219"/>
      <use xlink:href="#DejaVuSans-69" x="235.986328"/>
      <use xlink:href="#DejaVuSans-64" x="263.769531"/>
      <use xlink:href="#DejaVuSans-69" x="327.246094"/>
      <use xlink:href="#DejaVuSans-74" x="355.029297"/>
      <use xlink:href="#DejaVuSans-79" x="394.238281"/>
      <use xlink:href="#DejaVuSans-20" x="453.417969"/>
      <use xlink:href="#DejaVuSans-5b" x="485.205078"/>
      <use xlink:href="#DejaVuSans-25" x="524.21875"/>
      <use xlink:href="#DejaVuSans-52" x="619.238281"/>
      <use xlink:href="#DejaVuSans-48" x="688.720703"/>
      <use xlink:href="#DejaVuSans-5d" x="763.916016"/>
     </g>
    </g>
   </g>
   <g id="line2d_56">
    <path d="M 51.05 199.476328 
L 59.94076 199.476328 
L 60.174702 198.215392 
L 62.046474 198.215392 
L 62.281378 196.954456 
L 64.269782 196.954456 
L 64.387344 195.69352 
L 66.141366 195.69352 
L 66.257882 196.954456 
L 73.393874 196.954456 
L 73.510853 198.215392 
L 74.798266 198.215392 
L 74.914661 199.476328 
L 76.670039 199.476328 
L 76.786404 198.215392 
L 78.073804 198.215392 
L 78.190198 196.954456 
L 83.455115 196.954456 
L 83.571444 198.215392 
L 90.825638 198.215392 
L 91.058398 199.476328 
L 94.451576 199.476328 
L 94.567899 200.737264 
L 95.971695 200.737264 
L 96.089283 201.9982 
L 98.662852 201.9982 
L 98.77931 200.737264 
L 101.002557 200.737264 
L 101.118986 199.476328 
L 102.172206 199.476328 
L 102.28882 198.215392 
L 103.224691 198.215392 
L 103.342238 196.954456 
L 104.51208 196.954456 
L 104.628485 195.69352 
L 105.915857 195.69352 
L 106.032312 194.432584 
L 107.904037 194.432584 
L 108.021626 193.171648 
L 110.243682 193.171648 
L 110.361215 191.910712 
L 116.326834 191.910712 
L 116.444274 193.171648 
L 119.3684 193.171648 
L 119.602361 194.432584 
L 120.538254 194.432584 
L 120.655842 195.69352 
L 123.57983 195.69352 
L 123.697326 194.432584 
L 125.217606 194.432584 
L 125.335168 193.171648 
L 127.206898 193.171648 
L 127.323316 191.910712 
L 129.896944 191.910712 
L 130.014325 190.649776 
L 131.652183 190.649776 
L 131.768692 189.38884 
L 144.988412 189.38884 
L 145.104789 190.649776 
L 148.147412 190.649776 
L 148.263425 191.910712 
L 150.252973 191.910712 
L 150.486013 193.171648 
L 151.305411 193.171648 
L 151.421896 191.910712 
L 151.53937 199.476328 
L 152.708885 199.476328 
L 152.825689 191.910712 
L 153.059653 191.910712 
L 153.177249 193.171648 
L 154.463456 193.171648 
L 154.580891 199.476328 
L 157.037092 199.476328 
L 157.154359 198.215392 
L 157.622483 198.215392 
L 157.738992 199.476328 
L 162.652283 199.476328 
L 162.769735 193.171648 
L 168.735416 193.171648 
L 168.852924 191.910712 
L 171.192481 191.910712 
L 171.309058 190.649776 
L 174.000201 190.649776 
L 174.116656 189.38884 
L 181.955029 189.38884 
L 182.071506 190.649776 
L 190.84581 190.649776 
L 190.962249 189.38884 
L 224.771002 189.38884 
L 224.887478 190.649776 
L 226.993166 190.649776 
L 227.110559 191.910712 
L 230.152234 191.910712 
L 230.268718 193.171648 
L 230.502691 193.171648 
L 230.620131 191.910712 
L 233.310295 191.910712 
L 233.428074 190.649776 
L 237.521704 190.649776 
L 237.639395 189.38884 
L 341.872193 189.38884 
L 341.988253 190.649776 
L 343.742889 190.649776 
L 343.860402 191.910712 
L 344.328229 191.910712 
L 344.444782 193.171648 
L 347.136021 193.171648 
L 347.252403 191.910712 
L 350.177383 191.910712 
L 350.293958 193.171648 
L 353.218819 193.171648 
L 353.335521 194.432584 
L 355.207258 194.432584 
L 355.324608 193.171648 
L 358.950732 193.171648 
L 359.068209 191.910712 
L 359.419658 191.910712 
L 359.53565 193.171648 
L 363.279512 193.171648 
L 363.396109 194.432584 
L 365.267841 194.432584 
L 365.385305 193.171648 
L 365.853174 193.171648 
L 365.970763 194.432584 
L 366.43768 194.432584 
L 366.555179 195.69352 
L 367.49086 195.69352 
L 367.607518 196.954456 
L 368.076317 196.954456 
L 368.309352 198.215392 
L 368.660726 198.215392 
L 368.777347 199.476328 
L 368.894853 198.215392 
L 371.0005 198.215392 
L 371.117013 196.954456 
L 371.350982 196.954456 
L 371.468517 198.215392 
L 371.584941 198.215392 
L 371.702381 199.476328 
L 371.936317 199.476328 
L 372.05288 200.737264 
L 373.690651 200.737264 
L 373.808179 201.9982 
L 374.977575 201.9982 
L 375.094442 209.563816 
L 375.211926 209.563816 
L 375.32842 208.30288 
L 375.562378 208.30288 
L 375.797239 210.824752 
L 376.381692 210.824752 
L 376.498245 212.085688 
L 376.732215 212.085688 
L 376.849585 213.346624 
L 377.434113 213.346624 
L 377.551631 212.085688 
L 378.136944 212.085688 
L 378.253519 213.346624 
L 378.837898 213.346624 
L 378.955236 214.60756 
L 379.071876 214.60756 
L 379.305806 213.346624 
L 379.423053 213.346624 
L 379.539808 212.085688 
L 379.891143 212.085688 
L 380.00775 213.346624 
L 380.709645 213.346624 
L 380.826951 212.085688 
L 381.528547 212.085688 
L 381.645502 213.346624 
L 382.58137 213.346624 
L 382.698988 212.085688 
L 385.272693 212.085688 
L 385.388958 213.346624 
L 387.144432 213.346624 
L 387.2607 207.041944 
L 387.963561 207.041944 
L 388.196567 205.781008 
L 388.430535 205.781008 
L 388.547845 204.520072 
L 389.015765 204.520072 
L 389.249673 201.9982 
L 389.48368 201.9982 
L 389.600365 203.259136 
L 390.068296 203.259136 
L 390.302258 201.9982 
L 391.12145 201.9982 
L 391.238143 200.737264 
L 391.706068 200.737264 
L 391.823379 201.9982 
L 393.343844 201.9982 
L 393.461243 209.563816 
L 394.045742 209.563816 
L 394.163314 201.9982 
L 394.279711 209.563816 
L 394.397372 201.9982 
L 395.215577 201.9982 
L 395.333106 200.737264 
L 396.502727 200.737264 
L 396.619377 199.476328 
L 398.491098 199.476328 
L 398.608496 200.737264 
L 400.94845 200.737264 
L 401.06474 201.9982 
L 405.510855 201.9982 
L 405.744065 203.259136 
L 405.861339 204.520072 
L 405.978035 204.520072 
L 406.095348 205.781008 
L 406.679944 205.781008 
L 406.797179 204.520072 
L 407.381837 204.520072 
L 407.499293 203.259136 
L 408.551675 203.259136 
L 408.668945 201.9982 
L 409.487548 201.9982 
L 409.604778 200.737264 
L 410.540715 200.737264 
L 410.657378 199.476328 
L 412.061186 199.476328 
L 412.295125 198.215392 
L 413.816234 198.215392 
L 413.932931 196.954456 
L 416.272599 196.954456 
L 416.389946 195.69352 
L 418.495639 195.69352 
L 418.612262 194.432584 
L 420.133557 194.432584 
L 420.250025 193.171648 
L 427.386312 193.171648 
L 427.503942 191.910712 
L 439.201392 191.910712 
L 439.318861 193.171648 
L 447.975537 193.171648 
L 448.092126 191.910712 
L 456.982878 191.910712 
L 457.10033 190.649776 
L 462.130169 190.649776 
L 462.247665 191.910712 
L 470.904459 191.910712 
L 471.020912 190.649776 
L 472.424711 190.649776 
L 472.542238 191.910712 
L 476.519666 191.910712 
L 476.636109 190.649776 
L 479.795143 190.649776 
L 479.911661 191.910712 
L 482.836483 191.910712 
L 482.95324 193.171648 
L 485.760836 193.171648 
L 485.878317 191.910712 
L 487.281963 191.910712 
L 487.281963 191.910712 
" clip-path="url(#p31d682c242)" style="fill: none; stroke: #ff7f0e; stroke-width: 1.5; stroke-linecap: square"/>
   </g>
   <g id="patch_8">
    <path d="M 51.05 302.873078 
L 51.05 176.77948 
" style="fill: none; stroke: #000000; stroke-width: 0.8; stroke-linejoin: miter; stroke-linecap: square"/>
   </g>
   <g id="patch_9">
    <path d="M 487.281963 302.873078 
L 487.281963 176.77948 
" style="fill: none; stroke: #000000; stroke-width: 0.8; stroke-linejoin: miter; stroke-linecap: square"/>
   </g>
   <g id="patch_10">
    <path d="M 51.05 302.873078 
L 487.281963 302.873078 
" style="fill: none; stroke: #000000; stroke-width: 0.8; stroke-linejoin: miter; stroke-linecap: square"/>
   </g>
   <g id="patch_11">
    <path d="M 51.05 176.77948 
L 487.281963 176.77948 
" style="fill: none; stroke: #000000; stroke-width: 0.8; stroke-linejoin: miter; stroke-linecap: square"/>
   </g>
  </g>
  <g id="axes_3">
   <g id="patch_12">
    <path d="M 51.05 447.252558 
L 487.281963 447.252558 
L 487.281963 321.158961 
L 51.05 321.158961 
z
" style="fill: #ffffff"/>
   </g>
   <g id="matplotlib.axis_5">
    <g id="xtick_17">
     <g id="line2d_57">
      <path d="M 103.641164 447.252558 
L 103.641164 321.158961 
" clip-path="url(#p9655cc85a9)" style="fill: none; stroke: #b0b0b0; stroke-width: 0.8; stroke-linecap: square"/>
     </g>
     <g id="line2d_58">
      <g>
       <use xlink:href="#m5ff0688e35" x="103.641164" y="447.252558" style="stroke: #000000; stroke-width: 0.8"/>
      </g>
     </g>
     <g id="text_14">
      <!-- 03-01 06 -->
      <g transform="translate(89.696245 491.417649) rotate(-45) scale(0.1 -0.1)">
       <defs>
        <path id="DejaVuSans-33" d="M 2597 2516 
Q 3050 2419 3304 2112 
Q 3559 1806 3559 1356 
Q 3559 666 3084 287 
Q 2609 -91 1734 -91 
Q 1441 -91 1130 -33 
Q 819 25 488 141 
L 488 750 
Q 750 597 1062 519 
Q 1375 441 1716 441 
Q 2309 441 2620 675 
Q 2931 909 2931 1356 
Q 2931 1769 2642 2001 
Q 2353 2234 1838 2234 
L 1294 2234 
L 1294 2753 
L 1863 2753 
Q 2328 2753 2575 2939 
Q 2822 3125 2822 3475 
Q 2822 3834 2567 4026 
Q 2313 4219 1838 4219 
Q 1578 4219 1281 4162 
Q 984 4106 628 3988 
L 628 4550 
Q 988 4650 1302 4700 
Q 1616 4750 1894 4750 
Q 2613 4750 3031 4423 
Q 3450 4097 3450 3541 
Q 3450 3153 3228 2886 
Q 3006 2619 2597 2516 
z
" transform="scale(0.015625)"/>
        <path id="DejaVuSans-2d" d="M 313 2009 
L 1997 2009 
L 1997 1497 
L 313 1497 
L 313 2009 
z
" transform="scale(0.015625)"/>
       </defs>
       <use xlink:href="#DejaVuSans-30"/>
       <use xlink:href="#DejaVuSans-33" x="63.623047"/>
       <use xlink:href="#DejaVuSans-2d" x="127.246094"/>
       <use xlink:href="#DejaVuSans-30" x="163.330078"/>
       <use xlink:href="#DejaVuSans-31" x="226.953125"/>
       <use xlink:href="#DejaVuSans-20" x="290.576172"/>
       <use xlink:href="#DejaVuSans-30" x="322.363281"/>
       <use xlink:href="#DejaVuSans-36" x="385.986328"/>
      </g>
     </g>
    </g>
    <g id="xtick_18">
     <g id="line2d_59">
      <path d="M 156.284231 447.252558 
L 156.284231 321.158961 
" clip-path="url(#p9655cc85a9)" style="fill: none; stroke: #b0b0b0; stroke-width: 0.8; stroke-linecap: square"/>
     </g>
     <g id="line2d_60">
      <g>
       <use xlink:href="#m5ff0688e35" x="156.284231" y="447.252558" style="stroke: #000000; stroke-width: 0.8"/>
      </g>
     </g>
     <g id="text_15">
      <!-- 03-01 12 -->
      <g transform="translate(142.339312 491.417649) rotate(-45) scale(0.1 -0.1)">
       <use xlink:href="#DejaVuSans-30"/>
       <use xlink:href="#DejaVuSans-33" x="63.623047"/>
       <use xlink:href="#DejaVuSans-2d" x="127.246094"/>
       <use xlink:href="#DejaVuSans-30" x="163.330078"/>
       <use xlink:href="#DejaVuSans-31" x="226.953125"/>
       <use xlink:href="#DejaVuSans-20" x="290.576172"/>
       <use xlink:href="#DejaVuSans-31" x="322.363281"/>
       <use xlink:href="#DejaVuSans-32" x="385.986328"/>
      </g>
     </g>
    </g>
    <g id="xtick_19">
     <g id="line2d_61">
      <path d="M 208.927298 447.252558 
L 208.927298 321.158961 
" clip-path="url(#p9655cc85a9)" style="fill: none; stroke: #b0b0b0; stroke-width: 0.8; stroke-linecap: square"/>
     </g>
     <g id="line2d_62">
      <g>
       <use xlink:href="#m5ff0688e35" x="208.927298" y="447.252558" style="stroke: #000000; stroke-width: 0.8"/>
      </g>
     </g>
     <g id="text_16">
      <!-- 03-01 18 -->
      <g transform="translate(194.982379 491.417649) rotate(-45) scale(0.1 -0.1)">
       <use xlink:href="#DejaVuSans-30"/>
       <use xlink:href="#DejaVuSans-33" x="63.623047"/>
       <use xlink:href="#DejaVuSans-2d" x="127.246094"/>
       <use xlink:href="#DejaVuSans-30" x="163.330078"/>
       <use xlink:href="#DejaVuSans-31" x="226.953125"/>
       <use xlink:href="#DejaVuSans-20" x="290.576172"/>
       <use xlink:href="#DejaVuSans-31" x="322.363281"/>
       <use xlink:href="#DejaVuSans-38" x="385.986328"/>
      </g>
     </g>
    </g>
    <g id="xtick_20">
     <g id="line2d_63">
      <path d="M 261.570365 447.252558 
L 261.570365 321.158961 
" clip-path="url(#p9655cc85a9)" style="fill: none; stroke: #b0b0b0; stroke-width: 0.8; stroke-linecap: square"/>
     </g>
     <g id="line2d_64">
      <g>
       <use xlink:href="#m5ff0688e35" x="261.570365" y="447.252558" style="stroke: #000000; stroke-width: 0.8"/>
      </g>
     </g>
     <g id="text_17">
      <!-- 03-02 00 -->
      <g transform="translate(247.625446 491.417649) rotate(-45) scale(0.1 -0.1)">
       <use xlink:href="#DejaVuSans-30"/>
       <use xlink:href="#DejaVuSans-33" x="63.623047"/>
       <use xlink:href="#DejaVuSans-2d" x="127.246094"/>
       <use xlink:href="#DejaVuSans-30" x="163.330078"/>
       <use xlink:href="#DejaVuSans-32" x="226.953125"/>
       <use xlink:href="#DejaVuSans-20" x="290.576172"/>
       <use xlink:href="#DejaVuSans-30" x="322.363281"/>
       <use xlink:href="#DejaVuSans-30" x="385.986328"/>
      </g>
     </g>
    </g>
    <g id="xtick_21">
     <g id="line2d_65">
      <path d="M 314.213432 447.252558 
L 314.213432 321.158961 
" clip-path="url(#p9655cc85a9)" style="fill: none; stroke: #b0b0b0; stroke-width: 0.8; stroke-linecap: square"/>
     </g>
     <g id="line2d_66">
      <g>
       <use xlink:href="#m5ff0688e35" x="314.213432" y="447.252558" style="stroke: #000000; stroke-width: 0.8"/>
      </g>
     </g>
     <g id="text_18">
      <!-- 03-02 06 -->
      <g transform="translate(300.268513 491.417649) rotate(-45) scale(0.1 -0.1)">
       <use xlink:href="#DejaVuSans-30"/>
       <use xlink:href="#DejaVuSans-33" x="63.623047"/>
       <use xlink:href="#DejaVuSans-2d" x="127.246094"/>
       <use xlink:href="#DejaVuSans-30" x="163.330078"/>
       <use xlink:href="#DejaVuSans-32" x="226.953125"/>
       <use xlink:href="#DejaVuSans-20" x="290.576172"/>
       <use xlink:href="#DejaVuSans-30" x="322.363281"/>
       <use xlink:href="#DejaVuSans-36" x="385.986328"/>
      </g>
     </g>
    </g>
    <g id="xtick_22">
     <g id="line2d_67">
      <path d="M 366.856499 447.252558 
L 366.856499 321.158961 
" clip-path="url(#p9655cc85a9)" style="fill: none; stroke: #b0b0b0; stroke-width: 0.8; stroke-linecap: square"/>
     </g>
     <g id="line2d_68">
      <g>
       <use xlink:href="#m5ff0688e35" x="366.856499" y="447.252558" style="stroke: #000000; stroke-width: 0.8"/>
      </g>
     </g>
     <g id="text_19">
      <!-- 03-02 12 -->
      <g transform="translate(352.911579 491.417649) rotate(-45) scale(0.1 -0.1)">
       <use xlink:href="#DejaVuSans-30"/>
       <use xlink:href="#DejaVuSans-33" x="63.623047"/>
       <use xlink:href="#DejaVuSans-2d" x="127.246094"/>
       <use xlink:href="#DejaVuSans-30" x="163.330078"/>
       <use xlink:href="#DejaVuSans-32" x="226.953125"/>
       <use xlink:href="#DejaVuSans-20" x="290.576172"/>
       <use xlink:href="#DejaVuSans-31" x="322.363281"/>
       <use xlink:href="#DejaVuSans-32" x="385.986328"/>
      </g>
     </g>
    </g>
    <g id="xtick_23">
     <g id="line2d_69">
      <path d="M 419.499565 447.252558 
L 419.499565 321.158961 
" clip-path="url(#p9655cc85a9)" style="fill: none; stroke: #b0b0b0; stroke-width: 0.8; stroke-linecap: square"/>
     </g>
     <g id="line2d_70">
      <g>
       <use xlink:href="#m5ff0688e35" x="419.499565" y="447.252558" style="stroke: #000000; stroke-width: 0.8"/>
      </g>
     </g>
     <g id="text_20">
      <!-- 03-02 18 -->
      <g transform="translate(405.554646 491.417649) rotate(-45) scale(0.1 -0.1)">
       <use xlink:href="#DejaVuSans-30"/>
       <use xlink:href="#DejaVuSans-33" x="63.623047"/>
       <use xlink:href="#DejaVuSans-2d" x="127.246094"/>
       <use xlink:href="#DejaVuSans-30" x="163.330078"/>
       <use xlink:href="#DejaVuSans-32" x="226.953125"/>
       <use xlink:href="#DejaVuSans-20" x="290.576172"/>
       <use xlink:href="#DejaVuSans-31" x="322.363281"/>
       <use xlink:href="#DejaVuSans-38" x="385.986328"/>
      </g>
     </g>
    </g>
    <g id="xtick_24">
     <g id="line2d_71">
      <path d="M 472.142632 447.252558 
L 472.142632 321.158961 
" clip-path="url(#p9655cc85a9)" style="fill: none; stroke: #b0b0b0; stroke-width: 0.8; stroke-linecap: square"/>
     </g>
     <g id="line2d_72">
      <g>
       <use xlink:href="#m5ff0688e35" x="472.142632" y="447.252558" style="stroke: #000000; stroke-width: 0.8"/>
      </g>
     </g>
     <g id="text_21">
      <!-- 03-03 00 -->
      <g transform="translate(458.197713 491.417649) rotate(-45) scale(0.1 -0.1)">
       <use xlink:href="#DejaVuSans-30"/>
       <use xlink:href="#DejaVuSans-33" x="63.623047"/>
       <use xlink:href="#DejaVuSans-2d" x="127.246094"/>
       <use xlink:href="#DejaVuSans-30" x="163.330078"/>
       <use xlink:href="#DejaVuSans-33" x="226.953125"/>
       <use xlink:href="#DejaVuSans-20" x="290.576172"/>
       <use xlink:href="#DejaVuSans-30" x="322.363281"/>
       <use xlink:href="#DejaVuSans-30" x="385.986328"/>
      </g>
     </g>
    </g>
   </g>
   <g id="matplotlib.axis_6">
    <g id="ytick_12">
     <g id="line2d_73">
      <path d="M 51.05 442.241978 
L 487.281963 442.241978 
" clip-path="url(#p9655cc85a9)" style="fill: none; stroke: #b0b0b0; stroke-width: 0.8; stroke-linecap: square"/>
     </g>
     <g id="line2d_74">
      <g>
       <use xlink:href="#mdaebc4caf7" x="51.05" y="442.241978" style="stroke: #000000; stroke-width: 0.8"/>
      </g>
     </g>
     <g id="text_22">
      <!-- 710 -->
      <g transform="translate(24.9625 446.041197) scale(0.1 -0.1)">
       <use xlink:href="#DejaVuSans-37"/>
       <use xlink:href="#DejaVuSans-31" x="63.623047"/>
       <use xlink:href="#DejaVuSans-30" x="127.246094"/>
      </g>
     </g>
    </g>
    <g id="ytick_13">
     <g id="line2d_75">
      <path d="M 51.05 406.194637 
L 487.281963 406.194637 
" clip-path="url(#p9655cc85a9)" style="fill: none; stroke: #b0b0b0; stroke-width: 0.8; stroke-linecap: square"/>
     </g>
     <g id="line2d_76">
      <g>
       <use xlink:href="#mdaebc4caf7" x="51.05" y="406.194637" style="stroke: #000000; stroke-width: 0.8"/>
      </g>
     </g>
     <g id="text_23">
      <!-- 715 -->
      <g transform="translate(24.9625 409.993856) scale(0.1 -0.1)">
       <use xlink:href="#DejaVuSans-37"/>
       <use xlink:href="#DejaVuSans-31" x="63.623047"/>
       <use xlink:href="#DejaVuSans-35" x="127.246094"/>
      </g>
     </g>
    </g>
    <g id="ytick_14">
     <g id="line2d_77">
      <path d="M 51.05 370.147297 
L 487.281963 370.147297 
" clip-path="url(#p9655cc85a9)" style="fill: none; stroke: #b0b0b0; stroke-width: 0.8; stroke-linecap: square"/>
     </g>
     <g id="line2d_78">
      <g>
       <use xlink:href="#mdaebc4caf7" x="51.05" y="370.147297" style="stroke: #000000; stroke-width: 0.8"/>
      </g>
     </g>
     <g id="text_24">
      <!-- 720 -->
      <g transform="translate(24.9625 373.946515) scale(0.1 -0.1)">
       <use xlink:href="#DejaVuSans-37"/>
       <use xlink:href="#DejaVuSans-32" x="63.623047"/>
       <use xlink:href="#DejaVuSans-30" x="127.246094"/>
      </g>
     </g>
    </g>
    <g id="ytick_15">
     <g id="line2d_79">
      <path d="M 51.05 334.099956 
L 487.281963 334.099956 
" clip-path="url(#p9655cc85a9)" style="fill: none; stroke: #b0b0b0; stroke-width: 0.8; stroke-linecap: square"/>
     </g>
     <g id="line2d_80">
      <g>
       <use xlink:href="#mdaebc4caf7" x="51.05" y="334.099956" style="stroke: #000000; stroke-width: 0.8"/>
      </g>
     </g>
     <g id="text_25">
      <!-- 725 -->
      <g transform="translate(24.9625 337.899175) scale(0.1 -0.1)">
       <use xlink:href="#DejaVuSans-37"/>
       <use xlink:href="#DejaVuSans-32" x="63.623047"/>
       <use xlink:href="#DejaVuSans-35" x="127.246094"/>
      </g>
     </g>
    </g>
    <g id="text_26">
     <!-- Rain [mm] -->
     <g transform="translate(18.882813 410.420603) rotate(-90) scale(0.1 -0.1)">
      <defs>
       <path id="DejaVuSans-6e" d="M 3513 2113 
L 3513 0 
L 2938 0 
L 2938 2094 
Q 2938 2591 2744 2837 
Q 2550 3084 2163 3084 
Q 1697 3084 1428 2787 
Q 1159 2491 1159 1978 
L 1159 0 
L 581 0 
L 581 3500 
L 1159 3500 
L 1159 2956 
Q 1366 3272 1645 3428 
Q 1925 3584 2291 3584 
Q 2894 3584 3203 3211 
Q 3513 2838 3513 2113 
z
" transform="scale(0.015625)"/>
      </defs>
      <use xlink:href="#DejaVuSans-52"/>
      <use xlink:href="#DejaVuSans-61" x="67.232422"/>
      <use xlink:href="#DejaVuSans-69" x="128.511719"/>
      <use xlink:href="#DejaVuSans-6e" x="156.294922"/>
      <use xlink:href="#DejaVuSans-20" x="219.673828"/>
      <use xlink:href="#DejaVuSans-5b" x="251.460938"/>
      <use xlink:href="#DejaVuSans-6d" x="290.474609"/>
      <use xlink:href="#DejaVuSans-6d" x="387.886719"/>
      <use xlink:href="#DejaVuSans-5d" x="485.298828"/>
     </g>
    </g>
   </g>
   <g id="line2d_81">
    <path d="M 51.05 441.521031 
L 61.696215 441.521031 
L 61.812514 439.358191 
L 108.605928 439.358191 
L 108.723173 437.19535 
L 112.818458 437.19535 
L 113.051302 435.03251 
L 124.867287 435.03251 
L 124.983645 432.86967 
L 127.323316 432.86967 
L 127.440805 430.706829 
L 129.546391 430.706829 
L 129.66297 428.543989 
L 135.3956 428.543989 
L 135.512179 426.381148 
L 146.040669 426.381148 
L 146.157934 424.218308 
L 158.558291 424.218308 
L 158.674863 422.055467 
L 162.067937 422.055467 
L 162.184356 419.892627 
L 164.991944 419.892627 
L 165.109335 417.729786 
L 166.981182 417.729786 
L 167.097655 415.566946 
L 169.554749 415.566946 
L 169.671292 413.404106 
L 171.660425 413.404106 
L 171.776995 411.241265 
L 174.350613 411.241265 
L 174.585612 409.078425 
L 181.721022 409.078425 
L 181.83754 406.915584 
L 185.230548 406.915584 
L 185.347049 404.752744 
L 187.218786 404.752744 
L 187.336274 402.589903 
L 189.792424 402.589903 
L 190.026397 400.427063 
L 191.430185 400.427063 
L 191.54754 398.264222 
L 193.301921 398.264222 
L 193.419368 396.101382 
L 194.238769 396.101382 
L 194.471757 393.938542 
L 195.056995 393.938542 
L 195.173658 391.775701 
L 195.641589 391.775701 
L 195.759088 389.612861 
L 196.694593 389.612861 
L 196.811431 387.45002 
L 197.045387 387.45002 
L 197.16282 385.28718 
L 201.140065 385.28718 
L 201.256791 383.124339 
L 206.170104 383.124339 
L 206.28753 380.961499 
L 210.849435 380.961499 
L 210.96687 378.798658 
L 218.102431 378.798658 
L 218.219897 376.635818 
L 239.744827 376.635818 
L 239.861377 374.472978 
L 252.027683 374.472978 
L 252.145213 372.310137 
L 274.254565 372.310137 
L 274.37208 370.147297 
L 279.519375 370.147297 
L 279.635835 367.984456 
L 314.96489 367.984456 
L 315.082471 365.821616 
L 325.844951 365.821616 
L 325.96136 363.658775 
L 326.780707 363.658775 
L 326.89724 361.495935 
L 327.248599 361.495935 
L 327.365169 359.333094 
L 329.002944 359.333094 
L 329.120345 357.170254 
L 331.226089 357.170254 
L 331.342608 355.007414 
L 333.331795 355.007414 
L 333.44832 352.844573 
L 416.389946 352.844573 
L 416.507567 350.681733 
L 432.767529 350.681733 
L 432.88427 348.518892 
L 434.405277 348.518892 
L 434.522044 346.356052 
L 442.710882 346.356052 
L 442.828465 344.193211 
L 444.700109 344.193211 
L 444.816594 342.030371 
L 445.869953 342.030371 
L 445.986418 339.86753 
L 447.507207 339.86753 
L 447.624204 337.70469 
L 459.322546 337.70469 
L 459.440081 335.54185 
L 479.677698 335.54185 
L 479.795143 333.379009 
L 483.772641 333.379009 
L 483.889101 331.216169 
L 484.474397 331.216169 
L 484.591001 329.053328 
L 485.878317 329.053328 
L 485.994823 326.890488 
L 487.281963 326.890488 
L 487.281963 326.890488 
" clip-path="url(#p9655cc85a9)" style="fill: none; stroke: #9467bd; stroke-width: 1.5; stroke-linecap: square"/>
   </g>
   <g id="patch_13">
    <path d="M 51.05 447.252558 
L 51.05 321.158961 
" style="fill: none; stroke: #000000; stroke-width: 0.8; stroke-linejoin: miter; stroke-linecap: square"/>
   </g>
   <g id="patch_14">
    <path d="M 487.281963 447.252558 
L 487.281963 321.158961 
" style="fill: none; stroke: #000000; stroke-width: 0.8; stroke-linejoin: miter; stroke-linecap: square"/>
   </g>
   <g id="patch_15">
    <path d="M 51.05 447.252558 
L 487.281963 447.252558 
" style="fill: none; stroke: #000000; stroke-width: 0.8; stroke-linejoin: miter; stroke-linecap: square"/>
   </g>
   <g id="patch_16">
    <path d="M 51.05 321.158961 
L 487.281963 321.158961 
" style="fill: none; stroke: #000000; stroke-width: 0.8; stroke-linejoin: miter; stroke-linecap: square"/>
   </g>
  </g>
  <g id="text_27">
   <!-- Weather data - March 2024 -->
   <g transform="translate(169.874063 19.198125) scale(0.12 -0.12)">
    <defs>
     <path id="DejaVuSans-57" d="M 213 4666 
L 850 4666 
L 1831 722 
L 2809 4666 
L 3519 4666 
L 4500 722 
L 5478 4666 
L 6119 4666 
L 4947 0 
L 4153 0 
L 3169 4050 
L 2175 0 
L 1381 0 
L 213 4666 
z
" transform="scale(0.015625)"/>
     <path id="DejaVuSans-68" d="M 3513 2113 
L 3513 0 
L 2938 0 
L 2938 2094 
Q 2938 2591 2744 2837 
Q 2550 3084 2163 3084 
Q 1697 3084 1428 2787 
Q 1159 2491 1159 1978 
L 1159 0 
L 581 0 
L 581 4863 
L 1159 4863 
L 1159 2956 
Q 1366 3272 1645 3428 
Q 1925 3584 2291 3584 
Q 2894 3584 3203 3211 
Q 3513 2838 3513 2113 
z
" transform="scale(0.015625)"/>
     <path id="DejaVuSans-4d" d="M 628 4666 
L 1569 4666 
L 2759 1491 
L 3956 4666 
L 4897 4666 
L 4897 0 
L 4281 0 
L 4281 4097 
L 3078 897 
L 2444 897 
L 1241 4097 
L 1241 0 
L 628 0 
L 628 4666 
z
" transform="scale(0.015625)"/>
     <path id="DejaVuSans-63" d="M 3122 3366 
L 3122 2828 
Q 2878 2963 2633 3030 
Q 2388 3097 2138 3097 
Q 1578 3097 1268 2742 
Q 959 2388 959 1747 
Q 959 1106 1268 751 
Q 1578 397 2138 397 
Q 2388 397 2633 464 
Q 2878 531 3122 666 
L 3122 134 
Q 2881 22 2623 -34 
Q 2366 -91 2075 -91 
Q 1284 -91 818 406 
Q 353 903 353 1747 
Q 353 2603 823 3093 
Q 1294 3584 2113 3584 
Q 2378 3584 2631 3529 
Q 2884 3475 3122 3366 
z
" transform="scale(0.015625)"/>
    </defs>
    <use xlink:href="#DejaVuSans-57"/>
    <use xlink:href="#DejaVuSans-65" x="93.001953"/>
    <use xlink:href="#DejaVuSans-61" x="154.525391"/>
    <use xlink:href="#DejaVuSans-74" x="215.804688"/>
    <use xlink:href="#DejaVuSans-68" x="255.013672"/>
    <use xlink:href="#DejaVuSans-65" x="318.392578"/>
    <use xlink:href="#DejaVuSans-72" x="379.916016"/>
    <use xlink:href="#DejaVuSans-20" x="421.029297"/>
    <use xlink:href="#DejaVuSans-64" x="452.816406"/>
    <use xlink:href="#DejaVuSans-61" x="516.292969"/>
    <use xlink:href="#DejaVuSans-74" x="577.572266"/>
    <use xlink:href="#DejaVuSans-61" x="616.78125"/>
    <use xlink:href="#DejaVuSans-20" x="678.060547"/>
    <use xlink:href="#DejaVuSans-2d" x="709.847656"/>
    <use xlink:href="#DejaVuSans-20" x="745.931641"/>
    <use xlink:href="#DejaVuSans-4d" x="777.71875"/>
    <use xlink:href="#DejaVuSans-61" x="863.998047"/>
    <use xlink:href="#DejaVuSans-72" x="925.277344"/>
    <use xlink:href="#DejaVuSans-63" x="964.140625"/>
    <use xlink:href="#DejaVuSans-68" x="1019.121094"/>
    <use xlink:href="#DejaVuSans-20" x="1082.5"/>
    <use xlink:href="#DejaVuSans-32" x="1114.287109"/>
    <use xlink:href="#DejaVuSans-30" x="1177.910156"/>
    <use xlink:href="#DejaVuSans-32" x="1241.533203"/>
    <use xlink:href="#DejaVuSans-34" x="1305.15625"/>
   </g>
  </g>
 </g>
 <defs>
  <clipPath id="p8833641a5c">
   <rect x="51.05" y="32.4" width="436.231963" height="126.093598"/>
  </clipPath>
  <clipPath id="p31d682c242">
   <rect x="51.05" y="176.77948" width="436.231963" height="126.093598"/>
  </clipPath>
  <clipPath id="p9655cc85a9">
   <rect x="51.05" y="321.158961" width="436.231963" height="126.093598"/>
  </clipPath>
 </defs>
</svg>
