<?xml version="1.0" encoding="utf-8" standalone="no"?>
<!DOCTYPE svg PUBLIC "-//W3C//DTD SVG 1.1//EN"
  "http://www.w3.org/Graphics/SVG/1.1/DTD/svg11.dtd">
<svg xmlns:xlink="http://www.w3.org/1999/xlink" width="504pt" height="504pt" viewBox="0 0 504 504" xmlns="http://www.w3.org/2000/svg" version="1.1">
 <metadata>
  <rdf:RDF xmlns:dc="http://purl.org/dc/elements/1.1/" xmlns:cc="http://creativecommons.org/ns#" xmlns:rdf="http://www.w3.org/1999/02/22-rdf-syntax-ns#">
   <cc:Work>
    <dc:type rdf:resource="http://purl.org/dc/dcmitype/StillImage"/>
    <dc:date>2024-03-03T09:46:07.913745</dc:date>
    <dc:format>image/svg+xml</dc:format>
    <dc:creator>
     <cc:Agent>
      <dc:title>Matplotlib v3.6.3, https://matplotlib.org/</dc:title>
     </cc:Agent>
    </dc:creator>
   </cc:Work>
  </rdf:RDF>
 </metadata>
 <defs>
  <style type="text/css">*{stroke-linejoin: round; stroke-linecap: butt}</style>
 </defs>
 <g id="figure_1">
  <g id="patch_1">
   <path d="M 0 504 
L 504 504 
L 504 0 
L 0 0 
z
" style="fill: #ffffff"/>
  </g>
  <g id="axes_1">
   <g id="patch_2">
    <path d="M 51.05 158.510853 
L 493.2 158.510853 
L 493.2 32.4 
L 51.05 32.4 
z
" style="fill: #ffffff"/>
   </g>
   <g id="matplotlib.axis_1">
    <g id="xtick_1">
     <g id="line2d_1">
      <path d="M 96.945395 158.510853 
L 96.945395 32.4 
" clip-path="url(#p0b611cf02b)" style="fill: none; stroke: #b0b0b0; stroke-width: 0.8; stroke-linecap: square"/>
     </g>
     <g id="line2d_2">
      <defs>
       <path id="m7ba198799d" d="M 0 0 
L 0 3.5 
" style="stroke: #000000; stroke-width: 0.8"/>
      </defs>
      <g>
       <use xlink:href="#m7ba198799d" x="96.945395" y="158.510853" style="stroke: #000000; stroke-width: 0.8"/>
      </g>
     </g>
    </g>
    <g id="xtick_2">
     <g id="line2d_3">
      <path d="M 142.886084 158.510853 
L 142.886084 32.4 
" clip-path="url(#p0b611cf02b)" style="fill: none; stroke: #b0b0b0; stroke-width: 0.8; stroke-linecap: square"/>
     </g>
     <g id="line2d_4">
      <g>
       <use xlink:href="#m7ba198799d" x="142.886084" y="158.510853" style="stroke: #000000; stroke-width: 0.8"/>
      </g>
     </g>
    </g>
    <g id="xtick_3">
     <g id="line2d_5">
      <path d="M 188.826774 158.510853 
L 188.826774 32.4 
" clip-path="url(#p0b611cf02b)" style="fill: none; stroke: #b0b0b0; stroke-width: 0.8; stroke-linecap: square"/>
     </g>
     <g id="line2d_6">
      <g>
       <use xlink:href="#m7ba198799d" x="188.826774" y="158.510853" style="stroke: #000000; stroke-width: 0.8"/>
      </g>
     </g>
    </g>
    <g id="xtick_4">
     <g id="line2d_7">
      <path d="M 234.767463 158.510853 
L 234.767463 32.4 
" clip-path="url(#p0b611cf02b)" style="fill: none; stroke: #b0b0b0; stroke-width: 0.8; stroke-linecap: square"/>
     </g>
     <g id="line2d_8">
      <g>
       <use xlink:href="#m7ba198799d" x="234.767463" y="158.510853" style="stroke: #000000; stroke-width: 0.8"/>
      </g>
     </g>
    </g>
    <g id="xtick_5">
     <g id="line2d_9">
      <path d="M 280.708152 158.510853 
L 280.708152 32.4 
" clip-path="url(#p0b611cf02b)" style="fill: none; stroke: #b0b0b0; stroke-width: 0.8; stroke-linecap: square"/>
     </g>
     <g id="line2d_10">
      <g>
       <use xlink:href="#m7ba198799d" x="280.708152" y="158.510853" style="stroke: #000000; stroke-width: 0.8"/>
      </g>
     </g>
    </g>
    <g id="xtick_6">
     <g id="line2d_11">
      <path d="M 326.648842 158.510853 
L 326.648842 32.4 
" clip-path="url(#p0b611cf02b)" style="fill: none; stroke: #b0b0b0; stroke-width: 0.8; stroke-linecap: square"/>
     </g>
     <g id="line2d_12">
      <g>
       <use xlink:href="#m7ba198799d" x="326.648842" y="158.510853" style="stroke: #000000; stroke-width: 0.8"/>
      </g>
     </g>
    </g>
    <g id="xtick_7">
     <g id="line2d_13">
      <path d="M 372.589531 158.510853 
L 372.589531 32.4 
" clip-path="url(#p0b611cf02b)" style="fill: none; stroke: #b0b0b0; stroke-width: 0.8; stroke-linecap: square"/>
     </g>
     <g id="line2d_14">
      <g>
       <use xlink:href="#m7ba198799d" x="372.589531" y="158.510853" style="stroke: #000000; stroke-width: 0.8"/>
      </g>
     </g>
    </g>
    <g id="xtick_8">
     <g id="line2d_15">
      <path d="M 418.53022 158.510853 
L 418.53022 32.4 
" clip-path="url(#p0b611cf02b)" style="fill: none; stroke: #b0b0b0; stroke-width: 0.8; stroke-linecap: square"/>
     </g>
     <g id="line2d_16">
      <g>
       <use xlink:href="#m7ba198799d" x="418.53022" y="158.510853" style="stroke: #000000; stroke-width: 0.8"/>
      </g>
     </g>
    </g>
    <g id="xtick_9">
     <g id="line2d_17">
      <path d="M 464.47091 158.510853 
L 464.47091 32.4 
" clip-path="url(#p0b611cf02b)" style="fill: none; stroke: #b0b0b0; stroke-width: 0.8; stroke-linecap: square"/>
     </g>
     <g id="line2d_18">
      <g>
       <use xlink:href="#m7ba198799d" x="464.47091" y="158.510853" style="stroke: #000000; stroke-width: 0.8"/>
      </g>
     </g>
    </g>
   </g>
   <g id="matplotlib.axis_2">
    <g id="ytick_1">
     <g id="line2d_19">
      <path d="M 51.05 142.587765 
L 493.2 142.587765 
" clip-path="url(#p0b611cf02b)" style="fill: none; stroke: #b0b0b0; stroke-width: 0.8; stroke-linecap: square"/>
     </g>
     <g id="line2d_20">
      <defs>
       <path id="m44c2431fc1" d="M 0 0 
L -3.5 0 
" style="stroke: #000000; stroke-width: 0.8"/>
      </defs>
      <g>
       <use xlink:href="#m44c2431fc1" x="51.05" y="142.587765" style="stroke: #000000; stroke-width: 0.8"/>
      </g>
     </g>
     <g id="text_1">
      <!-- 4 -->
      <g transform="translate(37.6875 146.386984) scale(0.1 -0.1)">
       <defs>
        <path id="DejaVuSans-34" d="M 2419 4116 
L 825 1625 
L 2419 1625 
L 2419 4116 
z
M 2253 4666 
L 3047 4666 
L 3047 1625 
L 3713 1625 
L 3713 1100 
L 3047 1100 
L 3047 0 
L 2419 0 
L 2419 1100 
L 313 1100 
L 313 1709 
L 2253 4666 
z
" transform="scale(0.015625)"/>
       </defs>
       <use xlink:href="#DejaVuSans-34"/>
      </g>
     </g>
    </g>
    <g id="ytick_2">
     <g id="line2d_21">
      <path d="M 51.05 117.110825 
L 493.2 117.110825 
" clip-path="url(#p0b611cf02b)" style="fill: none; stroke: #b0b0b0; stroke-width: 0.8; stroke-linecap: square"/>
     </g>
     <g id="line2d_22">
      <g>
       <use xlink:href="#m44c2431fc1" x="51.05" y="117.110825" style="stroke: #000000; stroke-width: 0.8"/>
      </g>
     </g>
     <g id="text_2">
      <!-- 5 -->
      <g transform="translate(37.6875 120.910044) scale(0.1 -0.1)">
       <defs>
        <path id="DejaVuSans-35" d="M 691 4666 
L 3169 4666 
L 3169 4134 
L 1269 4134 
L 1269 2991 
Q 1406 3038 1543 3061 
Q 1681 3084 1819 3084 
Q 2600 3084 3056 2656 
Q 3513 2228 3513 1497 
Q 3513 744 3044 326 
Q 2575 -91 1722 -91 
Q 1428 -91 1123 -41 
Q 819 9 494 109 
L 494 744 
Q 775 591 1075 516 
Q 1375 441 1709 441 
Q 2250 441 2565 725 
Q 2881 1009 2881 1497 
Q 2881 1984 2565 2268 
Q 2250 2553 1709 2553 
Q 1456 2553 1204 2497 
Q 953 2441 691 2322 
L 691 4666 
z
" transform="scale(0.015625)"/>
       </defs>
       <use xlink:href="#DejaVuSans-35"/>
      </g>
     </g>
    </g>
    <g id="ytick_3">
     <g id="line2d_23">
      <path d="M 51.05 91.633885 
L 493.2 91.633885 
" clip-path="url(#p0b611cf02b)" style="fill: none; stroke: #b0b0b0; stroke-width: 0.8; stroke-linecap: square"/>
     </g>
     <g id="line2d_24">
      <g>
       <use xlink:href="#m44c2431fc1" x="51.05" y="91.633885" style="stroke: #000000; stroke-width: 0.8"/>
      </g>
     </g>
     <g id="text_3">
      <!-- 6 -->
      <g transform="translate(37.6875 95.433104) scale(0.1 -0.1)">
       <defs>
        <path id="DejaVuSans-36" d="M 2113 2584 
Q 1688 2584 1439 2293 
Q 1191 2003 1191 1497 
Q 1191 994 1439 701 
Q 1688 409 2113 409 
Q 2538 409 2786 701 
Q 3034 994 3034 1497 
Q 3034 2003 2786 2293 
Q 2538 2584 2113 2584 
z
M 3366 4563 
L 3366 3988 
Q 3128 4100 2886 4159 
Q 2644 4219 2406 4219 
Q 1781 4219 1451 3797 
Q 1122 3375 1075 2522 
Q 1259 2794 1537 2939 
Q 1816 3084 2150 3084 
Q 2853 3084 3261 2657 
Q 3669 2231 3669 1497 
Q 3669 778 3244 343 
Q 2819 -91 2113 -91 
Q 1303 -91 875 529 
Q 447 1150 447 2328 
Q 447 3434 972 4092 
Q 1497 4750 2381 4750 
Q 2619 4750 2861 4703 
Q 3103 4656 3366 4563 
z
" transform="scale(0.015625)"/>
       </defs>
       <use xlink:href="#DejaVuSans-36"/>
      </g>
     </g>
    </g>
    <g id="ytick_4">
     <g id="line2d_25">
      <path d="M 51.05 66.156945 
L 493.2 66.156945 
" clip-path="url(#p0b611cf02b)" style="fill: none; stroke: #b0b0b0; stroke-width: 0.8; stroke-linecap: square"/>
     </g>
     <g id="line2d_26">
      <g>
       <use xlink:href="#m44c2431fc1" x="51.05" y="66.156945" style="stroke: #000000; stroke-width: 0.8"/>
      </g>
     </g>
     <g id="text_4">
      <!-- 7 -->
      <g transform="translate(37.6875 69.956164) scale(0.1 -0.1)">
       <defs>
        <path id="DejaVuSans-37" d="M 525 4666 
L 3525 4666 
L 3525 4397 
L 1831 0 
L 1172 0 
L 2766 4134 
L 525 4134 
L 525 4666 
z
" transform="scale(0.015625)"/>
       </defs>
       <use xlink:href="#DejaVuSans-37"/>
      </g>
     </g>
    </g>
    <g id="ytick_5">
     <g id="line2d_27">
      <path d="M 51.05 40.680005 
L 493.2 40.680005 
" clip-path="url(#p0b611cf02b)" style="fill: none; stroke: #b0b0b0; stroke-width: 0.8; stroke-linecap: square"/>
     </g>
     <g id="line2d_28">
      <g>
       <use xlink:href="#m44c2431fc1" x="51.05" y="40.680005" style="stroke: #000000; stroke-width: 0.8"/>
      </g>
     </g>
     <g id="text_5">
      <!-- 8 -->
      <g transform="translate(37.6875 44.479224) scale(0.1 -0.1)">
       <defs>
        <path id="DejaVuSans-38" d="M 2034 2216 
Q 1584 2216 1326 1975 
Q 1069 1734 1069 1313 
Q 1069 891 1326 650 
Q 1584 409 2034 409 
Q 2484 409 2743 651 
Q 3003 894 3003 1313 
Q 3003 1734 2745 1975 
Q 2488 2216 2034 2216 
z
M 1403 2484 
Q 997 2584 770 2862 
Q 544 3141 544 3541 
Q 544 4100 942 4425 
Q 1341 4750 2034 4750 
Q 2731 4750 3128 4425 
Q 3525 4100 3525 3541 
Q 3525 3141 3298 2862 
Q 3072 2584 2669 2484 
Q 3125 2378 3379 2068 
Q 3634 1759 3634 1313 
Q 3634 634 3220 271 
Q 2806 -91 2034 -91 
Q 1263 -91 848 271 
Q 434 634 434 1313 
Q 434 1759 690 2068 
Q 947 2378 1403 2484 
z
M 1172 3481 
Q 1172 3119 1398 2916 
Q 1625 2713 2034 2713 
Q 2441 2713 2670 2916 
Q 2900 3119 2900 3481 
Q 2900 3844 2670 4047 
Q 2441 4250 2034 4250 
Q 1625 4250 1398 4047 
Q 1172 3844 1172 3481 
z
" transform="scale(0.015625)"/>
       </defs>
       <use xlink:href="#DejaVuSans-38"/>
      </g>
     </g>
    </g>
    <g id="text_6">
     <!-- Temperature [°C] -->
     <g transform="translate(31.607813 138.606989) rotate(-90) scale(0.1 -0.1)">
      <defs>
       <path id="DejaVuSans-54" d="M -19 4666 
L 3928 4666 
L 3928 4134 
L 2272 4134 
L 2272 0 
L 1638 0 
L 1638 4134 
L -19 4134 
L -19 4666 
z
" transform="scale(0.015625)"/>
       <path id="DejaVuSans-65" d="M 3597 1894 
L 3597 1613 
L 953 1613 
Q 991 1019 1311 708 
Q 1631 397 2203 397 
Q 2534 397 2845 478 
Q 3156 559 3463 722 
L 3463 178 
Q 3153 47 2828 -22 
Q 2503 -91 2169 -91 
Q 1331 -91 842 396 
Q 353 884 353 1716 
Q 353 2575 817 3079 
Q 1281 3584 2069 3584 
Q 2775 3584 3186 3129 
Q 3597 2675 3597 1894 
z
M 3022 2063 
Q 3016 2534 2758 2815 
Q 2500 3097 2075 3097 
Q 1594 3097 1305 2825 
Q 1016 2553 972 2059 
L 3022 2063 
z
" transform="scale(0.015625)"/>
       <path id="DejaVuSans-6d" d="M 3328 2828 
Q 3544 3216 3844 3400 
Q 4144 3584 4550 3584 
Q 5097 3584 5394 3201 
Q 5691 2819 5691 2113 
L 5691 0 
L 5113 0 
L 5113 2094 
Q 5113 2597 4934 2840 
Q 4756 3084 4391 3084 
Q 3944 3084 3684 2787 
Q 3425 2491 3425 1978 
L 3425 0 
L 2847 0 
L 2847 2094 
Q 2847 2600 2669 2842 
Q 2491 3084 2119 3084 
Q 1678 3084 1418 2786 
Q 1159 2488 1159 1978 
L 1159 0 
L 581 0 
L 581 3500 
L 1159 3500 
L 1159 2956 
Q 1356 3278 1631 3431 
Q 1906 3584 2284 3584 
Q 2666 3584 2933 3390 
Q 3200 3197 3328 2828 
z
" transform="scale(0.015625)"/>
       <path id="DejaVuSans-70" d="M 1159 525 
L 1159 -1331 
L 581 -1331 
L 581 3500 
L 1159 3500 
L 1159 2969 
Q 1341 3281 1617 3432 
Q 1894 3584 2278 3584 
Q 2916 3584 3314 3078 
Q 3713 2572 3713 1747 
Q 3713 922 3314 415 
Q 2916 -91 2278 -91 
Q 1894 -91 1617 61 
Q 1341 213 1159 525 
z
M 3116 1747 
Q 3116 2381 2855 2742 
Q 2594 3103 2138 3103 
Q 1681 3103 1420 2742 
Q 1159 2381 1159 1747 
Q 1159 1113 1420 752 
Q 1681 391 2138 391 
Q 2594 391 2855 752 
Q 3116 1113 3116 1747 
z
" transform="scale(0.015625)"/>
       <path id="DejaVuSans-72" d="M 2631 2963 
Q 2534 3019 2420 3045 
Q 2306 3072 2169 3072 
Q 1681 3072 1420 2755 
Q 1159 2438 1159 1844 
L 1159 0 
L 581 0 
L 581 3500 
L 1159 3500 
L 1159 2956 
Q 1341 3275 1631 3429 
Q 1922 3584 2338 3584 
Q 2397 3584 2469 3576 
Q 2541 3569 2628 3553 
L 2631 2963 
z
" transform="scale(0.015625)"/>
       <path id="DejaVuSans-61" d="M 2194 1759 
Q 1497 1759 1228 1600 
Q 959 1441 959 1056 
Q 959 750 1161 570 
Q 1363 391 1709 391 
Q 2188 391 2477 730 
Q 2766 1069 2766 1631 
L 2766 1759 
L 2194 1759 
z
M 3341 1997 
L 3341 0 
L 2766 0 
L 2766 531 
Q 2569 213 2275 61 
Q 1981 -91 1556 -91 
Q 1019 -91 701 211 
Q 384 513 384 1019 
Q 384 1609 779 1909 
Q 1175 2209 1959 2209 
L 2766 2209 
L 2766 2266 
Q 2766 2663 2505 2880 
Q 2244 3097 1772 3097 
Q 1472 3097 1187 3025 
Q 903 2953 641 2809 
L 641 3341 
Q 956 3463 1253 3523 
Q 1550 3584 1831 3584 
Q 2591 3584 2966 3190 
Q 3341 2797 3341 1997 
z
" transform="scale(0.015625)"/>
       <path id="DejaVuSans-74" d="M 1172 4494 
L 1172 3500 
L 2356 3500 
L 2356 3053 
L 1172 3053 
L 1172 1153 
Q 1172 725 1289 603 
Q 1406 481 1766 481 
L 2356 481 
L 2356 0 
L 1766 0 
Q 1100 0 847 248 
Q 594 497 594 1153 
L 594 3053 
L 172 3053 
L 172 3500 
L 594 3500 
L 594 4494 
L 1172 4494 
z
" transform="scale(0.015625)"/>
       <path id="DejaVuSans-75" d="M 544 1381 
L 544 3500 
L 1119 3500 
L 1119 1403 
Q 1119 906 1312 657 
Q 1506 409 1894 409 
Q 2359 409 2629 706 
Q 2900 1003 2900 1516 
L 2900 3500 
L 3475 3500 
L 3475 0 
L 2900 0 
L 2900 538 
Q 2691 219 2414 64 
Q 2138 -91 1772 -91 
Q 1169 -91 856 284 
Q 544 659 544 1381 
z
M 1991 3584 
L 1991 3584 
z
" transform="scale(0.015625)"/>
       <path id="DejaVuSans-20" transform="scale(0.015625)"/>
       <path id="DejaVuSans-5b" d="M 550 4863 
L 1875 4863 
L 1875 4416 
L 1125 4416 
L 1125 -397 
L 1875 -397 
L 1875 -844 
L 550 -844 
L 550 4863 
z
" transform="scale(0.015625)"/>
       <path id="DejaVuSans-b0" d="M 1600 4347 
Q 1350 4347 1178 4173 
Q 1006 4000 1006 3750 
Q 1006 3503 1178 3333 
Q 1350 3163 1600 3163 
Q 1850 3163 2022 3333 
Q 2194 3503 2194 3750 
Q 2194 3997 2020 4172 
Q 1847 4347 1600 4347 
z
M 1600 4750 
Q 1800 4750 1984 4673 
Q 2169 4597 2303 4453 
Q 2447 4313 2519 4134 
Q 2591 3956 2591 3750 
Q 2591 3338 2302 3052 
Q 2013 2766 1594 2766 
Q 1172 2766 890 3047 
Q 609 3328 609 3750 
Q 609 4169 896 4459 
Q 1184 4750 1600 4750 
z
" transform="scale(0.015625)"/>
       <path id="DejaVuSans-43" d="M 4122 4306 
L 4122 3641 
Q 3803 3938 3442 4084 
Q 3081 4231 2675 4231 
Q 1875 4231 1450 3742 
Q 1025 3253 1025 2328 
Q 1025 1406 1450 917 
Q 1875 428 2675 428 
Q 3081 428 3442 575 
Q 3803 722 4122 1019 
L 4122 359 
Q 3791 134 3420 21 
Q 3050 -91 2638 -91 
Q 1578 -91 968 557 
Q 359 1206 359 2328 
Q 359 3453 968 4101 
Q 1578 4750 2638 4750 
Q 3056 4750 3426 4639 
Q 3797 4528 4122 4306 
z
" transform="scale(0.015625)"/>
       <path id="DejaVuSans-5d" d="M 1947 4863 
L 1947 -844 
L 622 -844 
L 622 -397 
L 1369 -397 
L 1369 4416 
L 622 4416 
L 622 4863 
L 1947 4863 
z
" transform="scale(0.015625)"/>
      </defs>
      <use xlink:href="#DejaVuSans-54"/>
      <use xlink:href="#DejaVuSans-65" x="44.083984"/>
      <use xlink:href="#DejaVuSans-6d" x="105.607422"/>
      <use xlink:href="#DejaVuSans-70" x="203.019531"/>
      <use xlink:href="#DejaVuSans-65" x="266.496094"/>
      <use xlink:href="#DejaVuSans-72" x="328.019531"/>
      <use xlink:href="#DejaVuSans-61" x="369.132812"/>
      <use xlink:href="#DejaVuSans-74" x="430.412109"/>
      <use xlink:href="#DejaVuSans-75" x="469.621094"/>
      <use xlink:href="#DejaVuSans-72" x="533"/>
      <use xlink:href="#DejaVuSans-65" x="571.863281"/>
      <use xlink:href="#DejaVuSans-20" x="633.386719"/>
      <use xlink:href="#DejaVuSans-5b" x="665.173828"/>
      <use xlink:href="#DejaVuSans-b0" x="704.1875"/>
      <use xlink:href="#DejaVuSans-43" x="754.1875"/>
      <use xlink:href="#DejaVuSans-5d" x="824.011719"/>
     </g>
    </g>
   </g>
   <g id="line2d_29">
    <path d="M 51.05 109.467743 
L 52.275065 109.467743 
L 52.479242 106.920049 
L 54.11266 106.920049 
L 54.316842 109.467743 
L 55.440243 109.467743 
L 55.644525 112.015437 
L 56.461286 112.015437 
L 56.665396 109.467743 
L 56.869652 109.467743 
L 56.971911 106.920049 
L 57.277853 109.467743 
L 57.583735 109.467743 
L 57.787905 112.015437 
L 58.196278 112.015437 
L 58.400455 109.467743 
L 59.217177 109.467743 
L 59.421356 112.015437 
L 59.728296 112.015437 
L 59.932404 114.563131 
L 60.851428 114.563131 
L 61.054793 117.110825 
L 61.36158 117.110825 
L 61.565728 119.658519 
L 61.770028 119.658519 
L 61.974246 122.206213 
L 64.01598 122.206213 
L 64.219973 119.658519 
L 64.424237 119.658519 
L 64.525834 117.110825 
L 65.240925 117.110825 
L 65.445175 114.563131 
L 65.649325 114.563131 
L 65.853475 117.110825 
L 66.057647 114.563131 
L 66.261917 114.563131 
L 66.466069 117.110825 
L 67.180161 117.110825 
L 67.384332 119.658519 
L 67.691121 119.658519 
L 67.895263 117.110825 
L 67.996881 117.110825 
L 68.201048 114.563131 
L 68.303706 114.563131 
L 68.405231 112.015437 
L 69.120452 112.015437 
L 69.324536 114.563131 
L 70.242836 114.563131 
L 70.447671 112.015437 
L 70.958036 112.015437 
L 71.162174 109.467743 
L 71.570464 109.467743 
L 71.876275 104.372355 
L 72.285638 104.372355 
L 72.591167 106.920049 
L 72.692991 106.920049 
L 72.897169 109.467743 
L 73.101351 109.467743 
L 73.30553 112.015437 
L 73.612368 112.015437 
L 73.816561 114.563131 
L 74.734779 114.563131 
L 74.938957 117.110825 
L 75.245723 117.110825 
L 75.551499 122.206213 
L 75.858403 122.206213 
L 76.06249 119.658519 
L 76.980747 119.658519 
L 77.184931 117.110825 
L 77.593293 117.110825 
L 77.797469 119.658519 
L 78.71674 119.658519 
L 78.920991 117.110825 
L 80.145514 117.110825 
L 80.350145 114.563131 
L 80.758627 114.563131 
L 80.962698 112.015437 
L 81.676863 112.015437 
L 81.881994 114.563131 
L 82.596273 114.563131 
L 82.800387 117.110825 
L 83.923722 117.110825 
L 84.127013 114.563131 
L 84.229558 114.563131 
L 84.433542 112.015437 
L 84.53537 112.015437 
L 84.739553 109.467743 
L 86.57716 109.467743 
L 86.78134 106.920049 
L 87.292321 106.920049 
L 87.496516 104.372355 
L 88.313243 104.372355 
L 88.517397 101.824661 
L 88.721522 104.372355 
L 88.925801 101.824661 
L 89.129863 101.824661 
L 89.334078 99.276967 
L 89.538296 99.276967 
L 89.844022 94.181579 
L 91.681643 94.181579 
L 91.988391 99.276967 
L 92.498358 99.276967 
L 92.702539 101.824661 
L 92.906708 99.276967 
L 93.520191 99.276967 
L 93.723442 101.824661 
L 94.131794 101.824661 
L 94.438536 106.920049 
L 94.642729 106.920049 
L 94.8469 109.467743 
L 95.05107 109.467743 
L 95.255306 112.015437 
L 95.35752 112.015437 
L 95.66346 114.563131 
L 95.969403 114.563131 
L 96.173581 117.110825 
L 96.581946 117.110825 
L 96.786122 119.658519 
L 97.602838 119.658519 
L 97.807012 122.206213 
L 101.788963 122.206213 
L 101.993073 124.753907 
L 102.605631 124.753907 
L 102.809866 127.301601 
L 103.42236 127.301601 
L 103.626699 129.849295 
L 106.689186 129.849295 
L 106.790885 127.301601 
L 107.91436 127.301601 
L 108.118447 124.753907 
L 109.03686 124.753907 
L 109.241049 122.206213 
L 109.343688 122.206213 
L 109.54781 119.658519 
L 109.649401 119.658519 
L 109.853576 117.110825 
L 110.261945 117.110825 
L 110.466119 114.563131 
L 110.67028 114.563131 
L 110.976767 112.015437 
L 111.078657 112.015437 
L 111.282831 109.467743 
L 111.589473 109.467743 
L 111.793809 106.920049 
L 112.507918 106.920049 
L 113.223044 114.563131 
L 113.324624 114.563131 
L 113.528804 117.110825 
L 113.835587 117.110825 
L 114.039779 119.658519 
L 114.345522 119.658519 
L 114.550636 122.206213 
L 117.612397 122.206213 
L 117.816576 119.658519 
L 118.020762 122.206213 
L 118.123337 122.206213 
L 118.3275 119.658519 
L 120.266711 119.658519 
L 120.573169 117.110825 
L 120.879254 117.110825 
L 121.083438 114.563131 
L 121.287615 114.563131 
L 121.4918 112.015437 
L 121.695978 112.015437 
L 121.900155 109.467743 
L 123.125228 109.467743 
L 123.329413 106.920049 
L 123.737776 106.920049 
L 123.941941 104.372355 
L 124.044529 104.372355 
L 124.146983 101.824661 
L 124.758675 101.824661 
L 124.962847 99.276967 
L 128.229694 99.276967 
L 128.433865 96.729273 
L 128.63805 96.729273 
L 128.842225 94.181579 
L 129.250587 94.181579 
L 129.45476 91.633885 
L 129.658947 91.633885 
L 129.863125 89.086191 
L 130.578173 89.086191 
L 130.78243 86.538497 
L 130.884022 86.538497 
L 131.190771 81.443109 
L 131.496556 81.443109 
L 131.700736 78.895415 
L 132.211614 78.895415 
L 132.4158 76.347721 
L 132.721619 76.347721 
L 132.925806 73.800027 
L 133.743338 73.800027 
L 134.04904 71.252333 
L 134.457514 71.252333 
L 134.661707 68.704639 
L 135.070197 68.704639 
L 135.274135 66.156945 
L 136.601017 66.156945 
L 136.80519 63.609251 
L 137.213554 63.609251 
L 137.417726 61.061557 
L 137.62271 61.061557 
L 137.928523 58.513863 
L 138.030264 58.513863 
L 138.23444 55.966169 
L 138.642809 55.966169 
L 138.846974 53.418475 
L 139.765942 53.418475 
L 139.970441 55.966169 
L 141.297125 55.966169 
L 141.603372 50.870781 
L 141.909661 50.870781 
L 142.113831 48.323087 
L 142.624777 48.323087 
L 142.828861 45.775393 
L 143.0332 45.775393 
L 143.237349 43.227699 
L 143.339779 43.227699 
L 143.64543 40.680005 
L 143.747284 40.680005 
L 143.951439 38.132311 
L 144.462319 38.132311 
L 144.666488 40.680005 
L 145.68741 40.680005 
L 145.891519 43.227699 
L 145.993231 43.227699 
L 146.197405 45.775393 
L 146.5042 45.775393 
L 146.708297 48.323087 
L 147.219143 48.323087 
L 147.524915 50.870781 
L 148.035021 50.870781 
L 148.239197 53.418475 
L 148.443373 53.418475 
L 148.647553 55.966169 
L 148.851726 55.966169 
L 149.055907 58.513863 
L 149.36234 58.513863 
L 149.566689 61.061557 
L 150.076792 61.061557 
L 150.280976 63.609251 
L 150.893506 63.609251 
L 151.09859 66.156945 
L 151.506061 66.156945 
L 151.710233 68.704639 
L 152.118589 68.704639 
L 152.322771 71.252333 
L 152.629535 71.252333 
L 152.731118 73.800027 
L 152.833685 71.252333 
L 152.936217 73.800027 
L 153.241828 73.800027 
L 153.446136 76.347721 
L 154.262905 76.347721 
L 154.467035 78.895415 
L 155.692234 78.895415 
L 155.896255 81.443109 
L 155.99799 81.443109 
L 156.202165 78.895415 
L 157.22306 78.895415 
L 157.427244 81.443109 
L 157.631418 78.895415 
L 157.938184 78.895415 
L 158.142249 76.347721 
L 158.550677 76.347721 
L 158.652301 73.800027 
L 160.796157 73.800027 
L 161.000788 71.252333 
L 161.306628 71.252333 
L 161.409275 68.704639 
L 161.510801 71.252333 
L 161.61337 68.704639 
L 161.817503 71.252333 
L 163.042615 71.252333 
L 163.246763 68.704639 
L 166.309451 68.704639 
L 166.411996 71.252333 
L 166.717699 71.252333 
L 166.921938 68.704639 
L 168.147032 68.704639 
L 168.248701 71.252333 
L 168.759576 71.252333 
L 168.963758 73.800027 
L 170.188694 73.800027 
L 170.392544 76.347721 
L 170.698844 76.347721 
L 170.903028 78.895415 
L 172.026518 78.895415 
L 172.128102 81.443109 
L 173.148987 81.443109 
L 173.251462 83.990803 
L 173.455698 81.443109 
L 173.557347 83.990803 
L 173.659761 81.443109 
L 173.863981 83.990803 
L 174.170594 83.990803 
L 174.37406 86.538497 
L 174.6808 86.538497 
L 174.884757 89.086191 
L 176.008349 89.086191 
L 176.314086 91.633885 
L 179.070169 91.633885 
L 179.274349 94.181579 
L 181.724508 94.181579 
L 182.030991 91.633885 
L 184.481295 91.633885 
L 184.685573 94.181579 
L 186.828975 94.181579 
L 187.033155 96.729273 
L 187.339844 96.729273 
L 187.441504 99.276967 
L 187.747909 99.276967 
L 187.952359 101.824661 
L 188.258231 101.824661 
L 188.462399 104.372355 
L 188.870759 104.372355 
L 189.074937 106.920049 
L 192.852661 106.920049 
L 193.056882 109.467743 
L 193.158523 109.467743 
L 193.464831 112.015437 
L 193.873479 112.015437 
L 194.077757 114.563131 
L 196.833753 114.563131 
L 197.037924 117.110825 
L 197.854642 117.110825 
L 198.058818 119.658519 
L 198.161451 117.110825 
L 198.365635 119.658519 
L 199.080533 119.658519 
L 199.386374 122.206213 
L 201.734042 122.206213 
L 201.938214 124.753907 
L 202.142402 122.206213 
L 203.980024 122.206213 
L 204.184178 124.753907 
L 205.000898 124.753907 
L 205.205095 122.206213 
L 208.165995 122.206213 
L 208.3701 124.753907 
L 209.697035 124.753907 
L 209.901207 127.301601 
L 219.396098 127.301601 
L 219.600142 129.849295 
L 223.071003 129.849295 
L 223.275215 132.396989 
L 224.193756 132.396989 
L 224.39794 129.849295 
L 225.112879 129.849295 
L 225.317156 132.396989 
L 225.62301 132.396989 
L 225.827184 129.849295 
L 228.788426 129.849295 
L 228.992562 132.396989 
L 230.013003 132.396989 
L 230.217221 134.944683 
L 236.852858 134.944683 
L 237.057051 132.396989 
L 238.077936 132.396989 
L 238.28211 134.944683 
L 238.793067 134.944683 
L 238.997004 132.396989 
L 241.140628 132.396989 
L 241.345607 134.944683 
L 242.468215 134.944683 
L 242.672347 132.396989 
L 248.593571 132.396989 
L 248.797741 129.849295 
L 250.124529 129.849295 
L 250.328703 132.396989 
L 251.757942 132.396989 
L 251.962126 134.944683 
L 252.472952 134.944683 
L 252.677026 132.396989 
L 253.391386 132.396989 
L 253.595556 134.944683 
L 253.902302 134.944683 
L 254.106393 132.396989 
L 255.3315 132.396989 
L 255.535691 134.944683 
L 255.637348 134.944683 
L 255.841534 132.396989 
L 258.700821 132.396989 
L 258.904231 134.944683 
L 264.008704 134.944683 
L 264.212883 132.396989 
L 264.417914 132.396989 
L 264.723712 134.944683 
L 264.825413 134.944683 
L 264.927942 132.396989 
L 265.132135 134.944683 
L 267.37804 134.944683 
L 267.582188 137.492377 
L 270.74663 137.492377 
L 270.950806 134.944683 
L 273.09518 134.944683 
L 273.299311 137.492377 
L 277.893763 137.492377 
L 278.097075 134.944683 
L 280.547227 134.944683 
L 280.751411 137.492377 
L 283.916528 137.492377 
L 284.120714 140.040071 
L 284.529058 140.040071 
L 284.733234 137.492377 
L 286.060067 137.492377 
L 286.264244 140.040071 
L 291.470863 140.040071 
L 291.675395 137.492377 
L 293.512928 137.492377 
L 293.717157 134.944683 
L 295.043951 134.944683 
L 295.350353 132.396989 
L 295.75906 132.396989 
L 295.963165 129.849295 
L 297.494105 129.849295 
L 297.698284 127.301601 
L 298.005011 127.301601 
L 298.209082 124.753907 
L 298.310815 124.753907 
L 298.515013 122.206213 
L 298.61763 122.206213 
L 298.821693 119.658519 
L 298.923368 119.658519 
L 299.229843 117.110825 
L 299.331733 117.110825 
L 299.5359 114.563131 
L 299.638549 114.563131 
L 299.8427 112.015437 
L 300.455279 112.015437 
L 300.659238 114.563131 
L 301.986054 114.563131 
L 302.190239 117.110825 
L 302.803675 117.110825 
L 303.10933 114.563131 
L 303.313693 114.563131 
L 303.517765 112.015437 
L 305.457094 112.015437 
L 305.661278 109.467743 
L 306.069634 109.467743 
L 306.273816 112.015437 
L 306.886339 112.015437 
L 307.090526 114.563131 
L 307.498884 114.563131 
L 307.703062 112.015437 
L 308.213961 112.015437 
L 308.3156 109.467743 
L 308.519776 112.015437 
L 309.234769 112.015437 
L 309.439124 109.467743 
L 309.94904 109.467743 
L 310.153212 106.920049 
L 310.459878 106.920049 
L 310.663665 104.372355 
L 310.969926 104.372355 
L 311.174109 101.824661 
L 311.480709 101.824661 
L 311.684923 99.276967 
L 312.093268 99.276967 
L 312.297478 96.729273 
L 312.399968 96.729273 
L 312.910041 91.633885 
L 313.318307 91.633885 
L 313.5226 89.086191 
L 314.236784 89.086191 
L 314.543156 86.538497 
L 314.645141 86.538497 
L 314.849319 89.086191 
L 314.951769 89.086191 
L 315.155919 91.633885 
L 315.46186 91.633885 
L 315.666038 94.181579 
L 318.422633 94.181579 
L 318.627045 96.729273 
L 318.933647 96.729273 
L 319.137076 94.181579 
L 319.647931 94.181579 
L 319.852136 91.633885 
L 319.953805 91.633885 
L 320.15884 94.181579 
L 320.260065 94.181579 
L 320.46463 96.729273 
L 320.668789 96.729273 
L 320.872809 99.276967 
L 321.893808 99.276967 
L 321.996468 101.824661 
L 322.30213 101.824661 
L 322.506287 99.276967 
L 323.322983 99.276967 
L 323.527268 96.729273 
L 323.833202 96.729273 
L 324.139558 94.181579 
L 324.343973 94.181579 
L 324.548228 91.633885 
L 324.752221 91.633885 
L 325.058278 86.538497 
L 325.262448 86.538497 
L 325.466615 83.990803 
L 325.569139 83.990803 
L 325.773258 81.443109 
L 325.875875 81.443109 
L 326.07916 83.990803 
L 326.283346 81.443109 
L 326.692453 81.443109 
L 326.895887 78.895415 
L 326.998479 78.895415 
L 327.202438 81.443109 
L 327.713356 81.443109 
L 328.22336 86.538497 
L 328.529307 86.538497 
L 328.733491 83.990803 
L 328.835957 83.990803 
L 329.04028 81.443109 
L 329.141847 81.443109 
L 329.346025 78.895415 
L 329.755183 78.895415 
L 330.0611 73.800027 
L 330.162745 73.800027 
L 330.571099 66.156945 
L 330.67367 66.156945 
L 330.877759 68.704639 
L 330.979447 68.704639 
L 331.183633 71.252333 
L 331.387811 68.704639 
L 331.59284 68.704639 
L 331.89853 66.156945 
L 332.612888 66.156945 
L 332.817066 63.609251 
L 332.919569 63.609251 
L 333.123685 61.061557 
L 333.327848 61.061557 
L 333.429598 58.513863 
L 333.634676 58.513863 
L 334.144673 48.323087 
L 334.348738 48.323087 
L 334.553035 50.870781 
L 334.757164 50.870781 
L 334.961312 48.323087 
L 335.67556 48.323087 
L 335.982298 43.227699 
L 336.08392 43.227699 
L 336.288104 40.680005 
L 336.594823 40.680005 
L 336.900625 45.775393 
L 337.308989 45.775393 
L 338.023949 38.132311 
L 338.228056 40.680005 
L 338.840613 40.680005 
L 339.044765 38.132311 
L 339.452883 38.132311 
L 339.759119 43.227699 
L 340.167482 43.227699 
L 340.371664 45.775393 
L 340.780022 45.775393 
L 341.086839 50.870781 
L 341.699417 50.870781 
L 341.903504 48.323087 
L 342.720335 48.323087 
L 342.924466 50.870781 
L 343.025986 48.323087 
L 343.638521 48.323087 
L 343.842701 50.870781 
L 344.046879 50.870781 
L 344.251054 53.418475 
L 344.353769 53.418475 
L 344.557945 55.966169 
L 345.680302 55.966169 
L 345.884482 58.513863 
L 346.292842 58.513863 
L 346.497018 61.061557 
L 347.313745 61.061557 
L 347.517928 58.513863 
L 347.722099 58.513863 
L 347.926279 55.966169 
L 348.334629 55.966169 
L 348.538813 58.513863 
L 348.641131 58.513863 
L 348.742993 55.966169 
L 349.763888 55.966169 
L 349.968068 53.418475 
L 350.376422 53.418475 
L 350.479025 55.966169 
L 350.580602 53.418475 
L 350.785539 55.966169 
L 351.091355 61.061557 
L 351.295543 63.609251 
L 351.397317 63.609251 
L 351.601495 66.156945 
L 351.908062 66.156945 
L 352.112205 68.704639 
L 352.31648 68.704639 
L 352.52059 71.252333 
L 354.051627 71.252333 
L 354.255807 73.800027 
L 354.766201 73.800027 
L 354.970728 76.347721 
L 355.480885 76.347721 
L 355.787374 81.443109 
L 356.196117 81.443109 
L 356.400295 83.990803 
L 358.135206 83.990803 
L 358.339393 86.538497 
L 358.85009 86.538497 
L 359.054313 83.990803 
L 360.176996 83.990803 
L 360.381826 86.538497 
L 360.789527 86.538497 
L 360.993717 89.086191 
L 361.197894 89.086191 
L 361.40207 86.538497 
L 364.873107 86.538497 
L 365.077294 89.086191 
L 365.48565 89.086191 
L 365.689833 91.633885 
L 366.098187 91.633885 
L 366.608886 96.729273 
L 366.813017 96.729273 
L 367.017231 99.276967 
L 367.731626 99.276967 
L 367.935802 101.824661 
L 368.956694 101.824661 
L 369.16087 104.372355 
L 370.284147 104.372355 
L 370.488383 106.920049 
L 371.305076 106.920049 
L 371.509293 109.467743 
L 372.020198 109.467743 
L 372.223553 112.015437 
L 374.061172 112.015437 
L 374.265348 114.563131 
L 376.001072 114.563131 
L 376.205579 117.110825 
L 381.922395 117.110825 
L 382.126609 114.563131 
L 382.22834 114.563131 
L 382.432518 117.110825 
L 383.249242 117.110825 
L 383.454128 114.563131 
L 385.18924 114.563131 
L 385.291029 117.110825 
L 385.801724 117.110825 
L 386.006017 114.563131 
L 386.107743 114.563131 
L 386.311921 117.110825 
L 394.070721 117.110825 
L 394.274908 119.658519 
L 396.827374 119.658519 
L 397.031313 122.206213 
L 401.523625 122.206213 
L 401.727756 124.753907 
L 405.811484 124.753907 
L 406.0156 127.301601 
L 406.219719 124.753907 
L 406.832344 124.753907 
L 407.036498 127.301601 
L 407.444924 127.301601 
L 407.649098 124.753907 
L 409.384152 124.753907 
L 409.588334 127.301601 
L 414.896984 127.301601 
L 415.101155 129.849295 
L 423.881691 129.849295 
L 424.085054 132.396989 
L 427.862558 132.396989 
L 428.066991 134.944683 
L 430.41459 134.944683 
L 430.618787 137.492377 
L 433.171404 137.492377 
L 433.273104 140.040071 
L 435.213253 140.040071 
L 435.621533 142.587765 
L 436.642446 142.587765 
L 436.846602 145.135459 
L 437.765057 145.135459 
L 437.969237 147.683153 
L 441.44028 147.683153 
L 441.644458 150.230847 
L 443.277902 150.230847 
L 443.482078 152.778541 
L 444.094618 152.778541 
L 444.298792 150.230847 
L 446.544767 150.230847 
L 446.748947 147.683153 
L 447.463982 147.683153 
L 447.668162 145.135459 
L 448.280619 145.135459 
L 448.484859 142.587765 
L 449.097375 142.587765 
L 449.30161 140.040071 
L 450.424178 140.040071 
L 450.62836 137.492377 
L 450.934869 137.492377 
L 451.139202 140.040071 
L 452.057606 140.040071 
L 452.261793 137.492377 
L 452.465977 140.040071 
L 453.38519 140.040071 
L 453.589359 137.492377 
L 453.691048 137.492377 
L 453.89523 140.040071 
L 453.997739 140.040071 
L 454.201904 137.492377 
L 454.406097 140.040071 
L 456.141205 140.040071 
L 456.345379 137.492377 
L 457.774624 137.492377 
L 457.978804 140.040071 
L 460.020594 140.040071 
L 460.224787 142.587765 
L 460.531285 145.135459 
L 463.594139 145.135459 
L 463.798319 142.587765 
L 466.656834 142.587765 
L 466.86099 140.040071 
L 467.77942 140.040071 
L 467.984549 137.492377 
L 468.391956 137.492377 
L 468.59614 140.040071 
L 473.088086 140.040071 
L 473.29227 137.492377 
L 473.496446 137.492377 
L 473.701411 134.944683 
L 474.108983 134.944683 
L 474.31317 132.396989 
L 474.51735 132.396989 
L 474.721523 134.944683 
L 475.028118 134.944683 
L 475.232334 137.492377 
L 478.090843 137.492377 
L 478.295024 140.040071 
L 478.499204 137.492377 
L 480.949359 137.492377 
L 481.153543 134.944683 
L 481.561548 134.944683 
L 481.766066 132.396989 
L 481.867795 132.396989 
L 482.071977 129.849295 
L 482.888688 129.849295 
L 483.092866 127.301601 
L 483.60361 127.301601 
L 483.807843 124.753907 
L 484.420406 124.753907 
L 484.624571 122.206213 
L 484.726311 122.206213 
L 484.930471 124.753907 
L 485.543013 124.753907 
L 485.747213 122.206213 
L 485.951397 122.206213 
L 486.155566 119.658519 
L 486.258073 119.658519 
L 486.462281 122.206213 
L 486.972287 122.206213 
L 487.177411 124.753907 
L 487.48309 124.753907 
L 487.687241 122.206213 
L 489.218202 122.206213 
L 489.524836 119.658519 
L 489.729045 119.658519 
L 490.137389 127.301601 
L 490.34152 127.301601 
L 490.545815 129.849295 
L 490.95416 129.849295 
L 491.157943 132.396989 
L 492.07675 132.396989 
L 492.280934 134.944683 
L 493.2 134.944683 
L 493.2 134.944683 
" clip-path="url(#p0b611cf02b)" style="fill: none; stroke: #1f77b4; stroke-width: 1.5; stroke-linecap: square"/>
   </g>
   <g id="patch_3">
    <path d="M 51.05 158.510853 
L 51.05 32.4 
" style="fill: none; stroke: #000000; stroke-width: 0.8; stroke-linejoin: miter; stroke-linecap: square"/>
   </g>
   <g id="patch_4">
    <path d="M 493.2 158.510853 
L 493.2 32.4 
" style="fill: none; stroke: #000000; stroke-width: 0.8; stroke-linejoin: miter; stroke-linecap: square"/>
   </g>
   <g id="patch_5">
    <path d="M 51.05 158.510853 
L 493.2 158.510853 
" style="fill: none; stroke: #000000; stroke-width: 0.8; stroke-linejoin: miter; stroke-linecap: square"/>
   </g>
   <g id="patch_6">
    <path d="M 51.05 32.4 
L 493.2 32.4 
" style="fill: none; stroke: #000000; stroke-width: 0.8; stroke-linejoin: miter; stroke-linecap: square"/>
   </g>
  </g>
  <g id="axes_2">
   <g id="patch_7">
    <path d="M 51.05 302.881706 
L 493.2 302.881706 
L 493.2 176.770853 
L 51.05 176.770853 
z
" style="fill: #ffffff"/>
   </g>
   <g id="matplotlib.axis_3">
    <g id="xtick_10">
     <g id="line2d_30">
      <path d="M 96.945395 302.881706 
L 96.945395 176.770853 
" clip-path="url(#p5d6beea62d)" style="fill: none; stroke: #b0b0b0; stroke-width: 0.8; stroke-linecap: square"/>
     </g>
     <g id="line2d_31">
      <g>
       <use xlink:href="#m7ba198799d" x="96.945395" y="302.881706" style="stroke: #000000; stroke-width: 0.8"/>
      </g>
     </g>
    </g>
    <g id="xtick_11">
     <g id="line2d_32">
      <path d="M 142.886084 302.881706 
L 142.886084 176.770853 
" clip-path="url(#p5d6beea62d)" style="fill: none; stroke: #b0b0b0; stroke-width: 0.8; stroke-linecap: square"/>
     </g>
     <g id="line2d_33">
      <g>
       <use xlink:href="#m7ba198799d" x="142.886084" y="302.881706" style="stroke: #000000; stroke-width: 0.8"/>
      </g>
     </g>
    </g>
    <g id="xtick_12">
     <g id="line2d_34">
      <path d="M 188.826774 302.881706 
L 188.826774 176.770853 
" clip-path="url(#p5d6beea62d)" style="fill: none; stroke: #b0b0b0; stroke-width: 0.8; stroke-linecap: square"/>
     </g>
     <g id="line2d_35">
      <g>
       <use xlink:href="#m7ba198799d" x="188.826774" y="302.881706" style="stroke: #000000; stroke-width: 0.8"/>
      </g>
     </g>
    </g>
    <g id="xtick_13">
     <g id="line2d_36">
      <path d="M 234.767463 302.881706 
L 234.767463 176.770853 
" clip-path="url(#p5d6beea62d)" style="fill: none; stroke: #b0b0b0; stroke-width: 0.8; stroke-linecap: square"/>
     </g>
     <g id="line2d_37">
      <g>
       <use xlink:href="#m7ba198799d" x="234.767463" y="302.881706" style="stroke: #000000; stroke-width: 0.8"/>
      </g>
     </g>
    </g>
    <g id="xtick_14">
     <g id="line2d_38">
      <path d="M 280.708152 302.881706 
L 280.708152 176.770853 
" clip-path="url(#p5d6beea62d)" style="fill: none; stroke: #b0b0b0; stroke-width: 0.8; stroke-linecap: square"/>
     </g>
     <g id="line2d_39">
      <g>
       <use xlink:href="#m7ba198799d" x="280.708152" y="302.881706" style="stroke: #000000; stroke-width: 0.8"/>
      </g>
     </g>
    </g>
    <g id="xtick_15">
     <g id="line2d_40">
      <path d="M 326.648842 302.881706 
L 326.648842 176.770853 
" clip-path="url(#p5d6beea62d)" style="fill: none; stroke: #b0b0b0; stroke-width: 0.8; stroke-linecap: square"/>
     </g>
     <g id="line2d_41">
      <g>
       <use xlink:href="#m7ba198799d" x="326.648842" y="302.881706" style="stroke: #000000; stroke-width: 0.8"/>
      </g>
     </g>
    </g>
    <g id="xtick_16">
     <g id="line2d_42">
      <path d="M 372.589531 302.881706 
L 372.589531 176.770853 
" clip-path="url(#p5d6beea62d)" style="fill: none; stroke: #b0b0b0; stroke-width: 0.8; stroke-linecap: square"/>
     </g>
     <g id="line2d_43">
      <g>
       <use xlink:href="#m7ba198799d" x="372.589531" y="302.881706" style="stroke: #000000; stroke-width: 0.8"/>
      </g>
     </g>
    </g>
    <g id="xtick_17">
     <g id="line2d_44">
      <path d="M 418.53022 302.881706 
L 418.53022 176.770853 
" clip-path="url(#p5d6beea62d)" style="fill: none; stroke: #b0b0b0; stroke-width: 0.8; stroke-linecap: square"/>
     </g>
     <g id="line2d_45">
      <g>
       <use xlink:href="#m7ba198799d" x="418.53022" y="302.881706" style="stroke: #000000; stroke-width: 0.8"/>
      </g>
     </g>
    </g>
    <g id="xtick_18">
     <g id="line2d_46">
      <path d="M 464.47091 302.881706 
L 464.47091 176.770853 
" clip-path="url(#p5d6beea62d)" style="fill: none; stroke: #b0b0b0; stroke-width: 0.8; stroke-linecap: square"/>
     </g>
     <g id="line2d_47">
      <g>
       <use xlink:href="#m7ba198799d" x="464.47091" y="302.881706" style="stroke: #000000; stroke-width: 0.8"/>
      </g>
     </g>
    </g>
   </g>
   <g id="matplotlib.axis_4">
    <g id="ytick_6">
     <g id="line2d_48">
      <path d="M 51.05 302.881706 
L 493.2 302.881706 
" clip-path="url(#p5d6beea62d)" style="fill: none; stroke: #b0b0b0; stroke-width: 0.8; stroke-linecap: square"/>
     </g>
     <g id="line2d_49">
      <g>
       <use xlink:href="#m44c2431fc1" x="51.05" y="302.881706" style="stroke: #000000; stroke-width: 0.8"/>
      </g>
     </g>
     <g id="text_7">
      <!-- 0 -->
      <g transform="translate(37.6875 306.680924) scale(0.1 -0.1)">
       <defs>
        <path id="DejaVuSans-30" d="M 2034 4250 
Q 1547 4250 1301 3770 
Q 1056 3291 1056 2328 
Q 1056 1369 1301 889 
Q 1547 409 2034 409 
Q 2525 409 2770 889 
Q 3016 1369 3016 2328 
Q 3016 3291 2770 3770 
Q 2525 4250 2034 4250 
z
M 2034 4750 
Q 2819 4750 3233 4129 
Q 3647 3509 3647 2328 
Q 3647 1150 3233 529 
Q 2819 -91 2034 -91 
Q 1250 -91 836 529 
Q 422 1150 422 2328 
Q 422 3509 836 4129 
Q 1250 4750 2034 4750 
z
" transform="scale(0.015625)"/>
       </defs>
       <use xlink:href="#DejaVuSans-30"/>
      </g>
     </g>
    </g>
    <g id="ytick_7">
     <g id="line2d_50">
      <path d="M 51.05 277.659535 
L 493.2 277.659535 
" clip-path="url(#p5d6beea62d)" style="fill: none; stroke: #b0b0b0; stroke-width: 0.8; stroke-linecap: square"/>
     </g>
     <g id="line2d_51">
      <g>
       <use xlink:href="#m44c2431fc1" x="51.05" y="277.659535" style="stroke: #000000; stroke-width: 0.8"/>
      </g>
     </g>
     <g id="text_8">
      <!-- 20 -->
      <g transform="translate(31.325 281.458754) scale(0.1 -0.1)">
       <defs>
        <path id="DejaVuSans-32" d="M 1228 531 
L 3431 531 
L 3431 0 
L 469 0 
L 469 531 
Q 828 903 1448 1529 
Q 2069 2156 2228 2338 
Q 2531 2678 2651 2914 
Q 2772 3150 2772 3378 
Q 2772 3750 2511 3984 
Q 2250 4219 1831 4219 
Q 1534 4219 1204 4116 
Q 875 4013 500 3803 
L 500 4441 
Q 881 4594 1212 4672 
Q 1544 4750 1819 4750 
Q 2544 4750 2975 4387 
Q 3406 4025 3406 3419 
Q 3406 3131 3298 2873 
Q 3191 2616 2906 2266 
Q 2828 2175 2409 1742 
Q 1991 1309 1228 531 
z
" transform="scale(0.015625)"/>
       </defs>
       <use xlink:href="#DejaVuSans-32"/>
       <use xlink:href="#DejaVuSans-30" x="63.623047"/>
      </g>
     </g>
    </g>
    <g id="ytick_8">
     <g id="line2d_52">
      <path d="M 51.05 252.437365 
L 493.2 252.437365 
" clip-path="url(#p5d6beea62d)" style="fill: none; stroke: #b0b0b0; stroke-width: 0.8; stroke-linecap: square"/>
     </g>
     <g id="line2d_53">
      <g>
       <use xlink:href="#m44c2431fc1" x="51.05" y="252.437365" style="stroke: #000000; stroke-width: 0.8"/>
      </g>
     </g>
     <g id="text_9">
      <!-- 40 -->
      <g transform="translate(31.325 256.236583) scale(0.1 -0.1)">
       <use xlink:href="#DejaVuSans-34"/>
       <use xlink:href="#DejaVuSans-30" x="63.623047"/>
      </g>
     </g>
    </g>
    <g id="ytick_9">
     <g id="line2d_54">
      <path d="M 51.05 227.215194 
L 493.2 227.215194 
" clip-path="url(#p5d6beea62d)" style="fill: none; stroke: #b0b0b0; stroke-width: 0.8; stroke-linecap: square"/>
     </g>
     <g id="line2d_55">
      <g>
       <use xlink:href="#m44c2431fc1" x="51.05" y="227.215194" style="stroke: #000000; stroke-width: 0.8"/>
      </g>
     </g>
     <g id="text_10">
      <!-- 60 -->
      <g transform="translate(31.325 231.014413) scale(0.1 -0.1)">
       <use xlink:href="#DejaVuSans-36"/>
       <use xlink:href="#DejaVuSans-30" x="63.623047"/>
      </g>
     </g>
    </g>
    <g id="ytick_10">
     <g id="line2d_56">
      <path d="M 51.05 201.993023 
L 493.2 201.993023 
" clip-path="url(#p5d6beea62d)" style="fill: none; stroke: #b0b0b0; stroke-width: 0.8; stroke-linecap: square"/>
     </g>
     <g id="line2d_57">
      <g>
       <use xlink:href="#m44c2431fc1" x="51.05" y="201.993023" style="stroke: #000000; stroke-width: 0.8"/>
      </g>
     </g>
     <g id="text_11">
      <!-- 80 -->
      <g transform="translate(31.325 205.792242) scale(0.1 -0.1)">
       <use xlink:href="#DejaVuSans-38"/>
       <use xlink:href="#DejaVuSans-30" x="63.623047"/>
      </g>
     </g>
    </g>
    <g id="ytick_11">
     <g id="line2d_58">
      <path d="M 51.05 176.770853 
L 493.2 176.770853 
" clip-path="url(#p5d6beea62d)" style="fill: none; stroke: #b0b0b0; stroke-width: 0.8; stroke-linecap: square"/>
     </g>
     <g id="line2d_59">
      <g>
       <use xlink:href="#m44c2431fc1" x="51.05" y="176.770853" style="stroke: #000000; stroke-width: 0.8"/>
      </g>
     </g>
     <g id="text_12">
      <!-- 100 -->
      <g transform="translate(24.9625 180.570072) scale(0.1 -0.1)">
       <defs>
        <path id="DejaVuSans-31" d="M 794 531 
L 1825 531 
L 1825 4091 
L 703 3866 
L 703 4441 
L 1819 4666 
L 2450 4666 
L 2450 531 
L 3481 531 
L 3481 0 
L 794 0 
L 794 531 
z
" transform="scale(0.015625)"/>
       </defs>
       <use xlink:href="#DejaVuSans-31"/>
       <use xlink:href="#DejaVuSans-30" x="63.623047"/>
       <use xlink:href="#DejaVuSans-30" x="127.246094"/>
      </g>
     </g>
    </g>
    <g id="text_13">
     <!-- Humidity [%RH] -->
     <g transform="translate(18.882813 279.973154) rotate(-90) scale(0.1 -0.1)">
      <defs>
       <path id="DejaVuSans-48" d="M 628 4666 
L 1259 4666 
L 1259 2753 
L 3553 2753 
L 3553 4666 
L 4184 4666 
L 4184 0 
L 3553 0 
L 3553 2222 
L 1259 2222 
L 1259 0 
L 628 0 
L 628 4666 
z
" transform="scale(0.015625)"/>
       <path id="DejaVuSans-69" d="M 603 3500 
L 1178 3500 
L 1178 0 
L 603 0 
L 603 3500 
z
M 603 4863 
L 1178 4863 
L 1178 4134 
L 603 4134 
L 603 4863 
z
" transform="scale(0.015625)"/>
       <path id="DejaVuSans-64" d="M 2906 2969 
L 2906 4863 
L 3481 4863 
L 3481 0 
L 2906 0 
L 2906 525 
Q 2725 213 2448 61 
Q 2172 -91 1784 -91 
Q 1150 -91 751 415 
Q 353 922 353 1747 
Q 353 2572 751 3078 
Q 1150 3584 1784 3584 
Q 2172 3584 2448 3432 
Q 2725 3281 2906 2969 
z
M 947 1747 
Q 947 1113 1208 752 
Q 1469 391 1925 391 
Q 2381 391 2643 752 
Q 2906 1113 2906 1747 
Q 2906 2381 2643 2742 
Q 2381 3103 1925 3103 
Q 1469 3103 1208 2742 
Q 947 2381 947 1747 
z
" transform="scale(0.015625)"/>
       <path id="DejaVuSans-79" d="M 2059 -325 
Q 1816 -950 1584 -1140 
Q 1353 -1331 966 -1331 
L 506 -1331 
L 506 -850 
L 844 -850 
Q 1081 -850 1212 -737 
Q 1344 -625 1503 -206 
L 1606 56 
L 191 3500 
L 800 3500 
L 1894 763 
L 2988 3500 
L 3597 3500 
L 2059 -325 
z
" transform="scale(0.015625)"/>
       <path id="DejaVuSans-25" d="M 4653 2053 
Q 4381 2053 4226 1822 
Q 4072 1591 4072 1178 
Q 4072 772 4226 539 
Q 4381 306 4653 306 
Q 4919 306 5073 539 
Q 5228 772 5228 1178 
Q 5228 1588 5073 1820 
Q 4919 2053 4653 2053 
z
M 4653 2450 
Q 5147 2450 5437 2106 
Q 5728 1763 5728 1178 
Q 5728 594 5436 251 
Q 5144 -91 4653 -91 
Q 4153 -91 3862 251 
Q 3572 594 3572 1178 
Q 3572 1766 3864 2108 
Q 4156 2450 4653 2450 
z
M 1428 4353 
Q 1159 4353 1004 4120 
Q 850 3888 850 3481 
Q 850 3069 1003 2837 
Q 1156 2606 1428 2606 
Q 1700 2606 1854 2837 
Q 2009 3069 2009 3481 
Q 2009 3884 1853 4118 
Q 1697 4353 1428 4353 
z
M 4250 4750 
L 4750 4750 
L 1831 -91 
L 1331 -91 
L 4250 4750 
z
M 1428 4750 
Q 1922 4750 2215 4408 
Q 2509 4066 2509 3481 
Q 2509 2891 2217 2550 
Q 1925 2209 1428 2209 
Q 931 2209 642 2551 
Q 353 2894 353 3481 
Q 353 4063 643 4406 
Q 934 4750 1428 4750 
z
" transform="scale(0.015625)"/>
       <path id="DejaVuSans-52" d="M 2841 2188 
Q 3044 2119 3236 1894 
Q 3428 1669 3622 1275 
L 4263 0 
L 3584 0 
L 2988 1197 
Q 2756 1666 2539 1819 
Q 2322 1972 1947 1972 
L 1259 1972 
L 1259 0 
L 628 0 
L 628 4666 
L 2053 4666 
Q 2853 4666 3247 4331 
Q 3641 3997 3641 3322 
Q 3641 2881 3436 2590 
Q 3231 2300 2841 2188 
z
M 1259 4147 
L 1259 2491 
L 2053 2491 
Q 2509 2491 2742 2702 
Q 2975 2913 2975 3322 
Q 2975 3731 2742 3939 
Q 2509 4147 2053 4147 
L 1259 4147 
z
" transform="scale(0.015625)"/>
      </defs>
      <use xlink:href="#DejaVuSans-48"/>
      <use xlink:href="#DejaVuSans-75" x="75.195312"/>
      <use xlink:href="#DejaVuSans-6d" x="138.574219"/>
      <use xlink:href="#DejaVuSans-69" x="235.986328"/>
      <use xlink:href="#DejaVuSans-64" x="263.769531"/>
      <use xlink:href="#DejaVuSans-69" x="327.246094"/>
      <use xlink:href="#DejaVuSans-74" x="355.029297"/>
      <use xlink:href="#DejaVuSans-79" x="394.238281"/>
      <use xlink:href="#DejaVuSans-20" x="453.417969"/>
      <use xlink:href="#DejaVuSans-5b" x="485.205078"/>
      <use xlink:href="#DejaVuSans-25" x="524.21875"/>
      <use xlink:href="#DejaVuSans-52" x="619.238281"/>
      <use xlink:href="#DejaVuSans-48" x="688.720703"/>
      <use xlink:href="#DejaVuSans-5d" x="763.916016"/>
     </g>
    </g>
   </g>
   <g id="line2d_60">
    <path d="M 51.05 199.470806 
L 58.808811 199.470806 
L 59.115285 198.209698 
L 60.646432 198.209698 
L 60.95271 196.948589 
L 62.586674 196.948589 
L 62.689268 195.687481 
L 64.219973 195.687481 
L 64.424237 196.948589 
L 70.54911 196.948589 
L 70.753739 198.209698 
L 71.774699 198.209698 
L 71.979024 199.470806 
L 73.408163 199.470806 
L 73.612368 198.209698 
L 74.633204 198.209698 
L 74.837486 196.948589 
L 79.329381 196.948589 
L 79.533531 198.209698 
L 85.761508 198.209698 
L 86.067057 199.470806 
L 88.925801 199.470806 
L 89.129863 200.731915 
L 90.252382 200.731915 
L 90.456556 201.993023 
L 92.600908 201.993023 
L 92.805078 200.731915 
L 94.642729 200.731915 
L 94.8469 199.470806 
L 95.66346 199.470806 
L 95.867842 198.209698 
L 96.581946 198.209698 
L 96.786122 196.948589 
L 97.705428 196.948589 
L 97.909579 195.687481 
L 98.93048 195.687481 
L 99.134755 194.426372 
L 100.66553 194.426372 
L 100.869704 193.165264 
L 102.707298 193.165264 
L 102.911488 191.904155 
L 108.015959 191.904155 
L 108.220141 193.165264 
L 110.67028 193.165264 
L 110.976767 194.426372 
L 111.691191 194.426372 
L 111.895363 195.687481 
L 114.345522 195.687481 
L 114.550636 194.426372 
L 115.774781 194.426372 
L 115.978957 193.165264 
L 117.510801 193.165264 
L 117.714928 191.904155 
L 119.858357 191.904155 
L 120.062531 190.643047 
L 121.390124 190.643047 
L 121.594278 189.381938 
L 133.028419 189.381938 
L 133.232463 190.643047 
L 135.785223 190.643047 
L 135.988476 191.904155 
L 137.62271 191.904155 
L 137.928523 193.165264 
L 138.541155 193.165264 
L 138.642809 191.904155 
L 138.846974 199.470806 
L 139.765942 199.470806 
L 139.970441 191.904155 
L 140.072051 191.904155 
L 140.276233 193.165264 
L 141.297125 193.165264 
L 141.502131 199.470806 
L 143.543093 199.470806 
L 143.747284 198.209698 
L 144.053954 198.209698 
L 144.258144 199.470806 
L 148.443373 199.470806 
L 148.647553 193.165264 
L 153.752017 193.165264 
L 153.956193 191.904155 
L 155.896255 191.904155 
L 156.100493 190.643047 
L 158.346503 190.643047 
L 158.550677 189.381938 
L 165.288544 189.381938 
L 165.49263 190.643047 
L 173.047373 190.643047 
L 173.251462 189.381938 
L 202.653299 189.381938 
L 202.754945 190.643047 
L 204.592542 190.643047 
L 204.797486 191.904155 
L 207.349406 191.904155 
L 207.553563 193.165264 
L 207.655244 193.165264 
L 207.859425 191.904155 
L 210.105391 191.904155 
L 210.309561 190.643047 
L 213.780615 190.643047 
L 213.984789 189.381938 
L 304.845473 189.381938 
L 305.048738 190.643047 
L 306.477996 190.643047 
L 306.683144 191.904155 
L 306.988812 191.904155 
L 307.193046 193.165264 
L 309.439124 193.165264 
L 309.643312 191.904155 
L 312.093268 191.904155 
L 312.297478 193.165264 
L 314.747476 193.165264 
L 314.951769 194.426372 
L 316.482752 194.426372 
L 316.686925 193.165264 
L 319.749617 193.165264 
L 319.953805 191.904155 
L 320.15884 191.904155 
L 320.362151 193.165264 
L 323.527268 193.165264 
L 323.731523 194.426372 
L 325.262448 194.426372 
L 325.466615 193.165264 
L 325.773258 193.165264 
L 325.875875 194.426372 
L 326.283346 194.426372 
L 326.487535 195.687481 
L 327.202438 195.687481 
L 327.406737 196.948589 
L 327.713356 196.948589 
L 328.019039 198.209698 
L 328.22336 198.209698 
L 328.325133 199.470806 
L 328.529307 198.209698 
L 330.26524 198.209698 
L 330.469352 196.948589 
L 330.571099 196.948589 
L 330.877759 199.470806 
L 331.081911 199.470806 
L 331.286191 200.731915 
L 332.612888 200.731915 
L 332.817066 201.993023 
L 333.735964 201.993023 
L 333.940478 209.559675 
L 334.144673 208.298566 
L 334.246312 208.298566 
L 334.553035 210.820783 
L 334.961312 210.820783 
L 335.165507 212.081892 
L 335.267208 212.081892 
L 335.47223 213.343 
L 335.879742 213.343 
L 336.08392 212.081892 
L 336.49309 212.081892 
L 336.696449 213.343 
L 337.104801 213.343 
L 337.308989 214.604109 
L 337.819861 212.081892 
L 338.023949 212.081892 
L 338.228056 213.343 
L 338.738242 213.343 
L 338.942424 212.081892 
L 339.452883 212.081892 
L 339.657427 213.343 
L 340.371664 213.343 
L 340.575846 212.081892 
L 342.720335 212.081892 
L 342.924466 213.343 
L 344.353769 213.343 
L 344.557945 207.037458 
L 345.068608 207.037458 
L 345.374289 205.776349 
L 345.476128 205.776349 
L 345.680302 204.51524 
L 345.986849 204.51524 
L 346.292842 201.993023 
L 346.39519 201.993023 
L 346.59957 203.254132 
L 346.905374 203.254132 
L 347.211864 201.993023 
L 347.824443 201.993023 
L 348.028574 200.731915 
L 348.334629 200.731915 
L 348.538813 201.993023 
L 349.763888 201.993023 
L 349.968068 209.559675 
L 350.376422 209.559675 
L 350.479025 201.993023 
L 350.580602 209.559675 
L 350.785539 201.993023 
L 351.397317 201.993023 
L 351.601495 200.731915 
L 352.52059 200.731915 
L 352.622389 199.470806 
L 354.255807 199.470806 
L 354.459989 200.731915 
L 356.400295 200.731915 
L 356.501779 201.993023 
L 360.381826 201.993023 
L 361.096279 205.776349 
L 361.40207 205.776349 
L 361.60625 204.51524 
L 362.0146 204.51524 
L 362.218777 203.254132 
L 363.035498 203.254132 
L 363.239677 201.993023 
L 363.852218 201.993023 
L 364.056396 200.731915 
L 364.771298 200.731915 
L 364.975427 199.470806 
L 366.098187 199.470806 
L 366.404657 198.209698 
L 367.629787 198.209698 
L 367.83392 196.948589 
L 369.773413 196.948589 
L 369.978466 195.687481 
L 371.713422 195.687481 
L 371.815197 194.426372 
L 373.142805 194.426372 
L 373.346902 193.165264 
L 379.472158 193.165264 
L 379.574811 191.904155 
L 389.782972 191.904155 
L 389.987133 193.165264 
L 397.440016 193.165264 
L 397.644232 191.904155 
L 405.300566 191.904155 
L 405.504744 190.643047 
L 409.792518 190.643047 
L 409.996687 191.904155 
L 417.449688 191.904155 
L 417.65383 190.643047 
L 418.776385 190.643047 
L 418.980565 191.904155 
L 422.349981 191.904155 
L 422.55416 190.643047 
L 425.208433 190.643047 
L 425.412592 191.904155 
L 427.862558 191.904155 
L 428.066991 193.165264 
L 430.41459 193.165264 
L 430.618787 191.904155 
L 441.338452 191.904155 
L 441.542783 193.165264 
L 442.461185 193.165264 
L 442.665361 191.904155 
L 443.277902 191.904155 
L 443.482078 193.165264 
L 445.830377 193.165264 
L 446.034589 191.904155 
L 448.994921 191.904155 
L 449.199097 190.643047 
L 456.24371 190.643047 
L 456.345379 191.904155 
L 457.672955 191.904155 
L 457.877067 193.165264 
L 461.041498 193.165264 
L 461.245669 194.426372 
L 461.449858 193.165264 
L 461.654033 193.165264 
L 461.858211 194.426372 
L 463.287475 194.426372 
L 463.491651 193.165264 
L 465.329276 193.165264 
L 465.534365 194.426372 
L 466.452658 194.426372 
L 466.656834 193.165264 
L 470.637937 193.165264 
L 470.842128 191.904155 
L 471.046289 193.165264 
L 473.29227 193.165264 
L 473.496446 194.426372 
L 473.701411 194.426372 
L 474.007183 195.687481 
L 474.31317 195.687481 
L 474.51735 196.948589 
L 474.619807 196.948589 
L 474.823993 195.687481 
L 476.763314 195.687481 
L 476.967498 194.426372 
L 480.745172 194.426372 
L 480.949359 193.165264 
L 483.19533 193.165264 
L 483.298014 194.426372 
L 493.2 194.426372 
L 493.2 194.426372 
" clip-path="url(#p5d6beea62d)" style="fill: none; stroke: #ff7f0e; stroke-width: 1.5; stroke-linecap: square"/>
   </g>
   <g id="patch_8">
    <path d="M 51.05 302.881706 
L 51.05 176.770853 
" style="fill: none; stroke: #000000; stroke-width: 0.8; stroke-linejoin: miter; stroke-linecap: square"/>
   </g>
   <g id="patch_9">
    <path d="M 493.2 302.881706 
L 493.2 176.770853 
" style="fill: none; stroke: #000000; stroke-width: 0.8; stroke-linejoin: miter; stroke-linecap: square"/>
   </g>
   <g id="patch_10">
    <path d="M 51.05 302.881706 
L 493.2 302.881706 
" style="fill: none; stroke: #000000; stroke-width: 0.8; stroke-linejoin: miter; stroke-linecap: square"/>
   </g>
   <g id="patch_11">
    <path d="M 51.05 176.770853 
L 493.2 176.770853 
" style="fill: none; stroke: #000000; stroke-width: 0.8; stroke-linejoin: miter; stroke-linecap: square"/>
   </g>
  </g>
  <g id="axes_3">
   <g id="patch_12">
    <path d="M 51.05 447.252558 
L 493.2 447.252558 
L 493.2 321.141706 
L 51.05 321.141706 
z
" style="fill: #ffffff"/>
   </g>
   <g id="matplotlib.axis_5">
    <g id="xtick_19">
     <g id="line2d_61">
      <path d="M 96.945395 447.252558 
L 96.945395 321.141706 
" clip-path="url(#p96404ab3d1)" style="fill: none; stroke: #b0b0b0; stroke-width: 0.8; stroke-linecap: square"/>
     </g>
     <g id="line2d_62">
      <g>
       <use xlink:href="#m7ba198799d" x="96.945395" y="447.252558" style="stroke: #000000; stroke-width: 0.8"/>
      </g>
     </g>
     <g id="text_14">
      <!-- 03-01 06 -->
      <g transform="translate(83.000476 491.417649) rotate(-45) scale(0.1 -0.1)">
       <defs>
        <path id="DejaVuSans-33" d="M 2597 2516 
Q 3050 2419 3304 2112 
Q 3559 1806 3559 1356 
Q 3559 666 3084 287 
Q 2609 -91 1734 -91 
Q 1441 -91 1130 -33 
Q 819 25 488 141 
L 488 750 
Q 750 597 1062 519 
Q 1375 441 1716 441 
Q 2309 441 2620 675 
Q 2931 909 2931 1356 
Q 2931 1769 2642 2001 
Q 2353 2234 1838 2234 
L 1294 2234 
L 1294 2753 
L 1863 2753 
Q 2328 2753 2575 2939 
Q 2822 3125 2822 3475 
Q 2822 3834 2567 4026 
Q 2313 4219 1838 4219 
Q 1578 4219 1281 4162 
Q 984 4106 628 3988 
L 628 4550 
Q 988 4650 1302 4700 
Q 1616 4750 1894 4750 
Q 2613 4750 3031 4423 
Q 3450 4097 3450 3541 
Q 3450 3153 3228 2886 
Q 3006 2619 2597 2516 
z
" transform="scale(0.015625)"/>
        <path id="DejaVuSans-2d" d="M 313 2009 
L 1997 2009 
L 1997 1497 
L 313 1497 
L 313 2009 
z
" transform="scale(0.015625)"/>
       </defs>
       <use xlink:href="#DejaVuSans-30"/>
       <use xlink:href="#DejaVuSans-33" x="63.623047"/>
       <use xlink:href="#DejaVuSans-2d" x="127.246094"/>
       <use xlink:href="#DejaVuSans-30" x="163.330078"/>
       <use xlink:href="#DejaVuSans-31" x="226.953125"/>
       <use xlink:href="#DejaVuSans-20" x="290.576172"/>
       <use xlink:href="#DejaVuSans-30" x="322.363281"/>
       <use xlink:href="#DejaVuSans-36" x="385.986328"/>
      </g>
     </g>
    </g>
    <g id="xtick_20">
     <g id="line2d_63">
      <path d="M 142.886084 447.252558 
L 142.886084 321.141706 
" clip-path="url(#p96404ab3d1)" style="fill: none; stroke: #b0b0b0; stroke-width: 0.8; stroke-linecap: square"/>
     </g>
     <g id="line2d_64">
      <g>
       <use xlink:href="#m7ba198799d" x="142.886084" y="447.252558" style="stroke: #000000; stroke-width: 0.8"/>
      </g>
     </g>
     <g id="text_15">
      <!-- 03-01 12 -->
      <g transform="translate(128.941165 491.417649) rotate(-45) scale(0.1 -0.1)">
       <use xlink:href="#DejaVuSans-30"/>
       <use xlink:href="#DejaVuSans-33" x="63.623047"/>
       <use xlink:href="#DejaVuSans-2d" x="127.246094"/>
       <use xlink:href="#DejaVuSans-30" x="163.330078"/>
       <use xlink:href="#DejaVuSans-31" x="226.953125"/>
       <use xlink:href="#DejaVuSans-20" x="290.576172"/>
       <use xlink:href="#DejaVuSans-31" x="322.363281"/>
       <use xlink:href="#DejaVuSans-32" x="385.986328"/>
      </g>
     </g>
    </g>
    <g id="xtick_21">
     <g id="line2d_65">
      <path d="M 188.826774 447.252558 
L 188.826774 321.141706 
" clip-path="url(#p96404ab3d1)" style="fill: none; stroke: #b0b0b0; stroke-width: 0.8; stroke-linecap: square"/>
     </g>
     <g id="line2d_66">
      <g>
       <use xlink:href="#m7ba198799d" x="188.826774" y="447.252558" style="stroke: #000000; stroke-width: 0.8"/>
      </g>
     </g>
     <g id="text_16">
      <!-- 03-01 18 -->
      <g transform="translate(174.881854 491.417649) rotate(-45) scale(0.1 -0.1)">
       <use xlink:href="#DejaVuSans-30"/>
       <use xlink:href="#DejaVuSans-33" x="63.623047"/>
       <use xlink:href="#DejaVuSans-2d" x="127.246094"/>
       <use xlink:href="#DejaVuSans-30" x="163.330078"/>
       <use xlink:href="#DejaVuSans-31" x="226.953125"/>
       <use xlink:href="#DejaVuSans-20" x="290.576172"/>
       <use xlink:href="#DejaVuSans-31" x="322.363281"/>
       <use xlink:href="#DejaVuSans-38" x="385.986328"/>
      </g>
     </g>
    </g>
    <g id="xtick_22">
     <g id="line2d_67">
      <path d="M 234.767463 447.252558 
L 234.767463 321.141706 
" clip-path="url(#p96404ab3d1)" style="fill: none; stroke: #b0b0b0; stroke-width: 0.8; stroke-linecap: square"/>
     </g>
     <g id="line2d_68">
      <g>
       <use xlink:href="#m7ba198799d" x="234.767463" y="447.252558" style="stroke: #000000; stroke-width: 0.8"/>
      </g>
     </g>
     <g id="text_17">
      <!-- 03-02 00 -->
      <g transform="translate(220.822544 491.417649) rotate(-45) scale(0.1 -0.1)">
       <use xlink:href="#DejaVuSans-30"/>
       <use xlink:href="#DejaVuSans-33" x="63.623047"/>
       <use xlink:href="#DejaVuSans-2d" x="127.246094"/>
       <use xlink:href="#DejaVuSans-30" x="163.330078"/>
       <use xlink:href="#DejaVuSans-32" x="226.953125"/>
       <use xlink:href="#DejaVuSans-20" x="290.576172"/>
       <use xlink:href="#DejaVuSans-30" x="322.363281"/>
       <use xlink:href="#DejaVuSans-30" x="385.986328"/>
      </g>
     </g>
    </g>
    <g id="xtick_23">
     <g id="line2d_69">
      <path d="M 280.708152 447.252558 
L 280.708152 321.141706 
" clip-path="url(#p96404ab3d1)" style="fill: none; stroke: #b0b0b0; stroke-width: 0.8; stroke-linecap: square"/>
     </g>
     <g id="line2d_70">
      <g>
       <use xlink:href="#m7ba198799d" x="280.708152" y="447.252558" style="stroke: #000000; stroke-width: 0.8"/>
      </g>
     </g>
     <g id="text_18">
      <!-- 03-02 06 -->
      <g transform="translate(266.763233 491.417649) rotate(-45) scale(0.1 -0.1)">
       <use xlink:href="#DejaVuSans-30"/>
       <use xlink:href="#DejaVuSans-33" x="63.623047"/>
       <use xlink:href="#DejaVuSans-2d" x="127.246094"/>
       <use xlink:href="#DejaVuSans-30" x="163.330078"/>
       <use xlink:href="#DejaVuSans-32" x="226.953125"/>
       <use xlink:href="#DejaVuSans-20" x="290.576172"/>
       <use xlink:href="#DejaVuSans-30" x="322.363281"/>
       <use xlink:href="#DejaVuSans-36" x="385.986328"/>
      </g>
     </g>
    </g>
    <g id="xtick_24">
     <g id="line2d_71">
      <path d="M 326.648842 447.252558 
L 326.648842 321.141706 
" clip-path="url(#p96404ab3d1)" style="fill: none; stroke: #b0b0b0; stroke-width: 0.8; stroke-linecap: square"/>
     </g>
     <g id="line2d_72">
      <g>
       <use xlink:href="#m7ba198799d" x="326.648842" y="447.252558" style="stroke: #000000; stroke-width: 0.8"/>
      </g>
     </g>
     <g id="text_19">
      <!-- 03-02 12 -->
      <g transform="translate(312.703923 491.417649) rotate(-45) scale(0.1 -0.1)">
       <use xlink:href="#DejaVuSans-30"/>
       <use xlink:href="#DejaVuSans-33" x="63.623047"/>
       <use xlink:href="#DejaVuSans-2d" x="127.246094"/>
       <use xlink:href="#DejaVuSans-30" x="163.330078"/>
       <use xlink:href="#DejaVuSans-32" x="226.953125"/>
       <use xlink:href="#DejaVuSans-20" x="290.576172"/>
       <use xlink:href="#DejaVuSans-31" x="322.363281"/>
       <use xlink:href="#DejaVuSans-32" x="385.986328"/>
      </g>
     </g>
    </g>
    <g id="xtick_25">
     <g id="line2d_73">
      <path d="M 372.589531 447.252558 
L 372.589531 321.141706 
" clip-path="url(#p96404ab3d1)" style="fill: none; stroke: #b0b0b0; stroke-width: 0.8; stroke-linecap: square"/>
     </g>
     <g id="line2d_74">
      <g>
       <use xlink:href="#m7ba198799d" x="372.589531" y="447.252558" style="stroke: #000000; stroke-width: 0.8"/>
      </g>
     </g>
     <g id="text_20">
      <!-- 03-02 18 -->
      <g transform="translate(358.644612 491.417649) rotate(-45) scale(0.1 -0.1)">
       <use xlink:href="#DejaVuSans-30"/>
       <use xlink:href="#DejaVuSans-33" x="63.623047"/>
       <use xlink:href="#DejaVuSans-2d" x="127.246094"/>
       <use xlink:href="#DejaVuSans-30" x="163.330078"/>
       <use xlink:href="#DejaVuSans-32" x="226.953125"/>
       <use xlink:href="#DejaVuSans-20" x="290.576172"/>
       <use xlink:href="#DejaVuSans-31" x="322.363281"/>
       <use xlink:href="#DejaVuSans-38" x="385.986328"/>
      </g>
     </g>
    </g>
    <g id="xtick_26">
     <g id="line2d_75">
      <path d="M 418.53022 447.252558 
L 418.53022 321.141706 
" clip-path="url(#p96404ab3d1)" style="fill: none; stroke: #b0b0b0; stroke-width: 0.8; stroke-linecap: square"/>
     </g>
     <g id="line2d_76">
      <g>
       <use xlink:href="#m7ba198799d" x="418.53022" y="447.252558" style="stroke: #000000; stroke-width: 0.8"/>
      </g>
     </g>
     <g id="text_21">
      <!-- 03-03 00 -->
      <g transform="translate(404.585301 491.417649) rotate(-45) scale(0.1 -0.1)">
       <use xlink:href="#DejaVuSans-30"/>
       <use xlink:href="#DejaVuSans-33" x="63.623047"/>
       <use xlink:href="#DejaVuSans-2d" x="127.246094"/>
       <use xlink:href="#DejaVuSans-30" x="163.330078"/>
       <use xlink:href="#DejaVuSans-33" x="226.953125"/>
       <use xlink:href="#DejaVuSans-20" x="290.576172"/>
       <use xlink:href="#DejaVuSans-30" x="322.363281"/>
       <use xlink:href="#DejaVuSans-30" x="385.986328"/>
      </g>
     </g>
    </g>
    <g id="xtick_27">
     <g id="line2d_77">
      <path d="M 464.47091 447.252558 
L 464.47091 321.141706 
" clip-path="url(#p96404ab3d1)" style="fill: none; stroke: #b0b0b0; stroke-width: 0.8; stroke-linecap: square"/>
     </g>
     <g id="line2d_78">
      <g>
       <use xlink:href="#m7ba198799d" x="464.47091" y="447.252558" style="stroke: #000000; stroke-width: 0.8"/>
      </g>
     </g>
     <g id="text_22">
      <!-- 03-03 06 -->
      <g transform="translate(450.525991 491.417649) rotate(-45) scale(0.1 -0.1)">
       <use xlink:href="#DejaVuSans-30"/>
       <use xlink:href="#DejaVuSans-33" x="63.623047"/>
       <use xlink:href="#DejaVuSans-2d" x="127.246094"/>
       <use xlink:href="#DejaVuSans-30" x="163.330078"/>
       <use xlink:href="#DejaVuSans-33" x="226.953125"/>
       <use xlink:href="#DejaVuSans-20" x="290.576172"/>
       <use xlink:href="#DejaVuSans-30" x="322.363281"/>
       <use xlink:href="#DejaVuSans-36" x="385.986328"/>
      </g>
     </g>
    </g>
   </g>
   <g id="matplotlib.axis_6">
    <g id="ytick_12">
     <g id="line2d_79">
      <path d="M 51.05 442.090626 
L 493.2 442.090626 
" clip-path="url(#p96404ab3d1)" style="fill: none; stroke: #b0b0b0; stroke-width: 0.8; stroke-linecap: square"/>
     </g>
     <g id="line2d_80">
      <g>
       <use xlink:href="#m44c2431fc1" x="51.05" y="442.090626" style="stroke: #000000; stroke-width: 0.8"/>
      </g>
     </g>
     <g id="text_23">
      <!-- 710 -->
      <g transform="translate(24.9625 445.889845) scale(0.1 -0.1)">
       <use xlink:href="#DejaVuSans-37"/>
       <use xlink:href="#DejaVuSans-31" x="63.623047"/>
       <use xlink:href="#DejaVuSans-30" x="127.246094"/>
      </g>
     </g>
    </g>
    <g id="ytick_13">
     <g id="line2d_81">
      <path d="M 51.05 413.571664 
L 493.2 413.571664 
" clip-path="url(#p96404ab3d1)" style="fill: none; stroke: #b0b0b0; stroke-width: 0.8; stroke-linecap: square"/>
     </g>
     <g id="line2d_82">
      <g>
       <use xlink:href="#m44c2431fc1" x="51.05" y="413.571664" style="stroke: #000000; stroke-width: 0.8"/>
      </g>
     </g>
     <g id="text_24">
      <!-- 715 -->
      <g transform="translate(24.9625 417.370882) scale(0.1 -0.1)">
       <use xlink:href="#DejaVuSans-37"/>
       <use xlink:href="#DejaVuSans-31" x="63.623047"/>
       <use xlink:href="#DejaVuSans-35" x="127.246094"/>
      </g>
     </g>
    </g>
    <g id="ytick_14">
     <g id="line2d_83">
      <path d="M 51.05 385.052701 
L 493.2 385.052701 
" clip-path="url(#p96404ab3d1)" style="fill: none; stroke: #b0b0b0; stroke-width: 0.8; stroke-linecap: square"/>
     </g>
     <g id="line2d_84">
      <g>
       <use xlink:href="#m44c2431fc1" x="51.05" y="385.052701" style="stroke: #000000; stroke-width: 0.8"/>
      </g>
     </g>
     <g id="text_25">
      <!-- 720 -->
      <g transform="translate(24.9625 388.85192) scale(0.1 -0.1)">
       <use xlink:href="#DejaVuSans-37"/>
       <use xlink:href="#DejaVuSans-32" x="63.623047"/>
       <use xlink:href="#DejaVuSans-30" x="127.246094"/>
      </g>
     </g>
    </g>
    <g id="ytick_15">
     <g id="line2d_85">
      <path d="M 51.05 356.533738 
L 493.2 356.533738 
" clip-path="url(#p96404ab3d1)" style="fill: none; stroke: #b0b0b0; stroke-width: 0.8; stroke-linecap: square"/>
     </g>
     <g id="line2d_86">
      <g>
       <use xlink:href="#m44c2431fc1" x="51.05" y="356.533738" style="stroke: #000000; stroke-width: 0.8"/>
      </g>
     </g>
     <g id="text_26">
      <!-- 725 -->
      <g transform="translate(24.9625 360.332957) scale(0.1 -0.1)">
       <use xlink:href="#DejaVuSans-37"/>
       <use xlink:href="#DejaVuSans-32" x="63.623047"/>
       <use xlink:href="#DejaVuSans-35" x="127.246094"/>
      </g>
     </g>
    </g>
    <g id="ytick_16">
     <g id="line2d_87">
      <path d="M 51.05 328.014776 
L 493.2 328.014776 
" clip-path="url(#p96404ab3d1)" style="fill: none; stroke: #b0b0b0; stroke-width: 0.8; stroke-linecap: square"/>
     </g>
     <g id="line2d_88">
      <g>
       <use xlink:href="#m44c2431fc1" x="51.05" y="328.014776" style="stroke: #000000; stroke-width: 0.8"/>
      </g>
     </g>
     <g id="text_27">
      <!-- 730 -->
      <g transform="translate(24.9625 331.813994) scale(0.1 -0.1)">
       <use xlink:href="#DejaVuSans-37"/>
       <use xlink:href="#DejaVuSans-33" x="63.623047"/>
       <use xlink:href="#DejaVuSans-30" x="127.246094"/>
      </g>
     </g>
    </g>
    <g id="text_28">
     <!-- Rain [mm] -->
     <g transform="translate(18.882813 410.411976) rotate(-90) scale(0.1 -0.1)">
      <defs>
       <path id="DejaVuSans-6e" d="M 3513 2113 
L 3513 0 
L 2938 0 
L 2938 2094 
Q 2938 2591 2744 2837 
Q 2550 3084 2163 3084 
Q 1697 3084 1428 2787 
Q 1159 2491 1159 1978 
L 1159 0 
L 581 0 
L 581 3500 
L 1159 3500 
L 1159 2956 
Q 1366 3272 1645 3428 
Q 1925 3584 2291 3584 
Q 2894 3584 3203 3211 
Q 3513 2838 3513 2113 
z
" transform="scale(0.015625)"/>
      </defs>
      <use xlink:href="#DejaVuSans-52"/>
      <use xlink:href="#DejaVuSans-61" x="67.232422"/>
      <use xlink:href="#DejaVuSans-69" x="128.511719"/>
      <use xlink:href="#DejaVuSans-6e" x="156.294922"/>
      <use xlink:href="#DejaVuSans-20" x="219.673828"/>
      <use xlink:href="#DejaVuSans-5b" x="251.460938"/>
      <use xlink:href="#DejaVuSans-6d" x="290.474609"/>
      <use xlink:href="#DejaVuSans-6d" x="387.886719"/>
      <use xlink:href="#DejaVuSans-5d" x="485.298828"/>
     </g>
    </g>
   </g>
   <g id="line2d_89">
    <path d="M 51.05 441.520247 
L 60.340767 441.520247 
L 60.544859 439.809109 
L 101.278058 439.809109 
L 101.482242 438.097971 
L 104.95426 438.097971 
L 105.259856 436.386834 
L 115.469063 436.386834 
L 115.673226 434.675696 
L 117.612397 434.675696 
L 117.816576 432.964558 
L 119.552436 432.964558 
L 119.756665 431.25342 
L 124.656939 431.25342 
L 124.861191 429.542283 
L 133.946706 429.542283 
L 134.150875 427.831145 
L 144.870617 427.831145 
L 145.07492 426.120007 
L 147.933424 426.120007 
L 148.137509 424.408869 
L 150.485154 424.408869 
L 150.68933 422.697732 
L 152.221128 422.697732 
L 152.425172 420.986594 
L 154.467035 420.986594 
L 154.671312 419.275456 
L 156.304621 419.275456 
L 156.508793 417.564318 
L 158.652301 417.564318 
L 158.958737 415.853181 
L 165.084329 415.853181 
L 165.288544 414.142043 
L 168.147032 414.142043 
L 168.248701 412.430905 
L 169.882132 412.430905 
L 170.08631 410.719767 
L 172.128102 410.719767 
L 172.434604 409.00863 
L 173.557347 409.00863 
L 173.761522 407.297492 
L 175.190779 407.297492 
L 175.394958 405.586354 
L 176.008349 405.586354 
L 176.314086 403.875216 
L 176.722401 403.875216 
L 176.92689 402.164079 
L 177.232567 402.164079 
L 177.436749 400.452941 
L 178.151505 400.452941 
L 178.355981 398.741803 
L 178.457637 398.741803 
L 178.661817 397.030665 
L 182.030991 397.030665 
L 182.235388 395.319528 
L 186.420619 395.319528 
L 186.624797 393.60839 
L 190.504189 393.60839 
L 190.708382 391.897252 
L 196.833753 391.897252 
L 197.037924 390.186114 
L 215.720695 390.186114 
L 215.924918 388.474976 
L 226.43973 388.474976 
L 226.643895 386.763839 
L 245.836744 386.763839 
L 246.040941 385.052701 
L 250.431252 385.052701 
L 250.635388 383.341563 
L 281.363937 383.341563 
L 281.568123 381.630425 
L 290.858777 381.630425 
L 291.062799 379.919288 
L 291.675395 379.919288 
L 291.879589 378.20815 
L 292.083716 378.20815 
L 292.287869 376.497012 
L 293.614703 376.497012 
L 293.818885 374.785874 
L 295.554803 374.785874 
L 295.75906 373.074737 
L 297.392415 373.074737 
L 297.596478 371.363599 
L 369.87582 371.363599 
L 369.978466 369.652461 
L 384.168253 369.652461 
L 384.37255 367.941323 
L 385.597486 367.941323 
L 385.801724 366.230186 
L 392.845643 366.230186 
L 393.050759 364.519048 
L 394.581607 364.519048 
L 394.785815 362.80791 
L 395.60251 362.80791 
L 395.806641 361.096772 
L 397.031313 361.096772 
L 397.235802 359.385635 
L 407.342354 359.385635 
L 407.546536 357.674497 
L 425.105941 357.674497 
L 425.310117 355.963359 
L 428.679527 355.963359 
L 428.883658 354.252221 
L 429.291937 354.252221 
L 429.393696 352.541084 
L 430.517114 352.541084 
L 430.721315 350.829946 
L 432.558915 350.829946 
L 432.763041 349.118808 
L 434.089834 349.118808 
L 434.294011 347.40767 
L 436.438289 347.40767 
L 436.642446 345.696533 
L 437.560879 345.696533 
L 437.765057 343.985395 
L 438.888415 343.985395 
L 439.092545 342.274257 
L 442.256999 342.274257 
L 442.461185 340.563119 
L 445.319699 340.563119 
L 445.52387 338.851981 
L 448.791544 338.851981 
L 448.994921 337.140844 
L 453.89523 337.140844 
L 454.09941 335.429706 
L 455.631161 335.429706 
L 455.835352 333.718568 
L 461.041498 333.718568 
L 461.245669 332.00743 
L 464.615018 332.00743 
L 464.819212 330.296293 
L 482.888688 330.296293 
L 483.092866 328.585155 
L 492.07675 328.585155 
L 492.280934 326.874017 
L 493.2 326.874017 
L 493.2 326.874017 
" clip-path="url(#p96404ab3d1)" style="fill: none; stroke: #9467bd; stroke-width: 1.5; stroke-linecap: square"/>
   </g>
   <g id="patch_13">
    <path d="M 51.05 447.252558 
L 51.05 321.141706 
" style="fill: none; stroke: #000000; stroke-width: 0.8; stroke-linejoin: miter; stroke-linecap: square"/>
   </g>
   <g id="patch_14">
    <path d="M 493.2 447.252558 
L 493.2 321.141706 
" style="fill: none; stroke: #000000; stroke-width: 0.8; stroke-linejoin: miter; stroke-linecap: square"/>
   </g>
   <g id="patch_15">
    <path d="M 51.05 447.252558 
L 493.2 447.252558 
" style="fill: none; stroke: #000000; stroke-width: 0.8; stroke-linejoin: miter; stroke-linecap: square"/>
   </g>
   <g id="patch_16">
    <path d="M 51.05 321.141706 
L 493.2 321.141706 
" style="fill: none; stroke: #000000; stroke-width: 0.8; stroke-linejoin: miter; stroke-linecap: square"/>
   </g>
  </g>
  <g id="text_29">
   <!-- Weather data - March 2024 -->
   <g transform="translate(169.874063 19.198125) scale(0.12 -0.12)">
    <defs>
     <path id="DejaVuSans-57" d="M 213 4666 
L 850 4666 
L 1831 722 
L 2809 4666 
L 3519 4666 
L 4500 722 
L 5478 4666 
L 6119 4666 
L 4947 0 
L 4153 0 
L 3169 4050 
L 2175 0 
L 1381 0 
L 213 4666 
z
" transform="scale(0.015625)"/>
     <path id="DejaVuSans-68" d="M 3513 2113 
L 3513 0 
L 2938 0 
L 2938 2094 
Q 2938 2591 2744 2837 
Q 2550 3084 2163 3084 
Q 1697 3084 1428 2787 
Q 1159 2491 1159 1978 
L 1159 0 
L 581 0 
L 581 4863 
L 1159 4863 
L 1159 2956 
Q 1366 3272 1645 3428 
Q 1925 3584 2291 3584 
Q 2894 3584 3203 3211 
Q 3513 2838 3513 2113 
z
" transform="scale(0.015625)"/>
     <path id="DejaVuSans-4d" d="M 628 4666 
L 1569 4666 
L 2759 1491 
L 3956 4666 
L 4897 4666 
L 4897 0 
L 4281 0 
L 4281 4097 
L 3078 897 
L 2444 897 
L 1241 4097 
L 1241 0 
L 628 0 
L 628 4666 
z
" transform="scale(0.015625)"/>
     <path id="DejaVuSans-63" d="M 3122 3366 
L 3122 2828 
Q 2878 2963 2633 3030 
Q 2388 3097 2138 3097 
Q 1578 3097 1268 2742 
Q 959 2388 959 1747 
Q 959 1106 1268 751 
Q 1578 397 2138 397 
Q 2388 397 2633 464 
Q 2878 531 3122 666 
L 3122 134 
Q 2881 22 2623 -34 
Q 2366 -91 2075 -91 
Q 1284 -91 818 406 
Q 353 903 353 1747 
Q 353 2603 823 3093 
Q 1294 3584 2113 3584 
Q 2378 3584 2631 3529 
Q 2884 3475 3122 3366 
z
" transform="scale(0.015625)"/>
    </defs>
    <use xlink:href="#DejaVuSans-57"/>
    <use xlink:href="#DejaVuSans-65" x="93.001953"/>
    <use xlink:href="#DejaVuSans-61" x="154.525391"/>
    <use xlink:href="#DejaVuSans-74" x="215.804688"/>
    <use xlink:href="#DejaVuSans-68" x="255.013672"/>
    <use xlink:href="#DejaVuSans-65" x="318.392578"/>
    <use xlink:href="#DejaVuSans-72" x="379.916016"/>
    <use xlink:href="#DejaVuSans-20" x="421.029297"/>
    <use xlink:href="#DejaVuSans-64" x="452.816406"/>
    <use xlink:href="#DejaVuSans-61" x="516.292969"/>
    <use xlink:href="#DejaVuSans-74" x="577.572266"/>
    <use xlink:href="#DejaVuSans-61" x="616.78125"/>
    <use xlink:href="#DejaVuSans-20" x="678.060547"/>
    <use xlink:href="#DejaVuSans-2d" x="709.847656"/>
    <use xlink:href="#DejaVuSans-20" x="745.931641"/>
    <use xlink:href="#DejaVuSans-4d" x="777.71875"/>
    <use xlink:href="#DejaVuSans-61" x="863.998047"/>
    <use xlink:href="#DejaVuSans-72" x="925.277344"/>
    <use xlink:href="#DejaVuSans-63" x="964.140625"/>
    <use xlink:href="#DejaVuSans-68" x="1019.121094"/>
    <use xlink:href="#DejaVuSans-20" x="1082.5"/>
    <use xlink:href="#DejaVuSans-32" x="1114.287109"/>
    <use xlink:href="#DejaVuSans-30" x="1177.910156"/>
    <use xlink:href="#DejaVuSans-32" x="1241.533203"/>
    <use xlink:href="#DejaVuSans-34" x="1305.15625"/>
   </g>
  </g>
 </g>
 <defs>
  <clipPath id="p0b611cf02b">
   <rect x="51.05" y="32.4" width="442.15" height="126.110853"/>
  </clipPath>
  <clipPath id="p5d6beea62d">
   <rect x="51.05" y="176.770853" width="442.15" height="126.110853"/>
  </clipPath>
  <clipPath id="p96404ab3d1">
   <rect x="51.05" y="321.141706" width="442.15" height="126.110853"/>
  </clipPath>
 </defs>
</svg>
