<?xml version="1.0" encoding="utf-8" standalone="no"?>
<!DOCTYPE svg PUBLIC "-//W3C//DTD SVG 1.1//EN"
  "http://www.w3.org/Graphics/SVG/1.1/DTD/svg11.dtd">
<svg xmlns:xlink="http://www.w3.org/1999/xlink" width="504pt" height="504pt" viewBox="0 0 504 504" xmlns="http://www.w3.org/2000/svg" version="1.1">
 <metadata>
  <rdf:RDF xmlns:dc="http://purl.org/dc/elements/1.1/" xmlns:cc="http://creativecommons.org/ns#" xmlns:rdf="http://www.w3.org/1999/02/22-rdf-syntax-ns#">
   <cc:Work>
    <dc:type rdf:resource="http://purl.org/dc/dcmitype/StillImage"/>
    <dc:date>2024-02-05T23:21:37.359252</dc:date>
    <dc:format>image/svg+xml</dc:format>
    <dc:creator>
     <cc:Agent>
      <dc:title>Matplotlib v3.6.3, https://matplotlib.org/</dc:title>
     </cc:Agent>
    </dc:creator>
   </cc:Work>
  </rdf:RDF>
 </metadata>
 <defs>
  <style type="text/css">*{stroke-linejoin: round; stroke-linecap: butt}</style>
 </defs>
 <g id="figure_1">
  <g id="patch_1">
   <path d="M 0 504 
L 504 504 
L 504 0 
L 0 0 
z
" style="fill: #ffffff"/>
  </g>
  <g id="axes_1">
   <g id="patch_2">
    <path d="M 51.05 158.510853 
L 493.2 158.510853 
L 493.2 32.4 
L 51.05 32.4 
z
" style="fill: #ffffff"/>
   </g>
   <g id="matplotlib.axis_1">
    <g id="xtick_1">
     <g id="line2d_1">
      <path d="M 88.75267 158.510853 
L 88.75267 32.4 
" clip-path="url(#p2215fc7748)" style="fill: none; stroke: #b0b0b0; stroke-width: 0.8; stroke-linecap: square"/>
     </g>
     <g id="line2d_2">
      <defs>
       <path id="mbfef5f567f" d="M 0 0 
L 0 3.5 
" style="stroke: #000000; stroke-width: 0.8"/>
      </defs>
      <g>
       <use xlink:href="#mbfef5f567f" x="88.75267" y="158.510853" style="stroke: #000000; stroke-width: 0.8"/>
      </g>
     </g>
    </g>
    <g id="xtick_2">
     <g id="line2d_3">
      <path d="M 130.101446 158.510853 
L 130.101446 32.4 
" clip-path="url(#p2215fc7748)" style="fill: none; stroke: #b0b0b0; stroke-width: 0.8; stroke-linecap: square"/>
     </g>
     <g id="line2d_4">
      <g>
       <use xlink:href="#mbfef5f567f" x="130.101446" y="158.510853" style="stroke: #000000; stroke-width: 0.8"/>
      </g>
     </g>
    </g>
    <g id="xtick_3">
     <g id="line2d_5">
      <path d="M 171.450222 158.510853 
L 171.450222 32.4 
" clip-path="url(#p2215fc7748)" style="fill: none; stroke: #b0b0b0; stroke-width: 0.8; stroke-linecap: square"/>
     </g>
     <g id="line2d_6">
      <g>
       <use xlink:href="#mbfef5f567f" x="171.450222" y="158.510853" style="stroke: #000000; stroke-width: 0.8"/>
      </g>
     </g>
    </g>
    <g id="xtick_4">
     <g id="line2d_7">
      <path d="M 212.798998 158.510853 
L 212.798998 32.4 
" clip-path="url(#p2215fc7748)" style="fill: none; stroke: #b0b0b0; stroke-width: 0.8; stroke-linecap: square"/>
     </g>
     <g id="line2d_8">
      <g>
       <use xlink:href="#mbfef5f567f" x="212.798998" y="158.510853" style="stroke: #000000; stroke-width: 0.8"/>
      </g>
     </g>
    </g>
    <g id="xtick_5">
     <g id="line2d_9">
      <path d="M 254.147774 158.510853 
L 254.147774 32.4 
" clip-path="url(#p2215fc7748)" style="fill: none; stroke: #b0b0b0; stroke-width: 0.8; stroke-linecap: square"/>
     </g>
     <g id="line2d_10">
      <g>
       <use xlink:href="#mbfef5f567f" x="254.147774" y="158.510853" style="stroke: #000000; stroke-width: 0.8"/>
      </g>
     </g>
    </g>
    <g id="xtick_6">
     <g id="line2d_11">
      <path d="M 295.496549 158.510853 
L 295.496549 32.4 
" clip-path="url(#p2215fc7748)" style="fill: none; stroke: #b0b0b0; stroke-width: 0.8; stroke-linecap: square"/>
     </g>
     <g id="line2d_12">
      <g>
       <use xlink:href="#mbfef5f567f" x="295.496549" y="158.510853" style="stroke: #000000; stroke-width: 0.8"/>
      </g>
     </g>
    </g>
    <g id="xtick_7">
     <g id="line2d_13">
      <path d="M 336.845325 158.510853 
L 336.845325 32.4 
" clip-path="url(#p2215fc7748)" style="fill: none; stroke: #b0b0b0; stroke-width: 0.8; stroke-linecap: square"/>
     </g>
     <g id="line2d_14">
      <g>
       <use xlink:href="#mbfef5f567f" x="336.845325" y="158.510853" style="stroke: #000000; stroke-width: 0.8"/>
      </g>
     </g>
    </g>
    <g id="xtick_8">
     <g id="line2d_15">
      <path d="M 378.194101 158.510853 
L 378.194101 32.4 
" clip-path="url(#p2215fc7748)" style="fill: none; stroke: #b0b0b0; stroke-width: 0.8; stroke-linecap: square"/>
     </g>
     <g id="line2d_16">
      <g>
       <use xlink:href="#mbfef5f567f" x="378.194101" y="158.510853" style="stroke: #000000; stroke-width: 0.8"/>
      </g>
     </g>
    </g>
    <g id="xtick_9">
     <g id="line2d_17">
      <path d="M 419.542877 158.510853 
L 419.542877 32.4 
" clip-path="url(#p2215fc7748)" style="fill: none; stroke: #b0b0b0; stroke-width: 0.8; stroke-linecap: square"/>
     </g>
     <g id="line2d_18">
      <g>
       <use xlink:href="#mbfef5f567f" x="419.542877" y="158.510853" style="stroke: #000000; stroke-width: 0.8"/>
      </g>
     </g>
    </g>
    <g id="xtick_10">
     <g id="line2d_19">
      <path d="M 460.891652 158.510853 
L 460.891652 32.4 
" clip-path="url(#p2215fc7748)" style="fill: none; stroke: #b0b0b0; stroke-width: 0.8; stroke-linecap: square"/>
     </g>
     <g id="line2d_20">
      <g>
       <use xlink:href="#mbfef5f567f" x="460.891652" y="158.510853" style="stroke: #000000; stroke-width: 0.8"/>
      </g>
     </g>
    </g>
   </g>
   <g id="matplotlib.axis_2">
    <g id="ytick_1">
     <g id="line2d_21">
      <path d="M 51.05 127.54195 
L 493.2 127.54195 
" clip-path="url(#p2215fc7748)" style="fill: none; stroke: #b0b0b0; stroke-width: 0.8; stroke-linecap: square"/>
     </g>
     <g id="line2d_22">
      <defs>
       <path id="m7c6fe789e4" d="M 0 0 
L -3.5 0 
" style="stroke: #000000; stroke-width: 0.8"/>
      </defs>
      <g>
       <use xlink:href="#m7c6fe789e4" x="51.05" y="127.54195" style="stroke: #000000; stroke-width: 0.8"/>
      </g>
     </g>
     <g id="text_1">
      <!-- 10 -->
      <g transform="translate(31.325 131.341169) scale(0.1 -0.1)">
       <defs>
        <path id="DejaVuSans-31" d="M 794 531 
L 1825 531 
L 1825 4091 
L 703 3866 
L 703 4441 
L 1819 4666 
L 2450 4666 
L 2450 531 
L 3481 531 
L 3481 0 
L 794 0 
L 794 531 
z
" transform="scale(0.015625)"/>
        <path id="DejaVuSans-30" d="M 2034 4250 
Q 1547 4250 1301 3770 
Q 1056 3291 1056 2328 
Q 1056 1369 1301 889 
Q 1547 409 2034 409 
Q 2525 409 2770 889 
Q 3016 1369 3016 2328 
Q 3016 3291 2770 3770 
Q 2525 4250 2034 4250 
z
M 2034 4750 
Q 2819 4750 3233 4129 
Q 3647 3509 3647 2328 
Q 3647 1150 3233 529 
Q 2819 -91 2034 -91 
Q 1250 -91 836 529 
Q 422 1150 422 2328 
Q 422 3509 836 4129 
Q 1250 4750 2034 4750 
z
" transform="scale(0.015625)"/>
       </defs>
       <use xlink:href="#DejaVuSans-31"/>
       <use xlink:href="#DejaVuSans-30" x="63.623047"/>
      </g>
     </g>
    </g>
    <g id="ytick_2">
     <g id="line2d_23">
      <path d="M 51.05 91.489676 
L 493.2 91.489676 
" clip-path="url(#p2215fc7748)" style="fill: none; stroke: #b0b0b0; stroke-width: 0.8; stroke-linecap: square"/>
     </g>
     <g id="line2d_24">
      <g>
       <use xlink:href="#m7c6fe789e4" x="51.05" y="91.489676" style="stroke: #000000; stroke-width: 0.8"/>
      </g>
     </g>
     <g id="text_2">
      <!-- 15 -->
      <g transform="translate(31.325 95.288895) scale(0.1 -0.1)">
       <defs>
        <path id="DejaVuSans-35" d="M 691 4666 
L 3169 4666 
L 3169 4134 
L 1269 4134 
L 1269 2991 
Q 1406 3038 1543 3061 
Q 1681 3084 1819 3084 
Q 2600 3084 3056 2656 
Q 3513 2228 3513 1497 
Q 3513 744 3044 326 
Q 2575 -91 1722 -91 
Q 1428 -91 1123 -41 
Q 819 9 494 109 
L 494 744 
Q 775 591 1075 516 
Q 1375 441 1709 441 
Q 2250 441 2565 725 
Q 2881 1009 2881 1497 
Q 2881 1984 2565 2268 
Q 2250 2553 1709 2553 
Q 1456 2553 1204 2497 
Q 953 2441 691 2322 
L 691 4666 
z
" transform="scale(0.015625)"/>
       </defs>
       <use xlink:href="#DejaVuSans-31"/>
       <use xlink:href="#DejaVuSans-35" x="63.623047"/>
      </g>
     </g>
    </g>
    <g id="ytick_3">
     <g id="line2d_25">
      <path d="M 51.05 55.437403 
L 493.2 55.437403 
" clip-path="url(#p2215fc7748)" style="fill: none; stroke: #b0b0b0; stroke-width: 0.8; stroke-linecap: square"/>
     </g>
     <g id="line2d_26">
      <g>
       <use xlink:href="#m7c6fe789e4" x="51.05" y="55.437403" style="stroke: #000000; stroke-width: 0.8"/>
      </g>
     </g>
     <g id="text_3">
      <!-- 20 -->
      <g transform="translate(31.325 59.236622) scale(0.1 -0.1)">
       <defs>
        <path id="DejaVuSans-32" d="M 1228 531 
L 3431 531 
L 3431 0 
L 469 0 
L 469 531 
Q 828 903 1448 1529 
Q 2069 2156 2228 2338 
Q 2531 2678 2651 2914 
Q 2772 3150 2772 3378 
Q 2772 3750 2511 3984 
Q 2250 4219 1831 4219 
Q 1534 4219 1204 4116 
Q 875 4013 500 3803 
L 500 4441 
Q 881 4594 1212 4672 
Q 1544 4750 1819 4750 
Q 2544 4750 2975 4387 
Q 3406 4025 3406 3419 
Q 3406 3131 3298 2873 
Q 3191 2616 2906 2266 
Q 2828 2175 2409 1742 
Q 1991 1309 1228 531 
z
" transform="scale(0.015625)"/>
       </defs>
       <use xlink:href="#DejaVuSans-32"/>
       <use xlink:href="#DejaVuSans-30" x="63.623047"/>
      </g>
     </g>
    </g>
    <g id="text_4">
     <!-- Temperature [°C] -->
     <g transform="translate(25.245313 138.606989) rotate(-90) scale(0.1 -0.1)">
      <defs>
       <path id="DejaVuSans-54" d="M -19 4666 
L 3928 4666 
L 3928 4134 
L 2272 4134 
L 2272 0 
L 1638 0 
L 1638 4134 
L -19 4134 
L -19 4666 
z
" transform="scale(0.015625)"/>
       <path id="DejaVuSans-65" d="M 3597 1894 
L 3597 1613 
L 953 1613 
Q 991 1019 1311 708 
Q 1631 397 2203 397 
Q 2534 397 2845 478 
Q 3156 559 3463 722 
L 3463 178 
Q 3153 47 2828 -22 
Q 2503 -91 2169 -91 
Q 1331 -91 842 396 
Q 353 884 353 1716 
Q 353 2575 817 3079 
Q 1281 3584 2069 3584 
Q 2775 3584 3186 3129 
Q 3597 2675 3597 1894 
z
M 3022 2063 
Q 3016 2534 2758 2815 
Q 2500 3097 2075 3097 
Q 1594 3097 1305 2825 
Q 1016 2553 972 2059 
L 3022 2063 
z
" transform="scale(0.015625)"/>
       <path id="DejaVuSans-6d" d="M 3328 2828 
Q 3544 3216 3844 3400 
Q 4144 3584 4550 3584 
Q 5097 3584 5394 3201 
Q 5691 2819 5691 2113 
L 5691 0 
L 5113 0 
L 5113 2094 
Q 5113 2597 4934 2840 
Q 4756 3084 4391 3084 
Q 3944 3084 3684 2787 
Q 3425 2491 3425 1978 
L 3425 0 
L 2847 0 
L 2847 2094 
Q 2847 2600 2669 2842 
Q 2491 3084 2119 3084 
Q 1678 3084 1418 2786 
Q 1159 2488 1159 1978 
L 1159 0 
L 581 0 
L 581 3500 
L 1159 3500 
L 1159 2956 
Q 1356 3278 1631 3431 
Q 1906 3584 2284 3584 
Q 2666 3584 2933 3390 
Q 3200 3197 3328 2828 
z
" transform="scale(0.015625)"/>
       <path id="DejaVuSans-70" d="M 1159 525 
L 1159 -1331 
L 581 -1331 
L 581 3500 
L 1159 3500 
L 1159 2969 
Q 1341 3281 1617 3432 
Q 1894 3584 2278 3584 
Q 2916 3584 3314 3078 
Q 3713 2572 3713 1747 
Q 3713 922 3314 415 
Q 2916 -91 2278 -91 
Q 1894 -91 1617 61 
Q 1341 213 1159 525 
z
M 3116 1747 
Q 3116 2381 2855 2742 
Q 2594 3103 2138 3103 
Q 1681 3103 1420 2742 
Q 1159 2381 1159 1747 
Q 1159 1113 1420 752 
Q 1681 391 2138 391 
Q 2594 391 2855 752 
Q 3116 1113 3116 1747 
z
" transform="scale(0.015625)"/>
       <path id="DejaVuSans-72" d="M 2631 2963 
Q 2534 3019 2420 3045 
Q 2306 3072 2169 3072 
Q 1681 3072 1420 2755 
Q 1159 2438 1159 1844 
L 1159 0 
L 581 0 
L 581 3500 
L 1159 3500 
L 1159 2956 
Q 1341 3275 1631 3429 
Q 1922 3584 2338 3584 
Q 2397 3584 2469 3576 
Q 2541 3569 2628 3553 
L 2631 2963 
z
" transform="scale(0.015625)"/>
       <path id="DejaVuSans-61" d="M 2194 1759 
Q 1497 1759 1228 1600 
Q 959 1441 959 1056 
Q 959 750 1161 570 
Q 1363 391 1709 391 
Q 2188 391 2477 730 
Q 2766 1069 2766 1631 
L 2766 1759 
L 2194 1759 
z
M 3341 1997 
L 3341 0 
L 2766 0 
L 2766 531 
Q 2569 213 2275 61 
Q 1981 -91 1556 -91 
Q 1019 -91 701 211 
Q 384 513 384 1019 
Q 384 1609 779 1909 
Q 1175 2209 1959 2209 
L 2766 2209 
L 2766 2266 
Q 2766 2663 2505 2880 
Q 2244 3097 1772 3097 
Q 1472 3097 1187 3025 
Q 903 2953 641 2809 
L 641 3341 
Q 956 3463 1253 3523 
Q 1550 3584 1831 3584 
Q 2591 3584 2966 3190 
Q 3341 2797 3341 1997 
z
" transform="scale(0.015625)"/>
       <path id="DejaVuSans-74" d="M 1172 4494 
L 1172 3500 
L 2356 3500 
L 2356 3053 
L 1172 3053 
L 1172 1153 
Q 1172 725 1289 603 
Q 1406 481 1766 481 
L 2356 481 
L 2356 0 
L 1766 0 
Q 1100 0 847 248 
Q 594 497 594 1153 
L 594 3053 
L 172 3053 
L 172 3500 
L 594 3500 
L 594 4494 
L 1172 4494 
z
" transform="scale(0.015625)"/>
       <path id="DejaVuSans-75" d="M 544 1381 
L 544 3500 
L 1119 3500 
L 1119 1403 
Q 1119 906 1312 657 
Q 1506 409 1894 409 
Q 2359 409 2629 706 
Q 2900 1003 2900 1516 
L 2900 3500 
L 3475 3500 
L 3475 0 
L 2900 0 
L 2900 538 
Q 2691 219 2414 64 
Q 2138 -91 1772 -91 
Q 1169 -91 856 284 
Q 544 659 544 1381 
z
M 1991 3584 
L 1991 3584 
z
" transform="scale(0.015625)"/>
       <path id="DejaVuSans-20" transform="scale(0.015625)"/>
       <path id="DejaVuSans-5b" d="M 550 4863 
L 1875 4863 
L 1875 4416 
L 1125 4416 
L 1125 -397 
L 1875 -397 
L 1875 -844 
L 550 -844 
L 550 4863 
z
" transform="scale(0.015625)"/>
       <path id="DejaVuSans-b0" d="M 1600 4347 
Q 1350 4347 1178 4173 
Q 1006 4000 1006 3750 
Q 1006 3503 1178 3333 
Q 1350 3163 1600 3163 
Q 1850 3163 2022 3333 
Q 2194 3503 2194 3750 
Q 2194 3997 2020 4172 
Q 1847 4347 1600 4347 
z
M 1600 4750 
Q 1800 4750 1984 4673 
Q 2169 4597 2303 4453 
Q 2447 4313 2519 4134 
Q 2591 3956 2591 3750 
Q 2591 3338 2302 3052 
Q 2013 2766 1594 2766 
Q 1172 2766 890 3047 
Q 609 3328 609 3750 
Q 609 4169 896 4459 
Q 1184 4750 1600 4750 
z
" transform="scale(0.015625)"/>
       <path id="DejaVuSans-43" d="M 4122 4306 
L 4122 3641 
Q 3803 3938 3442 4084 
Q 3081 4231 2675 4231 
Q 1875 4231 1450 3742 
Q 1025 3253 1025 2328 
Q 1025 1406 1450 917 
Q 1875 428 2675 428 
Q 3081 428 3442 575 
Q 3803 722 4122 1019 
L 4122 359 
Q 3791 134 3420 21 
Q 3050 -91 2638 -91 
Q 1578 -91 968 557 
Q 359 1206 359 2328 
Q 359 3453 968 4101 
Q 1578 4750 2638 4750 
Q 3056 4750 3426 4639 
Q 3797 4528 4122 4306 
z
" transform="scale(0.015625)"/>
       <path id="DejaVuSans-5d" d="M 1947 4863 
L 1947 -844 
L 622 -844 
L 622 -397 
L 1369 -397 
L 1369 4416 
L 622 4416 
L 622 4863 
L 1947 4863 
z
" transform="scale(0.015625)"/>
      </defs>
      <use xlink:href="#DejaVuSans-54"/>
      <use xlink:href="#DejaVuSans-65" x="44.083984"/>
      <use xlink:href="#DejaVuSans-6d" x="105.607422"/>
      <use xlink:href="#DejaVuSans-70" x="203.019531"/>
      <use xlink:href="#DejaVuSans-65" x="266.496094"/>
      <use xlink:href="#DejaVuSans-72" x="328.019531"/>
      <use xlink:href="#DejaVuSans-61" x="369.132812"/>
      <use xlink:href="#DejaVuSans-74" x="430.412109"/>
      <use xlink:href="#DejaVuSans-75" x="469.621094"/>
      <use xlink:href="#DejaVuSans-72" x="533"/>
      <use xlink:href="#DejaVuSans-65" x="571.863281"/>
      <use xlink:href="#DejaVuSans-20" x="633.386719"/>
      <use xlink:href="#DejaVuSans-5b" x="665.173828"/>
      <use xlink:href="#DejaVuSans-b0" x="704.1875"/>
      <use xlink:href="#DejaVuSans-43" x="754.1875"/>
      <use xlink:href="#DejaVuSans-5d" x="824.011719"/>
     </g>
    </g>
   </g>
   <g id="line2d_27">
    <path d="M 51.05 80.673994 
L 52.152641 80.673994 
L 52.337315 81.39504 
L 52.520164 81.39504 
L 52.704457 82.837131 
L 52.887726 82.837131 
L 53.072188 83.558176 
L 53.25525 83.558176 
L 53.439656 82.837131 
L 53.990319 82.837131 
L 54.174536 82.116085 
L 56.747511 82.116085 
L 56.930636 82.837131 
L 57.299744 82.837131 
L 57.850182 85.000267 
L 58.033244 85.000267 
L 58.400793 86.442358 
L 58.768327 86.442358 
L 58.952859 87.163404 
L 59.870951 87.163404 
L 60.055673 87.884449 
L 60.422679 87.884449 
L 60.607605 88.605494 
L 60.973585 88.605494 
L 61.157889 89.32654 
L 62.995479 89.32654 
L 63.178839 90.047585 
L 63.730388 90.047585 
L 63.913897 90.768631 
L 64.281397 90.047585 
L 65.016524 90.047585 
L 65.200833 90.768631 
L 67.221729 90.768631 
L 67.5906 91.489676 
L 68.141194 91.489676 
L 68.324339 92.210722 
L 69.794464 92.210722 
L 70.161998 92.931767 
L 70.898258 92.931767 
L 71.264617 93.652813 
L 73.654026 93.652813 
L 73.837365 94.373858 
L 75.307536 94.373858 
L 75.491599 95.094904 
L 76.77767 95.094904 
L 76.961893 95.815949 
L 77.145228 95.815949 
L 77.329376 95.094904 
L 77.512749 95.094904 
L 77.696819 95.815949 
L 79.16707 95.815949 
L 79.350424 96.536995 
L 80.637186 96.536995 
L 80.820598 97.25804 
L 82.658283 97.25804 
L 83.025826 98.700131 
L 83.209995 98.700131 
L 83.578048 100.142222 
L 83.760916 100.142222 
L 83.945178 100.863267 
L 84.49598 104.468495 
L 85.047517 107.352677 
L 85.415305 107.352677 
L 85.598598 108.073722 
L 85.966126 108.073722 
L 86.150357 108.794768 
L 86.333688 108.794768 
L 86.885455 110.957904 
L 87.068752 110.957904 
L 87.253029 111.67895 
L 88.172584 111.67895 
L 88.355058 112.399995 
L 88.906445 112.399995 
L 89.090466 113.12104 
L 89.274001 113.12104 
L 89.458221 113.842086 
L 89.641525 113.842086 
L 89.825522 114.563131 
L 90.193284 114.563131 
L 90.560885 116.005222 
L 90.744148 116.005222 
L 90.928333 116.726268 
L 93.133805 116.726268 
L 93.316913 116.005222 
L 93.501145 116.726268 
L 94.052005 116.726268 
L 94.236209 117.447313 
L 94.419559 117.447313 
L 94.603836 118.168359 
L 96.074037 118.168359 
L 96.257231 118.889404 
L 96.992314 118.889404 
L 97.176576 119.61045 
L 97.359811 119.61045 
L 97.544303 120.331495 
L 97.91163 120.331495 
L 98.279057 121.773586 
L 98.46369 121.773586 
L 98.829972 122.494632 
L 99.014114 123.215677 
L 99.381864 123.215677 
L 99.56506 123.936723 
L 99.932607 123.936723 
L 100.116818 124.657768 
L 100.300134 123.936723 
L 101.219581 123.936723 
L 101.402762 124.657768 
L 101.770286 125.378813 
L 102.689588 125.378813 
L 102.8729 126.099859 
L 103.24047 126.099859 
L 103.424793 126.820904 
L 103.608005 126.820904 
L 103.7924 127.54195 
L 104.159695 127.54195 
L 104.343076 128.262995 
L 104.527437 128.262995 
L 104.710607 128.984041 
L 104.894904 128.984041 
L 105.078151 127.54195 
L 105.629466 127.54195 
L 105.813209 128.262995 
L 105.997413 128.262995 
L 106.180765 128.984041 
L 106.732786 128.984041 
L 106.915854 129.705086 
L 107.835162 129.705086 
L 108.018487 130.426132 
L 108.386027 130.426132 
L 108.570228 131.147177 
L 108.754834 131.147177 
L 109.305261 128.984041 
L 109.672908 126.820904 
L 110.775574 126.820904 
L 110.958794 127.54195 
L 111.693873 127.54195 
L 111.878066 128.262995 
L 112.061401 128.262995 
L 112.430328 128.984041 
L 113.164029 128.984041 
L 113.348352 129.705086 
L 114.450854 129.705086 
L 114.634192 128.984041 
L 115.001732 128.984041 
L 115.185886 129.705086 
L 115.369271 128.984041 
L 115.737993 128.984041 
L 116.104357 129.705086 
L 116.65615 129.705086 
L 117.023486 131.147177 
L 119.044664 131.147177 
L 119.412184 131.868223 
L 119.779728 131.868223 
L 119.964001 131.147177 
L 120.69906 131.147177 
L 120.882354 131.868223 
L 121.249882 131.868223 
L 121.434588 132.589268 
L 122.352512 132.589268 
L 122.721265 133.310314 
L 123.455134 133.310314 
L 123.639339 134.031359 
L 124.374368 134.031359 
L 124.557745 134.752405 
L 125.292843 134.752405 
L 125.477013 135.47345 
L 125.660375 135.47345 
L 125.844484 136.194496 
L 126.02924 136.194496 
L 126.395447 136.915541 
L 126.762983 136.915541 
L 126.946988 137.636586 
L 127.130522 136.915541 
L 128.049798 136.915541 
L 128.233137 136.194496 
L 128.78485 136.194496 
L 128.968219 135.47345 
L 129.335743 135.47345 
L 129.704386 136.194496 
L 129.887334 136.915541 
L 130.622571 136.915541 
L 130.805917 136.194496 
L 131.908551 136.194496 
L 132.09269 136.915541 
L 132.276075 136.915541 
L 132.46031 137.636586 
L 132.827911 137.636586 
L 133.012387 138.357632 
L 133.194883 137.636586 
L 133.378705 137.636586 
L 133.562974 136.915541 
L 133.74624 137.636586 
L 134.113772 137.636586 
L 134.29788 138.357632 
L 134.481311 138.357632 
L 134.665493 139.078677 
L 135.768 139.078677 
L 135.951477 139.799723 
L 136.135605 139.799723 
L 136.320081 140.520768 
L 136.686567 139.799723 
L 137.973326 139.799723 
L 138.156741 140.520768 
L 138.340938 140.520768 
L 138.524276 141.241814 
L 138.708393 141.241814 
L 138.891808 141.962859 
L 139.443896 141.962859 
L 139.626875 142.683905 
L 139.995688 142.683905 
L 140.178338 143.40495 
L 141.281167 143.40495 
L 141.464575 142.683905 
L 142.199653 142.683905 
L 142.383866 141.962859 
L 142.567204 141.962859 
L 142.751462 141.241814 
L 143.118906 141.241814 
L 143.303547 141.962859 
L 143.66981 142.683905 
L 146.059147 142.683905 
L 146.242613 141.962859 
L 146.610169 141.962859 
L 146.977606 142.683905 
L 147.34523 142.683905 
L 147.529424 143.40495 
L 148.63204 143.40495 
L 148.815369 144.125996 
L 149.734776 144.125996 
L 149.918008 143.40495 
L 150.287025 143.40495 
L 150.469335 142.683905 
L 150.653087 142.683905 
L 150.837437 143.40495 
L 151.020635 143.40495 
L 151.204877 144.125996 
L 152.307734 144.125996 
L 152.490806 143.40495 
L 153.410218 143.40495 
L 153.594741 144.125996 
L 153.960959 144.847041 
L 154.328498 144.847041 
L 154.696034 143.40495 
L 155.798648 143.40495 
L 155.98299 144.125996 
L 156.350454 144.125996 
L 156.533724 144.847041 
L 157.452778 144.847041 
L 157.636342 145.568087 
L 158.923376 145.568087 
L 159.106523 146.289132 
L 159.841584 146.289132 
L 160.02575 147.010178 
L 160.393386 147.010178 
L 160.578 146.289132 
L 160.944227 147.010178 
L 161.128574 147.731223 
L 161.863627 147.731223 
L 162.231113 146.289132 
L 162.414376 146.289132 
L 162.781921 144.847041 
L 163.149468 144.847041 
L 163.333768 144.125996 
L 164.252049 144.125996 
L 164.436227 144.847041 
L 164.803897 144.847041 
L 164.987179 145.568087 
L 165.171356 145.568087 
L 165.354688 146.289132 
L 165.53895 146.289132 
L 165.722232 147.010178 
L 165.906536 147.010178 
L 166.089798 147.731223 
L 166.641742 147.731223 
L 166.824855 148.452269 
L 168.295037 148.452269 
L 168.479464 147.731223 
L 170.500269 147.731223 
L 170.684665 148.452269 
L 172.337984 148.452269 
L 172.522234 147.731223 
L 173.257448 147.731223 
L 173.4406 147.010178 
L 174.544437 147.010178 
L 174.727225 146.289132 
L 175.830239 146.289132 
L 176.013398 145.568087 
L 176.197836 145.568087 
L 176.380931 144.847041 
L 176.932759 144.847041 
L 177.116021 145.568087 
L 178.402923 145.568087 
L 178.586178 146.289132 
L 179.138072 146.289132 
L 179.321265 147.010178 
L 179.505543 147.010178 
L 179.688817 147.731223 
L 180.975653 147.731223 
L 181.158973 147.010178 
L 181.526494 146.289132 
L 181.894014 147.731223 
L 182.629128 147.731223 
L 182.813387 147.010178 
L 183.364201 147.010178 
L 183.548565 146.289132 
L 184.283638 146.289132 
L 184.466809 147.010178 
L 185.201901 147.010178 
L 185.569434 146.289132 
L 186.304518 146.289132 
L 186.488871 145.568087 
L 186.672088 145.568087 
L 186.856323 146.289132 
L 187.40716 146.289132 
L 187.591464 147.010178 
L 187.774678 146.289132 
L 187.95892 146.289132 
L 188.143542 145.568087 
L 188.509784 144.847041 
L 188.693993 144.125996 
L 189.796811 144.125996 
L 189.979929 144.847041 
L 190.347472 144.847041 
L 190.531711 145.568087 
L 191.266925 145.568087 
L 191.450084 146.289132 
L 191.81886 145.568087 
L 192.920256 145.568087 
L 193.104503 146.289132 
L 193.655339 146.289132 
L 193.839555 147.010178 
L 195.12669 147.010178 
L 195.493027 148.452269 
L 195.677343 148.452269 
L 195.860575 149.173314 
L 196.044745 148.452269 
L 196.228134 148.452269 
L 196.412358 147.731223 
L 197.330743 147.731223 
L 197.698298 149.173314 
L 197.882606 149.173314 
L 198.433362 147.010178 
L 198.800906 146.289132 
L 199.352876 148.452269 
L 199.535974 148.452269 
L 199.903545 149.894359 
L 201.006168 149.894359 
L 201.373697 150.615405 
L 201.558059 151.33645 
L 201.741233 151.33645 
L 202.10999 150.615405 
L 202.292628 150.615405 
L 202.660751 149.173314 
L 203.028198 149.173314 
L 203.211407 149.894359 
L 203.3958 149.894359 
L 203.578932 150.615405 
L 204.131017 150.615405 
L 204.498446 149.173314 
L 204.681563 149.173314 
L 204.865836 148.452269 
L 205.968463 148.452269 
L 206.15173 149.173314 
L 206.336187 149.173314 
L 206.519266 148.452269 
L 206.703497 148.452269 
L 206.886783 147.731223 
L 207.071225 147.731223 
L 207.254342 147.010178 
L 207.438692 147.731223 
L 207.806292 147.731223 
L 207.989428 148.452269 
L 208.173747 148.452269 
L 208.356986 147.731223 
L 209.45959 147.731223 
L 209.643863 148.452269 
L 209.827122 148.452269 
L 210.011337 149.173314 
L 210.194684 149.173314 
L 210.562204 147.731223 
L 211.481642 147.731223 
L 211.849189 149.173314 
L 212.216637 149.173314 
L 212.401269 149.894359 
L 213.134986 149.894359 
L 213.319321 150.615405 
L 213.686749 150.615405 
L 213.870073 149.894359 
L 214.054366 148.452269 
L 214.237628 148.452269 
L 214.421829 147.731223 
L 215.156889 147.731223 
L 215.340221 148.452269 
L 216.075303 148.452269 
L 216.259501 147.731223 
L 216.810394 147.731223 
L 216.99409 148.452269 
L 217.17795 148.452269 
L 217.362196 149.173314 
L 217.729828 149.173314 
L 217.91301 149.894359 
L 218.097413 149.894359 
L 218.280569 150.615405 
L 218.64812 150.615405 
L 218.832462 149.894359 
L 219.015664 149.894359 
L 219.384406 149.173314 
L 219.93515 149.173314 
L 220.118252 149.894359 
L 221.037658 149.894359 
L 221.220902 150.615405 
L 221.405275 150.615405 
L 221.588419 151.33645 
L 221.772723 151.33645 
L 221.955981 150.615405 
L 222.692401 150.615405 
L 223.058601 151.33645 
L 223.24295 151.33645 
L 223.426132 150.615405 
L 223.610439 150.615405 
L 223.793663 149.894359 
L 224.896299 149.894359 
L 225.080699 150.615405 
L 227.469081 150.615405 
L 227.653512 151.33645 
L 228.939252 151.33645 
L 229.491076 149.173314 
L 229.85803 149.173314 
L 230.041843 149.894359 
L 230.593583 149.894359 
L 230.776934 149.173314 
L 230.961341 149.173314 
L 231.512028 147.010178 
L 231.696381 147.010178 
L 231.879564 147.731223 
L 232.063844 147.731223 
L 232.247114 148.452269 
L 232.431306 148.452269 
L 232.614661 149.173314 
L 232.798937 148.452269 
L 232.983693 149.173314 
L 233.533916 149.173314 
L 234.084784 151.33645 
L 234.26916 151.33645 
L 234.452342 152.057496 
L 234.636622 152.057496 
L 234.819884 151.33645 
L 235.004078 151.33645 
L 235.18744 150.615405 
L 235.371832 150.615405 
L 235.554968 149.894359 
L 236.106762 149.894359 
L 236.290051 150.615405 
L 236.658964 151.33645 
L 237.209572 151.33645 
L 237.392673 150.615405 
L 237.576869 150.615405 
L 237.760205 151.33645 
L 238.862819 151.33645 
L 239.047134 150.615405 
L 239.23035 151.33645 
L 239.414584 151.33645 
L 239.597904 152.057496 
L 239.782327 152.057496 
L 240.884829 147.731223 
L 241.06808 147.731223 
L 241.252445 147.010178 
L 242.722556 147.010178 
L 242.905761 147.731223 
L 243.090018 147.731223 
L 243.642233 149.894359 
L 243.824871 149.894359 
L 244.008363 149.173314 
L 244.560195 149.173314 
L 244.743465 148.452269 
L 244.92775 148.452269 
L 245.111012 149.173314 
L 245.478548 149.173314 
L 245.662794 148.452269 
L 245.846087 148.452269 
L 246.030387 147.731223 
L 246.213653 147.731223 
L 246.397984 147.010178 
L 246.765599 147.010178 
L 246.949926 147.731223 
L 247.868108 147.731223 
L 248.051339 147.010178 
L 248.235713 147.010178 
L 248.418867 146.289132 
L 248.786422 146.289132 
L 248.970925 147.010178 
L 249.338548 147.010178 
L 249.521489 147.731223 
L 249.705698 147.731223 
L 249.889017 148.452269 
L 250.073299 148.452269 
L 250.258061 149.173314 
L 250.808304 149.173314 
L 250.99164 148.452269 
L 251.726722 148.452269 
L 251.911099 149.173314 
L 254.115838 149.173314 
L 254.299513 149.894359 
L 255.402143 149.894359 
L 255.586658 150.615405 
L 256.32165 150.615405 
L 256.504782 149.894359 
L 256.872298 149.894359 
L 257.056713 150.615405 
L 257.607389 150.615405 
L 257.791747 149.894359 
L 257.974921 149.894359 
L 258.159247 149.173314 
L 258.8942 149.173314 
L 259.077535 148.452269 
L 260.180169 148.452269 
L 260.364416 149.173314 
L 261.834574 149.173314 
L 262.017875 148.452269 
L 262.569622 148.452269 
L 262.752946 149.173314 
L 263.120492 149.173314 
L 263.304793 148.452269 
L 263.488028 148.452269 
L 263.672255 147.731223 
L 263.855575 147.731223 
L 264.03991 148.452269 
L 264.224347 148.452269 
L 264.406821 147.731223 
L 265.14252 147.731223 
L 265.509841 149.173314 
L 265.693261 149.173314 
L 265.87748 149.894359 
L 266.0608 149.173314 
L 266.979965 149.173314 
L 267.163441 149.894359 
L 268.633603 149.894359 
L 268.817861 150.615405 
L 269.001138 150.615405 
L 269.36867 151.33645 
L 270.103764 151.33645 
L 270.287961 150.615405 
L 270.471296 150.615405 
L 270.838831 152.057496 
L 271.207635 152.057496 
L 271.757923 149.894359 
L 271.941472 149.894359 
L 272.125676 149.173314 
L 272.860763 149.173314 
L 273.044083 149.894359 
L 275.066184 149.894359 
L 275.249335 150.615405 
L 275.616855 150.615405 
L 275.801144 151.33645 
L 275.984391 151.33645 
L 276.168615 152.057496 
L 276.903655 152.057496 
L 277.088284 151.33645 
L 277.271298 151.33645 
L 277.454564 152.057496 
L 277.638711 152.057496 
L 277.822111 152.778541 
L 278.189551 152.057496 
L 278.373732 151.33645 
L 278.557186 151.33645 
L 278.924733 149.894359 
L 279.292272 149.894359 
L 279.476764 149.173314 
L 280.579474 149.173314 
L 280.762437 148.452269 
L 281.314327 148.452269 
L 281.498811 149.173314 
L 283.152039 149.173314 
L 283.335224 149.894359 
L 283.519632 149.173314 
L 283.887083 149.173314 
L 284.07028 148.452269 
L 284.622154 148.452269 
L 284.806898 147.731223 
L 285.357183 147.731223 
L 285.540449 147.010178 
L 287.010599 147.010178 
L 287.194957 147.731223 
L 287.930012 147.731223 
L 288.113234 147.010178 
L 288.482077 146.289132 
L 288.664721 146.289132 
L 288.848308 147.010178 
L 289.032669 146.289132 
L 289.215859 146.289132 
L 289.40012 145.568087 
L 289.767576 145.568087 
L 289.950938 146.289132 
L 290.318469 146.289132 
L 290.68604 144.125996 
L 291.053544 142.683905 
L 291.237986 142.683905 
L 292.523721 137.636586 
L 292.708105 137.636586 
L 293.075541 136.915541 
L 293.443153 135.47345 
L 295.096497 123.215677 
L 295.648137 120.331495 
L 296.015952 118.889404 
L 296.38353 116.726268 
L 297.118742 113.842086 
L 297.301714 113.842086 
L 297.853657 111.67895 
L 298.036808 111.67895 
L 298.221127 110.957904 
L 298.404359 110.957904 
L 298.955677 108.073722 
L 299.139445 107.352677 
L 300.058831 107.352677 
L 300.426444 105.910586 
L 300.609611 105.910586 
L 301.161557 102.305358 
L 301.34467 101.584313 
L 301.528951 101.584313 
L 301.896594 100.142222 
L 302.447286 100.142222 
L 302.631595 100.863267 
L 302.999241 100.863267 
L 303.182367 100.142222 
L 303.366714 100.142222 
L 303.734293 98.700131 
L 304.10175 96.536995 
L 305.020083 92.931767 
L 305.204514 92.931767 
L 305.387612 91.489676 
L 305.756535 90.768631 
L 306.122678 90.768631 
L 306.307238 90.047585 
L 307.409752 90.047585 
L 307.777243 88.605494 
L 308.144962 88.605494 
L 308.327915 89.32654 
L 308.880031 89.32654 
L 309.064366 90.047585 
L 309.615045 90.047585 
L 309.798073 89.32654 
L 310.165615 89.32654 
L 310.717741 87.163404 
L 310.900681 87.163404 
L 311.085043 87.884449 
L 311.268205 87.884449 
L 311.4528 88.605494 
L 311.635756 88.605494 
L 311.820247 87.884449 
L 312.372336 83.558176 
L 312.92257 81.39504 
L 313.105901 81.39504 
L 313.840988 78.510858 
L 314.208512 79.952949 
L 314.760482 79.952949 
L 314.943588 79.231903 
L 315.12811 79.952949 
L 315.311127 79.952949 
L 315.495703 79.231903 
L 315.678663 79.231903 
L 316.047371 78.510858 
L 316.781294 83.558176 
L 317.148818 85.000267 
L 317.700944 85.000267 
L 317.883896 84.279222 
L 318.068483 84.279222 
L 318.251419 85.000267 
L 318.618954 85.000267 
L 318.986498 83.558176 
L 319.170985 83.558176 
L 319.355186 82.837131 
L 319.906014 82.837131 
L 320.273691 81.39504 
L 320.456655 79.952949 
L 320.641143 80.673994 
L 320.824195 80.673994 
L 321.376175 82.837131 
L 321.559274 82.837131 
L 322.111369 80.673994 
L 322.478844 80.673994 
L 322.6619 79.952949 
L 323.581513 74.90563 
L 324.316565 72.021449 
L 324.499586 72.742494 
L 324.684158 72.742494 
L 324.867099 73.46354 
L 325.051606 73.46354 
L 325.419225 72.021449 
L 325.602193 72.742494 
L 325.969751 72.742494 
L 326.338451 71.300403 
L 326.52109 71.300403 
L 326.889409 69.858312 
L 327.072334 69.858312 
L 327.439875 68.416221 
L 327.624408 68.416221 
L 327.99199 66.97413 
L 328.72708 66.97413 
L 329.462214 69.858312 
L 330.196986 69.858312 
L 330.932249 66.97413 
L 331.115255 66.97413 
L 331.667313 70.579358 
L 332.034888 70.579358 
L 332.217877 69.858312 
L 332.76995 66.253085 
L 333.688018 66.253085 
L 333.872628 65.532039 
L 334.055565 65.532039 
L 334.240068 64.810994 
L 334.42309 64.810994 
L 334.79063 63.368903 
L 335.158173 61.205767 
L 335.342734 60.484721 
L 335.525713 60.484721 
L 336.077644 58.321585 
L 336.445257 59.763676 
L 336.629874 59.763676 
L 336.812061 60.484721 
L 336.995844 61.926812 
L 337.180309 61.926812 
L 337.363403 61.205767 
L 337.730951 61.205767 
L 337.915365 61.926812 
L 339.018028 61.926812 
L 339.201094 61.205767 
L 339.385628 61.926812 
L 339.568622 61.926812 
L 339.753083 62.647857 
L 340.487956 62.647857 
L 341.038778 60.484721 
L 341.406314 58.321585 
L 341.590813 57.600539 
L 341.773866 57.600539 
L 342.693468 61.205767 
L 342.876466 61.205767 
L 343.24401 59.763676 
L 343.613008 59.04263 
L 343.979086 57.600539 
L 344.531182 53.995312 
L 344.71415 53.995312 
L 345.081678 52.553221 
L 345.449222 52.553221 
L 345.816758 53.995312 
L 346.00136 53.995312 
L 346.184301 53.274266 
L 346.368774 53.274266 
L 346.551829 52.553221 
L 346.920549 52.553221 
L 347.471385 50.390084 
L 347.839063 48.226948 
L 348.021981 48.226948 
L 348.38954 46.784857 
L 348.941541 43.17963 
L 349.309139 41.737539 
L 349.67645 39.574402 
L 350.044059 39.574402 
L 350.227214 41.016493 
L 350.962302 43.900675 
L 351.329823 42.458584 
L 351.514231 42.458584 
L 351.697356 43.17963 
L 352.064903 46.784857 
L 352.432447 48.947994 
L 352.799983 48.947994 
L 353.351953 46.784857 
L 353.904057 50.390084 
L 354.27012 51.832175 
L 354.45473 51.11113 
L 354.637659 51.832175 
L 355.005204 53.995312 
L 355.189641 53.995312 
L 355.557093 55.437403 
L 355.924733 55.437403 
L 356.292147 53.995312 
L 356.475363 52.553221 
L 356.8429 53.995312 
L 357.211837 56.158448 
L 357.577983 56.158448 
L 357.945512 54.716357 
L 358.313049 52.553221 
L 359.048136 49.669039 
L 360.150737 41.737539 
L 360.518266 40.295448 
L 360.887207 39.574402 
L 361.437734 39.574402 
L 361.805485 38.132311 
L 361.988426 38.132311 
L 362.540407 40.295448 
L 362.907848 38.853357 
L 363.275449 38.853357 
L 363.826118 41.016493 
L 364.19499 41.737539 
L 364.377475 41.737539 
L 364.561191 41.016493 
L 364.928738 42.458584 
L 365.113323 42.458584 
L 365.296248 41.737539 
L 365.48063 41.737539 
L 366.031337 39.574402 
L 366.398889 41.016493 
L 367.50283 48.947994 
L 368.236567 51.832175 
L 368.60411 51.832175 
L 368.971628 52.553221 
L 369.155989 53.274266 
L 369.523426 53.274266 
L 369.706713 53.995312 
L 369.891342 53.995312 
L 370.074253 54.716357 
L 370.258744 56.158448 
L 370.441796 56.158448 
L 370.809333 57.600539 
L 371.360928 60.484721 
L 371.544417 61.205767 
L 372.096345 64.810994 
L 372.647048 66.97413 
L 372.831532 66.97413 
L 373.014565 67.695176 
L 373.199018 67.695176 
L 373.382097 68.416221 
L 373.566447 68.416221 
L 373.749637 69.137267 
L 373.934117 69.137267 
L 374.301531 70.579358 
L 375.404188 78.510858 
L 375.587336 78.510858 
L 375.954872 79.952949 
L 376.322404 79.952949 
L 376.506885 80.673994 
L 376.874306 80.673994 
L 377.058929 81.39504 
L 377.241942 81.39504 
L 377.425009 82.116085 
L 377.794035 82.116085 
L 378.160116 82.837131 
L 378.344386 82.116085 
L 378.712056 82.116085 
L 378.895166 81.39504 
L 379.997808 81.39504 
L 380.549775 83.558176 
L 380.732866 83.558176 
L 381.10039 85.000267 
L 381.4693 85.721313 
L 381.835478 85.721313 
L 382.019885 86.442358 
L 382.387337 86.442358 
L 382.570558 87.163404 
L 383.305645 87.163404 
L 383.673193 88.605494 
L 384.040733 88.605494 
L 384.22509 89.32654 
L 384.408254 89.32654 
L 385.327764 92.931767 
L 385.510866 92.931767 
L 385.878425 94.373858 
L 386.062813 94.373858 
L 386.430446 95.815949 
L 386.613498 95.815949 
L 387.165496 97.979086 
L 388.085059 97.979086 
L 388.451182 98.700131 
L 388.63539 99.421177 
L 388.81871 99.421177 
L 389.370523 101.584313 
L 389.553809 101.584313 
L 389.921345 103.026404 
L 390.105737 103.026404 
L 390.473415 105.18954 
L 390.656432 105.18954 
L 390.840867 105.910586 
L 391.023968 105.910586 
L 391.208388 106.631631 
L 391.391497 106.631631 
L 391.760465 107.352677 
L 391.942923 107.352677 
L 392.126565 108.073722 
L 392.311046 108.073722 
L 392.678524 109.515813 
L 392.861641 109.515813 
L 393.229204 110.957904 
L 393.413539 110.957904 
L 393.596729 111.67895 
L 393.781163 111.67895 
L 393.964265 112.399995 
L 394.516205 112.399995 
L 394.699352 113.12104 
L 397.089067 113.12104 
L 397.639662 110.957904 
L 398.007202 110.957904 
L 398.191502 110.236859 
L 398.374729 110.957904 
L 398.92637 110.957904 
L 399.109809 111.67895 
L 399.29417 111.67895 
L 399.477341 112.399995 
L 400.39635 112.399995 
L 400.579964 113.12104 
L 400.947504 113.12104 
L 401.131911 113.842086 
L 401.499355 113.842086 
L 401.682583 113.12104 
L 402.785199 113.12104 
L 402.969629 113.842086 
L 403.520283 113.842086 
L 403.887824 115.284177 
L 405.35944 115.284177 
L 405.72552 116.005222 
L 406.093044 116.005222 
L 406.277486 116.726268 
L 407.012546 116.726268 
L 407.195694 117.447313 
L 407.747599 117.447313 
L 407.930757 118.168359 
L 408.298274 118.168359 
L 408.482654 117.447313 
L 409.034728 117.447313 
L 409.21737 118.168359 
L 411.422914 118.168359 
L 411.606129 118.889404 
L 412.158089 118.889404 
L 412.34256 119.61045 
L 413.995809 119.61045 
L 414.178888 120.331495 
L 414.731015 120.331495 
L 414.913969 121.052541 
L 416.016568 121.052541 
L 416.200803 121.773586 
L 416.936047 121.773586 
L 417.11919 122.494632 
L 418.038696 122.494632 
L 418.221813 123.215677 
L 420.427041 123.215677 
L 420.611325 123.936723 
L 422.264731 123.936723 
L 422.448916 124.657768 
L 423.551567 124.657768 
L 423.734891 125.378813 
L 424.102419 125.378813 
L 424.28678 126.099859 
L 424.469988 126.099859 
L 424.654243 126.820904 
L 424.837501 126.820904 
L 425.021694 127.54195 
L 425.389294 127.54195 
L 425.572583 128.262995 
L 426.307596 128.262995 
L 426.491774 128.984041 
L 426.859566 128.984041 
L 427.042732 129.705086 
L 427.227211 129.705086 
L 427.410271 130.426132 
L 428.329541 130.426132 
L 428.697251 131.868223 
L 428.880437 131.868223 
L 429.064591 132.589268 
L 431.085685 132.589268 
L 431.270061 131.868223 
L 431.453198 131.868223 
L 431.637448 131.147177 
L 432.188279 131.147177 
L 432.372794 131.868223 
L 432.740367 131.868223 
L 432.924706 132.589268 
L 433.290881 132.589268 
L 433.475208 133.310314 
L 433.658428 133.310314 
L 433.842575 134.031359 
L 434.025986 134.031359 
L 434.210003 134.752405 
L 434.945241 134.752405 
L 435.12858 135.47345 
L 435.312806 135.47345 
L 435.496126 136.194496 
L 436.048026 136.194496 
L 436.231207 135.47345 
L 436.600105 136.194496 
L 436.96629 136.194496 
L 437.150838 136.915541 
L 437.518136 136.915541 
L 437.70137 137.636586 
L 438.068898 137.636586 
L 438.253347 138.357632 
L 438.988616 138.357632 
L 439.171526 139.078677 
L 439.356021 138.357632 
L 439.723319 138.357632 
L 439.907649 139.078677 
L 440.090283 138.357632 
L 441.009221 138.357632 
L 441.193789 139.078677 
L 441.561355 139.078677 
L 441.744295 139.799723 
L 443.21445 139.799723 
L 443.581994 140.520768 
L 444.317085 140.520768 
L 444.501424 139.799723 
L 444.684605 139.799723 
L 444.869177 139.078677 
L 446.154787 139.078677 
L 446.339305 138.357632 
L 446.522318 138.357632 
L 446.891228 139.078677 
L 448.727562 139.078677 
L 448.911942 138.357632 
L 449.095086 139.078677 
L 449.279397 138.357632 
L 449.462633 139.078677 
L 450.014755 139.078677 
L 450.199262 139.799723 
L 450.565251 139.799723 
L 450.749643 140.520768 
L 450.932803 140.520768 
L 451.117278 141.241814 
L 451.300332 140.520768 
L 453.138053 140.520768 
L 453.322506 141.241814 
L 454.057203 141.241814 
L 454.6082 139.078677 
L 455.343271 139.078677 
L 455.527805 139.799723 
L 455.895275 139.799723 
L 456.078354 140.520768 
L 456.997782 140.520768 
L 457.182545 141.241814 
L 457.548534 141.241814 
L 457.916069 142.683905 
L 458.100492 142.683905 
L 458.28359 143.40495 
L 458.651134 143.40495 
L 458.835645 144.125996 
L 459.01869 144.125996 
L 459.202983 144.847041 
L 459.753749 144.847041 
L 460.121301 143.40495 
L 463.429164 143.40495 
L 463.613667 142.683905 
L 464.165722 142.683905 
L 464.348195 141.962859 
L 465.266874 141.962859 
L 465.451339 142.683905 
L 465.818948 142.683905 
L 466.001935 143.40495 
L 466.18625 142.683905 
L 466.369491 143.40495 
L 466.921617 143.40495 
L 467.104573 144.125996 
L 467.288622 144.125996 
L 467.473696 144.847041 
L 471.331658 144.847041 
L 471.515074 144.125996 
L 472.617678 144.125996 
L 472.802258 144.847041 
L 473.720314 144.847041 
L 473.904629 144.125996 
L 474.087834 144.125996 
L 474.456869 143.40495 
L 474.639213 142.683905 
L 475.190481 142.683905 
L 475.375076 143.40495 
L 475.742524 143.40495 
L 475.925562 144.125996 
L 476.109667 144.125996 
L 476.477162 144.847041 
L 477.212502 144.847041 
L 477.395743 144.125996 
L 478.130781 144.125996 
L 478.315112 144.847041 
L 479.417959 144.847041 
L 479.600957 145.568087 
L 480.153173 145.568087 
L 480.336068 146.289132 
L 480.520625 145.568087 
L 481.071144 145.568087 
L 481.44035 146.289132 
L 482.725828 146.289132 
L 482.908843 147.010178 
L 483.27638 147.010178 
L 483.460853 147.731223 
L 484.748154 147.731223 
L 485.114094 148.452269 
L 485.298539 148.452269 
L 485.481653 147.731223 
L 486.401229 147.731223 
L 486.584259 148.452269 
L 487.136333 148.452269 
L 487.319344 149.173314 
L 488.421898 149.173314 
L 488.60608 149.894359 
L 488.97403 149.894359 
L 489.157052 150.615405 
L 489.70908 150.615405 
L 489.89214 151.33645 
L 490.994747 151.33645 
L 491.179059 152.057496 
L 491.362291 151.33645 
L 491.913638 151.33645 
L 492.281875 149.894359 
L 493.2 149.894359 
L 493.2 149.894359 
" clip-path="url(#p2215fc7748)" style="fill: none; stroke: #1f77b4; stroke-width: 1.5; stroke-linecap: square"/>
   </g>
   <g id="patch_3">
    <path d="M 51.05 158.510853 
L 51.05 32.4 
" style="fill: none; stroke: #000000; stroke-width: 0.8; stroke-linejoin: miter; stroke-linecap: square"/>
   </g>
   <g id="patch_4">
    <path d="M 493.2 158.510853 
L 493.2 32.4 
" style="fill: none; stroke: #000000; stroke-width: 0.8; stroke-linejoin: miter; stroke-linecap: square"/>
   </g>
   <g id="patch_5">
    <path d="M 51.05 158.510853 
L 493.2 158.510853 
" style="fill: none; stroke: #000000; stroke-width: 0.8; stroke-linejoin: miter; stroke-linecap: square"/>
   </g>
   <g id="patch_6">
    <path d="M 51.05 32.4 
L 493.2 32.4 
" style="fill: none; stroke: #000000; stroke-width: 0.8; stroke-linejoin: miter; stroke-linecap: square"/>
   </g>
  </g>
  <g id="axes_2">
   <g id="patch_7">
    <path d="M 51.05 302.881706 
L 493.2 302.881706 
L 493.2 176.770853 
L 51.05 176.770853 
z
" style="fill: #ffffff"/>
   </g>
   <g id="matplotlib.axis_3">
    <g id="xtick_11">
     <g id="line2d_28">
      <path d="M 88.75267 302.881706 
L 88.75267 176.770853 
" clip-path="url(#p72cf03756c)" style="fill: none; stroke: #b0b0b0; stroke-width: 0.8; stroke-linecap: square"/>
     </g>
     <g id="line2d_29">
      <g>
       <use xlink:href="#mbfef5f567f" x="88.75267" y="302.881706" style="stroke: #000000; stroke-width: 0.8"/>
      </g>
     </g>
    </g>
    <g id="xtick_12">
     <g id="line2d_30">
      <path d="M 130.101446 302.881706 
L 130.101446 176.770853 
" clip-path="url(#p72cf03756c)" style="fill: none; stroke: #b0b0b0; stroke-width: 0.8; stroke-linecap: square"/>
     </g>
     <g id="line2d_31">
      <g>
       <use xlink:href="#mbfef5f567f" x="130.101446" y="302.881706" style="stroke: #000000; stroke-width: 0.8"/>
      </g>
     </g>
    </g>
    <g id="xtick_13">
     <g id="line2d_32">
      <path d="M 171.450222 302.881706 
L 171.450222 176.770853 
" clip-path="url(#p72cf03756c)" style="fill: none; stroke: #b0b0b0; stroke-width: 0.8; stroke-linecap: square"/>
     </g>
     <g id="line2d_33">
      <g>
       <use xlink:href="#mbfef5f567f" x="171.450222" y="302.881706" style="stroke: #000000; stroke-width: 0.8"/>
      </g>
     </g>
    </g>
    <g id="xtick_14">
     <g id="line2d_34">
      <path d="M 212.798998 302.881706 
L 212.798998 176.770853 
" clip-path="url(#p72cf03756c)" style="fill: none; stroke: #b0b0b0; stroke-width: 0.8; stroke-linecap: square"/>
     </g>
     <g id="line2d_35">
      <g>
       <use xlink:href="#mbfef5f567f" x="212.798998" y="302.881706" style="stroke: #000000; stroke-width: 0.8"/>
      </g>
     </g>
    </g>
    <g id="xtick_15">
     <g id="line2d_36">
      <path d="M 254.147774 302.881706 
L 254.147774 176.770853 
" clip-path="url(#p72cf03756c)" style="fill: none; stroke: #b0b0b0; stroke-width: 0.8; stroke-linecap: square"/>
     </g>
     <g id="line2d_37">
      <g>
       <use xlink:href="#mbfef5f567f" x="254.147774" y="302.881706" style="stroke: #000000; stroke-width: 0.8"/>
      </g>
     </g>
    </g>
    <g id="xtick_16">
     <g id="line2d_38">
      <path d="M 295.496549 302.881706 
L 295.496549 176.770853 
" clip-path="url(#p72cf03756c)" style="fill: none; stroke: #b0b0b0; stroke-width: 0.8; stroke-linecap: square"/>
     </g>
     <g id="line2d_39">
      <g>
       <use xlink:href="#mbfef5f567f" x="295.496549" y="302.881706" style="stroke: #000000; stroke-width: 0.8"/>
      </g>
     </g>
    </g>
    <g id="xtick_17">
     <g id="line2d_40">
      <path d="M 336.845325 302.881706 
L 336.845325 176.770853 
" clip-path="url(#p72cf03756c)" style="fill: none; stroke: #b0b0b0; stroke-width: 0.8; stroke-linecap: square"/>
     </g>
     <g id="line2d_41">
      <g>
       <use xlink:href="#mbfef5f567f" x="336.845325" y="302.881706" style="stroke: #000000; stroke-width: 0.8"/>
      </g>
     </g>
    </g>
    <g id="xtick_18">
     <g id="line2d_42">
      <path d="M 378.194101 302.881706 
L 378.194101 176.770853 
" clip-path="url(#p72cf03756c)" style="fill: none; stroke: #b0b0b0; stroke-width: 0.8; stroke-linecap: square"/>
     </g>
     <g id="line2d_43">
      <g>
       <use xlink:href="#mbfef5f567f" x="378.194101" y="302.881706" style="stroke: #000000; stroke-width: 0.8"/>
      </g>
     </g>
    </g>
    <g id="xtick_19">
     <g id="line2d_44">
      <path d="M 419.542877 302.881706 
L 419.542877 176.770853 
" clip-path="url(#p72cf03756c)" style="fill: none; stroke: #b0b0b0; stroke-width: 0.8; stroke-linecap: square"/>
     </g>
     <g id="line2d_45">
      <g>
       <use xlink:href="#mbfef5f567f" x="419.542877" y="302.881706" style="stroke: #000000; stroke-width: 0.8"/>
      </g>
     </g>
    </g>
    <g id="xtick_20">
     <g id="line2d_46">
      <path d="M 460.891652 302.881706 
L 460.891652 176.770853 
" clip-path="url(#p72cf03756c)" style="fill: none; stroke: #b0b0b0; stroke-width: 0.8; stroke-linecap: square"/>
     </g>
     <g id="line2d_47">
      <g>
       <use xlink:href="#mbfef5f567f" x="460.891652" y="302.881706" style="stroke: #000000; stroke-width: 0.8"/>
      </g>
     </g>
    </g>
   </g>
   <g id="matplotlib.axis_4">
    <g id="ytick_4">
     <g id="line2d_48">
      <path d="M 51.05 302.881706 
L 493.2 302.881706 
" clip-path="url(#p72cf03756c)" style="fill: none; stroke: #b0b0b0; stroke-width: 0.8; stroke-linecap: square"/>
     </g>
     <g id="line2d_49">
      <g>
       <use xlink:href="#m7c6fe789e4" x="51.05" y="302.881706" style="stroke: #000000; stroke-width: 0.8"/>
      </g>
     </g>
     <g id="text_5">
      <!-- 0 -->
      <g transform="translate(37.6875 306.680924) scale(0.1 -0.1)">
       <use xlink:href="#DejaVuSans-30"/>
      </g>
     </g>
    </g>
    <g id="ytick_5">
     <g id="line2d_50">
      <path d="M 51.05 277.659535 
L 493.2 277.659535 
" clip-path="url(#p72cf03756c)" style="fill: none; stroke: #b0b0b0; stroke-width: 0.8; stroke-linecap: square"/>
     </g>
     <g id="line2d_51">
      <g>
       <use xlink:href="#m7c6fe789e4" x="51.05" y="277.659535" style="stroke: #000000; stroke-width: 0.8"/>
      </g>
     </g>
     <g id="text_6">
      <!-- 20 -->
      <g transform="translate(31.325 281.458754) scale(0.1 -0.1)">
       <use xlink:href="#DejaVuSans-32"/>
       <use xlink:href="#DejaVuSans-30" x="63.623047"/>
      </g>
     </g>
    </g>
    <g id="ytick_6">
     <g id="line2d_52">
      <path d="M 51.05 252.437365 
L 493.2 252.437365 
" clip-path="url(#p72cf03756c)" style="fill: none; stroke: #b0b0b0; stroke-width: 0.8; stroke-linecap: square"/>
     </g>
     <g id="line2d_53">
      <g>
       <use xlink:href="#m7c6fe789e4" x="51.05" y="252.437365" style="stroke: #000000; stroke-width: 0.8"/>
      </g>
     </g>
     <g id="text_7">
      <!-- 40 -->
      <g transform="translate(31.325 256.236583) scale(0.1 -0.1)">
       <defs>
        <path id="DejaVuSans-34" d="M 2419 4116 
L 825 1625 
L 2419 1625 
L 2419 4116 
z
M 2253 4666 
L 3047 4666 
L 3047 1625 
L 3713 1625 
L 3713 1100 
L 3047 1100 
L 3047 0 
L 2419 0 
L 2419 1100 
L 313 1100 
L 313 1709 
L 2253 4666 
z
" transform="scale(0.015625)"/>
       </defs>
       <use xlink:href="#DejaVuSans-34"/>
       <use xlink:href="#DejaVuSans-30" x="63.623047"/>
      </g>
     </g>
    </g>
    <g id="ytick_7">
     <g id="line2d_54">
      <path d="M 51.05 227.215194 
L 493.2 227.215194 
" clip-path="url(#p72cf03756c)" style="fill: none; stroke: #b0b0b0; stroke-width: 0.8; stroke-linecap: square"/>
     </g>
     <g id="line2d_55">
      <g>
       <use xlink:href="#m7c6fe789e4" x="51.05" y="227.215194" style="stroke: #000000; stroke-width: 0.8"/>
      </g>
     </g>
     <g id="text_8">
      <!-- 60 -->
      <g transform="translate(31.325 231.014413) scale(0.1 -0.1)">
       <defs>
        <path id="DejaVuSans-36" d="M 2113 2584 
Q 1688 2584 1439 2293 
Q 1191 2003 1191 1497 
Q 1191 994 1439 701 
Q 1688 409 2113 409 
Q 2538 409 2786 701 
Q 3034 994 3034 1497 
Q 3034 2003 2786 2293 
Q 2538 2584 2113 2584 
z
M 3366 4563 
L 3366 3988 
Q 3128 4100 2886 4159 
Q 2644 4219 2406 4219 
Q 1781 4219 1451 3797 
Q 1122 3375 1075 2522 
Q 1259 2794 1537 2939 
Q 1816 3084 2150 3084 
Q 2853 3084 3261 2657 
Q 3669 2231 3669 1497 
Q 3669 778 3244 343 
Q 2819 -91 2113 -91 
Q 1303 -91 875 529 
Q 447 1150 447 2328 
Q 447 3434 972 4092 
Q 1497 4750 2381 4750 
Q 2619 4750 2861 4703 
Q 3103 4656 3366 4563 
z
" transform="scale(0.015625)"/>
       </defs>
       <use xlink:href="#DejaVuSans-36"/>
       <use xlink:href="#DejaVuSans-30" x="63.623047"/>
      </g>
     </g>
    </g>
    <g id="ytick_8">
     <g id="line2d_56">
      <path d="M 51.05 201.993023 
L 493.2 201.993023 
" clip-path="url(#p72cf03756c)" style="fill: none; stroke: #b0b0b0; stroke-width: 0.8; stroke-linecap: square"/>
     </g>
     <g id="line2d_57">
      <g>
       <use xlink:href="#m7c6fe789e4" x="51.05" y="201.993023" style="stroke: #000000; stroke-width: 0.8"/>
      </g>
     </g>
     <g id="text_9">
      <!-- 80 -->
      <g transform="translate(31.325 205.792242) scale(0.1 -0.1)">
       <defs>
        <path id="DejaVuSans-38" d="M 2034 2216 
Q 1584 2216 1326 1975 
Q 1069 1734 1069 1313 
Q 1069 891 1326 650 
Q 1584 409 2034 409 
Q 2484 409 2743 651 
Q 3003 894 3003 1313 
Q 3003 1734 2745 1975 
Q 2488 2216 2034 2216 
z
M 1403 2484 
Q 997 2584 770 2862 
Q 544 3141 544 3541 
Q 544 4100 942 4425 
Q 1341 4750 2034 4750 
Q 2731 4750 3128 4425 
Q 3525 4100 3525 3541 
Q 3525 3141 3298 2862 
Q 3072 2584 2669 2484 
Q 3125 2378 3379 2068 
Q 3634 1759 3634 1313 
Q 3634 634 3220 271 
Q 2806 -91 2034 -91 
Q 1263 -91 848 271 
Q 434 634 434 1313 
Q 434 1759 690 2068 
Q 947 2378 1403 2484 
z
M 1172 3481 
Q 1172 3119 1398 2916 
Q 1625 2713 2034 2713 
Q 2441 2713 2670 2916 
Q 2900 3119 2900 3481 
Q 2900 3844 2670 4047 
Q 2441 4250 2034 4250 
Q 1625 4250 1398 4047 
Q 1172 3844 1172 3481 
z
" transform="scale(0.015625)"/>
       </defs>
       <use xlink:href="#DejaVuSans-38"/>
       <use xlink:href="#DejaVuSans-30" x="63.623047"/>
      </g>
     </g>
    </g>
    <g id="ytick_9">
     <g id="line2d_58">
      <path d="M 51.05 176.770853 
L 493.2 176.770853 
" clip-path="url(#p72cf03756c)" style="fill: none; stroke: #b0b0b0; stroke-width: 0.8; stroke-linecap: square"/>
     </g>
     <g id="line2d_59">
      <g>
       <use xlink:href="#m7c6fe789e4" x="51.05" y="176.770853" style="stroke: #000000; stroke-width: 0.8"/>
      </g>
     </g>
     <g id="text_10">
      <!-- 100 -->
      <g transform="translate(24.9625 180.570072) scale(0.1 -0.1)">
       <use xlink:href="#DejaVuSans-31"/>
       <use xlink:href="#DejaVuSans-30" x="63.623047"/>
       <use xlink:href="#DejaVuSans-30" x="127.246094"/>
      </g>
     </g>
    </g>
    <g id="text_11">
     <!-- Humidity [%RH] -->
     <g transform="translate(18.882813 279.973154) rotate(-90) scale(0.1 -0.1)">
      <defs>
       <path id="DejaVuSans-48" d="M 628 4666 
L 1259 4666 
L 1259 2753 
L 3553 2753 
L 3553 4666 
L 4184 4666 
L 4184 0 
L 3553 0 
L 3553 2222 
L 1259 2222 
L 1259 0 
L 628 0 
L 628 4666 
z
" transform="scale(0.015625)"/>
       <path id="DejaVuSans-69" d="M 603 3500 
L 1178 3500 
L 1178 0 
L 603 0 
L 603 3500 
z
M 603 4863 
L 1178 4863 
L 1178 4134 
L 603 4134 
L 603 4863 
z
" transform="scale(0.015625)"/>
       <path id="DejaVuSans-64" d="M 2906 2969 
L 2906 4863 
L 3481 4863 
L 3481 0 
L 2906 0 
L 2906 525 
Q 2725 213 2448 61 
Q 2172 -91 1784 -91 
Q 1150 -91 751 415 
Q 353 922 353 1747 
Q 353 2572 751 3078 
Q 1150 3584 1784 3584 
Q 2172 3584 2448 3432 
Q 2725 3281 2906 2969 
z
M 947 1747 
Q 947 1113 1208 752 
Q 1469 391 1925 391 
Q 2381 391 2643 752 
Q 2906 1113 2906 1747 
Q 2906 2381 2643 2742 
Q 2381 3103 1925 3103 
Q 1469 3103 1208 2742 
Q 947 2381 947 1747 
z
" transform="scale(0.015625)"/>
       <path id="DejaVuSans-79" d="M 2059 -325 
Q 1816 -950 1584 -1140 
Q 1353 -1331 966 -1331 
L 506 -1331 
L 506 -850 
L 844 -850 
Q 1081 -850 1212 -737 
Q 1344 -625 1503 -206 
L 1606 56 
L 191 3500 
L 800 3500 
L 1894 763 
L 2988 3500 
L 3597 3500 
L 2059 -325 
z
" transform="scale(0.015625)"/>
       <path id="DejaVuSans-25" d="M 4653 2053 
Q 4381 2053 4226 1822 
Q 4072 1591 4072 1178 
Q 4072 772 4226 539 
Q 4381 306 4653 306 
Q 4919 306 5073 539 
Q 5228 772 5228 1178 
Q 5228 1588 5073 1820 
Q 4919 2053 4653 2053 
z
M 4653 2450 
Q 5147 2450 5437 2106 
Q 5728 1763 5728 1178 
Q 5728 594 5436 251 
Q 5144 -91 4653 -91 
Q 4153 -91 3862 251 
Q 3572 594 3572 1178 
Q 3572 1766 3864 2108 
Q 4156 2450 4653 2450 
z
M 1428 4353 
Q 1159 4353 1004 4120 
Q 850 3888 850 3481 
Q 850 3069 1003 2837 
Q 1156 2606 1428 2606 
Q 1700 2606 1854 2837 
Q 2009 3069 2009 3481 
Q 2009 3884 1853 4118 
Q 1697 4353 1428 4353 
z
M 4250 4750 
L 4750 4750 
L 1831 -91 
L 1331 -91 
L 4250 4750 
z
M 1428 4750 
Q 1922 4750 2215 4408 
Q 2509 4066 2509 3481 
Q 2509 2891 2217 2550 
Q 1925 2209 1428 2209 
Q 931 2209 642 2551 
Q 353 2894 353 3481 
Q 353 4063 643 4406 
Q 934 4750 1428 4750 
z
" transform="scale(0.015625)"/>
       <path id="DejaVuSans-52" d="M 2841 2188 
Q 3044 2119 3236 1894 
Q 3428 1669 3622 1275 
L 4263 0 
L 3584 0 
L 2988 1197 
Q 2756 1666 2539 1819 
Q 2322 1972 1947 1972 
L 1259 1972 
L 1259 0 
L 628 0 
L 628 4666 
L 2053 4666 
Q 2853 4666 3247 4331 
Q 3641 3997 3641 3322 
Q 3641 2881 3436 2590 
Q 3231 2300 2841 2188 
z
M 1259 4147 
L 1259 2491 
L 2053 2491 
Q 2509 2491 2742 2702 
Q 2975 2913 2975 3322 
Q 2975 3731 2742 3939 
Q 2509 4147 2053 4147 
L 1259 4147 
z
" transform="scale(0.015625)"/>
      </defs>
      <use xlink:href="#DejaVuSans-48"/>
      <use xlink:href="#DejaVuSans-75" x="75.195312"/>
      <use xlink:href="#DejaVuSans-6d" x="138.574219"/>
      <use xlink:href="#DejaVuSans-69" x="235.986328"/>
      <use xlink:href="#DejaVuSans-64" x="263.769531"/>
      <use xlink:href="#DejaVuSans-69" x="327.246094"/>
      <use xlink:href="#DejaVuSans-74" x="355.029297"/>
      <use xlink:href="#DejaVuSans-79" x="394.238281"/>
      <use xlink:href="#DejaVuSans-20" x="453.417969"/>
      <use xlink:href="#DejaVuSans-5b" x="485.205078"/>
      <use xlink:href="#DejaVuSans-25" x="524.21875"/>
      <use xlink:href="#DejaVuSans-52" x="619.238281"/>
      <use xlink:href="#DejaVuSans-48" x="688.720703"/>
      <use xlink:href="#DejaVuSans-5d" x="763.916016"/>
     </g>
    </g>
   </g>
   <g id="line2d_60">
    <path d="M 51.05 277.659535 
L 83.945178 277.659535 
L 84.128432 275.137318 
L 86.333688 275.137318 
L 86.517839 272.615101 
L 86.701201 265.04845 
L 95.889675 265.04845 
L 96.074037 263.787341 
L 100.484552 263.787341 
L 100.667684 262.526233 
L 102.689588 262.526233 
L 102.8729 261.265124 
L 105.262355 261.265124 
L 105.447003 260.004016 
L 107.467591 260.004016 
L 107.650923 258.742907 
L 109.305261 258.742907 
L 109.672908 260.004016 
L 117.942027 260.004016 
L 118.126128 258.742907 
L 122.352512 258.742907 
L 122.721265 257.481799 
L 125.292843 257.481799 
L 125.660375 254.959582 
L 127.498069 254.959582 
L 127.682216 253.698473 
L 128.049798 253.698473 
L 128.233137 254.959582 
L 129.152761 254.959582 
L 129.335743 253.698473 
L 129.704386 253.698473 
L 129.887334 252.437365 
L 130.070838 253.698473 
L 130.805917 253.698473 
L 130.990481 254.959582 
L 131.908551 254.959582 
L 132.09269 253.698473 
L 134.113772 253.698473 
L 134.29788 252.437365 
L 142.934728 252.437365 
L 143.118906 251.176256 
L 143.853996 251.176256 
L 144.03735 252.437365 
L 148.815369 252.437365 
L 148.999558 251.176256 
L 149.367296 251.176256 
L 149.550467 252.437365 
L 150.653087 252.437365 
L 150.837437 251.176256 
L 151.572525 251.176256 
L 151.755711 252.437365 
L 153.410218 252.437365 
L 153.594741 251.176256 
L 154.328498 251.176256 
L 154.512905 252.437365 
L 155.798648 252.437365 
L 155.98299 251.176256 
L 156.533724 251.176256 
L 156.718051 252.437365 
L 157.270012 252.437365 
L 157.452778 251.176256 
L 157.820573 251.176256 
L 158.003901 252.437365 
L 158.923376 252.437365 
L 159.106523 244.870713 
L 159.290843 244.870713 
L 159.474048 243.609605 
L 160.02575 243.609605 
L 160.209135 244.870713 
L 160.393386 244.870713 
L 160.578 243.609605 
L 160.944227 242.348496 
L 161.128574 242.348496 
L 161.311752 241.087388 
L 161.496175 241.087388 
L 161.679312 242.348496 
L 161.863627 242.348496 
L 162.046825 243.609605 
L 162.414376 243.609605 
L 162.598857 251.176256 
L 162.781921 251.176256 
L 162.96616 252.437365 
L 165.171356 252.437365 
L 165.354688 244.870713 
L 165.53895 243.609605 
L 166.089798 243.609605 
L 166.27414 244.870713 
L 166.641742 244.870713 
L 166.824855 243.609605 
L 168.111882 243.609605 
L 168.295037 244.870713 
L 169.397669 244.870713 
L 169.765189 243.609605 
L 171.787174 243.609605 
L 171.970441 244.870713 
L 172.522234 244.870713 
L 172.705517 246.131822 
L 175.830239 246.131822 
L 176.013398 252.437365 
L 178.402923 252.437365 
L 178.586178 247.39293 
L 180.056346 247.39293 
L 180.240741 246.131822 
L 180.791413 246.131822 
L 180.975653 247.39293 
L 181.526494 247.39293 
L 181.710666 244.870713 
L 181.894014 244.870713 
L 182.078456 243.609605 
L 182.261562 243.609605 
L 182.445762 244.870713 
L 182.629128 244.870713 
L 182.813387 246.131822 
L 184.099273 246.131822 
L 184.283638 244.870713 
L 185.018206 244.870713 
L 185.201901 246.131822 
L 185.753742 246.131822 
L 185.937004 247.39293 
L 186.304518 247.39293 
L 186.488871 252.437365 
L 186.672088 252.437365 
L 186.856323 247.39293 
L 187.039589 246.131822 
L 187.224192 246.131822 
L 187.40716 244.870713 
L 187.591464 244.870713 
L 187.774678 246.131822 
L 187.95892 246.131822 
L 188.143542 252.437365 
L 189.244863 252.437365 
L 189.429076 253.698473 
L 189.979929 253.698473 
L 190.164225 252.437365 
L 191.266925 252.437365 
L 191.450084 246.131822 
L 191.81886 252.437365 
L 192.369599 252.437365 
L 192.552731 253.698473 
L 192.737028 252.437365 
L 192.920256 252.437365 
L 193.104503 246.131822 
L 193.47213 246.131822 
L 193.655339 244.870713 
L 193.839555 244.870713 
L 194.022879 246.131822 
L 195.12669 246.131822 
L 195.493027 243.609605 
L 195.677343 243.609605 
L 195.860575 242.348496 
L 196.044745 243.609605 
L 196.228134 243.609605 
L 196.412358 244.870713 
L 196.779936 244.870713 
L 196.963214 246.131822 
L 197.515169 242.348496 
L 197.882606 242.348496 
L 198.065803 243.609605 
L 198.800906 243.609605 
L 199.352876 239.826279 
L 200.087788 239.826279 
L 200.455247 242.348496 
L 201.006168 242.348496 
L 201.373697 239.826279 
L 201.741233 239.826279 
L 202.10999 241.087388 
L 202.292628 241.087388 
L 202.476325 242.348496 
L 202.843871 242.348496 
L 203.028198 239.826279 
L 204.314016 239.826279 
L 204.681563 242.348496 
L 204.865836 242.348496 
L 205.049107 243.609605 
L 205.418017 243.609605 
L 205.784167 241.087388 
L 206.15173 241.087388 
L 206.336187 242.348496 
L 206.519266 242.348496 
L 206.703497 243.609605 
L 207.254342 243.609605 
L 207.438692 242.348496 
L 207.621889 242.348496 
L 207.806292 241.087388 
L 207.989428 242.348496 
L 208.541386 242.348496 
L 208.724507 243.609605 
L 209.276071 242.348496 
L 209.45959 241.087388 
L 210.194684 241.087388 
L 210.562204 243.609605 
L 211.114125 243.609605 
L 211.481642 241.087388 
L 211.664828 241.087388 
L 211.849189 239.826279 
L 212.032375 239.826279 
L 212.216637 241.087388 
L 212.583606 241.087388 
L 212.767462 242.348496 
L 212.951701 242.348496 
L 213.319321 239.826279 
L 213.686749 239.826279 
L 213.870073 241.087388 
L 214.054366 241.087388 
L 214.237628 242.348496 
L 214.421829 242.348496 
L 214.605152 243.609605 
L 214.972696 241.087388 
L 215.707779 241.087388 
L 216.075303 242.348496 
L 216.442862 242.348496 
L 216.810394 239.826279 
L 216.99409 239.826279 
L 217.362196 242.348496 
L 217.54549 242.348496 
L 217.91301 239.826279 
L 218.64812 239.826279 
L 218.832462 241.087388 
L 219.015664 241.087388 
L 219.384406 242.348496 
L 219.567043 242.348496 
L 219.93515 239.826279 
L 223.978055 239.826279 
L 224.161214 241.087388 
L 224.896299 241.087388 
L 225.080699 239.826279 
L 226.367716 239.826279 
L 226.550496 241.087388 
L 226.733996 241.087388 
L 226.918292 239.826279 
L 227.653512 239.826279 
L 227.83661 241.087388 
L 228.020795 239.826279 
L 229.306775 239.826279 
L 229.491076 241.087388 
L 229.675552 241.087388 
L 229.85803 239.826279 
L 230.593583 239.826279 
L 230.961341 242.348496 
L 231.144473 242.348496 
L 231.328635 243.609605 
L 231.696381 243.609605 
L 231.879564 242.348496 
L 232.063844 242.348496 
L 232.247114 241.087388 
L 232.431306 242.348496 
L 233.533916 242.348496 
L 233.901594 239.826279 
L 235.004078 239.826279 
L 235.18744 241.087388 
L 235.739283 241.087388 
L 235.9225 239.826279 
L 240.51734 239.826279 
L 240.700533 241.087388 
L 240.884829 241.087388 
L 241.06808 242.348496 
L 241.435623 242.348496 
L 241.620037 243.609605 
L 243.090018 243.609605 
L 243.642233 239.826279 
L 244.008363 239.826279 
L 244.192663 241.087388 
L 244.560195 241.087388 
L 244.743465 242.348496 
L 244.92775 242.348496 
L 245.111012 241.087388 
L 245.662794 241.087388 
L 245.846087 242.348496 
L 247.132412 242.348496 
L 247.316249 241.087388 
L 247.500675 241.087388 
L 247.683807 242.348496 
L 247.868108 242.348496 
L 248.051339 243.609605 
L 249.521489 243.609605 
L 249.705698 242.348496 
L 249.889017 242.348496 
L 250.073299 241.087388 
L 251.543414 241.087388 
L 251.726722 239.826279 
L 252.646208 239.826279 
L 252.829355 241.087388 
L 253.564449 241.087388 
L 253.933195 242.348496 
L 254.115838 239.826279 
L 254.667053 239.826279 
L 254.851415 241.087388 
L 256.872298 241.087388 
L 257.056713 239.826279 
L 257.974921 239.826279 
L 258.159247 241.087388 
L 258.709996 241.087388 
L 258.8942 239.826279 
L 259.077535 239.826279 
L 259.261752 241.087388 
L 260.180169 241.087388 
L 260.364416 239.826279 
L 261.099285 239.826279 
L 261.282784 241.087388 
L 261.650343 241.087388 
L 261.834574 242.348496 
L 262.569622 242.348496 
L 262.752946 239.826279 
L 263.120492 239.826279 
L 263.304793 241.087388 
L 263.488028 241.087388 
L 263.672255 239.826279 
L 263.855575 239.826279 
L 264.03991 241.087388 
L 264.224347 241.087388 
L 264.406821 242.348496 
L 265.14252 242.348496 
L 265.509841 239.826279 
L 266.0608 239.826279 
L 266.245188 241.087388 
L 266.428355 241.087388 
L 266.61249 239.826279 
L 267.532179 239.826279 
L 267.898509 241.087388 
L 268.082724 239.826279 
L 271.941472 239.826279 
L 272.125676 241.087388 
L 272.49327 241.087388 
L 272.676548 239.826279 
L 273.411627 239.826279 
L 273.595812 241.087388 
L 274.515489 241.087388 
L 274.881784 239.826279 
L 275.249335 239.826279 
L 275.433697 241.087388 
L 275.616855 241.087388 
L 275.801144 239.826279 
L 278.924733 239.826279 
L 279.109167 241.087388 
L 279.292272 241.087388 
L 279.476764 242.348496 
L 280.394906 242.348496 
L 280.579474 243.609605 
L 280.946853 243.609605 
L 281.314327 241.087388 
L 281.681277 241.087388 
L 281.865075 242.348496 
L 282.049363 242.348496 
L 282.232599 243.609605 
L 282.416968 243.609605 
L 282.600145 242.348496 
L 283.335224 242.348496 
L 283.519632 243.609605 
L 284.07028 243.609605 
L 284.2547 244.870713 
L 284.806898 244.870713 
L 285.172913 246.131822 
L 287.010599 246.131822 
L 287.194957 244.870713 
L 287.562546 244.870713 
L 287.745709 246.131822 
L 288.664721 246.131822 
L 288.848308 244.870713 
L 289.032669 246.131822 
L 289.215859 246.131822 
L 289.40012 252.437365 
L 289.767576 252.437365 
L 289.950938 244.870713 
L 290.135329 246.131822 
L 290.318469 246.131822 
L 290.502636 252.437365 
L 290.68604 252.437365 
L 290.870374 253.698473 
L 291.237986 253.698473 
L 291.421118 254.959582 
L 291.605453 254.959582 
L 292.156186 256.22069 
L 292.523721 256.22069 
L 292.708105 254.959582 
L 293.075541 256.22069 
L 293.258807 256.22069 
L 293.443153 257.481799 
L 293.626355 257.481799 
L 293.993879 260.004016 
L 294.361425 260.004016 
L 294.545814 261.265124 
L 295.096497 261.265124 
L 295.463956 262.526233 
L 296.015952 262.526233 
L 296.199123 263.787341 
L 297.301714 263.787341 
L 297.486198 265.04845 
L 298.404359 265.04845 
L 298.773372 267.570667 
L 298.955677 267.570667 
L 299.139445 270.092884 
L 299.32378 270.092884 
L 299.506985 272.615101 
L 300.977116 272.615101 
L 301.161557 270.092884 
L 301.896594 270.092884 
L 302.081198 272.615101 
L 305.020083 272.615101 
L 305.204514 275.137318 
L 307.960371 275.137318 
L 308.144962 277.659535 
L 309.064366 277.659535 
L 309.246687 275.137318 
L 313.105901 275.137318 
L 313.290542 277.659535 
L 318.803538 277.659535 
L 318.986498 275.137318 
L 319.355186 275.137318 
L 319.72158 277.659535 
L 319.906014 277.659535 
L 320.089116 275.137318 
L 320.273691 275.137318 
L 320.456655 277.659535 
L 337.730951 277.659535 
L 337.915365 283.965078 
L 338.465988 283.965078 
L 338.650422 277.659535 
L 344.531182 277.659535 
L 344.71415 283.965078 
L 344.898707 283.965078 
L 345.081678 277.659535 
L 345.266342 277.659535 
L 345.449222 283.965078 
L 352.799983 283.965078 
L 353.167538 277.659535 
L 353.351953 283.965078 
L 382.938094 283.965078 
L 383.12257 277.659535 
L 392.494009 277.659535 
L 392.678524 275.137318 
L 392.861641 275.137318 
L 393.046099 270.092884 
L 396.904582 270.092884 
L 397.089067 273.87621 
L 404.990427 273.87621 
L 405.17483 270.092884 
L 424.469988 270.092884 
L 424.654243 265.04845 
L 435.12858 265.04845 
L 435.312806 263.787341 
L 435.496126 263.787341 
L 435.680418 265.04845 
L 436.782751 265.04845 
L 436.96629 263.787341 
L 445.971704 263.787341 
L 446.154787 265.04845 
L 450.749643 265.04845 
L 450.932803 263.787341 
L 451.117278 265.04845 
L 457.732834 265.04845 
L 457.916069 263.787341 
L 461.408298 263.787341 
L 461.591469 265.04845 
L 467.473696 265.04845 
L 467.839648 263.787341 
L 468.207189 263.787341 
L 468.57476 265.04845 
L 480.153173 265.04845 
L 480.336068 257.481799 
L 480.520625 265.04845 
L 481.071144 265.04845 
L 481.44035 257.481799 
L 486.951822 257.481799 
L 487.136333 254.959582 
L 490.076773 254.959582 
L 490.259685 252.437365 
L 491.179059 252.437365 
L 491.362291 254.959582 
L 493.016933 254.959582 
L 493.2 257.481799 
L 493.2 257.481799 
" clip-path="url(#p72cf03756c)" style="fill: none; stroke: #ff7f0e; stroke-width: 1.5; stroke-linecap: square"/>
   </g>
   <g id="patch_8">
    <path d="M 51.05 302.881706 
L 51.05 176.770853 
" style="fill: none; stroke: #000000; stroke-width: 0.8; stroke-linejoin: miter; stroke-linecap: square"/>
   </g>
   <g id="patch_9">
    <path d="M 493.2 302.881706 
L 493.2 176.770853 
" style="fill: none; stroke: #000000; stroke-width: 0.8; stroke-linejoin: miter; stroke-linecap: square"/>
   </g>
   <g id="patch_10">
    <path d="M 51.05 302.881706 
L 493.2 302.881706 
" style="fill: none; stroke: #000000; stroke-width: 0.8; stroke-linejoin: miter; stroke-linecap: square"/>
   </g>
   <g id="patch_11">
    <path d="M 51.05 176.770853 
L 493.2 176.770853 
" style="fill: none; stroke: #000000; stroke-width: 0.8; stroke-linejoin: miter; stroke-linecap: square"/>
   </g>
  </g>
  <g id="axes_3">
   <g id="patch_12">
    <path d="M 51.05 447.252558 
L 493.2 447.252558 
L 493.2 321.141706 
L 51.05 321.141706 
z
" style="fill: #ffffff"/>
   </g>
   <g id="matplotlib.axis_5">
    <g id="xtick_21">
     <g id="line2d_61">
      <path d="M 88.75267 447.252558 
L 88.75267 321.141706 
" clip-path="url(#p2ded3cf2d0)" style="fill: none; stroke: #b0b0b0; stroke-width: 0.8; stroke-linecap: square"/>
     </g>
     <g id="line2d_62">
      <g>
       <use xlink:href="#mbfef5f567f" x="88.75267" y="447.252558" style="stroke: #000000; stroke-width: 0.8"/>
      </g>
     </g>
     <g id="text_12">
      <!-- 02-04 18 -->
      <g transform="translate(74.807751 491.417649) rotate(-45) scale(0.1 -0.1)">
       <defs>
        <path id="DejaVuSans-2d" d="M 313 2009 
L 1997 2009 
L 1997 1497 
L 313 1497 
L 313 2009 
z
" transform="scale(0.015625)"/>
       </defs>
       <use xlink:href="#DejaVuSans-30"/>
       <use xlink:href="#DejaVuSans-32" x="63.623047"/>
       <use xlink:href="#DejaVuSans-2d" x="127.246094"/>
       <use xlink:href="#DejaVuSans-30" x="163.330078"/>
       <use xlink:href="#DejaVuSans-34" x="226.953125"/>
       <use xlink:href="#DejaVuSans-20" x="290.576172"/>
       <use xlink:href="#DejaVuSans-31" x="322.363281"/>
       <use xlink:href="#DejaVuSans-38" x="385.986328"/>
      </g>
     </g>
    </g>
    <g id="xtick_22">
     <g id="line2d_63">
      <path d="M 130.101446 447.252558 
L 130.101446 321.141706 
" clip-path="url(#p2ded3cf2d0)" style="fill: none; stroke: #b0b0b0; stroke-width: 0.8; stroke-linecap: square"/>
     </g>
     <g id="line2d_64">
      <g>
       <use xlink:href="#mbfef5f567f" x="130.101446" y="447.252558" style="stroke: #000000; stroke-width: 0.8"/>
      </g>
     </g>
     <g id="text_13">
      <!-- 02-04 21 -->
      <g transform="translate(116.156527 491.417649) rotate(-45) scale(0.1 -0.1)">
       <use xlink:href="#DejaVuSans-30"/>
       <use xlink:href="#DejaVuSans-32" x="63.623047"/>
       <use xlink:href="#DejaVuSans-2d" x="127.246094"/>
       <use xlink:href="#DejaVuSans-30" x="163.330078"/>
       <use xlink:href="#DejaVuSans-34" x="226.953125"/>
       <use xlink:href="#DejaVuSans-20" x="290.576172"/>
       <use xlink:href="#DejaVuSans-32" x="322.363281"/>
       <use xlink:href="#DejaVuSans-31" x="385.986328"/>
      </g>
     </g>
    </g>
    <g id="xtick_23">
     <g id="line2d_65">
      <path d="M 171.450222 447.252558 
L 171.450222 321.141706 
" clip-path="url(#p2ded3cf2d0)" style="fill: none; stroke: #b0b0b0; stroke-width: 0.8; stroke-linecap: square"/>
     </g>
     <g id="line2d_66">
      <g>
       <use xlink:href="#mbfef5f567f" x="171.450222" y="447.252558" style="stroke: #000000; stroke-width: 0.8"/>
      </g>
     </g>
     <g id="text_14">
      <!-- 02-05 00 -->
      <g transform="translate(157.505303 491.417649) rotate(-45) scale(0.1 -0.1)">
       <use xlink:href="#DejaVuSans-30"/>
       <use xlink:href="#DejaVuSans-32" x="63.623047"/>
       <use xlink:href="#DejaVuSans-2d" x="127.246094"/>
       <use xlink:href="#DejaVuSans-30" x="163.330078"/>
       <use xlink:href="#DejaVuSans-35" x="226.953125"/>
       <use xlink:href="#DejaVuSans-20" x="290.576172"/>
       <use xlink:href="#DejaVuSans-30" x="322.363281"/>
       <use xlink:href="#DejaVuSans-30" x="385.986328"/>
      </g>
     </g>
    </g>
    <g id="xtick_24">
     <g id="line2d_67">
      <path d="M 212.798998 447.252558 
L 212.798998 321.141706 
" clip-path="url(#p2ded3cf2d0)" style="fill: none; stroke: #b0b0b0; stroke-width: 0.8; stroke-linecap: square"/>
     </g>
     <g id="line2d_68">
      <g>
       <use xlink:href="#mbfef5f567f" x="212.798998" y="447.252558" style="stroke: #000000; stroke-width: 0.8"/>
      </g>
     </g>
     <g id="text_15">
      <!-- 02-05 03 -->
      <g transform="translate(198.854079 491.417649) rotate(-45) scale(0.1 -0.1)">
       <defs>
        <path id="DejaVuSans-33" d="M 2597 2516 
Q 3050 2419 3304 2112 
Q 3559 1806 3559 1356 
Q 3559 666 3084 287 
Q 2609 -91 1734 -91 
Q 1441 -91 1130 -33 
Q 819 25 488 141 
L 488 750 
Q 750 597 1062 519 
Q 1375 441 1716 441 
Q 2309 441 2620 675 
Q 2931 909 2931 1356 
Q 2931 1769 2642 2001 
Q 2353 2234 1838 2234 
L 1294 2234 
L 1294 2753 
L 1863 2753 
Q 2328 2753 2575 2939 
Q 2822 3125 2822 3475 
Q 2822 3834 2567 4026 
Q 2313 4219 1838 4219 
Q 1578 4219 1281 4162 
Q 984 4106 628 3988 
L 628 4550 
Q 988 4650 1302 4700 
Q 1616 4750 1894 4750 
Q 2613 4750 3031 4423 
Q 3450 4097 3450 3541 
Q 3450 3153 3228 2886 
Q 3006 2619 2597 2516 
z
" transform="scale(0.015625)"/>
       </defs>
       <use xlink:href="#DejaVuSans-30"/>
       <use xlink:href="#DejaVuSans-32" x="63.623047"/>
       <use xlink:href="#DejaVuSans-2d" x="127.246094"/>
       <use xlink:href="#DejaVuSans-30" x="163.330078"/>
       <use xlink:href="#DejaVuSans-35" x="226.953125"/>
       <use xlink:href="#DejaVuSans-20" x="290.576172"/>
       <use xlink:href="#DejaVuSans-30" x="322.363281"/>
       <use xlink:href="#DejaVuSans-33" x="385.986328"/>
      </g>
     </g>
    </g>
    <g id="xtick_25">
     <g id="line2d_69">
      <path d="M 254.147774 447.252558 
L 254.147774 321.141706 
" clip-path="url(#p2ded3cf2d0)" style="fill: none; stroke: #b0b0b0; stroke-width: 0.8; stroke-linecap: square"/>
     </g>
     <g id="line2d_70">
      <g>
       <use xlink:href="#mbfef5f567f" x="254.147774" y="447.252558" style="stroke: #000000; stroke-width: 0.8"/>
      </g>
     </g>
     <g id="text_16">
      <!-- 02-05 06 -->
      <g transform="translate(240.202854 491.417649) rotate(-45) scale(0.1 -0.1)">
       <use xlink:href="#DejaVuSans-30"/>
       <use xlink:href="#DejaVuSans-32" x="63.623047"/>
       <use xlink:href="#DejaVuSans-2d" x="127.246094"/>
       <use xlink:href="#DejaVuSans-30" x="163.330078"/>
       <use xlink:href="#DejaVuSans-35" x="226.953125"/>
       <use xlink:href="#DejaVuSans-20" x="290.576172"/>
       <use xlink:href="#DejaVuSans-30" x="322.363281"/>
       <use xlink:href="#DejaVuSans-36" x="385.986328"/>
      </g>
     </g>
    </g>
    <g id="xtick_26">
     <g id="line2d_71">
      <path d="M 295.496549 447.252558 
L 295.496549 321.141706 
" clip-path="url(#p2ded3cf2d0)" style="fill: none; stroke: #b0b0b0; stroke-width: 0.8; stroke-linecap: square"/>
     </g>
     <g id="line2d_72">
      <g>
       <use xlink:href="#mbfef5f567f" x="295.496549" y="447.252558" style="stroke: #000000; stroke-width: 0.8"/>
      </g>
     </g>
     <g id="text_17">
      <!-- 02-05 09 -->
      <g transform="translate(281.55163 491.417649) rotate(-45) scale(0.1 -0.1)">
       <defs>
        <path id="DejaVuSans-39" d="M 703 97 
L 703 672 
Q 941 559 1184 500 
Q 1428 441 1663 441 
Q 2288 441 2617 861 
Q 2947 1281 2994 2138 
Q 2813 1869 2534 1725 
Q 2256 1581 1919 1581 
Q 1219 1581 811 2004 
Q 403 2428 403 3163 
Q 403 3881 828 4315 
Q 1253 4750 1959 4750 
Q 2769 4750 3195 4129 
Q 3622 3509 3622 2328 
Q 3622 1225 3098 567 
Q 2575 -91 1691 -91 
Q 1453 -91 1209 -44 
Q 966 3 703 97 
z
M 1959 2075 
Q 2384 2075 2632 2365 
Q 2881 2656 2881 3163 
Q 2881 3666 2632 3958 
Q 2384 4250 1959 4250 
Q 1534 4250 1286 3958 
Q 1038 3666 1038 3163 
Q 1038 2656 1286 2365 
Q 1534 2075 1959 2075 
z
" transform="scale(0.015625)"/>
       </defs>
       <use xlink:href="#DejaVuSans-30"/>
       <use xlink:href="#DejaVuSans-32" x="63.623047"/>
       <use xlink:href="#DejaVuSans-2d" x="127.246094"/>
       <use xlink:href="#DejaVuSans-30" x="163.330078"/>
       <use xlink:href="#DejaVuSans-35" x="226.953125"/>
       <use xlink:href="#DejaVuSans-20" x="290.576172"/>
       <use xlink:href="#DejaVuSans-30" x="322.363281"/>
       <use xlink:href="#DejaVuSans-39" x="385.986328"/>
      </g>
     </g>
    </g>
    <g id="xtick_27">
     <g id="line2d_73">
      <path d="M 336.845325 447.252558 
L 336.845325 321.141706 
" clip-path="url(#p2ded3cf2d0)" style="fill: none; stroke: #b0b0b0; stroke-width: 0.8; stroke-linecap: square"/>
     </g>
     <g id="line2d_74">
      <g>
       <use xlink:href="#mbfef5f567f" x="336.845325" y="447.252558" style="stroke: #000000; stroke-width: 0.8"/>
      </g>
     </g>
     <g id="text_18">
      <!-- 02-05 12 -->
      <g transform="translate(322.900406 491.417649) rotate(-45) scale(0.1 -0.1)">
       <use xlink:href="#DejaVuSans-30"/>
       <use xlink:href="#DejaVuSans-32" x="63.623047"/>
       <use xlink:href="#DejaVuSans-2d" x="127.246094"/>
       <use xlink:href="#DejaVuSans-30" x="163.330078"/>
       <use xlink:href="#DejaVuSans-35" x="226.953125"/>
       <use xlink:href="#DejaVuSans-20" x="290.576172"/>
       <use xlink:href="#DejaVuSans-31" x="322.363281"/>
       <use xlink:href="#DejaVuSans-32" x="385.986328"/>
      </g>
     </g>
    </g>
    <g id="xtick_28">
     <g id="line2d_75">
      <path d="M 378.194101 447.252558 
L 378.194101 321.141706 
" clip-path="url(#p2ded3cf2d0)" style="fill: none; stroke: #b0b0b0; stroke-width: 0.8; stroke-linecap: square"/>
     </g>
     <g id="line2d_76">
      <g>
       <use xlink:href="#mbfef5f567f" x="378.194101" y="447.252558" style="stroke: #000000; stroke-width: 0.8"/>
      </g>
     </g>
     <g id="text_19">
      <!-- 02-05 15 -->
      <g transform="translate(364.249182 491.417649) rotate(-45) scale(0.1 -0.1)">
       <use xlink:href="#DejaVuSans-30"/>
       <use xlink:href="#DejaVuSans-32" x="63.623047"/>
       <use xlink:href="#DejaVuSans-2d" x="127.246094"/>
       <use xlink:href="#DejaVuSans-30" x="163.330078"/>
       <use xlink:href="#DejaVuSans-35" x="226.953125"/>
       <use xlink:href="#DejaVuSans-20" x="290.576172"/>
       <use xlink:href="#DejaVuSans-31" x="322.363281"/>
       <use xlink:href="#DejaVuSans-35" x="385.986328"/>
      </g>
     </g>
    </g>
    <g id="xtick_29">
     <g id="line2d_77">
      <path d="M 419.542877 447.252558 
L 419.542877 321.141706 
" clip-path="url(#p2ded3cf2d0)" style="fill: none; stroke: #b0b0b0; stroke-width: 0.8; stroke-linecap: square"/>
     </g>
     <g id="line2d_78">
      <g>
       <use xlink:href="#mbfef5f567f" x="419.542877" y="447.252558" style="stroke: #000000; stroke-width: 0.8"/>
      </g>
     </g>
     <g id="text_20">
      <!-- 02-05 18 -->
      <g transform="translate(405.597958 491.417649) rotate(-45) scale(0.1 -0.1)">
       <use xlink:href="#DejaVuSans-30"/>
       <use xlink:href="#DejaVuSans-32" x="63.623047"/>
       <use xlink:href="#DejaVuSans-2d" x="127.246094"/>
       <use xlink:href="#DejaVuSans-30" x="163.330078"/>
       <use xlink:href="#DejaVuSans-35" x="226.953125"/>
       <use xlink:href="#DejaVuSans-20" x="290.576172"/>
       <use xlink:href="#DejaVuSans-31" x="322.363281"/>
       <use xlink:href="#DejaVuSans-38" x="385.986328"/>
      </g>
     </g>
    </g>
    <g id="xtick_30">
     <g id="line2d_79">
      <path d="M 460.891652 447.252558 
L 460.891652 321.141706 
" clip-path="url(#p2ded3cf2d0)" style="fill: none; stroke: #b0b0b0; stroke-width: 0.8; stroke-linecap: square"/>
     </g>
     <g id="line2d_80">
      <g>
       <use xlink:href="#mbfef5f567f" x="460.891652" y="447.252558" style="stroke: #000000; stroke-width: 0.8"/>
      </g>
     </g>
     <g id="text_21">
      <!-- 02-05 21 -->
      <g transform="translate(446.946733 491.417649) rotate(-45) scale(0.1 -0.1)">
       <use xlink:href="#DejaVuSans-30"/>
       <use xlink:href="#DejaVuSans-32" x="63.623047"/>
       <use xlink:href="#DejaVuSans-2d" x="127.246094"/>
       <use xlink:href="#DejaVuSans-30" x="163.330078"/>
       <use xlink:href="#DejaVuSans-35" x="226.953125"/>
       <use xlink:href="#DejaVuSans-20" x="290.576172"/>
       <use xlink:href="#DejaVuSans-32" x="322.363281"/>
       <use xlink:href="#DejaVuSans-31" x="385.986328"/>
      </g>
     </g>
    </g>
   </g>
   <g id="matplotlib.axis_6">
    <g id="ytick_10">
     <g id="line2d_81">
      <path d="M 51.05 428.821566 
L 493.2 428.821566 
" clip-path="url(#p2ded3cf2d0)" style="fill: none; stroke: #b0b0b0; stroke-width: 0.8; stroke-linecap: square"/>
     </g>
     <g id="line2d_82">
      <g>
       <use xlink:href="#m7c6fe789e4" x="51.05" y="428.821566" style="stroke: #000000; stroke-width: 0.8"/>
      </g>
     </g>
     <g id="text_22">
      <!-- 600 -->
      <g transform="translate(24.9625 432.620784) scale(0.1 -0.1)">
       <use xlink:href="#DejaVuSans-36"/>
       <use xlink:href="#DejaVuSans-30" x="63.623047"/>
       <use xlink:href="#DejaVuSans-30" x="127.246094"/>
      </g>
     </g>
    </g>
    <g id="ytick_11">
     <g id="line2d_83">
      <path d="M 51.05 392.093637 
L 493.2 392.093637 
" clip-path="url(#p2ded3cf2d0)" style="fill: none; stroke: #b0b0b0; stroke-width: 0.8; stroke-linecap: square"/>
     </g>
     <g id="line2d_84">
      <g>
       <use xlink:href="#m7c6fe789e4" x="51.05" y="392.093637" style="stroke: #000000; stroke-width: 0.8"/>
      </g>
     </g>
     <g id="text_23">
      <!-- 620 -->
      <g transform="translate(24.9625 395.892856) scale(0.1 -0.1)">
       <use xlink:href="#DejaVuSans-36"/>
       <use xlink:href="#DejaVuSans-32" x="63.623047"/>
       <use xlink:href="#DejaVuSans-30" x="127.246094"/>
      </g>
     </g>
    </g>
    <g id="ytick_12">
     <g id="line2d_85">
      <path d="M 51.05 355.365708 
L 493.2 355.365708 
" clip-path="url(#p2ded3cf2d0)" style="fill: none; stroke: #b0b0b0; stroke-width: 0.8; stroke-linecap: square"/>
     </g>
     <g id="line2d_86">
      <g>
       <use xlink:href="#m7c6fe789e4" x="51.05" y="355.365708" style="stroke: #000000; stroke-width: 0.8"/>
      </g>
     </g>
     <g id="text_24">
      <!-- 640 -->
      <g transform="translate(24.9625 359.164927) scale(0.1 -0.1)">
       <use xlink:href="#DejaVuSans-36"/>
       <use xlink:href="#DejaVuSans-34" x="63.623047"/>
       <use xlink:href="#DejaVuSans-30" x="127.246094"/>
      </g>
     </g>
    </g>
    <g id="text_25">
     <!-- Rain [mm] -->
     <g transform="translate(18.882813 410.411976) rotate(-90) scale(0.1 -0.1)">
      <defs>
       <path id="DejaVuSans-6e" d="M 3513 2113 
L 3513 0 
L 2938 0 
L 2938 2094 
Q 2938 2591 2744 2837 
Q 2550 3084 2163 3084 
Q 1697 3084 1428 2787 
Q 1159 2491 1159 1978 
L 1159 0 
L 581 0 
L 581 3500 
L 1159 3500 
L 1159 2956 
Q 1366 3272 1645 3428 
Q 1925 3584 2291 3584 
Q 2894 3584 3203 3211 
Q 3513 2838 3513 2113 
z
" transform="scale(0.015625)"/>
      </defs>
      <use xlink:href="#DejaVuSans-52"/>
      <use xlink:href="#DejaVuSans-61" x="67.232422"/>
      <use xlink:href="#DejaVuSans-69" x="128.511719"/>
      <use xlink:href="#DejaVuSans-6e" x="156.294922"/>
      <use xlink:href="#DejaVuSans-20" x="219.673828"/>
      <use xlink:href="#DejaVuSans-5b" x="251.460938"/>
      <use xlink:href="#DejaVuSans-6d" x="290.474609"/>
      <use xlink:href="#DejaVuSans-6d" x="387.886719"/>
      <use xlink:href="#DejaVuSans-5d" x="485.298828"/>
     </g>
    </g>
   </g>
   <g id="line2d_87">
    <path d="M 51.05 384.197132 
L 493.2 384.197132 
L 493.2 384.197132 
" clip-path="url(#p2ded3cf2d0)" style="fill: none; stroke: #9467bd; stroke-width: 1.5; stroke-linecap: square"/>
   </g>
   <g id="patch_13">
    <path d="M 51.05 447.252558 
L 51.05 321.141706 
" style="fill: none; stroke: #000000; stroke-width: 0.8; stroke-linejoin: miter; stroke-linecap: square"/>
   </g>
   <g id="patch_14">
    <path d="M 493.2 447.252558 
L 493.2 321.141706 
" style="fill: none; stroke: #000000; stroke-width: 0.8; stroke-linejoin: miter; stroke-linecap: square"/>
   </g>
   <g id="patch_15">
    <path d="M 51.05 447.252558 
L 493.2 447.252558 
" style="fill: none; stroke: #000000; stroke-width: 0.8; stroke-linejoin: miter; stroke-linecap: square"/>
   </g>
   <g id="patch_16">
    <path d="M 51.05 321.141706 
L 493.2 321.141706 
" style="fill: none; stroke: #000000; stroke-width: 0.8; stroke-linejoin: miter; stroke-linecap: square"/>
   </g>
  </g>
  <g id="text_26">
   <!-- Weather data - February 2024 -->
   <g transform="translate(161.575312 19.198125) scale(0.12 -0.12)">
    <defs>
     <path id="DejaVuSans-57" d="M 213 4666 
L 850 4666 
L 1831 722 
L 2809 4666 
L 3519 4666 
L 4500 722 
L 5478 4666 
L 6119 4666 
L 4947 0 
L 4153 0 
L 3169 4050 
L 2175 0 
L 1381 0 
L 213 4666 
z
" transform="scale(0.015625)"/>
     <path id="DejaVuSans-68" d="M 3513 2113 
L 3513 0 
L 2938 0 
L 2938 2094 
Q 2938 2591 2744 2837 
Q 2550 3084 2163 3084 
Q 1697 3084 1428 2787 
Q 1159 2491 1159 1978 
L 1159 0 
L 581 0 
L 581 4863 
L 1159 4863 
L 1159 2956 
Q 1366 3272 1645 3428 
Q 1925 3584 2291 3584 
Q 2894 3584 3203 3211 
Q 3513 2838 3513 2113 
z
" transform="scale(0.015625)"/>
     <path id="DejaVuSans-46" d="M 628 4666 
L 3309 4666 
L 3309 4134 
L 1259 4134 
L 1259 2759 
L 3109 2759 
L 3109 2228 
L 1259 2228 
L 1259 0 
L 628 0 
L 628 4666 
z
" transform="scale(0.015625)"/>
     <path id="DejaVuSans-62" d="M 3116 1747 
Q 3116 2381 2855 2742 
Q 2594 3103 2138 3103 
Q 1681 3103 1420 2742 
Q 1159 2381 1159 1747 
Q 1159 1113 1420 752 
Q 1681 391 2138 391 
Q 2594 391 2855 752 
Q 3116 1113 3116 1747 
z
M 1159 2969 
Q 1341 3281 1617 3432 
Q 1894 3584 2278 3584 
Q 2916 3584 3314 3078 
Q 3713 2572 3713 1747 
Q 3713 922 3314 415 
Q 2916 -91 2278 -91 
Q 1894 -91 1617 61 
Q 1341 213 1159 525 
L 1159 0 
L 581 0 
L 581 4863 
L 1159 4863 
L 1159 2969 
z
" transform="scale(0.015625)"/>
    </defs>
    <use xlink:href="#DejaVuSans-57"/>
    <use xlink:href="#DejaVuSans-65" x="93.001953"/>
    <use xlink:href="#DejaVuSans-61" x="154.525391"/>
    <use xlink:href="#DejaVuSans-74" x="215.804688"/>
    <use xlink:href="#DejaVuSans-68" x="255.013672"/>
    <use xlink:href="#DejaVuSans-65" x="318.392578"/>
    <use xlink:href="#DejaVuSans-72" x="379.916016"/>
    <use xlink:href="#DejaVuSans-20" x="421.029297"/>
    <use xlink:href="#DejaVuSans-64" x="452.816406"/>
    <use xlink:href="#DejaVuSans-61" x="516.292969"/>
    <use xlink:href="#DejaVuSans-74" x="577.572266"/>
    <use xlink:href="#DejaVuSans-61" x="616.78125"/>
    <use xlink:href="#DejaVuSans-20" x="678.060547"/>
    <use xlink:href="#DejaVuSans-2d" x="709.847656"/>
    <use xlink:href="#DejaVuSans-20" x="745.931641"/>
    <use xlink:href="#DejaVuSans-46" x="777.71875"/>
    <use xlink:href="#DejaVuSans-65" x="829.738281"/>
    <use xlink:href="#DejaVuSans-62" x="891.261719"/>
    <use xlink:href="#DejaVuSans-72" x="954.738281"/>
    <use xlink:href="#DejaVuSans-75" x="995.851562"/>
    <use xlink:href="#DejaVuSans-61" x="1059.230469"/>
    <use xlink:href="#DejaVuSans-72" x="1120.509766"/>
    <use xlink:href="#DejaVuSans-79" x="1161.623047"/>
    <use xlink:href="#DejaVuSans-20" x="1220.802734"/>
    <use xlink:href="#DejaVuSans-32" x="1252.589844"/>
    <use xlink:href="#DejaVuSans-30" x="1316.212891"/>
    <use xlink:href="#DejaVuSans-32" x="1379.835938"/>
    <use xlink:href="#DejaVuSans-34" x="1443.458984"/>
   </g>
  </g>
 </g>
 <defs>
  <clipPath id="p2215fc7748">
   <rect x="51.05" y="32.4" width="442.15" height="126.110853"/>
  </clipPath>
  <clipPath id="p72cf03756c">
   <rect x="51.05" y="176.770853" width="442.15" height="126.110853"/>
  </clipPath>
  <clipPath id="p2ded3cf2d0">
   <rect x="51.05" y="321.141706" width="442.15" height="126.110853"/>
  </clipPath>
 </defs>
</svg>
